<svg xmlns="http://www.w3.org/2000/svg" xmlns:xlink="http://www.w3.org/1999/xlink" width="500" zoomAndPan="magnify" viewBox="0 0 375 374.999991" height="500" preserveAspectRatio="xMidYMid meet" version="1.2"><defs><clipPath id="409da126f8"><path d="M 187.5 0 C 83.945312 0 0 83.945312 0 187.5 C 0 291.054688 83.945312 375 187.5 375 C 291.054688 375 375 291.054688 375 187.5 C 375 83.945312 291.054688 0 187.5 0 Z M 187.5 0 "/></clipPath><clipPath id="a2e06dc28c"><path d="M 182 56.382812 L 193 56.382812 L 193 67 L 182 67 Z M 182 56.382812 "/></clipPath><clipPath id="5998de63f1"><path d="M 90.1875 59.003906 L 284.808594 59.003906 L 284.808594 318.613281 L 90.1875 318.613281 Z M 90.1875 59.003906 "/></clipPath></defs><g id="99daa22932"><g clip-rule="nonzero" clip-path="url(#409da126f8)"><rect x="0" width="375" y="0" height="374.999991" style="fill:#a2c36e;fill-opacity:1;stroke:none;"/><path style="fill:none;stroke-width:8;stroke-linecap:butt;stroke-linejoin:miter;stroke:#a2c36e;stroke-opacity:1;stroke-miterlimit:4;" d="M 249.999994 0 C 111.927078 0 -0.000006 111.927084 -0.000006 250 C -0.000006 388.072917 111.927078 500.000001 249.999994 500.000001 C 388.072911 500.000001 499.999995 388.072917 499.999995 250 C 499.999995 111.927084 388.072911 0 249.999994 0 Z M 249.999994 0 " transform="matrix(0.75,0,0,0.75,0.0000045,0)"/></g><path style=" stroke:none;fill-rule:nonzero;fill:#ffffff;fill-opacity:1;" d="M 110.671875 153.695312 C 110.671875 196.058594 145.136719 230.519531 187.496094 230.519531 C 229.859375 230.519531 264.324219 196.058594 264.324219 153.695312 C 264.324219 111.332031 229.859375 76.871094 187.496094 76.871094 C 145.136719 76.871094 110.671875 111.332031 110.671875 153.695312 Z M 187.496094 87.113281 C 224.210938 87.113281 254.078125 116.984375 254.078125 153.695312 C 254.078125 190.410156 224.210938 220.277344 187.496094 220.277344 C 150.785156 220.277344 120.914062 190.410156 120.914062 153.695312 C 120.914062 116.984375 150.785156 87.113281 187.496094 87.113281 "/><path style=" stroke:none;fill-rule:nonzero;fill:#ffffff;fill-opacity:1;" d="M 140.066406 144.5625 L 159.917969 164.125 L 155.351562 191.617188 C 155.03125 193.53125 155.824219 195.460938 157.390625 196.597656 C 158.960938 197.738281 161.042969 197.894531 162.765625 197.003906 L 187.496094 184.15625 L 212.230469 197.003906 C 213.9375 197.886719 216.015625 197.75 217.597656 196.597656 C 219.171875 195.460938 219.957031 193.53125 219.640625 191.617188 L 215.074219 164.125 L 234.925781 144.5625 C 236.308594 143.203125 236.804688 141.179688 236.203125 139.332031 C 235.601562 137.488281 234.011719 136.140625 232.09375 135.851562 L 204.542969 131.703125 L 192.078125 106.773438 C 191.210938 105.039062 189.4375 103.941406 187.496094 103.941406 C 185.558594 103.941406 183.785156 105.039062 182.917969 106.773438 L 170.449219 131.703125 L 142.898438 135.851562 C 140.980469 136.136719 139.390625 137.488281 138.789062 139.332031 C 138.1875 141.179688 138.6875 143.203125 140.066406 144.5625 Z M 174.605469 141.4375 C 176.253906 141.191406 177.679688 140.15625 178.425781 138.664062 L 187.496094 120.515625 L 196.570312 138.664062 C 197.316406 140.15625 198.742188 141.191406 200.390625 141.4375 L 220.441406 144.457031 L 205.992188 158.691406 C 204.804688 159.863281 204.261719 161.535156 204.53125 163.179688 L 207.855469 183.1875 L 189.855469 173.84375 C 189.117188 173.457031 188.308594 173.265625 187.496094 173.265625 C 186.6875 173.265625 185.875 173.457031 185.136719 173.84375 L 167.132812 183.1875 L 170.457031 163.179688 C 170.734375 161.535156 170.1875 159.863281 169 158.691406 L 154.550781 144.457031 L 174.605469 141.4375 "/><g clip-rule="nonzero" clip-path="url(#a2e06dc28c)"><path style=" stroke:none;fill-rule:nonzero;fill:#ffffff;fill-opacity:1;" d="M 192.621094 61.503906 C 192.621094 64.335938 190.328125 66.625 187.496094 66.625 C 184.667969 66.625 182.375 64.335938 182.375 61.503906 C 182.375 58.675781 184.667969 56.382812 187.496094 56.382812 C 190.328125 56.382812 192.621094 58.675781 192.621094 61.503906 "/></g><g clip-rule="nonzero" clip-path="url(#5998de63f1)"><path style=" stroke:none;fill-rule:nonzero;fill:#ffffff;fill-opacity:1;" d="M 163.359375 59.402344 C 120.273438 70.398438 90.1875 109.171875 90.1875 153.695312 C 90.1875 181.347656 101.8125 207.402344 122.222656 225.855469 L 91.363281 280.234375 C 90.371094 281.984375 90.496094 284.152344 91.679688 285.777344 C 92.863281 287.402344 94.890625 288.183594 96.859375 287.773438 L 131.902344 280.5 L 144.21875 315.203125 C 144.886719 317.09375 146.597656 318.414062 148.589844 318.59375 C 150.589844 318.769531 152.503906 317.765625 153.492188 316.023438 L 187.496094 256.242188 L 221.5 316.023438 C 222.414062 317.632812 224.121094 318.613281 225.945312 318.613281 C 226.097656 318.613281 226.25 318.605469 226.398438 318.59375 C 228.398438 318.414062 230.109375 317.089844 230.777344 315.203125 L 243.09375 280.5 L 278.132812 287.773438 C 280.101562 288.183594 282.128906 287.402344 283.3125 285.777344 C 284.5 284.152344 284.621094 281.984375 283.628906 280.234375 L 252.773438 225.855469 C 273.179688 207.402344 284.808594 181.347656 284.808594 153.695312 C 284.808594 109.171875 254.714844 70.398438 211.636719 59.402344 C 208.890625 58.703125 206.105469 60.355469 205.40625 63.097656 C 204.703125 65.835938 206.359375 68.628906 209.101562 69.328125 C 247.644531 79.167969 274.566406 113.859375 274.566406 153.695312 C 274.566406 202.175781 235.191406 240.765625 187.496094 240.765625 C 139.769531 240.765625 100.429688 202.144531 100.429688 153.695312 C 100.429688 113.859375 127.347656 79.167969 165.890625 69.328125 C 168.632812 68.628906 170.289062 65.835938 169.589844 63.097656 C 168.890625 60.355469 166.101562 58.703125 163.359375 59.402344 Z M 150.125 301.230469 L 140.0625 272.863281 C 139.203125 270.453125 136.699219 269.042969 134.191406 269.5625 L 105.859375 275.445312 L 130.277344 232.40625 C 144.515625 242.757812 161.378906 249.066406 178.910156 250.625 Z M 240.796875 269.5625 C 238.292969 269.042969 235.785156 270.453125 234.929688 272.863281 L 224.867188 301.230469 L 196.082031 250.625 C 213.617188 249.066406 230.476562 242.757812 244.71875 232.40625 L 269.136719 275.445312 L 240.796875 269.5625 "/></g></g></svg>