<svg xmlns="http://www.w3.org/2000/svg" xmlns:xlink="http://www.w3.org/1999/xlink" width="500" zoomAndPan="magnify" viewBox="0 0 375 374.999991" height="500" preserveAspectRatio="xMidYMid meet" version="1.0"><defs><clipPath id="87267263b2"><path d="M 187.5 0 C 83.945312 0 0 83.945312 0 187.5 C 0 291.054688 83.945312 375 187.5 375 C 291.054688 375 375 291.054688 375 187.5 C 375 83.945312 291.054688 0 187.5 0 Z M 187.5 0 " clip-rule="nonzero"/></clipPath><clipPath id="ab70bc7b11"><path d="M 52 76 L 324 76 L 324 298.808594 L 52 298.808594 Z M 52 76 " clip-rule="nonzero"/></clipPath></defs><g clip-path="url(#87267263b2)"><rect x="-37.5" width="450" fill="#a2c36e" y="-37.499999" height="449.999989" fill-opacity="1"/></g><g clip-path="url(#ab70bc7b11)"><path fill="#fffff9" d="M 284.671875 111.761719 C 269.203125 90.390625 244.410156 97.015625 219.269531 152.265625 C 216.820312 157.914062 216.996094 156.617188 214.335938 152.933594 C 210.136719 147.128906 203.613281 136.980469 196.328125 134.390625 C 185.289062 66.3125 147.535156 71.847656 135.71875 84.925781 C 120.425781 101.855469 109.53125 123.007812 102.261719 144.53125 C 101.839844 145.726562 101.796875 147.121094 100.304688 147.730469 C 64.144531 169.679688 18.824219 273.675781 88.992188 278.152344 C 91.722656 278.960938 97.351562 277.335938 97.652344 281.253906 C 97.6875 283.738281 98.117188 286.214844 98.226562 288.707031 C 98.453125 293.886719 98.007812 293.371094 94.261719 293.246094 C 93.609375 293.222656 92.914062 293.191406 92.300781 293.371094 C 90.621094 293.859375 88.140625 293.695312 88.179688 296.160156 C 88.226562 299.011719 90.738281 298.195312 92.414062 298.199219 C 93.8125 298.203125 257.089844 298.46875 279.015625 298.269531 C 280.773438 298.230469 282.449219 297.597656 282.925781 295.640625 C 283.246094 294.328125 281.679688 293.351562 279.074219 293.273438 C 270.214844 293.621094 267.796875 294.519531 267.722656 293.265625 C 267.535156 290.046875 267.898438 287.324219 267.886719 279.832031 C 267.886719 278.300781 267.097656 275.847656 268.976562 275.863281 C 299.804688 276.148438 321.460938 265.0625 323.320312 242.898438 C 325.765625 213.875 315.621094 154.515625 284.671875 111.761719 Z M 105.820312 143.140625 C 110.570312 126.523438 129.109375 88.519531 144.832031 81.789062 C 170.523438 70.800781 186.828125 95.660156 193.796875 132.320312 C 193.980469 133.265625 192.707031 134.367188 189.777344 134.355469 C 168.925781 134.285156 152.390625 166.695312 152.914062 160.726562 C 153.0625 159.074219 150.996094 135.867188 155.308594 131.5625 C 159.585938 127.503906 163.425781 122.992188 168.097656 119.335938 C 169.988281 118.007812 170.5625 115.660156 168.644531 114.070312 C 167.371094 112.777344 166.335938 113.238281 165.269531 114.246094 C 161.84375 117.492188 158.429688 120.75 154.992188 123.988281 C 154.554688 124.402344 154.152344 125.140625 153.378906 124.71875 C 152.152344 122.285156 153.839844 118.480469 152.652344 115.882812 C 151.425781 112.9375 147.316406 113.171875 147.472656 116.671875 C 147.105469 118.691406 148.488281 126.695312 146.742188 127.214844 C 145.875 127.472656 145.265625 126.289062 144.652344 125.636719 C 141.941406 122.816406 139.609375 119.5625 136.464844 117.199219 C 134.679688 115.757812 132.242188 118.324219 133.371094 120.207031 C 136.300781 125.019531 147.730469 133.257812 147.328125 138.0625 C 147.105469 148.023438 145.832031 176.417969 145.683594 176.695312 C 144.351562 179.203125 141.332031 187.988281 140.378906 183.449219 C 136.140625 168.917969 125.46875 146.296875 108.171875 145.8125 C 105.1875 145.898438 105.097656 145.742188 105.820312 143.140625 Z M 102.226562 260.386719 C 102.113281 258.472656 103.210938 257.183594 104.453125 255.972656 C 109.8125 250.761719 114.734375 245.109375 120.316406 240.113281 C 124.792969 237.136719 120.199219 232.222656 117.617188 235.117188 C 114.085938 239 109.902344 242.230469 106.527344 246.285156 C 103.570312 250.554688 102.335938 250.324219 101.847656 248.375 C 101.265625 246.046875 101.613281 232.726562 102.089844 229.929688 C 102.476562 227.660156 103.398438 225.5625 105.507812 223.824219 C 109.546875 219.699219 113.460938 215.453125 117.375 211.210938 C 121.058594 208.324219 116.058594 204.066406 113.589844 207.136719 C 110.15625 210.550781 107.101562 214.996094 103.210938 217.734375 C 101.167969 216.265625 103.765625 201.84375 103.59375 198.460938 C 103.847656 192.984375 119.171875 182.386719 114.082031 179.511719 C 110.773438 177.207031 108.769531 183.011719 106.488281 184.675781 C 105.917969 185.289062 105.695312 186.65625 104.566406 186.253906 C 103.753906 185.96875 104.242188 184.863281 104.125 184.128906 C 103.976562 183.230469 103.914062 182.308594 103.671875 181.4375 C 103.5625 179.347656 100.78125 179.300781 99.988281 181.027344 C 99.183594 182.554688 98.847656 184.230469 98.542969 185.917969 C 98.4375 186.492188 98.734375 187.375 97.894531 187.546875 C 94.671875 187.054688 93.105469 179.023438 89.25 181.039062 C 84.679688 186.0625 100.113281 191.300781 97.769531 201.835938 C 94.796875 220.605469 101.484375 225.0625 86.914062 211.558594 C 85.800781 210.625 84.632812 208.421875 82.703125 210.433594 C 78.960938 214.503906 97.246094 223.335938 96.175781 230.859375 C 94.976562 257.796875 101.78125 253.601562 80.125 239.722656 C 76.675781 236.941406 73.589844 240.769531 77.402344 243.269531 C 83.53125 247.554688 89.351562 252.242188 95.011719 257.136719 C 98.558594 261.085938 96.039062 269.457031 97.484375 274.65625 C 97.730469 276.164062 96.996094 276.84375 95.433594 276.570312 C 52.785156 276.269531 47.84375 244.113281 60.808594 210.328125 C 75.285156 166.8125 115.824219 111.171875 138.113281 185.03125 C 139.367188 189.460938 138.550781 192.960938 137.015625 197.027344 C 130.636719 216.949219 119.011719 242.503906 133.976562 261.148438 C 136.988281 264.742188 136.859375 264.800781 133.96875 268.335938 C 130.507812 272.566406 125.941406 275.140625 120.816406 276.511719 C 117.503906 277.265625 103.042969 280.832031 103.019531 275.3125 C 102.859375 270.332031 102.519531 265.363281 102.226562 260.386719 Z M 140.878906 273.285156 C 142.667969 282.195312 135.980469 278.410156 130.207031 277.769531 C 128.867188 277.707031 128.445312 276.328125 129.84375 275.902344 C 133.070312 274.039062 135.558594 271.410156 137.710938 268.417969 C 138.136719 267.824219 138.429688 266.839844 139.4375 267.269531 C 141.777344 268.179688 140.605469 271.324219 140.878906 273.285156 Z M 141.25 290.621094 C 140.964844 292.226562 140.230469 293.003906 138.707031 293.289062 C 137.421875 293.523438 112.746094 293.164062 107.757812 293.140625 C 104.300781 293.125 104.304688 293.101562 104.03125 289.839844 C 104.425781 287.386719 101.300781 279.4375 105.644531 280.1875 C 111.863281 281.136719 117.914062 280.101562 123.914062 278.609375 C 124.734375 278.402344 125.5 278.425781 126.203125 278.773438 C 129.835938 280.570312 133.808594 280.65625 137.707031 281.148438 C 140.8125 281.542969 141.46875 281.722656 141.359375 283.875 C 141.34375 284.25 141.472656 289.363281 141.25 290.621094 Z M 183.878906 293.269531 C 178.878906 293.179688 155.796875 293.257812 150.421875 293.207031 C 146.917969 293.175781 146.828125 293.039062 146.699219 289.75 C 144.625 275.835938 156.5 285.292969 166.335938 279.644531 C 171.296875 281.574219 186.03125 277.40625 185.957031 284.988281 C 185.519531 287.734375 188.65625 293.425781 183.878906 293.269531 Z M 146.53125 273.519531 C 146.703125 272.359375 147.261719 272.335938 148.125 272.726562 C 152.042969 274.5 155.679688 276.902344 159.878906 278.074219 C 161.84375 279.925781 155.191406 278.902344 154.316406 279.148438 C 154.316406 279.160156 154.316406 279.175781 154.316406 279.191406 C 149.660156 279.214844 145.078125 279.914062 146.53125 273.519531 Z M 190.222656 274.347656 C 189.996094 268.847656 190.097656 263.332031 189.957031 257.824219 C 191.972656 251.09375 202.648438 244.4375 208 239.757812 C 209.621094 237.867188 217.441406 233.5625 214.914062 230.980469 C 213.464844 228.8125 210.878906 229.175781 209.277344 231.128906 C 186.394531 249.054688 189.402344 256.082031 189.386719 229.726562 C 189.378906 229.726562 189.367188 229.726562 189.359375 229.726562 C 188.925781 205.121094 188.671875 213.476562 206.007812 197.300781 C 210.605469 193.894531 204.304688 189.132812 201.730469 193.171875 C 198.945312 196.542969 195.558594 199.226562 192.050781 201.78125 C 190.8125 203.328125 189.359375 203.167969 189.683594 200.886719 C 191.378906 176.742188 185.753906 179.878906 205.453125 163.441406 C 209.007812 160.933594 204.222656 156.410156 201.371094 159.390625 C 199.328125 160.710938 191.707031 169.472656 190.519531 168.574219 C 189.550781 166.707031 190.996094 164 188.714844 162.511719 C 186.738281 161.097656 185.242188 161.695312 184.988281 164.144531 C 184.769531 166.214844 185.46875 169.546875 184.050781 170.035156 C 181.957031 170.863281 177.722656 164.476562 175.105469 163.117188 C 172.796875 160.976562 169.691406 164.890625 172.242188 166.738281 C 190.261719 183.054688 184.160156 175.503906 183.9375 201.839844 C 184.925781 208.667969 171.289062 196.363281 168.597656 195.957031 C 166.5625 195.03125 164.65625 198.128906 166.3125 199.617188 C 171.039062 202.847656 175.714844 206.320312 180.890625 208.867188 C 183.097656 209.839844 183.726562 211.550781 183.707031 213.929688 C 183.605469 224.691406 183.671875 235.453125 183.671875 246.214844 C 184.183594 248.933594 182.605469 249.140625 180.9375 247.476562 C 175.390625 243.289062 170.257812 238.582031 164.445312 234.742188 C 162.277344 232.855469 159.246094 236.835938 161.675781 238.359375 C 167.433594 242.289062 172.40625 247.195312 177.953125 251.375 C 182.597656 253.273438 183.832031 252.707031 184.316406 258.335938 C 184.867188 264.207031 183.996094 270.128906 184.914062 275.996094 C 185.085938 277.109375 185.027344 278.167969 183.390625 278.007812 C 164.5625 278.695312 144.410156 273.34375 133.863281 256.480469 C 117.945312 238.035156 153.425781 144.59375 184.421875 136.84375 C 196.0625 133.933594 202.015625 138.835938 205.488281 143.339844 C 227.550781 171.941406 243.789062 204.660156 243.742188 245.414062 C 243.71875 266.324219 213.171875 276.484375 195.027344 278.253906 C 190.675781 278.394531 190.394531 278.566406 190.222656 274.347656 Z M 258.503906 293.246094 C 249.4375 293.273438 205.683594 293.269531 195.199219 293.246094 C 191.96875 293.238281 191.921875 293.191406 191.847656 290.0625 C 191.808594 288.234375 191.882812 286.398438 191.984375 284.570312 C 192.195312 280.914062 192.203125 280.789062 195.984375 280.371094 C 206.414062 279.878906 216.203125 276.359375 225.867188 272.699219 C 227.765625 272.304688 229.734375 270.363281 230.933594 270.917969 C 237.722656 274.027344 250.023438 276.128906 259.15625 275.339844 C 261.113281 275.171875 261.628906 275.988281 261.605469 278.070312 C 261.554688 282.128906 261.730469 286.191406 261.714844 290.253906 C 261.710938 293.164062 261.640625 293.238281 258.503906 293.246094 Z M 262.371094 270.90625 C 262.105469 272.269531 261.355469 273.207031 259.539062 273.109375 C 257.636719 273.265625 227.722656 271.449219 233.566406 267.929688 C 236.703125 264.789062 239.890625 261.695312 242.480469 258.023438 C 247.871094 252.375 244.457031 237.460938 248.441406 241.070312 C 252.480469 244.207031 255.964844 247.996094 259.867188 251.265625 C 261.113281 252.1875 261.785156 253.304688 262.136719 254.535156 C 262.914062 257.222656 262.816406 268.636719 262.371094 270.90625 Z M 269.328125 273.957031 C 267.296875 273.878906 267.386719 272.945312 267.390625 270.890625 C 267.40625 264.800781 266.035156 255.632812 269.546875 251.792969 C 274.640625 247.257812 279.574219 242.535156 284.765625 238.117188 C 287.277344 235.976562 289.449219 233.527344 291.816406 231.265625 C 293.507812 229.648438 293.242188 228.921875 291.453125 227.011719 C 289.964844 225.417969 288.757812 225.75 287.554688 227.199219 C 282.488281 233.296875 276.070312 237.953125 270.367188 243.375 C 269.183594 245.046875 267.558594 244.710938 268.101562 242.546875 C 268.730469 236.777344 267.703125 211.691406 268.347656 208.28125 C 269.433594 202.601562 273.019531 200.882812 283.492188 191.757812 C 285.203125 189.296875 292.585938 185.777344 289.074219 182.660156 C 287.464844 181.054688 286.398438 180.929688 284.8125 182.808594 C 282.328125 185.742188 268.167969 199.882812 268.796875 194.351562 C 268.824219 189.628906 269.132812 171.398438 269.359375 167.070312 C 269.519531 164.101562 270.136719 161.28125 272.039062 158.863281 C 275.8125 154.324219 278.886719 149.242188 282.890625 144.875 C 283.75 143.941406 284.777344 142.933594 283.664062 141.449219 C 282.289062 139.601562 280.683594 139.414062 279.203125 141.210938 C 276.453125 144.554688 273.816406 147.988281 271.144531 151.386719 C 268.640625 155.054688 269.808594 146.394531 267.121094 145.28125 C 265.378906 143.933594 264.140625 144.3125 263.835938 146.472656 C 263.652344 147.761719 263.84375 149.097656 263.71875 150.402344 C 263.617188 151.5 264.453125 153.164062 263.238281 153.550781 C 262.210938 153.878906 261.472656 152.230469 260.722656 151.382812 C 257.683594 148.347656 255.585938 144.285156 252.101562 141.75 C 250.050781 140.042969 247.421875 142.609375 249.28125 144.585938 C 253.082031 150.878906 264.636719 159.910156 263.882812 166.691406 C 263.460938 176.652344 262.9375 186.621094 263.046875 196.59375 C 263.414062 198.375 261.824219 198.953125 260.761719 197.546875 C 258.316406 194.949219 241.351562 178.566406 238.96875 183.460938 C 238.296875 184.699219 239.085938 185.441406 240.035156 186.023438 C 246.703125 190.089844 252.003906 195.773438 257.828125 200.851562 C 261.152344 203.75 262.949219 206.554688 262.539062 211.140625 C 262.074219 216.34375 262.160156 241.480469 262.316406 245.285156 C 262.308594 246.601562 261.183594 246.558594 260.59375 245.703125 C 257.390625 242.425781 253.625 239.660156 250.070312 236.839844 C 246.65625 235.558594 245.8125 232.898438 245.367188 229.539062 C 241.957031 205.601562 233.296875 181.835938 220.257812 161.5 C 218.945312 159.675781 218.945312 158.207031 219.851562 156.09375 C 231.277344 129.382812 259.53125 80.871094 284.40625 115.265625 C 310.214844 150.945312 321.46875 196.921875 321.46875 240.847656 C 321.472656 260.390625 300.683594 275.132812 269.328125 273.957031 Z M 269.328125 273.957031 " fill-opacity="1" fill-rule="nonzero"/></g></svg>