<svg xmlns="http://www.w3.org/2000/svg" xmlns:xlink="http://www.w3.org/1999/xlink" width="500" zoomAndPan="magnify" viewBox="0 0 375 374.999991" height="500" preserveAspectRatio="xMidYMid meet" version="1.0"><defs><g/><clipPath id="6c07514f8c"><path d="M 187.5 0 C 83.945312 0 0 83.945312 0 187.5 C 0 291.054688 83.945312 375 187.5 375 C 291.054688 375 375 291.054688 375 187.5 C 375 83.945312 291.054688 0 187.5 0 Z M 187.5 0 " clip-rule="nonzero"/></clipPath></defs><g clip-path="url(#6c07514f8c)"><rect x="-37.5" width="450" fill="#f47c2e" y="-37.499999" height="449.999989" fill-opacity="1"/></g><path fill="#ffffff" d="M 136.332031 321.308594 C 146.484375 309.074219 156.4375 296.65625 166.84375 284.636719 C 171.265625 279.539062 175.945312 274.535156 181.46875 270.613281 C 184.285156 268.59375 187.308594 266.949219 190.539062 265.679688 C 193.765625 264.414062 197.097656 263.558594 200.539062 263.117188 C 208.367188 262.085938 216.386719 262.378906 224.261719 262.285156 L 248.808594 262 L 260.902344 261.859375 C 264.21875 261.820312 268.097656 261.34375 271.207031 262.769531 C 277.132812 265.492188 274.109375 273.527344 269.871094 276.242188 C 266.683594 278.28125 262.839844 278.992188 259.136719 279.394531 C 254.773438 279.867188 250.386719 280.164062 246.011719 280.539062 L 218.558594 282.882812 C 216.210938 283.085938 216.191406 286.777344 218.558594 286.570312 L 245.289062 284.292969 C 249.5 283.929688 253.734375 283.609375 257.925781 283.203125 C 261.472656 282.863281 265.078125 282.398438 268.40625 281.082031 C 274.164062 278.789062 278.792969 273.523438 278.121094 266.984375 C 278.054688 266.25 277.90625 265.53125 277.664062 264.832031 C 277.425781 264.136719 277.109375 263.472656 276.710938 262.851562 C 276.3125 262.230469 275.847656 261.664062 275.3125 261.15625 C 274.777344 260.644531 274.191406 260.207031 273.550781 259.839844 C 270.621094 258.175781 267.117188 258.105469 263.835938 258.136719 C 246.113281 258.292969 228.382812 258.378906 210.671875 258.769531 C 202.722656 258.949219 194.769531 259.679688 187.421875 262.933594 C 180.910156 265.8125 175.28125 270.402344 170.300781 275.421875 C 164.097656 281.671875 158.640625 288.671875 153.03125 295.4375 L 133.730469 318.699219 C 132.222656 320.511719 134.820312 323.121094 136.335938 321.308594 Z M 136.332031 321.308594 " fill-opacity="1" fill-rule="nonzero"/><path fill="#ffffff" d="M 171.160156 340.257812 C 177.269531 329.207031 185.992188 319.007812 197.085938 312.75 C 199.910156 311.121094 202.890625 309.863281 206.03125 308.976562 C 209.167969 308.09375 212.367188 307.609375 215.628906 307.523438 C 223.453125 307.371094 231.308594 308.679688 239.097656 309.132812 C 246.738281 309.558594 254.757812 310.441406 262.371094 309.308594 C 269.308594 308.28125 275.414062 304.671875 281.167969 300.867188 C 294.367188 292.125 307.464844 283.242188 320.609375 274.429688 C 324.054688 272.121094 327.753906 269.984375 330.964844 267.351562 C 333.4375 265.316406 335.21875 261.984375 333.835938 258.792969 C 332.785156 256.382812 330.394531 255.742188 327.945312 255.898438 C 325.871094 256.03125 322.914062 256.675781 322.375 259.058594 C 321.847656 261.371094 325.402344 262.359375 325.929688 260.042969 C 325.882812 260.261719 325.871094 260.121094 326.203125 259.949219 C 326.589844 259.785156 326.992188 259.683594 327.410156 259.644531 C 328.097656 259.539062 329.34375 259.375 329.992188 259.738281 C 330.917969 260.261719 330.664062 261.75 330.277344 262.554688 C 329.605469 263.984375 328.128906 264.964844 326.867188 265.804688 C 320.835938 269.878906 314.804688 273.902344 308.75 277.945312 L 290.253906 290.339844 C 284.574219 294.148438 278.992188 298.242188 273.019531 301.566406 C 270.203125 303.1875 267.222656 304.40625 264.078125 305.222656 C 260.613281 306.066406 257.035156 306.132812 253.488281 306.050781 C 246.160156 305.878906 238.800781 305.527344 231.492188 304.90625 C 224.460938 304.3125 217.417969 303.273438 210.359375 304.261719 C 204.730469 305.066406 199.363281 307.140625 194.484375 310.003906 C 183.222656 316.609375 174.25 327.0625 167.976562 338.410156 C 166.828125 340.488281 170.011719 342.347656 171.160156 340.269531 Z M 171.160156 340.257812 " fill-opacity="1" fill-rule="nonzero"/><path fill="#ffffff" d="M 277.808594 271.882812 C 283.589844 268.273438 289.621094 265.144531 295.902344 262.496094 C 301.847656 260.015625 308.246094 257.496094 314.601562 256.324219 C 316.882812 255.921875 320.804688 255.574219 322.152344 258.050781 C 323.003906 259.613281 321.234375 260.378906 320.101562 261.03125 C 318.398438 262.007812 316.695312 262.980469 314.984375 263.949219 L 294.851562 275.4375 L 271.839844 288.566406 C 269.777344 289.738281 271.636719 292.929688 273.703125 291.75 L 320.042969 265.308594 C 322.753906 263.765625 326.535156 262.09375 326.074219 258.339844 C 325.695312 255.195312 322.652344 253.113281 319.738281 252.578125 C 316.621094 252.011719 313.4375 252.699219 310.4375 253.554688 C 306.695312 254.628906 302.984375 255.835938 299.332031 257.199219 C 291.15625 260.265625 283.359375 264.097656 275.9375 268.699219 C 273.925781 269.941406 275.773438 273.121094 277.800781 271.882812 Z M 277.808594 271.882812 " fill-opacity="1" fill-rule="nonzero"/><path fill="#ffffff" d="M 261.296875 255.261719 C 257.570312 242.339844 261.992188 228.535156 270.519531 218.484375 C 279.792969 207.558594 293.40625 201.648438 307.554688 200.613281 C 315.824219 200.042969 323.953125 200.867188 331.941406 203.09375 C 331.671875 202.0625 331.398438 201.039062 331.136719 200.007812 C 322.410156 209.1875 320.308594 222.015625 316.066406 233.484375 C 313.925781 239.253906 311.058594 244.867188 306.445312 249.054688 C 301.21875 253.804688 294.292969 256.324219 287.398438 257.382812 C 278.148438 258.8125 268.976562 257.007812 260.148438 254.226562 C 257.878906 253.511719 256.90625 257.070312 259.167969 257.78125 C 274.019531 262.464844 291.070312 263.835938 304.746094 254.964844 C 316.378906 247.425781 319.769531 234.105469 323.796875 221.707031 C 326.023438 214.835938 328.6875 207.9375 333.742188 202.617188 C 333.855469 202.503906 333.949219 202.375 334.027344 202.238281 C 334.105469 202.097656 334.164062 201.949219 334.207031 201.796875 C 334.246094 201.640625 334.265625 201.484375 334.265625 201.324219 C 334.269531 201.164062 334.246094 201.003906 334.207031 200.851562 C 334.167969 200.695312 334.109375 200.546875 334.027344 200.410156 C 333.949219 200.269531 333.855469 200.140625 333.746094 200.027344 C 333.632812 199.910156 333.511719 199.8125 333.375 199.730469 C 333.238281 199.644531 333.09375 199.582031 332.9375 199.535156 C 317.953125 195.429688 301.523438 195.59375 287.125 201.785156 C 273.726562 207.550781 262.894531 218.855469 258.324219 232.773438 C 257.050781 236.566406 256.363281 240.464844 256.261719 244.464844 C 256.160156 248.460938 256.648438 252.386719 257.722656 256.242188 C 258.382812 258.515625 261.941406 257.550781 261.28125 255.261719 Z M 261.296875 255.261719 " fill-opacity="1" fill-rule="nonzero"/><path fill="#ffffff" d="M 262.671875 254.730469 C 273.0625 238.183594 289.640625 225.632812 308.511719 220.410156 C 308.035156 219.285156 307.5625 218.164062 307.09375 217.039062 C 302.957031 218.984375 299.074219 221.507812 295.269531 224.023438 C 291.230469 226.636719 287.34375 229.460938 283.609375 232.492188 C 275.566406 239.175781 268.46875 246.96875 260.625 253.894531 C 258.84375 255.46875 261.464844 258.070312 263.234375 256.503906 C 270.992188 249.648438 278.023438 241.996094 285.945312 235.328125 C 289.515625 232.414062 293.234375 229.710938 297.113281 227.21875 C 300.917969 224.707031 304.800781 222.179688 308.933594 220.234375 C 310.851562 219.332031 309.484375 216.316406 307.511719 216.863281 C 287.734375 222.332031 270.386719 235.519531 259.488281 252.867188 C 258.222656 254.878906 261.414062 256.738281 262.671875 254.730469 Z M 262.671875 254.730469 " fill-opacity="1" fill-rule="nonzero"/><path fill="#ffffff" d="M 255.441406 255.394531 C 254.449219 248.511719 254.636719 241.375 252.140625 234.78125 C 250.15625 229.492188 247.101562 224.433594 242.929688 220.570312 C 238.246094 216.230469 232.398438 214.089844 226.210938 212.859375 C 219.242188 211.464844 212.234375 211.195312 205.179688 212.054688 C 204.046875 212.191406 203.007812 213.128906 203.402344 214.390625 C 206.414062 224.042969 208.652344 234.15625 213.855469 242.941406 C 218.988281 251.632812 227.253906 257.9375 237.335938 259.554688 C 240.171875 260.035156 243.023438 260.136719 245.886719 259.863281 C 248.75 259.589844 251.53125 258.953125 254.226562 257.945312 C 256.421875 257.109375 255.46875 253.523438 253.25 254.390625 C 251.855469 254.921875 250.433594 255.339844 248.980469 255.652344 C 247.523438 255.964844 246.054688 256.167969 244.570312 256.257812 C 243.082031 256.34375 241.601562 256.320312 240.117188 256.183594 C 238.636719 256.046875 237.171875 255.800781 235.730469 255.441406 C 234.285156 255.082031 232.875 254.613281 231.503906 254.042969 C 230.128906 253.46875 228.808594 252.792969 227.539062 252.019531 C 226.265625 251.246094 225.0625 250.378906 223.921875 249.421875 C 222.785156 248.464844 221.722656 247.425781 220.742188 246.304688 C 212.847656 237.203125 210.46875 224.613281 206.976562 213.433594 L 205.199219 215.765625 C 211.675781 214.945312 218.125 215.117188 224.546875 216.285156 C 230.53125 217.40625 236.265625 219.261719 240.726562 223.566406 C 242.71875 225.527344 244.433594 227.707031 245.875 230.097656 C 247.316406 232.492188 248.433594 235.027344 249.234375 237.703125 C 251.039062 243.738281 250.984375 250.167969 251.878906 256.375 C 252.210938 258.714844 255.765625 257.71875 255.429688 255.394531 Z M 255.441406 255.394531 " fill-opacity="1" fill-rule="nonzero"/><path fill="#ffffff" d="M 253.988281 254.382812 C 251.496094 252.257812 249.191406 249.945312 247.0625 247.457031 C 245.03125 245.042969 243.042969 242.664062 240.75 240.515625 C 236.191406 236.273438 231.058594 232.90625 225.351562 230.410156 C 224.875 231.53125 224.40625 232.660156 223.933594 233.78125 C 229.984375 236.082031 236.207031 238.398438 241.507812 242.222656 C 243.808594 243.902344 245.792969 245.894531 247.457031 248.207031 C 249.125 250.515625 250.390625 253.027344 251.253906 255.742188 C 251.96875 257.996094 255.53125 257.035156 254.808594 254.761719 C 253.84375 251.738281 252.449219 248.933594 250.617188 246.339844 C 248.789062 243.75 246.609375 241.492188 244.085938 239.574219 C 238.414062 235.257812 231.511719 232.738281 224.914062 230.246094 C 222.980469 229.511719 221.570312 232.78125 223.488281 233.617188 C 229.066406 236.023438 234.070312 239.308594 238.5 243.46875 C 240.675781 245.527344 242.519531 247.804688 244.46875 250.082031 C 246.597656 252.578125 248.90625 254.886719 251.402344 257.011719 C 253.195312 258.550781 255.824219 255.953125 254.007812 254.402344 Z M 253.988281 254.382812 " fill-opacity="1" fill-rule="nonzero"/><path fill="#ffffff" d="M 134.710938 321.640625 C 147.246094 325.304688 158.652344 332.207031 168.394531 340.832031 C 170.164062 342.402344 172.78125 339.804688 171 338.222656 C 160.78125 329.175781 148.847656 321.929688 135.683594 318.089844 C 133.402344 317.421875 132.425781 320.980469 134.703125 321.644531 Z M 134.710938 321.640625 " fill-opacity="1" fill-rule="nonzero"/><g fill="#ffffff" fill-opacity="1"><g transform="translate(63.867598, 187.16219)"><g><path d="M 86.96875 -85.6875 L 31.25 -85.6875 L 31.25 -62.78125 L 83.09375 -62.78125 L 83.09375 -45.359375 L 31.25 -45.359375 L 31.25 -17.421875 L 88.84375 -17.421875 L 88.84375 0 L 10.515625 0 L 10.515625 -103.109375 L 86.96875 -103.109375 Z M 86.96875 -85.6875 "/></g></g></g><g fill="#ffffff" fill-opacity="1"><g transform="translate(159.915542, 187.16219)"><g><path d="M 73.015625 -34.265625 L 73.015625 -103.109375 L 92.296875 -103.109375 L 92.296875 0 L 71.421875 0 L 29.953125 -67.25 L 29.953125 0 L 10.65625 0 L 10.65625 -103.109375 L 30.8125 -103.109375 Z M 73.015625 -34.265625 "/></g></g></g></svg>