<svg xmlns="http://www.w3.org/2000/svg" xmlns:xlink="http://www.w3.org/1999/xlink" width="500" zoomAndPan="magnify" viewBox="0 0 375 374.999991" height="500" preserveAspectRatio="xMidYMid meet" version="1.0"><defs><clipPath id="6ee20eb76e"><path d="M 187.5 0 C 83.945312 0 0 83.945312 0 187.5 C 0 291.054688 83.945312 375 187.5 375 C 291.054688 375 375 291.054688 375 187.5 C 375 83.945312 291.054688 0 187.5 0 Z M 187.5 0 " clip-rule="nonzero"/></clipPath><clipPath id="d8ef1a92bf"><path d="M 67.558594 78.078125 L 307.558594 78.078125 L 307.558594 318 L 67.558594 318 Z M 67.558594 78.078125 " clip-rule="nonzero"/></clipPath></defs><g clip-path="url(#6ee20eb76e)"><rect x="-37.5" width="450" fill="#fec743" y="-37.499999" height="449.999989" fill-opacity="1"/></g><path fill="#ffffff" d="M 238.640625 115.902344 L 238.640625 99.097656 C 238.640625 98.050781 237.789062 97.195312 236.738281 97.195312 C 235.6875 97.195312 234.835938 98.050781 234.835938 99.097656 L 234.835938 115.902344 C 234.835938 116.953125 235.6875 117.804688 236.738281 117.804688 C 237.789062 117.804688 238.640625 116.953125 238.640625 115.902344 Z M 238.640625 115.902344 " fill-opacity="1" fill-rule="nonzero"/><g clip-path="url(#d8ef1a92bf)"><path fill="#ffffff" d="M 300.351562 255.589844 C 297.039062 252.441406 292.554688 251.046875 286.65625 251.34375 C 268.167969 252.257812 247.25 270.527344 233.554688 291.710938 C 236.601562 279.238281 238.492188 266.464844 238.621094 251.046875 C 261.601562 248.164062 275.410156 237.457031 279.625 219.148438 C 279.628906 219.140625 279.625 219.132812 279.625 219.125 C 279.628906 219.113281 279.632812 219.105469 279.636719 219.097656 L 280.785156 213.417969 C 280.992188 212.386719 280.328125 211.382812 279.300781 211.175781 C 278.257812 210.964844 277.265625 211.632812 277.054688 212.660156 L 276.300781 216.371094 C 272.492188 215.398438 268.863281 214.914062 265.429688 214.945312 C 272.855469 209.503906 277.832031 202.351562 280.28125 193.511719 C 280.285156 193.503906 280.28125 193.5 280.285156 193.492188 C 280.285156 193.484375 280.292969 193.480469 280.292969 193.46875 L 281.789062 187.554688 C 282.046875 186.535156 281.433594 185.5 280.410156 185.242188 C 279.394531 184.984375 278.359375 185.601562 278.101562 186.621094 L 277.054688 190.753906 C 273.15625 189.894531 269.472656 189.476562 266 189.496094 C 273.667969 184.089844 278.242188 176.984375 279.617188 168.1875 C 279.617188 168.183594 279.621094 168.179688 279.621094 168.175781 L 280.980469 162.113281 C 281.210938 161.089844 280.566406 160.070312 279.542969 159.84375 C 278.523438 159.617188 277.5 160.257812 277.269531 161.28125 L 276.316406 165.542969 C 272.1875 164.742188 268.300781 164.382812 264.675781 164.488281 C 272.0625 159.015625 277.066406 151.546875 279.59375 142.097656 C 279.59375 142.09375 279.597656 142.09375 279.597656 142.089844 L 281.773438 134.414062 C 282.058594 133.402344 281.472656 132.351562 280.464844 132.066406 C 279.460938 131.777344 278.402344 132.367188 278.117188 133.378906 L 276.464844 139.207031 C 272.355469 138.003906 268.476562 137.378906 264.847656 137.367188 C 272.660156 131.738281 277.617188 124.738281 279.609375 116.390625 C 279.609375 116.386719 279.613281 116.386719 279.613281 116.382812 L 281.390625 109.511719 C 281.65625 108.496094 281.042969 107.457031 280.027344 107.191406 C 279.011719 106.929688 277.96875 107.542969 277.707031 108.558594 L 276.324219 113.90625 C 262.582031 113.042969 253.585938 113.972656 245.375 120.261719 C 248.867188 108.292969 246.625 95.929688 238.640625 86.5625 L 238.640625 80.074219 C 238.640625 79.023438 237.789062 78.171875 236.738281 78.171875 C 235.6875 78.171875 234.835938 79.023438 234.835938 80.074219 L 234.835938 86.5625 C 226.851562 95.929688 224.605469 108.292969 228.097656 120.261719 C 219.886719 113.96875 210.890625 113.039062 197.152344 113.90625 L 195.765625 108.558594 C 195.503906 107.539062 194.457031 106.933594 193.445312 107.191406 C 192.429688 107.457031 191.820312 108.492188 192.082031 109.511719 L 193.863281 116.378906 C 193.863281 116.382812 193.867188 116.386719 193.867188 116.386719 C 195.855469 124.738281 200.816406 131.734375 208.628906 137.363281 C 204.996094 137.378906 201.117188 138.003906 197.007812 139.207031 L 195.355469 133.375 C 195.070312 132.363281 194.011719 131.777344 193.007812 132.066406 C 192 132.351562 191.410156 133.402344 191.699219 134.414062 L 193.875 142.089844 C 193.875 142.089844 193.875 142.09375 193.878906 142.09375 C 196.410156 151.546875 201.410156 159.015625 208.796875 164.488281 C 205.171875 164.382812 201.285156 164.742188 197.15625 165.542969 L 196.203125 161.28125 C 195.972656 160.257812 194.957031 159.613281 193.929688 159.839844 C 192.90625 160.070312 192.261719 161.089844 192.488281 162.113281 L 193.851562 168.175781 C 193.851562 168.179688 193.851562 168.179688 193.855469 168.183594 C 195.230469 176.980469 199.800781 184.089844 207.46875 189.496094 C 204 189.476562 200.316406 189.894531 196.417969 190.75 L 195.371094 186.617188 C 195.109375 185.601562 194.070312 184.984375 193.0625 185.242188 C 192.042969 185.5 191.425781 186.535156 191.679688 187.554688 L 193.179688 193.46875 C 193.179688 193.476562 193.1875 193.480469 193.1875 193.492188 C 193.191406 193.496094 193.1875 193.503906 193.191406 193.507812 C 195.636719 202.351562 200.613281 209.503906 208.039062 214.945312 C 204.605469 214.914062 200.976562 215.398438 197.167969 216.371094 L 196.417969 212.660156 C 196.207031 211.632812 195.222656 210.96875 194.171875 211.175781 C 193.144531 211.382812 192.480469 212.386719 192.6875 213.417969 L 193.839844 219.097656 C 193.839844 219.105469 193.847656 219.113281 193.847656 219.125 C 193.851562 219.132812 193.847656 219.140625 193.847656 219.148438 C 198.0625 237.445312 211.859375 248.15625 234.816406 251.042969 C 234.660156 269.667969 231.867188 284.367188 227.558594 299.476562 C 223.441406 285.761719 215.257812 276.230469 204.453125 272.902344 C 191.675781 268.972656 169.78125 275.058594 160.097656 284.550781 C 159.382812 282.195312 158.625 279.890625 157.859375 277.558594 C 157.175781 275.484375 156.5 273.371094 155.84375 271.242188 C 177.289062 262.671875 187.925781 248.84375 187.398438 230.09375 C 187.398438 230.082031 187.394531 230.074219 187.394531 230.0625 C 187.394531 230.054688 187.398438 230.050781 187.398438 230.042969 L 187.082031 224.257812 C 187.027344 223.207031 186.050781 222.402344 185.082031 222.460938 C 184.03125 222.519531 183.226562 223.414062 183.285156 224.464844 L 183.492188 228.242188 C 179.5625 228.257812 175.929688 228.703125 172.617188 229.597656 C 178.429688 222.460938 181.449219 214.289062 181.589844 205.117188 C 181.589844 205.109375 181.585938 205.105469 181.585938 205.097656 C 181.585938 205.089844 181.589844 205.082031 181.589844 205.078125 L 181.550781 198.972656 C 181.542969 197.925781 180.695312 197.082031 179.648438 197.082031 C 179.644531 197.082031 179.640625 197.082031 179.636719 197.082031 C 178.585938 197.089844 177.738281 197.945312 177.746094 198.996094 L 177.773438 203.257812 C 173.785156 203.410156 170.113281 203.929688 166.761719 204.824219 C 172.824219 197.660156 175.464844 189.625 174.578125 180.761719 L 174.367188 174.554688 C 174.332031 173.503906 173.492188 172.695312 172.402344 172.71875 C 171.351562 172.753906 170.53125 173.632812 170.566406 174.683594 L 170.714844 179.046875 C 166.515625 179.308594 162.667969 179.941406 159.183594 180.949219 C 164.957031 173.796875 167.917969 165.3125 167.988281 155.527344 C 167.988281 155.527344 167.988281 155.523438 167.988281 155.519531 L 168.164062 147.546875 C 168.1875 146.496094 167.355469 145.625 166.300781 145.601562 C 165.265625 145.621094 164.378906 146.414062 164.359375 147.460938 L 164.226562 153.519531 C 159.945312 153.390625 156.035156 153.757812 152.519531 154.660156 C 158.664062 147.246094 161.703125 139.226562 161.53125 130.640625 C 161.53125 130.636719 161.53125 130.636719 161.53125 130.632812 L 161.53125 130.597656 L 161.523438 123.539062 C 161.519531 122.492188 160.667969 121.640625 159.621094 121.640625 L 159.617188 121.640625 C 158.566406 121.640625 157.714844 122.496094 157.71875 123.542969 L 157.726562 129.070312 C 144.203125 131.6875 135.734375 134.851562 129.371094 143.007812 C 129.738281 130.542969 124.457031 119.140625 114.375 112.085938 L 112.742188 105.808594 C 112.476562 104.789062 111.4375 104.183594 110.421875 104.445312 C 109.40625 104.710938 108.796875 105.75 109.058594 106.765625 L 110.691406 113.042969 C 105.320312 124.117188 106.257812 136.648438 112.652344 147.355469 C 103.121094 143.332031 94.183594 144.695312 81.101562 148.992188 L 78.414062 144.164062 C 77.90625 143.246094 76.75 142.914062 75.828125 143.425781 C 74.910156 143.9375 74.582031 145.09375 75.089844 146.011719 L 78.539062 152.210938 C 78.539062 152.214844 78.542969 152.21875 78.546875 152.222656 C 82.574219 159.796875 89.125 165.324219 98.097656 168.804688 C 94.59375 169.734375 91 171.3125 87.328125 173.507812 L 84.265625 168.285156 C 83.734375 167.375 82.566406 167.070312 81.664062 167.605469 C 80.753906 168.136719 80.453125 169.300781 80.984375 170.207031 L 85.003906 177.0625 C 85.007812 177.066406 85.007812 177.070312 85.007812 177.070312 L 85.019531 177.089844 C 89.847656 185.605469 96.570312 191.574219 105.101562 195.007812 C 101.5625 195.820312 97.894531 197.148438 94.097656 198.960938 L 92.101562 195.078125 C 91.617188 194.144531 90.472656 193.773438 89.539062 194.257812 C 88.605469 194.738281 88.234375 195.882812 88.714844 196.820312 L 91.554688 202.34375 C 91.558594 202.347656 91.558594 202.347656 91.558594 202.351562 C 95.105469 210.515625 101.3125 216.25 110.089844 219.550781 C 106.730469 220.40625 103.273438 221.738281 99.71875 223.546875 L 97.667969 219.808594 C 97.160156 218.886719 96.003906 218.550781 95.085938 219.058594 C 94.164062 219.5625 93.828125 220.71875 94.335938 221.640625 L 97.273438 226.988281 C 97.277344 226.996094 97.285156 227.003906 97.289062 227.011719 C 97.292969 227.015625 97.292969 227.023438 97.292969 227.027344 C 101.886719 234.96875 108.5 240.636719 117.058594 244.035156 C 113.726562 244.867188 110.335938 246.25 106.894531 248.148438 L 105.234375 244.75 C 104.773438 243.804688 103.628906 243.410156 102.691406 243.875 C 101.746094 244.335938 101.355469 245.476562 101.816406 246.417969 L 104.359375 251.625 C 104.363281 251.636719 104.371094 251.640625 104.375 251.648438 C 104.378906 251.65625 104.375 251.664062 104.378906 251.667969 C 111.753906 265.8125 124.421875 272.933594 142.125 272.933594 C 145.304688 272.933594 148.65625 272.6875 152.15625 272.230469 C 152.839844 274.449219 153.539062 276.613281 154.242188 278.738281 C 157.210938 287.753906 160.03125 296.351562 160.769531 309.25 C 153.492188 298.828125 136.304688 277.761719 115.121094 275.734375 C 87.316406 273.082031 68.835938 300.363281 68.066406 301.527344 C 67.558594 302.292969 67.667969 303.308594 68.324219 303.945312 C 68.984375 304.585938 70.003906 304.660156 70.75 304.132812 C 70.957031 303.988281 91.609375 289.582031 114.832031 293.59375 C 137.820312 297.566406 147.753906 316.613281 147.851562 316.804688 C 148.175781 317.441406 148.832031 317.847656 149.550781 317.847656 L 162.863281 317.847656 C 163.09375 317.847656 163.308594 317.789062 163.519531 317.710938 C 163.574219 317.695312 163.621094 317.671875 163.671875 317.648438 C 163.867188 317.554688 164.050781 317.441406 164.203125 317.289062 C 164.207031 317.289062 164.207031 317.285156 164.210938 317.285156 C 164.324219 317.167969 164.429688 317.035156 164.511719 316.890625 C 164.535156 316.84375 164.546875 316.796875 164.566406 316.753906 C 164.59375 316.699219 164.613281 316.648438 164.632812 316.59375 C 164.710938 316.386719 164.761719 316.175781 164.761719 315.957031 C 164.761719 315.953125 164.765625 315.949219 164.765625 315.941406 C 164.765625 315.941406 164.765625 315.9375 164.765625 315.933594 C 164.765625 304.816406 163.394531 296.648438 161.480469 289.382812 C 166.597656 286.945312 185.367188 279.011719 197.992188 286.976562 C 212.804688 296.324219 215.683594 316.003906 215.707031 316.199219 C 215.835938 317.140625 216.644531 317.84375 217.59375 317.84375 L 223.667969 317.84375 C 223.683594 317.84375 223.699219 317.84375 223.710938 317.84375 C 223.726562 317.84375 223.742188 317.84375 223.753906 317.84375 L 242.753906 317.84375 C 243.632812 317.84375 244.394531 317.242188 244.601562 316.390625 C 250.890625 290.523438 273.242188 265.546875 285.980469 265.0625 C 297.757812 264.621094 300.476562 276.800781 303.113281 288.585938 L 303.675781 291.078125 C 303.886719 292.023438 304.773438 292.664062 305.742188 292.546875 C 306.707031 292.4375 307.433594 291.625 307.433594 290.65625 C 307.429688 275.457031 307.429688 262.324219 300.351562 255.589844 Z M 130.011719 172.238281 C 131.320312 171.515625 132.59375 170.785156 133.824219 170.042969 C 132.800781 172.109375 131.925781 174.363281 131.199219 176.816406 Z M 136.46875 197.074219 C 137.597656 196.589844 138.707031 196.089844 139.777344 195.574219 C 138.871094 197.144531 138.078125 198.824219 137.386719 200.613281 Z M 133.707031 201.574219 C 132.242188 200.347656 130.730469 199.273438 129.179688 198.347656 C 130.355469 198.277344 131.570312 198.148438 132.785156 198.023438 Z M 142.847656 221.625 C 144.222656 220.992188 145.550781 220.347656 146.832031 219.691406 C 145.730469 221.597656 144.765625 223.664062 143.960938 225.898438 Z M 140.28125 226.855469 C 138.488281 225.296875 136.640625 223.960938 134.75 222.832031 C 136.191406 222.78125 137.664062 222.691406 139.167969 222.578125 Z M 149.347656 246.625 C 150.800781 245.941406 152.199219 245.238281 153.554688 244.519531 C 152.40625 246.542969 151.402344 248.769531 150.53125 251.167969 Z M 146.851562 252.125 C 144.921875 250.457031 142.964844 249.003906 140.976562 247.792969 C 142.507812 247.765625 144.074219 247.695312 145.671875 247.585938 Z M 183.609375 232.015625 C 183.390625 248.195312 173.921875 259.84375 154.796875 267.566406 L 152.375 258.257812 C 156.601562 240.648438 166.828125 232.039062 183.609375 232.015625 Z M 148.378906 242.878906 L 145.859375 233.195312 C 149.425781 216.351562 159.851562 207.769531 177.703125 207.039062 C 176.714844 222.1875 167.078125 233.933594 148.378906 242.878906 Z M 141.878906 217.882812 L 139.234375 207.71875 C 142.664062 192.101562 153.03125 183.9375 170.914062 182.816406 C 171.503906 196.789062 161.726562 208.570312 141.878906 217.882812 Z M 164.136719 157.289062 C 163.585938 169.265625 158.273438 178.847656 148.074219 186.292969 C 147.878906 186.4375 147.671875 186.570312 147.480469 186.71875 C 144.03125 189.164062 140.039062 191.371094 135.5 193.351562 L 133.304688 184.910156 C 136.296875 165.796875 146.375 156.738281 164.136719 157.289062 Z M 157.695312 132.949219 C 157.203125 142.617188 152.179688 151.363281 142.480469 159.394531 C 141.921875 159.808594 141.371094 160.230469 140.851562 160.691406 C 137.4375 163.347656 133.496094 165.929688 129.023438 168.4375 L 126.292969 157.9375 C 127.007812 156.085938 127.597656 154.230469 128.0625 152.378906 C 133.699219 140.839844 140.269531 136.429688 157.695312 132.949219 Z M 113.449219 116.097656 C 124.566406 124.714844 128.453125 139.6875 123.464844 154.625 C 111.832031 144.007812 107.9375 129.039062 113.449219 116.097656 Z M 83.015625 152.367188 C 99.9375 146.917969 107.820312 147.574219 118.359375 154.90625 C 119.667969 156.296875 121.085938 157.628906 122.613281 158.898438 L 125.339844 169.402344 C 120.277344 169.394531 115.625 169.074219 111.390625 168.433594 C 110.519531 168.238281 109.640625 168.097656 108.757812 167.996094 C 96.597656 165.664062 88.09375 160.476562 83.015625 152.367188 Z M 125.789062 173.21875 C 125.96875 173.21875 126.152344 173.214844 126.335938 173.214844 L 127.519531 177.777344 C 125.699219 175.992188 123.839844 174.453125 121.945312 173.144531 C 123.203125 173.1875 124.476562 173.21875 125.789062 173.21875 Z M 89.242188 176.761719 C 104.46875 167.632812 117.695312 170.628906 129.625 185.871094 L 131.820312 194.308594 C 126.886719 194.789062 122.324219 194.808594 118.121094 194.351562 C 117.886719 194.320312 117.652344 194.300781 117.421875 194.273438 C 104.871094 192.742188 95.5625 186.957031 89.242188 176.761719 Z M 95.757812 202.359375 C 111.917969 194.625 124.953125 196.707031 135.554688 208.679688 L 138.199219 218.839844 C 116.316406 220.378906 102.046875 214.847656 95.757812 202.359375 Z M 101.625 226.820312 C 108.652344 223.265625 115.164062 221.75 121.214844 222.269531 C 121.253906 222.277344 121.292969 222.277344 121.328125 222.285156 C 128.96875 222.972656 135.875 226.929688 142.179688 234.152344 L 144.695312 243.835938 C 124.011719 245.132812 109.859375 239.570312 101.625 226.820312 Z M 108.628906 251.511719 C 123.304688 243.355469 136.425781 245.894531 148.695312 259.21875 L 151.113281 268.527344 C 130.628906 271.09375 116.703125 265.53125 108.628906 251.511719 Z M 150.671875 314.050781 C 148.164062 309.730469 137.472656 293.652344 115.480469 289.851562 C 100.304688 287.226562 86.433594 291.789062 77.765625 295.851562 C 85.175781 288.226562 98.382812 277.953125 114.761719 279.53125 C 136.058594 281.566406 153.820312 305.652344 159.402344 314.046875 L 150.671875 314.046875 Z M 275.472656 220.054688 C 271.1875 235.65625 259.09375 244.546875 238.640625 247.210938 L 238.640625 237.589844 C 247.160156 221.613281 259.222656 215.855469 275.472656 220.054688 Z M 238.640625 230.261719 L 238.640625 225.574219 C 240.214844 225.277344 241.746094 224.949219 243.238281 224.59375 C 241.617188 226.261719 240.085938 228.160156 238.640625 230.261719 Z M 276.042969 194.394531 C 271.277344 208.804688 258.992188 217.75 238.640625 221.703125 L 238.640625 211.695312 C 246.328125 196.289062 258.585938 190.609375 276.042969 194.394531 Z M 238.640625 204.152344 L 238.640625 199.738281 C 240.125 199.46875 241.574219 199.183594 242.980469 198.871094 C 241.433594 200.4375 239.984375 202.191406 238.640625 204.152344 Z M 275.566406 169.242188 C 272.621094 182.914062 260.195312 191.851562 238.640625 195.875 L 238.640625 185.371094 C 245.886719 171.125 257.976562 165.820312 275.566406 169.242188 Z M 238.640625 178.03125 L 238.640625 174.371094 C 239.859375 174.1875 241.058594 173.984375 242.222656 173.753906 C 240.949219 175.046875 239.757812 176.472656 238.640625 178.03125 Z M 252.515625 166.886719 C 252.320312 166.964844 252.121094 167.035156 251.925781 167.117188 C 247.964844 168.617188 243.539062 169.75 238.640625 170.527344 L 238.640625 161.804688 C 246.34375 144.058594 258.394531 137.828125 275.429688 142.832031 C 271.875 154.304688 264.300781 162.25 252.515625 166.886719 Z M 238.640625 153.445312 L 238.640625 148.714844 C 240.089844 148.34375 241.507812 147.953125 242.882812 147.546875 C 241.375 149.292969 239.957031 151.253906 238.640625 153.445312 Z M 275.320312 117.652344 C 272.414062 126.890625 265.34375 134.089844 253.925781 139.421875 C 253.289062 139.683594 252.65625 139.949219 252.042969 140.257812 C 248.070312 141.972656 243.601562 143.480469 238.640625 144.785156 L 238.640625 133.9375 C 239.796875 132.324219 240.835938 130.675781 241.753906 129 C 250.109375 119.253906 257.578125 116.636719 275.320312 117.652344 Z M 236.738281 90.210938 C 245.332031 101.347656 245.324219 116.816406 236.738281 130.019531 C 228.148438 116.816406 228.144531 101.347656 236.738281 90.210938 Z M 198.15625 117.652344 C 215.898438 116.636719 223.367188 119.253906 231.726562 129.003906 C 232.640625 130.679688 233.679688 132.328125 234.835938 133.9375 L 234.835938 144.785156 C 229.875 143.480469 225.40625 141.972656 221.433594 140.257812 C 220.816406 139.949219 220.183594 139.679688 219.546875 139.421875 C 208.128906 134.089844 201.0625 126.890625 198.15625 117.652344 Z M 234.835938 148.714844 L 234.835938 153.445312 C 233.515625 151.25 232.101562 149.289062 230.589844 147.546875 C 231.96875 147.953125 233.382812 148.34375 234.835938 148.714844 Z M 198.046875 142.832031 C 215.074219 137.828125 227.128906 144.058594 234.835938 161.804688 L 234.835938 170.527344 C 229.933594 169.75 225.507812 168.617188 221.550781 167.117188 C 221.359375 167.035156 221.164062 166.96875 220.96875 166.890625 C 209.179688 162.253906 201.601562 154.308594 198.046875 142.832031 Z M 234.835938 174.371094 L 234.835938 178.03125 C 233.71875 176.472656 232.527344 175.042969 231.25 173.753906 C 232.417969 173.984375 233.617188 174.1875 234.835938 174.371094 Z M 197.910156 169.242188 C 215.492188 165.824219 227.585938 171.121094 234.835938 185.371094 L 234.835938 195.875 C 213.28125 191.851562 200.851562 182.914062 197.910156 169.242188 Z M 234.835938 199.738281 L 234.835938 204.15625 C 233.492188 202.195312 232.042969 200.441406 230.496094 198.871094 C 231.902344 199.183594 233.351562 199.46875 234.835938 199.738281 Z M 197.433594 194.394531 C 214.898438 190.609375 227.144531 196.289062 234.835938 211.695312 L 234.835938 221.703125 C 214.480469 217.75 202.195312 208.804688 197.433594 194.394531 Z M 234.835938 225.574219 L 234.835938 230.261719 C 233.386719 228.164062 231.859375 226.261719 230.238281 224.59375 C 231.726562 224.949219 233.261719 225.277344 234.835938 225.574219 Z M 198.003906 220.054688 C 214.253906 215.851562 226.3125 221.613281 234.835938 237.59375 L 234.835938 247.210938 C 214.382812 244.546875 202.285156 235.65625 198.003906 220.054688 Z M 222.355469 314.050781 L 219.195312 314.050781 C 218.152344 308.804688 213.898438 292.523438 200.023438 283.769531 C 190.828125 277.964844 179.277344 279.359375 170.664062 281.832031 C 180.421875 276.78125 194.238281 273.738281 203.335938 276.539062 C 214.347656 279.925781 222.367188 290.847656 225.390625 306.542969 C 224.25 309.058594 223.230469 311.570312 222.355469 314.050781 Z M 285.835938 261.273438 C 270.554688 261.855469 248.03125 288.703125 241.273438 314.050781 L 226.402344 314.050781 C 227.171875 311.953125 228.035156 309.863281 228.980469 307.789062 C 229.070312 307.648438 229.140625 307.496094 229.1875 307.335938 C 241.660156 280.292969 267.671875 256.09375 286.847656 255.140625 C 291.640625 254.902344 295.210938 255.949219 297.730469 258.347656 C 301.214844 261.664062 302.640625 267.554688 303.222656 274.652344 C 300.296875 267.027344 295.441406 260.910156 285.835938 261.273438 Z M 285.835938 261.273438 " fill-opacity="1" fill-rule="nonzero"/></g><path fill="#ffffff" d="M 207.179688 224.730469 C 206.167969 224.417969 205.109375 224.980469 204.800781 225.984375 C 204.488281 226.988281 205.050781 228.054688 206.054688 228.363281 C 212.265625 230.285156 218.484375 233.421875 224.550781 237.683594 C 224.882812 237.917969 225.265625 238.03125 225.640625 238.03125 C 226.238281 238.03125 226.828125 237.75 227.199219 237.222656 C 227.804688 236.363281 227.597656 235.175781 226.738281 234.570312 C 220.347656 230.082031 213.769531 226.769531 207.179688 224.730469 Z M 207.179688 224.730469 " fill-opacity="1" fill-rule="nonzero"/><path fill="#ffffff" d="M 207.179688 198.46875 C 206.167969 198.15625 205.109375 198.722656 204.800781 199.722656 C 204.488281 200.726562 205.050781 201.792969 206.054688 202.101562 C 212.265625 204.027344 218.484375 207.164062 224.550781 211.425781 C 224.882812 211.65625 225.265625 211.769531 225.640625 211.769531 C 226.238281 211.769531 226.828125 211.488281 227.199219 210.960938 C 227.804688 210.101562 227.597656 208.914062 226.738281 208.3125 C 220.347656 203.820312 213.769531 200.507812 207.179688 198.46875 Z M 207.179688 198.46875 " fill-opacity="1" fill-rule="nonzero"/><path fill="#ffffff" d="M 207.179688 172.210938 C 206.167969 171.894531 205.109375 172.460938 204.800781 173.464844 C 204.488281 174.46875 205.050781 175.53125 206.054688 175.84375 C 212.265625 177.765625 218.484375 180.902344 224.550781 185.164062 C 224.882812 185.398438 225.265625 185.511719 225.640625 185.511719 C 226.238281 185.511719 226.828125 185.226562 227.199219 184.703125 C 227.804688 183.839844 227.597656 182.65625 226.738281 182.050781 C 220.347656 177.558594 213.769531 174.25 207.179688 172.210938 Z M 207.179688 172.210938 " fill-opacity="1" fill-rule="nonzero"/><path fill="#ffffff" d="M 225.640625 159.25 C 226.238281 159.25 226.828125 158.96875 227.199219 158.441406 C 227.804688 157.582031 227.597656 156.394531 226.738281 155.792969 C 220.347656 151.296875 213.769531 147.988281 207.179688 145.949219 C 206.167969 145.632812 205.109375 146.199219 204.800781 147.199219 C 204.488281 148.207031 205.050781 149.269531 206.054688 149.582031 C 212.265625 151.503906 218.484375 154.640625 224.550781 158.902344 C 224.882812 159.136719 225.265625 159.25 225.640625 159.25 Z M 225.640625 159.25 " fill-opacity="1" fill-rule="nonzero"/><path fill="#ffffff" d="M 225.390625 134.152344 C 225.988281 134.152344 226.578125 133.871094 226.949219 133.34375 C 227.550781 132.484375 227.347656 131.296875 226.488281 130.695312 C 220.105469 126.207031 213.523438 122.894531 206.929688 120.851562 C 205.925781 120.535156 204.859375 121.101562 204.550781 122.105469 C 204.238281 123.105469 204.800781 124.175781 205.804688 124.484375 C 212.019531 126.410156 218.242188 129.546875 224.300781 133.804688 C 224.632812 134.042969 225.015625 134.152344 225.390625 134.152344 Z M 225.390625 134.152344 " fill-opacity="1" fill-rule="nonzero"/><path fill="#ffffff" d="M 247.832031 238.03125 C 248.207031 238.03125 248.589844 237.921875 248.921875 237.6875 C 254.988281 233.425781 261.210938 230.289062 267.421875 228.363281 C 268.421875 228.054688 268.984375 226.988281 268.675781 225.984375 C 268.363281 224.984375 267.304688 224.421875 266.292969 224.730469 C 259.703125 226.773438 253.125 230.085938 246.734375 234.574219 C 245.875 235.179688 245.667969 236.367188 246.273438 237.226562 C 246.644531 237.75 247.234375 238.03125 247.832031 238.03125 Z M 247.832031 238.03125 " fill-opacity="1" fill-rule="nonzero"/><path fill="#ffffff" d="M 247.832031 211.769531 C 248.207031 211.769531 248.589844 211.65625 248.921875 211.425781 C 254.988281 207.164062 261.210938 204.027344 267.421875 202.101562 C 268.421875 201.792969 268.984375 200.726562 268.675781 199.722656 C 268.363281 198.722656 267.304688 198.15625 266.292969 198.46875 C 259.703125 200.511719 253.125 203.824219 246.734375 208.3125 C 245.875 208.917969 245.667969 210.105469 246.273438 210.964844 C 246.644531 211.488281 247.234375 211.769531 247.832031 211.769531 Z M 247.832031 211.769531 " fill-opacity="1" fill-rule="nonzero"/><path fill="#ffffff" d="M 247.832031 185.511719 C 248.207031 185.511719 248.589844 185.398438 248.921875 185.164062 C 254.988281 180.902344 261.210938 177.765625 267.421875 175.84375 C 268.421875 175.53125 268.984375 174.46875 268.675781 173.464844 C 268.363281 172.460938 267.304688 171.898438 266.292969 172.210938 C 259.703125 174.25 253.125 177.5625 246.734375 182.054688 C 245.875 182.65625 245.667969 183.84375 246.273438 184.703125 C 246.644531 185.226562 247.234375 185.511719 247.832031 185.511719 Z M 247.832031 185.511719 " fill-opacity="1" fill-rule="nonzero"/><path fill="#ffffff" d="M 246.273438 158.441406 C 246.644531 158.96875 247.234375 159.25 247.832031 159.25 C 248.207031 159.25 248.589844 159.136719 248.921875 158.902344 C 254.988281 154.640625 261.210938 151.503906 267.421875 149.582031 C 268.421875 149.273438 268.984375 148.207031 268.675781 147.203125 C 268.363281 146.199219 267.304688 145.636719 266.292969 145.949219 C 259.703125 147.992188 253.125 151.300781 246.734375 155.792969 C 245.875 156.394531 245.667969 157.582031 246.273438 158.441406 Z M 246.273438 158.441406 " fill-opacity="1" fill-rule="nonzero"/><path fill="#ffffff" d="M 248.082031 134.152344 C 248.460938 134.152344 248.839844 134.042969 249.175781 133.808594 C 255.238281 129.546875 261.460938 126.410156 267.671875 124.488281 C 268.675781 124.175781 269.234375 123.109375 268.925781 122.105469 C 268.617188 121.105469 267.554688 120.539062 266.546875 120.851562 C 259.953125 122.894531 253.371094 126.207031 246.988281 130.695312 C 246.128906 131.300781 245.917969 132.488281 246.523438 133.347656 C 246.894531 133.871094 247.484375 134.152344 248.082031 134.152344 Z M 248.082031 134.152344 " fill-opacity="1" fill-rule="nonzero"/><path fill="#ffffff" d="M 121.753906 140.484375 L 117.527344 124.222656 C 117.261719 123.203125 116.222656 122.597656 115.207031 122.863281 C 114.191406 123.125 113.582031 124.164062 113.84375 125.179688 L 118.074219 141.441406 C 118.296875 142.300781 119.066406 142.867188 119.914062 142.867188 C 120.070312 142.867188 120.230469 142.847656 120.394531 142.808594 C 121.410156 142.539062 122.019531 141.5 121.753906 140.484375 Z M 121.753906 140.484375 " fill-opacity="1" fill-rule="nonzero"/><path fill="#ffffff" d="M 140.09375 258.332031 C 132.785156 255.59375 125.582031 254.042969 118.6875 253.726562 C 117.65625 253.703125 116.75 254.488281 116.703125 255.539062 C 116.652344 256.589844 117.464844 257.480469 118.515625 257.527344 C 125.011719 257.824219 131.820312 259.296875 138.761719 261.894531 C 138.980469 261.976562 139.203125 262.015625 139.429688 262.015625 C 140.199219 262.015625 140.925781 261.542969 141.210938 260.78125 C 141.578125 259.796875 141.082031 258.699219 140.09375 258.332031 Z M 140.09375 258.332031 " fill-opacity="1" fill-rule="nonzero"/><path fill="#ffffff" d="M 133.488281 232.917969 C 126.179688 230.179688 118.976562 228.628906 112.082031 228.3125 C 111.023438 228.285156 110.140625 229.074219 110.09375 230.125 C 110.046875 231.175781 110.859375 232.066406 111.90625 232.113281 C 118.402344 232.410156 125.214844 233.882812 132.15625 236.480469 C 132.375 236.5625 132.597656 236.601562 132.824219 236.601562 C 133.59375 236.601562 134.316406 236.128906 134.605469 235.367188 C 134.96875 234.382812 134.472656 233.285156 133.488281 232.917969 Z M 133.488281 232.917969 " fill-opacity="1" fill-rule="nonzero"/><path fill="#ffffff" d="M 126.878906 207.5 C 119.570312 204.761719 112.367188 203.210938 105.472656 202.894531 C 104.457031 202.859375 103.535156 203.65625 103.488281 204.707031 C 103.4375 205.757812 104.25 206.648438 105.300781 206.695312 C 111.796875 206.992188 118.609375 208.460938 125.546875 211.0625 C 125.765625 211.144531 125.988281 211.183594 126.214844 211.183594 C 126.984375 211.183594 127.710938 210.710938 127.996094 209.949219 C 128.363281 208.964844 127.867188 207.867188 126.878906 207.5 Z M 126.878906 207.5 " fill-opacity="1" fill-rule="nonzero"/><path fill="#ffffff" d="M 118.9375 185.648438 C 119.15625 185.730469 119.382812 185.769531 119.605469 185.769531 C 120.375 185.769531 121.101562 185.296875 121.386719 184.535156 C 121.753906 183.550781 121.257812 182.453125 120.273438 182.085938 C 112.964844 179.347656 105.761719 177.796875 98.867188 177.480469 C 97.828125 177.441406 96.929688 178.242188 96.878906 179.292969 C 96.832031 180.34375 97.644531 181.234375 98.691406 181.28125 C 105.1875 181.578125 112 183.046875 118.9375 185.648438 Z M 118.9375 185.648438 " fill-opacity="1" fill-rule="nonzero"/><path fill="#ffffff" d="M 112.382812 161.421875 C 112.601562 161.503906 112.828125 161.542969 113.050781 161.542969 C 113.820312 161.542969 114.546875 161.070312 114.832031 160.308594 C 115.199219 159.324219 114.703125 158.226562 113.71875 157.859375 C 106.40625 155.121094 99.203125 153.570312 92.3125 153.253906 C 91.261719 153.21875 90.371094 154.015625 90.324219 155.066406 C 90.277344 156.117188 91.089844 157.007812 92.136719 157.054688 C 98.628906 157.351562 105.441406 158.820312 112.382812 161.421875 Z M 112.382812 161.421875 " fill-opacity="1" fill-rule="nonzero"/><path fill="#ffffff" d="M 159.667969 255.980469 C 160.027344 256.285156 160.464844 256.433594 160.898438 256.433594 C 161.4375 256.433594 161.972656 256.207031 162.351562 255.761719 C 167.148438 250.113281 172.382812 245.511719 177.90625 242.085938 C 178.800781 241.535156 179.074219 240.363281 178.519531 239.46875 C 177.96875 238.578125 176.796875 238.300781 175.902344 238.855469 C 170.039062 242.484375 164.503906 247.347656 159.449219 253.304688 C 158.769531 254.101562 158.867188 255.300781 159.667969 255.980469 Z M 159.667969 255.980469 " fill-opacity="1" fill-rule="nonzero"/><path fill="#ffffff" d="M 153.0625 230.5625 C 153.421875 230.867188 153.859375 231.015625 154.292969 231.015625 C 154.832031 231.015625 155.367188 230.789062 155.746094 230.34375 C 160.539062 224.695312 165.773438 220.09375 171.300781 216.671875 C 172.191406 216.117188 172.46875 214.945312 171.914062 214.050781 C 171.363281 213.160156 170.191406 212.882812 169.296875 213.4375 C 163.433594 217.066406 157.898438 221.929688 152.84375 227.882812 C 152.164062 228.683594 152.261719 229.886719 153.0625 230.5625 Z M 153.0625 230.5625 " fill-opacity="1" fill-rule="nonzero"/><path fill="#ffffff" d="M 146.453125 205.148438 C 146.8125 205.453125 147.25 205.601562 147.683594 205.601562 C 148.222656 205.601562 148.757812 205.371094 149.136719 204.929688 C 153.933594 199.277344 159.167969 194.675781 164.691406 191.253906 C 165.585938 190.699219 165.859375 189.527344 165.304688 188.636719 C 164.753906 187.742188 163.582031 187.46875 162.6875 188.019531 C 156.824219 191.652344 151.289062 196.515625 146.234375 202.46875 C 145.554688 203.269531 145.652344 204.46875 146.453125 205.148438 Z M 146.453125 205.148438 " fill-opacity="1" fill-rule="nonzero"/><path fill="#ffffff" d="M 139.847656 179.734375 C 140.203125 180.039062 140.640625 180.183594 141.078125 180.183594 C 141.613281 180.183594 142.148438 179.957031 142.527344 179.515625 C 147.324219 173.863281 152.558594 169.261719 158.082031 165.839844 C 158.976562 165.285156 159.25 164.113281 158.695312 163.21875 C 158.144531 162.328125 156.972656 162.050781 156.078125 162.605469 C 150.21875 166.238281 144.683594 171.097656 139.628906 177.050781 C 138.949219 177.851562 139.046875 179.054688 139.847656 179.734375 Z M 139.847656 179.734375 " fill-opacity="1" fill-rule="nonzero"/><path fill="#ffffff" d="M 133.773438 155.382812 C 134.132812 155.6875 134.570312 155.835938 135.003906 155.835938 C 135.542969 155.835938 136.078125 155.605469 136.457031 155.164062 C 141.25 149.511719 146.488281 144.910156 152.011719 141.488281 C 152.90625 140.933594 153.179688 139.761719 152.625 138.867188 C 152.074219 137.980469 150.902344 137.703125 150.007812 138.253906 C 144.144531 141.886719 138.609375 146.746094 133.554688 152.703125 C 132.875 153.503906 132.972656 154.703125 133.773438 155.382812 Z M 133.773438 155.382812 " fill-opacity="1" fill-rule="nonzero"/></svg>