<svg xmlns="http://www.w3.org/2000/svg" xmlns:xlink="http://www.w3.org/1999/xlink" width="500" zoomAndPan="magnify" viewBox="0 0 375 374.999991" height="500" preserveAspectRatio="xMidYMid meet" version="1.0"><defs><clipPath id="90b0e7131d"><path d="M 187.5 0 C 83.945312 0 0 83.945312 0 187.5 C 0 291.054688 83.945312 375 187.5 375 C 291.054688 375 375 291.054688 375 187.5 C 375 83.945312 291.054688 0 187.5 0 Z M 187.5 0 " clip-rule="nonzero"/></clipPath><clipPath id="c6711d93f2"><path d="M 66.183594 144 L 309 144 L 309 296.835938 L 66.183594 296.835938 Z M 66.183594 144 " clip-rule="nonzero"/></clipPath><clipPath id="566d340b3b"><path d="M 142 47.085938 L 149 47.085938 L 149 151 L 142 151 Z M 142 47.085938 " clip-rule="nonzero"/></clipPath><clipPath id="6dceb4b9aa"><path d="M 142 47.085938 L 214 47.085938 L 214 96 L 142 96 Z M 142 47.085938 " clip-rule="nonzero"/></clipPath></defs><g clip-path="url(#90b0e7131d)"><rect x="-37.5" width="450" fill="#f47c2e" y="-37.499999" height="449.999989" fill-opacity="1"/></g><g clip-path="url(#c6711d93f2)"><path fill="#ffffff" d="M 305.628906 297 L 69.367188 297 C 69.105469 297 68.847656 296.964844 68.59375 296.902344 C 68.34375 296.835938 68.101562 296.738281 67.875 296.609375 C 67.644531 296.484375 67.4375 296.328125 67.25 296.148438 C 67.0625 295.96875 66.898438 295.765625 66.761719 295.542969 C 66.625 295.320312 66.519531 295.082031 66.445312 294.832031 C 66.367188 294.582031 66.324219 294.328125 66.316406 294.066406 C 66.304688 293.804688 66.328125 293.546875 66.386719 293.292969 C 66.441406 293.035156 66.527344 292.792969 66.648438 292.5625 L 140.660156 147.402344 C 140.902344 146.921875 141.203125 146.484375 141.566406 146.089844 C 141.933594 145.691406 142.34375 145.355469 142.804688 145.074219 C 143.261719 144.792969 143.75 144.578125 144.269531 144.433594 C 144.785156 144.289062 145.316406 144.21875 145.851562 144.222656 C 146.390625 144.21875 146.917969 144.289062 147.433594 144.433594 C 147.953125 144.578125 148.4375 144.792969 148.898438 145.074219 C 149.355469 145.355469 149.765625 145.695312 150.128906 146.089844 C 150.492188 146.484375 150.792969 146.921875 151.035156 147.402344 L 176.085938 196.53125 C 176.578125 197.519531 177.191406 198.417969 177.929688 199.234375 C 178.667969 200.050781 179.5 200.75 180.433594 201.335938 C 181.363281 201.921875 182.355469 202.371094 183.410156 202.683594 C 184.464844 202.996094 185.542969 203.160156 186.644531 203.175781 L 186.9375 203.175781 C 188.011719 203.183594 189.066406 203.046875 190.105469 202.769531 C 191.144531 202.492188 192.128906 202.082031 193.054688 201.542969 C 193.984375 201 194.824219 200.347656 195.578125 199.578125 C 196.332031 198.8125 196.96875 197.960938 197.492188 197.019531 L 204.980469 183.867188 C 205.117188 183.660156 205.269531 183.460938 205.429688 183.269531 C 205.59375 183.082031 205.769531 182.902344 205.953125 182.734375 C 206.136719 182.566406 206.332031 182.410156 206.539062 182.265625 C 206.742188 182.121094 206.953125 181.992188 207.175781 181.875 C 207.394531 181.753906 207.621094 181.652344 207.855469 181.5625 C 208.085938 181.472656 208.324219 181.394531 208.566406 181.335938 C 208.808594 181.273438 209.054688 181.230469 209.304688 181.199219 C 209.550781 181.167969 209.800781 181.152344 210.050781 181.152344 C 210.300781 181.152344 210.550781 181.167969 210.796875 181.199219 C 211.046875 181.230469 211.289062 181.273438 211.53125 181.335938 C 211.773438 181.394531 212.011719 181.472656 212.246094 181.5625 C 212.480469 181.652344 212.707031 181.753906 212.925781 181.875 C 213.144531 181.992188 213.359375 182.121094 213.5625 182.265625 C 213.765625 182.410156 213.960938 182.566406 214.148438 182.734375 C 214.332031 182.902344 214.507812 183.082031 214.667969 183.269531 C 214.832031 183.460938 214.984375 183.660156 215.121094 183.867188 L 231.640625 212.878906 C 232.167969 213.8125 232.808594 214.660156 233.566406 215.421875 C 234.320312 216.183594 235.160156 216.832031 236.089844 217.367188 C 237.015625 217.902344 238 218.304688 239.035156 218.578125 C 240.070312 218.851562 241.125 218.984375 242.199219 218.976562 C 243.269531 218.984375 244.324219 218.851562 245.359375 218.578125 C 246.394531 218.304688 247.378906 217.902344 248.304688 217.367188 C 249.234375 216.832031 250.074219 216.183594 250.832031 215.421875 C 251.585938 214.660156 252.226562 213.8125 252.753906 212.878906 C 253.007812 212.433594 253.316406 212.027344 253.675781 211.660156 C 254.039062 211.292969 254.441406 210.984375 254.886719 210.722656 C 255.328125 210.464844 255.800781 210.269531 256.296875 210.136719 C 256.792969 210.003906 257.300781 209.941406 257.8125 209.941406 C 258.328125 209.941406 258.832031 210.011719 259.328125 210.144531 C 259.824219 210.277344 260.296875 210.472656 260.738281 210.730469 C 261.183594 210.988281 261.585938 211.300781 261.949219 211.664062 C 262.308594 212.03125 262.617188 212.433594 262.875 212.878906 L 308.25 292.402344 C 308.378906 292.632812 308.480469 292.878906 308.550781 293.136719 C 308.617188 293.398438 308.652344 293.660156 308.648438 293.925781 C 308.648438 294.195312 308.613281 294.457031 308.542969 294.714844 C 308.472656 294.972656 308.371094 295.21875 308.234375 295.449219 C 308.101562 295.679688 307.9375 295.890625 307.746094 296.078125 C 307.558594 296.265625 307.347656 296.425781 307.113281 296.558594 C 306.882812 296.691406 306.636719 296.792969 306.378906 296.859375 C 306.121094 296.929688 305.859375 296.960938 305.589844 296.960938 Z M 74.316406 290.902344 L 300.386719 290.902344 L 257.617188 215.929688 C 256.898438 217.34375 256 218.628906 254.914062 219.789062 C 253.832031 220.949219 252.609375 221.9375 251.246094 222.75 C 249.886719 223.5625 248.4375 224.175781 246.902344 224.578125 C 245.367188 224.984375 243.808594 225.167969 242.222656 225.132812 C 240.609375 225.140625 239.023438 224.9375 237.464844 224.519531 C 235.910156 224.105469 234.433594 223.488281 233.039062 222.679688 C 231.644531 221.867188 230.382812 220.886719 229.253906 219.738281 C 228.121094 218.589844 227.164062 217.308594 226.375 215.902344 L 209.855469 186.878906 L 202.796875 200.082031 C 201.972656 201.507812 200.980469 202.796875 199.8125 203.957031 C 198.644531 205.117188 197.34375 206.101562 195.910156 206.914062 C 194.480469 207.726562 192.964844 208.335938 191.371094 208.742188 C 189.777344 209.148438 188.15625 209.335938 186.507812 209.308594 C 184.859375 209.285156 183.242188 209.039062 181.65625 208.570312 C 180.074219 208.101562 178.582031 207.429688 177.183594 206.546875 C 175.785156 205.667969 174.535156 204.617188 173.425781 203.390625 C 172.320312 202.167969 171.398438 200.816406 170.660156 199.335938 L 145.609375 150.207031 Z M 74.316406 290.902344 " fill-opacity="1" fill-rule="nonzero"/></g><g clip-path="url(#566d340b3b)"><path fill="#ffffff" d="M 145.402344 150.316406 C 144.996094 150.316406 144.609375 150.238281 144.234375 150.085938 C 143.863281 149.929688 143.53125 149.710938 143.246094 149.425781 C 142.960938 149.136719 142.742188 148.808594 142.585938 148.433594 C 142.429688 148.0625 142.355469 147.671875 142.355469 147.269531 L 142.355469 50.132812 C 142.355469 49.726562 142.429688 49.339844 142.585938 48.964844 C 142.742188 48.59375 142.960938 48.261719 143.246094 47.976562 C 143.53125 47.691406 143.863281 47.472656 144.234375 47.316406 C 144.609375 47.160156 144.996094 47.085938 145.402344 47.085938 C 145.804688 47.085938 146.195312 47.160156 146.566406 47.316406 C 146.941406 47.472656 147.269531 47.691406 147.558594 47.976562 C 147.84375 48.261719 148.0625 48.59375 148.21875 48.964844 C 148.371094 49.339844 148.449219 49.726562 148.449219 50.132812 L 148.449219 147.269531 C 148.449219 147.675781 148.375 148.0625 148.21875 148.4375 C 148.066406 148.8125 147.847656 149.140625 147.558594 149.429688 C 147.273438 149.714844 146.945312 149.933594 146.570312 150.089844 C 146.195312 150.242188 145.804688 150.320312 145.402344 150.316406 Z M 145.402344 150.316406 " fill-opacity="1" fill-rule="nonzero"/></g><g clip-path="url(#6dceb4b9aa)"><path fill="#ffffff" d="M 209.085938 95.675781 L 145.402344 95.675781 C 144.996094 95.679688 144.609375 95.601562 144.234375 95.449219 C 143.859375 95.292969 143.527344 95.074219 143.242188 94.789062 C 142.957031 94.503906 142.738281 94.171875 142.582031 93.796875 C 142.429688 93.421875 142.351562 93.035156 142.355469 92.628906 L 142.355469 50.132812 C 142.355469 49.726562 142.429688 49.339844 142.585938 48.964844 C 142.742188 48.59375 142.960938 48.261719 143.246094 47.976562 C 143.53125 47.691406 143.863281 47.472656 144.234375 47.316406 C 144.609375 47.160156 144.996094 47.085938 145.402344 47.085938 L 209.085938 47.085938 C 209.605469 47.089844 210.109375 47.175781 210.597656 47.34375 C 211.089844 47.511719 211.539062 47.753906 211.949219 48.070312 C 212.363281 48.386719 212.710938 48.757812 213 49.1875 C 213.289062 49.617188 213.503906 50.082031 213.640625 50.582031 C 213.78125 51.082031 213.835938 51.589844 213.808594 52.109375 C 213.777344 52.625 213.667969 53.125 213.476562 53.609375 C 213.289062 54.089844 213.023438 54.527344 212.691406 54.925781 C 212.355469 55.320312 211.96875 55.652344 211.523438 55.921875 L 186.144531 71.378906 L 211.523438 86.839844 C 211.96875 87.109375 212.355469 87.441406 212.691406 87.835938 C 213.023438 88.234375 213.289062 88.671875 213.476562 89.152344 C 213.667969 89.636719 213.777344 90.136719 213.808594 90.652344 C 213.835938 91.171875 213.78125 91.679688 213.640625 92.179688 C 213.503906 92.679688 213.289062 93.144531 213 93.574219 C 212.710938 94.003906 212.363281 94.375 211.949219 94.691406 C 211.539062 95.007812 211.089844 95.25 210.597656 95.417969 C 210.109375 95.585938 209.605469 95.671875 209.085938 95.675781 Z M 148.449219 89.582031 L 204.34375 89.582031 L 178.742188 73.988281 C 178.519531 73.855469 178.316406 73.691406 178.136719 73.503906 C 177.957031 73.316406 177.800781 73.105469 177.671875 72.878906 C 177.542969 72.652344 177.445312 72.410156 177.382812 72.160156 C 177.316406 71.90625 177.28125 71.648438 177.28125 71.386719 C 177.28125 71.125 177.316406 70.867188 177.382812 70.617188 C 177.445312 70.363281 177.542969 70.121094 177.671875 69.894531 C 177.800781 69.667969 177.957031 69.457031 178.136719 69.269531 C 178.316406 69.082031 178.519531 68.921875 178.742188 68.785156 L 204.34375 53.179688 L 148.484375 53.179688 Z M 148.449219 89.582031 " fill-opacity="1" fill-rule="nonzero"/></g></svg>