<svg xmlns="http://www.w3.org/2000/svg" xmlns:xlink="http://www.w3.org/1999/xlink" width="500" zoomAndPan="magnify" viewBox="0 0 375 374.999991" height="500" preserveAspectRatio="xMidYMid meet" version="1.0"><defs><clipPath id="b4589eddab"><path d="M 187.5 0 C 83.945312 0 0 83.945312 0 187.5 C 0 291.054688 83.945312 375 187.5 375 C 291.054688 375 375 291.054688 375 187.5 C 375 83.945312 291.054688 0 187.5 0 Z M 187.5 0 " clip-rule="nonzero"/></clipPath><clipPath id="b19393fa42"><path d="M 43.734375 116.621094 L 330.984375 116.621094 L 330.984375 276 L 43.734375 276 Z M 43.734375 116.621094 " clip-rule="nonzero"/></clipPath></defs><g clip-path="url(#b4589eddab)"><rect x="-37.5" width="450" fill="#fec743" y="-37.499999" height="449.999989" fill-opacity="1"/></g><g clip-path="url(#b19393fa42)"><path fill="#ffffff" d="M 330.054688 189.800781 L 299.761719 123.097656 C 298.039062 119.300781 294.226562 116.84375 290.050781 116.84375 L 88.457031 116.84375 C 88.289062 116.84375 88.121094 116.871094 87.960938 116.90625 C 87.941406 116.914062 87.921875 116.910156 87.902344 116.914062 C 87.652344 116.976562 87.425781 117.09375 87.210938 117.234375 C 87.160156 117.265625 87.109375 117.304688 87.0625 117.34375 C 86.863281 117.496094 86.683594 117.671875 86.542969 117.890625 C 86.539062 117.898438 86.535156 117.914062 86.527344 117.925781 C 86.523438 117.933594 86.515625 117.9375 86.511719 117.945312 L 44.90625 186.621094 C 43.683594 188.636719 43.644531 191.070312 44.800781 193.121094 C 45.957031 195.171875 48.058594 196.398438 50.414062 196.398438 C 52.175781 196.398438 53.839844 195.640625 55.042969 194.390625 L 63.609375 194.390625 L 63.609375 273.601562 C 63.609375 274.859375 64.625 275.875 65.886719 275.875 L 322.5 275.875 C 323.757812 275.875 324.773438 274.859375 324.777344 273.605469 C 324.804688 258.25 324.882812 211.824219 324.800781 201.191406 C 326.703125 200.644531 328.371094 199.4375 329.472656 197.722656 C 331.011719 195.339844 331.226562 192.378906 330.054688 189.800781 Z M 63.609375 189.839844 L 58.015625 189.839844 L 63.609375 180.601562 Z M 67.265625 165.785156 L 52.027344 190.933594 C 51.6875 191.496094 51.070312 191.84375 50.414062 191.84375 C 49.417969 191.84375 48.933594 191.171875 48.769531 190.882812 C 48.605469 190.59375 48.28125 189.832031 48.800781 188.980469 L 88.167969 123.988281 L 90.0625 128.152344 L 67.992188 164.582031 C 67.625 164.890625 67.378906 165.304688 67.265625 165.785156 Z M 92.339844 133.175781 L 106.351562 164.03125 L 73.652344 164.03125 Z M 113.828125 271.324219 L 79.191406 271.324219 L 79.191406 201.164062 L 113.828125 201.164062 Z M 132.632812 271.324219 L 118.378906 271.324219 L 118.378906 198.886719 C 118.378906 197.628906 117.363281 196.609375 116.105469 196.609375 L 76.917969 196.609375 C 75.65625 196.609375 74.640625 197.628906 74.640625 198.886719 L 74.640625 271.324219 L 68.164062 271.324219 L 68.164062 173.089844 L 70.894531 168.582031 L 108.421875 168.582031 L 120.085938 194.269531 C 122.085938 198.679688 126.507812 201.527344 131.351562 201.527344 L 132.632812 201.527344 Z M 183.757812 271.324219 L 164.328125 271.324219 L 164.328125 256.582031 C 172.242188 255.601562 179.898438 249.535156 179.898438 239.050781 C 179.898438 238.441406 179.652344 237.855469 179.21875 237.425781 C 178.785156 237 178.253906 236.792969 177.585938 236.773438 C 169.097656 236.902344 163.535156 240.199219 161.136719 246.382812 C 157.136719 239.992188 150.5625 237.167969 141.777344 238.160156 C 141.132812 238.234375 140.550781 238.582031 140.171875 239.109375 C 139.800781 239.640625 139.667969 240.308594 139.816406 240.941406 C 142.316406 251.617188 148.511719 257.011719 158.261719 257.011719 C 158.753906 257.011719 159.265625 256.984375 159.777344 256.957031 L 159.777344 271.324219 L 137.1875 271.324219 L 137.1875 201.527344 L 183.757812 201.527344 Z M 164.457031 251.957031 C 165.144531 245.609375 168.601562 242.222656 175.15625 241.480469 C 174.109375 247.992188 168.878906 251.121094 164.457031 251.957031 Z M 159.050781 252.445312 C 151.789062 252.734375 147.328125 249.570312 144.984375 242.515625 C 151.972656 242.449219 156.578125 245.65625 159.050781 252.445312 Z M 206.503906 266.117188 C 204.261719 263.472656 202.519531 260.160156 202.132812 256.03125 C 204.285156 256.273438 205.9375 256.914062 207.164062 257.925781 C 206.335938 260.597656 206.121094 263.390625 206.503906 266.117188 Z M 212.761719 270.691406 C 210.507812 266.746094 210.21875 261.933594 212.058594 257.738281 C 213.683594 254.039062 216.601562 251.523438 220.210938 250.644531 C 221.554688 254.742188 221.496094 259.066406 220.011719 262.746094 C 218.644531 266.140625 216.15625 268.859375 212.761719 270.691406 Z M 232.027344 271.324219 L 219.574219 271.324219 C 221.589844 269.386719 223.171875 267.085938 224.234375 264.449219 C 226.371094 259.152344 226.203125 252.859375 223.773438 247.191406 C 223.382812 246.28125 222.464844 245.730469 221.457031 245.824219 C 216.296875 246.328125 211.824219 249.214844 209.074219 253.667969 C 206.691406 252.101562 203.574219 251.292969 199.773438 251.355469 C 198.546875 251.363281 197.546875 252.339844 197.507812 253.566406 C 197.3125 260.417969 199.945312 266.453125 205.152344 271.320312 L 188.3125 271.320312 L 188.3125 201.523438 L 232.027344 201.523438 Z M 286.011719 271.324219 L 263.898438 271.324219 L 263.898438 256.582031 C 271.8125 255.601562 279.46875 249.535156 279.46875 239.050781 C 279.46875 238.441406 279.226562 237.855469 278.789062 237.425781 C 278.359375 237 277.785156 236.792969 277.160156 236.773438 C 268.664062 236.902344 263.109375 240.199219 260.707031 246.382812 C 256.707031 239.996094 250.136719 237.175781 241.351562 238.160156 C 240.703125 238.234375 240.121094 238.582031 239.746094 239.109375 C 239.375 239.640625 239.242188 240.304688 239.390625 240.941406 C 241.890625 251.617188 248.082031 257.011719 257.832031 257.011719 C 258.328125 257.011719 258.835938 256.984375 259.347656 256.957031 L 259.347656 271.324219 L 236.578125 271.324219 L 236.578125 201.527344 L 286.015625 201.527344 L 286.015625 271.324219 Z M 264.03125 251.957031 C 264.714844 245.609375 268.171875 242.222656 274.726562 241.480469 C 273.679688 247.992188 268.449219 251.121094 264.03125 251.957031 Z M 258.625 252.445312 C 251.351562 252.734375 246.898438 249.570312 244.550781 242.515625 C 244.628906 242.515625 244.703125 242.515625 244.78125 242.515625 C 251.699219 242.515625 256.179688 245.730469 258.625 252.445312 Z M 300.242188 266.109375 C 298.824219 264.183594 297.734375 261.890625 297.394531 259.136719 C 298.824219 259.347656 299.964844 259.785156 300.84375 260.441406 C 300.296875 262.296875 300.121094 264.214844 300.242188 266.109375 Z M 306.132812 270.664062 C 304.433594 267.480469 304.25 263.660156 305.714844 260.320312 C 307 257.402344 309.261719 255.386719 312.0625 254.597656 C 313.066406 257.890625 312.988281 261.339844 311.800781 264.28125 C 310.714844 266.976562 308.773438 269.152344 306.132812 270.664062 Z M 320.230469 271.324219 L 312.585938 271.324219 C 314.046875 269.78125 315.214844 267.996094 316.027344 265.984375 C 317.871094 261.417969 317.726562 256 315.628906 251.117188 C 315.238281 250.207031 314.308594 249.660156 313.316406 249.75 C 308.933594 250.179688 305.132812 252.59375 302.742188 256.316406 C 300.691406 255.082031 298.105469 254.425781 295 254.433594 C 293.773438 254.4375 292.773438 255.417969 292.734375 256.644531 C 292.574219 262.269531 294.636719 267.242188 298.703125 271.324219 L 290.5625 271.324219 L 290.5625 201.527344 L 320.257812 201.527344 C 320.320312 211.316406 320.261719 252.203125 320.230469 271.324219 Z M 325.648438 195.257812 C 324.945312 196.347656 323.796875 196.972656 322.503906 196.972656 L 235.195312 196.972656 C 234.921875 196.859375 234.617188 196.792969 234.300781 196.792969 C 233.984375 196.792969 233.683594 196.859375 233.410156 196.972656 L 131.351562 196.972656 C 128.289062 196.972656 125.496094 195.171875 124.230469 192.386719 L 91.992188 121.398438 L 290.050781 121.398438 C 292.445312 121.398438 294.628906 122.804688 295.617188 124.984375 L 325.910156 191.683594 C 326.445312 192.863281 326.351562 194.167969 325.648438 195.257812 Z M 325.648438 195.257812 " fill-opacity="1" fill-rule="nonzero"/></g><path fill="#ffffff" d="M 306.902344 160.449219 C 306.535156 159.636719 305.722656 159.117188 304.832031 159.117188 L 263.988281 159.117188 C 263.988281 159.117188 263.988281 159.117188 263.984375 159.117188 L 215.480469 159.117188 C 215.476562 159.117188 215.476562 159.117188 215.476562 159.117188 L 166.972656 159.117188 C 166.96875 159.117188 166.96875 159.117188 166.96875 159.117188 L 117.570312 159.117188 C 117.203125 159.117188 116.859375 159.203125 116.550781 159.355469 C 115.40625 159.875 114.902344 161.222656 115.421875 162.367188 L 128.601562 191.386719 C 128.96875 192.199219 129.777344 192.722656 130.671875 192.722656 L 318.027344 192.722656 C 318.800781 192.722656 319.519531 192.328125 319.941406 191.679688 C 320.359375 191.027344 320.417969 190.207031 320.097656 189.503906 Z M 229.644531 163.667969 L 222.59375 171.4375 L 219.066406 163.667969 Z M 182.929688 163.667969 L 174.683594 172.753906 L 170.558594 163.667969 Z M 132.140625 188.167969 L 121.011719 163.667969 L 160.71875 163.667969 L 138.484375 188.167969 Z M 144.628906 188.167969 L 165.996094 164.625 L 171.355469 176.425781 L 160.699219 188.164062 L 144.628906 188.164062 Z M 166.84375 188.167969 L 173.402344 180.9375 L 176.6875 188.167969 Z M 181.6875 188.167969 L 176.734375 177.269531 L 189.078125 163.667969 L 214.066406 163.667969 L 219.261719 175.109375 L 207.410156 188.167969 Z M 213.558594 188.167969 L 221.3125 179.621094 L 225.195312 188.167969 Z M 224.648438 175.949219 L 235.792969 163.667969 L 251.859375 163.667969 L 230.003906 187.75 Z M 235.773438 188.167969 L 258.007812 163.667969 L 262.578125 163.667969 L 273.703125 188.167969 Z M 278.703125 188.167969 L 267.578125 163.667969 L 303.363281 163.667969 L 314.488281 188.167969 Z M 278.703125 188.167969 " fill-opacity="1" fill-rule="nonzero"/><path fill="#ffffff" d="M 103.925781 244.582031 C 107.976562 244.582031 111.269531 241.292969 111.269531 237.242188 C 111.269531 233.191406 107.976562 229.902344 103.925781 229.902344 C 99.878906 229.902344 96.585938 233.191406 96.585938 237.242188 C 96.585938 241.292969 99.878906 244.582031 103.925781 244.582031 Z M 103.925781 234.457031 C 105.464844 234.457031 106.714844 235.707031 106.714844 237.246094 C 106.714844 238.78125 105.464844 240.035156 103.925781 240.035156 C 102.390625 240.035156 101.136719 238.78125 101.136719 237.246094 C 101.136719 235.707031 102.390625 234.457031 103.925781 234.457031 Z M 103.925781 234.457031 " fill-opacity="1" fill-rule="nonzero"/><path fill="#ffffff" d="M 212.371094 156.699219 C 212.375 156.699219 212.375 156.699219 212.375 156.699219 L 301.664062 156.699219 C 302.4375 156.699219 303.15625 156.304688 303.578125 155.65625 C 303.996094 155.007812 304.058594 154.1875 303.734375 153.484375 L 291.226562 125.941406 C 290.859375 125.128906 290.046875 124.605469 289.15625 124.605469 L 101.804688 124.605469 C 101.027344 124.605469 100.308594 125 99.890625 125.648438 C 99.46875 126.300781 99.410156 127.121094 99.730469 127.824219 L 105.644531 140.839844 C 105.644531 140.84375 105.644531 140.847656 105.648438 140.851562 L 112.242188 155.367188 C 112.242188 155.367188 112.242188 155.371094 112.246094 155.375 C 112.253906 155.390625 112.269531 155.40625 112.28125 155.425781 C 112.394531 155.65625 112.546875 155.855469 112.722656 156.027344 C 112.75 156.054688 112.757812 156.089844 112.785156 156.109375 C 112.820312 156.144531 112.867188 156.152344 112.902344 156.183594 C 113.050781 156.300781 113.207031 156.398438 113.378906 156.476562 C 113.449219 156.507812 113.511719 156.542969 113.582031 156.570312 C 113.816406 156.648438 114.058594 156.703125 114.316406 156.703125 L 212.367188 156.703125 C 212.367188 156.699219 212.371094 156.699219 212.371094 156.699219 Z M 246.25 152.144531 L 253.640625 143.996094 L 257.34375 152.144531 Z M 298.132812 152.144531 L 268.460938 152.144531 L 288.234375 130.359375 Z M 283.179688 129.15625 L 262.332031 152.128906 L 256.976562 140.328125 L 267.113281 129.15625 Z M 260.96875 129.15625 L 254.925781 135.8125 L 251.902344 129.15625 Z M 214.253906 129.15625 L 207.015625 137.132812 L 203.394531 129.15625 Z M 105.339844 129.15625 L 114.324219 129.15625 L 108.347656 135.78125 Z M 110.398438 140.296875 L 120.460938 129.15625 L 134.171875 129.15625 L 114.957031 150.328125 Z M 119.453125 152.144531 L 140.3125 129.15625 L 149.886719 129.15625 L 160.328125 152.144531 Z M 165.328125 152.144531 L 154.886719 129.15625 L 192.039062 129.15625 L 171.175781 152.148438 L 165.328125 152.148438 Z M 177.320312 152.144531 L 198.183594 129.15625 L 198.394531 129.15625 L 203.683594 140.800781 L 193.386719 152.144531 Z M 199.535156 152.144531 L 205.734375 145.316406 L 208.835938 152.144531 Z M 220.398438 129.15625 L 246.902344 129.15625 L 251.59375 139.484375 L 240.101562 152.148438 L 213.835938 152.148438 L 209.066406 141.644531 Z M 220.398438 129.15625 " fill-opacity="1" fill-rule="nonzero"/></svg>