<?xml version="1.0" encoding="UTF-8" standalone="no"?>
<!DOCTYPE svg PUBLIC "-//W3C//DTD SVG 1.1//EN" "http://www.w3.org/Graphics/SVG/1.1/DTD/svg11.dtd">
<svg xmlns="http://www.w3.org/2000/svg" xmlns:xlink="http://www.w3.org/1999/xlink" version="1.1" width="158.74pt" height="158.74pt" viewBox="0 0 158.74 158.74">
<g enable-background="new">
<g id="Layer-1" data-name="Artifact">
<clipPath id="cp13">
<path transform="matrix(1,0,0,-1,0,158.74)" d="M 0 0 L 158.74 0 L 158.74 158.74 L 0 158.74 Z "/>
</clipPath>
<g clip-path="url(#cp13)">
<path transform="matrix(1,0,0,-1,158.738,79.368709)" d="M 0 0 L 0 79.369 L -80.719 79.369 L -80.719 79.335 C -123.924 78.614 -158.738 43.387 -158.738 -.004 C -158.738 -43.84 -123.201 -79.372 -79.373 -79.372 C -35.673 -79.372 -.227 -44.057 -.008 -.408 L 0 -.408 L 0 -.078 C 0 -.053 .002 -.029 .002 -.004 C .002 -.003 0 -.001 0 0 " fill="#ee2c24"/>
<path transform="matrix(1,0,0,-1,155.4519,29.766205)" d="M 0 0 C -.001 .632 -.479 1.049 -1.029 1.048 C -1.584 1.047 -2.06 .628 -2.059 -.004 C -2.058 -.601 -1.628 -1.053 -1.025 -1.052 C -.475 -1.051 .001 -.632 0 0 M -.224 0 C -.223 -.514 -.576 -.869 -1.025 -.869 C -1.524 -.87 -1.834 -.48 -1.835 -.003 C -1.835 .508 -1.482 .865 -1.028 .866 C -.579 .866 -.225 .511 -.224 0 M -1.363 -.002 C -1.364 .231 -1.235 .419 -.999 .419 C -.839 .42 -.719 .322 -.69 .178 L -.5 .179 C -.537 .454 -.744 .602 -1 .602 C -1.364 .598 -1.588 .337 -1.588 -.003 C -1.587 -.365 -1.351 -.637 -.992 -.636 C -.745 -.636 -.543 -.47 -.496 -.203 L -.69 -.203 C -.709 -.349 -.827 -.453 -.992 -.454 C -1.22 -.454 -1.363 -.247 -1.363 -.002 M -1.811 -3.209 C -1.815 -.84 -3.221 .584 -5.567 .58 L -8.855 .574 L -8.842 -7.081 L -5.553 -7.075 C -3.229 -7.071 -1.807 -5.717 -1.811 -3.209 M -3.803 -3.202 C -3.801 -4.735 -4.4 -5.325 -5.91 -5.36 L -6.853 -5.362 L -6.86 -1.138 L -5.917 -1.136 C -4.557 -1.134 -3.806 -1.808 -3.803 -3.202 M -4.651 14.257 C -3.119 15.744 -2.792 17.895 -3.923 19.061 C -5.052 20.229 -7.212 19.968 -8.744 18.482 C -10.277 16.995 -10.603 14.845 -9.473 13.678 C -8.343 12.511 -6.184 12.77 -4.651 14.257 M -9.168 18.728 C -7.636 20.215 -7.309 22.367 -8.44 23.533 C -9.57 24.7 -11.728 24.44 -13.261 22.954 C -14.793 21.466 -15.12 19.316 -13.99 18.149 C -12.859 16.982 -10.701 17.241 -9.168 18.728 M -16.433 17.577 C -14.901 19.064 -14.574 21.215 -15.704 22.382 C -16.834 23.548 -18.994 23.29 -20.526 21.802 C -22.058 20.315 -22.384 18.164 -21.254 16.997 C -20.124 15.83 -17.965 16.09 -16.433 17.577 M -17.898 15.85 C -21.234 15.845 -23.934 13.133 -23.928 9.795 C -23.922 6.457 -21.213 3.754 -17.877 3.76 C -14.541 3.766 -11.841 6.478 -11.847 9.816 C -11.852 13.154 -14.562 15.856 -17.898 15.85 M -25.74 -7.723 C -25.75 -2.365 -30.097 1.969 -35.45 1.96 C -40.802 1.951 -45.134 -2.399 -45.124 -7.757 C -45.115 -13.114 -40.768 -17.449 -35.416 -17.44 C -30.063 -17.43 -25.731 -13.08 -25.74 -7.723 M -34.319 -5.732 L -35.593 -5.734 C -35.652 -5.663 -35.714 -5.595 -35.78 -5.53 C -36.346 -4.966 -37.125 -4.618 -37.987 -4.619 C -38.849 -4.621 -39.627 -4.972 -40.192 -5.538 C -40.756 -6.104 -41.103 -6.885 -41.101 -7.747 C -41.1 -8.61 -40.75 -9.389 -40.184 -9.954 C -39.617 -10.518 -38.839 -10.865 -37.976 -10.864 C -37.114 -10.862 -36.336 -10.512 -35.772 -9.946 C -35.734 -9.908 -35.698 -9.869 -35.662 -9.83 L -34.365 -9.828 C -35.085 -11.076 -36.433 -11.918 -37.977 -11.92 C -40.285 -11.924 -42.158 -10.056 -42.162 -7.747 C -42.166 -5.437 -40.299 -3.563 -37.992 -3.558 C -36.409 -3.556 -35.03 -4.434 -34.319 -5.732 M -36.687 -7.796 C -36.687 -7.878 -36.677 -7.957 -36.658 -8.035 C -36.639 -8.112 -36.608 -8.182 -36.566 -8.244 C -36.524 -8.306 -36.469 -8.356 -36.402 -8.393 C -36.334 -8.43 -36.252 -8.449 -36.156 -8.448 C -36.024 -8.448 -35.922 -8.408 -35.848 -8.327 C -35.774 -8.247 -35.73 -8.141 -35.714 -8.01 L -35.298 -8.009 C -35.309 -8.131 -35.337 -8.242 -35.382 -8.34 C -35.427 -8.439 -35.488 -8.523 -35.562 -8.592 C -35.637 -8.662 -35.724 -8.715 -35.824 -8.751 C -35.924 -8.788 -36.035 -8.806 -36.155 -8.807 C -36.304 -8.807 -36.439 -8.781 -36.558 -8.729 C -36.678 -8.678 -36.779 -8.606 -36.861 -8.515 C -36.943 -8.424 -37.006 -8.317 -37.05 -8.194 C -37.094 -8.071 -37.116 -7.939 -37.116 -7.796 C -37.116 -7.65 -37.095 -7.515 -37.051 -7.39 C -37.008 -7.265 -36.945 -7.156 -36.863 -7.063 C -36.781 -6.97 -36.681 -6.897 -36.561 -6.843 C -36.442 -6.79 -36.308 -6.764 -36.159 -6.763 C -36.051 -6.763 -35.949 -6.779 -35.854 -6.809 C -35.758 -6.84 -35.672 -6.885 -35.596 -6.944 C -35.521 -7.003 -35.458 -7.077 -35.409 -7.164 C -35.359 -7.252 -35.328 -7.352 -35.315 -7.465 L -35.731 -7.466 C -35.738 -7.416 -35.755 -7.371 -35.78 -7.33 C -35.806 -7.289 -35.838 -7.253 -35.876 -7.222 C -35.915 -7.192 -35.958 -7.167 -36.006 -7.15 C -36.055 -7.133 -36.105 -7.124 -36.158 -7.124 C -36.255 -7.125 -36.336 -7.143 -36.404 -7.181 C -36.471 -7.218 -36.526 -7.269 -36.568 -7.332 C -36.609 -7.395 -36.64 -7.466 -36.659 -7.546 C -36.678 -7.627 -36.687 -7.71 -36.687 -7.796 M -37.774 -8.027 L -37.777 -6.813 L -37.347 -6.812 L -37.345 -8.026 C -37.345 -8.291 -37.418 -8.488 -37.566 -8.616 C -37.713 -8.745 -37.917 -8.81 -38.178 -8.81 C -38.442 -8.811 -38.647 -8.747 -38.791 -8.62 C -38.937 -8.493 -39.009 -8.296 -39.01 -8.029 L -39.012 -6.815 L -38.583 -6.814 L -38.581 -8.029 C -38.581 -8.082 -38.576 -8.134 -38.567 -8.184 C -38.558 -8.236 -38.538 -8.281 -38.509 -8.32 C -38.48 -8.359 -38.439 -8.391 -38.387 -8.415 C -38.335 -8.44 -38.266 -8.452 -38.178 -8.452 C -38.025 -8.452 -37.92 -8.417 -37.861 -8.349 C -37.803 -8.28 -37.774 -8.173 -37.774 -8.027 M -39.752 -8.769 L -39.755 -6.816 L -39.326 -6.815 L -39.323 -8.769 Z M -33.411 -8.758 L -33.84 -8.759 L -34.654 -7.453 L -34.66 -7.453 L -34.657 -8.76 L -35.059 -8.761 L -35.062 -6.808 L -34.636 -6.807 L -33.819 -8.116 L -33.814 -8.116 L -33.816 -6.806 L -33.414 -6.805 Z M -25.883 13.411 L -25.887 23.05 L -35.532 23.033 C -40.852 23.024 -45.157 18.7 -45.147 13.378 C -45.138 8.053 -40.818 3.745 -35.499 3.754 C -30.18 3.763 -25.873 8.086 -25.883 13.411 M -19.6 .555 L -23.5 .548 L -23.486 -7.106 L -21.494 -7.103 L -21.499 -4.315 L -19.988 -4.313 C -19.056 -4.311 -18.926 -5.104 -18.871 -5.876 C -18.85 -6.09 -18.816 -6.841 -18.644 -7.098 L -16.673 -7.094 C -16.942 -6.816 -16.976 -5.69 -16.998 -5.369 C -17.063 -4.64 -17.301 -3.729 -18.115 -3.537 L -18.115 -3.516 C -17.312 -3.204 -16.917 -2.42 -16.919 -1.595 C -16.921 -.051 -18.251 .557 -19.6 .555 M -19.919 -1.043 C -19.362 -1.042 -18.911 -1.298 -18.911 -1.867 C -18.91 -2.445 -19.23 -2.768 -19.83 -2.769 L -21.501 -2.772 L -21.504 -1.046 Z M -21.492 -7.889 L -23.485 -7.893 L -23.471 -15.547 L -17.912 -15.538 L -17.915 -13.822 L -21.482 -13.828 Z M -15.376 -7.879 L -17.368 -7.882 L -17.355 -15.537 L -15.362 -15.533 Z M -9.96 11.264 C -11.492 9.778 -11.818 7.627 -10.688 6.46 C -9.558 5.293 -7.399 5.553 -5.868 7.039 C -4.334 8.526 -4.008 10.677 -5.139 11.845 C -6.268 13.011 -8.427 12.751 -9.96 11.264 M -13.977 -5.374 L -13.979 -3.916 L -10.23 -3.91 L -10.233 -2.366 L -13.982 -2.372 L -13.984 -1.033 L -9.881 -1.025 L -9.884 .572 L -15.979 .561 L -15.966 -7.093 L -9.764 -7.082 L -9.767 -5.367 Z M -12.86 -12.956 L -14.852 -12.959 C -14.838 -14.921 -13.284 -15.69 -11.527 -15.687 C -9.845 -15.684 -8.196 -15.06 -8.2 -13.119 C -8.202 -11.736 -9.317 -11.223 -10.421 -10.915 C -11.536 -10.606 -12.639 -10.5 -12.64 -9.911 C -12.641 -9.407 -12.106 -9.256 -11.677 -9.255 C -11.067 -9.254 -10.413 -9.478 -10.444 -10.175 L -8.451 -10.171 C -8.465 -8.445 -9.998 -7.708 -11.519 -7.711 C -12.955 -7.713 -14.635 -8.37 -14.633 -10.043 C -14.63 -11.447 -13.483 -11.938 -12.39 -12.247 C -11.286 -12.556 -10.193 -12.683 -10.192 -13.359 C -10.191 -13.927 -10.812 -14.142 -11.412 -14.143 C -12.258 -14.145 -12.816 -13.856 -12.86 -12.956 M -8.463 -9.582 L -6.181 -9.578 L -6.171 -15.517 L -4.178 -15.514 L -4.189 -9.574 L -1.907 -9.57 L -1.91 -7.855 L -8.466 -7.866 Z " fill="#ffffff"/>
</g>
<path transform="matrix(1,0,0,-1,140.0701,71.870708)" d="M 0 0 L 7.652 -7.498 L 0 -14.998 L 3.627 -14.998 L 11.292 -7.498 L 3.62 0 Z " fill="#ffffff"/>
<path transform="matrix(1,0,0,-1,17.5396,71.870708)" d="M 0 0 L -7.652 -7.498 L 0 -14.998 L -3.627 -14.998 L -11.292 -7.498 L -3.62 0 Z " fill="#ffffff"/>
</g>
<g id="Layer-1" data-name="Artifact">
<path transform="matrix(1,0,0,-1,77.2299,102.47661)" d="M 0 0 L -5.542 0 L -5.542 -7.557 L .185 -7.557 L .185 -6.198 L -3.999 -6.198 L -3.999 -4.255 L -.328 -4.255 L -.328 -2.943 L -3.999 -2.943 L -3.999 -1.338 L 0 -1.338 Z M .909 0 L 3.052 -7.557 L 4.519 -7.557 L 5.431 -3.138 L 5.698 -1.677 L 5.964 -3.138 L 6.877 -7.557 L 8.389 -7.557 L 10.515 0 L 8.907 0 L 7.9 -4.374 L 7.667 -5.532 L 7.437 -4.327 L 6.539 0 L 4.872 0 L 4.019 -4.352 L 3.801 -5.532 L 3.584 -4.328 L 2.586 0 Z " fill="#ffffff"/>
<clipPath id="cp14">
<path transform="matrix(1,0,0,-1,0,158.74)" d="M 0 0 L 158.74 0 L 158.74 158.74 L 0 158.74 Z "/>
</clipPath>
<g clip-path="url(#cp14)">
<path transform="matrix(1,0,0,-1,0,158.74)" d="M 32.471 76.182 L 30.006 76.182 L 30.006 64.307 L 32.471 64.307 Z M 34.827 64.306 L 37.14 64.306 L 37.14 72.732 L 41.974 64.306 L 44.455 64.306 L 44.455 76.182 L 42.143 76.182 L 42.143 67.901 L 37.429 76.182 L 34.827 76.182 Z M 50.377 76.182 L 50.377 74.079 L 53.946 74.079 L 53.946 64.306 L 56.443 64.306 L 56.443 74.079 L 59.996 74.079 L 59.996 76.182 Z M 63.881 64.306 L 63.881 69.608 L 68.497 69.608 L 68.497 64.306 L 70.963 64.306 L 70.963 76.182 L 68.497 76.182 L 68.497 71.654 L 63.881 71.654 L 63.881 76.182 L 61.415 76.182 L 61.415 64.306 Z M 82.116 76.182 L 73.407 76.182 L 73.407 64.306 L 82.406 64.306 L 82.406 66.441 L 75.832 66.441 L 75.832 69.495 L 81.6 69.495 L 81.6 71.557 L 75.832 71.557 L 75.832 74.079 L 82.116 74.079 Z M 87.905 76.182 L 91.272 64.306 L 93.576 64.306 L 95.011 71.251 L 95.429 73.547 L 95.848 71.251 L 97.283 64.306 L 99.659 64.306 L 102.999 76.182 L 100.473 76.182 L 98.89 69.309 L 98.523 67.489 L 98.162 69.382 L 96.751 76.182 L 94.132 76.182 L 92.791 69.342 L 92.449 67.489 L 92.107 69.381 L 90.539 76.182 Z M 106.821 76.182 L 104.356 76.182 L 104.356 64.307 L 106.821 64.307 Z M 109.192 64.306 L 117.603 64.306 L 117.603 66.441 L 111.673 66.441 L 111.673 76.182 L 109.192 76.182 Z M 123.831 74.119 C 124.961 74.119 125.715 73.796 126.095 73.148 C 126.474 72.501 126.664 71.573 126.664 70.365 C 126.664 69.489 126.537 68.735 126.284 68.101 C 125.822 66.946 125.004 66.369 123.831 66.369 L 121.54 66.369 L 121.54 74.119 Z M 124.251 76.182 L 119.131 76.182 L 119.131 64.306 L 124.251 64.306 C 126.046 64.306 127.374 65.045 128.234 66.522 C 128.868 67.618 129.185 68.955 129.185 70.534 C 129.185 71.157 129.11 71.812 128.959 72.5 C 128.809 73.187 128.527 73.826 128.113 74.417 C 127.597 75.148 126.922 75.65 126.089 75.924 C 125.6 76.085 124.987 76.171 124.251 76.182 " fill="#ffffff"/>
<path transform="matrix(1,0,0,-1,53.7238,64.958209)" d="M 0 0 L -8.709 0 L -8.709 -11.875 L .29 -11.875 L .29 -9.74 L -6.284 -9.74 L -6.284 -6.687 L -.516 -6.687 L -.516 -4.625 L -6.284 -4.625 L -6.284 -2.103 L 0 -2.103 Z M 6.73 -7.826 L 8.986 -11.875 L 11.999 -11.875 L 8.14 -5.728 L 11.774 0 L 8.905 0 L 6.729 -3.867 L 4.611 0 L 1.646 0 L 5.28 -5.825 L 1.461 -11.875 L 4.345 -11.875 Z M 12.82 0 L 12.82 -2.103 L 16.39 -2.103 L 16.39 -11.875 L 18.887 -11.875 L 18.887 -2.103 L 22.44 -2.103 L 22.44 0 Z M 26.238 0 L 23.773 0 L 23.773 -11.875 L 26.238 -11.875 Z M 28.594 -11.875 L 30.907 -11.875 L 30.907 -3.449 L 35.741 -11.875 L 38.222 -11.875 L 38.222 0 L 35.91 0 L 35.91 -8.28 L 31.196 0 L 28.594 0 Z M 40.112 -6.034 C 40.112 -7.952 40.596 -9.461 41.563 -10.562 C 42.53 -11.658 43.858 -12.206 45.548 -12.206 C 46.914 -12.206 48.033 -11.8 48.908 -10.989 C 49.782 -10.178 50.325 -9.126 50.538 -7.831 L 48.072 -7.831 C 47.909 -8.443 47.704 -8.903 47.458 -9.209 C 47.011 -9.778 46.362 -10.063 45.511 -10.063 C 44.681 -10.063 43.996 -9.731 43.458 -9.068 C 42.919 -8.404 42.65 -7.407 42.65 -6.075 C 42.65 -4.743 42.905 -3.713 43.416 -2.985 C 43.926 -2.257 44.623 -1.893 45.507 -1.893 C 46.375 -1.893 47.031 -2.151 47.473 -2.667 C 47.72 -2.957 47.922 -3.387 48.08 -3.956 L 50.562 -3.956 C 50.524 -3.215 50.254 -2.476 49.749 -1.74 C 48.835 -.43 47.389 .226 45.413 .226 C 43.936 .226 42.719 -.263 41.762 -1.241 C 40.662 -2.363 40.112 -3.961 40.112 -6.034 M 51.518 0 L 51.518 -2.103 L 55.087 -2.103 L 55.087 -11.875 L 57.585 -11.875 L 57.585 -2.103 L 61.138 -2.103 L 61.138 0 Z " fill="#ffffff"/>
</g>
</g>
</g>
</svg>
