<svg xmlns="http://www.w3.org/2000/svg" xmlns:xlink="http://www.w3.org/1999/xlink" width="500" zoomAndPan="magnify" viewBox="0 0 375 374.999991" height="500" preserveAspectRatio="xMidYMid meet" version="1.0"><defs><clipPath id="9f022eb4db"><path d="M 187.5 0 C 83.945312 0 0 83.945312 0 187.5 C 0 291.054688 83.945312 375 187.5 375 C 291.054688 375 375 291.054688 375 187.5 C 375 83.945312 291.054688 0 187.5 0 Z M 187.5 0 " clip-rule="nonzero"/></clipPath><clipPath id="fe26417f30"><path d="M 153 161 L 222 161 L 222 292.707031 L 153 292.707031 Z M 153 161 " clip-rule="nonzero"/></clipPath><clipPath id="d8b0bdeedb"><path d="M 78 199 L 139 199 L 139 292.707031 L 78 292.707031 Z M 78 199 " clip-rule="nonzero"/></clipPath><clipPath id="fe497ac713"><path d="M 74.769531 169 L 143 169 L 143 245 L 74.769531 245 Z M 74.769531 169 " clip-rule="nonzero"/></clipPath><clipPath id="dc13e7f026"><path d="M 236 199 L 297 199 L 297 292.707031 L 236 292.707031 Z M 236 199 " clip-rule="nonzero"/></clipPath><clipPath id="e34738a47a"><path d="M 232 169 L 300.519531 169 L 300.519531 245 L 232 245 Z M 232 169 " clip-rule="nonzero"/></clipPath><clipPath id="9e67587199"><path d="M 242 81.957031 L 257 81.957031 L 257 103 L 242 103 Z M 242 81.957031 " clip-rule="nonzero"/></clipPath><clipPath id="bbb4af2349"><path d="M 118 81.957031 L 133 81.957031 L 133 103 L 118 103 Z M 118 81.957031 " clip-rule="nonzero"/></clipPath></defs><g clip-path="url(#9f022eb4db)"><rect x="-37.5" width="450" fill="#fec743" y="-37.499999" height="449.999989" fill-opacity="1"/></g><path fill="#fffff9" d="M 183.75 214.136719 L 191.261719 214.136719 L 191.261719 289.28125 L 183.75 289.28125 Z M 183.75 214.136719 " fill-opacity="1" fill-rule="nonzero"/><g clip-path="url(#fe26417f30)"><path fill="#fffff9" d="M 213.804688 293.039062 L 161.203125 293.039062 C 157.0625 293.039062 153.6875 289.667969 153.6875 285.527344 C 153.6875 279.414062 157.585938 274.007812 163.386719 272.074219 L 164.960938 271.550781 L 164.960938 161.539062 L 172.476562 161.539062 L 172.476562 276.960938 L 165.765625 279.199219 C 162.996094 280.121094 161.207031 282.601562 161.207031 285.527344 L 213.808594 285.527344 C 213.808594 282.601562 212.019531 280.117188 209.25 279.195312 L 202.539062 276.964844 L 202.539062 161.539062 L 210.054688 161.539062 L 210.054688 271.542969 L 211.625 272.0625 C 217.515625 274.023438 221.324219 279.308594 221.324219 285.523438 C 221.324219 289.664062 217.953125 293.035156 213.8125 293.035156 Z M 213.804688 293.039062 " fill-opacity="1" fill-rule="nonzero"/></g><path fill="#fffff9" d="M 187.503906 131.484375 C 177.144531 131.484375 168.714844 123.050781 168.714844 112.683594 L 168.714844 105.171875 C 168.714844 94.816406 177.144531 86.394531 187.503906 86.394531 C 197.863281 86.394531 206.289062 94.816406 206.289062 105.171875 L 206.289062 112.683594 C 206.289062 123.050781 197.863281 131.484375 187.503906 131.484375 Z M 187.503906 93.914062 C 181.285156 93.914062 176.230469 98.964844 176.230469 105.175781 L 176.230469 112.6875 C 176.230469 118.914062 181.285156 123.96875 187.503906 123.96875 C 193.71875 123.96875 198.777344 118.910156 198.777344 112.6875 L 198.777344 105.175781 C 198.777344 98.964844 193.71875 93.914062 187.503906 93.914062 Z M 187.503906 93.914062 " fill-opacity="1" fill-rule="nonzero"/><path fill="#fffff9" d="M 213.789062 206.625 C 210.789062 206.625 207.964844 205.457031 205.839844 203.335938 C 203.707031 201.203125 202.53125 198.375 202.53125 195.355469 L 210.046875 195.355469 C 210.046875 196.363281 210.4375 197.308594 211.152344 198.019531 C 211.855469 198.722656 212.796875 199.113281 213.789062 199.113281 L 213.796875 199.113281 C 216.382812 199.113281 217.558594 197.160156 217.558594 195.355469 L 217.558594 161.539062 C 217.558594 144.683594 204.355469 131.484375 187.503906 131.484375 C 170.652344 131.484375 157.449219 144.6875 157.449219 161.539062 L 157.449219 195.355469 C 157.449219 197.160156 158.625 199.109375 161.210938 199.113281 L 161.21875 199.113281 C 162.210938 199.113281 163.152344 198.722656 163.855469 198.019531 C 164.566406 197.3125 164.960938 196.367188 164.960938 195.355469 L 172.476562 195.355469 C 172.476562 198.375 171.304688 201.207031 169.167969 203.335938 C 167.039062 205.460938 164.21875 206.625 161.21875 206.625 L 161.195312 206.625 C 154.878906 206.613281 149.929688 201.660156 149.929688 195.351562 L 149.929688 161.535156 C 149.929688 140.46875 166.433594 123.964844 187.5 123.964844 C 208.566406 123.964844 225.070312 140.472656 225.070312 161.535156 L 225.070312 195.351562 C 225.070312 201.660156 220.117188 206.613281 213.804688 206.625 L 213.78125 206.625 Z M 213.789062 206.625 " fill-opacity="1" fill-rule="nonzero"/><path fill="#fffff9" d="M 185.625 168.730469 L 175.191406 158.296875 L 180.503906 152.984375 L 185.625 158.105469 L 198.261719 145.46875 L 203.574219 150.78125 Z M 185.625 168.730469 " fill-opacity="1" fill-rule="nonzero"/><g clip-path="url(#d8b0bdeedb)"><path fill="#fffff9" d="M 131.148438 293.039062 L 86.0625 293.039062 C 81.921875 293.039062 78.550781 289.667969 78.550781 285.527344 C 78.550781 279.40625 82.445312 274 88.25 272.066406 L 89.824219 271.546875 L 89.824219 199.113281 L 97.335938 199.113281 L 97.335938 276.96875 L 90.625 279.199219 C 87.894531 280.105469 86.066406 282.648438 86.066406 285.53125 L 131.152344 285.53125 C 131.152344 282.605469 129.359375 280.121094 126.59375 279.199219 L 119.882812 276.96875 L 119.882812 199.113281 L 127.394531 199.113281 L 127.394531 271.546875 L 128.964844 272.066406 C 134.773438 274 138.667969 279.40625 138.667969 285.527344 C 138.667969 289.667969 135.296875 293.039062 131.15625 293.039062 Z M 131.148438 293.039062 " fill-opacity="1" fill-rule="nonzero"/></g><g clip-path="url(#fe497ac713)"><path fill="#fffff9" d="M 131.148438 244.195312 C 124.929688 244.195312 119.875 239.140625 119.875 232.925781 L 127.386719 232.925781 C 127.386719 235 129.070312 236.683594 131.148438 236.683594 C 133.730469 236.683594 134.90625 234.734375 134.90625 232.925781 L 134.90625 202.867188 C 134.90625 188.367188 123.105469 176.566406 108.605469 176.566406 C 94.105469 176.566406 82.304688 188.367188 82.304688 202.867188 L 82.304688 232.925781 C 82.304688 234.734375 83.476562 236.683594 86.0625 236.683594 C 88.136719 236.683594 89.824219 235 89.824219 232.925781 L 97.335938 232.925781 C 97.335938 239.140625 92.28125 244.195312 86.0625 244.195312 C 79.847656 244.195312 74.789062 239.246094 74.789062 232.925781 L 74.789062 202.867188 C 74.789062 184.222656 89.960938 169.054688 108.605469 169.054688 C 127.25 169.054688 142.417969 184.222656 142.417969 202.867188 L 142.417969 232.925781 C 142.417969 239.246094 137.46875 244.195312 131.148438 244.195312 Z M 131.148438 244.195312 " fill-opacity="1" fill-rule="nonzero"/></g><path fill="#fffff9" d="M 104.847656 247.953125 L 112.359375 247.953125 L 112.359375 289.28125 L 104.847656 289.28125 Z M 104.847656 247.953125 " fill-opacity="1" fill-rule="nonzero"/><path fill="#fffff9" d="M 108.605469 176.566406 C 98.246094 176.566406 89.820312 168.136719 89.820312 157.769531 L 89.820312 150.253906 C 89.820312 139.902344 98.246094 131.480469 108.605469 131.480469 C 118.964844 131.480469 127.390625 139.902344 127.390625 150.253906 L 127.390625 157.769531 C 127.390625 168.136719 118.964844 176.566406 108.605469 176.566406 Z M 108.605469 138.996094 C 102.386719 138.996094 97.332031 144.050781 97.332031 150.257812 L 97.332031 157.773438 C 97.332031 163.996094 102.386719 169.054688 108.605469 169.054688 C 114.820312 169.054688 119.878906 163.992188 119.878906 157.773438 L 119.878906 150.257812 C 119.878906 144.050781 114.820312 138.996094 108.605469 138.996094 Z M 108.605469 138.996094 " fill-opacity="1" fill-rule="nonzero"/><g clip-path="url(#dc13e7f026)"><path fill="#fffff9" d="M 288.949219 293.039062 L 243.863281 293.039062 C 239.722656 293.039062 236.351562 289.667969 236.351562 285.527344 C 236.351562 279.40625 240.246094 274 246.050781 272.066406 L 247.621094 271.546875 L 247.621094 199.113281 L 255.136719 199.113281 L 255.136719 276.96875 L 248.425781 279.199219 C 245.695312 280.105469 243.867188 282.648438 243.867188 285.53125 L 288.953125 285.53125 C 288.953125 282.605469 287.160156 280.121094 284.394531 279.199219 L 277.683594 276.96875 L 277.683594 199.113281 L 285.195312 199.113281 L 285.195312 271.546875 L 286.765625 272.066406 C 292.574219 274 296.46875 279.40625 296.46875 285.527344 C 296.46875 289.667969 293.097656 293.039062 288.957031 293.039062 Z M 288.949219 293.039062 " fill-opacity="1" fill-rule="nonzero"/></g><g clip-path="url(#e34738a47a)"><path fill="#fffff9" d="M 288.949219 244.195312 C 282.730469 244.195312 277.675781 239.140625 277.675781 232.925781 L 285.1875 232.925781 C 285.1875 235 286.871094 236.683594 288.949219 236.683594 C 291.53125 236.683594 292.707031 234.734375 292.707031 232.925781 L 292.707031 202.867188 C 292.707031 188.367188 280.90625 176.566406 266.40625 176.566406 C 251.90625 176.566406 240.105469 188.367188 240.105469 202.867188 L 240.105469 232.925781 C 240.105469 234.734375 241.277344 236.683594 243.863281 236.683594 C 245.9375 236.683594 247.621094 235 247.621094 232.925781 L 255.136719 232.925781 C 255.136719 239.140625 250.082031 244.195312 243.863281 244.195312 C 237.648438 244.195312 232.589844 239.246094 232.589844 232.925781 L 232.589844 202.867188 C 232.589844 184.222656 247.757812 169.054688 266.40625 169.054688 C 285.050781 169.054688 300.21875 184.222656 300.21875 202.867188 L 300.21875 232.925781 C 300.21875 239.246094 295.269531 244.195312 288.949219 244.195312 Z M 288.949219 244.195312 " fill-opacity="1" fill-rule="nonzero"/></g><path fill="#fffff9" d="M 262.648438 247.953125 L 270.160156 247.953125 L 270.160156 289.28125 L 262.648438 289.28125 Z M 262.648438 247.953125 " fill-opacity="1" fill-rule="nonzero"/><path fill="#fffff9" d="M 266.402344 176.566406 C 256.042969 176.566406 247.613281 168.136719 247.613281 157.769531 L 247.613281 150.253906 C 247.613281 139.902344 256.042969 131.480469 266.402344 131.480469 C 276.761719 131.480469 285.1875 139.902344 285.1875 150.253906 L 285.1875 157.769531 C 285.1875 168.136719 276.761719 176.566406 266.402344 176.566406 Z M 266.402344 138.996094 C 260.183594 138.996094 255.128906 144.050781 255.128906 150.257812 L 255.128906 157.773438 C 255.128906 163.996094 260.183594 169.054688 266.402344 169.054688 C 272.617188 169.054688 277.675781 163.992188 277.675781 157.773438 L 277.675781 150.257812 C 277.675781 144.050781 272.617188 138.996094 266.402344 138.996094 Z M 266.402344 138.996094 " fill-opacity="1" fill-rule="nonzero"/><g clip-path="url(#9e67587199)"><path fill="#fffff9" d="M 242.960938 99.761719 L 248.898438 81.964844 L 256.023438 84.339844 L 250.085938 102.136719 Z M 242.960938 99.761719 " fill-opacity="1" fill-rule="nonzero"/></g><path fill="#fffff9" d="M 273.050781 119.511719 L 284.515625 108.042969 L 289.828125 113.355469 L 278.363281 124.824219 Z M 273.050781 119.511719 " fill-opacity="1" fill-rule="nonzero"/><g clip-path="url(#bbb4af2349)"><path fill="#fffff9" d="M 118.972656 84.355469 L 126.097656 81.972656 L 132.039062 99.769531 L 124.917969 102.148438 Z M 118.972656 84.355469 " fill-opacity="1" fill-rule="nonzero"/></g><path fill="#fffff9" d="M 85.179688 113.359375 L 90.492188 108.042969 L 101.957031 119.511719 L 96.644531 124.824219 Z M 85.179688 113.359375 " fill-opacity="1" fill-rule="nonzero"/></svg>