<svg xmlns="http://www.w3.org/2000/svg" xmlns:xlink="http://www.w3.org/1999/xlink" width="500" zoomAndPan="magnify" viewBox="0 0 375 374.999991" height="500" preserveAspectRatio="xMidYMid meet" version="1.0"><defs><clipPath id="d87fbc2077"><path d="M 187.5 0 C 83.945312 0 0 83.945312 0 187.5 C 0 291.054688 83.945312 375 187.5 375 C 291.054688 375 375 291.054688 375 187.5 C 375 83.945312 291.054688 0 187.5 0 Z M 187.5 0 " clip-rule="nonzero"/></clipPath><clipPath id="cfd62e0c21"><path d="M 87.039062 73.125 L 187 73.125 L 187 337.125 L 87.039062 337.125 Z M 87.039062 73.125 " clip-rule="nonzero"/></clipPath><clipPath id="71cdc25034"><path d="M 169 86 L 248 86 L 248 337.125 L 169 337.125 Z M 169 86 " clip-rule="nonzero"/></clipPath><clipPath id="03dbd9f559"><path d="M 195 184 L 288 184 L 288 337.125 L 195 337.125 Z M 195 184 " clip-rule="nonzero"/></clipPath></defs><g clip-path="url(#d87fbc2077)"><rect x="-37.5" width="450" fill="#58a39d" y="-37.499999" height="449.999989" fill-opacity="1"/></g><g clip-path="url(#cfd62e0c21)"><path fill="#ffffff" d="M 171.707031 293.515625 C 170.105469 293.304688 168.609375 293.570312 167.113281 294.105469 C 166.527344 294.320312 165.992188 294.800781 165.191406 294.371094 C 165.136719 293.839844 165.082031 293.304688 165.082031 292.714844 C 164.921875 286.464844 164.761719 280.265625 164.601562 274.015625 C 164.496094 270.277344 164.496094 270.328125 168.183594 269.847656 C 171.335938 269.421875 174.539062 268.886719 177.265625 267.015625 C 179.9375 265.199219 179.9375 262.15625 177.371094 260.285156 C 176.035156 259.324219 174.539062 258.628906 172.992188 258.09375 C 170.640625 257.347656 168.183594 257.132812 165.726562 257.027344 C 163.800781 256.972656 163.800781 256.972656 163.695312 255.15625 C 163.640625 253.179688 163.640625 251.203125 163.640625 249.226562 C 163.640625 248.746094 163.585938 248.050781 163.855469 247.835938 C 165.03125 246.714844 164.65625 245.644531 163.960938 244.523438 C 163.695312 244.097656 163.585938 243.617188 163.535156 243.132812 C 163.375 237.3125 163.214844 231.488281 163 225.664062 C 162.945312 224.648438 163.375 224.222656 164.390625 224.007812 C 165.832031 223.738281 167.273438 223.3125 168.554688 222.617188 C 171.546875 220.960938 172.242188 218.183594 170.320312 215.40625 C 170.105469 215.085938 169.785156 214.765625 169.519531 214.496094 C 170.105469 213.855469 170.90625 213.910156 171.546875 213.640625 C 173.3125 212.949219 175.074219 212.253906 176.515625 210.96875 C 177.851562 209.847656 177.851562 209.367188 177.050781 207.816406 C 176.304688 206.269531 175.019531 205.253906 173.578125 204.453125 C 170.53125 202.742188 167.273438 202.207031 163.855469 202.527344 C 162.144531 202.6875 162.144531 202.636719 162.039062 200.925781 C 161.878906 198.203125 161.824219 195.53125 161.609375 192.804688 C 161.503906 191.414062 161.878906 190.402344 162.945312 189.386719 C 165.242188 187.25 165.242188 185.644531 163.375 183.1875 C 163.105469 182.867188 162.839844 182.492188 162.519531 182.332031 C 161.398438 181.636719 161.128906 180.675781 161.078125 179.449219 C 160.96875 174.800781 160.753906 170.097656 160.59375 165.449219 C 160.542969 164.058594 160.382812 162.671875 160.648438 161.335938 C 161.289062 161.015625 161.824219 161.28125 162.410156 161.441406 C 166.578125 162.351562 170.800781 162.886719 175.128906 162.617188 C 177.585938 162.457031 179.988281 161.976562 182.234375 160.800781 C 187.042969 158.238281 187.578125 153.375 183.515625 149.742188 C 181.433594 147.871094 178.921875 146.964844 176.25 146.324219 C 173.632812 145.734375 170.90625 145.734375 168.234375 145.46875 C 167.96875 142.421875 167.542969 141.460938 165.671875 139.859375 C 164.550781 138.894531 163.320312 138.039062 161.929688 137.507812 C 160.542969 136.972656 160.167969 136.117188 160.222656 134.675781 C 160.382812 130.027344 160.488281 125.324219 160.542969 120.675781 C 160.59375 118.699219 160.59375 118.699219 162.625 118.164062 C 164.921875 117.523438 167.167969 116.777344 168.929688 114.960938 C 171.441406 112.34375 170.960938 109.191406 167.753906 107.535156 C 165.832031 106.519531 163.800781 105.984375 161.664062 105.769531 C 160.542969 105.664062 160.167969 105.128906 160.113281 104.007812 C 160.007812 101.550781 159.792969 99.089844 159.527344 96.632812 C 159.097656 92.304688 159.097656 92.253906 162.734375 89.902344 C 163.855469 89.207031 165.03125 88.671875 166.257812 88.191406 C 168.714844 87.285156 171.28125 86.695312 173.847656 86.269531 C 176.195312 85.839844 178.601562 85.679688 180.792969 84.667969 C 182.660156 83.8125 184.210938 82.582031 184.265625 80.285156 C 184.316406 78.039062 182.929688 76.652344 181.164062 75.582031 C 180.523438 75.210938 179.828125 74.941406 179.136719 74.78125 C 176.890625 74.195312 174.59375 74.195312 172.296875 74.78125 C 166.152344 76.332031 161.878906 80.125 159.097656 85.679688 C 158.726562 86.429688 158.566406 87.335938 157.816406 88.085938 C 157.605469 87.445312 157.390625 86.910156 157.175781 86.375 C 155.09375 80.660156 151.140625 76.707031 145.6875 74.195312 C 144.351562 73.554688 142.910156 73.125 141.414062 73.125 C 139.382812 73.125 137.40625 73.445312 136.5 75.582031 C 135.589844 77.667969 136.765625 79.214844 138.15625 80.605469 C 139.703125 82.207031 141.683594 83.332031 143.710938 84.132812 C 148.039062 85.789062 151.886719 88.246094 155.625 90.917969 C 156.695312 91.71875 157.390625 92.574219 157.496094 93.910156 C 157.765625 97.113281 158.085938 100.265625 158.296875 103.472656 C 158.40625 105.289062 158.351562 105.34375 156.429688 105.34375 C 153.542969 105.34375 150.710938 105.769531 147.933594 106.464844 C 146.167969 106.890625 144.460938 107.535156 143.019531 108.65625 C 140.667969 110.523438 140.507812 113.089844 142.589844 115.226562 C 143.820312 116.507812 145.421875 117.152344 147.078125 117.683594 C 150.175781 118.644531 153.328125 118.859375 156.589844 118.808594 C 158.832031 118.753906 158.832031 118.753906 158.832031 121.105469 C 158.777344 125.433594 158.726562 129.8125 158.617188 134.140625 C 158.566406 135.902344 158.566406 135.902344 156.800781 135.582031 C 151.886719 134.78125 147.132812 135.261719 142.695312 137.667969 C 141.363281 138.363281 140.1875 139.164062 139.171875 140.285156 C 136.445312 143.277344 136.820312 147.070312 140.132812 149.421875 C 141.363281 150.277344 142.695312 150.808594 144.140625 151.238281 C 146.117188 151.773438 148.148438 151.984375 150.230469 152.039062 C 151.03125 152.039062 151.40625 152.304688 151.300781 153.214844 C 151.085938 155.457031 152.367188 156.902344 154.078125 158.078125 C 155.039062 158.71875 156 159.304688 157.121094 159.625 C 158.457031 160 158.832031 160.746094 158.886719 162.136719 C 158.992188 167.800781 159.261719 173.464844 159.472656 179.128906 C 159.472656 179.449219 159.421875 179.769531 159.367188 180.089844 C 158.351562 180.195312 157.550781 179.714844 156.695312 179.554688 C 153.007812 178.753906 149.375 178.644531 145.742188 179.769531 C 143.285156 180.570312 141.148438 181.851562 140.828125 184.683594 C 140.507812 187.355469 142.164062 189.171875 144.191406 190.5625 C 147.292969 192.75 150.816406 193.339844 154.503906 192.804688 C 156.269531 192.539062 157.976562 192.058594 159.847656 191.683594 C 160.382812 194.886719 160.167969 197.988281 160.433594 201.085938 C 160.59375 202.582031 160.222656 203.492188 158.726562 204.132812 C 157.015625 204.828125 155.574219 206.109375 155.199219 207.980469 C 154.878906 209.421875 154.128906 209.472656 152.957031 209.421875 C 149.804688 209.261719 146.757812 209.902344 143.925781 211.398438 C 139.707031 213.695312 139.171875 217.757812 142.589844 221.121094 C 144.726562 223.257812 147.398438 224.167969 150.285156 224.59375 C 153.382812 225.023438 156.480469 225.128906 159.632812 224.863281 C 161.34375 224.703125 161.34375 224.703125 161.449219 226.519531 C 161.558594 229.882812 161.664062 233.25 161.769531 236.617188 C 161.824219 238.324219 161.769531 239.980469 161.769531 241.796875 C 160.917969 241.746094 160.433594 241.265625 159.902344 240.945312 C 157.605469 239.609375 155.199219 238.59375 152.582031 238.113281 C 149 237.472656 145.367188 237.417969 141.949219 238.96875 C 140.398438 239.660156 139.171875 240.785156 139.0625 242.652344 C 138.957031 244.628906 139.972656 245.914062 141.574219 246.875 C 142.910156 247.675781 144.40625 248.15625 146.007812 248.261719 C 147.558594 248.371094 149.109375 248.425781 150.65625 248.371094 C 154.023438 248.210938 157.390625 248.371094 160.753906 247.941406 C 161.71875 247.835938 162.144531 248.15625 162.144531 249.117188 C 162.144531 251.253906 162.144531 253.394531 162.304688 255.53125 C 162.359375 256.757812 161.984375 257.292969 160.703125 257.398438 C 158.40625 257.613281 156.160156 258.148438 154.128906 259.269531 C 151.941406 260.445312 150.125 261.996094 150.390625 264.828125 C 150.65625 267.65625 152.796875 268.726562 155.144531 269.476562 C 157.121094 270.0625 159.152344 270.222656 161.238281 270.382812 C 163 270.488281 163 270.542969 163.160156 272.359375 C 163.214844 272.679688 163.214844 273 163.214844 273.320312 C 163.375 280.265625 163.535156 287.265625 163.746094 294.210938 C 163.800781 295.601562 163.265625 296.457031 162.25 297.3125 C 158.296875 300.625 156 304.84375 155.894531 310.082031 C 155.894531 310.402344 156 310.722656 155.625 310.933594 C 153.542969 309.652344 149.535156 305.109375 148.679688 303.082031 C 152.472656 300.996094 155.679688 298.273438 158.136719 294.640625 C 158.9375 293.464844 159.582031 292.234375 159.902344 290.898438 C 160.648438 287.640625 159.046875 285.554688 155.734375 285.503906 C 153.863281 285.503906 152.152344 286.039062 150.550781 286.890625 C 147.558594 288.496094 145.101562 290.792969 143.125 293.570312 C 142.75 294.050781 142.589844 294.800781 141.734375 294.960938 C 139.707031 292.34375 137.78125 289.671875 135.859375 286.785156 C 138.101562 285.503906 140.238281 284.382812 142.375 283.097656 C 144.566406 281.816406 146.652344 280.320312 148.308594 278.398438 C 149.589844 276.847656 150.285156 275.085938 149.535156 273.160156 C 148.789062 271.132812 147.023438 270.222656 144.941406 269.902344 C 144.03125 269.796875 143.125 269.742188 142.269531 269.796875 C 138.796875 269.957031 135.699219 271.183594 132.867188 273.054688 C 131.53125 273.960938 130.300781 275.03125 128.964844 276.367188 C 125.707031 271.023438 122.074219 266.214844 119.1875 260.765625 C 120.042969 260.390625 120.632812 260.179688 121.21875 259.859375 C 124.90625 258.148438 128.269531 255.957031 131.210938 253.179688 C 132.171875 252.269531 133.027344 251.308594 133.5625 250.027344 C 134.46875 247.890625 133.828125 245.914062 131.796875 244.789062 C 129.925781 243.722656 127.898438 243.617188 125.8125 243.988281 C 122.609375 244.628906 119.777344 246.074219 117.160156 247.941406 C 116.089844 248.691406 115.074219 249.492188 113.847656 250.347656 C 112.882812 248.585938 112.296875 246.875 111.761719 245.21875 C 111.65625 244.84375 111.65625 244.363281 111.761719 243.988281 C 112.777344 240.195312 113.683594 236.347656 116.144531 233.144531 C 117.640625 231.167969 118.976562 229.136719 120.363281 227.105469 C 121.164062 225.929688 121.859375 224.753906 122.128906 223.367188 C 122.609375 221.015625 121.644531 219.089844 119.507812 218.128906 C 118.121094 217.488281 116.675781 217.488281 115.179688 217.96875 C 112.402344 218.824219 110.585938 220.75 109.304688 223.257812 C 107.21875 227.320312 106.527344 231.648438 106.953125 236.136719 C 107.113281 237.792969 107.488281 239.449219 107.753906 241.210938 C 101.238281 239.179688 95.574219 240.355469 90.390625 244.363281 C 89.320312 245.164062 88.46875 246.125 87.933594 247.410156 C 87.183594 249.171875 87.828125 250.828125 89.535156 251.789062 C 90.390625 252.21875 91.246094 252.269531 92.152344 252.21875 C 94.398438 252.164062 96.480469 251.363281 98.511719 250.507812 C 101.238281 249.332031 103.855469 248.050781 106.6875 247.089844 C 110 246.019531 109.945312 245.964844 111.226562 249.066406 C 111.441406 249.597656 111.65625 250.132812 111.921875 250.667969 C 112.351562 251.523438 112.242188 252.164062 111.601562 252.910156 C 110.640625 254.035156 109.839844 255.261719 109.519531 256.757812 C 109.089844 258.734375 110 260.390625 111.921875 260.980469 C 113.203125 261.355469 114.488281 261.566406 115.824219 261.355469 C 116.890625 261.191406 117.480469 261.515625 118.011719 262.476562 C 120.363281 266.804688 123.25 270.808594 125.867188 274.976562 C 126.1875 275.511719 126.722656 275.941406 126.5625 276.632812 C 124.957031 277.222656 123.410156 277.703125 121.914062 278.289062 C 120.3125 278.929688 118.816406 279.734375 117.371094 280.695312 C 115.503906 281.921875 113.847656 283.367188 112.832031 285.449219 C 111.921875 287.320312 111.601562 289.242188 112.882812 291.058594 C 114.167969 292.875 116.144531 293.144531 118.171875 292.824219 C 121.273438 292.289062 124.265625 291.273438 126.722656 289.351562 C 128.433594 288.015625 130.140625 287.105469 132.4375 287.265625 C 133.453125 287.320312 134.09375 287.480469 134.628906 288.335938 C 136.179688 290.578125 137.675781 292.824219 139.332031 294.960938 C 140.347656 296.296875 140.933594 297.578125 140.613281 299.394531 C 140.027344 302.761719 141.894531 304.628906 145.261719 304.257812 C 146.332031 304.148438 146.917969 304.417969 147.558594 305.164062 C 149.535156 307.460938 151.566406 309.707031 153.597656 312.003906 C 153.917969 312.378906 154.613281 312.644531 154.34375 313.445312 C 152.796875 313.554688 151.246094 313.554688 149.75 313.714844 C 146.703125 314.035156 143.820312 314.996094 141.253906 316.707031 C 139.597656 317.773438 138.371094 319.164062 137.835938 321.03125 C 136.925781 324.132812 138.796875 327.335938 142.324219 328.40625 C 146.542969 329.6875 150.65625 329.152344 154.238281 326.484375 C 156.320312 324.933594 158.296875 323.171875 160.273438 321.460938 C 161.984375 319.964844 162.089844 320.019531 163.375 321.835938 C 163.90625 322.636719 163.960938 323.492188 163.960938 324.398438 C 163.90625 327.765625 163.90625 331.132812 163.855469 334.496094 C 163.855469 334.976562 163.800781 335.457031 163.800781 335.992188 C 163.800781 336.632812 163.640625 337.382812 164.65625 337.382812 C 165.511719 337.382812 165.457031 336.742188 165.511719 336.152344 C 165.5625 335.191406 165.617188 334.175781 165.671875 333.214844 C 165.726562 325.679688 165.832031 318.148438 165.777344 310.5625 C 165.777344 308.851562 166.257812 307.78125 167.648438 306.929688 C 169.25 305.964844 170.800781 304.898438 172.351562 303.777344 C 173.792969 302.707031 175.074219 301.371094 175.714844 299.609375 C 176.515625 296.5625 174.96875 293.890625 171.707031 293.515625 Z M 174.699219 76.222656 C 176.410156 76.011719 178.121094 76.222656 179.777344 76.867188 C 181.699219 77.667969 182.875 79.003906 182.714844 80.390625 C 182.5 82.207031 181.113281 82.957031 179.617188 83.492188 C 178.066406 84.023438 176.410156 84.238281 174.808594 84.292969 C 171.175781 84.503906 167.648438 85.148438 164.230469 86.324219 C 162.734375 86.855469 161.398438 87.605469 159.902344 88.191406 C 162.734375 81.621094 167.21875 77.078125 174.699219 76.222656 Z M 154.664062 87.871094 C 151.941406 85.574219 148.894531 83.8125 145.6875 82.316406 C 143.925781 81.460938 142.164062 80.605469 140.613281 79.375 C 139.972656 78.894531 139.332031 78.363281 138.957031 77.613281 C 138.636719 76.917969 138.796875 76.332031 139.492188 76.011719 C 140.507812 75.53125 141.523438 75.476562 142.589844 75.742188 C 147.238281 76.867188 150.605469 79.695312 153.277344 83.542969 C 154.289062 84.988281 155.253906 86.484375 155.679688 88.246094 C 155.144531 88.351562 154.878906 88.085938 154.664062 87.871094 Z M 160.863281 245.753906 C 156.109375 245.539062 151.246094 246.125 146.382812 245.753906 C 145.101562 245.644531 143.820312 245.324219 142.695312 244.578125 C 141.199219 243.5625 141.253906 242.441406 142.855469 241.636719 C 143.550781 241.265625 144.40625 241.050781 145.207031 240.945312 C 150.871094 240.195312 156 241.746094 160.703125 244.949219 C 160.808594 245.058594 161.023438 245.21875 160.863281 245.753906 Z M 98.40625 247.941406 C 96.375 248.851562 94.34375 249.707031 92.152344 250.027344 C 91.246094 250.132812 90.285156 250.1875 89.75 249.226562 C 89.320312 248.371094 89.855469 247.675781 90.390625 247.035156 C 93.96875 242.601562 102.464844 240.945312 107.433594 243.617188 C 107.488281 243.667969 107.542969 243.777344 107.703125 244.097656 C 104.335938 244.898438 101.398438 246.554688 98.40625 247.941406 Z M 109.410156 239.609375 C 107.914062 234 108.289062 228.707031 111.335938 223.738281 C 112.191406 222.402344 113.203125 221.28125 114.539062 220.425781 C 115.394531 219.894531 116.304688 219.519531 117.320312 219.464844 C 119.882812 219.304688 121.273438 221.230469 120.417969 223.632812 C 119.988281 224.703125 119.296875 225.664062 118.601562 226.519531 C 117.160156 228.335938 115.769531 230.097656 114.328125 231.914062 C 112.457031 234.371094 110.746094 236.828125 109.410156 239.609375 Z M 116.515625 258.363281 C 115.875 258.523438 115.234375 258.574219 114.859375 258.683594 C 112.617188 258.628906 111.921875 257.613281 112.722656 255.796875 C 112.9375 255.371094 113.152344 254.890625 113.472656 254.515625 C 116.835938 250.132812 121.273438 247.410156 126.722656 246.394531 C 126.777344 246.394531 126.882812 246.394531 126.988281 246.394531 C 128.539062 246.339844 130.355469 246.179688 131.101562 247.78125 C 131.851562 249.4375 130.355469 250.453125 129.285156 251.414062 C 125.546875 254.675781 121.378906 257.1875 116.515625 258.363281 Z M 126.507812 286.570312 C 123.835938 288.496094 120.84375 289.511719 117.640625 289.832031 C 115.128906 290.097656 114.328125 288.816406 115.449219 286.519531 C 115.609375 286.144531 115.824219 285.769531 116.089844 285.503906 C 119.5625 281.441406 124.210938 279.574219 128.804688 278.664062 C 129.765625 278.71875 130.140625 278.71875 130.570312 278.824219 C 131.476562 279.039062 131.851562 279.574219 131.316406 280.425781 C 129.980469 282.671875 128.699219 285.023438 126.507812 286.570312 Z M 132.652344 284.96875 C 132.4375 285.023438 132.171875 285.074219 131.90625 285.074219 C 131.746094 285.074219 131.582031 285.023438 131.421875 284.96875 C 134.414062 279.144531 134.363281 278.769531 130.515625 276.472656 C 134.414062 273.429688 138.636719 271.558594 143.660156 271.878906 C 144.140625 271.933594 144.621094 271.984375 145.101562 272.144531 C 147.664062 272.949219 148.308594 274.925781 146.757812 277.113281 C 146.4375 277.597656 146.0625 278.023438 145.582031 278.398438 C 141.734375 281.28125 137.460938 283.6875 132.652344 284.96875 Z M 145.527344 301.746094 C 143.339844 302.066406 142.003906 300.515625 142.910156 298.539062 C 145.046875 293.839844 148.519531 290.523438 153.277344 288.65625 C 154.023438 288.335938 154.824219 288.121094 155.679688 288.226562 C 156.480469 288.335938 157.070312 288.707031 157.015625 289.832031 C 156.855469 290.257812 156.640625 290.898438 156.375 291.488281 C 155.519531 293.089844 154.453125 294.53125 153.167969 295.816406 C 151.460938 297.472656 149.695312 299.019531 147.988281 300.675781 C 147.238281 301.265625 146.4375 301.636719 145.527344 301.746094 Z M 158.457031 115.761719 C 157.710938 115.816406 156.960938 115.761719 156.269531 115.761719 C 152.957031 115.816406 149.75 115.386719 146.652344 114.210938 C 145.636719 113.785156 144.246094 113.410156 144.300781 112.074219 C 144.351562 110.738281 145.6875 110.3125 146.757812 109.992188 C 152.421875 108.015625 158.246094 107.480469 164.175781 108.601562 C 164.550781 108.65625 164.976562 108.867188 165.351562 108.976562 C 166.632812 109.296875 167.273438 110.152344 167.382812 111.433594 C 167.488281 112.664062 166.792969 113.464844 165.832031 114 C 163.480469 115.171875 160.96875 115.496094 158.457031 115.761719 Z M 146.332031 148.832031 C 145.527344 148.671875 144.726562 148.511719 143.980469 148.246094 C 142.324219 147.605469 140.398438 146.910156 140.238281 144.828125 C 140.027344 142.742188 141.628906 141.621094 143.125 140.605469 C 145.207031 139.214844 147.503906 138.414062 149.964844 138.039062 C 151.03125 137.878906 152.101562 137.878906 153.167969 137.773438 C 156.960938 137.773438 160.488281 138.734375 163.695312 140.765625 C 164.441406 141.246094 165.191406 141.78125 165.671875 142.582031 C 166.3125 143.652344 166.097656 144.773438 165.082031 145.308594 C 159.152344 148.246094 153.007812 150.007812 146.332031 148.832031 Z M 158.191406 157.273438 C 156.800781 156.792969 155.464844 156.152344 154.289062 155.246094 C 153.542969 154.65625 153.0625 153.910156 153.328125 152.894531 C 153.597656 151.878906 154.398438 151.824219 155.253906 151.71875 C 158.777344 151.183594 162.039062 149.957031 164.976562 147.925781 C 165.617188 147.496094 166.207031 147.230469 167.007812 147.230469 C 170.960938 147.285156 174.808594 147.816406 178.492188 149.421875 C 179.9375 150.007812 181.273438 150.863281 182.339844 151.984375 C 184.851562 154.496094 184.425781 157.0625 181.164062 158.609375 C 178.601562 159.839844 175.824219 160.105469 172.882812 160.105469 C 167.96875 159.785156 163 158.984375 158.191406 157.273438 Z M 148.148438 189.707031 C 146.652344 189.226562 145.316406 188.371094 144.351562 187.089844 C 143.179688 185.59375 143.390625 184.417969 144.886719 183.292969 C 146.117188 182.386719 147.558594 182.011719 149 181.796875 C 150.070312 181.636719 151.140625 181.636719 152.207031 181.585938 C 154.34375 181.636719 156.480469 181.90625 158.457031 182.652344 C 159.207031 182.921875 160.007812 183.242188 160.648438 183.722656 C 163.054688 185.273438 163.054688 187.195312 160.488281 188.476562 C 156.589844 190.507812 152.421875 191.148438 148.148438 189.707031 Z M 159.046875 207.125 C 160.59375 206.109375 162.410156 205.839844 164.175781 205.628906 C 167.058594 205.199219 169.890625 205.679688 172.5625 206.855469 C 173.152344 207.125 173.738281 207.445312 174.273438 207.816406 C 175.664062 208.941406 175.554688 209.957031 173.898438 210.808594 C 171.226562 212.199219 168.289062 212.519531 165.242188 212.625 C 163.320312 212.519531 161.238281 212.464844 159.367188 211.558594 C 157.015625 210.488281 156.855469 208.566406 159.046875 207.125 Z M 156.429688 222.617188 C 154.71875 222.566406 151.832031 222.296875 149.054688 221.65625 C 147.023438 221.175781 145.207031 220.265625 143.820312 218.664062 C 142.375 217.007812 142.484375 215.511719 144.246094 214.28125 C 147.398438 212.09375 151.03125 211.558594 154.824219 211.71875 C 155.253906 211.71875 155.625 211.933594 155.894531 212.199219 C 158.136719 214.390625 160.96875 214.710938 163.855469 214.765625 C 164.441406 214.765625 165.03125 214.710938 165.5625 214.765625 C 167.328125 214.816406 168.609375 215.992188 168.984375 217.703125 C 169.304688 219.359375 168.769531 220.320312 167.007812 221.175781 C 165.082031 222.03125 161.289062 222.617188 156.429688 222.617188 Z M 157.121094 266.910156 C 156.269531 266.75 155.359375 266.535156 154.558594 266.160156 C 152.527344 265.308594 152.367188 263.863281 154.128906 262.476562 C 154.71875 262.046875 155.359375 261.621094 156.054688 261.351562 C 161.449219 259.214844 167.058594 258.949219 172.722656 260.179688 C 173.738281 260.390625 174.753906 260.925781 175.503906 261.675781 C 176.945312 263.117188 176.675781 264.71875 174.859375 265.519531 C 172.191406 266.75 169.359375 267.070312 166.527344 267.285156 C 165.5625 267.390625 164.550781 267.285156 163.585938 267.285156 C 161.34375 267.550781 159.261719 267.335938 157.121094 266.910156 Z M 152.796875 323.703125 C 150.390625 326.054688 147.558594 327.285156 144.140625 327.015625 C 143.660156 326.964844 143.125 326.964844 142.695312 326.804688 C 140.878906 326.269531 139.332031 325.359375 138.902344 323.382812 C 138.421875 321.300781 139.4375 319.644531 141.09375 318.523438 C 145.6875 315.476562 150.871094 314.890625 156.160156 315.902344 C 157.28125 316.117188 158.296875 316.757812 159.097656 317.933594 C 156.640625 319.644531 154.773438 321.726562 152.796875 323.703125 Z M 163.585938 318.628906 C 159.6875 315.851562 159.632812 313.765625 163.640625 310.722656 C 163.90625 313.554688 163.855469 316.0625 163.585938 318.628906 Z M 173.042969 298.753906 C 172.617188 299.769531 171.921875 300.570312 171.066406 301.210938 C 170.210938 301.851562 169.359375 302.546875 168.449219 303.027344 C 164.871094 305.003906 161.503906 307.355469 158.671875 310.402344 C 158.457031 310.667969 158.191406 310.828125 157.710938 310.773438 C 158.511719 304.097656 161.984375 299.449219 168.074219 296.722656 C 169.199219 296.242188 170.371094 295.867188 171.65625 296.1875 C 173.152344 296.507812 173.578125 297.417969 173.042969 298.753906 Z M 173.042969 298.753906 " fill-opacity="1" fill-rule="nonzero"/></g><g clip-path="url(#71cdc25034)"><path fill="#ffffff" d="M 193.027344 305.804688 C 191.210938 305.21875 189.339844 305.003906 187.46875 305.003906 C 186.402344 305.003906 186.027344 304.628906 186.027344 303.5625 C 186.132812 301.53125 186.242188 299.449219 186.1875 297.417969 C 186.132812 296.082031 186.828125 295.707031 187.949219 295.65625 C 189.339844 295.546875 190.730469 295.386719 192.066406 294.851562 C 193.292969 294.371094 194.363281 293.625 194.253906 292.234375 C 194.203125 291.167969 194.628906 291.058594 195.484375 290.953125 C 197.460938 290.6875 199.382812 290.417969 201.148438 289.457031 C 204.246094 287.800781 204.996094 284.648438 202.964844 281.761719 C 201.789062 280.105469 200.132812 279.039062 198.371094 278.183594 C 195.75 276.953125 192.917969 276.367188 190.035156 276.207031 C 188.003906 276.046875 187.949219 276.046875 187.949219 274.070312 C 188.003906 269.046875 188.003906 264.078125 188.109375 259.054688 C 188.164062 256.597656 188.484375 254.140625 188.699219 251.683594 C 188.753906 250.667969 189.074219 250.242188 190.25 250.5625 C 191.851562 250.988281 193.453125 251.09375 195.109375 251.414062 C 198.15625 252.003906 201.148438 251.683594 204.085938 250.882812 C 205.207031 250.5625 206.277344 250.082031 207.132812 249.277344 C 208.574219 247.941406 208.734375 246.285156 207.558594 244.683594 C 206.757812 243.617188 205.636719 242.921875 204.40625 242.332031 C 201.199219 240.730469 197.726562 240.140625 194.203125 239.929688 C 193.027344 239.875 191.957031 239.929688 191.851562 238.273438 C 191.796875 237.632812 191.15625 237.152344 190.621094 236.777344 C 189.605469 236.027344 189.445312 235.121094 189.605469 234 C 189.980469 230.847656 190.195312 227.640625 190.515625 224.433594 C 190.730469 222.617188 190.78125 222.617188 192.652344 222.886719 C 196.285156 223.367188 199.972656 223.847656 203.605469 224.273438 C 205.15625 224.488281 206.757812 224.328125 208.199219 223.792969 C 211.566406 222.566406 212.261719 219.359375 209.804688 216.792969 C 208.949219 215.886719 207.878906 215.246094 206.757812 214.765625 C 202.589844 212.894531 198.371094 212.789062 194.09375 214.390625 C 193.453125 214.65625 192.867188 215.191406 191.90625 215.03125 C 192.332031 210.703125 193.347656 206.484375 194.148438 202.207031 C 194.308594 201.246094 195.109375 201.460938 195.75 201.566406 C 198.046875 202.046875 200.292969 202.046875 202.589844 201.941406 C 204.460938 201.835938 206.332031 201.515625 208.039062 200.550781 C 211.140625 198.734375 211.78125 194.835938 209.375 192.164062 C 208.199219 190.828125 206.703125 189.972656 205.101562 189.386719 C 203.019531 188.585938 200.933594 187.835938 198.742188 187.621094 C 197.675781 187.515625 197.355469 187.035156 197.515625 185.964844 C 197.886719 183.777344 198.15625 181.585938 198.476562 179.394531 C 198.53125 178.914062 198.691406 178.484375 199.222656 178.273438 C 200.507812 177.792969 200.71875 176.777344 200.238281 175.65625 C 199.222656 173.410156 200.078125 171.378906 200.828125 169.296875 C 201.199219 168.226562 201.683594 168.015625 202.804688 168.335938 C 207.292969 169.671875 211.78125 170.847656 216.160156 172.554688 C 218.085938 173.304688 220.113281 173.675781 222.199219 173.515625 C 224.015625 173.355469 225.617188 172.714844 226.367188 170.953125 C 227.113281 169.242188 226.367188 167.746094 225.296875 166.410156 C 223.480469 164.113281 221.078125 162.832031 218.296875 162.136719 C 213.917969 161.070312 209.695312 161.816406 205.527344 163.367188 C 204.78125 163.632812 204.140625 164.222656 203.070312 164.0625 C 204.140625 160.800781 206.0625 158.078125 207.453125 155.085938 C 209 151.71875 210.976562 148.566406 212.152344 145.09375 C 213.117188 142.316406 214.453125 141.085938 217.601562 141.460938 C 220.863281 141.835938 221.71875 140.765625 222.144531 137.398438 C 222.144531 137.292969 222.304688 137.132812 222.464844 136.972656 C 224.175781 137.71875 225.9375 138.414062 227.753906 138.789062 C 228.929688 139.054688 230.160156 139.375 231.386719 139.375 C 234.59375 139.484375 236.035156 137.292969 234.808594 134.300781 C 234.167969 132.75 232.992188 131.574219 231.65625 130.5625 C 229.144531 128.636719 226.367188 127.300781 223.375 126.285156 C 222.679688 126.074219 221.878906 126.019531 221.289062 125.324219 C 222.464844 122.921875 223.695312 120.515625 224.550781 118.003906 C 224.816406 117.257812 225.242188 116.992188 226.046875 117.097656 C 227.273438 117.257812 228.503906 117.3125 229.730469 116.992188 C 231.65625 116.457031 232.402344 115.171875 231.867188 113.25 C 231.496094 111.96875 230.800781 110.738281 229.730469 110.042969 C 227.863281 108.871094 227.59375 107.425781 228.34375 105.503906 C 228.503906 105.128906 228.554688 104.703125 228.609375 104.328125 C 228.664062 103.046875 229.410156 102.296875 230.480469 101.65625 C 233.953125 99.519531 237.585938 97.542969 241.378906 96.046875 C 242.929688 95.457031 244.425781 94.816406 245.707031 93.75 C 247.949219 91.933594 248.003906 89.3125 245.867188 87.445312 C 244.957031 86.644531 243.945312 86.269531 242.714844 86.164062 C 240.148438 85.894531 237.851562 86.695312 235.769531 88.140625 C 232.617188 90.328125 230.371094 93.320312 228.609375 96.742188 C 228.289062 97.382812 228.234375 98.183594 227.433594 98.664062 C 226.847656 97.382812 226.417969 96.101562 225.722656 94.925781 C 223.800781 91.453125 221.078125 88.992188 216.960938 88.511719 C 215.359375 88.351562 213.808594 88.671875 212.847656 90.117188 C 211.886719 91.558594 212.152344 93.109375 212.847656 94.550781 C 213.488281 95.832031 214.503906 96.792969 215.734375 97.488281 C 217.335938 98.34375 218.9375 99.144531 220.542969 100 C 221.984375 100.746094 223.480469 101.496094 224.761719 102.457031 C 227.007812 104.167969 227.113281 104.648438 225.617188 107.320312 C 223.425781 106.464844 221.128906 105.878906 218.726562 105.71875 C 216.75 105.609375 214.773438 105.71875 212.957031 106.679688 C 210.605469 107.855469 210.285156 110.042969 212.046875 111.914062 C 212.847656 112.769531 213.863281 113.355469 214.878906 113.890625 C 216.910156 114.960938 219.097656 115.707031 221.289062 116.296875 C 223.054688 116.777344 223.105469 116.777344 222.410156 118.59375 C 221.878906 119.980469 221.128906 121.265625 220.648438 122.652344 C 219.953125 124.578125 218.886719 125.484375 216.695312 125.324219 C 214.664062 125.164062 212.527344 125.59375 211.621094 127.941406 C 211.40625 128.53125 210.976562 128.53125 210.445312 128.371094 C 209.269531 127.996094 208.09375 127.621094 206.917969 127.410156 C 204.300781 126.875 201.683594 126.660156 199.171875 127.675781 C 195.589844 129.117188 194.789062 132.804688 197.40625 135.636719 C 198.371094 136.707031 199.542969 137.398438 200.828125 138.039062 C 202.695312 138.949219 204.675781 139.429688 206.652344 140.019531 C 208.359375 140.5 210.175781 140.550781 211.941406 141.355469 C 210.175781 145.359375 208.628906 149.261719 206.332031 153.320312 C 205.957031 152.144531 205.742188 151.503906 205.476562 150.808594 C 204.140625 147.175781 201.894531 144.183594 198.582031 142.101562 C 197.085938 141.140625 195.484375 140.605469 193.722656 140.605469 C 190.675781 140.660156 189.339844 142.957031 190.621094 145.679688 C 191.15625 146.804688 192.011719 147.710938 192.917969 148.511719 C 194.253906 149.636719 195.644531 150.648438 196.980469 151.71875 C 198.851562 153.160156 200.71875 154.65625 202.375 156.367188 C 203.390625 157.382812 203.710938 158.398438 202.964844 159.894531 C 201.359375 163.046875 200.027344 166.304688 198.796875 169.617188 C 198.636719 170.097656 198.691406 170.792969 197.835938 171.007812 C 195.964844 169.351562 193.828125 168.015625 191.316406 167.320312 C 189.074219 166.679688 186.773438 166.410156 184.53125 167.265625 C 182.929688 167.855469 181.59375 168.867188 181.378906 170.6875 C 181.164062 172.449219 182.179688 173.625 183.515625 174.53125 C 185.707031 176.082031 188.164062 176.9375 190.78125 177.363281 C 192.226562 177.632812 193.722656 177.792969 195.164062 178.003906 C 196.230469 178.164062 196.765625 178.59375 196.605469 179.769531 C 196.285156 181.691406 196.070312 183.667969 195.75 185.59375 C 195.429688 187.515625 195.378906 187.515625 193.453125 187.570312 C 191.050781 187.621094 188.699219 187.78125 186.507812 188.851562 C 182.394531 190.773438 181.96875 194.835938 185.492188 197.667969 C 187.042969 198.894531 188.859375 199.75 190.730469 200.339844 C 192.8125 200.980469 192.597656 201.355469 192.277344 202.902344 C 191.476562 206.75 190.835938 210.648438 190.195312 214.496094 C 189.925781 215.992188 189.660156 217.382812 188.433594 218.398438 C 187.84375 218.929688 187.417969 219.679688 187.148438 220.480469 C 186.882812 221.175781 186.828125 221.871094 187.683594 222.03125 C 188.964844 222.296875 188.859375 223.097656 188.804688 224.0625 C 188.484375 227 188.269531 229.9375 187.949219 232.875 C 187.898438 233.464844 188.058594 234.210938 187.363281 234.640625 C 182.019531 233.410156 180.363281 233.304688 177.160156 234 C 174.273438 234.640625 171.816406 236.082031 170.105469 238.59375 C 168.503906 240.996094 169.199219 243.1875 171.867188 244.363281 C 173.632812 245.109375 175.503906 245.324219 177.371094 245.644531 C 181.859375 246.339844 181.804688 246.394531 185.492188 248.585938 C 186.828125 249.386719 187.257812 250.242188 187.042969 251.738281 C 186.347656 256.867188 186.132812 262.046875 186.242188 267.175781 C 186.292969 269.582031 186.242188 271.933594 186.242188 274.335938 C 186.1875 276.046875 186.1875 276.046875 184.476562 276.261719 C 182.019531 276.472656 179.617188 277.007812 177.480469 278.289062 C 173.738281 280.535156 173.152344 283.257812 175.664062 286.785156 C 172.5625 288.867188 172.5625 291.488281 175.609375 293.730469 C 176.464844 294.371094 177.480469 294.746094 178.492188 295.066406 C 179.988281 295.496094 181.539062 295.65625 183.089844 295.761719 C 184.425781 295.816406 184.746094 296.402344 184.636719 297.632812 C 184.476562 299.609375 184.371094 301.585938 184.425781 303.507812 C 184.476562 304.84375 183.945312 305.378906 182.660156 305.539062 C 180.308594 305.914062 178.066406 306.714844 176.144531 308.210938 C 174.699219 309.386719 174.488281 311.042969 175.609375 312.539062 C 176.25 313.339844 177.105469 313.820312 178.011719 314.195312 C 179.457031 314.78125 180.953125 315.210938 182.5 315.371094 C 183.785156 315.53125 184.105469 316.117188 184.050781 317.292969 C 183.835938 322.957031 183.730469 328.621094 183.570312 334.28125 C 183.570312 334.925781 183.515625 335.617188 183.515625 336.261719 C 183.515625 336.953125 183.730469 337.382812 184.53125 337.328125 C 185.226562 337.273438 185.28125 336.792969 185.28125 336.3125 C 185.28125 335.726562 185.28125 335.191406 185.332031 334.605469 C 185.492188 328.941406 185.652344 323.277344 185.8125 317.613281 C 185.867188 315.742188 185.921875 315.742188 187.789062 315.691406 C 188.59375 315.636719 189.445312 315.691406 190.25 315.582031 C 192.386719 315.371094 194.46875 314.996094 196.390625 313.925781 C 199.0625 312.378906 199.277344 309.972656 197.085938 307.890625 C 195.804688 306.875 194.46875 306.234375 193.027344 305.804688 Z M 218.671875 164.59375 C 220.433594 165.234375 222.089844 166.199219 223.375 167.640625 C 223.960938 168.28125 224.710938 169.03125 224.28125 169.992188 C 223.855469 171.113281 222.785156 171.113281 221.769531 171.167969 C 220.703125 171.21875 219.632812 171.058594 218.617188 170.738281 C 217.976562 170.578125 217.335938 170.363281 216.75 170.097656 C 212.847656 168.496094 208.839844 167.050781 204.675781 165.878906 C 209.214844 163.578125 213.808594 162.832031 218.671875 164.59375 Z M 238.441406 89.207031 C 239.988281 88.40625 241.644531 87.980469 243.410156 88.621094 C 244.371094 88.992188 245.171875 89.476562 245.332031 90.597656 C 245.441406 91.664062 244.691406 92.199219 243.890625 92.679688 C 243.195312 93.109375 242.449219 93.480469 241.699219 93.75 C 237.851562 95.191406 234.273438 97.167969 231.015625 99.625 C 230.640625 99.894531 230.210938 100.105469 229.785156 100.375 C 229.679688 100.214844 229.519531 100.054688 229.410156 99.945312 C 231.386719 95.566406 233.953125 91.613281 238.441406 89.207031 Z M 216.75 95.941406 C 215.359375 95.40625 214.398438 94.496094 214.023438 93.054688 C 213.597656 91.503906 214.238281 90.542969 215.839844 90.328125 C 217.121094 90.167969 218.246094 90.488281 219.367188 91.023438 C 221.289062 92.039062 222.785156 93.535156 223.855469 95.40625 C 224.816406 97.007812 225.5625 98.71875 226.046875 101.070312 C 223 98.664062 220.007812 97.113281 216.75 95.941406 Z M 215.359375 111.273438 C 214.933594 111.058594 214.558594 110.738281 214.183594 110.417969 C 213.542969 109.832031 213.597656 109.296875 214.398438 108.921875 C 215.625 108.28125 216.960938 108.386719 218.085938 108.335938 C 221.34375 108.441406 224.28125 109.082031 227.007812 110.578125 C 228.183594 111.21875 229.144531 112.128906 229.464844 113.464844 C 229.679688 114.210938 229.519531 114.746094 228.664062 114.90625 C 227.914062 115.011719 227.21875 115.226562 226.472656 115.121094 C 222.519531 114.53125 218.832031 113.25 215.359375 111.273438 Z M 215.039062 128.050781 C 215.839844 127.835938 216.640625 127.675781 217.441406 127.730469 C 222.410156 128.261719 226.953125 129.8125 230.960938 132.859375 C 231.921875 133.605469 232.832031 134.460938 233.203125 135.691406 C 233.523438 136.707031 233.152344 137.238281 232.136719 137.398438 C 231.761719 137.453125 231.335938 137.453125 230.90625 137.398438 C 225.03125 136.492188 219.847656 134.140625 215.414062 130.1875 C 215.09375 129.917969 214.824219 129.597656 214.558594 129.277344 C 214.128906 128.691406 214.34375 128.316406 215.039062 128.050781 Z M 203.390625 136.382812 C 201.84375 135.851562 200.347656 135.15625 199.171875 133.925781 C 197.675781 132.378906 197.996094 130.722656 199.972656 129.8125 C 200.507812 129.597656 201.039062 129.4375 201.628906 129.332031 C 205.742188 128.796875 209.644531 129.546875 213.167969 131.574219 C 214.878906 132.539062 216.429688 133.714844 218.191406 134.621094 C 219.582031 135.316406 219.902344 136.171875 219.742188 137.828125 C 219.632812 138.628906 219.261719 139.003906 218.511719 139.054688 C 217.925781 139.109375 217.390625 139.164062 217.175781 139.164062 C 212.207031 138.84375 207.71875 137.878906 203.390625 136.382812 Z M 194.414062 147.125 C 193.613281 146.429688 192.8125 145.679688 192.4375 144.667969 C 192.066406 143.757812 192.386719 143.222656 193.402344 143.222656 C 194.734375 143.222656 195.964844 143.8125 197.035156 144.558594 C 200.1875 146.855469 202.214844 149.902344 203.179688 153.75 C 200.347656 151.453125 197.246094 149.476562 194.414062 147.125 Z M 188.324219 173.839844 C 187.628906 173.625 186.9375 173.304688 186.292969 172.929688 C 185.492188 172.449219 184.210938 172.128906 184.316406 171.007812 C 184.476562 169.722656 185.867188 169.722656 186.882812 169.5625 C 190.570312 169.03125 195.964844 171.699219 197.78125 174.960938 C 197.886719 175.171875 197.886719 175.386719 197.941406 175.816406 C 194.628906 175.171875 191.421875 174.800781 188.324219 173.839844 Z M 188.699219 196.222656 C 188.109375 195.957031 187.578125 195.582031 187.042969 195.15625 C 185.332031 193.765625 185.441406 192.429688 187.417969 191.308594 C 189.394531 190.1875 191.636719 190.027344 193.828125 189.972656 C 194.253906 189.972656 194.628906 189.972656 195.058594 189.972656 C 198.210938 190.027344 201.253906 190.507812 204.191406 191.46875 C 205.796875 192.003906 206.863281 192.964844 207.453125 194.515625 C 208.09375 196.117188 207.71875 197.132812 206.222656 197.988281 C 205.261719 198.523438 204.246094 198.734375 203.179688 198.84375 C 198.101562 199.429688 193.292969 198.574219 188.699219 196.222656 Z M 207.613281 217.808594 C 207.988281 218.078125 208.359375 218.449219 208.679688 218.824219 C 209.484375 219.894531 209.320312 220.746094 208.199219 221.496094 C 207.453125 222.03125 206.542969 222.191406 205.636719 222.191406 C 204.140625 222.191406 202.695312 222.082031 201.253906 221.761719 C 199.332031 221.335938 197.40625 220.960938 195.484375 220.640625 C 193.613281 220.375 191.746094 220.214844 189.660156 220 C 194.042969 214.605469 202.910156 214.390625 207.613281 217.808594 Z M 182.234375 243.347656 C 181.96875 243.777344 181.539062 243.777344 181.164062 243.722656 C 178.546875 243.1875 175.824219 242.972656 173.257812 242.121094 C 171.496094 241.53125 171.28125 240.785156 172.5625 239.234375 C 174.273438 237.152344 176.625 236.296875 179.1875 235.921875 C 179.828125 235.816406 180.472656 235.816406 181.164062 235.816406 C 183.25 235.761719 185.226562 236.136719 187.148438 236.9375 C 187.898438 237.257812 188.59375 237.632812 189.285156 238.113281 C 189.714844 238.433594 190.300781 238.808594 190.089844 239.5 C 189.925781 240.035156 189.285156 239.929688 188.804688 240.035156 C 186.242188 240.464844 183.730469 240.945312 182.234375 243.347656 Z M 185.226562 246.125 C 184.050781 245.058594 184.105469 244.257812 185.492188 243.453125 C 187.097656 242.492188 188.859375 242.28125 190.675781 242.226562 C 191.316406 242.171875 192.011719 242.226562 192.652344 242.226562 C 196.445312 242.226562 200.132812 242.921875 203.550781 244.683594 C 204.460938 245.164062 205.742188 245.59375 205.6875 246.769531 C 205.636719 247.996094 204.246094 248.210938 203.230469 248.425781 C 198.046875 249.707031 192.917969 250.242188 187.898438 247.78125 C 186.988281 247.300781 186.027344 246.820312 185.226562 246.125 Z M 177.265625 281.976562 C 178.011719 280.910156 179.027344 280.265625 180.203125 279.839844 C 186.242188 277.703125 192.277344 277.863281 198.101562 280.585938 C 199.277344 281.121094 200.347656 281.921875 201.199219 282.992188 C 202.589844 284.863281 202.269531 286.410156 200.132812 287.320312 C 197.675781 288.386719 195.109375 288.816406 192.8125 288.601562 C 187.738281 288.707031 183.460938 287.210938 179.242188 285.394531 C 178.652344 285.128906 178.121094 284.753906 177.585938 284.382812 C 176.675781 283.632812 176.625 282.832031 177.265625 281.976562 Z M 178.867188 293.035156 C 177.746094 292.769531 176.675781 292.34375 175.875 291.488281 C 174.488281 289.992188 174.914062 288.601562 176.890625 288.066406 C 177.480469 287.90625 178.011719 288.015625 178.546875 288.226562 C 182.339844 289.617188 186.242188 290.417969 190.25 290.523438 C 190.570312 290.523438 190.890625 290.523438 191.210938 290.6875 C 191.691406 290.898438 191.957031 291.328125 192.011719 291.808594 C 192.117188 292.394531 191.691406 292.714844 191.210938 292.875 C 189.980469 293.304688 188.699219 293.515625 187.363281 293.515625 C 186.453125 293.515625 185.546875 293.515625 184.691406 293.515625 C 182.714844 293.570312 180.792969 293.464844 178.867188 293.035156 Z M 194.148438 312.429688 C 192.972656 312.859375 191.796875 313.179688 190.570312 313.230469 C 189.5 313.285156 188.433594 313.339844 187.417969 313.394531 C 184.957031 313.394531 182.5 313.125 180.203125 312.21875 C 179.507812 311.949219 178.816406 311.683594 178.226562 311.253906 C 177.210938 310.5625 177.210938 309.917969 178.171875 309.117188 C 178.652344 308.691406 179.242188 308.371094 179.882812 308.210938 C 183.890625 307.035156 187.898438 306.820312 191.957031 307.890625 C 192.8125 308.101562 193.667969 308.53125 194.414062 308.957031 C 195.164062 309.386719 196.125 309.867188 195.964844 310.933594 C 195.859375 311.84375 194.898438 312.109375 194.148438 312.429688 Z M 194.148438 312.429688 " fill-opacity="1" fill-rule="nonzero"/></g><g clip-path="url(#03dbd9f559)"><path fill="#ffffff" d="M 286.6875 193.875 C 284.816406 191.738281 282.464844 190.828125 279.632812 191.363281 C 277.765625 191.683594 276.160156 192.75 274.503906 193.660156 C 273.917969 193.019531 273.96875 192.21875 273.757812 191.523438 C 272.957031 188.90625 271.566406 186.769531 269.269531 185.273438 C 267.824219 184.308594 266.0625 184.363281 265.15625 185.273438 C 264.03125 186.445312 264.140625 187.78125 264.675781 189.171875 C 265.367188 190.933594 266.652344 192.109375 268.199219 193.179688 C 269.214844 193.875 270.390625 194.300781 271.191406 195.421875 C 268.839844 196.972656 266.492188 198.46875 264.191406 200.019531 C 261.84375 201.621094 259.542969 203.222656 257.085938 204.933594 C 256.875 203.597656 256.714844 202.636719 256.5 201.675781 C 255.589844 197.667969 253.453125 194.460938 249.980469 192.21875 C 248.699219 191.414062 247.363281 190.828125 245.867188 190.722656 C 243.140625 190.507812 241.324219 192.429688 241.59375 195.101562 C 241.753906 196.4375 242.339844 197.613281 243.089844 198.683594 C 244.425781 200.660156 246.082031 202.367188 247.789062 204.023438 C 249.234375 205.46875 250.621094 206.910156 252.171875 208.511719 C 249.875 210.328125 247.628906 212.09375 245.441406 213.960938 C 244.15625 215.085938 242.820312 215.671875 241.164062 216.046875 C 239.777344 216.3125 239.082031 215.9375 238.28125 214.976562 C 235.984375 212.304688 233.042969 210.488281 229.679688 209.582031 C 228.023438 209.101562 226.3125 208.78125 224.601562 209.152344 C 222.519531 209.582031 220.917969 210.648438 220.328125 212.789062 C 219.742188 214.871094 220.542969 216.632812 222.089844 218.078125 C 224.015625 219.839844 226.3125 220.535156 228.824219 220.695312 C 230.855469 220.855469 232.9375 220.960938 234.96875 221.121094 C 235.503906 221.175781 236.144531 221.121094 236.410156 222.082031 C 232.617188 225.769531 228.714844 229.511719 225.457031 233.945312 C 224.015625 232.128906 222.519531 230.898438 220.753906 229.992188 C 216.800781 228.015625 212.632812 227.585938 208.308594 228.226562 C 207.183594 228.386719 206.0625 228.761719 205.101562 229.351562 C 202.109375 231.167969 201.734375 234.320312 204.246094 236.777344 C 205.207031 237.683594 206.332031 238.324219 207.558594 238.859375 C 210.285156 240.089844 213.167969 240.570312 216.160156 240.515625 C 217.335938 240.464844 218.40625 240.355469 219.097656 241.691406 C 219.792969 242.972656 218.886719 243.722656 218.351562 244.578125 C 216.109375 248.425781 214.183594 252.378906 212.472656 256.492188 C 211.886719 257.933594 211.671875 259.75 210.65625 260.710938 C 209.484375 261.78125 207.558594 260.980469 205.902344 261.085938 C 203.660156 261.246094 201.523438 261.675781 199.542969 262.796875 C 197.835938 263.757812 196.339844 264.933594 196.390625 267.125 C 196.390625 269.3125 197.941406 270.488281 199.652344 271.34375 C 200.613281 271.824219 201.628906 272.144531 202.644531 272.464844 C 203.765625 272.789062 204.886719 273.054688 206.007812 273.214844 C 207.183594 273.375 207.503906 273.855469 207.238281 274.976562 C 206.117188 280.425781 205.261719 285.929688 204.835938 291.488281 C 204.78125 292.554688 204.40625 293.089844 203.230469 293.195312 C 201.363281 293.410156 199.492188 293.839844 197.886719 294.851562 C 194.523438 296.9375 194.574219 300.515625 198.046875 302.441406 C 199.492188 303.242188 201.09375 303.667969 202.75 303.882812 C 203.820312 303.988281 204.140625 304.46875 204.140625 305.484375 C 204.191406 308.261719 204.246094 311.042969 204.40625 313.820312 C 204.460938 314.941406 204.085938 315.636719 203.070312 316.171875 C 202.054688 316.707031 201.148438 317.453125 200.453125 318.363281 C 198.691406 320.5 198.902344 322.847656 201.039062 324.667969 C 201.574219 325.148438 202.269531 325.628906 202.910156 325.789062 C 204.726562 326.214844 205.101562 327.335938 205.046875 328.992188 C 204.996094 331.453125 205.207031 333.910156 205.261719 336.367188 C 205.261719 336.847656 205.316406 337.382812 206.007812 337.433594 C 206.8125 337.488281 206.972656 336.953125 206.972656 336.367188 C 206.972656 335.886719 206.972656 335.40625 206.972656 334.871094 C 206.917969 332.894531 206.863281 330.917969 206.863281 328.992188 C 206.863281 326.964844 206.863281 326.910156 208.894531 327.125 C 212.261719 327.550781 215.574219 327.816406 218.9375 327.550781 C 221.984375 327.335938 224.976562 326.855469 227.648438 325.199219 C 230.855469 323.171875 231.28125 319.964844 228.824219 317.078125 C 227.96875 316.0625 226.898438 315.316406 225.671875 314.78125 C 224.121094 314.035156 222.464844 313.605469 220.753906 313.339844 C 216.480469 312.644531 212.261719 313.070312 208.09375 314.140625 C 206.382812 314.566406 206.277344 314.515625 206.167969 312.75 C 206.0625 310.722656 206.007812 308.636719 206.007812 306.605469 C 206.007812 304.46875 206.007812 304.417969 208.148438 304.46875 C 210.710938 304.46875 213.222656 304.363281 215.679688 303.453125 C 218.03125 302.601562 219.472656 300.890625 219.367188 299.074219 C 219.261719 296.777344 217.65625 295.65625 215.839844 294.746094 C 215.464844 294.585938 215.09375 294.480469 214.664062 294.320312 C 212.527344 293.625 210.390625 293.195312 208.148438 293.144531 C 206.492188 293.089844 206.4375 293.035156 206.597656 291.433594 C 207.132812 286.039062 207.933594 280.695312 208.894531 275.351562 C 209.160156 274.015625 209.644531 273.429688 211.085938 273.375 C 213.277344 273.320312 215.464844 272.839844 217.441406 271.664062 C 219.257812 270.542969 220.753906 268.941406 220.59375 266.75 C 220.382812 264.292969 218.726562 262.636719 216.375 261.726562 C 216 261.566406 215.574219 261.566406 215.199219 261.40625 C 214.453125 261.140625 213.597656 261.300781 212.847656 260.820312 C 214.128906 256.011719 218.511719 247.089844 220.488281 245.378906 C 220.703125 246.445312 220.863281 247.460938 221.183594 248.476562 C 221.664062 250.292969 222.734375 251.738281 224.175781 252.859375 C 226.152344 254.355469 228.183594 254.515625 229.890625 253.445312 C 231.546875 252.378906 232.242188 250.292969 231.707031 247.996094 C 231.015625 245.003906 229.25 242.652344 226.847656 240.835938 C 226.367188 240.515625 225.886719 240.195312 225.402344 239.875 C 225.03125 239.609375 224.761719 239.339844 225.082031 238.859375 C 226.257812 237.097656 226.632812 235.011719 228.128906 233.355469 C 231.226562 229.832031 234.488281 226.464844 237.851562 223.257812 C 239.136719 222.082031 239.1875 222.03125 240.308594 223.3125 C 242.929688 226.25 246.242188 227.90625 249.980469 228.867188 C 251.261719 229.191406 252.546875 229.402344 253.882812 229.242188 C 258.210938 228.707031 259.8125 225.074219 257.300781 221.550781 C 255.804688 219.464844 253.722656 218.238281 251.421875 217.273438 C 249.925781 216.632812 248.324219 216.367188 246.082031 215.832031 C 248.484375 213.910156 250.460938 212.359375 252.4375 210.808594 C 252.707031 210.597656 253.027344 210.382812 253.347656 210.542969 C 254.683594 211.292969 255.164062 210.277344 255.589844 209.421875 C 256.230469 208.03125 257.355469 207.070312 258.582031 206.269531 C 260.132812 205.199219 261.628906 204.078125 263.179688 203.011719 C 264.671875 201.996094 265.636719 202.046875 267.132812 203.171875 C 269.320312 204.878906 271.40625 206.75 273.222656 208.886719 C 274.34375 210.222656 275.734375 211.292969 277.496094 211.558594 C 279.632812 211.878906 281.238281 210.597656 281.34375 208.460938 C 281.449219 206.695312 280.648438 205.253906 279.582031 203.972656 C 277.335938 201.300781 274.34375 200.125 270.925781 199.964844 C 270.070312 199.910156 269.214844 199.964844 268.414062 199.964844 C 269.429688 198.789062 270.605469 198.203125 271.566406 197.398438 C 273.4375 195.957031 275.464844 195.957031 277.601562 196.382812 C 279.207031 196.707031 280.703125 197.398438 282.25 197.933594 C 283.320312 198.308594 284.441406 198.683594 285.617188 198.574219 C 287.113281 198.414062 287.808594 197.558594 287.703125 196.117188 C 287.59375 195.261719 287.21875 194.515625 286.6875 193.875 Z M 217.496094 315.421875 C 219.527344 315.476562 221.558594 315.742188 223.480469 316.4375 C 224.550781 316.867188 225.5625 317.347656 226.417969 318.148438 C 228.503906 320.070312 228.234375 321.941406 225.671875 323.117188 C 223.695312 324.023438 221.609375 324.292969 219.472656 324.453125 C 218.191406 324.558594 216.855469 324.453125 215.574219 324.453125 C 212.472656 324.667969 209.375 324.023438 206.277344 323.917969 C 206.117188 323.917969 205.957031 323.917969 205.796875 323.863281 C 204.351562 323.492188 202.695312 323.117188 202.375 321.460938 C 202.109375 319.964844 203.5 319.214844 204.566406 318.523438 C 208.519531 316.011719 212.957031 315.371094 217.496094 315.421875 Z M 213.703125 296.347656 C 214.34375 296.5625 214.933594 296.828125 215.359375 297.3125 C 216.695312 298.914062 216.960938 300.464844 214.453125 300.996094 C 212.6875 301.425781 210.871094 301.371094 209.320312 301.425781 C 206.332031 301.425781 203.550781 301.210938 200.878906 300.410156 C 199.867188 300.089844 198.582031 299.820312 198.53125 298.59375 C 198.476562 297.3125 199.757812 296.882812 200.71875 296.5625 C 204.996094 295.171875 209.320312 295.011719 213.703125 296.347656 Z M 214.984375 263.863281 C 216.375 264.398438 217.710938 264.988281 217.765625 266.855469 C 217.816406 268.726562 216.429688 269.367188 215.09375 269.957031 C 213.328125 270.757812 211.511719 270.917969 209.589844 270.917969 C 206.332031 270.917969 203.230469 270.328125 200.347656 268.832031 C 198.15625 267.710938 198.15625 266.429688 200.078125 264.933594 C 201.628906 263.757812 203.445312 263.277344 205.316406 263.011719 C 206.382812 262.902344 207.453125 262.902344 208.46875 262.847656 C 210.710938 262.902344 212.902344 263.0625 214.984375 263.863281 Z M 219.207031 238.164062 C 218.457031 238.273438 217.765625 238.273438 217.175781 238.324219 C 213.863281 238.21875 210.871094 237.578125 208.09375 236.082031 C 207.398438 235.707031 206.703125 235.226562 206.117188 234.640625 C 205.15625 233.515625 205.207031 232.664062 206.4375 231.753906 C 207.238281 231.167969 208.148438 230.792969 209.109375 230.632812 C 212.902344 230.042969 216.589844 230.257812 220.113281 231.859375 C 221.078125 232.289062 221.984375 232.875 222.679688 233.675781 C 224.066406 235.332031 223.425781 237.257812 221.34375 237.792969 C 220.703125 238.003906 219.953125 238.058594 219.207031 238.164062 Z M 228.503906 248.796875 C 228.554688 250.667969 227.488281 251.308594 225.832031 250.402344 C 224.550781 249.707031 223.695312 248.636719 223.160156 247.355469 C 222.25 245.21875 221.824219 242.8125 220.382812 240.890625 C 219.953125 240.304688 220.542969 240.089844 221.023438 239.980469 C 221.183594 239.980469 221.34375 240.035156 221.503906 240.089844 C 224.65625 240.890625 228.449219 245.644531 228.503906 248.796875 Z M 229.785156 218.558594 C 227.808594 218.449219 225.886719 217.96875 224.28125 216.632812 C 223.054688 215.566406 222.519531 214.445312 222.945312 213.480469 C 223.535156 212.199219 224.65625 211.824219 225.9375 211.773438 C 227.113281 211.71875 228.234375 211.984375 229.304688 212.359375 C 233.097656 213.535156 236.890625 216.632812 238.761719 220.265625 C 235.609375 219.144531 232.722656 218.71875 229.785156 218.558594 Z M 254.148438 222.296875 C 255.109375 223.152344 256.285156 224.167969 255.589844 225.609375 C 254.898438 227.105469 253.402344 226.785156 252.117188 226.625 C 248.003906 225.984375 244.585938 224.0625 241.644531 221.121094 C 241.539062 221.015625 241.378906 220.910156 241.324219 220.746094 C 240.953125 219.945312 240.472656 219.039062 240.898438 218.238281 C 241.324219 217.488281 242.234375 217.917969 242.875 217.757812 C 247.148438 218.183594 250.941406 219.464844 254.148438 222.296875 Z M 254.09375 206.964844 C 251.53125 204.183594 249.179688 201.566406 246.828125 199.003906 C 245.921875 197.988281 245.066406 196.8125 244.636719 195.476562 C 244.210938 194.085938 244.746094 193.445312 246.1875 193.714844 C 246.402344 193.765625 246.667969 193.875 246.882812 193.925781 C 251.476562 195.53125 254.949219 201.621094 254.09375 206.964844 Z M 278.351562 206.589844 C 278.566406 207.015625 278.777344 207.496094 278.886719 207.925781 C 279.097656 208.992188 278.511719 209.527344 277.496094 209.207031 C 276.214844 208.832031 275.199219 207.980469 274.289062 207.015625 C 272.6875 205.308594 271.03125 203.597656 268.679688 202.046875 C 272.742188 201.566406 276.75 203.542969 278.351562 206.589844 Z M 272.261719 194.246094 C 270.285156 192.804688 268.574219 191.363281 267.292969 189.597656 C 266.863281 189.011719 266.4375 188.371094 266.167969 187.730469 C 265.6875 186.554688 266.332031 185.859375 267.664062 186.074219 C 267.988281 186.125 268.308594 186.234375 268.574219 186.394531 C 270.816406 187.460938 272.632812 191.253906 272.261719 194.246094 Z M 286.257812 196.652344 C 285.777344 197.71875 284.761719 197.398438 283.90625 197.132812 C 282.679688 196.757812 281.398438 196.382812 280.222656 195.902344 C 278.9375 195.421875 277.605469 195.050781 275.679688 194.890625 C 278.136719 193.179688 280.167969 192.429688 282.574219 193.070312 C 283.640625 193.339844 284.550781 193.820312 285.351562 194.566406 C 285.886719 195.15625 286.632812 195.796875 286.257812 196.652344 Z M 286.257812 196.652344 " fill-opacity="1" fill-rule="nonzero"/></g></svg>