<svg xmlns="http://www.w3.org/2000/svg" xmlns:xlink="http://www.w3.org/1999/xlink" width="500" zoomAndPan="magnify" viewBox="0 0 375 374.999991" height="500" preserveAspectRatio="xMidYMid meet" version="1.0"><defs><clipPath id="34b005f795"><path d="M 187.5 0 C 83.945312 0 0 83.945312 0 187.5 C 0 291.054688 83.945312 375 187.5 375 C 291.054688 375 375 291.054688 375 187.5 C 375 83.945312 291.054688 0 187.5 0 Z M 187.5 0 " clip-rule="nonzero"/></clipPath><clipPath id="179e65c7f1"><path d="M 37.5 96 L 337.5 96 L 337.5 279 L 37.5 279 Z M 37.5 96 " clip-rule="nonzero"/></clipPath></defs><g clip-path="url(#34b005f795)"><rect x="-37.5" width="450" fill="#58a39d" y="-37.499999" height="449.999989" fill-opacity="1"/></g><g clip-path="url(#179e65c7f1)"><path fill="#ffffff" d="M 227.390625 193.1875 C 228.183594 193.1875 228.910156 193.109375 229.660156 193.058594 C 228.972656 193.945312 228.292969 194.792969 227.949219 195.136719 C 227.097656 195.988281 223.359375 196.496094 222.847656 196.328125 C 222.554688 196.230469 223.769531 194.519531 224.859375 193.070312 C 225.71875 193.132812 226.574219 193.1875 227.390625 193.1875 Z M 220.808594 196.667969 C 221.953125 196.238281 222.972656 194.664062 223.777344 192.984375 C 222.785156 192.882812 221.777344 192.753906 220.730469 192.554688 C 219.832031 192.363281 219.0625 191.933594 218.425781 191.269531 L 217.746094 191.566406 C 217.746094 191.566406 215.027344 196.328125 213.324219 197.347656 C 215.886719 197.84375 218.378906 197.617188 220.808594 196.667969 Z M 241.105469 190.550781 C 237.851562 191.773438 234.496094 192.582031 231.042969 192.976562 C 226.054688 196.960938 231.714844 197.574219 235.523438 196.683594 C 237.644531 196.191406 240.414062 195.039062 242.480469 194.105469 C 242.390625 193.914062 242.300781 193.71875 242.210938 193.523438 C 241.730469 192.457031 241.628906 191.351562 241.902344 190.214844 C 241.632812 190.324219 241.378906 190.449219 241.105469 190.550781 Z M 222.59375 198.503906 C 222.59375 198.503906 215.027344 211.976562 221.078125 218.578125 C 221.136719 218.640625 221.199219 218.652344 221.273438 218.613281 C 221.347656 218.570312 221.375 218.511719 221.351562 218.429688 C 220.839844 216.640625 220.273438 211.238281 226.925781 201.015625 C 229.257812 197.429688 224.949219 195.480469 222.59375 198.503906 Z M 236.175781 214.347656 C 236.175781 214.347656 227.070312 226.832031 232.300781 234.101562 C 232.351562 234.171875 232.414062 234.191406 232.492188 234.160156 C 232.570312 234.128906 232.605469 234.070312 232.589844 233.988281 C 232.292969 232.148438 232.367188 226.71875 240.179688 217.351562 C 242.917969 214.066406 238.871094 211.621094 236.175781 214.347656 Z M 236.195312 232.664062 C 236.640625 230.621094 238.226562 227.109375 243.40625 222.3125 C 245.800781 220.089844 242.976562 217.847656 240.671875 219.644531 C 240.671875 219.644531 233.414062 227.3125 235.394531 233.234375 C 235.652344 233.027344 235.917969 232.835938 236.195312 232.664062 Z M 228.675781 225.707031 C 228.621094 223.847656 229.410156 218.472656 238.378906 210.207031 C 241.527344 207.308594 237.832031 204.355469 234.804688 206.707031 C 234.804688 206.707031 224.140625 217.890625 228.375 225.785156 C 228.414062 225.859375 228.476562 225.882812 228.558594 225.863281 C 228.636719 225.84375 228.679688 225.789062 228.675781 225.707031 Z M 230.117188 200.085938 C 230.117188 200.085938 220.800781 212.414062 225.910156 219.769531 C 225.957031 219.839844 226.019531 219.859375 226.097656 219.832031 C 226.175781 219.800781 226.210938 219.742188 226.199219 219.660156 C 225.933594 217.816406 226.101562 212.390625 234.070312 203.15625 C 236.863281 199.917969 232.859375 197.40625 230.117188 200.085938 Z M 248.820312 198.761719 C 248.523438 198.722656 248.3125 198.683594 248.179688 198.65625 C 246.257812 198.210938 244.679688 197.21875 243.445312 195.679688 C 241.703125 195.9375 240.007812 196.378906 238.359375 197 C 232.316406 199.234375 237.523438 201.589844 241.425781 201.929688 C 243.820312 202.140625 247.242188 201.839844 249.535156 201.574219 C 249.164062 200.679688 249.050781 199.753906 249.191406 198.796875 C 249.0625 198.785156 248.933594 198.773438 248.820312 198.761719 Z M 251.996094 206.625 C 251.605469 206.203125 251.296875 205.726562 251.074219 205.199219 C 250.902344 204.773438 250.730469 204.355469 250.558594 203.941406 C 248.769531 203.527344 246.175781 203.34375 242.882812 203.804688 C 236.503906 204.699219 241.085938 208.109375 244.824219 209.28125 C 246.398438 209.730469 247.996094 210.0625 249.621094 210.277344 C 250.222656 208.933594 251.015625 207.71875 252 206.625 Z M 246.945312 217.730469 C 247.40625 215.976562 247.964844 214.253906 248.617188 212.558594 C 248.738281 212.246094 248.863281 212.007812 248.984375 211.714844 C 247.308594 211.179688 245.597656 210.824219 243.84375 210.648438 C 237.4375 209.980469 241.066406 214.394531 244.414062 216.429688 C 245.230469 216.914062 246.078125 217.347656 246.945312 217.730469 Z M 119.121094 153.984375 C 123.671875 152.507812 128.5 151.140625 133.460938 149.886719 C 130.730469 150.433594 127.625 151.097656 124.3125 151.898438 C 122.53125 152.328125 120.695312 152.796875 118.835938 153.296875 C 116.984375 153.777344 115.109375 154.277344 113.21875 154.714844 C 105.941406 156.476562 98.582031 157.773438 92.914062 158.582031 L 88.511719 158.234375 C 88.914062 158.234375 89.292969 158.144531 89.652344 157.964844 C 90.011719 157.785156 90.3125 157.535156 90.554688 157.214844 C 91.023438 156.589844 86.96875 155.964844 82.449219 155.472656 C 79.003906 155.144531 70.554688 154.171875 68.339844 153.992188 C 66.796875 153.875 65.800781 153.804688 65.800781 153.804688 C 65.800781 153.804688 92.785156 152.125 107.835938 151.257812 C 108.089844 151.242188 108.320312 151.15625 108.523438 151 C 108.726562 150.847656 108.871094 150.648438 108.953125 150.40625 C 109.035156 150.164062 109.039062 149.917969 108.972656 149.671875 C 108.902344 149.425781 108.773438 149.21875 108.578125 149.050781 L 118.914062 149.316406 C 119.191406 149.324219 119.449219 149.257812 119.691406 149.121094 C 119.929688 148.980469 120.113281 148.789062 120.242188 148.542969 C 120.371094 148.300781 120.429688 148.039062 120.410156 147.761719 C 120.390625 147.488281 120.300781 147.234375 120.140625 147.011719 L 128.746094 147.550781 C 129.25 147.582031 129.644531 147.386719 129.921875 146.964844 C 130.203125 146.542969 130.230469 146.105469 130.003906 145.652344 L 139.113281 145.652344 C 139.355469 145.652344 139.582031 145.589844 139.789062 145.464844 C 139.996094 145.339844 140.15625 145.171875 140.269531 144.957031 C 140.386719 144.746094 140.4375 144.515625 140.425781 144.273438 C 140.414062 144.035156 140.339844 143.8125 140.207031 143.609375 L 150.167969 143.609375 C 150.289062 143.609375 150.40625 143.59375 150.523438 143.566406 C 150.636719 143.535156 150.75 143.492188 150.855469 143.433594 C 150.957031 143.375 151.054688 143.304688 151.140625 143.21875 C 151.226562 143.136719 151.304688 143.042969 151.367188 142.941406 C 151.429688 142.839844 151.480469 142.730469 151.515625 142.617188 C 151.550781 142.5 151.570312 142.382812 151.574219 142.265625 C 151.582031 142.144531 151.570312 142.023438 151.546875 141.90625 C 151.519531 141.789062 151.480469 141.675781 151.429688 141.570312 L 161.832031 141.804688 C 162.070312 141.8125 162.285156 141.742188 162.472656 141.597656 C 162.664062 141.453125 162.789062 141.261719 162.847656 141.03125 C 162.902344 140.796875 162.882812 140.574219 162.78125 140.355469 C 162.683594 140.140625 162.523438 139.976562 162.3125 139.871094 C 162.3125 139.871094 176.933594 140.550781 178.636719 140.550781 L 176.933594 138.847656 C 179.523438 139.308594 182.128906 139.535156 184.757812 139.53125 L 208.5625 139.53125 L 208.210938 139.707031 C 208.613281 139.726562 208.988281 139.75 209.328125 139.785156 C 210.183594 139.867188 212.140625 141.988281 211.992188 142.835938 C 211.8125 143.863281 212.1875 145.546875 214.34375 148.203125 C 218.765625 153.644531 222.851562 158.113281 223.867188 168.945312 C 224.308594 173.023438 223.792969 176.976562 222.3125 180.800781 C 221.058594 183.96875 219.195312 186.722656 216.726562 189.070312 C 215.871094 189.902344 214.960938 190.679688 214.003906 191.394531 C 208.632812 195.339844 196.976562 193.335938 186.796875 191.902344 C 185.8125 191.726562 174.238281 188.09375 173.195312 187.820312 C 165.375 185.78125 162.3125 187.820312 153.128906 182.71875 C 152.257812 182.234375 137.066406 174.492188 135.285156 173.453125 C 134.835938 173.195312 134.390625 172.941406 133.921875 172.722656 C 133.457031 172.488281 132.972656 172.285156 132.480469 172.109375 C 131.503906 171.769531 130.503906 171.527344 129.480469 171.390625 C 127.535156 171.171875 125.589844 171.085938 123.632812 171.132812 C 119.851562 171.15625 116.234375 171.128906 112.835938 170.617188 C 109.628906 170.148438 106.496094 169.375 103.441406 168.304688 C 100.539062 167.367188 97.84375 166.726562 95.464844 166.109375 C 95.183594 166.035156 94.90625 165.964844 94.636719 165.898438 C 91.902344 165.078125 89.339844 164.3125 86.316406 163.355469 C 85.296875 163.035156 84.222656 162.691406 83.070312 162.316406 C 83.070312 162.316406 90.054688 161.453125 100.210938 159.152344 C 105.769531 157.894531 112.265625 156.210938 119.121094 153.984375 Z M 121.363281 159.042969 C 121.371094 159.5625 121.476562 160.0625 121.683594 160.542969 C 122.429688 162.386719 124.484375 163.71875 126.929688 163.71875 C 129.175781 163.71875 131.097656 162.597656 131.980469 160.988281 C 132.316406 160.382812 132.492188 159.738281 132.496094 159.042969 C 132.496094 156.460938 130.003906 154.367188 126.929688 154.367188 C 123.855469 154.367188 121.363281 156.460938 121.363281 159.042969 Z M 120.613281 166.601562 C 118.234375 166.59375 115.875 166.394531 113.53125 166.011719 C 108.699219 165.304688 103.871094 164.433594 100.214844 164.054688 C 98.390625 163.847656 96.855469 163.78125 95.785156 163.761719 C 95.25 163.753906 94.828125 163.785156 94.542969 163.789062 C 94.257812 163.800781 94.105469 163.804688 94.113281 163.804688 L 94.542969 163.804688 C 94.832031 163.8125 95.25 163.792969 95.785156 163.820312 C 96.851562 163.875 98.375 163.996094 100.1875 164.265625 C 102.710938 164.617188 105.800781 165.230469 109.058594 165.863281 C 110.492188 166.140625 111.949219 166.421875 113.421875 166.6875 C 115.800781 167.164062 118.199219 167.449219 120.625 167.539062 C 120.84375 167.542969 121.035156 167.539062 121.242188 167.539062 C 121.601562 167.539062 121.96875 167.539062 122.308594 167.539062 C 122.851562 167.554688 123.378906 167.5625 123.890625 167.613281 C 124.855469 167.6875 125.8125 167.816406 126.765625 167.996094 C 128.09375 168.199219 129.425781 168.328125 130.769531 168.386719 C 132.007812 168.460938 133.011719 168.5 133.011719 168.5 C 133.011719 168.5 132.851562 168.429688 132.578125 168.324219 C 132.300781 168.21875 131.890625 168.066406 131.367188 167.898438 C 129.925781 167.433594 128.457031 167.085938 126.960938 166.855469 C 125.964844 166.699219 124.960938 166.601562 123.953125 166.558594 C 123.417969 166.527344 122.867188 166.539062 122.304688 166.542969 C 121.738281 166.5625 121.15625 166.589844 120.609375 166.601562 Z M 153.363281 189.285156 C 155.472656 190.722656 154.636719 186.695312 154.636719 186.695312 C 154.636719 186.695312 136.453125 175.460938 131.210938 173.675781 C 131.066406 173.625 130.917969 173.609375 130.765625 173.621094 C 130.613281 173.636719 130.46875 173.679688 130.332031 173.75 C 130.199219 173.824219 130.085938 173.921875 129.988281 174.042969 C 129.894531 174.160156 129.828125 174.296875 129.789062 174.445312 L 129.53125 175.425781 C 129.46875 175.648438 129.449219 175.875 129.46875 176.101562 C 129.488281 176.328125 129.542969 176.546875 129.640625 176.753906 C 129.734375 176.964844 129.859375 177.148438 130.019531 177.3125 C 130.179688 177.476562 130.363281 177.609375 130.566406 177.710938 C 135.53125 180.152344 151.585938 188.070312 153.363281 189.285156 Z M 129.140625 173.933594 C 129.214844 173.613281 129.113281 173.367188 128.835938 173.1875 C 128.558594 173.011719 128.292969 173.027344 128.03125 173.230469 C 123.289062 176.996094 110.671875 186.757812 110.957031 187.59375 C 110.976562 187.660156 111.003906 187.726562 111.03125 187.796875 C 111.078125 187.925781 111.144531 188.046875 111.222656 188.160156 C 111.300781 188.273438 111.390625 188.378906 111.496094 188.46875 C 111.597656 188.5625 111.710938 188.640625 111.832031 188.707031 C 111.953125 188.773438 112.082031 188.824219 112.214844 188.859375 C 112.351562 188.894531 112.484375 188.914062 112.625 188.914062 C 112.761719 188.917969 112.898438 188.90625 113.035156 188.875 C 113.171875 188.847656 113.300781 188.800781 113.425781 188.742188 C 113.550781 188.679688 113.664062 188.605469 113.773438 188.519531 L 128.625 176.183594 Z M 95.121094 195.003906 C 101.316406 193.640625 103.023438 193.535156 111.183594 190.167969 L 111.117188 189.191406 C 111.105469 189.011719 111.050781 188.847656 110.957031 188.695312 C 110.863281 188.542969 110.738281 188.421875 110.582031 188.332031 C 110.425781 188.242188 110.257812 188.191406 110.082031 188.1875 C 109.902344 188.183594 109.730469 188.21875 109.570312 188.296875 C 106.796875 189.675781 100.519531 192.699219 95.140625 194.582031 C 94.851562 194.683594 94.820312 195.070312 95.121094 195.007812 Z M 105.996094 178.75 C 106.46875 178.933594 106.945312 178.953125 107.429688 178.8125 L 114.105469 176.855469 C 114.304688 176.8125 114.488281 176.730469 114.652344 176.609375 C 114.816406 176.488281 114.949219 176.335938 115.050781 176.160156 C 115.152344 175.980469 115.214844 175.789062 115.234375 175.585938 C 115.253906 175.378906 115.234375 175.179688 115.167969 174.988281 C 114.804688 173.664062 112.6875 173.160156 111.832031 173.292969 C 108.785156 173.757812 108.109375 173.964844 106.835938 173.964844 C 104.78125 173.964844 104.292969 174.597656 104.15625 175.300781 C 104.140625 175.394531 104.632812 175.300781 104.730469 175.300781 C 106.261719 175.300781 107.027344 177.089844 105.6875 178.425781 C 105.597656 178.515625 105.742188 178.644531 105.996094 178.75 Z M 126.285156 158.628906 C 127.210938 158.628906 127.964844 157.996094 127.964844 157.21875 C 127.964844 156.4375 127.210938 155.804688 126.285156 155.804688 C 125.355469 155.804688 124.605469 156.4375 124.605469 157.21875 C 124.605469 157.996094 125.355469 158.628906 126.285156 158.628906 Z M 247.496094 157.992188 C 247.289062 157.152344 247.136719 156.328125 246.992188 155.519531 C 246.746094 153.996094 246.585938 152.46875 246.503906 150.929688 C 246.472656 150.289062 246.453125 148.695312 246.449219 147.070312 C 246.449219 146.464844 246.335938 145.878906 246.117188 145.3125 C 245.894531 144.75 245.582031 144.242188 245.171875 143.792969 C 244.761719 143.347656 244.285156 142.988281 243.742188 142.714844 C 243.199219 142.445312 242.628906 142.28125 242.023438 142.226562 C 233.292969 141.402344 221.25 140.390625 218.765625 140.804688 C 215.707031 141.316406 216.140625 142.734375 216.203125 143.015625 C 216.523438 144.230469 216.988281 145.386719 217.601562 146.484375 C 218.28125 147.78125 219.144531 149.160156 220.109375 150.632812 C 221.074219 152.105469 222.15625 153.691406 223.117188 155.492188 C 224.105469 157.355469 224.855469 159.308594 225.363281 161.355469 C 225.859375 163.417969 226.179688 165.507812 226.328125 167.628906 C 226.523438 169.746094 226.488281 171.863281 226.21875 173.972656 C 225.953125 176.019531 225.445312 178 224.699219 179.921875 C 223.347656 183.316406 221.335938 186.261719 218.667969 188.761719 C 219.082031 189.441406 219.617188 190.007812 220.269531 190.464844 C 220.511719 190.625 220.777344 190.738281 221.0625 190.800781 C 222.207031 191.011719 223.363281 191.164062 224.523438 191.253906 C 225.082031 191.304688 225.632812 191.34375 226.175781 191.363281 C 227.820312 191.417969 229.460938 191.355469 231.097656 191.167969 C 232.285156 191.03125 233.433594 190.84375 234.542969 190.601562 C 236.566406 190.160156 238.550781 189.582031 240.496094 188.871094 C 241.539062 188.480469 242.546875 188.019531 243.519531 187.484375 C 244.960938 186.710938 246.292969 185.773438 247.507812 184.679688 C 248.738281 183.625 249.714844 182.371094 250.433594 180.921875 C 250.515625 180.734375 250.605469 180.546875 250.683594 180.355469 L 250.886719 179.777344 C 251.019531 179.390625 251.125 179 251.207031 178.601562 C 251.253906 178.40625 251.253906 178.210938 251.28125 178.019531 L 251.316406 177.726562 L 251.320312 177.410156 C 251.335938 176.984375 251.316406 176.554688 251.304688 176.121094 C 251.277344 175.648438 251.210938 175.171875 251.160156 174.695312 C 251.023438 173.421875 250.835938 172.140625 250.578125 170.855469 C 249.863281 167.320312 248.9375 163.785156 248.105469 160.460938 C 247.898438 159.621094 247.6875 158.828125 247.496094 157.992188 Z M 273.871094 154.109375 C 267.410156 150.132812 260.519531 147.144531 253.199219 145.144531 C 252.296875 144.898438 249.675781 144.238281 248.863281 144.121094 C 249.460938 145.398438 250.054688 145.3125 249.984375 150.871094 C 249.960938 152.285156 250.011719 153.695312 250.132812 155.105469 C 250.210938 155.855469 250.300781 156.621094 250.429688 157.398438 C 250.550781 158.183594 250.714844 159.03125 250.863281 159.867188 C 251.457031 163.242188 252.136719 166.847656 252.613281 170.527344 C 252.78125 171.816406 252.878906 173.125 252.933594 174.4375 C 252.953125 174.992188 252.992188 175.546875 252.980469 176.101562 C 252.964844 176.570312 252.949219 177.035156 252.902344 177.5 L 252.871094 177.847656 L 252.804688 178.214844 C 252.753906 178.457031 252.726562 178.710938 252.65625 178.9375 C 252.527344 179.390625 252.375 179.835938 252.191406 180.265625 L 251.917969 180.898438 C 251.820312 181.101562 251.707031 181.296875 251.605469 181.496094 C 250.039062 184.367188 247.882812 186.699219 245.136719 188.480469 C 244.984375 188.597656 244.84375 188.726562 244.710938 188.867188 C 243.980469 189.507812 243.601562 190.3125 243.570312 191.285156 C 243.539062 191.804688 243.628906 192.304688 243.832031 192.78125 C 243.921875 192.976562 244.011719 193.167969 244.097656 193.359375 C 244.492188 194.191406 245.042969 194.898438 245.753906 195.484375 C 246.574219 196.175781 247.503906 196.648438 248.546875 196.90625 C 248.648438 196.929688 248.8125 196.960938 249.046875 196.988281 C 249.132812 197 249.230469 197.007812 249.332031 197.015625 C 249.609375 197.035156 249.886719 197.035156 250.160156 197.019531 C 250.382812 197.011719 250.601562 196.992188 250.820312 196.960938 C 251.5625 196.824219 252.476562 196.5625 253.503906 196.269531 C 254.652344 195.941406 255.769531 195.527344 256.851562 195.027344 C 257.460938 194.746094 258.035156 194.410156 258.582031 194.023438 C 258.859375 193.820312 259.125 193.601562 259.375 193.367188 L 260.152344 192.578125 C 261.246094 191.488281 262.171875 190.269531 262.925781 188.921875 C 263.546875 187.59375 263.976562 186.207031 264.214844 184.761719 C 264.253906 184.578125 264.296875 184.414062 264.335938 184.230469 C 264.679688 182.472656 265.121094 180.738281 265.65625 179.03125 C 266.199219 177.296875 266.882812 175.648438 267.515625 173.996094 C 267.847656 173.175781 268.230469 172.378906 268.578125 171.582031 C 268.761719 171.1875 268.921875 170.785156 269.121094 170.402344 L 269.707031 169.261719 C 271.113281 166.425781 272.839844 163.804688 274.886719 161.394531 C 275.121094 161.132812 275.324219 160.851562 275.496094 160.546875 C 275.671875 160.242188 275.808594 159.921875 275.910156 159.585938 C 276.015625 159.25 276.078125 158.910156 276.109375 158.558594 C 276.136719 158.210938 276.125 157.863281 276.078125 157.515625 C 276.027344 157.167969 275.945312 156.832031 275.820312 156.503906 C 275.699219 156.171875 275.542969 155.863281 275.351562 155.566406 C 275.160156 155.273438 274.941406 155.003906 274.691406 154.757812 C 274.441406 154.511719 274.167969 154.296875 273.871094 154.109375 Z M 252.976562 204.945312 C 253.246094 205.425781 253.621094 205.804688 254.101562 206.082031 C 254.578125 206.355469 255.09375 206.492188 255.644531 206.488281 C 256.070312 206.484375 256.511719 206.464844 256.960938 206.429688 C 259.375 206.253906 262.199219 205.585938 264.488281 203.695312 C 265.679688 202.710938 266.765625 201.621094 267.742188 200.425781 C 268.042969 200.074219 268.375 199.722656 268.695312 199.367188 C 269.496094 198.453125 270.363281 197.605469 271.292969 196.820312 C 272.636719 195.722656 274.097656 194.804688 275.671875 194.070312 C 277.152344 193.378906 278.667969 192.769531 280.21875 192.246094 C 283.210938 191.203125 293.246094 188.675781 293 185.222656 C 292.515625 178.441406 287.113281 167.574219 280.238281 158.917969 C 280.066406 160.703125 280.152344 161.382812 277.421875 164.285156 C 274.023438 167.898438 270.234375 173.816406 267.601562 180.230469 C 266.972656 181.824219 266.429688 183.441406 265.980469 185.09375 C 265.730469 185.976562 265.488281 186.824219 265.191406 187.664062 C 264.898438 188.503906 264.523438 189.308594 264.0625 190.074219 C 263.15625 191.460938 262.074219 192.695312 260.816406 193.777344 C 260.527344 194.03125 260.242188 194.28125 259.960938 194.527344 C 259.667969 194.777344 259.355469 195 259.023438 195.195312 C 257.144531 196.238281 255.152344 196.976562 253.046875 197.410156 C 252.648438 197.460938 252.285156 197.601562 251.953125 197.832031 C 251.625 198.0625 251.363281 198.355469 251.175781 198.710938 C 251.042969 199.011719 250.976562 199.328125 250.980469 199.660156 C 250.957031 200.234375 251.074219 200.777344 251.332031 201.292969 C 251.890625 202.441406 252.355469 203.589844 252.730469 204.53125 C 252.800781 204.675781 252.882812 204.816406 252.976562 204.949219 Z M 283.582031 224.234375 C 281.578125 223.761719 279.621094 223.152344 277.703125 222.402344 C 276.75 222.039062 275.8125 221.660156 274.878906 221.277344 L 273.492188 220.691406 L 273.148438 220.542969 L 272.824219 220.425781 L 272.175781 220.183594 C 270.898438 219.769531 269.585938 219.632812 268.25 219.777344 C 267.773438 219.824219 267.304688 219.898438 266.835938 220.007812 C 265.066406 220.398438 263.363281 221.0625 261.675781 221.546875 C 260.089844 222.035156 258.464844 222.320312 256.804688 222.398438 C 255.40625 222.457031 254.023438 222.339844 252.652344 222.054688 C 251.59375 221.832031 250.601562 221.445312 249.671875 220.894531 C 249.40625 220.730469 249.15625 220.550781 248.914062 220.355469 C 248.664062 220.425781 248.414062 220.480469 248.15625 220.519531 C 246.507812 220.757812 240.957031 228.550781 241.722656 230.84375 C 246.824219 230.589844 252.109375 233.253906 259.859375 238.238281 C 264.015625 240.828125 268.488281 242.652344 273.269531 243.710938 C 277.617188 239.097656 286.121094 227.976562 287.796875 225.140625 C 287.917969 224.9375 288.023438 224.730469 288.121094 224.511719 C 287.671875 224.589844 287.21875 224.628906 286.761719 224.628906 C 285.6875 224.609375 284.628906 224.476562 283.585938 224.234375 Z M 281.039062 194.941406 C 279.546875 195.324219 278.082031 195.78125 276.640625 196.316406 C 275.1875 196.863281 273.820312 197.574219 272.546875 198.460938 C 271.625 199.121094 270.761719 199.84375 269.953125 200.636719 C 269.621094 200.949219 269.289062 201.253906 268.960938 201.578125 C 267.832031 202.757812 266.59375 203.816406 265.253906 204.753906 C 263.960938 205.636719 262.554688 206.261719 261.03125 206.625 C 259.699219 206.9375 258.351562 207.085938 256.984375 207.074219 C 256.136719 207.074219 255.292969 207.019531 254.449219 206.917969 C 254.28125 207 254.121094 207.097656 253.96875 207.207031 C 253.769531 207.351562 253.578125 207.511719 253.40625 207.683594 C 252.613281 208.53125 251.972656 209.476562 251.472656 210.519531 C 251.175781 211.105469 250.890625 211.71875 250.632812 212.339844 C 249.828125 214.304688 249.160156 216.3125 248.625 218.367188 C 248.625 218.367188 248.660156 218.425781 248.707031 218.496094 C 248.816406 218.652344 248.933594 218.800781 249.0625 218.9375 C 249.53125 219.429688 250.070312 219.828125 250.675781 220.140625 C 251.613281 220.617188 252.601562 220.929688 253.644531 221.078125 C 254.984375 221.269531 256.328125 221.296875 257.675781 221.152344 C 259.265625 220.976562 260.804688 220.605469 262.300781 220.035156 C 263.902344 219.464844 265.554688 218.6875 267.433594 218.140625 C 267.601562 218.089844 267.78125 218.0625 267.949219 218.019531 C 269.8125 217.519531 271.683594 217.503906 273.554688 217.972656 L 274.316406 218.199219 L 274.699219 218.3125 L 275.050781 218.4375 L 276.457031 218.925781 C 277.398438 219.246094 278.34375 219.558594 279.289062 219.847656 C 281.144531 220.441406 283.027344 220.902344 284.945312 221.226562 C 285.828125 221.375 286.714844 221.429688 287.605469 221.390625 C 287.976562 221.375 288.34375 221.308594 288.699219 221.199219 C 288.835938 221.160156 288.96875 221.101562 289.089844 221.027344 C 289.242188 220.917969 289.394531 220.820312 289.558594 220.734375 L 289.722656 220.644531 L 290.082031 220.453125 C 293.65625 213.234375 294.636719 199.929688 294.777344 195.253906 C 294.8125 194.113281 294.511719 190.230469 294.433594 189.441406 C 291.800781 193.265625 283.945312 194.179688 281.039062 194.941406 Z M 260.632812 242.125 C 258.726562 240.792969 256.792969 239.246094 254.820312 237.984375 C 252.835938 236.734375 250.734375 235.726562 248.519531 234.957031 C 246.390625 234.199219 244.328125 233.667969 242.542969 233.226562 C 241.429688 232.941406 240.316406 232.9375 239.199219 233.21875 C 238.085938 233.496094 237.105469 234.023438 236.253906 234.796875 C 233.453125 237.46875 230.894531 240.363281 228.585938 243.472656 C 227.515625 244.941406 226.582031 246.492188 225.785156 248.125 C 225.34375 249.015625 225.109375 249.960938 225.074219 250.953125 C 225.039062 251.949219 225.210938 252.90625 225.589844 253.824219 C 225.890625 254.5625 226.164062 255.195312 226.246094 255.332031 C 227.6875 257.625 228.117188 261.796875 226.671875 263.921875 C 226.050781 264.835938 230.074219 264.089844 233.304688 267.320312 C 234.324219 268.339844 234.917969 271.484375 234.917969 271.484375 C 234.917969 271.484375 251.125 268.847656 269.332031 246.960938 C 268.222656 246.589844 267.148438 246.128906 266.117188 245.578125 C 264.214844 244.546875 262.386719 243.394531 260.632812 242.125 Z M 231.703125 268.308594 C 231.640625 268.234375 231.585938 268.15625 231.519531 268.085938 C 229.832031 266.230469 227.082031 265.789062 225.5 265.554688 C 224.691406 265.433594 224.171875 265.367188 224.292969 265.195312 C 224.527344 264.828125 224.714844 264.4375 224.859375 264.027344 C 225.023438 263.605469 225.164062 263.179688 225.28125 262.742188 C 225.597656 261.664062 225.742188 260.566406 225.714844 259.445312 C 225.691406 259.167969 225.648438 258.894531 225.59375 258.625 C 225.566406 258.488281 225.535156 258.351562 225.5 258.21875 C 225.417969 257.921875 225.300781 257.640625 225.144531 257.375 C 225.117188 257.335938 225.023438 257.027344 224.90625 256.613281 C 224.621094 255.613281 224.179688 253.945312 224.121094 253.550781 C 223.984375 253.550781 223.804688 253.550781 223.660156 253.550781 C 213.109375 253.519531 181.257812 254.828125 155.382812 267.445312 C 155.382812 267.445312 158.824219 269.871094 164.945312 272.167969 C 164.945312 272.167969 157.675781 271.785156 156.910156 272.804688 C 156.144531 273.824219 162.777344 275.355469 172.214844 276.628906 C 195.128906 278.457031 211.625 269.277344 211.625 269.277344 C 206.011719 275.054688 195.980469 276.074219 193.894531 278.925781 C 193.894531 278.925781 212.003906 278.257812 232.601562 269.742188 C 232.589844 269.671875 232.5625 269.601562 232.519531 269.539062 C 232.308594 269.089844 232.035156 268.679688 231.703125 268.308594 Z M 133.679688 196.054688 C 139.164062 196.773438 153.777344 199.828125 155.851562 200.40625 C 158.308594 201.09375 162.3125 199.046875 162.3125 199.046875 C 162.3125 199.046875 138.535156 192.035156 132.996094 192.023438 C 132.84375 192.023438 132.699219 192.054688 132.558594 192.117188 C 132.417969 192.179688 132.296875 192.265625 132.191406 192.378906 C 132.085938 192.492188 132.011719 192.617188 131.960938 192.761719 C 131.910156 192.90625 131.890625 193.054688 131.898438 193.207031 L 131.96875 194.222656 C 131.980469 194.449219 132.035156 194.671875 132.125 194.878906 C 132.21875 195.089844 132.339844 195.277344 132.496094 195.445312 C 132.652344 195.613281 132.832031 195.746094 133.035156 195.851562 C 133.238281 195.957031 133.453125 196.023438 133.679688 196.054688 Z M 130.769531 192.460938 C 130.734375 192.132812 130.554688 191.933594 130.234375 191.863281 C 129.910156 191.789062 129.664062 191.894531 129.488281 192.171875 C 126.292969 197.3125 107.933594 220.0625 108.480469 220.753906 C 108.527344 220.808594 108.570312 220.863281 108.621094 220.917969 C 108.710938 221.023438 108.8125 221.113281 108.925781 221.195312 C 109.035156 221.277344 109.15625 221.34375 109.285156 221.394531 C 109.414062 221.449219 109.546875 221.484375 109.683594 221.503906 C 109.820312 221.527344 109.957031 221.53125 110.09375 221.519531 C 110.234375 221.507812 110.367188 221.480469 110.5 221.433594 C 110.628906 221.390625 110.753906 221.332031 110.871094 221.257812 C 110.988281 221.1875 111.097656 221.101562 111.195312 221 C 111.289062 220.902344 111.375 220.792969 111.445312 220.675781 L 131.042969 194.75 Z M 107.300781 222.433594 C 106.550781 225.4375 102.25 239.753906 100.191406 245.066406 C 100.078125 245.351562 100.355469 245.628906 100.496094 245.359375 C 103.480469 239.757812 107.035156 230.8125 109.769531 222.417969 L 108.984375 221.832031 C 108.839844 221.726562 108.679688 221.660156 108.503906 221.632812 C 108.324219 221.605469 108.152344 221.621094 107.984375 221.683594 C 107.8125 221.742188 107.667969 221.839844 107.546875 221.972656 C 107.425781 222.105469 107.34375 222.257812 107.300781 222.433594 Z M 134.496094 198.078125 C 134.378906 198.105469 134.273438 198.152344 134.175781 198.222656 C 134.078125 198.292969 134 198.378906 133.9375 198.480469 C 133.875 198.585938 133.835938 198.695312 133.824219 198.816406 C 133.808594 198.933594 133.816406 199.050781 133.851562 199.164062 L 134.066406 199.933594 C 134.269531 200.644531 134.75 200.550781 135.488281 200.492188 C 137.691406 200.316406 141.824219 199.644531 145.5625 199.601562 C 143.269531 198.800781 140.207031 198.582031 137.824219 198.027344 C 135.78125 198.035156 135.433594 197.878906 134.496094 198.078125 Z M 132.863281 198.78125 C 132.78125 198.535156 132.609375 198.410156 132.351562 198.40625 C 132.09375 198.40625 131.917969 198.523438 131.832031 198.769531 C 130.222656 203.238281 122.109375 217.027344 122.644531 217.464844 C 122.6875 217.5 122.730469 217.535156 122.777344 217.570312 C 122.953125 217.703125 123.148438 217.789062 123.367188 217.828125 C 123.582031 217.867188 123.796875 217.855469 124.007812 217.789062 C 124.21875 217.726562 124.402344 217.617188 124.5625 217.464844 C 124.71875 217.308594 124.832031 217.128906 124.90625 216.921875 L 133.449219 200.492188 Z M 122.015625 218.949219 C 121.933594 221.375 120.984375 233.066406 120.277344 237.476562 C 120.242188 237.710938 120.496094 237.878906 120.5625 237.648438 C 121.929688 232.863281 123.1875 225.417969 123.90625 218.535156 L 123.207031 218.214844 C 123.082031 218.15625 122.945312 218.128906 122.804688 218.136719 C 122.664062 218.144531 122.535156 218.1875 122.414062 218.261719 C 122.292969 218.335938 122.199219 218.433594 122.128906 218.554688 C 122.058594 218.675781 122.019531 218.808594 122.015625 218.949219 Z M 189.007812 196.667969 C 194.59375 196.257812 199.320312 196.367188 200.742188 194.964844 C 193.167969 193.796875 158.515625 192.597656 158.515625 192.597656 C 159.875 193.285156 159.527344 194.820312 159.527344 194.820312 C 165.496094 197.078125 179.789062 197.339844 189.007812 196.667969 Z M 128.941406 187.785156 C 134.328125 189.03125 154.160156 193.914062 156.164062 194.691406 C 158.542969 195.613281 156.816406 191.878906 156.816406 191.878906 C 156.816406 191.878906 134.15625 184.253906 128.648438 183.707031 C 128.496094 183.691406 128.347656 183.710938 128.203125 183.757812 C 128.054688 183.804688 127.925781 183.878906 127.8125 183.980469 C 127.699219 184.082031 127.609375 184.203125 127.542969 184.34375 C 127.480469 184.480469 127.445312 184.625 127.441406 184.78125 L 127.410156 185.796875 C 127.402344 186.023438 127.4375 186.25 127.507812 186.464844 C 127.578125 186.683594 127.679688 186.882812 127.820312 187.0625 C 127.960938 187.246094 128.125 187.398438 128.316406 187.523438 C 128.511719 187.644531 128.71875 187.734375 128.941406 187.785156 Z M 125.460938 185.613281 C 121.230469 189.945312 98.820312 211.972656 99.207031 212.769531 C 99.238281 212.832031 99.269531 212.894531 99.304688 212.957031 C 99.371094 213.082031 99.449219 213.195312 99.542969 213.296875 C 99.632812 213.398438 99.738281 213.492188 99.851562 213.570312 C 99.964844 213.648438 100.085938 213.714844 100.214844 213.761719 C 100.34375 213.8125 100.476562 213.847656 100.617188 213.863281 C 100.753906 213.882812 100.890625 213.886719 101.027344 213.871094 C 101.164062 213.855469 101.300781 213.824219 101.429688 213.78125 C 101.5625 213.734375 101.683594 213.671875 101.800781 213.597656 C 101.914062 213.519531 102.019531 213.433594 102.117188 213.332031 L 126.421875 188.472656 L 126.652344 186.175781 C 126.6875 185.847656 126.554688 185.613281 126.253906 185.472656 C 125.957031 185.332031 125.691406 185.378906 125.460938 185.613281 Z M 99.835938 214.386719 C 99.710938 214.257812 99.5625 214.167969 99.390625 214.113281 C 99.21875 214.0625 99.046875 214.050781 98.871094 214.085938 C 98.695312 214.117188 98.535156 214.191406 98.398438 214.304688 C 98.257812 214.417969 98.152344 214.558594 98.082031 214.722656 C 96.886719 217.582031 91.527344 227.640625 88.695312 232.582031 C 88.542969 232.847656 88.773438 233.160156 88.957031 232.917969 C 92.746094 227.828125 96.5625 222.96875 100.527344 215.082031 Z M 196.28125 196.847656 C 178.652344 197.402344 164.617188 199.246094 164.617188 199.246094 C 166.050781 199.761719 165.894531 201.328125 165.894531 201.328125 C 176.332031 203.863281 204.792969 199.097656 204.792969 199.097656 C 204.257812 196.070312 196.28125 196.847656 196.28125 196.847656 Z M 140.632812 216.425781 C 140.800781 216.585938 140.984375 216.710938 141.195312 216.808594 C 141.402344 216.902344 141.621094 216.957031 141.847656 216.976562 C 142.074219 216.996094 142.300781 216.976562 142.523438 216.917969 C 142.742188 216.859375 142.949219 216.761719 143.136719 216.632812 C 147.683594 213.488281 162.421875 203.328125 164.347656 202.367188 C 166.632812 201.226562 162.707031 199.992188 162.707031 199.992188 C 162.707031 199.992188 144.035156 210.398438 139.921875 214.105469 C 139.808594 214.207031 139.722656 214.328125 139.660156 214.46875 C 139.597656 214.609375 139.566406 214.753906 139.5625 214.90625 C 139.5625 215.058594 139.589844 215.207031 139.648438 215.347656 C 139.707031 215.488281 139.792969 215.613281 139.902344 215.71875 Z M 142.417969 238.609375 C 142.554688 238.628906 142.691406 238.632812 142.832031 238.617188 C 142.96875 238.605469 143.101562 238.578125 143.234375 238.53125 C 143.363281 238.488281 143.488281 238.425781 143.605469 238.351562 C 143.722656 238.277344 143.828125 238.191406 143.925781 238.089844 C 144.019531 237.992188 144.105469 237.882812 144.175781 237.761719 C 144.246094 237.644531 144.300781 237.515625 144.339844 237.382812 C 144.378906 237.25 144.402344 237.117188 144.410156 236.976562 C 144.417969 236.839844 144.410156 236.703125 144.386719 236.566406 L 140.855469 217.585938 L 139.140625 216.039062 C 138.898438 215.816406 138.632812 215.785156 138.339844 215.941406 C 138.050781 216.097656 137.933594 216.339844 137.984375 216.664062 C 138.960938 222.640625 141.335938 238.414062 142.207031 238.574219 C 142.273438 238.585938 142.34375 238.597656 142.417969 238.609375 Z M 142.148438 240.128906 C 141.996094 243.222656 141.578125 250.179688 140.601562 255.789062 C 140.550781 256.089844 140.875 256.308594 140.960938 256.011719 C 142.789062 249.9375 143.53125 248.394531 144.566406 239.628906 L 143.679688 239.210938 C 143.519531 239.132812 143.347656 239.097656 143.167969 239.105469 C 142.988281 239.113281 142.820312 239.164062 142.664062 239.257812 C 142.511719 239.351562 142.386719 239.472656 142.296875 239.628906 C 142.203125 239.78125 142.152344 239.949219 142.144531 240.128906 Z M 206.050781 199.21875 C 206.050781 199.21875 209.785156 198.519531 214.859375 193.390625 C 214.859375 193.390625 207.714844 194.945312 203.632812 194.964844 C 203.632812 194.964844 201.214844 194.6875 202.273438 196.15625 C 202.628906 196.65625 205.503906 197.175781 206.050781 199.222656 Z M 168.835938 207.269531 C 171.074219 206.589844 177.421875 204.542969 182.378906 203.128906 C 178.488281 203.105469 173.054688 203.667969 169.210938 202.933594 C 168.304688 203.195312 167.417969 203.511719 166.550781 203.878906 C 166.410156 203.941406 166.289062 204.03125 166.1875 204.144531 C 166.085938 204.257812 166.011719 204.390625 165.960938 204.535156 C 165.914062 204.679688 165.894531 204.828125 165.910156 204.980469 C 165.921875 205.132812 165.964844 205.277344 166.039062 205.410156 L 166.519531 206.308594 C 166.625 206.507812 166.765625 206.6875 166.933594 206.839844 C 167.105469 206.996094 167.292969 207.117188 167.503906 207.203125 C 167.714844 207.292969 167.9375 207.339844 168.164062 207.351562 C 168.394531 207.363281 168.617188 207.335938 168.835938 207.269531 Z M 161.394531 228.367188 C 161.519531 228.425781 161.648438 228.472656 161.785156 228.5 C 161.921875 228.53125 162.058594 228.542969 162.195312 228.542969 C 162.332031 228.539062 162.46875 228.519531 162.605469 228.484375 C 162.738281 228.449219 162.867188 228.398438 162.988281 228.332031 C 163.109375 228.269531 163.222656 228.1875 163.324219 228.097656 C 163.429688 228.003906 163.519531 227.902344 163.597656 227.785156 C 163.675781 227.671875 163.742188 227.550781 163.789062 227.421875 C 163.839844 227.292969 163.875 227.160156 163.894531 227.023438 L 166.375 207.476562 L 165.214844 205.480469 C 165.050781 205.195312 164.808594 205.082031 164.484375 205.144531 C 164.160156 205.207031 163.976562 205.398438 163.925781 205.722656 C 163.027344 211.710938 160.425781 227.851562 161.203125 228.269531 C 161.261719 228.304688 161.328125 228.335938 161.394531 228.367188 Z M 168.773438 247.679688 C 168.875 247.96875 169.261719 248.003906 169.199219 247.703125 C 167.871094 241.5 166.988281 237.441406 163.671875 229.261719 L 162.695312 229.320312 C 162.515625 229.332031 162.347656 229.382812 162.195312 229.476562 C 162.042969 229.570312 161.921875 229.695312 161.832031 229.851562 C 161.738281 230.003906 161.691406 230.171875 161.683594 230.351562 C 161.675781 230.53125 161.714844 230.703125 161.792969 230.863281 C 163.152344 233.644531 166.925781 242.292969 168.773438 247.679688 Z M 176.882812 229.984375 C 176.953125 229.984375 177.023438 229.984375 177.097656 229.984375 C 177.234375 229.984375 177.371094 229.964844 177.503906 229.929688 C 177.640625 229.894531 177.769531 229.84375 177.890625 229.78125 C 178.011719 229.714844 178.125 229.636719 178.230469 229.546875 C 178.332031 229.453125 178.425781 229.351562 178.503906 229.238281 C 178.582031 229.125 178.648438 229.003906 178.699219 228.875 C 178.75 228.746094 178.785156 228.613281 178.800781 228.472656 C 178.820312 228.335938 178.824219 228.199219 178.808594 228.0625 C 178.796875 227.925781 178.765625 227.789062 178.71875 227.660156 L 172.121094 209.097656 L 170.1875 207.835938 C 169.910156 207.65625 169.640625 207.664062 169.382812 207.867188 C 169.121094 208.066406 169.039062 208.324219 169.144531 208.636719 C 171.042969 214.386719 175.996094 229.964844 176.878906 229.984375 Z M 179.59375 231.871094 C 182.621094 231.238281 191.933594 229.703125 197.609375 229.234375 C 197.914062 229.210938 198.042969 228.84375 197.734375 228.832031 C 191.394531 228.59375 187.246094 228.453125 178.503906 229.65625 L 178.320312 230.617188 C 178.285156 230.796875 178.292969 230.96875 178.347656 231.140625 C 178.398438 231.3125 178.492188 231.460938 178.617188 231.585938 C 178.746094 231.710938 178.894531 231.800781 179.066406 231.851562 C 179.238281 231.902344 179.414062 231.910156 179.589844 231.875 Z M 147.898438 221.089844 L 162.554688 207.921875 L 162.984375 205.65625 C 163.046875 205.332031 162.933594 205.085938 162.652344 204.921875 C 162.367188 204.757812 162.097656 204.78125 161.847656 204.996094 C 157.253906 208.9375 144.730469 219.449219 145.046875 220.273438 C 145.074219 220.339844 145.101562 220.40625 145.128906 220.472656 C 145.183594 220.601562 145.253906 220.71875 145.335938 220.832031 C 145.417969 220.941406 145.515625 221.039062 145.621094 221.128906 C 145.726562 221.21875 145.84375 221.292969 145.96875 221.351562 C 146.09375 221.414062 146.222656 221.460938 146.355469 221.488281 C 146.492188 221.519531 146.628906 221.53125 146.765625 221.53125 C 146.90625 221.527344 147.042969 221.507812 147.175781 221.476562 C 147.308594 221.441406 147.4375 221.390625 147.558594 221.324219 C 147.683594 221.257812 147.796875 221.179688 147.898438 221.089844 Z M 145.007812 221.84375 C 144.832031 221.878906 144.675781 221.953125 144.539062 222.070312 C 144.398438 222.183594 144.296875 222.324219 144.226562 222.488281 C 144.160156 222.65625 144.136719 222.828125 144.15625 223.007812 C 144.171875 223.183594 144.234375 223.347656 144.335938 223.496094 C 146.074219 226.058594 151.035156 234.085938 153.625 239.15625 C 153.765625 239.429688 154.15625 239.40625 154.046875 239.121094 C 151.859375 233.164062 150.410156 229.273438 145.96875 221.648438 Z M 131.429688 210.515625 C 131.433594 210.585938 131.441406 210.65625 131.449219 210.730469 C 131.46875 210.867188 131.5 211 131.546875 211.128906 C 131.597656 211.261719 131.660156 211.382812 131.734375 211.496094 C 131.8125 211.613281 131.902344 211.714844 132.003906 211.808594 C 132.105469 211.902344 132.21875 211.984375 132.339844 212.050781 C 132.460938 212.117188 132.585938 212.171875 132.722656 212.207031 C 132.855469 212.246094 132.992188 212.265625 133.128906 212.269531 C 133.265625 212.273438 133.402344 212.261719 133.539062 212.234375 C 133.675781 212.207031 133.804688 212.164062 133.929688 212.105469 L 151.714844 203.625 L 152.765625 201.570312 C 152.917969 201.277344 152.882812 201.011719 152.65625 200.773438 C 152.429688 200.535156 152.167969 200.480469 151.867188 200.617188 C 146.34375 203.097656 131.355469 209.636719 131.425781 210.515625 Z M 130.945312 212.007812 C 130.765625 211.992188 130.59375 212.019531 130.429688 212.09375 C 130.265625 212.164062 130.125 212.269531 130.015625 212.410156 C 129.902344 212.546875 129.832031 212.707031 129.796875 212.882812 C 129.765625 213.058594 129.777344 213.234375 129.832031 213.40625 C 130.773438 216.351562 133.261719 225.453125 134.308594 231.050781 C 134.367188 231.355469 134.746094 231.445312 134.726562 231.140625 C 134.308594 224.808594 134.023438 220.664062 131.921875 212.09375 Z M 156.191406 186.804688 C 156.191406 186.804688 156.191406 189.523438 157.550781 190.546875 C 158.914062 191.566406 179.660156 191.90625 182.71875 192.246094 C 182.71875 192.246094 178.976562 189.867188 174.898438 189.523438 C 170.816406 189.183594 156.191406 186.804688 156.191406 186.804688 Z M 158.234375 195.988281 L 156.363281 196.15625 L 162.824219 198.199219 L 168.777344 197.6875 C 168.777344 197.6875 160.101562 195.816406 158.230469 195.988281 Z M 117.875 176.722656 C 123.242188 174.761719 127.410156 172.335938 128.089844 172.4375 C 128.089844 172.4375 126.40625 171.792969 121.878906 172.125 C 118.78125 172.351562 117.769531 171.925781 116.144531 172.179688 C 114.78125 172.394531 114.902344 172.554688 114.675781 172.601562 C 114.675781 172.601562 116.570312 173.367188 116.984375 174.335938 C 117.449219 175.445312 117.28125 175.953125 116.515625 176.808594 C 116.515625 176.808594 116.9375 177.0625 117.875 176.722656 Z M 336.019531 186.308594 C 337.074219 191.15625 337.511719 196.058594 337.335938 201.015625 C 337.179688 205.386719 336.375 209.636719 334.914062 213.761719 C 333.652344 217.257812 331.859375 220.453125 329.53125 223.351562 C 327.652344 225.667969 325.476562 227.667969 323.011719 229.34375 C 321.203125 230.582031 319.289062 231.625 317.265625 232.476562 C 316.019531 233.003906 314.75 233.464844 313.457031 233.859375 L 312.121094 234.246094 L 313.449219 233.832031 C 314.730469 233.410156 315.988281 232.925781 317.222656 232.375 C 319.210938 231.488281 321.09375 230.410156 322.867188 229.144531 C 325.269531 227.429688 327.386719 225.417969 329.21875 223.105469 C 331.472656 220.214844 333.191406 217.035156 334.378906 213.570312 C 335.757812 209.488281 336.488281 205.296875 336.574219 200.988281 C 336.835938 191.824219 334.507812 181.496094 329.867188 171.222656 C 325.226562 160.933594 318.253906 150.683594 309.375 141.28125 C 307.160156 138.925781 304.828125 136.625 302.378906 134.375 C 301.765625 133.824219 301.148438 133.265625 300.53125 132.710938 L 298.625 131.054688 C 297.996094 130.515625 297.328125 129.992188 296.679688 129.460938 C 296.03125 128.925781 295.378906 128.390625 294.691406 127.894531 L 292.652344 126.367188 L 290.550781 124.90625 C 289.164062 123.90625 287.683594 123.019531 286.238281 122.074219 C 283.285156 120.273438 280.253906 118.527344 277.101562 116.949219 C 270.699219 113.714844 264.101562 110.945312 257.308594 108.640625 C 250.34375 106.289062 243.257812 104.359375 236.0625 102.855469 C 228.746094 101.320312 221.371094 100.175781 213.9375 99.417969 C 206.46875 98.65625 198.933594 98.265625 191.394531 98.191406 C 176.355469 98.039062 161.398438 99.078125 146.527344 101.304688 C 139.167969 102.410156 131.9375 103.679688 124.804688 105.257812 C 123.539062 105.527344 122.285156 105.8125 121.050781 106.179688 C 94.988281 112.148438 75.214844 119.796875 62.273438 128.910156 C 51.964844 136.167969 46.144531 144.371094 45.453125 152.632812 C 45.335938 154.082031 45.378906 155.53125 45.582031 156.972656 C 46.746094 156.953125 47.992188 156.925781 49.320312 156.976562 C 50.691406 156.988281 52.136719 157.101562 53.632812 157.1875 C 54.554688 157.265625 55.519531 157.394531 56.472656 157.507812 C 55.898438 155.265625 55.746094 152.996094 56.007812 150.699219 C 57.214844 140.289062 68.273438 121.097656 128.820312 109.679688 C 130 109.453125 131.175781 109.230469 132.359375 109.019531 C 134.027344 108.730469 135.683594 108.394531 137.375 108.140625 L 142.449219 107.347656 L 143.722656 107.148438 L 145.003906 106.976562 L 147.5625 106.636719 C 149.269531 106.414062 150.980469 106.167969 152.707031 106 C 166.648438 104.359375 180.636719 103.796875 194.667969 104.3125 C 201.710938 104.601562 208.742188 105.191406 215.707031 106.105469 C 222.636719 107.019531 229.503906 108.28125 236.304688 109.894531 C 242.996094 111.472656 249.574219 113.4375 256.039062 115.78125 C 262.335938 118.074219 268.445312 120.789062 274.371094 123.925781 C 277.285156 125.457031 280.085938 127.136719 282.8125 128.863281 C 284.148438 129.769531 285.511719 130.621094 286.792969 131.578125 L 288.722656 132.984375 L 290.589844 134.453125 C 291.21875 134.929688 291.816406 135.441406 292.414062 135.953125 C 293.007812 136.460938 293.613281 136.957031 294.195312 137.484375 C 294.769531 138.003906 295.339844 138.519531 295.910156 139.035156 L 297.59375 140.621094 C 299.808594 142.746094 301.914062 144.917969 303.914062 147.132812 C 311.910156 155.976562 318.09375 165.519531 322.09375 175.023438 C 324.039062 179.566406 325.484375 184.261719 326.429688 189.109375 C 327.28125 193.480469 327.5625 197.886719 327.269531 202.328125 C 327.011719 206.25 326.15625 210.035156 324.699219 213.683594 C 323.433594 216.796875 321.6875 219.613281 319.460938 222.132812 C 318.503906 223.203125 317.46875 224.195312 316.359375 225.109375 C 315.375 225.914062 314.34375 226.652344 313.261719 227.324219 C 311.546875 228.382812 309.746094 229.265625 307.859375 229.972656 C 306.6875 230.410156 305.5 230.789062 304.289062 231.105469 L 303.042969 231.414062 L 304.28125 231.078125 C 305.480469 230.738281 306.660156 230.339844 307.820312 229.878906 C 309.683594 229.140625 311.457031 228.226562 313.136719 227.136719 C 315.398438 225.675781 317.414062 223.929688 319.183594 221.898438 C 321.335938 219.382812 323.011719 216.582031 324.210938 213.496094 C 325.589844 209.882812 326.375 206.144531 326.566406 202.28125 C 327.042969 194.074219 325.152344 184.75 321.109375 175.414062 C 317.070312 166.066406 310.871094 156.6875 302.878906 148.011719 C 300.882812 145.839844 298.78125 143.714844 296.570312 141.632812 C 296.015625 141.117188 295.457031 140.601562 294.898438 140.085938 L 293.171875 138.550781 C 292.605469 138.050781 292 137.5625 291.414062 137.066406 C 290.828125 136.570312 290.230469 136.074219 289.609375 135.609375 L 287.757812 134.1875 L 285.847656 132.820312 C 284.585938 131.882812 283.238281 131.046875 281.921875 130.160156 C 279.230469 128.464844 276.464844 126.816406 273.582031 125.316406 C 267.71875 122.234375 261.671875 119.566406 255.445312 117.320312 C 249.039062 115.019531 242.519531 113.09375 235.890625 111.550781 C 229.144531 109.972656 222.335938 108.742188 215.46875 107.855469 C 208.5625 106.972656 201.585938 106.414062 194.597656 106.136719 C 180.664062 105.585938 166.773438 106.105469 152.917969 107.691406 C 146.070312 108.476562 139.332031 109.417969 132.675781 110.636719 C 131.496094 110.839844 130.328125 111.0625 129.171875 111.355469 C 104.859375 115.988281 86.328125 122.300781 74.09375 130.113281 C 64.347656 136.332031 58.746094 143.523438 57.890625 150.910156 C 57.625 153.230469 57.824219 155.511719 58.484375 157.753906 C 59.960938 157.964844 61.449219 158.21875 62.933594 158.523438 C 66.007812 159.164062 69.035156 159.964844 72.023438 160.925781 L 76.125 162.25 C 77.417969 162.65625 78.652344 162.996094 79.796875 163.273438 C 81.640625 163.722656 83.507812 164.042969 85.394531 164.242188 C 86.070312 164.308594 86.605469 164.339844 86.960938 164.351562 C 87.140625 164.359375 87.273438 164.363281 87.492188 164.363281 L 93.957031 166.738281 C 93.957031 166.738281 87.4375 165.90625 87.328125 165.902344 L 86.878906 165.875 C 86.492188 165.851562 85.933594 165.800781 85.226562 165.707031 C 83.285156 165.441406 81.367188 165.050781 79.476562 164.535156 C 78.308594 164.214844 77.054688 163.824219 75.75 163.371094 L 71.691406 161.925781 C 68.761719 160.886719 65.789062 160.003906 62.765625 159.273438 C 61.414062 158.953125 60.058594 158.6875 58.707031 158.445312 C 59.578125 161 60.90625 163.289062 62.683594 165.316406 C 65.847656 165.066406 69.015625 164.972656 72.1875 165.039062 C 79.332031 165.378906 88.851562 167.082031 92.59375 167.082031 C 92.59375 167.082031 100.074219 167.761719 102.457031 169.800781 C 102.457031 169.800781 95.316406 170.820312 89.535156 169.460938 C 80.957031 167.445312 72.261719 166.34375 63.449219 166.15625 C 65.425781 168.230469 67.722656 169.851562 70.335938 171.023438 C 80.636719 175.507812 92.335938 175.8125 100.789062 175.164062 C 100.667969 175.511719 100.605469 175.871094 100.601562 176.238281 C 100.601562 176.480469 100.625 176.71875 100.671875 176.957031 C 97.847656 177.152344 94.667969 177.246094 91.269531 177.144531 C 84.363281 176.941406 76.679688 175.789062 69.5625 172.691406 C 66.175781 171.167969 63.300781 168.976562 60.933594 166.113281 C 57.351562 166.09375 53.515625 166.222656 49.464844 166.539062 C 50.730469 168.324219 52.21875 169.902344 53.917969 171.277344 C 55.621094 172.652344 57.476562 173.773438 59.484375 174.640625 C 77.574219 182.140625 99.234375 177.441406 104.019531 176.195312 C 104.152344 176.160156 104.285156 176.152344 104.417969 176.167969 C 104.550781 176.1875 104.679688 176.230469 104.796875 176.296875 C 104.914062 176.367188 105.011719 176.457031 105.09375 176.5625 C 105.175781 176.671875 105.234375 176.789062 105.269531 176.921875 C 105.304688 177.054688 105.3125 177.1875 105.296875 177.320312 C 105.277344 177.457031 105.234375 177.582031 105.164062 177.699219 C 105.097656 177.816406 105.007812 177.917969 104.902344 178 C 104.792969 178.082031 104.671875 178.140625 104.542969 178.175781 C 101.582031 178.964844 92.925781 180.769531 82.234375 180.769531 C 74.785156 180.769531 66.46875 179.742188 58.707031 176.523438 C 56.339844 175.5 54.167969 174.152344 52.199219 172.484375 C 50.230469 170.816406 48.546875 168.894531 47.148438 166.726562 C 45.246094 163.824219 44.050781 160.65625 43.5625 157.21875 C 43.089844 157.230469 42.628906 157.25 42.199219 157.253906 C 41.230469 157.261719 40.386719 157.320312 39.691406 157.367188 L 37.5 157.503906 L 39.683594 157.300781 C 40.375 157.234375 41.21875 157.148438 42.191406 157.109375 C 42.613281 157.09375 43.066406 157.0625 43.53125 157.035156 C 43.332031 155.515625 43.296875 153.988281 43.421875 152.460938 C 44.398438 140.8125 55.726562 119.054688 120.621094 104.316406 C 121.882812 104.03125 123.144531 103.738281 124.414062 103.46875 C 126.203125 103.089844 127.976562 102.660156 129.792969 102.320312 L 135.238281 101.265625 L 136.605469 101.003906 L 137.976562 100.773438 L 140.726562 100.308594 C 142.558594 100.003906 144.394531 99.671875 146.246094 99.425781 C 161.21875 97.136719 176.273438 96.046875 191.417969 96.152344 C 199.015625 96.242188 206.613281 96.664062 214.144531 97.453125 C 221.644531 98.242188 229.082031 99.421875 236.457031 100.992188 C 243.726562 102.535156 250.875 104.503906 257.90625 106.902344 C 264.773438 109.253906 271.441406 112.078125 277.910156 115.375 C 281.097656 116.984375 284.167969 118.761719 287.160156 120.597656 C 288.625 121.566406 290.125 122.464844 291.53125 123.492188 L 293.65625 124.996094 L 295.714844 126.570312 C 296.40625 127.082031 297.066406 127.632812 297.722656 128.183594 C 298.382812 128.730469 299.046875 129.261719 299.691406 129.832031 L 301.585938 131.503906 C 302.207031 132.078125 302.828125 132.648438 303.449219 133.21875 C 305.902344 135.511719 308.238281 137.859375 310.460938 140.265625 C 319.355469 149.859375 326.308594 160.292969 330.914062 170.753906 C 333.152344 175.761719 334.855469 180.949219 336.019531 186.3125 Z M 45.621094 157.21875 C 46.148438 160.609375 47.414062 163.699219 49.421875 166.480469 C 51.941406 166.21875 56.121094 165.804688 60.410156 165.480469 C 58.675781 163.269531 57.414062 160.8125 56.628906 158.109375 C 55.605469 157.953125 54.578125 157.789062 53.585938 157.675781 C 52.105469 157.542969 50.671875 157.386719 49.304688 157.335938 C 48 157.246094 46.769531 157.234375 45.621094 157.21875 Z M 110.617188 171.160156 C 110.617188 171.160156 104.835938 169.121094 104.496094 170.140625 C 104.15625 171.160156 99.734375 172.183594 99.734375 172.183594 C 104.15625 171.839844 110.617188 171.160156 110.617188 171.160156 Z M 110.617188 171.160156 " fill-opacity="1" fill-rule="nonzero"/></g></svg>