<svg xmlns="http://www.w3.org/2000/svg" xmlns:xlink="http://www.w3.org/1999/xlink" width="500" zoomAndPan="magnify" viewBox="0 0 375 374.999991" height="500" preserveAspectRatio="xMidYMid meet" version="1.0"><defs><clipPath id="ee407b173b"><path d="M 187.5 0 C 83.945312 0 0 83.945312 0 187.5 C 0 291.054688 83.945312 375 187.5 375 C 291.054688 375 375 291.054688 375 187.5 C 375 83.945312 291.054688 0 187.5 0 Z M 187.5 0 " clip-rule="nonzero"/></clipPath><clipPath id="3a07b3e117"><path d="M 44.320312 78.125 L 339.726562 78.125 L 339.726562 297.042969 L 44.320312 297.042969 Z M 44.320312 78.125 " clip-rule="nonzero"/></clipPath></defs><g clip-path="url(#ee407b173b)"><rect x="-37.5" width="450" fill="#fec743" y="-37.499999" height="449.999989" fill-opacity="1"/></g><g clip-path="url(#3a07b3e117)"><path fill="#ffffff" d="M 329.921875 147.835938 C 328.761719 149.144531 327.671875 150.378906 326.65625 152.316406 C 325.832031 152.75 323.75 152.824219 320.871094 152.605469 C 319.707031 152.535156 318.425781 152.414062 317.019531 152.242188 C 309.902344 151.394531 300.078125 149.53125 291.191406 147.402344 C 290.492188 147.230469 289.742188 147.449219 289.257812 147.984375 C 288.894531 148.347656 280.589844 157.253906 278.703125 165.070312 C 276.644531 173.59375 271.125 179.0625 265.824219 184.363281 C 261.203125 188.9375 256.457031 193.683594 254.304688 200.195312 C 249.488281 214.839844 241.378906 220.164062 236.027344 223.675781 C 232.710938 225.851562 230.074219 227.59375 230.074219 230.476562 L 225.933594 274.238281 L 210.03125 274.238281 C 210.03125 257.246094 209.667969 236.480469 208.117188 229.023438 C 207.949219 223.070312 201.074219 201.476562 201.003906 201.257812 C 200.640625 200.195312 199.5 199.613281 198.460938 199.953125 C 197.394531 200.316406 196.816406 201.453125 197.179688 202.492188 C 198.847656 207.601562 202.648438 220.40625 203.761719 226.578125 C 195.652344 225.054688 183.378906 226.386719 171.472656 227.667969 C 159.949219 228.902344 148.039062 230.183594 141.117188 228.707031 C 131.96875 226.746094 125.699219 224.0625 120.6875 221.882812 C 114.539062 219.246094 110.28125 217.671875 105.972656 219.074219 C 110.351562 211.328125 111.683594 206.101562 112.578125 201.429688 C 112.796875 200.339844 112.070312 199.273438 110.980469 199.082031 C 109.917969 198.886719 108.851562 199.589844 108.632812 200.679688 C 107.398438 207.140625 105.269531 214.695312 94.132812 229.726562 C 94.039062 229.847656 94.011719 229.96875 93.941406 230.113281 C 83.265625 244.855469 79.828125 264.703125 78.789062 274.238281 L 62.882812 274.238281 L 62.882812 260.515625 C 62.882812 250.566406 63.488281 240.253906 67.96875 232.097656 C 68.71875 230.742188 70.265625 227.765625 72.300781 222.828125 C 74.453125 217.574219 73.535156 208.304688 72.375 196.5625 C 72.105469 193.78125 71.816406 190.921875 71.574219 188.042969 C 71.5 187.171875 71.429688 186.300781 71.355469 185.40625 C 71.308594 184.535156 71.234375 183.636719 71.164062 182.765625 C 70.628906 174.65625 70.558594 166.453125 71.816406 159.09375 C 72.832031 153.113281 74.867188 148.199219 77.554688 144.15625 C 78.496094 142.730469 79.515625 141.421875 80.601562 140.210938 C 82.902344 137.648438 85.515625 135.515625 88.300781 133.773438 C 99.21875 126.898438 112.675781 125.761719 120.15625 125.761719 C 145.910156 125.761719 157.601562 126.972656 172.390625 128.496094 C 177.0625 128.980469 182.050781 129.488281 187.835938 129.996094 C 191.5625 130.3125 195.605469 128.859375 200.277344 127.140625 C 204.996094 125.421875 210.371094 123.460938 215.960938 123.367188 C 217.800781 123.21875 223.78125 124.480469 229.058594 125.519531 C 235.277344 126.730469 241.160156 127.867188 243.726562 127.867188 C 251.421875 127.867188 260.839844 120.824219 270.761719 113.367188 C 279.742188 106.640625 289.039062 99.667969 295.40625 99.667969 C 317.480469 99.667969 328.542969 124.480469 333.867188 136.414062 C 334.449219 137.742188 334.980469 138.90625 335.464844 139.921875 C 333.164062 144.207031 331.445312 146.144531 329.921875 147.835938 Z M 229.46875 293.023438 L 213.636719 293.023438 L 209.957031 289.296875 C 209.984375 287.625 210.03125 283.558594 210.03125 278.257812 L 225.546875 278.257812 L 225.378906 280.050781 C 225.351562 280.316406 225.378906 280.605469 225.472656 280.871094 Z M 82.394531 293.023438 L 66.976562 293.023438 L 62.882812 284.9375 L 62.882812 278.257812 L 78.425781 278.257812 C 78.328125 279.46875 78.304688 280.171875 78.304688 280.171875 C 78.28125 280.410156 78.328125 280.628906 78.402344 280.871094 Z M 67.847656 158.414062 C 66.320312 167.25 66.660156 177.054688 67.410156 186.519531 L 63.851562 190.078125 C 61.40625 192.519531 57.851562 193.367188 54.558594 192.277344 C 50.832031 191.019531 48.335938 187.558594 48.335938 183.636719 L 48.335938 180.976562 C 48.335938 168 55.429688 156.117188 66.832031 149.941406 L 70.992188 147.691406 C 69.613281 150.863281 68.523438 154.421875 67.847656 158.414062 Z M 339.507812 139.050781 C 338.949219 137.9375 338.296875 136.484375 337.546875 134.765625 C 332.269531 122.976562 321.742188 99.351562 300.488281 96.039062 C 275.460938 67.449219 243.21875 81.585938 242.878906 81.730469 C 241.886719 82.191406 241.425781 83.378906 241.886719 84.371094 C 242.347656 85.386719 243.53125 85.847656 244.546875 85.386719 C 245.710938 84.855469 272.144531 73.40625 294.628906 95.699219 C 287.054688 96.132812 277.976562 102.9375 268.367188 110.148438 C 259.386719 116.878906 250.089844 123.847656 243.726562 123.847656 C 241.546875 123.847656 235.324219 122.640625 229.832031 121.574219 C 223.539062 120.339844 218.117188 119.324219 215.863281 119.324219 C 209.621094 119.46875 203.929688 121.527344 198.921875 123.367188 C 194.683594 124.914062 191.03125 126.222656 188.199219 125.980469 C 182.414062 125.472656 177.449219 124.964844 172.804688 124.480469 C 157.890625 122.953125 146.128906 121.742188 120.15625 121.742188 C 109.238281 121.742188 86.535156 123.996094 74.648438 141.15625 L 64.917969 146.410156 C 52.210938 153.285156 44.320312 166.523438 44.320312 180.976562 L 44.320312 183.636719 C 44.320312 189.300781 47.925781 194.289062 53.273438 196.078125 C 54.65625 196.539062 56.058594 196.757812 57.460938 196.757812 C 60.875 196.757812 64.191406 195.425781 66.710938 192.910156 L 67.871094 191.746094 C 68.039062 193.511719 68.210938 195.257812 68.378906 196.949219 C 69.394531 207.261719 70.363281 216.96875 68.574219 221.300781 C 66.613281 226.046875 65.160156 228.878906 64.457031 230.160156 C 59.542969 239.117188 58.867188 250.035156 58.867188 260.515625 L 58.867188 285.398438 C 58.867188 285.714844 58.9375 286.027344 59.085938 286.316406 L 63.925781 295.953125 C 64.265625 296.628906 64.964844 297.042969 65.742188 297.042969 L 85.179688 297.042969 C 85.808594 297.042969 86.414062 296.75 86.800781 296.21875 C 87.1875 295.710938 87.285156 295.03125 87.089844 294.402344 L 82.347656 279.976562 C 82.371094 279.394531 82.441406 278.160156 82.613281 276.441406 C 82.613281 276.441406 82.613281 276.441406 82.613281 276.417969 C 83.386719 268.089844 86.386719 247.082031 97.476562 232.097656 C 106.332031 220.117188 109.019531 221.253906 119.089844 225.585938 C 124.003906 227.691406 130.734375 230.597656 140.269531 232.628906 C 147.824219 234.25 159.515625 232.992188 171.90625 231.660156 C 184.300781 230.332031 197.082031 228.949219 204.367188 230.839844 C 205.457031 237.375 206.039062 253.351562 206.011719 276.25 C 206.011719 284.285156 205.941406 290.070312 205.941406 290.070312 C 205.917969 290.625 206.132812 291.136719 206.496094 291.523438 L 211.363281 296.460938 C 211.75 296.847656 212.257812 297.042969 212.789062 297.042969 L 232.226562 297.042969 C 232.882812 297.042969 233.488281 296.75 233.875 296.21875 C 234.238281 295.710938 234.359375 295.03125 234.140625 294.402344 L 229.421875 280 L 229.757812 276.441406 L 234.089844 230.667969 C 234.089844 229.75 236.003906 228.492188 238.230469 227.039062 C 243.703125 223.433594 252.875 217.429688 258.128906 201.453125 C 259.96875 195.863281 264.179688 191.648438 268.65625 187.21875 C 274.105469 181.796875 280.277344 175.648438 282.625 166.015625 C 283.929688 160.519531 289.378906 153.914062 291.410156 151.589844 C 301.941406 154.082031 310.339844 155.632812 316.609375 156.285156 C 316.171875 158.753906 315.230469 160.109375 314.332031 161.394531 C 313.316406 162.796875 312.203125 164.394531 312.203125 166.984375 C 312.203125 171.847656 313.171875 173.59375 313.582031 174.101562 C 313.996094 174.632812 314.625 174.898438 315.253906 174.898438 C 315.6875 174.898438 316.101562 174.777344 316.464844 174.488281 C 317.335938 173.808594 317.527344 172.601562 316.828125 171.753906 C 316.828125 171.726562 316.222656 170.613281 316.222656 166.984375 C 316.222656 165.726562 316.679688 165.046875 317.601562 163.714844 C 318.691406 162.191406 320.070312 160.207031 320.652344 156.574219 C 326.050781 156.792969 329.246094 156.066406 330.117188 154.347656 C 330.9375 152.75 331.835938 151.757812 332.949219 150.523438 C 334.617188 148.613281 336.722656 146.238281 339.507812 140.867188 C 339.796875 140.308594 339.796875 139.632812 339.507812 139.050781 " fill-opacity="1" fill-rule="nonzero"/></g><path fill="#ffffff" d="M 318.910156 119.128906 C 317.820312 119.128906 316.898438 120.050781 316.898438 121.164062 C 316.898438 122.253906 317.820312 123.171875 318.910156 123.171875 C 320.023438 123.171875 320.917969 122.253906 320.917969 121.164062 C 320.917969 120.050781 320.023438 119.128906 318.910156 119.128906 " fill-opacity="1" fill-rule="nonzero"/><path fill="#ffffff" d="M 296.132812 118.839844 C 295.015625 119.007812 294.242188 120 294.414062 121.113281 C 294.800781 124.117188 294.484375 126.414062 293.515625 127.527344 C 292.910156 128.207031 291.992188 128.546875 290.707031 128.546875 C 283.90625 128.546875 276.039062 119.007812 273.59375 115.328125 C 272.964844 114.410156 271.730469 114.167969 270.789062 114.773438 C 269.867188 115.402344 269.625 116.636719 270.253906 117.582031 C 270.640625 118.183594 280.347656 132.5625 290.707031 132.5625 C 293.203125 132.5625 295.164062 131.765625 296.542969 130.167969 C 298.359375 128.109375 298.964844 124.867188 298.382812 120.582031 C 298.238281 119.46875 297.21875 118.71875 296.132812 118.839844 " fill-opacity="1" fill-rule="nonzero"/></svg>