<?xml version="1.0" encoding="UTF-8" standalone="no"?>
<!DOCTYPE svg PUBLIC "-//W3C//DTD SVG 1.1//EN" "http://www.w3.org/Graphics/SVG/1.1/DTD/svg11.dtd">
<svg xmlns="http://www.w3.org/2000/svg" xmlns:xlink="http://www.w3.org/1999/xlink" version="1.1" width="158.74pt" height="158.74pt" viewBox="0 0 158.74 158.74">
<g enable-background="new">
<g id="Layer-1" data-name="Artifact">
<clipPath id="cp0">
<path transform="matrix(1,0,0,-1,0,158.74)" d="M 0 0 L 158.74 0 L 158.74 158.74 L 0 158.74 Z "/>
</clipPath>
<g clip-path="url(#cp0)">
<path transform="matrix(1,0,0,-1,158.738,79.368709)" d="M 0 0 L 0 79.369 L -80.719 79.369 L -80.719 79.335 C -123.924 78.614 -158.738 43.387 -158.738 -.004 C -158.738 -43.84 -123.201 -79.372 -79.373 -79.372 C -35.673 -79.372 -.227 -44.057 -.008 -.408 L 0 -.408 L 0 -.078 C 0 -.053 .002 -.029 .002 -.004 C .002 -.003 0 -.001 0 0 " fill="#808285"/>
<path transform="matrix(1,0,0,-1,155.4519,30.05571)" d="M 0 0 C -.001 .632 -.479 1.049 -1.029 1.048 C -1.584 1.047 -2.06 .628 -2.059 -.004 C -2.058 -.601 -1.628 -1.053 -1.025 -1.052 C -.475 -1.051 .001 -.632 0 0 M -.224 0 C -.223 -.514 -.576 -.868 -1.025 -.869 C -1.524 -.87 -1.834 -.48 -1.835 -.003 C -1.835 .508 -1.482 .865 -1.028 .866 C -.579 .866 -.225 .511 -.224 0 M -1.363 -.002 C -1.364 .231 -1.235 .419 -.999 .419 C -.839 .42 -.719 .322 -.69 .178 L -.5 .179 C -.537 .454 -.744 .602 -1 .602 C -1.364 .598 -1.588 .337 -1.588 -.003 C -1.587 -.365 -1.351 -.637 -.992 -.636 C -.745 -.636 -.543 -.47 -.496 -.203 L -.69 -.203 C -.709 -.349 -.827 -.453 -.992 -.454 C -1.22 -.454 -1.363 -.247 -1.363 -.002 M -1.811 -3.209 C -1.815 -.84 -3.221 .584 -5.567 .58 L -8.855 .574 L -8.842 -7.081 L -5.553 -7.075 C -3.229 -7.071 -1.807 -5.717 -1.811 -3.209 M -3.803 -3.202 C -3.801 -4.735 -4.4 -5.325 -5.91 -5.36 L -6.853 -5.362 L -6.86 -1.138 L -5.917 -1.136 C -4.557 -1.134 -3.806 -1.808 -3.803 -3.202 M -4.651 14.257 C -3.119 15.744 -2.792 17.895 -3.923 19.061 C -5.052 20.229 -7.212 19.968 -8.744 18.482 C -10.277 16.995 -10.603 14.845 -9.473 13.678 C -8.343 12.511 -6.184 12.77 -4.651 14.257 M -9.168 18.728 C -7.636 20.215 -7.309 22.367 -8.44 23.533 C -9.57 24.7 -11.728 24.44 -13.261 22.954 C -14.793 21.466 -15.12 19.316 -13.99 18.149 C -12.859 16.982 -10.701 17.241 -9.168 18.728 M -16.433 17.577 C -14.901 19.064 -14.574 21.215 -15.704 22.382 C -16.834 23.548 -18.994 23.29 -20.526 21.802 C -22.058 20.315 -22.384 18.165 -21.254 16.997 C -20.124 15.83 -17.965 16.09 -16.433 17.577 M -17.898 15.85 C -21.234 15.845 -23.934 13.133 -23.928 9.795 C -23.922 6.457 -21.213 3.754 -17.877 3.76 C -14.541 3.766 -11.841 6.478 -11.847 9.816 C -11.852 13.154 -14.562 15.856 -17.898 15.85 M -25.74 -7.723 C -25.75 -2.365 -30.097 1.969 -35.45 1.96 C -40.802 1.951 -45.134 -2.399 -45.124 -7.757 C -45.115 -13.114 -40.768 -17.449 -35.416 -17.44 C -30.063 -17.43 -25.731 -13.08 -25.74 -7.723 M -34.319 -5.732 L -35.593 -5.734 C -35.652 -5.663 -35.714 -5.595 -35.78 -5.53 C -36.346 -4.966 -37.125 -4.618 -37.987 -4.619 C -38.849 -4.621 -39.627 -4.972 -40.192 -5.538 C -40.756 -6.104 -41.103 -6.885 -41.101 -7.747 C -41.1 -8.61 -40.75 -9.389 -40.184 -9.954 C -39.617 -10.518 -38.839 -10.865 -37.976 -10.864 C -37.114 -10.862 -36.336 -10.512 -35.772 -9.946 C -35.734 -9.908 -35.698 -9.869 -35.662 -9.83 L -34.365 -9.828 C -35.085 -11.076 -36.433 -11.918 -37.977 -11.92 C -40.285 -11.924 -42.158 -10.056 -42.162 -7.747 C -42.166 -5.437 -40.299 -3.563 -37.992 -3.558 C -36.409 -3.556 -35.03 -4.434 -34.319 -5.732 M -36.687 -7.796 C -36.687 -7.878 -36.677 -7.957 -36.658 -8.035 C -36.639 -8.112 -36.608 -8.182 -36.566 -8.244 C -36.524 -8.306 -36.469 -8.356 -36.402 -8.393 C -36.334 -8.43 -36.252 -8.449 -36.156 -8.448 C -36.024 -8.448 -35.922 -8.408 -35.848 -8.327 C -35.774 -8.247 -35.73 -8.141 -35.714 -8.01 L -35.298 -8.009 C -35.309 -8.131 -35.337 -8.242 -35.382 -8.34 C -35.427 -8.439 -35.488 -8.523 -35.562 -8.592 C -35.637 -8.662 -35.724 -8.715 -35.824 -8.751 C -35.924 -8.788 -36.035 -8.806 -36.155 -8.807 C -36.304 -8.807 -36.439 -8.781 -36.558 -8.729 C -36.678 -8.678 -36.779 -8.606 -36.861 -8.515 C -36.943 -8.424 -37.006 -8.317 -37.05 -8.194 C -37.094 -8.071 -37.116 -7.939 -37.116 -7.796 C -37.116 -7.65 -37.095 -7.515 -37.051 -7.39 C -37.008 -7.265 -36.945 -7.156 -36.863 -7.063 C -36.781 -6.97 -36.681 -6.897 -36.561 -6.843 C -36.442 -6.79 -36.308 -6.764 -36.159 -6.763 C -36.051 -6.763 -35.949 -6.779 -35.854 -6.809 C -35.758 -6.84 -35.672 -6.885 -35.596 -6.944 C -35.521 -7.003 -35.458 -7.077 -35.409 -7.164 C -35.359 -7.252 -35.328 -7.352 -35.315 -7.465 L -35.731 -7.466 C -35.738 -7.416 -35.755 -7.371 -35.78 -7.33 C -35.806 -7.289 -35.838 -7.253 -35.876 -7.222 C -35.915 -7.192 -35.958 -7.167 -36.006 -7.15 C -36.055 -7.133 -36.105 -7.124 -36.158 -7.124 C -36.255 -7.125 -36.336 -7.143 -36.404 -7.181 C -36.471 -7.218 -36.526 -7.269 -36.568 -7.332 C -36.609 -7.395 -36.64 -7.466 -36.659 -7.546 C -36.678 -7.627 -36.687 -7.71 -36.687 -7.796 M -37.774 -8.027 L -37.777 -6.813 L -37.347 -6.812 L -37.345 -8.026 C -37.345 -8.291 -37.418 -8.488 -37.566 -8.616 C -37.713 -8.745 -37.917 -8.81 -38.178 -8.81 C -38.442 -8.811 -38.647 -8.747 -38.791 -8.62 C -38.937 -8.493 -39.009 -8.296 -39.01 -8.029 L -39.012 -6.815 L -38.583 -6.814 L -38.581 -8.029 C -38.581 -8.082 -38.576 -8.134 -38.567 -8.184 C -38.558 -8.236 -38.538 -8.281 -38.509 -8.32 C -38.48 -8.359 -38.439 -8.391 -38.387 -8.415 C -38.335 -8.44 -38.266 -8.452 -38.178 -8.452 C -38.025 -8.452 -37.92 -8.417 -37.861 -8.349 C -37.803 -8.28 -37.774 -8.173 -37.774 -8.027 M -39.752 -8.769 L -39.755 -6.816 L -39.326 -6.815 L -39.323 -8.768 Z M -33.411 -8.758 L -33.84 -8.759 L -34.654 -7.453 L -34.66 -7.453 L -34.657 -8.76 L -35.059 -8.761 L -35.062 -6.808 L -34.636 -6.807 L -33.819 -8.116 L -33.814 -8.116 L -33.816 -6.806 L -33.414 -6.805 Z M -25.883 13.411 L -25.887 23.05 L -35.532 23.033 C -40.852 23.024 -45.157 18.7 -45.147 13.378 C -45.138 8.053 -40.818 3.745 -35.499 3.754 C -30.18 3.763 -25.873 8.086 -25.883 13.411 M -19.6 .555 L -23.5 .548 L -23.486 -7.106 L -21.494 -7.103 L -21.499 -4.315 L -19.988 -4.313 C -19.056 -4.311 -18.926 -5.104 -18.871 -5.876 C -18.85 -6.09 -18.816 -6.841 -18.644 -7.098 L -16.673 -7.094 C -16.942 -6.816 -16.976 -5.69 -16.998 -5.369 C -17.063 -4.64 -17.301 -3.729 -18.115 -3.537 L -18.115 -3.516 C -17.312 -3.204 -16.917 -2.42 -16.919 -1.595 C -16.921 -.051 -18.251 .558 -19.6 .555 M -19.919 -1.043 C -19.362 -1.042 -18.911 -1.298 -18.911 -1.867 C -18.91 -2.445 -19.23 -2.768 -19.83 -2.769 L -21.501 -2.772 L -21.504 -1.046 Z M -21.492 -7.889 L -23.485 -7.893 L -23.471 -15.547 L -17.912 -15.538 L -17.915 -13.822 L -21.482 -13.828 Z M -15.376 -7.879 L -17.368 -7.882 L -17.355 -15.537 L -15.362 -15.533 Z M -9.96 11.264 C -11.492 9.778 -11.818 7.627 -10.688 6.46 C -9.558 5.293 -7.399 5.553 -5.868 7.039 C -4.334 8.526 -4.008 10.677 -5.139 11.845 C -6.268 13.011 -8.427 12.751 -9.96 11.264 M -13.977 -5.374 L -13.979 -3.916 L -10.23 -3.91 L -10.233 -2.366 L -13.982 -2.372 L -13.984 -1.033 L -9.881 -1.025 L -9.884 .572 L -15.979 .561 L -15.966 -7.093 L -9.764 -7.082 L -9.767 -5.367 Z M -12.86 -12.956 L -14.852 -12.959 C -14.838 -14.921 -13.284 -15.69 -11.527 -15.687 C -9.845 -15.684 -8.196 -15.06 -8.2 -13.119 C -8.202 -11.736 -9.317 -11.223 -10.421 -10.915 C -11.536 -10.606 -12.639 -10.5 -12.64 -9.911 C -12.641 -9.407 -12.106 -9.256 -11.677 -9.255 C -11.067 -9.254 -10.413 -9.478 -10.444 -10.175 L -8.451 -10.171 C -8.465 -8.445 -9.998 -7.708 -11.519 -7.711 C -12.955 -7.713 -14.635 -8.37 -14.633 -10.043 C -14.63 -11.447 -13.483 -11.938 -12.39 -12.247 C -11.286 -12.556 -10.193 -12.683 -10.192 -13.359 C -10.191 -13.927 -10.812 -14.142 -11.412 -14.143 C -12.258 -14.145 -12.816 -13.856 -12.86 -12.956 M -8.463 -9.582 L -6.181 -9.578 L -6.171 -15.517 L -4.178 -15.514 L -4.189 -9.574 L -1.907 -9.57 L -1.91 -7.855 L -8.466 -7.866 Z " fill="#ffffff"/>
</g>
<g id="Layer-1" data-name="Artifact">
</g>
<path transform="matrix(1,0,0,-1,72.8044,109.8943)" d="M 0 0 L 1.471 0 L 1.471 5.362 L 4.548 0 L 6.127 0 L 6.127 7.557 L 4.655 7.557 L 4.655 2.288 L 1.655 7.557 L 0 7.557 Z M 13.29 7.557 L 7.748 7.557 L 7.748 0 L 13.475 0 L 13.475 1.359 L 9.291 1.359 L 9.291 3.302 L 12.962 3.302 L 12.962 4.614 L 9.291 4.614 L 9.291 6.219 L 13.29 6.219 Z " fill="#ffffff"/>
<clipPath id="cp1">
<path transform="matrix(1,0,0,-1,0,158.74)" d="M 0 0 L 158.74 0 L 158.74 158.74 L 0 158.74 Z "/>
</clipPath>
<g clip-path="url(#cp1)">
<path transform="matrix(1,0,0,-1,41.9907,82.41881)" d="M 0 0 L -8.709 0 L -8.709 -11.875 L .29 -11.875 L .29 -9.74 L -6.284 -9.74 L -6.284 -6.687 L -.516 -6.687 L -.516 -4.625 L -6.284 -4.625 L -6.284 -2.103 L 0 -2.103 Z M 6.273 -9.015 L 3.695 0 L 1.044 0 L 5.061 -11.875 L 7.405 -11.875 L 11.454 0 L 8.875 0 Z M 16.282 -2.715 L 17.782 -7.388 L 14.74 -7.388 Z M 10.665 -11.875 L 13.26 -11.875 L 14.065 -9.434 L 18.439 -9.434 L 19.222 -11.875 L 21.913 -11.875 L 17.712 0 L 14.904 0 Z M 23.034 -11.875 L 31.446 -11.875 L 31.446 -9.74 L 25.516 -9.74 L 25.516 0 L 23.034 0 Z M 32.493 -7.299 C 32.493 -8.562 32.689 -9.544 33.08 -10.248 C 33.815 -11.537 35.209 -12.182 37.262 -12.182 C 39.316 -12.182 40.708 -11.537 41.437 -10.248 C 41.828 -9.544 42.024 -8.562 42.024 -7.299 L 42.024 0 L 39.502 0 L 39.502 -7.294 C 39.502 -8.109 39.406 -8.705 39.213 -9.081 C 38.913 -9.746 38.263 -10.079 37.262 -10.079 C 36.256 -10.079 35.603 -9.746 35.304 -9.081 C 35.111 -8.705 35.015 -8.109 35.015 -7.294 L 35.015 0 L 32.493 0 Z M 48.278 -2.715 L 49.778 -7.388 L 46.737 -7.388 Z M 42.661 -11.875 L 45.257 -11.875 L 46.062 -9.434 L 50.435 -9.434 L 51.219 -11.875 L 53.91 -11.875 L 49.708 0 L 46.9 0 Z M 52.834 0 L 52.834 -2.103 L 56.403 -2.103 L 56.403 -11.875 L 58.9 -11.875 L 58.9 -2.103 L 62.453 -2.103 L 62.453 0 Z M 72.299 0 L 63.59 0 L 63.59 -11.875 L 72.589 -11.875 L 72.589 -9.74 L 66.015 -9.74 L 66.015 -6.687 L 71.784 -6.687 L 71.784 -4.625 L 66.015 -4.625 L 66.015 -2.103 L 72.299 -2.103 Z M 78.839 -2.063 C 79.969 -2.063 80.723 -2.386 81.102 -3.033 C 81.482 -3.681 81.671 -4.608 81.671 -5.817 C 81.671 -6.692 81.545 -7.447 81.292 -8.081 C 80.829 -9.236 80.012 -9.813 78.839 -9.813 L 76.547 -9.813 L 76.547 -2.063 Z M 79.258 0 L 74.138 0 L 74.138 -11.875 L 79.258 -11.875 C 81.054 -11.875 82.382 -11.137 83.242 -9.66 C 83.876 -8.564 84.193 -7.227 84.193 -5.648 C 84.193 -5.025 84.118 -4.369 83.967 -3.682 C 83.817 -2.994 83.535 -2.355 83.121 -1.764 C 82.604 -1.034 81.93 -.532 81.097 -.258 C 80.608 -.097 79.995 -.011 79.258 0 " fill="#ffffff"/>
<path transform="matrix(1,0,0,-1,63.2283,76.694309)" d="M 0 0 L 2.312 0 L 2.312 8.426 L 7.147 0 L 9.628 0 L 9.628 11.875 L 7.315 11.875 L 7.315 3.595 L 2.601 11.875 L 0 11.875 Z M 17.245 1.772 C 16.262 1.772 15.478 2.135 14.893 2.86 C 14.307 3.585 14.015 4.616 14.015 5.954 C 14.015 7.291 14.307 8.323 14.893 9.048 C 15.478 9.773 16.262 10.135 17.245 10.135 C 18.228 10.135 19.008 9.771 19.586 9.044 C 20.163 8.316 20.452 7.286 20.452 5.954 C 20.452 4.616 20.163 3.585 19.586 2.86 C 19.008 2.135 18.228 1.772 17.245 1.772 M 22.933 5.954 C 22.933 8.129 22.334 9.762 21.137 10.852 C 20.24 11.776 18.942 12.238 17.245 12.238 C 15.548 12.238 14.251 11.776 13.354 10.852 C 12.151 9.762 11.549 8.129 11.549 5.954 C 11.549 3.821 12.151 2.189 13.354 1.055 C 14.251 .132 15.548 -.33 17.245 -.33 C 18.942 -.33 20.24 .132 21.137 1.055 C 22.334 2.189 22.933 3.821 22.933 5.954 M 23.687 11.875 L 23.687 9.773 L 27.256 9.773 L 27.256 0 L 29.754 0 L 29.754 9.773 L 33.307 9.773 L 33.307 11.875 Z " fill="#ffffff"/>
</g>
</g>
</g>
</svg>
