<svg xmlns="http://www.w3.org/2000/svg" xmlns:xlink="http://www.w3.org/1999/xlink" width="500" zoomAndPan="magnify" viewBox="0 0 375 374.999991" height="500" preserveAspectRatio="xMidYMid meet" version="1.0"><defs><clipPath id="e94da8e58c"><path d="M 187.5 0 C 83.945312 0 0 83.945312 0 187.5 C 0 291.054688 83.945312 375 187.5 375 C 291.054688 375 375 291.054688 375 187.5 C 375 83.945312 291.054688 0 187.5 0 Z M 187.5 0 " clip-rule="nonzero"/></clipPath><clipPath id="4d3091d1eb"><path d="M 108 67.613281 L 151 67.613281 L 151 154 L 108 154 Z M 108 67.613281 " clip-rule="nonzero"/></clipPath><clipPath id="ff38cfa980"><path d="M 225 67.613281 L 268 67.613281 L 268 154 L 225 154 Z M 225 67.613281 " clip-rule="nonzero"/></clipPath><clipPath id="1d6e3511b5"><path d="M 69.859375 162.753906 L 305.359375 162.753906 L 305.359375 307.585938 L 69.859375 307.585938 Z M 69.859375 162.753906 " clip-rule="nonzero"/></clipPath><clipPath id="4b2b7a5ad3"><path d="M 69.859375 186 L 108 186 L 108 191 L 69.859375 191 Z M 69.859375 186 " clip-rule="nonzero"/></clipPath><clipPath id="0c25367f65"><path d="M 267 186 L 305.359375 186 L 305.359375 191 L 267 191 Z M 267 186 " clip-rule="nonzero"/></clipPath></defs><g clip-path="url(#e94da8e58c)"><rect x="-37.5" width="450" fill="#58a39d" y="-37.499999" height="449.999989" fill-opacity="1"/></g><path stroke-linecap="round" transform="matrix(0.00959702, 0, 0, -0.00959732, 69.860611, 307.584179)" fill="none" stroke-linejoin="round" d="M 8701.707144 14875.38656 L 3631.368476 14875.38656 L 3631.368476 16299.937677 L 8701.707144 16299.937677 Z M 8701.707144 14875.38656 " stroke="#ffffff" stroke-width="425.55399" stroke-opacity="1" stroke-miterlimit="10"/><path stroke-linecap="round" transform="matrix(0.009041, 0, 0, -0.00904128, 69.860611, 307.584179)" fill="none" stroke-linejoin="round" d="M 4400.388863 15790.224589 L 5077.426035 13124.500452 L 8014.134175 13124.500452 L 8690.739287 15790.224589 " stroke="#ffffff" stroke-width="451.716" stroke-opacity="1" stroke-miterlimit="10"/><path stroke-linecap="round" transform="matrix(0.0129576, 0, 0, -0.012958, 69.860611, 307.584179)" fill="none" stroke-linejoin="round" d="M 2690.779771 12072.553462 C 2689.875377 12072.553462 2689.875377 12072.553462 2689.875377 12072.553462 C 1521.699119 12792.127699 740.905181 14082.055709 740.905181 15554.967197 C 740.905181 15809.395625 764.117974 16058.397853 809.3377 16299.863695 C 1684.490133 16266.402136 2488.195398 15956.5059 3138.45506 15454.281066 C 3819.16267 14927.939793 4330.748504 14192.388416 4572.523307 13342.58541 C 4674.418423 12985.360663 4728.983559 12609.445676 4728.983559 12219.663737 C 4728.983559 12170.225038 4728.079165 12120.786339 4726.873305 12072.553462 " stroke="#ffffff" stroke-width="315.172" stroke-opacity="1" stroke-miterlimit="10"/><path stroke-linecap="round" transform="matrix(0.0129576, 0, 0, -0.012958, 69.860611, 307.584179)" fill="none" stroke-linejoin="round" d="M 6005.385695 15453.075244 C 6654.740961 15956.5059 7460.556481 16266.402136 8335.708913 16299.863695 C 8380.928639 16058.397853 8403.839967 15809.395625 8403.839967 15554.967197 C 8403.839967 14078.136788 7619.126987 12783.686945 6444.619967 12066.222896 " stroke="#ffffff" stroke-width="315.172" stroke-opacity="1" stroke-miterlimit="10"/><g clip-path="url(#4d3091d1eb)"><path stroke-linecap="round" transform="matrix(0.0145949, 0, 0, -0.0145953, 69.860611, 307.584179)" fill="none" stroke-linejoin="round" d="M 4747.13639 10718.464525 C 5149.139325 11404.95284 5379.581754 12203.313326 5379.581754 13056.806986 C 5379.581754 13281.621873 5362.720113 13502.689845 5331.940926 13720.010902 C 5190.089025 14717.225508 4730.274749 15612.470504 4059.556136 16300.029366 C 3388.034587 15612.470504 2929.290891 14717.225508 2786.368409 13721.081449 " stroke="#ffffff" stroke-width="279.823" stroke-opacity="1" stroke-miterlimit="10"/></g><path stroke-linecap="round" transform="matrix(0.0113428, 0, 0, -0.0113432, 69.860611, 307.584179)" fill="none" stroke-linejoin="round" d="M 4423.799109 13784.612237 C 4423.799109 13784.612237 4295.000913 15435.864055 2854.802904 16299.887165 " stroke="#ffffff" stroke-width="360.056" stroke-opacity="1" stroke-miterlimit="10"/><path stroke-linecap="round" transform="matrix(0.0123193, 0, 0, -0.0123197, 69.860611, 307.584179)" fill="none" stroke-linejoin="round" d="M 4803.731118 16300.035408 C 5048.520418 15573.617183 5012.05569 14813.90611 4809.438641 14034.536403 " stroke="#ffffff" stroke-width="331.51401" stroke-opacity="1" stroke-miterlimit="10"/><path stroke-linecap="round" transform="matrix(0.0116783, 0, 0, -0.0116786, 69.860611, 307.584179)" fill="none" stroke-linejoin="round" d="M 6473.259367 14629.608296 C 6931.509269 14946.693995 7478.064261 15475.839118 7732.275885 16299.994354 " stroke="#ffffff" stroke-width="349.702" stroke-opacity="1" stroke-miterlimit="10"/><path stroke-linecap="round" transform="matrix(0.009041, 0, 0, -0.00904128, 69.860611, 307.584179)" fill="none" stroke-linejoin="round" d="M 6545.132015 10484.699078 L 6545.132015 13124.068406 " stroke="#ffffff" stroke-width="451.716" stroke-opacity="1" stroke-miterlimit="10"/><path stroke-linecap="round" transform="matrix(0.009041, 0, 0, -0.00904128, 69.860611, 307.584179)" fill="none" stroke-linejoin="round" d="M 5077.426035 13124.500452 L 5077.426035 12137.275224 L 4197.320917 11257.197418 L 4197.320917 10407.362835 " stroke="#ffffff" stroke-width="451.716" stroke-opacity="1" stroke-miterlimit="10"/><path stroke-linecap="round" transform="matrix(0.009041, 0, 0, -0.00904128, 69.860611, 307.584179)" fill="none" stroke-linejoin="round" d="M 5077.426035 12137.275224 L 5470.168082 10407.362835 " stroke="#ffffff" stroke-width="451.716" stroke-opacity="1" stroke-miterlimit="10"/><path stroke-linecap="round" transform="matrix(0.009041, 0, 0, -0.00904128, 69.860611, 307.584179)" fill="none" stroke-linejoin="round" d="M 8007.221223 13124.500452 L 8007.221223 12137.275224 L 8887.32634 11257.197418 L 8887.32634 10407.362835 " stroke="#ffffff" stroke-width="451.716" stroke-opacity="1" stroke-miterlimit="10"/><path stroke-linecap="round" transform="matrix(0.009041, 0, 0, -0.00904128, 69.860611, 307.584179)" fill="none" stroke-linejoin="round" d="M 8007.221223 12137.275224 L 7614.479175 10407.362835 " stroke="#ffffff" stroke-width="451.716" stroke-opacity="1" stroke-miterlimit="10"/><path stroke-linecap="round" transform="matrix(0.0123021, 0, 0, -0.0123025, 69.860611, 307.584179)" fill="none" stroke-linejoin="round" d="M 16299.849208 11604.486053 L 12344.410839 11604.486053 L 12344.410839 12715.797245 L 16299.849208 12715.797245 Z M 16299.849208 11604.486053 " stroke="#ffffff" stroke-width="331.98199" stroke-opacity="1" stroke-miterlimit="10"/><path stroke-linecap="round" transform="matrix(0.0119992, 0, 0, -0.0119996, 69.860611, 307.584179)" fill="none" stroke-linejoin="round" d="M 13067.156861 11897.396309 L 13576.955789 9888.863984 L 15789.990982 9888.863984 L 16300.115452 11897.396309 " stroke="#ffffff" stroke-width="340.35699" stroke-opacity="1" stroke-miterlimit="10"/><path stroke-linecap="round" transform="matrix(0.0129576, 0, 0, -0.012958, 69.860611, 307.584179)" fill="none" stroke-linejoin="round" d="M 11720.857609 12072.553462 C 11719.953215 12072.553462 11719.953215 12072.553462 11719.953215 12072.553462 C 10551.475492 12792.127699 9770.98302 14082.055709 9770.98302 15554.967197 C 9770.98302 15809.395625 9794.195812 16058.397853 9839.415539 16299.863695 C 10714.266506 16266.402136 11517.971772 15956.5059 12168.532898 15454.281066 C 12849.240508 14927.939793 13360.826343 14192.388416 13602.29968 13342.58541 C 13704.496261 12985.360663 13759.061397 12609.445676 13759.061397 12219.663737 C 13759.061397 12170.225038 13757.855538 12120.786339 13756.951143 12072.553462 " stroke="#ffffff" stroke-width="315.172" stroke-opacity="1" stroke-miterlimit="10"/><path stroke-linecap="round" transform="matrix(0.0138599, 0, 0, -0.0138603, 69.860611, 307.584179)" fill="none" stroke-linejoin="round" d="M 14057.483277 14448.190222 C 14664.564777 14918.565153 15417.92079 15208.286801 16236.099804 15239.851805 C 16278.375674 15013.823827 16300.077288 14781.03192 16300.077288 14543.448896 C 16300.077288 13162.479954 15566.168176 11952.300233 14468.122899 11281.543889 " stroke="#ffffff" stroke-width="294.673" stroke-opacity="1" stroke-miterlimit="10"/><g clip-path="url(#ff38cfa980)"><path stroke-linecap="round" transform="matrix(0.0145949, 0, 0, -0.0145953, 69.860611, 307.584179)" fill="none" stroke-linejoin="round" d="M 12764.177624 10718.464525 C 13166.180559 11404.95284 13396.622988 12203.313326 13396.622988 13056.806986 C 13396.622988 13281.621873 13379.761347 13502.689845 13348.98216 13720.010902 C 13207.397904 14717.225508 12747.583628 15612.470504 12076.865015 16300.029366 C 11405.343466 15612.470504 10946.332125 14717.225508 10803.677288 13721.081449 " stroke="#ffffff" stroke-width="279.823" stroke-opacity="1" stroke-miterlimit="10"/></g><path stroke-linecap="round" transform="matrix(0.0113428, 0, 0, -0.0113432, 69.860611, 307.584179)" fill="none" stroke-linejoin="round" d="M 14739.708085 13784.612237 C 14739.708085 13784.612237 14610.909889 15435.864055 13170.711881 16299.887165 " stroke="#ffffff" stroke-width="360.056" stroke-opacity="1" stroke-miterlimit="10"/><path stroke-linecap="round" transform="matrix(0.0123193, 0, 0, -0.0123197, 69.860611, 307.584179)" fill="none" stroke-linejoin="round" d="M 14301.999853 16300.035408 C 14546.789152 15573.617183 14510.324425 14813.90611 14307.707375 14034.536403 " stroke="#ffffff" stroke-width="331.51401" stroke-opacity="1" stroke-miterlimit="10"/><path stroke-linecap="round" transform="matrix(0.012718, 0, 0, -0.0127184, 69.860611, 307.584179)" fill="none" stroke-linejoin="round" d="M 15143.945118 13433.30871 C 15564.732405 13724.472178 16066.605709 14210.358892 16300.035153 14967.1382 " stroke="#ffffff" stroke-width="321.10501" stroke-opacity="1" stroke-miterlimit="10"/><path stroke-linecap="round" transform="matrix(0.0108085, 0, 0, -0.0108089, 69.860611, 307.584179)" fill="none" stroke-linejoin="round" d="M 16299.964319 8769.775222 L 16299.964319 10977.528578 " stroke="#ffffff" stroke-width="377.836" stroke-opacity="1" stroke-miterlimit="10"/><path stroke-linecap="round" transform="matrix(0.00999483, 0, 0, -0.00999514, 69.860611, 307.584179)" fill="none" stroke-linejoin="round" d="M 16300.106183 11872.002872 L 16300.106183 10978.990542 L 15503.991185 10182.900337 L 15503.991185 9414.167185 " stroke="#ffffff" stroke-width="408.616" stroke-opacity="1" stroke-miterlimit="10"/><path stroke-linecap="round" transform="matrix(0.0102127, 0, 0, -0.010213, 69.860611, 307.584179)" fill="none" stroke-linejoin="round" d="M 15952.344485 10744.754314 L 16300.026916 9213.316387 " stroke="#ffffff" stroke-width="399.896" stroke-opacity="1" stroke-miterlimit="10"/><path stroke-linecap="round" transform="matrix(0.0121077, 0, 0, -0.0121081, 69.860611, 307.584179)" fill="none" stroke-linejoin="round" d="M 15643.018071 9799.931499 L 15643.018071 9062.756158 L 16299.882646 8405.589344 L 16299.882646 7771.005582 " stroke="#ffffff" stroke-width="337.29501" stroke-opacity="1" stroke-miterlimit="10"/><path stroke-linecap="round" transform="matrix(0.0116204, 0, 0, -0.0116208, 69.860611, 307.584179)" fill="none" stroke-linejoin="round" d="M 16300.029232 9443.481921 L 15994.464719 8097.560816 " stroke="#ffffff" stroke-width="351.46301" stroke-opacity="1" stroke-miterlimit="10"/><g clip-path="url(#1d6e3511b5)"><path stroke-linecap="round" transform="matrix(0.0143228, 0, 0, -0.0143232, 69.860611, 307.584179)" fill="none" stroke-linejoin="round" d="M 14686.716265 9965.952794 L 16299.916339 9965.952794 L 16299.916339 142.510769 L 142.551674 142.510769 L 142.551674 9965.952794 L 1785.752087 9965.952794 " stroke="#ffffff" stroke-width="285.13101" stroke-opacity="1" stroke-miterlimit="10"/></g><path stroke-linecap="round" transform="matrix(0.009041, 0, 0, -0.00904128, 69.860611, 307.584179)" fill="none" stroke-linejoin="round" d="M 10326.084338 15788.496405 L 15684.485743 15788.496405 " stroke="#ffffff" stroke-width="451.716" stroke-opacity="1" stroke-miterlimit="10"/><g clip-path="url(#4b2b7a5ad3)"><path stroke-linecap="round" transform="matrix(0.009041, 0, 0, -0.00904128, 69.860611, 307.584179)" fill="none" stroke-linejoin="round" d="M 225.830374 13124.500452 L 3919.938745 13124.500452 " stroke="#ffffff" stroke-width="451.716" stroke-opacity="1" stroke-miterlimit="10"/></g><g clip-path="url(#0c25367f65)"><path stroke-linecap="round" transform="matrix(0.0143011, 0, 0, -0.0143015, 69.860611, 307.584179)" fill="none" stroke-linejoin="round" d="M 16300.064277 8297.192359 L 13982.436105 8297.192359 " stroke="#ffffff" stroke-width="285.57501" stroke-opacity="1" stroke-miterlimit="10"/></g><path stroke-linecap="round" transform="matrix(0.00935292, 0, 0, -0.00935321, 69.860611, 307.584179)" fill="none" stroke-linejoin="round" d="M 8928.818668 12838.408521 L 16299.932996 12838.408521 " stroke="#ffffff" stroke-width="436.66101" stroke-opacity="1" stroke-miterlimit="10"/><path stroke-linecap="round" transform="matrix(0.009041, 0, 0, -0.00904128, 69.860611, 307.584179)" fill="none" stroke-linejoin="round" d="M 373.162649 7534.688639 C 1480.531042 7534.688639 2472.539559 8029.381368 3140.935541 8809.224491 C 3290.860173 8984.203142 3564.35381 8984.203142 3714.278443 8809.224491 C 4382.674425 8029.381368 5374.250883 7534.688639 6482.051334 7534.688639 C 7589.851786 7534.688639 8581.428244 8028.949322 9249.824226 8808.792445 C 9399.748858 8984.203142 9673.242496 8984.203142 9823.167128 8808.792445 C 10491.56311 8028.949322 11483.139568 7534.688639 12590.94002 7534.688639 C 13698.740471 7534.256593 14690.316929 8028.949322 15358.712911 8808.792445 " stroke="#ffffff" stroke-width="451.716" stroke-opacity="1" stroke-miterlimit="10"/><path stroke-linecap="round" transform="matrix(0.0142477, 0, 0, -0.0142482, 69.860611, 307.584179)" fill="none" stroke-linejoin="round" d="M 6790.751002 2395.197491 C 7214.88706 1900.341792 7844.099893 1586.430559 8547.063598 1586.430559 C 9249.753137 1586.430559 9879.240136 1900.067634 10303.376194 2394.923333 C 10398.512078 2506.231595 10572.05967 2506.231595 10667.195553 2394.923333 C 11091.331611 1900.067634 11720.544444 1586.430559 12423.50815 1586.430559 C 13126.471855 1586.156401 13755.684688 1900.067634 14179.820746 2394.923333 C 14275.230796 2506.231595 14448.504221 2506.231595 14543.914272 2394.923333 C 14967.776163 1900.067634 15597.263163 1586.156401 16299.952701 1586.156401 " stroke="#ffffff" stroke-width="286.64301" stroke-opacity="1" stroke-miterlimit="10"/><path stroke-linecap="round" transform="matrix(0.009041, 0, 0, -0.00904128, 69.860611, 307.584179)" fill="none" stroke-linejoin="round" d="M 8573.219114 5473.828974 L 7155.63203 4650.781246 C 6596.547091 5237.93183 5806.742401 5603.874836 4931.389938 5603.874836 C 3859.450421 5603.874836 2915.832563 5055.17635 2366.684991 4223.487702 C 2916.696682 3391.799053 3859.450421 2843.532614 4931.389938 2843.532614 C 5806.310341 2843.532614 6596.115032 3209.475619 7155.63203 3796.626203 L 8573.219114 2973.578475 Z M 8573.219114 5473.828974 " stroke="#ffffff" stroke-width="451.716" stroke-opacity="1" stroke-miterlimit="10"/><path stroke-linecap="round" transform="matrix(0.0126592, 0, 0, -0.0126596, 69.860611, 307.584179)" fill="none" stroke-linejoin="round" d="M 16300.102094 6407.114284 L 15287.376007 5819.307044 C 14888.086685 6238.331838 14324.329658 6499.990913 13698.858671 6499.990913 C 12933.605565 6499.990913 12259.38055 6107.81086 11867.496902 5513.832416 C 12259.997689 4919.853972 12933.605565 4528.291039 13698.858671 4528.291039 C 14324.021088 4528.291039 14888.086685 4789.641555 15287.684577 5208.974908 L 16300.102094 4621.167669 Z M 16300.102094 6407.114284 " stroke="#ffffff" stroke-width="322.60999" stroke-opacity="1" stroke-miterlimit="10"/></svg>