<svg xmlns="http://www.w3.org/2000/svg" xmlns:xlink="http://www.w3.org/1999/xlink" width="500" zoomAndPan="magnify" viewBox="0 0 375 374.999991" height="500" preserveAspectRatio="xMidYMid meet" version="1.0"><defs><clipPath id="b8a53ae102"><path d="M 187.5 0 C 83.945312 0 0 83.945312 0 187.5 C 0 291.054688 83.945312 375 187.5 375 C 291.054688 375 375 291.054688 375 187.5 C 375 83.945312 291.054688 0 187.5 0 Z M 187.5 0 " clip-rule="nonzero"/></clipPath><clipPath id="e1452c70b2"><path d="M 129 71.371094 L 142 71.371094 L 142 117 L 129 117 Z M 129 71.371094 " clip-rule="nonzero"/></clipPath><clipPath id="8612fd3252"><path d="M 71.078125 113 L 115 113 L 115 132 L 71.078125 132 Z M 71.078125 113 " clip-rule="nonzero"/></clipPath><clipPath id="288084da27"><path d="M 280 110 L 303.578125 110 L 303.578125 123 L 280 123 Z M 280 110 " clip-rule="nonzero"/></clipPath><clipPath id="1e257a157c"><path d="M 232 71.371094 L 238 71.371094 L 238 95 L 232 95 Z M 232 71.371094 " clip-rule="nonzero"/></clipPath><clipPath id="2fda3ea9b9"><path d="M 109 265 L 156 265 L 156 303.871094 L 109 303.871094 Z M 109 265 " clip-rule="nonzero"/></clipPath></defs><g clip-path="url(#b8a53ae102)"><rect x="-37.5" width="450" fill="#fec743" y="-37.499999" height="449.999989" fill-opacity="1"/></g><path fill="#ffffff" d="M 140.453125 147.335938 C 142.339844 146.019531 144.335938 144.980469 146.378906 144.226562 C 146.746094 141.886719 146.203125 139.492188 144.835938 137.53125 C 143.425781 135.515625 141.316406 134.167969 138.894531 133.742188 C 136.464844 133.3125 134.027344 133.851562 132.011719 135.261719 C 129.996094 136.671875 128.648438 138.78125 128.21875 141.203125 C 127.789062 143.625 128.332031 146.070312 129.738281 148.085938 C 131.109375 150.042969 133.171875 151.375 135.496094 151.835938 C 136.90625 150.175781 138.566406 148.65625 140.453125 147.335938 Z M 140.453125 147.335938 " fill-opacity="1" fill-rule="nonzero"/><path fill="#ffffff" d="M 119.347656 117.144531 C 117.519531 118.421875 116.46875 120.03125 116.175781 121.8125 C 116.175781 121.847656 116.191406 121.878906 116.1875 121.917969 C 116.183594 121.992188 116.144531 122.054688 116.128906 122.128906 C 115.925781 123.945312 116.503906 125.933594 117.910156 127.941406 C 120.1875 131.207031 123.371094 134.082031 126.488281 135.761719 C 127.378906 134.398438 128.527344 133.203125 129.902344 132.238281 C 131.277344 131.277344 132.796875 130.613281 134.382812 130.246094 C 133.871094 126.738281 132.265625 122.761719 129.984375 119.5 C 128.5625 117.464844 126.824219 116.210938 124.957031 115.816406 C 124.941406 115.8125 124.929688 115.820312 124.914062 115.816406 C 124.894531 115.808594 124.882812 115.792969 124.863281 115.789062 C 124.820312 115.78125 124.78125 115.761719 124.742188 115.753906 C 122.957031 115.453125 121.09375 115.925781 119.347656 117.144531 Z M 119.347656 117.144531 " fill-opacity="1" fill-rule="nonzero"/><path fill="#ffffff" d="M 92.226562 103.027344 C 93.261719 105.871094 94.625 108.429688 96.394531 110.625 C 101.742188 117.242188 109.191406 119.171875 112.921875 119.738281 C 113.625 117.589844 115.066406 115.644531 117.238281 114.125 C 119.324219 112.667969 121.660156 111.945312 123.949219 112 C 124.671875 108.253906 125.355469 100.503906 120.914062 93.191406 C 119.484375 90.839844 117.601562 88.738281 115.359375 86.835938 C 111.035156 88.011719 106.597656 90.101562 102.464844 92.992188 C 98.320312 95.890625 94.820312 99.351562 92.226562 103.027344 Z M 92.226562 103.027344 " fill-opacity="1" fill-rule="nonzero"/><path fill="#ffffff" d="M 167.15625 153.390625 C 164.390625 149.433594 160.503906 147.078125 155.921875 146.582031 C 155.328125 146.515625 154.730469 146.484375 154.128906 146.484375 C 150.226562 146.484375 146.179688 147.828125 142.5625 150.359375 C 138.386719 153.277344 135.496094 157.269531 134.425781 161.605469 C 133.320312 166.082031 134.195312 170.539062 136.960938 174.496094 C 139.78125 178.527344 144 181.21875 148.84375 182.078125 C 153.691406 182.9375 158.578125 181.859375 162.609375 179.039062 C 170.933594 173.222656 172.972656 161.714844 167.15625 153.390625 Z M 151.589844 174.761719 C 151.074219 176.488281 148.902344 177.4375 146.734375 176.882812 C 144.570312 176.324219 143.230469 174.472656 143.746094 172.746094 C 144.257812 171.019531 146.433594 170.070312 148.601562 170.625 C 150.765625 171.183594 152.105469 173.035156 151.589844 174.761719 Z M 159.523438 162.992188 C 159.742188 160.765625 161.382812 159.050781 163.179688 159.160156 C 164.980469 159.269531 166.261719 161.164062 166.039062 163.390625 C 165.816406 165.617188 164.175781 167.332031 162.378906 167.222656 C 160.578125 167.113281 159.300781 165.21875 159.523438 162.992188 Z M 159.523438 162.992188 " fill-opacity="1" fill-rule="nonzero"/><path fill="#ffffff" d="M 95.558594 77.746094 C 95.375 77.703125 95.210938 77.648438 95.027344 77.609375 C 94.09375 77.394531 92.800781 77.269531 91.9375 77.875 C 91.238281 78.363281 90.792969 79.320312 90.609375 80.722656 C 90.585938 80.898438 90.582031 81.0625 90.558594 81.234375 C 91.351562 80.605469 92.148438 79.980469 92.96875 79.40625 C 93.804688 78.820312 94.679688 78.28125 95.558594 77.746094 Z M 95.558594 77.746094 " fill-opacity="1" fill-rule="nonzero"/><path fill="#ffffff" d="M 90.246094 94.132812 C 90.398438 95.6875 90.644531 97.15625 90.945312 98.582031 C 93.535156 95.4375 96.734375 92.503906 100.355469 89.972656 C 103.96875 87.445312 107.816406 85.453125 111.652344 84.101562 C 110.421875 83.324219 109.132812 82.585938 107.734375 81.90625 C 104.460938 83.15625 101.269531 84.839844 98.246094 86.953125 C 95.222656 89.066406 92.542969 91.484375 90.246094 94.132812 Z M 90.246094 94.132812 " fill-opacity="1" fill-rule="nonzero"/><path fill="#ffffff" d="M 103.007812 79.941406 C 102.234375 79.660156 101.433594 79.394531 100.621094 79.140625 C 98.6875 80.117188 96.820312 81.207031 95.082031 82.421875 C 93.347656 83.632812 91.691406 85.003906 90.121094 86.472656 C 90.078125 87.324219 90.054688 88.167969 90.050781 88.992188 C 91.910156 87.175781 93.933594 85.472656 96.136719 83.933594 C 98.347656 82.386719 100.652344 81.066406 103.007812 79.941406 Z M 103.007812 79.941406 " fill-opacity="1" fill-rule="nonzero"/><path fill="#ffffff" d="M 149.046875 185.820312 C 149.808594 187.925781 151.234375 190.746094 153.765625 192.355469 C 155.191406 193.265625 156.859375 193.703125 158.722656 193.632812 C 156.550781 190.988281 155.457031 188.371094 155.425781 185.796875 C 154.332031 185.964844 153.222656 186.050781 152.105469 186.050781 C 151.089844 186.050781 150.070312 185.960938 149.046875 185.820312 Z M 149.046875 185.820312 " fill-opacity="1" fill-rule="nonzero"/><path fill="#ffffff" d="M 170.585938 175.96875 C 172.683594 176.964844 174.523438 178.757812 176.082031 181.367188 C 177.785156 176.515625 175.046875 172.578125 173.117188 170.546875 C 172.523438 172.449219 171.683594 174.273438 170.585938 175.96875 Z M 170.585938 175.96875 " fill-opacity="1" fill-rule="nonzero"/><path fill="#ffffff" d="M 241.828125 159.800781 C 242.640625 160.792969 243.289062 161.800781 243.792969 162.8125 C 243.871094 162.9375 243.9375 163.058594 243.984375 163.199219 C 244.066406 163.371094 244.144531 163.546875 244.214844 163.71875 C 246.769531 161.6875 248.96875 159.207031 250.519531 156.53125 C 256.226562 146.660156 251.609375 138.09375 244.5 133.980469 C 240.515625 131.671875 236.148438 130.914062 232.21875 131.839844 C 228.023438 132.828125 224.476562 135.652344 221.960938 140 C 220.410156 142.679688 219.363281 145.820312 218.871094 149.042969 C 219.105469 149.011719 219.332031 148.972656 219.574219 148.953125 C 219.613281 148.949219 219.652344 148.949219 219.691406 148.949219 C 220.089844 148.917969 220.496094 148.894531 220.914062 148.902344 C 222.839844 148.929688 224.957031 149.347656 227.1875 150.109375 L 229.15625 144.667969 C 229.503906 143.710938 230.554688 143.21875 231.515625 143.5625 C 232.472656 143.910156 232.96875 144.964844 232.621094 145.921875 L 230.601562 151.507812 C 231.550781 151.960938 232.515625 152.457031 233.488281 153.023438 C 233.566406 153.066406 233.636719 153.113281 233.710938 153.15625 C 234.742188 151.136719 235.996094 148.476562 236.011719 148.4375 C 236.445312 147.519531 237.546875 147.125 238.464844 147.558594 C 239.382812 147.992188 239.777344 149.089844 239.34375 150.007812 C 239.273438 150.164062 237.90625 153.058594 236.816406 155.175781 C 237.671875 155.796875 238.453125 156.4375 239.183594 157.082031 C 241.371094 153.550781 243.414062 149.566406 243.4375 149.519531 C 243.898438 148.613281 245.007812 148.253906 245.917969 148.71875 C 246.820312 149.183594 247.179688 150.289062 246.71875 151.195312 C 246.609375 151.410156 244.265625 155.972656 241.828125 159.800781 Z M 241.828125 159.800781 " fill-opacity="1" fill-rule="nonzero"/><path fill="#ffffff" d="M 220.605469 168.621094 C 221.441406 169.273438 222.367188 169.898438 223.386719 170.488281 C 224.382812 171.066406 225.386719 171.554688 226.394531 171.960938 C 226.316406 167.980469 228.714844 164.21875 231.773438 162.097656 C 233.503906 160.902344 235.347656 160.28125 237.144531 160.167969 C 235.664062 158.8125 233.828125 157.476562 231.644531 156.210938 C 229.480469 154.960938 227.410156 154.03125 225.476562 153.421875 C 226.273438 155.035156 226.65625 156.941406 226.476562 159.039062 C 226.164062 162.746094 224.097656 166.707031 220.605469 168.621094 Z M 220.605469 168.621094 " fill-opacity="1" fill-rule="nonzero"/><path fill="#ffffff" d="M 246.34375 130.792969 C 246.886719 131.105469 247.398438 131.441406 247.902344 131.785156 C 253.222656 122.78125 264.195312 105.050781 271.757812 98.570312 C 272.246094 98.15625 272.714844 97.789062 273.175781 97.445312 C 272.015625 95.5 270.394531 93.863281 268.375 92.695312 C 266.359375 91.527344 264.132812 90.9375 261.867188 90.902344 C 261.800781 91.472656 261.71875 92.058594 261.597656 92.691406 C 259.757812 102.476562 249.859375 120.832031 244.707031 129.933594 C 245.257812 130.199219 245.808594 130.480469 246.34375 130.792969 Z M 246.34375 130.792969 " fill-opacity="1" fill-rule="nonzero"/><path fill="#ffffff" d="M 226.679688 130.109375 C 227.007812 127.933594 228.039062 122.363281 230.738281 116.0625 C 231.136719 115.128906 232.21875 114.691406 233.15625 115.09375 C 234.089844 115.496094 234.523438 116.578125 234.121094 117.515625 C 232.269531 121.835938 231.253906 125.839844 230.722656 128.445312 C 230.941406 128.386719 231.152344 128.308594 231.371094 128.253906 C 232.3125 128.035156 233.269531 127.914062 234.238281 127.84375 C 235.3125 124.417969 238.839844 114.425781 247.324219 99.816406 C 247.835938 98.9375 248.964844 98.636719 249.839844 99.148438 C 250.722656 99.65625 251.019531 100.785156 250.507812 101.664062 C 242.980469 114.632812 239.421875 123.980469 238.082031 127.957031 C 239.132812 128.089844 240.179688 128.304688 241.222656 128.605469 C 250.46875 112.34375 256.714844 98.71875 257.980469 92.007812 C 258.773438 87.777344 258.210938 84.667969 256.46875 83.683594 C 254.773438 82.726562 251.894531 83.707031 249.132812 86.175781 C 238.734375 95.476562 231.890625 106.863281 227.398438 117.394531 C 227.371094 117.472656 227.371094 117.558594 227.332031 117.632812 C 227.304688 117.679688 227.269531 117.714844 227.242188 117.757812 C 224.757812 123.644531 223.003906 129.242188 221.777344 134.050781 C 223.242188 132.433594 224.882812 131.117188 226.679688 130.109375 Z M 239.730469 99.058594 C 245.648438 91.75 253.679688 89.359375 254.015625 89.261719 C 254.996094 88.980469 256.011719 89.542969 256.296875 90.515625 C 256.578125 91.488281 256.019531 92.511719 255.042969 92.796875 C 254.972656 92.820312 247.757812 94.996094 242.59375 101.375 C 242.230469 101.828125 241.699219 102.058594 241.160156 102.058594 C 240.753906 102.058594 240.34375 101.925781 240.003906 101.648438 C 239.210938 101.007812 239.089844 99.851562 239.730469 99.058594 Z M 239.730469 99.058594 " fill-opacity="1" fill-rule="nonzero"/><path fill="#ffffff" d="M 234.425781 173.332031 C 237.296875 173.050781 239.570312 171.800781 240.667969 169.902344 C 241.527344 168.417969 241.519531 166.710938 240.761719 164.914062 C 238.007812 162.609375 234.808594 164.476562 233.875 165.128906 C 231.390625 166.847656 229.515625 170.035156 230.253906 173.113281 C 231.699219 173.382812 233.101562 173.464844 234.425781 173.332031 Z M 234.425781 173.332031 " fill-opacity="1" fill-rule="nonzero"/><path fill="#ffffff" d="M 250.792969 134.140625 C 251.554688 134.871094 252.253906 135.636719 252.871094 136.441406 C 255.628906 133.171875 257.882812 130.160156 260.042969 127.25 C 263.027344 123.222656 265.847656 119.421875 269.605469 115.601562 C 270.191406 115.003906 270.660156 114.351562 271.003906 113.65625 C 271.804688 112.023438 273.265625 108.742188 274.015625 105.101562 C 274.21875 104.101562 275.195312 103.460938 276.191406 103.667969 C 277.1875 103.871094 277.828125 104.847656 277.625 105.839844 C 276.792969 109.886719 275.1875 113.496094 274.304688 115.285156 C 273.792969 116.332031 273.09375 117.308594 272.230469 118.183594 C 268.652344 121.820312 265.90625 125.523438 263 129.445312 C 260.605469 132.671875 258.101562 136.019531 254.902344 139.734375 C 255.535156 141.046875 255.996094 142.417969 256.300781 143.828125 C 261.617188 137.722656 267.246094 129.125 267.308594 129.023438 C 267.867188 128.171875 269.007812 127.933594 269.859375 128.488281 C 270.710938 129.042969 270.953125 130.183594 270.398438 131.035156 C 270.082031 131.519531 262.789062 142.660156 256.6875 148.832031 C 256.589844 150.453125 256.269531 152.09375 255.75 153.730469 C 259.324219 150.253906 263.316406 145.917969 267.203125 140.789062 C 267.214844 140.769531 267.214844 140.742188 267.226562 140.722656 C 267.257812 140.675781 267.308594 140.648438 267.34375 140.605469 C 274.25 131.445312 280.738281 119.828125 283.621094 106.132812 C 284.382812 102.507812 283.796875 99.523438 282.125 98.53125 C 280.40625 97.511719 277.421875 98.574219 274.15625 101.371094 C 268.96875 105.8125 260.277344 118.015625 250.792969 134.140625 Z M 250.792969 134.140625 " fill-opacity="1" fill-rule="nonzero"/><path fill="#ffffff" d="M 217.363281 153.265625 C 216.480469 153.703125 215.78125 154.351562 215.285156 155.210938 C 213.710938 157.929688 214.417969 162.046875 217.671875 165.847656 C 220.714844 164.964844 222.550781 161.746094 222.808594 158.730469 C 222.902344 157.597656 222.90625 153.945312 219.597656 152.683594 C 218.785156 152.777344 218.035156 152.9375 217.410156 153.238281 C 217.390625 153.246094 217.378906 153.257812 217.363281 153.265625 Z M 217.363281 153.265625 " fill-opacity="1" fill-rule="nonzero"/><path fill="#ffffff" d="M 160.21875 250.128906 C 160.007812 249.609375 159.859375 249.085938 159.738281 248.5625 C 156.160156 251.070312 154.839844 256.464844 156.84375 261.488281 C 158.066406 264.558594 160.34375 266.988281 163.089844 268.15625 C 164.640625 268.816406 166.261719 269.015625 167.792969 268.769531 C 167.515625 268.300781 167.265625 267.808594 167.054688 267.28125 Z M 160.21875 250.128906 " fill-opacity="1" fill-rule="nonzero"/><path fill="#ffffff" d="M 172.253906 268.398438 C 173.695312 269.617188 175.699219 270.125 178.03125 269.75 C 180.867188 269.304688 183.820312 268.457031 186.816406 267.242188 C 189.652344 266.089844 194.257812 259.8125 195.589844 254.132812 C 195.996094 252.398438 195.746094 249.925781 194.964844 247.972656 L 193.597656 244.542969 C 192.820312 242.59375 191.304688 240.632812 189.828125 239.671875 C 186.148438 237.269531 180.871094 235.941406 177.304688 235.941406 C 176.167969 235.941406 175.207031 236.074219 174.523438 236.351562 C 171.523438 237.570312 168.8125 239.027344 166.464844 240.6875 C 164.53125 242.050781 163.425781 243.820312 163.214844 245.710938 C 163.105469 246.707031 163.230469 247.738281 163.636719 248.765625 L 170.476562 265.917969 C 170.882812 266.929688 171.492188 267.753906 172.246094 268.390625 C 172.246094 268.390625 172.25 268.394531 172.253906 268.398438 Z M 172.253906 268.398438 " fill-opacity="1" fill-rule="nonzero"/><path fill="#ffffff" d="M 267.925781 226.53125 C 268.511719 225.707031 268.96875 224.832031 269.316406 223.933594 C 255.777344 232.710938 234.433594 241.910156 222.238281 246.867188 C 222.011719 246.957031 221.777344 247 221.546875 247 C 220.820312 247 220.128906 246.570312 219.839844 245.851562 C 219.457031 244.910156 219.910156 243.835938 220.851562 243.453125 C 233.78125 238.199219 257.09375 228.136719 269.988281 219.035156 C 269.894531 218.0625 269.679688 217.089844 269.316406 216.140625 C 268.839844 214.894531 268.136719 213.769531 267.277344 212.78125 C 260.027344 213.78125 247.097656 216.839844 225.613281 225.566406 C 225.386719 225.65625 225.152344 225.699219 224.921875 225.699219 C 224.195312 225.699219 223.503906 225.265625 223.214844 224.550781 C 222.832031 223.609375 223.285156 222.535156 224.226562 222.152344 C 242.824219 214.597656 255.203125 211.210938 263.085938 209.738281 C 262.386719 209.429688 261.65625 209.171875 260.890625 209 C 249.316406 206.398438 236.519531 207.820312 224.410156 211.082031 C 224.324219 211.117188 224.230469 211.128906 224.140625 211.152344 C 204.609375 216.457031 186.925781 226.535156 179.140625 232.359375 C 183.34375 232.722656 188.277344 234.261719 191.839844 236.585938 C 191.886719 236.613281 191.929688 236.652344 191.976562 236.683594 C 198.441406 232.929688 208.484375 228.558594 208.933594 228.367188 C 209.863281 227.960938 210.949219 228.386719 211.355469 229.324219 C 211.761719 230.253906 211.332031 231.339844 210.398438 231.746094 C 210.296875 231.789062 201.082031 235.796875 194.773438 239.332031 C 195.691406 240.488281 196.476562 241.8125 197.019531 243.179688 L 197.328125 243.953125 C 201.574219 242.839844 207.722656 240.578125 207.789062 240.550781 C 208.742188 240.199219 209.804688 240.6875 210.15625 241.640625 C 210.507812 242.59375 210.019531 243.65625 209.066406 244.007812 C 208.785156 244.109375 203.027344 246.230469 198.640625 247.414062 C 199.46875 249.914062 199.703125 252.730469 199.175781 254.96875 C 198.171875 259.257812 195.550781 263.960938 192.671875 267.164062 C 194.261719 266.992188 196.15625 266.691406 198.296875 266.261719 C 198.589844 266.121094 198.90625 266.035156 199.234375 266.0625 C 204.300781 264.992188 210.59375 263.230469 217.410156 260.75 C 217.648438 260.589844 217.917969 260.492188 218.210938 260.457031 C 225.074219 257.917969 232.414062 254.65625 239.511719 250.644531 C 239.625 250.5625 239.738281 250.496094 239.863281 250.441406 C 250.710938 244.261719 260.945312 236.335938 267.925781 226.53125 Z M 267.925781 226.53125 " fill-opacity="1" fill-rule="nonzero"/><path fill="#ffffff" d="M 201.402344 156.011719 C 202.058594 156.011719 202.691406 155.664062 203.023438 155.050781 C 203.511719 154.15625 203.179688 153.039062 202.285156 152.550781 L 175.476562 138.007812 C 173.785156 137.089844 171.882812 136.640625 169.960938 136.671875 L 150.785156 137.09375 C 149.765625 137.113281 148.960938 137.957031 148.984375 138.976562 C 149.003906 139.992188 149.839844 140.785156 150.867188 140.777344 L 170.042969 140.351562 C 171.332031 140.347656 172.59375 140.632812 173.71875 141.242188 L 200.527344 155.789062 C 200.804688 155.941406 201.105469 156.011719 201.402344 156.011719 Z M 201.402344 156.011719 " fill-opacity="1" fill-rule="nonzero"/><path fill="#ffffff" d="M 135.910156 124.152344 C 136.242188 124.398438 136.625 124.515625 137.007812 124.515625 C 137.570312 124.515625 138.128906 124.257812 138.488281 123.773438 L 147.070312 112.222656 C 147.5625 111.558594 148.445312 111.304688 149.21875 111.605469 L 177.523438 122.675781 C 178.472656 123.046875 179.539062 122.578125 179.910156 121.628906 C 180.277344 120.683594 179.8125 119.613281 178.863281 119.246094 L 150.558594 108.175781 C 148.246094 107.269531 145.59375 108.03125 144.113281 110.027344 L 135.53125 121.574219 C 134.925781 122.390625 135.09375 123.542969 135.910156 124.152344 Z M 135.910156 124.152344 " fill-opacity="1" fill-rule="nonzero"/><g clip-path="url(#e1452c70b2)"><path fill="#ffffff" d="M 130.339844 115.882812 C 130.621094 116.035156 130.921875 116.105469 131.21875 116.105469 C 131.871094 116.105469 132.503906 115.757812 132.839844 115.144531 L 140.695312 100.664062 C 141.445312 99.285156 141.570312 97.660156 141.046875 96.183594 L 135.507812 72.96875 C 135.269531 71.980469 134.269531 71.378906 133.289062 71.605469 C 132.296875 71.839844 131.6875 72.835938 131.921875 73.824219 L 137.488281 97.144531 C 137.507812 97.222656 137.53125 97.300781 137.558594 97.375 C 137.75 97.875 137.714844 98.4375 137.457031 98.910156 L 129.601562 113.386719 C 129.117188 114.28125 129.449219 115.398438 130.339844 115.882812 Z M 130.339844 115.882812 " fill-opacity="1" fill-rule="nonzero"/></g><path fill="#ffffff" d="M 130.890625 154.402344 C 131.261719 153.453125 130.792969 152.386719 129.847656 152.015625 C 128.898438 151.644531 127.828125 152.113281 127.460938 153.058594 L 120.292969 171.382812 C 119.59375 173.171875 119.371094 175.121094 119.652344 177.019531 L 124.101562 207.195312 C 124.234375 208.109375 125.023438 208.769531 125.921875 208.769531 C 126.011719 208.769531 126.101562 208.765625 126.191406 208.75 C 127.199219 208.601562 127.894531 207.664062 127.746094 206.660156 L 123.296875 176.484375 C 123.109375 175.21875 123.257812 173.917969 123.722656 172.726562 Z M 130.890625 154.402344 " fill-opacity="1" fill-rule="nonzero"/><path fill="#ffffff" d="M 105.203125 141.484375 L 119.828125 137.148438 C 120.800781 136.859375 121.359375 135.835938 121.070312 134.859375 C 120.78125 133.882812 119.753906 133.328125 118.78125 133.617188 L 104.15625 137.953125 C 101.769531 138.660156 100.144531 140.890625 100.199219 143.375 L 100.867188 173.757812 C 100.890625 174.761719 101.710938 175.558594 102.710938 175.558594 C 102.722656 175.558594 102.738281 175.558594 102.75 175.558594 C 103.769531 175.535156 104.574219 174.691406 104.550781 173.675781 L 103.882812 143.292969 C 103.867188 142.464844 104.40625 141.722656 105.203125 141.484375 Z M 105.203125 141.484375 " fill-opacity="1" fill-rule="nonzero"/><g clip-path="url(#8612fd3252)"><path fill="#ffffff" d="M 114.355469 127.039062 C 114.207031 126.03125 113.265625 125.335938 112.261719 125.484375 L 96.003906 127.882812 C 95.464844 127.957031 94.933594 127.804688 94.523438 127.449219 C 94.464844 127.398438 94.402344 127.347656 94.332031 127.304688 L 74.347656 114.066406 C 73.496094 113.5 72.355469 113.734375 71.792969 114.585938 C 71.230469 115.433594 71.464844 116.578125 72.3125 117.136719 L 92.207031 130.316406 C 93.207031 131.140625 94.449219 131.585938 95.730469 131.585938 C 96 131.585938 96.269531 131.566406 96.539062 131.527344 L 112.800781 129.128906 C 113.808594 128.980469 114.503906 128.046875 114.355469 127.039062 Z M 114.355469 127.039062 " fill-opacity="1" fill-rule="nonzero"/></g><path fill="#ffffff" d="M 292.699219 144.96875 C 286.898438 143.355469 283.757812 143.636719 281.230469 143.863281 C 278.527344 144.105469 276.742188 144.265625 272.28125 141.726562 C 271.398438 141.222656 270.277344 141.53125 269.769531 142.414062 C 269.269531 143.300781 269.578125 144.421875 270.460938 144.925781 C 275.921875 148.039062 278.535156 147.800781 281.558594 147.53125 C 283.902344 147.324219 286.558594 147.082031 291.710938 148.519531 C 291.875 148.5625 292.042969 148.585938 292.207031 148.585938 C 293.011719 148.585938 293.75 148.050781 293.980469 147.238281 C 294.25 146.257812 293.679688 145.242188 292.699219 144.96875 Z M 292.699219 144.96875 " fill-opacity="1" fill-rule="nonzero"/><g clip-path="url(#288084da27)"><path fill="#ffffff" d="M 303.296875 111.035156 C 302.773438 110.160156 301.644531 109.878906 300.769531 110.398438 L 287.34375 118.433594 C 286.335938 119.039062 285.089844 119.121094 284.011719 118.652344 C 283.882812 118.597656 283.753906 118.53125 283.632812 118.460938 C 282.75 117.953125 281.625 118.257812 281.117188 119.136719 C 280.609375 120.019531 280.914062 121.144531 281.792969 121.652344 C 282.039062 121.792969 282.289062 121.917969 282.546875 122.03125 C 283.476562 122.4375 284.472656 122.636719 285.464844 122.636719 C 286.777344 122.636719 288.085938 122.285156 289.238281 121.59375 L 302.664062 113.558594 C 303.535156 113.039062 303.820312 111.90625 303.296875 111.035156 Z M 303.296875 111.035156 " fill-opacity="1" fill-rule="nonzero"/></g><path fill="#ffffff" d="M 194.605469 140.992188 C 196.199219 141.242188 197.578125 141.347656 198.789062 141.347656 C 202.324219 141.347656 204.421875 140.453125 206.199219 139.699219 C 208.578125 138.6875 210.152344 138.019531 215.382812 140.578125 C 216.304688 141.023438 217.402344 140.644531 217.847656 139.730469 C 218.296875 138.816406 217.917969 137.714844 217.003906 137.265625 C 210.726562 134.195312 208.078125 134.894531 204.757812 136.308594 C 202.605469 137.222656 200.382812 138.171875 195.175781 137.351562 C 194.171875 137.195312 193.230469 137.878906 193.070312 138.886719 C 192.910156 139.890625 193.597656 140.832031 194.605469 140.992188 Z M 194.605469 140.992188 " fill-opacity="1" fill-rule="nonzero"/><path fill="#ffffff" d="M 214.285156 108.601562 C 215.546875 111.328125 216.632812 113.6875 221.890625 116.816406 C 222.1875 116.992188 222.511719 117.074219 222.832031 117.074219 C 223.457031 117.074219 224.070312 116.753906 224.414062 116.175781 C 224.933594 115.300781 224.648438 114.171875 223.773438 113.652344 C 219.5 111.105469 218.753906 109.496094 217.628906 107.054688 C 216.566406 104.753906 215.242188 101.886719 210.953125 97.664062 C 210.226562 96.949219 209.0625 96.957031 208.347656 97.683594 C 207.632812 98.40625 207.644531 99.574219 208.367188 100.289062 C 212.179688 104.039062 213.300781 106.460938 214.285156 108.601562 Z M 214.285156 108.601562 " fill-opacity="1" fill-rule="nonzero"/><g clip-path="url(#1e257a157c)"><path fill="#ffffff" d="M 235.976562 94.414062 C 236.378906 94.414062 236.785156 94.28125 237.121094 94.011719 C 237.917969 93.378906 238.046875 92.21875 237.414062 91.421875 C 236.886719 90.757812 236.601562 89.925781 236.617188 89.078125 L 236.890625 73.429688 C 236.90625 72.414062 236.097656 71.574219 235.078125 71.554688 C 234.023438 71.523438 233.222656 72.347656 233.207031 73.367188 L 232.933594 89.011719 C 232.902344 90.714844 233.472656 92.386719 234.535156 93.71875 C 234.898438 94.175781 235.433594 94.414062 235.976562 94.414062 Z M 235.976562 94.414062 " fill-opacity="1" fill-rule="nonzero"/></g><path fill="#ffffff" d="M 252.972656 162.296875 C 258.117188 165.699219 258.324219 167.429688 258.640625 170.046875 C 258.949219 172.617188 259.335938 175.816406 263.300781 180.746094 C 263.664062 181.199219 264.195312 181.433594 264.734375 181.433594 C 265.140625 181.433594 265.550781 181.300781 265.890625 181.027344 C 266.683594 180.386719 266.808594 179.226562 266.167969 178.4375 C 262.863281 174.328125 262.574219 171.929688 262.296875 169.605469 C 261.859375 165.957031 261.113281 163.265625 255 159.226562 C 254.15625 158.664062 253.011719 158.898438 252.449219 159.746094 C 251.890625 160.59375 252.121094 161.738281 252.972656 162.296875 Z M 252.972656 162.296875 " fill-opacity="1" fill-rule="nonzero"/><path fill="#ffffff" d="M 222.523438 183.90625 C 222.589844 183.90625 222.652344 183.902344 222.71875 183.894531 C 223.730469 183.789062 224.464844 182.882812 224.355469 181.871094 C 224.082031 179.269531 225.394531 175.550781 225.804688 174.472656 C 226.164062 173.523438 225.683594 172.457031 224.734375 172.097656 C 223.789062 171.738281 222.71875 172.214844 222.359375 173.167969 C 221.589844 175.191406 220.355469 179.0625 220.695312 182.261719 C 220.792969 183.207031 221.59375 183.90625 222.523438 183.90625 Z M 222.523438 183.90625 " fill-opacity="1" fill-rule="nonzero"/><path fill="#ffffff" d="M 212.703125 173.097656 C 211.710938 172.882812 210.730469 173.523438 210.519531 174.515625 C 210.308594 175.511719 210.941406 176.488281 211.9375 176.703125 C 212.511719 176.824219 213.085938 176.882812 213.648438 176.882812 C 216.421875 176.882812 218.992188 175.425781 220.890625 172.714844 C 221.472656 171.882812 221.269531 170.734375 220.4375 170.152344 C 219.605469 169.566406 218.457031 169.769531 217.875 170.601562 C 216.871094 172.03125 215.167969 173.625 212.703125 173.097656 Z M 212.703125 173.097656 " fill-opacity="1" fill-rule="nonzero"/><path fill="#ffffff" d="M 160.597656 269.246094 C 159.65625 268.851562 158.578125 269.289062 158.183594 270.222656 L 156.519531 274.152344 C 156.125 275.085938 156.5625 276.167969 157.5 276.5625 C 157.734375 276.664062 157.976562 276.710938 158.214844 276.710938 C 158.933594 276.710938 159.617188 276.289062 159.914062 275.585938 L 161.574219 271.660156 C 161.972656 270.722656 161.53125 269.640625 160.597656 269.246094 Z M 160.597656 269.246094 " fill-opacity="1" fill-rule="nonzero"/><g clip-path="url(#2fda3ea9b9)"><path fill="#ffffff" d="M 152.828125 265.527344 C 134.78125 274.769531 128.167969 281.957031 121.167969 289.570312 C 118.035156 292.976562 114.792969 296.496094 110.359375 300.402344 C 109.597656 301.074219 109.523438 302.238281 110.195312 303 C 110.5625 303.414062 111.070312 303.625 111.578125 303.625 C 112.011719 303.625 112.445312 303.472656 112.796875 303.164062 C 117.375 299.132812 120.679688 295.539062 123.878906 292.0625 C 130.945312 284.382812 137.046875 277.746094 154.507812 268.804688 C 155.414062 268.339844 155.769531 267.230469 155.308594 266.324219 C 154.84375 265.421875 153.734375 265.058594 152.828125 265.527344 Z M 152.828125 265.527344 " fill-opacity="1" fill-rule="nonzero"/></g><path fill="#ffffff" d="M 151.253906 260.644531 C 152.257812 260.484375 152.941406 259.542969 152.78125 258.535156 C 152.621094 257.53125 151.679688 256.847656 150.671875 257.007812 C 125.292969 261.042969 101.398438 258.457031 101.160156 258.429688 C 100.160156 258.328125 99.238281 259.042969 99.125 260.054688 C 99.011719 261.066406 99.742188 261.976562 100.75 262.089844 C 100.890625 262.105469 108.679688 262.949219 120.085938 262.949219 C 128.929688 262.949219 139.945312 262.445312 151.253906 260.644531 Z M 151.253906 260.644531 " fill-opacity="1" fill-rule="nonzero"/><path fill="#ffffff" d="M 147.230469 250.832031 L 151.882812 252.828125 C 152.121094 252.933594 152.367188 252.980469 152.609375 252.980469 C 153.324219 252.980469 154.003906 252.5625 154.304688 251.863281 C 154.703125 250.929688 154.273438 249.84375 153.335938 249.445312 L 148.683594 247.449219 C 147.75 247.046875 146.667969 247.480469 146.265625 248.414062 C 145.863281 249.347656 146.296875 250.433594 147.230469 250.832031 Z M 147.230469 250.832031 " fill-opacity="1" fill-rule="nonzero"/><path fill="#ffffff" d="M 188.71875 217.207031 C 189.082031 217.660156 189.617188 217.898438 190.160156 217.898438 C 190.5625 217.898438 190.96875 217.765625 191.308594 217.492188 L 193.734375 215.550781 L 196.277344 217.183594 C 196.585938 217.382812 196.929688 217.476562 197.269531 217.476562 C 197.875 217.476562 198.46875 217.179688 198.820312 216.632812 C 199.371094 215.777344 199.125 214.636719 198.269531 214.085938 L 196.765625 213.121094 L 197.753906 212.332031 C 198.546875 211.695312 198.675781 210.535156 198.039062 209.742188 C 197.402344 208.945312 196.242188 208.820312 195.449219 209.457031 L 193.496094 211.019531 L 191.644531 209.828125 C 192.289062 208.488281 192.789062 207.046875 193.191406 205.582031 L 195.316406 205.863281 C 195.398438 205.875 195.480469 205.882812 195.5625 205.882812 C 196.472656 205.882812 197.261719 205.207031 197.386719 204.285156 C 197.519531 203.273438 196.8125 202.347656 195.804688 202.214844 L 193.976562 201.96875 C 194.234375 200.429688 194.398438 198.917969 194.496094 197.492188 L 196.664062 197.808594 C 196.757812 197.824219 196.847656 197.832031 196.9375 197.832031 C 197.835938 197.832031 198.621094 197.171875 198.753906 196.257812 C 198.902344 195.25 198.207031 194.3125 197.203125 194.167969 L 194.625 193.785156 C 194.632812 191.070312 194.449219 189.175781 194.425781 188.96875 C 194.320312 187.957031 193.40625 187.226562 192.40625 187.328125 C 191.394531 187.429688 190.65625 188.335938 190.761719 189.347656 C 190.765625 189.390625 190.914062 190.945312 190.929688 193.242188 L 189.179688 192.984375 C 188.183594 192.824219 187.238281 193.53125 187.089844 194.539062 C 186.941406 195.542969 187.636719 196.480469 188.644531 196.628906 L 190.832031 196.949219 C 190.746094 198.390625 190.589844 199.929688 190.328125 201.480469 L 187.515625 201.105469 C 186.519531 200.980469 185.582031 201.679688 185.449219 202.6875 C 185.3125 203.695312 186.019531 204.621094 187.03125 204.757812 L 189.511719 205.089844 C 189.046875 206.671875 188.4375 208.183594 187.640625 209.507812 C 187.125 210.363281 187.382812 211.46875 188.222656 212.007812 L 190.464844 213.449219 L 189.003906 214.621094 C 188.210938 215.253906 188.082031 216.414062 188.71875 217.207031 Z M 188.71875 217.207031 " fill-opacity="1" fill-rule="nonzero"/><path fill="#ffffff" d="M 198.589844 268.902344 C 197.675781 268.449219 196.574219 268.824219 196.125 269.738281 L 193.5 275.050781 L 190.90625 274.089844 C 189.953125 273.734375 188.894531 274.222656 188.539062 275.175781 C 188.1875 276.128906 188.671875 277.191406 189.625 277.542969 L 191.859375 278.371094 L 189.671875 282.800781 L 186.828125 280.296875 C 186.066406 279.625 184.902344 279.699219 184.230469 280.460938 C 183.554688 281.226562 183.628906 282.390625 184.394531 283.0625 L 187.199219 285.53125 L 183.667969 287.777344 L 175.363281 285.59375 C 174.382812 285.335938 173.375 285.921875 173.113281 286.902344 C 172.855469 287.886719 173.441406 288.894531 174.425781 289.152344 L 179.433594 290.472656 L 171.910156 295.253906 C 171.054688 295.796875 170.800781 296.9375 171.34375 297.792969 C 171.695312 298.347656 172.292969 298.648438 172.902344 298.648438 C 173.238281 298.648438 173.582031 298.554688 173.886719 298.359375 L 181.894531 293.269531 L 181.632812 297.203125 C 181.566406 298.21875 182.332031 299.097656 183.347656 299.164062 C 183.390625 299.167969 183.429688 299.167969 183.472656 299.167969 C 184.433594 299.167969 185.242188 298.421875 185.308594 297.449219 L 185.75 290.820312 L 189.164062 288.648438 L 190.445312 293.15625 C 190.675781 293.964844 191.414062 294.492188 192.21875 294.492188 C 192.382812 294.492188 192.554688 294.46875 192.722656 294.421875 C 193.703125 294.144531 194.269531 293.125 193.988281 292.144531 L 192.226562 285.949219 L 194.5 281.339844 L 195.34375 282.878906 C 195.679688 283.488281 196.3125 283.835938 196.960938 283.835938 C 197.261719 283.835938 197.566406 283.761719 197.847656 283.609375 C 198.738281 283.121094 199.0625 282 198.574219 281.109375 L 196.492188 277.308594 L 199.425781 271.367188 C 199.878906 270.453125 199.503906 269.351562 198.589844 268.902344 Z M 198.589844 268.902344 " fill-opacity="1" fill-rule="nonzero"/><path fill="#ffffff" d="M 161.164062 221.300781 L 163.046875 222.535156 L 161.035156 224.566406 C 160.320312 225.289062 160.328125 226.457031 161.050781 227.171875 C 161.410156 227.527344 161.878906 227.703125 162.347656 227.703125 C 162.820312 227.703125 163.296875 227.519531 163.65625 227.15625 L 166.1875 224.597656 L 169.578125 226.820312 L 167.96875 228.398438 C 167.246094 229.113281 167.234375 230.28125 167.945312 231.007812 C 168.308594 231.371094 168.785156 231.554688 169.261719 231.554688 C 169.726562 231.554688 170.191406 231.378906 170.550781 231.027344 L 172.730469 228.890625 L 174.671875 230.160156 C 174.980469 230.367188 175.332031 230.464844 175.679688 230.464844 C 176.277344 230.464844 176.867188 230.171875 177.21875 229.632812 C 177.777344 228.78125 177.542969 227.640625 176.691406 227.082031 L 174.832031 225.863281 L 176.101562 221.507812 C 176.386719 220.53125 175.824219 219.511719 174.847656 219.226562 C 173.875 218.945312 172.847656 219.5 172.566406 220.480469 L 171.613281 223.75 L 168.324219 221.589844 C 168.324219 221.574219 168.332031 221.5625 168.328125 221.546875 L 167.902344 214.996094 C 167.835938 213.984375 166.945312 213.222656 165.945312 213.28125 C 164.929688 213.347656 164.160156 214.222656 164.226562 215.238281 L 164.476562 219.066406 L 162.894531 218.027344 C 162.703125 217.902344 162.488281 217.8125 162.261719 217.765625 L 158.183594 216.910156 L 155.976562 211.996094 C 155.5625 211.066406 154.472656 210.652344 153.542969 211.070312 C 152.617188 211.484375 152.199219 212.574219 152.617188 213.503906 L 153.730469 215.976562 L 149.3125 215.050781 C 148.308594 214.84375 147.339844 215.480469 147.128906 216.476562 C 146.921875 217.472656 147.5625 218.449219 148.554688 218.65625 L 154.90625 219.988281 L 152.726562 222.527344 C 152.0625 223.296875 152.148438 224.460938 152.921875 225.125 C 153.269531 225.421875 153.699219 225.566406 154.121094 225.566406 C 154.640625 225.566406 155.15625 225.351562 155.519531 224.925781 L 159.019531 220.851562 Z M 161.164062 221.300781 " fill-opacity="1" fill-rule="nonzero"/><path fill="#ffffff" d="M 230.550781 283.894531 L 232.164062 281.800781 C 232.785156 280.996094 232.632812 279.839844 231.828125 279.21875 C 231.023438 278.597656 229.863281 278.746094 229.242188 279.554688 L 227.898438 281.300781 C 226.855469 280.34375 225.703125 279.375 224.46875 278.445312 L 225.632812 276.976562 C 226.261719 276.179688 226.128906 275.019531 225.332031 274.386719 C 224.535156 273.757812 223.375 273.890625 222.742188 274.691406 L 221.40625 276.382812 C 220.117188 275.609375 218.777344 274.925781 217.398438 274.410156 L 217.921875 272.230469 L 220.410156 271.992188 C 221.421875 271.898438 222.164062 271 222.066406 269.988281 C 221.96875 268.972656 221.0625 268.199219 220.058594 268.328125 L 218.835938 268.445312 L 219.472656 265.796875 C 219.710938 264.808594 219.101562 263.8125 218.113281 263.574219 C 217.125 263.335938 216.128906 263.945312 215.890625 264.933594 L 214.957031 268.816406 L 211.871094 269.109375 C 210.855469 269.203125 210.113281 270.101562 210.210938 271.117188 C 210.300781 272.070312 211.101562 272.78125 212.042969 272.78125 C 212.101562 272.78125 212.160156 272.78125 212.21875 272.773438 L 214.042969 272.601562 L 213.417969 275.203125 C 213.183594 276.175781 213.765625 277.15625 214.730469 277.414062 C 216.214844 277.8125 217.683594 278.476562 219.105469 279.289062 L 217.527344 281.28125 C 216.898438 282.078125 217.03125 283.238281 217.828125 283.867188 C 218.167969 284.136719 218.570312 284.265625 218.972656 284.265625 C 219.515625 284.265625 220.054688 284.027344 220.417969 283.566406 L 222.1875 281.332031 C 223.429688 282.265625 224.59375 283.261719 225.640625 284.234375 L 224.269531 286.015625 C 223.648438 286.820312 223.800781 287.976562 224.605469 288.597656 C 224.941406 288.855469 225.335938 288.980469 225.730469 288.980469 C 226.28125 288.980469 226.828125 288.734375 227.191406 288.261719 L 228.273438 286.855469 C 229.824219 288.511719 230.777344 289.730469 230.804688 289.765625 C 231.167969 290.234375 231.714844 290.480469 232.261719 290.480469 C 232.65625 290.480469 233.054688 290.355469 233.386719 290.09375 C 234.191406 289.472656 234.339844 288.316406 233.722656 287.515625 C 233.59375 287.351562 232.425781 285.855469 230.550781 283.894531 Z M 230.550781 283.894531 " fill-opacity="1" fill-rule="nonzero"/><path fill="#ffffff" d="M 277.710938 250.375 C 275.925781 250.4375 274.34375 250.578125 272.890625 250.765625 L 272.835938 249.15625 C 272.800781 248.140625 271.996094 247.300781 270.929688 247.378906 C 269.914062 247.410156 269.117188 248.265625 269.152344 249.28125 L 269.226562 251.40625 C 267.542969 251.773438 266.007812 252.207031 264.488281 252.667969 L 264.476562 251.878906 C 264.460938 250.871094 263.640625 250.0625 262.636719 250.0625 C 262.625 250.0625 262.617188 250.0625 262.609375 250.0625 C 261.589844 250.078125 260.777344 250.914062 260.792969 251.929688 L 260.816406 253.785156 C 259.328125 254.226562 257.738281 254.660156 255.929688 255.058594 L 256.230469 253.558594 C 256.429688 252.558594 255.78125 251.589844 254.785156 251.390625 C 253.78125 251.179688 252.816406 251.839844 252.617188 252.835938 L 252.027344 255.796875 C 251.777344 255.835938 251.539062 255.878906 251.277344 255.917969 C 249.859375 256.128906 248.375 255.742188 247.207031 254.851562 L 244.160156 252.527344 C 243.347656 251.90625 242.195312 252.066406 241.578125 252.871094 C 240.960938 253.683594 241.117188 254.835938 241.925781 255.453125 L 244.976562 257.78125 C 246.578125 259 248.542969 259.65625 250.519531 259.65625 C 250.769531 259.65625 251.019531 259.621094 251.269531 259.601562 L 250.882812 261.53125 C 250.683594 262.527344 251.332031 263.5 252.328125 263.695312 C 252.453125 263.722656 252.574219 263.734375 252.691406 263.734375 C 253.554688 263.734375 254.320312 263.125 254.496094 262.25 L 255.148438 258.984375 C 257.316406 258.554688 259.183594 258.082031 260.871094 257.601562 L 260.894531 259.257812 C 260.910156 260.265625 261.730469 261.074219 262.734375 261.074219 C 262.746094 261.074219 262.753906 261.074219 262.761719 261.074219 C 263.777344 261.058594 264.589844 260.222656 264.578125 259.207031 L 264.539062 256.503906 C 266.152344 256.007812 267.699219 255.546875 269.351562 255.15625 L 269.433594 257.515625 C 269.46875 258.511719 270.285156 259.296875 271.273438 259.296875 C 271.292969 259.296875 271.316406 259.296875 271.335938 259.292969 C 272.355469 259.261719 273.148438 258.40625 273.113281 257.390625 L 273.015625 254.46875 C 274.457031 254.265625 276.027344 254.117188 277.835938 254.054688 C 278.851562 254.019531 279.648438 253.167969 279.613281 252.152344 C 279.578125 251.136719 278.75 250.285156 277.710938 250.375 Z M 277.710938 250.375 " fill-opacity="1" fill-rule="nonzero"/><path fill="#ffffff" d="M 251.78125 182.371094 C 251.097656 181.621094 249.933594 181.558594 249.179688 182.246094 C 247.835938 183.460938 246.605469 184.449219 245.429688 185.308594 L 243.511719 183.152344 C 242.835938 182.390625 241.671875 182.320312 240.910156 182.996094 C 240.148438 183.671875 240.082031 184.835938 240.757812 185.597656 L 242.332031 187.367188 C 240.867188 188.246094 239.425781 189 237.921875 189.769531 L 236.109375 187.8125 C 235.417969 187.0625 234.25 187.019531 233.503906 187.710938 C 232.757812 188.402344 232.714844 189.566406 233.40625 190.3125 L 234.535156 191.535156 C 232.984375 192.367188 231.304688 193.335938 229.4375 194.550781 L 226.742188 192.660156 C 225.910156 192.074219 224.761719 192.277344 224.175781 193.109375 C 223.59375 193.941406 223.796875 195.089844 224.628906 195.671875 L 226.246094 196.808594 C 224.503906 198.226562 223.292969 200.257812 222.933594 202.511719 L 222.519531 205.132812 C 222.359375 206.140625 223.046875 207.082031 224.050781 207.238281 C 224.148438 207.257812 224.246094 207.261719 224.34375 207.261719 C 225.230469 207.261719 226.015625 206.617188 226.160156 205.710938 L 226.574219 203.089844 C 226.804688 201.625 227.613281 200.296875 228.789062 199.453125 C 229 199.300781 229.199219 199.167969 229.40625 199.023438 L 231.847656 200.734375 C 232.167969 200.960938 232.539062 201.070312 232.902344 201.070312 C 233.484375 201.070312 234.054688 200.796875 234.410156 200.285156 C 234.996094 199.453125 234.792969 198.304688 233.960938 197.71875 L 232.703125 196.839844 C 234.289062 195.859375 235.738281 195.054688 237.121094 194.328125 L 238.363281 195.667969 C 238.722656 196.0625 239.21875 196.257812 239.714844 196.257812 C 240.160156 196.257812 240.609375 196.097656 240.964844 195.769531 C 241.710938 195.078125 241.757812 193.914062 241.066406 193.167969 L 240.519531 192.578125 C 241.9375 191.84375 243.347656 191.078125 244.820312 190.167969 L 246.210938 191.734375 C 246.574219 192.144531 247.078125 192.351562 247.585938 192.351562 C 248.019531 192.351562 248.457031 192.199219 248.808594 191.890625 C 249.570312 191.210938 249.636719 190.050781 248.964844 189.289062 L 247.886719 188.078125 C 249.074219 187.191406 250.316406 186.1875 251.652344 184.972656 C 252.40625 184.289062 252.460938 183.125 251.78125 182.371094 Z M 251.78125 182.371094 " fill-opacity="1" fill-rule="nonzero"/></svg>