<svg xmlns="http://www.w3.org/2000/svg" xmlns:xlink="http://www.w3.org/1999/xlink" width="500" zoomAndPan="magnify" viewBox="0 0 375 374.999991" height="500" preserveAspectRatio="xMidYMid meet" version="1.0"><defs><clipPath id="d5a9955d90"><path d="M 187.5 0 C 83.945312 0 0 83.945312 0 187.5 C 0 291.054688 83.945312 375 187.5 375 C 291.054688 375 375 291.054688 375 187.5 C 375 83.945312 291.054688 0 187.5 0 Z M 187.5 0 " clip-rule="nonzero"/></clipPath><clipPath id="297f3c1729"><path d="M 246 71.890625 L 298 71.890625 L 298 156 L 246 156 Z M 246 71.890625 " clip-rule="nonzero"/></clipPath><clipPath id="87a74b2549"><path d="M 71.890625 71.890625 L 304.390625 71.890625 L 304.390625 304.390625 L 71.890625 304.390625 Z M 71.890625 71.890625 " clip-rule="nonzero"/></clipPath></defs><g clip-path="url(#d5a9955d90)"><rect x="-37.5" width="450" fill="#58a39d" y="-37.499999" height="449.999989" fill-opacity="1"/></g><path fill="#ffffff" d="M 159.972656 183.039062 C 162.335938 188.488281 166.875 192.847656 171.597656 194.117188 C 172.6875 194.480469 172.867188 194.664062 173.230469 198.65625 C 173.414062 200.835938 173.59375 203.199219 174.683594 205.195312 C 176.320312 208.28125 178.863281 209.734375 181.042969 211.007812 C 183.582031 212.460938 185.582031 213.550781 186.851562 217.726562 C 187.035156 218.089844 187.214844 218.636719 187.398438 219 C 188.125 219.542969 188.851562 220.089844 189.578125 220.632812 C 190.667969 218.816406 192.300781 217.183594 194.117188 216.273438 C 193.9375 216.09375 193.9375 215.730469 193.753906 215.546875 C 191.574219 208.644531 187.578125 206.46875 184.671875 204.832031 C 182.855469 203.742188 181.769531 203.199219 181.222656 201.925781 C 180.859375 201.199219 180.679688 199.566406 180.679688 198.113281 C 180.496094 194.664062 180.132812 188.851562 173.777344 187.214844 C 171.234375 186.488281 168.511719 183.765625 166.875 180.132812 C 165.605469 177.410156 164.152344 171.777344 167.421875 165.058594 C 169.054688 161.609375 167.964844 157.792969 166.875 154.164062 C 166.511719 152.890625 165.785156 150.894531 165.785156 149.804688 C 167.058594 149.441406 167.238281 149.621094 167.601562 149.804688 C 168.875 150.347656 170.324219 150.710938 173.230469 150.347656 C 174.503906 150.167969 175.59375 149.441406 176.683594 148.894531 C 177.773438 148.167969 179.042969 147.625 180.496094 147.261719 C 181.949219 147.078125 182.675781 147.988281 184.308594 154.164062 C 185.035156 157.066406 185.761719 159.972656 187.398438 161.789062 C 189.03125 163.789062 194.480469 168.691406 207.921875 169.054688 C 208.464844 169.054688 209.007812 169.054688 209.554688 169.054688 C 212.824219 169.238281 217.363281 169.417969 223.355469 167.601562 C 224.808594 167.058594 227.535156 167.785156 228.625 168.875 C 229.167969 169.417969 229.894531 170.144531 230.441406 170.6875 C 231.53125 171.777344 232.621094 173.050781 234.074219 174.320312 C 235.34375 175.410156 237.339844 175.59375 238.613281 174.503906 C 239.519531 173.777344 241.15625 173.957031 242.0625 174.683594 C 243.152344 175.59375 243.515625 177.773438 243.878906 179.40625 C 244.242188 182.3125 243.878906 184.671875 242.789062 185.21875 C 242.609375 185.21875 242.609375 185.398438 242.425781 185.398438 C 241.335938 185.945312 239.15625 187.035156 238.792969 189.757812 C 238.429688 191.757812 239.519531 193.210938 240.066406 194.117188 C 240.246094 194.300781 240.246094 194.480469 240.429688 194.664062 C 242.246094 193.9375 244.425781 193.753906 246.242188 193.9375 C 245.878906 191.03125 246.785156 188.125 248.964844 185.761719 C 249.691406 184.855469 250.597656 183.945312 251.324219 182.855469 C 251.507812 181.40625 251.324219 179.769531 251.144531 178.136719 C 250.78125 175.230469 249.871094 171.777344 247.148438 169.238281 C 244.425781 166.875 240.792969 166.148438 237.339844 167.238281 C 236.976562 166.695312 236.433594 166.332031 236.070312 165.785156 C 235.523438 165.058594 234.796875 164.332031 234.074219 163.789062 C 230.984375 160.699219 225.71875 159.246094 221.539062 160.699219 C 216.820312 162.152344 213.367188 161.972656 210.28125 161.789062 C 209.554688 161.789062 209.007812 161.789062 208.464844 161.789062 C 197.566406 161.425781 193.9375 157.976562 193.390625 157.25 C 192.847656 156.703125 192.300781 154.164062 191.9375 152.527344 C 190.847656 147.625 188.488281 138.726562 179.953125 140.179688 C 177.226562 140.722656 175.230469 141.8125 173.777344 142.539062 C 173.414062 142.722656 172.867188 143.085938 172.6875 143.085938 C 171.414062 143.265625 171.234375 143.265625 170.871094 143.085938 C 169.417969 142.539062 167.964844 142.175781 164.695312 142.722656 C 161.972656 143.265625 160.519531 144.898438 159.972656 145.988281 C 158.15625 149.078125 159.246094 152.710938 160.335938 156.34375 C 160.882812 157.976562 161.789062 160.882812 161.425781 161.789062 C 157.25 168.691406 157.066406 176.136719 159.972656 183.039062 Z M 159.972656 183.039062 " fill-opacity="1" fill-rule="nonzero"/><path fill="#ffffff" d="M 212.097656 231.894531 C 213.550781 232.984375 215.003906 234.070312 216.636719 234.980469 C 218.636719 236.070312 220.816406 236.613281 223.175781 236.613281 C 225.535156 236.613281 227.898438 235.886719 229.714844 234.070312 C 231.167969 232.621094 231.894531 230.804688 232.4375 229.167969 C 232.800781 228.261719 233.164062 227.171875 233.527344 226.808594 C 234.070312 226.261719 235.523438 226.261719 236.976562 226.082031 C 239.339844 225.898438 242.789062 225.535156 245.152344 222.8125 C 246.605469 221.175781 246.964844 219.179688 247.328125 217.910156 C 247.511719 217.183594 247.691406 216.457031 247.875 215.730469 C 247.328125 216.09375 246.785156 216.457031 246.242188 217 C 243.699219 218.816406 240.792969 219.179688 238.066406 218.636719 C 237.523438 218.636719 236.976562 218.816406 236.433594 218.816406 C 236.25 218.816406 236.070312 218.816406 235.707031 218.816406 C 234.980469 222.085938 232.984375 224.808594 229.714844 226.445312 C 228.078125 227.351562 226.261719 228.078125 224.445312 228.804688 C 220.996094 230.257812 217 229.894531 214.09375 227.898438 C 213.914062 229.53125 213.1875 230.804688 212.097656 231.894531 Z M 212.097656 231.894531 " fill-opacity="1" fill-rule="nonzero"/><path fill="#ffffff" d="M 144.355469 191.03125 C 145.261719 189.757812 146.351562 188.125 146.898438 186.308594 C 148.894531 180.679688 146.535156 174.503906 140.90625 169.960938 C 139.996094 169.238281 139.269531 168.328125 138.726562 167.238281 C 137.816406 169.597656 136.910156 172.140625 135.820312 175.046875 C 136 175.230469 136.183594 175.410156 136.363281 175.59375 C 138.90625 177.589844 141.085938 180.679688 139.996094 183.765625 C 139.632812 184.671875 138.90625 185.761719 138.179688 186.671875 C 137.453125 187.761719 136.546875 189.03125 135.820312 190.667969 C 134.003906 194.84375 134.730469 199.382812 135.273438 203.199219 C 135.636719 205.378906 135.820312 207.375 135.820312 209.371094 C 136.183594 209.554688 136.546875 209.554688 137.089844 209.734375 C 138.542969 210.28125 139.996094 211.007812 141.449219 211.550781 C 141.996094 211.734375 142.359375 211.914062 142.902344 212.277344 C 143.628906 208.828125 143.085938 205.378906 142.722656 202.289062 C 142.175781 198.839844 141.8125 195.933594 142.902344 193.574219 C 143.085938 192.847656 143.628906 191.9375 144.355469 191.03125 Z M 144.355469 191.03125 " fill-opacity="1" fill-rule="nonzero"/><path fill="#ffffff" d="M 111.847656 117.296875 C 97.863281 117.296875 86.421875 129.101562 86.421875 143.449219 C 86.421875 152.527344 96.046875 176.863281 104.21875 195.75 C 105.488281 198.839844 108.394531 200.835938 111.847656 200.835938 C 115.296875 200.835938 118.019531 198.839844 119.472656 195.75 C 127.648438 176.863281 137.273438 152.527344 137.273438 143.449219 C 137.273438 129.101562 125.832031 117.296875 111.847656 117.296875 Z M 112.753906 193.027344 C 112.574219 193.390625 112.210938 193.574219 111.847656 193.574219 C 111.484375 193.574219 111.121094 193.390625 110.9375 193.027344 C 100.222656 167.964844 93.683594 149.441406 93.683594 143.449219 C 93.683594 133.09375 101.859375 124.558594 111.847656 124.558594 C 121.835938 124.558594 130.007812 133.09375 130.007812 143.449219 C 130.007812 149.257812 123.652344 167.785156 112.753906 193.027344 Z M 112.753906 193.027344 " fill-opacity="1" fill-rule="nonzero"/><path fill="#ffffff" d="M 111.847656 130.734375 C 105.125 130.734375 99.496094 136.363281 99.496094 143.265625 C 99.496094 150.167969 104.945312 155.796875 111.847656 155.796875 C 118.746094 155.796875 124.195312 150.167969 124.195312 143.265625 C 124.195312 136.363281 118.566406 130.734375 111.847656 130.734375 Z M 111.847656 148.714844 C 109.121094 148.714844 106.761719 146.351562 106.761719 143.449219 C 106.761719 140.542969 109.121094 138.179688 111.847656 138.179688 C 114.570312 138.179688 116.933594 140.542969 116.933594 143.449219 C 116.933594 146.351562 114.570312 148.714844 111.847656 148.714844 Z M 111.847656 148.714844 " fill-opacity="1" fill-rule="nonzero"/><g clip-path="url(#297f3c1729)"><path fill="#ffffff" d="M 246.242188 98.042969 C 246.242188 107.125 255.867188 131.460938 264.039062 150.347656 C 265.308594 153.4375 268.214844 155.433594 271.667969 155.433594 C 275.117188 155.433594 277.839844 153.4375 279.292969 150.347656 C 287.464844 131.460938 297.09375 106.941406 297.09375 98.042969 C 297.09375 83.695312 285.648438 71.890625 271.667969 71.890625 C 257.683594 71.890625 246.242188 83.695312 246.242188 98.042969 Z M 289.828125 98.042969 C 289.828125 103.855469 283.472656 122.378906 272.574219 147.625 C 272.394531 148.167969 272.03125 148.167969 271.667969 148.167969 C 271.304688 148.167969 270.941406 147.988281 270.757812 147.625 C 260.042969 122.5625 253.503906 104.039062 253.503906 98.042969 C 253.503906 87.691406 261.675781 79.15625 271.667969 79.15625 C 281.65625 79.15625 289.828125 87.691406 289.828125 98.042969 Z M 289.828125 98.042969 " fill-opacity="1" fill-rule="nonzero"/></g><path fill="#ffffff" d="M 259.316406 98.042969 C 259.316406 104.945312 264.765625 110.574219 271.667969 110.574219 C 278.566406 110.574219 284.015625 104.945312 284.015625 98.042969 C 284.015625 91.144531 278.386719 85.511719 271.667969 85.511719 C 264.945312 85.332031 259.316406 90.960938 259.316406 98.042969 Z M 276.75 98.042969 C 276.75 100.949219 274.390625 103.3125 271.667969 103.3125 C 268.941406 103.3125 266.582031 100.949219 266.582031 98.042969 C 266.582031 95.136719 268.941406 92.777344 271.667969 92.777344 C 274.390625 92.59375 276.75 94.957031 276.75 98.042969 Z M 276.75 98.042969 " fill-opacity="1" fill-rule="nonzero"/><path fill="#ffffff" d="M 117.296875 207.195312 C 115.660156 206.105469 113.300781 206.46875 112.210938 208.101562 C 111.121094 209.734375 111.484375 212.097656 113.117188 213.1875 C 113.84375 213.730469 114.753906 214.277344 115.480469 214.820312 C 116.023438 215.183594 116.75 215.367188 117.476562 215.367188 C 118.746094 215.367188 119.835938 214.820312 120.5625 213.730469 C 121.652344 212.097656 121.109375 209.734375 119.472656 208.644531 C 118.746094 208.28125 118.019531 207.738281 117.296875 207.195312 Z M 117.296875 207.195312 " fill-opacity="1" fill-rule="nonzero"/><path fill="#ffffff" d="M 134.183594 216.636719 C 132.367188 215.910156 130.191406 216.636719 129.464844 218.453125 C 128.738281 220.269531 129.464844 222.449219 131.277344 223.175781 C 132.914062 223.902344 134.546875 224.628906 136.183594 225.171875 C 136.546875 225.355469 137.089844 225.355469 137.453125 225.355469 C 138.90625 225.355469 140.359375 224.445312 140.90625 222.992188 C 141.632812 221.175781 140.722656 219 138.726562 218.273438 C 137.273438 217.910156 135.636719 217.183594 134.183594 216.636719 Z M 134.183594 216.636719 " fill-opacity="1" fill-rule="nonzero"/><path fill="#ffffff" d="M 203.015625 221.175781 C 201.382812 221.539062 199.746094 222.085938 198.113281 222.449219 C 196.113281 222.8125 194.84375 224.808594 195.386719 226.808594 C 195.75 228.441406 197.203125 229.714844 199.019531 229.714844 C 199.203125 229.714844 199.566406 229.714844 199.746094 229.714844 C 201.5625 229.351562 203.199219 228.988281 205.015625 228.441406 C 207.011719 227.898438 208.101562 225.898438 207.558594 224.082031 C 207.011719 221.902344 205.015625 220.632812 203.015625 221.175781 Z M 203.015625 221.175781 " fill-opacity="1" fill-rule="nonzero"/><path fill="#ffffff" d="M 240.066406 211.914062 C 240.792969 211.914062 241.519531 211.734375 242.0625 211.1875 C 243.515625 210.097656 244.96875 209.007812 246.421875 208.101562 C 248.054688 206.832031 248.238281 204.652344 247.148438 203.015625 C 245.878906 201.382812 243.699219 201.199219 242.0625 202.289062 C 240.792969 203.378906 239.339844 204.289062 238.066406 205.195312 C 236.433594 206.285156 236.070312 208.644531 237.160156 210.28125 C 237.703125 211.371094 238.792969 211.914062 240.066406 211.914062 Z M 240.066406 211.914062 " fill-opacity="1" fill-rule="nonzero"/><path fill="#ffffff" d="M 259.679688 195.75 C 260.949219 194.300781 262.039062 193.027344 263.128906 191.574219 C 264.402344 189.941406 264.039062 187.761719 262.402344 186.488281 C 260.769531 185.21875 258.589844 185.582031 257.320312 187.214844 C 256.410156 188.488281 255.320312 189.757812 254.230469 191.03125 C 252.960938 192.484375 253.140625 194.84375 254.59375 196.113281 C 255.320312 196.660156 256.230469 197.023438 256.957031 197.023438 C 257.863281 197.023438 258.953125 196.660156 259.679688 195.75 Z M 259.679688 195.75 " fill-opacity="1" fill-rule="nonzero"/><path fill="#ffffff" d="M 181.585938 224.628906 C 179.953125 224.808594 178.316406 224.808594 176.5 224.808594 C 174.503906 224.808594 172.867188 226.445312 172.867188 228.441406 C 172.867188 230.441406 174.503906 232.074219 176.5 232.074219 C 178.316406 232.074219 180.132812 231.894531 181.949219 231.894531 C 183.945312 231.710938 185.398438 230.078125 185.398438 228.078125 C 185.398438 226.082031 183.582031 224.628906 181.585938 224.628906 Z M 181.585938 224.628906 " fill-opacity="1" fill-rule="nonzero"/><path fill="#ffffff" d="M 220.269531 222.628906 C 220.816406 222.628906 221.175781 222.449219 221.722656 222.265625 C 223.355469 221.539062 224.992188 220.816406 226.625 220.089844 C 228.441406 219.179688 229.167969 217 228.261719 215.183594 C 227.351562 213.367188 225.171875 212.640625 223.355469 213.550781 C 221.902344 214.277344 220.269531 215.003906 218.816406 215.546875 C 217 216.273438 216.09375 218.453125 217 220.269531 C 217.546875 221.902344 218.816406 222.628906 220.269531 222.628906 Z M 220.269531 222.628906 " fill-opacity="1" fill-rule="nonzero"/><path fill="#ffffff" d="M 150.53125 225.898438 C 150.167969 227.898438 151.4375 229.714844 153.4375 230.078125 C 155.253906 230.441406 157.066406 230.804688 158.703125 230.984375 C 158.882812 230.984375 159.066406 230.984375 159.246094 230.984375 C 161.0625 230.984375 162.515625 229.714844 162.878906 227.898438 C 163.242188 225.898438 161.789062 224.082031 159.792969 223.71875 C 158.15625 223.539062 156.523438 223.175781 154.890625 222.8125 C 152.890625 222.628906 151.074219 223.902344 150.53125 225.898438 Z M 150.53125 225.898438 " fill-opacity="1" fill-rule="nonzero"/><g clip-path="url(#87a74b2549)"><path fill="#ffffff" d="M 288.738281 146.535156 C 290.917969 151.621094 292.550781 157.066406 294.003906 162.515625 C 293.097656 161.972656 292.007812 161.425781 291.097656 160.699219 C 288.917969 159.246094 286.195312 157.613281 283.472656 157.066406 C 280.929688 159.972656 277.476562 161.972656 273.664062 162.335938 C 273.664062 162.335938 273.664062 162.515625 273.480469 162.515625 C 272.9375 163.242188 272.394531 164.152344 271.847656 164.515625 C 269.851562 166.332031 266.035156 165.242188 264.039062 163.242188 C 262.765625 161.972656 261.859375 160.335938 261.3125 158.519531 C 259.679688 157.066406 258.410156 155.253906 257.5 153.074219 C 255.140625 147.441406 252.960938 142.539062 251.144531 138 C 249.871094 137.453125 248.601562 136.910156 247.328125 136.546875 C 245.695312 136 243.699219 135.273438 243.152344 134.546875 C 242.425781 133.640625 242.246094 131.640625 242.0625 129.828125 C 241.882812 126.921875 241.519531 123.46875 238.792969 121.472656 C 234.796875 118.382812 228.625 118.019531 222.628906 120.5625 C 220.632812 121.472656 218.816406 122.5625 217 123.46875 C 215.003906 124.558594 213.1875 125.648438 211.1875 126.375 C 208.28125 127.464844 204.652344 127.648438 202.835938 125.648438 C 202.109375 124.921875 201.5625 123.289062 201.019531 121.652344 C 199.929688 118.566406 198.476562 113.84375 193.390625 113.300781 C 186.671875 112.574219 186.125 110.394531 185.21875 105.671875 C 184.308594 101.859375 183.21875 96.410156 177.046875 93.140625 C 173.414062 91.144531 169.054688 90.960938 164.695312 90.960938 C 156.886719 90.78125 154.34375 90.597656 154.34375 84.058594 C 154.34375 84.058594 154.34375 84.058594 154.34375 83.878906 C 165.058594 80.972656 176.320312 79.15625 188.125 79.15625 C 206.648438 79.15625 224.265625 83.878906 239.519531 92.050781 C 239.882812 89.507812 240.609375 87.148438 241.519531 84.96875 C 225.535156 76.613281 207.375 71.890625 188.125 71.890625 C 153.074219 71.890625 121.472656 87.511719 100.222656 112.210938 C 103.855469 110.757812 107.851562 110.03125 111.847656 110.03125 C 112.027344 110.03125 112.027344 110.03125 112.210938 110.03125 C 122.199219 100.222656 134.183594 92.414062 147.261719 87.148438 C 148.53125 98.589844 158.15625 98.769531 164.695312 98.769531 C 167.964844 98.769531 171.414062 98.769531 173.59375 100.042969 C 176.683594 101.675781 177.226562 104.039062 178.136719 107.851562 C 179.226562 112.9375 180.859375 119.835938 192.664062 120.925781 C 193.210938 121.289062 193.753906 123.289062 194.117188 124.378906 C 194.84375 126.558594 195.75 129.101562 197.566406 131.097656 C 201.925781 135.636719 208.828125 135.273438 213.730469 133.457031 C 216.273438 132.550781 218.453125 131.277344 220.632812 130.007812 C 222.265625 129.101562 223.902344 128.191406 225.535156 127.464844 C 228.261719 126.375 231.894531 125.648438 234.253906 127.285156 C 234.617188 127.828125 234.617188 129.464844 234.796875 130.554688 C 234.980469 133.277344 235.34375 136.726562 237.523438 139.269531 C 239.339844 141.449219 242.246094 142.359375 244.96875 143.449219 C 246.96875 144.171875 249.328125 145.082031 250.234375 145.988281 C 251.6875 147.988281 252.234375 150.710938 252.597656 153.4375 C 253.324219 158.519531 254.777344 164.152344 258.953125 168.328125 C 260.769531 170.144531 263.128906 171.597656 265.671875 172.140625 C 265.671875 172.324219 265.492188 172.6875 265.492188 172.867188 C 264.765625 174.683594 265.671875 176.863281 267.671875 177.589844 C 268.035156 177.773438 268.578125 177.773438 268.941406 177.773438 C 270.394531 177.773438 271.847656 176.863281 272.394531 175.410156 C 272.757812 174.503906 273.117188 173.59375 273.300781 172.6875 C 273.300781 172.503906 273.480469 172.324219 273.480469 172.140625 C 274.753906 171.777344 276.023438 171.050781 277.113281 169.960938 C 278.203125 168.875 279.113281 167.785156 279.839844 166.695312 C 280.566406 165.605469 281.292969 164.695312 281.835938 164.332031 C 282.925781 163.789062 284.925781 164.878906 287.648438 166.695312 C 290.007812 168.328125 292.914062 170.144531 296.183594 170.324219 C 297.09375 175.957031 297.636719 181.949219 297.636719 187.941406 C 297.636719 248.054688 248.78125 296.910156 188.667969 296.910156 C 161.425781 296.910156 136.546875 286.921875 117.476562 270.214844 C 119.292969 269.851562 120.925781 268.941406 122.199219 267.671875 C 128.191406 261.859375 127.828125 253.503906 127.464844 246.058594 C 127.101562 238.613281 127.285156 233.527344 130.191406 230.078125 C 129.828125 229.894531 129.28125 229.714844 128.917969 229.53125 C 126.921875 228.625 125.46875 227.351562 124.378906 225.71875 C 119.65625 231.53125 120.019531 239.339844 120.199219 246.242188 C 120.382812 252.597656 120.746094 258.773438 117.113281 262.222656 C 116.75 262.585938 116.023438 263.128906 114.753906 262.949219 C 112.210938 262.949219 108.757812 261.132812 106.214844 258.410156 C 89.144531 240.066406 79.15625 215.183594 79.15625 188.125 C 79.15625 178.5 80.425781 169.238281 82.789062 160.335938 C 80.609375 153.617188 79.882812 149.621094 79.519531 147.078125 C 74.617188 159.792969 71.890625 173.59375 71.890625 188.125 C 71.890625 216.273438 82.0625 242.246094 98.769531 262.402344 C 98.953125 262.585938 99.132812 262.765625 99.132812 263.128906 C 99.316406 263.492188 99.679688 263.675781 100.042969 264.039062 C 121.472656 288.738281 152.890625 304.355469 188.125 304.355469 C 252.234375 304.355469 304.355469 252.234375 304.355469 188.125 C 304.355469 169.960938 300.179688 152.710938 292.550781 137.273438 C 291.460938 140.179688 290.191406 143.265625 288.738281 146.535156 Z M 288.738281 146.535156 " fill-opacity="1" fill-rule="nonzero"/></g></svg>