<svg xmlns="http://www.w3.org/2000/svg" xmlns:xlink="http://www.w3.org/1999/xlink" width="500" zoomAndPan="magnify" viewBox="0 0 375 374.999991" height="500" preserveAspectRatio="xMidYMid meet" version="1.0"><defs><clipPath id="558da31094"><path d="M 187.5 0 C 83.945312 0 0 83.945312 0 187.5 C 0 291.054688 83.945312 375 187.5 375 C 291.054688 375 375 291.054688 375 187.5 C 375 83.945312 291.054688 0 187.5 0 Z M 187.5 0 " clip-rule="nonzero"/></clipPath><clipPath id="0405517ab1"><path d="M 91.636719 278 L 283.636719 278 L 283.636719 298 L 91.636719 298 Z M 91.636719 278 " clip-rule="nonzero"/></clipPath><clipPath id="64efcfbf4a"><path d="M 173 52.480469 L 199 52.480469 L 199 101 L 173 101 Z M 173 52.480469 " clip-rule="nonzero"/></clipPath><clipPath id="7574f4bb91"><path d="M 91.636719 302 L 283.636719 302 L 283.636719 321 L 91.636719 321 Z M 91.636719 302 " clip-rule="nonzero"/></clipPath></defs><g clip-path="url(#558da31094)"><rect x="-37.5" width="450" fill="#fec743" y="-37.499999" height="449.999989" fill-opacity="1"/></g><g clip-path="url(#0405517ab1)"><path fill="#ffffff" d="M 99.503906 291.847656 C 108.039062 298.738281 122.667969 298.890625 131.460938 292.175781 L 137.328125 287.695312 C 144.464844 282.234375 156.664062 282.144531 163.96875 287.496094 L 170.777344 292.480469 C 179.710938 299.03125 194.304688 298.675781 202.648438 291.707031 L 208.320312 286.976562 C 215.25 281.1875 227.90625 280.867188 235.402344 286.289062 L 244.527344 292.878906 C 248.832031 295.984375 254.351562 297.527344 259.863281 297.527344 C 265.738281 297.527344 271.609375 295.773438 275.96875 292.289062 L 283.375 286.367188 L 280.992188 283.390625 L 273.585938 289.308594 C 266.511719 294.964844 254.226562 295.179688 246.761719 289.789062 L 237.636719 283.195312 C 228.707031 276.746094 214.160156 277.132812 205.871094 284.042969 L 200.199219 288.777344 C 193.222656 294.601562 180.523438 294.890625 173.023438 289.402344 L 166.21875 284.414062 C 157.523438 278.042969 143.519531 278.152344 135.007812 284.660156 L 129.140625 289.144531 C 121.773438 294.773438 109.046875 294.648438 101.898438 288.878906 L 97.675781 285.472656 C 96.363281 284.414062 94.878906 283.492188 93.257812 282.730469 L 91.636719 286.179688 C 92.976562 286.8125 94.207031 287.574219 95.28125 288.441406 Z M 99.503906 291.847656 " fill-opacity="1" fill-rule="nonzero"/></g><path fill="#ffffff" d="M 95.914062 265.757812 C 95.902344 265.398438 95.167969 229.648438 135.957031 203.992188 C 165.058594 185.683594 179 165.984375 185.015625 155.03125 L 185.015625 181.058594 C 183.398438 185.023438 174.929688 203.035156 149.125 219.265625 C 118.578125 238.480469 119.195312 264.785156 119.238281 265.898438 L 123.050781 265.757812 C 123.039062 265.503906 122.5625 240.484375 151.160156 222.492188 C 170.292969 210.453125 180.226562 197.554688 185.015625 189.484375 L 185.015625 216.058594 C 183.878906 218.730469 178.859375 228.734375 164.378906 237.835938 C 146.074219 249.351562 146.453125 265.222656 146.472656 265.890625 L 150.285156 265.757812 C 150.269531 265.171875 150.046875 251.359375 166.40625 241.070312 C 176.03125 235.015625 181.746094 228.566406 185.011719 223.800781 L 185.011719 265.824219 L 188.828125 265.824219 L 188.828125 223.425781 C 192.046875 228.222656 197.804688 234.851562 207.679688 241.070312 C 224.042969 251.359375 223.820312 265.179688 223.804688 265.753906 L 227.617188 265.890625 C 227.640625 265.222656 228.011719 249.351562 209.714844 237.835938 C 193.652344 227.730469 189.179688 216.382812 188.828125 215.421875 L 188.828125 189.054688 C 193.515625 197.089844 203.457031 210.234375 222.933594 222.488281 C 251.53125 240.472656 251.050781 265.5 251.042969 265.746094 L 254.855469 265.886719 C 254.898438 264.777344 255.507812 238.472656 224.96875 219.257812 C 197.351562 201.882812 189.546875 182.328125 188.828125 180.398438 L 188.828125 154.554688 C 194.699219 165.40625 208.609375 185.410156 238.136719 203.980469 C 278.925781 229.640625 278.191406 265.394531 278.179688 265.746094 L 281.992188 265.886719 C 282.007812 265.496094 282.292969 256.128906 277.253906 243.371094 C 272.636719 231.664062 262.449219 214.773438 240.164062 200.753906 C 206.914062 179.839844 193.882812 156.667969 190.050781 148.398438 L 220.929688 110.972656 L 217.988281 108.546875 L 188.828125 143.890625 L 188.828125 109.757812 L 185.011719 109.757812 L 185.011719 144.125 L 155.652344 108.546875 L 152.710938 110.972656 L 183.882812 148.75 C 179.875 157.308594 166.78125 180.085938 133.925781 200.761719 C 111.632812 214.78125 101.453125 231.675781 96.835938 243.375 C 91.800781 256.140625 92.085938 265.5 92.097656 265.890625 Z M 95.914062 265.757812 " fill-opacity="1" fill-rule="nonzero"/><g clip-path="url(#64efcfbf4a)"><path fill="#ffffff" d="M 185.953125 99.722656 L 187.125 100.410156 L 188.160156 99.527344 C 194.878906 93.816406 198.476562 87.160156 198.851562 79.738281 C 199.554688 65.882812 188.761719 54.480469 188.300781 53.996094 L 186.914062 52.566406 L 185.542969 54.015625 C 176.4375 63.621094 172.445312 72.945312 173.683594 81.714844 C 175.316406 93.328125 185.519531 99.46875 185.953125 99.722656 Z M 186.878906 58.195312 C 189.597656 61.570312 195.519531 70.0625 195.042969 79.550781 C 194.742188 85.480469 191.960938 90.898438 186.777344 95.667969 C 184.300781 93.84375 178.527344 88.832031 177.457031 81.144531 C 176.472656 74.042969 179.636719 66.332031 186.878906 58.195312 Z M 186.878906 58.195312 " fill-opacity="1" fill-rule="nonzero"/></g><path fill="#ffffff" d="M 133.085938 149.640625 C 135.738281 150.578125 138.464844 151.042969 141.257812 151.042969 C 145.835938 151.042969 150.585938 149.78125 155.453125 147.269531 L 156.660156 146.648438 L 156.46875 145.304688 C 156.398438 144.804688 154.59375 133.035156 144.472656 127.109375 C 136.828125 122.632812 126.691406 122.785156 114.34375 127.554688 L 112.484375 128.273438 L 113.289062 130.105469 C 113.554688 130.710938 120.003906 145.019531 133.085938 149.640625 Z M 142.511719 130.382812 C 149.214844 134.292969 151.664062 141.539062 152.410156 144.523438 C 146.03125 147.507812 139.972656 148.023438 134.382812 146.050781 C 125.433594 142.90625 119.808594 134.191406 117.710938 130.378906 C 127.976562 126.773438 136.320312 126.773438 142.511719 130.382812 Z M 142.511719 130.382812 " fill-opacity="1" fill-rule="nonzero"/><path fill="#ffffff" d="M 228.515625 127.109375 C 218.394531 133.035156 216.589844 144.804688 216.523438 145.304688 L 216.328125 146.648438 L 217.535156 147.269531 C 222.402344 149.78125 227.152344 151.042969 231.730469 151.042969 C 234.523438 151.042969 237.25 150.578125 239.902344 149.640625 C 252.988281 145.027344 259.433594 130.710938 259.699219 130.105469 L 260.507812 128.273438 L 258.644531 127.554688 C 246.300781 122.785156 236.164062 122.632812 228.515625 127.109375 Z M 238.613281 146.050781 C 233.019531 148.023438 226.957031 147.5 220.578125 144.515625 C 221.316406 141.546875 223.730469 134.335938 230.449219 130.402344 C 236.648438 126.773438 244.996094 126.765625 255.289062 130.378906 C 253.183594 134.191406 247.554688 142.90625 238.613281 146.050781 Z M 238.613281 146.050781 " fill-opacity="1" fill-rule="nonzero"/><path fill="#ffffff" d="M 145.671875 101.078125 L 147.011719 101.320312 L 147.675781 100.140625 C 147.921875 99.699219 153.675781 89.277344 149.265625 78.40625 C 145.9375 70.203125 137.808594 64.136719 125.121094 60.386719 L 123.207031 59.816406 L 122.730469 61.757812 C 122.574219 62.402344 118.949219 77.679688 126.5 89.320312 C 130.546875 95.550781 137 99.507812 145.671875 101.078125 Z M 126.0625 64.671875 C 136.398438 68.082031 143.011719 73.167969 145.714844 79.808594 C 148.648438 86.996094 146.160156 94.230469 144.9375 97.046875 C 138.066406 95.523438 132.949219 92.234375 129.714844 87.265625 C 124.546875 79.308594 125.40625 68.96875 126.0625 64.671875 Z M 126.0625 64.671875 " fill-opacity="1" fill-rule="nonzero"/><path fill="#ffffff" d="M 224.984375 101.320312 L 226.320312 101.078125 C 234.996094 99.507812 241.445312 95.550781 245.492188 89.3125 C 253.050781 77.671875 249.429688 62.398438 249.265625 61.753906 L 248.789062 59.808594 L 246.875 60.378906 C 234.179688 64.132812 226.058594 70.195312 222.730469 78.402344 C 218.324219 89.269531 224.074219 99.699219 224.320312 100.136719 Z M 226.273438 79.804688 C 228.984375 73.164062 235.589844 68.082031 245.929688 64.667969 C 246.589844 68.96875 247.449219 79.304688 242.273438 87.253906 C 239.042969 92.222656 233.921875 95.507812 227.050781 97.039062 C 225.828125 94.226562 223.34375 86.992188 226.273438 79.804688 Z M 226.273438 79.804688 " fill-opacity="1" fill-rule="nonzero"/><g clip-path="url(#7574f4bb91)"><path fill="#ffffff" d="M 280.992188 306.785156 L 273.585938 312.710938 C 266.511719 318.367188 254.226562 318.582031 246.761719 313.1875 L 237.636719 306.597656 C 228.699219 300.144531 214.160156 300.53125 205.871094 307.449219 L 200.199219 312.183594 C 193.222656 318.007812 180.523438 318.304688 173.023438 312.808594 L 166.21875 307.820312 C 157.523438 301.449219 143.519531 301.558594 135.007812 308.0625 L 129.140625 312.542969 C 121.773438 318.175781 109.046875 318.050781 101.898438 312.28125 L 97.675781 308.867188 C 96.363281 307.808594 94.878906 306.886719 93.257812 306.125 L 91.636719 309.570312 C 92.976562 310.203125 94.207031 310.964844 95.28125 311.832031 L 99.503906 315.242188 C 108.039062 322.136719 122.667969 322.285156 131.460938 315.570312 L 137.328125 311.089844 C 144.464844 305.632812 156.664062 305.539062 163.96875 310.890625 L 170.777344 315.878906 C 179.710938 322.425781 194.304688 322.070312 202.648438 315.105469 L 208.320312 310.371094 C 215.25 304.589844 227.90625 304.261719 235.402344 309.683594 L 244.527344 316.273438 C 248.832031 319.382812 254.351562 320.929688 259.863281 320.929688 C 265.738281 320.929688 271.609375 319.171875 275.96875 315.691406 L 283.375 309.765625 Z M 280.992188 306.785156 " fill-opacity="1" fill-rule="nonzero"/></g></svg>