<svg xmlns="http://www.w3.org/2000/svg" xmlns:xlink="http://www.w3.org/1999/xlink" width="500" zoomAndPan="magnify" viewBox="0 0 375 374.999991" height="500" preserveAspectRatio="xMidYMid meet" version="1.0"><defs><clipPath id="79cf9c8325"><path d="M 187.5 0 C 83.945312 0 0 83.945312 0 187.5 C 0 291.054688 83.945312 375 187.5 375 C 291.054688 375 375 291.054688 375 187.5 C 375 83.945312 291.054688 0 187.5 0 Z M 187.5 0 " clip-rule="nonzero"/></clipPath><clipPath id="0e752f5b98"><path d="M 45.035156 115.796875 L 345.035156 115.796875 L 345.035156 249.496094 L 45.035156 249.496094 Z M 45.035156 115.796875 " clip-rule="nonzero"/></clipPath></defs><g clip-path="url(#79cf9c8325)"><rect x="-37.5" width="450" fill="#ff3131" y="-37.499999" height="449.999989" fill-opacity="1"/></g><g clip-path="url(#0e752f5b98)"><path fill="#ffffff" d="M 99.738281 119.527344 C 100.484375 122.910156 100.269531 126.449219 99.097656 129.726562 L 99.339844 129.726562 C 98.886719 131.058594 99.550781 132.496094 100.855469 132.949219 C 101.789062 133.296875 102.773438 133.054688 103.46875 132.390625 C 106.957031 129.0625 110.230469 125.546875 113.347656 121.894531 C 117.023438 125.277344 119.234375 129.992188 119.5 135 C 119.605469 137.023438 121.019531 138.753906 122.988281 139.289062 C 125.441406 139.902344 127.808594 140.859375 129.996094 142.136719 C 131.726562 143.148438 133.75 143.550781 135.71875 143.28125 C 142.75 142.324219 149.863281 142.164062 156.921875 142.75 C 158.707031 142.882812 160.488281 142.722656 162.246094 142.296875 C 171.890625 139.847656 181.902344 138.96875 191.835938 139.714844 C 202.066406 139.902344 212.210938 141.550781 221.960938 144.640625 C 231.070312 148.847656 239.003906 155.292969 244.996094 163.363281 C 254.320312 175.617188 263.746094 187.761719 273.308594 199.800781 C 276.105469 203.316406 279.621094 206.164062 283.617188 208.164062 C 293.257812 212.984375 302.6875 218.28125 311.792969 224.0625 C 321.488281 231.09375 331.421875 237.804688 341.492188 244.277344 C 337.523438 244.835938 333.449219 244.730469 329.507812 243.984375 C 320.289062 240.734375 311.289062 236.925781 302.554688 232.53125 C 292.539062 229.496094 283.324219 224.300781 275.519531 217.296875 C 274.214844 216.152344 272.777344 215.195312 271.179688 214.5 C 267.078125 212.714844 263.136719 210.558594 259.460938 208.027344 C 249.390625 201.183594 235.78125 203.183594 228.113281 212.609375 C 227.152344 213.808594 226.273438 215.058594 225.503906 216.390625 C 223.050781 223.476562 222.546875 231.09375 224.089844 238.417969 C 224.648438 241.082031 223.132812 243.746094 220.574219 244.625 C 217.351562 245.742188 213.917969 246.140625 210.535156 245.742188 C 200.945312 245.371094 191.382812 244.382812 181.902344 242.8125 C 183.261719 242.28125 184.671875 241.878906 186.109375 241.585938 C 190.984375 240.148438 196.097656 239.667969 201.160156 240.203125 C 203.742188 240.46875 206.03125 238.605469 206.300781 236.046875 C 206.433594 234.609375 205.925781 233.199219 204.914062 232.210938 C 196.792969 224.25 189.308594 215.699219 182.542969 206.589844 C 179.824219 204.328125 176.761719 202.515625 173.488281 201.183594 C 168.878906 199.320312 163.632812 201.558594 161.769531 206.164062 C 161.636719 206.484375 161.527344 206.777344 161.449219 207.097656 C 159.71875 213.25 157.132812 219.136719 153.75 224.570312 C 150.636719 233.835938 143.390625 241.132812 134.121094 244.332031 C 129.941406 245.476562 125.574219 245.980469 121.230469 245.875 C 133.589844 238.179688 141.261719 224.808594 141.605469 210.238281 C 141.714844 206.617188 139.636719 203.316406 136.332031 201.824219 C 122.5625 195.589844 109.726562 187.496094 98.195312 177.746094 C 94.890625 174.976562 90.125 174.921875 86.769531 177.613281 C 83.253906 180.410156 79.390625 182.78125 75.316406 184.671875 C 73.078125 185.710938 70.414062 185.097656 68.84375 183.207031 C 68.710938 183.046875 68.710938 182.832031 68.84375 182.675781 C 72.011719 180.332031 74.171875 176.894531 74.941406 173.03125 C 75.050781 172.5 75.234375 171.992188 75.503906 171.515625 C 79.019531 165.042969 76.59375 156.917969 70.121094 153.402344 C 68.042969 152.285156 65.726562 151.726562 63.355469 151.804688 C 57.949219 152.925781 52.359375 151.007812 48.734375 146.824219 C 48.574219 146.691406 48.574219 146.453125 48.707031 146.320312 C 48.707031 146.292969 48.734375 146.292969 48.734375 146.265625 C 54.460938 143.015625 60.613281 140.566406 67.007812 139.074219 C 68.179688 138.808594 69.269531 138.300781 70.230469 137.636719 C 74.464844 134.574219 79.628906 133.082031 84.851562 133.402344 C 86.847656 133.507812 88.6875 132.363281 89.457031 130.527344 C 91.429688 125.679688 95.15625 121.761719 99.84375 119.527344 Z M 100.246094 115.769531 C 99.765625 115.769531 99.257812 115.851562 98.804688 116.0625 C 93.105469 118.671875 88.578125 123.335938 86.183594 129.140625 C 86.023438 129.566406 85.570312 129.859375 85.117188 129.804688 C 79.070312 129.433594 73.078125 131.164062 68.179688 134.707031 C 67.617188 135.105469 66.953125 135.425781 66.261719 135.585938 C 59.523438 137.15625 53.050781 139.714844 47.03125 143.148438 C 45.140625 144.242188 44.472656 146.664062 45.566406 148.554688 C 45.671875 148.769531 45.832031 148.984375 45.992188 149.167969 C 47.777344 151.246094 49.988281 152.898438 52.464844 154.042969 L 52.464844 159.238281 C 52.492188 160.222656 53.316406 161.019531 54.328125 160.996094 C 55.289062 160.96875 56.058594 160.195312 56.085938 159.238281 L 56.085938 155.242188 C 56.859375 155.429688 57.65625 155.5625 58.457031 155.640625 L 58.457031 161.152344 C 58.484375 162.140625 59.308594 162.9375 60.292969 162.886719 C 61.253906 162.859375 62 162.113281 62.050781 161.152344 L 62.050781 155.640625 C 62.613281 155.585938 63.144531 155.507812 63.703125 155.402344 C 69.109375 155.375 73.476562 159.742188 73.503906 165.121094 C 73.503906 166.773438 73.105469 168.371094 72.304688 169.808594 C 71.878906 170.609375 71.585938 171.460938 71.402344 172.339844 C 70.894531 174.898438 69.589844 177.214844 67.699219 178.972656 L 64.957031 177.054688 C 64.128906 176.496094 63.011719 176.679688 62.453125 177.507812 C 61.867188 178.304688 62.078125 179.425781 62.851562 180.011719 L 65.300781 181.714844 C 64.875 182.992188 65.113281 184.433594 65.992188 185.496094 C 68.578125 188.667969 73 189.679688 76.726562 187.949219 C 81.070312 185.949219 85.171875 183.417969 88.925781 180.410156 C 90.921875 178.8125 93.824219 178.839844 95.796875 180.515625 C 107.570312 190.476562 120.699219 198.761719 134.734375 205.097656 C 136.734375 206.003906 137.984375 208.003906 137.929688 210.160156 C 137.585938 223.902344 130.152344 236.472656 118.300781 243.398438 C 116.757812 244.304688 116.25 246.273438 117.15625 247.820312 C 117.691406 248.777344 118.675781 249.363281 119.765625 249.445312 C 124.933594 249.710938 130.101562 249.152344 135.109375 247.792969 C 145.308594 244.304688 153.351562 236.3125 156.921875 226.140625 C 160.382812 220.519531 163.019531 214.449219 164.804688 208.109375 C 165.628906 205.234375 168.613281 203.554688 171.488281 204.355469 C 171.675781 204.40625 171.863281 204.488281 172.046875 204.539062 C 174.84375 205.683594 177.457031 207.230469 179.824219 209.09375 C 186.644531 218.230469 194.179688 226.832031 202.332031 234.796875 C 202.757812 235.195312 202.785156 235.886719 202.359375 236.3125 C 202.117188 236.582031 201.773438 236.6875 201.453125 236.632812 C 195.964844 236.074219 190.425781 236.582031 185.152344 238.097656 C 183.101562 238.523438 181.105469 239.164062 179.1875 239.988281 C 177.5625 240.707031 176.816406 242.625 177.535156 244.277344 C 177.960938 245.261719 178.894531 245.980469 179.957031 246.167969 C 189.945312 247.871094 200.039062 248.9375 210.1875 249.335938 C 214.050781 249.765625 217.964844 249.335938 221.667969 248.058594 C 225.929688 246.566406 228.457031 242.148438 227.527344 237.699219 C 226.140625 231.121094 226.539062 224.300781 228.699219 217.910156 C 229.335938 216.84375 230.03125 215.859375 230.777344 214.902344 C 237.300781 206.910156 248.832031 205.234375 257.328125 211.011719 C 261.21875 213.675781 265.320312 215.9375 269.632812 217.804688 C 270.859375 218.363281 272.003906 219.082031 273.042969 219.988281 C 281.140625 227.285156 290.699219 232.71875 301.113281 235.914062 C 309.984375 240.335938 319.117188 244.199219 328.46875 247.472656 C 332.914062 248.351562 337.46875 248.484375 341.945312 247.847656 C 343.914062 247.578125 345.273438 245.769531 345.007812 243.796875 C 344.847656 242.757812 344.261719 241.828125 343.382812 241.269531 C 333.316406 234.824219 323.40625 228.109375 313.710938 221.105469 C 304.46875 215.246094 294.9375 209.839844 285.132812 204.964844 C 281.59375 203.183594 278.503906 200.679688 276.050781 197.589844 C 266.492188 185.550781 257.0625 173.433594 247.769531 161.234375 C 241.375 152.632812 232.90625 145.761719 223.160156 141.285156 C 213.039062 138.089844 202.515625 136.332031 191.890625 136.117188 C 181.609375 135.371094 171.277344 136.304688 161.261719 138.835938 C 159.902344 139.15625 158.519531 139.289062 157.132812 139.179688 C 149.808594 138.570312 142.433594 138.753906 135.160156 139.742188 C 133.960938 139.902344 132.738281 139.660156 131.699219 139.046875 C 129.222656 137.609375 126.585938 136.519531 123.816406 135.800781 C 123.335938 135.691406 122.988281 135.292969 122.964844 134.8125 C 122.671875 128.742188 119.925781 123.042969 115.371094 118.964844 C 114.039062 117.792969 111.988281 117.902344 110.792969 119.234375 C 110.792969 119.257812 110.765625 119.285156 110.738281 119.3125 C 108.472656 121.976562 106.105469 124.585938 103.628906 127.089844 C 104.105469 124.160156 104 121.152344 103.308594 118.273438 C 102.960938 116.863281 101.710938 115.851562 100.269531 115.796875 L 100.246094 115.769531 " fill-opacity="1" fill-rule="nonzero"/></g></svg>