<?xml version="1.0" encoding="UTF-8" standalone="no"?>
<!DOCTYPE svg PUBLIC "-//W3C//DTD SVG 1.1//EN" "http://www.w3.org/Graphics/SVG/1.1/DTD/svg11.dtd">
<svg xmlns="http://www.w3.org/2000/svg" xmlns:xlink="http://www.w3.org/1999/xlink" version="1.1" width="158.74pt" height="158.74pt" viewBox="0 0 158.74 158.74">
<g enable-background="new">
<g id="Layer-1" data-name="Artifact">
<clipPath id="cp5">
<path transform="matrix(1,0,0,-1,0,158.74)" d="M 0 0 L 158.74 0 L 158.74 158.74 L 0 158.74 Z "/>
</clipPath>
<g clip-path="url(#cp5)">
<path transform="matrix(1,0,0,-1,158.738,79.368709)" d="M 0 0 L 0 79.369 L -80.719 79.369 L -80.719 79.335 C -123.924 78.614 -158.738 43.387 -158.738 -.004 C -158.738 -43.84 -123.201 -79.372 -79.373 -79.372 C -35.673 -79.372 -.227 -44.057 -.008 -.408 L 0 -.408 L 0 -.078 C 0 -.053 .002 -.029 .002 -.004 C .002 -.003 0 -.001 0 0 " fill="#ee2c24"/>
<path transform="matrix(1,0,0,-1,155.4519,29.766205)" d="M 0 0 C -.001 .632 -.479 1.049 -1.029 1.048 C -1.584 1.047 -2.06 .628 -2.059 -.004 C -2.058 -.601 -1.628 -1.053 -1.025 -1.052 C -.475 -1.051 .001 -.632 0 0 M -.224 0 C -.223 -.514 -.576 -.869 -1.025 -.869 C -1.524 -.87 -1.834 -.48 -1.835 -.003 C -1.835 .508 -1.482 .865 -1.028 .866 C -.579 .866 -.225 .511 -.224 0 M -1.363 -.002 C -1.364 .231 -1.235 .419 -.999 .419 C -.839 .42 -.719 .322 -.69 .178 L -.5 .179 C -.537 .454 -.744 .602 -1 .602 C -1.364 .598 -1.588 .337 -1.588 -.003 C -1.587 -.365 -1.351 -.637 -.992 -.636 C -.745 -.636 -.543 -.47 -.496 -.203 L -.69 -.203 C -.709 -.349 -.827 -.453 -.992 -.454 C -1.22 -.454 -1.363 -.247 -1.363 -.002 M -1.811 -3.209 C -1.815 -.84 -3.221 .584 -5.567 .58 L -8.856 .574 L -8.842 -7.081 L -5.553 -7.075 C -3.229 -7.071 -1.807 -5.717 -1.811 -3.209 M -3.803 -3.202 C -3.801 -4.735 -4.4 -5.325 -5.91 -5.36 L -6.853 -5.362 L -6.86 -1.138 L -5.917 -1.136 C -4.557 -1.134 -3.806 -1.808 -3.803 -3.202 M -4.651 14.257 C -3.119 15.744 -2.792 17.895 -3.923 19.061 C -5.052 20.229 -7.212 19.968 -8.744 18.482 C -10.277 16.995 -10.603 14.845 -9.473 13.678 C -8.343 12.511 -6.184 12.77 -4.651 14.257 M -9.168 18.728 C -7.636 20.215 -7.309 22.367 -8.44 23.533 C -9.57 24.7 -11.728 24.44 -13.261 22.954 C -14.793 21.466 -15.12 19.316 -13.991 18.149 C -12.859 16.982 -10.701 17.241 -9.168 18.728 M -16.433 17.577 C -14.901 19.064 -14.574 21.215 -15.704 22.382 C -16.834 23.548 -18.994 23.29 -20.526 21.802 C -22.058 20.315 -22.384 18.164 -21.254 16.997 C -20.124 15.83 -17.965 16.09 -16.433 17.577 M -17.898 15.85 C -21.234 15.845 -23.934 13.133 -23.928 9.795 C -23.922 6.457 -21.213 3.754 -17.877 3.76 C -14.541 3.766 -11.841 6.478 -11.847 9.816 C -11.852 13.154 -14.562 15.856 -17.898 15.85 M -25.74 -7.723 C -25.75 -2.365 -30.097 1.969 -35.45 1.96 C -40.802 1.951 -45.134 -2.399 -45.124 -7.757 C -45.115 -13.114 -40.768 -17.449 -35.416 -17.44 C -30.063 -17.43 -25.731 -13.08 -25.74 -7.723 M -34.319 -5.732 L -35.593 -5.734 C -35.652 -5.663 -35.714 -5.595 -35.78 -5.53 C -36.346 -4.966 -37.125 -4.618 -37.987 -4.619 C -38.849 -4.621 -39.627 -4.972 -40.192 -5.538 C -40.756 -6.104 -41.103 -6.885 -41.101 -7.747 C -41.1 -8.61 -40.75 -9.389 -40.184 -9.954 C -39.617 -10.518 -38.839 -10.865 -37.976 -10.864 C -37.114 -10.862 -36.336 -10.512 -35.772 -9.946 C -35.734 -9.908 -35.698 -9.869 -35.662 -9.83 L -34.365 -9.828 C -35.085 -11.076 -36.433 -11.918 -37.977 -11.92 C -40.285 -11.924 -42.158 -10.056 -42.162 -7.747 C -42.166 -5.437 -40.299 -3.563 -37.992 -3.558 C -36.409 -3.556 -35.03 -4.434 -34.319 -5.732 M -36.687 -7.796 C -36.687 -7.878 -36.677 -7.957 -36.658 -8.035 C -36.639 -8.112 -36.608 -8.182 -36.566 -8.244 C -36.524 -8.306 -36.469 -8.356 -36.402 -8.393 C -36.334 -8.43 -36.252 -8.449 -36.156 -8.448 C -36.024 -8.448 -35.922 -8.408 -35.848 -8.327 C -35.774 -8.247 -35.73 -8.141 -35.714 -8.01 L -35.298 -8.009 C -35.309 -8.131 -35.337 -8.242 -35.382 -8.34 C -35.427 -8.439 -35.488 -8.523 -35.562 -8.592 C -35.637 -8.662 -35.724 -8.715 -35.824 -8.751 C -35.924 -8.788 -36.035 -8.806 -36.155 -8.807 C -36.304 -8.807 -36.439 -8.781 -36.558 -8.729 C -36.678 -8.678 -36.779 -8.606 -36.861 -8.515 C -36.943 -8.424 -37.006 -8.317 -37.05 -8.194 C -37.094 -8.071 -37.116 -7.939 -37.116 -7.796 C -37.116 -7.65 -37.095 -7.515 -37.051 -7.39 C -37.008 -7.265 -36.945 -7.156 -36.863 -7.063 C -36.781 -6.97 -36.681 -6.897 -36.562 -6.843 C -36.442 -6.79 -36.308 -6.764 -36.159 -6.763 C -36.051 -6.763 -35.949 -6.779 -35.854 -6.809 C -35.758 -6.84 -35.672 -6.885 -35.596 -6.944 C -35.521 -7.003 -35.458 -7.077 -35.409 -7.164 C -35.359 -7.252 -35.328 -7.352 -35.315 -7.465 L -35.731 -7.466 C -35.738 -7.416 -35.755 -7.371 -35.78 -7.33 C -35.806 -7.289 -35.838 -7.253 -35.876 -7.222 C -35.915 -7.192 -35.958 -7.167 -36.006 -7.15 C -36.055 -7.133 -36.105 -7.124 -36.158 -7.124 C -36.255 -7.125 -36.337 -7.143 -36.404 -7.181 C -36.471 -7.218 -36.526 -7.269 -36.568 -7.332 C -36.609 -7.395 -36.64 -7.466 -36.659 -7.546 C -36.678 -7.627 -36.687 -7.71 -36.687 -7.796 M -37.774 -8.027 L -37.777 -6.813 L -37.347 -6.812 L -37.345 -8.026 C -37.345 -8.291 -37.418 -8.488 -37.566 -8.616 C -37.713 -8.745 -37.917 -8.81 -38.178 -8.81 C -38.442 -8.811 -38.647 -8.747 -38.792 -8.62 C -38.937 -8.493 -39.01 -8.296 -39.01 -8.029 L -39.012 -6.815 L -38.583 -6.814 L -38.581 -8.029 C -38.581 -8.082 -38.576 -8.134 -38.567 -8.184 C -38.558 -8.236 -38.538 -8.281 -38.509 -8.32 C -38.48 -8.359 -38.439 -8.391 -38.387 -8.415 C -38.335 -8.44 -38.266 -8.452 -38.178 -8.452 C -38.025 -8.452 -37.92 -8.417 -37.861 -8.349 C -37.803 -8.28 -37.774 -8.173 -37.774 -8.027 M -39.752 -8.769 L -39.755 -6.816 L -39.326 -6.815 L -39.323 -8.769 Z M -33.411 -8.758 L -33.84 -8.759 L -34.654 -7.453 L -34.66 -7.453 L -34.657 -8.76 L -35.059 -8.761 L -35.062 -6.808 L -34.636 -6.807 L -33.819 -8.116 L -33.814 -8.116 L -33.816 -6.806 L -33.414 -6.805 Z M -25.883 13.411 L -25.887 23.05 L -35.532 23.033 C -40.852 23.024 -45.157 18.7 -45.147 13.378 C -45.138 8.053 -40.818 3.745 -35.499 3.754 C -30.18 3.763 -25.873 8.086 -25.883 13.411 M -19.6 .555 L -23.5 .548 L -23.486 -7.106 L -21.494 -7.103 L -21.499 -4.315 L -19.988 -4.313 C -19.056 -4.311 -18.926 -5.104 -18.871 -5.876 C -18.85 -6.09 -18.816 -6.841 -18.644 -7.098 L -16.673 -7.094 C -16.942 -6.816 -16.976 -5.69 -16.998 -5.369 C -17.063 -4.64 -17.301 -3.729 -18.115 -3.537 L -18.115 -3.516 C -17.312 -3.204 -16.917 -2.42 -16.919 -1.595 C -16.921 -.051 -18.251 .557 -19.6 .555 M -19.919 -1.043 C -19.362 -1.042 -18.912 -1.298 -18.911 -1.867 C -18.91 -2.445 -19.23 -2.768 -19.83 -2.769 L -21.501 -2.772 L -21.504 -1.046 Z M -21.492 -7.889 L -23.485 -7.893 L -23.471 -15.547 L -17.912 -15.538 L -17.915 -13.822 L -21.482 -13.828 Z M -15.376 -7.879 L -17.368 -7.882 L -17.355 -15.537 L -15.362 -15.533 Z M -9.96 11.264 C -11.492 9.778 -11.818 7.627 -10.688 6.46 C -9.558 5.293 -7.399 5.553 -5.868 7.039 C -4.334 8.526 -4.008 10.677 -5.139 11.845 C -6.268 13.011 -8.427 12.751 -9.96 11.264 M -13.977 -5.374 L -13.979 -3.916 L -10.23 -3.91 L -10.233 -2.366 L -13.982 -2.372 L -13.984 -1.033 L -9.881 -1.025 L -9.884 .572 L -15.979 .561 L -15.966 -7.093 L -9.764 -7.082 L -9.767 -5.367 Z M -12.86 -12.956 L -14.852 -12.959 C -14.838 -14.921 -13.284 -15.69 -11.527 -15.687 C -9.845 -15.684 -8.197 -15.06 -8.2 -13.119 C -8.202 -11.736 -9.317 -11.223 -10.421 -10.915 C -11.536 -10.606 -12.639 -10.5 -12.64 -9.911 C -12.641 -9.407 -12.106 -9.256 -11.677 -9.255 C -11.067 -9.254 -10.413 -9.478 -10.444 -10.175 L -8.451 -10.171 C -8.465 -8.445 -9.998 -7.708 -11.519 -7.711 C -12.955 -7.713 -14.636 -8.37 -14.633 -10.043 C -14.63 -11.447 -13.483 -11.938 -12.39 -12.247 C -11.286 -12.556 -10.193 -12.683 -10.192 -13.359 C -10.191 -13.927 -10.812 -14.142 -11.412 -14.143 C -12.258 -14.145 -12.816 -13.856 -12.86 -12.956 M -8.463 -9.582 L -6.181 -9.578 L -6.171 -15.517 L -4.178 -15.514 L -4.189 -9.574 L -1.907 -9.57 L -1.91 -7.855 L -8.466 -7.866 Z " fill="#ffffff"/>
</g>
<path transform="matrix(1,0,0,-1,141.3497,71.870708)" d="M 0 0 L 7.652 -7.498 L 0 -14.998 L 3.627 -14.998 L 11.292 -7.498 L 3.62 0 Z " fill="#ffffff"/>
<path transform="matrix(1,0,0,-1,18.8192,71.870708)" d="M 0 0 L -7.652 -7.498 L 0 -14.998 L -3.627 -14.998 L -11.292 -7.498 L -3.62 0 Z " fill="#ffffff"/>
</g>
<g id="Layer-1" data-name="Artifact">
<path transform="matrix(1,0,0,-1,73.4286,110.03371)" d="M 0 0 L 1.471 0 L 1.471 5.362 L 4.548 0 L 6.127 0 L 6.127 7.557 L 4.655 7.557 L 4.655 2.288 L 1.655 7.557 L 0 7.557 Z M 7.079 7.557 L 7.079 6.219 L 9.35 6.219 L 9.35 0 L 10.939 0 L 10.939 6.219 L 13.2 6.219 L 13.2 7.557 Z " fill="#ffffff"/>
<clipPath id="cp6">
<path transform="matrix(1,0,0,-1,0,158.74)" d="M 0 0 L 158.74 0 L 158.74 158.74 L 0 158.74 Z "/>
</clipPath>
<g clip-path="url(#cp6)">
<path transform="matrix(1,0,0,-1,24.3079,82.558208)" d="M 0 0 L 0 -2.103 L 3.569 -2.103 L 3.569 -11.875 L 6.067 -11.875 L 6.067 -2.103 L 9.62 -2.103 L 9.62 0 Z M 13.504 -11.875 L 13.504 -6.574 L 18.121 -6.574 L 18.121 -11.875 L 20.586 -11.875 L 20.586 0 L 18.121 0 L 18.121 -4.528 L 13.504 -4.528 L 13.504 0 L 11.039 0 L 11.039 -11.875 Z M 28.187 -2.063 C 28.697 -2.063 29.079 -2.132 29.334 -2.272 C 29.788 -2.519 30.015 -3.002 30.015 -3.722 C 30.015 -4.388 29.781 -4.834 29.311 -5.06 C 29.046 -5.188 28.648 -5.253 28.118 -5.253 L 25.447 -5.253 L 25.447 -2.063 Z M 28.702 0 L 23.022 0 L 23.022 -11.875 L 25.447 -11.875 L 25.447 -7.219 L 27.871 -7.219 C 28.562 -7.219 29.033 -7.345 29.284 -7.597 C 29.536 -7.85 29.667 -8.355 29.677 -9.112 L 29.693 -10.216 C 29.698 -10.565 29.733 -10.906 29.798 -11.239 C 29.83 -11.4 29.884 -11.612 29.959 -11.875 L 32.698 -11.875 L 32.698 -11.577 C 32.458 -11.432 32.305 -11.207 32.24 -10.901 C 32.196 -10.707 32.175 -10.339 32.175 -9.797 L 32.175 -8.999 C 32.175 -8.167 32.06 -7.548 31.832 -7.142 C 31.604 -6.737 31.216 -6.424 30.668 -6.204 C 31.323 -5.978 31.793 -5.593 32.078 -5.047 C 32.362 -4.502 32.505 -3.948 32.505 -3.384 C 32.505 -2.917 32.431 -2.5 32.285 -2.135 C 32.138 -1.77 31.939 -1.437 31.688 -1.136 C 31.384 -.771 31.013 -.494 30.576 -.306 C 30.139 -.118 29.514 -.016 28.702 0 M 43.488 0 L 34.779 0 L 34.779 -11.875 L 43.778 -11.875 L 43.778 -9.74 L 37.204 -9.74 L 37.204 -6.687 L 42.973 -6.687 L 42.973 -4.625 L 37.204 -4.625 L 37.204 -2.103 L 43.488 -2.103 Z M 50.636 -2.715 L 52.136 -7.388 L 49.095 -7.388 Z M 45.019 -11.875 L 47.615 -11.875 L 48.42 -9.434 L 52.793 -9.434 L 53.576 -11.875 L 56.267 -11.875 L 52.066 0 L 49.258 0 Z M 55.521 0 L 55.521 -2.103 L 59.091 -2.103 L 59.091 -11.875 L 61.588 -11.875 L 61.588 -2.103 L 65.141 -2.103 L 65.141 0 Z M 75.317 0 L 66.608 0 L 66.608 -11.875 L 75.607 -11.875 L 75.607 -9.74 L 69.033 -9.74 L 69.033 -6.687 L 74.801 -6.687 L 74.801 -4.625 L 69.033 -4.625 L 69.033 -2.103 L 75.317 -2.103 Z M 77.471 -11.875 L 79.783 -11.875 L 79.783 -3.449 L 84.617 -11.875 L 87.098 -11.875 L 87.098 0 L 84.786 0 L 84.786 -8.28 L 80.072 0 L 77.471 0 Z M 98.228 0 L 89.519 0 L 89.519 -11.875 L 98.518 -11.875 L 98.518 -9.74 L 91.944 -9.74 L 91.944 -6.687 L 97.713 -6.687 L 97.713 -4.625 L 91.944 -4.625 L 91.944 -2.103 L 98.228 -2.103 Z M 105.098 -2.063 C 106.228 -2.063 106.982 -2.386 107.361 -3.033 C 107.741 -3.681 107.93 -4.608 107.93 -5.817 C 107.93 -6.692 107.804 -7.447 107.551 -8.081 C 107.088 -9.236 106.271 -9.813 105.098 -9.813 L 102.806 -9.813 L 102.806 -2.063 Z M 105.517 0 L 100.397 0 L 100.397 -11.875 L 105.517 -11.875 C 107.313 -11.875 108.641 -11.137 109.501 -9.66 C 110.135 -8.564 110.452 -7.227 110.452 -5.648 C 110.452 -5.025 110.377 -4.369 110.226 -3.682 C 110.076 -2.994 109.794 -2.355 109.38 -1.764 C 108.863 -1.034 108.189 -.532 107.356 -.258 C 106.867 -.097 106.254 -.011 105.517 0 " fill="#ffffff"/>
<path transform="matrix(1,0,0,-1,57.5005,76.8337)" d="M 0 0 L 2.312 0 L 2.312 8.426 L 7.147 0 L 9.628 0 L 9.628 11.875 L 7.315 11.875 L 7.315 3.595 L 2.601 11.875 L 0 11.875 Z M 20.758 11.875 L 12.048 11.875 L 12.048 0 L 21.048 0 L 21.048 2.135 L 14.473 2.135 L 14.473 5.188 L 20.242 5.188 L 20.242 7.251 L 14.473 7.251 L 14.473 9.773 L 20.758 9.773 Z M 27.905 9.16 L 29.405 4.488 L 26.364 4.488 Z M 22.288 0 L 24.884 0 L 25.689 2.441 L 30.062 2.441 L 30.846 0 L 33.537 0 L 29.335 11.875 L 26.527 11.875 Z M 40.184 9.813 C 40.694 9.813 41.076 9.743 41.332 9.604 C 41.785 9.356 42.013 8.873 42.013 8.153 C 42.013 7.487 41.778 7.042 41.309 6.816 C 41.043 6.687 40.645 6.623 40.115 6.623 L 37.444 6.623 L 37.444 9.813 Z M 40.7 11.875 L 35.019 11.875 L 35.019 0 L 37.444 0 L 37.444 4.657 L 39.868 4.657 C 40.559 4.657 41.03 4.53 41.282 4.278 C 41.533 4.026 41.664 3.521 41.674 2.763 L 41.69 1.66 C 41.696 1.31 41.731 .969 41.795 .636 C 41.827 .475 41.881 .263 41.956 0 L 44.695 0 L 44.695 .298 C 44.455 .443 44.303 .669 44.237 .975 C 44.194 1.168 44.172 1.536 44.172 2.079 L 44.172 2.876 C 44.172 3.709 44.058 4.328 43.829 4.733 C 43.601 5.139 43.213 5.452 42.665 5.672 C 43.32 5.897 43.79 6.283 44.075 6.828 C 44.36 7.373 44.502 7.928 44.502 8.492 C 44.502 8.959 44.429 9.375 44.282 9.74 C 44.135 10.106 43.936 10.439 43.685 10.74 C 43.381 11.105 43.011 11.381 42.573 11.569 C 42.136 11.757 41.511 11.859 40.7 11.875 " fill="#ffffff"/>
</g>
</g>
</g>
</svg>
