<svg xmlns="http://www.w3.org/2000/svg" xmlns:xlink="http://www.w3.org/1999/xlink" width="500" zoomAndPan="magnify" viewBox="0 0 375 374.999991" height="500" preserveAspectRatio="xMidYMid meet" version="1.0"><defs><g/><clipPath id="0756e422d6"><path d="M 187.5 0 C 83.945312 0 0 83.945312 0 187.5 C 0 291.054688 83.945312 375 187.5 375 C 291.054688 375 375 291.054688 375 187.5 C 375 83.945312 291.054688 0 187.5 0 Z M 187.5 0 " clip-rule="nonzero"/></clipPath></defs><g clip-path="url(#0756e422d6)"><rect x="-37.5" width="450" fill="#f47c2e" y="-37.499999" height="449.999989" fill-opacity="1"/></g><g fill="#ffffff" fill-opacity="1"><g transform="translate(99.16406, 157.49999)"><g><path d="M 8.625 0 L 8.625 -68.53125 L 23.15625 -68.53125 L 23.15625 0 Z M 8.625 0 "/></g></g><g transform="translate(130.945308, 157.49999)"><g><path d="M 48.09375 0 L 8.625 0 L 8.625 -68.53125 L 48.09375 -68.53125 L 48.09375 -56.625 L 23.15625 -56.625 L 23.15625 -41.578125 L 46.359375 -41.578125 L 46.359375 -29.671875 L 23.15625 -29.671875 L 23.15625 -12 L 48.09375 -12 Z M 48.09375 0 "/></g></g><g transform="translate(184.710929, 157.49999)"><g><path d="M 63.75 0 L 47.25 0 L 29.296875 -28.875 L 23.15625 -24.46875 L 23.15625 0 L 8.625 0 L 8.625 -68.53125 L 23.15625 -68.53125 L 23.15625 -37.171875 C 24.125 -38.515625 25.078125 -39.859375 26.015625 -41.203125 C 26.953125 -42.546875 27.90625 -43.890625 28.875 -45.234375 L 47.4375 -68.53125 L 63.5625 -68.53125 L 39.65625 -38.203125 Z M 63.75 0 "/></g></g><g transform="translate(248.460925, 157.49999)"><g><path d="M 5.484375 -6.703125 C 5.484375 -9.640625 6.285156 -11.703125 7.890625 -12.890625 C 9.503906 -14.078125 11.453125 -14.671875 13.734375 -14.671875 C 15.953125 -14.671875 17.863281 -14.078125 19.46875 -12.890625 C 21.082031 -11.703125 21.890625 -9.640625 21.890625 -6.703125 C 21.890625 -3.890625 21.082031 -1.859375 19.46875 -0.609375 C 17.863281 0.640625 15.953125 1.265625 13.734375 1.265625 C 11.453125 1.265625 9.503906 0.640625 7.890625 -0.609375 C 6.285156 -1.859375 5.484375 -3.890625 5.484375 -6.703125 Z M 5.484375 -45.421875 C 5.484375 -48.359375 6.285156 -50.421875 7.890625 -51.609375 C 9.503906 -52.796875 11.453125 -53.390625 13.734375 -53.390625 C 15.953125 -53.390625 17.863281 -52.796875 19.46875 -51.609375 C 21.082031 -50.421875 21.890625 -48.359375 21.890625 -45.421875 C 21.890625 -42.578125 21.082031 -40.535156 19.46875 -39.296875 C 17.863281 -38.066406 15.953125 -37.453125 13.734375 -37.453125 C 11.453125 -37.453125 9.503906 -38.066406 7.890625 -39.296875 C 6.285156 -40.535156 5.484375 -42.578125 5.484375 -45.421875 Z M 5.484375 -45.421875 "/></g></g></g><g fill="#ffffff" fill-opacity="1"><g transform="translate(155.624993, 291.749981)"><g><path d="M 63.75 0 L 47.25 0 L 29.296875 -28.875 L 23.15625 -24.46875 L 23.15625 0 L 8.625 0 L 8.625 -68.53125 L 23.15625 -68.53125 L 23.15625 -37.171875 C 24.125 -38.515625 25.078125 -39.859375 26.015625 -41.203125 C 26.953125 -42.546875 27.90625 -43.890625 28.875 -45.234375 L 47.4375 -68.53125 L 63.5625 -68.53125 L 39.65625 -38.203125 Z M 63.75 0 "/></g></g></g></svg>