<svg xmlns="http://www.w3.org/2000/svg" xmlns:xlink="http://www.w3.org/1999/xlink" width="500" zoomAndPan="magnify" viewBox="0 0 375 374.999991" height="500" preserveAspectRatio="xMidYMid meet" version="1.0"><defs><clipPath id="342d33c750"><path d="M 187.5 0 C 83.945312 0 0 83.945312 0 187.5 C 0 291.054688 83.945312 375 187.5 375 C 291.054688 375 375 291.054688 375 187.5 C 375 83.945312 291.054688 0 187.5 0 Z M 187.5 0 " clip-rule="nonzero"/></clipPath><clipPath id="93d37ff1fe"><path d="M 40 52.3125 L 337 52.3125 L 337 323 L 40 323 Z M 40 52.3125 " clip-rule="nonzero"/></clipPath><clipPath id="49ac556d58"><path d="M 53.882812 155.195312 L 61.75 155.195312 L 61.75 163.066406 L 53.882812 163.066406 Z M 53.882812 155.195312 " clip-rule="nonzero"/></clipPath><clipPath id="b22be07be3"><path d="M 57.816406 155.195312 C 55.644531 155.195312 53.882812 156.957031 53.882812 159.132812 C 53.882812 161.304688 55.644531 163.066406 57.816406 163.066406 C 59.988281 163.066406 61.75 161.304688 61.75 159.132812 C 61.75 156.957031 59.988281 155.195312 57.816406 155.195312 Z M 57.816406 155.195312 " clip-rule="nonzero"/></clipPath><clipPath id="7573260f55"><path d="M 63.632812 149.761719 L 71.5 149.761719 L 71.5 157.632812 L 63.632812 157.632812 Z M 63.632812 149.761719 " clip-rule="nonzero"/></clipPath><clipPath id="c1668734e2"><path d="M 67.566406 149.761719 C 65.394531 149.761719 63.632812 151.523438 63.632812 153.695312 C 63.632812 155.871094 65.394531 157.632812 67.566406 157.632812 C 69.738281 157.632812 71.5 155.871094 71.5 153.695312 C 71.5 151.523438 69.738281 149.761719 67.566406 149.761719 Z M 67.566406 149.761719 " clip-rule="nonzero"/></clipPath><clipPath id="c4373ec8b4"><path d="M 53.132812 166.445312 L 61 166.445312 L 61 174.316406 L 53.132812 174.316406 Z M 53.132812 166.445312 " clip-rule="nonzero"/></clipPath><clipPath id="fba1bf8a2b"><path d="M 57.066406 166.445312 C 54.894531 166.445312 53.132812 168.207031 53.132812 170.382812 C 53.132812 172.554688 54.894531 174.316406 57.066406 174.316406 C 59.238281 174.316406 61 172.554688 61 170.382812 C 61 168.207031 59.238281 166.445312 57.066406 166.445312 Z M 57.066406 166.445312 " clip-rule="nonzero"/></clipPath><clipPath id="cf3fd5a0e6"><path d="M 58.199219 176.566406 L 66.066406 176.566406 L 66.066406 184.4375 L 58.199219 184.4375 Z M 58.199219 176.566406 " clip-rule="nonzero"/></clipPath><clipPath id="669568e640"><path d="M 62.132812 176.566406 C 59.960938 176.566406 58.199219 178.328125 58.199219 180.5 C 58.199219 182.675781 59.960938 184.4375 62.132812 184.4375 C 64.304688 184.4375 66.066406 182.675781 66.066406 180.5 C 66.066406 178.328125 64.304688 176.566406 62.132812 176.566406 Z M 62.132812 176.566406 " clip-rule="nonzero"/></clipPath><clipPath id="c770e13065"><path d="M 286.5625 261.511719 L 294.433594 261.511719 L 294.433594 269.382812 L 286.5625 269.382812 Z M 286.5625 261.511719 " clip-rule="nonzero"/></clipPath><clipPath id="4bc81d1045"><path d="M 290.5 261.511719 C 288.324219 261.511719 286.5625 263.273438 286.5625 265.445312 C 286.5625 267.621094 288.324219 269.382812 290.5 269.382812 C 292.671875 269.382812 294.433594 267.621094 294.433594 265.445312 C 294.433594 263.273438 292.671875 261.511719 290.5 261.511719 Z M 290.5 261.511719 " clip-rule="nonzero"/></clipPath><clipPath id="dfedb8476e"><path d="M 268.484375 92.039062 L 276.355469 92.039062 L 276.355469 99.910156 L 268.484375 99.910156 Z M 268.484375 92.039062 " clip-rule="nonzero"/></clipPath><clipPath id="875873dd78"><path d="M 272.421875 92.039062 C 270.246094 92.039062 268.484375 93.800781 268.484375 95.976562 C 268.484375 98.148438 270.246094 99.910156 272.421875 99.910156 C 274.59375 99.910156 276.355469 98.148438 276.355469 95.976562 C 276.355469 93.800781 274.59375 92.039062 272.421875 92.039062 Z M 272.421875 92.039062 " clip-rule="nonzero"/></clipPath><clipPath id="cfebd71b6c"><path d="M 271.484375 103.828125 L 279.355469 103.828125 L 279.355469 111.699219 L 271.484375 111.699219 Z M 271.484375 103.828125 " clip-rule="nonzero"/></clipPath><clipPath id="87eabaa743"><path d="M 275.421875 103.828125 C 273.246094 103.828125 271.484375 105.589844 271.484375 107.765625 C 271.484375 109.9375 273.246094 111.699219 275.421875 111.699219 C 277.59375 111.699219 279.355469 109.9375 279.355469 107.765625 C 279.355469 105.589844 277.59375 103.828125 275.421875 103.828125 Z M 275.421875 103.828125 " clip-rule="nonzero"/></clipPath><clipPath id="d2d3b3f59f"><path d="M 147.671875 211.40625 L 155.539062 211.40625 L 155.539062 219.277344 L 147.671875 219.277344 Z M 147.671875 211.40625 " clip-rule="nonzero"/></clipPath><clipPath id="18b50ef9a3"><path d="M 151.605469 211.40625 C 149.433594 211.40625 147.671875 213.167969 147.671875 215.34375 C 147.671875 217.515625 149.433594 219.277344 151.605469 219.277344 C 153.777344 219.277344 155.539062 217.515625 155.539062 215.34375 C 155.539062 213.167969 153.777344 211.40625 151.605469 211.40625 Z M 151.605469 211.40625 " clip-rule="nonzero"/></clipPath><clipPath id="07f4fa112e"><path d="M 155.539062 203.539062 L 163.410156 203.539062 L 163.410156 211.40625 L 155.539062 211.40625 Z M 155.539062 203.539062 " clip-rule="nonzero"/></clipPath><clipPath id="b59f924973"><path d="M 159.476562 203.539062 C 157.300781 203.539062 155.539062 205.300781 155.539062 207.472656 C 155.539062 209.644531 157.300781 211.40625 159.476562 211.40625 C 161.648438 211.40625 163.410156 209.644531 163.410156 207.472656 C 163.410156 205.300781 161.648438 203.539062 159.476562 203.539062 Z M 159.476562 203.539062 " clip-rule="nonzero"/></clipPath><clipPath id="737c040957"><path d="M 318.984375 195.667969 L 326.855469 195.667969 L 326.855469 203.539062 L 318.984375 203.539062 Z M 318.984375 195.667969 " clip-rule="nonzero"/></clipPath><clipPath id="5d05c977ae"><path d="M 322.917969 195.667969 C 320.746094 195.667969 318.984375 197.429688 318.984375 199.601562 C 318.984375 201.777344 320.746094 203.539062 322.917969 203.539062 C 325.09375 203.539062 326.855469 201.777344 326.855469 199.601562 C 326.855469 197.429688 325.09375 195.667969 322.917969 195.667969 Z M 322.917969 195.667969 " clip-rule="nonzero"/></clipPath><clipPath id="fc27a53949"><path d="M 215.089844 135.144531 L 222.960938 135.144531 L 222.960938 143.015625 L 215.089844 143.015625 Z M 215.089844 135.144531 " clip-rule="nonzero"/></clipPath><clipPath id="24c1b5cdd2"><path d="M 219.027344 135.144531 C 216.851562 135.144531 215.089844 136.90625 215.089844 139.078125 C 215.089844 141.253906 216.851562 143.015625 219.027344 143.015625 C 221.199219 143.015625 222.960938 141.253906 222.960938 139.078125 C 222.960938 136.90625 221.199219 135.144531 219.027344 135.144531 Z M 219.027344 135.144531 " clip-rule="nonzero"/></clipPath><clipPath id="34cf895051"><path d="M 207.222656 159.132812 L 215.089844 159.132812 L 215.089844 167 L 207.222656 167 Z M 207.222656 159.132812 " clip-rule="nonzero"/></clipPath><clipPath id="4c2d65b993"><path d="M 211.15625 159.132812 C 208.984375 159.132812 207.222656 160.894531 207.222656 163.066406 C 207.222656 165.238281 208.984375 167 211.15625 167 C 213.328125 167 215.089844 165.238281 215.089844 163.066406 C 215.089844 160.894531 213.328125 159.132812 211.15625 159.132812 Z M 211.15625 159.132812 " clip-rule="nonzero"/></clipPath><clipPath id="d543bd4d5b"><path d="M 235.105469 92.039062 L 242.972656 92.039062 L 242.972656 99.910156 L 235.105469 99.910156 Z M 235.105469 92.039062 " clip-rule="nonzero"/></clipPath><clipPath id="01c2f6b4ae"><path d="M 239.039062 92.039062 C 236.867188 92.039062 235.105469 93.800781 235.105469 95.976562 C 235.105469 98.148438 236.867188 99.910156 239.039062 99.910156 C 241.210938 99.910156 242.972656 98.148438 242.972656 95.976562 C 242.972656 93.800781 241.210938 92.039062 239.039062 92.039062 Z M 239.039062 92.039062 " clip-rule="nonzero"/></clipPath><clipPath id="e089eb3cad"><path d="M 113.699219 79.785156 L 121.566406 79.785156 L 121.566406 87.652344 L 113.699219 87.652344 Z M 113.699219 79.785156 " clip-rule="nonzero"/></clipPath><clipPath id="baf4159730"><path d="M 117.632812 79.785156 C 115.460938 79.785156 113.699219 81.546875 113.699219 83.71875 C 113.699219 85.890625 115.460938 87.652344 117.632812 87.652344 C 119.804688 87.652344 121.566406 85.890625 121.566406 83.71875 C 121.566406 81.546875 119.804688 79.785156 117.632812 79.785156 Z M 117.632812 79.785156 " clip-rule="nonzero"/></clipPath><clipPath id="a731fc99a3"><path d="M 211.15625 253.640625 L 219.027344 253.640625 L 219.027344 261.511719 L 211.15625 261.511719 Z M 211.15625 253.640625 " clip-rule="nonzero"/></clipPath><clipPath id="3d43093750"><path d="M 215.089844 253.640625 C 212.917969 253.640625 211.15625 255.402344 211.15625 257.578125 C 211.15625 259.75 212.917969 261.511719 215.089844 261.511719 C 217.265625 261.511719 219.027344 259.75 219.027344 257.578125 C 219.027344 255.402344 217.265625 253.640625 215.089844 253.640625 Z M 215.089844 253.640625 " clip-rule="nonzero"/></clipPath></defs><g clip-path="url(#342d33c750)"><rect x="-37.5" width="450" fill="#a2c36e" y="-37.499999" height="449.999989" fill-opacity="1"/></g><g clip-path="url(#93d37ff1fe)"><path fill="#ffffff" d="M 275.191406 322.5 C 272.226562 322.5 269.257812 320.851562 265.300781 316.566406 C 263.652344 314.917969 262.335938 313.269531 261.015625 311.621094 C 259.039062 308.652344 258.707031 305.027344 260.355469 301.730469 C 262.335938 297.773438 266.949219 295.796875 271.234375 296.785156 C 273.214844 297.445312 274.863281 297.117188 275.191406 297.117188 C 279.148438 295.136719 283.105469 296.125 285.082031 299.09375 C 286.730469 301.730469 286.402344 305.027344 284.421875 308.984375 C 283.765625 309.972656 283.433594 311.621094 283.105469 312.941406 C 282.117188 317.226562 280.46875 322.5 275.191406 322.5 Z M 268.597656 303.707031 C 267.28125 303.707031 266.621094 304.367188 266.292969 305.355469 C 265.960938 305.6875 265.632812 307.003906 266.621094 308.324219 C 267.609375 309.644531 268.597656 310.960938 269.917969 312.28125 C 273.214844 315.578125 274.53125 315.90625 275.191406 316.234375 C 275.851562 315.578125 276.511719 313.269531 276.839844 311.621094 C 277.5 309.972656 277.828125 307.996094 278.820312 306.347656 C 279.808594 304.367188 279.808594 303.050781 279.476562 302.71875 C 279.476562 302.71875 278.820312 303.050781 278.160156 303.378906 C 275.851562 304.367188 272.882812 304.699219 269.257812 303.707031 C 269.257812 303.707031 268.929688 303.707031 268.597656 303.707031 Z M 274.203125 286.234375 C 271.566406 286.234375 268.929688 285.578125 266.621094 284.257812 C 262.664062 282.28125 258.050781 281.621094 252.117188 281.292969 C 235.300781 280.632812 229.367188 275.355469 228.050781 259.203125 C 228.050781 258.875 227.390625 258.542969 225.742188 257.554688 C 223.765625 256.566406 219.808594 254.589844 220.46875 249.644531 C 217.171875 247.003906 216.179688 243.707031 216.179688 240.082031 L 208.597656 246.675781 C 207.28125 247.664062 206.292969 247.664062 205.300781 247.664062 C 204.3125 247.335938 203.324219 246.675781 202.996094 245.6875 C 197.71875 232.828125 186.511719 227.882812 176.292969 224.589844 C 173.984375 223.929688 171.675781 224.589844 169.367188 225.246094 C 168.378906 225.578125 167.390625 225.90625 166.070312 226.234375 C 163.433594 226.894531 161.125 227.226562 158.488281 227.554688 C 147.28125 229.53125 137.058594 231.511719 129.476562 240.410156 C 126.511719 244.039062 121.894531 246.015625 116.949219 246.015625 L 116.292969 246.015625 C 114.3125 246.015625 112.335938 246.015625 110.6875 246.015625 C 102.773438 246.015625 97.171875 247.335938 93.542969 254.917969 C 91.566406 258.542969 86.621094 258.542969 84.972656 258.542969 C 78.050781 258.542969 68.488281 255.90625 64.53125 252.941406 C 63.542969 252.28125 62.882812 250.632812 63.214844 249.3125 C 67.828125 230.191406 58.929688 216.347656 49.367188 201.839844 C 47.71875 199.53125 46.402344 197.226562 44.753906 194.917969 C 43.433594 192.941406 43.105469 190.300781 44.09375 187.996094 C 44.753906 186.675781 45.410156 185.355469 46.730469 184.699219 C 46.402344 183.707031 45.742188 182.390625 44.753906 181.070312 C 43.433594 179.09375 42.117188 177.117188 41.457031 174.476562 C 37.5 155.355469 44.753906 145.136719 67.171875 137.226562 C 69.148438 136.566406 70.796875 135.90625 72.773438 135.246094 C 82.996094 131.949219 92.554688 128.984375 98.488281 119.753906 L 99.148438 118.433594 C 100.46875 116.457031 101.125 115.796875 100.46875 113.488281 C 99.476562 110.191406 102.773438 107.226562 113.324219 99.644531 C 115.632812 97.996094 117.941406 96.347656 118.929688 95.355469 C 120.578125 93.378906 131.457031 81.179688 147.941406 81.179688 C 150.90625 81.179688 153.542969 81.511719 156.511719 82.171875 C 156.839844 77.554688 158.488281 73.269531 161.457031 69.972656 C 165.410156 65.355469 171.347656 62.71875 177.941406 62.390625 C 178.929688 62.390625 179.257812 62.058594 179.257812 62.058594 C 182.226562 59.09375 187.5 57.445312 192.445312 58.105469 C 195.410156 58.433594 198.050781 58.765625 200.6875 59.09375 C 204.3125 59.421875 208.269531 60.082031 212.226562 60.410156 C 215.191406 60.742188 217.5 62.71875 218.488281 65.355469 C 219.476562 67.996094 219.148438 70.960938 217.171875 73.269531 C 216.179688 74.257812 215.523438 75.578125 214.53125 76.894531 C 212.226562 80.851562 213.214844 86.125 216.839844 89.09375 L 219.808594 91.402344 C 226.070312 96.347656 232.003906 101.292969 238.929688 104.589844 C 239.257812 104.917969 239.917969 104.917969 240.246094 105.246094 C 241.234375 105.90625 242.226562 106.234375 242.882812 106.234375 C 242.882812 106.234375 243.214844 106.234375 243.542969 105.90625 L 245.191406 104.257812 C 247.171875 100.300781 247.828125 95.6875 248.820312 90.742188 C 249.148438 89.753906 249.148438 88.433594 249.476562 87.445312 C 249.808594 84.808594 250.136719 82.171875 250.46875 79.53125 C 251.457031 70.300781 252.773438 60.410156 260.355469 52.5 C 261.675781 53.488281 262.664062 53.160156 263.652344 53.160156 C 264.644531 53.160156 265.300781 53.488281 265.960938 54.148438 L 267.941406 56.125 C 268.269531 56.457031 268.597656 57.117188 268.929688 57.773438 C 269.589844 60.410156 270.578125 63.050781 271.566406 65.6875 C 273.542969 70.300781 275.523438 75.246094 275.523438 81.179688 C 275.523438 81.179688 275.523438 81.179688 275.523438 81.511719 C 287.390625 85.46875 287.71875 95.027344 288.050781 102.609375 C 288.050781 106.566406 288.378906 110.191406 289.699219 112.828125 C 290.6875 114.808594 291.347656 117.117188 291.675781 118.765625 C 292.996094 123.378906 293.652344 125.355469 298.269531 126.015625 C 302.226562 126.347656 307.171875 130.632812 308.160156 134.589844 C 310.796875 144.476562 314.421875 150.742188 320.6875 155.355469 C 322.664062 156.675781 322.664062 158.652344 322.664062 160.300781 C 322.664062 160.960938 322.664062 162.28125 322.996094 162.609375 C 322.996094 162.609375 323.324219 162.941406 323.324219 162.941406 L 325.300781 164.917969 C 325.300781 164.917969 325.632812 165.246094 325.632812 165.578125 C 326.621094 167.226562 327.609375 168.542969 328.929688 170.191406 C 332.882812 175.46875 337.5 181.070312 336.511719 188.984375 L 336.179688 191.292969 C 334.53125 208.105469 332.554688 225.578125 321.015625 240.742188 C 313.765625 250.300781 306.839844 260.523438 303.542969 272.71875 C 301.894531 278.984375 298.929688 280.300781 296.621094 280.300781 C 295.960938 280.300781 295.632812 280.300781 294.972656 279.972656 C 290.355469 278.324219 287.390625 279.644531 282.445312 283.269531 C 280.46875 285.246094 277.5 286.234375 274.203125 286.234375 Z M 226.730469 250.632812 C 227.058594 250.960938 227.71875 251.292969 228.378906 251.621094 C 230.355469 252.609375 233.984375 254.257812 234.3125 258.542969 C 235.300781 271.402344 238.269531 274.367188 252.117188 274.699219 C 257.71875 275.027344 264.3125 275.355469 269.589844 278.324219 C 272.882812 279.972656 276.511719 279.972656 279.476562 277.664062 C 283.105469 275.027344 287.058594 272.390625 292.335938 272.390625 C 293.984375 272.390625 295.300781 272.71875 296.949219 273.050781 C 297.28125 272.71875 297.609375 271.730469 297.941406 270.410156 C 301.566406 257.226562 309.148438 246.347656 316.730469 236.457031 C 326.949219 222.941406 328.597656 207.117188 330.578125 190.300781 L 330.578125 188.324219 C 331.234375 183.050781 327.941406 178.765625 324.3125 174.148438 C 322.996094 172.5 322.003906 171.179688 321.015625 169.53125 L 319.367188 167.882812 C 316.730469 165.90625 316.730469 162.609375 316.730469 160.960938 C 316.730469 160.632812 316.730469 160.632812 316.730469 160.300781 C 307.5 153.378906 304.203125 144.148438 302.226562 136.566406 C 301.894531 135.246094 299.257812 132.941406 297.941406 132.941406 C 288.707031 131.949219 287.058594 125.355469 285.742188 120.742188 C 285.410156 119.09375 284.753906 117.445312 284.09375 116.125 C 282.117188 112.171875 281.785156 107.554688 281.785156 102.941406 C 281.457031 94.699219 281.125 89.753906 272.882812 87.773438 C 269.257812 86.785156 269.257812 81.511719 269.257812 81.511719 C 269.257812 77.226562 267.609375 72.941406 265.960938 68.652344 C 265.300781 66.675781 264.3125 64.699219 263.652344 62.71875 C 260.027344 68.324219 259.039062 75.246094 258.050781 82.5 C 257.71875 85.136719 257.390625 88.105469 256.730469 90.742188 C 256.402344 91.730469 256.402344 93.050781 256.070312 94.039062 C 255.082031 99.3125 254.09375 104.589844 251.457031 109.863281 C 251.457031 110.191406 251.125 110.523438 250.796875 110.851562 L 248.820312 112.828125 C 248.820312 112.828125 248.488281 113.160156 248.488281 113.160156 C 246.839844 114.476562 245.191406 114.808594 243.542969 114.808594 C 241.234375 114.808594 239.257812 113.820312 237.609375 112.828125 C 237.28125 112.5 236.949219 112.5 236.292969 112.171875 C 228.707031 108.542969 222.117188 103.269531 215.851562 98.324219 L 212.882812 96.015625 C 206.621094 91.070312 204.972656 81.839844 208.929688 75.246094 C 209.917969 73.597656 210.90625 72.28125 212.226562 70.960938 C 212.554688 70.632812 212.554688 69.972656 212.554688 69.644531 C 212.554688 69.3125 212.226562 68.984375 211.566406 68.652344 C 207.28125 67.996094 203.652344 67.664062 200.027344 67.335938 C 197.390625 67.003906 194.421875 66.675781 191.785156 66.347656 C 188.820312 66.015625 185.851562 66.675781 183.875 68.324219 C 182.554688 69.644531 180.90625 70.300781 178.597656 70.300781 C 173.652344 70.632812 169.367188 72.28125 166.730469 75.578125 C 164.09375 78.875 162.773438 83.160156 163.433594 87.773438 C 163.433594 89.09375 163.105469 90.082031 162.117188 90.742188 C 161.125 91.402344 159.808594 91.730469 158.820312 91.070312 C 155.191406 89.753906 151.566406 88.765625 148.269531 88.765625 C 134.09375 88.765625 124.53125 100.632812 124.203125 100.632812 C 124.203125 100.632812 123.875 100.960938 123.875 100.960938 C 122.554688 102.28125 120.246094 103.929688 117.609375 105.90625 C 114.644531 108.214844 109.367188 111.839844 107.71875 113.820312 C 108.378906 118.105469 106.730469 120.742188 105.410156 123.050781 L 104.753906 124.039062 C 97.5 135.578125 85.632812 139.203125 75.410156 142.5 C 73.433594 143.160156 71.785156 143.820312 69.808594 144.148438 C 50.355469 150.742188 45.410156 157.996094 48.378906 173.820312 C 48.707031 175.136719 49.699219 176.457031 50.6875 178.105469 C 52.335938 180.410156 54.3125 183.378906 53.984375 187.335938 C 53.984375 188.652344 52.996094 189.972656 51.675781 190.300781 C 51.015625 190.300781 51.015625 190.960938 51.015625 190.960938 C 51.015625 191.292969 50.6875 191.621094 51.015625 191.949219 C 52.003906 193.597656 53.652344 195.90625 54.972656 198.214844 C 64.53125 212.71875 74.421875 227.882812 70.136719 248.324219 C 73.765625 249.972656 80.355469 251.621094 84.972656 251.621094 C 86.621094 251.621094 87.28125 251.292969 87.609375 251.292969 C 93.214844 240.742188 102.445312 239.421875 110.355469 239.421875 C 112.003906 239.421875 113.984375 239.421875 115.960938 239.421875 L 116.621094 239.421875 C 120.578125 239.421875 122.882812 237.445312 123.875 236.125 C 132.773438 225.246094 144.972656 222.941406 156.839844 220.960938 C 159.476562 220.632812 161.785156 219.972656 164.421875 219.644531 C 165.410156 219.3125 166.070312 219.3125 167.058594 218.984375 C 169.039062 218.324219 171.347656 217.664062 173.652344 217.664062 C 174.972656 217.664062 176.292969 217.996094 177.609375 218.324219 C 188.160156 221.621094 199.699219 226.566406 206.621094 239.09375 L 216.179688 230.851562 C 217.171875 229.863281 218.488281 229.863281 219.476562 230.191406 C 220.796875 230.523438 221.457031 231.839844 221.457031 233.160156 C 221.457031 234.476562 221.457031 235.796875 221.457031 237.117188 C 221.457031 241.730469 221.785156 243.378906 223.765625 244.699219 C 226.402344 246.015625 227.390625 248.324219 226.730469 250.632812 Z M 226.730469 250.632812 " fill-opacity="1" fill-rule="nonzero"/></g><g clip-path="url(#49ac556d58)"><g clip-path="url(#b22be07be3)"><path fill="#ffffff" d="M 53.882812 155.195312 L 61.75 155.195312 L 61.75 163.066406 L 53.882812 163.066406 Z M 53.882812 155.195312 " fill-opacity="1" fill-rule="nonzero"/></g></g><g clip-path="url(#7573260f55)"><g clip-path="url(#c1668734e2)"><path fill="#ffffff" d="M 63.632812 149.761719 L 71.5 149.761719 L 71.5 157.632812 L 63.632812 157.632812 Z M 63.632812 149.761719 " fill-opacity="1" fill-rule="nonzero"/></g></g><g clip-path="url(#c4373ec8b4)"><g clip-path="url(#fba1bf8a2b)"><path fill="#ffffff" d="M 53.132812 166.445312 L 61 166.445312 L 61 174.316406 L 53.132812 174.316406 Z M 53.132812 166.445312 " fill-opacity="1" fill-rule="nonzero"/></g></g><g clip-path="url(#cf3fd5a0e6)"><g clip-path="url(#669568e640)"><path fill="#ffffff" d="M 58.199219 176.566406 L 66.066406 176.566406 L 66.066406 184.4375 L 58.199219 184.4375 Z M 58.199219 176.566406 " fill-opacity="1" fill-rule="nonzero"/></g></g><g clip-path="url(#c770e13065)"><g clip-path="url(#4bc81d1045)"><path fill="#ffffff" d="M 286.5625 261.511719 L 294.433594 261.511719 L 294.433594 269.382812 L 286.5625 269.382812 Z M 286.5625 261.511719 " fill-opacity="1" fill-rule="nonzero"/></g></g><g clip-path="url(#dfedb8476e)"><g clip-path="url(#875873dd78)"><path fill="#ffffff" d="M 268.484375 92.039062 L 276.355469 92.039062 L 276.355469 99.910156 L 268.484375 99.910156 Z M 268.484375 92.039062 " fill-opacity="1" fill-rule="nonzero"/></g></g><g clip-path="url(#cfebd71b6c)"><g clip-path="url(#87eabaa743)"><path fill="#ffffff" d="M 271.484375 103.828125 L 279.355469 103.828125 L 279.355469 111.699219 L 271.484375 111.699219 Z M 271.484375 103.828125 " fill-opacity="1" fill-rule="nonzero"/></g></g><g clip-path="url(#d2d3b3f59f)"><g clip-path="url(#18b50ef9a3)"><path fill="#ffffff" d="M 147.671875 211.40625 L 155.539062 211.40625 L 155.539062 219.277344 L 147.671875 219.277344 Z M 147.671875 211.40625 " fill-opacity="1" fill-rule="nonzero"/></g></g><g clip-path="url(#07f4fa112e)"><g clip-path="url(#b59f924973)"><path fill="#ffffff" d="M 155.539062 203.539062 L 163.410156 203.539062 L 163.410156 211.40625 L 155.539062 211.40625 Z M 155.539062 203.539062 " fill-opacity="1" fill-rule="nonzero"/></g></g><g clip-path="url(#737c040957)"><g clip-path="url(#5d05c977ae)"><path fill="#ffffff" d="M 318.984375 195.667969 L 326.855469 195.667969 L 326.855469 203.539062 L 318.984375 203.539062 Z M 318.984375 195.667969 " fill-opacity="1" fill-rule="nonzero"/></g></g><g clip-path="url(#fc27a53949)"><g clip-path="url(#24c1b5cdd2)"><path fill="#ffffff" d="M 215.089844 135.144531 L 222.960938 135.144531 L 222.960938 143.015625 L 215.089844 143.015625 Z M 215.089844 135.144531 " fill-opacity="1" fill-rule="nonzero"/></g></g><g clip-path="url(#34cf895051)"><g clip-path="url(#4c2d65b993)"><path fill="#ffffff" d="M 207.222656 159.132812 L 215.089844 159.132812 L 215.089844 167 L 207.222656 167 Z M 207.222656 159.132812 " fill-opacity="1" fill-rule="nonzero"/></g></g><g clip-path="url(#d543bd4d5b)"><g clip-path="url(#01c2f6b4ae)"><path fill="#ffffff" d="M 235.105469 92.039062 L 242.972656 92.039062 L 242.972656 99.910156 L 235.105469 99.910156 Z M 235.105469 92.039062 " fill-opacity="1" fill-rule="nonzero"/></g></g><g clip-path="url(#e089eb3cad)"><g clip-path="url(#baf4159730)"><path fill="#ffffff" d="M 113.699219 79.785156 L 121.566406 79.785156 L 121.566406 87.652344 L 113.699219 87.652344 Z M 113.699219 79.785156 " fill-opacity="1" fill-rule="nonzero"/></g></g><g clip-path="url(#a731fc99a3)"><g clip-path="url(#3d43093750)"><path fill="#ffffff" d="M 211.15625 253.640625 L 219.027344 253.640625 L 219.027344 261.511719 L 211.15625 261.511719 Z M 211.15625 253.640625 " fill-opacity="1" fill-rule="nonzero"/></g></g></svg>