<svg xmlns="http://www.w3.org/2000/svg" xmlns:xlink="http://www.w3.org/1999/xlink" width="500" zoomAndPan="magnify" viewBox="0 0 375 374.999991" height="500" preserveAspectRatio="xMidYMid meet" version="1.0"><defs><clipPath id="9df49cd70c"><path d="M 187.5 0 C 83.945312 0 0 83.945312 0 187.5 C 0 291.054688 83.945312 375 187.5 375 C 291.054688 375 375 291.054688 375 187.5 C 375 83.945312 291.054688 0 187.5 0 Z M 187.5 0 " clip-rule="nonzero"/></clipPath><clipPath id="fc1593bb8e"><path d="M 62.015625 62.015625 L 313 62.015625 L 313 313 L 62.015625 313 Z M 62.015625 62.015625 " clip-rule="nonzero"/></clipPath></defs><g clip-path="url(#9df49cd70c)"><rect x="-37.5" width="450" fill="#f47c2e" y="-37.499999" height="449.999989" fill-opacity="1"/></g><g clip-path="url(#fc1593bb8e)"><path fill="#ffffff" d="M 310.894531 290.9375 L 274.46875 290.9375 L 274.46875 268.207031 C 287.582031 266.179688 297.582031 244.289062 297.582031 216.6875 C 297.582031 213.175781 297.398438 209.726562 297.074219 206.363281 C 298.429688 202.871094 306.683594 180.316406 302.917969 157.351562 C 301.214844 146.957031 296.863281 137.460938 292.652344 128.277344 C 286.996094 115.941406 281.65625 104.289062 283.722656 92.296875 C 283.867188 91.46875 283.472656 90.636719 282.738281 90.226562 C 282 89.8125 281.089844 89.902344 280.457031 90.460938 C 274.972656 95.238281 266.695312 97.726562 255.789062 97.882812 C 263.535156 91.914062 267.90625 83.332031 269.089844 71.832031 C 269.167969 71.082031 268.8125 70.351562 268.175781 69.945312 C 267.539062 69.539062 266.726562 69.53125 266.082031 69.921875 C 255.5 76.300781 246.652344 75.820312 236.394531 75.265625 C 231.753906 75.015625 226.957031 74.753906 221.613281 75.085938 C 210.222656 75.792969 199.074219 80.582031 192.46875 83.972656 C 194.808594 77.257812 195.210938 68.507812 194.015625 63.722656 C 193.851562 63.074219 193.378906 62.550781 192.75 62.328125 C 192.117188 62.105469 191.425781 62.214844 190.890625 62.613281 C 176.898438 73.136719 160.988281 76.972656 146.945312 80.359375 C 142.644531 81.394531 138.582031 82.378906 134.652344 83.507812 C 122.453125 87.03125 114.65625 94.019531 110.890625 98.164062 L 108.210938 86.828125 C 107.996094 85.914062 107.121094 85.285156 106.242188 85.292969 C 105.308594 85.3125 104.507812 85.972656 104.324219 86.890625 C 102.222656 97.246094 95.527344 105.960938 88.441406 115.195312 C 81.53125 124.191406 74.386719 133.496094 70.351562 145.449219 C 62.402344 168.980469 67.820312 202.773438 68.394531 206.160156 C 68.058594 209.589844 67.871094 213.109375 67.871094 216.6875 C 67.871094 244.289062 77.875 266.179688 90.988281 268.207031 L 90.988281 290.9375 L 64.105469 290.9375 C 63.007812 290.9375 62.113281 291.828125 62.113281 292.925781 L 62.113281 310.992188 C 62.113281 312.09375 63.007812 312.984375 64.105469 312.984375 L 310.894531 312.984375 C 311.992188 312.984375 312.882812 312.09375 312.882812 310.992188 L 312.882812 292.929688 C 312.882812 291.828125 311.992188 290.9375 310.894531 290.9375 Z M 247.207031 290.9375 L 247.207031 263.574219 C 249.917969 260.992188 252.386719 257.40625 254.476562 253.003906 C 258.621094 261.761719 264.230469 267.257812 270.488281 268.21875 L 270.488281 290.9375 Z M 234.71875 290.9375 L 234.71875 225.457031 C 243.09375 218.042969 249.449219 207.734375 252.820312 195.792969 L 259.722656 187.832031 L 266.058594 194.171875 L 243.640625 223.191406 C 243.371094 223.542969 243.226562 223.96875 243.226562 224.410156 L 243.226562 290.9375 Z M 209.574219 290.9375 L 209.574219 237.320312 C 210.832031 237.136719 212.074219 236.910156 213.300781 236.628906 C 216.394531 252.207031 222.785156 263.347656 230.738281 267.042969 L 230.738281 290.9375 Z M 196.980469 290.9375 L 196.980469 208.695312 C 196.980469 208.214844 196.808594 207.753906 196.496094 207.394531 L 185.265625 194.371094 C 185.675781 192.730469 186.019531 191.0625 186.304688 189.375 L 197.011719 202.117188 C 197.550781 202.757812 198.433594 202.992188 199.21875 202.707031 C 200.003906 202.421875 200.527344 201.675781 200.527344 200.839844 L 200.527344 169.898438 C 200.527344 169.539062 200.429688 169.1875 200.246094 168.875 L 190.273438 152.210938 L 194.890625 149.984375 L 200.363281 158.5625 C 200.738281 159.148438 201.371094 159.511719 202.078125 159.484375 C 202.773438 159.46875 203.410156 159.09375 203.757812 158.496094 L 210.398438 147.132812 L 213.832031 148.882812 L 205.074219 166.53125 C 204.9375 166.804688 204.867188 167.109375 204.867188 167.414062 L 204.867188 185.21875 C 204.867188 186.035156 205.363281 186.765625 206.121094 187.066406 C 206.878906 187.371094 207.742188 187.179688 208.300781 186.585938 L 219.480469 174.765625 L 222.289062 178.027344 L 206.117188 195.695312 C 205.78125 196.0625 205.59375 196.542969 205.59375 197.039062 L 205.59375 290.933594 L 196.980469 290.933594 Z M 168.761719 290.9375 L 168.761719 268.21875 C 178.457031 266.734375 186.597656 254.417969 190.113281 235.847656 C 191.066406 236.132812 192.03125 236.375 193 236.601562 L 193 290.9375 Z M 144.441406 290.9375 L 144.441406 264.574219 C 146.761719 262.648438 148.898438 260.019531 150.800781 256.8125 C 154.734375 263.457031 159.582031 267.402344 164.78125 268.207031 L 164.78125 290.9375 Z M 131.847656 290.9375 L 131.847656 208.695312 C 131.847656 208.214844 131.675781 207.753906 131.363281 207.394531 L 112.683594 185.738281 L 115.816406 183.007812 L 131.878906 202.121094 C 132.417969 202.761719 133.300781 202.996094 134.082031 202.707031 C 134.871094 202.421875 135.394531 201.675781 135.394531 200.839844 L 135.394531 169.898438 C 135.394531 169.539062 135.296875 169.1875 135.109375 168.875 L 125.136719 152.210938 L 129.753906 149.988281 L 135.226562 158.566406 C 135.601562 159.152344 136.273438 159.511719 136.945312 159.484375 C 137.636719 159.472656 138.273438 159.097656 138.625 158.496094 L 145.261719 147.132812 L 148.695312 148.886719 L 139.9375 166.53125 C 139.800781 166.808594 139.730469 167.109375 139.730469 167.414062 L 139.730469 185.21875 C 139.730469 186.035156 140.226562 186.769531 140.984375 187.070312 C 141.738281 187.371094 142.605469 187.179688 143.164062 186.589844 L 154.347656 174.765625 L 157.15625 178.03125 L 140.980469 195.695312 C 140.648438 196.066406 140.460938 196.542969 140.460938 197.039062 L 140.460938 290.933594 L 131.847656 290.933594 Z M 96.667969 138.640625 C 96.667969 138.640625 96.667969 138.636719 96.667969 138.636719 C 99.171875 135.953125 103.300781 130.214844 105.785156 125.121094 C 106.71875 126.871094 107.019531 129.066406 106.710938 131.753906 C 106.585938 132.816406 107.328125 133.785156 108.382812 133.949219 C 109.449219 134.109375 110.4375 133.410156 110.640625 132.363281 C 112.082031 124.917969 114.789062 118.84375 118.898438 113.878906 C 121.011719 117.761719 122.402344 121.722656 123.03125 125.675781 C 123.183594 126.625 123.988281 127.328125 124.945312 127.351562 C 125.886719 127.355469 126.746094 126.714844 126.941406 125.777344 C 128.15625 120.046875 130.042969 115.25 132.667969 111.234375 C 134.328125 116.621094 137.019531 121.714844 142.15625 122.609375 C 142.171875 122.613281 142.183594 122.621094 142.199219 122.625 C 165.988281 127.671875 183.253906 151.054688 183.253906 178.226562 C 183.253906 204.554688 167.0625 227.230469 144.4375 233.230469 L 144.4375 197.816406 L 161.28125 179.414062 C 161.960938 178.671875 161.980469 177.535156 161.320312 176.773438 L 155.921875 170.496094 C 155.554688 170.070312 155.023438 169.816406 154.460938 169.804688 C 153.90625 169.78125 153.355469 170.019531 152.96875 170.429688 L 143.707031 180.222656 L 143.707031 167.882812 L 153.132812 148.894531 C 153.617188 147.914062 153.226562 146.730469 152.253906 146.234375 L 145.394531 142.734375 C 144.457031 142.25 143.304688 142.589844 142.773438 143.5 L 136.828125 153.675781 L 132.160156 146.355469 C 131.617188 145.503906 130.519531 145.195312 129.617188 145.632812 L 121.445312 149.570312 C 120.941406 149.8125 120.5625 150.257812 120.402344 150.792969 C 120.242188 151.328125 120.316406 151.90625 120.601562 152.386719 L 131.410156 170.449219 L 131.410156 195.375 L 117.558594 178.890625 C 117.214844 178.484375 116.71875 178.230469 116.1875 178.1875 C 115.664062 178.148438 115.128906 178.320312 114.726562 178.671875 L 108.578125 184.035156 C 107.75 184.753906 107.664062 186.003906 108.378906 186.835938 L 127.867188 209.429688 L 127.867188 234.539062 C 102.121094 231.777344 82.246094 207.488281 82.246094 178.226562 C 82.246094 163.339844 87.367188 149.277344 96.667969 138.640625 Z M 178.5 126.21875 C 184.242188 122.429688 189.484375 117.574219 194.398438 111.480469 C 194.277344 114.996094 194.585938 118.820312 196.164062 120.894531 C 196.960938 121.9375 198.03125 122.546875 199.265625 122.660156 C 203.648438 123.089844 209.292969 117.429688 212.566406 113.632812 C 214.25 117.746094 217.183594 120.652344 221.4375 122.464844 C 221.4375 122.464844 221.4375 122.464844 221.441406 122.46875 C 239.726562 131.40625 251.542969 152.417969 251.542969 176 C 251.542969 204.839844 233.28125 229.511719 209.574219 233.304688 L 209.574219 197.820312 L 226.417969 179.417969 C 227.097656 178.671875 227.117188 177.539062 226.457031 176.773438 L 221.058594 170.5 C 220.691406 170.074219 220.160156 169.820312 219.597656 169.808594 C 219.03125 169.785156 218.492188 170.019531 218.105469 170.429688 L 208.847656 180.222656 L 208.847656 167.886719 L 218.269531 148.898438 C 218.753906 147.917969 218.363281 146.734375 217.394531 146.238281 L 210.535156 142.738281 C 209.59375 142.253906 208.445312 142.59375 207.910156 143.503906 L 201.964844 153.679688 L 197.296875 146.359375 C 196.753906 145.503906 195.65625 145.199219 194.753906 145.636719 L 186.582031 149.574219 C 186.082031 149.816406 185.703125 150.261719 185.542969 150.796875 C 185.378906 151.332031 185.453125 151.910156 185.738281 152.390625 L 196.546875 170.453125 L 196.546875 195.378906 L 186.984375 184.003906 C 187.148438 182.097656 187.238281 180.171875 187.238281 178.230469 C 187.238281 160.960938 180.664062 145.113281 169.945312 133.960938 C 172.554688 131.015625 175.417969 128.402344 178.5 126.21875 Z M 245.214844 124.300781 C 251.429688 124.300781 258.496094 120.636719 262.972656 115.394531 C 264.269531 119.476562 264.140625 123.132812 262.59375 126.492188 C 262.316406 127.089844 262.355469 127.785156 262.695312 128.351562 C 263.035156 128.914062 263.632812 129.273438 264.289062 129.308594 C 267.613281 129.484375 270.300781 128.941406 272.339844 127.667969 C 273.347656 133.292969 275.0625 137.753906 277.636719 141.496094 C 277.648438 141.511719 277.664062 141.515625 277.671875 141.527344 C 277.679688 141.539062 277.683594 141.558594 277.691406 141.574219 C 285.277344 151.535156 289.453125 164.496094 289.453125 178.058594 C 289.453125 206.890625 270.675781 230.492188 247.203125 231.761719 L 247.203125 225.085938 L 270.277344 195.21875 C 270.890625 194.425781 270.816406 193.300781 270.109375 192.59375 L 261.023438 183.507812 C 260.632812 183.113281 260.082031 182.898438 259.542969 182.925781 C 258.992188 182.945312 258.472656 183.195312 258.109375 183.609375 L 254.605469 187.652344 C 255.207031 183.878906 255.523438 179.980469 255.523438 175.996094 C 255.523438 155.882812 247.355469 137.507812 234 126.058594 C 237.644531 124.898438 241.402344 124.300781 245.214844 124.300781 Z M 252.34375 247.890625 C 250.859375 251.695312 249.125 254.957031 247.207031 257.554688 L 247.207031 235.746094 C 247.839844 235.714844 248.464844 235.660156 249.089844 235.601562 C 249.925781 240.074219 251.015625 244.203125 252.34375 247.890625 Z M 230.738281 262.492188 C 224.789062 258.496094 219.683594 248.464844 217.148438 235.574219 C 222.015625 234.011719 226.578125 231.664062 230.738281 228.648438 Z M 193 232.515625 C 185.273438 230.546875 178.089844 226.34375 172.007812 220.230469 C 177.242188 214.175781 181.335938 206.9375 183.953125 198.949219 L 193 209.433594 Z M 166.773438 231.15625 C 165.675781 231.15625 164.78125 232.046875 164.78125 233.144531 L 164.78125 264.167969 C 160.5 263.210938 156.40625 259.160156 153.027344 252.558594 C 155.757812 246.664062 157.808594 239.421875 158.941406 231.359375 C 162.695312 229.070312 166.167969 226.304688 169.300781 223.148438 C 174.351562 228.195312 180.109375 232.039062 186.316406 234.515625 C 183.332031 250.773438 176.386719 262.390625 168.761719 264.140625 L 168.761719 233.144531 C 168.761719 232.046875 167.871094 231.15625 166.773438 231.15625 Z M 144.441406 237.382812 C 147.953125 236.53125 151.328125 235.316406 154.53125 233.765625 C 152.652344 244.488281 149.003906 253.546875 144.441406 258.960938 Z M 116.292969 235.976562 C 119.992188 237.273438 123.867188 238.140625 127.867188 238.535156 L 127.867188 261.574219 C 122.753906 257.390625 118.429688 248.835938 115.953125 237.75 C 116.074219 237.167969 116.179688 236.570312 116.292969 235.976562 Z M 274.46875 264.167969 L 274.46875 231.410156 C 274.46875 230.3125 273.578125 229.421875 272.476562 229.421875 C 271.378906 229.421875 270.488281 230.3125 270.488281 231.410156 L 270.488281 264.140625 C 262.953125 262.40625 256.066406 251.011719 253.035156 235.035156 C 271.15625 231.480469 285.914062 215.796875 291.269531 195.1875 C 292.792969 201.816406 293.601562 209.101562 293.601562 216.6875 C 293.601562 241.035156 285.027344 261.816406 274.46875 264.167969 Z M 74.121094 146.71875 C 77.945312 135.394531 84.886719 126.355469 91.597656 117.617188 C 97.324219 110.15625 102.804688 103.023438 106.035156 94.933594 L 107.949219 103.015625 C 108.128906 103.785156 108.75 104.371094 109.527344 104.515625 C 110.308594 104.660156 111.09375 104.324219 111.535156 103.671875 C 111.613281 103.554688 119.578125 92.003906 135.753906 87.335938 C 139.597656 86.222656 143.621094 85.253906 147.878906 84.226562 C 161.425781 80.960938 176.679688 77.285156 190.625 67.703125 C 191.175781 74.304688 189.417969 83.882812 186.011719 87.734375 C 185.351562 88.476562 185.34375 89.589844 185.988281 90.347656 C 186.636719 91.097656 187.738281 91.261719 188.574219 90.726562 C 188.738281 90.621094 205.359375 80.082031 221.859375 79.054688 C 226.96875 78.738281 231.652344 78.992188 236.179688 79.238281 C 245.550781 79.742188 254.457031 80.226562 264.578125 75.269531 C 262.621094 85.824219 257.265625 93.265625 248.289062 97.933594 C 247.496094 98.347656 247.074219 99.238281 247.261719 100.113281 C 247.445312 100.988281 248.191406 101.632812 249.085938 101.6875 C 261.917969 102.476562 272.050781 100.628906 279.3125 96.199219 C 278.832031 107.675781 283.804688 118.523438 289.035156 129.929688 C 293.136719 138.875 297.375 148.121094 298.992188 157.988281 C 301.46875 173.128906 298.335938 188.445312 295.804688 197.394531 C 295.066406 193.539062 294.101562 189.867188 292.917969 186.441406 C 293.253906 183.703125 293.433594 180.902344 293.433594 178.054688 C 293.433594 163.660156 288.984375 149.875 280.914062 139.238281 C 280.914062 139.238281 280.914062 139.234375 280.914062 139.234375 C 278.128906 135.1875 276.476562 130.0625 275.703125 123.105469 C 275.609375 122.238281 274.957031 121.535156 274.105469 121.371094 C 273.253906 121.210938 272.386719 121.617188 271.972656 122.386719 C 271.378906 123.496094 270.25 124.875 267.246094 125.257812 C 268.441406 120.714844 267.785156 115.738281 265.277344 110.421875 C 264.960938 109.757812 264.300781 109.316406 263.566406 109.285156 C 262.824219 109.261719 262.132812 109.628906 261.757812 110.265625 C 258.457031 115.902344 251.1875 120.3125 245.214844 120.3125 C 240.121094 120.3125 235.125 121.292969 230.332031 123.15625 C 228.070312 121.539062 225.6875 120.105469 223.1875 118.882812 C 223.167969 118.871094 223.148438 118.875 223.125 118.867188 C 223.109375 118.859375 223.097656 118.84375 223.082031 118.835938 C 218.746094 117.011719 216.355469 113.992188 215.332031 109.050781 C 215.171875 108.285156 214.582031 107.683594 213.816406 107.511719 C 213.050781 107.34375 212.261719 107.632812 211.792969 108.257812 C 208.503906 112.609375 202.429688 118.96875 199.625 118.691406 C 199.566406 118.683594 199.484375 118.675781 199.332031 118.476562 C 197.839844 116.519531 198.308594 109.292969 199.121094 104.785156 C 199.285156 103.863281 198.785156 102.949219 197.917969 102.59375 C 197.050781 102.238281 196.054688 102.53125 195.523438 103.300781 C 189.632812 111.84375 183.332031 118.261719 176.261719 122.921875 C 176.253906 122.929688 176.25 122.9375 176.242188 122.945312 C 176.230469 122.953125 176.21875 122.953125 176.207031 122.957031 C 172.917969 125.285156 169.863281 128.0625 167.078125 131.183594 C 160.28125 125.035156 152.097656 120.648438 143.027344 118.722656 C 143.003906 118.71875 142.984375 118.726562 142.964844 118.722656 C 142.949219 118.71875 142.9375 118.707031 142.917969 118.703125 C 139.699219 118.207031 137.335938 114.257812 135.476562 106.289062 C 135.304688 105.554688 134.734375 104.980469 134.003906 104.804688 C 133.273438 104.632812 132.503906 104.878906 132.019531 105.453125 C 129.058594 108.941406 126.753906 113.015625 125.050781 117.789062 C 124.011719 114.976562 122.636719 112.191406 120.929688 109.453125 C 120.605469 108.933594 120.058594 108.59375 119.449219 108.527344 C 118.847656 108.46875 118.234375 108.6875 117.808594 109.128906 C 114.035156 113.039062 111.167969 117.609375 109.144531 122.957031 C 108.476562 121.777344 107.597656 120.726562 106.523438 119.808594 C 106.023438 119.382812 105.347656 119.226562 104.714844 119.402344 C 104.082031 119.574219 103.570312 120.046875 103.355469 120.667969 C 101.488281 126.003906 96.167969 133.347656 93.71875 135.960938 C 93.710938 135.96875 93.707031 135.980469 93.703125 135.988281 C 93.691406 136 93.679688 136.003906 93.667969 136.011719 C 84.535156 146.460938 79.191406 159.976562 78.386719 174.410156 C 75.152344 179.121094 72.558594 185.296875 70.757812 192.382812 C 69.703125 179.894531 69.285156 161.042969 74.121094 146.71875 Z M 71.851562 216.6875 C 71.851562 203.617188 74.25 191.386719 78.414062 182.441406 C 79.878906 206.03125 93.503906 226.023438 112.523438 234.476562 C 109.546875 250.753906 102.597656 262.386719 94.964844 264.140625 L 94.964844 227.664062 C 94.964844 226.566406 94.074219 225.675781 92.976562 225.675781 C 91.875 225.675781 90.984375 226.566406 90.984375 227.664062 L 90.984375 264.167969 C 80.425781 261.816406 71.851562 241.035156 71.851562 216.6875 Z M 94.96875 268.222656 C 102.867188 267.007812 109.738281 258.597656 113.917969 245.480469 C 117.179688 255.6875 122.074219 263.082031 127.867188 266.414062 L 127.867188 290.9375 L 94.96875 290.9375 Z M 308.902344 309.003906 L 66.09375 309.003906 L 66.09375 294.917969 L 308.902344 294.917969 Z M 308.902344 309.003906 " fill-opacity="1" fill-rule="nonzero"/></g></svg>