<?xml version="1.0" encoding="UTF-8" standalone="no"?>
<!DOCTYPE svg PUBLIC "-//W3C//DTD SVG 1.1//EN" "http://www.w3.org/Graphics/SVG/1.1/DTD/svg11.dtd">
<svg xmlns="http://www.w3.org/2000/svg" xmlns:xlink="http://www.w3.org/1999/xlink" version="1.1" width="158.74pt" height="158.74pt" viewBox="0 0 158.74 158.74">
<g enable-background="new">
<g id="Layer-1" data-name="Artifact">
<clipPath id="cp3">
<path transform="matrix(1,0,0,-1,0,158.74)" d="M 0 0 L 158.74 0 L 158.74 158.74 L 0 158.74 Z "/>
</clipPath>
<g clip-path="url(#cp3)">
<path transform="matrix(1,0,0,-1,158.738,79.368709)" d="M 0 0 L 0 79.369 L -80.719 79.369 L -80.719 79.335 C -123.924 78.614 -158.738 43.387 -158.738 -.004 C -158.738 -43.84 -123.201 -79.372 -79.373 -79.372 C -35.673 -79.372 -.227 -44.057 -.008 -.408 L 0 -.408 L 0 -.078 C 0 -.053 .002 -.029 .002 -.004 C .002 -.003 0 -.001 0 0 " fill="#ee2c24"/>
<path transform="matrix(1,0,0,-1,155.4519,29.766205)" d="M 0 0 C -.001 .632 -.479 1.049 -1.029 1.048 C -1.584 1.047 -2.06 .628 -2.059 -.004 C -2.058 -.601 -1.628 -1.053 -1.025 -1.052 C -.475 -1.051 .001 -.632 0 0 M -.224 0 C -.223 -.514 -.576 -.869 -1.025 -.869 C -1.524 -.87 -1.834 -.48 -1.835 -.003 C -1.835 .508 -1.482 .865 -1.028 .866 C -.579 .866 -.225 .511 -.224 0 M -1.363 -.002 C -1.364 .231 -1.235 .419 -.999 .419 C -.839 .42 -.719 .322 -.69 .178 L -.5 .179 C -.537 .454 -.744 .602 -1 .602 C -1.364 .598 -1.588 .337 -1.588 -.003 C -1.587 -.365 -1.351 -.637 -.992 -.636 C -.745 -.636 -.543 -.47 -.496 -.203 L -.69 -.203 C -.709 -.349 -.827 -.453 -.992 -.454 C -1.22 -.454 -1.363 -.247 -1.363 -.002 M -1.811 -3.209 C -1.815 -.84 -3.221 .584 -5.567 .58 L -8.855 .574 L -8.842 -7.081 L -5.553 -7.075 C -3.229 -7.071 -1.807 -5.717 -1.811 -3.209 M -3.803 -3.202 C -3.801 -4.735 -4.4 -5.325 -5.91 -5.36 L -6.853 -5.362 L -6.86 -1.138 L -5.917 -1.136 C -4.557 -1.134 -3.806 -1.808 -3.803 -3.202 M -4.651 14.257 C -3.119 15.744 -2.792 17.895 -3.923 19.061 C -5.052 20.229 -7.212 19.968 -8.744 18.482 C -10.277 16.995 -10.603 14.845 -9.473 13.678 C -8.343 12.511 -6.184 12.77 -4.651 14.257 M -9.168 18.728 C -7.636 20.215 -7.309 22.367 -8.44 23.533 C -9.57 24.7 -11.728 24.44 -13.261 22.954 C -14.793 21.466 -15.12 19.316 -13.99 18.149 C -12.859 16.982 -10.701 17.241 -9.168 18.728 M -16.433 17.577 C -14.901 19.064 -14.574 21.215 -15.704 22.382 C -16.834 23.548 -18.994 23.29 -20.526 21.802 C -22.058 20.315 -22.384 18.164 -21.254 16.997 C -20.124 15.83 -17.965 16.09 -16.433 17.577 M -17.898 15.85 C -21.234 15.845 -23.934 13.133 -23.928 9.795 C -23.922 6.457 -21.213 3.754 -17.877 3.76 C -14.541 3.766 -11.841 6.478 -11.847 9.816 C -11.852 13.154 -14.562 15.856 -17.898 15.85 M -25.74 -7.723 C -25.75 -2.365 -30.097 1.969 -35.45 1.96 C -40.802 1.951 -45.134 -2.399 -45.124 -7.757 C -45.115 -13.114 -40.768 -17.449 -35.416 -17.44 C -30.063 -17.43 -25.731 -13.08 -25.74 -7.723 M -34.319 -5.732 L -35.593 -5.734 C -35.652 -5.663 -35.714 -5.595 -35.78 -5.53 C -36.346 -4.966 -37.125 -4.618 -37.987 -4.619 C -38.849 -4.621 -39.627 -4.972 -40.192 -5.538 C -40.756 -6.104 -41.103 -6.885 -41.101 -7.747 C -41.1 -8.61 -40.75 -9.389 -40.184 -9.954 C -39.617 -10.518 -38.839 -10.865 -37.976 -10.864 C -37.114 -10.862 -36.336 -10.512 -35.772 -9.946 C -35.734 -9.908 -35.698 -9.869 -35.662 -9.83 L -34.365 -9.828 C -35.085 -11.076 -36.433 -11.918 -37.977 -11.92 C -40.285 -11.924 -42.158 -10.056 -42.162 -7.747 C -42.166 -5.437 -40.299 -3.563 -37.992 -3.558 C -36.409 -3.556 -35.03 -4.434 -34.319 -5.732 M -36.687 -7.796 C -36.687 -7.878 -36.677 -7.957 -36.658 -8.035 C -36.639 -8.112 -36.608 -8.182 -36.566 -8.244 C -36.524 -8.306 -36.469 -8.356 -36.402 -8.393 C -36.334 -8.43 -36.252 -8.449 -36.156 -8.448 C -36.024 -8.448 -35.922 -8.408 -35.848 -8.327 C -35.774 -8.247 -35.73 -8.141 -35.714 -8.01 L -35.298 -8.009 C -35.309 -8.131 -35.337 -8.242 -35.382 -8.34 C -35.427 -8.439 -35.488 -8.523 -35.562 -8.592 C -35.637 -8.662 -35.724 -8.715 -35.824 -8.751 C -35.924 -8.788 -36.035 -8.806 -36.155 -8.807 C -36.304 -8.807 -36.439 -8.781 -36.558 -8.729 C -36.678 -8.678 -36.779 -8.606 -36.861 -8.515 C -36.943 -8.424 -37.006 -8.317 -37.05 -8.194 C -37.094 -8.071 -37.116 -7.939 -37.116 -7.796 C -37.116 -7.65 -37.095 -7.515 -37.051 -7.39 C -37.008 -7.265 -36.945 -7.156 -36.863 -7.063 C -36.781 -6.97 -36.681 -6.897 -36.561 -6.843 C -36.442 -6.79 -36.308 -6.764 -36.159 -6.763 C -36.051 -6.763 -35.949 -6.779 -35.854 -6.809 C -35.758 -6.84 -35.672 -6.885 -35.596 -6.944 C -35.521 -7.003 -35.458 -7.077 -35.409 -7.164 C -35.359 -7.252 -35.328 -7.352 -35.315 -7.465 L -35.731 -7.466 C -35.738 -7.416 -35.755 -7.371 -35.78 -7.33 C -35.806 -7.289 -35.838 -7.253 -35.876 -7.222 C -35.915 -7.192 -35.958 -7.167 -36.006 -7.15 C -36.055 -7.133 -36.105 -7.124 -36.158 -7.124 C -36.255 -7.125 -36.336 -7.143 -36.404 -7.181 C -36.471 -7.218 -36.526 -7.269 -36.568 -7.332 C -36.609 -7.395 -36.64 -7.466 -36.659 -7.546 C -36.678 -7.627 -36.687 -7.71 -36.687 -7.796 M -37.774 -8.027 L -37.777 -6.813 L -37.347 -6.812 L -37.345 -8.026 C -37.345 -8.291 -37.418 -8.488 -37.566 -8.616 C -37.713 -8.745 -37.917 -8.81 -38.178 -8.81 C -38.442 -8.811 -38.647 -8.747 -38.791 -8.62 C -38.937 -8.493 -39.009 -8.296 -39.01 -8.029 L -39.012 -6.815 L -38.583 -6.814 L -38.581 -8.029 C -38.581 -8.082 -38.576 -8.134 -38.567 -8.184 C -38.558 -8.236 -38.538 -8.281 -38.509 -8.32 C -38.48 -8.359 -38.439 -8.391 -38.387 -8.415 C -38.335 -8.44 -38.266 -8.452 -38.178 -8.452 C -38.025 -8.452 -37.92 -8.417 -37.861 -8.349 C -37.803 -8.28 -37.774 -8.173 -37.774 -8.027 M -39.752 -8.769 L -39.755 -6.816 L -39.326 -6.815 L -39.323 -8.769 Z M -33.411 -8.758 L -33.84 -8.759 L -34.654 -7.453 L -34.66 -7.453 L -34.657 -8.76 L -35.059 -8.761 L -35.062 -6.808 L -34.636 -6.807 L -33.819 -8.116 L -33.814 -8.116 L -33.816 -6.806 L -33.414 -6.805 Z M -25.883 13.411 L -25.887 23.05 L -35.532 23.033 C -40.852 23.024 -45.157 18.7 -45.147 13.378 C -45.138 8.053 -40.818 3.745 -35.499 3.754 C -30.18 3.763 -25.873 8.086 -25.883 13.411 M -19.6 .555 L -23.5 .548 L -23.486 -7.106 L -21.494 -7.103 L -21.499 -4.315 L -19.988 -4.313 C -19.056 -4.311 -18.926 -5.104 -18.871 -5.876 C -18.85 -6.09 -18.816 -6.841 -18.644 -7.098 L -16.673 -7.094 C -16.942 -6.816 -16.976 -5.69 -16.998 -5.369 C -17.063 -4.64 -17.301 -3.729 -18.115 -3.537 L -18.115 -3.516 C -17.312 -3.204 -16.917 -2.42 -16.919 -1.595 C -16.921 -.051 -18.251 .557 -19.6 .555 M -19.919 -1.043 C -19.362 -1.042 -18.911 -1.298 -18.911 -1.867 C -18.91 -2.445 -19.23 -2.768 -19.83 -2.769 L -21.501 -2.772 L -21.504 -1.046 Z M -21.492 -7.889 L -23.485 -7.893 L -23.471 -15.547 L -17.912 -15.538 L -17.915 -13.822 L -21.482 -13.828 Z M -15.376 -7.879 L -17.368 -7.882 L -17.355 -15.537 L -15.362 -15.533 Z M -9.96 11.264 C -11.492 9.778 -11.818 7.627 -10.688 6.46 C -9.558 5.293 -7.399 5.553 -5.868 7.039 C -4.334 8.526 -4.008 10.677 -5.139 11.845 C -6.268 13.011 -8.427 12.751 -9.96 11.264 M -13.977 -5.374 L -13.979 -3.916 L -10.23 -3.91 L -10.233 -2.366 L -13.982 -2.372 L -13.984 -1.033 L -9.881 -1.025 L -9.884 .572 L -15.979 .561 L -15.966 -7.093 L -9.764 -7.082 L -9.767 -5.367 Z M -12.86 -12.956 L -14.852 -12.959 C -14.838 -14.921 -13.284 -15.69 -11.527 -15.687 C -9.845 -15.684 -8.196 -15.06 -8.2 -13.119 C -8.202 -11.736 -9.317 -11.223 -10.421 -10.915 C -11.536 -10.606 -12.639 -10.5 -12.64 -9.911 C -12.641 -9.407 -12.106 -9.256 -11.677 -9.255 C -11.067 -9.254 -10.413 -9.478 -10.444 -10.175 L -8.451 -10.171 C -8.465 -8.445 -9.998 -7.708 -11.519 -7.711 C -12.955 -7.713 -14.635 -8.37 -14.633 -10.043 C -14.63 -11.447 -13.483 -11.938 -12.39 -12.247 C -11.286 -12.556 -10.193 -12.683 -10.192 -13.359 C -10.191 -13.927 -10.812 -14.142 -11.412 -14.143 C -12.258 -14.145 -12.816 -13.856 -12.86 -12.956 M -8.463 -9.582 L -6.181 -9.578 L -6.171 -15.517 L -4.178 -15.514 L -4.189 -9.574 L -1.907 -9.57 L -1.91 -7.855 L -8.466 -7.866 Z " fill="#ffffff"/>
</g>
<path transform="matrix(1,0,0,-1,141.3953,71.870708)" d="M 0 0 L 7.652 -7.498 L 0 -14.998 L 3.627 -14.998 L 11.292 -7.498 L 3.62 0 Z " fill="#ffffff"/>
</g>
<g id="Layer-1" data-name="Artifact">
<clipPath id="cp4">
<path transform="matrix(1,0,0,-1,0,158.74)" d="M 0 0 L 158.74 0 L 158.74 158.74 L 0 158.74 Z "/>
</clipPath>
<g clip-path="url(#cp4)">
<path transform="matrix(1,0,0,-1,73.2125,110.03371)" d="M 0 0 L 5.353 0 L 5.353 1.359 L 1.579 1.359 L 1.579 7.557 L 0 7.557 Z M 6.004 3.717 C 6.004 2.497 6.311 1.536 6.927 .836 C 7.542 .138 8.388 -.21 9.463 -.21 C 10.332 -.21 11.045 .048 11.601 .564 C 12.157 1.08 12.503 1.75 12.638 2.574 L 11.069 2.574 C 10.966 2.184 10.835 1.892 10.678 1.697 C 10.394 1.335 9.981 1.154 9.439 1.154 C 8.911 1.154 8.476 1.365 8.133 1.787 C 7.79 2.209 7.619 2.844 7.619 3.691 C 7.619 4.539 7.781 5.194 8.106 5.658 C 8.431 6.121 8.874 6.352 9.437 6.352 C 9.989 6.352 10.406 6.188 10.688 5.86 C 10.845 5.676 10.974 5.402 11.074 5.04 L 12.653 5.04 C 12.63 5.511 12.457 5.981 12.136 6.45 C 11.554 7.284 10.635 7.701 9.377 7.701 C 8.437 7.701 7.662 7.39 7.054 6.768 C 6.354 6.053 6.004 5.036 6.004 3.717 " fill="#ffffff"/>
<path transform="matrix(1,0,0,-1,38.5687,88.592609)" d="M 0 0 C 0 -1.917 .484 -3.427 1.451 -4.528 C 2.418 -5.624 3.746 -6.171 5.436 -6.171 C 6.801 -6.171 7.921 -5.766 8.795 -4.955 C 9.669 -4.144 10.213 -3.091 10.425 -1.797 L 7.96 -1.797 C 7.797 -2.409 7.592 -2.868 7.345 -3.174 C 6.899 -3.744 6.25 -4.028 5.399 -4.028 C 4.568 -4.028 3.884 -3.697 3.346 -3.033 C 2.807 -2.37 2.538 -1.372 2.538 -.04 C 2.538 1.292 2.793 2.322 3.303 3.049 C 3.814 3.777 4.511 4.141 5.395 4.141 C 6.263 4.141 6.918 3.883 7.36 3.368 C 7.607 3.078 7.81 2.648 7.968 2.079 L 10.449 2.079 C 10.412 2.82 10.141 3.558 9.636 4.294 C 8.722 5.605 7.277 6.26 5.301 6.26 C 3.823 6.26 2.606 5.771 1.65 4.794 C .55 3.671 0 2.073 0 0 M 17.551 -4.069 C 16.568 -4.069 15.783 -3.706 15.198 -2.981 C 14.613 -2.256 14.32 -1.225 14.32 .113 C 14.32 1.45 14.613 2.481 15.198 3.207 C 15.783 3.932 16.568 4.294 17.551 4.294 C 18.534 4.294 19.314 3.93 19.891 3.203 C 20.468 2.475 20.757 1.445 20.757 .113 C 20.757 -1.225 20.468 -2.256 19.891 -2.981 C 19.314 -3.706 18.534 -4.069 17.551 -4.069 M 23.239 .113 C 23.239 2.288 22.64 3.921 21.442 5.011 C 20.545 5.935 19.248 6.397 17.551 6.397 C 15.853 6.397 14.556 5.935 13.659 5.011 C 12.456 3.921 11.855 2.288 11.855 .113 C 11.855 -2.02 12.456 -3.652 13.659 -4.786 C 14.556 -5.71 15.853 -6.171 17.551 -6.171 C 19.248 -6.171 20.545 -5.71 21.442 -4.786 C 22.64 -3.652 23.239 -2.02 23.239 .113 M 25.148 -5.841 L 27.46 -5.841 L 27.46 2.585 L 32.295 -5.841 L 34.775 -5.841 L 34.775 6.034 L 32.463 6.034 L 32.463 -2.246 L 27.749 6.034 L 25.148 6.034 Z M 36.666 0 C 36.666 -1.917 37.149 -3.427 38.116 -4.528 C 39.083 -5.624 40.412 -6.171 42.102 -6.171 C 43.467 -6.171 44.587 -5.766 45.461 -4.955 C 46.335 -4.144 46.878 -3.091 47.091 -1.797 L 44.626 -1.797 C 44.463 -2.409 44.258 -2.868 44.011 -3.174 C 43.564 -3.744 42.915 -4.028 42.064 -4.028 C 41.234 -4.028 40.55 -3.697 40.011 -3.033 C 39.473 -2.37 39.204 -1.372 39.204 -.04 C 39.204 1.292 39.459 2.322 39.969 3.049 C 40.479 3.777 41.177 4.141 42.061 4.141 C 42.929 4.141 43.584 3.883 44.026 3.368 C 44.273 3.078 44.476 2.648 44.634 2.079 L 47.115 2.079 C 47.078 2.82 46.807 3.558 46.302 4.294 C 45.388 5.605 43.943 6.26 41.966 6.26 C 40.489 6.26 39.272 5.771 38.316 4.794 C 37.216 3.671 36.666 2.073 36.666 0 M 57.74 6.034 L 49.031 6.034 L 49.031 -5.841 L 58.03 -5.841 L 58.03 -3.706 L 51.456 -3.706 L 51.456 -.653 L 57.225 -.653 L 57.225 1.41 L 51.456 1.41 L 51.456 3.932 L 57.74 3.932 Z M 65.106 3.972 C 65.616 3.972 65.998 3.902 66.253 3.762 C 66.707 3.515 66.934 3.032 66.934 2.312 C 66.934 1.646 66.7 1.2 66.23 .975 C 65.965 .846 65.567 .781 65.037 .781 L 62.366 .781 L 62.366 3.972 Z M 65.621 6.034 L 59.941 6.034 L 59.941 -5.841 L 62.366 -5.841 L 62.366 -1.184 L 64.79 -1.184 C 65.481 -1.184 65.952 -1.311 66.203 -1.563 C 66.455 -1.816 66.586 -2.32 66.596 -3.078 L 66.612 -4.181 C 66.617 -4.531 66.652 -4.872 66.717 -5.205 C 66.749 -5.366 66.803 -5.578 66.878 -5.841 L 69.617 -5.841 L 69.617 -5.543 C 69.377 -5.398 69.224 -5.172 69.159 -4.866 C 69.115 -4.673 69.093 -4.305 69.093 -3.762 L 69.093 -2.965 C 69.093 -2.132 68.979 -1.513 68.751 -1.108 C 68.523 -.702 68.135 -.389 67.587 -.169 C 68.242 .056 68.712 .442 68.997 .987 C 69.281 1.532 69.424 2.087 69.424 2.651 C 69.424 3.118 69.35 3.534 69.204 3.899 C 69.057 4.265 68.858 4.598 68.607 4.898 C 68.303 5.264 67.932 5.54 67.495 5.728 C 67.058 5.916 66.433 6.018 65.621 6.034 M 71.645 -5.841 L 73.957 -5.841 L 73.957 2.585 L 78.791 -5.841 L 81.272 -5.841 L 81.272 6.034 L 78.96 6.034 L 78.96 -2.246 L 74.246 6.034 L 71.645 6.034 Z " fill="#ffffff"/>
<path transform="matrix(1,0,0,-1,53.692,76.8337)" d="M 0 0 L 8.411 0 L 8.411 2.135 L 2.481 2.135 L 2.481 11.875 L 0 11.875 Z M 18.687 11.875 L 9.978 11.875 L 9.978 0 L 18.977 0 L 18.977 2.135 L 12.403 2.135 L 12.403 5.188 L 18.172 5.188 L 18.172 7.251 L 12.403 7.251 L 12.403 9.773 L 18.687 9.773 Z M 25.835 9.16 L 27.335 4.488 L 24.293 4.488 Z M 20.218 0 L 22.813 0 L 23.618 2.441 L 27.992 2.441 L 28.775 0 L 31.466 0 L 27.265 11.875 L 24.457 11.875 Z M 32.171 3.666 C 32.171 2.43 32.619 1.46 33.514 .753 C 34.41 .047 35.64 -.306 37.203 -.306 C 38.734 -.306 39.919 .052 40.758 .769 C 41.597 1.486 42.016 2.387 42.016 3.472 C 42.016 4.53 41.662 5.339 40.954 5.897 C 40.498 6.257 39.814 6.545 38.9 6.76 L 36.816 7.251 C 36.012 7.439 35.486 7.603 35.238 7.742 C 34.853 7.952 34.66 8.269 34.66 8.693 C 34.66 9.155 34.856 9.515 35.247 9.773 C 35.638 10.031 36.161 10.159 36.816 10.159 C 37.405 10.159 37.898 10.06 38.294 9.861 C 38.889 9.56 39.208 9.053 39.253 8.339 L 41.637 8.339 C 41.594 9.601 41.125 10.564 40.23 11.227 C 39.336 11.89 38.255 12.222 36.989 12.222 C 35.471 12.222 34.322 11.87 33.539 11.167 C 32.756 10.463 32.364 9.579 32.364 8.516 C 32.364 7.35 32.764 6.494 33.565 5.946 C 34.037 5.618 34.905 5.315 36.169 5.035 L 37.455 4.753 C 38.207 4.592 38.757 4.407 39.103 4.198 C 39.45 3.983 39.623 3.679 39.623 3.287 C 39.623 2.616 39.269 2.156 38.562 1.909 C 38.189 1.781 37.704 1.716 37.106 1.716 C 36.108 1.716 35.403 1.96 34.992 2.449 C 34.767 2.718 34.616 3.123 34.539 3.666 Z M 42.8 11.875 L 42.8 9.773 L 46.369 9.773 L 46.369 0 L 48.867 0 L 48.867 9.773 L 52.42 9.773 L 52.42 11.875 Z " fill="#ffffff"/>
</g>
</g>
</g>
</svg>
