<svg xmlns="http://www.w3.org/2000/svg" xmlns:xlink="http://www.w3.org/1999/xlink" width="500" zoomAndPan="magnify" viewBox="0 0 375 374.999991" height="500" preserveAspectRatio="xMidYMid meet" version="1.0"><defs><clipPath id="272e37addb"><path d="M 187.5 0 C 83.945312 0 0 83.945312 0 187.5 C 0 291.054688 83.945312 375 187.5 375 C 291.054688 375 375 291.054688 375 187.5 C 375 83.945312 291.054688 0 187.5 0 Z M 187.5 0 " clip-rule="nonzero"/></clipPath><clipPath id="4a74a8f2a9"><path d="M 79 206 L 267 206 L 267 309.667969 L 79 309.667969 Z M 79 206 " clip-rule="nonzero"/></clipPath><clipPath id="957bb6aa98"><path d="M 78.164062 86 L 153 86 L 153 195 L 78.164062 195 Z M 78.164062 86 " clip-rule="nonzero"/></clipPath></defs><g clip-path="url(#272e37addb)"><rect x="-37.5" width="450" fill="#000000" y="-37.499999" height="449.999989" fill-opacity="1"/></g><g clip-path="url(#4a74a8f2a9)"><path fill="#ffffff" d="M 261.839844 278.039062 C 260.128906 279.605469 258.328125 281.144531 256.484375 282.609375 C 245.644531 291.207031 233.042969 297.375 219.589844 300.890625 L 217.789062 293.207031 C 217.453125 291.777344 216.023438 290.894531 214.59375 291.222656 C 213.164062 291.5625 212.273438 292.992188 212.609375 294.417969 L 214.410156 302.105469 C 202.140625 304.652344 189.277344 305.042969 176.464844 303.09375 C 142.945312 297.996094 121.714844 280.414062 119.945312 278.910156 L 141.738281 258.660156 C 142.816406 257.660156 142.875 255.976562 141.878906 254.902344 C 140.875 253.824219 139.195312 253.761719 138.117188 254.761719 L 115.957031 275.355469 C 99.257812 259.777344 88.878906 240.234375 85.066406 217.183594 L 128.277344 211.4375 C 129.730469 211.242188 130.753906 209.90625 130.5625 208.449219 C 130.367188 206.996094 129.03125 205.972656 127.574219 206.164062 L 81.675781 212.269531 C 80.21875 212.464844 79.195312 213.800781 79.386719 215.257812 C 79.414062 215.457031 79.46875 215.644531 79.535156 215.824219 C 79.519531 216.023438 79.523438 216.21875 79.554688 216.421875 C 83.320312 241.265625 94.257812 262.292969 112.050781 278.984375 L 110.238281 280.671875 C 109.164062 281.671875 109.101562 283.351562 110.101562 284.429688 C 110.625 284.992188 111.335938 285.277344 112.050781 285.277344 C 112.695312 285.277344 113.347656 285.042969 113.859375 284.566406 L 116.03125 282.550781 C 116.132812 282.636719 116.234375 282.726562 116.335938 282.816406 C 117.253906 283.628906 139.21875 302.808594 175.660156 308.351562 C 181.363281 309.21875 187.074219 309.644531 192.746094 309.644531 C 201.261719 309.644531 209.691406 308.679688 217.847656 306.796875 C 217.972656 306.789062 218.097656 306.769531 218.226562 306.742188 C 218.339844 306.714844 218.441406 306.667969 218.546875 306.632812 C 233.609375 303.050781 247.730469 296.339844 259.789062 286.777344 C 261.734375 285.234375 263.632812 283.613281 265.4375 281.957031 C 266.519531 280.964844 266.589844 279.28125 265.597656 278.199219 C 264.605469 277.117188 262.921875 277.046875 261.839844 278.039062 " fill-opacity="1" fill-rule="nonzero"/></g><g clip-path="url(#957bb6aa98)"><path fill="#ffffff" d="M 80.898438 194.136719 C 82.308594 194.136719 83.484375 193.023438 83.550781 191.59375 C 84.339844 173.902344 89.039062 156.644531 96.984375 141.015625 L 122.578125 159.695312 C 123.050781 160.039062 123.597656 160.207031 124.140625 160.207031 C 124.960938 160.207031 125.773438 159.828125 126.292969 159.113281 C 127.160156 157.929688 126.898438 156.265625 125.710938 155.402344 L 99.53125 136.289062 C 108.191406 120.910156 120.082031 107.300781 134.539062 96.675781 L 147.699219 117.367188 C 148.207031 118.164062 149.066406 118.601562 149.945312 118.601562 C 150.433594 118.601562 150.929688 118.464844 151.371094 118.1875 C 152.609375 117.398438 152.976562 115.753906 152.1875 114.515625 L 135.386719 88.09375 C 134.601562 86.855469 132.953125 86.492188 131.714844 87.277344 C 130.476562 88.066406 130.109375 89.710938 130.898438 90.949219 L 131.679688 92.175781 C 116.339844 103.386719 103.402344 118.058594 94.21875 134.714844 C 94.023438 135.0625 93.84375 135.421875 93.652344 135.773438 C 93.625 135.828125 93.589844 135.878906 93.566406 135.9375 C 84.398438 152.996094 79.097656 172.125 78.238281 191.359375 C 78.171875 192.824219 79.308594 194.070312 80.777344 194.132812 C 80.816406 194.136719 80.855469 194.136719 80.898438 194.136719 " fill-opacity="1" fill-rule="nonzero"/></g><path fill="#ffffff" d="M 283.894531 168.945312 C 283.859375 168.875 283.835938 168.800781 283.796875 168.730469 C 283.734375 168.628906 283.660156 168.542969 283.585938 168.449219 C 276.015625 156.308594 263.425781 143.933594 242.472656 136.535156 L 253.953125 90.175781 C 255.273438 84.855469 254.203125 79.242188 251.023438 74.773438 C 247.851562 70.316406 242.914062 67.476562 237.46875 66.984375 C 224.351562 65.789062 204.097656 65.3125 182.09375 69.839844 C 170.464844 72.234375 159.238281 76.199219 148.722656 81.625 C 147.417969 82.296875 146.90625 83.902344 147.582031 85.207031 C 148.253906 86.511719 149.855469 87.023438 151.164062 86.351562 C 161.242188 81.152344 172.011719 77.347656 183.167969 75.050781 C 185.632812 74.542969 188.078125 74.105469 190.492188 73.71875 L 191.671875 102.910156 C 191.734375 104.339844 192.910156 105.464844 194.332031 105.464844 C 194.363281 105.464844 194.402344 105.460938 194.4375 105.460938 C 195.90625 105.402344 197.046875 104.160156 196.988281 102.695312 L 195.785156 72.957031 C 212.15625 70.871094 226.789062 71.351562 236.988281 72.28125 C 240.886719 72.632812 244.421875 74.667969 246.691406 77.855469 C 248.972656 81.058594 249.734375 85.082031 248.789062 88.898438 L 237.355469 135.082031 C 231.199219 133.753906 215.296875 130.9375 198.210938 132.917969 L 197.839844 123.804688 C 197.78125 122.332031 196.550781 121.195312 195.078125 121.253906 C 193.609375 121.3125 192.46875 122.546875 192.527344 124.019531 L 192.917969 133.6875 C 180.472656 135.878906 167.875 140.910156 158.355469 151.148438 C 157.847656 151.703125 151.4375 158.851562 146.15625 170.324219 L 140.777344 166.398438 C 139.589844 165.53125 137.925781 165.789062 137.0625 166.976562 C 136.195312 168.164062 136.457031 169.824219 137.640625 170.691406 L 144.035156 175.359375 C 140.238281 185.296875 137.746094 197.710938 139.972656 211.511719 C 142.445312 226.789062 151.765625 239.964844 164.796875 247.074219 C 164.839844 247.097656 164.882812 247.121094 164.925781 247.144531 C 166.519531 248.007812 168.164062 248.785156 169.863281 249.457031 C 172.335938 250.441406 174.886719 251.238281 177.511719 251.851562 L 172.769531 268.347656 C 172.363281 269.757812 173.179688 271.230469 174.589844 271.636719 C 174.835938 271.710938 175.082031 271.742188 175.328125 271.742188 C 176.484375 271.742188 177.546875 270.980469 177.882812 269.816406 L 182.769531 252.816406 C 185.503906 253.191406 188.304688 253.378906 191.175781 253.378906 C 194.929688 253.375 198.800781 253.054688 202.773438 252.417969 L 208.613281 277.363281 C 208.902344 278.589844 209.996094 279.417969 211.203125 279.417969 C 211.402344 279.417969 211.605469 279.394531 211.8125 279.347656 C 213.242188 279.011719 214.128906 277.582031 213.792969 276.152344 L 207.988281 251.347656 C 214.773438 249.496094 220.738281 245.734375 224.980469 240.578125 C 225.503906 239.9375 226.003906 239.285156 226.46875 238.621094 L 237.902344 245.710938 C 238.339844 245.984375 238.824219 246.113281 239.304688 246.113281 C 240.191406 246.113281 241.0625 245.667969 241.566406 244.855469 C 242.339844 243.605469 241.953125 241.96875 240.707031 241.191406 L 229.148438 234.023438 C 230.902344 230.324219 231.929688 226.28125 232.207031 221.929688 C 232.582031 215.960938 231.132812 210.023438 228.160156 204.90625 L 257.074219 187.714844 C 258.335938 186.964844 258.746094 185.332031 257.996094 184.070312 C 257.246094 182.808594 255.613281 182.394531 254.351562 183.144531 L 225.085938 200.550781 C 224.800781 200.214844 224.511719 199.878906 224.210938 199.554688 C 218.632812 193.558594 211.089844 190.210938 202.972656 190.132812 L 202.398438 190.132812 C 200.765625 190.140625 199.167969 190.410156 197.652344 190.933594 C 197.429688 191.011719 197.1875 191.101562 196.933594 191.195312 L 189.328125 175.050781 C 188.703125 173.722656 187.121094 173.152344 185.789062 173.78125 C 184.460938 174.40625 183.890625 175.988281 184.515625 177.316406 L 192.183594 193.59375 C 187.695312 196.515625 183.007812 201.804688 183.820312 210.992188 C 184.113281 214.285156 185.410156 217.335938 187.46875 219.585938 C 190.207031 222.574219 196.382812 226.664062 206.96875 220.457031 C 208.238281 219.714844 208.660156 218.085938 207.917969 216.820312 C 207.175781 215.550781 205.550781 215.125 204.28125 215.871094 C 198.664062 219.160156 194.332031 219.203125 191.390625 215.992188 C 190.117188 214.601562 189.308594 212.65625 189.121094 210.519531 C 188.457031 203.027344 192.820312 199.09375 196.734375 197.089844 C 196.742188 197.085938 196.753906 197.085938 196.765625 197.082031 C 196.789062 197.070312 196.808594 197.050781 196.832031 197.042969 C 197.734375 196.582031 198.609375 196.230469 199.394531 195.960938 C 200.355469 195.625 201.371094 195.457031 202.417969 195.449219 L 202.925781 195.453125 C 209.566406 195.515625 215.742188 198.257812 220.3125 203.175781 C 224.925781 208.136719 227.324219 214.847656 226.894531 221.589844 C 226.617188 225.988281 225.4375 230 223.382812 233.574219 C 223.382812 233.574219 223.378906 233.574219 223.378906 233.578125 C 222.652344 234.839844 221.816406 236.050781 220.871094 237.199219 C 216.863281 242.078125 210.972656 245.46875 204.289062 246.753906 C 192.296875 249.058594 181.375 248.304688 171.828125 244.515625 C 171.292969 244.304688 170.765625 244.078125 170.246094 243.847656 L 177.414062 234.769531 C 178.320312 233.621094 178.125 231.945312 176.972656 231.035156 C 175.820312 230.125 174.148438 230.324219 173.238281 231.472656 L 165.464844 241.320312 C 154.847656 234.789062 147.3125 223.570312 145.226562 210.664062 C 144.398438 205.550781 144.300781 200.617188 144.707031 195.941406 L 168.601562 199.375 C 168.730469 199.390625 168.855469 199.402344 168.984375 199.402344 C 170.285156 199.402344 171.421875 198.445312 171.613281 197.121094 C 171.820312 195.664062 170.8125 194.320312 169.355469 194.109375 L 145.386719 190.667969 C 149 169.597656 162.105469 154.925781 162.265625 154.753906 C 186.8125 128.355469 236.335938 140.269531 238.558594 140.824219 C 255.847656 146.46875 268.984375 155.984375 277.8125 169.195312 L 268.925781 174.480469 C 267.660156 175.230469 267.246094 176.863281 267.996094 178.125 C 268.492188 178.960938 269.378906 179.425781 270.285156 179.425781 C 270.746094 179.425781 271.214844 179.304688 271.640625 179.054688 L 280.597656 173.726562 C 282.574219 177.257812 284.28125 181.023438 285.707031 185.015625 C 291.523438 201.308594 290.308594 215.558594 290.296875 215.699219 C 290.296875 215.738281 290.292969 215.777344 290.289062 215.816406 C 289.433594 233.480469 284.363281 249.207031 275.230469 262.613281 L 254.730469 249.894531 C 253.480469 249.117188 251.84375 249.503906 251.066406 250.75 C 250.292969 252 250.679688 253.640625 251.925781 254.414062 L 274.5625 268.457031 C 274.601562 268.480469 274.640625 268.496094 274.675781 268.519531 C 274.730469 268.550781 274.785156 268.578125 274.839844 268.605469 C 274.90625 268.636719 274.96875 268.660156 275.035156 268.683594 C 275.09375 268.707031 275.152344 268.730469 275.210938 268.746094 C 275.277344 268.765625 275.339844 268.78125 275.402344 268.792969 C 275.464844 268.808594 275.53125 268.824219 275.59375 268.832031 C 275.640625 268.839844 275.691406 268.839844 275.742188 268.84375 C 275.816406 268.847656 275.890625 268.859375 275.964844 268.859375 C 275.980469 268.859375 276 268.855469 276.011719 268.855469 C 276.175781 268.851562 276.339844 268.832031 276.5 268.800781 C 276.535156 268.792969 276.574219 268.785156 276.613281 268.777344 C 276.769531 268.738281 276.925781 268.679688 277.074219 268.613281 C 277.117188 268.589844 277.160156 268.570312 277.207031 268.550781 C 277.347656 268.476562 277.480469 268.386719 277.609375 268.285156 C 277.652344 268.253906 277.691406 268.21875 277.730469 268.1875 C 277.851562 268.074219 277.96875 267.953125 278.070312 267.816406 C 278.085938 267.796875 278.105469 267.78125 278.121094 267.761719 C 288.757812 253.085938 294.636719 235.71875 295.601562 216.128906 C 295.707031 214.902344 296.800781 200.410156 290.789062 183.433594 C 289.183594 178.898438 286.960938 173.949219 283.894531 168.945312 " fill-opacity="1" fill-rule="nonzero"/><path fill="#ffffff" d="M 220.132812 171.660156 C 221.234375 171.660156 222.261719 170.972656 222.648438 169.875 L 228.152344 154.042969 C 228.632812 152.65625 227.902344 151.140625 226.515625 150.65625 C 225.125 150.171875 223.613281 150.90625 223.128906 152.296875 L 217.621094 168.128906 C 217.140625 169.515625 217.875 171.03125 219.257812 171.511719 C 219.550781 171.613281 219.84375 171.660156 220.132812 171.660156 " fill-opacity="1" fill-rule="nonzero"/><path fill="#ffffff" d="M 216.59375 179.179688 C 215.203125 178.695312 213.691406 179.429688 213.210938 180.820312 L 211.910156 184.554688 C 211.425781 185.945312 212.15625 187.460938 213.546875 187.941406 C 213.835938 188.042969 214.128906 188.089844 214.417969 188.089844 C 215.519531 188.089844 216.550781 187.402344 216.929688 186.304688 L 218.234375 182.566406 C 218.714844 181.179688 217.980469 179.664062 216.59375 179.179688 " fill-opacity="1" fill-rule="nonzero"/></svg>