<svg width="212" height="212" viewBox="0 0 212 212" fill="none" xmlns="http://www.w3.org/2000/svg">
<g clip-path="url(#clip0_9_39)">
<path d="M211.651 105.825V-0.000372519H104.025V0.0449563C46.4187 1.00629 0 47.9756 0 105.83C0 164.278 47.3827 211.654 105.82 211.654C164.087 211.654 211.348 164.568 211.64 106.369H211.651V105.929C211.651 105.896 211.653 105.864 211.653 105.83L211.651 105.825Z" fill="#EE2C24"/>
<path d="M162 109.69C161.998 108.265 160.928 107.325 159.698 107.328C158.456 107.33 157.392 108.274 157.394 109.699C157.396 111.044 158.358 112.063 159.707 112.061C160.937 112.059 162.002 111.114 162 109.69ZM161.499 109.69C161.501 110.848 160.711 111.649 159.707 111.649C158.591 111.651 157.897 110.772 157.895 109.697C157.895 108.545 158.685 107.74 159.7 107.738C160.705 107.738 161.497 108.538 161.499 109.69ZM158.951 109.694C158.949 109.169 159.237 108.745 159.765 108.745C160.123 108.743 160.391 108.964 160.456 109.289L160.881 109.286C160.799 108.666 160.336 108.333 159.763 108.333C158.949 108.342 158.447 108.93 158.447 109.697C158.45 110.512 158.978 111.126 159.781 111.123C160.333 111.123 160.785 110.749 160.89 110.147H160.456C160.414 110.476 160.15 110.711 159.781 110.713C159.271 110.713 158.951 110.247 158.951 109.694ZM157.949 116.923C157.94 111.583 154.794 108.373 149.546 108.382L142.19 108.396L142.219 125.651L149.577 125.637C154.776 125.628 157.957 122.576 157.949 116.923ZM153.492 116.907C153.497 120.363 152.157 121.692 148.779 121.771L146.669 121.776L146.653 112.255L148.763 112.25C151.805 112.246 153.485 113.765 153.492 116.907ZM151.595 77.5541C155.022 74.2024 155.754 69.354 153.224 66.7258C150.698 64.0931 145.866 64.6814 142.438 68.0309C139.009 71.3826 138.28 76.2288 140.808 78.8592C143.336 81.4896 148.166 80.9059 151.595 77.5541ZM141.49 67.4764C144.917 64.1246 145.649 59.274 143.119 56.6458C140.591 54.0153 135.763 54.6014 132.333 57.9509C128.906 61.3048 128.175 66.151 130.702 68.7815C133.233 71.4119 138.06 70.8281 141.49 67.4764ZM125.237 70.0708C128.664 66.719 129.396 61.8706 126.868 59.2402C124.34 56.612 119.508 57.1935 116.081 60.5475C112.653 63.8992 111.924 68.7476 114.452 71.3781C116.98 74.0085 121.81 73.4225 125.237 70.0708ZM121.96 73.9635C114.497 73.9747 108.456 80.0876 108.47 87.6116C108.483 95.1355 114.544 101.228 122.007 101.215C129.47 101.201 135.51 95.0882 135.497 87.5643C135.485 80.0403 129.423 73.9499 121.96 73.9635ZM104.416 127.098C104.394 115.021 94.6689 105.252 82.6935 105.272C70.7204 105.292 61.0291 115.097 61.0515 127.174C61.0716 139.249 70.7965 149.02 82.7696 149C94.745 148.977 104.436 139.172 104.416 127.098ZM85.2237 122.61L82.3736 122.614C82.2416 122.454 82.1029 122.301 81.9553 122.155C80.6891 120.883 78.9463 120.099 77.0179 120.101C75.0895 120.106 73.349 120.897 72.085 122.173C70.8233 123.448 70.047 125.209 70.0515 127.152C70.0537 129.097 70.8367 130.853 72.1029 132.126C73.3714 133.398 75.1119 134.18 77.0425 134.177C78.9709 134.173 80.7114 133.384 81.9732 132.108C82.0582 132.023 82.1387 131.935 82.2193 131.847L85.1208 131.842C83.5101 134.655 80.4944 136.553 77.0403 136.558C71.877 136.567 67.6868 132.356 67.6779 127.152C67.6689 121.945 71.8457 117.721 77.0067 117.71C80.5481 117.705 83.6331 119.684 85.2237 122.61ZM79.9262 127.262C79.9262 127.447 79.9486 127.625 79.9911 127.801C80.0336 127.974 80.1029 128.132 80.1969 128.272C80.2909 128.412 80.4139 128.524 80.5638 128.608C80.7159 128.691 80.8994 128.734 81.1141 128.732C81.4094 128.732 81.6376 128.642 81.8032 128.459C81.9687 128.279 82.0671 128.04 82.1029 127.745L83.0336 127.742C83.009 128.017 82.9463 128.267 82.8457 128.488C82.745 128.711 82.6085 128.901 82.443 129.056C82.2752 129.214 82.0806 129.334 81.8568 129.415C81.6331 129.498 81.3848 129.539 81.1164 129.541C80.783 129.541 80.481 129.482 80.2148 129.365C79.9463 129.25 79.7204 129.088 79.5369 128.883C79.3535 128.678 79.2126 128.436 79.1141 128.159C79.0157 127.882 78.9665 127.584 78.9665 127.262C78.9665 126.933 79.0135 126.629 79.1119 126.347C79.2081 126.065 79.349 125.82 79.5325 125.61C79.7159 125.4 79.9396 125.236 80.2081 125.114C80.4743 124.995 80.7741 124.936 81.1074 124.934C81.349 124.934 81.5772 124.97 81.7897 125.037C82.0045 125.107 82.1969 125.209 82.3669 125.342C82.5347 125.475 82.6756 125.642 82.7853 125.838C82.8971 126.036 82.9665 126.261 82.9956 126.516L82.0649 126.518C82.0492 126.406 82.0112 126.304 81.9553 126.212C81.8971 126.119 81.8255 126.038 81.7405 125.968C81.6533 125.901 81.5571 125.844 81.4497 125.806C81.3401 125.768 81.2282 125.747 81.1096 125.747C80.8926 125.75 80.7114 125.79 80.5593 125.876C80.4094 125.959 80.2864 126.074 80.1924 126.216C80.1007 126.358 80.0313 126.518 79.9888 126.699C79.9463 126.881 79.9262 127.068 79.9262 127.262ZM77.4944 127.783L77.4877 125.046L78.4497 125.044L78.4542 127.781C78.4542 128.378 78.2909 128.822 77.9598 129.11C77.6309 129.401 77.1745 129.548 76.5906 129.548C76 129.55 75.5414 129.406 75.2193 129.119C74.8926 128.833 74.7316 128.389 74.7293 127.787L74.7249 125.051L75.6846 125.049L75.6891 127.787C75.6891 127.907 75.7003 128.024 75.7204 128.137C75.7405 128.254 75.7853 128.355 75.8501 128.443C75.915 128.531 76.0067 128.603 76.1231 128.657C76.2394 128.714 76.3938 128.741 76.5906 128.741C76.9329 128.741 77.1678 128.662 77.2998 128.509C77.4296 128.353 77.4944 128.112 77.4944 127.783ZM73.0694 129.455L73.0627 125.053L74.0224 125.051L74.0291 129.455H73.0694ZM87.2551 129.431L86.2953 129.433L84.4743 126.489H84.4609L84.4676 129.435L83.5683 129.437L83.5615 125.035L84.5146 125.033L86.3423 127.983H86.3535L86.349 125.031L87.2483 125.028L87.2551 129.431ZM104.096 79.461L104.087 57.7345L82.5101 57.7728C70.6085 57.7931 60.9777 67.5395 61 79.5354C61.0202 91.5381 70.6846 101.248 82.5839 101.228C94.4832 101.208 104.119 91.4637 104.096 79.461ZM118.152 108.439L109.427 108.455L109.459 125.707L113.915 125.7L113.904 119.416L117.284 119.411C119.369 119.407 119.66 121.194 119.783 122.934C119.83 123.417 119.906 125.11 120.291 125.689L124.7 125.68C124.098 125.053 124.022 122.515 123.973 121.792C123.828 120.148 123.295 118.095 121.474 117.662V117.615C123.271 116.912 124.154 115.145 124.15 113.285C124.145 109.805 121.17 108.434 118.152 108.439ZM117.438 112.041C118.685 112.038 119.694 112.615 119.694 113.898C119.696 115.201 118.98 115.929 117.638 115.931L113.899 115.938L113.893 112.047L117.438 112.041ZM113.919 127.472L109.461 127.481L109.492 144.733L121.928 144.713L121.922 140.845L113.942 140.858L113.919 127.472ZM127.602 127.449L123.145 127.456L123.175 144.711L127.633 144.702L127.602 127.449ZM139.718 84.3004C136.291 87.6499 135.562 92.4983 138.089 95.1288C140.617 97.7592 145.447 97.1732 148.872 93.8237C152.304 90.4719 153.034 85.6235 150.503 82.9908C147.978 80.3626 143.148 80.9487 139.718 84.3004ZM130.732 121.803L130.727 118.517L139.114 118.503L139.107 115.023L130.72 115.036L130.716 112.018L139.895 112L139.888 108.4L126.253 108.425L126.282 125.678L140.157 125.653L140.15 121.787L130.732 121.803ZM133.23 138.893L128.774 138.9C128.805 143.322 132.282 145.055 136.213 145.049C139.975 145.042 143.664 143.635 143.655 139.26C143.651 136.143 141.157 134.987 138.687 134.292C136.192 133.596 133.725 133.357 133.723 132.029C133.72 130.893 134.917 130.553 135.877 130.551C137.242 130.549 138.705 131.053 138.635 132.624L143.094 132.615C143.063 128.725 139.633 127.064 136.23 127.071C133.018 127.075 129.26 128.556 129.264 132.327C129.271 135.492 131.837 136.598 134.282 137.295C136.752 137.991 139.197 138.278 139.199 139.801C139.201 141.082 137.812 141.566 136.47 141.568C134.577 141.573 133.329 140.922 133.23 138.893ZM143.067 131.288L148.172 131.279L148.195 144.665L152.653 144.659L152.629 131.27L157.734 131.261L157.727 127.395L143.06 127.42L143.067 131.288Z" fill="white"/>
</g>
<defs>
<clipPath id="clip0_9_39">
<rect width="211.653" height="211.653" fill="white"/>
</clipPath>
</defs>
</svg>
