<svg xmlns="http://www.w3.org/2000/svg" xmlns:xlink="http://www.w3.org/1999/xlink" width="500" zoomAndPan="magnify" viewBox="0 0 375 374.999991" height="500" preserveAspectRatio="xMidYMid meet" version="1.0"><defs><clipPath id="364ae953c0"><path d="M 187.5 0 C 83.945312 0 0 83.945312 0 187.5 C 0 291.054688 83.945312 375 187.5 375 C 291.054688 375 375 291.054688 375 187.5 C 375 83.945312 291.054688 0 187.5 0 Z M 187.5 0 " clip-rule="nonzero"/></clipPath><clipPath id="80ebce2e36"><path d="M 58.40625 50.925781 L 316.398438 50.925781 L 316.398438 281.175781 L 58.40625 281.175781 Z M 58.40625 50.925781 " clip-rule="nonzero"/></clipPath></defs><g clip-path="url(#364ae953c0)"><rect x="-37.5" width="450" fill="#ff3131" y="-37.499999" height="449.999989" fill-opacity="1"/></g><g clip-path="url(#80ebce2e36)"><path fill="#ff3131" d="M 313.109375 242.757812 L 209.78125 63.792969 C 207.433594 59.722656 204.054688 56.386719 200.007812 54.144531 C 196.210938 52.039062 191.882812 50.925781 187.492188 50.925781 C 183.109375 50.925781 178.78125 52.039062 174.976562 54.144531 C 170.9375 56.386719 167.558594 59.722656 165.207031 63.792969 L 61.878906 242.757812 C 59.53125 246.828125 58.332031 251.425781 58.410156 256.046875 C 58.488281 260.390625 59.6875 264.695312 61.878906 268.496094 C 64.074219 272.296875 67.203125 275.484375 70.925781 277.726562 C 74.890625 280.105469 79.46875 281.363281 84.167969 281.363281 L 290.820312 281.363281 C 295.519531 281.363281 300.101562 280.105469 304.0625 277.726562 C 307.789062 275.484375 310.914062 272.296875 313.109375 268.496094 C 315.300781 264.695312 316.5 260.390625 316.578125 256.046875 C 316.65625 251.425781 315.457031 246.828125 313.109375 242.757812 " fill-opacity="1" fill-rule="nonzero"/></g><path fill="#ffffff" d="M 187.492188 64.625 C 185.425781 64.625 183.394531 65.144531 181.621094 66.128906 C 179.75 67.164062 178.175781 68.726562 177.070312 70.640625 L 73.746094 249.609375 C 72.636719 251.527344 72.070312 253.671875 72.109375 255.804688 C 72.144531 257.835938 72.710938 259.855469 73.746094 261.644531 C 74.78125 263.4375 76.246094 264.9375 77.980469 265.980469 C 79.816406 267.082031 81.953125 267.664062 84.167969 267.664062 L 290.820312 267.664062 C 293.035156 267.664062 295.175781 267.082031 297.003906 265.984375 C 298.746094 264.9375 300.210938 263.4375 301.242188 261.644531 C 302.277344 259.855469 302.847656 257.835938 302.878906 255.808594 C 302.917969 253.671875 302.351562 251.527344 301.242188 249.609375 L 197.917969 70.644531 C 196.8125 68.726562 195.238281 67.164062 193.367188 66.128906 C 191.59375 65.144531 189.5625 64.625 187.492188 64.625 Z M 290.820312 273.75 L 84.167969 273.75 C 80.847656 273.75 77.625 272.871094 74.847656 271.199219 C 72.226562 269.625 70.019531 267.375 68.472656 264.691406 C 66.921875 262.007812 66.074219 258.972656 66.019531 255.914062 C 65.964844 252.671875 66.8125 249.441406 68.472656 246.566406 L 171.796875 67.601562 C 173.457031 64.722656 175.832031 62.375 178.667969 60.804688 C 181.34375 59.320312 184.394531 58.535156 187.492188 58.535156 C 190.59375 58.535156 193.644531 59.320312 196.320312 60.800781 C 199.15625 62.375 201.53125 64.726562 203.191406 67.601562 L 306.519531 246.566406 C 308.175781 249.441406 309.023438 252.671875 308.96875 255.914062 C 308.914062 258.972656 308.066406 262.007812 306.515625 264.691406 C 304.96875 267.371094 302.761719 269.625 300.140625 271.199219 C 297.363281 272.871094 294.140625 273.75 290.820312 273.75 " fill-opacity="1" fill-rule="nonzero"/><path fill="#ffffff" d="M 187.492188 225.835938 C 178.460938 225.835938 171.113281 233.1875 171.113281 242.222656 C 171.113281 251.253906 178.460938 258.605469 187.492188 258.605469 C 196.527344 258.605469 203.878906 251.253906 203.878906 242.222656 C 203.878906 233.1875 196.527344 225.835938 187.492188 225.835938 " fill-opacity="1" fill-rule="nonzero"/><path fill="#ffffff" d="M 175.507812 196.808594 C 175.867188 203.160156 181.128906 208.140625 187.492188 208.140625 C 193.859375 208.140625 199.121094 203.160156 199.480469 196.808594 L 203.792969 120.054688 C 204.046875 115.527344 202.46875 111.21875 199.355469 107.925781 C 196.238281 104.628906 192.027344 102.816406 187.492188 102.816406 C 182.960938 102.816406 178.75 104.628906 175.632812 107.925781 C 172.519531 111.21875 170.945312 115.527344 171.199219 120.054688 L 175.507812 196.808594 " fill-opacity="1" fill-rule="nonzero"/></svg>