<svg xmlns="http://www.w3.org/2000/svg" xmlns:xlink="http://www.w3.org/1999/xlink" width="500" zoomAndPan="magnify" viewBox="0 0 375 374.999991" height="500" preserveAspectRatio="xMidYMid meet" version="1.0"><defs><clipPath id="bfab15eef1"><path d="M 187.5 0 C 83.945312 0 0 83.945312 0 187.5 C 0 291.054688 83.945312 375 187.5 375 C 291.054688 375 375 291.054688 375 187.5 C 375 83.945312 291.054688 0 187.5 0 Z M 187.5 0 " clip-rule="nonzero"/></clipPath><clipPath id="74e7eb2521"><path d="M 27.222656 88.441406 L 359.4375 88.441406 L 359.4375 302 L 27.222656 302 Z M 27.222656 88.441406 " clip-rule="nonzero"/></clipPath></defs><g clip-path="url(#bfab15eef1)"><rect x="-37.5" width="450" fill="#58a39d" y="-37.499999" height="449.999989" fill-opacity="1"/></g><path fill="#ffffff" d="M 302.578125 186.082031 C 302.578125 186.429688 302.609375 186.773438 302.679688 187.113281 C 302.746094 187.453125 302.847656 187.78125 302.976562 188.101562 C 303.109375 188.421875 303.273438 188.726562 303.464844 189.011719 C 303.65625 189.300781 303.875 189.566406 304.121094 189.8125 C 304.367188 190.058594 304.632812 190.273438 304.921875 190.46875 C 305.207031 190.660156 305.511719 190.824219 305.832031 190.953125 C 306.152344 191.085938 306.480469 191.1875 306.820312 191.253906 C 307.160156 191.324219 307.503906 191.355469 307.851562 191.355469 C 308.195312 191.355469 308.539062 191.324219 308.878906 191.253906 C 309.21875 191.1875 309.546875 191.085938 309.867188 190.953125 C 310.1875 190.824219 310.492188 190.660156 310.78125 190.46875 C 311.066406 190.273438 311.335938 190.058594 311.578125 189.8125 C 311.824219 189.566406 312.042969 189.300781 312.234375 189.011719 C 312.425781 188.726562 312.589844 188.421875 312.722656 188.101562 C 312.855469 187.78125 312.953125 187.453125 313.023438 187.113281 C 313.089844 186.773438 313.125 186.429688 313.125 186.082031 C 313.125 185.738281 313.089844 185.394531 313.023438 185.054688 C 312.953125 184.714844 312.855469 184.386719 312.722656 184.066406 C 312.589844 183.746094 312.425781 183.441406 312.234375 183.152344 C 312.042969 182.867188 311.824219 182.597656 311.578125 182.355469 C 311.335938 182.109375 311.066406 181.890625 310.78125 181.699219 C 310.492188 181.507812 310.1875 181.34375 309.867188 181.210938 C 309.546875 181.078125 309.21875 180.980469 308.878906 180.910156 C 308.539062 180.84375 308.195312 180.808594 307.851562 180.808594 C 307.503906 180.808594 307.160156 180.84375 306.820312 180.910156 C 306.480469 180.980469 306.152344 181.078125 305.832031 181.210938 C 305.511719 181.34375 305.207031 181.507812 304.921875 181.699219 C 304.632812 181.890625 304.367188 182.109375 304.121094 182.355469 C 303.875 182.597656 303.65625 182.867188 303.464844 183.152344 C 303.273438 183.441406 303.109375 183.746094 302.976562 184.066406 C 302.847656 184.386719 302.746094 184.714844 302.679688 185.054688 C 302.609375 185.394531 302.578125 185.738281 302.578125 186.082031 Z M 302.578125 186.082031 " fill-opacity="1" fill-rule="nonzero"/><g clip-path="url(#74e7eb2521)"><path fill="#ffffff" d="M 34.023438 182.804688 C 35.945312 180.554688 38.753906 179.015625 41.234375 178.007812 C 38.84375 175.917969 36.109375 172.816406 34.496094 168.664062 C 31.515625 160.984375 27.660156 118.632812 27.230469 113.828125 C 27.140625 112.804688 27.648438 111.824219 28.535156 111.3125 C 29.425781 110.800781 30.535156 110.851562 31.375 111.441406 C 49.460938 124.183594 62.339844 141.019531 69.660156 161.476562 C 69.90625 162.164062 70.472656 162.304688 70.785156 162.324219 C 71.050781 162.351562 71.699219 162.308594 72.058594 161.621094 L 77.636719 151.0625 C 78.070312 150.242188 78.902344 149.707031 79.824219 149.660156 C 80.757812 149.609375 81.632812 150.046875 82.152344 150.816406 L 90.554688 163.214844 C 92.484375 166.050781 96.027344 167.441406 99.371094 166.65625 L 197.34375 143.671875 C 198.703125 143.351562 199.910156 142.609375 200.75 141.585938 C 202.421875 139.542969 204.597656 135.953125 205.488281 130.441406 C 206.3125 125.328125 205.84375 118.542969 205.421875 112.558594 C 204.988281 106.347656 204.609375 100.976562 205.546875 97.496094 C 207.664062 89.613281 212.703125 88.96875 213.273438 88.921875 C 213.839844 88.863281 214.417969 89.011719 214.898438 89.320312 C 229.625 98.632812 241.988281 117.367188 253.734375 148.207031 C 270.605469 149.128906 359.4375 155.269531 359.4375 182.203125 C 359.4375 186.238281 358.503906 190.113281 356.871094 193.828125 C 356.824219 193.925781 356.792969 194.027344 356.734375 194.113281 C 342.289062 226.21875 273.664062 246.070312 263.933594 248.738281 C 258.390625 258.886719 248.066406 269.96875 242.277344 275.789062 C 239.492188 278.589844 216.496094 301.410156 206.65625 301.410156 C 205.863281 301.410156 205.152344 301.257812 204.546875 300.941406 C 199.992188 298.527344 202.214844 292.042969 205.289062 283.066406 C 206.515625 279.496094 207.902344 275.449219 208.933594 271.4375 C 210.644531 264.765625 210.886719 259.675781 211.101562 255.1875 C 211.136719 254.476562 211.175781 253.800781 211.214844 253.121094 C 183.316406 250.296875 155.726562 244.359375 129.128906 235.4375 C 124.40625 241.257812 118.777344 245.515625 112.121094 248.28125 C 109.484375 249.371094 106.480469 249.09375 104.085938 247.519531 C 101.691406 245.945312 100.238281 243.296875 100.199219 240.433594 L 99.980469 224.34375 C 97.125 223.125 94.261719 221.855469 91.398438 220.558594 C 88.089844 225.292969 84.066406 229.148438 79.324219 231.914062 C 78.417969 232.441406 77.417969 232.710938 76.417969 232.710938 C 75.273438 232.710938 74.128906 232.363281 73.125 231.679688 C 71.246094 230.40625 70.289062 228.230469 70.628906 226.007812 C 71.425781 220.808594 71.363281 215.542969 70.515625 210.320312 C 69.210938 209.636719 67.902344 208.933594 66.597656 208.230469 C 59.871094 221.191406 47.882812 231.09375 30.808594 237.699219 C 29.972656 238.019531 29.027344 237.894531 28.308594 237.371094 C 27.582031 236.84375 27.171875 235.988281 27.226562 235.089844 C 28.03125 220.824219 30.304688 187.171875 34.023438 182.804688 Z M 350.519531 194.859375 C 347.921875 194.671875 344.6875 194.632812 342.421875 195.210938 C 340.996094 195.578125 340.140625 196.792969 338.894531 198.753906 C 337.601562 200.792969 335.992188 203.332031 332.839844 203.914062 C 329.65625 204.5 327.621094 203.140625 326.144531 202.148438 C 324.925781 201.328125 324.300781 200.957031 323.144531 201.019531 C 321.929688 201.105469 320.402344 202.433594 318.785156 203.839844 C 316.488281 205.835938 313.878906 208.097656 310.285156 208.699219 C 306.402344 209.339844 304.1875 208.195312 302.574219 207.347656 C 301.445312 206.757812 300.8125 206.433594 299.648438 206.5625 C 298.125 206.726562 296.234375 208.226562 294.410156 209.679688 C 292.292969 211.363281 290.105469 213.101562 287.515625 213.746094 C 285.136719 214.335938 283.023438 213.570312 281.296875 212.675781 C 281.878906 214.71875 282.664062 216.773438 283.660156 218.84375 C 284.292969 220.152344 283.742188 221.730469 282.429688 222.363281 C 282.058594 222.539062 281.671875 222.625 281.285156 222.625 C 280.304688 222.625 279.363281 222.074219 278.90625 221.132812 C 277.550781 218.3125 276.570312 215.476562 275.890625 212.640625 C 275.792969 212.925781 275.703125 213.25 275.597656 213.613281 C 275.160156 215.222656 274.554688 217.425781 272.070312 218.53125 C 272.019531 218.550781 271.972656 218.558594 271.925781 218.578125 C 272.246094 219.363281 272.570312 220.152344 272.949219 220.941406 C 273.578125 222.253906 273.027344 223.828125 271.714844 224.460938 C 271.347656 224.636719 270.957031 224.722656 270.574219 224.722656 C 269.59375 224.722656 268.652344 224.175781 268.195312 223.230469 C 267.367188 221.515625 266.710938 219.789062 266.132812 218.066406 C 265.832031 217.925781 265.542969 217.785156 265.273438 217.644531 C 264.652344 217.335938 263.574219 216.800781 263.300781 216.867188 C 262.640625 217.042969 261.160156 218.597656 259.925781 220.335938 C 260.671875 222.042969 261.644531 223.769531 263.03125 226.191406 C 264.046875 227.972656 265.253906 230.082031 266.691406 232.757812 C 268.101562 235.394531 267.921875 238.738281 266.726562 242.429688 C 283.527344 237.390625 336.203125 219.890625 350.519531 194.859375 Z M 211.804688 247.878906 C 212.054688 246.53125 212.378906 245.21875 212.914062 243.953125 C 214.296875 240.683594 217.773438 238.023438 221.261719 236.046875 C 220.34375 233.867188 218.3125 230.433594 214.402344 229.476562 C 211.058594 228.65625 208.746094 229.40625 206.066406 230.28125 C 203.539062 231.105469 200.675781 232.042969 196.945312 231.535156 C 192.777344 230.964844 190.394531 228.972656 188.472656 227.375 C 186.800781 225.984375 185.59375 224.972656 183.394531 224.796875 C 181.125 224.597656 179.914062 225.40625 178.113281 226.617188 C 176.296875 227.84375 174.035156 229.363281 170.457031 229.546875 C 166.589844 229.699219 162.40625 226.761719 157.984375 223.601562 C 154.277344 220.957031 150.070312 217.953125 147.082031 217.832031 C 141.949219 217.660156 137.992188 221.394531 137.09375 222.355469 C 135.664062 225.480469 134.097656 228.335938 132.394531 230.953125 C 158.152344 239.464844 184.828125 245.152344 211.804688 247.878906 Z M 74.148438 206.285156 C 74.195312 206.308594 74.222656 206.351562 74.265625 206.378906 C 74.429688 206.476562 74.5625 206.605469 74.703125 206.734375 C 74.816406 206.839844 74.933594 206.9375 75.027344 207.058594 C 75.125 207.191406 75.1875 207.34375 75.261719 207.496094 C 75.34375 207.660156 75.417969 207.8125 75.464844 207.988281 C 75.476562 208.039062 75.511719 208.082031 75.519531 208.132812 C 76.683594 214.335938 76.792969 220.613281 75.839844 226.804688 C 75.800781 227.0625 75.957031 227.222656 76.089844 227.316406 C 76.226562 227.40625 76.441406 227.484375 76.664062 227.359375 C 81.363281 224.613281 85.15625 220.851562 88.261719 215.859375 C 88.328125 215.746094 88.4375 215.683594 88.519531 215.585938 C 88.628906 215.453125 88.734375 215.324219 88.863281 215.21875 C 89.003906 215.105469 89.148438 215.03125 89.304688 214.953125 C 89.449219 214.875 89.59375 214.796875 89.75 214.75 C 89.914062 214.703125 90.074219 214.6875 90.246094 214.671875 C 90.414062 214.65625 90.574219 214.636719 90.742188 214.652344 C 90.921875 214.667969 91.085938 214.726562 91.265625 214.777344 C 91.378906 214.8125 91.496094 214.804688 91.605469 214.859375 C 94.363281 216.128906 97.136719 217.359375 99.90625 218.5625 L 99.792969 210.328125 C 99.757812 207.652344 97.726562 205.429688 95.070312 205.15625 C 92.941406 204.9375 91.488281 204.636719 90.480469 204.199219 C 88.679688 203.410156 87.582031 201.785156 86.519531 200.210938 C 85.53125 198.746094 84.597656 197.363281 83.277344 196.8125 C 83.074219 196.730469 81.070312 196.050781 73.070312 197.804688 C 71.558594 198.140625 70.324219 199.21875 69.851562 200.625 C 69.535156 201.574219 69.183594 202.507812 68.8125 203.433594 C 70.589844 204.394531 72.363281 205.359375 74.148438 206.285156 Z M 64.847656 198.945312 C 65.90625 195.800781 68.621094 193.390625 71.929688 192.65625 C 81.800781 190.492188 84.433594 191.589844 85.304688 191.945312 C 88.078125 193.101562 89.636719 195.410156 90.886719 197.261719 C 91.4375 198.078125 92.191406 199.191406 92.589844 199.367188 C 92.707031 199.417969 93.414062 199.683594 95.605469 199.910156 C 100.929688 200.453125 104.996094 204.902344 105.066406 210.257812 L 105.476562 240.359375 C 105.492188 241.488281 106.039062 242.492188 106.984375 243.109375 C 107.925781 243.734375 109.058594 243.839844 110.101562 243.40625 C 119.8125 239.375 127.121094 231.660156 132.457031 219.820312 C 132.550781 219.609375 132.675781 219.410156 132.824219 219.230469 C 133.058594 218.945312 138.742188 212.121094 147.304688 212.5625 C 151.863281 212.753906 156.53125 216.089844 161.050781 219.3125 C 164.320312 221.648438 168.015625 224.285156 170.070312 224.285156 C 170.113281 224.285156 170.148438 224.285156 170.1875 224.28125 C 172.304688 224.175781 173.570312 223.324219 175.179688 222.246094 C 177.191406 220.890625 179.707031 219.210938 183.824219 219.542969 C 187.695312 219.851562 189.90625 221.699219 191.855469 223.328125 C 193.542969 224.734375 194.996094 225.945312 197.664062 226.308594 C 200.179688 226.65625 202.160156 226.015625 204.4375 225.269531 C 207.449219 224.289062 210.863281 223.1875 215.660156 224.355469 C 221.613281 225.8125 224.613281 230.535156 226.007812 233.722656 C 228.136719 232.816406 229.800781 232.261719 230.269531 232.113281 C 231.652344 231.667969 233.140625 232.4375 233.578125 233.824219 C 234.023438 235.210938 233.253906 236.695312 231.871094 237.140625 C 227.246094 238.613281 219.332031 242.324219 217.773438 246.011719 C 216.703125 248.539062 216.558594 251.585938 216.371094 255.4375 C 216.160156 259.941406 215.886719 265.550781 214.042969 272.742188 C 212.964844 276.960938 211.539062 281.113281 210.285156 284.773438 C 208.886719 288.855469 207.007812 294.335938 207.214844 296.199219 C 213.183594 295.65625 241.296875 272.933594 255.898438 251.734375 C 261.175781 244.074219 263.472656 237.914062 262.050781 235.253906 C 260.640625 232.625 259.457031 230.554688 258.457031 228.808594 C 255.140625 223.007812 253.628906 220.363281 252.660156 212.785156 C 251.40625 202.941406 256.484375 190.835938 256.703125 190.324219 C 257.273438 188.984375 258.820312 188.355469 260.160156 188.929688 C 261.5 189.496094 262.125 191.046875 261.558594 192.386719 C 261.507812 192.5 256.816406 203.699219 257.890625 212.113281 C 257.988281 212.875 258.089844 213.566406 258.195312 214.214844 C 259.4375 212.996094 260.875 211.941406 262.375 211.679688 C 263.152344 211.535156 263.882812 211.613281 264.582031 211.761719 C 263.714844 206.203125 264.105469 200.644531 265.839844 195.125 C 266.273438 193.742188 267.746094 192.960938 269.144531 193.402344 C 270.53125 193.839844 271.304688 195.320312 270.867188 196.707031 C 269.128906 202.25 268.933594 207.703125 270.21875 213.21875 C 270.3125 212.960938 270.410156 212.621094 270.519531 212.222656 C 270.957031 210.625 271.621094 208.207031 274.171875 206.46875 C 274.421875 206.296875 274.667969 206.191406 274.914062 206.070312 C 274.671875 201.710938 275.191406 197.355469 276.550781 193.027344 C 276.988281 191.640625 278.46875 190.859375 279.855469 191.304688 C 281.246094 191.742188 282.015625 193.222656 281.582031 194.609375 C 280.367188 198.472656 279.910156 202.296875 280.164062 206.125 C 281.023438 206.484375 281.820312 206.925781 282.492188 207.3125 C 283.894531 208.128906 285.21875 208.894531 286.25 208.632812 C 287.726562 208.265625 289.457031 206.890625 291.132812 205.558594 C 293.550781 203.636719 296.046875 201.648438 299.09375 201.324219 C 301.84375 201.035156 303.617188 201.941406 305.023438 202.679688 C 306.382812 203.394531 307.285156 203.851562 309.425781 203.507812 C 311.554688 203.148438 313.390625 201.554688 315.332031 199.863281 C 317.53125 197.953125 319.804688 195.976562 322.773438 195.765625 C 325.785156 195.535156 327.695312 196.835938 329.089844 197.777344 C 330.367188 198.640625 330.859375 198.921875 331.886719 198.734375 C 332.714844 198.578125 333.410156 197.578125 334.449219 195.933594 C 335.839844 193.742188 337.570312 191.015625 341.117188 190.105469 C 344.890625 189.140625 349.984375 189.472656 352.832031 189.78125 C 353.667969 187.3125 354.164062 184.792969 354.164062 182.203125 C 354.164062 164.832031 291.347656 155.3125 251.75 153.386719 C 250.703125 153.332031 249.78125 152.664062 249.410156 151.679688 C 238.203125 121.800781 226.660156 103.570312 213.164062 94.484375 C 212.460938 94.960938 211.375 96.113281 210.636719 98.859375 C 209.929688 101.488281 210.296875 106.6875 210.683594 112.1875 C 211.121094 118.460938 211.617188 125.570312 210.695312 131.28125 C 209.621094 137.949219 206.914062 142.378906 204.832031 144.921875 C 203.257812 146.84375 201.03125 148.222656 198.550781 148.804688 L 100.574219 171.789062 C 95.121094 173.070312 89.335938 170.8125 86.1875 166.167969 L 80.25 157.40625 L 76.722656 164.082031 C 75.480469 166.433594 73.078125 167.757812 70.410156 167.585938 C 67.773438 167.398438 65.585938 165.738281 64.695312 163.253906 C 58.398438 145.652344 47.761719 130.878906 33.03125 119.25 C 34.503906 134.59375 37.410156 161.601562 39.414062 166.757812 C 41.921875 173.238281 48.273438 176.589844 48.328125 176.617188 C 49.335938 177.128906 49.902344 178.230469 49.738281 179.347656 C 49.574219 180.464844 48.71875 181.355469 47.605469 181.558594 C 45.761719 181.898438 40.445312 183.394531 38.078125 186.171875 C 36.273438 188.917969 34.027344 210.496094 32.738281 231.207031 C 49.507812 223.875 60.03125 213.296875 64.847656 198.945312 Z M 64.847656 198.945312 " fill-opacity="1" fill-rule="nonzero"/></g></svg>