<svg xmlns="http://www.w3.org/2000/svg" xmlns:xlink="http://www.w3.org/1999/xlink" width="500" zoomAndPan="magnify" viewBox="0 0 375 374.999991" height="500" preserveAspectRatio="xMidYMid meet" version="1.0"><defs><clipPath id="4d484b8165"><path d="M 187.5 0 C 83.945312 0 0 83.945312 0 187.5 C 0 291.054688 83.945312 375 187.5 375 C 291.054688 375 375 291.054688 375 187.5 C 375 83.945312 291.054688 0 187.5 0 Z M 187.5 0 " clip-rule="nonzero"/></clipPath><clipPath id="3791348c31"><path d="M 58.132812 115 L 181.621094 115 L 181.621094 310.765625 L 58.132812 310.765625 Z M 58.132812 115 " clip-rule="nonzero"/></clipPath><clipPath id="8671b9d3a6"><path d="M 183.238281 86.046875 L 316.855469 86.046875 L 316.855469 279.636719 L 183.238281 279.636719 Z M 183.238281 86.046875 " clip-rule="nonzero"/></clipPath></defs><g clip-path="url(#4d484b8165)"><rect x="-37.5" width="450" fill="#58a39d" y="-37.499999" height="449.999989" fill-opacity="1"/></g><g clip-path="url(#3791348c31)"><path fill="#ffffff" d="M 172.371094 190.925781 C 170.023438 186.378906 173.394531 181.757812 171.15625 176.867188 C 168.917969 171.980469 160.535156 169.6875 158.855469 165.199219 C 157.167969 160.714844 159 150.441406 151.804688 149.4375 C 144.605469 148.4375 140.144531 158.628906 135.257812 152.519531 C 130.371094 146.40625 129.21875 142.164062 123.328125 143.246094 C 117.441406 144.332031 115.5625 145.933594 111.0625 141.234375 C 106.558594 136.535156 100.777344 140.390625 99.128906 145.558594 C 97.480469 150.726562 98.007812 154.085938 92.476562 151.183594 C 86.945312 148.28125 83.46875 150.136719 80.738281 154.65625 C 78.007812 159.175781 79.132812 161.128906 75.835938 166.230469 C 75.835938 166.230469 70.4375 171.496094 66.476562 171.292969 C 62.515625 171.097656 62.113281 158.058594 69.871094 151.113281 C 77.628906 144.171875 79.867188 140.710938 81.457031 136.207031 C 83.042969 131.699219 86.585938 131.308594 97.863281 131.183594 C 109.140625 131.058594 105.910156 127.140625 112.855469 121.308594 C 118.675781 116.421875 123.191406 117.234375 126.523438 121.789062 C 129.855469 126.347656 137.46875 131.050781 146.882812 133.671875 C 156.296875 136.292969 157.003906 137.65625 160.390625 149.898438 C 163.777344 162.140625 170.824219 156.945312 175.820312 167.953125 C 180.816406 178.960938 175.996094 190.027344 175.996094 190.027344 C 175.996094 190.027344 174.71875 195.46875 172.371094 190.925781 Z M 163.15625 205.300781 C 156.210938 205.894531 150.316406 204.851562 144.992188 200.117188 C 139.667969 195.382812 131.796875 190.0625 122.035156 197.8125 C 112.273438 205.558594 112.460938 205.695312 102.382812 208.25 C 92.300781 210.808594 93.546875 216.675781 92.96875 221.347656 C 92.390625 226.023438 90.636719 238.90625 83.152344 231.890625 C 83.152344 231.890625 76.710938 227.328125 79.582031 219.511719 C 82.453125 211.695312 83.121094 208.644531 81.175781 201.414062 C 79.222656 194.1875 83.96875 187.878906 94.761719 185.703125 C 105.554688 183.523438 107.707031 178.4375 112.503906 172.449219 C 117.296875 166.460938 122.847656 167.394531 123.949219 171.3125 C 125.054688 175.234375 128.835938 182.667969 135.03125 180.386719 C 141.222656 178.109375 145.488281 177.117188 147.507812 182.695312 C 149.523438 188.273438 151.71875 189.730469 155.972656 189.722656 C 160.230469 189.710938 169.878906 192.785156 172.167969 203.234375 C 174.457031 213.683594 170.105469 204.703125 163.15625 205.300781 Z M 170.183594 226.140625 C 169.03125 237.617188 169.832031 237.496094 170.480469 241.648438 C 171.128906 245.804688 172.066406 252.863281 169.972656 255.15625 C 167.875 257.449219 166.945312 254.648438 167.117188 250.527344 C 167.292969 246.40625 169.070312 233.683594 161.929688 232.015625 C 154.796875 230.347656 157.160156 227.6875 154.410156 223.695312 C 151.65625 219.707031 145.328125 222.167969 142.964844 221.71875 C 140.605469 221.269531 136.582031 216.496094 132.296875 219.457031 C 128.011719 222.417969 125.695312 230.640625 119.714844 230.101562 C 113.738281 229.5625 107.085938 229.949219 106.546875 235.929688 C 106.007812 241.90625 111.78125 249.519531 107.511719 253.625 C 103.242188 257.730469 101.402344 265.875 108.566406 272.941406 C 115.730469 280.011719 125.140625 280.503906 131.183594 287.746094 C 131.183594 287.746094 129.265625 282.808594 126.707031 277.964844 C 124.152344 273.125 128.242188 271.011719 127.097656 265.789062 C 125.953125 260.5625 124.414062 254.910156 129.757812 252.4375 C 135.101562 249.964844 137.855469 253.957031 140.945312 255.925781 C 144.039062 257.902344 150.730469 253.582031 153.75 260.3125 C 156.765625 267.046875 161.371094 269.273438 157.953125 270.460938 C 154.539062 271.648438 153.796875 271.109375 149.140625 266.4375 C 144.476562 261.761719 132.835938 268.984375 135.726562 283.269531 C 138.613281 297.554688 155.402344 302.296875 162.609375 297.078125 C 169.8125 291.855469 165.132812 283.910156 161.082031 282.089844 C 157.03125 280.265625 150.304688 280.171875 147.867188 284.480469 C 145.429688 288.792969 149.164062 293.386719 152.242188 293.625 C 155.058594 293.835938 157.039062 292.875 157.75 291.125 C 158.757812 288.628906 157.257812 286.945312 156.148438 286.136719 C 156.148438 286.136719 158.144531 288.441406 155.023438 289.421875 C 151.902344 290.402344 150.714844 286.984375 151.105469 285.285156 C 151.496094 283.585938 154.648438 281.785156 158.121094 283.042969 C 161.59375 284.300781 164.546875 289.570312 161.34375 293.179688 C 158.140625 296.792969 153.296875 297.222656 148.472656 295.6875 C 143.648438 294.148438 137.8125 287.203125 138.558594 279.386719 C 139.300781 271.578125 145.65625 271.402344 147.863281 274.003906 C 150.074219 276.605469 151.082031 276.773438 155.691406 275.890625 C 160.304688 275.003906 165.132812 278.671875 165.816406 282.003906 C 165.816406 282.003906 168.144531 278.035156 163.84375 269.375 C 159.542969 260.714844 157.230469 265.824219 155.300781 256.632812 C 153.375 247.4375 148.195312 252.011719 145.476562 252.433594 C 142.757812 252.859375 140.597656 253.691406 136.417969 248.941406 C 132.234375 244.191406 125.125 250.050781 123.207031 253.464844 C 121.28125 256.875 120.78125 264.15625 120.765625 271.363281 C 120.746094 278.570312 116.933594 274.089844 113.4375 272.671875 C 109.941406 271.253906 102.5625 267.003906 107.773438 259.480469 C 112.980469 251.949219 113.359375 251.238281 111.898438 242.949219 C 110.441406 234.664062 111.125 232.753906 118.148438 232.640625 C 125.171875 232.527344 128.316406 231.707031 131.808594 225.753906 C 135.296875 219.808594 138.855469 225.800781 141.613281 226.679688 C 144.371094 227.554688 151.515625 223.003906 150.828125 228.023438 C 150.140625 233.042969 152.296875 235.324219 157.785156 236.921875 C 163.273438 238.519531 163.761719 240.570312 163.296875 247.03125 C 162.832031 253.488281 164.175781 259.992188 169.429688 274.726562 C 174.679688 289.460938 171.167969 297.378906 166.824219 301.003906 C 162.480469 304.628906 152.171875 308.859375 140.800781 302.125 C 129.433594 295.390625 121.628906 288.421875 112 283.378906 C 102.367188 278.332031 97.957031 275.257812 93.425781 268.269531 C 93.425781 268.269531 90.882812 264.574219 89.324219 255.648438 C 87.765625 246.726562 86.316406 247.933594 90.011719 240.152344 C 93.710938 232.367188 94.882812 229.402344 94.765625 222.378906 C 94.652344 215.355469 97.472656 212.457031 105.253906 210.914062 C 113.035156 209.371094 118.742188 205.039062 125.253906 200.582031 C 131.757812 196.125 136.699219 199.449219 140.660156 204.886719 C 144.625 210.324219 147.828125 214.082031 156.351562 213.078125 C 164.871094 212.070312 171.335938 214.664062 170.183594 226.140625 Z M 83.28125 243.167969 C 83.28125 243.167969 82.746094 246.035156 79.789062 243.875 C 76.832031 241.71875 69.9375 239.523438 68.09375 224.585938 C 66.25 209.644531 69.417969 212.09375 63.371094 199.613281 C 57.328125 187.132812 63.363281 181.769531 68.640625 175.707031 C 73.914062 169.640625 78.355469 169.765625 80.78125 161.199219 C 83.207031 152.632812 86.183594 152.820312 90.6875 154.410156 C 95.195312 155.996094 99.058594 157.683594 100.914062 150.683594 C 102.765625 143.679688 106.484375 141.296875 110.476562 143.785156 C 114.46875 146.269531 117.148438 146.671875 122.105469 145.894531 C 127.058594 145.121094 127.808594 149.917969 130.488281 153.425781 C 133.164062 156.9375 137.265625 159.078125 142.753906 155.4375 C 148.242188 151.796875 155.316406 152 155.488281 158.359375 C 155.667969 164.71875 157.277344 168.722656 162.746094 172.289062 C 168.214844 175.855469 168.410156 185.484375 163.378906 185.78125 C 158.351562 186.074219 155.757812 187.300781 151.398438 179.304688 C 147.035156 171.308594 141.527344 176.917969 137.457031 177.0625 C 133.386719 177.207031 131.675781 177.800781 126.652344 169.746094 C 121.625 161.6875 112.738281 167.664062 109.257812 172.628906 C 105.773438 177.59375 101.9375 178.191406 92.523438 180.8125 C 83.109375 183.429688 76.421875 189.878906 78.226562 198.273438 C 80.03125 206.671875 80.445312 210.371094 78.148438 216.625 C 75.851562 222.878906 73.808594 227.621094 83.132812 236.96875 C 83.132812 236.96875 85.238281 238.929688 83.28125 243.167969 Z M 175.105469 162.332031 C 163.347656 152.054688 165.433594 150.746094 163.65625 147.75 C 161.878906 144.753906 166.199219 132.613281 153.925781 131.585938 C 141.648438 130.558594 137.460938 128.921875 133.046875 123.71875 C 128.628906 118.511719 124.972656 111.882812 116.570312 116.796875 C 108.171875 121.710938 106.34375 128.875 99.550781 127.316406 C 92.757812 125.761719 79.523438 124.882812 77.433594 136.667969 C 75.347656 148.457031 65.378906 145.433594 60.316406 157.03125 C 55.253906 168.628906 61.257812 179.804688 61.257812 179.804688 C 51.601562 203.910156 67.609375 193.222656 65.605469 218.097656 C 63.601562 242.96875 73.082031 247.054688 79.164062 250.359375 C 85.25 253.664062 86.25 260.058594 86.25 260.058594 C 88 271.246094 97.957031 280.496094 111.675781 286.539062 C 125.390625 292.582031 129.179688 302.140625 142.894531 308.183594 C 156.609375 314.222656 170.914062 309.367188 174.5 296.691406 C 178.085938 284.015625 169.265625 267.382812 169.265625 267.382812 C 171.519531 265.066406 176.84375 259.320312 174.304688 247.273438 C 171.765625 235.226562 175.253906 232.390625 179.054688 219.023438 C 182.863281 205.65625 177.855469 200.871094 177.855469 200.871094 C 178.875 194.820312 186.863281 172.609375 175.105469 162.332031 " fill-opacity="1" fill-rule="nonzero"/></g><path fill="#ffffff" d="M 70.683594 171.671875 C 70.683594 171.671875 68.089844 163.457031 70.425781 156.761719 C 72.761719 150.0625 79.703125 149.085938 83.449219 141.625 C 87.195312 134.160156 92.007812 133.519531 96.289062 134.378906 C 100.570312 135.234375 104.976562 136.183594 110.195312 130.457031 C 115.410156 124.726562 120.660156 119.214844 127.910156 129.980469 C 127.910156 129.980469 121.472656 121.597656 115.625 128.1875 C 109.777344 134.777344 106.332031 137.171875 98.65625 136.953125 C 90.980469 136.734375 90.007812 138.195312 86.421875 142.46875 C 82.828125 146.742188 81.53125 147.492188 76.167969 151.605469 C 70.808594 155.71875 71.507812 163.6875 72.96875 170.222656 L 70.683594 171.671875 " fill-opacity="1" fill-rule="nonzero"/><path fill="#ffffff" d="M 71.304688 210.546875 C 71.304688 210.546875 71.152344 206.09375 67.132812 198.535156 C 63.113281 190.980469 63.574219 184.140625 68.320312 180.996094 C 73.070312 177.847656 79.222656 176.015625 83.5 168.46875 C 87.777344 160.925781 89.253906 160.582031 95.476562 160.59375 C 101.699219 160.601562 103.464844 157.925781 104.320312 153.644531 C 105.179688 149.359375 106.820312 145.175781 112.351562 150.53125 C 112.351562 150.53125 107.683594 147.222656 106.785156 150.53125 C 105.878906 153.835938 107.242188 159.738281 102.1875 161.617188 C 97.132812 163.5 88.550781 161.675781 86.40625 166.8125 C 84.261719 171.953125 80.980469 177.488281 74.335938 180.382812 C 67.691406 183.277344 65.136719 187.167969 66.9375 193.109375 C 68.742188 199.046875 71.871094 205.109375 71.304688 210.546875 " fill-opacity="1" fill-rule="nonzero"/><path fill="#ffffff" d="M 90.675781 232.515625 C 90.675781 232.515625 83.09375 230.097656 82.625 223.621094 C 82.15625 217.144531 87.480469 213.476562 85.882812 204.664062 C 84.289062 195.851562 84.925781 192.261719 92.925781 190.355469 C 100.921875 188.449219 106.222656 186.746094 109.199219 182.027344 C 112.167969 177.304688 117.761719 166.277344 123.074219 177.238281 C 123.074219 177.238281 119.742188 171.972656 116.664062 174.636719 C 113.589844 177.300781 110.988281 187.203125 103.507812 188.917969 C 96.027344 190.636719 86.777344 191.535156 87.382812 198.207031 C 87.992188 204.882812 89.980469 206.425781 86.863281 213.023438 C 83.75 219.625 82.488281 226.917969 91.726562 230.167969 L 90.675781 232.515625 " fill-opacity="1" fill-rule="nonzero"/><path fill="#ffffff" d="M 107.652344 277.5625 C 107.652344 277.5625 95.726562 273.203125 93.96875 259.179688 C 92.214844 245.15625 91.042969 243.265625 94.550781 238.457031 C 98.058594 233.652344 99.035156 231.535156 99.539062 222.179688 C 100.039062 212.820312 111.195312 214.351562 113.679688 214.179688 C 116.164062 214.011719 119.84375 213.109375 123.347656 208.304688 C 126.855469 203.496094 134.035156 199.863281 140.179688 211.238281 C 140.179688 211.238281 136.359375 204.957031 130.730469 205.949219 C 125.097656 206.9375 124.84375 212.980469 118.394531 215.734375 C 111.949219 218.492188 100.988281 215.402344 101.09375 224.445312 C 101.199219 233.488281 98.808594 234.953125 96.507812 239.789062 C 94.207031 244.625 95.519531 248.132812 95.621094 253.683594 C 95.726562 259.234375 96.640625 270.660156 107.652344 277.5625 " fill-opacity="1" fill-rule="nonzero"/><path fill="#ffffff" d="M 121.679688 270.238281 C 121.679688 270.238281 110.886719 269.632812 111.199219 263.253906 C 111.511719 256.875 117.488281 255.285156 116.539062 247.136719 C 115.59375 238.988281 115.175781 236.324219 119.875 236.355469 C 124.574219 236.382812 128.199219 237.234375 131.902344 232.292969 C 135.605469 227.347656 137.847656 226.339844 142.1875 230.355469 C 146.527344 234.371094 148.199219 237.382812 151.820312 238.890625 C 151.820312 238.890625 149.613281 239.453125 143.589844 233.738281 C 137.566406 228.023438 136.007812 231.320312 134.199219 233.023438 C 132.390625 234.722656 131.320312 239.039062 123.742188 238.042969 C 116.160156 237.042969 119.441406 244.0625 119.253906 247.039062 C 119.0625 250.015625 118.601562 251.945312 115.25 257.050781 C 111.902344 262.164062 113.570312 267.25 122.097656 267.335938 L 121.679688 270.238281 " fill-opacity="1" fill-rule="nonzero"/><path fill="#ffffff" d="M 132.433594 281.765625 C 132.433594 281.765625 128.289062 277.609375 129.964844 271.5625 C 131.640625 265.515625 128.582031 266.210938 130.035156 259.433594 C 131.484375 252.660156 134.984375 255.496094 138.097656 257.957031 C 141.210938 260.417969 145.761719 260.90625 148.8125 260.863281 C 148.8125 260.863281 144.609375 262.617188 140.441406 261.082031 C 136.273438 259.550781 132.542969 255.769531 132.019531 260.105469 C 131.5 264.445312 133.4375 265.316406 132.042969 269.683594 C 130.652344 274.046875 129.566406 275.992188 132.433594 281.765625 " fill-opacity="1" fill-rule="nonzero"/><g clip-path="url(#8671b9d3a6)"><path fill="#ffffff" d="M 292.820312 213.550781 C 285.058594 218.359375 277.175781 225.394531 272.3125 230.457031 C 267.441406 235.519531 262.816406 239.414062 250.484375 240.324219 C 238.152344 241.234375 232.089844 250.386719 227.113281 256.8125 C 222.132812 263.238281 216.796875 268.894531 205.445312 267.582031 C 194.097656 266.265625 190.070312 256.40625 192.261719 248.363281 C 194.453125 240.316406 204.652344 239.65625 207.519531 243.378906 C 210.394531 247.09375 209.023438 252.015625 206.039062 254.691406 C 203.054688 257.367188 197.34375 254.792969 199.347656 249.3125 C 199.347656 249.3125 200.304688 246.390625 203.664062 246.914062 C 203.664062 246.914062 199.785156 244.71875 196.59375 248.394531 C 193.402344 252.070312 196.222656 257.683594 200.339844 259.582031 C 204.457031 261.476562 211.765625 259.699219 213.554688 251.917969 C 215.34375 244.132812 210.019531 238.863281 202.859375 238.246094 C 195.703125 237.628906 186.75 245.65625 190.203125 256.609375 C 193.652344 267.5625 203.890625 270.898438 210.992188 270.117188 C 218.09375 269.335938 224.8125 266.222656 232.710938 256.585938 C 240.609375 246.949219 249.207031 246.476562 258.183594 244.179688 C 267.164062 241.878906 271.210938 234.914062 273.097656 236.691406 C 274.984375 238.472656 269.65625 247.429688 258.003906 250.90625 C 246.351562 254.386719 240.996094 257.613281 233.117188 264.648438 C 225.238281 271.691406 218.683594 274.839844 207.722656 274.992188 C 196.761719 275.144531 186.292969 267.074219 185.910156 251.378906 C 185.523438 235.6875 196.257812 225.773438 198.664062 220.027344 C 201.070312 214.28125 200.535156 210.179688 206.316406 203.226562 C 212.09375 196.273438 206.625 192.535156 206.46875 182.4375 C 206.308594 172.34375 208.578125 171.429688 210.0625 169.304688 C 210.0625 169.304688 217.558594 159.933594 211.207031 148.730469 C 204.863281 137.519531 212.496094 132.511719 216.980469 129.28125 C 221.46875 126.050781 233.066406 121.171875 234.890625 113.222656 C 236.710938 105.273438 239.609375 96.332031 247.957031 97.894531 C 256.308594 99.453125 258.71875 97.871094 262.921875 96.835938 C 267.128906 95.800781 274.058594 95.851562 279.199219 98.652344 C 284.34375 101.457031 291.042969 100.9375 293.816406 104.289062 C 296.589844 107.640625 298.984375 112.824219 300.414062 122.660156 C 301.839844 132.5 308.222656 134.34375 310.234375 137.191406 C 312.246094 140.039062 316.28125 143.996094 308.21875 157.761719 C 300.15625 171.53125 301.027344 179.863281 301.527344 189.164062 C 302.027344 198.460938 300.582031 208.746094 292.820312 213.550781 Z M 196.550781 190.097656 C 194.441406 177.6875 190.523438 171.496094 198.769531 164.359375 C 198.769531 164.359375 190.511719 149.808594 196.167969 137.625 C 196.167969 137.625 197.890625 134.339844 199.160156 138.246094 C 200.433594 142.152344 202.074219 145.097656 205.738281 150.019531 C 209.398438 154.945312 207.941406 162.796875 203.859375 169.925781 C 199.777344 177.058594 204.714844 185.027344 205.667969 191.292969 C 206.621094 197.5625 206.050781 198.660156 203.058594 202.203125 C 200.066406 205.746094 199.75 208.109375 198.660156 211.699219 C 198.660156 211.699219 198.578125 213.765625 196.660156 216.316406 C 194.742188 218.867188 193.65625 216.558594 193.960938 211.765625 C 194.261719 206.96875 198.660156 202.503906 196.550781 190.097656 Z M 204.402344 113.832031 C 210.910156 107.550781 218.453125 114.667969 226.480469 101.066406 C 234.507812 87.46875 237.367188 88.753906 244.210938 90.871094 C 251.058594 92.984375 251.800781 91.925781 258.804688 90.777344 C 265.808594 89.628906 270.195312 91.058594 269.21875 92.417969 C 268.242188 93.777344 265.714844 93.425781 262.644531 94.003906 C 259.574219 94.578125 260.492188 96.851562 251.539062 95.6875 C 242.585938 94.523438 235.964844 93.84375 232.636719 102.34375 C 229.308594 110.847656 231.003906 116.058594 218.386719 124.195312 C 218.386719 124.195312 213.265625 127.125 210.636719 131.433594 C 208.007812 135.746094 206.339844 140.429688 204.472656 136.050781 C 202.605469 131.675781 197.894531 120.117188 204.402344 113.832031 Z M 312.234375 170.453125 C 310.734375 178.238281 304.28125 183.140625 304.28125 183.140625 C 303.824219 169.746094 307.765625 165.246094 308.128906 164.046875 C 308.492188 162.851562 313.734375 162.667969 312.234375 170.453125 Z M 313.683594 157.335938 C 311.78125 153.125 313.390625 152.070312 313.390625 152.070312 C 323.882812 138.289062 307.320312 134.503906 305.941406 122.765625 C 304.5625 111.03125 302.144531 104.285156 293.84375 100.828125 C 285.539062 97.367188 279.996094 98.992188 275.90625 93.632812 C 271.8125 88.273438 266.90625 85.171875 260.089844 87.921875 C 253.277344 90.667969 247.882812 89.898438 244.03125 88.402344 C 240.179688 86.910156 232.082031 82.453125 225.949219 91.9375 C 219.816406 101.417969 217.863281 104.136719 211.519531 106.289062 C 205.171875 108.441406 199.078125 112.726562 198.433594 119.1875 C 197.785156 125.644531 195.777344 126.960938 195.777344 126.960938 C 184.457031 144.734375 194.847656 163.199219 194.847656 163.199219 C 184.476562 178.046875 197.113281 190.730469 190.828125 202.613281 C 184.546875 214.492188 190.113281 227.792969 190.113281 227.792969 C 190.113281 227.792969 180.03125 244.609375 184.574219 261.167969 C 189.113281 277.71875 208.304688 282.226562 221.464844 277.324219 C 234.628906 272.421875 235.4375 261.835938 250.539062 255.949219 C 265.636719 250.0625 268.828125 251.417969 275.75 243.140625 C 282.671875 234.863281 275.324219 228.480469 286.640625 220.765625 C 297.953125 213.054688 300.710938 209.808594 302.628906 202.230469 C 304.550781 194.648438 304.476562 186.652344 304.476562 186.652344 C 321.796875 168.390625 315.585938 161.546875 313.683594 157.335938 " fill-opacity="1" fill-rule="nonzero"/></g><path fill="#ffffff" d="M 228.101562 247.921875 C 228.101562 247.921875 237.175781 236.796875 247.828125 235.625 C 258.480469 234.453125 266.207031 229.8125 273.15625 222.667969 C 280.105469 215.523438 291.824219 211.710938 295.320312 204.890625 C 298.820312 198.070312 294.8125 178.503906 299.648438 166.5 C 304.484375 154.492188 312.136719 146.453125 305.386719 140.105469 C 298.640625 133.761719 296.183594 128.046875 295.894531 119.402344 C 295.609375 110.753906 294.070312 109.394531 281.054688 105.652344 C 281.054688 105.652344 290.621094 109.71875 292.148438 112.378906 C 293.679688 115.035156 293.222656 115.984375 293.921875 122.632812 C 294.625 129.285156 297.527344 135.351562 302.425781 141.835938 C 307.324219 148.316406 305.414062 150 302.011719 157.621094 C 298.609375 165.242188 293.710938 172.550781 294.757812 186.296875 C 295.804688 200.046875 292.128906 203.96875 287.25 208.679688 C 282.367188 213.390625 277.050781 216.449219 271.660156 222.355469 C 266.269531 228.265625 263.613281 229.792969 253.253906 232.066406 C 242.890625 234.339844 237.28125 236.296875 228.101562 247.921875 " fill-opacity="1" fill-rule="nonzero"/><path fill="#ffffff" d="M 237.140625 192.625 C 237.140625 192.625 238.824219 185.339844 236.3125 178.226562 C 233.800781 171.109375 235.09375 171.554688 239.460938 162.226562 C 243.828125 152.898438 245.859375 148.113281 253.59375 142.605469 C 261.332031 137.101562 269.453125 142.253906 270.621094 146.664062 C 271.789062 151.070312 269.445312 157.347656 272.289062 164.53125 C 275.136719 171.714844 271.140625 175.914062 265.507812 185.503906 C 259.875 195.089844 260.960938 201.558594 250.089844 202.945312 C 239.21875 204.332031 226.660156 199.640625 218.335938 213.007812 C 210.011719 226.371094 225.460938 236.347656 235.53125 230.453125 C 245.601562 224.566406 241.96875 220.34375 259.738281 209.109375 C 277.511719 197.882812 284.117188 182.773438 281.054688 173.289062 C 277.992188 163.804688 278.703125 157.882812 280.976562 147.769531 C 283.246094 137.660156 276.425781 132.078125 270.816406 134.039062 C 265.203125 135.996094 257.90625 131.878906 253.992188 134.015625 C 250.078125 136.152344 244.269531 142.40625 239.550781 145.070312 C 234.835938 147.734375 237.5625 152.984375 232.082031 160.171875 C 226.597656 167.363281 226.371094 170.957031 227.464844 176.5625 C 228.554688 182.167969 231.570312 193.546875 228.402344 202.953125 L 222.519531 206.242188 C 222.519531 206.242188 226.535156 198.578125 223.351562 182.996094 C 220.167969 167.414062 227.609375 165.835938 230.429688 158.097656 C 233.25 150.355469 231.746094 146.746094 239.554688 140.039062 C 247.367188 133.335938 248.925781 124.984375 256.730469 128.339844 C 264.535156 131.695312 270.433594 126.671875 276.179688 129.082031 C 281.925781 131.488281 287.855469 136.363281 282.820312 150.582031 C 277.785156 164.804688 281.757812 164.066406 284.21875 173.078125 C 286.6875 182.09375 287.046875 192.054688 275.171875 203.292969 C 263.296875 214.535156 256.875 213.722656 247.410156 223.378906 C 237.945312 233.039062 236.59375 235.359375 228.433594 235.402344 C 220.273438 235.441406 212.464844 227.921875 213.460938 218.933594 C 214.460938 209.945312 222.785156 201.613281 237.679688 200.890625 C 252.574219 200.164062 256.460938 197.328125 259.777344 185.527344 C 263.09375 173.726562 273.710938 175.234375 268.765625 163.972656 C 263.816406 152.710938 272.902344 154.074219 264.890625 146.6875 C 256.882812 139.300781 250.015625 154.007812 245 160.601562 C 239.992188 167.191406 237.136719 170.070312 238.402344 174.84375 C 239.667969 179.617188 240.585938 186.050781 237.140625 192.625 " fill-opacity="1" fill-rule="nonzero"/><path fill="#ffffff" d="M 225.671875 211.929688 C 225.671875 211.929688 219.773438 216.949219 222.398438 222.699219 C 225.019531 228.449219 234.585938 227.484375 241.480469 218.507812 C 248.378906 209.527344 250.136719 210.242188 256.730469 206.058594 C 263.324219 201.875 275.707031 194.039062 277.710938 179.363281 C 277.710938 179.363281 275.296875 191.003906 263.273438 199.609375 C 251.253906 208.21875 246.25 208.914062 241.671875 215.074219 C 237.097656 221.238281 231.835938 225.699219 226.230469 222.625 C 220.621094 219.550781 224.496094 213.417969 225.671875 211.929688 " fill-opacity="1" fill-rule="nonzero"/></svg>