<svg xmlns="http://www.w3.org/2000/svg" xmlns:xlink="http://www.w3.org/1999/xlink" width="500" zoomAndPan="magnify" viewBox="0 0 375 374.999991" height="500" preserveAspectRatio="xMidYMid meet" version="1.0"><defs><clipPath id="41872ac4e9"><path d="M 187.5 0 C 83.945312 0 0 83.945312 0 187.5 C 0 291.054688 83.945312 375 187.5 375 C 291.054688 375 375 291.054688 375 187.5 C 375 83.945312 291.054688 0 187.5 0 Z M 187.5 0 " clip-rule="nonzero"/></clipPath><clipPath id="853fb9a136"><path d="M 56.527344 52.300781 L 318.277344 52.300781 L 318.277344 317 L 56.527344 317 Z M 56.527344 52.300781 " clip-rule="nonzero"/></clipPath></defs><g clip-path="url(#41872ac4e9)"><rect x="-37.5" width="450" fill="#fec743" y="-37.499999" height="449.999989" fill-opacity="1"/></g><path fill="#fffff9" d="M 203.984375 154.527344 C 203.507812 154.527344 203.039062 154.398438 202.625 154.152344 C 202.214844 153.910156 201.878906 153.558594 201.648438 153.136719 C 201.570312 152.996094 201.507812 152.847656 201.457031 152.695312 C 201.363281 152.398438 201.316406 152.082031 201.328125 151.765625 C 201.34375 151.289062 201.492188 150.824219 201.75 150.421875 C 216.578125 127.476562 199 115.207031 198.242188 114.695312 C 197.667969 114.296875 197.273438 113.691406 197.144531 113.003906 C 197.015625 112.316406 197.160156 111.609375 197.546875 111.027344 C 197.933594 110.449219 198.539062 110.046875 199.21875 109.902344 C 199.902344 109.761719 200.617188 109.894531 201.203125 110.273438 C 205.171875 113.167969 208.355469 117.007812 210.453125 121.449219 C 216.148438 133.550781 211.292969 145.441406 206.222656 153.292969 C 205.980469 153.667969 205.652344 153.976562 205.261719 154.195312 C 205.089844 154.292969 204.90625 154.367188 204.714844 154.421875 C 204.476562 154.488281 204.230469 154.523438 203.984375 154.527344 Z M 203.984375 154.527344 " fill-opacity="1" fill-rule="nonzero"/><path fill="#fffff9" d="M 187.859375 223.585938 C 188.347656 224.007812 188.964844 224.238281 189.609375 224.238281 C 189.855469 224.238281 190.101562 224.203125 190.339844 224.136719 C 211.230469 218.171875 206.609375 199.285156 206.558594 199.09375 C 206.375 198.425781 205.929688 197.855469 205.324219 197.507812 C 204.722656 197.160156 204.007812 197.066406 203.332031 197.238281 C 202.660156 197.414062 202.082031 197.84375 201.71875 198.4375 C 201.363281 199.035156 201.25 199.746094 201.40625 200.425781 C 201.558594 200.992188 204.851562 214.460938 188.878906 219.015625 C 188.261719 219.191406 187.726562 219.585938 187.378906 220.125 C 187.023438 220.660156 186.882812 221.308594 186.96875 221.945312 C 187.0625 222.582031 187.378906 223.164062 187.859375 223.585938 Z M 187.859375 223.585938 " fill-opacity="1" fill-rule="nonzero"/><g clip-path="url(#853fb9a136)"><path fill="#fffff9" d="M 190.144531 93.746094 L 190.144531 55.015625 C 190.144531 54.308594 189.863281 53.632812 189.367188 53.132812 C 188.867188 52.632812 188.1875 52.355469 187.480469 52.355469 C 187.207031 52.355469 186.933594 52.398438 186.675781 52.480469 C 186.523438 52.527344 186.378906 52.585938 186.242188 52.660156 C 186.007812 52.785156 185.789062 52.941406 185.597656 53.132812 C 185.402344 53.328125 185.242188 53.546875 185.117188 53.785156 C 184.921875 54.164062 184.820312 54.582031 184.820312 55.015625 L 184.820312 93.726562 C 164.210938 94.933594 149.519531 111.074219 149.519531 132.984375 C 149.566406 144.628906 153.367188 155.945312 160.347656 165.265625 L 160.8125 165.855469 C 154.453125 161.425781 145.863281 156.28125 136.367188 152.882812 C 132.199219 146.203125 116.839844 119.40625 113.84375 81.015625 C 113.695312 79.027344 112.816406 77.164062 111.367188 75.792969 C 110.582031 75.046875 109.65625 74.480469 108.660156 74.109375 C 107.820312 73.792969 106.925781 73.625 106.015625 73.609375 C 105.792969 73.609375 105.578125 73.640625 105.367188 73.640625 C 104.019531 73.769531 102.742188 74.238281 101.644531 74.984375 C 101.027344 75.402344 100.464844 75.90625 99.984375 76.488281 C 98.636719 78.113281 97.988281 80.203125 98.179688 82.304688 C 99.519531 99.496094 103.058594 114.488281 107.136719 126.789062 L 107.140625 126.847656 C 107.144531 127.3125 107.269531 127.765625 107.507812 128.164062 L 107.574219 128.269531 L 107.691406 128.4375 C 115.1875 150.339844 124.246094 163.292969 125.011719 164.394531 L 125.035156 164.429688 C 125.578125 165.179688 126.242188 165.828125 126.996094 166.347656 C 127.621094 166.777344 128.316406 167.121094 129.058594 167.355469 C 136.195312 169.601562 142.996094 173.292969 148.507812 176.847656 C 148.785156 177.132812 149.117188 177.355469 149.496094 177.496094 C 151.410156 178.753906 153.148438 179.984375 154.675781 181.113281 L 152.265625 181.464844 C 150.53125 181.726562 148.628906 182.035156 146.628906 182.398438 C 144.964844 182.703125 143.234375 183.039062 141.46875 183.417969 C 139.09375 183.925781 136.660156 184.5 134.265625 185.152344 C 134.1875 185.160156 134.113281 185.175781 134.035156 185.195312 L 133.761719 185.285156 L 133.675781 185.316406 C 125.296875 179.320312 101.164062 163.199219 78.710938 159.070312 C 78.496094 159.03125 78.277344 159 78.0625 158.980469 C 77.816406 158.957031 77.566406 158.941406 77.316406 158.941406 C 76.851562 158.949219 76.386719 158.992188 75.933594 159.074219 C 75.648438 159.128906 75.371094 159.199219 75.097656 159.28125 C 74.046875 159.597656 73.066406 160.132812 72.222656 160.863281 C 70.804688 162.085938 69.867188 163.773438 69.582031 165.621094 C 69.210938 167.695312 69.667969 169.832031 70.855469 171.574219 C 72.042969 173.316406 73.867188 174.519531 75.933594 174.933594 C 99.417969 179.253906 127.207031 200.386719 127.476562 200.59375 C 128.832031 201.632812 130.5 202.195312 132.210938 202.191406 C 133.003906 202.195312 133.796875 202.078125 134.550781 201.839844 C 138.691406 200.488281 143.265625 199.421875 147.507812 198.601562 C 147.097656 198.832031 146.679688 199.070312 146.257812 199.320312 C 145.429688 199.8125 144.613281 200.328125 143.816406 200.871094 C 142.695312 201.625 141.601562 202.429688 140.535156 203.28125 C 140.339844 203.371094 140.164062 203.480469 139.996094 203.613281 C 139.902344 203.6875 139.8125 203.765625 139.730469 203.855469 C 139.648438 203.9375 139.574219 204.03125 139.503906 204.128906 C 134.050781 208.707031 129.292969 214.5625 125.308594 221.625 C 115.578125 219.1875 93.53125 215.359375 63.222656 220.222656 C 61.667969 220.511719 60.230469 221.246094 59.085938 222.335938 C 57.941406 223.429688 57.144531 224.828125 56.785156 226.367188 C 56.535156 227.46875 56.511719 228.601562 56.71875 229.703125 C 56.804688 230.140625 56.925781 230.578125 57.078125 231 C 57.625 232.484375 58.59375 233.773438 59.859375 234.714844 C 60.296875 235.039062 60.769531 235.316406 61.257812 235.539062 C 61.691406 235.734375 62.144531 235.890625 62.609375 236.003906 C 63.605469 236.246094 64.640625 236.289062 65.648438 236.125 C 73.4375 234.875 80.617188 234.257812 87.109375 234.066406 L 87.339844 234.058594 C 111.769531 233.363281 126.347656 238.65625 126.519531 238.714844 C 127.390625 239.0625 128.320312 239.246094 129.261719 239.25 C 129.734375 239.246094 130.207031 239.203125 130.667969 239.117188 C 131.277344 239.003906 131.878906 238.816406 132.453125 238.5625 C 132.820312 238.398438 133.179688 238.203125 133.519531 237.980469 C 134.792969 237.160156 135.800781 235.992188 136.417969 234.613281 C 137.804688 231.585938 144.539062 217.96875 155.625 212.296875 C 153.152344 216.441406 145.222656 231.347656 144.375 253.234375 C 139.460938 257.570312 129.015625 267.28125 119.257812 279.761719 L 118.804688 280.339844 C 112.929688 287.921875 107.339844 296.496094 103.410156 305.492188 C 102.566406 307.417969 102.5 309.601562 103.222656 311.578125 C 103.949219 313.554688 105.414062 315.175781 107.308594 316.097656 C 108.332031 316.578125 109.445312 316.828125 110.578125 316.832031 C 110.769531 316.828125 110.960938 316.820312 111.148438 316.804688 C 111.875 316.742188 112.589844 316.574219 113.273438 316.3125 C 113.992188 316.042969 114.667969 315.667969 115.277344 315.203125 C 115.507812 315.027344 115.726562 314.839844 115.9375 314.640625 C 116.539062 314.070312 117.042969 313.410156 117.433594 312.6875 C 117.542969 312.480469 117.644531 312.269531 117.734375 312.058594 C 128.824219 286.679688 156.765625 263.574219 157.042969 263.34375 C 157.96875 262.582031 158.71875 261.621094 159.230469 260.53125 C 159.519531 259.914062 159.734375 259.261719 159.859375 258.59375 C 159.953125 258.085938 160 257.570312 159.996094 257.054688 C 159.988281 252.367188 160.394531 247.699219 161.207031 243.101562 C 161.777344 246.125 163.023438 249.105469 165.214844 251.832031 C 167.054688 254.117188 164.8125 259.496094 163.460938 261.710938 C 162.332031 263.484375 161.933594 265.625 162.339844 267.683594 C 162.746094 269.742188 163.925781 271.570312 165.640625 272.785156 C 166.925781 273.683594 168.457031 274.160156 170.023438 274.164062 C 171.332031 274.175781 172.625 273.84375 173.777344 273.210938 C 174.929688 272.578125 175.898438 271.660156 176.601562 270.550781 C 180.421875 264.574219 184.902344 252.136719 178.027344 242.511719 C 178.558594 242.699219 179.121094 242.828125 179.683594 242.894531 C 179.949219 242.929688 180.21875 242.953125 180.484375 242.96875 L 180.996094 242.984375 C 182.804688 243.015625 184.570312 242.410156 185.976562 241.277344 L 186.265625 241.023438 L 186.628906 240.675781 L 186.90625 240.371094 C 187.042969 240.21875 187.171875 240.058594 187.296875 239.898438 C 187.78125 240.546875 188.355469 241.152344 189.035156 241.65625 C 190.28125 242.570312 191.789062 243.0625 193.335938 243.046875 C 193.933594 243.046875 194.527344 242.984375 195.109375 242.863281 C 195.828125 242.730469 196.515625 242.511719 197.167969 242.195312 C 189.976562 251.867188 194.492188 264.5 198.382812 270.542969 C 198.585938 270.871094 198.816406 271.179688 199.070312 271.46875 C 199.242188 271.664062 199.417969 271.855469 199.609375 272.035156 C 200.089844 272.488281 200.625 272.878906 201.207031 273.199219 C 201.597656 273.414062 202.003906 273.59375 202.417969 273.738281 C 202.960938 273.925781 203.523438 274.050781 204.097656 274.117188 C 204.386719 274.148438 204.671875 274.160156 204.964844 274.160156 L 205.492188 274.144531 L 205.804688 274.117188 L 206.128906 274.074219 L 206.472656 274.015625 C 206.796875 273.949219 207.117188 273.863281 207.429688 273.757812 C 207.660156 273.683594 207.886719 273.59375 208.109375 273.492188 C 208.542969 273.296875 208.960938 273.0625 209.359375 272.785156 C 211.070312 271.574219 212.25 269.757812 212.660156 267.703125 C 212.863281 266.6875 212.867188 265.648438 212.6875 264.644531 C 212.503906 263.625 212.125 262.640625 211.5625 261.746094 C 210.644531 260.238281 209.335938 257.328125 209.121094 254.882812 C 209.019531 253.679688 209.179688 252.585938 209.789062 251.832031 C 210.039062 251.519531 210.273438 251.203125 210.503906 250.886719 C 210.84375 250.402344 211.160156 249.914062 211.449219 249.417969 C 211.738281 248.917969 212 248.414062 212.238281 247.902344 L 212.375 247.667969 L 212.480469 247.425781 L 212.550781 247.207031 C 212.757812 246.710938 212.945312 246.210938 213.109375 245.707031 C 213.382812 244.871094 213.597656 244.027344 213.761719 243.179688 C 214.566406 247.757812 214.972656 252.410156 214.964844 257.078125 C 214.953125 258.277344 215.21875 259.464844 215.726562 260.554688 C 215.90625 260.933594 216.113281 261.296875 216.347656 261.644531 C 216.523438 261.898438 216.714844 262.148438 216.917969 262.382812 C 217.222656 262.738281 217.554688 263.0625 217.917969 263.359375 C 218.109375 263.519531 231.070312 274.257812 242.84375 289.082031 L 243.175781 289.496094 C 248.601562 296.378906 253.742188 304.121094 257.222656 312.078125 C 257.644531 313.050781 258.253906 313.929688 259.019531 314.660156 C 259.476562 315.097656 259.984375 315.476562 260.523438 315.789062 C 260.894531 316.003906 261.28125 316.183594 261.6875 316.335938 C 262.292969 316.566406 262.929688 316.714844 263.570312 316.785156 L 264.03125 316.820312 L 264.402344 316.832031 C 265.523438 316.832031 266.636719 316.589844 267.65625 316.117188 C 269.546875 315.195312 271.011719 313.574219 271.734375 311.597656 C 272.464844 309.621094 272.390625 307.441406 271.542969 305.511719 C 267.679688 296.671875 262.21875 288.234375 256.457031 280.746094 C 256.347656 280.425781 256.179688 280.132812 255.957031 279.878906 C 255.796875 279.683594 255.605469 279.515625 255.398438 279.378906 C 245.738281 267.089844 235.460938 257.539062 230.582031 253.253906 C 229.738281 231.308594 221.757812 216.371094 219.3125 212.277344 C 221.691406 213.488281 223.871094 215.066406 225.84375 216.828125 L 225.953125 216.953125 C 226.027344 217.039062 226.109375 217.121094 226.199219 217.199219 C 226.28125 217.273438 226.367188 217.339844 226.464844 217.402344 C 233.328125 223.820312 237.523438 232.328125 238.59375 234.628906 C 239.214844 236 240.21875 237.164062 241.484375 237.980469 L 241.890625 238.230469 C 242.089844 238.34375 242.292969 238.449219 242.503906 238.542969 C 242.929688 238.738281 243.375 238.894531 243.832031 239.011719 C 244.449219 239.167969 245.082031 239.25 245.722656 239.253906 C 246.652344 239.253906 247.578125 239.082031 248.445312 238.742188 C 248.683594 238.65625 272.074219 230.164062 309.339844 236.140625 C 310.347656 236.300781 311.382812 236.261719 312.378906 236.019531 L 312.914062 235.867188 L 313.433594 235.679688 C 313.75 235.550781 314.058594 235.402344 314.351562 235.234375 C 314.621094 235.082031 314.878906 234.914062 315.125 234.730469 C 315.75 234.269531 316.304688 233.71875 316.769531 233.105469 C 317.25 232.472656 317.636719 231.769531 317.910156 231.015625 L 318.03125 230.660156 L 318.140625 230.28125 C 318.292969 229.707031 318.378906 229.121094 318.40625 228.53125 C 318.433594 227.8125 318.363281 227.09375 318.199219 226.386719 C 317.84375 224.847656 317.042969 223.445312 315.898438 222.355469 C 314.757812 221.261719 313.320312 220.527344 311.765625 220.242188 C 281.453125 215.375 259.410156 219.203125 249.675781 221.640625 C 248.226562 219.070312 246.710938 216.734375 245.160156 214.621094 C 244.195312 213.304688 243.21875 212.070312 242.234375 210.917969 C 241.574219 210.140625 240.910156 209.402344 240.246094 208.695312 C 238.523438 206.867188 236.796875 205.265625 235.097656 203.863281 C 235.011719 203.773438 234.925781 203.691406 234.824219 203.613281 L 234.566406 203.429688 C 233.433594 202.519531 232.320312 201.699219 231.230469 200.957031 C 229.890625 200.046875 228.59375 199.261719 227.359375 198.582031 C 228.402344 198.78125 229.46875 198.996094 230.542969 199.226562 C 231.371094 199.402344 232.203125 199.589844 233.035156 199.785156 C 234.902344 200.226562 236.773438 200.714844 238.589844 201.253906 C 239.203125 201.433594 239.8125 201.625 240.410156 201.816406 C 241.171875 202.066406 241.96875 202.191406 242.773438 202.191406 C 243.882812 202.191406 244.972656 201.953125 245.976562 201.503906 C 246.195312 201.402344 246.414062 201.292969 246.625 201.171875 L 246.953125 200.972656 C 247.144531 200.851562 247.328125 200.722656 247.507812 200.582031 C 247.78125 200.371094 275.53125 179.246094 299.054688 174.917969 C 301.121094 174.503906 302.945312 173.296875 304.132812 171.558594 C 304.796875 170.582031 305.234375 169.480469 305.421875 168.332031 C 305.574219 167.4375 305.566406 166.515625 305.40625 165.605469 C 305.109375 163.761719 304.175781 162.078125 302.757812 160.859375 C 301.34375 159.640625 299.539062 158.964844 297.667969 158.949219 C 297.199219 158.949219 296.734375 158.992188 296.277344 159.074219 C 283.597656 161.410156 270.378906 167.5625 259.769531 173.558594 L 259.386719 173.777344 C 251.4375 178.292969 244.988281 182.691406 241.386719 185.269531 C 241.214844 185.191406 241.042969 185.148438 240.859375 185.109375 C 240.726562 185.082031 240.59375 185.066406 240.457031 185.058594 L 240.339844 185.054688 C 233.105469 183.109375 225.585938 181.851562 220.339844 181.121094 C 226.398438 176.65625 235.8125 170.585938 245.902344 167.402344 C 246.25 167.292969 246.589844 167.15625 246.921875 166.996094 C 247.253906 166.839844 247.570312 166.660156 247.867188 166.464844 C 248.171875 166.261719 248.457031 166.039062 248.730469 165.796875 C 249.175781 165.40625 249.578125 164.960938 249.925781 164.472656 C 250.859375 163.167969 272.902344 131.914062 276.78125 82.351562 C 276.871094 81.320312 276.761719 80.277344 276.449219 79.292969 C 276.136719 78.304688 275.632812 77.386719 274.964844 76.59375 C 274.296875 75.804688 273.476562 75.152344 272.558594 74.675781 C 272.1875 74.484375 271.800781 74.324219 271.40625 74.191406 C 270.941406 74.039062 270.457031 73.929688 269.972656 73.867188 L 269.597656 73.828125 C 268.566406 73.742188 267.527344 73.863281 266.539062 74.179688 C 265.554688 74.5 264.640625 75.007812 263.851562 75.679688 C 263.0625 76.355469 262.417969 77.175781 261.949219 78.101562 C 261.476562 79.023438 261.195312 80.03125 261.117188 81.0625 C 259.875 96.871094 256.535156 110.726562 252.742188 122.019531 C 247.34375 138.097656 241.035156 148.980469 238.574219 152.902344 C 234.144531 154.484375 229.914062 156.453125 226.011719 158.546875 C 222.925781 160.207031 220.046875 161.945312 217.441406 163.644531 L 216.992188 163.9375 C 215.699219 164.789062 214.480469 165.625 213.335938 166.433594 C 213.648438 166.050781 213.957031 165.660156 214.261719 165.265625 C 221.242188 155.945312 225.042969 144.628906 225.085938 132.984375 C 225.085938 111.191406 210.578125 95.105469 190.144531 93.746094 Z M 186.460938 98.980469 C 186.78125 99.113281 187.132812 99.183594 187.480469 99.183594 C 187.832031 99.183594 188.171875 99.117188 188.488281 98.988281 C 196.921875 99.265625 204.609375 102.484375 210.238281 108.117188 C 216.457031 114.355469 219.742188 122.941406 219.742188 132.980469 C 219.699219 143.457031 216.285156 153.644531 210.003906 162.035156 C 203.707031 170.292969 195.632812 174.84375 187.296875 174.84375 C 178.957031 174.84375 170.890625 170.292969 164.582031 162.035156 C 158.300781 153.644531 154.886719 143.457031 154.84375 132.980469 C 154.84375 122.941406 158.132812 114.347656 164.351562 108.117188 C 170.074219 102.40625 177.882812 99.175781 186.460938 98.980469 Z M 207.9375 244.351562 C 208.765625 242.035156 209.03125 239.429688 208.730469 236.566406 C 208.390625 233.664062 207.578125 230.84375 206.347656 228.207031 C 205.824219 228.675781 205.285156 229.128906 204.730469 229.558594 C 204.261719 229.921875 203.78125 230.273438 203.292969 230.609375 C 202.902344 230.875 202.503906 231.132812 202.105469 231.382812 C 203.28125 234.21875 204.703125 239.046875 202.9375 243.03125 C 203.535156 243.582031 204.253906 243.984375 205.039062 244.230469 C 205.554688 244.394531 206.082031 244.480469 206.613281 244.488281 L 206.828125 244.488281 L 207.175781 244.46875 C 207.433594 244.445312 207.6875 244.410156 207.9375 244.351562 Z M 200.105469 247.574219 C 198.808594 250.269531 198.390625 253.414062 198.878906 256.953125 C 199.117188 258.539062 199.488281 260.101562 199.992188 261.617188 C 200.367188 262.730469 200.8125 263.824219 201.324219 264.886719 C 201.78125 265.839844 202.292969 266.765625 202.859375 267.664062 C 202.941406 267.792969 203.035156 267.914062 203.136719 268.027344 L 203.273438 268.167969 C 203.363281 268.25 203.457031 268.328125 203.558594 268.394531 C 203.835938 268.589844 204.152344 268.726562 204.484375 268.792969 C 204.597656 268.816406 204.714844 268.832031 204.832031 268.835938 C 205.03125 268.847656 205.238281 268.832031 205.4375 268.789062 C 205.75 268.722656 206.050781 268.59375 206.3125 268.410156 C 206.527344 268.253906 206.71875 268.070312 206.882812 267.863281 C 207.160156 267.507812 207.351562 267.085938 207.433594 266.636719 C 207.507812 266.246094 207.5 265.847656 207.414062 265.46875 C 207.378906 265.332031 207.339844 265.199219 207.285156 265.070312 C 207.21875 264.898438 207.136719 264.730469 207.035156 264.574219 L 206.78125 264.148438 C 205.71875 262.289062 201.90625 254.945312 204.851562 249.636719 C 203.273438 249.382812 201.632812 248.769531 200.105469 247.574219 Z M 128.082031 159.488281 C 125.34375 155.265625 118.683594 144.117188 112.902344 127.410156 C 113.695312 126.820312 115.195312 126.023438 117.75 125.675781 C 122.527344 139.394531 127.910156 149.253906 131.050781 154.429688 C 129.550781 155.9375 128.644531 157.785156 128.082031 159.488281 Z M 114.609375 120.875 C 115.0625 120.757812 115.542969 120.648438 116.050781 120.558594 C 112.589844 109.53125 109.671875 96.375 108.503906 81.441406 C 108.492188 81.15625 108.433594 80.878906 108.335938 80.617188 C 108.191406 80.25 107.960938 79.910156 107.660156 79.636719 C 107.34375 79.347656 106.972656 79.144531 106.5625 79.035156 L 106.378906 78.996094 L 106.101562 78.957031 L 105.789062 78.949219 C 105.089844 79.03125 104.449219 79.386719 104.007812 79.941406 C 103.574219 80.492188 103.371094 81.199219 103.453125 81.898438 C 104.652344 97.296875 107.644531 110.851562 111.1875 122.203125 C 112.117188 121.699219 113.238281 121.234375 114.609375 120.875 Z M 150.003906 168.484375 C 150.453125 167.695312 150.984375 166.910156 151.617188 166.191406 C 146.726562 163.210938 141.050781 160.25 134.96875 158.039062 C 134.082031 158.863281 133.515625 159.972656 133.148438 161.042969 C 132.914062 161.730469 132.761719 162.398438 132.667969 162.972656 C 135.699219 164.046875 138.65625 165.339844 141.46875 166.742188 L 142.785156 167.414062 L 143.75 167.921875 C 145.527344 168.871094 147.242188 169.859375 148.875 170.851562 C 149.171875 170.097656 149.542969 169.285156 150.003906 168.484375 Z M 156.210938 169.140625 C 154.886719 170.285156 153.972656 172.265625 153.46875 173.800781 C 154.722656 174.644531 155.894531 175.464844 156.976562 176.25 C 159.367188 177.988281 161.316406 179.53125 162.703125 180.667969 L 162.953125 180.832031 L 163.066406 180.917969 L 163.109375 180.949219 C 164.101562 179.457031 165.214844 178.085938 166.441406 176.839844 C 164.398438 175.117188 160.832031 172.253906 156.210938 169.140625 Z M 114.511719 179.273438 C 122.054688 183.65625 128.0625 187.824219 131.191406 190.082031 C 130.785156 192.824219 131.226562 195.148438 131.777344 196.832031 L 131.554688 196.777344 L 131.429688 196.738281 L 131.175781 196.632812 C 131.011719 196.558594 130.863281 196.464844 130.726562 196.355469 C 126.980469 193.578125 123.140625 190.933594 119.207031 188.433594 C 117.195312 187.152344 115.160156 185.90625 113.101562 184.699219 L 112.183594 184.160156 C 112.347656 183.042969 112.882812 181.261719 114.511719 179.273438 Z M 109.804688 176.628906 C 100.144531 171.382812 88.695312 166.316406 77.75 164.300781 C 77.414062 164.253906 77.074219 164.269531 76.738281 164.355469 C 76.410156 164.4375 76.105469 164.585938 75.832031 164.792969 C 75.65625 164.921875 75.496094 165.078125 75.359375 165.25 C 75.285156 165.34375 75.21875 165.441406 75.160156 165.546875 C 75.066406 165.703125 74.992188 165.871094 74.933594 166.046875 C 74.886719 166.191406 74.851562 166.34375 74.832031 166.5 C 74.6875 167.195312 74.824219 167.921875 75.210938 168.519531 C 75.597656 169.117188 76.203125 169.539062 76.898438 169.691406 C 85.796875 171.332031 96.027344 175.277344 107.375 181.449219 C 107.933594 179.714844 108.738281 178.09375 109.804688 176.628906 Z M 136.609375 190.03125 C 136.046875 192.476562 136.492188 194.421875 136.929688 195.566406 C 145.03125 193.367188 153.75 192.078125 158.582031 191.46875 C 159.082031 189.457031 159.722656 187.546875 160.503906 185.75 C 159.023438 185.914062 156.589844 186.203125 153.59375 186.644531 C 151.21875 186.996094 148.496094 187.445312 145.617188 188 L 143.996094 188.320312 L 143.117188 188.503906 C 142.027344 188.730469 140.921875 188.976562 139.808594 189.234375 C 138.746094 189.484375 137.675781 189.75 136.609375 190.03125 Z M 100.703125 228.921875 C 104.628906 229.144531 108.082031 229.5 111.003906 229.894531 C 116.238281 230.597656 120.390625 231.488281 123.328125 232.234375 C 123.21875 230.75 123.242188 228.890625 123.570312 226.667969 C 117.074219 225.078125 105.273438 222.953125 89.292969 223.21875 C 89.171875 223.898438 89.097656 224.578125 89.0625 225.269531 L 89.046875 225.710938 L 89.046875 226.320312 L 89.0625 226.757812 C 89.082031 227.125 89.109375 227.496094 89.152344 227.863281 C 89.179688 228.140625 89.21875 228.417969 89.265625 228.691406 C 93.417969 228.625 97.246094 228.722656 100.703125 228.921875 Z M 83.878906 223.394531 C 77.792969 223.691406 71.175781 224.339844 64.085938 225.476562 C 63.980469 225.5 63.875 225.527344 63.769531 225.5625 L 63.554688 225.640625 C 63.085938 225.84375 62.675781 226.175781 62.386719 226.605469 C 61.988281 227.191406 61.832031 227.910156 61.957031 228.605469 C 62.007812 228.964844 62.128906 229.308594 62.3125 229.621094 C 62.492188 229.933594 62.734375 230.207031 63.023438 230.425781 C 63.28125 230.617188 63.570312 230.753906 63.882812 230.828125 C 64.191406 230.90625 64.515625 230.917969 64.828125 230.867188 L 66.800781 230.5625 L 68.203125 230.359375 C 70.226562 230.074219 72.207031 229.828125 74.140625 229.625 C 77.535156 229.261719 80.785156 229.019531 83.886719 228.867188 C 83.652344 227.050781 83.648438 225.214844 83.878906 223.394531 Z M 133.636719 218.445312 C 132.101562 220.613281 130.601562 223.027344 129.164062 225.714844 C 128.234375 229.996094 128.679688 232.789062 128.949219 233.882812 C 129.195312 233.917969 129.441406 233.917969 129.679688 233.878906 L 129.917969 233.828125 L 130.113281 233.773438 L 130.28125 233.707031 C 130.871094 233.453125 131.335938 232.984375 131.582031 232.394531 C 135.152344 224.613281 139.289062 219.019531 143.300781 215.007812 C 142.226562 213.5625 141.285156 212.007812 140.535156 210.375 C 139.066406 211.789062 137.585938 213.386719 136.113281 215.1875 C 135.28125 216.207031 134.453125 217.292969 133.636719 218.445312 Z M 155.597656 206.5 C 156.300781 206.207031 156.945312 205.964844 157.519531 205.769531 C 157.464844 205.226562 157.425781 204.683594 157.394531 204.132812 C 157.359375 203.464844 157.34375 202.792969 157.34375 202.117188 L 157.355469 200.96875 L 157.378906 200.15625 C 154.691406 200.933594 150.019531 202.726562 144.78125 206.722656 C 145.414062 208.402344 146.257812 209.992188 147.292969 211.457031 C 149.222656 209.941406 151.066406 208.773438 152.730469 207.878906 C 153.761719 207.320312 154.726562 206.867188 155.597656 206.5 Z M 122.023438 284.851562 C 116.753906 291.800781 111.808594 299.542969 108.277344 307.613281 C 107.976562 308.269531 107.945312 309.019531 108.179688 309.699219 C 108.421875 310.382812 108.917969 310.945312 109.5625 311.269531 L 109.707031 311.332031 L 109.929688 311.40625 C 110.105469 311.457031 110.289062 311.488281 110.476562 311.496094 C 110.792969 311.507812 111.109375 311.457031 111.410156 311.34375 C 111.734375 311.21875 112.03125 311.027344 112.28125 310.785156 C 112.53125 310.542969 112.730469 310.25 112.871094 309.929688 C 114.585938 306.007812 116.675781 302.148438 118.992188 298.414062 C 119.757812 297.179688 120.546875 295.957031 121.359375 294.753906 C 122.980469 292.339844 124.683594 289.992188 126.421875 287.730469 C 125.90625 287.214844 125.167969 286.585938 124.152344 285.957031 L 123.511719 285.578125 L 122.867188 285.242188 C 122.601562 285.109375 122.320312 284.980469 122.023438 284.851562 Z M 129.75 283.546875 C 140.503906 270.46875 151.597656 260.972656 153.421875 259.441406 C 151.605469 258.320312 149.488281 257.714844 147.324219 257.71875 C 146.300781 258.628906 145.074219 259.738281 143.695312 261.03125 C 141.105469 263.449219 137.976562 266.503906 134.613281 270.0625 C 131.648438 273.203125 128.503906 276.734375 125.390625 280.570312 C 127.285156 281.527344 128.714844 282.589844 129.75 283.546875 Z M 257.214844 125.683594 C 252.417969 139.46875 247.007812 149.363281 243.867188 154.515625 C 245.34375 156.046875 246.238281 157.902344 246.785156 159.597656 C 249.46875 155.480469 256.183594 144.304688 262.015625 127.476562 C 261.859375 127.355469 261.6875 127.21875 261.472656 127.089844 C 261.257812 126.953125 261.007812 126.816406 260.722656 126.679688 C 260.398438 126.527344 260.027344 126.375 259.605469 126.234375 C 258.941406 126.011719 258.148438 125.816406 257.214844 125.683594 Z M 263.738281 122.246094 C 262.519531 121.574219 260.929688 120.957031 258.902344 120.574219 C 262.359375 109.550781 265.28125 96.390625 266.449219 81.460938 C 266.453125 81.308594 266.472656 81.160156 266.507812 81.011719 C 266.566406 80.757812 266.660156 80.511719 266.789062 80.285156 C 266.90625 80.082031 267.050781 79.890625 267.222656 79.722656 C 267.433594 79.511719 267.679688 79.339844 267.945312 79.214844 C 268.101562 79.140625 268.261719 79.082031 268.429688 79.039062 C 268.601562 78.996094 268.78125 78.96875 268.964844 78.960938 L 269.167969 78.960938 C 269.863281 79.042969 270.5 79.398438 270.9375 79.945312 C 271.375 80.492188 271.574219 81.191406 271.496094 81.886719 C 270.292969 97.3125 267.289062 110.882812 263.738281 122.246094 Z M 208.605469 176.78125 C 210.65625 175.058594 214.179688 172.242188 218.71875 169.179688 C 220.035156 170.34375 220.90625 172.320312 221.398438 173.839844 C 217.195312 176.675781 213.890625 179.292969 211.921875 180.921875 C 210.933594 179.421875 209.828125 178.035156 208.605469 176.78125 Z M 223.28125 166.25 C 224.542969 167.699219 225.410156 169.398438 225.996094 170.882812 C 227.398438 170.027344 228.867188 169.171875 230.390625 168.34375 C 231.335938 167.828125 232.300781 167.320312 233.28125 166.828125 C 236.113281 165.40625 239.089844 164.09375 242.148438 163.007812 C 241.910156 161.5625 241.332031 159.457031 239.902344 158.089844 C 233.835938 160.308594 228.164062 163.269531 223.28125 166.25 Z M 243.679688 190.167969 C 246.765625 187.9375 252.796875 183.75 260.382812 179.339844 C 260.769531 179.816406 261.09375 180.28125 261.367188 180.730469 C 261.789062 181.433594 262.082031 182.09375 262.28125 182.683594 C 262.492188 183.296875 262.605469 183.835938 262.664062 184.265625 C 251.976562 190.492188 244.402344 196.265625 244.253906 196.378906 C 243.945312 196.621094 243.589844 196.785156 243.203125 196.851562 L 243.09375 196.871094 C 243.652344 195.199219 244.070312 192.894531 243.679688 190.167969 Z M 265.082031 176.695312 C 265.609375 177.433594 266.078125 178.210938 266.480469 179.023438 C 266.886719 179.832031 267.226562 180.671875 267.5 181.539062 C 276.832031 176.464844 287.800781 171.589844 298.085938 169.699219 C 298.433594 169.621094 298.757812 169.476562 299.046875 169.277344 C 299.332031 169.078125 299.582031 168.824219 299.773438 168.527344 C 300.160156 167.929688 300.292969 167.203125 300.148438 166.503906 C 300.070312 165.898438 299.773438 165.339844 299.316406 164.929688 C 299.113281 164.746094 298.878906 164.597656 298.628906 164.488281 C 298.328125 164.355469 297.996094 164.28125 297.664062 164.269531 C 297.519531 164.269531 297.375 164.28125 297.234375 164.308594 C 286.253906 166.328125 274.761719 171.425781 265.082031 176.695312 Z M 238.242188 190.003906 C 228.523438 187.453125 218.382812 186.167969 214.523438 185.746094 C 215.296875 187.546875 215.925781 189.46875 216.414062 191.496094 C 219.535156 191.886719 224.261719 192.5625 229.394531 193.582031 C 230.550781 193.808594 231.726562 194.058594 232.90625 194.320312 L 234.9375 194.792969 C 235.910156 195.027344 236.882812 195.273438 237.851562 195.535156 L 237.90625 195.550781 C 238.351562 194.390625 238.808594 192.449219 238.242188 190.003906 Z M 243.433594 232.410156 C 239.828125 224.554688 235.648438 218.929688 231.605469 214.910156 C 231.890625 214.519531 232.167969 214.121094 232.433594 213.71875 C 232.796875 213.160156 233.144531 212.589844 233.46875 212.003906 C 233.785156 211.433594 234.074219 210.851562 234.347656 210.257812 C 236.632812 212.445312 238.957031 215.074219 241.21875 218.234375 L 241.558594 218.722656 L 242.15625 219.59375 C 242.539062 220.152344 242.917969 220.730469 243.292969 221.320312 C 244.046875 222.519531 244.789062 223.78125 245.519531 225.113281 L 245.5625 225.324219 C 245.917969 226.863281 246.097656 228.214844 246.167969 229.375 C 246.203125 229.984375 246.214844 230.539062 246.199219 231.039062 C 246.171875 232.429688 245.980469 233.398438 245.84375 233.921875 C 245.460938 233.945312 245.078125 233.875 244.722656 233.722656 C 244.460938 233.605469 244.21875 233.449219 244.015625 233.253906 C 243.765625 233.019531 243.566406 232.734375 243.433594 232.410156 Z M 251.46875 232.316406 C 257.65625 230.734375 269.460938 228.464844 285.613281 228.707031 C 285.914062 226.894531 285.914062 225.042969 285.601562 223.234375 C 269.5 222.976562 257.664062 225.144531 251.230469 226.738281 C 251.371094 227.703125 251.457031 228.601562 251.503906 229.429688 C 251.527344 229.878906 251.535156 230.308594 251.53125 230.714844 C 251.53125 231.292969 251.507812 231.824219 251.46875 232.316406 Z M 310.1875 230.890625 C 303.316406 229.785156 296.894531 229.160156 290.980469 228.875 C 291.222656 227.058594 291.242188 225.222656 291.019531 223.40625 C 292.769531 223.492188 294.570312 223.605469 296.414062 223.75 L 298.324219 223.914062 C 302.332031 224.273438 306.539062 224.792969 310.925781 225.492188 C 311.398438 225.589844 311.839844 225.808594 312.199219 226.128906 L 312.398438 226.324219 C 312.480469 226.417969 312.558594 226.519531 312.632812 226.625 C 313.027344 227.207031 313.179688 227.925781 313.054688 228.621094 C 313.042969 228.71875 313.027344 228.8125 313 228.90625 C 312.972656 229.027344 312.933594 229.148438 312.890625 229.265625 C 312.839844 229.394531 312.777344 229.519531 312.707031 229.636719 C 312.523438 229.949219 312.277344 230.222656 311.992188 230.441406 C 311.472656 230.820312 310.824219 230.984375 310.1875 230.890625 Z M 227.585938 211.367188 C 228.613281 209.898438 229.449219 208.300781 230.074219 206.617188 C 228.695312 205.578125 227.363281 204.6875 226.09375 203.929688 C 224.710938 203.105469 223.410156 202.4375 222.222656 201.890625 C 220.359375 201.042969 218.769531 200.5 217.578125 200.160156 L 217.601562 200.863281 C 217.613281 201.277344 217.617188 201.695312 217.617188 202.117188 C 217.617188 203.351562 217.558594 204.570312 217.441406 205.769531 C 219.855469 206.582031 223.511719 208.203125 227.585938 211.367188 Z M 262.089844 309.949219 C 258.660156 302.113281 253.730469 294.503906 248.46875 287.667969 L 248.804688 287.351562 C 249.664062 286.570312 250.988281 285.613281 252.894531 284.804688 C 258.179688 291.773438 263.140625 299.542969 266.679688 307.636719 C 266.980469 308.292969 267.015625 309.039062 266.773438 309.722656 C 266.535156 310.402344 266.039062 310.964844 265.394531 311.289062 L 265.222656 311.367188 C 265.117188 311.40625 265.011719 311.4375 264.910156 311.460938 C 264.769531 311.492188 264.625 311.511719 264.480469 311.519531 C 264.160156 311.53125 263.84375 311.480469 263.550781 311.367188 C 263.226562 311.238281 262.925781 311.046875 262.675781 310.804688 C 262.425781 310.5625 262.226562 310.273438 262.089844 309.949219 Z M 245.144531 283.496094 C 246.183594 282.539062 247.617188 281.476562 249.523438 280.523438 C 240.996094 270.039062 232.234375 261.808594 227.609375 257.714844 C 225.433594 257.695312 223.316406 258.300781 221.484375 259.421875 C 223.140625 260.8125 234.308594 270.335938 245.144531 283.496094 Z M 178.253906 235.386719 C 178.222656 235.230469 178.191406 235.074219 178.171875 234.910156 C 178.125 234.585938 178.105469 234.253906 178.097656 233.925781 C 178.8125 234.1875 179.535156 234.417969 180.273438 234.621094 C 181.429688 234.9375 182.605469 235.175781 183.808594 235.339844 L 183.707031 235.597656 C 183.5625 235.925781 183.386719 236.238281 183.1875 236.515625 C 183.015625 236.761719 182.8125 236.980469 182.59375 237.160156 C 182.285156 237.390625 181.929688 237.554688 181.550781 237.636719 C 181.347656 237.679688 181.136719 237.699219 180.929688 237.695312 C 180.75 237.691406 180.578125 237.671875 180.402344 237.632812 C 180.085938 237.617188 179.78125 237.53125 179.503906 237.378906 C 179.230469 237.226562 178.988281 237.015625 178.804688 236.757812 C 178.65625 236.542969 178.535156 236.292969 178.4375 236.023438 C 178.363281 235.820312 178.304688 235.605469 178.253906 235.386719 Z M 196.550781 234.042969 C 194.710938 234.6875 192.800781 235.140625 190.828125 235.382812 C 191.152344 236.183594 191.601562 236.9375 192.203125 237.371094 C 192.390625 237.5 192.59375 237.597656 192.808594 237.664062 L 193.082031 237.722656 C 193.242188 237.75 193.40625 237.753906 193.566406 237.742188 C 193.71875 237.730469 193.875 237.699219 194.019531 237.652344 C 194.410156 237.605469 194.785156 237.472656 195.117188 237.261719 C 195.449219 237.054688 195.734375 236.773438 195.945312 236.445312 C 196.101562 236.195312 196.214844 235.917969 196.308594 235.621094 C 196.460938 235.121094 196.527344 234.574219 196.550781 234.042969 Z M 211.25 210.207031 L 211.378906 209.710938 C 211.773438 208.125 212.042969 206.480469 212.179688 204.792969 C 212.253906 203.910156 212.292969 203.019531 212.292969 202.117188 C 212.292969 190.484375 207.953125 181.402344 200.355469 177.0625 C 196.199219 179.101562 191.792969 180.164062 187.292969 180.164062 C 182.898438 180.164062 178.59375 179.144531 174.527344 177.199219 C 166.972656 181.664062 162.664062 190.699219 162.664062 202.117188 C 162.664062 204.730469 162.992188 207.28125 163.582031 209.683594 C 163.648438 209.859375 163.695312 210.046875 163.71875 210.230469 C 166.796875 221.808594 176.285156 230.265625 187.480469 230.265625 C 198.6875 230.265625 208.179688 221.800781 211.25 210.207031 Z M 216.394531 231.601562 C 218.671875 238.871094 219.960938 246.410156 220.222656 254.023438 L 220.75 253.792969 L 221.410156 253.53125 C 222.632812 253.0625 223.917969 252.738281 225.222656 252.5625 C 224.773438 243.261719 223.007812 235.371094 221.011719 229.203125 C 219.210938 230.417969 217.652344 231.164062 216.394531 231.601562 Z M 219.144531 224.023438 C 218.742188 223.023438 218.347656 222.09375 217.964844 221.238281 C 217.320312 219.800781 216.714844 218.566406 216.179688 217.546875 L 215.585938 216.445312 L 215.09375 215.5625 C 214.304688 217.546875 213.351562 219.429688 212.25 221.1875 C 212.511719 221.722656 212.765625 222.246094 213.015625 222.785156 C 213.597656 224.042969 214.144531 225.320312 214.652344 226.613281 C 215.65625 226.265625 217.183594 225.535156 219.144531 224.023438 Z M 172.875 231.386719 C 172.0625 230.882812 171.269531 230.339844 170.503906 229.761719 C 169.859375 229.269531 169.234375 228.753906 168.625 228.210938 L 168.398438 228.714844 L 168.074219 229.480469 L 167.75 230.324219 L 167.582031 230.792969 C 167.414062 231.269531 167.261719 231.75 167.125 232.238281 L 166.957031 232.839844 L 166.800781 233.492188 C 166.5625 234.503906 166.382812 235.53125 166.265625 236.566406 C 166.171875 237.425781 166.132812 238.265625 166.148438 239.078125 C 166.171875 240.949219 166.46875 242.691406 167.035156 244.300781 C 167.589844 244.4375 168.34375 244.546875 169.183594 244.429688 C 170.089844 244.304688 171.09375 243.914062 172.042969 243.035156 C 171.5625 241.957031 171.289062 240.746094 171.222656 239.433594 C 171.1875 238.789062 171.207031 238.121094 171.273438 237.425781 C 171.363281 236.464844 171.550781 235.457031 171.832031 234.410156 C 172.007812 233.757812 172.210938 233.117188 172.441406 232.480469 C 172.574219 232.117188 172.722656 231.746094 172.875 231.386719 Z M 167.976562 264.546875 C 168.21875 264.164062 173.464844 255.609375 170.148438 249.640625 C 171.714844 249.394531 173.359375 248.792969 174.886719 247.613281 C 175.425781 248.738281 175.8125 249.941406 176.042969 251.21875 L 176.140625 251.851562 L 176.203125 252.382812 C 176.355469 253.820312 176.316406 255.34375 176.097656 256.953125 L 175.949219 257.863281 C 175.859375 258.328125 175.765625 258.792969 175.65625 259.25 C 175.347656 260.542969 174.949219 261.816406 174.460938 263.050781 C 173.828125 264.652344 173.042969 266.199219 172.117188 267.664062 C 171.9375 267.949219 171.703125 268.199219 171.429688 268.390625 C 171.15625 268.585938 170.847656 268.722656 170.519531 268.792969 C 170.203125 268.855469 169.878906 268.855469 169.5625 268.789062 C 169.25 268.722656 168.949219 268.59375 168.683594 268.410156 C 168.09375 267.980469 167.691406 267.339844 167.558594 266.621094 C 167.429688 265.902344 167.578125 265.15625 167.976562 264.546875 Z M 159.871094 215.542969 C 158.9375 217.148438 157.398438 220.03125 155.796875 224.046875 C 157.132812 225.070312 158.3125 225.777344 159.300781 226.273438 C 159.640625 226.449219 159.960938 226.59375 160.253906 226.71875 C 160.984375 224.828125 161.804688 222.972656 162.703125 221.152344 C 161.605469 219.398438 160.652344 217.519531 159.871094 215.542969 Z M 149.902344 249.792969 L 150.035156 248.257812 C 150.195312 246.558594 150.398438 244.914062 150.636719 243.324219 C 151.4375 237.972656 152.632812 233.253906 153.921875 229.257812 C 154.207031 229.449219 154.484375 229.632812 154.757812 229.808594 C 155.105469 230.027344 155.441406 230.230469 155.769531 230.421875 L 156.40625 230.777344 L 157.136719 231.152344 C 157.621094 231.394531 158.078125 231.597656 158.503906 231.769531 C 156.25 239.015625 154.976562 246.53125 154.730469 254.117188 C 153.152344 253.351562 151.46875 252.847656 149.726562 252.601562 C 149.773438 251.648438 149.828125 250.710938 149.902344 249.792969 Z M 149.902344 249.792969 " fill-opacity="1" fill-rule="evenodd"/></g></svg>