<svg xmlns="http://www.w3.org/2000/svg" xmlns:xlink="http://www.w3.org/1999/xlink" width="500" zoomAndPan="magnify" viewBox="0 0 375 374.999991" height="500" preserveAspectRatio="xMidYMid meet" version="1.0"><defs><clipPath id="b5b3f06355"><path d="M 187.5 0 C 83.945312 0 0 83.945312 0 187.5 C 0 291.054688 83.945312 375 187.5 375 C 291.054688 375 375 291.054688 375 187.5 C 375 83.945312 291.054688 0 187.5 0 Z M 187.5 0 " clip-rule="nonzero"/></clipPath><clipPath id="0de31d3697"><path d="M 0 0 L 375 0 L 375 375 L 0 375 Z M 0 0 " clip-rule="nonzero"/></clipPath><clipPath id="6b66c8491b"><path d="M 187.5 0 C 83.945312 0 0 83.945312 0 187.5 C 0 291.054688 83.945312 375 187.5 375 C 291.054688 375 375 291.054688 375 187.5 C 375 83.945312 291.054688 0 187.5 0 Z M 187.5 0 " clip-rule="nonzero"/></clipPath><clipPath id="b80c771281"><rect x="0" width="375" y="0" height="375"/></clipPath><clipPath id="272b61d90b"><path d="M 65.917969 69.695312 L 326.917969 69.695312 L 326.917969 308.195312 L 65.917969 308.195312 Z M 65.917969 69.695312 " clip-rule="nonzero"/></clipPath></defs><g clip-path="url(#b5b3f06355)"><g transform="matrix(1, 0, 0, 1, 0, 0)"><g clip-path="url(#b80c771281)"><g clip-path="url(#0de31d3697)"><g clip-path="url(#6b66c8491b)"><rect x="-82.5" width="540" fill="#58a39d" height="539.999987" y="-82.499998" fill-opacity="1"/></g></g></g></g></g><g clip-path="url(#272b61d90b)"><path fill="#ffffff" d="M 107.652344 69.753906 C 115.734375 72.105469 120.277344 82.1875 122.660156 89.5625 C 123.292969 91.527344 124.351562 96.160156 125.367188 97.75 C 125.640625 98.179688 126.128906 98.546875 126.511719 98.878906 C 125.34375 94.542969 125.140625 89 124.628906 84.484375 C 124.085938 79.660156 123.101562 75.335938 123.265625 70.417969 C 131.207031 79.554688 131.378906 94.867188 135.097656 106.089844 L 136.910156 106.238281 C 136.589844 101.804688 136.859375 97.417969 138.253906 93.167969 C 139.746094 88.628906 142.515625 84.820312 146.832031 82.648438 C 143.519531 92.101562 142.664062 100.171875 142.96875 110.164062 C 144.886719 112.285156 146.53125 114.316406 148.007812 116.769531 C 147.550781 112.695312 147.5625 108.832031 148.277344 104.78125 C 149.726562 96.53125 152.511719 90.929688 159.449219 86.074219 C 158.25 88.242188 157.097656 90.445312 156.230469 92.773438 C 152.917969 101.671875 152.835938 111.957031 155.324219 121.054688 C 156.832031 122.085938 158.472656 122.90625 159.949219 123.992188 C 158.167969 116.777344 157.496094 107.527344 160.078125 100.472656 C 161.328125 97.054688 163.167969 94.714844 166.472656 93.160156 C 165.707031 95.703125 165 98.226562 164.589844 100.855469 C 163.046875 110.699219 164.457031 121.789062 168.640625 130.835938 L 172.136719 131.160156 C 169.441406 124.128906 169.34375 115.644531 171.664062 108.542969 C 173.417969 103.175781 176.644531 97.800781 181.8125 95.160156 C 180.867188 97.46875 179.660156 99.652344 178.785156 102 C 174.800781 112.691406 175.945312 124.542969 180.644531 134.820312 C 180.613281 128.171875 182.136719 122.140625 185.757812 116.496094 C 189.308594 110.964844 193.554688 108.171875 199.925781 106.785156 C 199.285156 107.324219 198.652344 107.875 198.027344 108.433594 C 191.417969 114.40625 187.070312 123.042969 186.648438 131.96875 C 186.496094 135.191406 186.417969 138.878906 188.710938 141.410156 L 190.484375 141.9375 C 190.539062 141.207031 190.613281 140.480469 190.707031 139.757812 C 190.800781 139.03125 190.914062 138.3125 191.046875 137.59375 C 191.183594 136.875 191.335938 136.164062 191.511719 135.453125 C 191.683594 134.742188 191.878906 134.039062 192.09375 133.339844 C 192.304688 132.644531 192.539062 131.949219 192.792969 131.265625 C 193.042969 130.582031 193.316406 129.902344 193.605469 129.230469 C 193.894531 128.5625 194.203125 127.898438 194.53125 127.246094 C 194.859375 126.59375 195.203125 125.953125 195.566406 125.316406 C 199.707031 118.054688 203.882812 114.585938 211.890625 112.390625 C 209.917969 114.851562 207.671875 117.070312 205.75 119.578125 C 199.96875 127.121094 197.203125 136.136719 196.914062 145.558594 C 197.941406 145.96875 198.929688 146.410156 199.914062 146.921875 C 200.128906 146.058594 200.367188 145.203125 200.628906 144.355469 C 200.890625 143.507812 201.179688 142.667969 201.488281 141.835938 C 201.800781 141.003906 202.136719 140.179688 202.492188 139.367188 C 202.851562 138.554688 203.230469 137.753906 203.632812 136.960938 C 204.039062 136.167969 204.460938 135.390625 204.910156 134.625 C 205.359375 133.855469 205.828125 133.101562 206.316406 132.363281 C 206.808594 131.621094 207.320312 130.894531 207.851562 130.183594 C 208.382812 129.472656 208.933594 128.777344 209.507812 128.097656 C 213.671875 123.113281 219.125 118.429688 225.488281 116.714844 C 227.214844 116.25 228.941406 116.070312 230.714844 115.90625 C 228.066406 117.992188 225.292969 119.917969 222.703125 122.078125 C 213.957031 129.378906 207.792969 139.363281 206.75 150.867188 C 207.335938 151.242188 207.878906 151.703125 208.429688 152.125 C 212.691406 143.09375 221.523438 135.285156 230.683594 131.539062 C 235.878906 129.417969 241.042969 128.847656 246.300781 131.070312 C 242.675781 132.074219 239.050781 133.21875 235.660156 134.875 C 235.359375 135.015625 235.0625 135.164062 234.765625 135.3125 C 234.472656 135.464844 234.179688 135.617188 233.886719 135.773438 C 233.59375 135.933594 233.304688 136.09375 233.015625 136.257812 C 232.730469 136.421875 232.445312 136.589844 232.160156 136.761719 C 231.878906 136.933594 231.597656 137.109375 231.316406 137.289062 C 231.039062 137.46875 230.761719 137.648438 230.488281 137.835938 C 230.210938 138.023438 229.941406 138.210938 229.671875 138.402344 C 229.402344 138.597656 229.132812 138.792969 228.871094 138.992188 C 228.605469 139.191406 228.34375 139.394531 228.082031 139.601562 C 227.824219 139.804688 227.566406 140.015625 227.3125 140.226562 C 227.058594 140.441406 226.804688 140.65625 226.558594 140.875 C 226.308594 141.09375 226.0625 141.316406 225.816406 141.542969 C 225.574219 141.765625 225.335938 141.996094 225.097656 142.226562 C 224.859375 142.457031 224.625 142.691406 224.394531 142.929688 C 224.160156 143.164062 223.933594 143.40625 223.707031 143.648438 C 223.480469 143.890625 223.257812 144.136719 223.039062 144.382812 C 222.820312 144.632812 222.601562 144.882812 222.390625 145.136719 C 222.175781 145.390625 221.96875 145.648438 221.761719 145.90625 C 221.554688 146.164062 221.351562 146.425781 221.148438 146.691406 C 220.949219 146.957031 220.753906 147.222656 220.558594 147.492188 C 220.367188 147.761719 220.175781 148.03125 219.988281 148.304688 C 219.800781 148.582031 219.621094 148.855469 219.441406 149.136719 C 219.261719 149.414062 219.082031 149.695312 218.910156 149.976562 C 218.738281 150.261719 218.570312 150.546875 218.40625 150.832031 C 218.238281 151.121094 218.078125 151.410156 217.917969 151.699219 C 217.761719 151.992188 217.605469 152.285156 217.457031 152.578125 C 217.304688 152.875 217.15625 153.171875 217.015625 153.472656 C 216.871094 153.769531 216.730469 154.070312 216.59375 154.371094 C 216.460938 154.675781 216.328125 154.980469 216.199219 155.285156 C 216.070312 155.589844 215.949219 155.898438 215.828125 156.207031 C 215.707031 156.515625 215.589844 156.824219 215.476562 157.136719 C 215.363281 157.449219 215.257812 157.761719 215.152344 158.078125 C 216.203125 158.546875 217.238281 159.046875 218.257812 159.574219 C 219.097656 158.132812 220.050781 156.773438 221.117188 155.492188 C 227.804688 147.398438 237.554688 140.691406 248.21875 139.726562 C 253.625 139.238281 258.625 140.109375 262.851562 143.648438 C 259.027344 144.089844 255.242188 144.757812 251.496094 145.644531 C 240.738281 148.292969 229.988281 153.664062 224.054688 163.453125 C 225.84375 164.894531 227.835938 166.382812 229.894531 167.410156 C 239.050781 161.660156 249.960938 158.839844 260.589844 157.410156 C 269.984375 156.148438 282.738281 156.5625 291.21875 161.015625 C 293.160156 162.035156 294.558594 163.355469 296.269531 164.65625 C 294.183594 164.523438 292.03125 164.011719 289.957031 163.710938 C 286.617188 163.242188 283.269531 162.90625 279.902344 162.699219 C 277.101562 162.519531 274.28125 162.566406 271.476562 162.632812 C 261.128906 162.878906 250.953125 164.300781 241.167969 167.78125 C 238.71875 168.652344 236.089844 169.625 233.902344 171.035156 C 234.617188 171.570312 235.28125 172.199219 235.957031 172.78125 C 242.398438 168.589844 260.335938 165.789062 268.152344 165.472656 C 276.179688 165.152344 285.523438 166.570312 292.5 170.667969 C 294.726562 171.976562 296.585938 173.566406 298.464844 175.3125 C 298.136719 175.234375 297.804688 175.15625 297.476562 175.078125 C 284.082031 172.046875 268.738281 171.484375 255.132812 173.273438 C 250.121094 173.933594 244.4375 174.933594 240.109375 177.652344 C 241.6875 178.410156 243.175781 179.296875 244.675781 180.195312 C 252.878906 176.460938 262.375 174.269531 271.40625 174.335938 C 275.316406 174.363281 279.195312 174.894531 283.054688 175.484375 C 292.480469 176.925781 302.472656 179.113281 309.402344 186.179688 C 307.511719 185.824219 305.636719 185.308594 303.757812 184.890625 C 300.640625 184.175781 297.496094 183.582031 294.332031 183.105469 C 281.617188 181.164062 262.40625 181.144531 250.402344 186.035156 C 252.898438 189.292969 255.199219 192.652344 257.402344 196.117188 C 261.386719 194.910156 265.460938 194.261719 269.601562 193.855469 C 282.394531 192.597656 299.925781 192.917969 311.894531 198.179688 C 312.613281 198.496094 313.324219 198.832031 314.019531 199.199219 C 314.714844 199.5625 315.394531 199.949219 316.0625 200.363281 C 316.730469 200.777344 317.382812 201.210938 318.019531 201.671875 C 318.652344 202.132812 319.273438 202.613281 319.875 203.117188 C 318.308594 202.988281 316.703125 202.585938 315.15625 202.296875 C 312.503906 201.804688 309.84375 201.351562 307.175781 200.9375 C 296.589844 199.335938 286.199219 199.769531 275.6875 201.671875 C 277.550781 202.164062 279.5 202.417969 281.398438 202.730469 C 284.738281 203.289062 288.09375 203.804688 291.425781 204.421875 C 300.574219 206.117188 317.820312 210.664062 323.886719 218.144531 C 321.351562 217.292969 318.796875 216.519531 316.214844 215.820312 C 313.632812 215.121094 311.035156 214.5 308.417969 213.957031 C 305.796875 213.414062 303.167969 212.949219 300.523438 212.558594 C 297.875 212.171875 295.222656 211.863281 292.558594 211.632812 C 289.742188 211.367188 286.808594 211 283.980469 211.25 C 281.675781 211.457031 279.679688 212.039062 277.558594 212.949219 C 277.875 212.980469 278.191406 213.015625 278.507812 213.054688 C 282.226562 213.542969 285.886719 214.40625 289.539062 215.226562 C 299.203125 217.390625 311.421875 220.382812 319.882812 225.605469 C 322.691406 227.34375 324.929688 229.359375 326.9375 231.980469 C 326.75 231.898438 326.558594 231.820312 326.371094 231.746094 C 313.835938 226.785156 302.886719 223.246094 289.363281 222.066406 C 286.222656 221.792969 282.523438 221.339844 279.550781 222.621094 C 283.898438 224.3125 288.226562 226.046875 292.535156 227.828125 C 301.191406 231.34375 311.140625 235.097656 318.300781 241.234375 C 320.703125 243.292969 322.449219 245.535156 323.988281 248.277344 C 322.300781 247.558594 320.683594 246.640625 319.058594 245.792969 C 315.921875 244.15625 312.800781 242.480469 309.570312 241.03125 C 303.089844 238.117188 296.371094 235.585938 289.464844 233.875 C 286.761719 233.207031 283.992188 232.867188 281.292969 232.203125 C 282.972656 233.445312 284.679688 234.703125 286.242188 236.085938 C 288.167969 237.789062 289.964844 239.628906 291.96875 241.238281 C 300.683594 248.242188 310.589844 255.003906 316.246094 264.925781 C 317.34375 266.851562 317.996094 268.894531 318.910156 270.898438 C 315.882812 268.554688 313.082031 265.972656 310.167969 263.492188 C 304.585938 258.742188 298.792969 254.167969 292.429688 250.503906 C 294.246094 253.476562 295.878906 256.714844 297.445312 259.824219 C 301.65625 268.160156 305.296875 276.078125 304.925781 285.652344 C 303.128906 282.425781 301.945312 278.777344 300.296875 275.457031 C 297.527344 269.878906 294.042969 264.71875 290.5 259.613281 C 290.910156 261.222656 291.113281 262.917969 291.269531 264.570312 C 291.75 269.703125 291.058594 273.84375 288.902344 278.523438 C 288.675781 276.648438 288.246094 274.769531 287.847656 272.921875 C 286.507812 266.664062 284.652344 260.765625 282.332031 254.804688 C 283.359375 261.042969 282.953125 267.082031 279.398438 272.457031 C 278.714844 264.867188 276.160156 257.472656 274.140625 250.164062 C 274.199219 252.6875 274.011719 255.132812 273.714844 257.636719 C 270.179688 254.632812 269.027344 249.660156 267.664062 245.414062 C 262.175781 250.007812 256.625 252.03125 249.699219 253.285156 C 251.914062 254.277344 254 255.554688 256.238281 256.507812 C 261.226562 258.632812 266.792969 259.226562 272.167969 259.492188 C 268.035156 261.925781 263.078125 262.410156 258.390625 262.476562 C 257.101562 262.492188 255.757812 262.5625 254.488281 262.324219 C 259.183594 265.648438 264.078125 269.296875 269.371094 271.582031 C 271.472656 272.492188 273.726562 273.0625 275.878906 273.851562 C 275.316406 274.125 274.753906 274.410156 274.175781 274.648438 C 269.167969 276.71875 262.515625 275.042969 257.703125 273.046875 C 262.8125 278.957031 268.265625 284.945312 274.089844 290.152344 C 275.820312 291.726562 277.601562 293.242188 279.429688 294.699219 C 280.6875 295.683594 282.214844 296.585938 283.316406 297.734375 C 283.453125 297.875 283.398438 297.796875 283.453125 298.046875 C 283.273438 298.179688 283.175781 298.207031 282.945312 298.21875 C 281.996094 298.265625 280.75 297.832031 279.847656 297.570312 C 272.117188 295.3125 265.628906 289.917969 259.394531 285.042969 C 257.09375 283.242188 254.640625 281.476562 252.554688 279.425781 C 253.234375 280.910156 253.945312 282.378906 254.695312 283.832031 C 255.445312 285.28125 256.230469 286.714844 257.054688 288.125 C 257.875 289.539062 258.730469 290.929688 259.621094 292.300781 C 260.507812 293.667969 261.433594 295.015625 262.386719 296.339844 C 265.316406 300.398438 268.5625 304.113281 271.105469 308.453125 C 263.78125 305.738281 257.492188 297.304688 253.03125 291.125 C 248.777344 285.84375 245.121094 278.523438 242.101562 272.441406 C 240.808594 269.839844 239.457031 267.257812 238.25 264.621094 C 238.992188 274.578125 241.941406 283.890625 245.207031 293.25 C 246.832031 297.910156 248.933594 302.859375 249.574219 307.773438 C 239.261719 296.609375 234.0625 278.632812 231.332031 263.992188 C 228.746094 275.503906 229.664062 283.671875 230.402344 295.242188 C 230.597656 298.320312 230.492188 301.5625 230.863281 304.59375 C 230.496094 304.097656 230.171875 303.585938 229.863281 303.050781 C 224.710938 294.125 224.046875 279.621094 224.226562 269.496094 C 224.296875 265.382812 224.386719 261.007812 225.46875 257.015625 C 223.773438 260.773438 221.757812 264.105469 220.335938 268.03125 C 216.074219 279.789062 214.925781 291.492188 212.117188 303.480469 C 211.996094 303.226562 211.875 302.96875 211.761719 302.707031 C 207.726562 293.355469 211.449219 274.488281 214.164062 264.960938 C 215.324219 260.878906 216.785156 256.917969 218.347656 252.972656 C 208.316406 260.925781 200.773438 285.3125 196.835938 297.378906 C 195.167969 286.621094 200.359375 268.210938 205.183594 258.550781 C 207.167969 254.574219 209.789062 250.898438 212.304688 247.246094 C 212.195312 247.28125 212.082031 247.320312 211.96875 247.359375 C 203.496094 250.324219 198.039062 255.257812 193.882812 263.191406 C 192.863281 265.140625 192.027344 267.191406 191.074219 269.175781 C 191.023438 267.199219 191.132812 265.246094 191.492188 263.296875 C 193.300781 253.519531 200.949219 246.429688 208.839844 241.09375 C 210.605469 239.902344 212.53125 238.949219 214.269531 237.734375 L 214.410156 237.632812 C 207.292969 236.277344 199.503906 233.3125 194.703125 227.664062 C 194.207031 227.078125 193.726562 226.464844 193.316406 225.820312 C 192.800781 225.003906 191.734375 222.695312 191.117188 222.167969 C 191.046875 222.105469 190.941406 222.09375 190.855469 222.054688 C 190.601562 222.167969 190.4375 222.292969 190.257812 222.503906 C 189.125 223.851562 188.667969 226.203125 188.195312 227.875 C 185.507812 237.410156 184.882812 246.769531 185.582031 256.628906 C 182.050781 250.628906 181.503906 237.347656 182.203125 230.496094 C 180.953125 234.25 179.824219 237.996094 179.125 241.898438 C 177.4375 251.367188 178.007812 262.523438 181.753906 271.460938 C 181.167969 267.578125 180.722656 263.789062 180.765625 259.851562 C 180.792969 257.101562 181.078125 254.339844 181.21875 251.589844 C 181.492188 252.800781 181.445312 254.132812 181.539062 255.371094 C 181.726562 257.96875 181.925781 260.574219 182.230469 263.160156 C 183 269.761719 184.667969 275.992188 186.527344 282.355469 C 184.933594 281.058594 183.550781 279.726562 182.394531 278.023438 C 175.546875 267.9375 175.800781 249.207031 177.960938 237.652344 C 173.835938 247.78125 171.1875 257.164062 172.789062 268.203125 C 173.089844 270.277344 173.417969 272.5 174.089844 274.488281 C 171.582031 272.472656 169.992188 270.136719 168.863281 267.121094 C 164.511719 255.511719 169.15625 239.628906 173.28125 228.492188 C 174.109375 226.257812 174.875 223.949219 175.867188 221.785156 C 175.730469 221.917969 175.589844 222.054688 175.453125 222.1875 C 173.484375 224.144531 171.539062 226.128906 169.960938 228.425781 C 163.285156 238.128906 160.269531 252.980469 159.472656 264.550781 C 159.292969 267.199219 159.359375 269.886719 159.34375 272.542969 C 158.132812 271.289062 157.40625 269.664062 156.832031 268.039062 C 155.105469 263.15625 154.925781 257.445312 155.492188 252.316406 C 155.851562 249.019531 156.644531 245.863281 157.484375 242.660156 C 159.414062 235.3125 161.875 228.226562 165.164062 221.367188 C 163.148438 223.777344 160.96875 226.050781 159.101562 228.585938 C 152.828125 237.113281 148.152344 247.625 145.28125 257.785156 C 144.109375 261.933594 143.246094 266.167969 142.324219 270.378906 C 141.066406 266.796875 141.222656 262.546875 141.40625 258.792969 C 141.625 254.25 142.574219 249.78125 143.886719 245.433594 C 148.261719 230.957031 156.941406 218.484375 168.089844 208.402344 C 163.46875 208.242188 159.808594 206.953125 155.667969 205.015625 C 144.625 213.316406 138.433594 228.460938 134.226562 241.199219 C 132.882812 245.277344 131.882812 249.453125 130.34375 253.464844 C 129.859375 251.515625 129.507812 249.605469 129.425781 247.59375 C 128.90625 235.222656 133.9375 223.167969 139.828125 212.566406 C 142.609375 207.558594 145.628906 202.738281 149.519531 198.503906 C 148.039062 196.65625 147.171875 194.25 146.28125 192.078125 C 144.902344 191.730469 143.613281 191.097656 142.339844 190.480469 C 138.878906 196.023438 134.714844 201.105469 131.339844 206.6875 C 127.117188 213.671875 123.925781 221.164062 121.222656 228.851562 C 120.128906 231.953125 119.191406 235.109375 118.097656 238.214844 C 117.574219 236.921875 117.246094 235.59375 117.058594 234.214844 C 115.550781 223.046875 121.011719 211.242188 126.21875 201.699219 C 127.941406 198.535156 129.710938 195.347656 131.753906 192.378906 C 133.300781 190.132812 135.144531 188.175781 136.796875 186.023438 C 136.328125 185.382812 135.808594 184.785156 135.292969 184.183594 C 132.140625 186.664062 129.210938 189.375 126.300781 192.132812 C 117.035156 200.917969 110.058594 209.589844 104.699219 221.25 C 104.394531 219.605469 104.171875 218.015625 104.179688 216.335938 C 104.238281 205.792969 113.125 194.714844 120.886719 188.183594 C 124.109375 185.476562 127.796875 183.285156 130.789062 180.320312 C 120.589844 184.351562 107.878906 189.238281 100.246094 197.390625 C 97.445312 200.386719 95.363281 203.871094 92.738281 206.992188 C 92.855469 206.085938 92.824219 205.164062 92.929688 204.257812 C 94.210938 193.003906 105.3125 184.28125 114.726562 179.429688 C 119.367188 177.035156 124.542969 175.164062 128.605469 171.824219 C 128.9375 171.554688 129.09375 171.382812 129.136719 170.957031 L 128.878906 170.695312 C 128.730469 170.644531 128.722656 170.632812 128.542969 170.628906 C 128.003906 170.621094 121.972656 172.933594 120.570312 173.316406 C 117.199219 174.234375 113.792969 174.449219 110.386719 175.105469 C 99.539062 177.191406 89.957031 184.285156 83.804688 193.328125 C 83.824219 192.386719 83.839844 191.441406 84.007812 190.507812 C 84.628906 187.0625 86.554688 184.015625 88.761719 181.363281 C 92.683594 176.640625 97.996094 173.199219 103.714844 171.050781 C 106.710938 169.925781 109.804688 169.054688 112.816406 167.980469 C 115.140625 167.152344 118.0625 166.15625 120.058594 164.714844 C 120.097656 164.683594 120.140625 164.652344 120.179688 164.625 L 117.976562 162.226562 C 105.378906 164.371094 93.15625 166.425781 83.753906 175.976562 C 81.058594 178.714844 78.886719 181.875 76.445312 184.828125 C 76.460938 183.027344 76.5 181.269531 76.910156 179.503906 C 79.515625 168.230469 91.90625 163.589844 101.308594 159.257812 C 105.457031 157.347656 109.601562 155.324219 113.488281 152.914062 C 112.324219 151.128906 110.671875 150.234375 108.808594 149.324219 C 99.679688 152.824219 89.894531 155.675781 81.933594 161.539062 C 78.441406 164.109375 75.78125 167.757812 72.179688 170.113281 C 74.488281 157.296875 83.421875 152.589844 93.773438 146.835938 C 96.753906 145.179688 99.792969 143.492188 102.476562 141.375 C 102.050781 140.574219 101.566406 139.796875 101.105469 139.011719 C 98.074219 139.53125 95.113281 140.472656 92.078125 141.003906 C 85.949219 142.082031 80.316406 141.851562 74.503906 144.636719 C 73.632812 145.054688 72.78125 145.519531 71.957031 146.027344 C 71.132812 146.535156 70.335938 147.082031 69.570312 147.675781 C 68.460938 148.535156 67.34375 149.644531 66.078125 150.257812 C 65.921875 150.042969 65.945312 149.988281 65.96875 149.734375 C 66.171875 147.6875 67.40625 145.542969 68.636719 143.945312 C 74.777344 135.996094 81.667969 136.929688 89.886719 133.664062 C 93.132812 132.375 96.007812 130.484375 98.660156 128.226562 C 94.109375 127.976562 89.625 128.035156 85.128906 127.144531 C 80.136719 126.15625 75.28125 124.164062 72.351562 119.796875 C 78.433594 120.070312 87.269531 121.605469 92.78125 119.011719 C 91.195312 118.425781 89.558594 117.984375 87.960938 117.429688 C 83.800781 115.984375 79.921875 113.945312 76.5 111.152344 C 71.152344 106.78125 67.898438 102.203125 67.183594 95.261719 C 67.933594 96.183594 68.839844 97.027344 69.671875 97.878906 C 73.242188 101.546875 77.082031 105.050781 81.671875 107.402344 C 83.535156 108.359375 85.507812 109.011719 87.480469 109.695312 C 86.707031 107.917969 86.027344 106.074219 85.414062 104.234375 C 81.078125 101.589844 76.816406 98.90625 73.820312 94.683594 C 70.558594 90.085938 68.808594 85.050781 69.753906 79.421875 C 70.75 81.085938 71.621094 82.820312 72.660156 84.457031 C 75.753906 89.351562 79.757812 92.949219 84.652344 95.976562 C 84.304688 94.625 84.011719 93.25 83.910156 91.855469 C 83.679688 88.609375 84.632812 85.527344 86.78125 83.058594 C 86.894531 82.925781 87.011719 82.796875 87.132812 82.671875 C 87.253906 82.542969 87.375 82.421875 87.5 82.300781 C 87.628906 82.179688 87.757812 82.0625 87.890625 81.949219 C 88.019531 81.835938 88.15625 81.726562 88.292969 81.617188 C 88.429688 81.511719 88.570312 81.40625 88.714844 81.308594 C 88.855469 81.207031 89 81.109375 89.148438 81.015625 C 89.296875 80.925781 89.445312 80.835938 89.597656 80.75 C 89.75 80.664062 89.902344 80.582031 90.058594 80.503906 C 90.214844 80.425781 90.375 80.355469 90.535156 80.285156 C 90.695312 80.214844 90.855469 80.148438 91.019531 80.085938 C 91.179688 80.023438 91.34375 79.96875 91.511719 79.914062 C 91.675781 79.859375 91.84375 79.8125 92.011719 79.765625 C 92.179688 79.722656 92.351562 79.679688 92.519531 79.644531 C 92.691406 79.605469 92.863281 79.574219 93.035156 79.546875 C 93.207031 79.519531 93.378906 79.496094 93.550781 79.476562 C 93.726562 79.457031 93.898438 79.441406 94.074219 79.429688 C 99.324219 79.085938 103.257812 82.90625 106.933594 86.089844 C 107.148438 84.785156 107.398438 83.484375 107.675781 82.1875 C 109.871094 84.113281 111.519531 86.453125 113.347656 88.703125 C 114.332031 89.910156 115.402344 91.039062 116.367188 92.261719 C 115.148438 87.523438 114.253906 82.730469 112.246094 78.234375 C 111.25 75.996094 107.914062 71.824219 107.652344 69.753906 Z M 191.914062 215.714844 C 193.871094 203.765625 198.519531 196.714844 208.269531 189.703125 C 214.585938 185.160156 227.355469 178.347656 235.097656 177.492188 C 234.085938 176.242188 233.054688 175.058594 231.871094 173.96875 C 227.90625 170.308594 218.238281 163.242188 212.902344 162.683594 C 212.511719 162.644531 212.125 162.621094 211.734375 162.613281 C 202.53125 163.207031 185.214844 173.648438 179.160156 180.527344 C 174.429688 185.90625 170.992188 194.511719 171.511719 201.734375 C 171.820312 206.066406 173.890625 209.746094 177.175781 212.539062 C 179.820312 214.785156 185.871094 218.589844 189.488281 218.355469 C 190.136719 218.316406 190.773438 218.085938 191.210938 217.59375 C 191.652344 217.09375 191.832031 216.363281 191.914062 215.714844 Z M 216.765625 234.246094 C 220.332031 219.886719 227.746094 212.027344 239.328125 203.484375 C 242.375 201.238281 245.398438 198.894531 248.644531 196.9375 C 249.730469 196.28125 250.796875 195.75 252.015625 195.394531 C 248.878906 190.378906 244.238281 182.800781 238.085938 181.417969 C 236.902344 181.152344 235.578125 181.136719 234.378906 181.269531 C 224.539062 182.929688 206.628906 192.753906 200.703125 201.066406 C 197.308594 205.828125 194.304688 213.800781 195.300781 219.714844 C 195.988281 223.785156 198.527344 226.855469 201.835938 229.164062 C 205.289062 231.578125 209.191406 232.769531 213.257812 233.675781 C 214.421875 233.902344 215.589844 234.078125 216.765625 234.246094 Z M 168.078125 202.464844 C 167.910156 192.800781 171.417969 183.695312 178.191406 176.726562 C 184.941406 169.777344 196.273438 163.679688 205.425781 160.605469 C 205.964844 160.425781 208.964844 159.472656 209.1875 159.105469 C 209.230469 159.027344 209.257812 158.632812 209.257812 158.519531 C 209.238281 157.703125 208.53125 156.921875 207.949219 156.425781 C 205.371094 154.210938 191.726562 146.550781 188.71875 146.773438 C 188.648438 146.78125 188.574219 146.785156 188.503906 146.800781 C 185.316406 147.097656 182.148438 148.273438 179.1875 149.460938 C 171.417969 152.578125 163.476562 156.820312 158.039062 163.339844 C 152.597656 169.859375 148.890625 179.300781 149.675781 187.875 C 150.128906 192.78125 152.0625 197.25 155.890625 200.445312 C 158.144531 202.324219 163.550781 205.460938 166.59375 205.179688 C 167.097656 205.132812 167.605469 204.945312 167.914062 204.519531 C 168.285156 204.011719 168.117188 203.066406 168.078125 202.464844 Z M 146.183594 184.332031 C 147.328125 173.355469 151.96875 162.867188 160.679688 155.816406 C 167.238281 150.507812 175.035156 146.964844 183.074219 144.570312 C 183.914062 144.320312 185.34375 144.035156 185.375 142.945312 C 185.398438 142.109375 184.628906 141.34375 184.042969 140.84375 C 181.046875 138.289062 172.28125 133.765625 168.359375 134.082031 C 168.316406 134.085938 168.273438 134.09375 168.226562 134.101562 C 156.917969 136.324219 143.148438 144.210938 136.71875 153.878906 C 133.417969 158.839844 131.855469 164.789062 133.074219 170.683594 C 134.332031 176.753906 137.738281 183.347656 143.042969 186.808594 C 143.992188 187.429688 145.003906 187.960938 146.019531 188.449219 C 146.0625 187.078125 146.082031 185.703125 146.183594 184.332031 Z M 129.558594 162.949219 C 131.238281 153.492188 137.753906 146.179688 145.421875 140.835938 C 151.277344 136.753906 157.679688 134.027344 164.472656 131.941406 C 160.515625 127.679688 155.050781 124.320312 149.582031 122.378906 C 148.8125 122.105469 147.800781 121.644531 147 121.542969 C 135.941406 124.984375 124.714844 130.390625 119.058594 141.152344 C 116.917969 145.222656 115.964844 149.773438 117.378906 154.242188 C 119.296875 160.3125 124.347656 164.316406 129.472656 167.65625 C 129.398438 166.085938 129.386719 164.515625 129.558594 162.949219 Z M 113.304688 148.09375 C 113.398438 147.421875 113.449219 146.710938 113.664062 146.0625 C 115.558594 137.25 122.453125 130.125 129.800781 125.359375 C 134.632812 122.230469 140.074219 120.464844 145.515625 118.730469 C 142.96875 114.386719 139.667969 110.535156 134.609375 109.183594 C 134.132812 109.054688 133.648438 108.933594 133.15625 108.914062 C 124.269531 109.570312 113.941406 114.804688 108.121094 121.515625 C 105.164062 124.925781 102.726562 129.484375 103.09375 134.128906 C 103.46875 138.816406 106.621094 142.941406 110.101562 145.875 C 111.09375 146.726562 112.160156 147.464844 113.304688 148.09375 Z M 104.257812 121.050781 C 110.59375 112.769531 120.316406 108.484375 130.199219 106.160156 C 127.484375 103.660156 120.277344 98.253906 116.652344 98.382812 C 109.148438 99.527344 102.042969 103.503906 97.480469 109.652344 C 95.988281 111.660156 94.960938 113.835938 95.363281 116.398438 C 95.972656 120.289062 98.445312 123.261719 101.15625 125.9375 C 102.023438 124.195312 103.019531 122.558594 104.257812 121.050781 Z M 95.304688 107.25 C 95.554688 106.945312 95.8125 106.640625 96.074219 106.34375 C 96.335938 106.046875 96.605469 105.75 96.875 105.464844 C 97.148438 105.175781 97.425781 104.890625 97.710938 104.613281 C 97.992188 104.335938 98.28125 104.0625 98.574219 103.792969 C 98.867188 103.523438 99.164062 103.261719 99.464844 103.003906 C 99.765625 102.746094 100.074219 102.492188 100.382812 102.246094 C 100.695312 102 101.007812 101.757812 101.328125 101.523438 C 101.648438 101.289062 101.972656 101.058594 102.300781 100.832031 C 102.628906 100.609375 102.960938 100.390625 103.292969 100.179688 C 103.628906 99.96875 103.96875 99.761719 104.3125 99.5625 C 104.65625 99.359375 105 99.167969 105.351562 98.980469 C 105.699219 98.792969 106.054688 98.609375 106.410156 98.433594 C 106.765625 98.257812 107.125 98.089844 107.488281 97.929688 C 107.847656 97.765625 108.214844 97.609375 108.582031 97.460938 C 108.949219 97.3125 109.320312 97.167969 109.691406 97.03125 C 110.066406 96.894531 110.441406 96.765625 110.816406 96.644531 C 112.28125 96.15625 113.777344 95.871094 115.261719 95.46875 C 112.753906 92.75 109.515625 89.207031 105.5625 88.996094 C 105.34375 88.984375 105.40625 88.984375 105.203125 88.996094 C 100.535156 89.433594 93.835938 92.90625 90.828125 96.550781 C 89.410156 98.265625 88.582031 100.273438 88.820312 102.535156 C 89.132812 105.519531 90.890625 108.617188 92.933594 110.753906 C 93.566406 109.601562 94.355469 108.175781 95.304688 107.25 Z M 252.632812 198.84375 C 251.492188 199.058594 250.457031 199.433594 249.425781 199.960938 C 247.3125 201.046875 245.382812 202.507812 243.457031 203.886719 C 239.824219 206.488281 236.207031 209.128906 232.992188 212.246094 C 230.929688 214.253906 228.996094 216.453125 227.375 218.835938 C 224.800781 222.628906 220.207031 232.140625 221.164062 236.5625 C 222.046875 240.632812 225.527344 243.4375 228.902344 245.496094 C 231.765625 247.246094 234.855469 248.511719 238.070312 249.429688 C 245.335938 251.144531 254.015625 250.980469 260.554688 246.980469 C 264.449219 244.59375 266.75 240.796875 267.78125 236.410156 C 270.023438 226.855469 267.285156 216.976562 262.1875 208.832031 C 260.472656 206.089844 256.921875 199.785156 253.710938 198.976562 C 253.371094 198.890625 252.984375 198.851562 252.632812 198.84375 Z M 271.714844 218.105469 C 276.5625 219.410156 281.664062 219.527344 286.632812 220.128906 C 292.320312 220.839844 297.96875 221.785156 303.578125 222.972656 C 306.390625 223.546875 309.269531 224.097656 312.027344 224.886719 C 313.816406 225.347656 315.59375 225.851562 317.363281 226.394531 C 308.050781 221.085938 300.632812 218.71875 290.050781 217.050781 C 286.257812 216.449219 282.082031 215.9375 278.25 216.34375 C 276.097656 216.601562 273.601562 216.96875 271.714844 218.105469 Z M 157.5625 259.332031 C 157.777344 257.835938 158.023438 256.34375 158.300781 254.859375 C 158.578125 253.375 158.886719 251.898438 159.226562 250.425781 C 159.570312 248.957031 159.941406 247.492188 160.347656 246.039062 C 160.75 244.582031 161.1875 243.136719 161.652344 241.699219 C 162.121094 240.265625 162.621094 238.839844 163.148438 237.425781 C 163.675781 236.007812 164.234375 234.605469 164.824219 233.214844 C 165.414062 231.824219 166.035156 230.449219 166.683594 229.085938 C 167.332031 227.722656 168.007812 226.371094 168.71875 225.039062 C 170.558594 221.597656 172.714844 218.382812 174.675781 215.023438 C 174.09375 214.636719 173.527344 214.421875 172.875 214.203125 C 164.980469 225.589844 158.175781 237.042969 157.007812 251.171875 C 156.78125 253.9375 156.632812 257.03125 157.140625 259.753906 C 157.179688 259.960938 157.222656 260.085938 157.339844 260.261719 C 157.53125 259.984375 157.527344 259.65625 157.5625 259.332031 Z M 248.050781 182.859375 C 256.070312 180.167969 264.050781 180.128906 272.421875 180.035156 C 278.980469 179.984375 285.433594 180 291.960938 180.769531 C 294.144531 181.027344 296.460938 181.296875 298.578125 181.902344 C 291.21875 178.015625 281.6875 175.863281 273.359375 176.675781 C 265.167969 177.328125 255.027344 178.148438 248.050781 182.859375 Z M 212.34375 155.605469 C 213.632812 153.570312 214.734375 151.425781 216.066406 149.417969 C 219.578125 144.136719 224.292969 139.597656 229.507812 136.007812 C 231.09375 134.917969 232.75 133.914062 234.402344 132.917969 C 234.546875 132.832031 234.515625 132.894531 234.515625 132.742188 L 234.363281 132.714844 C 225.03125 135.554688 218.390625 140.402344 213.734375 149.160156 C 212.960938 150.617188 211.417969 153.109375 211.972656 154.78125 C 212.066406 155.066406 212.207031 155.335938 212.34375 155.605469 Z M 176.433594 132.207031 C 174.742188 125.664062 173.75 118.980469 173.84375 112.210938 C 173.859375 111.238281 174.167969 108.613281 173.886719 107.84375 C 171.207031 115.003906 171.179688 121.160156 174.371094 128.179688 C 174.75 129.011719 175.113281 129.929688 175.574219 130.71875 C 175.855469 131.214844 176.128906 131.722656 176.433594 132.207031 Z M 299.820312 269.621094 C 297.433594 261.8125 293.207031 253.507812 287.675781 247.457031 C 286.761719 246.457031 285.648438 245.222656 284.460938 244.550781 C 287.507812 252.71875 292.140625 258.933594 297.1875 265.921875 C 298.011719 267.0625 298.777344 268.722656 299.820312 269.621094 Z M 99.113281 133.015625 C 96.246094 133.625 93.394531 134.488281 90.570312 135.265625 C 84.855469 136.839844 78.511719 138.171875 73.703125 141.820312 C 73.398438 142.050781 72.75 142.476562 72.558594 142.808594 C 72.527344 142.863281 72.515625 142.929688 72.496094 142.992188 L 72.578125 143.058594 C 74.75 141.972656 77.023438 141.226562 79.378906 140.65625 C 85.316406 139.214844 92.941406 138.96875 97.734375 134.816406 C 98.289062 134.335938 98.894531 133.785156 99.222656 133.125 Z M 260.847656 200.503906 C 266.152344 200.078125 271.441406 199.542969 276.722656 198.898438 C 279.925781 198.535156 283.171875 198.035156 286.394531 197.984375 C 292.59375 197.746094 301.386719 197.746094 307.371094 199.371094 C 305.519531 198.339844 303.316406 197.914062 301.265625 197.4375 C 294.875 195.953125 285.984375 194.453125 279.460938 195.191406 C 273.660156 195.78125 265.269531 196.855469 259.894531 198.945312 Z M 194.214844 143.023438 L 194.40625 143.175781 C 194.769531 142.734375 196.730469 133.484375 197.242188 131.96875 C 198.226562 129.058594 199.367188 126.027344 200.742188 123.277344 C 201.507812 121.742188 202.628906 120.296875 203.210938 118.6875 L 203.183594 118.527344 C 198.050781 122.835938 194.339844 129.191406 193.75 135.949219 C 193.546875 138.289062 193.601562 140.742188 194.214844 143.023438 Z M 240.464844 262.15625 C 241.175781 264.867188 242.3125 267.476562 243.382812 270.0625 C 247.101562 279.050781 251.605469 287.179688 257.792969 294.703125 C 258.847656 295.988281 260.054688 297.765625 261.453125 298.664062 C 260.144531 296.253906 258.628906 293.960938 257.273438 291.578125 C 255.351562 288.199219 253.648438 284.695312 251.75 281.304688 C 249.203125 276.761719 246.265625 272.449219 243.738281 267.894531 C 243.0625 266.679688 241.40625 262.785156 240.464844 262.15625 Z M 87.960938 94.832031 C 89.285156 93.410156 90.742188 92.128906 92.375 91.074219 C 95.554688 89.050781 98.78125 87.359375 102.515625 86.648438 C 100.054688 84.601562 97.363281 82.4375 93.957031 82.699219 C 91.8125 83.027344 89.960938 83.902344 88.652344 85.710938 C 87.230469 87.671875 86.941406 90.015625 87.320312 92.351562 C 87.457031 93.183594 87.671875 94.039062 87.960938 94.832031 Z M 257.636719 259.769531 C 254.125 257.671875 248.695312 254.726562 244.679688 254.316406 C 248.453125 258.21875 252.382812 259.148438 257.636719 259.769531 Z M 279.804688 265.664062 C 280.546875 257.976562 278.761719 249.65625 274.765625 243.042969 C 274.265625 242.214844 273.734375 241.003906 273.050781 240.332031 C 273 240.285156 272.941406 240.246094 272.890625 240.203125 C 273.230469 242.253906 273.539062 244.304688 274.054688 246.316406 C 275.304688 251.1875 277.183594 255.871094 278.410156 260.757812 C 278.660156 261.761719 279.148438 265.105469 279.714844 265.695312 Z M 163.785156 125.972656 C 163.976562 126.371094 164.160156 126.773438 164.394531 127.152344 C 163.082031 121.230469 162.136719 115.140625 162.121094 109.066406 C 162.121094 108.144531 162.3125 102.910156 161.910156 102.425781 C 159.046875 108.007812 159.761719 114.949219 161.640625 120.734375 C 162.207031 122.46875 162.902344 124.375 163.785156 125.972656 Z M 91.964844 115.554688 C 91.386719 114.378906 90.78125 113.199219 89.960938 112.171875 C 84.953125 110.46875 80.332031 108.425781 75.925781 105.472656 C 74.515625 104.527344 72.828125 102.628906 71.386719 101.992188 C 72.5 103.5625 73.605469 105.109375 74.929688 106.519531 C 79.417969 111.289062 85.617188 114.210938 91.964844 115.554688 Z M 270.28125 239.773438 C 270.003906 240.648438 269.75 241.542969 269.429688 242.402344 C 270.613281 245.410156 271.636719 248.46875 272.503906 251.582031 L 272.6875 251.640625 C 273.117188 249.078125 272.152344 242.335938 270.683594 240.15625 C 270.566406 239.988281 270.453125 239.882812 270.28125 239.773438 Z M 205.6875 247.570312 C 207.726562 246.445312 218.039062 241.269531 218.574219 239.691406 L 218.488281 239.410156 C 218.136719 239.238281 217.925781 239.191406 217.542969 239.167969 C 213.636719 240.527344 210.125 243.097656 206.996094 245.75 C 206.359375 246.289062 205.410156 246.972656 204.984375 247.699219 C 204.957031 247.742188 204.9375 247.792969 204.914062 247.839844 L 205.042969 247.910156 Z M 131.925781 103.355469 C 131.449219 100.496094 130.859375 97.648438 130.300781 94.800781 C 129.351562 89.9375 128.398438 85.242188 126.59375 80.605469 C 126.320312 79.894531 125.988281 78.832031 125.464844 78.273438 C 126.351562 86.007812 127.34375 93.628906 129.367188 101.167969 C 130.1875 101.929688 130.992188 102.730469 131.925781 103.355469 Z M 166.859375 213.96875 C 155.195312 220.796875 150.355469 231.566406 146.976562 244.058594 L 147.054688 244.230469 L 147.097656 244.234375 C 147.917969 242.40625 148.792969 240.605469 149.71875 238.828125 C 150.644531 237.050781 151.621094 235.300781 152.652344 233.582031 C 153.679688 231.863281 154.757812 230.175781 155.886719 228.519531 C 157.011719 226.859375 158.1875 225.238281 159.410156 223.652344 C 161.015625 221.601562 162.636719 219.5625 164.277344 217.542969 C 165.179688 216.417969 166.203125 215.28125 166.9375 214.039062 Z M 122.222656 96.46875 C 120.886719 90.316406 118.953125 84.25 115.351562 79.03125 C 114.828125 78.273438 114.148438 77.164062 113.390625 76.632812 C 115.625 82.8125 116.742188 89.433594 119.40625 95.449219 Z M 276.171875 209.808594 L 276.683594 209.632812 C 276.546875 209.457031 276.34375 209.476562 276.125 209.453125 C 273.207031 209.125 270.097656 209.269531 267.164062 209.324219 C 267.648438 210.164062 268.089844 210.445312 269.027344 210.691406 C 271.261719 211.28125 274.003906 210.382812 276.171875 209.808594 Z M 183.652344 136.085938 L 183.847656 136.269531 C 184.230469 135.863281 185.199219 128.054688 185.515625 126.640625 C 185.859375 125.085938 186.285156 123.554688 186.800781 122.050781 C 187.316406 120.542969 187.914062 119.070312 188.597656 117.632812 C 189.21875 116.292969 189.941406 115.023438 190.546875 113.671875 L 190.460938 113.46875 C 185.9375 117.765625 182.941406 123.136719 182.796875 129.46875 C 182.746094 131.746094 183.078125 133.890625 183.652344 136.085938 Z M 240.289062 253.691406 C 240.699219 256.234375 241.191406 258.707031 242.175781 261.101562 C 246.53125 271.660156 258.101562 281.769531 267.1875 288.335938 C 268.09375 288.988281 269.230469 289.871094 270.308594 290.179688 C 267.179688 287.523438 264.351562 284.546875 261.511719 281.59375 C 256.703125 276.597656 251.925781 271.464844 247.867188 265.832031 C 246.777344 264.320312 245.792969 262.710938 244.847656 261.109375 C 244.011719 259.695312 241.4375 254.488281 240.289062 253.691406 Z M 243.277344 295.277344 L 243.445312 295.496094 C 243.539062 295.207031 243.460938 295.03125 243.398438 294.742188 C 242.894531 292.425781 242.089844 290.164062 241.503906 287.867188 C 240.019531 282.28125 238.851562 276.632812 238 270.917969 C 237.484375 267.4375 237.136719 263.941406 236.953125 260.429688 C 236.804688 258.027344 236.875 255.410156 236.339844 253.058594 C 235.792969 252.90625 235.246094 252.734375 234.691406 252.601562 C 234.296875 255.167969 233.910156 257.746094 233.839844 260.347656 C 233.585938 269.515625 236.109375 278.984375 239.585938 287.390625 C 240.664062 289.988281 241.789062 292.890625 243.277344 295.277344 Z M 95.121094 124.410156 C 95.257812 123.910156 94.324219 122.480469 94.042969 121.976562 C 90.941406 122.285156 87.90625 122.511719 84.789062 122.363281 C 82.1875 122.242188 79.488281 121.78125 76.894531 121.960938 C 82.242188 124.75 88.800781 126.429688 94.734375 124.539062 C 94.863281 124.5 94.992188 124.457031 95.121094 124.410156 Z M 267.566406 273.132812 C 263.933594 270.261719 254.042969 263.308594 249.699219 262.570312 C 254.003906 267.167969 257.589844 269.957031 263.652344 272.007812 C 264.890625 272.425781 266.28125 272.953125 267.566406 273.132812 Z M 122.101562 168.335938 C 119.507812 168.796875 116.886719 169.078125 114.296875 169.554688 C 108.273438 170.664062 102.070312 172.882812 97.097656 176.476562 C 95.445312 177.671875 93.65625 179.058594 92.332031 180.605469 L 92.296875 180.78125 L 92.5 180.769531 C 96.273438 178.355469 100.125 176.554688 104.335938 175.054688 C 109.058594 173.371094 118.859375 171.277344 122.359375 168.34375 C 122.136719 168.316406 122.222656 168.296875 122.101562 168.335938 Z M 72.675781 87.433594 C 74.757812 92.507812 79.597656 98.152344 84.707031 100.347656 C 84.882812 100.421875 85.085938 100.492188 85.277344 100.515625 C 85.324219 99.664062 85.359375 98.808594 85.382812 97.957031 C 82.214844 95.929688 79.226562 93.75 76.464844 91.1875 C 75.210938 90.023438 74.039062 88.414062 72.675781 87.433594 Z M 184.976562 221.296875 C 183.441406 228.050781 182.847656 232.761719 183.847656 239.617188 C 183.917969 238.953125 183.980469 238.285156 184.085938 237.625 C 185.160156 232.324219 186.628906 227.109375 187.636719 221.796875 C 186.753906 221.636719 185.84375 221.511719 184.976562 221.296875 Z M 139.492188 106.808594 L 139.851562 107.257812 L 140.050781 107.257812 C 140.609375 106.265625 140.375 103.351562 140.425781 102.140625 C 140.558594 99.15625 141.046875 96.027344 141.675781 93.105469 C 141.875 92.179688 142.660156 89.75 142.511719 88.929688 C 139.492188 92.554688 138.167969 98.25 138.601562 102.890625 C 138.726562 104.257812 139.039062 105.515625 139.492188 106.808594 Z M 179.058594 219.78125 C 173.933594 231.367188 167.78125 246.054688 169.226562 258.972656 C 169.339844 259.980469 169.273438 261.878906 169.726562 262.761719 C 169.753906 262.820312 169.808594 262.859375 169.851562 262.910156 L 169.914062 262.761719 C 169.542969 250.726562 175.570312 235.84375 179.335938 224.445312 C 179.601562 223.640625 180.601562 221.109375 180.074219 220.445312 C 179.871094 220.1875 179.347656 219.945312 179.058594 219.78125 Z M 276.566406 220.816406 L 276.691406 220.664062 C 275.851562 219.941406 272.550781 219.617188 271.335938 219.320312 C 271.472656 219.925781 271.59375 220.535156 271.746094 221.132812 C 273.488281 221.34375 274.878906 221.300781 276.566406 220.816406 Z M 304.867188 211.300781 C 306.832031 211.671875 308.8125 212.011719 310.761719 212.449219 C 311.710938 212.664062 313.167969 213.316406 314.089844 213.289062 C 312.980469 212.578125 311.691406 212.039062 310.496094 211.484375 C 302.148438 207.621094 289.863281 204.539062 280.640625 205.140625 C 276.503906 205.429688 272.816406 206.4375 268.917969 207.757812 C 271.289062 207.957031 273.671875 208.011719 276.046875 208.152344 C 280.605469 208.449219 285.15625 208.789062 289.707031 209.164062 C 294.78125 209.625 299.851562 210.421875 304.867188 211.300781 Z M 152.390625 98.445312 C 149.089844 104.5 149.480469 111.476562 151.261719 117.960938 C 151.375 118.222656 151.433594 118.558594 151.699219 118.679688 C 151.78125 116.328125 151.507812 113.941406 151.511719 111.582031 C 151.519531 108.105469 151.867188 104.773438 152.238281 101.328125 C 152.332031 100.460938 152.535156 99.300781 152.390625 98.445312 Z M 289.144531 272.070312 C 289.183594 269.851562 288.921875 267.621094 288.683594 265.417969 C 287.703125 256.367188 285.621094 249.304688 280.769531 241.488281 C 279.203125 238.964844 277.445312 236.453125 275.382812 234.308594 C 274.433594 233.324219 273.480469 232.570312 272.257812 231.953125 C 272.226562 233.304688 272.214844 234.441406 272.78125 235.710938 C 273.839844 238.085938 275.941406 240.042969 277.34375 242.230469 C 280.753906 247.558594 283.332031 253.496094 285.351562 259.480469 C 285.847656 260.945312 288.871094 271.792969 289.015625 271.964844 C 289.050781 272.007812 289.101562 272.035156 289.144531 272.070312 Z M 277.449219 232.984375 C 281.460938 237.964844 287.59375 243.878906 292.628906 247.8125 C 296.707031 250.996094 301.046875 253.890625 305.242188 256.917969 C 306.902344 258.113281 308.675781 260.058594 310.371094 261.011719 C 309.253906 259.269531 307.882812 257.71875 306.503906 256.179688 C 299.886719 248.808594 291.789062 243.3125 283.878906 237.46875 C 282.34375 236.335938 279.113281 233.472656 277.449219 232.984375 Z M 201.8125 276.15625 C 206.800781 264.816406 212.832031 253.542969 222.011719 245.027344 C 221.621094 244.527344 221.257812 243.988281 220.636719 243.761719 C 209.519531 251.996094 204.519531 264.625 201.089844 277.558594 C 201.359375 277.097656 201.597656 276.640625 201.8125 276.15625 Z M 219.1875 121.941406 C 212.542969 125.371094 207.308594 131.90625 205.058594 139.023438 C 204.335938 141.324219 203.308594 146.308594 204.28125 148.589844 C 204.847656 146.375 205.714844 144.246094 206.585938 142.132812 C 209.605469 134.804688 213.625 127.710938 219.28125 122.066406 Z M 129.953125 176.230469 C 127.222656 176.519531 124.636719 177.355469 122.050781 178.242188 C 113.136719 181.289062 107.042969 185.308594 101.101562 192.671875 C 100.867188 192.960938 100.640625 193.253906 100.417969 193.550781 L 100.488281 193.710938 C 102.492188 192.105469 104.566406 190.59375 106.710938 189.175781 C 108.851562 187.761719 111.054688 186.445312 113.316406 185.226562 C 117.238281 183.117188 121.308594 181.292969 125.269531 179.25 C 126.195312 178.773438 129.695312 177.15625 130.109375 176.34375 Z M 82.148438 173.890625 C 82.632812 173.59375 83.0625 173.277344 83.496094 172.910156 C 90.75 166.832031 98.179688 164.808594 106.742188 161.46875 C 109.070312 160.558594 111.539062 159.703125 113.691406 158.40625 C 114.058594 158.183594 114.566406 157.871094 114.648438 157.425781 L 114.683594 157.238281 C 114.515625 156.9375 114.425781 156.832031 114.117188 156.675781 C 113.925781 156.679688 113.714844 156.664062 113.53125 156.710938 C 103.8125 159.757812 93.523438 162.5 85.867188 169.613281 C 84.636719 170.757812 83.355469 171.964844 82.460938 173.398438 Z M 229.9375 251.230469 C 228.691406 253.691406 228.164062 256.28125 227.578125 258.957031 C 227.367188 259.945312 227.175781 260.9375 227.003906 261.933594 C 226.832031 262.929688 226.683594 263.929688 226.554688 264.933594 C 226.425781 265.933594 226.320312 266.941406 226.234375 267.949219 C 226.148438 268.957031 226.085938 269.964844 226.042969 270.976562 C 226 271.984375 225.976562 272.996094 225.976562 274.007812 C 225.976562 275.019531 226 276.027344 226.042969 277.039062 C 226.085938 278.050781 226.148438 279.058594 226.234375 280.066406 C 226.320312 281.074219 226.429688 282.078125 226.554688 283.082031 C 226.867188 285.691406 227.402344 288.273438 227.75 290.878906 C 227.808594 291.140625 227.84375 291.632812 228.039062 291.800781 C 228.214844 290.25 228.023438 288.539062 227.980469 286.972656 C 227.929688 285.039062 227.972656 283.109375 228.011719 281.175781 C 228.132812 274.09375 228.644531 267.039062 229.539062 260.015625 C 229.71875 258.527344 230.859375 252.332031 230.113281 251.335938 Z M 137.902344 189.410156 C 129.546875 197.015625 124.183594 206.398438 121.320312 217.28125 C 120.765625 219.386719 120.039062 221.628906 119.917969 223.804688 C 119.902344 224.085938 119.894531 223.972656 119.953125 224.214844 C 123.464844 213.855469 129.210938 204.449219 134.855469 195.148438 C 135.511719 194.070312 137.9375 190.519531 137.902344 189.410156 Z M 108.667969 208.410156 C 110.488281 205.875 112.445312 203.5 114.511719 201.160156 C 116.265625 199.175781 128.863281 186.363281 128.878906 185.261719 L 128.800781 185.191406 C 121.613281 189.355469 115.40625 195.78125 111.09375 202.839844 C 110.167969 204.355469 109.027344 206.195312 108.605469 207.941406 C 108.558594 208.148438 108.5625 208.15625 108.550781 208.339844 Z M 153.050781 202.492188 C 152.503906 201.964844 151.671875 200.945312 150.976562 200.710938 C 139.886719 208.777344 134.292969 225.859375 132.230469 238.855469 C 132.097656 239.703125 131.957031 240.554688 131.875 241.40625 L 132.601562 239.207031 C 136.308594 228.441406 143.761719 209.601562 153.050781 202.492188 Z M 224.921875 247.832031 C 217.746094 258.363281 214.171875 270.046875 212.652344 282.652344 C 212.332031 285.3125 212 287.96875 211.957031 290.648438 L 212.214844 290.574219 L 212.101562 290.863281 L 211.964844 290.859375 L 212.054688 290.988281 L 212.167969 290.9375 L 212.011719 290.886719 C 212.074219 290.824219 212.148438 290.769531 212.195312 290.699219 C 212.226562 290.648438 212.269531 290.445312 212.285156 290.382812 C 214.269531 280.996094 216.921875 270.511719 220.34375 261.582031 C 221.386719 258.851562 222.523438 256.164062 223.761719 253.515625 C 224.34375 252.289062 225.28125 251.019531 225.675781 249.742188 C 225.804688 249.328125 225.878906 248.910156 225.648438 248.511719 C 225.488281 248.242188 225.1875 247.992188 224.921875 247.832031 Z M 248.378906 142.292969 C 239.1875 143.429688 231.070312 147.210938 225.257812 154.605469 C 223.5625 156.761719 222.539062 159.039062 221.460938 161.535156 C 222.429688 160.492188 223.382812 159.425781 224.394531 158.421875 C 230.472656 152.355469 237.511719 148.121094 245.566406 145.171875 C 248.285156 144.175781 251.0625 143.375 253.800781 142.441406 C 252.003906 142.300781 250.179688 142.101562 248.378906 142.292969 Z M 77.648438 161.21875 C 80.855469 158.488281 84.320312 156.269531 88.042969 154.308594 C 89.464844 153.566406 90.914062 152.871094 92.390625 152.230469 C 94.195312 151.433594 105.195312 147.070312 105.386719 145.34375 C 105.289062 145.296875 105 145.144531 104.898438 145.128906 C 102.109375 145.769531 99.410156 146.742188 96.71875 147.710938 C 90.765625 149.851562 85.835938 151.90625 81.234375 156.46875 C 79.980469 157.714844 78.722656 159.074219 77.765625 160.566406 C 77.605469 160.816406 77.472656 161.078125 77.355469 161.351562 L 77.488281 161.375 Z M 266.816406 158.390625 C 258.644531 158.796875 250.292969 159.695312 242.78125 163.195312 C 240.4375 164.289062 238.234375 165.660156 236.046875 167.03125 C 240.402344 165.625 244.835938 164.597656 249.304688 163.617188 C 251.574219 163.148438 253.855469 162.730469 256.148438 162.367188 C 258.4375 162 260.734375 161.6875 263.039062 161.425781 C 265.347656 161.164062 267.65625 160.953125 269.96875 160.796875 C 272.285156 160.640625 274.601562 160.539062 276.921875 160.484375 C 279.0625 160.4375 281.234375 160.339844 283.375 160.433594 C 277.839844 159.246094 272.503906 158.277344 266.816406 158.390625 Z M 274.984375 224.625 C 274.304688 224.75 273.628906 224.871094 272.960938 225.074219 C 278.71875 227.992188 284.671875 229.894531 290.765625 231.945312 C 294.929688 233.363281 299.082031 234.8125 303.21875 236.292969 C 306.230469 237.359375 309.253906 238.359375 312.167969 239.675781 C 312.460938 239.828125 312.800781 240.074219 313.132812 240.066406 C 311.789062 238.859375 310.167969 237.878906 308.625 236.941406 C 300.707031 232.113281 291.734375 228.515625 282.835938 225.96875 C 280.582031 225.324219 277.945312 224.460938 275.59375 224.574219 C 275.390625 224.585938 275.1875 224.601562 274.984375 224.625 Z M 264.554688 167.65625 C 255.910156 168.359375 249.167969 170.207031 241.183594 173.546875 C 243.738281 173.039062 246.257812 172.390625 248.839844 172.023438 C 253.671875 171.332031 258.65625 171.183594 263.527344 170.878906 C 271.261719 170.585938 280.503906 170.578125 288.191406 171.417969 C 281.820312 168.78125 275.382812 167.472656 268.476562 167.546875 C 267.195312 167.5625 265.828125 167.515625 264.554688 167.65625 Z M 264.554688 167.65625 " fill-opacity="1" fill-rule="nonzero"/></g><path fill="#ffffff" d="M 238.625 212.183594 C 238.636719 212.886719 236.070312 216.34375 235.476562 217.234375 C 232.933594 221.046875 230.578125 225.058594 228.9375 229.355469 C 228.128906 231.464844 227.570312 233.328125 228.566406 235.5 C 230.515625 239.757812 235.675781 242.816406 239.894531 244.332031 C 240.238281 244.457031 240.582031 244.578125 240.929688 244.6875 C 241.277344 244.800781 241.625 244.902344 241.976562 245 C 242.332031 245.097656 242.683594 245.183594 243.039062 245.265625 C 243.394531 245.347656 243.753906 245.417969 244.113281 245.484375 C 244.472656 245.550781 244.832031 245.609375 245.191406 245.65625 C 245.554688 245.707031 245.917969 245.75 246.28125 245.785156 C 246.644531 245.816406 247.007812 245.84375 247.371094 245.863281 C 247.738281 245.878906 248.101562 245.890625 248.464844 245.894531 C 248.832031 245.894531 249.195312 245.890625 249.558594 245.878906 C 249.925781 245.863281 250.289062 245.84375 250.652344 245.816406 C 251.015625 245.785156 251.378906 245.75 251.742188 245.703125 C 252.105469 245.660156 252.464844 245.609375 252.824219 245.546875 C 253.183594 245.488281 253.542969 245.421875 253.902344 245.34375 C 254.257812 245.269531 254.613281 245.183594 254.964844 245.09375 C 255.320312 245.003906 255.671875 244.90625 256.019531 244.796875 C 256.371094 244.691406 256.714844 244.578125 257.058594 244.457031 C 258.652344 243.894531 260.179688 243.089844 261.703125 242.367188 L 261.644531 242.375 L 261.753906 242.457031 L 261.820312 242.347656 L 261.480469 242.433594 L 261.523438 242.640625 L 260.398438 243.382812 C 257.203125 245.398438 253.660156 246.625 249.882812 246.894531 C 242.875 247.394531 235.625 245.457031 230.273438 240.78125 C 228.324219 239.082031 225.917969 236.519531 225.796875 233.78125 C 225.527344 227.65625 234.578125 216.679688 238.625 212.183594 Z M 238.625 212.183594 " fill-opacity="1" fill-rule="nonzero"/><path fill="#ffffff" d="M 250.722656 204.019531 C 250.972656 204.011719 251.21875 204.003906 251.46875 204.011719 C 252.886719 204.0625 254.132812 205.179688 255.0625 206.167969 C 260.777344 212.25 264.242188 221.757812 263.925781 230.128906 C 263.921875 230.171875 263.917969 230.21875 263.917969 230.265625 L 263.945312 230.195312 L 263.808594 230.476562 C 263.402344 229.472656 263.476562 227.914062 263.289062 226.796875 C 263.03125 225.25 262.648438 223.742188 262.230469 222.230469 C 261.304688 219.023438 260.058594 216.050781 258.332031 213.1875 C 257.042969 211.046875 254.125 206.300781 251.691406 205.789062 C 249.78125 205.386719 245.875 209.191406 244.199219 210.28125 C 246.253906 208.210938 247.867188 205.097656 250.722656 204.019531 Z M 250.722656 204.019531 " fill-opacity="1" fill-rule="nonzero"/><path fill="#ffffff" d="M 232.664062 234.054688 C 233.597656 234.394531 235.128906 236.550781 235.929688 237.324219 C 236.699219 238.066406 237.570312 238.796875 238.5 239.335938 C 240.761719 240.648438 243.316406 241.589844 245.855469 242.199219 C 247.003906 242.476562 248.410156 242.644531 249.484375 243.117188 C 249.566406 243.152344 249.644531 243.191406 249.722656 243.226562 C 246.835938 243.246094 243.886719 243.074219 241.140625 242.113281 C 237.179688 240.726562 234.457031 237.773438 232.664062 234.054688 Z M 232.664062 234.054688 " fill-opacity="1" fill-rule="nonzero"/><path fill="#ffffff" d="M 248.386719 209.054688 C 250.222656 209.445312 251.816406 210.214844 253.195312 211.488281 C 257.265625 215.25 258.820312 220.753906 259.023438 226.128906 C 258.972656 226.09375 258.921875 226.066406 258.875 226.023438 C 258.613281 225.773438 258.621094 224.652344 258.566406 224.265625 C 257.898438 219.480469 255.683594 215.042969 252.058594 211.84375 C 250.960938 210.875 249.757812 210.113281 248.605469 209.226562 Z M 248.386719 209.054688 " fill-opacity="1" fill-rule="nonzero"/><path fill="#ffffff" d="M 182.15625 187.347656 C 181.757812 188.292969 181.070312 189.175781 180.554688 190.066406 C 178.996094 192.761719 177.585938 196.101562 177.710938 199.28125 C 177.910156 204.390625 182.582031 207.71875 185.976562 210.867188 L 187.21875 211.816406 C 187.417969 210.046875 188.441406 204.71875 189.710938 203.597656 L 189.785156 203.722656 C 189.65625 204.136719 189.53125 204.535156 189.351562 204.929688 C 188.710938 206.335938 187.859375 211.203125 187.84375 212.789062 C 186.996094 212.347656 186.003906 211.925781 185.28125 211.308594 C 184.527344 211.050781 183.625 210.304688 182.996094 209.808594 C 180.121094 207.550781 176.863281 204.808594 176.433594 200.929688 C 175.863281 195.804688 179.128906 191.121094 182.15625 187.347656 Z M 182.15625 187.347656 " fill-opacity="1" fill-rule="nonzero"/><path fill="#ffffff" d="M 216.847656 170.789062 C 218.441406 170.601562 220.765625 171.40625 222.082031 172.300781 C 223.21875 173.070312 223.5625 173.71875 223.828125 175.007812 C 222.816406 174.503906 221.933594 173.765625 220.921875 173.242188 C 217.132812 171.273438 213.191406 172.472656 209.375 173.679688 C 206.78125 174.59375 204.269531 175.796875 201.757812 176.910156 C 205.539062 173.953125 212.117188 171.183594 216.847656 170.789062 Z M 216.847656 170.789062 " fill-opacity="1" fill-rule="nonzero"/><path fill="#ffffff" d="M 223.320312 175.410156 C 224.222656 175.328125 225.613281 175.347656 226.390625 175.867188 L 226.425781 176.132812 C 224.789062 176.691406 222.976562 176.792969 221.300781 177.296875 C 216.730469 178.667969 211.921875 181.265625 207.996094 183.957031 C 207.429688 184.324219 206.882812 184.691406 206.273438 184.988281 C 211.050781 180.980469 217.097656 176.566406 223.320312 175.410156 Z M 223.320312 175.410156 " fill-opacity="1" fill-rule="nonzero"/><path fill="#ffffff" d="M 208.703125 167.101562 C 209.574219 167.023438 210.457031 166.992188 211.324219 167.132812 C 213.402344 167.472656 214.964844 168.515625 216.171875 170.210938 C 211.429688 168.238281 209.140625 167.878906 204.191406 169.59375 C 201.742188 170.605469 199.398438 171.875 196.917969 172.8125 C 200.605469 170.175781 204.183594 167.960938 208.703125 167.101562 Z M 208.703125 167.101562 " fill-opacity="1" fill-rule="nonzero"/><path fill="#ffffff" d="M 233.410156 185.503906 C 235.019531 185.394531 236.40625 185.535156 237.894531 186.1875 C 240.503906 187.332031 242.21875 189.300781 243.882812 191.535156 C 244.371094 192.195312 244.976562 192.898438 245.253906 193.679688 C 245.402344 194.101562 245.390625 194.5 245.164062 194.898438 C 244.785156 195.558594 243.65625 195.953125 242.984375 196.28125 C 240.792969 197.363281 238.589844 198.429688 236.484375 199.667969 C 234.964844 200.558594 230.53125 203.734375 229.3125 204.101562 C 229.9375 203.359375 230.746094 202.71875 231.472656 202.078125 C 235.097656 198.886719 238.996094 196.464844 243.449219 194.59375 C 242.585938 193.304688 241.757812 191.976562 240.707031 190.835938 C 239.578125 191.050781 238.472656 191.382812 237.367188 191.6875 C 233.808594 192.976562 230.507812 194.613281 227.277344 196.570312 C 230.339844 193.328125 235.328125 190.980469 239.546875 189.59375 C 238.554688 188.683594 237.558594 187.960938 236.273438 187.515625 C 231.605469 185.882812 223.082031 190.136719 218.800781 192.296875 C 223 189.011719 228.089844 186.332031 233.410156 185.503906 Z M 233.410156 185.503906 " fill-opacity="1" fill-rule="nonzero"/><path fill="#ffffff" d="M 205.257812 201.917969 C 205.53125 203.0625 200.507812 211.417969 201.316406 216.484375 C 202.191406 221.972656 208.183594 224.960938 212.25 227.867188 C 212.621094 225.734375 213.382812 223.980469 214.277344 222.027344 L 213.785156 224.6875 C 213.496094 226.101562 213.246094 227.480469 213.144531 228.921875 C 211.136719 228.128906 209.207031 227.179688 207.351562 226.074219 C 204.144531 224.164062 200.78125 221.363281 199.863281 217.566406 C 198.542969 212.101562 202.558594 206.335938 205.257812 201.917969 Z M 205.257812 201.917969 " fill-opacity="1" fill-rule="nonzero"/><path fill="#ffffff" d="M 157.507812 174.929688 C 157.675781 175.746094 155.632812 179.09375 155.234375 180.101562 C 154.800781 181.203125 154.492188 182.347656 154.429688 183.535156 C 154.183594 188.042969 157.4375 192.019531 160.273438 195.15625 C 160.492188 193.179688 160.796875 190.804688 161.785156 189.0625 C 161.449219 191.5 161.28125 193.882812 161.503906 196.34375 C 162.195312 197.398438 163.167969 198.25 164.082031 199.105469 C 164.109375 198.398438 164.125 197.710938 164.265625 197.011719 C 164.601562 195.503906 165.335938 194.117188 166.027344 192.746094 C 165.585938 195.023438 164.875 197.273438 164.535156 199.566406 C 163.566406 199.128906 162.625 198.691406 161.75 198.085938 C 158.101562 195.566406 154.457031 190.476562 153.695312 186.0625 C 152.976562 181.894531 155.203125 178.214844 157.507812 174.929688 Z M 157.507812 174.929688 " fill-opacity="1" fill-rule="nonzero"/><path fill="#ffffff" d="M 193.417969 154.964844 C 193.941406 154.921875 194.460938 154.878906 194.984375 154.910156 C 197.226562 155.046875 199.101562 155.957031 200.597656 157.632812 C 193.695312 155.375 190.800781 156.613281 184.382812 159.542969 C 182.546875 160.410156 180.777344 161.40625 178.953125 162.273438 L 178.914062 162.148438 C 183.453125 159.148438 187.894531 155.816406 193.417969 154.964844 Z M 193.417969 154.964844 " fill-opacity="1" fill-rule="nonzero"/><path fill="#ffffff" d="M 186.210938 151.691406 C 186.617188 151.640625 187.019531 151.625 187.433594 151.632812 C 189.710938 151.667969 191.238281 152.574219 192.789062 154.167969 C 186.277344 152.277344 184.449219 153.078125 178.40625 155.972656 C 176.671875 156.835938 174.925781 157.703125 173.238281 158.65625 C 173.179688 158.550781 173.210938 158.625 173.207031 158.414062 C 173.394531 158.230469 173.320312 158.269531 173.527344 158.179688 C 174.628906 157.714844 175.484375 156.925781 176.472656 156.261719 C 179.425781 154.28125 182.683594 152.375 186.210938 151.691406 Z M 186.210938 151.691406 " fill-opacity="1" fill-rule="nonzero"/><path fill="#ffffff" d="M 200.121094 157.96875 C 201.214844 157.839844 202.433594 158.042969 203.53125 158.140625 C 197.609375 159.453125 191.605469 161.867188 186.4375 165.046875 C 185.957031 165.367188 185.472656 165.664062 184.964844 165.941406 L 184.988281 165.914062 L 184.824219 165.921875 C 189.523438 162.429688 194.265625 159.128906 200.121094 157.96875 Z M 200.121094 157.96875 " fill-opacity="1" fill-rule="nonzero"/><path fill="#ffffff" d="M 137.789062 162.175781 L 137.890625 162.242188 C 137.738281 163.050781 137.566406 163.878906 137.488281 164.703125 C 137.0625 169.394531 139.191406 173.722656 142.136719 177.246094 C 142.394531 174.660156 143.332031 171.578125 144.824219 169.429688 C 144.695312 169.96875 144.558594 170.503906 144.40625 171.039062 C 143.566406 173.847656 143.144531 176.554688 142.8125 179.457031 C 140.992188 177.585938 139.421875 175.589844 138.3125 173.214844 C 136.785156 169.945312 136.558594 165.578125 137.789062 162.175781 Z M 137.789062 162.175781 " fill-opacity="1" fill-rule="nonzero"/><path fill="#ffffff" d="M 168.996094 138.472656 C 171.070312 138.0625 173.058594 139.003906 174.824219 139.972656 C 171.519531 139.210938 168.777344 139.292969 165.46875 139.8125 C 163.863281 140.253906 162.289062 140.753906 160.710938 141.285156 C 162.027344 139.914062 167.132812 138.796875 168.996094 138.472656 Z M 168.996094 138.472656 " fill-opacity="1" fill-rule="nonzero"/><path fill="#ffffff" d="M 176.363281 142.160156 C 177.535156 142.082031 178.53125 142.359375 179.652344 142.660156 C 178.523438 142.824219 177.351562 142.808594 176.210938 142.929688 C 173.882812 143.183594 171.65625 143.757812 169.433594 144.484375 C 168.726562 144.753906 167.964844 145.148438 167.210938 145.234375 C 169.804688 143.5625 173.308594 142.507812 176.363281 142.160156 Z M 176.363281 142.160156 " fill-opacity="1" fill-rule="nonzero"/><path fill="#ffffff" d="M 122.882812 143.691406 C 123.09375 144.199219 122.652344 145.457031 122.519531 146.035156 C 121.53125 150.335938 123.597656 153.96875 125.8125 157.503906 C 126.136719 153.992188 127.089844 150.613281 129.054688 147.644531 C 129.074219 148.386719 128.566406 149.484375 128.335938 150.214844 C 127.445312 153.632812 126.996094 156.984375 126.898438 160.511719 C 125.105469 158.042969 123.050781 155.988281 122.085938 153.007812 C 121.046875 149.792969 121.367188 146.675781 122.882812 143.691406 Z M 122.882812 143.691406 " fill-opacity="1" fill-rule="nonzero"/><path fill="#ffffff" d="M 152.902344 130.421875 C 155.039062 130.191406 156.535156 130.625 158.492188 131.445312 C 152.296875 131.460938 148.242188 133.25 142.824219 135.964844 C 141.859375 136.46875 140.71875 136.914062 139.871094 137.585938 C 139.65625 137.757812 139.648438 137.804688 139.367188 137.851562 L 139.707031 137.589844 L 139.503906 137.519531 L 139.539062 137.6875 C 143.214844 134.378906 147.976562 131.289062 152.902344 130.421875 Z M 152.902344 130.421875 " fill-opacity="1" fill-rule="nonzero"/><path fill="#ffffff" d="M 146.160156 126.480469 C 148.132812 126.21875 149.8125 126.5625 151.632812 127.289062 C 151.097656 127.335938 150.539062 127.25 149.996094 127.289062 C 146.6875 127.515625 143.40625 128.0625 140.265625 129.132812 C 138.765625 129.652344 137.359375 130.367188 135.871094 130.894531 C 139.105469 128.683594 142.234375 127.027344 146.160156 126.480469 Z M 146.160156 126.480469 " fill-opacity="1" fill-rule="nonzero"/><path fill="#ffffff" d="M 108.589844 127.207031 C 108.757812 127.910156 108.273438 129.160156 108.136719 129.910156 C 107.53125 133.285156 109.304688 136.824219 110.957031 139.628906 C 111.859375 136.796875 113.53125 134.335938 115.273438 131.957031 C 114.800781 132.945312 114.417969 133.957031 114.039062 134.984375 C 113.066406 137.308594 112.054688 139.875 111.542969 142.34375 C 111.238281 141.988281 110.945312 141.625 110.667969 141.25 C 110.390625 140.875 110.125 140.488281 109.878906 140.09375 C 109.628906 139.695312 109.394531 139.292969 109.175781 138.878906 C 108.957031 138.464844 108.753906 138.046875 108.566406 137.617188 C 106.945312 133.878906 107.125 130.933594 108.589844 127.207031 Z M 108.589844 127.207031 " fill-opacity="1" fill-rule="nonzero"/><path fill="#ffffff" d="M 130.4375 112.992188 C 132.355469 112.820312 135.230469 113.03125 136.90625 114.066406 C 136.464844 114.261719 132.910156 113.929688 132.113281 113.945312 C 130.5 113.992188 128.898438 114.164062 127.308594 114.464844 C 125.882812 114.703125 122.371094 116.039062 121.398438 116.007812 C 121.582031 115.78125 121.5 115.828125 121.738281 115.722656 C 124.933594 114.34375 126.863281 113.34375 130.4375 112.992188 Z M 130.4375 112.992188 " fill-opacity="1" fill-rule="nonzero"/><path fill="#ffffff" d="M 135.785156 116.796875 C 136.53125 116.839844 137.332031 116.820312 138.042969 117.054688 L 137.984375 117.148438 C 137.757812 117.164062 137.535156 117.1875 137.308594 117.207031 C 133.699219 117.539062 130.003906 118.65625 126.625 119.9375 C 125.789062 120.300781 124.96875 120.652344 124.097656 120.921875 C 127.761719 118.527344 131.386719 117.070312 135.785156 116.796875 Z M 135.785156 116.796875 " fill-opacity="1" fill-rule="nonzero"/><path fill="#ffffff" d="M 119.335938 104.667969 C 120.46875 104.707031 121.527344 104.878906 122.613281 105.199219 C 119.582031 105.859375 116.691406 106.289062 113.726562 107.304688 C 113.171875 107.515625 112.628906 107.714844 112.121094 108.03125 C 111.886719 108.175781 111.710938 108.289062 111.4375 108.359375 L 111.402344 108.300781 C 111.4375 108.1875 111.445312 108.132812 111.527344 108.03125 C 111.847656 107.632812 112.441406 107.355469 112.882812 107.097656 C 114.949219 105.886719 116.933594 104.945312 119.335938 104.667969 Z M 119.335938 104.667969 " fill-opacity="1" fill-rule="nonzero"/><path fill="#ffffff" d="M 101.894531 112.480469 C 101.914062 112.574219 101.953125 112.660156 101.953125 112.753906 C 101.96875 113.179688 101.726562 113.832031 101.632812 114.261719 C 101.328125 115.660156 101.058594 117.03125 101.105469 118.472656 C 101.148438 119.660156 102.226562 121.582031 102.128906 122.363281 L 101.878906 122.359375 C 100.960938 121.464844 100.425781 120.597656 100.203125 119.320312 C 99.8125 117.058594 100.621094 114.351562 101.894531 112.480469 Z M 101.894531 112.480469 " fill-opacity="1" fill-rule="nonzero"/><path fill="#ffffff" d="M 114.898438 101.378906 C 116.078125 101.207031 117.160156 101.546875 118.257812 101.925781 C 115.941406 102.539062 113.617188 102.714844 111.289062 103.453125 C 110.367188 103.808594 109.5 104.195312 108.625 104.660156 C 110.171875 102.910156 112.660156 101.855469 114.898438 101.378906 Z M 114.898438 101.378906 " fill-opacity="1" fill-rule="nonzero"/><path fill="#ffffff" d="M 105.074219 91.289062 C 105.335938 91.253906 105.59375 91.242188 105.855469 91.238281 C 106.378906 91.234375 106.921875 91.214844 107.3125 91.59375 L 107.21875 91.835938 C 105.074219 92.355469 103.011719 92.804688 100.933594 93.570312 C 100.203125 93.855469 99.488281 94.199219 98.761719 94.503906 C 100.789062 92.976562 102.585938 91.886719 105.074219 91.289062 Z M 105.074219 91.289062 " fill-opacity="1" fill-rule="nonzero"/><path fill="#ffffff" d="M 93.347656 101.71875 C 93.507812 102.671875 92.953125 103.738281 92.972656 104.714844 C 92.992188 105.667969 93.859375 107.238281 93.425781 108.070312 L 93.050781 108.105469 C 92.609375 107.3125 92.265625 106.632812 92.152344 105.714844 C 91.972656 104.226562 92.460938 102.894531 93.347656 101.71875 Z M 93.347656 101.71875 " fill-opacity="1" fill-rule="nonzero"/><path fill="#ffffff" d="M 106.992188 94.148438 C 107.863281 94.023438 108.761719 94.195312 109.632812 94.289062 L 109.671875 94.601562 L 109.921875 94.636719 L 109.796875 94.871094 C 108.285156 94.875 107.070312 94.964844 105.621094 95.40625 C 104.699219 95.714844 103.789062 96.09375 102.871094 96.421875 C 104.160156 95.382812 105.402344 94.628906 106.992188 94.148438 Z M 106.992188 94.148438 " fill-opacity="1" fill-rule="nonzero"/></svg>