<svg xmlns="http://www.w3.org/2000/svg" xmlns:xlink="http://www.w3.org/1999/xlink" width="500" zoomAndPan="magnify" viewBox="0 0 375 374.999991" height="500" preserveAspectRatio="xMidYMid meet" version="1.0"><defs><clipPath id="479c343938"><path d="M 187.5 0 C 83.945312 0 0 83.945312 0 187.5 C 0 291.054688 83.945312 375 187.5 375 C 291.054688 375 375 291.054688 375 187.5 C 375 83.945312 291.054688 0 187.5 0 Z M 187.5 0 " clip-rule="nonzero"/></clipPath><clipPath id="3775aaabb9"><path d="M 50 47.457031 L 316 47.457031 L 316 316 L 50 316 Z M 50 47.457031 " clip-rule="nonzero"/></clipPath></defs><g clip-path="url(#479c343938)"><rect x="-37.5" width="450" fill="#fec743" y="-37.499999" height="449.999989" fill-opacity="1"/></g><g clip-path="url(#3775aaabb9)"><path fill="#ffffff" d="M 314.203125 298.089844 C 312.234375 294.105469 308.988281 290.820312 306.054688 287.527344 C 301.058594 281.914062 295.976562 276.378906 290.875 270.863281 C 285.875 265.457031 280.855469 260.070312 275.808594 254.707031 C 272.925781 251.636719 270.035156 248.570312 267.140625 245.507812 L 267.066406 245.429688 C 275.777344 233.679688 282.472656 220.875 287.152344 207.015625 C 291.863281 193.242188 294.140625 179.074219 293.984375 164.515625 C 293.738281 148.988281 290.164062 133.6875 284.175781 119.394531 C 280.027344 109.5 274.945312 99.953125 267.925781 91.785156 C 258.660156 81.003906 246.976562 72.253906 234.707031 65.179688 C 222.777344 58.296875 209.765625 52.667969 196.242188 49.84375 C 189.324219 48.398438 182.207031 47.878906 175.152344 47.675781 C 168 47.457031 160.875 47.769531 153.769531 48.617188 C 141.667969 50.03125 130.054688 53.226562 118.929688 58.207031 C 109.851562 62.34375 101.496094 67.625 93.859375 74.042969 C 87.738281 79.199219 82.1875 84.910156 77.207031 91.175781 C 73.640625 95.632812 70.398438 100.3125 67.257812 105.070312 C 64.761719 108.757812 62.578125 112.625 60.707031 116.667969 C 57.984375 122.816406 55.875 129.167969 54.371094 135.722656 C 50.960938 150.523438 49.859375 165.492188 51.070312 180.632812 C 51.640625 188.257812 52.871094 195.777344 54.761719 203.1875 C 56.652344 210.597656 59.175781 217.785156 62.328125 224.75 C 68.804688 239.019531 77.609375 252.769531 89.203125 263.421875 C 93.222656 267.015625 97.441406 270.359375 101.859375 273.457031 C 105.9375 276.421875 110.1875 279.113281 114.613281 281.53125 C 125.796875 287.484375 137.664062 291.335938 150.210938 293.078125 C 158.15625 294.203125 166.140625 294.722656 174.164062 294.632812 C 188.386719 294.496094 202.679688 292.0625 215.867188 286.628906 C 222.964844 283.621094 229.679688 279.914062 236.007812 275.511719 C 241.140625 272.011719 245.980469 268.148438 250.53125 263.921875 C 251.601562 265.101562 252.675781 266.28125 253.75 267.460938 C 257.007812 271.039062 260.277344 274.613281 263.550781 278.183594 C 267.660156 282.660156 271.785156 287.128906 275.921875 291.582031 C 279.832031 295.789062 283.769531 299.964844 287.730469 304.121094 C 290.371094 306.875 293 309.671875 295.828125 312.238281 C 297.441406 313.734375 299.300781 314.792969 301.414062 315.417969 C 305.652344 316.644531 310.46875 315.597656 313.378906 312.152344 C 316.765625 308.140625 316.417969 302.578125 314.203125 298.089844 Z M 225.621094 278.335938 C 216.648438 283.460938 207.097656 287.042969 196.972656 289.089844 C 189.449219 290.632812 181.847656 291.425781 174.164062 291.46875 C 159.464844 291.570312 144.667969 289.976562 130.710938 285.171875 C 120.792969 281.761719 111.640625 276.652344 103.164062 270.515625 C 98.867188 267.492188 94.773438 264.210938 90.886719 260.675781 C 85.285156 255.351562 80.351562 249.464844 76.089844 243.015625 C 67.648438 230.449219 61.121094 216.324219 57.527344 201.597656 C 53.953125 186.949219 53.066406 171.648438 54.296875 156.644531 C 55.402344 143.175781 58.195312 129.429688 63.953125 117.132812 C 66.730469 111.199219 70.480469 105.722656 74.242188 100.371094 C 78.078125 94.863281 82.316406 89.679688 86.953125 84.828125 C 93.019531 78.476562 99.75 72.933594 107.140625 68.191406 C 116.136719 62.46875 125.773438 58.175781 136.046875 55.316406 C 148.753906 51.757812 161.980469 50.460938 175.152344 50.839844 C 182.03125 51.035156 188.964844 51.523438 195.707031 52.957031 C 202.101562 54.355469 208.332031 56.292969 214.394531 58.761719 C 227.648438 64.066406 239.863281 71.164062 251.035156 80.054688 C 260.339844 87.492188 268.523438 96.140625 274.410156 106.542969 C 280.738281 117.710938 285.316406 129.554688 288.148438 142.074219 C 289.742188 149.300781 290.628906 156.613281 290.800781 164.015625 C 290.976562 171.414062 290.4375 178.761719 289.183594 186.054688 C 287.96875 193.070312 286.210938 199.945312 283.910156 206.683594 C 281.605469 213.421875 278.789062 219.933594 275.457031 226.226562 C 272.125 232.519531 268.320312 238.507812 264.042969 244.199219 C 259.765625 249.890625 255.066406 255.207031 249.949219 260.15625 C 242.5625 267.1875 234.453125 273.25 225.621094 278.339844 Z M 310.765625 310.335938 C 309.488281 311.695312 307.921875 312.488281 306.066406 312.714844 C 304.195312 312.910156 302.410156 312.601562 300.710938 311.792969 C 300.09375 311.480469 299.5 311.132812 298.925781 310.75 C 298.875 310.707031 298.820312 310.667969 298.769531 310.625 C 296.285156 308.429688 293.925781 306.109375 291.683594 303.671875 C 287.917969 299.78125 284.210938 295.835938 280.515625 291.878906 C 276.386719 287.457031 272.277344 283.019531 268.1875 278.5625 C 264.703125 274.773438 261.226562 270.972656 257.757812 267.171875 C 256.109375 265.363281 254.464844 263.554688 252.824219 261.746094 C 257.238281 257.4375 261.339844 252.847656 265.128906 247.976562 C 266.898438 249.847656 268.664062 251.71875 270.429688 253.59375 C 275.035156 258.484375 279.621094 263.386719 284.195312 268.300781 C 289.402344 273.90625 294.582031 279.539062 299.726562 285.199219 C 301.957031 287.664062 304.171875 290.148438 306.367188 292.644531 C 309.414062 296.121094 312.742188 300.085938 312.769531 304.917969 C 312.800781 305.917969 312.644531 306.886719 312.296875 307.824219 C 311.953125 308.761719 311.441406 309.597656 310.765625 310.335938 Z M 310.765625 310.335938 " fill-opacity="1" fill-rule="nonzero"/></g><path fill="#ffffff" d="M 273.488281 202.742188 C 277.636719 190.609375 279.640625 178.136719 279.5 165.316406 C 279.285156 151.644531 276.140625 138.171875 270.867188 125.585938 C 267.207031 116.851562 262.726562 108.429688 256.53125 101.222656 C 248.371094 91.726562 238.082031 84.023438 227.28125 77.792969 C 216.773438 71.734375 205.3125 66.773438 193.410156 64.285156 C 187.308594 63.011719 181.03125 62.550781 174.8125 62.375 C 168.523438 62.179688 162.257812 62.457031 156.007812 63.203125 C 145.332031 64.449219 135.085938 67.265625 125.273438 71.660156 C 117.277344 75.308594 109.914062 79.960938 103.1875 85.617188 C 97.804688 90.152344 92.925781 95.175781 88.546875 100.683594 C 85.402344 104.617188 82.539062 108.742188 79.765625 112.941406 C 77.570312 116.183594 75.648438 119.582031 74.007812 123.136719 C 71.605469 128.558594 69.742188 134.160156 68.414062 139.941406 C 65.410156 152.972656 64.441406 166.15625 65.503906 179.488281 C 66.515625 193.039062 69.824219 206 75.433594 218.378906 C 81.132812 230.941406 88.886719 243.046875 99.097656 252.429688 C 102.644531 255.597656 106.367188 258.546875 110.261719 261.277344 C 113.851562 263.886719 117.589844 266.253906 121.484375 268.378906 C 131.332031 273.625 141.78125 277.015625 152.832031 278.550781 C 159.835938 279.542969 166.875 280 173.945312 279.925781 C 186.472656 279.804688 199.058594 277.660156 210.667969 272.878906 C 216.929688 270.230469 222.847656 266.964844 228.429688 263.085938 C 239.015625 255.808594 248.121094 246.996094 255.746094 236.65625 C 263.445312 226.285156 269.359375 214.980469 273.488281 202.742188 Z M 240.449219 249.285156 C 233.96875 255.457031 226.851562 260.777344 219.09375 265.246094 C 211.21875 269.742188 202.835938 272.886719 193.949219 274.683594 C 187.347656 276.035156 180.679688 276.730469 173.941406 276.769531 C 161.027344 276.855469 148.035156 275.457031 135.777344 271.238281 C 127.074219 268.242188 119.039062 263.753906 111.597656 258.367188 C 107.832031 255.71875 104.246094 252.84375 100.839844 249.742188 C 95.925781 245.070312 91.597656 239.910156 87.859375 234.25 C 80.28125 223.085938 74.847656 210.960938 71.554688 197.875 C 68.414062 185.007812 67.640625 171.570312 68.722656 158.390625 C 69.691406 146.582031 72.140625 134.527344 77.1875 123.742188 C 79.628906 118.527344 82.925781 113.710938 86.234375 109.003906 C 89.59375 104.167969 93.3125 99.625 97.382812 95.371094 C 102.707031 89.796875 108.609375 84.929688 115.097656 80.769531 C 122.996094 75.746094 131.453125 71.980469 140.46875 69.46875 C 151.628906 66.34375 163.242188 65.207031 174.808594 65.535156 C 180.84375 65.707031 186.921875 66.132812 192.835938 67.390625 C 198.457031 68.621094 203.9375 70.324219 209.269531 72.5 C 220.894531 77.148438 231.609375 83.375 241.40625 91.171875 C 249.578125 97.703125 256.765625 105.292969 261.933594 114.429688 C 267.488281 124.234375 271.507812 134.632812 273.996094 145.628906 C 275.390625 151.964844 276.167969 158.382812 276.320312 164.871094 C 276.472656 171.359375 276.003906 177.804688 274.90625 184.203125 C 273.839844 190.363281 272.292969 196.402344 270.273438 202.320312 C 268.25 208.234375 265.777344 213.957031 262.851562 219.484375 C 259.925781 225.007812 256.585938 230.269531 252.828125 235.269531 C 249.070312 240.265625 244.945312 244.9375 240.449219 249.28125 Z M 240.449219 249.285156 " fill-opacity="1" fill-rule="nonzero"/><path fill="#ffffff" d="M 172.964844 224.128906 C 170.59375 223.894531 168.21875 223.808594 165.839844 223.875 C 164.910156 223.875 163.964844 223.910156 163.035156 223.839844 C 160.980469 223.683594 159.039062 222.667969 157.191406 221.835938 C 156.613281 221.578125 155.726562 221.503906 155.277344 222.085938 C 154.214844 223.453125 153.152344 224.820312 152.09375 226.191406 C 151.132812 227.347656 150.394531 228.628906 149.878906 230.042969 C 149.464844 231.320312 149.421875 232.980469 150.195312 234.140625 C 150.757812 234.863281 151.464844 235.390625 152.316406 235.730469 C 154.136719 236.585938 156.03125 237.199219 158.007812 237.574219 C 159.707031 237.890625 161.457031 237.757812 163.175781 237.738281 C 165.109375 237.792969 167.039062 237.71875 168.960938 237.515625 C 170.15625 237.332031 171.191406 236.824219 172.070312 235.996094 C 172.8125 235.292969 173.511719 234.546875 174.164062 233.757812 C 175.597656 232.058594 177.476562 229.828125 177.546875 227.480469 C 177.625 224.894531 174.980469 224.378906 172.964844 224.128906 Z M 174.394531 227.429688 L 174.394531 227.433594 Z M 174.390625 227.453125 C 174.378906 227.5 174.367188 227.542969 174.355469 227.589844 C 174.359375 227.5625 174.371094 227.511719 174.390625 227.449219 Z M 174.382812 227.394531 C 174.328125 227.203125 174.363281 227.261719 174.382812 227.394531 Z M 152.726562 232.28125 C 152.75 232.316406 152.78125 232.347656 152.8125 232.375 C 152.800781 232.367188 152.785156 232.359375 152.773438 232.351562 C 152.753906 232.332031 152.738281 232.308594 152.726562 232.28125 Z M 152.851562 232.441406 C 152.851562 232.433594 152.851562 232.429688 152.847656 232.421875 C 152.824219 232.40625 152.800781 232.382812 152.78125 232.359375 C 152.804688 232.375 152.820312 232.390625 152.832031 232.402344 L 152.84375 232.410156 C 152.871094 232.433594 152.875 232.441406 152.871094 232.4375 C 152.894531 232.460938 152.898438 232.46875 152.855469 232.4375 Z M 154.339844 233.191406 Z M 174.171875 228.1875 C 174.3125 227.777344 174.128906 228.269531 174.089844 228.351562 C 173.871094 228.789062 173.628906 229.207031 173.363281 229.613281 C 173.207031 229.851562 173.046875 230.085938 172.878906 230.316406 C 172.808594 230.414062 172.738281 230.511719 172.667969 230.605469 L 172.484375 230.847656 C 171.792969 231.726562 171.050781 232.5625 170.261719 233.355469 C 170.019531 233.59375 169.757812 233.8125 169.511719 234.050781 C 169.496094 234.0625 169.480469 234.074219 169.460938 234.085938 C 169.109375 234.242188 168.746094 234.351562 168.371094 234.421875 C 168.246094 234.433594 167.988281 234.460938 167.890625 234.46875 C 167.554688 234.484375 167.21875 234.496094 166.882812 234.507812 C 166.003906 234.535156 165.125 234.550781 164.246094 234.5625 C 162.648438 234.585938 161.019531 234.691406 159.425781 234.605469 C 159.292969 234.601562 158.875 234.515625 159.347656 234.609375 C 159.203125 234.582031 159.054688 234.5625 158.90625 234.539062 C 158.519531 234.464844 158.132812 234.378906 157.75 234.28125 C 156.855469 234.0625 155.972656 233.792969 155.105469 233.484375 C 154.914062 233.414062 154.722656 233.34375 154.53125 233.269531 C 154.449219 233.234375 154.367188 233.203125 154.285156 233.167969 L 154.230469 233.148438 C 153.855469 232.984375 153.492188 232.800781 153.136719 232.59375 C 153.035156 232.535156 152.941406 232.46875 152.84375 232.402344 C 152.769531 232.171875 152.738281 231.933594 152.753906 231.691406 C 152.832031 230.414062 153.792969 229.160156 154.554688 228.148438 C 155.3125 227.140625 156.09375 226.144531 156.871094 225.148438 C 158.1875 225.785156 159.554688 226.292969 160.96875 226.675781 C 162.035156 226.921875 163.113281 227.039062 164.203125 227.035156 C 166.339844 227.050781 168.480469 227.007812 170.613281 227.105469 C 171.136719 227.128906 171.65625 227.160156 172.175781 227.207031 C 172.402344 227.230469 172.628906 227.253906 172.855469 227.28125 C 172.757812 227.273438 173.28125 227.34375 173.382812 227.363281 C 173.710938 227.425781 174.035156 227.503906 174.355469 227.601562 C 174.332031 227.691406 174.3125 227.78125 174.28125 227.871094 C 174.25 227.976562 174.207031 228.078125 174.171875 228.183594 Z M 174.355469 227.605469 L 174.367188 227.605469 C 174.355469 227.625 174.351562 227.628906 174.355469 227.601562 Z M 174.566406 227.695312 C 174.539062 227.683594 174.5 227.660156 174.453125 227.632812 L 174.46875 227.636719 C 174.480469 227.640625 174.488281 227.644531 174.5 227.648438 C 174.519531 227.65625 174.539062 227.667969 174.558594 227.679688 L 174.558594 227.671875 L 174.566406 227.675781 L 174.570312 227.683594 C 174.582031 227.6875 174.59375 227.695312 174.601562 227.703125 L 174.628906 227.71875 C 174.628906 227.722656 174.613281 227.71875 174.578125 227.703125 C 174.585938 227.71875 174.582031 227.722656 174.566406 227.691406 Z M 174.566406 227.695312 " fill-opacity="1" fill-rule="nonzero"/><path fill="#ffffff" d="M 270.71875 162.925781 C 270.714844 162.714844 270.671875 162.515625 270.589844 162.324219 C 270.507812 162.132812 270.394531 161.964844 270.246094 161.816406 C 270.097656 161.667969 269.929688 161.554688 269.738281 161.472656 C 269.546875 161.390625 269.34375 161.347656 269.136719 161.34375 L 217.351562 161.34375 C 212.574219 158.929688 207.828125 155.199219 202.230469 155.351562 C 200.644531 155.398438 199.085938 155.769531 197.503906 155.863281 C 195.960938 155.910156 194.46875 155.65625 193.027344 155.105469 C 190.46875 154.1875 187.976562 153.117188 185.546875 151.902344 C 181.851562 150.136719 178.050781 148.257812 174.042969 147.292969 C 174.144531 141.382812 174.320312 135.410156 175.746094 129.648438 C 176.429688 126.761719 177.496094 124.023438 178.957031 121.441406 C 179.175781 121.574219 179.414062 121.628906 179.671875 121.605469 C 185.410156 120.859375 191.152344 119.117188 195.894531 115.703125 C 198.304688 113.992188 200.34375 111.917969 202.007812 109.476562 C 203.691406 106.886719 204.945312 104.097656 205.765625 101.121094 C 206.683594 97.746094 207.382812 94.324219 207.863281 90.859375 C 208.039062 89.753906 207.179688 88.511719 205.917969 88.917969 L 205.179688 89.152344 L 195.515625 92.261719 C 192.5625 93.210938 189.546875 94.050781 186.6875 95.257812 C 184.015625 96.390625 181.609375 98.007812 180.023438 100.488281 C 178.320312 103.160156 177.632812 106.429688 177.285156 109.535156 C 176.984375 112.296875 177.074219 115.042969 177.558594 117.777344 C 177.34375 118.082031 177.132812 118.386719 176.929688 118.699219 C 173.382812 124.191406 171.972656 130.703125 171.363281 137.128906 C 171.347656 137.277344 171.339844 137.429688 171.328125 137.582031 C 170.117188 134.453125 168.65625 131.445312 166.945312 128.558594 C 169.894531 120.03125 168.914062 110.496094 165.113281 102.390625 C 161.242188 94.132812 154.175781 87.640625 146.035156 83.679688 C 141.414062 81.429688 136.558594 79.949219 131.46875 79.242188 C 130.253906 79.074219 129.269531 79.90625 129.527344 81.1875 C 129.554688 81.332031 129.585938 81.480469 129.613281 81.625 C 131.613281 92.230469 129.15625 103.3125 132.714844 113.691406 C 133.449219 115.96875 134.511719 118.078125 135.90625 120.023438 C 137.65625 122.261719 139.691406 124.199219 142.011719 125.835938 C 145.78125 128.617188 149.992188 130.296875 154.640625 130.875 C 157.960938 131.289062 161.226562 130.9375 164.523438 130.578125 C 165.855469 132.847656 167.015625 135.195312 168.015625 137.628906 C 169.222656 140.5625 170.105469 143.59375 170.664062 146.722656 C 170.304688 146.6875 169.9375 146.664062 169.570312 146.648438 C 164.304688 146.445312 159.027344 148.589844 154.492188 151.085938 C 149.578125 153.722656 145.234375 157.09375 141.460938 161.203125 C 141.421875 161.25 141.386719 161.296875 141.351562 161.347656 L 83.429688 161.347656 C 80.921875 161.347656 78.410156 161.300781 75.902344 161.347656 C 75.792969 161.347656 75.683594 161.347656 75.574219 161.347656 C 75.363281 161.351562 75.164062 161.394531 74.972656 161.476562 C 74.78125 161.558594 74.613281 161.671875 74.464844 161.820312 C 74.316406 161.964844 74.203125 162.136719 74.121094 162.328125 C 74.039062 162.519531 73.996094 162.71875 73.992188 162.925781 C 73.328125 173.605469 74.101562 184.179688 76.3125 194.648438 C 78.386719 203.914062 81.65625 212.734375 86.117188 221.113281 C 90.296875 229.277344 95.523438 236.707031 101.792969 243.402344 C 106.347656 248.171875 111.679688 252.238281 117.097656 255.988281 C 121.859375 259.277344 126.902344 262.0625 132.222656 264.34375 C 137.542969 266.625 143.035156 268.359375 148.703125 269.542969 C 148.792969 269.582031 148.890625 269.609375 148.988281 269.628906 C 150.144531 269.863281 151.308594 270.074219 152.472656 270.265625 L 152.671875 270.300781 C 154.398438 270.585938 156.132812 270.828125 157.871094 271.027344 C 158.246094 271.070312 158.621094 271.113281 158.996094 271.15625 L 159.273438 271.183594 C 175.234375 272.886719 191.789062 271.667969 206.757812 265.691406 C 206.945312 265.617188 207.136719 265.535156 207.324219 265.457031 C 208.175781 265.113281 209.023438 264.757812 209.867188 264.382812 C 211.519531 263.648438 213.144531 262.84375 214.738281 261.988281 C 215.097656 261.800781 215.453125 261.605469 215.808594 261.410156 C 215.859375 261.382812 215.90625 261.355469 215.953125 261.332031 C 223.753906 256.996094 230.851562 251.714844 237.25 245.492188 C 238.988281 243.816406 240.660156 242.082031 242.277344 240.292969 C 249.71875 232.023438 255.804688 222.851562 260.53125 212.78125 C 265.25 202.796875 268.375 192.339844 269.910156 181.40625 C 270.761719 175.273438 271.03125 169.109375 270.71875 162.925781 Z M 180.335938 110.761719 C 180.519531 108.0625 181.046875 105.152344 182.359375 102.757812 C 183.566406 100.550781 185.542969 99.179688 187.808594 98.195312 C 190.316406 97.101562 193.011719 96.386719 195.613281 95.550781 L 204.382812 92.734375 C 203.582031 97.523438 202.554688 102.367188 200.101562 106.582031 C 197.46875 111.109375 193.15625 114.339844 188.320312 116.234375 C 186.011719 117.132812 183.632812 117.792969 181.191406 118.214844 C 182.28125 116.863281 183.46875 115.605469 184.757812 114.4375 C 187.398438 112.117188 190.195312 109.996094 193.144531 108.078125 C 193.324219 107.96875 193.472656 107.828125 193.597656 107.664062 C 193.722656 107.496094 193.808594 107.3125 193.863281 107.109375 C 193.914062 106.90625 193.929688 106.703125 193.902344 106.496094 C 193.878906 106.292969 193.8125 106.097656 193.714844 105.914062 C 193.605469 105.734375 193.46875 105.582031 193.300781 105.457031 C 193.132812 105.332031 192.949219 105.242188 192.746094 105.1875 C 192.546875 105.136719 192.339844 105.125 192.132812 105.152344 C 191.925781 105.179688 191.730469 105.246094 191.550781 105.347656 C 187.582031 108.035156 183.609375 110.882812 180.335938 114.386719 C 180.253906 113.179688 180.253906 111.972656 180.335938 110.761719 Z M 156.316406 127.867188 C 155.882812 127.839844 155.453125 127.804688 155.023438 127.757812 C 154.894531 127.742188 154.769531 127.726562 154.636719 127.710938 C 154.707031 127.71875 154.914062 127.753906 154.589844 127.703125 C 154.328125 127.664062 154.0625 127.625 153.800781 127.578125 C 152.863281 127.410156 151.941406 127.191406 151.03125 126.917969 C 148.960938 126.285156 147.019531 125.382812 145.207031 124.203125 C 142.972656 122.785156 140.976562 121.089844 139.210938 119.117188 C 137.855469 117.519531 136.816406 115.734375 136.089844 113.769531 C 134.503906 109.605469 133.929688 105.367188 133.773438 100.992188 C 133.554688 94.882812 133.84375 88.742188 132.96875 82.679688 C 140.5 84.101562 147.742188 87.308594 153.535156 92.367188 C 159.964844 97.984375 164.367188 105.800781 165.3125 114.320312 C 165.730469 117.90625 165.527344 121.453125 164.703125 124.96875 C 161.683594 120.488281 158.402344 116.210938 154.863281 112.128906 C 152.355469 109.179688 149.785156 106.289062 147.242188 103.375 C 147.09375 103.230469 146.921875 103.117188 146.726562 103.039062 C 146.535156 102.960938 146.335938 102.921875 146.125 102.921875 C 145.917969 102.921875 145.71875 102.964844 145.523438 103.042969 C 145.332031 103.125 145.164062 103.238281 145.015625 103.386719 C 144.867188 103.53125 144.753906 103.703125 144.675781 103.894531 C 144.59375 104.085938 144.554688 104.289062 144.550781 104.496094 C 144.550781 104.703125 144.589844 104.90625 144.667969 105.097656 C 144.746094 105.292969 144.859375 105.460938 145.007812 105.609375 C 149.410156 110.648438 153.910156 115.617188 157.976562 120.9375 C 159.625 123.09375 161.21875 125.320312 162.703125 127.613281 C 160.582031 127.875 158.453125 127.957031 156.316406 127.867188 Z M 154.441406 154.753906 C 156.589844 153.4375 158.84375 152.328125 161.195312 151.425781 C 163.378906 150.554688 165.644531 150.019531 167.988281 149.816406 C 173.238281 149.527344 178.207031 151.890625 182.835938 154.09375 C 185.367188 155.300781 187.890625 156.53125 190.507812 157.542969 C 191.863281 158.109375 193.261719 158.542969 194.703125 158.839844 C 196.371094 159.085938 198.035156 159.0625 199.695312 158.777344 C 201.117188 158.507812 202.546875 158.453125 203.984375 158.621094 C 205.367188 158.875 206.695312 159.300781 207.96875 159.898438 C 208.929688 160.339844 209.863281 160.832031 210.789062 161.34375 L 145.71875 161.34375 C 148.378906 158.816406 151.285156 156.621094 154.441406 154.753906 Z M 80.78125 164.503906 L 144.722656 164.503906 C 146.789062 167.574219 148.425781 171.019531 148.351562 174.800781 C 148.328125 175.929688 148.125 177.054688 148.140625 178.1875 C 148.15625 179.277344 148.386719 180.324219 148.832031 181.320312 C 149.492188 182.816406 150.589844 184.042969 151.539062 185.355469 C 151.773438 185.675781 152.003906 186.007812 152.210938 186.347656 C 152.3125 186.515625 152.410156 186.683594 152.5 186.855469 C 152.597656 187.046875 152.679688 187.226562 152.679688 187.226562 C 152.800781 187.535156 152.890625 187.855469 152.941406 188.1875 C 152.933594 188.203125 152.953125 188.511719 152.953125 188.566406 C 152.953125 188.652344 152.949219 188.738281 152.945312 188.828125 L 152.933594 188.929688 C 152.933594 188.917969 152.929688 188.941406 152.917969 189.007812 C 152.789062 189.632812 152.507812 190.1875 152.074219 190.660156 C 151.558594 191.234375 150.972656 191.71875 150.316406 192.117188 C 148.597656 193.117188 146.8125 193.984375 144.964844 194.71875 L 138.316406 197.675781 C 132.234375 200.382812 122.273438 204.03125 123.671875 212.488281 C 124.214844 215.765625 126.636719 218.277344 128.390625 220.957031 C 128.828125 221.601562 129.210938 222.28125 129.539062 222.988281 C 129.578125 223.070312 129.589844 223.09375 129.59375 223.09375 C 129.597656 223.097656 129.601562 223.121094 129.632812 223.210938 C 129.699219 223.386719 129.761719 223.5625 129.816406 223.746094 C 129.871094 223.925781 129.921875 224.105469 129.960938 224.289062 C 129.976562 224.363281 130.03125 224.683594 130.039062 224.714844 C 130.21875 226.390625 129.5625 227.925781 128.851562 229.453125 C 128 231.292969 127.132812 233.140625 127.035156 235.203125 C 127.003906 236.9375 127.40625 238.5625 128.246094 240.082031 C 129.730469 242.964844 132.195312 245.207031 133.644531 248.117188 C 133.726562 248.285156 133.808594 248.46875 133.882812 248.660156 C 133.828125 248.660156 133.773438 248.660156 133.714844 248.65625 C 133.128906 248.566406 132.578125 248.378906 132.058594 248.09375 C 130.824219 247.375 129.699219 246.515625 128.683594 245.503906 C 126.421875 243.421875 124.164062 241.324219 121.988281 239.144531 C 117.726562 234.878906 113.742188 230.273438 110.867188 224.9375 C 109.449219 222.230469 108.332031 219.402344 107.523438 216.453125 C 106.640625 213.375 105.902344 210.25 104.742188 207.257812 C 103.675781 204.425781 102.167969 201.851562 100.21875 199.535156 C 98.390625 197.453125 96.339844 195.621094 94.070312 194.03125 C 89.050781 190.398438 83.394531 187.789062 77.859375 185.054688 C 77.265625 180.347656 76.957031 175.621094 76.9375 170.878906 C 76.921875 168.753906 76.972656 166.628906 77.070312 164.503906 Z M 126.714844 210.355469 C 126.714844 210.371094 126.710938 210.375 126.714844 210.355469 Z M 209.480469 261.101562 C 209.394531 261.140625 209.304688 261.179688 209.21875 261.222656 C 208.703125 261.457031 208.183594 261.6875 207.664062 261.914062 C 207.101562 262.160156 206.539062 262.394531 205.96875 262.621094 C 205.621094 262.761719 205.273438 262.898438 204.925781 263.035156 C 203.070312 263.746094 201.191406 264.386719 199.285156 264.957031 C 198.6875 265.140625 198.082031 265.3125 197.480469 265.476562 L 197.214844 265.550781 C 196.75 265.675781 196.285156 265.796875 195.816406 265.914062 C 195.632812 265.960938 195.449219 266.007812 195.261719 266.054688 C 194.90625 266.140625 194.546875 266.222656 194.191406 266.304688 C 193.613281 266.4375 193.035156 266.566406 192.457031 266.6875 L 192.167969 266.75 C 191.710938 266.84375 191.25 266.933594 190.792969 267.019531 L 190.726562 267.03125 C 188.800781 267.390625 186.863281 267.691406 184.914062 267.925781 C 184.800781 267.941406 184.691406 267.953125 184.578125 267.964844 C 184.164062 268.015625 183.746094 268.0625 183.328125 268.109375 C 182.96875 268.144531 182.613281 268.179688 182.253906 268.214844 C 181.953125 268.242188 181.648438 268.269531 181.347656 268.296875 C 180.84375 268.335938 180.339844 268.378906 179.835938 268.414062 L 179.578125 268.429688 C 175.644531 268.6875 171.703125 268.742188 167.761719 268.601562 C 165.667969 268.527344 163.574219 268.402344 161.488281 268.226562 C 161.058594 268.191406 160.632812 268.152344 160.207031 268.105469 C 159.851562 268.070312 159.492188 268.039062 159.136719 268 C 158.109375 267.890625 157.082031 267.761719 156.066406 267.617188 C 158.253906 266.855469 160.394531 265.980469 162.492188 264.992188 C 166.515625 263.066406 170.582031 260.40625 175.175781 260.246094 C 177.757812 260.15625 180.304688 260.746094 182.882812 260.648438 C 185.304688 260.515625 187.53125 259.785156 189.558594 258.457031 C 191.214844 257.4375 192.867188 256.148438 194.683594 255.59375 C 196.738281 254.964844 198.800781 255.558594 200.71875 256.40625 C 203.289062 257.542969 205.757812 258.800781 208.496094 259.503906 C 209.496094 259.753906 210.507812 259.953125 211.53125 260.09375 C 210.851562 260.4375 210.171875 260.78125 209.480469 261.101562 Z M 218.726562 255.949219 C 218.027344 256.390625 217.328125 256.820312 216.621094 257.246094 C 215.515625 257.175781 214.398438 257.230469 213.292969 257.140625 C 212.113281 257.035156 210.949219 256.847656 209.800781 256.570312 C 207.460938 255.945312 205.207031 255.09375 203.039062 254.007812 C 200.820312 252.980469 198.421875 251.980469 195.921875 252.171875 C 193.664062 252.339844 191.6875 253.351562 189.8125 254.546875 C 188.070312 255.652344 186.386719 256.882812 184.371094 257.3125 C 181.929688 257.839844 179.34375 257.246094 176.890625 257.113281 C 174.390625 256.984375 171.964844 257.34375 169.609375 258.199219 C 167.320312 259.074219 165.09375 260.09375 162.933594 261.25 C 158.578125 263.378906 154.070312 265.113281 149.40625 266.453125 C 139.671875 264.453125 130.589844 260.820312 122.160156 255.550781 C 117.4375 252.585938 112.964844 249.289062 108.738281 245.65625 C 102.089844 239.917969 96.65625 232.867188 92.132812 225.367188 C 87.484375 217.726562 83.851562 209.625 81.230469 201.074219 C 80.027344 197.054688 79.089844 192.980469 78.417969 188.839844 C 82.71875 190.953125 87.03125 193.074219 91.019531 195.746094 C 95.585938 198.804688 99.496094 202.601562 101.570312 207.785156 C 102.777344 210.796875 103.527344 213.960938 104.414062 217.074219 C 105.277344 220.222656 106.449219 223.25 107.9375 226.15625 C 110.871094 231.738281 115.027344 236.613281 119.445312 241.070312 C 121.921875 243.566406 124.496094 245.96875 127.097656 248.332031 C 129.601562 250.613281 133.265625 253.066406 136.652344 251.070312 C 136.953125 250.886719 137.171875 250.628906 137.308594 250.300781 C 137.441406 249.96875 137.464844 249.632812 137.378906 249.289062 C 136.664062 245.945312 134.289062 243.414062 132.367188 240.714844 C 131.902344 240.074219 131.476562 239.40625 131.09375 238.710938 C 130.746094 238.121094 130.496094 237.492188 130.347656 236.824219 C 130.304688 236.660156 130.273438 236.496094 130.242188 236.328125 C 130.234375 236.28125 130.210938 236.089844 130.207031 236.039062 C 130.175781 235.632812 130.179688 235.226562 130.222656 234.820312 C 130.363281 233.996094 130.605469 233.207031 130.945312 232.445312 C 131.714844 230.628906 132.753906 228.871094 133.085938 226.898438 C 133.386719 225.035156 133.136719 223.25 132.335938 221.542969 C 131.046875 218.628906 128.644531 216.390625 127.277344 213.519531 L 127.222656 213.402344 C 127.199219 213.339844 127.175781 213.277344 127.148438 213.214844 C 127.082031 213.039062 127.019531 212.859375 126.964844 212.679688 C 126.859375 212.328125 126.777344 211.976562 126.71875 211.617188 C 126.695312 211.289062 126.691406 210.960938 126.703125 210.636719 C 126.707031 210.523438 126.714844 210.410156 126.726562 210.300781 L 126.730469 210.28125 C 126.765625 210.058594 126.816406 209.835938 126.878906 209.617188 C 126.949219 209.34375 127.046875 209.078125 127.160156 208.820312 C 127.347656 208.4375 127.5625 208.074219 127.800781 207.722656 C 128.242188 207.121094 128.746094 206.578125 129.308594 206.085938 C 132.054688 203.625 135.90625 202.191406 139.324219 200.671875 L 145.972656 197.714844 C 147.875 196.949219 149.722656 196.074219 151.519531 195.089844 C 153.039062 194.1875 154.558594 192.996094 155.386719 191.402344 C 155.828125 190.554688 156.0625 189.65625 156.09375 188.707031 C 156.121094 187.753906 155.945312 186.84375 155.5625 185.972656 C 154.914062 184.4375 153.816406 183.199219 152.847656 181.867188 C 151.746094 180.359375 151.210938 179.253906 151.332031 177.332031 C 151.449219 176.195312 151.507812 175.054688 151.503906 173.910156 C 151.457031 172.816406 151.308594 171.738281 151.058594 170.671875 C 150.539062 168.59375 149.730469 166.632812 148.640625 164.792969 C 148.582031 164.695312 148.519531 164.601562 148.464844 164.503906 L 199.421875 164.503906 C 200.136719 165.683594 201.316406 166.558594 202.328125 167.484375 C 203.476562 168.539062 204.679688 169.6875 205.292969 171.0625 C 205.582031 171.707031 205.695312 172.378906 205.632812 173.082031 C 205.515625 173.929688 205.324219 174.765625 205.058594 175.582031 C 204.566406 177.464844 204.417969 179.457031 205.503906 181.179688 C 206.578125 182.742188 208.015625 183.828125 209.8125 184.433594 C 211.625 185.132812 213.617188 185.304688 215.398438 186.089844 C 218.035156 187.246094 219.679688 189.453125 220.933594 192.054688 C 222.207031 194.703125 222.988281 197.851562 223.636719 200.828125 C 223.898438 201.804688 224.007812 202.796875 223.957031 203.804688 C 223.847656 204.605469 223.550781 205.328125 223.066406 205.976562 C 222.089844 207.421875 220.730469 208.597656 219.675781 209.996094 C 217.53125 212.832031 216.3125 216.9375 218.484375 220.136719 C 219.023438 220.914062 219.699219 221.542969 220.515625 222.019531 C 221.332031 222.496094 222.214844 222.78125 223.15625 222.871094 C 224.847656 223.089844 226.742188 222.796875 228.316406 223.039062 C 231.125 223.464844 233.179688 225.457031 234.667969 227.835938 C 236.46875 230.71875 237.273438 233.824219 238.242188 237.097656 C 238.457031 237.820312 238.6875 238.535156 238.929688 239.246094 C 232.921875 245.691406 226.1875 251.261719 218.726562 255.949219 Z M 264.011719 194.378906 C 261.105469 204.78125 256.753906 214.539062 250.960938 223.652344 C 248.085938 228.183594 244.890625 232.480469 241.378906 236.535156 C 240.570312 233.867188 239.863281 231.171875 238.679688 228.625 C 237.359375 225.789062 235.453125 223.0625 232.757812 221.378906 C 231.3125 220.488281 229.742188 219.976562 228.050781 219.847656 C 226.375 219.699219 224.589844 220.042969 222.976562 219.644531 C 222.296875 219.507812 221.734375 219.175781 221.292969 218.644531 C 220.917969 218.148438 220.679688 217.597656 220.570312 216.988281 C 220.453125 216.324219 220.472656 215.667969 220.628906 215.011719 C 220.835938 214.207031 221.160156 213.453125 221.605469 212.75 C 222.507812 211.273438 223.769531 210.113281 224.863281 208.796875 C 226.167969 207.21875 227.09375 205.492188 227.128906 203.398438 C 227.164062 201.46875 226.597656 199.507812 226.136719 197.644531 C 225.765625 196.121094 225.316406 194.621094 224.789062 193.144531 C 223.707031 190.195312 222.195312 187.238281 219.761719 185.171875 C 218.425781 184.035156 216.917969 183.207031 215.242188 182.6875 C 213.539062 182.152344 211.589844 181.910156 210.066406 181.109375 C 208.789062 180.4375 207.777344 179.523438 207.816406 178.03125 C 207.859375 176.199219 208.824219 174.507812 208.804688 172.640625 C 208.765625 169.160156 206.160156 166.675781 203.730469 164.503906 L 261.277344 164.503906 C 263.386719 164.503906 265.511719 164.578125 267.625 164.535156 C 267.957031 174.667969 266.753906 184.617188 264.011719 194.378906 Z M 264.011719 194.378906 " fill-opacity="1" fill-rule="nonzero"/></svg>