<svg xmlns="http://www.w3.org/2000/svg" xmlns:xlink="http://www.w3.org/1999/xlink" width="500" zoomAndPan="magnify" viewBox="0 0 375 374.999991" height="500" preserveAspectRatio="xMidYMid meet" version="1.0"><defs><clipPath id="38db504fbc"><path d="M 187.5 0 C 83.945312 0 0 83.945312 0 187.5 C 0 291.054688 83.945312 375 187.5 375 C 291.054688 375 375 291.054688 375 187.5 C 375 83.945312 291.054688 0 187.5 0 Z M 187.5 0 " clip-rule="nonzero"/></clipPath><clipPath id="37f0970a96"><path d="M 89.082031 37.5 L 306.527344 37.5 L 306.527344 331.359375 L 89.082031 331.359375 Z M 89.082031 37.5 " clip-rule="nonzero"/></clipPath></defs><g clip-path="url(#38db504fbc)"><rect x="-37.5" width="450" fill="#fec743" y="-37.499999" height="449.999989" fill-opacity="1"/></g><g clip-path="url(#37f0970a96)"><path fill="#ffffff" d="M 124.378906 199.117188 C 124.328125 204.519531 123.804688 209.867188 122.761719 215.160156 C 122.527344 216.570312 122.632812 218.03125 123.023438 219.414062 C 123.492188 221.109375 124.144531 222.726562 124.980469 224.242188 C 120.285156 232.066406 118.222656 241.199219 119.109375 250.277344 C 119.632812 252.546875 120.675781 254.660156 122.136719 256.460938 L 121.925781 256.460938 C 123.257812 258.128906 125.632812 258.519531 127.457031 257.398438 C 132.363281 254.371094 137.164062 251.214844 141.886719 247.929688 C 131.164062 276.523438 115.925781 303.210938 96.726562 326.976562 C 96.359375 327.394531 95.734375 327.472656 95.292969 327.105469 C 95.160156 326.976562 95.054688 326.847656 95.003906 326.691406 C 92.421875 319.28125 92.5 311.21875 95.238281 303.886719 C 99.882812 286.828125 104.945312 269.867188 110.421875 253.066406 C 115.691406 236.632812 117.753906 219.335938 116.5 202.144531 C 118.953125 200.707031 121.613281 199.691406 124.378906 199.117188 Z M 218.117188 166.769531 C 208.542969 185.917969 194.347656 202.351562 176.84375 214.640625 C 160.957031 229.457031 143.632812 242.683594 125.136719 254.136719 C 124.039062 252.832031 123.257812 251.292969 122.839844 249.625 C 122.136719 241.980469 123.753906 234.3125 127.457031 227.578125 C 130.535156 230.058594 134.789062 230.371094 138.207031 228.386719 C 150.179688 221.398438 161.894531 213.960938 173.320312 206.082031 C 189.992188 195.101562 205.046875 181.847656 218.117188 166.769531 Z M 216.835938 98.574219 C 221.351562 98.574219 225.578125 100.894531 227.949219 104.753906 C 237.917969 120.828125 235.648438 141.644531 222.445312 155.210938 C 208.046875 173.785156 190.722656 189.828125 171.105469 202.796875 C 159.753906 210.597656 148.09375 218.003906 136.199219 224.945312 L 136.121094 224.945312 C 133.5625 226.433594 130.277344 225.648438 128.683594 223.171875 C 127.746094 221.710938 127.015625 220.09375 126.570312 218.398438 C 126.363281 217.589844 126.363281 216.726562 126.570312 215.917969 C 128.476562 205.925781 128.738281 195.671875 127.300781 185.578125 C 123.597656 173.472656 126.859375 160.324219 135.78125 151.351562 C 147.808594 139.921875 159.675781 128.390625 171.445312 116.730469 C 183.703125 105.09375 199.933594 98.597656 216.835938 98.574219 Z M 165.183594 94.894531 C 171.992188 94.84375 178.355469 98.207031 182.164062 103.84375 C 177.289062 106.632812 172.746094 110 168.679688 113.886719 C 156.914062 125.523438 145.015625 137.078125 133.015625 148.480469 C 123.101562 158.417969 119.421875 173.003906 123.414062 186.4375 C 123.804688 189.308594 124.066406 192.179688 124.171875 195.074219 C 121.277344 195.59375 118.484375 196.535156 115.875 197.863281 C 115.351562 195.230469 114.414062 192.726562 113.082031 190.402344 C 112.613281 189.59375 112.378906 188.707031 112.351562 187.796875 C 112.039062 173.941406 114.9375 160.246094 120.859375 147.75 C 130.953125 130.007812 142.539062 113.207031 155.476562 97.449219 C 158.453125 95.808594 161.789062 94.921875 165.183594 94.894531 Z M 243.367188 79.867188 C 260.847656 84.144531 278.5625 87.484375 296.40625 89.832031 C 285.320312 89.335938 274.207031 89.46875 263.117188 90.25 C 261.109375 90.382812 259.125 90.875 257.273438 91.710938 C 251.976562 88.605469 247.257812 84.589844 243.367188 79.867188 Z M 264.449219 68.988281 C 271.257812 75.40625 279.082031 80.675781 287.589844 84.5625 C 273.214844 82.398438 258.96875 79.582031 244.855469 76.136719 C 251.324219 73.582031 257.847656 71.179688 264.449219 68.988281 Z M 216.132812 41.464844 C 234.421875 41.308594 251.535156 50.464844 261.578125 65.753906 C 254.71875 68.074219 247.933594 70.605469 241.230469 73.292969 C 238.671875 74.335938 237.421875 77.234375 238.464844 79.789062 C 238.621094 80.234375 238.855469 80.625 239.144531 80.988281 C 243.132812 86.15625 247.988281 90.589844 253.492188 94.085938 C 249.839844 97.085938 247.59375 101.46875 247.308594 106.191406 C 246.421875 120.410156 244.988281 134.601562 242.976562 148.714844 C 240.367188 164.65625 234.785156 179.941406 226.488281 193.796875 C 218.742188 206.371094 207.105469 216.101562 193.359375 221.5 C 186.523438 223.25 179.480469 224.109375 172.410156 224.058594 C 174.757812 221.996094 177.050781 219.882812 179.347656 217.746094 C 201.15625 202.40625 217.800781 180.855469 227.195312 155.914062 C 240.03125 140.964844 241.699219 119.390625 231.316406 102.644531 C 228.210938 97.632812 222.734375 94.582031 216.835938 94.582031 C 206.035156 94.609375 195.367188 97.136719 185.714844 101.964844 C 180.078125 93.304688 169.589844 89.128906 159.546875 91.605469 C 164.816406 82.503906 169.410156 73.03125 173.269531 63.273438 C 173.503906 62.703125 173.816406 62.179688 174.207031 61.710938 C 183.730469 50.597656 197.089844 43.449219 211.621094 41.726562 C 213.132812 41.570312 214.644531 41.492188 216.160156 41.464844 Z M 216.992188 37.5 C 215.035156 37.472656 213.105469 37.578125 211.175781 37.761719 C 195.628906 39.613281 181.355469 47.230469 171.15625 59.128906 C 170.503906 59.910156 169.957031 60.824219 169.566406 61.8125 C 165.339844 72.433594 160.25 82.710938 154.382812 92.519531 C 140.425781 109.164062 128.03125 127.035156 117.285156 145.898438 C 111.074219 159.019531 108.023438 173.367188 108.363281 187.875 C 108.414062 189.464844 108.832031 191.003906 109.613281 192.386719 C 110.867188 194.578125 111.726562 196.976562 112.144531 199.457031 C 113.8125 217.117188 111.910156 234.9375 106.484375 251.84375 C 101.003906 268.644531 95.917969 285.601562 91.300781 302.6875 C 88.351562 310.878906 88.351562 319.828125 91.300781 328.019531 C 92.214844 330.628906 95.082031 331.984375 97.691406 331.074219 C 98.550781 330.757812 99.335938 330.210938 99.910156 329.480469 C 120.597656 303.886719 136.746094 274.929688 147.652344 243.886719 C 154.640625 238.824219 161.453125 233.5 168.027344 227.917969 C 171.730469 228.128906 175.460938 228.101562 179.164062 227.839844 L 179.164062 237.570312 C 179.164062 242.816406 183.417969 247.09375 188.660156 247.09375 L 201.914062 247.09375 C 203.011719 247.042969 203.871094 246.101562 203.820312 245.007812 C 203.792969 243.964844 202.957031 243.128906 201.914062 243.101562 L 188.660156 243.101562 C 185.636719 243.101562 183.15625 240.648438 183.132812 237.597656 C 183.132812 237.570312 183.132812 237.570312 183.132812 237.570312 L 183.132812 227.476562 C 187.019531 227.007812 190.878906 226.277344 194.660156 225.308594 C 209.324219 219.597656 221.691406 209.265625 229.933594 195.855469 C 238.515625 181.558594 244.28125 165.777344 246.96875 149.316406 C 249.003906 135.097656 250.464844 120.773438 251.351562 106.425781 L 251.273438 106.425781 C 251.691406 99.902344 256.882812 94.6875 263.40625 94.214844 C 274.753906 93.433594 286.152344 93.328125 297.503906 93.878906 C 300.503906 93.957031 303.425781 92.886719 305.667969 90.875 C 306.789062 89.859375 306.867188 88.136719 305.875 87.015625 C 305.484375 86.597656 304.988281 86.3125 304.46875 86.179688 C 289.648438 82.683594 276.109375 75.09375 265.386719 64.320312 C 254.875 47.726562 236.636719 37.628906 216.992188 37.5 " fill-opacity="1" fill-rule="nonzero"/></g><path fill="#ffffff" d="M 234.65625 66.09375 C 234.679688 63.171875 232.359375 60.796875 229.4375 60.746094 C 226.515625 60.71875 224.140625 63.066406 224.089844 65.988281 C 224.089844 66.015625 224.089844 66.066406 224.089844 66.09375 C 224.0625 69.015625 226.410156 71.390625 229.332031 71.441406 C 232.230469 71.46875 234.628906 69.117188 234.65625 66.195312 C 234.65625 66.171875 234.65625 66.117188 234.65625 66.09375 " fill-opacity="1" fill-rule="nonzero"/></svg>