<svg xmlns="http://www.w3.org/2000/svg" xmlns:xlink="http://www.w3.org/1999/xlink" width="500" zoomAndPan="magnify" viewBox="0 0 375 374.999991" height="500" preserveAspectRatio="xMidYMid meet" version="1.0"><defs><clipPath id="a383833111"><path d="M 187.5 0 C 83.945312 0 0 83.945312 0 187.5 C 0 291.054688 83.945312 375 187.5 375 C 291.054688 375 375 291.054688 375 187.5 C 375 83.945312 291.054688 0 187.5 0 Z M 187.5 0 " clip-rule="nonzero"/></clipPath><clipPath id="3e1902c756"><path d="M 215 242 L 337.5 242 L 337.5 275 L 215 275 Z M 215 242 " clip-rule="nonzero"/></clipPath><clipPath id="792bf1055f"><path d="M 37.5 84 L 133 84 L 133 136 L 37.5 136 Z M 37.5 84 " clip-rule="nonzero"/></clipPath><clipPath id="c9b1bf3875"><path d="M 37.5 113 L 103 113 L 103 140 L 37.5 140 Z M 37.5 113 " clip-rule="nonzero"/></clipPath><clipPath id="8a4cb891c4"><path d="M 53 75.5625 L 72 75.5625 L 72 94 L 53 94 Z M 53 75.5625 " clip-rule="nonzero"/></clipPath><clipPath id="c27386ca86"><path d="M 258 279 L 279 279 L 279 299.8125 L 258 299.8125 Z M 258 279 " clip-rule="nonzero"/></clipPath></defs><g clip-path="url(#a383833111)"><rect x="-37.5" width="450" fill="#58a39d" y="-37.499999" height="449.999989" fill-opacity="1"/></g><path fill="#ffffff" d="M 266.800781 258.152344 C 265.351562 258.152344 264.441406 258.152344 264.210938 258.152344 C 263.9375 258.171875 263.675781 258.136719 263.417969 258.050781 C 263.160156 257.964844 262.929688 257.832031 262.726562 257.652344 C 262.523438 257.476562 262.359375 257.265625 262.238281 257.023438 C 262.117188 256.777344 262.046875 256.523438 262.03125 256.25 C 262.011719 255.980469 262.046875 255.71875 262.132812 255.460938 C 262.21875 255.203125 262.351562 254.972656 262.527344 254.765625 C 262.707031 254.5625 262.917969 254.398438 263.160156 254.28125 C 263.402344 254.160156 263.660156 254.089844 263.929688 254.070312 C 278.21875 251.871094 292.769531 243.074219 297 240.351562 C 296.574219 239.15625 296.054688 237.996094 295.441406 236.882812 L 295.441406 236.847656 C 292.722656 231.859375 285.726562 222.558594 268.90625 216.09375 C 258.355469 212.0625 247.441406 209.726562 236.167969 209.085938 C 231.195312 208.753906 226.230469 208.871094 221.277344 209.445312 C 221.015625 209.476562 220.757812 209.457031 220.5 209.386719 C 220.246094 209.3125 220.015625 209.199219 219.804688 209.039062 C 219.59375 208.875 219.421875 208.683594 219.289062 208.453125 C 219.152344 208.226562 219.066406 207.980469 219.027344 207.71875 C 218.988281 207.457031 219 207.199219 219.058594 206.941406 C 219.121094 206.683594 219.230469 206.449219 219.382812 206.230469 C 219.535156 206.015625 219.726562 205.839844 219.949219 205.695312 C 220.171875 205.554688 220.414062 205.457031 220.671875 205.410156 C 225.898438 204.78125 231.140625 204.644531 236.390625 205.007812 C 248.09375 205.675781 259.421875 208.101562 270.375 212.28125 C 286.792969 218.597656 294.734375 227.457031 298.546875 234.058594 C 303.171875 234.957031 308.074219 235.675781 312.773438 236.378906 C 328.148438 238.652344 334.929688 239.84375 334.652344 244.257812 C 334.535156 246.238281 332.734375 247.90625 328.628906 249.816406 C 311.945312 257.589844 276.730469 258.152344 266.800781 258.152344 Z M 300.714844 238.628906 C 300.996094 239.347656 301.222656 240.078125 301.398438 240.828125 C 301.476562 241.226562 301.4375 241.617188 301.285156 241.992188 C 301.132812 242.367188 300.886719 242.671875 300.554688 242.902344 C 294.054688 247.253906 287.171875 250.882812 279.914062 253.792969 C 294.484375 253.191406 315.613281 251.410156 326.921875 246.15625 C 328.128906 245.648438 329.253906 244.996094 330.289062 244.195312 C 327.960938 242.789062 318.925781 241.476562 312.191406 240.453125 C 308.398438 239.875 304.515625 239.296875 300.714844 238.628906 Z M 300.714844 238.628906 " fill-opacity="1" fill-rule="nonzero"/><g clip-path="url(#3e1902c756)"><path fill="#ffffff" d="M 226.578125 274.171875 C 223.390625 274.171875 220.214844 273.964844 217.054688 273.546875 C 216.785156 273.511719 216.53125 273.425781 216.296875 273.289062 C 216.0625 273.152344 215.863281 272.976562 215.699219 272.761719 C 215.535156 272.546875 215.417969 272.308594 215.347656 272.046875 C 215.277344 271.785156 215.261719 271.519531 215.296875 271.253906 C 215.332031 270.984375 215.417969 270.734375 215.554688 270.5 C 215.691406 270.265625 215.863281 270.0625 216.082031 269.898438 C 216.296875 269.734375 216.535156 269.617188 216.796875 269.546875 C 217.058594 269.476562 217.320312 269.460938 217.589844 269.496094 C 231.664062 271.367188 243.394531 268.421875 254.746094 265.578125 C 259.671875 264.339844 264.761719 263.066406 269.964844 262.175781 C 276.207031 261.132812 282.894531 260.527344 289.359375 259.949219 C 303.8125 258.644531 318.757812 257.296875 328.683594 250.972656 C 333.074219 248.175781 333.160156 246.890625 333.160156 246.859375 C 332.785156 246.453125 332.328125 246.171875 331.800781 246.015625 C 331.558594 245.90625 331.34375 245.757812 331.15625 245.5625 C 330.972656 245.371094 330.828125 245.152344 330.730469 244.90625 C 330.632812 244.65625 330.582031 244.398438 330.585938 244.132812 C 330.585938 243.867188 330.636719 243.609375 330.742188 243.363281 C 330.84375 243.117188 330.988281 242.898438 331.175781 242.710938 C 331.363281 242.519531 331.578125 242.375 331.824219 242.269531 C 332.070312 242.164062 332.324219 242.109375 332.59375 242.105469 C 332.859375 242.101562 333.117188 242.148438 333.367188 242.242188 C 336.347656 243.476562 337.101562 245.246094 337.21875 246.511719 C 337.433594 249.007812 335.414062 251.527344 330.863281 254.417969 C 320.128906 261.289062 304.683594 262.691406 289.746094 264.054688 C 283.359375 264.632812 276.75 265.230469 270.695312 266.242188 C 265.644531 267.082031 260.636719 268.339844 255.792969 269.558594 C 246.640625 271.824219 237.277344 274.171875 226.578125 274.171875 Z M 226.578125 274.171875 " fill-opacity="1" fill-rule="nonzero"/></g><g clip-path="url(#792bf1055f)"><path fill="#ffffff" d="M 110.785156 135.390625 C 110.242188 135.386719 109.773438 135.199219 109.382812 134.824219 C 109.1875 134.636719 109.03125 134.421875 108.921875 134.175781 C 108.8125 133.925781 108.753906 133.667969 108.746094 133.398438 C 108.738281 133.128906 108.785156 132.867188 108.882812 132.613281 C 108.980469 132.359375 109.121094 132.136719 109.308594 131.941406 C 121.679688 118.964844 126.191406 100.113281 127.679688 91.246094 C 122.5 95.09375 116.828125 97.976562 110.667969 99.894531 C 107.402344 100.902344 104.367188 102.375 101.554688 104.316406 C 98.742188 106.257812 96.289062 108.578125 94.195312 111.273438 C 93.953125 111.621094 93.636719 111.867188 93.242188 112.015625 C 92.847656 112.164062 92.445312 112.191406 92.035156 112.089844 C 91.851562 112.050781 73.28125 107.679688 64.714844 114.417969 C 54.800781 122.203125 40.75 117.96875 39.183594 117.460938 C 38.914062 117.386719 38.671875 117.261719 38.453125 117.089844 C 38.230469 116.914062 38.054688 116.707031 37.921875 116.460938 C 37.789062 116.214844 37.710938 115.953125 37.683594 115.675781 C 37.660156 115.394531 37.691406 115.125 37.777344 114.859375 C 37.863281 114.59375 37.996094 114.355469 38.183594 114.144531 C 38.367188 113.933594 38.582031 113.769531 38.835938 113.648438 C 39.089844 113.527344 39.355469 113.460938 39.632812 113.449219 C 39.910156 113.4375 40.183594 113.480469 40.445312 113.582031 C 40.980469 113.75 53.800781 117.800781 62.21875 111.207031 C 70.976562 104.324219 87 106.882812 91.71875 107.835938 C 94.046875 105.03125 96.730469 102.617188 99.765625 100.597656 C 102.804688 98.578125 106.070312 97.035156 109.558594 95.976562 C 120.445312 92.765625 128.945312 85.019531 129.027344 84.945312 C 129.335938 84.667969 129.695312 84.5 130.109375 84.441406 C 130.519531 84.382812 130.914062 84.445312 131.289062 84.628906 C 131.664062 84.8125 131.953125 85.082031 132.160156 85.441406 C 132.371094 85.804688 132.457031 86.191406 132.429688 86.605469 C 132.328125 87.8125 129.824219 116.308594 112.246094 134.75 C 111.851562 135.171875 111.363281 135.382812 110.785156 135.390625 Z M 110.785156 135.390625 " fill-opacity="1" fill-rule="nonzero"/></g><g clip-path="url(#c9b1bf3875)"><path fill="#ffffff" d="M 97.710938 139.949219 C 96.351562 139.949219 94.628906 139.902344 92.574219 139.765625 C 80.699219 138.980469 57.957031 134.988281 38.558594 117.070312 L 38.402344 116.929688 C 38.226562 116.753906 38.089844 116.558594 37.988281 116.332031 C 37.886719 116.109375 37.828125 115.875 37.808594 115.632812 C 37.789062 115.386719 37.816406 115.148438 37.886719 114.910156 C 37.953125 114.675781 38.0625 114.460938 38.207031 114.261719 C 38.355469 114.066406 38.53125 113.902344 38.738281 113.769531 C 38.941406 113.636719 39.167969 113.542969 39.40625 113.488281 C 39.644531 113.4375 39.886719 113.429688 40.128906 113.460938 C 40.371094 113.496094 40.601562 113.574219 40.816406 113.6875 C 40.976562 113.769531 41.117188 113.875 41.246094 113.996094 C 59.75 131.101562 81.503906 134.914062 92.824219 135.667969 C 95.332031 135.832031 97.324219 135.84375 98.65625 135.824219 C 98.351562 131.898438 96.269531 124.890625 94.066406 118.984375 L 94.066406 118.902344 C 93.964844 118.644531 93.917969 118.382812 93.921875 118.105469 C 93.929688 117.832031 93.988281 117.570312 94.101562 117.320312 C 94.214844 117.066406 94.371094 116.847656 94.570312 116.660156 C 94.773438 116.472656 95 116.332031 95.257812 116.238281 C 95.515625 116.144531 95.785156 116.101562 96.058594 116.113281 C 96.332031 116.128906 96.59375 116.191406 96.839844 116.3125 C 97.089844 116.429688 97.304688 116.589844 97.488281 116.796875 C 97.671875 117 97.804688 117.234375 97.894531 117.492188 L 97.894531 117.554688 C 99.195312 121.03125 103.339844 132.789062 102.707031 138.042969 C 102.675781 138.277344 102.609375 138.496094 102.503906 138.707031 C 102.402344 138.917969 102.261719 139.101562 102.09375 139.265625 C 101.925781 139.425781 101.734375 139.554688 101.519531 139.652344 C 101.304688 139.75 101.082031 139.808594 100.847656 139.828125 C 100.761719 139.859375 99.644531 139.949219 97.710938 139.949219 Z M 100.691406 137.820312 Z M 100.691406 137.820312 " fill-opacity="1" fill-rule="nonzero"/></g><path fill="#ffffff" d="M 152.644531 167.046875 C 152.304688 167.042969 151.984375 166.960938 151.6875 166.800781 C 135.867188 158.351562 121.730469 147.671875 109.28125 134.761719 C 108.359375 133.789062 107.4375 132.769531 106.558594 131.730469 C 98.792969 122.671875 94.847656 119.964844 94.804688 119.9375 C 94.765625 119.910156 94.617188 119.792969 94.535156 119.71875 C 94.339844 119.539062 94.183594 119.332031 94.066406 119.09375 C 93.953125 118.855469 93.886719 118.605469 93.871094 118.339844 C 93.851562 118.078125 93.886719 117.820312 93.96875 117.570312 C 94.050781 117.316406 94.175781 117.089844 94.347656 116.890625 C 94.519531 116.6875 94.71875 116.523438 94.953125 116.402344 C 95.1875 116.277344 95.4375 116.203125 95.699219 116.175781 C 95.960938 116.148438 96.222656 116.171875 96.476562 116.246094 C 96.730469 116.320312 96.960938 116.4375 97.167969 116.601562 C 97.847656 117.0625 102.003906 120.148438 109.652344 129.066406 C 110.519531 130.066406 111.367188 131.015625 112.265625 131.960938 C 124.402344 144.554688 138.183594 154.972656 153.613281 163.214844 C 154.027344 163.433594 154.332031 163.757812 154.523438 164.1875 C 154.710938 164.621094 154.75 165.0625 154.632812 165.519531 C 154.519531 165.972656 154.277344 166.347656 153.902344 166.632812 C 153.53125 166.921875 153.109375 167.0625 152.640625 167.058594 Z M 152.644531 167.046875 " fill-opacity="1" fill-rule="nonzero"/><path fill="#ffffff" d="M 236.28125 209.097656 C 235.894531 209.097656 235.539062 208.996094 235.207031 208.792969 C 223.464844 201.511719 200.503906 187.921875 178.859375 178.730469 C 178.597656 178.628906 178.367188 178.484375 178.167969 178.292969 C 177.96875 178.101562 177.8125 177.878906 177.703125 177.621094 C 177.59375 177.367188 177.539062 177.101562 177.539062 176.824219 C 177.539062 176.546875 177.59375 176.277344 177.703125 176.023438 C 177.808594 175.765625 177.964844 175.542969 178.164062 175.351562 C 178.363281 175.15625 178.59375 175.011719 178.851562 174.914062 C 179.113281 174.8125 179.378906 174.769531 179.65625 174.78125 C 179.933594 174.789062 180.199219 174.855469 180.449219 174.972656 C 202.375 184.273438 225.519531 197.980469 237.359375 205.320312 C 237.746094 205.5625 238.023438 205.894531 238.1875 206.320312 C 238.351562 206.746094 238.371094 207.175781 238.246094 207.617188 C 238.121094 208.054688 237.875 208.410156 237.511719 208.6875 C 237.148438 208.960938 236.738281 209.097656 236.28125 209.097656 Z M 236.28125 209.097656 " fill-opacity="1" fill-rule="nonzero"/><path fill="#ffffff" d="M 178.6875 264.855469 C 178.417969 264.855469 178.15625 264.804688 177.90625 264.699219 C 163.113281 258.574219 150.46875 249.230469 142.316406 238.398438 C 129.277344 221.109375 123.515625 204.851562 118.425781 190.5625 C 114.648438 179.925781 111.078125 169.875 105.089844 161.300781 C 99.917969 154.042969 95.1875 146.507812 90.90625 138.691406 C 90.773438 138.449219 90.695312 138.195312 90.664062 137.925781 C 90.632812 137.652344 90.660156 137.386719 90.734375 137.125 C 90.8125 136.863281 90.9375 136.625 91.109375 136.414062 C 91.28125 136.199219 91.488281 136.03125 91.730469 135.902344 C 91.972656 135.773438 92.226562 135.695312 92.5 135.667969 C 92.773438 135.644531 93.039062 135.671875 93.300781 135.753906 C 93.558594 135.832031 93.796875 135.960938 94.003906 136.136719 C 94.214844 136.3125 94.382812 136.519531 94.507812 136.765625 C 98.722656 144.429688 103.367188 151.828125 108.441406 158.953125 C 114.75 167.964844 118.410156 178.257812 122.285156 189.167969 C 127.277344 203.21875 132.933594 219.148438 145.574219 235.941406 C 153.300781 246.203125 165.308594 255.078125 179.46875 260.929688 C 179.6875 261.019531 179.882812 261.144531 180.058594 261.304688 C 180.234375 261.460938 180.375 261.644531 180.488281 261.855469 C 180.597656 262.0625 180.671875 262.28125 180.707031 262.515625 C 180.742188 262.75 180.734375 262.980469 180.6875 263.214844 C 180.640625 263.445312 180.558594 263.660156 180.4375 263.863281 C 180.316406 264.066406 180.164062 264.242188 179.980469 264.390625 C 179.800781 264.542969 179.597656 264.65625 179.375 264.734375 C 179.152344 264.816406 178.925781 264.855469 178.6875 264.855469 Z M 178.6875 264.855469 " fill-opacity="1" fill-rule="nonzero"/><path fill="#ffffff" d="M 168.875 291.273438 L 167.515625 291.273438 C 143.058594 290.726562 140.511719 288.09375 140.003906 285.441406 C 139.398438 282.34375 143.28125 280.226562 147.15625 278.566406 C 153.039062 276.042969 165.628906 268.359375 174.824219 262.765625 L 177.585938 261.085938 C 181.867188 258.488281 185.28125 256.433594 187.015625 255.554688 C 192.902344 252.558594 201.703125 252.710938 202.074219 252.714844 C 202.347656 252.71875 202.605469 252.773438 202.855469 252.878906 C 203.105469 252.988281 203.324219 253.136719 203.511719 253.332031 C 203.703125 253.523438 203.847656 253.746094 203.945312 254 C 204.046875 254.25 204.097656 254.511719 204.09375 254.78125 C 204.089844 255.050781 204.035156 255.3125 203.929688 255.5625 C 203.820312 255.808594 203.671875 256.027344 203.476562 256.21875 C 203.285156 256.40625 203.0625 256.550781 202.8125 256.652344 C 202.558594 256.753906 202.296875 256.800781 202.027344 256.800781 L 201.988281 256.800781 C 201.90625 256.800781 193.820312 256.667969 188.867188 259.195312 C 187.253906 260.011719 183.765625 262.113281 179.703125 264.578125 L 176.945312 266.25 C 167.132812 272.230469 154.917969 279.675781 148.765625 282.316406 C 147.203125 282.910156 145.746094 283.707031 144.398438 284.699219 C 145.835938 285.378906 150.773438 286.816406 167.601562 287.1875 C 188.214844 287.664062 206.851562 276.539062 216.121094 269.878906 C 218.34375 268.304688 220.484375 266.621094 222.539062 264.828125 C 222.742188 264.675781 222.964844 264.566406 223.210938 264.496094 C 223.457031 264.425781 223.707031 264.40625 223.960938 264.429688 C 224.214844 264.453125 224.453125 264.523438 224.683594 264.636719 C 224.910156 264.753906 225.109375 264.90625 225.28125 265.09375 C 225.449219 265.285156 225.582031 265.5 225.671875 265.738281 C 225.761719 265.976562 225.804688 266.222656 225.804688 266.476562 C 225.800781 266.730469 225.753906 266.976562 225.660156 267.214844 C 225.566406 267.453125 225.433594 267.664062 225.257812 267.851562 C 223.082031 269.746094 220.816406 271.527344 218.453125 273.191406 C 209.050781 279.996094 190.148438 291.273438 168.875 291.273438 Z M 168.875 291.273438 " fill-opacity="1" fill-rule="nonzero"/><path fill="#ffffff" d="M 185.160156 192.605469 C 184.734375 192.601562 184.351562 192.484375 184.003906 192.242188 C 183.652344 192.003906 183.40625 191.683594 183.253906 191.289062 C 183.253906 191.234375 180.996094 185.390625 177.769531 177.679688 C 170.554688 160.402344 164.160156 147.652344 159.859375 141.773438 C 158.300781 139.65625 154.578125 134.601562 152.515625 132.707031 C 152.457031 134.238281 152.671875 137.59375 154.046875 144.917969 C 155.464844 152.457031 155.667969 159.34375 154.667969 165.378906 C 153.625 171.679688 150.691406 178.421875 147.984375 178.421875 C 147.523438 178.421875 147.109375 178.28125 146.742188 178 C 146.378906 177.714844 146.136719 177.351562 146.015625 176.90625 C 145.898438 176.460938 145.925781 176.023438 146.105469 175.597656 C 146.28125 175.171875 146.570312 174.84375 146.972656 174.613281 C 147.605469 173.929688 149.644531 170.71875 150.640625 164.710938 C 151.5625 159.144531 151.359375 152.742188 150.035156 145.65625 C 147.496094 132.109375 148.1875 129.222656 150.589844 128.183594 C 153.402344 126.957031 156.191406 129.898438 163.144531 139.335938 C 168.945312 147.203125 176.347656 163.664062 181.519531 176.082031 C 184.769531 183.867188 187.023438 189.773438 187.050781 189.828125 C 187.148438 190.082031 187.191406 190.34375 187.183594 190.613281 C 187.179688 190.886719 187.117188 191.144531 187.007812 191.394531 C 186.894531 191.640625 186.742188 191.859375 186.542969 192.042969 C 186.347656 192.230469 186.121094 192.371094 185.867188 192.46875 C 185.640625 192.554688 185.402344 192.601562 185.160156 192.605469 Z M 147.976562 174.300781 Z M 147.976562 174.300781 Z M 147.976562 174.300781 " fill-opacity="1" fill-rule="nonzero"/><path fill="#ffffff" d="M 256.125 250.6875 C 256.125 251 256.09375 251.304688 256.035156 251.609375 C 255.972656 251.914062 255.882812 252.210938 255.765625 252.5 C 255.648438 252.785156 255.5 253.058594 255.328125 253.316406 C 255.15625 253.574219 254.960938 253.8125 254.742188 254.03125 C 254.519531 254.253906 254.28125 254.449219 254.023438 254.621094 C 253.765625 254.792969 253.492188 254.9375 253.207031 255.058594 C 252.917969 255.175781 252.625 255.265625 252.320312 255.328125 C 252.015625 255.386719 251.707031 255.417969 251.394531 255.417969 C 251.085938 255.417969 250.777344 255.386719 250.472656 255.328125 C 250.167969 255.265625 249.875 255.175781 249.585938 255.058594 C 249.300781 254.9375 249.027344 254.792969 248.769531 254.621094 C 248.511719 254.449219 248.273438 254.253906 248.050781 254.03125 C 247.832031 253.8125 247.636719 253.574219 247.464844 253.316406 C 247.292969 253.058594 247.144531 252.785156 247.027344 252.5 C 246.90625 252.210938 246.820312 251.914062 246.757812 251.609375 C 246.695312 251.304688 246.667969 251 246.667969 250.6875 C 246.667969 250.378906 246.695312 250.070312 246.757812 249.765625 C 246.820312 249.460938 246.90625 249.164062 247.027344 248.878906 C 247.144531 248.589844 247.292969 248.320312 247.464844 248.0625 C 247.636719 247.804688 247.832031 247.5625 248.050781 247.34375 C 248.273438 247.125 248.511719 246.929688 248.769531 246.757812 C 249.027344 246.582031 249.300781 246.4375 249.585938 246.320312 C 249.875 246.199219 250.167969 246.109375 250.472656 246.050781 C 250.777344 245.988281 251.085938 245.960938 251.394531 245.960938 C 251.707031 245.960938 252.015625 245.988281 252.320312 246.050781 C 252.625 246.109375 252.917969 246.199219 253.207031 246.320312 C 253.492188 246.4375 253.765625 246.582031 254.023438 246.757812 C 254.28125 246.929688 254.519531 247.125 254.742188 247.34375 C 254.960938 247.5625 255.15625 247.804688 255.328125 248.0625 C 255.5 248.320312 255.648438 248.589844 255.765625 248.878906 C 255.882812 249.164062 255.972656 249.460938 256.035156 249.765625 C 256.09375 250.070312 256.125 250.378906 256.125 250.6875 Z M 256.125 250.6875 " fill-opacity="1" fill-rule="nonzero"/><g clip-path="url(#8a4cb891c4)"><path fill="#ffffff" d="M 62.328125 93.253906 C 61.746094 93.253906 61.171875 93.199219 60.601562 93.085938 C 60.03125 92.972656 59.480469 92.804688 58.941406 92.582031 C 58.40625 92.359375 57.894531 92.085938 57.414062 91.765625 C 56.929688 91.441406 56.484375 91.074219 56.070312 90.664062 C 55.660156 90.253906 55.292969 89.804688 54.972656 89.324219 C 54.648438 88.839844 54.375 88.332031 54.15625 87.792969 C 53.933594 87.257812 53.765625 86.703125 53.652344 86.132812 C 53.539062 85.566406 53.480469 84.988281 53.480469 84.410156 C 53.480469 83.828125 53.539062 83.253906 53.652344 82.683594 C 53.765625 82.113281 53.933594 81.558594 54.15625 81.023438 C 54.375 80.488281 54.648438 79.976562 54.972656 79.492188 C 55.292969 79.011719 55.660156 78.5625 56.070312 78.152344 C 56.484375 77.742188 56.929688 77.375 57.414062 77.054688 C 57.894531 76.730469 58.40625 76.457031 58.941406 76.234375 C 59.480469 76.011719 60.03125 75.847656 60.601562 75.734375 C 61.171875 75.621094 61.746094 75.5625 62.328125 75.5625 C 62.90625 75.5625 63.484375 75.621094 64.054688 75.734375 C 64.621094 75.847656 65.175781 76.011719 65.710938 76.234375 C 66.25 76.457031 66.757812 76.730469 67.242188 77.054688 C 67.726562 77.375 68.171875 77.742188 68.582031 78.152344 C 68.992188 78.5625 69.359375 79.011719 69.683594 79.492188 C 70.003906 79.976562 70.277344 80.488281 70.5 81.023438 C 70.722656 81.558594 70.890625 82.113281 71.003906 82.683594 C 71.117188 83.253906 71.171875 83.828125 71.171875 84.410156 C 71.171875 84.988281 71.117188 85.566406 71.003906 86.132812 C 70.890625 86.703125 70.722656 87.257812 70.5 87.792969 C 70.277344 88.332031 70.003906 88.839844 69.683594 89.324219 C 69.359375 89.804688 68.992188 90.253906 68.582031 90.664062 C 68.171875 91.074219 67.726562 91.441406 67.242188 91.765625 C 66.757812 92.085938 66.25 92.359375 65.710938 92.582031 C 65.175781 92.804688 64.621094 92.972656 64.054688 93.085938 C 63.484375 93.199219 62.90625 93.253906 62.328125 93.253906 Z M 62.328125 79.644531 C 62.015625 79.644531 61.703125 79.675781 61.398438 79.738281 C 61.089844 79.796875 60.792969 79.886719 60.503906 80.007812 C 60.214844 80.128906 59.941406 80.273438 59.679688 80.449219 C 59.421875 80.621094 59.179688 80.820312 58.960938 81.039062 C 58.738281 81.261719 58.539062 81.503906 58.367188 81.761719 C 58.191406 82.023438 58.046875 82.296875 57.925781 82.585938 C 57.808594 82.875 57.714844 83.171875 57.65625 83.480469 C 57.59375 83.785156 57.5625 84.097656 57.5625 84.410156 C 57.5625 84.722656 57.59375 85.03125 57.65625 85.335938 C 57.714844 85.644531 57.808594 85.941406 57.925781 86.230469 C 58.046875 86.519531 58.191406 86.792969 58.367188 87.054688 C 58.539062 87.316406 58.738281 87.554688 58.960938 87.777344 C 59.179688 87.996094 59.421875 88.195312 59.679688 88.371094 C 59.941406 88.542969 60.214844 88.691406 60.503906 88.808594 C 60.792969 88.929688 61.089844 89.019531 61.398438 89.082031 C 61.703125 89.140625 62.015625 89.171875 62.328125 89.171875 C 62.640625 89.171875 62.949219 89.140625 63.257812 89.082031 C 63.5625 89.019531 63.859375 88.929688 64.148438 88.808594 C 64.4375 88.691406 64.714844 88.542969 64.972656 88.371094 C 65.234375 88.195312 65.472656 87.996094 65.695312 87.777344 C 65.917969 87.554688 66.113281 87.316406 66.289062 87.054688 C 66.460938 86.792969 66.609375 86.519531 66.726562 86.230469 C 66.847656 85.941406 66.9375 85.644531 67 85.335938 C 67.058594 85.03125 67.089844 84.722656 67.089844 84.410156 C 67.089844 84.097656 67.058594 83.785156 67 83.480469 C 66.9375 83.171875 66.847656 82.875 66.726562 82.585938 C 66.609375 82.296875 66.460938 82.023438 66.289062 81.761719 C 66.113281 81.503906 65.917969 81.261719 65.695312 81.039062 C 65.472656 80.820312 65.234375 80.621094 64.972656 80.449219 C 64.714844 80.273438 64.4375 80.128906 64.148438 80.007812 C 63.859375 79.886719 63.5625 79.796875 63.257812 79.738281 C 62.949219 79.675781 62.640625 79.644531 62.328125 79.644531 Z M 62.328125 79.644531 " fill-opacity="1" fill-rule="nonzero"/></g><path fill="#ffffff" d="M 75.9375 183.757812 C 75.132812 183.757812 74.335938 183.679688 73.546875 183.523438 C 72.757812 183.363281 71.992188 183.132812 71.25 182.824219 C 70.507812 182.515625 69.800781 182.140625 69.132812 181.691406 C 68.464844 181.246094 67.84375 180.738281 67.277344 180.167969 C 66.707031 179.601562 66.199219 178.984375 65.753906 178.3125 C 65.304688 177.644531 64.929688 176.9375 64.621094 176.195312 C 64.3125 175.453125 64.082031 174.6875 63.921875 173.898438 C 63.765625 173.109375 63.6875 172.3125 63.6875 171.507812 C 63.6875 170.703125 63.765625 169.90625 63.921875 169.121094 C 64.082031 168.332031 64.3125 167.566406 64.621094 166.820312 C 64.929688 166.078125 65.304688 165.371094 65.753906 164.703125 C 66.199219 164.035156 66.707031 163.417969 67.277344 162.847656 C 67.84375 162.277344 68.464844 161.773438 69.132812 161.324219 C 69.800781 160.878906 70.507812 160.5 71.25 160.191406 C 71.992188 159.886719 72.757812 159.652344 73.546875 159.496094 C 74.335938 159.339844 75.132812 159.261719 75.9375 159.261719 C 76.742188 159.261719 77.539062 159.339844 78.328125 159.496094 C 79.113281 159.652344 79.882812 159.886719 80.625 160.191406 C 81.367188 160.5 82.074219 160.878906 82.742188 161.324219 C 83.410156 161.773438 84.027344 162.277344 84.597656 162.847656 C 85.167969 163.417969 85.675781 164.035156 86.121094 164.703125 C 86.566406 165.371094 86.945312 166.078125 87.253906 166.820312 C 87.5625 167.566406 87.792969 168.332031 87.949219 169.121094 C 88.105469 169.90625 88.183594 170.703125 88.183594 171.507812 C 88.183594 172.3125 88.105469 173.109375 87.949219 173.898438 C 87.792969 174.6875 87.5625 175.453125 87.253906 176.195312 C 86.945312 176.9375 86.566406 177.644531 86.121094 178.3125 C 85.675781 178.984375 85.167969 179.601562 84.597656 180.167969 C 84.027344 180.738281 83.410156 181.246094 82.742188 181.691406 C 82.074219 182.140625 81.367188 182.515625 80.625 182.824219 C 79.882812 183.132812 79.113281 183.363281 78.328125 183.523438 C 77.539062 183.679688 76.742188 183.757812 75.9375 183.757812 Z M 75.9375 163.34375 C 75.402344 163.34375 74.871094 163.394531 74.34375 163.5 C 73.816406 163.605469 73.308594 163.757812 72.8125 163.964844 C 72.316406 164.171875 71.847656 164.421875 71.398438 164.71875 C 70.953125 165.015625 70.542969 165.355469 70.164062 165.734375 C 69.785156 166.113281 69.445312 166.527344 69.148438 166.972656 C 68.847656 167.417969 68.597656 167.890625 68.394531 168.382812 C 68.1875 168.878906 68.03125 169.390625 67.929688 169.914062 C 67.824219 170.441406 67.769531 170.972656 67.769531 171.507812 C 67.769531 172.046875 67.824219 172.574219 67.929688 173.101562 C 68.03125 173.628906 68.1875 174.136719 68.394531 174.632812 C 68.597656 175.128906 68.847656 175.601562 69.148438 176.046875 C 69.445312 176.492188 69.785156 176.902344 70.164062 177.28125 C 70.542969 177.660156 70.953125 178 71.398438 178.296875 C 71.847656 178.597656 72.316406 178.847656 72.8125 179.054688 C 73.308594 179.257812 73.816406 179.414062 74.34375 179.519531 C 74.871094 179.621094 75.402344 179.675781 75.9375 179.675781 C 76.472656 179.675781 77.003906 179.621094 77.53125 179.519531 C 78.054688 179.414062 78.566406 179.257812 79.0625 179.054688 C 79.558594 178.847656 80.027344 178.597656 80.472656 178.296875 C 80.917969 178 81.332031 177.660156 81.710938 177.28125 C 82.089844 176.902344 82.429688 176.492188 82.726562 176.046875 C 83.023438 175.601562 83.277344 175.128906 83.480469 174.632812 C 83.6875 174.136719 83.839844 173.628906 83.945312 173.101562 C 84.050781 172.574219 84.101562 172.046875 84.101562 171.507812 C 84.101562 170.972656 84.050781 170.441406 83.945312 169.914062 C 83.839844 169.390625 83.6875 168.878906 83.480469 168.382812 C 83.277344 167.890625 83.023438 167.417969 82.726562 166.972656 C 82.429688 166.527344 82.089844 166.113281 81.710938 165.734375 C 81.332031 165.355469 80.917969 165.015625 80.472656 164.71875 C 80.027344 164.421875 79.558594 164.171875 79.0625 163.964844 C 78.566406 163.757812 78.054688 163.605469 77.53125 163.5 C 77.003906 163.394531 76.472656 163.34375 75.9375 163.34375 Z M 75.9375 163.34375 " fill-opacity="1" fill-rule="nonzero"/><path fill="#ffffff" d="M 214.753906 166.066406 C 214.214844 166.066406 213.6875 166.011719 213.160156 165.910156 C 212.632812 165.804688 212.125 165.648438 211.628906 165.445312 C 211.132812 165.238281 210.660156 164.988281 210.214844 164.6875 C 209.769531 164.390625 209.359375 164.050781 208.980469 163.671875 C 208.601562 163.292969 208.261719 162.882812 207.964844 162.4375 C 207.664062 161.992188 207.414062 161.519531 207.207031 161.023438 C 207.003906 160.527344 206.847656 160.019531 206.742188 159.492188 C 206.640625 158.964844 206.585938 158.4375 206.585938 157.898438 C 206.585938 157.363281 206.640625 156.832031 206.742188 156.304688 C 206.847656 155.78125 207.003906 155.269531 207.207031 154.773438 C 207.414062 154.277344 207.664062 153.808594 207.964844 153.363281 C 208.261719 152.917969 208.601562 152.503906 208.980469 152.125 C 209.359375 151.746094 209.769531 151.40625 210.214844 151.109375 C 210.660156 150.8125 211.132812 150.5625 211.628906 150.355469 C 212.125 150.148438 212.632812 149.996094 213.160156 149.890625 C 213.6875 149.785156 214.214844 149.734375 214.753906 149.734375 C 215.289062 149.734375 215.820312 149.785156 216.347656 149.890625 C 216.871094 149.996094 217.382812 150.148438 217.878906 150.355469 C 218.371094 150.5625 218.84375 150.8125 219.289062 151.109375 C 219.734375 151.40625 220.148438 151.746094 220.527344 152.125 C 220.90625 152.503906 221.246094 152.917969 221.542969 153.363281 C 221.839844 153.808594 222.089844 154.277344 222.296875 154.773438 C 222.503906 155.269531 222.65625 155.78125 222.761719 156.304688 C 222.867188 156.832031 222.917969 157.363281 222.917969 157.898438 C 222.917969 158.4375 222.867188 158.964844 222.761719 159.492188 C 222.65625 160.019531 222.503906 160.527344 222.296875 161.023438 C 222.089844 161.519531 221.839844 161.992188 221.542969 162.4375 C 221.246094 162.882812 220.90625 163.292969 220.527344 163.671875 C 220.148438 164.050781 219.734375 164.390625 219.289062 164.6875 C 218.84375 164.988281 218.371094 165.238281 217.878906 165.445312 C 217.382812 165.648438 216.871094 165.804688 216.347656 165.910156 C 215.820312 166.011719 215.289062 166.066406 214.753906 166.066406 Z M 214.753906 153.816406 C 214.484375 153.816406 214.21875 153.84375 213.957031 153.894531 C 213.695312 153.949219 213.4375 154.023438 213.191406 154.128906 C 212.941406 154.230469 212.707031 154.355469 212.484375 154.503906 C 212.261719 154.652344 212.054688 154.824219 211.867188 155.011719 C 211.675781 155.203125 211.507812 155.410156 211.359375 155.632812 C 211.210938 155.855469 211.082031 156.089844 210.980469 156.335938 C 210.878906 156.585938 210.800781 156.839844 210.75 157.101562 C 210.695312 157.367188 210.671875 157.632812 210.671875 157.898438 C 210.671875 158.167969 210.695312 158.433594 210.75 158.695312 C 210.800781 158.957031 210.878906 159.214844 210.980469 159.460938 C 211.082031 159.710938 211.210938 159.945312 211.359375 160.167969 C 211.507812 160.390625 211.675781 160.597656 211.867188 160.785156 C 212.054688 160.976562 212.261719 161.144531 212.484375 161.292969 C 212.707031 161.441406 212.941406 161.570312 213.191406 161.671875 C 213.4375 161.773438 213.695312 161.851562 213.957031 161.902344 C 214.21875 161.957031 214.484375 161.980469 214.753906 161.980469 C 215.019531 161.980469 215.285156 161.957031 215.550781 161.902344 C 215.8125 161.851562 216.066406 161.773438 216.316406 161.671875 C 216.5625 161.570312 216.796875 161.441406 217.019531 161.292969 C 217.242188 161.144531 217.449219 160.976562 217.640625 160.785156 C 217.828125 160.597656 218 160.390625 218.148438 160.167969 C 218.296875 159.945312 218.421875 159.710938 218.523438 159.460938 C 218.628906 159.214844 218.703125 158.957031 218.757812 158.695312 C 218.808594 158.433594 218.835938 158.167969 218.835938 157.898438 C 218.835938 157.632812 218.808594 157.367188 218.757812 157.101562 C 218.703125 156.839844 218.628906 156.585938 218.523438 156.335938 C 218.421875 156.089844 218.296875 155.855469 218.148438 155.632812 C 218 155.410156 217.828125 155.203125 217.640625 155.011719 C 217.449219 154.824219 217.242188 154.652344 217.019531 154.503906 C 216.796875 154.355469 216.5625 154.230469 216.316406 154.128906 C 216.066406 154.023438 215.8125 153.949219 215.550781 153.894531 C 215.285156 153.84375 215.019531 153.816406 214.753906 153.816406 Z M 214.753906 153.816406 " fill-opacity="1" fill-rule="nonzero"/><path fill="#ffffff" d="M 107.917969 249.082031 C 107.382812 249.082031 106.851562 249.03125 106.324219 248.925781 C 105.800781 248.820312 105.289062 248.667969 104.792969 248.460938 C 104.296875 248.253906 103.828125 248.003906 103.382812 247.707031 C 102.9375 247.410156 102.523438 247.070312 102.144531 246.691406 C 101.765625 246.3125 101.425781 245.898438 101.128906 245.453125 C 100.832031 245.007812 100.578125 244.539062 100.375 244.042969 C 100.167969 243.546875 100.015625 243.035156 99.910156 242.511719 C 99.804688 241.984375 99.753906 241.453125 99.753906 240.917969 C 99.753906 240.378906 99.804688 239.851562 99.910156 239.324219 C 100.015625 238.796875 100.167969 238.289062 100.375 237.792969 C 100.578125 237.296875 100.832031 236.824219 101.128906 236.378906 C 101.425781 235.933594 101.765625 235.523438 102.144531 235.144531 C 102.523438 234.765625 102.9375 234.425781 103.382812 234.128906 C 103.828125 233.828125 104.296875 233.578125 104.792969 233.371094 C 105.289062 233.167969 105.800781 233.011719 106.324219 232.910156 C 106.851562 232.804688 107.382812 232.75 107.917969 232.75 C 108.453125 232.75 108.984375 232.804688 109.511719 232.910156 C 110.039062 233.011719 110.546875 233.167969 111.042969 233.371094 C 111.539062 233.578125 112.007812 233.828125 112.457031 234.128906 C 112.902344 234.425781 113.3125 234.765625 113.691406 235.144531 C 114.070312 235.523438 114.410156 235.933594 114.707031 236.378906 C 115.007812 236.824219 115.257812 237.296875 115.464844 237.792969 C 115.667969 238.289062 115.824219 238.796875 115.925781 239.324219 C 116.03125 239.851562 116.085938 240.378906 116.085938 240.917969 C 116.085938 241.453125 116.03125 241.984375 115.925781 242.511719 C 115.824219 243.035156 115.667969 243.546875 115.464844 244.042969 C 115.257812 244.539062 115.007812 245.007812 114.707031 245.453125 C 114.410156 245.898438 114.070312 246.3125 113.691406 246.691406 C 113.3125 247.070312 112.902344 247.410156 112.457031 247.707031 C 112.007812 248.003906 111.539062 248.253906 111.042969 248.460938 C 110.546875 248.667969 110.039062 248.820312 109.511719 248.925781 C 108.984375 249.03125 108.453125 249.082031 107.917969 249.082031 Z M 107.917969 236.835938 C 107.652344 236.835938 107.386719 236.859375 107.121094 236.914062 C 106.859375 236.964844 106.605469 237.042969 106.355469 237.144531 C 106.109375 237.246094 105.875 237.375 105.652344 237.523438 C 105.425781 237.671875 105.222656 237.839844 105.03125 238.03125 C 104.84375 238.21875 104.671875 238.425781 104.523438 238.648438 C 104.375 238.871094 104.25 239.105469 104.148438 239.355469 C 104.042969 239.601562 103.96875 239.859375 103.914062 240.121094 C 103.863281 240.382812 103.835938 240.648438 103.835938 240.917969 C 103.835938 241.183594 103.863281 241.449219 103.914062 241.714844 C 103.96875 241.976562 104.042969 242.230469 104.148438 242.480469 C 104.25 242.726562 104.375 242.960938 104.523438 243.183594 C 104.671875 243.40625 104.84375 243.613281 105.03125 243.804688 C 105.222656 243.992188 105.425781 244.164062 105.652344 244.3125 C 105.875 244.460938 106.109375 244.585938 106.355469 244.6875 C 106.605469 244.792969 106.859375 244.867188 107.121094 244.921875 C 107.386719 244.972656 107.652344 245 107.917969 245 C 108.1875 245 108.453125 244.972656 108.714844 244.921875 C 108.976562 244.867188 109.234375 244.792969 109.480469 244.6875 C 109.730469 244.585938 109.964844 244.460938 110.1875 244.3125 C 110.410156 244.164062 110.617188 243.992188 110.804688 243.804688 C 110.996094 243.613281 111.164062 243.40625 111.3125 243.183594 C 111.460938 242.960938 111.589844 242.726562 111.691406 242.480469 C 111.792969 242.230469 111.871094 241.976562 111.921875 241.714844 C 111.976562 241.449219 112 241.183594 112 240.917969 C 112 240.648438 111.976562 240.382812 111.921875 240.121094 C 111.871094 239.859375 111.792969 239.601562 111.691406 239.355469 C 111.589844 239.105469 111.460938 238.871094 111.3125 238.648438 C 111.164062 238.425781 110.996094 238.21875 110.804688 238.03125 C 110.617188 237.839844 110.410156 237.671875 110.1875 237.523438 C 109.964844 237.375 109.730469 237.246094 109.480469 237.144531 C 109.234375 237.042969 108.976562 236.964844 108.714844 236.914062 C 108.453125 236.859375 108.1875 236.835938 107.917969 236.835938 Z M 107.917969 236.835938 " fill-opacity="1" fill-rule="nonzero"/><g clip-path="url(#c27386ca86)"><path fill="#ffffff" d="M 268.511719 299.4375 C 267.839844 299.4375 267.175781 299.371094 266.519531 299.242188 C 265.863281 299.109375 265.222656 298.917969 264.605469 298.660156 C 263.984375 298.402344 263.398438 298.089844 262.839844 297.71875 C 262.28125 297.34375 261.765625 296.921875 261.292969 296.449219 C 260.820312 295.972656 260.394531 295.457031 260.023438 294.902344 C 259.652344 294.34375 259.335938 293.753906 259.078125 293.136719 C 258.824219 292.515625 258.628906 291.878906 258.5 291.222656 C 258.367188 290.5625 258.304688 289.902344 258.304688 289.230469 C 258.304688 288.558594 258.367188 287.894531 258.5 287.238281 C 258.628906 286.582031 258.824219 285.945312 259.078125 285.324219 C 259.335938 284.707031 259.652344 284.117188 260.023438 283.558594 C 260.394531 283.003906 260.820312 282.488281 261.292969 282.011719 C 261.765625 281.539062 262.28125 281.117188 262.839844 280.742188 C 263.398438 280.371094 263.984375 280.058594 264.605469 279.800781 C 265.222656 279.542969 265.863281 279.351562 266.519531 279.21875 C 267.175781 279.089844 267.839844 279.023438 268.511719 279.023438 C 269.179688 279.023438 269.84375 279.089844 270.5 279.21875 C 271.160156 279.351562 271.796875 279.542969 272.417969 279.800781 C 273.035156 280.058594 273.625 280.371094 274.179688 280.742188 C 274.738281 281.117188 275.253906 281.539062 275.726562 282.011719 C 276.203125 282.488281 276.625 283.003906 276.996094 283.558594 C 277.371094 284.117188 277.683594 284.707031 277.941406 285.324219 C 278.195312 285.945312 278.390625 286.582031 278.519531 287.238281 C 278.652344 287.894531 278.71875 288.558594 278.71875 289.230469 C 278.71875 289.902344 278.652344 290.5625 278.519531 291.222656 C 278.390625 291.878906 278.195312 292.515625 277.941406 293.136719 C 277.683594 293.753906 277.371094 294.34375 276.996094 294.902344 C 276.625 295.457031 276.203125 295.972656 275.726562 296.449219 C 275.253906 296.921875 274.738281 297.34375 274.179688 297.71875 C 273.625 298.089844 273.035156 298.402344 272.417969 298.660156 C 271.796875 298.917969 271.160156 299.109375 270.5 299.242188 C 269.84375 299.371094 269.179688 299.4375 268.511719 299.4375 Z M 268.511719 283.105469 C 268.109375 283.105469 267.710938 283.144531 267.316406 283.222656 C 266.921875 283.300781 266.539062 283.417969 266.167969 283.574219 C 265.792969 283.726562 265.441406 283.914062 265.109375 284.136719 C 264.773438 284.363281 264.464844 284.617188 264.179688 284.898438 C 263.894531 285.183594 263.640625 285.492188 263.417969 285.828125 C 263.195312 286.164062 263.003906 286.515625 262.851562 286.886719 C 262.699219 287.257812 262.582031 287.640625 262.503906 288.035156 C 262.425781 288.429688 262.386719 288.828125 262.386719 289.230469 C 262.386719 289.632812 262.425781 290.03125 262.503906 290.425781 C 262.582031 290.820312 262.699219 291.203125 262.851562 291.574219 C 263.003906 291.945312 263.195312 292.296875 263.417969 292.632812 C 263.640625 292.96875 263.894531 293.277344 264.179688 293.5625 C 264.464844 293.84375 264.773438 294.097656 265.109375 294.324219 C 265.441406 294.546875 265.792969 294.734375 266.167969 294.886719 C 266.539062 295.042969 266.921875 295.160156 267.316406 295.238281 C 267.710938 295.316406 268.109375 295.355469 268.511719 295.355469 C 268.914062 295.355469 269.308594 295.316406 269.703125 295.238281 C 270.097656 295.160156 270.480469 295.042969 270.855469 294.886719 C 271.226562 294.734375 271.578125 294.546875 271.914062 294.324219 C 272.246094 294.097656 272.554688 293.84375 272.839844 293.5625 C 273.125 293.277344 273.378906 292.96875 273.601562 292.632812 C 273.824219 292.296875 274.015625 291.945312 274.167969 291.574219 C 274.320312 291.203125 274.4375 290.820312 274.515625 290.425781 C 274.59375 290.03125 274.632812 289.632812 274.632812 289.230469 C 274.632812 288.828125 274.59375 288.429688 274.515625 288.035156 C 274.4375 287.640625 274.320312 287.257812 274.167969 286.886719 C 274.015625 286.515625 273.824219 286.164062 273.601562 285.828125 C 273.378906 285.492188 273.125 285.183594 272.839844 284.898438 C 272.554688 284.617188 272.246094 284.363281 271.914062 284.136719 C 271.578125 283.914062 271.226562 283.726562 270.855469 283.574219 C 270.480469 283.417969 270.097656 283.300781 269.703125 283.222656 C 269.308594 283.144531 268.914062 283.105469 268.511719 283.105469 Z M 268.511719 283.105469 " fill-opacity="1" fill-rule="nonzero"/></g></svg>