<svg xmlns="http://www.w3.org/2000/svg" xmlns:xlink="http://www.w3.org/1999/xlink" width="500" zoomAndPan="magnify" viewBox="0 0 375 374.999991" height="500" preserveAspectRatio="xMidYMid meet" version="1.0"><defs><clipPath id="893858c88e"><path d="M 187.5 0 C 83.945312 0 0 83.945312 0 187.5 C 0 291.054688 83.945312 375 187.5 375 C 291.054688 375 375 291.054688 375 187.5 C 375 83.945312 291.054688 0 187.5 0 Z M 187.5 0 " clip-rule="nonzero"/></clipPath><clipPath id="f1b4de2790"><path d="M 75.148438 48 L 337.496094 48 L 337.496094 296.871094 L 75.148438 296.871094 Z M 75.148438 48 " clip-rule="nonzero"/></clipPath></defs><g clip-path="url(#893858c88e)"><rect x="-37.5" width="450" fill="#a2c36e" y="-37.499999" height="449.999989" fill-opacity="1"/></g><path fill="#ffffff" d="M 103.011719 113.441406 C 104.082031 112.371094 105.6875 111.835938 108.363281 111.570312 C 108.363281 111.570312 108.363281 111.570312 108.632812 111.570312 C 111.308594 111.835938 112.914062 112.371094 113.984375 113.441406 C 114.519531 113.976562 114.519531 114.511719 114.789062 115.046875 C 114.789062 115.851562 114.789062 117.457031 112.378906 119.0625 C 110.503906 120.402344 109.703125 120.667969 109.703125 120.667969 L 109.433594 120.9375 C 109.167969 120.9375 108.898438 121.203125 108.898438 121.203125 C 108.898438 121.203125 108.632812 121.203125 108.632812 121.203125 C 108.363281 121.203125 108.097656 121.203125 107.828125 120.9375 L 104.617188 118.796875 C 103.8125 118.527344 102.476562 117.191406 102.742188 115.046875 C 102.476562 114.78125 102.476562 114.246094 103.011719 113.441406 Z M 105.6875 115.851562 C 105.6875 116.117188 105.957031 116.117188 105.6875 115.851562 L 108.632812 117.726562 C 109.167969 117.457031 109.703125 116.921875 110.773438 116.386719 C 111.308594 116.117188 111.574219 115.851562 111.574219 115.582031 C 111.308594 115.316406 110.503906 115.046875 108.632812 115.046875 C 106.757812 115.046875 105.957031 115.582031 105.6875 115.582031 C 105.6875 115.851562 105.6875 115.851562 105.6875 115.851562 Z M 105.6875 115.851562 " fill-opacity="1" fill-rule="nonzero"/><path fill="#ffffff" d="M 121.210938 99.523438 C 121.210938 99.953125 121.292969 100.359375 121.457031 100.753906 C 121.617188 101.148438 121.851562 101.496094 122.152344 101.796875 C 122.453125 102.097656 122.800781 102.328125 123.195312 102.492188 C 123.585938 102.65625 123.996094 102.738281 124.421875 102.738281 C 124.847656 102.738281 125.257812 102.65625 125.652344 102.492188 C 126.046875 102.328125 126.390625 102.097656 126.695312 101.796875 C 126.996094 101.496094 127.226562 101.148438 127.390625 100.753906 C 127.554688 100.359375 127.632812 99.953125 127.632812 99.523438 C 127.632812 99.097656 127.554688 98.691406 127.390625 98.296875 C 127.226562 97.902344 126.996094 97.554688 126.695312 97.253906 C 126.390625 96.953125 126.046875 96.722656 125.652344 96.558594 C 125.257812 96.394531 124.847656 96.3125 124.421875 96.3125 C 123.996094 96.3125 123.585938 96.394531 123.195312 96.558594 C 122.800781 96.722656 122.453125 96.953125 122.152344 97.253906 C 121.851562 97.554688 121.617188 97.902344 121.457031 98.296875 C 121.292969 98.691406 121.210938 99.097656 121.210938 99.523438 Z M 121.210938 99.523438 " fill-opacity="1" fill-rule="nonzero"/><path fill="#ffffff" d="M 101.671875 96.046875 C 103.546875 96.046875 104.351562 97.382812 104.351562 99.257812 C 104.351562 101.132812 103.277344 102.46875 101.671875 102.46875 C 99.800781 102.46875 98.460938 101.132812 98.460938 99.257812 C 98.460938 97.652344 100.066406 96.046875 101.671875 96.046875 Z M 101.671875 96.046875 " fill-opacity="1" fill-rule="nonzero"/><g clip-path="url(#f1b4de2790)"><path fill="#ffffff" d="M 75.710938 48.941406 C 76.246094 48.40625 76.78125 48.40625 77.585938 48.40625 C 79.726562 47.871094 83.742188 48.941406 93.109375 55.363281 C 103.011719 62.324219 107.5625 69.550781 109.703125 74.097656 C 111.574219 73.5625 113.71875 73.296875 115.589844 73.296875 C 117.730469 73.296875 119.605469 73.5625 121.480469 74.097656 C 122.28125 72.492188 123.085938 70.621094 123.621094 68.746094 C 125.226562 61.789062 136.199219 48.40625 146.371094 48.40625 C 146.90625 48.40625 147.441406 48.671875 147.976562 49.207031 C 148.242188 49.742188 153.863281 61.253906 145.832031 77.3125 C 144.761719 79.453125 143.15625 81.59375 141.015625 83.199219 C 139.679688 84.269531 138.074219 85.875 136.734375 87.480469 C 138.875 90.960938 141.550781 96.847656 141.820312 106.484375 C 142.085938 108.625 142.355469 110.5 142.621094 112.371094 C 143.425781 120.132812 145.03125 121.472656 147.976562 122.542969 C 148.242188 122.808594 150.382812 123.078125 151.722656 123.613281 C 153.863281 124.148438 156.003906 124.683594 157.609375 125.21875 C 159.214844 125.753906 162.160156 126.289062 165.90625 127.09375 C 179.824219 129.5 205.785156 134.050781 226.125 149.574219 C 238.707031 159.210938 247.003906 173.394531 249.679688 189.453125 C 255.300781 224.246094 261.453125 248.332031 266.539062 255.292969 C 271.894531 262.785156 289.558594 265.460938 306.417969 267.871094 C 314.984375 269.210938 323.28125 270.28125 329.972656 272.152344 C 329.972656 272.152344 329.972656 272.152344 330.238281 272.152344 C 331.308594 272.6875 336.660156 274.832031 337.199219 278.578125 C 337.464844 280.71875 336.394531 282.324219 334.253906 283.664062 C 332.378906 284.734375 330.238281 284.464844 326.222656 283.929688 C 321.941406 283.394531 314.714844 282.59375 302.671875 282.59375 L 299.726562 282.59375 C 277.78125 282.59375 260.382812 282.59375 252.085938 277.238281 C 240.578125 271.617188 234.957031 257.96875 230.410156 246.996094 C 228.804688 242.980469 227.195312 239.234375 225.589844 236.289062 C 223.183594 232.273438 222.113281 230.667969 219.433594 230.132812 C 217.828125 229.867188 215.957031 229.867188 213.011719 229.867188 C 211.136719 229.867188 208.730469 229.597656 206.589844 229.332031 C 202.839844 243.785156 200.96875 271.082031 202.574219 281.789062 C 203.109375 286.875 202.039062 290.621094 199.363281 293.296875 C 196.417969 296.242188 192.136719 296.777344 189.191406 296.777344 C 187.585938 296.777344 186.246094 296.507812 185.980469 296.507812 L 120.675781 296.507812 C 118.800781 296.507812 116.929688 295.4375 116.125 293.566406 C 115.324219 291.960938 115.324219 289.816406 116.660156 288.210938 C 118.265625 286.070312 124.691406 284.734375 146.101562 282.324219 C 151.722656 282.054688 161.355469 281.253906 168.851562 279.113281 L 109.433594 279.113281 C 107.5625 279.113281 105.6875 278.042969 104.886719 276.167969 C 104.082031 274.5625 104.082031 272.421875 105.421875 270.816406 C 107.292969 268.40625 116.125 267.070312 134.859375 264.390625 C 143.425781 263.320312 152.523438 261.984375 154.933594 260.914062 C 156.003906 260.644531 157.074219 259.84375 158.144531 259.308594 C 162.695312 256.09375 165.371094 250.742188 165.371094 244.855469 C 165.371094 238.964844 164.570312 228.527344 161.089844 212.203125 C 156.273438 209.257812 151.722656 206.3125 147.707031 203.101562 C 144.761719 200.695312 141.820312 198.550781 138.875 195.875 L 136.199219 194.269531 C 135.128906 197.480469 134.324219 199.890625 134.058594 200.960938 C 135.664062 206.046875 137.804688 214.609375 135.394531 217.019531 C 134.859375 217.554688 133.789062 218.089844 131.917969 217.554688 C 131.648438 217.824219 131.113281 217.824219 130.847656 217.824219 C 129.507812 217.824219 127.097656 218.089844 126.027344 215.144531 C 125.761719 215.144531 125.492188 215.144531 125.226562 215.144531 C 123.621094 214.609375 122.28125 212.46875 122.015625 211.933594 C 122.015625 211.667969 121.746094 211.398438 121.746094 211.132812 L 121.746094 205.511719 C 121.480469 199.890625 122.28125 194.539062 124.691406 187.847656 C 124.957031 187.3125 124.957031 186.507812 125.226562 184.902344 C 119.335938 180.886719 115.859375 175.269531 113.71875 170.984375 C 112.914062 175 111.84375 179.28125 111.574219 180.621094 C 112.109375 181.957031 113.449219 184.636719 114.789062 190.253906 C 116.125 196.410156 118.535156 197.75 118.535156 197.75 C 119.070312 198.015625 119.335938 198.550781 119.335938 199.085938 C 119.335938 199.625 119.070312 200.160156 118.800781 200.425781 C 117.730469 201.230469 116.660156 201.765625 115.589844 201.765625 C 116.125 202.03125 116.660156 202.835938 116.394531 203.636719 C 116.125 204.441406 115.589844 204.976562 114.789062 204.976562 C 112.109375 204.976562 108.632812 204.707031 105.957031 202.03125 C 103.8125 199.890625 103.011719 196.679688 103.011719 191.863281 C 103.277344 183.03125 101.941406 172.324219 101.671875 171.253906 C 97.925781 159.476562 101.40625 148.503906 103.8125 140.472656 C 104.082031 139.671875 104.347656 139.136719 104.347656 138.332031 C 104.082031 136.460938 103.546875 134.585938 103.277344 132.445312 C 90.433594 122.273438 88.558594 104.34375 94.179688 92.566406 C 94.179688 92.566406 94.179688 92.300781 94.445312 92.300781 C 94.714844 89.890625 95.515625 87.75 96.589844 85.609375 C 85.882812 82.664062 82.136719 69.816406 79.457031 61.253906 C 78.65625 58.578125 77.851562 55.898438 77.050781 55.097656 C 75.980469 53.492188 75.710938 52.152344 75.980469 50.816406 C 75.175781 50.011719 75.175781 49.476562 75.710938 48.941406 Z M 91.234375 58.308594 C 87.21875 55.632812 84.542969 54.027344 82.671875 52.957031 C 85.882812 56.167969 90.433594 60.183594 92.839844 62.589844 C 96.050781 65.800781 100.335938 74.367188 102.207031 78.113281 C 103.8125 77.042969 105.421875 75.972656 106.757812 75.4375 C 104.617188 71.421875 100.066406 64.730469 91.234375 58.308594 Z M 139.144531 81.058594 C 140.75 79.71875 142.085938 77.847656 143.15625 76.242188 C 149.3125 64.195312 146.636719 55.097656 145.566406 52.152344 C 137.539062 53.222656 128.4375 64.195312 126.832031 70.085938 C 126.296875 72.226562 125.492188 74.097656 124.691406 75.707031 C 126.296875 76.507812 127.902344 77.578125 129.507812 78.917969 C 130.042969 74.632812 131.113281 67.945312 133.789062 64.730469 C 137.269531 60.71875 139.144531 57.503906 139.144531 57.503906 C 139.679688 56.703125 140.75 56.433594 141.285156 56.96875 C 142.085938 57.503906 142.355469 58.578125 141.820312 59.113281 C 141.820312 59.378906 139.679688 62.589844 136.199219 66.605469 C 133.789062 69.550781 132.71875 77.847656 132.453125 81.59375 C 133.523438 82.929688 134.324219 84.003906 135.128906 85.074219 C 136.464844 83.46875 138.074219 81.859375 139.144531 81.058594 Z M 158.949219 261.984375 C 157.609375 262.785156 156.539062 263.589844 155.203125 264.125 C 152.257812 265.195312 143.960938 266.535156 134.324219 267.605469 C 124.15625 268.941406 108.898438 271.082031 107.027344 272.6875 C 106.492188 273.492188 106.757812 274.296875 107.027344 274.5625 C 107.292969 275.367188 108.097656 275.632812 108.632812 275.632812 L 175.808594 275.632812 C 180.894531 271.617188 180.894531 257.96875 181.164062 246.191406 C 181.164062 242.445312 181.164062 238.964844 181.429688 235.488281 C 181.699219 230.132812 180.628906 225.585938 179.558594 222.371094 L 164.035156 214.074219 C 166.976562 229.0625 167.78125 238.964844 167.78125 244.855469 C 167.511719 251.8125 164.300781 258.238281 158.949219 261.984375 Z M 104.082031 170.449219 C 104.082031 171.253906 105.6875 182.226562 105.421875 192.128906 C 105.421875 195.875 105.957031 198.550781 107.292969 199.890625 C 107.828125 200.425781 108.363281 200.960938 109.433594 201.230469 C 108.898438 200.425781 108.632812 199.355469 108.097656 198.285156 C 107.828125 197.480469 108.097656 196.679688 108.898438 196.410156 C 109.703125 196.144531 110.503906 196.410156 111.039062 196.945312 C 111.039062 196.945312 112.109375 198.550781 113.71875 198.820312 C 113.71875 198.820312 113.984375 198.820312 113.984375 198.820312 C 112.914062 197.480469 111.574219 195.074219 110.773438 191.058594 C 109.433594 184.367188 107.828125 181.957031 107.828125 181.957031 C 107.292969 181.15625 107.292969 180.621094 107.292969 180.351562 C 107.292969 180.351562 108.363281 176.339844 109.167969 172.054688 C 108.898438 171.789062 108.898438 171.253906 109.167969 170.984375 L 110.773438 165.363281 C 108.632812 158.675781 106.492188 150.378906 105.152344 144.757812 C 103.011719 152.25 101.136719 161.082031 104.082031 170.449219 Z M 102.742188 128.164062 C 109.167969 132.710938 112.914062 130.570312 118.535156 127.359375 C 120.140625 126.558594 121.746094 125.488281 123.621094 124.683594 C 131.382812 120.9375 132.183594 116.386719 132.183594 116.117188 C 132.183594 115.316406 132.988281 114.511719 134.058594 114.78125 C 134.859375 114.78125 135.664062 115.582031 135.664062 116.65625 C 135.664062 116.921875 135.128906 123.078125 125.226562 127.894531 C 123.351562 128.699219 122.015625 129.5 120.40625 130.570312 C 116.929688 132.445312 113.71875 134.320312 109.96875 134.320312 C 108.898438 134.320312 107.5625 134.050781 106.492188 133.785156 C 106.757812 135.121094 107.027344 136.726562 107.292969 138.066406 C 107.5625 139.402344 110.503906 154.125 113.984375 164.292969 C 113.984375 164.5625 114.253906 164.5625 114.253906 164.828125 C 115.324219 168.042969 118.265625 175.535156 125.226562 180.886719 L 126.027344 175.269531 C 126.027344 175.269531 126.027344 175 126.027344 175 L 126.027344 173.929688 C 125.492188 172.324219 122.28125 166.4375 119.605469 161.617188 C 119.070312 160.816406 119.335938 159.746094 120.140625 159.476562 C 120.941406 158.941406 122.015625 159.210938 122.28125 160.011719 C 129.777344 172.859375 129.238281 173.929688 128.972656 174.734375 L 128.703125 175.535156 L 127.632812 183.832031 C 127.367188 185.972656 127.097656 187.578125 126.832031 188.648438 C 124.691406 194.804688 123.621094 199.625 124.15625 204.976562 L 124.15625 210.328125 C 124.421875 210.597656 124.691406 211.132812 124.957031 211.398438 C 125.226562 211.132812 125.492188 211.132812 125.761719 211.132812 C 126.296875 211.132812 126.832031 211.132812 127.097656 211.398438 C 127.367188 211.667969 127.632812 211.933594 127.632812 212.203125 C 127.902344 212.738281 127.902344 213.273438 128.167969 213.539062 C 128.4375 214.074219 128.4375 214.34375 129.238281 214.34375 C 129.507812 214.074219 129.507812 214.074219 129.777344 213.808594 C 130.3125 213.539062 130.847656 213.539062 131.382812 213.808594 C 131.648438 214.074219 131.917969 214.074219 132.453125 214.34375 C 132.453125 214.34375 132.453125 214.34375 132.71875 214.34375 C 133.253906 212.738281 132.183594 207.117188 130.3125 201.496094 C 130.3125 201.230469 130.3125 200.960938 130.3125 200.695312 C 130.3125 200.425781 131.382812 196.679688 133.253906 191.863281 C 133.253906 191.59375 133.253906 191.59375 133.523438 191.328125 L 133.789062 190.523438 C 133.789062 190.253906 134.058594 189.988281 134.324219 189.988281 C 138.875 182.226562 143.691406 172.324219 143.960938 168.042969 C 144.496094 162.152344 140.75 148.234375 140.75 147.96875 C 140.480469 147.164062 141.015625 146.09375 141.820312 145.828125 C 142.621094 145.558594 143.691406 146.09375 143.960938 146.898438 C 144.226562 147.433594 147.976562 161.617188 147.441406 168.042969 C 146.90625 173.929688 139.945312 186.507812 137.535156 191.058594 L 140.75 192.933594 C 140.75 192.933594 140.75 192.933594 141.015625 193.199219 C 143.960938 195.609375 146.636719 198.015625 149.847656 200.160156 C 154.128906 203.371094 158.679688 206.3125 163.5 209.257812 L 176.878906 217.289062 C 175.542969 215.414062 174.472656 214.34375 174.472656 214.34375 C 174.472656 214.34375 174.203125 214.074219 174.203125 214.074219 C 155.203125 184.636719 180.628906 160.28125 180.894531 160.011719 C 181.429688 159.476562 182.5 159.476562 183.304688 160.011719 C 183.839844 160.546875 183.839844 161.617188 183.304688 162.421875 C 183.035156 162.6875 159.484375 185.171875 176.878906 212.203125 C 178.21875 213.539062 185.445312 221.035156 184.640625 235.753906 C 184.375 238.964844 184.375 242.445312 184.375 246.191406 C 184.105469 259.84375 184.105469 274.027344 177.414062 278.578125 C 169.386719 283.929688 147.976562 285 145.835938 285.269531 C 137.539062 286.339844 120.675781 288.480469 118.800781 290.085938 C 118.265625 290.890625 118.535156 291.691406 118.800781 291.960938 C 119.070312 292.761719 119.871094 293.03125 120.40625 293.03125 L 185.710938 293.03125 C 185.710938 293.03125 185.980469 293.03125 185.980469 293.03125 C 185.980469 293.03125 193.207031 294.367188 196.6875 290.621094 C 198.558594 288.746094 199.363281 285.804688 198.828125 282.054688 C 197.222656 270.546875 199.363281 241.109375 203.375 226.921875 C 203.644531 226.121094 204.179688 225.851562 204.984375 225.851562 C 204.984375 225.851562 205.25 225.851562 205.25 225.851562 C 207.925781 226.121094 210.601562 226.386719 212.746094 226.386719 C 215.421875 226.386719 217.5625 226.386719 219.433594 226.65625 C 232.550781 227.457031 241.382812 210.863281 241.382812 210.597656 C 241.917969 209.792969 242.71875 209.527344 243.523438 209.792969 C 244.324219 210.328125 244.59375 211.132812 244.324219 211.933594 C 244.058594 212.738281 236.832031 226.386719 224.789062 229.332031 C 225.859375 230.402344 226.929688 232.007812 228.265625 234.417969 C 229.875 237.359375 231.480469 241.375 233.351562 245.390625 C 237.636719 255.828125 242.988281 268.941406 253.425781 274.027344 C 253.425781 274.027344 253.691406 274.027344 253.691406 274.027344 C 260.917969 278.84375 278.851562 278.84375 299.726562 278.84375 L 302.671875 278.84375 C 314.984375 278.84375 322.210938 279.648438 326.757812 280.183594 C 329.972656 280.449219 331.84375 280.71875 332.648438 280.183594 C 333.71875 279.648438 334.253906 278.84375 334.253906 278.578125 C 334.253906 277.507812 331.84375 275.902344 329.4375 275.097656 C 323.011719 273.222656 314.984375 272.152344 306.417969 270.816406 C 288.753906 268.140625 270.554688 265.460938 264.398438 256.898438 C 257.171875 246.726562 250.480469 210.597656 247.003906 189.71875 C 244.59375 174.464844 236.5625 161.082031 224.519531 151.984375 C 204.714844 136.996094 179.289062 132.445312 165.90625 130.035156 C 161.890625 129.234375 158.949219 128.699219 157.074219 128.164062 C 155.738281 127.628906 153.59375 127.09375 151.453125 126.558594 C 149.046875 126.023438 147.707031 125.488281 147.171875 125.488281 C 143.15625 123.878906 140.75 121.203125 139.945312 112.640625 C 139.679688 110.765625 139.410156 108.894531 139.144531 106.75 C 139.144531 106.75 139.144531 106.484375 139.144531 106.484375 C 138.875 96.847656 136.199219 91.226562 134.058594 88.285156 C 132.453125 85.609375 127.097656 78.382812 122.28125 77.578125 C 122.28125 77.578125 122.28125 77.578125 122.015625 77.578125 C 120.140625 77.042969 118 76.507812 115.859375 76.507812 C 113.71875 76.507812 111.574219 76.777344 109.433594 77.578125 C 107.292969 78.648438 101.40625 81.59375 99.800781 84.804688 C 98.460938 86.945312 97.390625 89.621094 97.125 92.566406 C 97.125 92.835938 97.125 92.835938 96.855469 93.101562 L 96.855469 93.371094 C 96.855469 93.371094 96.855469 93.371094 96.855469 93.636719 C 91.769531 104.074219 92.839844 118.796875 102.742188 128.164062 Z M 97.390625 82.664062 C 97.925781 81.859375 98.730469 81.058594 99.53125 80.253906 C 98.195312 77.042969 93.644531 68.210938 90.433594 65 C 88.023438 62.589844 83.742188 58.578125 80.261719 55.363281 C 80.796875 56.703125 81.332031 58.308594 81.867188 60.183594 C 84.277344 68.480469 88.023438 80.523438 97.390625 82.664062 Z M 97.390625 82.664062 " fill-opacity="1" fill-rule="nonzero"/></g></svg>