<svg xmlns="http://www.w3.org/2000/svg" xmlns:xlink="http://www.w3.org/1999/xlink" width="500" zoomAndPan="magnify" viewBox="0 0 375 374.999991" height="500" preserveAspectRatio="xMidYMid meet" version="1.0"><defs><clipPath id="14324b485c"><path d="M 187.5 0 C 83.945312 0 0 83.945312 0 187.5 C 0 291.054688 83.945312 375 187.5 375 C 291.054688 375 375 291.054688 375 187.5 C 375 83.945312 291.054688 0 187.5 0 Z M 187.5 0 " clip-rule="nonzero"/></clipPath><clipPath id="a7645c7518"><path d="M 92 23 L 281 23 L 281 351.6875 L 92 351.6875 Z M 92 23 " clip-rule="nonzero"/></clipPath></defs><g clip-path="url(#14324b485c)"><rect x="-37.5" width="450" fill="#a2c36e" y="-37.499999" height="449.999989" fill-opacity="1"/></g><g clip-path="url(#a7645c7518)"><path fill="#fffff9" d="M 245.953125 139.226562 C 235.902344 139.128906 225.695312 138.96875 216.148438 135.527344 C 212.179688 132.464844 207.890625 129.796875 203.535156 127.347656 C 203.503906 127.332031 203.46875 127.316406 203.4375 127.300781 C 203.8125 127.035156 204.179688 126.757812 204.53125 126.445312 C 205.554688 125.527344 206.453125 124.410156 207.164062 123.1875 C 212.382812 124.855469 217.613281 126.488281 222.855469 128.078125 C 227.707031 129.542969 232.566406 130.976562 237.449219 132.335938 C 240.777344 133.261719 244.113281 134.171875 247.480469 134.949219 C 248.496094 135.183594 249.515625 135.410156 250.542969 135.582031 C 251.855469 135.800781 253.1875 135.847656 254.511719 135.902344 C 257.75 136.042969 260.988281 135.945312 264.210938 136.417969 C 267.351562 136.878906 270.433594 137.710938 273.378906 138.902344 C 273.847656 139.089844 274.3125 139.292969 274.773438 139.503906 C 265.167969 139.414062 255.558594 139.320312 245.953125 139.226562 Z M 225.738281 150.992188 C 226.1875 151.769531 226.554688 152.5625 226.554688 152.5625 C 226.558594 152.5625 226.558594 152.5625 226.558594 152.5625 C 227.039062 153.621094 227.523438 155.132812 228.675781 159.539062 C 230.238281 165.53125 232.164062 171.390625 234.886719 176.960938 C 237.578125 182.460938 240.808594 188.023438 241.472656 194.140625 C 237.859375 191.382812 234.425781 188.390625 231.203125 185.179688 C 227.191406 181.179688 223.683594 176.796875 220.140625 172.390625 C 215.460938 166.578125 209.953125 161.429688 204.785156 156.054688 C 200.875 151.988281 196.980469 147.902344 193.089844 143.816406 C 193.113281 140.851562 193.054688 137.886719 192.902344 134.925781 C 193.992188 134.445312 194.667969 133.621094 195.34375 132.664062 C 196.132812 131.550781 197.027344 130.824219 198.222656 130.171875 C 199.121094 129.675781 200.035156 129.238281 200.929688 128.78125 C 205.921875 131.800781 209.910156 134.738281 212.871094 137.109375 C 212.871094 137.109375 221.835938 144.28125 225.738281 150.992188 Z M 192.179688 131.128906 C 192.09375 131.226562 192.070312 131.242188 192.050781 131.257812 C 191.316406 131.914062 190.136719 131.757812 188.894531 131.464844 C 186.195312 130.828125 184.894531 129.945312 183.472656 130.199219 C 182.507812 130.371094 181.78125 130.898438 181.269531 131.726562 C 181.109375 131.992188 181.03125 132.566406 180.710938 132.679688 C 180.261719 132.835938 179.480469 132.417969 179.09375 132.230469 C 177.445312 131.421875 175.921875 130.070312 174.558594 128.863281 C 172.875 127.371094 171.257812 125.648438 170.527344 123.476562 C 169.847656 121.460938 170.347656 121.25 169.863281 116.5625 C 169.367188 111.734375 168.621094 110.800781 169.464844 109.195312 C 170.339844 107.53125 171.21875 107.867188 173.257812 105.894531 C 174.910156 104.289062 175.21875 102.207031 176.433594 100.363281 C 177.671875 98.476562 180.214844 98.75 182.195312 98.480469 C 183.464844 98.304688 184.605469 97.953125 185.605469 97.351562 C 185.851562 97.386719 186.101562 97.277344 186.167969 96.96875 C 186.753906 96.53125 187.285156 95.992188 187.75 95.324219 C 187.851562 95.179688 188.003906 94.851562 188.144531 94.71875 C 188.183594 94.679688 188.386719 94.59375 188.441406 94.5625 C 188.585938 94.546875 188.679688 94.609375 189 94.75 C 190.863281 95.570312 192.609375 96.695312 194.382812 97.683594 C 195.402344 98.25 196.433594 98.796875 197.421875 99.414062 C 197.726562 99.605469 198.714844 100.074219 198.835938 100.460938 C 198.945312 100.8125 198.453125 101.96875 198.539062 102.5625 C 198.6875 103.574219 199.257812 104.273438 200.050781 104.878906 C 201.714844 106.144531 203.042969 107.390625 202.914062 109.6875 C 202.84375 110.910156 202.34375 112.050781 202.4375 113.292969 C 202.5 114.128906 202.910156 114.796875 203.691406 116.140625 C 204.632812 117.757812 205.085938 117.902344 205.207031 118.707031 C 205.257812 119.046875 205.148438 119.828125 203.964844 121.734375 C 202.703125 123.769531 200.84375 124.996094 198.734375 126.027344 C 197.101562 126.828125 195.4375 127.578125 194.0625 128.800781 C 193.289062 129.492188 192.863281 130.390625 192.179688 131.128906 Z M 189.59375 143.902344 C 189.480469 144.234375 189.460938 144.601562 189.582031 144.957031 C 189.476562 151.707031 188.953125 158.445312 188.148438 165.152344 C 188.136719 165.21875 188.125 165.285156 188.121094 165.355469 C 188.054688 165.925781 187.984375 166.492188 187.910156 167.0625 C 187.164062 172.894531 186.210938 178.695312 185.179688 184.480469 C 184.316406 189.304688 183.546875 194.195312 182.207031 198.914062 C 181.253906 202.285156 179.921875 205.519531 177.867188 208.265625 C 179.179688 204.710938 179.976562 200.984375 180.214844 197.195312 C 180.535156 192.105469 179.890625 187.027344 179.375 181.972656 C 179.296875 181.195312 179.222656 180.414062 179.152344 179.632812 C 179.1875 179.558594 179.210938 179.476562 179.222656 179.390625 C 180.027344 173.238281 181.480469 167.226562 183.5 161.363281 C 184.191406 159.367188 184.902344 157.402344 185.355469 155.335938 C 186.132812 151.777344 186.507812 148.132812 186.472656 144.492188 C 186.4375 140.902344 186 137.3125 185.175781 133.816406 C 185.507812 133.953125 185.828125 134.085938 185.925781 134.121094 C 187.046875 134.5 188.230469 134.964844 189.425781 135.199219 C 189.566406 138.097656 189.621094 141 189.59375 143.902344 Z M 181.820312 135.972656 C 182.433594 135.78125 182.984375 135.445312 183.429688 134.949219 C 183.539062 134.828125 183.804688 134.246094 184.023438 133.855469 C 185.628906 140.523438 185.78125 147.527344 184.425781 154.257812 C 183.992188 156.417969 183.320312 158.453125 182.597656 160.53125 C 181.652344 163.25 180.78125 165.988281 180.078125 168.78125 C 179.59375 170.707031 179.183594 172.652344 178.832031 174.609375 C 178.757812 172 178.859375 169.390625 179.292969 166.8125 C 179.722656 164.273438 180.472656 161.808594 181.09375 159.3125 C 181.71875 156.800781 182.140625 154.253906 182.347656 151.671875 C 182.773438 146.4375 182.394531 141.183594 181.820312 135.972656 Z M 176.371094 209.023438 C 174.941406 203.871094 174.597656 198.417969 174.042969 193.125 C 173.34375 186.488281 172.742188 179.835938 172.511719 173.164062 C 172.066406 160.34375 173.085938 147.441406 177.550781 135.34375 C 178.539062 135.855469 179.59375 136.191406 180.710938 136.152344 C 181.199219 140.617188 181.535156 145.105469 181.34375 149.597656 C 181.234375 152.195312 180.941406 154.789062 180.394531 157.332031 C 179.859375 159.820312 179.101562 162.253906 178.554688 164.738281 C 176.351562 174.710938 179.238281 184.695312 179.167969 194.722656 C 179.136719 199.632812 178.210938 204.484375 176.371094 209.023438 Z M 147.804688 164.398438 C 144.117188 167.289062 140.101562 169.609375 136.195312 172.175781 C 133.425781 173.996094 131.164062 175.730469 129.199219 177.441406 C 126.585938 179.710938 125.65625 181.429688 122.589844 184.058594 C 120.785156 185.609375 119.175781 186.738281 118.089844 187.453125 C 120.585938 183.59375 122.203125 180.800781 123.25 178.902344 C 123.5 178.445312 123.953125 177.617188 124.628906 176.5 C 125.546875 174.984375 126.6875 173.257812 128.152344 171.316406 C 129.925781 168.960938 131.984375 166.867188 134.28125 165.023438 C 138.796875 161.402344 143.964844 158.703125 148.582031 155.21875 C 152.75 152.070312 156.375 148.296875 160.238281 144.800781 C 163.960938 141.425781 168.023438 138.203125 172.835938 136.558594 C 173.058594 136.480469 173.285156 136.414062 173.507812 136.34375 C 173.261719 137.070312 173.027344 137.800781 172.804688 138.535156 C 172.757812 138.585938 172.710938 138.636719 172.667969 138.695312 C 165.503906 148.257812 157.222656 157.023438 147.804688 164.398438 Z M 121.824219 168.601562 C 121.871094 168.542969 122.570312 167.714844 123.496094 166.628906 C 124.335938 165.648438 125.457031 164.351562 126.832031 162.792969 C 128.09375 161.359375 129.683594 159.464844 131.800781 156.714844 C 134.367188 153.378906 136.738281 149.882812 139.472656 146.675781 C 143.710938 141.699219 148.574219 137.28125 153.859375 133.433594 C 153.980469 133.34375 154.085938 133.246094 154.179688 133.140625 C 159.699219 132.257812 165.1875 131.214844 170.59375 129.824219 C 171.796875 131.109375 173.179688 132.269531 174.59375 133.351562 C 174.570312 133.402344 174.546875 133.453125 174.527344 133.507812 C 174.332031 134.015625 174.144531 134.527344 173.960938 135.035156 C 169.117188 136.363281 164.933594 139.234375 161.160156 142.480469 C 157.183594 145.894531 153.582031 149.726562 149.523438 153.050781 C 145.039062 156.71875 139.890625 159.445312 135.234375 162.878906 C 132.882812 164.613281 130.675781 166.523438 128.777344 168.746094 C 128.433594 169.144531 128.03125 169.621094 127.566406 170.210938 C 126.949219 170.992188 126.40625 171.730469 125.925781 172.421875 C 124.644531 174.261719 123.730469 175.878906 123.5625 176.171875 C 122.679688 177.714844 120.6875 180.910156 115.730469 188.238281 C 116.972656 182.363281 119.496094 171.375 121.824219 168.601562 Z M 132.46875 132.679688 C 121.863281 134.171875 110.117188 137.039062 99.511719 134.140625 C 106.34375 126.203125 117.082031 122.726562 126.832031 119.832031 C 133.527344 117.839844 140.25 115.878906 147.011719 114.132812 C 153.050781 112.570312 159.320312 111.402344 165.5 112.464844 C 165.519531 112.621094 165.539062 112.777344 165.566406 112.9375 C 165.792969 114.367188 166.289062 115.753906 166.453125 117.199219 C 166.632812 118.792969 166.507812 120.40625 166.683594 122.003906 C 166.878906 123.785156 167.464844 125.367188 168.300781 126.796875 C 156.550781 129.6875 144.429688 130.996094 132.46875 132.679688 Z M 114.398438 98.476562 C 110.652344 96.296875 106.929688 94.039062 103.363281 91.570312 C 101.710938 90.429688 100.085938 89.242188 98.605469 87.886719 C 98.039062 87.367188 97.460938 86.824219 96.984375 86.21875 C 96.738281 85.898438 96.597656 85.484375 96.414062 85.136719 C 96.46875 85.171875 96.527344 85.199219 96.601562 85.214844 C 96.742188 85.242188 107.953125 87.910156 113.367188 89.566406 C 116.507812 90.523438 118.355469 91.089844 120.828125 92.34375 C 125.246094 94.589844 125.6875 96.003906 131.066406 98.808594 C 134.769531 100.738281 137.113281 101.363281 138.371094 101.699219 C 140.148438 102.179688 141.933594 102.40625 143.769531 102.472656 C 147.207031 102.601562 150.628906 103.132812 153.875 104.292969 C 156.183594 105.117188 158.320312 106.308594 160.710938 106.910156 C 162.566406 107.375 164.480469 107.582031 166.394531 107.585938 C 166.132812 108.03125 165.925781 108.496094 165.773438 108.976562 C 158.367188 107.789062 150.875 109.355469 143.597656 111.367188 C 143.402344 111.113281 143.117188 110.910156 142.730469 110.792969 C 132.84375 107.796875 123.328125 103.683594 114.398438 98.476562 Z M 101.074219 84.09375 C 104.910156 84 108.769531 84.414062 112.566406 84.921875 C 120.300781 85.960938 128.085938 87.453125 135.5625 89.714844 C 145.101562 92.597656 154.191406 97.003906 162.40625 102.660156 C 159.039062 101.949219 155.714844 101.066406 152.402344 100.070312 C 150.03125 99.355469 147.589844 98.851562 145.128906 98.5625 C 143.058594 98.316406 140.96875 98.328125 138.898438 98.066406 C 136.140625 97.714844 133.429688 96.964844 130.863281 95.902344 C 128.980469 95.125 127.203125 94.136719 125.386719 93.214844 C 122.140625 91.574219 118.753906 90.214844 115.316406 89.027344 C 110.113281 87.234375 104.78125 85.835938 99.410156 84.65625 C 98.945312 84.554688 98.480469 84.457031 98.015625 84.359375 C 99.015625 84.160156 100.058594 84.117188 101.074219 84.09375 Z M 167.484375 106.1875 C 167.46875 106.203125 167.453125 106.214844 167.4375 106.230469 C 167.367188 106.300781 167.304688 106.375 167.238281 106.449219 C 165.320312 106.503906 163.398438 106.363281 161.523438 105.941406 C 159.398438 105.464844 157.46875 104.546875 155.472656 103.710938 C 152.078125 102.289062 148.394531 101.589844 144.730469 101.386719 C 142.917969 101.285156 141.238281 101.226562 139.476562 100.8125 C 137.074219 100.25 134.761719 99.339844 132.539062 98.277344 C 130.9375 97.507812 129.375 96.65625 127.847656 95.753906 C 128.191406 95.925781 128.535156 96.09375 128.882812 96.257812 C 131.367188 97.414062 133.960938 98.308594 136.652344 98.835938 C 138.84375 99.265625 141.039062 99.367188 143.261719 99.519531 C 145.773438 99.695312 148.273438 100.121094 150.710938 100.765625 C 152.941406 101.355469 155.121094 102.101562 157.359375 102.675781 C 159.773438 103.296875 162.214844 103.824219 164.667969 104.261719 C 165.378906 104.78125 166.082031 105.304688 166.777344 105.839844 C 167.003906 106.015625 167.242188 106.128906 167.484375 106.1875 Z M 149.648438 76.382812 C 148.550781 73.855469 147.730469 71.191406 147.226562 68.484375 C 146.621094 65.230469 146.695312 61.90625 146.304688 58.628906 C 145.730469 53.832031 142.34375 46.925781 145.550781 42.519531 C 161.136719 56.71875 172.535156 75.152344 178.113281 95.5 C 177.449219 95.613281 176.792969 95.789062 176.160156 96.089844 C 173.867188 97.171875 173.136719 99.253906 172.15625 101.40625 C 171.835938 102.105469 171.410156 102.675781 170.929688 103.183594 C 170.921875 103.171875 170.914062 103.164062 170.90625 103.15625 C 162.765625 95.269531 154.234375 86.945312 149.648438 76.382812 Z M 173.660156 44.539062 C 174.65625 40.316406 175.910156 36.078125 177.667969 32.105469 C 178.273438 30.742188 178.929688 29.34375 179.800781 28.128906 C 179.910156 27.976562 180.234375 27.691406 180.453125 27.449219 C 178.59375 36.152344 179.445312 45.109375 180.957031 53.804688 C 182.542969 62.941406 184.867188 71.972656 185.660156 81.234375 C 185.976562 84.933594 186.03125 88.667969 185.679688 92.363281 C 184.835938 93.265625 184.210938 94.398438 182.898438 94.804688 C 182.480469 94.933594 182.054688 95.023438 181.625 95.09375 C 179.4375 86.960938 176.34375 79.105469 172.4375 71.675781 C 172.441406 71.582031 172.4375 71.488281 172.425781 71.390625 C 171.261719 62.433594 171.582031 53.339844 173.660156 44.539062 Z M 181.140625 29.867188 C 181.429688 31.085938 181.679688 32.316406 181.953125 33.535156 C 182.949219 37.96875 184.09375 42.371094 185.523438 46.691406 C 187.414062 52.402344 189.886719 57.859375 190.996094 63.808594 C 192.699219 72.933594 192.058594 82.414062 190.484375 91.511719 C 189.433594 91.136719 188.378906 90.980469 187.394531 91.25 C 187.210938 91.300781 187.042969 91.371094 186.886719 91.445312 C 187.425781 84.121094 186.453125 76.742188 185.128906 69.519531 C 183.460938 60.425781 181.195312 51.390625 180.625 42.136719 C 180.375 38.039062 180.480469 33.914062 181.140625 29.867188 Z M 205.976562 76.867188 C 221.5625 56.878906 229.5 52.082031 234.710938 49.65625 C 239.617188 47.375 246.175781 45.304688 246.929688 46.609375 C 247.5625 47.710938 243.542969 50.121094 239.027344 55.304688 C 230.457031 65.140625 232.375 70.882812 222.914062 82.285156 C 220.578125 85.105469 220.929688 84.34375 217.292969 88.398438 C 211.597656 94.746094 209.820312 97.992188 203.929688 102.714844 C 203.746094 102.863281 203.59375 102.980469 203.5 103.058594 C 203.472656 103.035156 203.449219 103.007812 203.421875 102.988281 C 203.183594 102.789062 202.082031 102.265625 201.972656 101.984375 C 201.902344 101.808594 202.328125 100.609375 202.324219 100.355469 C 202.316406 99.910156 202.203125 99.496094 202.019531 99.09375 C 201.011719 96.90625 198.109375 95.761719 196.144531 94.667969 C 195.511719 94.316406 194.792969 93.84375 194.023438 93.359375 C 198.742188 86.351562 202.941406 80.761719 205.976562 76.867188 Z M 239.867188 89.355469 C 249.179688 84.625 260.515625 80.210938 270.992188 83.046875 C 270.792969 83.242188 270.589844 83.429688 270.386719 83.621094 C 266.554688 84.335938 262.933594 85.886719 259.515625 87.78125 C 256.535156 89.429688 253.695312 91.304688 250.828125 93.140625 C 247.769531 94.992188 244.523438 96.527344 241.105469 97.59375 C 238.457031 98.417969 235.765625 98.8125 233.042969 99.269531 C 226.941406 100.289062 221.339844 102.949219 215.777344 105.535156 C 212.582031 107.019531 209.410156 108.554688 206.257812 110.132812 C 206.351562 109.507812 206.40625 108.875 206.308594 108.191406 C 206.1875 107.355469 205.941406 106.542969 205.582031 105.785156 C 205.617188 105.769531 205.652344 105.75 205.691406 105.730469 C 207.5 104.675781 209.171875 103.464844 210.746094 102.15625 C 220.652344 98.367188 230.410156 94.164062 239.867188 89.355469 Z M 253.011719 97.34375 C 250.277344 100.15625 248.050781 103.332031 244.988281 105.835938 C 241.6875 108.539062 237.839844 110.640625 233.863281 112.179688 C 230.824219 111.46875 227.683594 111.109375 224.496094 111.136719 C 221.535156 111.164062 218.554688 111.53125 215.675781 112.234375 C 214.027344 112.640625 212.40625 113.160156 210.769531 113.605469 C 213 112 215.3125 110.507812 217.695312 109.140625 C 222.636719 106.308594 227.875 103.988281 233.34375 102.386719 C 235.210938 101.839844 237.121094 101.410156 238.953125 100.742188 C 241.242188 99.90625 243.441406 98.839844 245.570312 97.65625 C 247.570312 96.542969 249.507812 95.328125 251.433594 94.09375 C 251.441406 94.089844 251.445312 94.085938 251.453125 94.082031 C 251.457031 94.082031 251.457031 94.078125 251.460938 94.078125 C 253.671875 92.664062 255.867188 91.226562 258.125 89.882812 C 261.445312 87.910156 264.9375 86.140625 268.675781 85.152344 C 263.617188 89.40625 257.652344 92.574219 253.011719 97.34375 Z M 206.761719 114.425781 C 206.292969 113.90625 205.90625 113.355469 205.914062 112.6875 C 205.921875 112.28125 205.964844 111.894531 206.023438 111.515625 C 209.078125 109.976562 212.152344 108.472656 215.253906 107.019531 C 218.238281 105.621094 221.234375 104.214844 224.292969 102.980469 C 226.957031 101.902344 229.707031 101.039062 232.53125 100.503906 C 233.886719 100.246094 235.257812 100.089844 236.613281 99.847656 C 237.847656 99.632812 239.066406 99.351562 240.273438 99.011719 C 240.257812 99.019531 240.242188 99.027344 240.226562 99.035156 C 238.371094 99.8125 236.464844 100.339844 234.527344 100.875 C 229.035156 102.394531 223.757812 104.539062 218.75 107.261719 C 215 109.292969 211.425781 111.640625 208.042969 114.238281 C 207.621094 114.3125 207.191406 114.378906 206.761719 114.425781 Z M 249.558594 124.265625 C 251.527344 126.105469 253.402344 128.0625 255.644531 129.578125 C 257.855469 131.070312 260.40625 131.910156 262.914062 132.75 C 266.1875 133.847656 269.238281 135.324219 272.03125 137.195312 C 270.4375 136.632812 268.804688 136.164062 267.148438 135.804688 C 263.925781 135.109375 260.667969 134.898438 257.378906 134.835938 C 255.378906 134.800781 253.328125 134.820312 251.339844 134.566406 C 251.308594 134.5625 251.242188 134.554688 251.191406 134.546875 C 251.097656 134.53125 251.003906 134.515625 250.910156 134.5 C 250.695312 134.46875 250.484375 134.429688 250.273438 134.390625 C 249.765625 134.292969 249.261719 134.1875 248.757812 134.078125 C 245.578125 133.382812 242.433594 132.535156 239.300781 131.675781 C 234.59375 130.382812 229.90625 129.015625 225.234375 127.613281 C 219.371094 125.851562 213.527344 124.035156 207.699219 122.171875 C 207.996094 121.542969 208.242188 120.894531 208.421875 120.230469 C 208.652344 119.390625 208.769531 118.511719 208.667969 117.664062 C 212.980469 116.902344 217.105469 115.167969 221.507812 114.777344 C 225.40625 114.425781 229.324219 114.707031 233.125 115.582031 C 233.363281 115.734375 233.652344 115.816406 233.980469 115.789062 C 234.867188 116.011719 235.746094 116.269531 236.617188 116.558594 C 241.4375 118.167969 245.847656 120.800781 249.558594 124.265625 Z M 267.445312 130.71875 C 264.828125 129.621094 262.019531 128.980469 259.464844 127.75 C 256.8125 126.472656 254.769531 124.410156 252.667969 122.40625 C 248.679688 118.601562 244.011719 115.660156 238.953125 113.734375 C 241.445312 112.511719 243.832031 111.078125 246.0625 109.394531 C 249.511719 106.800781 252.0625 103.5625 254.933594 100.398438 C 260.910156 93.804688 269.574219 90.355469 275.351562 83.480469 C 276.25 82.410156 275.847656 81.070312 274.582031 80.566406 C 265.269531 76.839844 254.648438 79.171875 245.675781 82.800781 C 238.914062 85.535156 232.730469 88.527344 224.734375 92.679688 C 218.898438 95.707031 214.324219 98.433594 213.855469 97.78125 C 213.3125 97.023438 219.300781 93.214844 225.417969 84.613281 C 227.761719 81.320312 229.511719 78.4375 231.621094 74.386719 C 234.78125 68.328125 235.195312 65.613281 239.421875 60.8125 C 243.609375 56.046875 250.578125 50.332031 250.410156 46.84375 C 250.316406 44.882812 249.296875 43.78125 249.296875 43.78125 C 248.695312 43.136719 247.871094 42.683594 246.898438 42.519531 C 244.617188 42.128906 242.101562 43.09375 239.964844 43.792969 C 230.152344 47.011719 221.449219 53.046875 214.226562 60.351562 C 206.351562 68.320312 200.195312 77.761719 194.613281 87.4375 C 195.597656 79.925781 195.824219 72.332031 194.6875 64.8125 C 193.691406 58.214844 191.0625 52.28125 188.96875 46 C 187.351562 41.160156 186.113281 36.214844 185.011719 31.234375 C 184.539062 29.089844 184.285156 25.703125 182.417969 24.210938 C 177.003906 19.878906 172.488281 35.800781 171.675781 38.476562 C 169.117188 46.949219 167.992188 55.734375 168.355469 64.53125 C 162.433594 54.984375 155.128906 46.296875 146.675781 38.84375 C 145.921875 38.179688 144.964844 38.203125 144.207031 38.84375 C 140.535156 41.957031 140.351562 47.003906 141.230469 51.390625 C 141.8125 54.269531 142.691406 57.039062 142.953125 59.976562 C 143.199219 62.761719 143.25 65.554688 143.675781 68.324219 C 145.15625 77.921875 150.59375 86.3125 156.800781 93.558594 C 157.738281 94.652344 158.703125 95.726562 159.683594 96.785156 C 153.324219 92.902344 146.5625 89.703125 139.472656 87.304688 C 131.082031 84.460938 122.242188 82.75 113.476562 81.554688 C 109.320312 80.988281 105.097656 80.484375 100.898438 80.609375 C 98.460938 80.679688 94.722656 80.804688 93.273438 83.183594 C 91.519531 86.066406 94.738281 89.152344 96.714844 90.867188 C 100.183594 93.878906 104.132812 96.34375 108.039062 98.734375 C 117.550781 104.550781 127.511719 109.40625 138.058594 112.957031 C 137.054688 113.25 136.058594 113.539062 135.066406 113.816406 C 125.402344 116.550781 115.289062 119.042969 106.515625 124.09375 C 102.042969 126.667969 98.121094 129.976562 95.085938 134.164062 C 94.371094 135.152344 95.175781 136.375 96.128906 136.726562 C 107.5625 140.941406 120.367188 137.878906 132.015625 136.242188 C 137.082031 135.527344 142.179688 134.886719 147.265625 134.171875 C 144.085938 136.796875 141.082031 139.625 138.320312 142.699219 C 135.476562 145.871094 133.015625 149.324219 130.46875 152.734375 C 124.753906 160.382812 122.609375 160.667969 119.808594 165.644531 C 117.96875 168.914062 117.121094 171.570312 116.316406 174.082031 C 114.363281 180.175781 111.78125 191.65625 114.546875 192.957031 C 115.316406 193.320312 116.058594 192.6875 122.808594 187.058594 C 129.730469 181.289062 132.851562 178.707031 136.3125 176.296875 C 143.910156 171.007812 143.867188 171.78125 148.808594 168 C 152.917969 164.859375 156.835938 161.484375 160.539062 157.871094 C 164.160156 154.335938 167.558594 150.589844 170.777344 146.691406 C 167.640625 162.816406 169.089844 179.691406 170.851562 195.957031 C 171.492188 201.828125 171.9375 207.839844 174.144531 213.375 C 174.402344 214.019531 174.859375 214.429688 175.386719 214.566406 C 176.109375 214.757812 176.804688 214.308594 177.0625 214.144531 C 181.140625 211.503906 184 203.953125 184 203.953125 C 184.910156 201.554688 185.996094 198.292969 186.890625 194.304688 C 187.828125 208.835938 190.09375 226.007812 194.949219 244.855469 C 202.445312 273.96875 213.589844 297.253906 223.414062 314.164062 C 211.433594 310.199219 203.945312 303.988281 200.144531 300.316406 C 192.597656 293.019531 188.1875 284.695312 186.964844 282.28125 C 185.011719 278.429688 184.40625 276.375 181.765625 271.324219 C 179.285156 266.597656 176.378906 262.109375 173.195312 257.824219 C 173.175781 257.703125 173.144531 257.578125 173.089844 257.449219 C 169.726562 248.84375 170.085938 239.113281 174.625 230.996094 C 175.207031 229.960938 174.640625 228.980469 173.8125 228.574219 C 172.8125 229.34375 171.804688 230.101562 170.78125 230.835938 C 167.699219 237.140625 166.699219 244.28125 167.777344 251.15625 C 164.472656 247.398438 160.972656 243.796875 157.625 240.078125 C 157.597656 239.824219 157.503906 239.5625 157.316406 239.292969 C 152.476562 232.371094 154.996094 222.703125 155.972656 214.976562 C 156.089844 214.019531 155.515625 213.480469 154.792969 213.351562 C 153.683594 214.707031 152.707031 216.148438 152.101562 217.738281 C 151.410156 222.59375 150.609375 227.808594 151.230469 232.683594 C 144.492188 224.6875 138.085938 216.417969 132.039062 207.886719 C 131.890625 207.675781 131.714844 207.515625 131.527344 207.394531 C 131.4375 209.535156 131.722656 211.734375 132.085938 213.898438 C 137.210938 220.925781 142.570312 227.777344 148.160156 234.441406 C 146.714844 234.027344 145.238281 233.683594 143.757812 233.367188 C 139.058594 232.351562 133.980469 231.476562 130.402344 227.988281 C 130.242188 227.832031 130.070312 227.714844 129.894531 227.632812 C 129.035156 228.109375 128.214844 228.667969 127.414062 229.261719 C 127.40625 229.667969 127.554688 230.085938 127.933594 230.457031 C 131.492188 233.925781 136.207031 235.289062 140.9375 236.324219 C 145.125 237.242188 149.667969 237.957031 153.265625 240.40625 C 155.960938 243.480469 158.703125 246.507812 161.5 249.488281 C 163.914062 252.0625 166.324219 254.632812 168.519531 257.402344 C 172.460938 262.375 175.707031 267.652344 178.621094 273.148438 C 169.429688 264.140625 157.535156 258.117188 144.539062 255.9375 C 142.558594 255.605469 140.566406 255.359375 138.570312 255.191406 C 138.554688 255.199219 138.539062 255.207031 138.527344 255.21875 C 137.054688 256.128906 135.566406 256.976562 134.40625 258.207031 C 134.644531 258.355469 134.929688 258.453125 135.273438 258.464844 C 149.488281 259.011719 163.425781 264.109375 174.066406 273.527344 C 169.738281 273.171875 165.421875 273.726562 161.316406 275.203125 C 160.582031 276.578125 159.792969 277.925781 158.960938 279.253906 C 159.414062 279.480469 159.960938 279.527344 160.527344 279.261719 C 165.785156 276.820312 171.710938 276.28125 177.355469 277.519531 C 177.640625 277.582031 177.902344 277.578125 178.140625 277.527344 C 181.617188 282.476562 184.667969 286.816406 186.796875 289.851562 C 189.628906 293.886719 192.085938 297.402344 196.273438 301.460938 C 196.941406 302.109375 197.511719 302.632812 197.902344 302.984375 C 191.511719 301.496094 185.015625 300.558594 178.484375 300.164062 C 170.925781 296.453125 163.644531 292.207031 156.6875 287.460938 C 155.640625 287.710938 154.601562 288.003906 153.574219 288.359375 C 153.488281 288.976562 153.691406 289.636719 154.335938 290.078125 C 159.542969 293.660156 164.933594 296.953125 170.484375 299.957031 C 161.558594 300.027344 152.636719 301.117188 143.921875 303.230469 C 143.6875 303.605469 143.453125 303.980469 143.234375 304.363281 C 142.710938 305.28125 142.285156 306.179688 141.96875 307.167969 C 142.179688 307.144531 142.386719 307.148438 142.59375 307.167969 C 163.066406 301.773438 184.742188 302.246094 204.96875 308.519531 C 211.492188 312.960938 218.753906 316.320312 226.21875 318.894531 C 227.144531 320.417969 228.082031 321.933594 229.039062 323.4375 C 235.042969 332.902344 241.652344 341.972656 248.78125 350.621094 C 249.109375 351.019531 249.492188 351.191406 249.867188 351.207031 C 250.136719 349.957031 250.40625 348.707031 250.683594 347.457031 C 236.835938 330.546875 225.101562 311.90625 215.824219 292.113281 C 215.800781 292.0625 215.78125 292.015625 215.757812 291.964844 C 215.796875 291.878906 215.832031 291.789062 215.863281 291.6875 C 216.941406 287.957031 218.027344 284.230469 219.144531 280.511719 C 223.519531 273.878906 230.515625 269.320312 238.324219 268.03125 C 238.765625 266.660156 239.519531 265.425781 240.421875 264.273438 C 240.402344 264.273438 240.382812 264.273438 240.359375 264.277344 C 233.320312 264.914062 226.804688 267.765625 221.664062 272.34375 C 222.058594 271.109375 222.460938 269.878906 222.886719 268.65625 C 223.0625 268.160156 223.238281 267.664062 223.425781 267.171875 C 223.492188 267.003906 223.558594 266.832031 223.625 266.664062 C 223.644531 266.621094 223.65625 266.589844 223.664062 266.566406 C 223.679688 266.539062 223.707031 266.476562 223.769531 266.34375 C 225.714844 262.019531 227.320312 257.578125 228.734375 253.066406 C 230.894531 250.632812 233.914062 249.078125 236.925781 247.785156 C 241.503906 248.332031 245.445312 251.023438 247.644531 255.078125 C 247.875 255.5 248.191406 255.75 248.539062 255.867188 C 248.859375 254.511719 249.273438 253.203125 249.832031 251.949219 C 247.914062 249.082031 245.242188 246.949219 242.152344 245.648438 C 246.296875 243.96875 250.449219 242.296875 254.59375 240.621094 C 256.648438 239.789062 255.75 236.414062 253.667969 237.257812 C 247.90625 239.585938 242.109375 241.839844 236.382812 244.257812 C 235.992188 244.277344 235.683594 244.425781 235.460938 244.648438 C 233.746094 245.390625 232.050781 246.210938 230.46875 247.195312 C 230.492188 247.117188 230.511719 247.046875 230.53125 246.972656 C 232.1875 240.996094 233.273438 235.023438 233.425781 228.902344 C 234.667969 227.710938 236.398438 226.09375 238.519531 224.234375 C 245.648438 217.996094 250.675781 214.753906 250.507812 214.492188 C 250.375 214.28125 246.929688 216.097656 233.367188 224.320312 C 233.453125 222.726562 233.644531 220.167969 235 217.449219 C 236.070312 215.296875 237.5625 213.285156 239.125 211.410156 C 239.148438 211.109375 239.238281 210.796875 239.40625 210.480469 C 240.164062 209.050781 240.917969 207.535156 241.46875 205.964844 C 240.738281 206.398438 239.738281 207.035156 238.628906 207.910156 C 237.289062 208.972656 234.992188 211.007812 232.925781 214.21875 C 231.746094 216.050781 230.507812 218.019531 230.058594 220.898438 C 229.976562 221.429688 229.933594 221.957031 229.90625 222.488281 C 229.125 221.410156 228.210938 220.425781 227.09375 219.5625 C 225.949219 218.679688 224.851562 217.898438 224.136719 216.589844 C 223.351562 215.152344 223.140625 213.53125 223.128906 211.917969 C 223.125 211.136719 222.691406 210.632812 222.140625 210.394531 C 221.28125 212.273438 221.015625 213.90625 220.925781 214.976562 C 220.824219 216.144531 220.753906 217.148438 221.203125 218.308594 C 221.761719 219.75 222.789062 220.589844 223.1875 220.925781 C 225.589844 222.945312 228.625 226.8125 229.683594 229.371094 C 230.605469 231.601562 229.855469 234.953125 228.316406 241.566406 C 227.375 245.601562 226.429688 248.910156 225.726562 251.214844 C 225.542969 251.433594 225.363281 251.660156 225.195312 251.894531 C 222.515625 249.71875 221.070312 246.558594 220.066406 243.230469 C 220.089844 242.929688 220.015625 242.621094 219.804688 242.332031 C 219.292969 240.484375 218.890625 238.605469 218.46875 236.832031 C 216.976562 230.546875 214.386719 224.921875 210.035156 220.101562 C 210.007812 220.070312 209.980469 220.042969 209.953125 220.015625 C 209.015625 220.070312 208.089844 220.316406 207.191406 220.863281 C 207.011719 221.40625 207.082031 222.027344 207.570312 222.566406 C 209.75 224.988281 211.546875 227.710938 212.878906 230.6875 C 214.121094 233.460938 214.796875 236.429688 215.480469 239.382812 C 212.621094 237.894531 209.496094 237.019531 206.246094 236.832031 C 205.890625 237.707031 205.691406 238.644531 205.664062 239.546875 C 205.660156 239.820312 205.613281 240.066406 205.535156 240.289062 C 209.585938 240.421875 213.519531 241.757812 216.75 244.261719 C 218.140625 248.722656 220.304688 252.9375 224.320312 255.554688 C 223.394531 258.238281 222.375 260.882812 221.25 263.464844 C 220.199219 265.878906 219.304688 268.300781 218.492188 270.804688 C 217.597656 273.570312 216.738281 276.347656 215.902344 279.132812 C 215.832031 279.289062 215.785156 279.445312 215.765625 279.597656 C 215.015625 282.101562 214.28125 284.609375 213.550781 287.121094 C 201.96875 260.976562 194.71875 232.902344 192.191406 204.421875 C 191.042969 191.464844 190.855469 178.433594 191.605469 165.453125 C 192.097656 161.367188 192.496094 157.273438 192.757812 153.164062 C 192.851562 151.695312 192.921875 150.230469 192.980469 148.757812 C 198.261719 154.308594 203.554688 159.855469 208.910156 165.332031 C 211.554688 168.039062 214.246094 170.675781 216.652344 173.605469 C 220.324219 178.070312 223.820312 182.636719 227.871094 186.777344 C 232.339844 191.335938 237.226562 195.457031 242.421875 199.164062 C 243.582031 199.988281 244.96875 198.855469 245.046875 197.65625 C 245.484375 190.898438 242.640625 184.703125 239.695312 178.800781 C 238.148438 175.699219 236.535156 172.617188 235.34375 169.359375 C 234.195312 166.226562 233.226562 163.019531 232.355469 159.800781 C 231.457031 156.484375 230.777344 153.195312 229.214844 150.105469 C 227.476562 146.667969 225.007812 143.601562 222.285156 140.878906 C 227.617188 141.503906 235.59375 142.292969 245.316406 142.710938 C 257.34375 143.226562 279.945312 144.191406 280.75 140.058594 C 281.246094 137.511719 273.332031 133.1875 267.445312 130.71875 " fill-opacity="1" fill-rule="nonzero"/></g><path fill="#fffff9" d="M 96.253906 84.988281 C 96.222656 85.035156 96.183594 85.042969 96.253906 84.988281 " fill-opacity="1" fill-rule="nonzero"/><path fill="#fffff9" d="M 186.585938 123.898438 C 184.769531 123.898438 184.765625 126.726562 186.585938 126.726562 C 188.40625 126.726562 188.410156 123.898438 186.585938 123.898438 " fill-opacity="1" fill-rule="nonzero"/><path fill="#fffff9" d="M 193.140625 122.851562 C 191.324219 122.851562 191.320312 125.675781 193.140625 125.675781 C 194.960938 125.675781 194.964844 122.851562 193.140625 122.851562 " fill-opacity="1" fill-rule="nonzero"/><path fill="#fffff9" d="M 196.027344 110.789062 C 194.207031 110.789062 194.203125 113.617188 196.027344 113.617188 C 197.84375 113.617188 197.847656 110.789062 196.027344 110.789062 " fill-opacity="1" fill-rule="nonzero"/><path fill="#fffff9" d="M 199.171875 121.21875 C 200.992188 121.21875 200.996094 118.394531 199.171875 118.394531 C 197.355469 118.394531 197.351562 121.21875 199.171875 121.21875 " fill-opacity="1" fill-rule="nonzero"/><path fill="#fffff9" d="M 194.191406 101.292969 C 196.011719 101.292969 196.011719 98.464844 194.191406 98.464844 C 192.371094 98.464844 192.367188 101.292969 194.191406 101.292969 " fill-opacity="1" fill-rule="nonzero"/><path fill="#fffff9" d="M 186.851562 99.515625 C 185.03125 99.515625 185.027344 102.339844 186.851562 102.339844 C 188.667969 102.339844 188.671875 99.515625 186.851562 99.515625 " fill-opacity="1" fill-rule="nonzero"/><path fill="#fffff9" d="M 195.765625 106.535156 C 197.582031 106.535156 197.585938 103.710938 195.765625 103.710938 C 193.945312 103.710938 193.941406 106.535156 195.765625 106.535156 " fill-opacity="1" fill-rule="nonzero"/><path fill="#fffff9" d="M 179.769531 126.320312 C 179.042969 126.320312 179.042969 127.449219 179.769531 127.449219 C 180.496094 127.449219 180.5 126.320312 179.769531 126.320312 " fill-opacity="1" fill-rule="nonzero"/><path fill="#fffff9" d="M 191.042969 116.878906 C 190.316406 116.878906 190.316406 118.011719 191.042969 118.011719 C 191.773438 118.011719 191.773438 116.878906 191.042969 116.878906 " fill-opacity="1" fill-rule="nonzero"/><path fill="#fffff9" d="M 190.78125 127.367188 C 190.054688 127.367188 190.054688 128.5 190.78125 128.5 C 191.511719 128.5 191.511719 127.367188 190.78125 127.367188 " fill-opacity="1" fill-rule="nonzero"/><path fill="#fffff9" d="M 201.007812 116.699219 C 201.734375 116.699219 201.738281 115.570312 201.007812 115.570312 C 200.28125 115.570312 200.277344 116.699219 201.007812 116.699219 " fill-opacity="1" fill-rule="nonzero"/><path fill="#fffff9" d="M 189.996094 106.394531 C 189.269531 106.394531 189.265625 107.523438 189.996094 107.523438 C 190.722656 107.523438 190.726562 106.394531 189.996094 106.394531 " fill-opacity="1" fill-rule="nonzero"/><path fill="#fffff9" d="M 198.910156 109.621094 C 199.636719 109.621094 199.640625 108.488281 198.910156 108.488281 C 198.183594 108.488281 198.183594 109.621094 198.910156 109.621094 " fill-opacity="1" fill-rule="nonzero"/><path fill="#fffff9" d="M 180.558594 102.460938 C 179.828125 102.460938 179.828125 103.589844 180.558594 103.589844 C 181.285156 103.589844 181.285156 102.460938 180.558594 102.460938 " fill-opacity="1" fill-rule="nonzero"/><path fill="#fffff9" d="M 189.996094 99.132812 C 190.722656 99.132812 190.726562 98.003906 189.996094 98.003906 C 189.269531 98.003906 189.265625 99.132812 189.996094 99.132812 " fill-opacity="1" fill-rule="nonzero"/></svg>