<svg xmlns="http://www.w3.org/2000/svg" xmlns:xlink="http://www.w3.org/1999/xlink" width="500" zoomAndPan="magnify" viewBox="0 0 375 374.999991" height="500" preserveAspectRatio="xMidYMid meet" version="1.0"><defs><clipPath id="0128ea0547"><path d="M 187.5 0 C 83.945312 0 0 83.945312 0 187.5 C 0 291.054688 83.945312 375 187.5 375 C 291.054688 375 375 291.054688 375 187.5 C 375 83.945312 291.054688 0 187.5 0 Z M 187.5 0 " clip-rule="nonzero"/></clipPath><clipPath id="4cb4d16040"><path d="M 93.070312 65.582031 L 294 65.582031 L 294 331.832031 L 93.070312 331.832031 Z M 93.070312 65.582031 " clip-rule="nonzero"/></clipPath></defs><g clip-path="url(#0128ea0547)"><rect x="-37.5" width="450" fill="#fec743" y="-37.499999" height="449.999989" fill-opacity="1"/></g><g clip-path="url(#4cb4d16040)"><path fill="#ffffff" d="M 138.953125 284.085938 C 139.386719 284.234375 139.828125 284.398438 140.269531 284.539062 C 139.101562 283.003906 138.453125 281.300781 138.390625 279.59375 C 138.375 279.316406 138.390625 279.046875 138.410156 278.789062 C 135.335938 278.140625 132.253906 277.4375 129.277344 276.519531 C 121.875 274.253906 115.96875 270.902344 111.71875 266.582031 C 108.109375 262.894531 105.535156 258.355469 103.0625 253.984375 C 101.226562 250.738281 99.292969 247.40625 96.992188 244.460938 C 96.488281 245.535156 96.421875 246.945312 96.863281 248.0625 C 97.539062 249.769531 98.84375 251.179688 100.238281 252.679688 C 100.808594 253.292969 101.371094 253.890625 101.902344 254.523438 C 103.847656 256.84375 105.304688 259.5 106.714844 262.070312 C 107.945312 264.339844 109.121094 266.476562 110.601562 268.417969 C 115.007812 274.175781 121.925781 277.550781 126.746094 279.578125 C 130.730469 281.257812 134.910156 282.691406 138.953125 284.085938 Z M 141.128906 221.050781 C 142.003906 220.144531 143.109375 219.449219 144.296875 219 C 142.609375 217.5625 140.902344 216.089844 139.242188 214.59375 C 124.339844 201.070312 112.765625 183.988281 105.683594 165.160156 C 105.320312 165.644531 105.007812 166.207031 104.773438 166.820312 C 104.082031 168.640625 104.074219 170.726562 104.160156 172.535156 C 104.707031 185.410156 110.472656 197.78125 119.960938 206.492188 C 124.515625 210.671875 129.960938 214.046875 135.230469 217.328125 C 137.1875 218.542969 139.171875 219.78125 141.128906 221.050781 Z M 145.957031 138.503906 C 147.734375 120.089844 143.308594 101.390625 133.535156 85.710938 C 133.386719 85.824219 133.242188 85.925781 133.101562 86.066406 C 133.292969 90.542969 134.339844 95.050781 136.132812 99.164062 C 140.167969 108.453125 141.59375 118.679688 140.246094 128.738281 C 140.15625 129.328125 139.726562 129.8125 139.136719 129.957031 C 138.554688 130.105469 137.949219 129.878906 137.59375 129.394531 L 122.53125 108.652344 C 121.242188 106.851562 120.019531 105.34375 118.402344 104.902344 C 117.976562 104.78125 117.46875 104.722656 116.902344 104.671875 C 115.527344 104.523438 113.804688 104.332031 112.679688 102.902344 C 111.898438 101.953125 111.734375 100.792969 111.605469 99.863281 C 111.519531 99.207031 111.425781 98.59375 111.164062 98.253906 C 110.972656 98.03125 110.664062 97.96875 110.488281 97.960938 C 110.28125 97.941406 110.074219 97.96875 109.875 98.03125 C 110.230469 102.160156 112.765625 105.699219 114.914062 107.984375 C 116.695312 109.882812 118.800781 111.605469 120.816406 113.257812 C 122.003906 114.246094 123.234375 115.257812 124.410156 116.296875 C 129.761719 121.101562 134.238281 127.03125 137.378906 133.5 C 138.246094 135.273438 139.101562 136.980469 139.933594 138.632812 C 142.210938 143.179688 144.269531 147.316406 146.046875 151.871094 C 145.585938 147.300781 145.527344 142.824219 145.957031 138.503906 Z M 150.710938 172.585938 C 151.109375 172.09375 151.90625 170.753906 150.832031 169.230469 C 150.417969 168.675781 149.742188 168.328125 149.273438 168.46875 C 149.109375 168.492188 148.960938 168.578125 148.832031 168.710938 C 148.433594 169.097656 148.132812 169.84375 148.054688 170.648438 C 147.878906 172.492188 148.21875 173.488281 148.640625 173.652344 C 149.082031 173.824219 150.035156 173.425781 150.710938 172.585938 Z M 154.574219 285.601562 C 155.371094 283.488281 154.460938 280.105469 153.171875 278.746094 C 151.570312 277.039062 149.101562 275.992188 146.21875 275.820312 C 144.53125 275.734375 143.285156 275.992188 142.488281 276.660156 C 141.726562 277.273438 141.285156 278.363281 141.328125 279.488281 C 141.363281 280.582031 141.828125 281.75 142.632812 282.816406 C 143.734375 284.25 145.292969 285.203125 147.527344 285.835938 C 148.046875 285.964844 148.640625 286.199219 149.273438 286.449219 C 150.320312 286.847656 151.59375 287.332031 152.332031 287.273438 C 153.472656 287.160156 154.183594 286.632812 154.574219 285.601562 Z M 158.007812 236.765625 C 158.71875 236.152344 158.175781 232.410156 156.269531 227.996094 C 154.804688 224.609375 152.242188 222.160156 149.4375 221.433594 C 146.703125 220.730469 143.007812 222.082031 142.140625 224.929688 C 141.621094 226.652344 142.140625 228.808594 143.5 230.574219 C 144.953125 232.453125 147.144531 233.742188 148.875 234.671875 C 153.171875 236.929688 156.824219 237.769531 158.007812 236.765625 Z M 161.101562 189.453125 C 161.152344 189.417969 161.214844 189.410156 161.273438 189.375 C 160.902344 188.96875 160.511719 188.542969 160.097656 188.128906 C 156.425781 184.542969 153.769531 180.242188 151.699219 175.636719 C 150.816406 176.265625 149.828125 176.628906 148.894531 176.628906 C 148.425781 176.628906 147.984375 176.542969 147.558594 176.378906 C 146.46875 175.9375 144.71875 174.585938 145.136719 170.363281 C 145.285156 168.847656 145.878906 167.460938 146.789062 166.597656 C 147.171875 166.234375 147.613281 165.980469 148.089844 165.792969 C 147.527344 163.972656 147.015625 162.136719 146.53125 160.3125 C 144.382812 152.460938 141.40625 146.511719 137.96875 139.621094 C 137.128906 137.957031 136.28125 136.242188 135.394531 134.453125 C 132.382812 128.253906 128.0625 122.539062 122.9375 117.941406 C 121.796875 116.929688 120.59375 115.933594 119.414062 114.964844 C 117.34375 113.257812 115.199219 111.5 113.3125 109.484375 C 112.265625 108.382812 111.136719 106.992188 110.167969 105.386719 C 109.546875 107.15625 109.875 109.398438 111.078125 111.457031 C 112.308594 113.535156 114.21875 115.285156 116.082031 116.988281 C 127.742188 127.59375 138.480469 138.296875 141.65625 152.613281 C 142.53125 156.613281 142.753906 160.734375 142.972656 164.734375 C 143.257812 170.023438 143.535156 175.011719 145.207031 179.746094 C 147.421875 186.042969 152.105469 191.390625 156.3125 195.910156 L 156.804688 196.4375 C 156.882812 193.433594 158.574219 190.613281 161.101562 189.453125 Z M 170.492188 203.546875 C 171.125 201.199219 170.953125 198.65625 170.027344 196.414062 C 169.289062 194.664062 168.164062 193.289062 166.824219 192.492188 C 165.972656 191.988281 165.011719 191.730469 164.121094 191.730469 C 163.488281 191.730469 162.875 191.859375 162.328125 192.109375 C 160.710938 192.855469 159.628906 194.878906 159.734375 196.914062 C 159.835938 198.835938 160.894531 200.863281 162.640625 202.429688 C 164.035156 203.710938 166.371094 205.3125 168.234375 205.859375 C 168.746094 206.003906 169.03125 205.902344 169.1875 205.816406 C 169.714844 205.519531 170.199219 204.664062 170.492188 203.546875 Z M 177.238281 237.3125 C 177.203125 237.242188 177.195312 237.179688 177.160156 237.101562 C 176.769531 235.621094 176.519531 234.082031 176.285156 232.582031 C 176.105469 231.441406 175.914062 230.246094 175.664062 229.121094 C 174.5625 224.359375 173.046875 219.40625 171.039062 214.003906 C 170.363281 212.214844 169.820312 210.480469 169.351562 208.792969 C 169.132812 208.820312 168.925781 208.863281 168.703125 208.863281 C 168.277344 208.863281 167.851562 208.8125 167.410156 208.671875 C 167.324219 208.644531 167.222656 208.621094 167.132812 208.585938 C 167.898438 209.703125 168.597656 210.835938 169.246094 212.039062 C 172.875 218.773438 173.34375 226.566406 170.484375 232.878906 C 170.214844 233.46875 169.601562 233.8125 168.96875 233.726562 C 168.339844 233.65625 167.820312 233.191406 167.707031 232.558594 C 166.339844 225.769531 161.421875 219.355469 153.066406 213.476562 C 150.476562 211.648438 147.734375 209.953125 145.058594 208.308594 C 140.496094 205.503906 135.761719 202.578125 131.640625 198.941406 C 124.488281 192.613281 119.222656 184.050781 116.800781 174.804688 C 116.660156 174.222656 116.515625 173.636719 116.375 173.046875 C 115.804688 170.699219 115.257812 168.476562 114.117188 166.589844 C 112.871094 164.570312 110.417969 162.820312 108.144531 163.410156 C 107.902344 163.472656 107.703125 163.558594 107.476562 163.660156 C 114.410156 182.457031 125.898438 199.496094 140.730469 212.949219 C 142.609375 214.65625 144.574219 216.34375 146.46875 217.96875 C 146.632812 218.089844 146.78125 218.238281 146.9375 218.367188 C 148.027344 218.246094 149.128906 218.324219 150.15625 218.585938 C 153.84375 219.527344 157.144531 222.609375 158.972656 226.828125 C 159.601562 228.296875 160.347656 230.246094 160.804688 232.1875 C 161.800781 233.390625 162.832031 234.582031 163.929688 235.664062 C 166.632812 238.339844 168.675781 241.484375 170.425781 244.652344 C 170.632812 242.472656 171.246094 240.78125 172.328125 239.527344 C 173.53125 238.167969 175.34375 237.414062 177.238281 237.3125 Z M 182.15625 119.351562 C 184.214844 104.859375 184.875 90.097656 184.136719 75.46875 C 183.203125 75.035156 182.390625 74.238281 181.949219 73.285156 C 181.609375 72.578125 181.417969 71.851562 181.273438 71.199219 C 181.140625 70.679688 181.039062 70.214844 180.867188 69.804688 C 180.632812 69.242188 180.058594 68.671875 179.765625 68.542969 C 178.46875 69.234375 177.472656 70.742188 177.054688 72.65625 C 176.710938 74.28125 176.769531 75.988281 176.8125 77.78125 L 176.839844 78.863281 C 176.925781 84.066406 175.574219 89.171875 174.261719 94.144531 C 173.1875 98.175781 172.070312 102.351562 171.820312 106.425781 C 171.109375 117.769531 170.390625 129.492188 173.585938 140.519531 C 173.757812 141.144531 173.972656 141.765625 174.164062 142.382812 C 174.582031 140.441406 175.558594 138.78125 177.003906 137.8125 C 178.128906 137.050781 179.53125 136.710938 180.96875 136.773438 C 180.527344 130.851562 181.324219 125.214844 182.15625 119.351562 Z M 184.363281 305.53125 C 184.363281 305.289062 184.328125 305.03125 184.328125 304.796875 C 183.835938 289.972656 180.832031 275.160156 175.558594 261.265625 C 174.535156 260.148438 173.992188 258.738281 173.488281 257.429688 C 173.238281 256.789062 173.003906 256.167969 172.726562 255.640625 C 171.792969 253.820312 171.144531 251.984375 170.746094 250.132812 C 170.492188 249.605469 170.242188 249.078125 169.984375 248.566406 C 167.984375 244.609375 165.699219 240.496094 162.375 237.242188 C 161.964844 236.824219 161.59375 236.382812 161.203125 235.976562 C 161.125 237.207031 160.746094 238.296875 159.90625 239 C 159.777344 239.121094 159.613281 239.207031 159.457031 239.3125 C 161.871094 243.613281 163.800781 248.574219 165.210938 254.132812 C 167.160156 261.871094 167.921875 269.871094 168.675781 277.628906 C 168.71875 278.097656 168.527344 278.5625 168.164062 278.882812 C 167.808594 279.195312 167.308594 279.300781 166.839844 279.1875 L 165.808594 278.9375 C 162.832031 278.183594 161.421875 277.722656 159.601562 274.46875 L 144.410156 247.222656 C 142.695312 244.140625 140.746094 240.644531 137.734375 238.636719 C 135.164062 236.902344 131.050781 236.480469 128.921875 238.800781 C 126.703125 241.207031 127.554688 245.519531 129.65625 248.324219 C 131.121094 250.253906 133.015625 251.792969 135.03125 253.421875 C 136.234375 254.410156 137.484375 255.40625 138.625 256.523438 C 140.566406 258.375 144.902344 263.292969 143.351562 268.945312 C 143.238281 269.402344 142.917969 269.75 142.476562 269.933594 C 142.046875 270.089844 141.570312 270.0625 141.171875 269.8125 C 138.324219 268.054688 134.765625 268.035156 131.007812 268.035156 C 127.15625 268.019531 123.164062 268.019531 119.664062 266.070312 C 116.75 264.433594 114.730469 261.726562 112.972656 259.34375 L 103.363281 246.375 C 101.648438 244.0625 100.257812 242.964844 98.992188 242.964844 C 98.871094 242.964844 98.757812 242.980469 98.636719 243 C 101.085938 246.097656 103.070312 249.535156 104.984375 252.894531 C 107.390625 257.152344 109.882812 261.542969 113.292969 265.039062 C 117.285156 269.09375 122.867188 272.253906 129.917969 274.40625 C 132.84375 275.316406 135.882812 276.007812 138.9375 276.640625 C 139.316406 275.757812 139.890625 274.972656 140.625 274.382812 C 142.003906 273.246094 143.957031 272.738281 146.398438 272.894531 C 150.027344 273.117188 153.179688 274.46875 155.300781 276.726562 C 156.191406 277.671875 156.945312 279.125 157.378906 280.726562 C 161.886719 282.078125 166.226562 283.898438 170.128906 286.640625 C 176.285156 290.960938 181.203125 297.496094 184.363281 305.53125 Z M 184.371094 253.128906 C 184.433594 250.738281 184.433594 248.191406 183.757812 245.875 C 183.0625 243.492188 181.652344 241.632812 179.921875 240.746094 C 178.078125 239.8125 175.707031 240.132812 174.535156 241.464844 C 173.800781 242.304688 173.394531 243.585938 173.289062 245.363281 C 173.125 248.316406 173.816406 251.328125 175.34375 254.304688 C 175.695312 254.980469 175.957031 255.683594 176.226562 256.375 C 176.855469 258.003906 177.386719 259.40625 178.675781 260.003906 C 179.914062 260.574219 181.539062 260.324219 182.535156 259.429688 C 184.050781 258.082031 184.3125 255.613281 184.371094 253.128906 Z M 186.542969 328.265625 C 186.136719 319.808594 184.789062 312.683594 182.390625 306.542969 C 179.394531 298.820312 174.726562 292.5625 168.867188 288.449219 C 165.445312 286.050781 161.714844 284.425781 157.777344 283.160156 C 157.855469 284.355469 157.734375 285.558594 157.324219 286.640625 C 156.71875 288.242188 155.578125 289.359375 154.042969 289.886719 C 162.347656 293.738281 168.46875 298.300781 172.65625 303.808594 C 177.972656 310.769531 180.46875 319.695312 179.644531 328.558594 C 181.9375 328.484375 184.242188 328.378906 186.542969 328.265625 Z M 185.609375 283.636719 C 185.714844 281.257812 185.808594 278.796875 185.402344 276.640625 C 184.683594 272.839844 183.980469 269.050781 183.253906 265.257812 C 183.097656 264.410156 182.933594 263.542969 182.769531 262.695312 C 181.9375 263.039062 181.039062 263.25 180.148438 263.25 C 179.601562 263.25 179.074219 263.160156 178.5625 263.03125 C 182 272.695312 184.371094 282.753906 185.609375 292.925781 C 185.609375 291.296875 185.59375 289.679688 185.53125 288.085938 C 185.480469 286.640625 185.53125 285.101562 185.609375 283.636719 Z M 188.421875 160.535156 C 189.792969 159.695312 190.65625 157.097656 190.457031 154.511719 C 190.078125 149.808594 188.414062 145.585938 185.78125 142.589844 C 184.621094 141.246094 183.480469 140.398438 182.277344 139.976562 C 180.976562 139.515625 179.585938 139.621094 178.648438 140.253906 C 177.738281 140.867188 177.089844 142.070312 176.925781 143.472656 C 176.753906 144.980469 177.074219 146.582031 177.386719 147.964844 C 178.753906 153.964844 181.125 157.609375 185.332031 160.15625 C 186.578125 160.898438 187.617188 161.03125 188.421875 160.535156 Z M 193.375 196.984375 C 193.601562 193.105469 193.367188 189.246094 193.125 186.308594 C 192.578125 179.316406 191.28125 172.386719 189.246094 165.722656 C 189.046875 165.03125 188.796875 164.320312 188.5625 163.617188 C 188.191406 163.722656 187.808594 163.78125 187.367188 163.78125 C 186.355469 163.78125 185.183594 163.488281 183.816406 162.667969 C 183.140625 162.269531 182.527344 161.828125 181.921875 161.367188 C 182.085938 161.765625 182.242188 162.179688 182.390625 162.578125 C 187.472656 176.796875 188.164062 192.179688 184.3125 205.945312 C 184.15625 206.523438 183.628906 206.957031 183.011719 207 C 182.40625 207.042969 181.816406 206.707031 181.566406 206.152344 C 179.246094 201.054688 176.441406 196.117188 173.238281 191.476562 C 171.929688 189.582031 170.285156 187.746094 168.691406 185.972656 C 166.675781 183.722656 164.589844 181.390625 163.066406 178.828125 C 160.078125 173.886719 158.46875 167.230469 157.160156 161.886719 L 157.09375 161.558594 C 155.679688 155.835938 154.824219 149.957031 154.519531 144.113281 C 154.355469 141.074219 154.339844 137.992188 154.332031 135.023438 C 154.3125 129.914062 154.296875 124.644531 153.515625 119.5625 C 152.296875 111.585938 149.214844 103.898438 146.21875 96.472656 C 144.886719 93.15625 143.5 89.734375 141.050781 87.226562 C 140.097656 86.265625 138.582031 85.0625 136.746094 84.800781 C 136.367188 84.742188 135.96875 84.757812 135.570312 84.808594 C 145.480469 100.859375 149.949219 119.925781 148.140625 138.710938 C 147.316406 147.289062 148.304688 156.554688 150.996094 165.792969 C 151.84375 166.113281 152.640625 166.71875 153.222656 167.523438 C 154.632812 169.503906 154.652344 171.914062 153.34375 173.914062 C 155.386719 178.628906 158 182.984375 161.636719 186.5625 C 162.390625 187.304688 163.066406 188.058594 163.679688 188.820312 C 165.238281 188.734375 166.882812 189.113281 168.3125 189.953125 C 170.199219 191.0625 171.757812 192.957031 172.726562 195.277344 C 173.914062 198.128906 174.136719 201.332031 173.332031 204.308594 C 172.917969 205.859375 172.242188 207.042969 171.359375 207.824219 C 171.863281 209.589844 172.40625 211.375 173.089844 213.242188 C 175.152344 218.730469 176.691406 223.769531 177.808594 228.636719 C 178.085938 229.820312 178.277344 231.058594 178.46875 232.246094 C 178.710938 233.742188 178.925781 235.171875 179.289062 236.53125 C 179.394531 236.871094 179.53125 237.207031 179.628906 237.542969 C 180.191406 237.683594 180.734375 237.875 181.246094 238.125 C 182.890625 238.957031 184.300781 240.382812 185.332031 242.160156 C 186.839844 230.308594 188.855469 218.472656 191.394531 206.835938 C 191.601562 205.902344 191.835938 204.941406 192.066406 203.988281 C 192.640625 201.683594 193.246094 199.304688 193.375 196.984375 Z M 201.625 213.683594 C 199.402344 213.605469 197.460938 212.636719 196.023438 210.898438 C 194.933594 209.574219 194.234375 207.925781 193.800781 206.238281 C 193.714844 206.585938 193.625 206.957031 193.546875 207.3125 C 191.28125 217.71875 189.410156 228.296875 187.972656 238.894531 C 190.191406 233.449219 192.726562 228.132812 195.566406 222.992188 C 197.226562 219.988281 199.191406 216.707031 201.625 213.683594 Z M 206.699219 189.367188 C 207.574219 175.425781 204.128906 159.609375 196.207031 141.414062 C 195.835938 140.527344 195.460938 139.699219 195.097656 138.875 C 193.417969 135.109375 191.980469 131.863281 190.882812 127.550781 C 188.648438 118.84375 190.898438 109.71875 193.183594 101.863281 L 193.773438 99.863281 C 195.902344 92.585938 198.121094 85.042969 197.460938 77.597656 C 197.167969 74.324219 196.222656 72.003906 194.65625 70.734375 C 193.757812 69.996094 192.335938 69.683594 191.132812 69.953125 C 190.542969 70.09375 189.746094 70.4375 189.382812 71.242188 C 189.238281 71.5625 189.132812 71.917969 189.03125 72.28125 C 188.691406 73.398438 188.25 74.933594 186.683594 75.5625 C 186.578125 75.617188 186.457031 75.632812 186.34375 75.667969 C 187.074219 90.332031 186.398438 105.121094 184.328125 119.664062 C 183.488281 125.59375 182.699219 131.28125 183.210938 137.195312 C 183.230469 137.195312 183.253906 137.214844 183.273438 137.214844 C 184.953125 137.8125 186.492188 138.925781 187.992188 140.652344 C 191.046875 144.113281 192.953125 148.960938 193.375 154.277344 C 193.609375 157.1875 192.804688 160.734375 190.542969 162.589844 C 190.820312 163.429688 191.097656 164.25 191.367188 165.089844 C 193.4375 171.894531 194.769531 178.976562 195.332031 186.128906 C 195.480469 188.015625 195.625 190.273438 195.652344 192.683594 C 197.089844 190.171875 199.367188 188.484375 201.808594 188.171875 C 203.480469 187.964844 205.183594 188.421875 206.699219 189.367188 Z M 208.371094 201.625 C 208.648438 198.480469 208.34375 196.160156 207.390625 194.308594 C 206.449219 192.507812 204.363281 190.820312 202.1875 191.097656 C 200.285156 191.332031 198.796875 192.976562 198.050781 194.414062 C 197.082031 196.273438 196.726562 198.5 196.386719 200.636719 C 195.988281 203.183594 196.5 206.871094 198.285156 209.007812 C 199.210938 210.144531 200.335938 210.699219 201.746094 210.757812 C 203.46875 210.792969 205.355469 209.683594 206.535156 207.910156 C 207.53125 206.371094 208.117188 204.371094 208.371094 201.625 Z M 203.269531 244.394531 C 205.964844 243.683594 209.324219 239.5625 209.070312 237.285156 C 208.933594 235.847656 208.015625 234.550781 206.8125 234.0625 C 206.316406 233.867188 205.84375 233.769531 205.390625 233.769531 C 204.449219 233.769531 203.582031 234.167969 202.804688 234.980469 C 200.855469 236.972656 199.988281 240.894531 200.984375 243.1875 C 201.480469 244.347656 202.144531 244.695312 203.269531 244.394531 Z M 214.820312 282.183594 C 214.128906 281.941406 213.511719 281.578125 212.992188 281.101562 C 212.074219 280.269531 211.574219 279.195312 211.355469 278.035156 C 208.59375 282.519531 206.933594 287.800781 205.566406 292.691406 C 203.089844 301.574219 200.984375 310.699219 199.339844 319.789062 C 198.839844 322.535156 198.457031 325.191406 198.960938 327.617188 C 200.960938 327.53125 202.949219 327.445312 204.949219 327.382812 C 205.210938 323.191406 205.410156 318.96875 205.546875 314.796875 C 205.589844 313.402344 205.566406 311.964844 205.523438 310.421875 C 205.460938 307.351562 205.390625 304.164062 205.988281 301.210938 C 207.246094 295.011719 209.382812 287.316406 214.820312 282.183594 Z M 231.796875 271.769531 C 232.792969 269.828125 232.792969 267.613281 231.796875 266.097656 C 230.621094 264.320312 228.238281 263.707031 226.300781 263.707031 C 226.082031 263.707031 225.859375 263.714844 225.640625 263.734375 C 221.796875 264.011719 218.238281 266.375 216.128906 270.019531 C 214.542969 272.753906 213.261719 277.378906 214.96875 278.9375 C 215.703125 279.59375 217.035156 279.765625 218.933594 279.429688 C 221.824219 278.902344 224.558594 277.878906 227.070312 276.363281 C 229.375 274.972656 230.914062 273.457031 231.796875 271.769531 Z M 241.035156 171.332031 C 241.226562 169.296875 241.335938 166.925781 240.84375 164.691406 C 240.34375 162.476562 239.25 160.667969 237.789062 159.574219 C 237.007812 158.996094 235.96875 158.625 235 158.625 C 234.308594 158.625 233.648438 158.8125 233.148438 159.238281 C 232.367188 159.914062 231.925781 161.132812 231.761719 163.089844 C 231.398438 167.496094 232.152344 171.992188 233.910156 176.085938 C 234.011719 176.335938 234.117188 176.585938 234.222656 176.847656 C 234.835938 178.363281 235.261719 179.289062 236.066406 179.359375 C 237.171875 179.496094 238.652344 178.363281 239.390625 177.28125 C 240.507812 175.636719 240.84375 173.445312 241.035156 171.332031 Z M 248.59375 217.527344 C 249.667969 213.988281 250.78125 210.378906 253.148438 207.546875 C 251.300781 208.367188 249.65625 209.9375 248.523438 211.511719 C 247.570312 212.800781 246.792969 214.195312 245.953125 215.683594 C 244.914062 217.546875 243.824219 219.484375 242.386719 221.199219 C 239.121094 225.136719 234.101562 227.945312 227.476562 229.546875 C 224.394531 230.289062 221.234375 230.730469 218.179688 231.171875 C 215.875 231.492188 213.496094 231.832031 211.210938 232.308594 C 210.75 232.394531 210.292969 232.496094 209.84375 232.601562 C 211.011719 233.71875 211.824219 235.257812 211.996094 236.964844 C 212.085938 237.691406 211.980469 238.472656 211.765625 239.265625 C 212.179688 239.207031 212.585938 239.144531 212.992188 239.085938 C 215.15625 238.78125 217.390625 238.472656 219.5625 238.0625 C 225.277344 236.992188 230.835938 235.179688 236.109375 232.730469 C 239.09375 231.335938 242.429688 229.511719 244.644531 226.617188 C 246.609375 224.066406 247.625 220.75 248.59375 217.527344 Z M 256.703125 95.207031 C 254.914062 95.164062 253.035156 96.367188 251.882812 97.753906 C 250.84375 98.980469 250.082031 100.4375 249.257812 101.976562 C 248.757812 102.9375 248.230469 103.917969 247.640625 104.878906 C 244.628906 109.628906 240.082031 112.9375 235.675781 116.140625 C 231.71875 119.015625 227.996094 121.734375 225.261719 125.386719 C 220.855469 131.328125 219.164062 139.699219 220.117188 150.988281 C 220.351562 153.6875 220.707031 156.46875 221.027344 159.152344 C 221.839844 165.601562 222.671875 172.25 222.015625 178.875 C 221.296875 186.1875 218.09375 194.855469 211.398438 199.816406 C 211.398438 200.480469 211.367188 201.175781 211.296875 201.894531 C 211.15625 203.3125 210.925781 204.550781 210.628906 205.675781 C 211.324219 205.226562 212.015625 204.765625 212.699219 204.324219 C 215.730469 202.371094 218.59375 200.523438 221.089844 197.886719 C 225.347656 193.339844 230.003906 186.585938 232.246094 179.609375 C 231.953125 179.054688 231.710938 178.464844 231.503906 177.957031 C 231.398438 177.714844 231.3125 177.480469 231.207031 177.261719 C 229.25 172.707031 228.429688 167.730469 228.84375 162.855469 C 228.976562 161.109375 229.390625 158.613281 231.226562 157.023438 C 231.339844 156.917969 231.460938 156.867188 231.570312 156.769531 C 230.558594 150.945312 229.726562 144.953125 230.679688 139.109375 C 232.117188 130.296875 238.464844 123.25 244.074219 117.03125 C 250.019531 110.425781 255.457031 103.832031 256.351562 95.867188 C 256.382812 95.605469 256.515625 95.390625 256.703125 95.207031 Z M 259.15625 260.589844 C 259.1875 259.941406 259.023438 259.117188 258.523438 258.738281 C 258.074219 258.382812 257.25 258.375 256.566406 258.355469 C 254.574219 258.382812 251.640625 259.726562 250.992188 261.351562 C 250.871094 261.648438 250.566406 262.425781 251.839844 263.691406 C 253 264.808594 254.644531 265.101562 256.246094 264.46875 C 257.933594 263.792969 259.085938 262.261719 259.15625 260.589844 Z M 280.078125 232.652344 C 282.441406 224.695312 282.875 216.160156 282.796875 208.457031 C 282.078125 209.804688 281.128906 211.035156 279.671875 211.847656 C 279.101562 212.152344 278.390625 212.066406 277.941406 211.617188 C 277.464844 211.15625 277.371094 210.457031 277.65625 209.875 C 277.734375 209.746094 277.648438 209.539062 277.613281 209.46875 C 277.484375 209.199219 277.230469 208.964844 276.988281 208.90625 C 276.347656 208.75 275.5 209.148438 274.972656 209.847656 C 274.3125 210.6875 274.019531 211.875 273.8125 212.929688 C 273.164062 216.195312 273.074219 219.660156 272.988281 223.007812 C 272.859375 228.175781 272.730469 233.511719 270.652344 238.445312 C 268.246094 244.167969 263.285156 249.03125 256.6875 252.132812 C 250.273438 255.152344 243.277344 256.15625 237.902344 256.6875 C 236.601562 256.816406 235.285156 256.921875 233.988281 257.023438 C 230.445312 257.316406 226.800781 257.621094 223.304688 258.339844 C 217.972656 259.429688 213.746094 261.378906 210.714844 264.15625 C 208.265625 266.410156 206.550781 269.257812 205.097656 272.210938 C 204.484375 273.457031 203.304688 278.917969 200.96875 276.894531 C 200.121094 276.15625 200 274.910156 200.03125 273.792969 C 200.144531 270.484375 200.164062 268.078125 200.820312 264.6875 C 201.53125 261.09375 202.25 257.371094 204.550781 254.261719 C 206.328125 251.855469 208.984375 249.917969 212.691406 248.359375 C 217.167969 246.460938 221.953125 245.519531 226.585938 244.609375 L 227.980469 244.332031 C 232.835938 243.363281 237.933594 242.238281 242.34375 239.855469 C 247.027344 237.3125 250.375 233.46875 251.519531 229.320312 C 252.132812 227.078125 252.167969 224.695312 252.195312 222.1875 C 252.210938 220.835938 252.21875 219.449219 252.339844 218.074219 C 252.558594 215.398438 253.148438 212.820312 253.855469 210.289062 C 252.410156 212.566406 251.5625 215.296875 250.695312 218.160156 C 249.667969 221.570312 248.609375 225.09375 246.394531 227.96875 C 243.867188 231.257812 240.082031 233.300781 237.050781 234.714844 C 231.605469 237.269531 225.859375 239.121094 219.960938 240.238281 C 217.738281 240.644531 215.476562 240.972656 213.289062 241.265625 C 212.421875 241.398438 211.574219 241.511719 210.707031 241.648438 C 209.132812 244.273438 206.40625 246.609375 204.023438 247.242188 C 203.539062 247.371094 203.054688 247.429688 202.59375 247.429688 C 201.054688 247.429688 199.738281 246.695312 198.820312 245.34375 C 196.742188 247.984375 195.480469 251.8125 195.0625 254.582031 C 194.449219 258.730469 194.863281 263.039062 195.253906 267.214844 C 195.402344 268.710938 195.546875 270.210938 195.636719 271.707031 C 196.300781 281.515625 195.082031 291.429688 193.902344 301.003906 C 192.804688 309.84375 191.703125 318.992188 192.085938 327.972656 C 193.609375 327.894531 195.167969 327.808594 196.726562 327.730469 C 196.257812 325.046875 196.648438 322.257812 197.167969 319.390625 C 198.820312 310.234375 200.941406 301.046875 203.433594 292.105469 C 205.160156 285.964844 207.3125 279.257812 211.488281 274 C 211.929688 271.878906 212.804688 269.871094 213.582031 268.546875 C 216.1875 264.054688 220.601562 261.164062 225.425781 260.796875 C 227.875 260.617188 230.957031 261.1875 233.085938 263.160156 C 235.042969 262.574219 237.007812 262.046875 239.070312 261.628906 C 240.742188 261.308594 242.410156 261.015625 244.097656 260.71875 C 245.546875 260.460938 247 260.210938 248.445312 259.933594 C 249.753906 257.257812 253.589844 255.449219 256.539062 255.421875 C 257.683594 255.40625 259.128906 255.507812 260.289062 256.390625 C 260.339844 256.433594 260.375 256.496094 260.4375 256.53125 C 261.742188 255.976562 263.015625 255.363281 264.253906 254.625 C 271.535156 250.28125 277.164062 242.480469 280.078125 232.652344 Z M 289.023438 232.417969 C 291.359375 221.746094 291.535156 213.097656 289.601562 205.191406 C 289.160156 203.375 288.589844 202.402344 287.835938 202.109375 C 286.761719 201.710938 285.542969 202.84375 284.761719 204.117188 C 284.859375 204.265625 284.929688 204.445312 284.929688 204.65625 C 285.179688 213.433594 285.03125 223.710938 282.183594 233.277344 C 279.109375 243.640625 273.136719 251.898438 265.378906 256.523438 C 264.195312 257.222656 262.957031 257.828125 261.707031 258.375 C 261.976562 259.074219 262.125 259.871094 262.089844 260.710938 C 261.960938 263.558594 260.097656 266.097656 257.320312 267.195312 C 256.425781 267.550781 255.5 267.722656 254.59375 267.722656 C 252.808594 267.722656 251.113281 267.066406 249.796875 265.785156 C 248.496094 264.53125 248.039062 263.292969 247.96875 262.261719 C 246.808594 262.46875 245.640625 262.695312 244.488281 262.886719 C 242.808594 263.171875 241.148438 263.464844 239.492188 263.800781 C 237.804688 264.132812 236.167969 264.566406 234.558594 265.039062 C 235.804688 267.359375 235.78125 270.460938 234.410156 273.101562 C 234.144531 273.621094 233.839844 274.105469 233.484375 274.574219 C 234.308594 274.425781 235.128906 274.277344 235.933594 274.148438 C 237.242188 273.921875 238.550781 273.707031 239.832031 273.457031 C 254.074219 270.773438 266.246094 264.9375 275.058594 256.601562 C 282.105469 249.917969 287.074219 241.320312 289.023438 232.417969 Z M 292.453125 204.492188 C 294.503906 212.84375 294.328125 221.910156 291.886719 233.050781 C 289.820312 242.523438 284.5625 251.648438 277.085938 258.730469 C 267.863281 267.464844 255.164062 273.558594 240.367188 276.347656 C 239.078125 276.582031 237.753906 276.816406 236.4375 277.039062 C 234.03125 277.445312 231.605469 277.878906 229.242188 278.417969 C 229.019531 278.5625 228.828125 278.726562 228.578125 278.875 C 225.761719 280.582031 222.691406 281.742188 219.441406 282.3125 C 219.417969 282.320312 219.375 282.320312 219.339844 282.339844 C 218.613281 282.824219 217.882812 283.34375 217.226562 283.941406 C 212.101562 288.492188 210.058594 295.871094 208.871094 301.800781 C 208.328125 304.433594 208.394531 307.4375 208.457031 310.363281 C 208.5 311.859375 208.535156 313.417969 208.492188 314.898438 C 208.328125 319.539062 208.09375 324.265625 207.78125 328.90625 C 207.738281 329.667969 207.125 330.273438 206.363281 330.292969 C 203.894531 330.34375 201.390625 330.449219 198.898438 330.570312 C 198.855469 330.585938 198.820312 330.628906 198.777344 330.648438 C 198.648438 330.679688 198.519531 330.714844 198.371094 330.714844 C 198.222656 330.714844 198.078125 330.671875 197.945312 330.613281 C 196.035156 330.699219 194.128906 330.804688 192.25 330.90625 C 187.59375 331.15625 182.761719 331.417969 178.015625 331.539062 C 178 331.539062 178 331.539062 177.984375 331.539062 C 177.558594 331.539062 177.160156 331.355469 176.882812 331.035156 C 176.589844 330.714844 176.476562 330.292969 176.527344 329.851562 C 177.765625 321.226562 175.507812 312.386719 170.320312 305.582031 C 165.957031 299.859375 159.308594 295.175781 149.949219 291.273438 C 146.046875 289.636719 141.957031 288.226562 137.992188 286.867188 C 133.917969 285.453125 129.683594 284 125.605469 282.277344 C 120.480469 280.121094 113.105469 276.519531 108.273438 270.210938 C 106.652344 268.078125 105.363281 265.742188 104.132812 263.480469 C 102.730469 260.929688 101.414062 258.523438 99.648438 256.402344 C 99.148438 255.820312 98.621094 255.242188 98.089844 254.6875 C 96.566406 253.042969 94.992188 251.371094 94.125 249.136719 C 93.339844 247.109375 93.496094 244.601562 94.542969 242.746094 C 95.328125 241.3125 96.59375 240.382812 98.089844 240.105469 C 101.867188 239.433594 104.671875 243.199219 105.726562 244.625 L 115.335938 257.59375 C 116.921875 259.742188 118.730469 262.175781 121.101562 263.5 C 123.941406 265.085938 127.378906 265.085938 131.007812 265.101562 C 134.296875 265.101562 137.65625 265.109375 140.730469 266.320312 C 140.597656 262.78125 137.628906 259.621094 136.601562 258.632812 C 135.527344 257.613281 134.339844 256.652344 133.179688 255.714844 C 131.121094 254.039062 128.988281 252.304688 127.320312 250.089844 C 124.515625 246.394531 123.371094 240.472656 126.746094 236.816406 C 129.996094 233.300781 135.707031 233.726562 139.363281 236.183594 C 142.972656 238.609375 145.101562 242.425781 146.980469 245.785156 L 162.164062 273.03125 C 163.273438 274.996094 163.765625 275.359375 165.550781 275.835938 C 164.867188 268.839844 164.078125 261.691406 162.363281 254.851562 C 160.9375 249.25 158.972656 244.316406 156.503906 240.089844 C 156.484375 240.089844 156.46875 240.105469 156.453125 240.105469 C 153.449219 240.105469 149.828125 238.488281 147.515625 237.269531 C 145.515625 236.210938 142.988281 234.695312 141.179688 232.375 C 139.214844 229.839844 138.523438 226.738281 139.335938 224.082031 C 139.386719 223.890625 139.464844 223.710938 139.535156 223.535156 C 137.628906 222.289062 135.671875 221.050781 133.683594 219.824219 C 128.304688 216.472656 122.738281 213.019531 117.960938 208.664062 C 107.917969 199.425781 101.8125 186.308594 101.226562 172.664062 C 101.128906 170.5625 101.164062 168.09375 102.03125 165.792969 C 103.027344 163.132812 105.027344 161.195312 107.390625 160.578125 C 111.226562 159.574219 114.851562 162.191406 116.609375 165.054688 C 118.011719 167.332031 118.628906 169.886719 119.222656 172.355469 C 119.363281 172.925781 119.511719 173.503906 119.65625 174.058594 C 121.917969 182.742188 126.859375 190.785156 133.585938 196.734375 C 137.527344 200.214844 142.140625 203.0625 146.597656 205.816406 C 149.300781 207.484375 152.105469 209.199219 154.753906 211.070312 C 161.863281 216.074219 166.675781 221.511719 169.132812 227.292969 C 169.894531 222.800781 169.058594 217.867188 166.667969 213.433594 C 163.90625 208.292969 159.742188 203.875 155.734375 199.597656 L 154.164062 197.910156 C 149.757812 193.183594 144.859375 187.554688 142.425781 180.726562 C 140.625 175.582031 140.332031 170.15625 140.035156 164.898438 C 139.828125 161.019531 139.613281 157.023438 138.773438 153.246094 C 135.792969 139.785156 125.40625 129.449219 114.117188 119.164062 C 112.089844 117.308594 110.003906 115.421875 108.550781 112.9375 C 106.972656 110.261719 106.523438 107.265625 107.269531 104.757812 C 107.15625 104.582031 107.027344 104.417969 106.90625 104.246094 C 106.394531 103.578125 105.832031 102.816406 105.65625 101.527344 C 105.347656 99.398438 105.976562 97.378906 107.347656 96.152344 C 108.238281 95.355469 109.503906 94.929688 110.722656 95.035156 C 111.820312 95.113281 112.792969 95.605469 113.441406 96.402344 C 114.21875 97.371094 114.386719 98.53125 114.515625 99.449219 C 114.601562 100.117188 114.6875 100.730469 114.957031 101.070312 C 115.320312 101.511719 116.054688 101.613281 117.234375 101.742188 C 117.863281 101.820312 118.523438 101.890625 119.179688 102.074219 C 121.925781 102.816406 123.648438 105.199219 124.914062 106.929688 L 137.699219 124.554688 C 138.21875 116.269531 136.765625 107.976562 133.441406 100.332031 C 131.429688 95.726562 130.296875 90.628906 130.148438 85.589844 C 130.140625 85.269531 130.246094 84.957031 130.4375 84.699219 C 131.898438 82.671875 134.660156 81.511719 137.1875 81.890625 C 139.273438 82.195312 141.328125 83.328125 143.136719 85.164062 C 146.019531 88.089844 147.570312 91.960938 148.953125 95.371094 C 151.992188 102.964844 155.152344 110.789062 156.425781 119.121094 C 157.238281 124.410156 157.246094 129.792969 157.265625 135.003906 C 157.273438 137.949219 157.292969 140.988281 157.457031 143.957031 C 157.75 149.621094 158.589844 155.308594 159.941406 160.875 L 160.007812 161.175781 C 161.335938 166.613281 162.839844 172.753906 165.578125 177.324219 C 166.96875 179.644531 168.867188 181.757812 170.875 184 C 172.535156 185.851562 174.261719 187.765625 175.664062 189.808594 C 178.171875 193.445312 180.449219 197.261719 182.449219 201.21875 C 184.988281 189.070312 184.027344 175.867188 179.617188 163.574219 C 178.5 160.457031 177.132812 157.351562 175.808594 154.355469 C 173.964844 150.164062 172.050781 145.84375 170.746094 141.34375 C 167.429688 129.8125 168.207031 117.300781 168.882812 106.238281 C 169.144531 101.882812 170.304688 97.5625 171.402344 93.371094 C 172.746094 88.394531 173.992188 83.691406 173.90625 78.921875 L 173.871094 77.867188 C 173.816406 75.96875 173.765625 74.003906 174.199219 72.03125 C 174.8125 69.140625 176.433594 66.878906 178.613281 65.839844 C 179.28125 65.511719 180.027344 65.503906 180.761719 65.78125 C 182.070312 66.28125 183.125 67.632812 183.566406 68.671875 C 183.835938 69.285156 183.980469 69.910156 184.121094 70.492188 C 184.257812 71.070312 184.390625 71.597656 184.597656 72.023438 C 184.855469 72.578125 185.402344 72.914062 185.574219 72.84375 C 185.824219 72.742188 186.050781 72.023438 186.207031 71.453125 C 186.355469 70.976562 186.492188 70.492188 186.710938 70.023438 C 187.382812 68.542969 188.71875 67.496094 190.464844 67.105469 C 192.570312 66.601562 194.890625 67.132812 196.519531 68.457031 C 198.726562 70.257812 200.03125 73.253906 200.378906 77.355469 C 201.089844 85.339844 198.796875 93.136719 196.578125 100.6875 L 196.007812 102.6875 C 193.835938 110.160156 191.671875 118.824219 193.714844 126.816406 C 194.761719 130.894531 196.171875 134.042969 197.78125 137.679688 C 198.144531 138.503906 198.519531 139.359375 198.917969 140.234375 C 207.488281 159.964844 210.957031 177.011719 209.445312 192.050781 C 209.632812 192.34375 209.824219 192.636719 209.996094 192.957031 C 210.515625 193.964844 210.878906 195.0625 211.113281 196.265625 C 216.050781 191.730469 218.492188 184.648438 219.089844 178.597656 C 219.71875 172.300781 218.898438 165.792969 218.117188 159.523438 C 217.78125 156.804688 217.433594 154 217.199219 151.222656 C 216.1875 139.195312 218.050781 130.175781 222.90625 123.648438 C 225.910156 119.621094 229.988281 116.632812 233.945312 113.777344 C 238.316406 110.582031 242.445312 107.578125 245.148438 103.300781 C 245.683594 102.453125 246.160156 101.554688 246.652344 100.617188 C 247.511719 99 248.402344 97.335938 249.640625 95.855469 C 251.710938 93.371094 255.335938 91.40625 258.730469 92.609375 C 261.941406 93.746094 263.941406 97.371094 264.089844 102.304688 C 264.28125 108.867188 262.316406 115.464844 258.566406 120.867188 C 253.121094 128.695312 248.210938 136.433594 247.917969 144.96875 C 247.761719 149.28125 248.445312 153.6875 249.113281 157.964844 C 249.667969 161.507812 250.230469 165.160156 250.339844 168.847656 C 250.679688 179.390625 247.128906 190.195312 240.574219 198.464844 C 235.832031 204.464844 229.539062 209.21875 222.335938 212.246094 C 215.597656 215.0625 209.753906 217.859375 206.34375 223.347656 C 204.871094 225.726562 203.945312 228.386719 203.554688 231.128906 C 204.320312 230.894531 205.113281 230.792969 205.921875 230.851562 C 207.433594 230.140625 209.046875 229.734375 210.621094 229.414062 C 212.992188 228.9375 215.417969 228.59375 217.753906 228.265625 C 220.75 227.839844 223.832031 227.398438 226.785156 226.679688 C 232.792969 225.242188 237.277344 222.757812 240.132812 219.320312 C 241.382812 217.804688 242.367188 216.074219 243.398438 214.238281 C 244.238281 212.757812 245.105469 211.21875 246.144531 209.78125 C 249.171875 205.605469 253.269531 203.476562 257.101562 204.117188 C 257.527344 204.195312 257.890625 204.445312 258.117188 204.8125 C 258.332031 205.183594 258.394531 205.625 258.261719 206.03125 C 256.957031 210.015625 255.613281 214.136719 255.269531 218.308594 C 255.164062 219.589844 255.144531 220.921875 255.128906 222.210938 C 255.101562 224.808594 255.070312 227.484375 254.351562 230.097656 C 253 235.023438 249.121094 239.519531 243.734375 242.4375 C 238.972656 245.007812 233.632812 246.210938 228.550781 247.214844 L 227.15625 247.492188 C 222.664062 248.375 218.03125 249.285156 213.832031 251.058594 C 210.628906 252.410156 208.371094 254.039062 206.914062 256.011719 C 205.011719 258.582031 204.378906 261.820312 203.703125 265.257812 C 203.289062 267.386719 202.863281 269.578125 202.101562 271.679688 C 203.765625 268.121094 205.738281 264.730469 208.726562 262.003906 C 212.164062 258.859375 216.863281 256.652344 222.722656 255.464844 C 226.378906 254.710938 230.117188 254.410156 233.738281 254.097656 C 235.027344 253.992188 236.316406 253.882812 237.605469 253.761719 C 242.75 253.25 249.433594 252.304688 255.441406 249.476562 C 261.371094 246.6875 265.820312 242.367188 267.933594 237.3125 C 269.804688 232.894531 269.933594 228.066406 270.0625 222.941406 C 270.160156 219.449219 270.246094 215.875 270.921875 212.378906 C 271.199219 210.984375 271.613281 209.363281 272.652344 208.039062 C 273.914062 206.414062 275.882812 205.625 277.65625 206.050781 C 278.554688 206.265625 279.359375 206.828125 279.90625 207.605469 C 280.476562 206.707031 280.902344 205.625 281.34375 204.507812 L 281.535156 204.023438 C 282.773438 200.890625 285.769531 198.1875 288.867188 199.367188 C 291.152344 200.230469 292.011719 202.699219 292.453125 204.492188 Z M 246.21875 158.40625 C 245.527344 154.015625 244.816406 149.453125 244.984375 144.875 C 245.3125 135.542969 250.445312 127.40625 256.140625 119.195312 C 259.554688 114.304688 261.328125 108.324219 261.15625 102.375 C 261.113281 101.144531 260.78125 97.292969 258.503906 95.796875 C 258.539062 95.898438 258.546875 96.003906 258.539062 96.117188 C 257.570312 104.722656 251.917969 111.628906 245.699219 118.511719 C 240.300781 124.496094 234.1875 131.28125 232.851562 139.472656 C 231.988281 144.789062 232.707031 150.355469 233.648438 155.851562 C 235.683594 155.394531 237.933594 156.027344 239.535156 157.210938 C 241.582031 158.710938 243.0625 161.152344 243.703125 164.042969 C 244.289062 166.675781 244.160156 169.332031 243.953125 171.59375 C 243.71875 174.101562 243.3125 176.71875 241.824219 178.925781 C 240.695312 180.597656 238.488281 182.308594 236.210938 182.308594 C 236.082031 182.308594 235.933594 182.308594 235.804688 182.300781 C 235.042969 182.222656 234.421875 181.964844 233.910156 181.609375 C 231.476562 188.363281 227.035156 194.75 222.691406 199.390625 C 220.015625 202.238281 216.90625 204.238281 213.894531 206.179688 C 212.25 207.234375 210.558594 208.335938 208.941406 209.574219 C 207.972656 211.027344 206.699219 212.144531 205.269531 212.863281 C 202.015625 216.265625 199.53125 220.375 197.503906 224.046875 C 193.347656 231.554688 189.871094 239.441406 187.089844 247.5625 C 187.359375 249.476562 187.359375 251.378906 187.316406 253.214844 C 187.238281 256.210938 186.855469 259.257812 184.753906 261.335938 C 184.976562 262.511719 185.210938 263.691406 185.417969 264.851562 C 186.136719 268.640625 186.855469 272.425781 187.574219 276.21875 C 188.035156 278.640625 187.914062 281.222656 187.808594 283.730469 C 187.738281 285.230469 187.679688 286.640625 187.722656 287.992188 C 187.894531 292.242188 187.324219 296.433594 187.238281 300.710938 C 187.175781 303.109375 187.125 305.496094 187.074219 307.914062 C 187.019531 310.15625 186.5625 312.828125 186.925781 315.046875 C 187.636719 319.410156 188.527344 323.652344 188.753906 328.144531 C 189.117188 328.128906 189.496094 328.117188 189.878906 328.085938 C 189.496094 318.925781 190.613281 309.6875 191.722656 300.742188 C 192.875 291.253906 194.085938 281.457031 193.453125 271.855469 C 193.347656 270.375 193.203125 268.902344 193.074219 267.421875 C 192.65625 263.117188 192.234375 258.667969 192.890625 254.261719 C 193.316406 251.308594 194.863281 246.296875 197.867188 243.09375 C 197.125 239.90625 198.136719 235.855469 200.414062 233.277344 C 200.542969 229.25 201.703125 225.257812 203.851562 221.804688 C 207.710938 215.582031 214.257812 212.445312 221.191406 209.527344 C 227.945312 206.691406 233.839844 202.238281 238.273438 196.648438 C 244.394531 188.90625 247.726562 178.804688 247.40625 168.933594 C 247.304688 165.4375 246.75 161.871094 246.21875 158.40625 " fill-opacity="1" fill-rule="nonzero"/></g></svg>