<svg xmlns="http://www.w3.org/2000/svg" xmlns:xlink="http://www.w3.org/1999/xlink" width="500" zoomAndPan="magnify" viewBox="0 0 375 374.999991" height="500" preserveAspectRatio="xMidYMid meet" version="1.0"><defs><clipPath id="713a29d49e"><path d="M 187.5 0 C 83.945312 0 0 83.945312 0 187.5 C 0 291.054688 83.945312 375 187.5 375 C 291.054688 375 375 291.054688 375 187.5 C 375 83.945312 291.054688 0 187.5 0 Z M 187.5 0 " clip-rule="nonzero"/></clipPath><clipPath id="b9e25155fe"><path d="M 0 0 L 375 0 L 375 375 L 0 375 Z M 0 0 " clip-rule="nonzero"/></clipPath><clipPath id="bc4f973a6c"><path d="M 187.5 0 C 83.945312 0 0 83.945312 0 187.5 C 0 291.054688 83.945312 375 187.5 375 C 291.054688 375 375 291.054688 375 187.5 C 375 83.945312 291.054688 0 187.5 0 Z M 187.5 0 " clip-rule="nonzero"/></clipPath><clipPath id="1dd2d74dc8"><rect x="0" width="375" y="0" height="375"/></clipPath><clipPath id="2bc950177a"><path d="M 57 32 L 320.480469 32 L 320.480469 311.777344 L 57 311.777344 Z M 57 32 " clip-rule="nonzero"/></clipPath></defs><g clip-path="url(#713a29d49e)"><g transform="matrix(1, 0, 0, 1, 0, 0)"><g clip-path="url(#1dd2d74dc8)"><g clip-path="url(#b9e25155fe)"><g clip-path="url(#bc4f973a6c)"><rect x="-82.5" width="540" fill="#a2c36e" height="539.999987" y="-82.499998" fill-opacity="1"/></g></g></g></g></g><path fill="#a2c36e" d="M 305.886719 145.621094 C 301.964844 142.195312 304.660156 136.558594 301.476562 134.351562 C 298.289062 132.148438 295 135.871094 290.851562 133.066406 C 286.703125 130.261719 288.832031 125.550781 285.355469 123.980469 C 281.878906 122.410156 276.71875 136.207031 276.941406 147.3125 C 277.019531 151.117188 273.058594 153.945312 267.8125 156.023438 C 266.640625 145.804688 264.710938 139.21875 264.710938 139.21875 C 288.425781 88.851562 258.84375 48.019531 239.28125 37.015625 C 219.722656 26.015625 191.847656 43.617188 211.652344 69.292969 C 231.457031 94.964844 221.921875 117.457031 215.808594 124.058594 C 212.875 127.226562 208.582031 128.085938 203.109375 129.015625 C 201.320312 125.304688 200.242188 120.878906 198.851562 119.207031 C 196.386719 116.253906 194.417969 119.453125 186.785156 120.191406 C 179.148438 120.929688 181.121094 109.359375 176.816406 110.34375 C 172.515625 111.328125 162.859375 153.832031 162.859375 153.832031 C 162.859375 153.835938 162.859375 153.835938 162.859375 153.835938 C 155.980469 163.46875 149.761719 174.453125 145.015625 181.722656 C 139.539062 181.066406 135.023438 185.585938 132.058594 185.871094 C 128.46875 186.21875 128.558594 175.664062 125.097656 175.664062 C 121.636719 175.664062 120.601562 184.316406 115.410156 185.527344 C 110.21875 186.738281 107.453125 176.875 104.582031 179.125 C 101.710938 181.371094 103.472656 189.851562 104.511719 199.367188 C 105.550781 208.882812 94.839844 218.070312 94.839844 218.070312 C 91.613281 220.601562 88.695312 223.207031 86.285156 225.886719 C 72.039062 241.710938 79.839844 265.375 79.839844 265.375 L 116.398438 291.765625 C 116.398438 291.765625 136.980469 280.867188 170.859375 282.5 C 183.453125 283.105469 194.578125 280.558594 204.824219 275.316406 C 211.738281 277.398438 218.1875 279.691406 221.777344 281.84375 C 232.195312 288.097656 249.167969 305.367188 254.824219 303.875 C 260.480469 302.390625 253.929688 291.761719 254.824219 286.058594 C 255.71875 280.355469 261.96875 278.570312 261.96875 274.699219 C 261.96875 270.828125 253.910156 267.375 253.910156 265.074219 C 253.910156 262.769531 261.96875 252.40625 258.515625 249.644531 C 255.0625 246.882812 237.789062 262.453125 233.648438 262.265625 C 232.328125 262.207031 229.152344 261.539062 225.097656 260.640625 C 234.769531 251.527344 243.933594 239.84375 253.25 226.09375 C 258.226562 218.753906 261.703125 211.011719 264.082031 203.300781 C 264.085938 203.300781 264.085938 203.300781 264.085938 203.300781 C 268.949219 199.699219 273.890625 195.382812 276.976562 190.949219 C 284.816406 179.679688 281.628906 170.371094 290.941406 167.429688 C 300.25 164.488281 318.378906 156.894531 318.625 152.238281 C 318.871094 147.585938 309.804688 149.054688 305.886719 145.621094 " fill-opacity="1" fill-rule="nonzero"/><path fill="#a2c36e" d="M 157.78125 255.449219 C 157.78125 257.652344 154.273438 259.4375 149.945312 259.4375 C 145.613281 259.4375 142.105469 257.652344 142.105469 255.449219 C 142.105469 253.246094 145.613281 251.460938 149.945312 251.460938 C 154.273438 251.460938 157.78125 253.246094 157.78125 255.449219 " fill-opacity="1" fill-rule="nonzero"/><path fill="#a2c36e" d="M 88.101562 257.984375 C 88.101562 257.984375 86.003906 251.160156 92.402344 246.851562 C 102.25 240.222656 129.34375 244.070312 131.875 259.503906 C 134.40625 274.9375 110.582031 307.324219 81.269531 309.855469 C 58.34375 311.835938 54.460938 288.542969 63.0625 280.546875 C 69.105469 274.929688 88.101562 257.984375 88.101562 257.984375 " fill-opacity="1" fill-rule="nonzero"/><path fill="#ffffff" d="M 142.601562 238.214844 C 139.070312 240.601562 138.625 243.769531 139.464844 245.164062 C 140.703125 247.226562 145.808594 247.007812 148.234375 244.777344 C 151.714844 241.585938 148.800781 238.429688 148.800781 238.429688 C 148.800781 238.429688 146.320312 235.695312 142.601562 238.214844 " fill-opacity="1" fill-rule="nonzero"/><path fill="#ffffff" d="M 99.234375 230.234375 C 95.515625 227.71875 93.035156 230.449219 93.035156 230.449219 C 93.035156 230.449219 90.121094 233.609375 93.601562 236.800781 C 96.027344 239.027344 101.136719 239.246094 102.375 237.183594 C 103.210938 235.789062 102.769531 232.625 99.234375 230.234375 " fill-opacity="1" fill-rule="nonzero"/><g clip-path="url(#2bc950177a)"><path fill="#ffffff" d="M 307.445312 158.992188 C 301.402344 161.996094 294.507812 164.5625 290.441406 165.847656 C 284.199219 167.816406 282.796875 172.375 281.167969 177.65625 C 280.035156 181.328125 278.75 185.496094 275.613281 190.003906 C 273.671875 192.796875 270.78125 195.785156 267 198.917969 C 269.839844 187.675781 270.492188 176.933594 270.308594 168.347656 C 270.222656 164.277344 269.957031 160.492188 269.601562 157.070312 C 275.648438 154.441406 278.679688 151.152344 278.601562 147.277344 C 278.390625 136.835938 282.859375 126.230469 284.761719 125.535156 C 285.558594 125.933594 285.800781 126.636719 286.203125 128.304688 C 286.648438 130.136719 287.257812 132.636719 289.921875 134.441406 C 292.683594 136.304688 295.152344 135.867188 297.136719 135.511719 C 298.753906 135.222656 299.640625 135.101562 300.53125 135.71875 C 301.375 136.300781 301.535156 137.496094 301.726562 139.398438 C 301.957031 141.734375 302.25 144.644531 304.792969 146.871094 C 306.777344 148.605469 309.65625 149.246094 312.195312 149.804688 C 315.769531 150.597656 317.027344 151.066406 316.96875 152.152344 C 316.964844 152.242188 316.75 154.367188 307.445312 158.992188 Z M 251.878906 225.164062 C 242.109375 239.585938 233.230469 250.550781 224.585938 258.828125 C 224.011719 258.703125 223.425781 258.570312 222.828125 258.4375 C 214.035156 256.476562 203.09375 254.035156 196.414062 253.746094 C 195.503906 253.710938 194.726562 254.414062 194.6875 255.328125 C 194.648438 256.242188 195.355469 257.015625 196.273438 257.058594 C 202.65625 257.335938 213.898438 259.84375 222.105469 261.671875 C 227.757812 262.933594 231.839844 263.84375 233.570312 263.925781 C 233.617188 263.925781 233.667969 263.925781 233.71875 263.925781 C 235.960938 263.925781 239.390625 261.683594 245.175781 257.773438 C 248.910156 255.25 255.835938 250.558594 257.523438 250.976562 C 258.625 252.054688 255.574219 257.71875 254.414062 259.867188 C 252.992188 262.507812 252.25 263.9375 252.25 265.074219 C 252.25 266.875 253.964844 268.242188 256.128906 269.96875 C 257.894531 271.382812 260.3125 273.3125 260.3125 274.699219 C 260.3125 275.777344 259.375 276.742188 257.847656 278.238281 C 256.019531 280.023438 253.742188 282.25 253.1875 285.804688 C 252.789062 288.339844 253.597656 291.449219 254.378906 294.457031 C 255.695312 299.523438 256.007812 301.851562 254.402344 302.273438 C 251.664062 303 242.777344 295.835938 236.289062 290.605469 C 231.53125 286.773438 226.613281 282.816406 222.628906 280.421875 C 212.09375 274.101562 178.589844 266.835938 177.167969 266.527344 C 176.273438 266.335938 175.390625 266.90625 175.195312 267.800781 C 175.003906 268.695312 175.574219 269.578125 176.46875 269.769531 C 176.667969 269.8125 188.40625 272.359375 200.125 275.671875 C 190.941406 279.636719 181.289062 281.339844 170.9375 280.84375 C 148.015625 279.742188 131.230469 284.230469 122.472656 287.402344 C 122.671875 287.15625 122.875 286.90625 123.074219 286.652344 C 130.679688 276.871094 134.679688 266.367188 133.511719 259.234375 C 132.53125 253.257812 128.066406 248.265625 120.941406 245.1875 C 111.191406 240.976562 97.976562 241.105469 91.476562 245.476562 C 86.277344 248.980469 85.730469 254.308594 86.265625 257.402344 C 85.242188 258.316406 83.226562 260.117188 80.75 262.335938 C 79.289062 255.980469 76.742188 238.96875 87.515625 226.992188 C 95.546875 218.074219 109.296875 209.953125 121.425781 202.792969 C 130.425781 197.480469 138.195312 192.890625 141.722656 189.011719 C 144.375 186.09375 147.882812 180.382812 151.941406 173.765625 C 160.15625 160.382812 171.40625 142.054688 182.078125 136.792969 C 189.949219 132.914062 196.902344 131.742188 202.492188 130.800781 C 204.957031 130.386719 207.214844 130.003906 209.261719 129.457031 C 210.453125 129.3125 222.152344 127.972656 231.121094 129.460938 C 231.214844 129.476562 231.304688 129.480469 231.394531 129.480469 C 232.191406 129.480469 232.894531 128.90625 233.027344 128.09375 C 233.179688 127.191406 232.566406 126.339844 231.664062 126.1875 C 226.707031 125.367188 221.097656 125.351562 216.667969 125.546875 C 216.789062 125.425781 216.910156 125.308594 217.027344 125.183594 C 220.320312 121.628906 224.40625 113.933594 225.105469 103.941406 C 225.6875 95.605469 224.050781 82.648438 212.96875 68.277344 C 205.402344 58.472656 204.433594 48.960938 210.300781 42.171875 C 216.679688 34.796875 229.054688 33.167969 238.46875 38.460938 C 247.039062 43.28125 259.566406 55.46875 266.675781 73.949219 C 272.199219 88.3125 276.085938 111.171875 263.210938 138.511719 C 263.039062 138.878906 263.007812 139.296875 263.121094 139.683594 C 263.261719 140.164062 276.945312 188.171875 251.878906 225.164062 Z M 81.128906 308.203125 C 72.027344 308.992188 65.058594 305.492188 62.007812 298.609375 C 59.351562 292.628906 60.292969 285.386719 64.191406 281.761719 C 69.765625 276.578125 86.613281 261.535156 88.9375 259.460938 C 91.003906 258.851562 103.796875 255.574219 115.453125 263.632812 C 115.742188 263.832031 116.070312 263.925781 116.394531 263.925781 C 116.921875 263.925781 117.441406 263.675781 117.761719 263.210938 C 118.28125 262.457031 118.09375 261.421875 117.339844 260.902344 C 105.980469 253.050781 93.988281 254.804688 89.4375 255.894531 C 89.324219 253.941406 89.753906 250.632812 93.328125 248.226562 C 96.113281 246.351562 100.515625 245.417969 105.308594 245.417969 C 110.097656 245.417969 115.285156 246.351562 119.625 248.230469 C 123.90625 250.082031 129.226562 253.585938 130.238281 259.773438 C 131.261719 266.019531 127.515625 275.539062 120.457031 284.617188 C 109.914062 298.167969 95.210938 306.988281 81.128906 308.203125 Z M 106.160156 199.1875 C 105.96875 197.445312 105.757812 195.753906 105.550781 194.113281 C 104.835938 188.414062 104.027344 181.960938 105.53125 180.5 C 106.011719 180.777344 106.902344 181.855469 107.511719 182.589844 C 109.414062 184.878906 112.015625 188.015625 115.785156 187.140625 C 119.253906 186.332031 121.109375 183.109375 122.597656 180.519531 C 123.375 179.167969 124.441406 177.320312 125.085938 177.320312 C 125.675781 177.550781 126.511719 180.074219 126.914062 181.285156 C 127.925781 184.351562 129.078125 187.824219 132.21875 187.519531 C 133.65625 187.382812 135.113281 186.613281 136.796875 185.722656 C 138.328125 184.914062 139.988281 184.039062 141.746094 183.601562 C 140.839844 184.886719 140.007812 185.96875 139.269531 186.78125 C 136.078125 190.289062 128.507812 194.761719 119.738281 199.9375 C 114.480469 203.042969 108.921875 206.324219 103.628906 209.789062 C 105.351562 206.636719 106.570312 202.964844 106.160156 199.1875 Z M 177.320312 111.9375 C 177.710938 112.132812 178.273438 113.726562 178.609375 114.679688 C 179.695312 117.75 181.332031 122.378906 186.941406 121.84375 C 190.21875 121.523438 192.515625 120.777344 194.195312 120.230469 C 196.746094 119.402344 196.90625 119.464844 197.578125 120.269531 C 198.199219 121.015625 198.90625 122.925781 199.59375 124.773438 C 199.941406 125.710938 200.320312 126.722656 200.734375 127.738281 C 195.152344 128.6875 188.355469 130.003906 180.613281 133.820312 C 175.707031 136.238281 170.882812 140.902344 166.273438 146.570312 C 170.746094 128.167969 175.332031 113.664062 177.320312 111.9375 Z M 312.910156 146.570312 C 310.65625 146.070312 308.324219 145.554688 306.976562 144.375 C 305.417969 143.011719 305.226562 141.097656 305.023438 139.070312 C 304.808594 136.917969 304.566406 134.476562 302.417969 132.988281 C 300.363281 131.566406 298.339844 131.925781 296.550781 132.246094 C 294.808594 132.558594 293.425781 132.804688 291.78125 131.691406 C 290.175781 130.609375 289.828125 129.179688 289.425781 127.523438 C 288.996094 125.761719 288.464844 123.566406 286.039062 122.472656 C 285.023438 122.011719 283.886719 122.140625 282.839844 122.832031 C 278.828125 125.480469 275.089844 137.621094 275.289062 147.347656 C 275.339844 150.007812 272.335938 152.128906 269.195312 153.617188 C 268.230469 146.234375 266.9375 141.085938 266.472656 139.363281 C 279.527344 111.210938 275.492188 87.628906 269.773438 72.761719 C 262.347656 53.457031 249.144531 40.664062 240.09375 35.574219 C 229.355469 29.53125 215.167969 31.476562 207.796875 40.003906 C 200.898438 47.972656 201.855469 59.300781 210.34375 70.304688 C 229.996094 95.785156 219.738281 117.378906 214.59375 122.933594 C 212.234375 125.484375 208.761719 126.34375 204.085938 127.167969 C 203.585938 126.003906 203.140625 124.800781 202.703125 123.625 C 201.851562 121.320312 201.113281 119.332031 200.125 118.148438 C 197.941406 115.527344 195.625 116.28125 193.171875 117.078125 C 191.550781 117.605469 189.539062 118.261719 186.625 118.542969 C 183.894531 118.8125 183 117.152344 181.738281 113.574219 C 180.898438 111.210938 179.757812 107.96875 176.445312 108.726562 C 175.085938 109.039062 172.808594 109.5625 166.683594 131.808594 C 164.023438 141.476562 161.773438 151.152344 161.320312 153.113281 C 156.957031 159.261719 152.84375 165.957031 149.117188 172.027344 C 147.339844 174.925781 145.671875 177.644531 144.148438 180.007812 C 140.675781 179.929688 137.6875 181.5 135.246094 182.792969 C 133.929688 183.488281 132.6875 184.148438 131.898438 184.226562 C 131.300781 184 130.460938 181.460938 130.058594 180.242188 C 129.09375 177.320312 127.996094 174.003906 125.097656 174.003906 C 122.523438 174.003906 121.101562 176.476562 119.726562 178.863281 C 118.433594 181.109375 117.097656 183.429688 115.03125 183.910156 C 113.382812 184.300781 111.9375 182.726562 110.0625 180.472656 C 108.417969 178.488281 106.167969 175.78125 103.558594 177.820312 C 100.472656 180.242188 101.222656 186.234375 102.261719 194.527344 C 102.464844 196.152344 102.675781 197.835938 102.863281 199.546875 C 103.75 207.675781 94.757812 215.917969 93.839844 216.738281 C 90.542969 219.328125 87.546875 222.003906 85.054688 224.777344 C 71.890625 239.398438 76.574219 259.9375 77.949219 264.84375 C 72.167969 270.027344 65.167969 276.324219 61.933594 279.332031 C 57.046875 283.875 55.773438 292.742188 58.976562 299.953125 C 60.59375 303.601562 65.625 311.636719 78.523438 311.636719 C 79.445312 311.636719 80.40625 311.59375 81.414062 311.507812 C 94 310.417969 107.003906 303.6875 117.421875 293.105469 C 118.542969 292.550781 123.464844 290.234375 131.476562 288.089844 C 139.898438 285.835938 153.554688 283.332031 170.777344 284.152344 C 183 284.742188 194.28125 282.421875 204.96875 277.089844 C 211.527344 279.085938 217.5625 281.25 220.921875 283.265625 C 224.714844 285.542969 229.539062 289.429688 234.207031 293.191406 C 243.65625 300.800781 249.964844 305.621094 254.089844 305.621094 C 254.496094 305.621094 254.882812 305.574219 255.246094 305.480469 C 260.320312 304.144531 258.804688 298.308594 257.585938 293.621094 C 256.890625 290.941406 256.167969 288.171875 256.460938 286.316406 C 256.847656 283.851562 258.535156 282.203125 260.167969 280.605469 C 261.867188 278.945312 263.625 277.226562 263.625 274.699219 C 263.625 271.714844 260.742188 269.410156 258.199219 267.378906 C 257.273438 266.640625 255.898438 265.539062 255.589844 265.007812 C 255.761719 264.367188 256.664062 262.6875 257.335938 261.441406 C 259.828125 256.816406 262.933594 251.054688 259.550781 248.347656 C 256.785156 246.136719 251.582031 249.445312 243.320312 255.027344 C 240.023438 257.253906 235.054688 260.609375 233.742188 260.609375 C 233.734375 260.609375 233.726562 260.609375 233.722656 260.609375 C 232.859375 260.570312 230.945312 260.207031 228.464844 259.679688 C 236.78125 251.429688 245.320312 240.753906 254.625 227.023438 C 259.59375 219.6875 263.070312 211.957031 265.46875 204.335938 C 271.296875 199.976562 275.628906 195.789062 278.335938 191.894531 C 281.765625 186.964844 283.191406 182.34375 284.335938 178.632812 C 285.910156 173.535156 286.855469 170.457031 291.4375 169.007812 C 291.722656 168.917969 319.886719 159.820312 320.28125 152.324219 C 320.496094 148.242188 316.292969 147.316406 312.910156 146.570312 " fill-opacity="1" fill-rule="nonzero"/></g><path fill="#ffffff" d="M 93.339844 282.269531 C 91.40625 283.769531 90.339844 285.640625 90.964844 286.441406 C 91.585938 287.246094 93.660156 286.675781 95.597656 285.171875 C 97.53125 283.667969 98.59375 281.800781 97.972656 280.996094 C 97.351562 280.195312 95.273438 280.765625 93.339844 282.269531 " fill-opacity="1" fill-rule="nonzero"/><path fill="#ffffff" d="M 80.261719 277.320312 C 78.328125 278.824219 77.265625 280.691406 77.886719 281.496094 C 78.507812 282.296875 80.582031 281.730469 82.519531 280.226562 C 84.453125 278.722656 85.519531 276.855469 84.894531 276.050781 C 84.273438 275.25 82.199219 275.816406 80.261719 277.320312 " fill-opacity="1" fill-rule="nonzero"/></svg>