<svg xmlns="http://www.w3.org/2000/svg" xmlns:xlink="http://www.w3.org/1999/xlink" width="500" zoomAndPan="magnify" viewBox="0 0 375 374.999991" height="500" preserveAspectRatio="xMidYMid meet" version="1.0"><defs><clipPath id="c20a48ce67"><path d="M 187.5 0 C 83.945312 0 0 83.945312 0 187.5 C 0 291.054688 83.945312 375 187.5 375 C 291.054688 375 375 291.054688 375 187.5 C 375 83.945312 291.054688 0 187.5 0 Z M 187.5 0 " clip-rule="nonzero"/></clipPath><clipPath id="7e4eaacc46"><path d="M 70.804688 25 L 301 25 L 301 346 L 70.804688 346 Z M 70.804688 25 " clip-rule="nonzero"/></clipPath></defs><g clip-path="url(#c20a48ce67)"><rect x="-37.5" width="450" fill="#a2c36e" y="-37.499999" height="449.999989" fill-opacity="1"/></g><g clip-path="url(#7e4eaacc46)"><path fill="#fffff9" d="M 279.152344 276.992188 C 275.226562 275.359375 271.457031 273.417969 267.433594 272.011719 C 263.136719 270.507812 258.699219 269.410156 254.199219 268.734375 C 249.851562 268.085938 245.46875 267.773438 241.074219 267.882812 C 236.8125 267.988281 232.625 268.625 228.398438 269.125 C 224 269.644531 219.285156 270.0625 215.039062 268.503906 C 210.765625 266.9375 208.128906 263.214844 205.300781 259.871094 C 204.949219 259.453125 204.589844 259.046875 204.222656 258.644531 C 210.398438 256.605469 216.863281 255.078125 223.378906 255.339844 C 225.632812 255.429688 227.859375 255.777344 230.011719 256.464844 C 232.128906 257.144531 234.007812 258.300781 236.019531 259.214844 C 239.46875 260.785156 243.191406 261.78125 247.011719 261.441406 C 251.472656 261.046875 255.449219 258.636719 260 258.804688 C 263.628906 258.941406 267.476562 260.238281 270.789062 261.667969 C 274.3125 263.1875 277.625 265.199219 280.769531 267.375 C 285.035156 270.332031 289.058594 273.675781 292.792969 277.289062 C 292.398438 277.589844 291.976562 277.859375 291.527344 278.089844 C 287.597656 280.089844 282.945312 278.570312 279.152344 276.992188 Z M 195.769531 253.15625 C 193.359375 252.566406 190.773438 252.652344 188.628906 253.734375 C 188.824219 251.5 189.085938 249.277344 189.40625 247.0625 C 189.558594 246.726562 189.625 246.347656 189.5625 245.96875 C 189.976562 243.28125 190.480469 240.605469 191.082031 237.933594 C 192.5625 231.359375 194.1875 224.839844 194.953125 218.132812 C 195.863281 210.132812 195.742188 202.027344 194.644531 194.054688 C 199.132812 193.527344 203.414062 193.980469 206.316406 198.113281 C 206.671875 198.617188 206.988281 199.136719 207.285156 199.664062 C 207.328125 200.023438 207.480469 200.355469 207.765625 200.59375 C 209.386719 203.910156 210.128906 207.613281 211.21875 211.132812 C 212.507812 215.28125 214.363281 218.996094 217.605469 221.953125 C 220.449219 224.546875 223.714844 226.671875 226.976562 228.703125 C 230.117188 230.667969 233.320312 232.535156 236.558594 234.335938 C 235.261719 234.652344 233.992188 235.109375 232.785156 235.777344 C 228.542969 238.128906 225.570312 242.03125 220.742188 243.367188 C 216.0625 244.660156 211.097656 244.527344 206.636719 246.621094 C 203.144531 248.261719 200.390625 250.992188 199.574219 254.730469 C 198.414062 254.039062 197.15625 253.496094 195.769531 253.15625 Z M 178.449219 238 C 170.371094 233.851562 162.210938 229.09375 155.195312 223.296875 C 154.839844 223.003906 154.480469 222.703125 154.121094 222.394531 C 157.015625 219.902344 159.894531 217.628906 163.144531 215.589844 C 166.339844 213.582031 169.613281 211.609375 172.398438 209.03125 C 176.8125 204.945312 180.089844 198.515625 178.359375 192.496094 C 178.675781 192.484375 178.992188 192.480469 179.308594 192.484375 C 183.347656 192.550781 187.542969 193.796875 191.175781 195.585938 C 191.980469 201.945312 192.148438 208.382812 191.644531 214.808594 C 191.117188 221.519531 189.648438 228.03125 188.132812 234.574219 C 187.53125 237.160156 186.988281 239.746094 186.519531 242.34375 C 184.1875 240.304688 181.425781 238.746094 178.449219 238 Z M 148.871094 247.929688 C 139.300781 251.90625 128.507812 251.265625 118.699219 248.53125 C 118.070312 248.351562 117.441406 248.167969 116.816406 247.976562 C 116.613281 247.855469 116.386719 247.777344 116.144531 247.761719 C 111.78125 246.382812 107.539062 244.640625 103.382812 242.730469 C 98.59375 240.527344 93.746094 238.273438 89.148438 235.691406 C 84.949219 233.328125 81.847656 230.1875 79.742188 225.832031 C 77.804688 221.832031 76.753906 217.421875 75.738281 213.117188 C 74.777344 209.023438 73.851562 204.511719 74.828125 200.328125 C 75.164062 198.894531 75.75 197.644531 76.539062 196.582031 C 79.507812 202.179688 82.820312 207.875 87.738281 211.945312 C 90.488281 214.222656 93.648438 215.929688 97.152344 216.703125 C 101.195312 217.597656 105.359375 217.460938 109.464844 217.792969 C 117.023438 218.40625 124.835938 220.410156 130.265625 226.023438 C 132.996094 228.84375 135.277344 231.972656 138.445312 234.347656 C 141.304688 236.488281 144.605469 238.003906 148.015625 239.039062 C 152.515625 240.402344 157.203125 240.953125 161.910156 241.136719 C 157.519531 243.34375 153.3125 246.085938 148.871094 247.929688 Z M 118.898438 263.03125 C 114.066406 265.101562 108.578125 263.707031 103.578125 265.078125 C 103.328125 265.148438 103.082031 265.230469 102.839844 265.316406 C 106.410156 259.921875 110.980469 255.261719 116.351562 251.597656 C 120.355469 252.796875 124.441406 253.683594 128.597656 254.105469 C 125.984375 257.636719 123.003906 261.269531 118.898438 263.03125 Z M 95.78125 258.34375 C 95.3125 253.804688 96.558594 249.09375 99.496094 245.5625 C 99.628906 245.402344 99.730469 245.230469 99.800781 245.0625 C 100.996094 245.617188 102.195312 246.164062 103.398438 246.699219 C 106.246094 247.96875 109.148438 249.160156 112.097656 250.207031 C 106.554688 254.429688 101.871094 259.675781 98.328125 265.6875 C 98.113281 265.351562 97.921875 264.957031 97.714844 264.585938 C 96.65625 262.671875 96.007812 260.515625 95.78125 258.34375 Z M 111.496094 197.503906 C 116.410156 197.03125 121.148438 195.410156 126.109375 196.417969 C 130.425781 197.292969 134.398438 199.496094 137.382812 202.738281 C 140.617188 206.246094 142.613281 210.941406 144.253906 215.355469 C 145.722656 219.308594 148.628906 222.429688 151.777344 225.144531 C 157.269531 229.878906 163.515625 233.9375 169.917969 237.539062 C 163.613281 237.679688 157.230469 237.597656 151.085938 236.109375 C 147.816406 235.316406 144.667969 234.117188 141.828125 232.292969 C 138.660156 230.253906 136.386719 227.382812 133.898438 224.609375 C 128.886719 219.023438 122.183594 216.046875 114.863281 214.824219 C 107.550781 213.601562 99.230469 215 92.652344 211.035156 C 86.390625 207.257812 82.640625 200.40625 79.320312 194.089844 C 80.5625 193.359375 81.996094 192.871094 83.566406 192.671875 C 93.222656 191.421875 101.769531 198.433594 111.496094 197.503906 Z M 154.773438 198.632812 C 158.875 199.011719 162.527344 199.113281 166.386719 197.316406 C 168.25 196.453125 169.882812 195.195312 171.6875 194.226562 C 171.742188 194.195312 171.800781 194.171875 171.855469 194.144531 C 170.4375 195.792969 168.972656 197.402344 167.425781 198.925781 C 166.652344 199.691406 165.847656 200.464844 164.984375 201.125 C 164.675781 201.359375 164.355469 201.585938 164.019531 201.785156 C 163.890625 201.859375 163.300781 202.132812 163.417969 202.101562 C 160.59375 203.183594 157.550781 203.714844 154.828125 205.078125 C 151.785156 206.597656 149.070312 208.90625 146.53125 211.214844 C 145.222656 208.039062 143.644531 204.945312 141.617188 202.199219 C 141.101562 201.503906 140.558594 200.847656 139.984375 200.226562 C 144.78125 198.765625 149.769531 198.171875 154.773438 198.632812 Z M 151.464844 219.90625 C 150.019531 218.402344 148.753906 216.734375 147.941406 214.835938 C 150.738281 212.261719 153.808594 209.320312 157.378906 207.890625 C 159.949219 206.859375 162.824219 206.433594 165.308594 205.214844 C 167.078125 204.34375 168.601562 202.863281 169.992188 201.492188 C 171.8125 199.699219 173.523438 197.785156 175.175781 195.828125 C 175.242188 200.679688 171.691406 205.179688 167.890625 208.097656 C 165.21875 210.144531 162.277344 211.804688 159.460938 213.632812 C 156.585938 215.5 154.046875 217.671875 151.464844 219.90625 Z M 169.402344 166.535156 C 167.625 167.824219 166.015625 169.242188 164.066406 170.296875 C 161.777344 171.53125 159.230469 172.1875 156.667969 172.582031 C 150.964844 173.46875 145.066406 173.492188 139.308594 173.847656 C 128.363281 174.523438 116.488281 175.992188 107.6875 168 C 106.378906 166.808594 102.613281 163.546875 103.675781 161.492188 C 104.640625 159.621094 108.988281 159.828125 110.667969 159.792969 C 116.554688 159.664062 121.625 161.59375 127.199219 163.113281 C 132.1875 164.472656 136.605469 164.148438 141.089844 161.609375 C 145.847656 158.914062 151.199219 158.011719 156.621094 158.40625 C 156.847656 158.421875 157.050781 158.402344 157.234375 158.355469 C 158.300781 158.707031 159.378906 159.023438 160.449219 159.3125 C 163.65625 160.179688 166.882812 160.957031 170.078125 161.867188 C 172.3125 162.507812 174.617188 163.246094 176.578125 164.519531 C 176.847656 164.691406 177.113281 164.875 177.375 165.0625 C 174.707031 164.417969 171.972656 164.679688 169.402344 166.535156 Z M 120.484375 152.546875 C 117.609375 151.722656 114.609375 150.925781 111.953125 149.515625 C 106.746094 146.757812 105.136719 140.9375 101.9375 136.359375 C 99.429688 132.78125 96.371094 129.714844 94.34375 125.796875 C 92.296875 121.839844 90.21875 116.464844 90.820312 111.90625 C 90.972656 110.742188 91.15625 110.277344 92.167969 110.25 C 93.695312 110.207031 95.347656 110.902344 96.714844 111.507812 C 99.320312 112.660156 101.8125 114.160156 104.121094 115.886719 C 104.28125 116.0625 104.460938 116.195312 104.648438 116.285156 C 105.992188 117.320312 107.273438 118.433594 108.476562 119.597656 C 111.421875 122.460938 113.21875 126.445312 116.46875 128.960938 C 118.914062 130.855469 121.214844 130.898438 124.179688 130.695312 C 127.515625 130.464844 130.386719 132.175781 133.289062 133.574219 C 137.675781 135.6875 142.03125 137.871094 146.351562 140.113281 C 144.34375 143.996094 144.554688 148.242188 147.335938 151.984375 C 148.179688 153.121094 149.171875 154.078125 150.257812 154.898438 C 147.292969 155.238281 144.382812 155.988281 141.671875 157.222656 C 137.5 156.519531 133.347656 155.710938 129.222656 154.773438 C 126.289062 154.105469 123.375 153.375 120.484375 152.546875 Z M 103.898438 104.4375 C 103.84375 103.507812 103.441406 100.863281 104.324219 100.195312 C 105.34375 99.425781 107.378906 100.953125 108.304688 101.722656 C 110.214844 107.011719 113.8125 112.09375 117.8125 115.90625 C 121.882812 119.789062 126.789062 122.679688 132.066406 124.589844 C 136.515625 128.40625 141.867188 131.285156 147.148438 133.683594 C 147.652344 134.140625 148.148438 134.601562 148.636719 135.0625 C 148.894531 135.304688 149.171875 135.453125 149.449219 135.523438 C 149.078125 136.035156 148.710938 136.546875 148.34375 137.0625 C 144.273438 134.949219 140.175781 132.890625 136.050781 130.886719 C 133.394531 129.601562 130.617188 127.953125 127.707031 127.328125 C 124.847656 126.71875 121.570312 128.085938 119.042969 126.375 C 117.351562 125.230469 116.296875 123.503906 115.164062 121.859375 C 113.726562 119.769531 112.003906 117.886719 110.132812 116.175781 C 109.078125 115.214844 107.972656 114.285156 106.828125 113.40625 C 105.222656 110.648438 104.089844 107.648438 103.898438 104.4375 Z M 111.921875 86.785156 C 113.097656 83.671875 114.886719 80.804688 116.765625 78.074219 C 118.457031 75.613281 120.164062 72.953125 122.324219 70.871094 C 122.933594 70.28125 123.597656 69.871094 124.292969 69.402344 C 125.089844 68.871094 124.890625 69.164062 124.867188 70.011719 C 124.820312 71.824219 124.226562 73.566406 123.777344 75.308594 C 123.046875 78.125 122.925781 80.792969 123.464844 83.589844 C 122.539062 84.566406 121.75 85.621094 121.167969 86.601562 C 118.980469 90.304688 118.460938 95.355469 118.332031 99.566406 C 118.199219 103.828125 118.90625 108.386719 121.238281 112.042969 C 122.269531 113.660156 123.449219 115.226562 124.695312 116.746094 C 119.929688 113.414062 116.015625 108.96875 113.171875 103.707031 C 112.585938 102.625 112.105469 101.519531 111.71875 100.398438 C 111.695312 100.226562 111.640625 100.050781 111.546875 99.882812 C 110.199219 95.628906 110.277344 91.152344 111.921875 86.785156 Z M 129.460938 68.226562 C 131.113281 62.84375 137.101562 53.398438 147.023438 49.277344 C 147.910156 48.910156 148.980469 48.730469 149.84375 48.308594 C 149.679688 48.703125 149.679688 49.289062 149.519531 49.699219 C 148.679688 51.847656 146.921875 53.585938 145.5625 55.398438 C 143.363281 58.328125 142.453125 61.246094 142.101562 62.652344 C 141.730469 64.140625 141.335938 66.589844 141.789062 69.753906 C 140.785156 72.222656 140.039062 74.800781 139.542969 77.40625 C 138.449219 83.117188 138.367188 88.964844 138.984375 94.734375 C 137.179688 98.9375 136.199219 103.449219 135.765625 108.007812 C 135.746094 107.972656 135.730469 107.9375 135.714844 107.902344 C 135.40625 107.238281 135.191406 106.53125 134.984375 105.828125 C 134.503906 104.203125 134.167969 102.539062 133.882812 100.871094 C 133.472656 98.492188 133.21875 96.257812 133.3125 93.84375 C 133.441406 90.5625 134.085938 87.234375 134.019531 83.953125 C 133.972656 81.609375 132.722656 79.679688 130.113281 79.84375 C 128.960938 79.917969 127.816406 80.332031 126.726562 80.957031 C 126.664062 80.199219 126.664062 79.433594 126.757812 78.664062 C 127.011719 76.59375 127.460938 75.1875 128.015625 73.457031 C 128.917969 70.632812 129.042969 69.589844 129.460938 68.226562 Z M 164.277344 33.234375 C 165.53125 32.261719 166.953125 31.375 168.453125 30.835938 C 169.253906 30.546875 170.078125 30.355469 170.933594 30.355469 C 171.628906 30.355469 172.316406 30.476562 173 30.609375 C 173.144531 30.640625 173.285156 30.671875 173.429688 30.699219 C 171.304688 32.5625 170.277344 35.554688 169.785156 38.296875 C 168.371094 39.101562 167.035156 40.050781 165.800781 41.132812 C 161.273438 45.097656 158.40625 50.597656 156.832031 56.371094 C 155.910156 55.808594 154.675781 55.703125 153.035156 56.324219 C 150.136719 57.414062 147.828125 59.699219 145.976562 62.226562 C 146.214844 61.507812 146.507812 60.804688 146.855469 60.117188 C 148.121094 57.632812 150.117188 55.6875 151.636719 53.375 C 152.609375 51.898438 153.566406 49.882812 153.566406 47.972656 C 156.042969 42.425781 159.4375 36.992188 164.277344 33.234375 Z M 191.691406 30.914062 C 189.105469 32.023438 186.777344 33.660156 184.839844 35.75 C 181.195312 34.96875 177.476562 35.265625 174.011719 36.414062 C 174.429688 35.382812 175.011719 34.433594 175.816406 33.582031 C 176.1875 33.195312 176.5625 32.769531 176.882812 32.316406 C 181.402344 29.5625 186.777344 29.152344 191.691406 30.914062 Z M 202.113281 42.945312 C 202.15625 43.003906 202.203125 43.054688 202.25 43.101562 C 201.574219 46.710938 203.433594 50.335938 205.019531 53.664062 C 206.738281 57.273438 207.617188 61.089844 207.660156 65.003906 C 207.136719 64.59375 206.574219 64.257812 205.96875 64.054688 C 204.890625 59.164062 203.472656 54.3125 201.261719 49.804688 C 199.933594 47.097656 198.195312 44.265625 195.898438 42.261719 C 195.785156 42.160156 195.667969 42.0625 195.546875 41.972656 C 196.570312 39.867188 197.597656 37.757812 198.621094 35.652344 C 199.164062 38.335938 200.363281 40.769531 202.113281 42.945312 Z M 202.019531 31.085938 C 202.21875 29.890625 202.523438 29.164062 203.828125 29.589844 C 207.882812 30.910156 211.597656 34.457031 213.996094 37.863281 C 214.035156 37.917969 214.074219 37.96875 214.117188 38.019531 C 214.460938 39.738281 215.402344 41.296875 216.226562 42.855469 C 217.875 45.980469 218.476562 49.394531 218.679688 52.863281 C 215.652344 47.460938 211.152344 42.964844 205.625 39.992188 C 205.203125 39.765625 204.707031 39.707031 204.253906 39.8125 C 203.144531 38.253906 202.390625 36.441406 202.082031 34.550781 C 201.898438 33.441406 201.835938 32.203125 202.019531 31.085938 Z M 217.761719 35.664062 C 219.207031 32.386719 225.246094 38.296875 226.421875 39.542969 C 228.476562 41.726562 230.085938 44.257812 231.242188 47 C 230.792969 47.378906 230.101562 48.042969 229.519531 49.023438 C 226.582031 53.976562 229.808594 61.277344 230.730469 63.050781 C 232.238281 65.957031 233.671875 68.875 234.429688 72.078125 C 234.570312 72.671875 234.679688 73.273438 234.773438 73.875 C 232.960938 69.945312 230.628906 66.324219 227.4375 63.265625 C 226.351562 62.222656 224.582031 60.3125 222.703125 59.046875 C 222.601562 58.023438 222.5 57 222.398438 55.976562 C 222.375 52.867188 222.199219 49.753906 221.5 46.71875 C 221.042969 44.730469 220.3125 42.824219 219.359375 41.023438 C 218.578125 39.546875 216.980469 37.4375 217.761719 35.664062 Z M 239.074219 65.144531 C 241.164062 71.191406 243.398438 77.191406 245.648438 83.179688 C 245.769531 83.492188 245.941406 83.738281 246.152344 83.929688 C 246.105469 84.617188 246.101562 85.304688 246.082031 85.929688 C 245.917969 91.460938 246.203125 97.023438 245.113281 102.484375 C 244.394531 106.097656 243.160156 109.53125 241.546875 112.796875 C 242.964844 105.511719 243.238281 98.007812 242.28125 90.632812 C 241.988281 88.386719 241.550781 86.078125 240.359375 84.113281 C 239.890625 83.34375 239.246094 82.542969 238.480469 81.90625 C 239.023438 76.953125 238.554688 71.976562 236.730469 67.304688 C 235.820312 64.980469 234.664062 62.777344 233.523438 60.5625 C 232.574219 58.71875 231.542969 56.746094 231.453125 54.628906 C 231.414062 53.667969 231.492188 52.402344 232.101562 51.605469 C 233.195312 50.179688 234.605469 51.75 235.222656 52.835938 C 235.816406 53.886719 235.949219 55.058594 236.242188 56.210938 C 237.011719 59.234375 238.054688 62.199219 239.074219 65.144531 Z M 246.5625 72.78125 C 251.515625 65.304688 247.285156 56.5 248.332031 48.335938 C 250.253906 50.445312 251.289062 53.296875 252.074219 56.039062 C 253.378906 60.605469 254.324219 65.285156 255.09375 69.964844 C 255.125 70.167969 255.183594 70.339844 255.257812 70.492188 C 255.023438 70.832031 254.828125 71.253906 254.691406 71.777344 C 253.667969 75.707031 254.539062 80.550781 255.363281 84.4375 C 256.082031 87.832031 257.113281 91.128906 257.898438 94.5 C 259.433594 101.113281 258.238281 108.140625 256.527344 114.621094 C 256.40625 114.65625 256.285156 114.695312 256.164062 114.726562 C 256.136719 114.597656 256.097656 114.476562 256.042969 114.367188 C 256.140625 114 256.21875 113.542969 256.25 113.410156 C 256.425781 112.679688 256.582031 111.945312 256.71875 111.207031 C 257.019531 109.570312 257.242188 107.917969 257.386719 106.261719 C 257.667969 103.058594 257.617188 99.824219 257.242188 96.628906 C 256.875 93.484375 256.246094 90.375 255.285156 87.355469 C 254.511719 84.933594 253.757812 82.117188 251.601562 80.558594 C 250.578125 79.816406 249.296875 79.394531 248.234375 79.773438 C 247.441406 77.65625 246.652344 75.535156 245.875 73.414062 C 246.128906 73.277344 246.367188 73.074219 246.5625 72.78125 Z M 264.675781 81 C 266.183594 84.730469 266.898438 88.777344 267.0625 92.78125 C 267.324219 99.125 266.558594 105.3125 264.761719 111.390625 C 263.390625 112.023438 262.019531 112.636719 260.621094 113.199219 C 261.761719 108.332031 262.46875 103.308594 262.101562 98.332031 C 261.695312 92.804688 259.613281 87.5625 258.585938 82.136719 C 258.222656 80.230469 258.039062 78.296875 258.019531 76.355469 C 258.011719 75.308594 258.167969 74.242188 258.132812 73.203125 C 258.136719 73.148438 258.144531 73.09375 258.148438 73.039062 C 258.4375 73.222656 258.859375 73.441406 258.945312 73.488281 C 261.691406 75.015625 263.535156 78.175781 264.675781 81 Z M 275.996094 110.78125 C 277.078125 110.542969 277.148438 110.761719 277.199219 111.78125 C 277.230469 112.347656 277.1875 112.929688 277.140625 113.492188 C 276.6875 119.042969 274.347656 124.628906 272.246094 129.761719 C 267.527344 134.390625 263.808594 140.359375 258.410156 144.148438 C 250.402344 149.769531 239.949219 150.9375 231.859375 156.21875 C 232.679688 152.929688 232.589844 149.550781 230.335938 146.644531 C 229.019531 144.945312 227.265625 143.667969 225.886719 142.039062 C 230.863281 133.695312 237.445312 124.238281 246.875 120.757812 C 250.574219 119.390625 254.511719 118.894531 258.316406 117.855469 C 258.507812 117.832031 258.695312 117.78125 258.867188 117.699219 C 259.746094 117.445312 260.613281 117.160156 261.464844 116.824219 C 264.75 115.535156 267.851562 113.847656 271.09375 112.464844 C 272.667969 111.789062 274.316406 111.148438 275.996094 110.78125 Z M 282.027344 127.542969 C 283.003906 127.199219 284.066406 126.914062 285.105469 127.140625 C 286.71875 127.492188 286.242188 128.644531 285.726562 129.914062 C 283.871094 134.511719 280.539062 138.335938 277.230469 141.941406 C 273.835938 145.636719 270.289062 149.238281 267.519531 153.441406 C 265.992188 155.75 265.023438 158.285156 263.722656 160.714844 C 262.4375 163.125 260.5 164.746094 257.992188 165.792969 C 255.203125 166.953125 252.136719 167.515625 249.1875 168.09375 C 245.523438 168.808594 241.6875 169.269531 238.097656 167.957031 C 235.453125 166.992188 233.234375 165.714844 230.371094 165.328125 C 229.441406 165.203125 228.507812 165.148438 227.574219 165.144531 C 227.957031 164.664062 228.316406 164.160156 228.652344 163.640625 C 228.875 163.546875 229.089844 163.394531 229.289062 163.171875 C 235.949219 155.65625 246.644531 154.246094 255.328125 150.101562 C 259.675781 148.027344 263.320312 145.128906 266.554688 141.578125 C 269.765625 138.054688 272.617188 134.160156 276.242188 131.03125 C 277.945312 129.5625 279.894531 128.285156 282.027344 127.542969 Z M 219.199219 166.867188 C 215.5625 168.054688 211.386719 167.753906 207.597656 168.082031 C 203.898438 168.402344 200.210938 168.847656 196.53125 169.375 C 196.882812 168.867188 197.222656 168.355469 197.542969 167.824219 C 199.640625 164.347656 200.816406 160.441406 201.824219 156.539062 C 203.171875 151.339844 204.394531 146.105469 205.566406 140.863281 C 206.117188 138.402344 206.519531 135.8125 207.488281 133.46875 C 208.441406 131.160156 210.113281 129.347656 211.984375 127.738281 C 212.835938 127.007812 213.863281 125.921875 214.882812 125.460938 C 215.699219 125.089844 216.144531 125.554688 216.769531 126.222656 C 218.304688 127.867188 218.878906 130.230469 219.257812 132.386719 C 219.894531 136.015625 220.175781 139.589844 221.972656 142.707031 C 222.050781 142.914062 222.167969 143.101562 222.316406 143.269531 C 222.632812 143.753906 222.984375 144.222656 223.390625 144.679688 C 224.78125 146.253906 226.609375 147.496094 227.78125 149.261719 C 229.320312 151.582031 228.761719 154.328125 227.914062 156.800781 C 226.414062 161.195312 223.816406 165.355469 219.199219 166.867188 Z M 149.949219 131.316406 C 149.816406 131.078125 149.605469 130.863281 149.292969 130.699219 C 147.234375 128.773438 145.164062 126.851562 143.171875 124.863281 C 140.675781 122.375 139.363281 119.75 139.164062 116.203125 C 138.824219 110.242188 139.511719 104.003906 141.453125 98.347656 C 141.691406 97.660156 141.953125 96.976562 142.238281 96.304688 C 142.46875 96.078125 142.621094 95.773438 142.648438 95.382812 C 143.414062 93.746094 144.332031 92.179688 145.425781 90.746094 C 146.238281 89.683594 147.15625 88.695312 148.148438 87.800781 C 148.519531 87.46875 149.609375 86.328125 150.171875 86.496094 C 150.671875 86.644531 150.851562 87.464844 150.953125 87.882812 C 151.710938 90.984375 150.65625 94.871094 150.054688 97.933594 C 149.367188 101.433594 148.539062 104.90625 148.054688 108.445312 C 146.960938 116.453125 148.578125 124.160156 150.550781 131.882812 C 150.351562 131.695312 150.152344 131.507812 149.949219 131.316406 Z M 202.074219 74.507812 C 202.105469 74.746094 202.136719 74.980469 202.164062 75.21875 C 198.449219 76.179688 195.28125 78.332031 192.992188 81.203125 C 193.039062 77.628906 192.703125 74.070312 191.917969 70.613281 C 191.933594 70.574219 191.949219 70.539062 191.964844 70.5 C 193.8125 65.199219 194.628906 59.539062 194.269531 53.929688 C 194.097656 51.277344 193.417969 48.757812 193.078125 46.140625 C 193.019531 45.714844 193.0625 45.296875 193.039062 44.871094 C 193.042969 44.800781 193.0625 44.730469 193.078125 44.664062 C 193.101562 44.675781 193.128906 44.6875 193.160156 44.699219 C 193.898438 45.078125 194.546875 46.046875 195.074219 46.6875 C 199.101562 51.589844 201.101562 58.71875 202.488281 65.082031 C 201.046875 67.496094 201.855469 72.695312 202.074219 74.507812 Z M 208.914062 72.011719 C 209.351562 72.660156 210.929688 74.835938 212.46875 78.339844 C 212.46875 78.339844 216.03125 86.457031 216.101562 95.226562 C 216.101562 95.527344 216.082031 96.960938 216.101562 98.644531 C 216.121094 100.113281 216.140625 101.582031 216.074219 103.050781 C 215.855469 108.074219 214.777344 112.957031 212.738281 117.445312 C 213.105469 112.757812 213.042969 108.042969 212.371094 103.359375 C 212.113281 101.5625 211.289062 95.070312 209.136719 92.011719 C 209.128906 91.980469 209.125 91.953125 209.117188 91.921875 C 207.800781 87.378906 206.824219 82.757812 206.171875 78.074219 C 205.789062 75.339844 205.371094 72.570312 205.296875 69.804688 C 205.28125 69.355469 205.441406 68.628906 205.476562 68.039062 C 206.640625 69.359375 207.898438 70.507812 208.914062 72.011719 Z M 218.605469 111.578125 C 219.800781 106.332031 219.703125 101.085938 219.726562 95.753906 C 219.726562 95.726562 219.726562 95.703125 219.726562 95.675781 C 220.316406 96.597656 220.949219 97.492188 221.429688 98.492188 C 223.988281 103.808594 224.472656 109.890625 223.945312 115.691406 C 223.589844 119.613281 222.726562 123.480469 221.566406 127.246094 C 220.765625 125.253906 219.566406 123.484375 217.628906 122.265625 C 216.527344 121.574219 215.570312 121.449219 214.65625 121.667969 C 216.441406 118.523438 217.792969 115.152344 218.605469 111.578125 Z M 202.746094 136.492188 C 201.414062 135.203125 200.292969 133.703125 199.519531 132.019531 C 198.007812 128.726562 198.308594 125.226562 199.0625 121.785156 C 200.390625 115.710938 201.855469 109.640625 203.441406 103.625 C 204.21875 100.683594 204.898438 97.464844 206.378906 94.765625 C 206.550781 95.125 206.773438 95.515625 206.816406 95.640625 C 207.070312 96.359375 207.296875 97.085938 207.503906 97.820312 C 208.023438 99.632812 208.425781 101.484375 208.722656 103.347656 C 209.867188 110.550781 209.394531 117.984375 208.109375 125.136719 C 208.042969 125.507812 208.109375 125.886719 208.265625 126.234375 C 207.597656 126.875 206.96875 127.550781 206.390625 128.285156 C 204.507812 130.671875 203.484375 133.53125 202.746094 136.492188 Z M 191.4375 170.015625 C 192.796875 162.65625 192.527344 154.957031 189.917969 147.921875 C 187.53125 140.195312 189.476562 132.03125 194.851562 126.28125 C 194.789062 128.492188 195.078125 130.691406 195.957031 132.863281 C 197.203125 135.949219 199.3125 138.449219 201.867188 140.5 C 201.628906 141.695312 201.394531 142.878906 201.125 144.03125 C 199.753906 149.960938 198.582031 156.101562 196.441406 161.808594 C 195.308594 164.832031 193.582031 167.609375 191.4375 170.015625 Z M 178.835938 131.222656 C 177.832031 122.269531 178.917969 112.941406 183.398438 105.007812 C 184.824219 102.484375 186.542969 100.148438 188.609375 98.113281 C 188.949219 97.78125 189.296875 97.457031 189.652344 97.140625 C 189.722656 97.078125 189.792969 97.011719 189.867188 96.949219 C 189.953125 96.917969 190.023438 96.886719 190.085938 96.851562 C 190.113281 96.964844 190.140625 97.078125 190.160156 97.1875 C 190.316406 98.21875 190.253906 99.265625 190.070312 100.285156 C 189.019531 106.164062 185.867188 111.46875 184.359375 117.21875 C 182.789062 123.195312 183.832031 129.152344 186.117188 134.765625 C 185.75 136.167969 185.503906 137.605469 185.378906 139.054688 C 183.539062 136.332031 181.359375 133.871094 178.808594 131.820312 C 178.847656 131.644531 178.859375 131.445312 178.835938 131.222656 Z M 165.824219 125.59375 C 162.722656 116.535156 161.121094 106.480469 163.945312 97.289062 C 164.105469 97.058594 164.199219 96.789062 164.207031 96.476562 C 164.683594 95.0625 165.269531 93.667969 165.976562 92.300781 C 167.179688 89.980469 168.671875 87.832031 170.5 85.964844 C 170.960938 85.496094 171.429688 84.949219 171.921875 84.527344 C 172.066406 84.40625 172.136719 84.355469 172.15625 84.328125 C 172.8125 84.765625 173.125 86.898438 173.222656 87.453125 C 173.996094 91.785156 172.738281 95.96875 172.441406 100.257812 C 172.085938 105.4375 173.632812 110.492188 175.859375 115.117188 C 174.933594 119.765625 174.667969 124.519531 175.023438 129.246094 C 174.34375 128.863281 173.640625 128.503906 172.917969 128.175781 C 170.621094 127.132812 168.238281 126.308594 165.824219 125.59375 Z M 187.484375 94.046875 C 185.535156 95.519531 183.84375 97.878906 182.5625 99.613281 C 180.398438 102.554688 178.628906 105.902344 177.398438 109.386719 C 176.300781 106.144531 175.757812 102.742188 176.167969 99.292969 C 179.46875 93.066406 181.625 86.335938 182.503906 79.335938 C 183.242188 73.441406 182.5625 67.070312 184.367188 61.347656 C 190.203125 71.234375 190.488281 83.015625 187.484375 94.046875 Z M 205.058594 90.863281 C 205.054688 90.867188 205.050781 90.871094 205.042969 90.871094 C 202.449219 92.386719 201.597656 96.800781 200.839844 99.410156 C 198.878906 106.148438 197.347656 113.03125 195.777344 119.871094 C 195.691406 120.238281 195.613281 120.609375 195.535156 120.980469 C 195.324219 121.046875 195.117188 121.152344 194.914062 121.304688 C 192.023438 123.558594 189.746094 126.375 188.128906 129.511719 C 186.921875 124.886719 187.054688 120.285156 188.679688 115.488281 C 189.765625 112.285156 191.117188 109.183594 192.230469 105.992188 C 193.160156 103.316406 194.082031 100.402344 193.828125 97.535156 C 193.703125 96.121094 193.28125 94.449219 192.355469 93.496094 C 192.324219 92.222656 192.382812 87.914062 195.480469 83.914062 C 198.070312 80.570312 201.355469 79.292969 202.65625 78.863281 C 203.25 82.902344 204.015625 86.910156 205.058594 90.863281 Z M 181.441406 41.839844 C 181.285156 43.292969 181.015625 45.511719 180.566406 48.238281 C 180.210938 50.378906 180.183594 50.203125 180.109375 50.972656 C 179.867188 53.527344 180.257812 54.671875 180.222656 58.578125 C 180.195312 61.488281 179.960938 61.917969 179.628906 68.164062 C 179.347656 73.457031 179.191406 76.101562 179.136719 76.789062 C 178.835938 80.527344 178.121094 84.214844 177.03125 87.792969 C 176.300781 85.75 175.8125 84.050781 175.507812 82.914062 C 173.285156 74.546875 173.703125 68.910156 173.058594 63.492188 C 173.058594 63.492188 172.839844 61.132812 172.875 59.402344 C 172.882812 59.175781 172.941406 58.285156 172.917969 58.515625 C 172.984375 57.875 173.0625 56.152344 172.429688 55.085938 C 172.382812 55.011719 172.332031 54.949219 172.285156 54.878906 C 173.917969 52.53125 175.5625 50.179688 177.21875 47.820312 C 178.625 45.816406 180.035156 43.824219 181.441406 41.839844 Z M 162.648438 71.121094 C 163.339844 68.019531 164.285156 64.964844 165.496094 62.027344 C 166.058594 60.652344 166.625 58.917969 167.613281 57.777344 C 168.253906 57.035156 169.429688 56.363281 169.394531 57.746094 C 169.335938 59.949219 169.304688 62.0625 169.496094 64.28125 C 169.980469 69.855469 170.75 75.40625 171.535156 80.945312 C 168.890625 81.710938 166.128906 85.300781 164.753906 87.285156 C 163.984375 88.394531 163.304688 89.554688 162.695312 90.753906 C 161.230469 84.253906 161.144531 77.878906 162.648438 71.121094 Z M 239.03125 104.507812 C 238.515625 111.398438 236.859375 118.15625 234.292969 124.566406 C 234.21875 124.753906 234.175781 124.933594 234.160156 125.101562 C 230.191406 128.980469 226.875 133.558594 223.9375 138.273438 C 223.566406 136.980469 223.367188 135.628906 223.179688 134.320312 C 223.132812 134 223.085938 133.679688 223.039062 133.355469 C 223.269531 133.160156 223.460938 132.898438 223.585938 132.558594 C 225.859375 126.414062 227.558594 119.691406 227.761719 113.015625 C 228.171875 113.136719 228.636719 113.105469 229.117188 112.824219 C 233.605469 110.214844 234.417969 104.851562 234.550781 100.09375 C 234.640625 96.882812 234.613281 93.675781 234.890625 90.472656 C 235.035156 88.820312 235.238281 87.175781 235.554688 85.546875 C 235.613281 85.1875 235.691406 84.832031 235.78125 84.476562 C 235.851562 84.515625 235.949219 84.570312 236.070312 84.632812 C 236.621094 84.90625 237.0625 85.644531 237.351562 86.15625 C 238.742188 88.601562 238.855469 91.855469 239.050781 94.585938 C 239.285156 97.886719 239.277344 101.207031 239.03125 104.507812 Z M 249.578125 94.496094 C 249.675781 92.03125 249.65625 89.566406 249.6875 87.105469 C 249.703125 86.164062 249.710938 85.214844 249.792969 84.277344 C 249.796875 84.195312 249.824219 84.050781 249.855469 83.882812 C 250.121094 84.273438 250.417969 84.613281 250.617188 85.078125 C 251.191406 86.425781 251.652344 87.839844 252.066406 89.242188 C 252.875 91.964844 253.441406 94.761719 253.714844 97.589844 C 254.015625 100.683594 254.011719 103.808594 253.699219 106.902344 C 253.542969 108.449219 253.289062 109.984375 252.964844 111.503906 C 252.726562 112.628906 251.828125 114.472656 252.21875 115.648438 C 250.6875 115.96875 249.15625 116.28125 247.652344 116.695312 C 245.769531 117.214844 243.980469 117.976562 242.285156 118.914062 C 246.863281 111.4375 249.242188 103.367188 249.578125 94.496094 Z M 227.996094 69.152344 C 230.539062 72.816406 232.371094 77.015625 233.734375 81.242188 C 232.285156 82.273438 232.03125 84.546875 231.769531 86.265625 C 231.316406 89.238281 231.085938 92.238281 230.996094 95.242188 C 230.871094 99.566406 231.824219 106.539062 227.71875 109.414062 C 227.496094 105.429688 226.683594 101.503906 225.070312 97.777344 C 224.492188 96.445312 223.300781 93.75 221.746094 92.03125 C 224.429688 86.820312 226.050781 81.773438 224.144531 75.875 C 223.242188 73.085938 221.867188 70.480469 220.804688 67.75 C 220.257812 66.351562 219.625 64.792969 219.476562 63.285156 C 219.4375 62.855469 219.378906 62.132812 219.613281 61.742188 C 219.898438 61.277344 219.886719 61.476562 220.453125 61.863281 C 222.507812 63.253906 224.382812 65.292969 226.121094 67.058594 C 226.585938 67.535156 227.046875 68.019531 227.484375 68.519531 C 227.601562 68.65625 227.976562 69.148438 227.996094 69.152344 Z M 205.707031 44.257812 C 211.042969 47.664062 215.167969 52.6875 217.390625 58.644531 C 217.117188 58.902344 216.859375 59.222656 216.617188 59.625 C 214.226562 63.613281 217.496094 69.261719 219.109375 72.941406 C 220.316406 75.703125 221.53125 78.613281 221.46875 81.683594 C 221.414062 84.441406 220.28125 87.011719 219.019531 89.445312 C 218.546875 84.496094 217.214844 79.6875 214.980469 75.207031 C 213.863281 72.972656 212.566406 70.820312 211.074219 68.8125 C 211.644531 64.207031 211.160156 59.46875 209.554688 55.105469 C 208.425781 52.035156 205.277344 47.839844 205.707031 44.257812 Z M 195.71875 33.34375 C 194.472656 35.90625 193.226562 38.46875 191.980469 41.03125 C 191.417969 41.195312 190.878906 41.535156 190.394531 42.101562 C 188.699219 44.09375 189.570312 46.960938 190.023438 49.230469 C 191.015625 54.21875 190.929688 59.339844 189.910156 64.289062 C 188.792969 61.605469 187.359375 59.019531 185.5625 56.582031 C 185.082031 55.925781 184.199219 55.566406 183.449219 55.75 C 183.152344 54.710938 181.085938 46.972656 185.972656 40.121094 C 189.363281 35.367188 194.140625 33.792969 195.71875 33.34375 Z M 158.417969 68.324219 C 158.90625 66.8125 159.265625 64.414062 159.160156 62.125 C 159.292969 61.9375 159.386719 61.703125 159.433594 61.417969 C 160.496094 55.148438 162.894531 48.96875 167.53125 44.472656 C 171.078125 41.027344 175.917969 38.886719 180.828125 38.933594 C 176.148438 43.070312 172.152344 47.890625 169 53.316406 C 167.609375 53.386719 166.175781 54.054688 165.210938 55.027344 C 162.890625 57.359375 161.761719 61.398438 160.738281 64.445312 C 158.972656 69.710938 157.910156 75.3125 157.808594 80.871094 C 157.710938 86.09375 158.863281 91.398438 160.457031 96.347656 C 159.675781 98.949219 159.183594 101.636719 158.957031 104.324219 C 158.394531 111.089844 159.578125 117.867188 161.59375 124.328125 C 160.28125 124.046875 158.972656 123.992188 157.890625 124.574219 C 156.84375 125.140625 156.183594 126.257812 155.507812 127.195312 C 154.914062 128.015625 154.316406 128.835938 153.722656 129.660156 C 152.8125 126.109375 151.957031 122.527344 151.539062 118.886719 C 151.039062 114.488281 151.324219 110.1875 152.136719 105.847656 C 152.894531 101.820312 153.878906 97.839844 154.398438 93.769531 C 154.773438 90.800781 155.367188 86.828125 153.203125 84.339844 C 153.058594 84.167969 152.90625 84.015625 152.757812 83.875 C 152.980469 80.898438 153.695312 77.871094 155.066406 75.203125 C 156.246094 72.898438 157.605469 70.8125 158.417969 68.324219 Z M 146.25 68.6875 C 147.566406 66.101562 149.21875 63.601562 151.363281 61.625 C 152.019531 61.023438 152.726562 60.484375 153.519531 60.070312 C 153.917969 59.859375 154.316406 59.6875 154.753906 59.570312 C 155.109375 59.476562 154.40625 59.113281 154.894531 59.386719 C 155.125 59.515625 155.265625 60.289062 155.335938 60.53125 C 156.148438 63.28125 155.445312 66.304688 154.363281 68.878906 C 153.394531 71.183594 151.898438 73.191406 150.96875 75.523438 C 150.027344 77.890625 149.476562 80.375 149.214844 82.902344 C 146.71875 83.492188 144.15625 86.273438 142.230469 89.007812 C 142.066406 82.019531 143.074219 74.9375 146.25 68.6875 Z M 130.296875 83.195312 C 130.292969 83.210938 130.289062 83.238281 130.285156 83.257812 C 130.285156 83.238281 130.289062 83.21875 130.296875 83.195312 Z M 133.054688 120.605469 C 130.4375 118.101562 128.164062 115.207031 125.953125 112.355469 C 123.40625 109.074219 122.085938 105.578125 121.957031 101.386719 C 121.835938 97.4375 122.179688 92.464844 124.042969 88.898438 C 124.964844 87.132812 126.476562 85.589844 128.128906 84.484375 C 128.804688 84.035156 129.527344 83.839844 130.214844 83.476562 C 130.234375 83.46875 130.25 83.460938 130.265625 83.453125 C 130.25 83.921875 130.375 84.753906 130.335938 85.292969 C 130.222656 86.90625 130.03125 88.511719 129.902344 90.121094 C 129.695312 92.808594 129.503906 95.46875 129.839844 98.144531 C 130.257812 101.433594 130.746094 104.800781 131.851562 107.941406 C 132.320312 109.269531 132.855469 110.792969 134.019531 111.667969 C 134.449219 111.992188 134.96875 112.253906 135.503906 112.402344 C 135.496094 112.765625 135.488281 113.125 135.484375 113.488281 C 135.449219 117.507812 135.886719 121.449219 138.28125 124.761719 C 136.417969 123.507812 134.652344 122.136719 133.054688 120.605469 Z M 157.984375 154.796875 C 153.804688 153.390625 148.957031 150.582031 148.546875 145.660156 C 148.367188 143.453125 149.527344 141.65625 150.75 139.925781 C 152.472656 137.496094 154.242188 135.101562 155.988281 132.691406 C 156.667969 131.753906 157.347656 130.8125 158.027344 129.871094 C 158.371094 129.398438 158.789062 128.53125 159.253906 128.179688 C 159.527344 127.972656 159.761719 127.871094 159.984375 127.839844 C 160.613281 127.746094 161.144531 128.007812 161.308594 128.09375 C 162.652344 128.789062 164.285156 128.539062 168.761719 130.367188 C 171.25 131.386719 173.238281 132.453125 174.171875 133.054688 C 178.960938 136.132812 182.5625 140.574219 185.128906 145.894531 C 188.921875 153.75 189.371094 162.535156 187.546875 170.917969 C 186.058594 168.761719 184.429688 166.703125 182.59375 164.847656 C 179.84375 162.070312 176.761719 160.265625 173.085938 159.011719 C 168.140625 157.324219 162.941406 156.464844 157.984375 154.796875 Z M 229.808594 194.761719 C 233.335938 195.519531 236.578125 197.046875 239.394531 199.296875 C 242.070312 201.4375 244.464844 203.941406 247.386719 205.761719 C 250.859375 207.917969 254.285156 208.003906 258.261719 207.992188 C 260.976562 207.984375 263.949219 209.105469 266.371094 210.242188 C 270.613281 212.230469 273.210938 216.324219 275.316406 220.359375 C 278.882812 227.195312 280.929688 234.832031 281.980469 242.464844 C 277.710938 240.023438 273.082031 238.21875 268.289062 236.902344 C 266.003906 232.945312 263.449219 229.15625 260.59375 225.582031 C 257.316406 221.484375 253.582031 217.355469 248.839844 214.941406 C 246.578125 213.792969 244.203125 213.167969 241.710938 212.757812 C 239.078125 212.328125 236.339844 212.042969 233.929688 210.824219 C 230.019531 208.851562 227.101562 205.164062 223.484375 202.710938 C 220.019531 200.355469 216.085938 198.828125 212.011719 197.921875 C 217.261719 194.613281 223.695312 193.445312 229.808594 194.761719 Z M 243.023438 233.714844 C 238.675781 231.421875 234.394531 229 230.199219 226.433594 C 226.636719 224.25 222.996094 222.023438 219.925781 219.164062 C 214.996094 214.566406 214.257812 207.769531 212.074219 201.679688 C 216.429688 202.800781 220.429688 204.703125 224.015625 207.597656 C 225.96875 209.175781 227.734375 210.976562 229.75 212.476562 C 232.070312 214.199219 234.703125 215.199219 237.53125 215.734375 C 240.851562 216.363281 244.210938 216.601562 247.253906 218.203125 C 249.917969 219.601562 252.175781 221.597656 254.238281 223.769531 C 257.691406 227.414062 260.691406 231.46875 263.351562 235.726562 C 257.742188 234.582031 252.003906 234.007812 246.4375 233.800781 C 245.308594 233.761719 244.167969 233.71875 243.023438 233.714844 Z M 296.925781 269.25 C 296.792969 271.097656 296.207031 272.972656 295.222656 274.578125 C 286.601562 266.207031 276.253906 258.558594 264.460938 255.800781 C 259.910156 254.738281 255.792969 255.339844 251.402344 256.730469 C 247.117188 258.085938 243.183594 258.191406 238.957031 256.546875 C 236.574219 255.621094 234.410156 254.230469 232.015625 253.328125 C 229.832031 252.507812 227.535156 252.066406 225.21875 251.839844 C 217.785156 251.101562 210.203125 252.839844 203.128906 255.191406 C 203.878906 251.910156 207.457031 249.914062 210.457031 249.023438 C 214.417969 247.84375 218.636719 247.875 222.578125 246.605469 C 226.410156 245.367188 229.15625 242.808594 232.304688 240.441406 C 235.988281 237.667969 239.8125 237.28125 244.308594 237.371094 C 251.449219 237.515625 258.953125 238.214844 266.101562 240.03125 C 266.410156 240.246094 266.765625 240.324219 267.121094 240.300781 C 273.839844 242.117188 280.21875 244.957031 285.644531 249.285156 C 291.5 253.960938 297.5 261.300781 296.925781 269.25 Z M 171.144531 281.480469 C 172.308594 282.882812 172.859375 283.695312 173.1875 285.332031 C 173.742188 288.113281 173.207031 291.125 172.578125 293.84375 C 169.714844 306.226562 162.394531 317.34375 154.113281 326.773438 C 151.507812 329.746094 148.777344 332.8125 145.621094 335.230469 C 144.917969 335.765625 144.167969 336.28125 143.367188 336.671875 C 142.890625 336.90625 143.324219 336.695312 142.898438 336.859375 C 142.835938 336.882812 142.703125 336.914062 142.582031 336.9375 C 137.363281 326.957031 145.402344 315.890625 150.511719 307.625 C 153.398438 302.949219 156.066406 297.976562 156.90625 292.476562 C 157.355469 289.523438 157.371094 286.546875 157.582031 283.574219 C 157.796875 280.542969 158.40625 277.605469 159.398438 274.734375 C 161.464844 268.785156 164.933594 263.425781 168.367188 258.179688 C 169.417969 261.910156 169.457031 265.773438 168.742188 269.660156 C 168.359375 271.757812 167.945312 273.886719 168.265625 276.015625 C 168.59375 278.210938 169.769531 279.816406 171.144531 281.480469 Z M 136 334.132812 C 133.0625 331.421875 130.929688 327.785156 129.535156 324.066406 C 128.050781 320.109375 127.28125 315.835938 127.75 311.613281 C 128.214844 307.386719 129.488281 303.101562 130.652344 299.023438 C 132.863281 291.289062 136.089844 283.453125 142.496094 278.253906 C 146.128906 275.308594 150.441406 273.339844 154.109375 270.433594 C 155.921875 268.992188 157.472656 267.34375 158.804688 265.449219 C 160.296875 263.335938 161.453125 260.980469 163.105469 258.976562 C 163.558594 258.429688 164.039062 257.910156 164.539062 257.417969 C 161.625 261.910156 158.824219 266.480469 156.785156 271.449219 C 155.640625 274.226562 154.773438 277.113281 154.328125 280.089844 C 153.855469 283.261719 153.875 286.460938 153.609375 289.648438 C 152.589844 301.828125 142.671875 310.324219 138.890625 321.511719 C 137.324219 326.152344 136.800781 331.199219 138.226562 335.820312 C 137.414062 335.335938 136.664062 334.746094 136 334.132812 Z M 290.164062 248.394531 C 288.796875 247.140625 287.355469 245.992188 285.863281 244.9375 C 285.882812 244.785156 285.886719 244.625 285.867188 244.449219 C 284.929688 236.394531 283.054688 228.464844 279.683594 221.0625 C 277.570312 216.417969 274.738281 211.394531 270.476562 208.382812 C 267.769531 206.46875 264.242188 205.34375 261.019531 204.679688 C 257.710938 203.996094 254.257812 204.972656 251.070312 203.617188 C 247.460938 202.089844 244.757812 198.957031 241.75 196.5625 C 238.855469 194.261719 235.636719 192.539062 232.054688 191.570312 C 224.253906 189.46875 215.527344 190.851562 208.960938 195.601562 C 208.625 195.15625 208.265625 194.722656 207.878906 194.304688 C 204.128906 190.246094 199.132812 189.886719 194.089844 190.492188 C 193.226562 185.566406 191.980469 180.710938 190.378906 175.972656 C 191.3125 175.210938 192.199219 174.402344 193.042969 173.550781 C 198.03125 172.75 203.039062 172.09375 208.074219 171.671875 C 211.960938 171.34375 216.125 171.585938 219.882812 170.449219 C 220.808594 170.171875 221.679688 169.8125 222.5 169.386719 C 222.503906 169.382812 222.507812 169.382812 222.507812 169.382812 C 225.394531 168.675781 228.40625 168.496094 231.316406 169.167969 C 233.949219 169.773438 236.191406 171.347656 238.828125 171.953125 C 242.347656 172.765625 245.949219 172.378906 249.460938 171.726562 C 252.308594 171.195312 255.214844 170.632812 257.953125 169.667969 C 260.546875 168.757812 263.082031 167.449219 264.929688 165.363281 C 266.953125 163.078125 267.84375 160.148438 269.292969 157.515625 C 271.957031 152.671875 275.898438 148.738281 279.613281 144.703125 C 283.257812 140.75 286.820312 136.585938 288.9375 131.582031 C 289.949219 129.183594 290.546875 126.351562 288.144531 124.570312 C 286.285156 123.1875 283.660156 123.238281 281.53125 123.886719 C 280.191406 124.296875 278.953125 124.839844 277.792969 125.488281 C 279.121094 121.859375 280.230469 118.128906 280.679688 114.335938 C 280.972656 111.898438 281.136719 108.40625 278.390625 107.3125 C 276.726562 106.648438 274.832031 107.28125 273.21875 107.800781 C 271.800781 108.253906 270.421875 108.816406 269.0625 109.414062 C 271.429688 99.820312 271.785156 88.960938 268.082031 79.800781 C 266.84375 76.738281 265.089844 73.757812 262.53125 71.605469 C 261.527344 70.761719 260.035156 69.871094 258.605469 69.535156 C 258.625 69.367188 258.621094 69.1875 258.589844 69 C 257.742188 63.816406 256.742188 58.550781 255.109375 53.546875 C 253.796875 49.53125 251.789062 45.742188 248.09375 43.472656 C 247.066406 42.839844 245.765625 43.464844 245.429688 44.558594 C 244.066406 48.976562 244.609375 53.550781 245.074219 58.066406 C 245.460938 61.824219 245.847656 65.75 244.351562 69.222656 C 243.75 67.542969 243.15625 65.863281 242.574219 64.179688 C 241.460938 60.972656 240.265625 57.722656 239.539062 54.398438 C 239.089844 52.347656 238.3125 50.355469 236.722656 48.894531 C 236.34375 48.546875 235.925781 48.257812 235.488281 48.027344 C 234.09375 43.738281 231.769531 39.804688 228.601562 36.578125 C 225.890625 33.8125 221.207031 29.726562 217.015625 31.582031 C 216.144531 31.96875 215.460938 32.570312 214.964844 33.300781 C 213.558594 31.71875 211.996094 30.300781 210.246094 29.050781 C 207.957031 27.417969 203.988281 24.621094 201.113281 26.152344 C 199.878906 26.8125 199.152344 27.953125 198.742188 29.25 C 197.773438 29.308594 196.816406 29.4375 195.882812 29.621094 C 195.855469 29.117188 195.578125 28.636719 194.945312 28.347656 C 189.078125 25.6875 182.507812 25.453125 176.761719 28.242188 C 175.277344 26.882812 172.277344 26.644531 170.433594 26.738281 C 168.222656 26.855469 166.085938 27.761719 164.214844 28.898438 C 158.367188 32.4375 154.148438 38.394531 151.179688 44.53125 C 149.871094 44.347656 148.277344 44.9375 147.039062 45.394531 C 137.636719 48.878906 130.113281 56.382812 126.523438 65.699219 C 126.328125 65.613281 126.113281 65.542969 125.878906 65.492188 C 122.679688 64.800781 119.515625 68.347656 117.785156 70.550781 C 115.449219 73.523438 113.203125 76.640625 111.28125 79.898438 C 108.207031 85.117188 106.382812 90.9375 107.113281 96.855469 C 106.246094 96.546875 105.332031 96.390625 104.390625 96.476562 C 101.921875 96.691406 100.621094 98.65625 100.324219 100.953125 C 99.945312 103.898438 100.335938 106.890625 101.234375 109.726562 C 100.042969 109.070312 98.820312 108.476562 97.570312 107.957031 C 94.757812 106.789062 90.265625 105.386719 88.191406 108.558594 C 85.824219 112.179688 87.535156 118.058594 88.761719 121.769531 C 90.367188 126.636719 92.882812 130.835938 96.132812 134.761719 C 97.800781 136.777344 99.339844 138.859375 100.683594 141.113281 C 102.351562 143.90625 103.574219 147.003906 105.828125 149.40625 C 110.445312 154.328125 118.136719 155.78125 124.40625 157.355469 C 128.320312 158.335938 132.269531 159.183594 136.234375 159.925781 C 133.796875 160.671875 131.226562 160.394531 128.785156 159.777344 C 125.964844 159.066406 123.253906 157.96875 120.429688 157.265625 C 117.46875 156.523438 114.390625 156.144531 111.339844 156.152344 C 107.308594 156.167969 99.894531 156.511719 99.882812 162.136719 C 99.875 164.796875 101.808594 167.121094 103.515625 168.96875 C 105.214844 170.8125 107.199219 172.425781 109.328125 173.746094 C 114.183594 176.75 119.75 177.933594 125.40625 178.074219 C 131.703125 178.230469 138.050781 177.554688 144.332031 177.167969 C 150.117188 176.8125 156.230469 176.878906 161.8125 175.136719 C 164.621094 174.261719 167.171875 172.847656 169.492188 171.054688 C 170.953125 169.925781 172.253906 168.648438 174.167969 168.417969 C 178.582031 167.890625 182.679688 171.605469 185.582031 174.488281 C 185.90625 174.992188 186.21875 175.496094 186.527344 176 C 186.558594 176.082031 186.597656 176.160156 186.644531 176.234375 C 188.351562 181.164062 189.652344 186.21875 190.535156 191.335938 C 187.503906 190.101562 184.285156 189.261719 181.046875 188.957031 C 179.894531 188.847656 178.722656 188.824219 177.554688 188.898438 C 177.113281 188.710938 176.617188 188.71875 176.171875 189.03125 C 175.011719 189.183594 173.867188 189.4375 172.765625 189.8125 C 170.546875 190.578125 168.644531 191.835938 166.65625 193.042969 C 164.574219 194.308594 162.3125 195.183594 159.863281 195.339844 C 157.996094 195.460938 156.15625 195.109375 154.304688 194.960938 C 149.070312 194.546875 143.753906 195.246094 138.75 196.808594 C 138.105469 197.011719 137.726562 197.449219 137.570312 197.953125 C 132.035156 193.4375 124.742188 191.742188 117.476562 192.898438 C 114.839844 193.316406 112.226562 193.960938 109.542969 193.984375 C 106.898438 194.011719 104.328125 193.429688 101.804688 192.691406 C 97 191.285156 92.367188 189.332031 87.320312 188.976562 C 83.027344 188.675781 78.527344 189.570312 75.246094 192.511719 C 72.019531 195.402344 70.84375 199.757812 70.824219 203.960938 C 70.804688 208.488281 71.925781 212.980469 73.042969 217.335938 C 74.191406 221.824219 75.589844 226.386719 78.078125 230.335938 C 80.75 234.578125 84.574219 237.425781 88.972656 239.714844 C 91.46875 241.011719 93.988281 242.277344 96.527344 243.503906 C 93.25 247.699219 91.640625 253.011719 92.152344 258.34375 C 92.527344 262.257812 94.890625 271.71875 100.519531 270.21875 C 102.121094 269.792969 103.484375 268.8125 105.128906 268.433594 C 106.757812 268.058594 108.441406 268 110.105469 267.941406 C 113.292969 267.828125 116.554688 267.796875 119.578125 266.652344 C 125.148438 264.542969 128.945312 259.761719 132.347656 255.097656 C 132.527344 254.847656 132.628906 254.601562 132.667969 254.359375 C 133.414062 254.378906 134.164062 254.382812 134.917969 254.363281 C 140.871094 254.238281 146.664062 252.964844 152.066406 250.457031 C 157.578125 247.898438 162.59375 244.3125 168.375 242.351562 C 171.121094 241.421875 174.136719 240.816406 176.835938 241.378906 C 180.445312 242.125 183.382812 244.066406 185.800781 246.722656 C 185.742188 247.121094 185.6875 247.515625 185.632812 247.914062 C 178.148438 246.324219 170.128906 248.253906 164.09375 252.988281 C 160.359375 255.921875 158.363281 259.832031 155.671875 263.621094 C 152.902344 267.523438 148.714844 269.796875 144.75 272.289062 C 140.957031 274.679688 137.605469 277.40625 134.90625 281.007812 C 132.265625 284.535156 130.378906 288.550781 128.878906 292.675781 C 127.335938 296.925781 126.234375 301.324219 125.207031 305.726562 C 124.113281 310.398438 123.648438 314.84375 124.523438 319.605469 C 125.917969 327.222656 130.4375 336.523438 137.972656 339.726562 C 142.558594 341.675781 145.832031 339.875 149.347656 336.835938 C 156.296875 330.832031 162.277344 323.175781 167.136719 315.410156 C 170.117188 310.644531 172.699219 305.570312 174.515625 300.242188 C 176.382812 294.753906 178.683594 287.070312 175.65625 281.53125 C 175.035156 280.394531 174.136719 279.445312 173.320312 278.453125 C 171.1875 275.875 171.808594 273.070312 172.355469 270.023438 C 173.382812 264.300781 172.800781 258.757812 170.453125 253.421875 C 170.433594 253.378906 170.410156 253.339844 170.390625 253.296875 C 174.941406 251.09375 180.21875 250.414062 185.195312 251.539062 C 185.082031 252.617188 184.980469 253.699219 184.898438 254.785156 C 183.914062 268.203125 184.910156 281.675781 185.316406 295.097656 C 185.554688 303.007812 185.585938 310.925781 185.894531 318.835938 C 186.226562 327.363281 187.617188 335.800781 189.332031 344.148438 C 189.804688 346.433594 193.300781 345.46875 192.832031 343.183594 C 191.273438 335.601562 189.949219 327.929688 189.582031 320.1875 C 189.234375 312.863281 189.234375 305.519531 189.035156 298.1875 C 188.675781 285.023438 187.695312 271.828125 188.300781 258.65625 C 188.441406 258.5625 188.582031 258.4375 188.714844 258.28125 C 191.058594 255.433594 195.070312 256.257812 197.90625 257.914062 C 198.496094 258.261719 199.046875 258.660156 199.570312 259.089844 C 199.722656 259.304688 199.917969 259.476562 200.152344 259.589844 C 202.417969 261.640625 204.183594 264.328125 206.207031 266.546875 C 209.074219 269.6875 212.582031 271.9375 216.800781 272.738281 C 221.039062 273.539062 225.347656 273.140625 229.59375 272.605469 C 239.074219 271.40625 248.296875 271.03125 257.710938 273.050781 C 262.425781 274.0625 267.0625 275.527344 271.472656 277.480469 C 275.558594 279.289062 279.605469 281.523438 284.046875 282.328125 C 288.074219 283.058594 292.210938 282.484375 295.4375 279.816406 C 298.355469 277.40625 300.054688 273.746094 300.480469 270.027344 C 301.429688 261.707031 296.027344 253.761719 290.164062 248.394531 " fill-opacity="1" fill-rule="nonzero"/></g></svg>