<svg xmlns="http://www.w3.org/2000/svg" xmlns:xlink="http://www.w3.org/1999/xlink" width="500" zoomAndPan="magnify" viewBox="0 0 375 374.999991" height="500" preserveAspectRatio="xMidYMid meet" version="1.0"><defs><clipPath id="70246607f3"><path d="M 187.5 0 C 83.945312 0 0 83.945312 0 187.5 C 0 291.054688 83.945312 375 187.5 375 C 291.054688 375 375 291.054688 375 187.5 C 375 83.945312 291.054688 0 187.5 0 Z M 187.5 0 " clip-rule="nonzero"/></clipPath><clipPath id="865762fc7d"><path d="M 40 65.265625 L 335 65.265625 L 335 309.765625 L 40 309.765625 Z M 40 65.265625 " clip-rule="nonzero"/></clipPath></defs><g clip-path="url(#70246607f3)"><rect x="-37.5" width="450" fill="#a2c36e" y="-37.499999" height="449.999989" fill-opacity="1"/></g><g clip-path="url(#865762fc7d)"><path fill="#ffffff" d="M 45.785156 256.773438 C 45.746094 256.652344 45.722656 256.511719 45.691406 256.382812 C 65.710938 258.96875 82.207031 269.609375 93 278.675781 C 92.972656 278.980469 92.953125 279.28125 92.945312 279.582031 C 92.832031 279.53125 92.710938 279.464844 92.601562 279.414062 C 88.113281 277.414062 79.515625 273.335938 71.203125 269.394531 C 60.441406 264.285156 50.273438 259.464844 46.707031 258.015625 C 46.546875 257.949219 46.117188 257.777344 45.785156 256.773438 Z M 49.109375 238.949219 C 68.863281 244.421875 87.035156 264.691406 93.382812 272.414062 C 81.941406 263.371094 65.433594 253.613281 45.617188 251.246094 C 46.167969 246.933594 47.789062 241.824219 49.109375 238.949219 Z M 62.566406 228.8125 C 73.304688 237.980469 90.984375 256.609375 99.367188 270.007812 C 99.050781 270.152344 98.730469 270.335938 98.414062 270.507812 C 93.148438 263.859375 74.476562 241.875 52.761719 234.730469 C 55.40625 232.710938 59.238281 230.421875 62.566406 228.8125 Z M 68.78125 226.8125 C 82.625 231.519531 97.328125 256.0625 104.6875 268.507812 C 104.605469 268.519531 104.511719 268.539062 104.429688 268.550781 C 96.363281 255.042969 79.3125 236.871094 68.027344 226.816406 C 68.324219 226.78125 68.582031 226.773438 68.78125 226.8125 Z M 107.636719 273.457031 C 109.199219 276.019531 110.003906 277.132812 110.765625 277.6875 C 113.179688 279.441406 116.308594 279.449219 118.738281 277.707031 C 121.179688 275.953125 122.179688 272.96875 121.289062 270.113281 C 120.820312 268.582031 119.429688 265.902344 117.824219 262.800781 C 116.199219 259.667969 114.179688 255.773438 113.726562 254.074219 C 110.023438 240.316406 112.289062 232.09375 120.46875 229.640625 C 126.753906 227.753906 137.890625 225.265625 146.394531 223.632812 C 146.679688 224.574219 146.976562 225.484375 147.289062 226.351562 C 149.53125 232.597656 151.855469 239.054688 154.585938 243.652344 C 159.652344 252.195312 163.671875 257.367188 167.039062 260.941406 C 160.394531 259.601562 154.164062 257.851562 150.238281 256.660156 C 148.3125 256.074219 146.257812 256.617188 144.867188 258.074219 C 143.472656 259.539062 143.027344 261.632812 143.707031 263.535156 C 150.722656 283.21875 152.277344 297.761719 147.765625 301.488281 C 137.808594 309.730469 118.027344 296.136719 104.9375 287.144531 C 102.578125 285.523438 100.378906 284.015625 98.382812 282.722656 C 97.972656 281.175781 97.5 277.027344 99.988281 275.445312 C 102.898438 273.59375 105.910156 273.386719 107.636719 273.457031 Z M 148.621094 129.789062 C 150.527344 123.433594 152.898438 118.742188 155.832031 113.273438 C 158.101562 115.359375 161.082031 116.585938 164.28125 116.585938 C 171.199219 116.585938 176.828125 110.957031 176.828125 104.035156 C 176.828125 97.640625 172.003906 92.359375 165.800781 91.605469 C 173.144531 78.179688 185.496094 77.894531 186.054688 77.890625 L 188.929688 77.890625 C 189.496094 77.894531 201.855469 78.179688 209.195312 91.605469 C 202.992188 92.359375 198.167969 97.640625 198.167969 104.035156 C 198.167969 110.957031 203.796875 116.585938 210.714844 116.585938 C 213.914062 116.585938 216.890625 115.359375 219.160156 113.273438 C 222.097656 118.742188 224.46875 123.433594 226.371094 129.789062 C 229.488281 140.199219 231.871094 199.6875 222.910156 224.625 C 220.746094 230.652344 218.507812 236.878906 216.027344 241.054688 C 207.644531 255.179688 202.585938 259.359375 198.121094 263.046875 L 197.585938 263.488281 C 197.480469 263.566406 197.378906 263.652344 197.265625 263.75 C 194.785156 265.8125 191.265625 266.933594 187.574219 266.820312 L 187.339844 266.820312 C 183.710938 266.9375 180.210938 265.8125 177.6875 263.71875 C 177.601562 263.640625 177.507812 263.566406 177.410156 263.492188 L 176.871094 263.042969 C 172.40625 259.359375 167.347656 255.179688 158.96875 241.050781 C 156.484375 236.871094 154.25 230.648438 152.085938 224.625 C 143.121094 199.6875 145.503906 140.195312 148.621094 129.789062 Z M 160.476562 104.253906 C 160.929688 105.597656 162.1875 106.570312 163.683594 106.570312 C 165.558594 106.570312 167.082031 105.050781 167.082031 103.171875 C 167.082031 101.296875 165.558594 99.773438 163.683594 99.773438 C 163.164062 99.773438 162.679688 99.902344 162.242188 100.105469 C 162.621094 99.144531 163 98.152344 163.371094 97.09375 C 163.425781 96.941406 163.484375 96.800781 163.539062 96.652344 C 163.785156 96.628906 164.03125 96.601562 164.28125 96.601562 C 168.390625 96.601562 171.730469 99.9375 171.730469 104.035156 C 171.730469 108.144531 168.390625 111.488281 164.28125 111.488281 C 161.925781 111.488281 159.761719 110.378906 158.371094 108.539062 C 159.027344 107.28125 159.742188 105.859375 160.476562 104.253906 Z M 211.457031 96.652344 C 211.511719 96.800781 211.570312 96.945312 211.625 97.097656 C 211.996094 98.15625 212.375 99.148438 212.753906 100.105469 C 212.3125 99.898438 211.828125 99.773438 211.3125 99.773438 C 209.433594 99.773438 207.914062 101.296875 207.914062 103.171875 C 207.914062 105.050781 209.433594 106.570312 211.3125 106.570312 C 212.808594 106.570312 214.066406 105.597656 214.519531 104.253906 C 215.253906 105.859375 215.964844 107.28125 216.625 108.539062 C 215.230469 110.378906 213.070312 111.488281 210.714844 111.488281 C 206.605469 111.488281 203.261719 108.144531 203.261719 104.035156 C 203.261719 99.9375 206.605469 96.601562 210.714844 96.601562 C 210.964844 96.601562 211.210938 96.628906 211.457031 96.652344 Z M 254.523438 229.640625 C 262.703125 232.09375 264.972656 240.316406 261.265625 254.082031 C 260.816406 255.773438 258.792969 259.671875 257.171875 262.800781 C 255.5625 265.902344 254.175781 268.582031 253.710938 270.101562 C 252.816406 272.972656 253.816406 275.957031 256.253906 277.707031 C 258.683594 279.449219 261.8125 279.441406 264.226562 277.6875 C 264.992188 277.132812 265.792969 276.019531 267.359375 273.457031 C 269.082031 273.386719 272.097656 273.59375 275.007812 275.445312 C 277.492188 277.027344 277.019531 281.179688 276.613281 282.722656 C 274.617188 284.015625 272.417969 285.523438 270.058594 287.144531 C 256.96875 296.136719 237.183594 309.730469 227.226562 301.488281 C 222.714844 297.761719 224.269531 283.21875 231.285156 263.535156 C 231.964844 261.628906 231.519531 259.539062 230.125 258.074219 C 228.734375 256.617188 226.679688 256.078125 224.757812 256.660156 C 220.832031 257.851562 214.597656 259.601562 207.957031 260.941406 C 211.324219 257.367188 215.34375 252.195312 220.410156 243.65625 C 223.136719 239.0625 225.460938 232.601562 227.707031 226.351562 C 228.019531 225.484375 228.316406 224.574219 228.601562 223.632812 C 237.105469 225.265625 248.238281 227.753906 254.523438 229.640625 Z M 306.179688 226.824219 C 306.382812 226.78125 306.652344 226.789062 306.957031 226.824219 C 295.671875 236.882812 278.628906 255.046875 270.566406 268.550781 C 270.480469 268.539062 270.390625 268.519531 270.308594 268.507812 C 277.664062 256.0625 292.371094 231.519531 306.179688 226.824219 Z M 322.234375 234.730469 C 300.519531 241.875 281.847656 263.859375 276.582031 270.507812 C 276.261719 270.339844 275.945312 270.152344 275.628906 270.007812 C 284.011719 256.605469 301.695312 237.972656 312.433594 228.808594 C 315.765625 230.414062 319.59375 232.710938 322.234375 234.730469 Z M 329.375 251.246094 C 309.5625 253.613281 293.054688 263.367188 281.613281 272.414062 C 287.964844 264.691406 306.132812 244.421875 325.882812 238.949219 C 327.203125 241.824219 328.828125 246.933594 329.375 251.246094 Z M 329.210938 256.773438 C 328.875 257.777344 328.449219 257.949219 328.285156 258.015625 C 324.71875 259.464844 314.546875 264.289062 303.777344 269.402344 C 295.46875 273.339844 286.878906 277.417969 282.394531 279.414062 C 282.285156 279.464844 282.164062 279.53125 282.050781 279.582031 C 282.039062 279.28125 282.023438 278.980469 281.992188 278.675781 C 292.785156 269.609375 309.285156 258.96875 329.304688 256.382812 C 329.269531 256.511719 329.246094 256.652344 329.210938 256.773438 Z M 141.765625 142.015625 C 130.109375 136.363281 124.746094 133.382812 123.6875 132.476562 C 121.894531 130.9375 113.820312 118.453125 107.925781 109.335938 C 102.570312 101.054688 97.949219 93.90625 96.242188 91.957031 C 93.527344 88.847656 87.589844 86.152344 82.734375 84.339844 L 84.984375 79.839844 C 85.617188 78.546875 85.867188 77.117188 85.707031 75.710938 L 85.277344 71.695312 L 88.519531 72.769531 C 89.972656 73.265625 91.546875 73.191406 92.984375 72.546875 L 97.195312 70.558594 L 99.480469 83.699219 C 99.644531 84.679688 100.03125 85.605469 100.652344 86.484375 L 101.433594 87.546875 C 116.953125 108.699219 126.054688 120.8125 128.492188 123.5625 C 131.179688 126.566406 138.160156 129.171875 143.175781 130.742188 C 142.652344 133.4375 142.167969 137.308594 141.765625 142.015625 Z M 246.507812 123.554688 C 248.941406 120.8125 258.042969 108.699219 273.558594 87.546875 L 274.367188 86.449219 C 274.964844 85.609375 275.347656 84.683594 275.511719 83.71875 L 277.792969 70.597656 L 282.039062 72.558594 C 283.449219 73.191406 285.023438 73.265625 286.449219 72.777344 L 289.71875 71.695312 L 289.285156 75.699219 C 289.128906 77.113281 289.378906 78.546875 290.019531 79.863281 L 292.257812 84.339844 C 287.425781 86.144531 281.472656 88.84375 278.753906 91.953125 C 277.046875 93.90625 272.421875 101.054688 267.070312 109.335938 C 261.171875 118.453125 253.097656 130.9375 251.300781 132.476562 C 250.25 133.386719 244.882812 136.363281 233.226562 142.015625 C 232.828125 137.308594 232.34375 133.4375 231.820312 130.742188 C 236.835938 129.171875 243.816406 126.566406 246.507812 123.554688 Z M 90.527344 284.070312 C 93.191406 285.257812 97.296875 288.082031 102.050781 291.34375 C 113.460938 299.1875 128.035156 309.199219 140.0625 309.199219 C 144.066406 309.199219 147.789062 308.089844 151.015625 305.417969 C 159.335938 298.542969 154.246094 277.914062 148.507812 261.824219 C 148.492188 261.773438 148.464844 261.691406 148.558594 261.59375 C 148.644531 261.5 148.710938 261.523438 148.757812 261.539062 C 154.328125 263.226562 164.417969 266.015625 174.007812 267.289062 L 174.472656 267.671875 C 177.75 270.394531 182.234375 271.925781 186.871094 271.925781 C 187.078125 271.925781 187.289062 271.921875 187.5 271.917969 C 192.335938 272.0625 197.097656 270.515625 200.558594 267.628906 L 200.976562 267.292969 C 210.570312 266.019531 220.664062 263.226562 226.238281 261.539062 C 226.285156 261.523438 226.351562 261.503906 226.4375 261.59375 C 226.53125 261.691406 226.5 261.777344 226.484375 261.824219 C 220.75 277.914062 215.660156 298.539062 223.976562 305.417969 C 227.207031 308.089844 230.925781 309.199219 234.933594 309.199219 C 246.957031 309.199219 261.535156 299.1875 272.945312 291.34375 C 277.699219 288.082031 281.804688 285.257812 284.46875 284.070312 C 289.011719 282.046875 297.628906 277.960938 305.960938 274.007812 C 316.191406 269.152344 326.773438 264.132812 330.207031 262.738281 C 331.46875 262.222656 333.160156 261.050781 334.046875 258.378906 C 336.40625 251.269531 331.378906 237.972656 329.527344 234.914062 C 327.835938 232.117188 320.054688 226.5625 313.292969 223.648438 C 313.09375 223.53125 312.890625 223.4375 312.671875 223.378906 C 309.402344 222.035156 306.425781 221.355469 304.574219 221.988281 C 288.683594 227.390625 273.605469 252.90625 265.507812 266.613281 C 263.679688 269.707031 261.789062 272.90625 261.144531 273.625 C 260.28125 274.1875 259.519531 273.773438 259.226562 273.566406 C 258.984375 273.390625 258.226562 272.738281 258.578125 271.609375 C 258.914062 270.515625 260.394531 267.664062 261.695312 265.148438 C 263.617188 261.449219 265.597656 257.621094 266.191406 255.398438 C 271.867188 234.304688 263.777344 227.09375 255.988281 224.757812 C 249.644531 222.851562 238.519531 220.359375 229.914062 218.695312 C 234.621094 198.664062 234.90625 167.882812 233.628906 147.484375 C 242.867188 143.03125 252.476562 138.195312 254.625 136.34375 C 256.8125 134.46875 262.667969 125.527344 271.351562 112.105469 C 276.15625 104.667969 281.125 96.984375 282.59375 95.308594 C 284.234375 93.425781 288.824219 91 294.832031 88.828125 C 295.980469 88.425781 296.90625 87.542969 297.367188 86.410156 C 297.832031 85.269531 297.78125 83.988281 297.234375 82.894531 L 294.589844 77.605469 C 294.382812 77.175781 294.300781 76.726562 294.351562 76.257812 L 294.917969 71.046875 C 295.085938 69.566406 294.492188 68.128906 293.332031 67.195312 C 292.175781 66.265625 290.652344 66 289.28125 66.472656 L 284.828125 67.945312 C 284.601562 68.023438 284.351562 68.007812 284.148438 67.917969 L 279.785156 65.90625 C 278.40625 65.277344 276.839844 65.304688 275.484375 65.984375 C 274.125 66.664062 273.15625 67.90625 272.808594 69.503906 L 270.484375 82.863281 C 270.449219 83.082031 270.359375 83.292969 270.234375 83.46875 L 269.449219 84.53125 C 250.238281 110.722656 244.296875 118.367188 242.699219 120.167969 C 241.304688 121.730469 236.40625 123.953125 230.457031 125.832031 C 228.328125 119.535156 225.761719 114.761719 222.601562 108.90625 L 221.8125 107.441406 C 220.277344 104.59375 218.277344 100.648438 216.429688 95.40625 C 216.199219 94.75 215.953125 94.105469 215.699219 93.460938 C 207.476562 73.027344 189.695312 72.792969 188.941406 72.792969 L 186.054688 72.792969 C 185.300781 72.792969 167.519531 73.027344 159.289062 93.476562 C 159.039062 94.105469 158.792969 94.75 158.5625 95.40625 C 156.722656 100.632812 154.726562 104.578125 153.191406 107.429688 C 153.1875 107.433594 153.1875 107.433594 153.1875 107.4375 C 153.183594 107.4375 153.183594 107.441406 153.183594 107.441406 L 152.398438 108.902344 C 149.238281 114.757812 146.667969 119.53125 144.539062 125.832031 C 138.585938 123.953125 133.691406 121.730469 132.300781 120.171875 C 130.699219 118.367188 124.757812 110.722656 105.542969 84.53125 L 104.789062 83.503906 C 104.636719 83.292969 104.546875 83.082031 104.507812 82.84375 L 102.164062 69.394531 C 101.835938 67.90625 100.871094 66.664062 99.511719 65.984375 C 98.15625 65.304688 96.589844 65.28125 95.199219 65.910156 L 90.875 67.90625 C 90.644531 68.007812 90.394531 68.023438 90.144531 67.9375 L 85.742188 66.484375 C 84.34375 66 82.816406 66.269531 81.660156 67.195312 C 80.5 68.128906 79.910156 69.566406 80.078125 71.027344 L 80.640625 76.265625 C 80.691406 76.722656 80.613281 77.175781 80.414062 77.582031 L 77.757812 82.894531 C 77.210938 83.988281 77.164062 85.269531 77.625 86.410156 C 78.089844 87.542969 79.011719 88.425781 80.132812 88.816406 C 86.171875 91 90.757812 93.429688 92.402344 95.3125 C 93.867188 96.984375 98.839844 104.671875 103.644531 112.105469 C 112.328125 125.527344 118.179688 134.46875 120.367188 136.339844 C 122.519531 138.195312 132.125 143.03125 141.367188 147.484375 C 140.085938 167.878906 140.375 198.664062 145.078125 218.695312 C 136.472656 220.359375 125.351562 222.851562 119.003906 224.757812 C 111.21875 227.09375 103.125 234.304688 108.800781 255.390625 C 109.394531 257.621094 111.378906 261.449219 113.296875 265.148438 C 114.601562 267.664062 116.082031 270.515625 116.417969 271.621094 C 116.769531 272.738281 116.007812 273.390625 115.769531 273.566406 C 115.472656 273.777344 114.714844 274.191406 113.847656 273.625 C 113.207031 272.90625 111.316406 269.707031 109.484375 266.613281 C 101.386719 252.90625 86.3125 227.390625 70.417969 221.988281 C 68.574219 221.359375 65.601562 222.035156 62.339844 223.375 C 62.109375 223.433594 61.890625 223.53125 61.683594 223.65625 C 54.921875 226.578125 47.15625 232.121094 45.464844 234.914062 C 43.617188 237.972656 38.589844 251.269531 40.949219 258.375 C 41.835938 261.050781 43.527344 262.222656 44.789062 262.738281 C 48.21875 264.132812 58.792969 269.148438 69.019531 274 C 77.359375 277.957031 85.980469 282.046875 90.527344 284.070312 " fill-opacity="1" fill-rule="nonzero"/></g></svg>