<svg xmlns="http://www.w3.org/2000/svg" xmlns:xlink="http://www.w3.org/1999/xlink" width="500" zoomAndPan="magnify" viewBox="0 0 375 374.999991" height="500" preserveAspectRatio="xMidYMid meet" version="1.0"><defs><clipPath id="701ba3933e"><path d="M 187.5 0 C 83.945312 0 0 83.945312 0 187.5 C 0 291.054688 83.945312 375 187.5 375 C 291.054688 375 375 291.054688 375 187.5 C 375 83.945312 291.054688 0 187.5 0 Z M 187.5 0 " clip-rule="nonzero"/></clipPath><clipPath id="a0a9653974"><path d="M 60.144531 84.179688 L 315 84.179688 L 315 290 L 60.144531 290 Z M 60.144531 84.179688 " clip-rule="nonzero"/></clipPath></defs><g clip-path="url(#701ba3933e)"><rect x="-37.5" width="450" fill="#fec743" y="-37.499999" height="449.999989" fill-opacity="1"/></g><g clip-path="url(#a0a9653974)"><path fill="#ffffff" d="M 309.839844 135.433594 C 309.265625 135.484375 308.703125 135.589844 308.144531 135.746094 C 308.460938 135.210938 308.726562 134.648438 308.9375 134.0625 C 309.863281 131.433594 308.796875 128.050781 305.691406 127.671875 C 302.644531 127.300781 300.195312 130.175781 299.089844 132.679688 C 298.300781 134.457031 298.160156 136.382812 298.515625 138.234375 C 296.214844 140.175781 294.113281 142.519531 292.148438 144.480469 C 291.078125 145.546875 290.019531 146.621094 288.957031 147.691406 C 288.5625 145.511719 288.292969 143.316406 288.144531 141.105469 C 288.042969 139.414062 287.84375 137.695312 287.785156 136.003906 C 287.757812 135.28125 287.703125 134.367188 287.679688 133.414062 C 289.070312 132.703125 290.324219 131.734375 291.257812 130.472656 C 292.679688 128.542969 294.1875 125.5 292.371094 123.328125 C 290.738281 121.382812 287.792969 121.921875 286.214844 123.605469 C 286.003906 123.835938 285.808594 124.082031 285.640625 124.34375 C 284.710938 122.652344 283.058594 121.273438 281.019531 121.90625 C 278.496094 122.691406 277.710938 125.566406 278.011719 127.910156 C 278.273438 129.964844 279.132812 131.503906 280.488281 132.726562 C 280.417969 133.429688 280.347656 134.113281 280.34375 134.726562 C 280.328125 136.84375 280.339844 138.980469 280.414062 141.105469 C 280.570312 145.351562 280.761719 149.5625 281.003906 153.804688 C 281.035156 154.359375 281.144531 154.902344 281.339844 155.421875 C 281.324219 155.441406 281.308594 155.457031 281.292969 155.472656 C 278.058594 158.765625 274.890625 162.265625 271.890625 165.90625 C 272.789062 162.8125 273.613281 159.683594 273.941406 156.488281 C 274.382812 152.195312 273.433594 147.449219 272.15625 143.355469 C 271.71875 141.941406 271.238281 140.539062 270.730469 139.144531 C 272.386719 136.65625 273.179688 133.488281 274.546875 130.773438 C 275.945312 127.992188 277.367188 125.230469 278.652344 122.394531 C 280.628906 118.046875 282.585938 113.695312 284.53125 109.335938 C 285.222656 109.507812 285.925781 109.589844 286.636719 109.585938 C 287.347656 109.582031 288.046875 109.488281 288.734375 109.308594 C 289.421875 109.128906 290.078125 108.863281 290.703125 108.519531 C 291.324219 108.175781 291.894531 107.761719 292.414062 107.273438 C 294.160156 105.644531 296.390625 102.65625 294.261719 100.441406 C 292.523438 98.632812 289.46875 99.429688 287.113281 100.375 C 287.277344 99.699219 287.363281 99.019531 287.375 98.324219 C 287.414062 95.175781 285.472656 91.839844 282.273438 91.050781 C 278.914062 90.222656 277.054688 92.792969 276.921875 95.890625 C 276.757812 99.617188 278.390625 102.839844 279.574219 106.234375 C 277.035156 110.574219 274.496094 114.910156 271.984375 119.265625 C 270.433594 121.953125 269.03125 124.730469 267.589844 127.476562 C 267.292969 128.039062 266.96875 128.589844 266.640625 129.132812 C 265.410156 126.367188 264.136719 123.621094 262.875 120.875 C 263.171875 120.589844 263.550781 120.175781 263.65625 120.054688 C 264.214844 119.40625 264.679688 118.699219 265.050781 117.925781 C 265.6875 116.597656 266.078125 115.199219 266.21875 113.730469 C 266.523438 110.847656 266.304688 104.988281 262.792969 103.992188 C 259.585938 103.085938 257.640625 106.289062 256.816406 109.019531 C 254.539062 106.328125 251.597656 104.949219 248.878906 107.75 C 246.5 110.199219 247.421875 114.246094 249.203125 116.753906 C 250.128906 118.058594 251.332031 119.066406 252.722656 119.855469 C 254.101562 120.636719 255.628906 120.988281 256.890625 121.90625 C 259.183594 129.414062 261.566406 136.878906 263.949219 144.359375 C 265.425781 149 265.761719 153.027344 264.980469 157.835938 C 264.246094 162.328125 262.9375 166.753906 261.851562 171.167969 C 259.613281 180.246094 257.179688 189.257812 254.710938 198.273438 C 253.476562 202.78125 252.242188 207.285156 251.007812 211.792969 C 250.433594 213.894531 250.035156 216.195312 249.242188 218.226562 C 248.753906 219.484375 248.015625 220.636719 247.570312 221.917969 C 247.132812 223.179688 247.085938 224.585938 246.46875 225.792969 C 246.234375 226.242188 246.054688 226.710938 245.929688 227.199219 C 244.105469 228.082031 242.277344 228.945312 240.460938 229.800781 C 232.925781 233.351562 225.179688 236.421875 217.394531 239.378906 C 212.261719 241.328125 207.054688 243.460938 201.789062 245.320312 C 202.761719 244.378906 203.726562 243.417969 204.667969 242.414062 C 208.941406 237.871094 213.085938 233.25 217.074219 228.449219 C 221.011719 223.707031 224.828125 218.859375 228.523438 213.914062 C 230.429688 211.363281 232.5 208.824219 234.195312 206.128906 C 235.992188 203.269531 236.257812 200.664062 235.328125 197.4375 C 233.574219 191.359375 232.539062 185.023438 231.179688 178.828125 C 234.6875 172.238281 238.339844 165.695312 241.640625 159.003906 C 244.988281 152.222656 248 145.25 251.144531 138.371094 C 252.460938 138.171875 253.683594 137.722656 254.816406 137.027344 C 256.855469 135.769531 258.941406 133.457031 258.597656 130.875 C 258.195312 127.851562 255.011719 127.625 252.773438 128.761719 C 252.578125 128.863281 252.378906 128.976562 252.179688 129.09375 C 252.316406 128.5 252.394531 127.902344 252.414062 127.296875 C 252.484375 124.65625 251.199219 121.042969 248.257812 120.480469 C 245.242188 119.902344 243.128906 122.921875 242.644531 125.527344 C 242.058594 128.695312 243.21875 132.167969 244.621094 135.023438 C 243.089844 138.203125 241.527344 141.371094 239.988281 144.550781 C 239.644531 143.960938 239.304688 143.375 238.984375 142.78125 C 237.753906 140.511719 236.605469 138.203125 235.488281 135.878906 C 237.414062 134.207031 239.191406 132.171875 239.824219 129.660156 C 240.382812 127.453125 239.757812 124.367188 237.359375 123.511719 C 234.683594 122.558594 232.894531 124.292969 231.820312 126.785156 C 229.847656 124.191406 226.929688 122.78125 224.320312 125.320312 C 222.351562 127.238281 222.375 130.308594 223.441406 132.667969 C 224.824219 135.734375 227.402344 137.214844 230.367188 138.285156 C 231.113281 140.675781 231.894531 143.058594 232.710938 145.425781 C 233.625 148.070312 234.421875 151.027344 235.761719 153.523438 C 235.449219 154.214844 235.140625 154.902344 234.835938 155.597656 C 232.832031 160.164062 230.949219 164.792969 229.078125 169.425781 C 228.296875 165.925781 227.511719 162.429688 226.726562 158.929688 C 225.265625 152.445312 223.734375 145.980469 222.140625 139.527344 C 221.34375 136.304688 220.53125 133.082031 219.699219 129.863281 C 219.292969 128.296875 218.953125 126.667969 218.523438 125.070312 C 220.085938 123.621094 221.304688 121.683594 222.175781 119.828125 C 223.660156 116.675781 224.808594 110.742188 221.121094 108.527344 C 218.128906 106.722656 215.625 109.113281 213.929688 111.574219 C 213.875 111.484375 213.824219 111.394531 213.761719 111.308594 C 211.855469 108.476562 208.296875 106.234375 205.105469 108.578125 C 202.054688 110.8125 201.496094 115.722656 202.605469 119.089844 C 203.917969 123.085938 207.386719 123.996094 210.398438 125.972656 C 210.769531 127.558594 211.265625 129.128906 211.675781 130.699219 C 212.464844 133.695312 213.242188 136.699219 214.003906 139.703125 C 215.523438 145.714844 216.988281 151.742188 218.398438 157.78125 C 218.546875 158.429688 218.691406 159.074219 218.839844 159.722656 C 217.917969 159.046875 217.003906 158.355469 216.121094 157.644531 C 212.414062 154.664062 208.546875 151.929688 204.914062 148.847656 C 204.976562 145.414062 205.019531 141.503906 203.414062 138.425781 C 202.066406 135.847656 199.167969 135.191406 196.992188 137.269531 C 194.785156 139.375 194.710938 142.800781 195.859375 145.839844 C 195.53125 145.785156 195.199219 145.75 194.863281 145.738281 C 192.550781 145.667969 190.007812 146.816406 189.257812 149.164062 C 188.46875 151.632812 190.242188 153.9375 192.519531 154.71875 C 195.664062 155.800781 198.6875 154.726562 201.566406 153.460938 C 204.421875 157.078125 207.398438 160.730469 210.808594 163.796875 C 212.566406 165.378906 214.242188 167.054688 216.035156 168.574219 C 217.816406 170.085938 219.527344 171.816406 221.667969 172.742188 C 223.183594 180.113281 224.585938 187.511719 225.875 194.933594 C 226.324219 197.492188 226.386719 200.734375 225.742188 203.238281 C 225.113281 205.664062 222.449219 208.222656 220.960938 210.210938 C 217.441406 214.917969 213.796875 219.523438 210.019531 224.03125 C 206.300781 228.484375 202.519531 232.945312 198.585938 237.214844 C 198.335938 237.480469 198.09375 237.753906 197.851562 238.023438 C 197.328125 236.757812 196.746094 235.515625 196.136719 234.289062 C 199.734375 228.148438 202.683594 221.636719 204.566406 214.746094 C 206.355469 208.199219 207.898438 201.070312 207.832031 194.148438 C 210.019531 193.140625 212.117188 191.296875 213.550781 189.984375 C 216.167969 187.59375 217.613281 183.621094 215.453125 180.417969 C 213.347656 177.300781 209.777344 178.523438 207.367188 180.5 C 206.628906 177.167969 204.53125 174.605469 200.636719 174.953125 C 197.15625 175.257812 195.96875 178.652344 196.386719 181.6875 C 196.925781 185.617188 198.753906 189.097656 201.078125 192.230469 C 199.75 199.070312 198.941406 205.957031 197.097656 212.6875 C 195.746094 217.632812 194.257812 222.550781 192.546875 227.390625 C 191.125 224.605469 189.824219 221.753906 188.976562 218.667969 C 186.84375 210.914062 187.195312 203.441406 187.535156 195.632812 C 189.539062 195.15625 191.394531 194.222656 192.945312 192.746094 C 194.925781 190.863281 197.054688 187.265625 194.273438 185.066406 C 191.9375 183.21875 188.664062 184.386719 186.765625 186.28125 C 186.910156 182.175781 185.425781 178.167969 180.730469 179.867188 C 178.097656 180.824219 177.105469 183.714844 177.410156 186.289062 C 177.757812 189.238281 179.472656 191.632812 181.285156 193.882812 C 179.339844 199.71875 178.914062 206.117188 179.570312 212.5 C 178.648438 211.492188 177.679688 210.539062 176.65625 209.636719 C 174.640625 207.867188 172.234375 205.65625 169.636719 204.269531 C 169.707031 201.734375 169.363281 199.199219 167.824219 197.085938 C 166.34375 195.050781 163.457031 193.820312 161.238281 195.535156 C 158.960938 197.292969 159.199219 200.152344 160.554688 202.570312 C 158.410156 203.320312 157.1875 205.199219 157.679688 207.605469 C 158.117188 209.734375 159.339844 212.191406 161.835938 212.207031 C 163.171875 212.210938 164.527344 211.539062 165.804688 210.734375 C 167.59375 212.183594 169.609375 213.433594 171.363281 214.800781 C 174.535156 217.277344 177.820312 219.714844 180.769531 222.441406 C 181.003906 222.65625 181.265625 222.820312 181.5625 222.933594 C 182.894531 227.726562 184.714844 232.328125 187.027344 236.738281 C 187.785156 238.171875 188.59375 239.242188 189.179688 240.53125 C 189.277344 240.761719 189.398438 240.980469 189.539062 241.191406 C 189.460938 241.273438 189.40625 241.371094 189.375 241.476562 C 189.066406 242.304688 188.851562 243.15625 188.578125 243.929688 C 187.808594 246.085938 186.488281 247.175781 185.160156 248.96875 C 183.964844 250.582031 183.136719 252.019531 181.683594 253.441406 C 180.15625 254.9375 179.167969 256.679688 177.472656 258.109375 C 175.992188 259.351562 174.414062 260.445312 172.738281 261.402344 C 170.238281 262.851562 167.511719 264.234375 164.695312 265.125 C 164.394531 263.496094 164 261.882812 163.738281 260.238281 C 163.230469 257.050781 163.035156 253.816406 162.726562 250.597656 C 162.179688 244.882812 161.5625 239.171875 160.839844 233.472656 C 159.347656 221.734375 157.464844 210.039062 154.8125 198.503906 C 154.542969 197.339844 154.261719 196.183594 153.972656 195.027344 C 154.753906 192.332031 155.515625 189.605469 156.445312 186.988281 C 157.695312 183.480469 158.359375 179.867188 159.882812 176.429688 C 162.457031 170.613281 165.390625 164.820312 168.738281 159.386719 C 171.652344 159.730469 174.867188 160.199219 177.488281 159.054688 C 179.371094 158.230469 182.144531 155.953125 182.214844 153.726562 C 182.300781 151.027344 179.4375 150.726562 177.378906 150.96875 C 176.777344 151.042969 176.1875 151.164062 175.605469 151.324219 C 176.335938 148.992188 176.273438 145.972656 174.285156 144.402344 C 171.769531 142.417969 168.652344 144.148438 167.320312 146.621094 C 166.015625 149.046875 165.699219 151.65625 165.65625 154.3125 C 165.339844 154.667969 165.027344 155.023438 164.710938 155.382812 C 164.59375 154.335938 164.464844 153.292969 164.3125 152.257812 C 163.648438 147.722656 162.695312 143.25 161.449219 138.839844 C 163.832031 138.203125 166.128906 136.738281 167.398438 134.601562 C 168.566406 132.632812 169.417969 129.777344 167.183594 128.222656 C 165.148438 126.808594 163.253906 127.585938 161.648438 129.277344 C 160.890625 126.894531 159.34375 124.894531 157.082031 124.289062 C 153.875 123.433594 151.265625 126.375 151.277344 129.410156 C 151.285156 132.648438 153.246094 135.503906 155.410156 137.808594 C 155.808594 140.625 156.101562 143.472656 156.328125 146.324219 C 156.125 146.160156 155.925781 145.996094 155.738281 145.828125 C 153.554688 143.921875 151.609375 141.796875 149.898438 139.457031 C 149.878906 139.433594 149.855469 139.414062 149.835938 139.386719 C 149.980469 136.179688 150.882812 132.921875 149.980469 129.773438 C 149.324219 127.484375 146.867188 125.894531 144.65625 127.375 C 142.882812 128.558594 142.132812 130.636719 142.144531 132.839844 C 140.46875 132.402344 138.738281 132.730469 137.265625 134.304688 C 135.300781 136.402344 135.851562 139.777344 137.773438 141.691406 C 140.175781 144.085938 143.28125 143.757812 146.363281 144.199219 C 147.644531 146.355469 149.082031 148.398438 150.679688 150.332031 C 152.230469 152.234375 154.398438 154.714844 156.90625 155.53125 C 156.996094 157.355469 157.050781 159.183594 156.949219 161 C 156.855469 162.628906 156.820312 164 157.25 165.273438 C 154.21875 169.964844 151.648438 174.984375 149.753906 180.210938 C 144.589844 164.054688 137.867188 148.515625 130.773438 132.980469 C 127.960938 126.828125 125.21875 120.644531 122.550781 114.441406 C 120.339844 109.332031 117.183594 104.464844 114.203125 99.652344 C 114.679688 98.183594 116.332031 96.511719 116.910156 95.328125 C 117.710938 93.6875 118.007812 92.019531 117.769531 90.210938 C 117.429688 87.605469 115.917969 84.195312 112.875 84.257812 C 109.847656 84.320312 107.761719 87.558594 107.128906 90.210938 C 107.109375 90.296875 107.097656 90.378906 107.078125 90.464844 C 104.78125 89.074219 101.847656 88.828125 99.71875 90.808594 C 97.296875 93.058594 97.941406 96.5625 100.429688 98.453125 C 101.839844 99.523438 103.519531 99.863281 105.171875 100.382812 C 106.324219 100.742188 107.261719 101.105469 108.242188 101.125 C 109.675781 105.355469 111.097656 109.597656 112.707031 113.753906 C 111.609375 113.3125 110.519531 112.882812 109.496094 112.425781 C 104.449219 110.183594 99.480469 106.460938 96.171875 102 C 97.085938 100.167969 97.472656 98.226562 97.335938 96.183594 C 97.167969 93.484375 96.414062 89.941406 93.261719 89.457031 C 90.464844 89.027344 88.238281 91.105469 87.796875 93.773438 C 87.636719 94.765625 87.734375 95.800781 88 96.824219 C 85.179688 96.09375 82.570312 96.703125 81.652344 100.109375 C 80.882812 102.949219 82.496094 105.773438 85.027344 107.042969 C 87.675781 108.371094 90.367188 107.96875 93.027344 107.199219 C 95.664062 110.984375 98.898438 114.148438 102.734375 116.703125 C 105.007812 118.214844 107.5625 119.75 110.046875 120.855469 C 112.894531 122.125 115.242188 124.214844 118.007812 125.523438 C 118.875 127.285156 119.75 129.042969 120.59375 130.800781 C 125.613281 141.21875 130.179688 151.847656 134.597656 162.527344 C 137.4375 169.398438 139.910156 176.382812 142.070312 183.453125 C 141.558594 183.070312 141.050781 182.703125 140.546875 182.347656 C 137.019531 179.835938 133.261719 177.644531 129.445312 175.609375 C 126.652344 174.121094 123.6875 172.980469 120.738281 171.816406 C 120.183594 171.117188 119.554688 170.492188 118.851562 169.941406 C 119.734375 166.078125 118.652344 162.167969 117.101562 158.457031 C 119.390625 156.3125 121.785156 153.441406 122.535156 150.753906 C 123.304688 147.984375 122.636719 143.789062 119.679688 142.507812 C 117.035156 141.359375 114.285156 143.632812 112.664062 145.730469 C 110.9375 143.671875 108.652344 142.519531 106.0625 143.425781 C 102.71875 144.601562 102.609375 148.363281 103.785156 151.1875 C 105.027344 154.171875 107.386719 156.019531 110.058594 157.496094 C 110.503906 160.148438 110.667969 162.863281 111.085938 165.503906 C 107.671875 163.898438 104.035156 162.84375 100.765625 160.917969 C 101.03125 155.648438 100.488281 143.519531 92.917969 147.394531 C 90.230469 148.769531 88.925781 151.972656 89.410156 154.863281 C 89.539062 155.636719 89.765625 156.378906 90.097656 157.089844 C 89.511719 157.238281 88.953125 157.464844 88.425781 157.769531 C 85.921875 159.214844 84.171875 162.265625 84.238281 165.164062 C 84.425781 173.257812 93.964844 169.007812 98.90625 166.570312 C 101.453125 168.5 104.230469 169.960938 107.148438 171.4375 C 108.765625 172.257812 110.449219 172.789062 112.023438 173.652344 C 112.082031 173.710938 112.132812 173.769531 112.199219 173.820312 C 115.65625 176.574219 119.226562 179.339844 122.988281 181.660156 C 126.652344 183.917969 130.589844 185.664062 134.171875 188.078125 C 137.015625 189.996094 139.546875 192.613281 141.601562 194.589844 C 143.753906 196.65625 145.136719 199.164062 146.882812 201.515625 C 148.957031 210.546875 150.601562 219.683594 151.890625 228.894531 C 152.160156 230.800781 152.410156 232.710938 152.644531 234.625 C 152.058594 234.183594 151.484375 233.730469 150.925781 233.292969 C 148.28125 231.230469 145.769531 229.019531 143.386719 226.660156 C 139.511719 222.839844 135.699219 218.976562 132.265625 214.769531 C 134.308594 209.203125 135 196.457031 126.410156 198.078125 C 123.074219 198.707031 121.226562 202.136719 121.207031 205.300781 C 121.207031 206.542969 121.464844 207.726562 121.976562 208.855469 C 119.226562 209.035156 116.546875 210.769531 115.742188 213.496094 C 114.945312 216.195312 116.226562 219.21875 118.851562 220.328125 C 121.882812 221.605469 124.5625 219.539062 127.347656 218.40625 C 130.117188 223.304688 133.320312 227.996094 137.242188 232.015625 C 139.707031 234.550781 142.316406 236.929688 145.066406 239.148438 C 146.5 240.308594 148.015625 241.363281 149.449219 242.515625 C 150.96875 243.742188 152.015625 245.226562 153.695312 246.285156 C 153.789062 246.34375 153.882812 246.390625 153.976562 246.445312 C 154.050781 247.195312 154.132812 247.945312 154.207031 248.695312 C 154.519531 251.867188 154.875 255.046875 155.082031 258.226562 C 155.234375 260.585938 154.972656 262.984375 154.925781 265.351562 C 141.40625 261.84375 128.984375 254.296875 118.210938 245.351562 C 116.328125 243.785156 114.460938 242.1875 112.648438 240.539062 C 110.820312 238.875 109.367188 236.84375 107.589844 235.183594 C 105.628906 233.355469 103.554688 231.742188 101.636719 229.828125 C 100.949219 229.148438 100.269531 228.46875 99.585938 227.789062 C 99.546875 227.691406 99.507812 227.59375 99.457031 227.496094 C 95.933594 220.367188 95.8125 212.015625 94.503906 204.300781 C 93.457031 198.125 91.398438 192.09375 87.714844 187.046875 C 87.695312 186.953125 87.671875 186.859375 87.652344 186.761719 C 88.632812 184.734375 88.730469 182.445312 88.03125 180.257812 C 87.328125 178.042969 85.570312 175.265625 82.847656 175.898438 C 80.695312 176.402344 79.480469 178.5625 79.304688 180.664062 C 76.882812 180.816406 75.046875 182.925781 74.824219 185.28125 C 74.578125 187.839844 75.875 190.476562 78.339844 191.421875 C 80.230469 192.144531 81.71875 191.710938 83.277344 191.105469 C 85.863281 196.714844 86.367188 203.066406 86.9375 209.214844 C 87.160156 211.625 87.445312 214.023438 87.855469 216.390625 C 83.3125 212.160156 78.679688 208.023438 74.054688 203.871094 C 74.050781 200.753906 74.429688 197.640625 72.707031 194.820312 C 71.425781 192.722656 68.851562 191.761719 66.746094 193.355469 C 64.675781 194.925781 64.664062 197.804688 65.398438 200.074219 C 65.460938 200.265625 65.539062 200.4375 65.609375 200.617188 C 65.070312 200.699219 64.550781 200.847656 64.046875 201.066406 C 61.554688 202.160156 60.140625 204.761719 60.851562 207.453125 C 61.527344 210.015625 63.847656 211.589844 66.460938 211.578125 C 68.410156 211.570312 70.066406 210.726562 71.425781 209.488281 C 77.949219 217.191406 84.410156 224.972656 91.570312 232.0625 C 95.296875 235.753906 98.734375 240.089844 102.855469 243.28125 C 107.082031 246.554688 110.949219 250.273438 115.167969 253.566406 C 129.621094 264.847656 146.625 273.589844 165.007812 275.007812 C 169.660156 275.644531 174.273438 276.113281 178.976562 275.785156 C 184.332031 275.410156 189.632812 274.769531 194.9375 273.960938 C 197.015625 273.644531 199.09375 273.324219 201.171875 272.996094 C 202.972656 275.410156 206.542969 276.519531 209.144531 277.941406 C 211.625 279.300781 214.050781 280.757812 216.472656 282.222656 C 216.699219 284.058594 217.035156 285.917969 217.878906 287.53125 C 218.878906 289.445312 221.246094 290.804688 223.246094 289.398438 C 225.140625 288.0625 225.28125 286.039062 224.507812 284.140625 C 224.761719 284.125 225.015625 284.085938 225.261719 284.027344 C 227.386719 283.511719 228.355469 281.476562 227.726562 279.4375 C 226.632812 275.875 222.277344 275.71875 219.1875 277.164062 C 217.097656 275.46875 215.019531 273.757812 212.988281 271.984375 C 212.707031 271.742188 212.421875 271.496094 212.136719 271.253906 C 215.988281 270.632812 219.84375 270.015625 223.695312 269.394531 C 224.410156 270.628906 225.382812 271.699219 226.695312 272.328125 C 228.714844 273.296875 231.535156 273.242188 233.261719 271.675781 C 235.230469 269.890625 234.375 267.101562 232.285156 265.84375 C 232.027344 265.691406 231.757812 265.550781 231.484375 265.425781 C 233.839844 263.695312 235.226562 261 233.460938 258.46875 C 231.953125 256.308594 229.070312 255.914062 226.816406 257.074219 C 224.585938 258.222656 223.628906 260.320312 222.949219 262.554688 C 207.867188 264.550781 192.757812 266.722656 177.621094 268.339844 C 180.023438 266.90625 182.238281 265.226562 184.265625 263.296875 C 186.035156 261.632812 187.617188 260.402344 189.113281 258.492188 C 190.425781 256.8125 192.144531 255.632812 193.398438 253.910156 C 202.835938 253.75 211.28125 250.558594 220.175781 247.429688 C 228.589844 244.46875 236.945312 241.34375 245.109375 237.746094 C 246.578125 237.097656 248.015625 236.417969 249.433594 235.71875 C 250.277344 236 251.140625 236.074219 252.019531 235.9375 C 257.035156 235.25 262.632812 235.09375 267.675781 235.566406 C 271.75 235.949219 275.625 237.039062 279.632812 237.40625 C 279.867188 240.503906 280.191406 243.570312 282.117188 246.1875 C 284.152344 248.957031 287.800781 250.496094 291.105469 249.078125 C 294.125 247.777344 295.109375 244.648438 293.585938 241.792969 C 292.9375 240.601562 292.105469 239.550781 291.097656 238.640625 C 293.957031 237.777344 297.042969 235.703125 296.804688 232.363281 C 296.570312 229.015625 293.289062 227 290.175781 227.070312 C 287.136719 227.140625 284.375 228.585938 282.082031 230.519531 C 277.457031 228.789062 272.628906 228.585938 267.675781 228.015625 C 266.253906 227.851562 264.84375 227.707031 263.441406 227.582031 C 264.914062 226.589844 266.378906 225.570312 267.835938 224.507812 C 273.425781 220.425781 279.792969 215.566406 284.261719 209.863281 C 285.703125 210.878906 287.304688 211.339844 289.0625 211.25 C 291.914062 211.128906 295.046875 209.460938 296.359375 206.839844 C 297.773438 204.019531 295.792969 201.5 292.894531 201.207031 C 291.191406 201.03125 289.328125 201.3125 287.535156 201.867188 C 288.765625 199.847656 289.511719 197.542969 289.164062 195.207031 C 288.742188 192.371094 286.46875 189.894531 283.5 189.734375 C 280.535156 189.574219 278.402344 191.824219 277.828125 194.59375 C 277.183594 197.714844 278.324219 200.585938 279.816406 203.242188 C 277.21875 205.75 274.863281 208.527344 272.117188 210.902344 C 269.15625 213.453125 266.039062 215.796875 262.769531 217.9375 C 260.964844 219.128906 259.105469 220.257812 257.207031 221.34375 C 257.230469 221.042969 257.257812 220.746094 257.300781 220.449219 C 257.636719 218.085938 258.539062 215.648438 259.132812 213.339844 C 260.355469 208.597656 261.578125 203.859375 262.800781 199.121094 C 264.324219 193.222656 265.886719 187.34375 267.488281 181.480469 C 274.070312 174.777344 280.152344 167.574219 286.628906 160.808594 C 290.042969 157.246094 293.550781 153.765625 297.121094 150.328125 C 298.757812 148.757812 300.378906 147.171875 302.003906 145.601562 C 302.363281 145.257812 302.730469 144.933594 303.097656 144.617188 C 307.09375 146.972656 312.917969 145.417969 314.152344 140.347656 C 314.851562 137.46875 312.726562 135.183594 309.839844 135.433594 Z M 309.839844 135.433594 " fill-opacity="1" fill-rule="nonzero"/></g></svg>