<svg xmlns="http://www.w3.org/2000/svg" xmlns:xlink="http://www.w3.org/1999/xlink" width="500" zoomAndPan="magnify" viewBox="0 0 375 374.999991" height="500" preserveAspectRatio="xMidYMid meet" version="1.0"><defs><clipPath id="5942b7060d"><path d="M 187.5 0 C 83.945312 0 0 83.945312 0 187.5 C 0 291.054688 83.945312 375 187.5 375 C 291.054688 375 375 291.054688 375 187.5 C 375 83.945312 291.054688 0 187.5 0 Z M 187.5 0 " clip-rule="nonzero"/></clipPath><clipPath id="26de334a0b"><path d="M 45 103 L 337 103 L 337 273.695312 L 45 273.695312 Z M 45 103 " clip-rule="nonzero"/></clipPath></defs><g clip-path="url(#5942b7060d)"><rect x="-37.5" width="450" fill="#58a39d" y="-37.499999" height="449.999989" fill-opacity="1"/></g><path fill="#ffffff" d="M 316.484375 212.355469 C 317.835938 212.355469 318.929688 211.257812 318.929688 209.910156 C 318.929688 208.558594 317.835938 207.460938 316.484375 207.460938 C 315.132812 207.460938 314.039062 208.558594 314.039062 209.910156 C 314.039062 211.257812 315.132812 212.355469 316.484375 212.355469 " fill-opacity="1" fill-rule="nonzero"/><g clip-path="url(#26de334a0b)"><path fill="#ffffff" d="M 320.957031 240.917969 C 320.769531 240.917969 320.582031 240.910156 320.394531 240.910156 C 321.378906 238.378906 323.0625 236.433594 325.011719 235.703125 C 326.757812 235.042969 328.597656 235.363281 330.492188 236.648438 C 330.414062 236.804688 330.335938 236.964844 330.253906 237.128906 C 329.785156 238.070312 328.359375 240.917969 320.957031 240.917969 Z M 296.089844 233.496094 C 294.824219 232.71875 293.394531 231.835938 291.710938 231.402344 C 289.710938 230.886719 287.730469 231.089844 285.976562 231.265625 C 285.679688 231.292969 285.375 231.324219 285.078125 231.351562 C 279.746094 231.820312 274.179688 230.585938 268.976562 227.769531 C 264.097656 225.136719 259.632812 221.207031 256.0625 216.410156 C 254.9375 212.75 254.050781 209.234375 253.421875 205.917969 C 253.1875 204.683594 251.992188 203.871094 250.757812 204.105469 C 249.523438 204.34375 248.714844 205.53125 248.949219 206.765625 C 249.925781 211.90625 251.472656 217.472656 253.550781 223.308594 C 258.089844 236.074219 264.898438 249.371094 272.222656 259.792969 C 273.773438 262.003906 276.207031 263.355469 278.898438 263.515625 L 285.773438 264.0625 C 287.957031 264.242188 289.667969 266.101562 289.667969 268.296875 C 289.667969 268.789062 289.269531 269.191406 288.773438 269.191406 L 261.09375 269.191406 C 259.496094 269.191406 258.046875 268.308594 257.316406 266.882812 C 252.125 256.757812 244.441406 246.28125 234.476562 235.738281 C 226.128906 226.90625 216.382812 218.277344 206.277344 210.777344 C 202.890625 208.261719 187.5625 208.601562 179.035156 209.199219 C 170.242188 209.8125 153.945312 211.597656 139.527344 216.667969 C 141.96875 210.160156 144.4375 203.433594 143.960938 196.222656 C 143.875 194.972656 142.792969 194.023438 141.539062 194.101562 C 140.285156 194.1875 139.335938 195.269531 139.417969 196.523438 C 139.835938 202.886719 137.554688 208.976562 135.132812 215.421875 C 134.609375 216.820312 134.070312 218.265625 133.558594 219.703125 C 132.296875 223.277344 130.953125 227.550781 130.558594 232.132812 C 129.71875 241.890625 132.246094 251.78125 137.863281 260.726562 C 138.785156 262.191406 140.371094 263.152344 142.101562 263.296875 L 151.472656 264.0625 C 153.65625 264.242188 155.371094 266.101562 155.371094 268.296875 C 155.371094 268.789062 154.96875 269.191406 154.472656 269.191406 L 127.230469 269.191406 C 125.574219 269.191406 124.0625 268.222656 123.375 266.726562 C 119.800781 258.933594 115.371094 249.90625 109.632812 242.023438 C 106.824219 238.167969 103.886719 234.84375 100.789062 232.003906 C 100.785156 232 100.777344 231.996094 100.773438 231.988281 C 96.988281 228.527344 92.957031 225.792969 88.621094 223.742188 C 84.402344 221.75 79.933594 220.457031 75.609375 219.207031 C 72.742188 218.375 69.777344 217.515625 66.980469 216.472656 C 65.460938 215.90625 63.816406 215.203125 62.175781 214.347656 C 61.816406 213.921875 61.304688 213.636719 60.738281 213.5625 C 56.839844 211.292969 53.140625 208.105469 51.316406 203.707031 C 50.011719 200.574219 49.621094 196.71875 50.113281 191.929688 C 51.769531 175.917969 58.28125 153.4375 67.089844 143.320312 C 75.09375 134.125 84.898438 126.558594 96.226562 120.824219 C 106.8125 115.46875 118.746094 111.699219 131.699219 109.617188 C 155.449219 105.800781 182.714844 107.835938 208.484375 115.339844 C 219.957031 118.683594 227.648438 122.769531 235.800781 127.09375 C 242.921875 130.875 250.269531 134.773438 260.3125 138.140625 C 259.332031 141.242188 258.824219 144.550781 258.824219 147.890625 C 258.824219 149.148438 259.839844 150.167969 261.097656 150.167969 C 261.101562 150.167969 261.101562 150.167969 261.101562 150.167969 C 262.355469 150.167969 263.375 149.148438 263.375 147.890625 C 263.375 143.972656 264.164062 140.5 265.332031 137.605469 C 265.335938 137.601562 265.335938 137.601562 265.335938 137.597656 C 266.578125 134.519531 268.25 132.097656 269.867188 130.488281 C 271.367188 129.003906 272.414062 128.625 272.710938 128.585938 C 273.28125 128.859375 274.8125 130.277344 276.667969 133.175781 C 277.097656 133.847656 277.542969 134.601562 278 135.433594 C 281.238281 141.355469 283.09375 148.125 283.089844 154.007812 C 283.089844 155.265625 284.109375 156.285156 285.363281 156.285156 C 286.625 156.285156 287.640625 155.265625 287.640625 154.007812 C 287.644531 144.941406 284.105469 137.113281 281.992188 133.25 C 281.8125 132.914062 281.542969 132.4375 281.210938 131.882812 C 285.085938 125.96875 287.652344 124.742188 288.496094 124.953125 C 290.636719 125.496094 299.308594 133.730469 299.304688 146.492188 C 299.304688 146.941406 299.4375 147.378906 299.6875 147.753906 C 303.09375 152.863281 306.484375 157.457031 309.769531 161.898438 C 316.261719 170.695312 322.398438 179.003906 327.519531 189.828125 C 329.308594 193.617188 329.84375 203.457031 330.234375 210.640625 C 330.398438 213.675781 330.539062 216.296875 330.75 218.164062 C 331.011719 220.503906 331.292969 222.429688 331.542969 224.132812 C 332.0625 227.71875 332.382812 229.933594 331.996094 232.234375 C 329.175781 230.679688 326.191406 230.390625 323.410156 231.4375 C 319.855469 232.777344 317.007812 236.199219 315.6875 240.585938 C 312.9375 240.242188 310.195312 239.636719 307.488281 238.777344 C 307.472656 238.753906 307.460938 238.734375 307.445312 238.710938 C 305.582031 236.011719 303.984375 233.121094 302.695312 230.109375 C 302.199219 228.957031 300.859375 228.417969 299.707031 228.914062 C 298.550781 229.410156 298.015625 230.75 298.511719 231.902344 C 299.09375 233.265625 299.738281 234.605469 300.433594 235.914062 C 299.121094 235.261719 297.820312 234.554688 296.546875 233.777344 Z M 202.625 247.089844 L 202.28125 247.3125 C 197.925781 250.144531 194.160156 252.59375 191.242188 257.578125 C 190.847656 258.253906 190.824219 259.085938 191.1875 259.777344 C 191.546875 260.472656 192.238281 260.933594 193.019531 261 L 202.730469 261.792969 C 204.917969 261.972656 206.628906 263.832031 206.628906 266.023438 C 206.628906 266.519531 206.226562 266.921875 205.730469 266.921875 L 172.253906 266.921875 C 172.015625 266.921875 171.765625 266.820312 171.550781 266.632812 C 170.101562 265.371094 170.921875 261.984375 171.863281 259.363281 C 173.3125 255.328125 175.941406 250.578125 178.261719 246.394531 C 180.65625 242.074219 182.722656 238.34375 183.289062 235.828125 C 184.621094 229.878906 185.339844 220.742188 183.292969 213.503906 C 195.175781 212.929688 202.375 213.789062 203.59375 214.457031 C 208.941406 218.429688 213.773438 222.367188 218.136719 226.214844 C 215.027344 236.082031 210.804688 241.757812 202.625 247.089844 Z M 72.53125 256.441406 C 71.757812 256.992188 71.410156 257.964844 71.65625 258.882812 C 71.902344 259.800781 72.695312 260.464844 73.640625 260.554688 L 86.652344 261.792969 C 88.835938 261.972656 90.550781 263.832031 90.550781 266.023438 C 90.550781 266.519531 90.148438 266.921875 89.652344 266.921875 L 59.097656 266.921875 C 58.726562 266.921875 58.390625 266.714844 58.21875 266.390625 C 55.929688 262.015625 57.847656 257.332031 59.539062 253.203125 C 60.0625 251.925781 60.554688 250.722656 60.90625 249.574219 C 63.882812 239.84375 64.71875 229.902344 63.417969 219.953125 C 64.089844 220.238281 64.75 220.5 65.390625 220.738281 C 68.347656 221.839844 71.394531 222.722656 74.34375 223.578125 C 78.683594 224.835938 82.789062 226.023438 86.675781 227.859375 C 90.195312 229.523438 93.375 231.636719 96.273438 234.082031 C 89.800781 244.070312 82.828125 249.066406 72.53125 256.441406 Z M 336.046875 223.480469 C 335.800781 221.808594 335.53125 219.921875 335.273438 217.65625 C 335.082031 215.917969 334.941406 213.359375 334.78125 210.394531 C 334.347656 202.414062 333.808594 192.480469 331.636719 187.882812 C 326.324219 176.652344 320.058594 168.171875 313.429688 159.195312 C 310.300781 154.960938 307.070312 150.589844 303.847656 145.789062 C 303.6875 138.113281 300.859375 132.222656 298.476562 128.59375 C 295.738281 124.421875 292.175781 121.1875 289.609375 120.542969 C 286.191406 119.679688 282.523438 122.078125 278.441406 127.855469 C 277.035156 126.105469 275.390625 124.558594 273.796875 124.152344 C 272.144531 123.734375 270.179688 124.363281 268.125 125.960938 C 265.800781 127.773438 263.640625 130.585938 262.007812 133.90625 C 252.183594 130.640625 244.949219 126.796875 237.9375 123.074219 C 229.941406 118.828125 221.675781 114.445312 209.757812 110.972656 C 183.355469 103.28125 155.378906 101.199219 130.980469 105.121094 C 117.558594 107.277344 105.175781 111.191406 94.171875 116.757812 C 82.316406 122.757812 72.046875 130.6875 63.65625 140.328125 C 53.011719 152.5625 47.015625 177.609375 45.585938 191.460938 C 45.011719 197.023438 45.511719 201.601562 47.109375 205.457031 C 49.382812 210.929688 53.816406 214.789062 58.421875 217.476562 C 60.265625 227.796875 59.640625 238.140625 56.550781 248.242188 C 56.261719 249.1875 55.808594 250.300781 55.328125 251.472656 C 53.464844 256.023438 50.910156 262.253906 54.1875 268.5 C 55.148438 270.335938 57.027344 271.476562 59.097656 271.476562 L 89.652344 271.476562 C 91.335938 271.476562 92.839844 270.707031 93.839844 269.503906 C 94.097656 269.71875 94.324219 269.96875 94.496094 270.25 C 94.925781 270.949219 95.671875 271.339844 96.4375 271.339844 C 96.84375 271.339844 97.253906 271.230469 97.625 271.003906 C 98.699219 270.351562 99.035156 268.949219 98.378906 267.875 C 97.589844 266.578125 96.410156 265.546875 95.03125 264.917969 C 94.507812 260.867188 91.183594 257.597656 87.054688 257.257812 L 80.09375 256.597656 C 87.828125 250.929688 93.976562 245.769531 99.660156 237.222656 C 108.308594 245.949219 114.226562 257.695312 119.238281 268.621094 C 120.664062 271.734375 123.800781 273.742188 127.230469 273.742188 L 154.472656 273.742188 C 156.160156 273.742188 157.671875 272.972656 158.671875 271.765625 C 158.886719 271.957031 159.074219 272.179688 159.222656 272.421875 C 159.652344 273.125 160.402344 273.511719 161.167969 273.511719 C 161.574219 273.511719 161.984375 273.402344 162.351562 273.175781 C 163.425781 272.519531 163.765625 271.121094 163.109375 270.046875 C 162.332031 268.78125 161.183594 267.765625 159.84375 267.132812 C 159.296875 263.109375 155.980469 259.867188 151.84375 259.527344 L 142.476562 258.757812 C 142.164062 258.734375 141.882812 258.5625 141.71875 258.304688 C 136.632812 250.203125 134.339844 241.289062 135.09375 232.519531 C 135.410156 228.851562 136.449219 225.300781 137.507812 222.214844 C 137.6875 222.191406 137.867188 222.148438 138.042969 222.078125 C 152.316406 216.433594 169.519531 214.46875 178.621094 213.792969 C 180.664062 219.890625 180.222656 228.695312 178.84375 234.832031 C 178.425781 236.710938 176.414062 240.339844 174.28125 244.1875 C 168.871094 253.949219 162.742188 265.011719 168.5625 270.066406 C 169.605469 270.976562 170.917969 271.476562 172.253906 271.476562 L 205.730469 271.476562 C 207.359375 271.476562 208.820312 270.753906 209.824219 269.613281 C 210.046875 269.816406 210.246094 270.042969 210.398438 270.296875 C 210.828125 271 211.578125 271.386719 212.34375 271.386719 C 212.75 271.386719 213.15625 271.277344 213.527344 271.050781 C 214.597656 270.394531 214.9375 268.996094 214.285156 267.921875 C 213.53125 266.6875 212.421875 265.695312 211.125 265.058594 C 210.667969 260.945312 207.308594 257.601562 203.101562 257.257812 L 197.429688 256.792969 C 199.410156 254.609375 201.796875 253.058594 204.761719 251.125 L 205.109375 250.902344 C 213.605469 245.363281 218.4375 239.25 221.824219 229.550781 C 240.761719 247.097656 249.835938 262.273438 253.265625 268.960938 C 254.78125 271.914062 257.777344 273.742188 261.09375 273.742188 L 288.773438 273.742188 C 290.394531 273.742188 291.847656 273.03125 292.847656 271.902344 C 293.152344 272.128906 293.410156 272.40625 293.601562 272.722656 C 294.035156 273.429688 294.78125 273.816406 295.546875 273.816406 C 295.953125 273.816406 296.363281 273.707031 296.730469 273.480469 C 297.808594 272.824219 298.144531 271.425781 297.488281 270.351562 C 296.703125 269.070312 295.539062 268.046875 294.175781 267.410156 C 293.753906 263.261719 290.375 259.875 286.140625 259.527344 L 279.234375 258.976562 C 279.21875 258.976562 279.203125 258.972656 279.183594 258.972656 C 277.878906 258.902344 276.699219 258.246094 275.949219 257.175781 C 269.835938 248.484375 264.105469 237.722656 259.8125 226.992188 C 262.015625 228.84375 264.367188 230.457031 266.8125 231.777344 C 272.804688 235.015625 279.257812 236.433594 285.476562 235.886719 C 285.796875 235.859375 286.117188 235.824219 286.433594 235.792969 C 287.9375 235.640625 289.359375 235.496094 290.570312 235.808594 C 291.59375 236.074219 292.617188 236.707031 293.703125 237.371094 L 294.179688 237.664062 C 302.570312 242.773438 311.832031 245.46875 320.957031 245.46875 C 327.734375 245.46875 332.234375 243.347656 334.324219 239.167969 C 337.425781 232.964844 336.933594 229.59375 336.046875 223.480469 " fill-opacity="1" fill-rule="nonzero"/></g></svg>