<svg xmlns="http://www.w3.org/2000/svg" xmlns:xlink="http://www.w3.org/1999/xlink" width="500" zoomAndPan="magnify" viewBox="0 0 375 374.999991" height="500" preserveAspectRatio="xMidYMid meet" version="1.0"><defs><clipPath id="acdb8d7e33"><path d="M 187.5 0 C 83.945312 0 0 83.945312 0 187.5 C 0 291.054688 83.945312 375 187.5 375 C 291.054688 375 375 291.054688 375 187.5 C 375 83.945312 291.054688 0 187.5 0 Z M 187.5 0 " clip-rule="nonzero"/></clipPath><clipPath id="a681e87dc4"><path d="M 60 52.089844 L 333 52.089844 L 333 322.839844 L 60 322.839844 Z M 60 52.089844 " clip-rule="nonzero"/></clipPath></defs><g clip-path="url(#acdb8d7e33)"><rect x="-37.5" width="450" fill="#58a39d" y="-37.499999" height="449.999989" fill-opacity="1"/></g><g clip-path="url(#a681e87dc4)"><path fill="#fffff9" d="M 332.054688 178.082031 C 331.023438 173.664062 329.035156 170.742188 326.148438 169.40625 C 326.128906 169.398438 326.109375 169.394531 326.089844 169.390625 C 326.015625 169.390625 325.941406 169.382812 325.871094 169.382812 C 325.089844 169.382812 324.433594 169.667969 323.898438 170.238281 C 322.910156 171.234375 322.472656 172.890625 322.480469 174.085938 C 322.480469 175.144531 322.703125 176.261719 322.921875 177.351562 C 323.042969 177.9375 323.152344 178.488281 323.234375 179.039062 C 324.179688 184.261719 324.320312 188.746094 323.640625 192.359375 C 322.71875 197.308594 320.277344 200.675781 316.378906 202.378906 C 315.09375 201.503906 315.03125 199.464844 314.96875 197.308594 C 314.910156 195.40625 314.847656 193.429688 313.925781 192.109375 C 313.015625 190.574219 311.984375 190.25 311.277344 190.25 C 309.339844 190.25 307.664062 192.53125 307.316406 194.648438 C 306.773438 196.699219 306.6875 198.914062 306.601562 201.054688 C 306.53125 202.683594 306.464844 204.371094 306.191406 205.960938 C 304.585938 214.949219 299.074219 223.246094 289.351562 231.324219 C 282.945312 222.917969 284.632812 215.238281 285.867188 209.625 C 286.699219 205.832031 287.359375 202.828125 285.195312 201.082031 C 286.859375 197.949219 290.210938 195.335938 293.457031 192.804688 C 294.859375 191.710938 296.1875 190.675781 297.316406 189.640625 C 302.53125 185.226562 307.878906 178.214844 311.984375 170.40625 C 316.285156 162.230469 318.800781 154.082031 319.066406 147.460938 C 319.066406 147.433594 319.0625 147.410156 319.050781 147.382812 C 318.300781 145.78125 317.308594 144.96875 316.101562 144.96875 C 313.136719 144.96875 309.8125 149.925781 308.992188 152.621094 C 308.566406 153.886719 308.152344 155.152344 307.753906 156.375 C 304.9375 165.042969 302.269531 173.238281 294.25 179.25 C 298.613281 166.9375 303.207031 152.371094 304.578125 137.269531 C 304.582031 137.253906 304.582031 137.234375 304.578125 137.21875 C 304.195312 135.535156 306.300781 134.140625 309.210938 132.210938 C 312.945312 129.738281 318.054688 126.347656 320.191406 120.378906 C 320.632812 119.40625 321.65625 116.863281 321.617188 114.273438 C 321.585938 111.8125 320.566406 110.046875 318.679688 109.171875 C 318.667969 109.167969 318.65625 109.164062 318.644531 109.164062 C 318.289062 109.078125 317.929688 109.03125 317.566406 109.027344 C 315.457031 109.027344 315.046875 110.835938 314.480469 113.34375 C 313.65625 117 312.410156 122.515625 304.789062 126.601562 C 305.144531 122.648438 306.429688 118.800781 307.671875 115.078125 C 309.300781 110.1875 310.992188 105.128906 310.566406 99.828125 C 310.59375 98.039062 310.179688 90.828125 307.671875 88.285156 C 307.09375 87.699219 306.441406 87.402344 305.730469 87.402344 C 305.136719 87.402344 304.492188 87.613281 303.820312 88.03125 C 303.804688 88.039062 303.792969 88.046875 303.785156 88.058594 C 301.746094 90.300781 301.464844 93.292969 301.203125 96.1875 C 301.054688 97.78125 300.90625 99.425781 300.464844 100.886719 C 300.082031 101.835938 299.691406 102.78125 299.304688 103.726562 C 296.449219 110.683594 293.746094 117.261719 293.414062 124.78125 C 292.203125 123.085938 291.332031 121.539062 290.695312 119.945312 C 290.3125 118.984375 290.015625 117.855469 289.710938 116.664062 C 289.074219 114.191406 288.410156 111.636719 286.804688 110.074219 C 286.144531 109.488281 285.464844 109.1875 284.78125 109.1875 C 282.167969 109.1875 280.335938 113.492188 280.246094 115.742188 C 280.027344 122.675781 284.039062 130.710938 287.265625 137.164062 C 287.777344 138.1875 288.257812 139.148438 288.722656 140.101562 C 288.886719 140.375 289.0625 140.722656 289.246094 141.085938 C 289.976562 142.511719 290.886719 144.285156 292.328125 144.285156 C 292.753906 144.273438 293.144531 144.148438 293.5 143.910156 C 293.542969 143.882812 293.566406 143.847656 293.574219 143.800781 C 294.332031 139.757812 294.683594 135.527344 295.023438 131.429688 C 295.691406 123.453125 296.382812 115.199219 300.082031 107.867188 C 301.714844 104.4375 303.210938 101.050781 303.5 97.292969 C 303.535156 96.976562 303.566406 96.589844 303.601562 96.144531 C 303.761719 94.089844 304.03125 90.675781 305.414062 89.722656 C 307.96875 90.539062 308.175781 96.941406 308.277344 100.035156 C 308.292969 100.464844 308.304688 100.851562 308.320312 101.160156 C 308.574219 105.019531 307.289062 108.699219 306.046875 112.261719 C 305.800781 112.964844 305.542969 113.691406 305.304688 114.410156 C 304.28125 117.65625 303.441406 120.949219 302.785156 124.289062 C 302.378906 126.398438 301.914062 129.167969 301.9375 131.914062 C 301.960938 132.261719 301.992188 132.605469 302.019531 132.953125 C 302.234375 135.539062 302.453125 138.207031 302.007812 140.839844 C 300.152344 152.863281 296.183594 167.738281 291.65625 179.671875 C 291.542969 179.972656 291.410156 180.265625 291.261719 180.550781 C 290.726562 181.640625 290 183.121094 290.828125 183.765625 C 291.035156 183.902344 291.261719 183.972656 291.507812 183.976562 C 292.085938 183.976562 292.570312 183.539062 293.003906 183.152344 L 293.1875 182.988281 C 297.382812 179.773438 302.054688 175.765625 304.898438 170.402344 C 306.738281 167.496094 307.742188 163.980469 308.714844 160.578125 C 309.976562 156.152344 311.285156 151.574219 314.453125 148.335938 C 315.175781 147.792969 315.742188 147.519531 316.148438 147.519531 C 316.371094 147.515625 316.539062 147.613281 316.652344 147.804688 C 318.128906 150.101562 312.507812 163.875 311.652344 165.757812 C 306.027344 178.859375 299.183594 184.816406 289.710938 193.0625 C 288.230469 194.351562 286.699219 195.683594 285.101562 197.105469 L 285.089844 197.117188 C 283.800781 198.613281 282.855469 200.425781 281.9375 202.175781 C 281.269531 203.449219 280.578125 204.769531 279.761719 205.949219 C 278.449219 207.851562 276.964844 209.6875 275.53125 211.460938 C 274.007812 213.34375 272.433594 215.289062 271.042969 217.328125 C 268.1875 221.707031 263.160156 231.132812 259.105469 238.707031 C 257.054688 242.542969 255.28125 245.863281 253.996094 248.15625 C 250.183594 248.445312 249.871094 250.996094 249.539062 253.695312 C 249.332031 255.386719 249.117188 257.132812 248.019531 258.433594 C 247.640625 258.878906 247.015625 259.324219 246.488281 259.324219 C 246.207031 259.328125 245.980469 259.214844 245.808594 258.988281 C 245.390625 258.058594 245.570312 256.902344 245.761719 255.675781 C 245.921875 254.652344 246.085938 253.59375 245.875 252.640625 C 245.300781 250.378906 243.761719 248.914062 241.957031 248.914062 C 240.683594 248.914062 239.464844 249.65625 238.515625 251.003906 C 238.382812 250.867188 238.285156 250.707031 238.21875 250.53125 L 238.207031 250.503906 C 240.503906 245.851562 244.605469 240.207031 248.222656 235.222656 C 249.835938 233.007812 251.351562 230.914062 252.644531 229.015625 L 252.925781 228.589844 C 254.453125 226.28125 256.1875 223.660156 256.65625 220.933594 C 257.140625 219.230469 256.277344 217.769531 255.445312 216.355469 C 255.265625 216.046875 255.074219 215.722656 254.902344 215.40625 C 243.078125 195.484375 238.84375 172.796875 242.980469 151.515625 C 243.066406 151.125 243.148438 150.71875 243.230469 150.304688 C 243.765625 147.628906 244.371094 144.597656 246.402344 142.804688 C 246.496094 142.773438 246.59375 142.757812 246.695312 142.757812 C 246.902344 142.753906 247.078125 142.832031 247.214844 142.992188 C 247.910156 143.738281 247.804688 145.980469 247.757812 146.644531 C 247.285156 149.941406 245.566406 168.867188 249.390625 173.273438 C 249.933594 173.894531 250.566406 174.210938 251.285156 174.210938 C 252.195312 174.210938 253.25 173.691406 254.421875 172.652344 C 258.375 168.539062 260.992188 163.367188 261.609375 158.46875 C 261.65625 158.15625 261.691406 157.742188 261.726562 157.265625 C 261.851562 155.753906 262.039062 153.480469 262.816406 152.84375 C 264.699219 153.082031 264.542969 156.652344 264.4375 159.027344 C 264.40625 159.722656 264.378906 160.324219 264.40625 160.742188 C 264.21875 162.085938 264.367188 163.015625 264.867188 163.597656 C 265.246094 164.035156 265.808594 164.25 266.585938 164.25 C 267.8125 164.25 269.335938 163.722656 270.8125 163.214844 C 272.058594 162.785156 273.230469 162.382812 274.007812 162.382812 C 274.082031 162.378906 274.15625 162.386719 274.234375 162.394531 C 272.484375 164.121094 269.582031 166.910156 266.515625 169.863281 C 261.453125 174.722656 255.714844 180.25 253.035156 183.011719 C 253.027344 183.019531 253.023438 183.027344 253.019531 183.035156 C 250.328125 187 252.441406 191.96875 254.304688 196.347656 C 254.847656 197.625 255.359375 198.828125 255.730469 199.953125 C 255.734375 199.960938 255.738281 199.96875 255.746094 199.980469 C 256.0625 200.554688 256.527344 201.8125 257.0625 203.265625 C 258.605469 207.464844 260.722656 213.210938 262.976562 213.210938 C 263.195312 213.207031 263.402344 213.15625 263.597656 213.058594 C 265.675781 212.21875 267.015625 209.394531 267.945312 207.039062 C 270.210938 201.871094 269.886719 196.164062 269.199219 190.761719 C 269.136719 185.160156 268.148438 177.746094 266.789062 172.683594 C 268.398438 171.082031 273.257812 166.070312 275.152344 164.058594 C 275.769531 168.015625 275.398438 172.285156 274.953125 175.960938 C 274.871094 176.53125 274.714844 177.347656 274.546875 178.289062 C 273.550781 183.566406 271.703125 193.390625 275.734375 194.738281 C 275.753906 194.742188 275.769531 194.746094 275.789062 194.746094 C 275.839844 194.746094 275.882812 194.726562 275.917969 194.6875 C 284.34375 184.21875 289.53125 165.84375 291.574219 152.128906 C 291.578125 152.085938 291.570312 152.042969 291.539062 152.007812 C 291.300781 151.6875 290.230469 150.363281 288.996094 148.832031 C 287.148438 146.539062 284.640625 143.425781 284.363281 143.011719 C 284.707031 140.292969 283.820312 136.824219 282.316406 134.929688 C 281.78125 134.140625 281 133.707031 280.117188 133.707031 C 278.988281 133.707031 277.894531 134.421875 277.332031 135.519531 C 276.597656 136.828125 276.625 138.375 276.652344 139.886719 C 276.667969 140.910156 276.6875 141.972656 276.457031 142.929688 C 275.371094 148.09375 271.9375 152.898438 266.796875 156.492188 C 266.589844 152.589844 265.28125 150.449219 263.101562 150.449219 C 262.730469 150.453125 262.367188 150.503906 262.011719 150.601562 C 262.164062 149.332031 262.371094 148.058594 262.574219 146.828125 C 262.875 144.949219 263.191406 143.003906 263.324219 141.035156 C 263.4375 139.367188 263.40625 137.648438 263.375 135.988281 C 263.320312 132.996094 263.265625 129.914062 264.039062 127.015625 C 266.125 120.910156 270.21875 115.675781 274.171875 110.609375 C 278.214844 105.429688 282.402344 100.074219 284.503906 93.746094 C 285.515625 90.867188 285.503906 88.726562 284.472656 87.378906 C 283.960938 86.730469 283.292969 86.414062 282.46875 86.425781 C 281.8125 86.414062 281.25 86.636719 280.78125 87.097656 C 279.511719 88.300781 278.828125 89.859375 278.167969 91.371094 C 278.050781 91.632812 277.941406 91.890625 277.824219 92.144531 C 273.925781 100.453125 268.773438 107.664062 262.914062 113.007812 C 261.890625 114.074219 261.011719 114.613281 260.289062 114.613281 C 259.816406 114.613281 259.421875 114.390625 259.0625 113.925781 C 256.835938 110.957031 257.8125 99.734375 258.507812 97.339844 C 259.058594 94.511719 259.832031 91.558594 260.578125 88.703125 C 263.039062 79.300781 265.582031 69.578125 261.742188 60.429688 C 261.738281 60.421875 261.734375 60.410156 261.730469 60.402344 C 260.980469 59.265625 259.859375 58.585938 258.726562 58.585938 C 257.574219 58.585938 256.1875 59.382812 256.078125 61.628906 C 256.078125 61.640625 256.078125 61.652344 256.078125 61.664062 C 257.484375 70.570312 256.46875 79.375 253.066406 87.835938 C 252.851562 88.300781 252.648438 88.90625 252.433594 89.542969 C 251.796875 91.421875 251.011719 93.757812 249.410156 94.175781 C 246.675781 92.640625 246.25 88.691406 245.9375 85.800781 C 245.9375 85.800781 245.9375 85.789062 245.9375 85.785156 C 245.742188 84.726562 245.839844 83.308594 245.9375 81.808594 C 246.148438 78.679688 246.394531 75.144531 243.953125 73.835938 C 243.9375 73.828125 243.917969 73.824219 243.898438 73.820312 C 243.738281 73.796875 243.578125 73.789062 243.417969 73.785156 C 242.511719 73.785156 241.707031 74.148438 241.027344 74.867188 C 238.582031 77.449219 238.367188 84.042969 238.492188 86.363281 C 238.71875 97.246094 241.375 100.996094 247.191406 109.203125 L 247.621094 109.808594 C 251.742188 120.214844 257.375 140.066406 249.285156 157.054688 C 249.257812 155.136719 249.484375 153.1875 249.703125 151.300781 C 250.003906 148.75 250.3125 146.109375 249.988281 143.515625 C 249.660156 141.550781 248.40625 140.28125 246.804688 140.28125 C 245.539062 140.28125 244.328125 141.117188 243.5625 142.527344 C 238.46875 153.867188 237.75 169.121094 241.414062 187.867188 C 241.4375 187.960938 241.480469 188.125 241.535156 188.328125 C 241.648438 188.753906 241.910156 189.734375 241.875 189.960938 C 238.507812 195.855469 233.695312 202.105469 227.949219 208.050781 C 226.964844 206.386719 225.828125 204.808594 224.730469 203.277344 C 221.957031 199.425781 219.335938 195.78125 218.886719 190.84375 C 218.886719 190.832031 218.886719 190.824219 218.886719 190.8125 C 218.496094 189.5 218.8125 187.492188 219.15625 185.363281 C 219.742188 181.660156 220.347656 177.828125 217.414062 176.757812 C 217.40625 176.753906 217.394531 176.75 217.382812 176.75 C 217.1875 176.71875 216.992188 176.703125 216.792969 176.703125 C 213.148438 176.703125 211.988281 182.140625 211.433594 184.75 C 209.023438 194.472656 214.066406 202.421875 218.949219 210.101562 C 219.597656 211.121094 220.265625 212.175781 220.90625 213.214844 C 214.117188 216.425781 214.796875 231.3125 215.007812 234.285156 C 215.011719 234.378906 215.03125 234.5 215.050781 234.628906 C 215.089844 234.84375 215.109375 235.0625 215.109375 235.285156 C 214.796875 235.632812 211.828125 238.722656 209.640625 240.992188 C 208.390625 242.292969 207.28125 243.4375 206.785156 243.964844 C 205.660156 236.945312 204.125 230.960938 202.636719 225.171875 C 198.546875 209.265625 195.320312 196.707031 205.15625 176.445312 L 205.164062 176.425781 C 207.671875 169.0625 211.867188 166.851562 217.171875 164.054688 C 218.675781 163.261719 220.230469 162.445312 221.898438 161.433594 C 229.375 156.097656 234.117188 147.917969 235.980469 137.125 C 236.023438 136.898438 236.074219 136.664062 236.117188 136.425781 C 236.699219 133.632812 237.421875 130.152344 234.472656 128.40625 C 233.753906 127.945312 232.96875 127.71875 232.113281 127.726562 C 230.546875 127.726562 229.132812 128.5 228.429688 129.742188 C 227.859375 130.703125 227.71875 131.996094 227.582031 133.242188 C 227.527344 133.871094 227.4375 134.492188 227.308594 135.109375 C 225.796875 142.828125 220.621094 149.445312 213.757812 152.453125 C 215.660156 144.25 215.90625 135.601562 214.496094 126.726562 C 213.320312 121.234375 213.679688 118.300781 218.921875 115.464844 C 225.511719 111.875 230.128906 105.867188 231.925781 98.550781 C 232.132812 97.605469 232.46875 96.476562 232.820312 95.28125 C 233.6875 92.328125 234.675781 88.984375 234.335938 86.59375 C 234.140625 84.179688 231.828125 82.683594 229.789062 82.683594 C 228.324219 82.683594 227.097656 83.40625 226.429688 84.660156 C 226.019531 85.386719 225.816406 86.164062 225.816406 86.996094 C 225.832031 87.457031 225.554688 87.996094 225.285156 88.519531 C 225.15625 88.753906 225.042969 88.996094 224.941406 89.242188 C 224.6875 89.894531 224.457031 90.570312 224.214844 91.28125 C 223.425781 93.601562 222.609375 96.003906 220.953125 97.636719 C 219.300781 98.996094 217.554688 99.148438 215.867188 99.300781 C 212.917969 99.566406 210.125 99.816406 208.417969 106.328125 C 202.65625 90.125 207.804688 73.792969 213.183594 62.886719 C 213.304688 62.582031 213.433594 62.261719 213.570312 61.933594 C 214.484375 59.675781 215.628906 56.863281 215.378906 54.546875 C 215.277344 53.15625 214.078125 52.109375 212.597656 52.109375 C 212.347656 52.109375 212.097656 52.140625 211.851562 52.203125 C 211.832031 52.210938 211.808594 52.21875 211.792969 52.234375 C 206.304688 56.566406 201.710938 64.03125 197.75 75.070312 C 197 77.492188 196.539062 79.382812 196.257812 81.195312 C 196.15625 81.84375 196.074219 82.859375 195.984375 84.03125 C 195.703125 87.496094 195.277344 92.703125 193.882812 93.867188 C 188.722656 92.554688 187.617188 83.046875 187.085938 78.46875 L 187.074219 78.363281 C 186.875 77.308594 187.046875 76.222656 187.207031 75.167969 C 187.496094 73.332031 187.792969 71.433594 186.03125 69.867188 C 185.082031 68.988281 183.980469 68.527344 182.835938 68.527344 C 182.210938 68.535156 181.609375 68.667969 181.039062 68.925781 C 180.46875 69.1875 179.972656 69.546875 179.550781 70.011719 C 179.050781 70.5625 178.6875 71.1875 178.453125 71.890625 C 178.21875 72.59375 178.136719 73.3125 178.207031 74.050781 C 178.152344 87.949219 184.667969 97.820312 190.96875 107.355469 C 199.582031 120.40625 207.71875 132.734375 200.472656 154.507812 C 200.261719 154.972656 200.070312 155.472656 199.871094 156.003906 C 199.121094 157.957031 198.277344 160.167969 196.328125 160.824219 C 192.707031 160.773438 192.410156 155.617188 192.253906 152.835938 C 192.1875 151.75 192.210938 150.253906 192.238281 148.519531 C 192.324219 143.175781 192.441406 135.851562 189.875 133.488281 L 189.859375 133.472656 C 188.761719 132.703125 187.75 132.308594 186.851562 132.308594 C 185.984375 132.308594 185.21875 132.667969 184.5625 133.378906 C 182.523438 135.59375 182.019531 140.785156 182.15625 144.117188 C 178.632812 136.277344 176.558594 130.078125 175.453125 124.097656 C 175.125 122.738281 175.058594 121.308594 174.996094 119.921875 C 174.929688 118.449219 174.859375 116.925781 174.472656 115.472656 C 174 113.910156 172.433594 112.6875 170.914062 112.6875 C 170.402344 112.6875 169.921875 112.816406 169.480469 113.074219 L 169.457031 113.085938 C 163.949219 117.476562 166.289062 129.746094 168.292969 135.617188 C 168.308594 135.667969 168.339844 135.753906 168.378906 135.855469 C 168.46875 136.070312 168.535156 136.289062 168.589844 136.511719 C 168.171875 138.070312 167.773438 139.683594 167.386719 141.242188 C 165.691406 148.085938 163.941406 155.15625 159.988281 161.050781 C 160.261719 159.539062 160.394531 158.074219 160.53125 156.535156 C 160.59375 155.832031 160.660156 155.105469 160.742188 154.378906 C 160.777344 154.027344 160.835938 153.667969 160.898438 153.292969 C 161.132812 151.828125 161.378906 150.316406 160.492188 149.035156 C 159.675781 147.773438 158.1875 146.390625 156.707031 146.152344 C 156.449219 146.101562 156.1875 146.078125 155.921875 146.074219 C 153.339844 146.074219 151.570312 148.523438 151.433594 150.792969 C 151.332031 155.339844 151.050781 167.425781 146.34375 167.425781 C 144.742188 167.425781 142.71875 166.066406 140.335938 163.386719 C 137.507812 159.414062 136.171875 154.070312 136.257812 147.046875 C 136.789062 145.195312 136.539062 143.457031 135.554688 142.140625 C 135.078125 141.519531 134.488281 141.039062 133.789062 140.699219 C 133.085938 140.359375 132.34375 140.195312 131.5625 140.207031 C 130.238281 140.226562 129.042969 140.632812 127.976562 141.417969 C 125.722656 143.105469 125.953125 145.988281 126.15625 148.53125 C 126.175781 148.742188 126.191406 148.949219 126.207031 149.15625 C 126.234375 149.570312 126.265625 149.988281 126.296875 150.398438 C 126.703125 156.125 127.089844 161.535156 129.578125 166.9375 C 131.863281 171.90625 135.773438 176.664062 140.585938 180.34375 C 140.722656 180.453125 140.867188 180.558594 141.007812 180.660156 C 141.3125 180.890625 141.628906 181.105469 141.960938 181.300781 C 142.824219 181.835938 143.800781 182.445312 143.984375 183.222656 C 144.285156 185.261719 144.664062 187.355469 145.042969 189.386719 C 146.140625 195.351562 147.273438 201.519531 146.574219 207.480469 C 139.828125 202.023438 134.476562 194.140625 131.019531 188.660156 C 125.238281 179.496094 121.148438 168.46875 118.851562 155.847656 C 117.785156 149.976562 116.910156 142.402344 119.65625 135.886719 C 121.242188 132.128906 123.96875 129.035156 126.605469 126.042969 C 127.117188 125.464844 127.648438 124.863281 128.160156 124.265625 C 133.128906 118.488281 136.308594 113.121094 137.882812 107.847656 C 138.949219 104.277344 139.054688 100.003906 139.148438 96.234375 L 139.171875 95.386719 C 139.433594 94.042969 139.097656 92.558594 138.3125 91.601562 C 138.066406 91.28125 137.757812 91.027344 137.394531 90.847656 C 137.027344 90.667969 136.644531 90.578125 136.238281 90.578125 C 135.847656 90.582031 135.472656 90.652344 135.109375 90.789062 L 135.082031 90.804688 C 132.648438 92.234375 131.976562 95.5 131.199219 99.277344 C 130.011719 105.050781 128.535156 112.226562 120.324219 116.9375 C 115.386719 107.957031 115.394531 95.722656 120.355469 87.78125 C 120.835938 87.113281 123.179688 83.664062 122.363281 81.449219 C 122.0625 80.632812 121.375 80.089844 120.324219 79.832031 C 120.308594 79.832031 120.296875 79.832031 120.285156 79.832031 L 120.269531 79.832031 C 112.492188 80.546875 107.460938 94.273438 107.054688 101.117188 C 106.476562 107.472656 107.960938 113.664062 109.527344 119.453125 C 109.652344 120.019531 109.8125 120.609375 109.980469 121.234375 C 110.796875 124.257812 111.71875 127.679688 109.402344 129.921875 C 108.929688 130.328125 108.382812 130.527344 107.761719 130.53125 C 105.65625 130.53125 103.335938 128.082031 102.144531 126.636719 C 100.574219 124.597656 99.609375 122.300781 99.253906 119.75 C 99.007812 118.390625 99.148438 116.894531 99.300781 115.316406 C 99.539062 112.8125 99.78125 110.226562 98.359375 108.1875 C 98.117188 107.863281 97.871094 107.53125 97.355469 107.46875 L 97.21875 107.46875 C 92.011719 107.46875 91.484375 115.355469 91.445312 117.769531 C 91.539062 126.902344 96.761719 136.101562 104.449219 140.664062 C 105.492188 141.164062 105.480469 141.394531 105.441406 142.488281 L 105.441406 142.683594 C 106.042969 152.042969 107.867188 161.15625 110.914062 170.027344 C 111.027344 170.4375 111.421875 171.351562 111.917969 172.503906 C 112.796875 174.53125 113.984375 177.28125 113.96875 178.167969 C 113.828125 178.21875 113.679688 178.246094 113.527344 178.25 C 112.414062 178.25 111.777344 176.445312 111.101562 174.535156 C 110.234375 172.089844 109.25 169.320312 106.9375 169.320312 C 106.609375 169.324219 106.285156 169.371094 105.96875 169.46875 C 105.023438 169.757812 104.339844 170.347656 103.910156 171.234375 C 102.871094 173.332031 103.722656 176.203125 104 177.015625 C 104.816406 180.3125 106.625 183.378906 109.539062 186.382812 C 110.390625 190.449219 111.003906 195.007812 109.210938 198.210938 C 106.886719 195.664062 104.222656 193.316406 101.644531 191.054688 C 96.113281 186.195312 90.390625 181.167969 87.828125 173.882812 C 86.277344 170.105469 85.582031 166.597656 85.652344 162.835938 C 85.667969 161.921875 85.859375 160.757812 86.066406 159.527344 C 86.722656 155.585938 87.542969 150.691406 83.179688 149.832031 L 83.121094 149.832031 C 79.441406 150.355469 78.984375 154.328125 78.539062 158.167969 C 78.308594 160.164062 78.089844 162.050781 77.433594 163.375 C 68.605469 160.707031 68.34375 148.769531 70.261719 141.824219 C 70.433594 141.207031 70.695312 140.488281 70.96875 139.730469 C 71.863281 137.261719 72.980469 134.191406 71.851562 132.117188 C 71.625 131.671875 71.296875 131.316406 70.867188 131.058594 C 70.4375 130.796875 69.972656 130.671875 69.46875 130.679688 C 68.890625 130.675781 68.371094 130.847656 67.90625 131.195312 C 63.621094 134.683594 62.4375 140.597656 61.382812 145.816406 L 61.300781 146.222656 C 59.5 155.984375 65.105469 163.917969 70.515625 171.589844 C 71.429688 172.859375 72.355469 174.175781 73.21875 175.460938 C 81.273438 191.386719 88.949219 196.988281 94.558594 201.078125 C 100.882812 205.691406 104.367188 208.234375 102.765625 221.375 C 102.246094 228.996094 102.914062 235.527344 104.804688 241.335938 C 93.351562 239.414062 86.589844 229.269531 81.964844 220.617188 C 81.160156 219.226562 80.441406 217.5625 79.675781 215.800781 C 77.566406 210.933594 75.175781 205.414062 70.097656 204.132812 L 70.078125 204.132812 C 69.765625 204.09375 69.453125 204.074219 69.136719 204.074219 C 67.476562 204.074219 66.191406 204.675781 65.3125 205.863281 C 63.175781 208.757812 64.050781 214.230469 64.90625 217.007812 C 67.082031 225.378906 71.769531 233.183594 78.480469 239.582031 C 84.753906 245.5625 92.644531 250.226562 101.304688 253.0625 C 102.082031 253.289062 103.738281 253.78125 105.335938 254.257812 C 106.9375 254.738281 108.5625 255.222656 109.328125 255.445312 C 109.734375 255.757812 110.402344 256.539062 110.992188 257.230469 C 111.375 257.675781 111.734375 258.097656 111.96875 258.328125 C 113.488281 260.09375 115.328125 261.578125 117.105469 263.011719 C 117.46875 263.304688 117.832031 263.59375 118.195312 263.886719 C 116.953125 264.605469 116.585938 265.671875 116.273438 266.886719 C 116.238281 267.03125 116.203125 267.195312 116.164062 267.371094 C 115.933594 268.457031 115.621094 269.964844 114.632812 269.964844 C 114.464844 269.960938 114.304688 269.925781 114.148438 269.863281 C 113.25 269.488281 112.710938 268.503906 112.140625 267.457031 C 111.410156 266.109375 110.648438 264.714844 109.035156 264.714844 C 108.574219 264.730469 108.132812 264.820312 107.707031 264.988281 C 105.921875 265.652344 104.949219 267.71875 104.6875 268.347656 C 103.640625 271.335938 104.617188 272.882812 105.652344 274.527344 C 106.78125 276.316406 107.949219 278.167969 106.742188 282.175781 C 106.738281 282.1875 106.734375 282.195312 106.734375 282.203125 C 106.597656 283.253906 106.519531 284.320312 106.453125 285.359375 C 106.257812 284.988281 106.058594 284.578125 105.851562 284.148438 C 104.714844 281.816406 103.304688 278.917969 101.175781 278.261719 C 100.863281 278.140625 100.539062 278.082031 100.203125 278.082031 C 98.921875 278.082031 97.671875 279.0625 97.164062 280.472656 C 97.015625 280.78125 96.898438 281.097656 96.808594 281.425781 C 96.554688 282.226562 96.128906 283.566406 95.671875 283.566406 C 95.628906 283.5625 95.589844 283.554688 95.554688 283.535156 C 95.269531 283.117188 95.027344 282.675781 94.824219 282.214844 C 94.261719 281.03125 93.675781 279.8125 92.179688 279.640625 C 92.039062 279.621094 91.894531 279.613281 91.753906 279.613281 C 90.894531 279.621094 90.175781 279.9375 89.589844 280.5625 C 88.695312 281.515625 88.253906 282.644531 88.265625 283.949219 C 88.25 285.601562 89.140625 287.277344 90.90625 288.933594 C 91.609375 289.6875 92.515625 290.292969 93.386719 290.875 C 94.675781 291.738281 96.007812 292.628906 96.675781 294.003906 L 96.632812 294.15625 C 96.175781 294.316406 95.707031 294.386719 95.226562 294.367188 C 94.746094 294.367188 94.234375 294.324219 93.785156 294.28125 C 93.574219 294.261719 93.375 294.242188 93.1875 294.230469 C 92.777344 294.15625 92.367188 294.121094 91.949219 294.121094 C 89.570312 294.121094 87.210938 295.242188 86.078125 296.902344 C 85.21875 298.164062 85.085938 299.648438 85.699219 301.207031 C 86.984375 303.722656 89.597656 304.335938 92.125 304.941406 C 93.410156 305.246094 94.734375 305.558594 95.84375 306.121094 C 95.472656 306.683594 95.054688 307.210938 94.589844 307.699219 C 93.519531 308.886719 92.414062 310.117188 92.886719 312.039062 C 93.308594 313.578125 94.453125 314.421875 96.117188 314.421875 C 97.210938 314.394531 98.238281 314.121094 99.203125 313.605469 C 98.863281 314.683594 98.867188 315.738281 99.234375 316.492188 C 99.550781 317.132812 100.054688 317.539062 100.746094 317.714844 L 100.769531 317.714844 C 101.039062 317.753906 101.308594 317.773438 101.582031 317.773438 C 103.660156 317.773438 105.453125 316.601562 107.1875 315.464844 C 108.878906 314.355469 110.625 313.210938 112.601562 313.210938 C 113.113281 313.214844 113.609375 313.285156 114.097656 313.429688 C 117.4375 314.289062 119.566406 315.601562 120.609375 317.453125 C 120.816406 317.820312 121 318.230469 121.191406 318.660156 C 121.765625 319.949219 122.414062 321.410156 123.910156 321.832031 C 124.25 321.9375 124.59375 321.988281 124.949219 321.992188 C 125.484375 321.984375 125.988281 321.867188 126.46875 321.632812 C 126.945312 321.398438 127.351562 321.070312 127.683594 320.652344 C 128.359375 319.820312 128.636719 318.871094 128.511719 317.808594 C 130.96875 319.191406 133.296875 319.8125 136.019531 319.8125 C 136.851562 319.808594 137.683594 319.757812 138.511719 319.660156 C 141.472656 321.820312 144.585938 322.871094 148.015625 322.871094 C 153.621094 322.871094 159.160156 320.035156 164.515625 317.292969 C 169.601562 314.683594 174.410156 312.222656 179.027344 312.222656 C 179.757812 312.21875 180.484375 312.285156 181.203125 312.417969 L 181.9375 312.726562 C 185.027344 314.011719 186.894531 314.789062 188.824219 314.789062 C 190.757812 314.789062 192.742188 313.984375 196.101562 311.832031 C 197.011719 311.351562 198.074219 310.835938 199.148438 310.808594 L 199.21875 310.808594 C 200.574219 310.808594 202.085938 311.75 203.304688 312.503906 C 203.492188 312.621094 203.671875 312.734375 203.847656 312.839844 C 204.285156 313.101562 204.726562 313.371094 205.171875 313.640625 C 210.777344 317.046875 216.578125 320.574219 223.164062 321.441406 C 224.03125 321.523438 225.050781 321.566406 226.113281 321.566406 C 232.332031 321.566406 240.113281 320.21875 243.28125 316.4375 C 244.542969 314.933594 245.003906 313.136719 244.640625 311.109375 C 244.230469 307.992188 241.566406 306.230469 238.992188 304.855469 C 240.472656 304.386719 242.03125 303.8125 243.671875 303.203125 C 247.480469 301.792969 251.410156 300.335938 254.945312 300.007812 C 255.082031 300 255.21875 299.996094 255.355469 299.996094 C 257.371094 299.996094 259.589844 300.859375 261.742188 301.691406 C 263.929688 302.542969 266.195312 303.421875 268.296875 303.421875 C 270.171875 303.421875 271.71875 302.726562 273.03125 301.304688 L 273.042969 301.285156 C 274.3125 299.476562 273.003906 297.488281 272.117188 296.292969 C 272.492188 296.28125 272.875 296.273438 273.246094 296.269531 C 276.171875 296.21875 279.199219 296.167969 281.074219 293.414062 C 281.742188 292.511719 281.941406 291.511719 281.652344 290.503906 C 281.316406 289.332031 280.34375 288.332031 279.046875 287.796875 L 279 287.660156 C 279.542969 286.855469 280.402344 286.160156 281.230469 285.488281 C 282.984375 284.0625 284.800781 282.585938 284.003906 279.914062 C 283.460938 278.292969 281.78125 277.117188 279.996094 277.117188 C 279.492188 277.117188 279.007812 277.210938 278.542969 277.402344 C 277.800781 277.6875 277.234375 278.179688 276.6875 278.652344 C 276.007812 279.246094 275.351562 279.808594 274.46875 279.808594 C 273.863281 279.785156 273.308594 279.601562 272.808594 279.257812 C 272.3125 278.914062 271.941406 278.460938 271.703125 277.90625 C 271.488281 277.324219 271.546875 276.777344 271.875 276.253906 C 272.523438 275.402344 273.347656 274.601562 274.214844 273.753906 C 276.5625 271.464844 278.988281 269.101562 278.117188 265.566406 C 277.699219 263.625 275.871094 262.167969 273.871094 262.167969 C 273.507812 262.164062 273.152344 262.210938 272.800781 262.304688 C 272.597656 261.996094 272.4375 261.671875 272.316406 261.324219 L 272.253906 261.167969 C 275.9375 258.550781 279.292969 256.246094 282.261719 254.214844 C 298.265625 243.25 306.296875 237.746094 318.605469 215.082031 C 326.992188 206.707031 331.726562 197.953125 332.675781 189.070312 C 332.871094 186.820312 333.054688 182.355469 332.054688 178.082031 Z M 275.820312 265.660156 C 276.636719 268.394531 274.722656 270.207031 272.695312 272.125 C 270.597656 274.113281 268.425781 276.171875 269.839844 279.285156 C 270.761719 280.90625 272.734375 282.039062 274.628906 282.039062 C 275.453125 282.050781 276.207031 281.828125 276.894531 281.375 C 277.226562 281.132812 277.542969 280.875 277.84375 280.597656 C 278.339844 280.164062 278.847656 279.71875 279.394531 279.464844 C 279.613281 279.375 279.839844 279.332031 280.074219 279.332031 C 280.980469 279.332031 281.808594 279.945312 282 280.757812 C 282.261719 282.066406 280.957031 283.023438 279.574219 284.035156 C 278.105469 285.113281 276.585938 286.226562 276.828125 287.882812 C 276.910156 288.882812 277.613281 289.339844 278.234375 289.738281 C 278.742188 290.066406 279.222656 290.375 279.371094 290.945312 C 279.507812 291.433594 279.429688 291.882812 279.132812 292.292969 C 278.023438 293.742188 276.398438 293.777344 274.679688 293.816406 C 272.910156 293.855469 271.070312 293.898438 269.984375 295.699219 C 269.441406 296.765625 269.984375 297.535156 270.523438 298.28125 C 270.765625 298.59375 270.96875 298.933594 271.128906 299.296875 C 270.773438 300.59375 269.878906 301.21875 268.398438 301.222656 C 266.472656 301.222656 263.929688 300.183594 261.6875 299.265625 C 260.125 298.628906 258.78125 298.078125 257.878906 297.964844 C 257.25 297.84375 256.617188 297.796875 255.976562 297.816406 L 255.804688 297.816406 C 255.660156 297.816406 255.515625 297.816406 255.375 297.816406 C 260.941406 295.441406 268.132812 292.132812 269.511719 285.140625 C 269.523438 285.089844 269.511719 285.042969 269.476562 285.003906 C 269.445312 284.960938 269.402344 284.941406 269.351562 284.945312 C 269.285156 284.945312 269.238281 284.972656 269.207031 285.027344 C 266.109375 290.652344 260.347656 293.480469 254.769531 296.214844 C 253.835938 296.671875 252.867188 297.144531 251.941406 297.621094 C 251.976562 297.320312 252.003906 297.011719 252.035156 296.714844 C 252.128906 295.722656 252.226562 294.703125 252.539062 293.789062 C 253.507812 291.808594 254.773438 289.859375 255.996094 287.976562 L 256.097656 287.8125 C 257.117188 286.742188 258.246094 285.71875 259.335938 284.726562 C 262.074219 282.246094 264.902344 279.679688 266.292969 276.050781 C 266.328125 275.957031 266.300781 275.890625 266.214844 275.84375 C 266.191406 275.832031 266.164062 275.824219 266.136719 275.824219 C 266.078125 275.824219 266.035156 275.847656 266 275.894531 C 263.453125 279.527344 259.867188 282.285156 256.335938 284.714844 C 256.742188 282.65625 256.621094 281.515625 255.789062 279.355469 C 256.335938 277.792969 257.441406 276.484375 258.507812 275.21875 C 260.539062 272.8125 262.453125 270.539062 260.617188 266.84375 C 261.367188 264.835938 262.113281 263.851562 262.914062 263.851562 C 263.742188 263.851562 264.660156 264.882812 265.628906 265.976562 C 266.480469 266.929688 267.441406 268.015625 268.527344 268.613281 L 268.554688 268.625 C 268.921875 268.757812 269.296875 268.824219 269.6875 268.828125 C 271.3125 268.828125 272.585938 267.398438 273.097656 265.007812 C 273.207031 264.585938 273.476562 264.371094 273.898438 264.371094 C 274.632812 264.375 275.601562 265.027344 275.820312 265.660156 Z M 242.0625 314.273438 C 240.855469 316.421875 237.714844 317.707031 235.164062 318.191406 L 235.148438 318.191406 C 232.507812 319.007812 229.804688 319.429688 227.042969 319.453125 C 219.617188 319.453125 214.074219 316.132812 209.183594 313.199219 C 205.398438 310.929688 202.128906 308.972656 198.714844 308.972656 C 197.6875 308.972656 196.691406 309.152344 195.726562 309.515625 L 195.703125 309.527344 L 195.503906 309.640625 C 191.84375 311.757812 190.328125 312.632812 188.765625 312.632812 C 187.621094 312.632812 186.457031 312.167969 184.347656 311.324219 C 183.597656 311.023438 182.75 310.683594 181.742188 310.304688 C 181.734375 310.300781 181.722656 310.296875 181.714844 310.296875 C 180.78125 310.125 179.839844 310.039062 178.886719 310.039062 C 173.488281 310.039062 168.285156 312.765625 163.246094 315.40625 C 158.351562 317.972656 153.28125 320.625 148.175781 320.625 C 145.570312 320.625 143.144531 319.957031 140.757812 318.585938 C 142.875 317.742188 144.300781 316.425781 144.886719 314.757812 C 145.476562 313.089844 145.195312 311.121094 144.0625 309.09375 C 144.546875 309.199219 145.042969 309.253906 145.542969 309.253906 C 149.726562 309.253906 153.261719 305.640625 153.816406 302.394531 C 154.222656 300.023438 153.050781 298.136719 150.59375 297.179688 L 151.917969 295.839844 C 152.089844 295.847656 152.265625 295.855469 152.433594 295.855469 C 155.9375 295.855469 157.925781 293.839844 159.851562 291.890625 C 161.660156 290.0625 163.363281 288.335938 166.207031 288.335938 C 166.980469 288.34375 167.742188 288.457031 168.492188 288.667969 L 168.507812 288.667969 C 169.683594 288.851562 170.78125 289.339844 171.839844 289.808594 C 173.1875 290.40625 174.578125 291.023438 176.140625 291.023438 C 176.242188 291.023438 176.34375 291.023438 176.449219 291.015625 C 178.136719 290.890625 179.230469 289.742188 180.285156 288.628906 C 180.492188 288.414062 180.703125 288.195312 180.917969 287.980469 C 182.414062 286.339844 183.898438 285.574219 185.578125 285.574219 C 186.742188 285.574219 187.882812 285.921875 189.089844 286.289062 C 190.386719 286.6875 191.726562 287.09375 193.195312 287.09375 C 193.785156 287.097656 194.367188 287.027344 194.941406 286.890625 L 194.960938 286.890625 C 196.265625 286.40625 197.457031 285.570312 198.609375 284.765625 C 200.40625 283.503906 202.105469 282.316406 204.222656 282.316406 C 204.605469 282.316406 204.984375 282.355469 205.359375 282.433594 C 207.96875 283.078125 210.207031 284.660156 212.367188 286.191406 C 213.519531 287.007812 214.714844 287.851562 215.964844 288.550781 C 216.769531 288.921875 217.460938 289.226562 218.058594 289.492188 C 221.683594 291.085938 221.980469 291.214844 224.449219 296.105469 L 224.460938 296.125 C 225.652344 297.851562 227.3125 298.148438 229.0625 298.457031 C 229.621094 298.554688 230.191406 298.65625 230.757812 298.808594 C 232.023438 299.453125 232.742188 300.753906 233.4375 302.015625 C 233.730469 302.5625 234.050781 303.097656 234.398438 303.613281 C 235.359375 305.21875 236.953125 306.195312 238.492188 307.148438 C 240.132812 308.15625 241.679688 309.113281 242.234375 310.71875 C 242.722656 312.011719 242.664062 313.199219 242.0625 314.269531 Z M 129.011719 315.433594 C 128.664062 315.105469 128.34375 314.757812 128.050781 314.382812 C 127.445312 313.660156 126.820312 312.910156 126.324219 312.800781 L 126.257812 312.800781 C 125.828125 312.867188 125.523438 313.097656 125.339844 313.492188 C 125.039062 314.171875 125.304688 315.164062 125.6875 315.820312 C 126.257812 316.652344 126.351562 318.289062 125.878906 319.191406 C 125.675781 319.578125 125.402344 319.773438 125.066406 319.773438 C 124.757812 319.773438 124.386719 319.609375 123.992188 319.28125 L 123.921875 319.144531 C 122.5625 316.4375 121.277344 313.878906 118.394531 312.621094 C 121.074219 310.851562 123.421875 308.671875 125.703125 306.550781 C 127.855469 304.550781 130.078125 302.476562 132.578125 300.777344 C 134.402344 299.515625 136.324219 298.417969 138.339844 297.484375 C 138.765625 297.292969 139.238281 297.128906 139.699219 296.972656 C 140.515625 296.6875 141.359375 296.394531 142.050781 295.914062 C 142.117188 295.867188 142.140625 295.804688 142.113281 295.726562 C 142.089844 295.648438 142.035156 295.613281 141.957031 295.613281 C 135.917969 295.65625 130.5625 299.484375 126.082031 303.328125 C 127.019531 299.460938 128.546875 294.667969 131.894531 290.855469 C 132.09375 290.59375 132.308594 290.328125 132.539062 290.039062 C 133.515625 288.832031 134.617188 287.464844 134.984375 286.050781 C 135.007812 285.972656 134.984375 285.910156 134.914062 285.867188 C 134.886719 285.851562 134.859375 285.84375 134.828125 285.84375 C 134.785156 285.84375 134.75 285.859375 134.71875 285.886719 C 127.226562 292.484375 125.980469 296.769531 124.878906 300.546875 C 123.777344 304.328125 122.902344 307.332031 116.066406 311.476562 C 115.328125 311.429688 114.617188 311.257812 113.9375 310.957031 C 113.421875 306.984375 114.640625 304.566406 115.929688 302.023438 C 117.992188 297.9375 120.128906 293.710938 115.6875 282.722656 C 115.660156 282.652344 115.609375 282.617188 115.535156 282.617188 C 115.519531 282.617188 115.507812 282.617188 115.496094 282.617188 C 115.40625 282.640625 115.363281 282.699219 115.371094 282.792969 C 115.460938 283.933594 115.613281 285.109375 115.777344 286.359375 C 116.386719 291.140625 117.078125 296.542969 114.3125 300.558594 C 113.621094 298.207031 112.519531 296.421875 111.457031 294.695312 C 109.6875 291.839844 108.011719 289.136719 108.738281 284.332031 C 108.808594 283.625 108.9375 282.886719 109.074219 282.101562 C 109.429688 280.078125 109.800781 277.988281 109.179688 276.183594 C 108.914062 275.324219 108.363281 274.53125 107.832031 273.761719 C 106.894531 272.402344 106.003906 271.113281 106.582031 269.507812 C 106.875 268.695312 107.628906 267.363281 108.492188 267.027344 C 108.601562 266.996094 108.710938 266.976562 108.820312 266.976562 C 109.617188 266.976562 110.1875 268.007812 110.792969 269.101562 C 111.464844 270.324219 112.226562 271.695312 113.511719 272.035156 C 113.933594 272.148438 114.359375 272.207031 114.796875 272.214844 C 117.03125 272.214844 117.601562 270.238281 118.105469 268.496094 C 118.503906 267.113281 118.882812 265.808594 119.972656 265.453125 C 121.425781 265.734375 122.753906 266.628906 124.039062 267.492188 C 124.570312 267.847656 125.121094 268.214844 125.671875 268.535156 C 124.203125 270.539062 124.839844 272.503906 125.453125 274.410156 C 125.949219 275.9375 126.457031 277.519531 125.902344 279.148438 C 125.191406 280.574219 124.519531 281.300781 123.902344 281.300781 C 122.8125 281.300781 121.863281 279.011719 121.101562 277.171875 C 120.714844 276.234375 120.347656 275.351562 119.988281 274.789062 C 119.957031 274.738281 119.910156 274.714844 119.851562 274.714844 C 119.835938 274.710938 119.820312 274.710938 119.804688 274.714844 L 119.585938 274.78125 C 119.511719 274.800781 119.472656 274.851562 119.46875 274.925781 C 119.382812 276.285156 119.332031 280.898438 122.417969 283.070312 C 122.867188 283.382812 123.367188 283.539062 123.914062 283.542969 C 125.457031 283.542969 126.875 282.195312 127.539062 280.945312 C 128.898438 278.617188 128.460938 276.125 127.855469 274.449219 L 127.84375 274.425781 C 126.996094 272.808594 126.789062 271.480469 127.230469 270.484375 C 127.625 269.601562 128.542969 268.96875 129.941406 268.605469 C 130.042969 268.589844 130.144531 268.582031 130.246094 268.582031 C 131.1875 268.582031 131.402344 269.445312 131.648438 270.449219 C 131.875 271.355469 132.105469 272.289062 132.90625 272.738281 L 132.925781 272.75 C 133.144531 272.835938 133.371094 272.882812 133.605469 272.886719 C 135.058594 272.886719 135.496094 270.898438 135.847656 269.300781 C 135.929688 268.886719 136.035156 268.476562 136.160156 268.074219 C 136.164062 268.066406 136.167969 268.054688 136.167969 268.046875 C 136.375 266.738281 137.121094 265.957031 138.164062 265.957031 C 138.5625 265.96875 138.941406 266.058594 139.300781 266.226562 C 140.652344 266.878906 140.699219 268.183594 140.546875 269.5 C 140.257812 270.519531 140.84375 270.933594 141.40625 271.332031 C 142.160156 271.867188 143.011719 272.472656 142.453125 274.695312 C 141.976562 275.546875 141.289062 276.3125 140.625 277.054688 C 139.847656 277.921875 139.042969 278.824219 138.53125 279.878906 C 137.753906 281.453125 135.679688 285.632812 138.191406 287.082031 C 138.207031 287.089844 138.21875 287.09375 138.234375 287.097656 C 138.625 287.199219 139.019531 287.246094 139.421875 287.25 C 141.226562 287.25 142.808594 286.21875 144.339844 285.21875 C 145.1875 284.667969 146.0625 284.097656 146.933594 283.738281 C 147.203125 283.644531 147.476562 283.601562 147.757812 283.601562 C 149.042969 283.601562 150.328125 284.507812 150.75 285.710938 C 151.039062 287.03125 150.226562 287.496094 149.371094 287.988281 C 148.574219 288.445312 147.667969 288.964844 148.035156 290.257812 C 148.042969 290.273438 148.046875 290.289062 148.058594 290.304688 C 148.375 290.765625 148.808594 291.039062 149.230469 291.304688 C 149.925781 291.75 150.53125 292.132812 150.554688 293.296875 C 150.585938 294.636719 148.445312 296.226562 144.683594 297.664062 C 144.410156 297.765625 144.113281 297.855469 143.789062 297.953125 C 142.917969 298.214844 141.933594 298.511719 141.378906 299.117188 C 141.351562 299.148438 141.335938 299.183594 141.335938 299.226562 C 141.328125 299.71875 141.449219 300.097656 141.691406 300.34375 C 141.933594 300.59375 142.257812 300.695312 142.699219 300.695312 C 143.648438 300.695312 144.980469 300.152344 146.15625 299.664062 C 147.070312 299.285156 147.933594 298.929688 148.394531 298.929688 L 148.433594 298.929688 C 148.527344 298.921875 148.625 298.914062 148.726562 298.914062 C 149.632812 298.914062 150.414062 299.230469 151.0625 299.867188 C 151.5 300.304688 151.707031 300.832031 151.683594 301.449219 C 151.648438 301.828125 151.578125 302.203125 151.472656 302.566406 C 151.371094 302.933594 151.230469 303.285156 151.0625 303.625 C 150.890625 303.964844 150.6875 304.285156 150.457031 304.585938 C 150.226562 304.890625 149.96875 305.167969 149.6875 305.421875 C 149.40625 305.675781 149.101562 305.902344 148.777344 306.097656 C 148.449219 306.296875 148.109375 306.460938 147.753906 306.59375 C 147.398438 306.726562 147.035156 306.828125 146.660156 306.894531 C 146.285156 306.957031 145.90625 306.988281 145.527344 306.984375 C 144.523438 306.984375 143.570312 306.757812 142.671875 306.304688 C 141.984375 305.894531 140.878906 305.679688 139.5625 305.679688 C 137.453125 305.679688 134.769531 306.296875 133.527344 307.667969 C 132.996094 308.222656 132.769531 308.882812 132.847656 309.648438 C 133.207031 312.046875 135.582031 314 138.152344 314 C 138.375 314 138.597656 313.984375 138.820312 313.953125 C 138.851562 313.949219 138.875 313.9375 138.898438 313.921875 L 139.003906 313.84375 C 139.292969 313.628906 139.503906 313.476562 139.507812 312.957031 C 139.519531 312.03125 138.503906 311.867188 137.691406 311.734375 C 137.40625 311.699219 137.128906 311.632812 136.859375 311.542969 C 135.707031 310.90625 135.109375 310.230469 135.078125 309.535156 C 135.269531 308.417969 138.011719 307.90625 139.816406 307.90625 C 140.042969 307.902344 140.265625 307.914062 140.488281 307.941406 C 141.816406 308.710938 143.351562 312.078125 143.042969 313.542969 C 141.851562 316.144531 139.074219 317.699219 135.609375 317.699219 C 133.101562 317.695312 130.695312 316.871094 129.011719 315.429688 Z M 111.832031 306.007812 C 111.648438 306.785156 111.519531 307.570312 111.4375 308.363281 C 107.449219 304.316406 103.027344 301.226562 98.628906 299.417969 C 98.609375 299.410156 98.589844 299.402344 98.566406 299.402344 C 98.5 299.40625 98.453125 299.433594 98.421875 299.492188 C 98.375 299.578125 98.390625 299.648438 98.472656 299.707031 C 101.765625 301.980469 104.671875 304.78125 107.484375 307.496094 C 108.695312 308.664062 109.949219 309.871094 111.222656 311.027344 C 109.472656 311.363281 107.972656 312.347656 106.515625 313.304688 C 104.839844 314.402344 103.253906 315.445312 101.320312 315.582031 C 100.914062 315.269531 101.382812 314.230469 101.753906 313.390625 C 101.964844 312.921875 102.144531 312.515625 102.191406 312.222656 C 102.226562 311.941406 102.183594 311.671875 102.0625 311.414062 C 101.9375 311.160156 101.753906 310.957031 101.511719 310.8125 L 101.496094 310.804688 C 101.308594 310.722656 101.109375 310.683594 100.90625 310.6875 C 100.238281 310.6875 99.457031 311.046875 98.625 311.425781 C 97.792969 311.808594 96.894531 312.21875 96.152344 312.21875 C 95.6875 312.234375 95.308594 312.066406 95.007812 311.714844 C 94.855469 310.59375 95.625 309.828125 96.441406 309.019531 C 97.152344 308.316406 97.886719 307.589844 98.070312 306.574219 C 98.511719 304.171875 94.625 303.210938 91.78125 302.507812 C 90.785156 302.261719 89.921875 302.046875 89.4375 301.828125 C 87.980469 301.132812 87.320312 300.121094 87.578125 298.972656 C 87.910156 297.503906 89.691406 296.304688 91.546875 296.304688 C 91.636719 296.304688 91.726562 296.304688 91.828125 296.3125 L 91.882812 296.3125 C 92.324219 296.3125 92.84375 296.359375 93.390625 296.40625 C 94.015625 296.464844 94.667969 296.523438 95.304688 296.523438 C 96.585938 296.523438 98.351562 296.308594 98.851562 294.457031 C 98.851562 294.453125 98.851562 294.445312 98.851562 294.4375 C 99.164062 292.277344 96.8125 290.523438 94.542969 288.828125 C 92.601562 287.378906 90.59375 285.882812 90.480469 284.238281 C 90.425781 283.453125 90.796875 282.671875 91.613281 281.855469 C 91.652344 281.847656 91.695312 281.84375 91.734375 281.84375 C 92.269531 281.84375 92.5625 282.625 92.796875 283.253906 C 92.867188 283.453125 92.949219 283.652344 93.042969 283.84375 C 93.4375 284.59375 94.296875 285.851562 95.625 285.851562 C 95.71875 285.851562 95.8125 285.84375 95.90625 285.832031 C 97.503906 285.652344 98.226562 283.910156 98.863281 282.371094 C 99.191406 281.574219 99.503906 280.820312 99.90625 280.316406 C 100.03125 280.265625 100.164062 280.238281 100.300781 280.238281 C 100.546875 280.246094 100.765625 280.332031 100.953125 280.496094 C 102.898438 282.570312 104.097656 285.296875 105.257812 287.933594 C 106.023438 289.671875 106.816406 291.46875 107.8125 293.066406 C 108.273438 293.835938 108.777344 294.589844 109.261719 295.320312 C 111.46875 298.621094 113.546875 301.742188 111.839844 305.996094 C 111.835938 306 111.832031 306.003906 111.832031 306.007812 Z M 110.726562 253.621094 C 110.144531 253.257812 109.300781 253.058594 108.554688 252.882812 C 108.261719 252.8125 107.980469 252.746094 107.734375 252.671875 C 99.480469 250.238281 93.582031 247.757812 88.597656 244.628906 C 80.085938 239.425781 73.226562 231.589844 69.289062 222.570312 L 69.253906 222.480469 C 67.574219 218.3125 64.765625 211.335938 67.175781 207.121094 C 67.691406 206.605469 68.3125 206.351562 69.039062 206.355469 C 70.738281 206.355469 72.574219 207.835938 73.558594 209.214844 C 74.765625 211.375 75.925781 213.636719 77.15625 216.027344 C 83.683594 228.695312 91.066406 243.058594 107.011719 243.886719 L 107.019531 243.886719 C 107.046875 243.886719 107.070312 243.878906 107.089844 243.867188 C 108.386719 243.253906 107.667969 241.714844 107.140625 240.589844 C 106.980469 240.273438 106.847656 239.949219 106.734375 239.613281 C 104.71875 233.523438 104.796875 226.917969 105.089844 221.84375 C 105.132812 221.09375 105.191406 220.328125 105.25 219.585938 C 105.511719 216.175781 105.78125 212.65625 104.746094 209.242188 C 103.007812 204.234375 98.804688 201.265625 94.742188 198.398438 C 92.214844 196.613281 89.601562 194.765625 87.585938 192.441406 C 82.757812 187.003906 78.917969 180.726562 75.199219 174.660156 C 72.574219 170.378906 69.859375 165.949219 66.8125 161.828125 C 63.28125 155.75 62.574219 149.421875 64.597656 141.921875 C 64.6875 141.648438 64.777344 141.351562 64.878906 141.023438 C 65.703125 138.332031 67.078125 133.855469 69.648438 133.308594 C 70.328125 134.777344 69.65625 136.433594 69.015625 138.042969 C 68.722656 138.71875 68.484375 139.414062 68.292969 140.125 C 67.222656 142.960938 66.753906 146.753906 67.007812 150.539062 C 67.277344 154.699219 68.417969 158.425781 70.199219 161.027344 C 72.203125 163.960938 74.914062 165.460938 78.265625 165.492188 L 78.292969 165.492188 C 79.964844 165.257812 80.355469 162.113281 80.773438 158.78125 C 81.167969 155.640625 81.574219 152.394531 83.078125 152.199219 C 84.871094 152.902344 84.324219 155.78125 83.921875 157.886719 C 83.816406 158.429688 83.730469 158.886719 83.691406 159.246094 C 82.878906 163.902344 83.472656 169.035156 85.410156 174.097656 C 87.257812 178.878906 89.964844 183.109375 93.523438 186.796875 C 95.328125 188.550781 97.316406 190.304688 99.421875 192.15625 C 102.332031 194.714844 105.34375 197.363281 107.796875 200.007812 C 107.8125 200.019531 107.828125 200.03125 107.84375 200.042969 C 108.328125 200.308594 108.84375 200.453125 109.394531 200.472656 C 110.078125 200.472656 110.632812 200.203125 111.054688 199.667969 C 113.070312 197.304688 112.558594 190.496094 112.25 188.238281 C 115.519531 189.90625 118.117188 192.304688 120.042969 195.429688 C 119.945312 196.09375 118.648438 198.421875 117.695312 200.140625 C 117.0625 201.28125 116.515625 202.265625 116.367188 202.648438 C 112.640625 210.191406 110.894531 218.917969 111.445312 227.222656 C 112.042969 236.230469 115.25 244.175781 120.734375 250.195312 C 131.015625 260.917969 147.855469 262.394531 160.152344 263.476562 C 160.253906 263.484375 160.363281 263.492188 160.472656 263.5 C 161.089844 263.539062 161.789062 263.585938 162.117188 264.050781 C 162.125 264.0625 162.132812 264.070312 162.140625 264.078125 C 163.386719 265.179688 164.480469 266.726562 165.40625 268.089844 C 168.9375 273.085938 170.84375 279.28125 171.066406 286.515625 C 168.335938 281.925781 164.347656 278.289062 158.894531 275.410156 C 153.855469 272.75 148.167969 271.035156 142.761719 269.507812 C 142.859375 268.730469 142.796875 267.964844 142.574219 267.214844 C 142.351562 266.460938 141.984375 265.785156 141.480469 265.183594 C 140.609375 264.171875 139.457031 263.613281 138.234375 263.613281 C 137.507812 263.621094 136.820312 263.796875 136.179688 264.132812 C 134.515625 265.097656 133.933594 267.261719 133.488281 269.074219 C 132.945312 267.292969 131.785156 266.320312 130.15625 266.320312 C 129.382812 266.320312 128.527344 266.539062 127.609375 266.96875 C 124.066406 265.132812 118.980469 262.089844 114.703125 257.96875 C 113.972656 257.316406 113.316406 256.53125 112.6875 255.769531 C 112.085938 255.011719 111.4375 254.300781 110.742188 253.632812 C 110.734375 253.628906 110.730469 253.625 110.726562 253.621094 Z M 106.933594 171.765625 L 106.976562 171.765625 C 108.011719 172.292969 108.523438 174.007812 108.976562 175.523438 C 109.230469 176.359375 109.464844 177.152344 109.773438 177.71875 C 110.566406 179.496094 112.234375 180.785156 113.742188 180.785156 C 114.484375 180.785156 115.8125 180.449219 116.363281 178.203125 C 116.363281 178.195312 116.363281 178.191406 116.363281 178.183594 C 116.515625 176.835938 115.617188 175.003906 114.898438 173.53125 C 114.667969 173.058594 114.449219 172.613281 114.292969 172.238281 L 112.480469 167.460938 C 109.800781 159.523438 108.519531 150.785156 107.917969 144.851562 C 107.882812 144.480469 107.875 144.019531 107.867188 143.527344 C 107.855469 142.417969 107.835938 141.164062 107.480469 140.402344 C 107.125 139.636719 106.160156 139.015625 105.316406 138.484375 C 105.070312 138.328125 104.835938 138.183594 104.636719 138.042969 C 102.375 136.464844 100.636719 134.871094 99.335938 133.167969 C 96.054688 128.96875 93.09375 122.023438 93.886719 115.988281 C 93.933594 115.703125 93.980469 115.398438 94.023438 115.078125 C 94.3125 113.066406 94.671875 110.570312 96.574219 109.894531 C 97.417969 111.480469 97.253906 113.398438 97.066406 115.605469 C 96.835938 118.332031 96.570312 121.425781 98.234375 124.605469 C 101.023438 129.824219 104.488281 132.816406 107.730469 132.816406 C 109.328125 132.816406 110.734375 132.035156 111.695312 130.621094 C 113.636719 127.75 113.519531 122.835938 111.386719 117.492188 C 107.316406 104.441406 109.269531 92.105469 116.601562 84.476562 C 116.773438 84.3125 116.953125 84.132812 117.128906 83.949219 C 117.933594 83.136719 118.761719 82.289062 119.8125 82.085938 C 120.691406 83.039062 119.832031 84.332031 119.074219 85.472656 C 118.863281 85.792969 118.667969 86.097656 118.515625 86.371094 C 113.085938 94.402344 114.132812 104.417969 115.238281 109.675781 C 115.316406 110.003906 115.398438 110.34375 115.476562 110.6875 C 116.191406 113.75 117 117.214844 119.339844 119.265625 C 119.351562 119.273438 119.363281 119.28125 119.375 119.289062 C 119.574219 119.382812 119.785156 119.429688 120.007812 119.421875 C 122.523438 119.421875 127.621094 113.980469 128.898438 112.25 C 131.445312 108.703125 132.617188 104.601562 133.589844 99.546875 C 133.726562 99.003906 133.835938 98.394531 133.941406 97.742188 C 134.25 95.878906 134.597656 93.765625 136.0625 92.890625 C 136.90625 93.027344 136.917969 93.8125 136.835938 94.992188 C 136.796875 95.335938 136.792969 95.679688 136.820312 96.023438 L 136.828125 96.023438 C 136.8125 96.226562 136.796875 96.769531 136.753906 98.328125 L 136.691406 100.652344 C 136.285156 110.984375 131.078125 117 126.042969 122.816406 C 121.039062 128.601562 115.863281 134.582031 115.816406 144.695312 C 115.570312 167.109375 126.042969 190.804688 143.832031 208.082031 L 143.851562 208.09375 C 144.058594 208.253906 144.316406 208.503906 144.589844 208.757812 C 145.375 209.507812 146.355469 210.4375 147.308594 210.4375 C 147.640625 210.4375 147.933594 210.332031 148.191406 210.121094 C 148.21875 210.097656 148.238281 210.074219 148.246094 210.039062 C 150.042969 204.449219 148.878906 198.140625 147.757812 192.039062 C 147.410156 190.167969 147.085938 188.398438 146.847656 186.660156 C 146.785156 186.308594 146.730469 185.882812 146.675781 185.433594 C 146.507812 184.074219 146.296875 182.378906 145.671875 181.472656 C 145.046875 180.566406 143.921875 179.828125 142.828125 179.097656 C 142.316406 178.761719 141.839844 178.441406 141.4375 178.128906 C 132.734375 171.296875 127.878906 160.527344 128.472656 149.328125 C 128.515625 148.679688 128.425781 147.980469 128.335938 147.300781 C 128.203125 146.257812 128.066406 145.191406 128.410156 144.292969 C 128.417969 145.941406 128.929688 147.453125 129.832031 148.433594 C 130.519531 149.203125 131.382812 149.585938 132.414062 149.582031 C 132.980469 149.574219 133.527344 149.46875 134.058594 149.265625 C 134.371094 156.179688 136.335938 167.777344 145.84375 169.671875 C 146.019531 169.691406 146.199219 169.699219 146.367188 169.699219 C 147.609375 169.699219 148.734375 169.253906 149.808594 168.332031 C 152.800781 165.578125 153.085938 160.902344 153.34375 156.777344 C 153.40625 155.757812 153.46875 154.789062 153.5625 153.886719 C 154.636719 155.074219 155.984375 155.699219 157.484375 155.699219 C 157.777344 155.699219 158.066406 155.675781 158.351562 155.632812 C 158.160156 162.511719 156.101562 168.578125 152.542969 172.742188 C 152.246094 173.125 152.175781 173.546875 152.339844 174.007812 C 152.492188 174.433594 152.785156 174.6875 153.226562 174.777344 C 153.242188 174.777344 153.253906 174.777344 153.265625 174.777344 C 154.65625 174.777344 156.238281 171.769531 157.511719 169.351562 C 157.949219 168.527344 158.328125 167.8125 158.601562 167.410156 C 164.6875 158.511719 168.429688 149.660156 169.730469 141.097656 C 170.574219 142.269531 172.082031 143.886719 173.996094 143.886719 C 174.21875 143.882812 174.4375 143.863281 174.652344 143.820312 C 174.246094 154.40625 169.757812 165.8125 160.921875 178.683594 L 160.050781 179.574219 C 155.703125 184.015625 155.675781 184.125 157.011719 190.9375 L 157.074219 191.261719 C 158.445312 199.75 158.902344 207.605469 158.398438 213.964844 C 155.269531 232.820312 162.359375 242.390625 169.867188 252.527344 C 176.011719 260.816406 182.371094 269.398438 183.363281 283.695312 C 181.789062 284.101562 180.617188 285.3125 179.484375 286.476562 C 178.277344 287.714844 177.140625 288.886719 175.675781 288.886719 C 174.9375 288.886719 174.164062 288.59375 173.304688 287.992188 C 173.324219 277.191406 169.992188 268.816406 162.515625 260.855469 C 152.320312 247.890625 147.277344 235.3125 147.53125 223.472656 L 147.53125 223.453125 C 147.484375 222.984375 147.28125 222.601562 146.921875 222.300781 L 146.90625 222.289062 C 143.90625 220.125 141 217.972656 138.421875 215.425781 C 133.226562 210.851562 129.289062 205.03125 125.484375 199.40625 C 123.390625 196.3125 121.226562 193.113281 118.878906 190.164062 C 118.871094 190.152344 118.863281 190.144531 118.851562 190.136719 C 117.714844 189.261719 116.589844 188.472656 115.5 187.707031 C 110.703125 184.335938 106.558594 181.425781 105.820312 174.140625 C 105.742188 173.429688 105.851562 172.507812 106.257812 172.054688 C 106.441406 171.851562 106.664062 171.753906 106.933594 171.765625 Z M 133.429688 143.082031 L 133.441406 143.09375 C 134.199219 143.773438 134.496094 145.234375 134.097656 146.277344 C 133.917969 146.75 133.519531 147.308594 132.660156 147.308594 L 132.566406 147.308594 C 132.011719 147.230469 131.582031 146.960938 131.273438 146.492188 C 130.773438 145.792969 130.566406 144.699219 130.757812 143.75 C 130.855469 142.902344 131.539062 142.527344 132.171875 142.527344 C 132.675781 142.527344 133.09375 142.714844 133.429688 143.089844 Z M 158.824219 151.703125 C 158.488281 152.792969 157.917969 153.363281 157.171875 153.363281 C 156.609375 153.363281 155.957031 153.027344 155.382812 152.441406 C 154.609375 151.652344 154.132812 150.59375 154.140625 149.675781 C 154.503906 148.851562 155.085938 148.417969 155.824219 148.417969 C 156.539062 148.417969 157.339844 148.824219 157.964844 149.515625 C 158.589844 150.207031 158.886719 150.992188 158.824219 151.710938 Z M 171.660156 115.140625 C 172.664062 116.113281 172.660156 117.859375 172.652344 119.558594 C 172.652344 120.621094 172.652344 121.625 172.875 122.464844 C 173.945312 129.828125 176.453125 137.507812 180.546875 145.964844 C 180.667969 146.167969 180.792969 146.429688 180.925781 146.703125 C 181.445312 147.777344 182.089844 149.117188 183.21875 149.117188 C 183.421875 149.113281 183.617188 149.074219 183.804688 149 L 183.835938 148.984375 C 184.710938 148.421875 184.652344 147.0625 184.59375 145.96875 C 184.578125 145.679688 184.566406 145.40625 184.570312 145.1875 C 184.617188 144.539062 184.613281 143.769531 184.613281 142.953125 C 184.613281 139.785156 184.601562 135.847656 187.164062 134.566406 C 190.144531 135.582031 190.046875 141.054688 189.945312 146.851562 C 189.816406 154.179688 189.671875 162.484375 196.003906 163.171875 L 196.023438 163.171875 C 197.195312 163.171875 198.273438 162.628906 199.324219 161.519531 L 199.339844 161.5 C 207.992188 149.09375 206.324219 131.082031 200.824219 118.722656 C 198.679688 114.800781 196.109375 110.949219 193.621094 107.226562 C 187.390625 97.90625 180.949219 88.273438 180.570312 76.53125 C 181.363281 77.140625 182.257812 77.441406 183.257812 77.429688 C 183.71875 77.425781 184.171875 77.371094 184.617188 77.261719 C 184.695312 77.851562 184.769531 78.441406 184.84375 79.035156 C 185.273438 82.503906 185.71875 86.09375 187.125 89.359375 C 188.542969 93.375 191.222656 96.183594 193.636719 96.183594 C 195.960938 96.183594 197.445312 93.660156 197.707031 89.269531 C 198.097656 83.96875 198.878906 77.152344 201.492188 71.503906 L 201.628906 71.210938 C 203.644531 67.011719 208.976562 55.898438 212.953125 54.4375 C 212.996094 54.46875 213.027344 54.503906 213.050781 54.554688 C 213.671875 55.875 210.511719 63.328125 208.621094 67.78125 C 207.632812 70.105469 206.917969 71.796875 206.835938 72.292969 C 202.621094 83.523438 202.511719 96.5 206.535156 107.90625 C 206.589844 108.027344 206.648438 108.164062 206.710938 108.316406 C 207.066406 109.171875 207.554688 110.339844 208.46875 110.339844 C 208.683594 110.335938 208.886719 110.28125 209.074219 110.175781 C 210.09375 109.65625 210.433594 108.082031 210.722656 106.695312 C 210.808594 106.222656 210.925781 105.757812 211.070312 105.304688 C 212.828125 101.660156 214.996094 101.457031 217.289062 101.238281 C 220.574219 100.925781 224.292969 100.578125 227.226562 89.894531 C 227.605469 90.386719 228.070312 90.769531 228.628906 91.042969 C 229.183594 91.316406 229.773438 91.453125 230.390625 91.449219 C 230.738281 91.449219 231.078125 91.40625 231.410156 91.324219 C 228.296875 106.910156 223.582031 109.757812 219.019531 112.511719 C 216.4375 114.070312 214.003906 115.542969 212.023438 119.246094 C 212.015625 119.257812 212.011719 119.265625 212.007812 119.277344 C 211.289062 121.847656 211.839844 125.308594 212.324219 128.363281 C 212.5625 129.835938 212.78125 131.230469 212.859375 132.457031 C 213.640625 139.941406 212.90625 147.550781 210.734375 154.46875 C 210.722656 154.5 210.722656 154.53125 210.734375 154.5625 C 210.925781 155.222656 211.390625 155.570312 212.070312 155.570312 C 213.195312 155.570312 214.726562 154.65625 215.84375 153.988281 C 216.207031 153.769531 216.523438 153.582031 216.746094 153.476562 C 223.183594 150.015625 227.839844 143.546875 229.5625 135.699219 C 230.214844 136.195312 230.949219 136.433594 231.765625 136.421875 C 232.46875 136.410156 233.140625 136.269531 233.78125 135.988281 C 232.53125 148.625 224.277344 159.507812 212.683594 163.765625 L 212.664062 163.773438 C 205.625 167.324219 202.835938 175.203125 200.375 182.160156 C 200.105469 182.9375 199.832031 183.703125 199.5625 184.453125 C 193.578125 199.871094 197.007812 212.902344 200.636719 226.699219 C 202.335938 233.144531 204.089844 239.808594 204.886719 246.882812 C 204.890625 246.910156 204.902344 246.9375 204.917969 246.960938 C 205.136719 247.292969 205.445312 247.460938 205.84375 247.46875 C 206.847656 247.46875 207.996094 246.121094 208.917969 245.039062 C 209.203125 244.683594 209.507812 244.351562 209.839844 244.039062 L 209.855469 244.023438 L 215.578125 237.917969 C 215.90625 240.066406 216.785156 242.207031 217.636719 244.277344 C 217.972656 245.09375 218.289062 245.875 218.570312 246.640625 C 217.230469 248.414062 215.621094 250.082031 214.070312 251.699219 C 213.167969 252.640625 212.230469 253.601562 211.371094 254.582031 C 205.105469 261.027344 203.894531 270.039062 202.714844 278.757812 C 202.644531 279.28125 202.578125 279.804688 202.503906 280.324219 C 200.554688 280.582031 198.957031 281.757812 197.414062 282.894531 C 195.90625 284.003906 194.484375 285.050781 192.925781 285.050781 C 192.175781 285.050781 191.441406 284.808594 190.683594 284.316406 C 192.640625 272.554688 194.449219 266.113281 195.644531 261.851562 C 198.296875 252.398438 198.296875 252.398438 191.6875 227.390625 L 190.65625 223.476562 C 190.546875 223.089844 190.460938 222.703125 190.398438 222.308594 C 190.191406 221.148438 189.957031 219.839844 188.929688 219.289062 C 175.402344 211.761719 166.386719 197.730469 164.761719 181.71875 C 165.617188 182.175781 166.4375 182.398438 167.199219 182.398438 C 168.042969 182.410156 168.777344 182.128906 169.398438 181.558594 C 172.105469 194.335938 177.167969 203.027344 184.875 208.105469 C 185.453125 208.585938 186.285156 209.160156 186.984375 209.160156 C 187.277344 209.171875 187.523438 209.0625 187.710938 208.835938 C 188.042969 208.445312 188.121094 207.714844 187.933594 206.683594 C 187.566406 202.042969 188.472656 197.414062 189.347656 192.933594 C 189.824219 190.488281 190.320312 187.957031 190.597656 185.457031 C 191.257812 179.65625 189.070312 174.378906 186.953125 169.269531 C 185.683594 166.203125 184.371094 163.03125 183.691406 159.785156 C 183.421875 158.273438 182.332031 156.929688 181.277344 155.625 C 180.882812 155.136719 180.511719 154.671875 180.191406 154.222656 C 179.972656 153.890625 179.753906 153.558594 179.53125 153.222656 C 178.457031 151.613281 177.355469 149.949219 176.6875 148.15625 C 176.683594 147.34375 176.738281 146.535156 176.84375 145.730469 C 176.980469 144.527344 177.117188 143.285156 176.902344 142.101562 C 176.667969 139.339844 174.96875 134.960938 171.394531 134.960938 C 171.160156 134.960938 170.929688 134.980469 170.703125 135.015625 C 168.738281 129.714844 168.078125 125.105469 168.621094 120.550781 C 168.648438 120.382812 168.679688 120.179688 168.710938 119.945312 C 168.945312 118.332031 169.429688 114.96875 170.980469 114.96875 C 171.222656 114.972656 171.449219 115.03125 171.660156 115.140625 Z M 185.035156 73.859375 C 184.746094 74.710938 184.132812 75.183594 183.316406 75.183594 C 182.441406 75.152344 181.738281 74.789062 181.207031 74.09375 C 180.757812 73.53125 180.628906 72.90625 180.816406 72.210938 C 181.195312 71.019531 182.113281 70.839844 182.625 70.839844 C 183.054688 70.851562 183.464844 70.957031 183.84375 71.15625 C 184.226562 71.355469 184.546875 71.628906 184.800781 71.976562 C 184.996094 72.25 185.117188 72.554688 185.15625 72.886719 C 185.199219 73.222656 185.15625 73.546875 185.035156 73.859375 Z M 231.671875 85.96875 C 231.875 86.234375 232.007812 86.53125 232.066406 86.859375 C 232.125 87.191406 232.101562 87.515625 232 87.835938 C 231.671875 88.761719 231.050781 88.953125 230.574219 88.953125 C 229.804688 88.953125 228.953125 88.4375 228.503906 87.699219 C 228.140625 87.105469 228.09375 86.476562 228.390625 85.910156 C 228.800781 85.113281 229.402344 84.945312 229.835938 84.945312 C 230.5 84.945312 231.222656 85.347656 231.671875 85.96875 Z M 233.832031 131.070312 C 234.195312 131.589844 234.257812 132.140625 234.023438 132.726562 C 233.644531 133.570312 232.976562 134.058594 232.195312 134.058594 C 231.851562 134.054688 231.527344 133.972656 231.230469 133.804688 C 230.929688 133.640625 230.683594 133.410156 230.5 133.121094 C 230.121094 132.527344 230.101562 131.785156 230.445312 131.046875 C 230.585938 130.75 230.792969 130.515625 231.070312 130.34375 C 231.347656 130.171875 231.648438 130.089844 231.976562 130.09375 C 232.757812 130.109375 233.375 130.4375 233.832031 131.070312 Z M 216.839844 184.972656 C 216.703125 185.683594 216.589844 186.300781 216.570312 186.695312 C 215.546875 194.214844 219.695312 200.746094 224.339844 206.6875 C 224.648438 207.113281 224.910156 207.566406 225.136719 208.046875 C 225.78125 209.289062 226.507812 210.699219 227.769531 210.699219 L 227.882812 210.699219 C 228.832031 210.519531 229.859375 209.382812 230.613281 208.554688 C 230.761719 208.394531 230.902344 208.242188 231.023438 208.113281 C 235.007812 203.957031 238.839844 199.042969 242.730469 193.09375 L 245.867188 202.234375 C 243.324219 206.667969 231.789062 219.125 225.578125 225.832031 C 224.53125 226.960938 223.609375 227.957031 222.925781 228.703125 C 222.953125 225.957031 223.375 223.792969 223.742188 221.871094 C 224.578125 217.582031 225.179688 214.480469 220.980469 208.660156 C 216.683594 202.976562 211.941406 195.351562 213.402344 186.761719 C 213.4375 186.5625 213.472656 186.339844 213.511719 186.097656 C 213.90625 183.675781 214.558594 179.640625 216.773438 179.050781 C 217.808594 179.820312 217.226562 182.914062 216.84375 184.972656 Z M 240.257812 252.355469 C 240.6875 251.894531 241.09375 251.460938 241.480469 251.269531 C 241.636719 251.191406 241.800781 251.15625 241.972656 251.15625 C 242.671875 251.15625 243.3125 251.808594 243.558594 252.4375 C 244.078125 253.550781 243.867188 254.804688 243.667969 256.015625 C 243.457031 257.265625 243.242188 258.558594 243.800781 259.746094 C 244.503906 260.988281 245.449219 261.648438 246.519531 261.648438 C 248.96875 261.648438 251.507812 258.328125 251.6875 255.765625 C 251.742188 255.324219 251.765625 254.851562 251.789062 254.394531 C 251.828125 253.53125 251.867188 252.625 252.144531 251.886719 C 252.519531 251 253.027344 250.550781 253.660156 250.550781 C 255.179688 250.550781 257.136719 253.183594 257.265625 254.902344 C 257.339844 255.675781 257.160156 256.375 256.964844 257.113281 C 256.902344 257.367188 256.832031 257.625 256.773438 257.894531 C 255.972656 261.714844 257.414062 265.550781 259.085938 269.128906 C 259.398438 270.925781 257.882812 272.566406 256.414062 274.160156 C 255.445312 275.207031 254.527344 276.199219 254.074219 277.246094 C 249.558594 273.03125 251.238281 271.027344 253.554688 268.265625 C 254.664062 266.945312 255.917969 265.445312 256.699219 263.476562 C 256.730469 263.390625 256.710938 263.324219 256.632812 263.277344 C 256.605469 263.257812 256.578125 263.25 256.546875 263.25 C 256.496094 263.25 256.457031 263.265625 256.425781 263.304688 C 255.371094 264.433594 254.394531 265.40625 253.53125 266.261719 C 248.738281 271.03125 247.125 272.640625 253.601562 280.472656 C 254.085938 281.289062 254.589844 282.261719 254.457031 283.339844 C 253.867188 285.863281 252.976562 287.554688 252.109375 289.183594 C 250.8125 291.632812 249.589844 293.941406 249.496094 298.742188 C 248.546875 299.210938 247.503906 299.527344 246.496094 299.839844 L 246.074219 299.976562 C 244.984375 294.644531 242.609375 289.515625 240.316406 284.554688 C 240.125 284.148438 239.933594 283.726562 239.738281 283.304688 L 239.621094 283.09375 C 239.25 282.433594 239.097656 282.160156 239.484375 281.425781 C 239.488281 281.417969 239.492188 281.410156 239.492188 281.402344 C 241.6875 275.316406 242.003906 269.140625 240.382812 264.003906 C 240.355469 263.925781 240.304688 263.890625 240.222656 263.890625 L 240.199219 263.890625 C 240.113281 263.90625 240.066406 263.957031 240.066406 264.046875 C 240.050781 264.53125 240.039062 265.015625 240.027344 265.5 C 239.914062 270.34375 239.792969 275.347656 238.113281 280.035156 C 236.546875 276.773438 235.386719 273.039062 234.46875 268.3125 C 234.453125 268.222656 234.398438 268.175781 234.304688 268.175781 C 234.214844 268.175781 234.160156 268.222656 234.144531 268.3125 C 233.191406 274.019531 235.871094 279.605469 238.457031 285.011719 C 239.308594 286.785156 240.117188 288.472656 240.785156 290.132812 C 239.605469 289.335938 238.351562 288.546875 237.132812 287.785156 C 232.394531 284.820312 227.496094 281.753906 225.097656 276.769531 C 224.683594 275.882812 224.15625 275.070312 223.511719 274.332031 C 222.917969 273.566406 222.160156 272.914062 221.425781 272.285156 C 220.453125 271.453125 219.445312 270.589844 218.863281 269.460938 C 218.589844 268.753906 218.605469 268.054688 218.914062 267.363281 C 219.105469 266.941406 219.421875 266.667969 219.863281 266.535156 C 220.191406 266.4375 220.523438 266.386719 220.863281 266.382812 C 221.542969 266.382812 222.0625 266.613281 222.566406 266.832031 C 222.988281 267.019531 223.390625 267.195312 223.839844 267.195312 C 224.105469 267.195312 224.359375 267.136719 224.597656 267.019531 L 224.613281 267.011719 C 225.347656 266.554688 225.429688 265.652344 225.503906 264.769531 C 225.589844 263.785156 225.671875 262.855469 226.613281 262.558594 C 226.753906 262.515625 226.902344 262.492188 227.050781 262.488281 C 227.949219 262.488281 228.664062 263.410156 229.363281 264.300781 C 229.917969 265.015625 230.492188 265.753906 231.1875 266.042969 C 231.457031 266.148438 231.742188 266.203125 232.03125 266.203125 C 233.402344 266.203125 234.417969 265.011719 234.777344 263.917969 C 236.085938 260.898438 235.089844 258.714844 234.128906 256.601562 C 233.363281 254.917969 232.632812 253.328125 233.191406 251.445312 C 233.4375 250.699219 234.082031 249.898438 234.914062 249.898438 C 234.992188 249.898438 235.070312 249.90625 235.148438 249.917969 C 235.921875 250.15625 236.269531 251.140625 236.574219 252 C 236.679688 252.335938 236.808594 252.65625 236.960938 252.972656 C 236.964844 252.980469 236.96875 252.992188 236.976562 252.996094 C 237.363281 253.515625 237.769531 253.765625 238.214844 253.765625 C 238.949219 253.753906 239.609375 253.042969 240.257812 252.355469 Z M 270.109375 266.355469 C 269.953125 266.421875 269.792969 266.453125 269.625 266.453125 C 268.539062 266.453125 267.492188 265.046875 266.644531 263.917969 C 266.359375 263.53125 266.085938 263.167969 265.832031 262.894531 C 266.558594 262.109375 267.433594 261.679688 268.316406 261.679688 C 268.804688 261.671875 269.253906 261.796875 269.671875 262.050781 C 270.089844 262.300781 270.40625 262.644531 270.625 263.082031 C 271.113281 264.0625 270.917969 265.253906 270.101562 266.363281 Z M 264.371094 249.300781 C 262.554688 250.25 260.679688 251.234375 258.859375 252.289062 C 258.125 251.097656 257.25 250.027344 256.226562 249.074219 C 256.664062 247.75 257.3125 246.476562 257.949219 245.246094 L 258.253906 244.652344 C 259.691406 242.105469 261.128906 239.46875 262.652344 236.675781 C 266.488281 229.632812 270.453125 222.355469 274.65625 216.1875 C 274.855469 219.132812 275.84375 222.035156 276.929688 225.007812 C 283.402344 239.3125 274.578125 243.945312 264.363281 249.304688 Z M 234.8125 300.015625 C 234.472656 299.472656 234.148438 298.957031 233.859375 298.539062 C 237.050781 298.597656 239.367188 299.082031 242.085938 301.234375 L 240.773438 301.75 C 239.550781 302.273438 238.296875 302.710938 237.011719 303.0625 C 236.296875 302.40625 235.5 301.136719 234.804688 300.023438 Z M 217.652344 280.015625 L 219.597656 273.570312 C 219.65625 273.621094 219.714844 273.671875 219.769531 273.726562 C 221.503906 275.28125 223.292969 276.886719 223.589844 279.296875 C 223.664062 279.769531 223.589844 280.164062 223.378906 280.410156 C 223.207031 280.605469 222.992188 280.695312 222.734375 280.683594 C 222.53125 280.679688 222.339844 280.640625 222.152344 280.566406 C 220.972656 280.171875 220.011719 279.925781 218.878906 279.925781 C 218.46875 279.933594 218.054688 279.964844 217.644531 280.019531 Z M 221.769531 252.847656 L 219.738281 264.175781 C 218.367188 264.601562 217.332031 265.523438 216.820312 266.785156 C 216.277344 268.125 216.414062 269.667969 217.1875 271.019531 L 217.195312 271.035156 C 217.847656 271.941406 217.828125 272.003906 217.449219 273.0625 L 215.742188 278.574219 C 215.617188 278.953125 215.472656 279.339844 215.324219 279.75 C 214.675781 281.496094 213.949219 283.453125 214.617188 285.25 C 211.835938 283.089844 208.429688 280.535156 204.785156 280.144531 C 207.042969 262.703125 207.957031 261.699219 218.785156 249.832031 L 219.640625 248.890625 C 220.097656 249.546875 220.480469 250.335938 220.855469 251.097656 C 221.140625 251.683594 221.4375 252.296875 221.769531 252.847656 Z M 229.777344 261.429688 L 231.859375 257.164062 L 231.941406 257.273438 C 233.335938 259.1875 233.765625 262.222656 232.0625 263.867188 C 231.722656 263.609375 230.628906 262.382812 230.140625 261.835938 Z M 222.917969 232.257812 L 231.152344 223.710938 C 229.542969 229.542969 227.621094 233.886719 225.117188 237.320312 C 223.878906 235.847656 223.289062 233.859375 222.914062 232.257812 Z M 231.015625 238.769531 C 230.371094 240.203125 229.808594 241.453125 229.417969 242.429688 L 226.628906 239.167969 C 229.585938 235.769531 231.417969 230.832031 232.957031 225.992188 C 233.109375 225.519531 233.25 225.019531 233.394531 224.496094 C 233.859375 222.839844 234.382812 220.972656 235.359375 219.683594 L 235.601562 219.664062 C 237.976562 223.335938 233.792969 232.613281 231.015625 238.769531 Z M 160.71875 202.207031 C 160.582031 198.90625 160.070312 195.578125 159.570312 192.359375 C 159.234375 190.21875 158.890625 188.007812 158.664062 185.820312 C 158.492188 184.957031 158.828125 184.054688 159.589844 183.351562 L 162.21875 180.496094 C 162.960938 188.816406 165.597656 196.894531 169.855469 203.886719 C 174.304688 211.191406 180.46875 217.175781 187.679688 221.195312 C 188.140625 222.921875 188.613281 224.6875 189.097656 226.472656 C 191.183594 234.230469 193.34375 242.253906 194.859375 249.730469 L 194.859375 249.75 C 195.929688 253.097656 193.144531 264.066406 190.90625 272.882812 C 189.691406 277.65625 188.640625 281.796875 188.433594 283.8125 C 188.160156 283.757812 187.890625 283.691406 187.617188 283.628906 C 186.96875 283.457031 186.304688 283.339844 185.632812 283.285156 C 184.683594 269.21875 178.25 260.355469 172.042969 251.78125 C 165.738281 243.082031 159.785156 234.875 159.859375 221.929688 C 160.835938 213.429688 161.117188 206.976562 160.71875 202.210938 Z M 168.332031 178.59375 C 168.183594 179.226562 167.820312 179.691406 167.242188 179.984375 C 167.09375 180.03125 166.9375 180.058594 166.777344 180.058594 C 165.75 180.058594 164.9375 178.949219 164.820312 177.910156 C 164.71875 177.074219 165.519531 176.042969 166.042969 175.363281 L 166.058594 175.34375 C 166.875 175.503906 167.554688 176.4375 167.980469 177.011719 C 168.355469 177.484375 168.46875 178.015625 168.328125 178.601562 Z M 185.636719 206.015625 C 178.9375 200.898438 174.394531 193.246094 172.140625 183.261719 C 172.003906 182.683594 171.894531 182.101562 171.777344 181.484375 C 171.136719 178.171875 170.472656 174.746094 167.15625 173.199219 C 170.453125 166.921875 174.164062 159.820312 176 151.914062 L 180.742188 158.777344 C 181.394531 159.609375 181.636719 160.753906 181.871094 161.859375 C 181.96875 162.320312 182.070312 162.796875 182.199219 163.242188 C 182.902344 165.613281 183.882812 167.898438 184.828125 170.105469 C 185.929688 172.671875 187.0625 175.324219 187.761719 178.117188 C 188.941406 183.355469 187.925781 188.503906 186.945312 193.476562 C 186.136719 197.542969 185.308594 201.730469 185.632812 206.019531 Z M 171.398438 137.371094 C 171.488281 137.355469 171.578125 137.347656 171.671875 137.351562 L 171.902344 137.351562 C 173.398438 138.402344 174.242188 139.839844 174.1875 141.210938 C 174.042969 141.359375 173.867188 141.433594 173.660156 141.429688 C 172.695312 141.429688 171.425781 139.890625 171.105469 138.675781 C 170.984375 138.234375 170.941406 137.648438 171.394531 137.371094 Z M 145.125 224.542969 C 145.507812 236.679688 150.605469 249.347656 159.871094 261.207031 L 159.523438 261.175781 C 147.875 260.007812 135.832031 258.804688 126.164062 251.960938 C 109.691406 239.40625 110.941406 214.199219 121.523438 197.921875 C 127.914062 207.226562 134.964844 216.835938 144.652344 223.464844 C 144.660156 223.46875 144.667969 223.472656 144.675781 223.476562 C 145.125 223.6875 145.121094 223.832031 145.121094 224.261719 C 145.121094 224.347656 145.121094 224.441406 145.125 224.542969 Z M 152.644531 284.554688 C 152.640625 284.546875 152.636719 284.542969 152.632812 284.535156 C 151.242188 282.304688 149.753906 281.222656 148.082031 281.222656 C 146.449219 281.222656 144.894531 282.230469 143.386719 283.207031 C 141.964844 284.128906 140.625 284.996094 139.324219 284.996094 L 139.207031 284.996094 C 139.011719 283.191406 140.351562 280.722656 141.328125 279.46875 L 141.34375 279.453125 C 143.449219 277.34375 145.125 275.667969 144.730469 272.511719 C 153.628906 274.9375 163.296875 278.492188 168.203125 286.296875 C 167.601562 286.21875 166.996094 286.175781 166.390625 286.175781 C 162.445312 286.175781 160.566406 288.121094 158.753906 290.003906 C 157.210938 291.605469 155.617188 293.257812 152.71875 293.699219 C 152.582031 291.851562 152.234375 291.058594 150.976562 289.792969 C 152.496094 288.609375 153.574219 286.574219 152.644531 284.554688 Z M 225.480469 293.179688 C 225.269531 292.722656 225.050781 292.25 224.777344 291.765625 C 224.242188 290.847656 223.550781 290.074219 222.703125 289.441406 C 222.050781 288.941406 221.234375 288.554688 220.445312 288.179688 C 219.289062 287.625 218.089844 287.054688 217.390625 286.128906 C 216.882812 285.425781 216.488281 284.257812 216.710938 283.394531 C 216.824219 282.929688 217.101562 282.609375 217.542969 282.425781 C 217.925781 282.230469 218.335938 282.140625 218.765625 282.152344 C 219.464844 282.152344 220.246094 282.34375 220.996094 282.527344 C 221.75 282.714844 222.515625 282.898438 223.207031 282.898438 C 224.617188 282.898438 225.457031 282.09375 225.839844 280.363281 C 226.152344 280.488281 226.464844 280.886719 226.71875 281.21875 C 226.816406 281.347656 226.910156 281.46875 227 281.570312 C 228.308594 283.066406 229.792969 284.746094 231.550781 286.164062 C 232.910156 287.261719 234.441406 288.21875 235.914062 289.144531 C 236.285156 289.375 236.652344 289.605469 237.011719 289.835938 C 237.394531 290.089844 237.789062 290.34375 238.167969 290.585938 C 239.539062 291.464844 240.957031 292.375 242.105469 293.515625 C 242.910156 295.675781 243.644531 298.019531 244.296875 300.488281 C 244.160156 300.351562 244.023438 300.21875 243.886719 300.082031 C 243.59375 299.777344 243.285156 299.46875 242.953125 299.191406 C 239.886719 296.492188 235.925781 296.390625 232.09375 296.292969 C 231.058594 296.269531 229.988281 296.242188 228.964844 296.15625 C 226.753906 295.949219 226.191406 294.726562 225.480469 293.179688 Z M 250.4375 228.355469 C 247.199219 232.703125 239.488281 243.640625 236.652344 248.109375 C 236.101562 247.777344 235.507812 247.613281 234.867188 247.625 C 234.441406 247.628906 234.023438 247.679688 233.609375 247.773438 C 232.726562 246.875 232.007812 245.601562 231.367188 244.472656 L 231.25 244.261719 C 231.308594 243.855469 232.472656 241.289062 232.980469 240.175781 C 233.183594 239.726562 233.347656 239.371094 233.417969 239.207031 C 233.75 238.277344 234.214844 237.175781 234.75 235.898438 C 237.164062 230.140625 240.800781 221.472656 236.839844 217.546875 L 246.851562 204.753906 C 247.714844 205.898438 248.347656 207.375 248.960938 208.808594 C 249.300781 209.601562 249.621094 210.347656 249.972656 211.035156 C 250.417969 211.957031 251.089844 213.167969 251.800781 214.449219 C 252.902344 216.4375 254.042969 218.496094 254.59375 219.917969 C 254.085938 222.78125 252.085938 225.839844 250.472656 228.296875 Z M 221.621094 215.316406 C 222.613281 216.425781 222.152344 218.222656 221.742188 219.8125 C 221.570312 220.414062 221.4375 221.027344 221.351562 221.652344 C 218.972656 233.6875 221.675781 236.941406 226.578125 242.855469 C 228.085938 244.667969 229.789062 246.71875 231.609375 249.351562 C 230.878906 250.402344 230.78125 251.617188 230.683594 252.792969 C 230.617188 253.640625 230.550781 254.515625 230.230469 255.300781 C 230.007812 255.707031 229.6875 256.386719 229.347656 257.113281 C 228.804688 258.261719 228.199219 259.5625 227.796875 260.160156 C 224.589844 260.40625 223.71875 261.839844 223.242188 264.558594 L 221.976562 264.304688 C 222.070312 263.566406 222.390625 262.113281 222.757812 260.445312 C 223.460938 257.242188 224.25 253.605469 224.054688 252.523438 C 224.050781 252.507812 224.046875 252.492188 224.035156 252.476562 C 219.539062 244.261719 214.832031 233.257812 218.410156 221.007812 C 218.472656 220.808594 218.546875 220.582031 218.613281 220.339844 C 219.121094 218.609375 219.972656 215.742188 221.621094 215.316406 Z M 297.277344 240.246094 C 292.75 244.554688 287.039062 248.285156 281.519531 251.886719 C 277.730469 254.359375 273.8125 256.917969 270.40625 259.59375 C 269.757812 259.507812 269.105469 259.457031 268.453125 259.445312 C 266.742188 259.445312 265.578125 259.980469 264.015625 261.484375 C 263.488281 261.6875 262.953125 261.84375 262.402344 261.957031 C 261.222656 262.226562 260.34375 262.425781 259.394531 264.089844 C 258.921875 261.890625 258.441406 259.625 259.191406 257.5 C 259.53125 256.949219 259.546875 256.007812 259.558594 255.25 C 259.558594 254.992188 259.566406 254.742188 259.585938 254.550781 C 261.445312 253.34375 263.558594 252.238281 265.796875 251.082031 C 271.367188 248.175781 277.140625 245.175781 279.992188 240.035156 C 282.648438 234.6875 280.863281 229.429688 279.132812 224.332031 C 277.921875 220.769531 276.671875 217.085938 276.910156 213.355469 C 277.558594 212.429688 278.300781 211.550781 279.015625 210.703125 C 279.746094 209.832031 280.511719 208.933594 281.179688 207.972656 L 282.996094 205.132812 C 283.101562 204.949219 283.203125 204.738281 283.308594 204.515625 C 283.523438 204.070312 283.761719 203.574219 284.054688 203.277344 C 284.363281 203.675781 284.570312 204.019531 284.550781 204.5 C 284.441406 205 284.328125 205.503906 284.214844 206.007812 C 282.875 212.007812 281.484375 218.207031 283.359375 224.390625 C 284.0625 227.046875 285.191406 229.511719 286.742188 231.78125 C 287.386719 232.980469 288.207031 233.589844 289.171875 233.589844 C 291.066406 233.589844 293.199219 231.25 294.910156 229.375 C 295.664062 228.546875 296.375 227.765625 296.921875 227.347656 L 296.941406 227.332031 C 307.800781 216.441406 308.441406 207.636719 308.910156 201.207031 C 309.183594 197.578125 309.386719 194.699219 311.375 192.65625 C 312.585938 193.433594 312.710938 196.394531 312.804688 198.574219 C 312.84375 199.523438 312.878906 200.339844 312.988281 200.902344 C 313.539062 203.410156 314.636719 204.679688 316.25 204.679688 C 319.355469 204.679688 323.4375 199.761719 324.753906 197.121094 C 327.453125 191.363281 326.410156 184.890625 325.40625 178.617188 C 325.167969 177.140625 324.945312 175.746094 324.765625 174.359375 C 324.761719 173.414062 325.0625 172.578125 325.675781 171.855469 C 326.8125 172.03125 327.503906 173.417969 328.0625 174.53125 C 328.207031 174.820312 328.34375 175.09375 328.46875 175.324219 C 329.980469 178.507812 330.644531 182.34375 330.4375 186.726562 C 330.171875 197.921875 323.523438 206.609375 316.371094 214.335938 C 316.363281 214.34375 316.355469 214.351562 316.351562 214.363281 C 310.941406 223.929688 305.414062 233.101562 297.277344 240.246094 Z M 316.679688 113.988281 C 316.816406 113.066406 317.011719 111.808594 317.472656 111.339844 L 317.84375 111.300781 C 320.53125 113.265625 318.921875 117.273438 317.855469 119.929688 L 317.777344 120.132812 C 316.058594 124.710938 312.082031 127.441406 308.234375 130.082031 C 306.914062 130.992188 305.550781 131.925781 304.292969 132.925781 C 304.226562 132.617188 304.210938 131.9375 304.261719 131.195312 C 304.261719 131.183594 304.261719 131.175781 304.261719 131.164062 C 304.097656 129.804688 305.339844 129.027344 306.4375 128.339844 C 306.621094 128.222656 306.800781 128.109375 306.953125 128.003906 C 308.1875 127.335938 309.332031 126.542969 310.386719 125.617188 C 311.445312 124.695312 312.386719 123.667969 313.214844 122.535156 C 314.042969 121.402344 314.734375 120.195312 315.292969 118.90625 C 315.851562 117.621094 316.261719 116.289062 316.523438 114.910156 C 316.578125 114.660156 316.628906 114.335938 316.679688 113.992188 Z M 293.03125 127.90625 L 291.8125 140.820312 C 291.492188 140.199219 291.121094 139.503906 290.703125 138.722656 C 286.625 131.078125 279.054688 116.863281 284.5625 111.621094 L 284.882812 111.582031 C 286.390625 113.257812 287.039062 115.558594 287.726562 117.992188 C 288.648438 121.257812 289.6875 124.945312 293.035156 127.90625 Z M 243.1875 76.144531 C 243.949219 77.164062 243.824219 78.5625 243.707031 79.917969 C 243.660156 80.433594 243.617188 80.917969 243.621094 81.375 C 243.511719 83.355469 243.449219 85.6875 243.8125 87.957031 C 244.433594 91.859375 245.738281 94.511719 247.691406 95.839844 C 248.210938 96.179688 248.78125 96.359375 249.402344 96.371094 C 250.292969 96.371094 251.171875 95.929688 252.015625 95.054688 C 256.640625 90.273438 259.265625 73.398438 259.15625 70.128906 C 259.261719 68.175781 258.984375 66.222656 258.71875 64.332031 C 258.625 63.675781 258.527344 62.992188 258.445312 62.328125 C 258.398438 61.910156 258.335938 61.347656 258.609375 61.023438 L 258.957031 60.964844 C 260.4375 61.859375 260.703125 64.109375 260.921875 65.921875 C 260.960938 66.28125 261.003906 66.617188 261.054688 66.929688 C 262.109375 73.929688 260.171875 81.238281 258.292969 88.304688 C 255.902344 97.324219 253.425781 106.652344 257.214844 115.355469 C 257.222656 115.371094 257.234375 115.386719 257.25 115.402344 C 258.113281 116.304688 259.109375 116.761719 260.210938 116.761719 C 265.585938 116.761719 272.445312 105.804688 276.128906 99.917969 C 276.871094 98.730469 277.515625 97.703125 277.972656 97.046875 C 277.976562 97.039062 277.980469 97.035156 277.984375 97.027344 C 278.011719 96.964844 279.828125 93.382812 279.847656 93.34375 C 279.996094 93.023438 280.136719 92.683594 280.28125 92.320312 C 280.78125 91.09375 281.351562 89.703125 282.269531 88.921875 C 282.636719 89.210938 282.847656 89.585938 282.90625 90.050781 C 283.644531 94.273438 275.199219 105.5 269.613281 112.929688 C 267.574219 115.648438 265.953125 117.796875 265.332031 118.882812 C 261.910156 123.675781 260.472656 129.769531 261.058594 136.988281 C 261.265625 142.003906 260.402344 146.839844 259.339844 152.203125 C 259.066406 154.105469 259.03125 156.089844 259 158.011719 C 258.992188 158.574219 258.984375 159.128906 258.96875 159.679688 C 258.230469 163.582031 254.933594 170.191406 251.410156 171.785156 C 249.988281 170.925781 249.125 163.144531 249.3125 161.5625 C 255.28125 152.683594 256.027344 141.570312 255.601562 133.808594 C 255.058594 123.917969 252.273438 113.738281 247.960938 105.878906 C 247.953125 105.863281 247.941406 105.851562 247.929688 105.839844 C 241.507812 99.46875 240.570312 90.269531 240.914062 83.683594 C 240.941406 83.382812 240.964844 83.070312 240.992188 82.75 C 241.167969 80.34375 241.371094 77.628906 243.1875 76.144531 Z M 279.0625 139.609375 C 278.988281 138.0625 278.914062 136.460938 280.296875 136.160156 C 282.351562 138.949219 282.191406 142.667969 281.695312 145.308594 C 280.574219 151.253906 276.652344 157.617188 272.578125 160.125 C 271.472656 160.65625 270.15625 161.027344 268.882812 161.382812 C 268.222656 161.566406 267.539062 161.761719 266.902344 161.972656 C 266.886719 161.78125 266.867188 161.5625 266.84375 161.339844 C 266.777344 160.667969 266.707031 159.910156 266.769531 159.4375 C 273.960938 154.789062 278.554688 147.933594 279.0625 141.097656 C 279.097656 140.601562 279.097656 140.105469 279.0625 139.609375 Z M 261.390625 177.917969 C 262.804688 176.589844 264.035156 175.4375 264.722656 174.613281 L 264.824219 174.625 C 265.996094 178.804688 266.296875 183.230469 266.589844 187.515625 C 266.675781 188.78125 266.765625 190.097656 266.878906 191.390625 C 268.019531 198.214844 267.378906 203.554688 264.855469 208.203125 L 264.777344 208.371094 C 264.386719 209.222656 263.859375 210.378906 263.011719 210.746094 C 262.460938 210.324219 261.871094 208.769531 261.472656 207.726562 C 261.359375 207.425781 261.257812 207.164062 261.179688 206.976562 C 260.667969 205.4375 259.734375 203.25 258.742188 200.933594 C 256.703125 196.175781 254.179688 190.242188 254.046875 186.964844 C 253.988281 184.875 258.265625 180.851562 261.390625 177.917969 Z M 289.222656 152.855469 C 286.441406 168.476562 282.15625 180.675781 275.738281 191.199219 C 275.175781 187.113281 275.941406 182.976562 276.683594 178.964844 C 277.417969 175 278.175781 170.894531 277.679688 166.78125 C 277.625 166.324219 277.613281 165.792969 277.605469 165.234375 C 277.574219 163.417969 277.535156 161.367188 275.933594 160.558594 C 279.695312 156.957031 282.277344 152.175781 283.816406 145.960938 Z M 289.222656 152.855469 " fill-opacity="1" fill-rule="nonzero"/></g></svg>