<svg xmlns="http://www.w3.org/2000/svg" xmlns:xlink="http://www.w3.org/1999/xlink" width="500" zoomAndPan="magnify" viewBox="0 0 375 374.999991" height="500" preserveAspectRatio="xMidYMid meet" version="1.0"><defs><clipPath id="c6952f8be6"><path d="M 187.5 0 C 83.945312 0 0 83.945312 0 187.5 C 0 291.054688 83.945312 375 187.5 375 C 291.054688 375 375 291.054688 375 187.5 C 375 83.945312 291.054688 0 187.5 0 Z M 187.5 0 " clip-rule="nonzero"/></clipPath><clipPath id="dd2d7a1d22"><path d="M 37.5 69 L 337.5 69 L 337.5 312.433594 L 37.5 312.433594 Z M 37.5 69 " clip-rule="nonzero"/></clipPath></defs><g clip-path="url(#c6952f8be6)"><rect x="-37.5" width="450" fill="#a2c36e" y="-37.499999" height="449.999989" fill-opacity="1"/></g><path fill="#fffff9" d="M 130.125 152.484375 C 124.976562 152.484375 120.792969 156.664062 120.792969 161.796875 C 120.792969 166.933594 124.976562 171.113281 130.125 171.113281 C 135.269531 171.113281 139.453125 166.933594 139.453125 161.796875 C 139.453125 156.664062 135.269531 152.484375 130.125 152.484375 Z M 130.125 166.359375 C 127.601562 166.359375 125.546875 164.3125 125.546875 161.796875 C 125.546875 159.28125 127.601562 157.238281 130.125 157.238281 C 132.648438 157.238281 134.699219 159.28125 134.699219 161.796875 C 134.699219 164.3125 132.648438 166.359375 130.125 166.359375 Z M 130.125 166.359375 " fill-opacity="1" fill-rule="nonzero"/><path fill="#fffff9" d="M 208.929688 171.113281 C 214.074219 171.113281 218.261719 166.933594 218.261719 161.796875 C 218.261719 156.664062 214.074219 152.484375 208.929688 152.484375 C 203.785156 152.484375 199.597656 156.664062 199.597656 161.796875 C 199.597656 166.933594 203.785156 171.113281 208.929688 171.113281 Z M 208.929688 157.238281 C 211.453125 157.238281 213.507812 159.28125 213.507812 161.796875 C 213.507812 164.3125 211.453125 166.359375 208.929688 166.359375 C 206.402344 166.359375 204.351562 164.3125 204.351562 161.796875 C 204.351562 159.28125 206.40625 157.238281 208.929688 157.238281 Z M 208.929688 157.238281 " fill-opacity="1" fill-rule="nonzero"/><g clip-path="url(#dd2d7a1d22)"><path fill="#fffff9" d="M 337.171875 227.097656 C 336.855469 225.09375 335.765625 223.351562 334.109375 222.191406 C 329.039062 218.632812 324.25 214.625 319.878906 210.277344 C 316.207031 206.621094 312.785156 202.667969 309.671875 198.527344 C 315.992188 186.230469 322.351562 167.472656 318.660156 145.613281 C 310.382812 96.597656 256.269531 77.425781 253.96875 76.632812 C 220.558594 65.136719 173.488281 71.398438 172.96875 71.480469 C 171.582031 71.707031 170.332031 71.75 169.527344 71.75 C 168.359375 71.75 167.175781 71.65625 166.011719 71.46875 C 156.117188 69.871094 146.242188 69.910156 136.664062 71.589844 C 99.324219 78.140625 68.035156 108.386719 60.574219 145.140625 C 54.757812 173.804688 64.640625 197.6875 71.652344 210.160156 C 67.765625 215.351562 63.496094 220.296875 58.910156 224.859375 C 53.53125 230.207031 47.632812 235.144531 41.382812 239.535156 C 39.464844 240.875 38.210938 242.886719 37.84375 245.203125 C 37.476562 247.527344 38.054688 249.855469 39.542969 251.839844 C 42 255.105469 46.304688 256.214844 50.011719 254.539062 C 53.3125 253.046875 56.515625 251.304688 59.550781 249.355469 C 60.382812 248.824219 61.183594 248.285156 61.953125 247.746094 L 54.792969 261.015625 C 53.644531 263.140625 53.457031 265.65625 54.28125 267.925781 C 55.109375 270.199219 56.867188 272.015625 59.117188 272.914062 C 63.25 274.558594 67.875 272.808594 69.863281 268.832031 L 79.070312 250.460938 L 79.070312 267.007812 C 79.070312 271.507812 82.734375 275.164062 87.242188 275.164062 C 91.75 275.164062 95.414062 271.507812 95.414062 267.007812 L 95.414062 252.007812 C 96.261719 253.285156 97.167969 254.542969 98.121094 255.757812 C 100.070312 258.238281 102.238281 260.566406 104.570312 262.683594 C 107.09375 264.980469 110.699219 265.472656 113.859375 263.898438 C 115.902344 262.882812 117.390625 261.121094 118.046875 258.941406 C 118.695312 256.785156 118.417969 254.425781 117.289062 252.464844 C 113.71875 246.285156 111.011719 239.699219 109.246094 232.878906 C 108.347656 229.410156 107.695312 225.855469 107.285156 222.273438 C 107.671875 222.292969 108.058594 222.324219 108.445312 222.324219 C 110.273438 222.324219 112.09375 222.113281 113.894531 221.6875 C 115.484375 221.3125 117.011719 220.765625 118.476562 220.082031 L 118.476562 283 C 118.476562 287.804688 120.554688 292.308594 124.175781 295.34375 C 131.664062 301.625 147.507812 312.160156 169.527344 312.160156 C 191.539062 312.160156 207.386719 301.625 214.875 295.34375 C 218.5 292.304688 220.574219 287.804688 220.574219 283 L 220.574219 220.085938 C 222.039062 220.769531 223.570312 221.316406 225.160156 221.691406 C 226.957031 222.117188 228.777344 222.332031 230.605469 222.332031 C 230.992188 222.332031 231.378906 222.296875 231.769531 222.277344 C 231.355469 225.859375 230.707031 229.414062 229.804688 232.886719 C 228.039062 239.707031 225.332031 246.300781 221.761719 252.46875 C 220.628906 254.425781 220.351562 256.785156 221.003906 258.945312 C 221.65625 261.125 223.144531 262.886719 225.285156 263.949219 C 228.351562 265.484375 231.960938 264.984375 234.480469 262.691406 C 236.808594 260.570312 238.980469 258.242188 240.933594 255.761719 C 241.878906 254.546875 242.789062 253.289062 243.636719 252.011719 L 243.636719 267.011719 C 243.636719 271.511719 247.300781 275.171875 251.808594 275.171875 C 256.316406 275.171875 259.984375 271.511719 259.984375 267.011719 L 259.984375 250.46875 L 269.1875 268.835938 C 271.148438 272.746094 275.863281 274.539062 279.9375 272.917969 C 282.183594 272.019531 283.945312 270.203125 284.769531 267.929688 C 285.59375 265.660156 285.410156 263.140625 284.261719 261.019531 L 277.097656 247.753906 C 277.867188 248.292969 278.667969 248.828125 279.5 249.359375 C 282.53125 251.304688 285.742188 253.050781 289.042969 254.542969 C 292.738281 256.214844 297.050781 255.109375 299.578125 251.75 C 299.734375 251.546875 299.839844 251.316406 299.972656 251.105469 C 302.183594 249.851562 303.578125 247.523438 303.578125 244.945312 L 303.578125 233.324219 L 310.25 246.628906 C 311.980469 250.074219 315.992188 251.59375 319.5625 250.164062 C 321.511719 249.386719 323.039062 247.8125 323.753906 245.84375 C 324.46875 243.878906 324.308594 241.695312 323.316406 239.851562 L 318.332031 230.613281 C 318.488281 230.71875 318.648438 230.820312 318.808594 230.925781 C 321.292969 232.519531 323.925781 233.953125 326.640625 235.179688 C 329.84375 236.628906 333.574219 235.675781 335.757812 232.769531 C 336.988281 231.128906 337.492188 229.117188 337.171875 227.097656 Z M 113.171875 254.847656 C 113.65625 255.691406 113.773438 256.65625 113.496094 257.574219 C 113.21875 258.484375 112.597656 259.21875 111.648438 259.699219 C 110.351562 260.34375 108.828125 260.140625 107.773438 259.171875 C 105.636719 257.230469 103.648438 255.09375 101.863281 252.824219 C 100.789062 251.457031 99.777344 250.023438 98.855469 248.574219 C 97.789062 246.890625 95.785156 246.136719 93.867188 246.683594 C 91.949219 247.242188 90.660156 248.960938 90.660156 250.957031 L 90.660156 267.007812 C 90.660156 268.886719 89.128906 270.414062 87.242188 270.414062 C 85.355469 270.414062 83.824219 268.886719 83.824219 267.007812 L 83.824219 249.175781 C 83.824219 247.074219 82.449219 245.335938 80.402344 244.851562 C 80.042969 244.765625 79.683594 244.722656 79.332031 244.722656 C 77.679688 244.722656 76.175781 245.636719 75.398438 247.1875 L 65.617188 266.703125 C 64.753906 268.425781 62.667969 269.21875 60.878906 268.496094 C 59.875 268.097656 59.121094 267.320312 58.753906 266.304688 C 58.386719 265.296875 58.464844 264.21875 58.976562 263.273438 L 66.773438 248.828125 C 67.765625 246.992188 67.355469 244.746094 65.785156 243.367188 C 64.191406 241.976562 61.976562 241.875 60.265625 243.117188 C 59.230469 243.867188 58.140625 244.617188 56.984375 245.355469 C 54.144531 247.179688 51.140625 248.808594 48.050781 250.207031 C 46.386719 250.953125 44.449219 250.453125 43.277344 248.890625 C 42.632812 248.039062 42.375 246.992188 42.539062 245.949219 C 42.703125 244.917969 43.261719 244.023438 44.109375 243.425781 C 50.585938 238.882812 56.691406 233.765625 62.261719 228.226562 C 67.164062 223.355469 71.734375 218.066406 75.867188 212.5 C 79.847656 211.742188 83.988281 211.800781 87.878906 212.675781 C 94.625 214.191406 99.386719 217.734375 102.328125 220.65625 C 102.730469 225.179688 103.507812 229.691406 104.644531 234.078125 C 106.515625 241.308594 109.386719 248.300781 113.171875 254.847656 Z M 211.820312 291.707031 C 204.828125 297.574219 190.035156 307.410156 169.527344 307.410156 C 149.011719 307.410156 134.222656 297.570312 127.230469 291.707031 C 124.6875 289.578125 123.226562 286.402344 123.226562 283.003906 L 123.226562 226.808594 C 124.085938 222.847656 126.191406 215.734375 130.886719 210.902344 C 132.136719 209.617188 133.476562 208.578125 134.765625 207.902344 C 137.90625 206.261719 141.097656 206.144531 143.222656 206.335938 C 144.554688 206.453125 145.683594 205.488281 145.804688 204.179688 C 145.921875 202.871094 144.957031 201.71875 143.652344 201.597656 C 139.691406 201.246094 135.863281 201.964844 132.5625 203.695312 C 130.832031 204.601562 129.074219 205.945312 127.480469 207.585938 C 125.78125 209.335938 124.398438 211.308594 123.230469 213.34375 L 123.230469 207.246094 C 123.230469 202.441406 126.222656 198.199219 130.980469 196.394531 C 135.050781 194.828125 137.863281 192.992188 140.339844 191.378906 C 143.242188 189.488281 145.535156 187.992188 149.148438 187.253906 C 151.769531 186.71875 154.582031 186.71875 157.507812 187.265625 C 158.789062 187.511719 160.035156 186.652344 160.277344 185.359375 C 160.519531 184.070312 159.664062 182.828125 158.375 182.589844 C 154.84375 181.9375 151.417969 181.9375 148.191406 182.597656 C 146.097656 183.027344 144.355469 183.671875 142.777344 184.429688 C 143.097656 183.320312 143.480469 182.214844 143.953125 181.113281 C 146.085938 176.238281 150.785156 172.753906 156.210938 172.015625 C 160.617188 171.417969 165.09375 171.117188 169.527344 171.117188 C 173.960938 171.117188 178.441406 171.417969 182.84375 172.015625 C 188.273438 172.753906 192.96875 176.238281 195.160156 181.246094 C 195.609375 182.285156 195.972656 183.351562 196.289062 184.4375 C 194.707031 183.671875 192.96875 183.027344 190.867188 182.601562 C 187.644531 181.941406 184.210938 181.941406 180.683594 182.589844 C 179.394531 182.832031 178.542969 184.070312 178.78125 185.363281 C 179.019531 186.652344 180.257812 187.515625 181.550781 187.265625 C 184.472656 186.71875 187.289062 186.71875 189.914062 187.257812 C 193.527344 187.996094 195.816406 189.488281 198.714844 191.378906 C 201.195312 193 204.007812 194.828125 208.203125 196.441406 C 212.832031 198.203125 215.828125 202.449219 215.828125 207.253906 L 215.828125 213.34375 C 214.65625 211.308594 213.277344 209.339844 211.574219 207.589844 C 209.980469 205.945312 208.21875 204.597656 206.492188 203.695312 C 203.199219 201.972656 199.386719 201.253906 195.40625 201.601562 C 194.097656 201.71875 193.136719 202.875 193.253906 204.183594 C 193.371094 205.488281 194.460938 206.453125 195.835938 206.335938 C 197.949219 206.144531 201.144531 206.261719 204.289062 207.90625 C 205.1875 208.375 206.589844 209.273438 208.167969 210.902344 C 212.863281 215.734375 214.96875 222.851562 215.828125 226.808594 L 215.828125 283.003906 C 215.824219 286.398438 214.363281 289.570312 211.820312 291.707031 Z M 226.253906 217.066406 C 224.230469 216.585938 222.332031 215.769531 220.574219 214.667969 L 220.574219 207.246094 C 220.574219 206.882812 220.515625 206.539062 220.496094 206.183594 C 231.757812 193.644531 237.960938 177.519531 237.960938 160.640625 C 237.960938 130.351562 217.605469 103.363281 188.457031 95.011719 C 187.207031 94.648438 185.878906 95.378906 185.519531 96.640625 C 185.160156 97.902344 185.886719 99.222656 187.152344 99.582031 C 214.265625 107.355469 233.207031 132.464844 233.207031 160.644531 C 233.207031 175.246094 228.210938 189.242188 219.082031 200.515625 C 217.3125 196.6875 214.070312 193.582031 209.785156 191.953125 C 206.433594 190.664062 204.066406 189.179688 201.828125 187.722656 C 201.433594 184.835938 200.671875 182.007812 199.460938 179.203125 C 196.667969 172.820312 190.546875 168.261719 183.484375 167.300781 C 178.871094 166.675781 174.175781 166.359375 169.53125 166.359375 C 164.886719 166.359375 160.191406 166.679688 155.574219 167.300781 C 148.515625 168.261719 142.394531 172.820312 139.535156 179.355469 C 138.382812 182.027344 137.625 184.839844 137.234375 187.722656 C 134.992188 189.179688 132.617188 190.667969 129.167969 191.992188 C 124.957031 193.59375 121.738281 196.691406 119.976562 200.515625 C 110.847656 189.246094 105.851562 175.246094 105.851562 160.644531 C 105.851562 134.285156 122.46875 110.371094 147.203125 101.128906 C 148.4375 100.671875 149.058594 99.300781 148.601562 98.074219 C 148.140625 96.839844 146.769531 96.21875 145.542969 96.675781 C 118.957031 106.605469 101.097656 132.3125 101.097656 160.644531 C 101.097656 177.519531 107.296875 193.644531 118.5625 206.183594 C 118.539062 206.539062 118.480469 206.886719 118.480469 207.246094 L 118.480469 214.667969 C 116.726562 215.769531 114.828125 216.585938 112.800781 217.066406 C 110.476562 217.617188 108.105469 217.699219 105.738281 217.359375 C 102.335938 213.960938 96.824219 209.816406 88.929688 208.039062 C 84.652344 207.078125 80.140625 207.015625 75.753906 207.746094 C 69.085938 195.855469 59.738281 173.191406 65.242188 146.085938 C 72.316406 111.199219 102.027344 82.492188 137.488281 76.273438 C 146.539062 74.6875 155.878906 74.648438 165.257812 76.164062 C 168.101562 76.621094 170.9375 76.625 173.800781 76.164062 C 174.234375 76.09375 220.0625 69.992188 252.421875 81.128906 C 254.613281 81.882812 306.160156 100.140625 313.96875 146.402344 C 317.425781 166.867188 311.492188 184.507812 305.550781 196.148438 C 302.035156 195.609375 298.433594 195.683594 295.015625 196.449219 C 288.261719 197.96875 283.59375 201.59375 280.808594 204.453125 C 278.753906 205.898438 276.496094 206.960938 274.085938 207.605469 C 272.304688 208.082031 270.445312 208.320312 268.585938 208.320312 C 268.53125 208.320312 268.472656 208.320312 268.421875 208.320312 C 275.316406 195.414062 284.019531 172.425781 278.480469 145.140625 C 275.3125 129.539062 267.804688 114.757812 256.777344 102.40625 C 255.894531 101.421875 254.394531 101.347656 253.417969 102.214844 C 252.441406 103.089844 252.355469 104.59375 253.230469 105.574219 C 263.699219 117.296875 270.816406 131.304688 273.816406 146.085938 C 279.320312 173.191406 269.972656 195.855469 263.304688 207.746094 C 258.921875 207.011719 254.40625 207.074219 250.128906 208.035156 C 242.238281 209.808594 236.722656 213.957031 233.324219 217.355469 C 230.953125 217.695312 228.578125 217.613281 226.253906 217.066406 Z M 278.125 217.019531 C 277.742188 218.492188 277.292969 219.953125 276.800781 221.40625 C 274.28125 218.710938 271.859375 215.90625 269.566406 213.007812 C 271.511719 212.9375 273.445312 212.695312 275.304688 212.199219 C 276.707031 211.824219 278.066406 211.324219 279.378906 210.726562 C 279.054688 212.847656 278.65625 214.957031 278.125 217.019531 Z M 291 250.207031 C 287.910156 248.808594 284.90625 247.179688 282.0625 245.355469 C 280.910156 244.613281 279.820312 243.867188 278.785156 243.117188 C 277.070312 241.878906 274.855469 241.980469 273.265625 243.367188 C 271.695312 244.746094 271.289062 246.988281 272.28125 248.828125 L 280.078125 263.273438 C 280.589844 264.21875 280.667969 265.296875 280.300781 266.304688 C 279.933594 267.320312 279.175781 268.097656 278.171875 268.496094 C 276.382812 269.207031 274.296875 268.425781 273.433594 266.703125 L 263.65625 247.1875 C 262.714844 245.300781 260.703125 244.359375 258.648438 244.851562 C 256.605469 245.335938 255.226562 247.078125 255.226562 249.175781 L 255.226562 267.007812 C 255.226562 268.886719 253.695312 270.414062 251.808594 270.414062 C 249.925781 270.414062 248.390625 268.886719 248.390625 267.007812 L 248.390625 250.957031 C 248.390625 248.960938 247.101562 247.242188 245.183594 246.683594 C 244.765625 246.5625 244.34375 246.507812 243.929688 246.507812 C 242.441406 246.507812 241.035156 247.253906 240.203125 248.570312 C 239.277344 250.023438 238.265625 251.457031 237.191406 252.824219 C 235.40625 255.09375 233.417969 257.230469 231.28125 259.175781 C 230.222656 260.136719 228.703125 260.335938 227.316406 259.648438 C 226.457031 259.21875 225.832031 258.484375 225.558594 257.570312 C 225.28125 256.65625 225.398438 255.6875 225.882812 254.847656 C 229.667969 248.304688 232.535156 241.316406 234.410156 234.078125 C 235.546875 229.695312 236.324219 225.1875 236.726562 220.660156 C 239.667969 217.738281 244.429688 214.191406 251.171875 212.675781 C 255.070312 211.800781 259.203125 211.738281 263.1875 212.503906 C 267.089844 217.761719 271.394531 222.757812 275.988281 227.402344 C 276.027344 227.441406 276.0625 227.480469 276.101562 227.515625 C 276.335938 227.753906 276.558594 227.996094 276.792969 228.230469 C 282.363281 233.769531 288.46875 238.882812 294.945312 243.429688 C 295.792969 244.027344 296.351562 244.921875 296.515625 245.949219 C 296.679688 246.996094 296.421875 248.042969 295.710938 248.984375 C 294.597656 250.453125 292.664062 250.964844 291 250.207031 Z M 331.902344 229.984375 C 331.125 231.019531 329.769531 231.378906 328.601562 230.84375 C 326.097656 229.710938 323.667969 228.390625 321.375 226.917969 C 320.4375 226.324219 319.558594 225.71875 318.722656 225.109375 C 317.1875 223.988281 315.105469 224.082031 313.679688 225.34375 C 312.238281 226.601562 311.871094 228.652344 312.773438 230.332031 L 319.132812 242.105469 C 319.484375 242.765625 319.539062 243.515625 319.285156 244.21875 C 319.03125 244.921875 318.5 245.464844 317.800781 245.746094 C 316.527344 246.253906 315.109375 245.710938 314.496094 244.496094 L 306.523438 228.59375 C 305.664062 226.875 303.835938 226.003906 301.953125 226.460938 C 300.082031 226.902344 298.824219 228.488281 298.824219 230.414062 L 298.824219 240.539062 C 298.464844 240.179688 298.089844 239.839844 297.667969 239.542969 C 291.542969 235.242188 285.765625 230.40625 280.472656 225.183594 C 281.339844 222.894531 282.117188 220.570312 282.726562 218.21875 C 283.644531 214.679688 284.273438 211.035156 284.609375 207.371094 C 286.972656 205.050781 290.75 202.285156 296.054688 201.09375 C 299.117188 200.40625 302.363281 200.347656 305.5 200.925781 C 308.84375 205.421875 312.550781 209.699219 316.527344 213.652344 C 321.089844 218.191406 326.085938 222.375 331.375 226.085938 C 331.96875 226.503906 332.363281 227.128906 332.476562 227.847656 C 332.59375 228.578125 332.410156 229.3125 331.902344 229.984375 Z M 331.902344 229.984375 " fill-opacity="1" fill-rule="nonzero"/></g><path fill="#fffff9" d="M 157.9375 265.789062 C 154.070312 265.789062 150.925781 268.929688 150.925781 272.789062 C 150.925781 276.652344 154.070312 279.792969 157.9375 279.792969 C 161.804688 279.792969 164.949219 276.652344 164.949219 272.789062 C 164.949219 268.929688 161.804688 265.789062 157.9375 265.789062 Z M 157.9375 275.039062 C 156.691406 275.039062 155.679688 274.03125 155.679688 272.789062 C 155.679688 271.550781 156.691406 270.542969 157.9375 270.542969 C 159.183594 270.542969 160.195312 271.550781 160.195312 272.789062 C 160.195312 274.03125 159.183594 275.039062 157.9375 275.039062 Z M 157.9375 275.039062 " fill-opacity="1" fill-rule="nonzero"/><path fill="#fffff9" d="M 176.480469 265.789062 C 172.613281 265.789062 169.464844 268.929688 169.464844 272.789062 C 169.464844 276.652344 172.613281 279.792969 176.480469 279.792969 C 180.347656 279.792969 183.492188 276.652344 183.492188 272.789062 C 183.492188 268.929688 180.347656 265.789062 176.480469 265.789062 Z M 176.480469 275.039062 C 175.234375 275.039062 174.222656 274.03125 174.222656 272.789062 C 174.222656 271.550781 175.234375 270.542969 176.480469 270.542969 C 177.726562 270.542969 178.738281 271.550781 178.738281 272.789062 C 178.738281 274.03125 177.726562 275.039062 176.480469 275.039062 Z M 176.480469 275.039062 " fill-opacity="1" fill-rule="nonzero"/></svg>