<svg xmlns="http://www.w3.org/2000/svg" xmlns:xlink="http://www.w3.org/1999/xlink" width="500" zoomAndPan="magnify" viewBox="0 0 375 374.999991" height="500" preserveAspectRatio="xMidYMid meet" version="1.0"><defs><clipPath id="eccf9e1aa2"><path d="M 187.5 0 C 83.945312 0 0 83.945312 0 187.5 C 0 291.054688 83.945312 375 187.5 375 C 291.054688 375 375 291.054688 375 187.5 C 375 83.945312 291.054688 0 187.5 0 Z M 187.5 0 " clip-rule="nonzero"/></clipPath><clipPath id="2daaa00b6d"><path d="M 58 61.183594 L 295.460938 61.183594 L 295.460938 301.183594 L 58 301.183594 Z M 58 61.183594 " clip-rule="nonzero"/></clipPath></defs><g clip-path="url(#eccf9e1aa2)"><rect x="-37.5" width="450" fill="#fec743" y="-37.499999" height="449.999989" fill-opacity="1"/></g><g clip-path="url(#2daaa00b6d)"><path fill="#ffffff" d="M 75.523438 256.675781 L 75.164062 256.449219 C 73.289062 259.410156 71.523438 262.210938 69.855469 264.8125 C 68.003906 267.6875 66.597656 270.542969 65.402344 273.230469 C 64.191406 275.917969 63.246094 278.429688 62.480469 280.757812 C 61.648438 283.28125 61.039062 285.539062 60.59375 287.589844 C 61.40625 285.875 62.410156 284.046875 63.582031 282.140625 C 64.855469 280.007812 66.308594 277.695312 67.394531 275.066406 C 68.519531 272.261719 69.761719 269.214844 71.109375 265.921875 C 71.726562 264.234375 72.648438 262.617188 73.476562 260.867188 C 74.140625 259.511719 74.835938 258.113281 75.523438 256.675781 Z M 110.710938 217.878906 C 110.757812 217.839844 110.796875 217.769531 110.84375 217.707031 C 108.851562 218.605469 106.9375 219.917969 105.207031 221.363281 C 100.847656 225.046875 97.28125 229.351562 94.117188 233.496094 C 90.9375 237.628906 88.355469 241.894531 85.792969 245.804688 C 84.496094 247.75 83.402344 249.71875 82.285156 251.589844 C 81.175781 253.488281 80.074219 255.292969 79.085938 257.066406 C 78.140625 258.878906 77.234375 260.609375 76.351562 262.296875 C 75.515625 263.984375 74.546875 265.5625 73.890625 267.195312 C 72.460938 270.425781 71.148438 273.402344 69.941406 276.152344 C 68.613281 279.0625 67.003906 281.359375 65.636719 283.445312 C 62.855469 287.574219 60.929688 290.964844 60.359375 293.871094 C 60.273438 294.261719 60.21875 294.636719 60.164062 294.996094 C 60.828125 294.003906 61.734375 292.957031 62.917969 291.980469 C 64.316406 290.808594 66.050781 289.636719 68.175781 288.582031 C 69.246094 288.035156 70.371094 287.542969 71.6875 287.066406 C 72.367188 286.808594 73.054688 286.691406 73.765625 286.535156 C 74.484375 286.390625 75.226562 286.1875 75.976562 286.117188 C 78.984375 285.679688 82.300781 285.664062 85.894531 285.914062 C 88.8125 286.117188 91.921875 286.535156 95.1875 286.964844 C 94.171875 284.3125 92.929688 280.640625 91.953125 275.597656 C 91.65625 273.933594 91.328125 272.160156 91.226562 270.199219 C 90.992188 268.25 91.09375 266.125 91.140625 263.859375 C 91.398438 261.601562 91.671875 259.121094 92.351562 256.753906 C 92.640625 255.535156 92.960938 254.277344 93.28125 252.996094 C 93.625 251.722656 94.070312 250.4375 94.476562 249.09375 C 95.257812 246.398438 96.382812 243.664062 97.5 240.761719 C 98.058594 239.300781 98.777344 237.871094 99.441406 236.371094 C 99.792969 235.636719 100.136719 234.878906 100.480469 234.113281 C 100.847656 233.363281 101.261719 232.617188 101.667969 231.851562 C 102.496094 230.351562 103.230469 228.742188 104.199219 227.210938 C 105.152344 225.65625 106.066406 224.113281 107.125 222.433594 C 108.359375 220.683594 109.625 219.355469 110.710938 217.878906 Z M 134.152344 268.839844 C 134.121094 268.808594 134.089844 268.777344 134.066406 268.738281 C 133.457031 268.015625 132.796875 267.210938 132.0625 266.34375 C 131.28125 265.414062 130.585938 264.359375 129.835938 263.210938 C 129.460938 262.625 129.070312 262.023438 128.664062 261.398438 C 128.289062 260.765625 127.914062 260.101562 127.507812 259.425781 C 126.703125 258.050781 125.9375 256.566406 125.09375 254.957031 C 124.277344 253.355469 123.449219 251.652344 122.589844 249.789062 C 122.199219 248.804688 121.808594 247.796875 121.402344 246.757812 C 121.199219 246.21875 120.996094 245.6875 120.792969 245.15625 C 120.652344 244.601562 120.503906 244.039062 120.363281 243.460938 C 120.089844 242.320312 119.753906 241.136719 119.503906 239.925781 C 119.347656 238.699219 119.175781 237.425781 119.003906 236.128906 C 118.769531 234.824219 118.839844 233.480469 118.785156 232.109375 C 118.769531 231.421875 118.753906 230.726562 118.738281 230.015625 C 118.730469 229.304688 118.832031 228.601562 118.871094 227.875 C 119.160156 223.574219 119.941406 218.925781 121.644531 214.21875 C 119.980469 214.867188 118.308594 215.375 116.675781 215.847656 C 116.503906 216.527344 116.238281 217.128906 115.964844 217.683594 C 115.4375 218.761719 114.8125 219.660156 114.179688 220.496094 C 112.9375 222.144531 111.59375 223.589844 110.679688 224.875 C 109.742188 226.421875 108.820312 227.921875 107.90625 229.382812 C 106.96875 230.835938 106.246094 232.382812 105.441406 233.824219 C 105.050781 234.566406 104.628906 235.269531 104.269531 235.996094 C 103.941406 236.730469 103.589844 237.457031 103.261719 238.160156 C 102.605469 239.605469 101.886719 240.980469 101.324219 242.367188 C 100.222656 245.15625 99.082031 247.765625 98.285156 250.351562 C 97.855469 251.636719 97.414062 252.863281 97.03125 254.089844 C 96.703125 255.316406 96.367188 256.503906 96.054688 257.675781 C 95.320312 260 95.054688 262.125 94.734375 264.15625 C 94.625 266.242188 94.4375 268.179688 94.578125 270.011719 C 94.578125 271.832031 94.8125 273.535156 94.984375 275.121094 C 95.59375 279.671875 96.398438 283.179688 97.023438 285.84375 C 97.328125 285.101562 97.671875 284.351562 98.160156 283.585938 C 101.050781 279.125 106.734375 274.777344 113.703125 271.699219 C 117.199219 270.167969 120.707031 269.113281 124.011719 268.539062 C 127.320312 268.007812 130.453125 267.960938 133.085938 268.554688 C 133.441406 268.625 133.808594 268.722656 134.152344 268.839844 Z M 167.632812 215.527344 C 171.058594 215.289062 174.480469 214.320312 177.757812 212.757812 C 173.566406 213.65625 169.636719 213.78125 166.046875 213.796875 C 161.390625 213.8125 157.261719 213.234375 153.550781 212.695312 C 152.714844 212.554688 151.902344 212.398438 151.105469 212.234375 C 152.816406 212.960938 154.550781 213.609375 156.324219 214.171875 C 159.960938 215.289062 163.773438 215.832031 167.632812 215.527344 Z M 180.15625 218.027344 C 179.992188 217.964844 179.835938 217.910156 179.679688 217.855469 C 179.289062 217.707031 178.898438 217.464844 178.609375 217.144531 C 175.199219 218.636719 171.589844 219.597656 167.96875 219.863281 C 163.476562 220.207031 159.066406 219.527344 155.066406 218.300781 C 147.054688 215.761719 140.410156 211.703125 134.035156 208.390625 C 130.921875 206.804688 127.726562 205.394531 124.851562 205.160156 C 123.394531 205.058594 122.308594 205.277344 120.894531 205.925781 C 119.503906 206.554688 118.136719 207.382812 116.808594 208.234375 C 114.148438 209.96875 111.632812 211.890625 109.25 213.8125 C 109.109375 213.929688 108.992188 214.046875 108.851562 214.140625 C 109.585938 213.796875 110.351562 213.476562 111.15625 213.203125 C 114.226562 212.21875 117.308594 211.5 120.269531 210.296875 C 121.027344 210.023438 121.777344 209.75 122.542969 209.460938 C 122.933594 209.34375 123.292969 209.1875 123.621094 209 L 124.703125 208.453125 C 124.875 208.367188 125.078125 208.25 125.34375 208.132812 C 125.617188 208.015625 125.773438 207.90625 126.179688 207.804688 C 126.539062 207.695312 126.890625 207.570312 127.304688 207.585938 C 127.710938 207.554688 128.140625 207.570312 128.421875 207.640625 C 128.71875 207.710938 129.09375 207.773438 129.3125 207.859375 L 130.039062 208.101562 C 130.53125 208.265625 130.875 208.421875 131.3125 208.59375 C 134.613281 209.898438 137.980469 211.367188 141.261719 213.0625 C 147.875 216.324219 154.558594 220.136719 161.882812 222.316406 C 165.3125 223.347656 168.902344 222.839844 172.597656 221.347656 C 175.011719 220.410156 177.496094 219.183594 180.15625 218.027344 Z M 190.582031 201.878906 C 190.222656 201.753906 189.917969 201.660156 189.472656 201.472656 C 189.035156 201.300781 188.621094 201.097656 188.230469 200.871094 C 187.433594 200.417969 186.683594 199.917969 185.9375 199.347656 C 184.445312 198.222656 182.960938 196.9375 181.53125 195.351562 C 181.109375 194.90625 180.71875 194.414062 180.328125 193.90625 C 179.78125 195.234375 179.429688 196.1875 179.21875 196.882812 C 178.882812 197.949219 178.726562 198.394531 178.375 198.425781 C 178.117188 198.457031 177.726562 197.996094 177.695312 196.679688 C 177.65625 195.570312 178.0625 193.882812 178.898438 191.765625 C 178.476562 190.992188 178.101562 190.109375 177.945312 188.921875 L 177.8125 187.886719 C 176.097656 189.328125 175.160156 190.703125 174.722656 191.765625 C 174.003906 193.5625 174.058594 194.429688 173.683594 194.453125 C 173.542969 194.46875 173.394531 194.28125 173.238281 193.789062 C 173.089844 193.304688 173.003906 192.476562 173.253906 191.304688 C 173.527344 190.164062 174.191406 188.691406 175.503906 187.261719 C 176.605469 186.035156 178.164062 184.863281 180.09375 183.785156 C 179.53125 183.394531 178.984375 183.003906 178.4375 182.613281 C 176.457031 183.332031 174.925781 184.519531 173.839844 185.644531 C 172.628906 186.933594 171.824219 188.074219 171.269531 188.992188 C 171.011719 189.453125 170.785156 189.84375 170.582031 190.164062 C 170.417969 190.515625 170.277344 190.789062 170.144531 191 C 169.886719 191.421875 169.683594 191.59375 169.535156 191.5625 C 169.394531 191.539062 169.308594 191.304688 169.324219 190.773438 C 169.332031 190.515625 169.363281 190.179688 169.441406 189.757812 C 169.535156 189.351562 169.699219 188.882812 169.902344 188.316406 C 170.316406 187.207031 171.066406 185.816406 172.371094 184.285156 C 173.308594 183.214844 174.582031 182.035156 176.339844 181.121094 C 175.566406 180.558594 174.785156 179.996094 173.972656 179.4375 L 173.785156 179.289062 C 173.269531 179.570312 172.792969 179.894531 172.339844 180.238281 C 171.535156 180.894531 170.839844 181.574219 170.277344 182.238281 C 169.105469 183.550781 168.367188 184.722656 167.8125 185.613281 C 166.726562 187.425781 166.453125 188.207031 166.101562 188.144531 C 165.859375 188.113281 165.59375 187.121094 166.4375 184.941406 C 166.851562 183.871094 167.515625 182.496094 168.734375 180.964844 C 169.324219 180.183594 170.058594 179.375 170.996094 178.585938 C 171.269531 178.367188 171.558594 178.148438 171.863281 177.945312 L 170.792969 177.257812 C 169.972656 176.71875 169.136719 176.203125 168.3125 175.679688 C 167.039062 176.34375 166.015625 177.351562 165.296875 178.210938 C 164.859375 178.742188 164.5 179.25 164.195312 179.695312 C 163.9375 180.167969 163.648438 180.558594 163.484375 180.933594 C 163.328125 181.300781 163.171875 181.613281 163.023438 181.886719 C 162.9375 182.152344 162.867188 182.363281 162.78125 182.542969 C 162.617188 182.902344 162.460938 183.074219 162.320312 183.089844 C 162.171875 183.089844 162.046875 182.933594 161.945312 182.496094 C 161.898438 182.277344 161.835938 181.988281 161.835938 181.644531 C 161.867188 181.300781 161.945312 180.894531 162.046875 180.417969 C 162.125 179.925781 162.375 179.4375 162.609375 178.828125 C 162.898438 178.265625 163.257812 177.648438 163.71875 176.976562 C 163.960938 176.664062 164.242188 176.328125 164.515625 175.984375 C 164.804688 175.632812 165.179688 175.320312 165.539062 174.96875 C 165.742188 174.78125 165.984375 174.59375 166.234375 174.40625 C 165.492188 173.976562 164.773438 173.523438 164.039062 173.109375 C 163.804688 172.976562 163.578125 172.859375 163.34375 172.734375 C 162.429688 173.4375 161.8125 174.523438 161.367188 175.40625 C 160.789062 176.601562 160.421875 177.648438 160.117188 178.421875 C 159.535156 179.996094 159.199219 180.605469 158.878906 180.542969 C 158.605469 180.503906 158.402344 179.8125 158.636719 178.046875 C 158.769531 177.179688 158.964844 176.023438 159.550781 174.578125 C 159.824219 173.875 160.203125 173.078125 160.8125 172.273438 C 160.976562 172.070312 161.132812 171.867188 161.320312 171.648438 C 159.722656 170.824219 158.113281 170.089844 156.542969 169.511719 C 155.316406 169.082031 154.074219 168.761719 153.089844 168.707031 C 152.613281 168.675781 152.238281 168.761719 152.089844 168.824219 C 152.074219 168.824219 152.050781 168.847656 152.035156 168.847656 C 152.050781 168.824219 152.066406 168.792969 152.066406 168.777344 C 152.074219 168.730469 152.074219 168.675781 152.019531 168.792969 L 151.949219 168.917969 C 151.972656 169.082031 152.003906 169.300781 152.074219 169.558594 C 152.207031 170.050781 152.410156 170.628906 152.636719 171.203125 C 153.105469 172.359375 153.683594 173.523438 154.269531 174.679688 C 155.472656 176.992188 156.785156 179.234375 158.074219 181.441406 C 158.707031 182.550781 159.339844 183.621094 159.992188 184.808594 C 160.523438 185.847656 161.1875 186.847656 161.765625 187.839844 C 162.390625 188.796875 163.070312 189.6875 163.71875 190.585938 C 164.453125 191.382812 165.09375 192.273438 165.882812 192.96875 C 168.917969 195.929688 172.441406 197.894531 175.894531 199.652344 C 176.316406 199.871094 176.746094 200.089844 177.167969 200.292969 C 177.574219 200.464844 177.960938 200.636719 178.359375 200.808594 C 179.15625 201.144531 179.90625 201.574219 180.6875 201.722656 C 181.46875 201.910156 182.21875 202.214844 182.960938 202.316406 C 183.710938 202.402344 184.429688 202.488281 185.140625 202.558594 C 187.144531 202.589844 188.964844 202.269531 190.582031 201.878906 Z M 188.933594 232.9375 C 189.777344 228.53125 190.902344 224.398438 191.246094 222.097656 C 189.441406 221.496094 187.636719 220.847656 185.84375 220.183594 L 185.9375 220.480469 C 182.015625 221.667969 178.304688 223.777344 174.175781 225.390625 C 172.113281 226.1875 169.902344 226.851562 167.59375 227.085938 C 165.28125 227.34375 162.898438 227.09375 160.742188 226.492188 C 152.597656 224.035156 145.851562 220.089844 139.371094 216.855469 C 136.128906 215.195312 132.945312 213.78125 129.765625 212.515625 C 129.390625 212.367188 128.9375 212.164062 128.609375 212.046875 L 128.101562 211.875 C 127.914062 211.804688 127.851562 211.820312 127.742188 211.789062 C 127.59375 211.734375 127.59375 211.773438 127.570312 211.757812 C 127.570312 211.734375 127.492188 211.789062 127.453125 211.789062 C 127.4375 211.789062 127.390625 211.804688 127.367188 211.820312 C 124.679688 217.347656 123.511719 223.027344 123.121094 228.179688 C 123.074219 228.84375 122.964844 229.5 122.972656 230.148438 C 122.972656 230.78125 122.988281 231.429688 122.988281 232.054688 C 123.035156 233.324219 122.933594 234.566406 123.136719 235.738281 C 123.261719 236.933594 123.394531 238.089844 123.527344 239.230469 C 123.722656 240.347656 124.011719 241.410156 124.230469 242.453125 C 124.34375 242.984375 124.460938 243.507812 124.578125 244.007812 C 124.75 244.5 124.921875 244.976562 125.09375 245.453125 C 125.429688 246.40625 125.757812 247.351562 126.078125 248.242188 C 126.859375 250.046875 127.609375 251.792969 128.34375 253.386719 C 129.085938 254.972656 129.765625 256.472656 130.46875 257.832031 C 130.820312 258.511719 131.132812 259.175781 131.453125 259.816406 C 131.804688 260.429688 132.132812 261.023438 132.453125 261.585938 C 133.085938 262.742188 133.660156 263.8125 134.285156 264.695312 C 134.917969 265.648438 135.496094 266.5 136.011719 267.296875 C 136.027344 267.296875 136.027344 267.3125 136.027344 267.3125 C 136.128906 265.015625 136.605469 262.28125 137.746094 259.160156 C 138.816406 256.261719 140.378906 252.996094 142.890625 249.6875 C 144.117188 248.054688 145.679688 246.28125 147.515625 244.851562 C 149.289062 243.328125 151.292969 241.917969 153.535156 240.574219 C 157.988281 237.902344 163.34375 235.636719 169.527344 234.144531 C 175.300781 232.835938 181.859375 232.109375 188.933594 232.9375 Z M 193.722656 192.289062 C 193.707031 192.257812 193.691406 192.234375 193.691406 192.1875 C 193.675781 192.085938 193.558594 191.984375 193.519531 191.867188 C 193.339844 191.625 193.128906 191.367188 192.792969 191.101562 C 192.144531 190.570312 191.222656 190.0625 190.222656 189.585938 C 189.222656 189.109375 188.128906 188.683594 186.941406 188.144531 C 186.414062 187.917969 185.546875 187.480469 185.09375 187.207031 C 184.578125 186.847656 184.039062 186.480469 183.507812 186.105469 C 183.046875 185.792969 182.570312 185.472656 182.09375 185.152344 C 181.09375 185.644531 180.226562 186.167969 179.445312 186.683594 L 180.5 187.136719 C 182.382812 187.933594 184.070312 188.78125 185.90625 189.601562 C 187.722656 190.414062 189.613281 191.234375 191.511719 191.8125 C 192.285156 192.054688 193.097656 192.242188 193.722656 192.289062 Z M 196.429688 223.707031 C 196.070312 223.605469 195.695312 223.503906 195.324219 223.386719 C 194.183594 228.773438 190.785156 241.511719 193.285156 244.820312 C 193.644531 243.78125 194.339844 243 195.363281 242.539062 C 194.441406 236.425781 194.589844 229.585938 196.429688 223.707031 Z M 213.203125 171.804688 L 213.203125 171.78125 C 213.203125 171.703125 213.171875 171.601562 213.171875 171.515625 C 213.144531 171.34375 213.105469 171.140625 213.042969 170.933594 C 212.941406 170.511719 212.785156 170.050781 212.613281 169.582031 C 211.199219 166.074219 208.871094 162.574219 206.558594 159.34375 C 204.21875 156.09375 201.71875 153.019531 199.164062 150.160156 C 196.601562 147.300781 193.980469 144.621094 191.261719 142.34375 C 189.917969 141.21875 188.535156 140.179688 187.191406 139.414062 C 186.621094 139.109375 186.09375 138.890625 185.664062 138.757812 C 185.632812 139.554688 185.703125 140.453125 185.859375 141.390625 C 186.125 142.515625 186.398438 143.671875 186.839844 144.902344 C 187.097656 144.636719 187.347656 144.433594 187.566406 144.265625 C 188.402344 143.71875 188.832031 143.671875 189.035156 143.90625 C 189.238281 144.132812 189.167969 144.582031 188.675781 145.316406 C 188.457031 145.738281 188.097656 146.253906 187.707031 146.910156 C 188.113281 147.777344 188.574219 148.667969 189.050781 149.597656 C 189.847656 148.917969 190.558594 148.480469 191.136719 148.222656 C 192.332031 147.699219 192.894531 147.800781 193.011719 148.066406 C 193.144531 148.355469 192.824219 148.746094 191.972656 149.511719 C 191.511719 149.988281 190.769531 150.589844 190.035156 151.503906 C 190.050781 151.519531 190.066406 151.535156 190.066406 151.558594 C 190.613281 152.597656 191.105469 153.695312 191.582031 154.820312 C 193.386719 153.222656 195.019531 152.496094 196.070312 152.027344 C 197.703125 151.535156 198.335938 151.558594 198.429688 151.847656 C 198.515625 152.136719 198.054688 152.628906 196.78125 153.390625 C 196.15625 153.8125 195.363281 154.429688 194.371094 155.171875 C 193.910156 155.585938 193.386719 156.046875 192.824219 156.570312 C 192.707031 156.6875 192.589844 156.828125 192.472656 156.960938 C 192.792969 157.726562 193.128906 158.507812 193.457031 159.289062 C 193.792969 159.085938 194.097656 158.914062 194.386719 158.765625 C 195.625 158.164062 196.632812 157.828125 197.398438 157.640625 C 198.945312 157.265625 199.578125 157.351562 199.6875 157.625 C 199.796875 157.914062 199.304688 158.34375 197.960938 159.070312 C 197.28125 159.445312 196.40625 159.890625 195.363281 160.515625 C 195.035156 160.71875 194.691406 160.960938 194.339844 161.226562 C 194.660156 161.890625 194.972656 162.535156 195.324219 163.183594 C 197.945312 161.335938 200.132812 160.703125 201.507812 160.296875 C 203.28125 159.96875 203.960938 160.039062 204.015625 160.34375 C 204.085938 160.632812 203.53125 161.078125 202.023438 161.742188 C 200.835938 162.417969 198.804688 163.238281 196.421875 165.050781 C 197.632812 166.738281 198.757812 168.441406 199.929688 170.160156 C 199.796875 168.863281 199.929688 167.371094 200.492188 166.019531 L 201.429688 163.746094 L 203.625 164.792969 C 204.265625 165.089844 204.792969 165.464844 205.300781 165.871094 C 205.917969 165.628906 206.511719 165.496094 207.019531 165.441406 C 207.933594 165.324219 208.636719 165.378906 209.160156 165.464844 C 210.199219 165.660156 210.542969 166.003906 210.519531 166.292969 C 210.503906 166.605469 210.097656 166.808594 209.175781 166.996094 C 208.707031 167.097656 208.121094 167.214844 207.394531 167.402344 C 207.269531 167.433594 207.121094 167.472656 206.972656 167.519531 C 207.105469 167.675781 207.238281 167.824219 207.355469 167.980469 C 208.277344 169.183594 208.980469 170.441406 209.589844 171.703125 C 210.285156 173.125 210.863281 174.570312 211.394531 176.015625 C 211.988281 175.4375 212.449219 174.867188 212.667969 174.296875 C 212.839844 173.960938 212.902344 173.625 213.003906 173.3125 C 213.058594 173.210938 213.089844 172.859375 213.113281 172.585938 Z M 213.5625 181.324219 C 213.617188 180.808594 213.5625 180.183594 213.34375 179.453125 C 212.558594 179.828125 211.832031 180.402344 211.199219 180.910156 C 210.386719 177.257812 207.542969 171.242188 203.757812 169.886719 C 203.570312 172.960938 203.007812 178.335938 204.667969 180.910156 C 202.835938 179.996094 201.257812 179.101562 199.984375 177.46875 C 199.03125 176.242188 198.210938 175.03125 197.429688 173.828125 C 195.867188 171.460938 194.496094 169.082031 193.144531 167.042969 C 193.144531 167.042969 193.066406 166.941406 193.058594 166.925781 C 192.636719 166.074219 192.199219 165.238281 191.800781 164.402344 C 192.449219 166.410156 193.128906 168.253906 193.832031 169.917969 C 197.023438 177.554688 200.835938 180.691406 200.476562 181.097656 C 200.390625 181.183594 200.101562 181.066406 199.59375 180.746094 C 199.078125 180.457031 198.382812 179.910156 197.5 179.101562 C 196.492188 178.164062 195.324219 176.820312 194.105469 175.085938 C 194.253906 175.609375 194.425781 176.125 194.589844 176.664062 L 194.886719 177.601562 C 194.933594 177.757812 194.988281 177.992188 195.050781 178.234375 L 195.089844 178.414062 L 195.121094 178.726562 L 195.152344 179.046875 L 195.152344 179.21875 C 195.136719 179.320312 195.121094 179.421875 195.105469 179.539062 C 195.019531 179.980469 194.964844 180.324219 194.527344 180.878906 C 194.339844 181.121094 194.082031 181.355469 193.894531 181.480469 C 193.730469 181.582031 193.558594 181.675781 193.371094 181.746094 C 193.214844 181.800781 192.980469 181.886719 192.878906 181.902344 L 192.605469 181.949219 C 192.449219 181.972656 192.175781 182.003906 192.097656 181.988281 C 191.605469 182.003906 191.292969 181.972656 190.957031 181.964844 C 190.363281 181.902344 189.792969 181.863281 189.222656 181.816406 C 187.808594 181.683594 186.597656 181.457031 185.398438 181.121094 C 184.898438 180.980469 184.390625 180.816406 183.914062 180.660156 C 184.617188 181.152344 185.3125 181.644531 186.007812 182.152344 L 187.464844 183.191406 C 188.066406 183.566406 188.316406 183.683594 188.894531 183.957031 C 189.917969 184.449219 191.058594 184.925781 192.214844 185.503906 C 193.371094 186.082031 194.542969 186.730469 195.679688 187.714844 C 196.257812 188.175781 196.804688 188.804688 197.273438 189.53125 C 197.46875 189.9375 197.71875 190.296875 197.835938 190.757812 L 198.039062 191.4375 C 198.054688 191.492188 198.039062 191.40625 198.0625 191.59375 L 198.078125 191.65625 L 198.09375 191.757812 L 198.125 191.96875 L 198.148438 192.21875 L 198.164062 192.648438 C 198.179688 192.9375 198.179688 193.210938 198.109375 193.515625 C 198.0625 193.804688 197.992188 194.109375 197.835938 194.453125 C 197.703125 194.773438 197.46875 195.09375 197.210938 195.382812 C 196.96875 195.6875 196.664062 195.859375 196.34375 196.0625 C 196.070312 196.203125 195.765625 196.320312 195.492188 196.40625 C 195.253906 196.460938 194.972656 196.523438 194.746094 196.554688 L 194.097656 196.578125 C 192.488281 196.523438 191.347656 196.148438 190.222656 195.773438 C 187.996094 195.007812 186.078125 194.0625 184.210938 193.140625 C 184.085938 193.070312 183.96875 193.015625 183.835938 192.9375 C 183.914062 193.023438 183.96875 193.125 184.039062 193.210938 C 185.210938 194.6875 186.5 195.984375 187.753906 197.085938 C 188.386719 197.644531 189.027344 198.136719 189.628906 198.558594 C 190.253906 199.003906 190.785156 199.238281 191.535156 199.582031 C 192.605469 200.027344 193.832031 200.089844 194.933594 199.871094 C 196.039062 199.667969 197.171875 199.277344 198.234375 199.160156 C 198.4375 199.152344 198.65625 199.136719 198.859375 199.136719 C 199.117188 199.105469 199.390625 199.074219 199.6875 199.050781 C 199.046875 198.441406 198.726562 197.492188 198.804688 196.867188 C 198.8125 196.320312 199.148438 195.828125 199.523438 195.421875 C 199.945312 195.039062 200.539062 194.671875 201.203125 194.570312 C 201.867188 194.46875 202.484375 194.6875 202.976562 195.210938 C 203.484375 195.742188 203.703125 196.523438 203.640625 197.390625 C 203.515625 198.386719 203.0625 199.019531 202.53125 199.363281 C 203.335938 199.628906 203.976562 199.933594 204.605469 200.246094 C 205.863281 200.886719 206.964844 201.386719 207.683594 201.332031 C 208.058594 201.332031 208.417969 201.230469 208.886719 200.980469 L 209.003906 200.941406 L 209.058594 200.894531 L 209.183594 200.824219 L 209.691406 200.511719 L 209.949219 200.347656 C 210.027344 200.292969 210.042969 200.261719 210.097656 200.214844 C 210.167969 200.128906 210.253906 200.058594 210.339844 199.988281 C 211.136719 199.261719 211.902344 198.097656 212.324219 196.828125 C 212.871094 195.164062 212.972656 193.34375 212.628906 191.796875 C 212.378906 190.726562 211.949219 189.804688 211.371094 189.039062 C 210.910156 189.429688 210.285156 189.703125 209.574219 189.742188 C 207.855469 189.773438 206.472656 188.691406 206.488281 187.347656 C 206.527344 183.886719 213.15625 185.183594 213.5625 181.324219 Z M 214.734375 96.441406 C 215.046875 96.152344 215.367188 95.863281 215.6875 95.574219 C 214.5 96.527344 213.304688 97.496094 212.089844 98.496094 C 209.964844 100.359375 207.644531 102.179688 205.605469 104.296875 C 204.566406 105.34375 203.5 106.382812 202.414062 107.453125 C 201.375 108.523438 200.4375 109.746094 199.4375 110.957031 C 197.5625 113.386719 195.59375 116.027344 194.761719 118.6875 C 194.511719 119.304688 194.425781 120.070312 194.324219 120.695312 C 194.355469 120.953125 194.285156 121.289062 194.355469 121.46875 C 194.425781 121.664062 194.402344 121.875 194.542969 122.023438 C 194.847656 122.726562 196.476562 123.898438 197.835938 125.375 C 198.757812 126.398438 199.554688 127.652344 200.132812 128.964844 C 200 128.144531 199.84375 127.363281 199.59375 126.628906 L 199.390625 126.023438 L 199.296875 125.71875 L 198.992188 125.085938 C 198.570312 124.21875 198.148438 123.367188 197.75 122.5 L 199.59375 121.398438 L 200.164062 121.023438 C 200.21875 120.96875 200.203125 120.96875 200.25 120.9375 C 200.273438 120.890625 200.34375 120.867188 200.375 120.8125 C 200.460938 120.609375 200.609375 120.328125 200.648438 119.765625 C 200.75 118.710938 200.78125 116.957031 201.1875 115.511719 C 201.71875 112.707031 203.039062 109.902344 204.621094 107.640625 C 206.269531 105.445312 207.941406 103.5625 209.558594 101.640625 C 211.308594 99.855469 212.972656 98.035156 214.734375 96.441406 Z M 219.5 166.855469 C 221.101562 163.910156 220.0625 159.851562 218.03125 156.539062 C 216.929688 154.695312 215.585938 152.964844 214.078125 151.519531 C 213.304688 150.761719 212.449219 150.042969 211.574219 149.308594 C 212.652344 151.332031 213.648438 153.40625 214.585938 155.5625 C 215.914062 158.75 217.164062 162.0625 217.882812 165.730469 C 218.515625 165.832031 219.09375 166.207031 219.445312 166.769531 C 219.453125 166.800781 219.484375 166.824219 219.5 166.855469 Z M 224.753906 210.679688 C 229.003906 202.066406 231.242188 192.40625 227.027344 183.378906 C 225.347656 179.796875 223.441406 175.578125 220.398438 172.9375 C 219.453125 172.109375 218.703125 171.679688 218.039062 171.273438 C 218.039062 171.320312 218.054688 171.375 218.054688 171.429688 L 217.8125 171.75 L 217.5625 171.90625 L 217.5625 171.9375 L 217.8125 172.242188 L 217.921875 172.273438 L 217.984375 172.3125 L 217.921875 173.164062 C 217.882812 173.453125 217.898438 173.6875 217.78125 174.117188 C 217.609375 174.898438 217.421875 175.664062 217.070312 176.328125 C 216.96875 176.546875 216.859375 176.765625 216.742188 176.96875 C 216.773438 177.3125 216.796875 177.6875 216.796875 178.09375 C 216.796875 179.351562 216.570312 180.847656 216.0625 182.496094 C 215.703125 183.597656 215.25 184.746094 214.570312 185.980469 C 215.789062 187.238281 216.710938 188.867188 217.1875 190.625 C 217.867188 193.085938 217.796875 195.796875 216.945312 198.386719 C 216.234375 200.417969 215.09375 202.222656 213.390625 203.660156 L 212.683594 204.191406 L 212.339844 204.433594 L 212.058594 204.597656 L 211.542969 204.886719 L 211.152344 205.089844 L 210.761719 205.246094 C 209.792969 205.683594 208.597656 205.925781 207.449219 205.824219 C 206.308594 205.722656 205.316406 205.347656 204.550781 204.941406 C 203.773438 204.542969 203.148438 204.121094 202.617188 203.761719 C 202.078125 203.394531 201.578125 203.089844 201.210938 202.894531 C 201.101562 202.808594 200.796875 202.691406 200.507812 202.589844 L 200.476562 202.574219 L 200.476562 202.441406 L 200.320312 202.472656 L 199.984375 202.417969 C 198.226562 202.113281 196.445312 202.238281 195.167969 202.183594 C 194.558594 202.503906 193.910156 202.816406 193.167969 203.167969 C 191.136719 204.050781 188.519531 205.058594 185.171875 205.292969 C 184.851562 205.277344 184.515625 205.261719 184.203125 205.261719 C 183.273438 208.234375 182.898438 211.257812 182.570312 214.328125 C 196.71875 219.800781 215.8125 228.804688 224.753906 210.679688 Z M 241.714844 221.683594 C 243.097656 212.742188 240.035156 205.808594 233.046875 200.433594 C 232.210938 204.839844 230.589844 209.117188 228.496094 212.875 C 227.128906 215.34375 225.605469 217.378906 224.003906 219.050781 C 224.613281 219.714844 225.191406 220.371094 225.722656 220.988281 C 226.722656 222.199219 227.621094 223.316406 228.410156 224.320312 C 229.917969 226.421875 231.023438 228.09375 231.734375 229.46875 C 233.085938 232.273438 233.25 233.511719 232.726562 233.816406 C 232.210938 234.113281 231.125 233.433594 229.207031 231.226562 C 228.222656 230.148438 226.910156 228.726562 225.308594 226.867188 C 224.464844 225.953125 223.542969 224.945312 222.542969 223.808594 C 221.96875 223.199219 221.351562 222.535156 220.710938 221.855469 C 214.835938 225.914062 207.886719 226.148438 200.664062 224.710938 C 199.757812 227.570312 199.265625 230.710938 199.148438 233.855469 L 199.164062 233.855469 C 209.941406 240.097656 226.042969 245.210938 237.742188 237.457031 C 242.144531 234.535156 240.988281 226.375 241.714844 221.683594 Z M 242.894531 195.828125 C 243.738281 196.0625 249.914062 197.390625 247.667969 194.429688 C 245.324219 191.335938 237.601562 192.171875 233.679688 192.882812 C 233.695312 193.125 233.710938 193.375 233.710938 193.617188 C 234.085938 193.445312 234.507812 193.375 234.984375 193.445312 C 237.710938 193.851562 240.253906 195.09375 242.894531 195.828125 Z M 252.445312 134.824219 C 252.445312 134.605469 252.429688 134.386719 252.429688 134.167969 C 250.84375 133.058594 248.605469 131.324219 245.324219 129.371094 C 243.503906 128.261719 241.292969 127.175781 238.679688 126.1875 C 238.015625 125.953125 237.351562 125.679688 236.632812 125.460938 C 235.90625 125.257812 235.15625 125.054688 234.390625 124.84375 C 232.859375 124.351562 231.195312 124.046875 229.441406 123.710938 C 222.675781 122.34375 214.210938 122.757812 203.789062 123.265625 C 203.65625 123.4375 203.515625 123.59375 203.367188 123.757812 L 203.140625 123.984375 L 203.140625 124 C 203.148438 124.015625 203.164062 124.046875 203.179688 124.078125 L 203.195312 124.117188 L 203.335938 124.523438 L 203.625 125.328125 C 203.992188 126.429688 204.21875 127.566406 204.378906 128.652344 C 204.675781 130.847656 204.769531 132.871094 205.160156 134.660156 C 205.996094 138.1875 208.417969 141.1875 211.816406 143.921875 C 213.476562 145.316406 215.296875 146.691406 217.101562 148.410156 C 218.890625 150.160156 220.421875 152.121094 221.757812 154.320312 C 223.066406 156.515625 224.136719 158.984375 224.542969 161.8125 C 224.972656 164.410156 224.363281 167.472656 222.746094 169.886719 C 223.988281 170.816406 225.246094 171.765625 226.082031 172.945312 C 228.644531 176.617188 230.800781 180.628906 232.28125 184.863281 C 232.695312 186.082031 233.015625 187.324219 233.25 188.589844 C 233.859375 188.496094 234.492188 188.394531 235.1875 188.316406 C 235.820312 182.699219 234.882812 177.226562 234.257812 172.1875 C 233.554688 167.011719 233.03125 162.128906 233.390625 157.625 C 233.773438 153.121094 235.171875 149.121094 236.976562 146.066406 C 238.757812 142.96875 240.917969 140.640625 243.011719 138.9375 C 245.136719 137.242188 247.214844 136.203125 249.007812 135.59375 C 249.898438 135.253906 250.757812 135.121094 251.492188 134.933594 C 251.835938 134.894531 252.140625 134.847656 252.445312 134.824219 Z M 273.78125 93.261719 C 273.765625 93.246094 273.75 93.246094 273.71875 93.246094 C 271.179688 92.902344 267.085938 92.816406 261.167969 93.550781 C 258.222656 93.925781 254.796875 94.488281 250.953125 95.363281 C 249.046875 95.847656 247.027344 96.441406 244.878906 97.011719 C 242.738281 97.628906 240.511719 98.480469 238.132812 99.261719 C 235.78125 100.15625 233.304688 101.132812 230.707031 102.1875 C 228.089844 103.289062 225.332031 104.460938 222.457031 105.671875 C 219.554688 106.875 216.554688 108.101562 213.617188 109.613281 C 210.714844 111.128906 207.714844 112.964844 205.832031 115.464844 L 205.542969 115.246094 C 205.433594 115.636719 205.316406 116.027344 205.238281 116.449219 C 205.027344 117.246094 204.964844 117.960938 204.910156 118.875 C 209.378906 118.671875 213.5625 118.46875 217.476562 118.523438 C 219.804688 118.507812 222.042969 118.6875 224.167969 118.84375 C 225.230469 118.945312 226.261719 119.117188 227.269531 119.25 C 228.285156 119.390625 229.253906 119.539062 230.191406 119.765625 C 232.078125 120.1875 233.859375 120.578125 235.476562 121.171875 C 236.28125 121.445312 237.078125 121.703125 237.84375 121.953125 C 238.609375 122.226562 239.335938 122.554688 240.035156 122.84375 C 242.839844 124.085938 245.167969 125.445312 247.019531 126.800781 C 249.484375 128.589844 251.234375 130.214844 252.515625 131.542969 C 252.617188 130.316406 252.789062 129.128906 252.992188 127.988281 C 253.398438 125.679688 253.945312 123.539062 254.539062 121.515625 C 255.757812 117.488281 257.1875 113.980469 258.667969 110.917969 C 261.644531 104.773438 264.878906 100.398438 267.828125 97.496094 C 270.039062 95.300781 272.132812 93.988281 273.78125 93.261719 Z M 291.757812 63.441406 C 290.835938 63.253906 289.554688 63.066406 287.820312 63.027344 C 285.820312 62.949219 283.300781 63.339844 280.222656 64.175781 C 277.144531 65.039062 273.429688 66.429688 268.984375 67.71875 C 264.589844 69.070312 259.519531 70.601562 254.007812 72.84375 C 251.25 73.980469 248.386719 75.308594 245.511719 76.988281 C 244.113281 77.871094 242.589844 78.660156 241.222656 79.761719 C 239.808594 80.800781 238.367188 81.855469 236.84375 83.078125 C 230.871094 87.882812 224.121094 92.957031 217.476562 99.332031 C 215.789062 100.890625 214.226562 102.640625 212.566406 104.359375 C 212.121094 104.90625 211.644531 105.46875 211.183594 106.023438 C 211.339844 105.929688 211.480469 105.859375 211.644531 105.773438 C 214.835938 104.140625 217.9375 102.914062 220.859375 101.742188 C 223.746094 100.539062 226.519531 99.417969 229.152344 98.347656 C 231.804688 97.308594 234.359375 96.355469 236.804688 95.488281 C 239.289062 94.738281 241.582031 93.910156 243.839844 93.339844 C 246.105469 92.800781 248.214844 92.253906 250.21875 91.832031 C 254.25 91.082031 257.800781 90.679688 260.894531 90.492188 C 266.929688 90.132812 271.21875 90.664062 273.898438 91.527344 C 273.882812 84.539062 275.917969 78.824219 278.589844 74.714844 C 278.964844 74.183594 279.339844 73.660156 279.699219 73.171875 C 280.089844 72.6875 280.535156 72.28125 280.925781 71.851562 C 281.753906 70.992188 282.558594 70.390625 283.316406 69.734375 C 284.8125 68.554688 286.15625 67.617188 287.28125 66.804688 C 289.4375 65.328125 290.820312 64.191406 291.757812 63.441406 Z M 295.300781 63.199219 C 294.472656 62.707031 289.882812 68.578125 289.25 69.171875 C 288.203125 70.109375 287.023438 71.210938 285.664062 72.46875 C 285.054688 73.101562 284.304688 73.738281 283.714844 74.457031 C 283.425781 74.832031 283.082031 75.167969 282.792969 75.574219 C 282.519531 76.003906 282.246094 76.441406 281.972656 76.871094 C 280.582031 79.050781 279.667969 81.628906 279.066406 84.109375 C 278.511719 86.390625 277.214844 90.859375 278.402344 92.972656 C 275.339844 93.566406 271.945312 97.339844 270.078125 99.574219 C 267.679688 102.460938 264.925781 106.695312 262.308594 112.605469 C 260.996094 115.535156 259.707031 118.898438 258.628906 122.71875 C 258.089844 124.609375 257.597656 126.613281 257.242188 128.722656 C 256.882812 130.816406 256.648438 133.058594 256.796875 135.167969 L 256.679688 135.183594 C 256.75 135.238281 256.804688 135.300781 256.804688 135.355469 C 256.796875 135.492188 256.546875 135.65625 256.054688 135.8125 C 255.796875 135.882812 255.476562 135.960938 255.101562 136.03125 C 254.710938 136.148438 254.265625 136.273438 253.757812 136.390625 C 253.242188 136.523438 252.664062 136.75 252.015625 136.9375 C 251.390625 137.21875 250.664062 137.445312 249.929688 137.851562 C 248.449219 138.585938 246.738281 139.65625 245.019531 141.273438 C 243.316406 142.882812 241.550781 145.011719 240.136719 147.800781 C 238.671875 150.589844 237.625 153.9375 237.398438 157.914062 C 237.179688 161.90625 237.710938 166.449219 238.476562 171.601562 C 238.851562 174.179688 239.257812 176.921875 239.523438 179.867188 C 239.75 182.410156 239.847656 185.144531 239.578125 188.019531 C 245.183594 187.941406 251.1875 189.140625 252.125 194.171875 C 252.875 198.136719 249.757812 201.269531 245.832031 200.808594 C 242.910156 200.480469 240.222656 199.363281 237.46875 198.496094 C 242.582031 202.988281 247.128906 209.34375 246.683594 216.152344 C 246.347656 221.019531 245.660156 225.914062 245.066406 230.757812 C 244.714844 233.550781 244.488281 236.371094 242.839844 238.753906 C 239.335938 243.851562 229.722656 244.90625 224.136719 245.28125 C 214.835938 245.90625 207.152344 243.1875 199.265625 238.902344 C 199.40625 240.503906 199.609375 242.070312 199.914062 243.578125 C 200.1875 244.992188 199.304688 246.265625 197.820312 246.320312 C 197.664062 246.8125 197.5 247.289062 197.34375 247.765625 C 197.46875 249.039062 196.242188 249.820312 195.175781 249.9375 C 188.253906 250.6875 187.433594 244.273438 188.269531 237.222656 C 181.875 236.503906 175.824219 237.136719 170.488281 238.292969 C 167.601562 238.957031 164.921875 239.824219 162.421875 240.761719 C 159.929688 241.761719 157.636719 242.835938 155.542969 244.023438 C 153.480469 245.226562 151.574219 246.484375 149.929688 247.796875 C 148.210938 249.078125 146.9375 250.453125 145.734375 251.910156 C 143.351562 254.785156 141.753906 257.722656 140.597656 260.304688 C 138.660156 264.625 138.558594 268.296875 138.371094 272.886719 C 136.566406 272.449219 134.441406 272.035156 132.578125 271.957031 C 130.453125 271.886719 127.8125 272.230469 124.921875 272.941406 C 122.019531 273.675781 118.871094 274.761719 115.667969 276.160156 C 110.375 278.484375 103.316406 281.796875 99.964844 286.777344 C 99.285156 287.800781 99.144531 288.683594 98.808594 289.839844 C 98.230469 291.878906 97.753906 291.964844 95.617188 291.777344 C 92.234375 291.457031 88.945312 290.433594 85.550781 290.160156 C 82.167969 289.871094 79.140625 289.792969 76.46875 290.082031 C 75.804688 290.113281 75.195312 290.277344 74.585938 290.363281 C 73.984375 290.457031 73.359375 290.519531 72.84375 290.707031 C 71.742188 291.042969 70.660156 291.441406 69.675781 291.847656 C 67.714844 292.660156 66.082031 293.550781 64.785156 294.417969 C 63.902344 294.996094 58.859375 299.835938 59.773438 301.078125 C 58.109375 298.828125 58.039062 294.808594 58.125 292.136719 C 58.195312 288.957031 58.789062 284.914062 60.164062 280.046875 C 60.835938 277.609375 61.710938 274.964844 62.847656 272.144531 C 63.996094 269.347656 65.371094 266.296875 67.238281 263.1875 C 70.878906 257.152344 75.007812 250.140625 80.121094 242.25 C 85.277344 234.394531 91.445312 225.695312 99.761719 216.925781 C 100.746094 215.800781 101.957031 214.71875 103.097656 213.710938 C 104.253906 212.6875 105.441406 211.671875 106.664062 210.664062 C 109.125 208.640625 111.695312 206.632812 114.539062 204.753906 C 115.980469 203.832031 117.472656 202.910156 119.160156 202.128906 L 120.488281 201.574219 C 120.996094 201.433594 121.472656 201.246094 122.003906 201.144531 C 122.589844 201.027344 123.175781 200.972656 123.753906 200.941406 C 124.105469 199.667969 124.664062 198.832031 125.242188 198.082031 C 126.132812 196.929688 127.046875 196.117188 127.8125 195.742188 C 128.5625 195.351562 129.171875 195.25 129.601562 195.296875 C 130.023438 195.335938 130.28125 195.515625 130.429688 195.773438 C 130.570312 196.046875 130.585938 196.390625 130.484375 196.765625 C 130.367188 197.132812 130.125 197.59375 129.789062 198.136719 C 129.460938 198.675781 129.039062 199.410156 128.609375 200.246094 C 128.421875 200.621094 128.242188 201.011719 128.101562 201.449219 C 130.429688 202.011719 132.554688 202.949219 134.613281 203.949219 C 135.527344 204.175781 136.503906 204.464844 137.566406 204.800781 C 139.675781 205.433594 142.058594 206.269531 144.742188 206.960938 C 147.429688 207.65625 150.609375 208.203125 154.144531 208.742188 C 157.714844 209.148438 161.679688 209.609375 166.0625 209.53125 C 170.097656 209.476562 174.613281 209.242188 179.070312 207.960938 C 179.273438 206.875 179.53125 205.792969 179.835938 204.714844 C 178.898438 204.566406 178.0625 204.160156 177.136719 203.855469 C 176.675781 203.683594 176.214844 203.511719 175.738281 203.339844 C 175.292969 203.152344 174.855469 202.949219 174.410156 202.761719 C 170.878906 201.199219 166.734375 199.207031 163.09375 195.898438 C 162.15625 195.117188 161.375 194.15625 160.5 193.242188 C 159.730469 192.257812 158.925781 191.265625 158.207031 190.210938 C 157.527344 189.125 156.785156 188.089844 156.136719 186.917969 C 155.574219 185.933594 154.878906 184.839844 154.214844 183.753906 C 152.871094 181.558594 151.480469 179.289062 150.15625 176.867188 C 149.507812 175.632812 148.859375 174.382812 148.28125 173.007812 C 147.992188 172.3125 147.71875 171.601562 147.484375 170.769531 C 147.367188 170.347656 147.265625 169.902344 147.210938 169.378906 C 147.179688 168.808594 147.109375 168.199219 147.453125 167.214844 L 147.617188 166.902344 L 147.640625 166.855469 L 147.703125 166.738281 L 147.835938 166.503906 C 147.835938 166.464844 147.960938 166.277344 148.09375 166.105469 C 148.210938 165.941406 148.335938 165.785156 148.484375 165.628906 C 149.015625 165.066406 149.523438 164.714844 150.101562 164.457031 C 151.238281 163.949219 152.324219 163.863281 153.246094 163.894531 C 155.113281 163.980469 156.660156 164.425781 158.144531 164.933594 C 161.101562 165.988281 163.789062 167.386719 166.4375 168.878906 C 167.140625 169.269531 167.820312 169.691406 168.5 170.105469 C 168.632812 170.136719 168.753906 170.175781 168.886719 170.222656 C 170.128906 170.628906 171.558594 171.125 173.121094 171.703125 C 174.652344 172.28125 176.285156 172.9375 178.0625 173.65625 C 179.78125 174.320312 181.625 175.015625 183.578125 175.765625 C 184.648438 176.109375 185.5625 176.390625 186.535156 176.601562 C 187.503906 176.851562 188.558594 176.992188 189.488281 177.054688 C 189.527344 177.054688 189.574219 177.054688 189.613281 177.070312 C 189.542969 176.820312 189.457031 176.585938 189.386719 176.328125 C 186.296875 165.019531 184.15625 154.835938 183.1875 148.324219 C 183.132812 148.167969 183.070312 148.019531 183.03125 147.878906 C 182.46875 146.300781 181.929688 144.667969 181.46875 142.890625 C 181.25 142.015625 181.054688 141.085938 180.921875 140.0625 C 180.875 139.539062 180.835938 139.007812 180.859375 138.367188 C 180.953125 137.734375 180.960938 136.9375 181.773438 135.914062 C 182.28125 135.269531 183.070312 134.707031 183.882812 134.503906 C 184.71875 134.269531 185.460938 134.332031 186.109375 134.417969 C 187.363281 134.644531 188.332031 135.082031 189.238281 135.554688 C 191.042969 136.507812 192.605469 137.648438 194.121094 138.859375 C 197.140625 141.289062 199.929688 144.054688 202.648438 146.996094 C 205.167969 149.738281 207.597656 152.675781 209.925781 155.789062 C 208.519531 152.699219 206.964844 149.722656 205.285156 147.011719 L 204.925781 146.402344 L 204.550781 145.910156 C 204.332031 145.582031 204.046875 145.246094 203.757812 144.910156 C 203.195312 144.234375 202.546875 143.5625 201.898438 142.835938 C 200.5625 141.421875 199.164062 139.554688 198.382812 137.617188 C 197.945312 136.679688 197.601562 135.671875 197.34375 134.691406 C 197.09375 133.738281 196.90625 132.816406 196.703125 132.058594 C 196.304688 130.511719 195.640625 129.371094 194.691406 128.246094 L 193.863281 127.410156 L 192.925781 126.546875 C 192.472656 126.09375 191.957031 125.648438 191.449219 125.015625 C 188.644531 125.710938 186.886719 126.597656 185.5625 126.972656 C 184.085938 127.511719 183.265625 127.410156 182.898438 126.933594 C 182.539062 126.460938 182.710938 125.679688 183.914062 124.375 C 184.507812 123.757812 185.445312 123.078125 186.707031 122.3125 C 187.378906 121.992188 188.128906 121.648438 188.964844 121.289062 C 189.324219 121.171875 189.714844 121.054688 190.105469 120.9375 C 190.121094 120.75 190.121094 120.5625 190.121094 120.375 C 190.269531 119.320312 190.394531 118.382812 190.746094 117.433594 C 191.332031 115.496094 192.277344 113.964844 193.199219 112.472656 C 194.152344 111.011719 195.167969 109.660156 196.203125 108.390625 C 197.226562 107.117188 198.226562 105.84375 199.367188 104.6875 C 200.507812 103.5625 201.648438 102.460938 202.757812 101.382812 C 204.949219 99.128906 207.324219 97.324219 209.550781 95.417969 C 214.039062 91.714844 218.476562 88.484375 222.644531 85.492188 C 226.824219 82.476562 230.808594 79.691406 234.664062 77.207031 C 242.378906 72.234375 249.742188 68.726562 256.40625 66.601562 C 259.691406 65.445312 262.855469 64.835938 265.691406 64.121094 C 268.492188 63.472656 271.117188 62.878906 273.515625 62.425781 C 278.316406 61.503906 282.253906 61.144531 285.328125 61.191406 C 288.015625 61.246094 291.460938 61.488281 294.097656 62.589844 C 294.519531 62.777344 294.917969 62.980469 295.300781 63.199219 " fill-opacity="1" fill-rule="nonzero"/></g><path fill="#ffffff" d="M 210.730469 193.960938 C 210.894531 194.242188 210.925781 194.445312 210.816406 194.570312 C 210.714844 194.703125 210.519531 194.757812 210.238281 194.757812 C 209.964844 194.71875 209.621094 194.71875 209.300781 194.71875 C 208.980469 194.820312 209.011719 194.890625 208.941406 195.0625 C 208.824219 195.234375 208.753906 195.828125 208.667969 196.382812 L 208.449219 197.777344 L 206.902344 197.34375 L 206.847656 197.328125 C 206.699219 197.304688 206.574219 197.242188 206.441406 197.203125 C 206.511719 197.933594 206.558594 198.558594 206.253906 198.675781 C 206.019531 198.777344 205.675781 198.597656 205.269531 198.183594 C 204.878906 197.714844 204.316406 197.046875 204.179688 195.789062 L 204.046875 194.648438 L 205.285156 194.671875 C 205.675781 194.671875 206.097656 194.703125 206.542969 194.742188 C 206.542969 194.742188 206.558594 194.742188 206.574219 194.742188 C 206.699219 194.398438 206.878906 194.039062 207.175781 193.6875 C 207.511719 193.328125 207.988281 192.984375 208.496094 192.9375 C 209.003906 192.796875 209.363281 192.984375 209.707031 193.054688 C 210.269531 193.359375 210.605469 193.679688 210.730469 193.960938 " fill-opacity="1" fill-rule="nonzero"/><path fill="#ffffff" d="M 204.636719 185.910156 C 205.082031 186.527344 205.199219 186.964844 205.042969 187.121094 C 204.824219 187.378906 204.117188 186.933594 203.179688 186.660156 C 203.335938 187.378906 203.453125 188.074219 203.617188 188.707031 C 203.65625 188.90625 203.710938 189.109375 203.773438 189.3125 L 204.519531 192.234375 L 202.023438 190.804688 C 201.664062 190.601562 201.492188 190.515625 201.03125 190.484375 C 201 190.484375 200.953125 190.484375 200.929688 190.484375 C 201.015625 190.6875 201.085938 190.875 201.140625 191.0625 C 201.445312 191.609375 201.585938 192 201.429688 192.171875 C 201.289062 192.320312 200.898438 192.242188 200.320312 191.945312 C 199.726562 191.476562 198.960938 190.703125 198.515625 189.453125 L 198.023438 188.027344 L 199.710938 187.972656 C 200.0625 187.988281 200.390625 187.597656 201.03125 187.597656 C 200.882812 187.511719 200.828125 186.105469 200.679688 185.527344 L 200.320312 184.246094 L 201.679688 184.363281 C 203.195312 184.488281 204.179688 185.324219 204.636719 185.910156 " fill-opacity="1" fill-rule="nonzero"/><path fill="#ffffff" d="M 152.035156 168.847656 C 152.019531 168.863281 152.003906 168.878906 152.003906 168.878906 L 152.019531 168.847656 L 152.035156 168.847656 " fill-opacity="1" fill-rule="nonzero"/></svg>