<svg xmlns="http://www.w3.org/2000/svg" xmlns:xlink="http://www.w3.org/1999/xlink" width="500" zoomAndPan="magnify" viewBox="0 0 375 374.999991" height="500" preserveAspectRatio="xMidYMid meet" version="1.0"><defs><clipPath id="5532419388"><path d="M 187.5 0 C 83.945312 0 0 83.945312 0 187.5 C 0 291.054688 83.945312 375 187.5 375 C 291.054688 375 375 291.054688 375 187.5 C 375 83.945312 291.054688 0 187.5 0 Z M 187.5 0 " clip-rule="nonzero"/></clipPath><clipPath id="b1e5c92573"><path d="M 76.367188 71.488281 L 298.628906 71.488281 L 298.628906 303.238281 L 76.367188 303.238281 Z M 76.367188 71.488281 " clip-rule="nonzero"/></clipPath></defs><g clip-path="url(#5532419388)"><rect x="-37.5" width="450" fill="#58a39d" y="-37.499999" height="449.999989" fill-opacity="1"/></g><path fill="#ffffff" d="M 155.117188 173.546875 C 154.503906 173.277344 153.859375 173.070312 153.183594 172.957031 C 151.03125 172.585938 148.859375 173.074219 147.078125 174.335938 C 146.566406 174.695312 146.113281 175.109375 145.707031 175.5625 C 145.71875 175.773438 145.714844 175.976562 145.699219 176.179688 C 145.664062 176.566406 145.554688 176.96875 145.386719 177.351562 C 145.421875 177.582031 145.445312 177.808594 145.445312 178.027344 C 145.957031 176.941406 146.738281 176 147.746094 175.285156 C 148.945312 174.441406 150.34375 174 151.78125 174 C 152.179688 174 152.582031 174.03125 152.984375 174.101562 C 154.023438 174.28125 154.984375 174.6875 155.824219 175.28125 C 155.492188 174.746094 155.253906 174.148438 155.117188 173.546875 " fill-opacity="1" fill-rule="nonzero"/><path fill="#ffffff" d="M 151.914062 179.535156 C 150.523438 179.535156 149.292969 180.535156 149.046875 181.949219 C 148.882812 182.910156 149.21875 183.898438 149.933594 184.566406 C 150.675781 184.335938 151.441406 184.304688 152.164062 184.304688 C 152.566406 184.304688 152.957031 184.367188 153.339844 184.496094 C 153.535156 184.488281 153.746094 184.480469 153.980469 184.480469 C 154.402344 184.058594 154.675781 183.523438 154.777344 182.933594 C 155.050781 181.355469 153.988281 179.847656 152.40625 179.574219 C 152.242188 179.546875 152.074219 179.535156 151.914062 179.535156 Z M 149.785156 185.355469 L 149.632812 185.230469 C 148.628906 184.40625 148.140625 183.101562 148.359375 181.828125 C 148.699219 179.871094 150.566406 178.550781 152.523438 178.886719 C 154.484375 179.226562 155.804688 181.09375 155.46875 183.050781 C 155.332031 183.839844 154.945312 184.546875 154.355469 185.089844 L 154.253906 185.183594 L 154.078125 185.179688 C 153.78125 185.179688 153.535156 185.183594 153.308594 185.199219 L 153.238281 185.203125 L 153.167969 185.179688 C 152.84375 185.058594 152.507812 185 152.164062 185 C 151.441406 185 150.671875 185.035156 149.972656 185.289062 L 149.785156 185.355469 " fill-opacity="1" fill-rule="nonzero"/><path fill="#ffffff" d="M 151.347656 175.402344 C 151.0625 175.402344 150.785156 175.488281 150.546875 175.65625 C 150.242188 175.875 150.039062 176.195312 149.976562 176.5625 C 149.914062 176.929688 149.996094 177.296875 150.210938 177.601562 C 150.425781 177.90625 150.746094 178.109375 151.113281 178.171875 C 151.191406 178.1875 151.273438 178.195312 151.351562 178.195312 C 152.03125 178.195312 152.609375 177.707031 152.726562 177.035156 C 152.789062 176.667969 152.707031 176.296875 152.488281 175.992188 C 152.273438 175.6875 151.953125 175.484375 151.585938 175.421875 C 151.507812 175.410156 151.425781 175.402344 151.347656 175.402344 Z M 151.351562 178.890625 C 151.234375 178.890625 151.113281 178.882812 150.996094 178.859375 C 150.445312 178.765625 149.964844 178.460938 149.640625 178.007812 C 149.316406 177.550781 149.191406 176.992188 149.289062 176.441406 C 149.382812 175.890625 149.6875 175.410156 150.144531 175.089844 C 150.601562 174.765625 151.15625 174.640625 151.707031 174.734375 C 152.257812 174.828125 152.738281 175.132812 153.058594 175.589844 C 153.382812 176.046875 153.507812 176.601562 153.414062 177.152344 C 153.242188 178.160156 152.375 178.890625 151.351562 178.890625 " fill-opacity="1" fill-rule="nonzero"/><path fill="#ffffff" d="M 157.855469 202.550781 C 157.3125 202.550781 156.816406 202.417969 156.371094 202.195312 C 155.296875 202.726562 154.050781 202.9375 152.78125 202.71875 C 149.589844 202.171875 147.441406 199.128906 147.988281 195.9375 C 148.335938 193.921875 149.679688 192.324219 151.425781 191.558594 C 150.851562 191.535156 150.324219 191.367188 149.859375 191.09375 C 148.316406 192.128906 147.183594 193.769531 146.84375 195.738281 C 146.523438 197.589844 146.945312 199.457031 148.03125 200.992188 C 149.113281 202.527344 150.730469 203.546875 152.582031 203.867188 C 152.984375 203.933594 153.386719 203.96875 153.78125 203.96875 C 155.335938 203.96875 156.808594 203.445312 158.003906 202.546875 C 157.953125 202.546875 157.902344 202.550781 157.855469 202.550781 " fill-opacity="1" fill-rule="nonzero"/><path fill="#ffffff" d="M 152.90625 199.269531 C 152.621094 199.269531 152.34375 199.359375 152.105469 199.527344 C 151.796875 199.742188 151.597656 200.0625 151.53125 200.429688 C 151.402344 201.1875 151.914062 201.910156 152.671875 202.042969 C 152.726562 202.050781 152.777344 202.054688 152.832031 202.058594 C 152.832031 202.050781 152.832031 202.039062 152.835938 202.03125 L 152.835938 202.027344 C 152.945312 201.164062 153.414062 200.476562 154.160156 200.054688 C 153.964844 199.65625 153.589844 199.367188 153.144531 199.289062 C 153.066406 199.277344 152.984375 199.269531 152.90625 199.269531 Z M 152.914062 202.757812 C 152.792969 202.757812 152.671875 202.75 152.554688 202.730469 C 151.414062 202.53125 150.648438 201.449219 150.84375 200.3125 C 150.941406 199.761719 151.242188 199.28125 151.703125 198.957031 C 152.160156 198.632812 152.714844 198.507812 153.261719 198.601562 C 154.070312 198.742188 154.722656 199.34375 154.933594 200.140625 L 155.007812 200.429688 L 154.734375 200.546875 C 154.25 200.753906 153.644531 201.199219 153.527344 202.117188 C 153.519531 202.191406 153.515625 202.277344 153.515625 202.382812 L 153.527344 202.691406 L 153.21875 202.734375 C 153.117188 202.75 153.011719 202.757812 152.914062 202.757812 " fill-opacity="1" fill-rule="nonzero"/><path fill="#ffffff" d="M 196.925781 227.410156 C 195.855469 227.761719 194.707031 227.851562 193.566406 227.652344 C 189.753906 226.996094 187.1875 223.363281 187.84375 219.550781 C 188.160156 217.703125 189.175781 216.089844 190.707031 215.007812 C 190.886719 214.882812 191.066406 214.769531 191.253906 214.664062 C 191.246094 214.664062 191.234375 214.664062 191.226562 214.664062 C 190.675781 214.664062 190.171875 214.527344 189.714844 214.296875 C 188.109375 215.550781 187.042969 217.332031 186.695312 219.351562 C 185.929688 223.796875 188.925781 228.035156 193.371094 228.800781 C 193.839844 228.878906 194.308594 228.917969 194.773438 228.917969 C 195.003906 228.917969 195.230469 228.90625 195.457031 228.886719 C 195.542969 228.808594 195.625 228.734375 195.710938 228.667969 C 196.050781 228.398438 196.398438 228.207031 196.75 228.066406 C 196.789062 227.847656 196.847656 227.628906 196.925781 227.410156 " fill-opacity="1" fill-rule="nonzero"/><path fill="#ffffff" d="M 197.164062 217.042969 C 196.164062 217.042969 195.277344 217.761719 195.101562 218.78125 C 194.90625 219.917969 195.671875 221.003906 196.8125 221.199219 C 197.355469 221.292969 197.917969 221.167969 198.375 220.84375 C 198.722656 220.597656 198.984375 220.261719 199.128906 219.863281 C 198.847656 219.4375 198.664062 218.941406 198.617188 218.453125 C 198.136719 218.152344 197.730469 217.652344 197.492188 217.070312 C 197.382812 217.050781 197.273438 217.042969 197.164062 217.042969 Z M 197.171875 221.929688 C 197.011719 221.929688 196.851562 221.914062 196.691406 221.886719 C 195.175781 221.625 194.152344 220.179688 194.414062 218.664062 C 194.542969 217.929688 194.945312 217.289062 195.554688 216.859375 C 196.164062 216.425781 196.90625 216.257812 197.640625 216.386719 C 197.707031 216.398438 197.773438 216.414062 197.835938 216.429688 L 198.023438 216.472656 L 198.082031 216.65625 C 198.273438 217.226562 198.660156 217.703125 199.109375 217.933594 L 199.296875 218.027344 L 199.300781 218.234375 C 199.3125 218.691406 199.496094 219.199219 199.792969 219.59375 L 199.898438 219.730469 L 199.851562 219.898438 C 199.675781 220.519531 199.304688 221.042969 198.777344 221.414062 C 198.300781 221.75 197.746094 221.929688 197.171875 221.929688 " fill-opacity="1" fill-rule="nonzero"/><path fill="#ffffff" d="M 198.175781 158.414062 C 198.371094 156.460938 197.863281 154.527344 196.71875 152.90625 C 195.460938 151.121094 193.578125 149.933594 191.425781 149.566406 C 186.980469 148.800781 182.742188 151.792969 181.980469 156.238281 C 181.878906 156.824219 181.84375 157.40625 181.871094 157.976562 C 182.160156 157.535156 182.511719 157.140625 182.886719 156.84375 C 182.953125 156.792969 183.019531 156.742188 183.085938 156.695312 C 183.097656 156.609375 183.109375 156.519531 183.125 156.433594 C 183.710938 153.023438 186.683594 150.609375 190.035156 150.609375 C 190.429688 150.609375 190.828125 150.640625 191.230469 150.710938 C 193.074219 151.027344 194.6875 152.046875 195.769531 153.578125 C 196.851562 155.105469 197.269531 156.96875 196.953125 158.8125 C 196.855469 159.375 196.695312 159.910156 196.476562 160.414062 C 196.570312 160.457031 196.660156 160.507812 196.75 160.5625 C 196.90625 160.273438 197.089844 159.996094 197.296875 159.742188 C 197.515625 159.257812 197.824219 158.796875 198.175781 158.414062 " fill-opacity="1" fill-rule="nonzero"/><path fill="#ffffff" d="M 191.621094 158.742188 C 190.621094 158.742188 189.734375 159.460938 189.558594 160.480469 C 189.363281 161.617188 190.128906 162.703125 191.265625 162.898438 C 191.382812 162.917969 191.503906 162.929688 191.621094 162.929688 C 192.644531 162.929688 193.511719 162.199219 193.683594 161.191406 C 193.777344 160.636719 193.652344 160.082031 193.332031 159.628906 C 193.007812 159.171875 192.527344 158.867188 191.976562 158.773438 C 191.855469 158.75 191.738281 158.742188 191.621094 158.742188 Z M 191.621094 163.625 C 191.464844 163.625 191.304688 163.613281 191.148438 163.585938 C 189.632812 163.324219 188.609375 161.878906 188.871094 160.359375 C 189.132812 158.84375 190.578125 157.824219 192.09375 158.085938 C 192.828125 158.210938 193.46875 158.617188 193.898438 159.222656 C 194.332031 159.832031 194.496094 160.574219 194.371094 161.308594 C 194.140625 162.652344 192.984375 163.625 191.621094 163.625 " fill-opacity="1" fill-rule="nonzero"/><path fill="#ffffff" d="M 212.460938 163.09375 C 210.308594 162.726562 208.140625 163.214844 206.355469 164.476562 C 204.570312 165.734375 203.386719 167.617188 203.015625 169.769531 C 202.644531 171.921875 203.132812 174.089844 204.394531 175.875 C 204.410156 175.898438 204.429688 175.921875 204.445312 175.945312 C 204.773438 175.722656 205.15625 175.574219 205.566406 175.5 C 205.492188 175.402344 205.417969 175.304688 205.34375 175.203125 C 204.265625 173.671875 203.84375 171.8125 204.160156 169.964844 C 204.480469 168.117188 205.496094 166.507812 207.027344 165.425781 C 208.222656 164.578125 209.625 164.136719 211.058594 164.136719 C 211.460938 164.136719 211.863281 164.171875 212.265625 164.242188 C 216.078125 164.898438 218.644531 168.53125 217.988281 172.34375 C 217.386719 175.84375 214.277344 178.289062 210.828125 178.164062 C 210.832031 178.292969 210.832031 178.414062 210.816406 178.535156 C 210.777344 178.828125 210.695312 179.085938 210.578125 179.316406 C 210.746094 179.328125 210.914062 179.335938 211.078125 179.335938 C 214.984375 179.335938 218.449219 176.519531 219.136719 172.542969 C 219.898438 168.097656 216.90625 163.859375 212.460938 163.09375 " fill-opacity="1" fill-rule="nonzero"/><path fill="#ffffff" d="M 214.230469 165.933594 C 214.082031 165.933594 213.933594 165.957031 213.789062 166.003906 C 213.421875 166.121094 213.121094 166.375 212.945312 166.71875 C 212.769531 167.0625 212.738281 167.453125 212.855469 167.820312 C 212.972656 168.1875 213.226562 168.484375 213.570312 168.660156 C 213.914062 168.835938 214.304688 168.871094 214.671875 168.75 C 215.039062 168.632812 215.335938 168.378906 215.515625 168.035156 C 215.691406 167.691406 215.722656 167.300781 215.605469 166.933594 C 215.40625 166.324219 214.839844 165.933594 214.230469 165.933594 Z M 214.230469 169.519531 C 213.890625 169.519531 213.554688 169.4375 213.253906 169.28125 C 212.742188 169.019531 212.367188 168.578125 212.191406 168.03125 C 212.015625 167.488281 212.0625 166.90625 212.324219 166.398438 C 212.585938 165.890625 213.03125 165.511719 213.574219 165.335938 C 214.699219 164.976562 215.90625 165.597656 216.269531 166.71875 C 216.445312 167.265625 216.394531 167.84375 216.136719 168.355469 C 215.875 168.863281 215.429688 169.242188 214.886719 169.414062 C 214.671875 169.484375 214.449219 169.519531 214.230469 169.519531 " fill-opacity="1" fill-rule="nonzero"/><path fill="#ffffff" d="M 208.902344 167.382812 C 208.6875 167.382812 208.46875 167.417969 208.257812 167.484375 C 207.726562 167.65625 207.292969 168.023438 207.039062 168.523438 C 206.78125 169.019531 206.738281 169.589844 206.90625 170.117188 C 207.078125 170.652344 207.445312 171.085938 207.945312 171.339844 C 208.441406 171.59375 209.007812 171.640625 209.539062 171.472656 C 210.640625 171.117188 211.246094 169.9375 210.894531 168.835938 C 210.722656 168.304688 210.351562 167.871094 209.855469 167.617188 C 209.554688 167.460938 209.230469 167.382812 208.902344 167.382812 Z M 208.898438 172.269531 C 208.460938 172.269531 208.019531 172.164062 207.625 171.960938 C 206.960938 171.621094 206.472656 171.042969 206.242188 170.332031 C 206.015625 169.625 206.078125 168.867188 206.417969 168.203125 C 206.757812 167.539062 207.335938 167.050781 208.046875 166.820312 C 208.753906 166.59375 209.511719 166.65625 210.175781 166.996094 C 210.835938 167.335938 211.328125 167.914062 211.558594 168.625 C 212.027344 170.089844 211.21875 171.664062 209.753906 172.136719 C 209.476562 172.226562 209.1875 172.269531 208.898438 172.269531 " fill-opacity="1" fill-rule="nonzero"/><path fill="#ffffff" d="M 215.050781 170.5 C 214.910156 170.5 214.765625 170.523438 214.625 170.566406 C 214.269531 170.683594 213.980469 170.929688 213.8125 171.257812 C 213.640625 171.589844 213.609375 171.96875 213.722656 172.324219 C 213.839844 172.679688 214.082031 172.96875 214.414062 173.136719 C 214.746094 173.308594 215.125 173.339844 215.480469 173.226562 C 216.210938 172.988281 216.617188 172.203125 216.382812 171.46875 C 216.191406 170.878906 215.640625 170.5 215.050781 170.5 Z M 215.050781 173.992188 C 214.722656 173.992188 214.394531 173.910156 214.097656 173.757812 C 213.597656 173.503906 213.230469 173.070312 213.058594 172.539062 C 212.886719 172.003906 212.933594 171.4375 213.191406 170.941406 C 213.445312 170.441406 213.878906 170.074219 214.410156 169.902344 C 215.511719 169.550781 216.691406 170.15625 217.046875 171.253906 C 217.398438 172.355469 216.792969 173.535156 215.695312 173.890625 C 215.484375 173.957031 215.269531 173.992188 215.050781 173.992188 " fill-opacity="1" fill-rule="nonzero"/><path fill="#ffffff" d="M 204.21875 187.460938 C 204.332031 186.800781 204.558594 186.1875 204.863281 185.632812 C 204.675781 185.421875 204.523438 185.171875 204.40625 184.910156 C 204.367188 184.910156 204.332031 184.914062 204.289062 184.914062 C 204.171875 184.914062 204.054688 184.90625 203.941406 184.890625 C 203.523438 185.605469 203.222656 186.402344 203.074219 187.261719 C 202.753906 189.113281 203.175781 190.980469 204.261719 192.515625 C 204.636719 193.046875 205.082031 193.515625 205.574219 193.914062 C 205.621094 193.507812 205.75 193.085938 205.941406 192.6875 C 205.675781 192.429688 205.429688 192.152344 205.210938 191.84375 C 204.304688 190.5625 203.953125 189.003906 204.21875 187.460938 " fill-opacity="1" fill-rule="nonzero"/><path fill="#ffffff" d="M 203.949219 184.90625 C 203.519531 185.636719 203.230469 186.429688 203.085938 187.265625 C 202.765625 189.113281 203.1875 190.976562 204.269531 192.507812 C 204.632812 193.019531 205.066406 193.488281 205.5625 193.894531 C 205.613281 193.503906 205.734375 193.097656 205.925781 192.691406 C 205.652344 192.425781 205.40625 192.140625 205.199219 191.847656 C 204.292969 190.566406 203.941406 189.007812 204.207031 187.457031 C 204.316406 186.820312 204.53125 186.210938 204.847656 185.636719 C 204.667969 185.429688 204.515625 185.1875 204.398438 184.921875 C 204.382812 184.921875 204.367188 184.921875 204.351562 184.921875 C 204.230469 184.925781 204.101562 184.921875 203.949219 184.90625 Z M 205.582031 193.9375 L 205.566406 193.925781 C 205.0625 193.515625 204.617188 193.042969 204.25 192.519531 C 203.164062 190.984375 202.742188 189.113281 203.0625 187.261719 C 203.207031 186.417969 203.5 185.621094 203.929688 184.886719 L 203.933594 184.878906 L 203.941406 184.882812 C 204.074219 184.894531 204.183594 184.902344 204.289062 184.902344 C 204.3125 184.902344 204.332031 184.902344 204.351562 184.898438 C 204.371094 184.898438 204.390625 184.898438 204.40625 184.898438 L 204.414062 184.898438 L 204.417969 184.90625 C 204.535156 185.175781 204.6875 185.417969 204.871094 185.625 L 204.878906 185.632812 L 204.875 185.640625 C 204.554688 186.214844 204.339844 186.828125 204.230469 187.460938 C 203.964844 189.003906 204.316406 190.558594 205.21875 191.835938 C 205.425781 192.128906 205.671875 192.414062 205.949219 192.679688 L 205.953125 192.683594 L 205.949219 192.691406 C 205.753906 193.109375 205.628906 193.519531 205.585938 193.917969 L 205.582031 193.9375 " fill-opacity="1" fill-rule="nonzero"/><path fill="#ffffff" d="M 211.199219 181.523438 C 210.59375 181.417969 209.992188 181.394531 209.410156 181.445312 C 209.300781 181.875 209.109375 182.304688 208.867188 182.699219 C 209.234375 182.625 209.617188 182.582031 210.003906 182.582031 C 210.332031 182.582031 210.667969 182.609375 211 182.667969 C 213.808594 183.152344 215.808594 185.566406 215.875 188.3125 C 216.246094 188.226562 216.632812 188.1875 217.035156 188.167969 C 216.902344 184.925781 214.523438 182.09375 211.199219 181.523438 " fill-opacity="1" fill-rule="nonzero"/><path fill="#ffffff" d="M 210.003906 182.570312 C 210.335938 182.570312 210.671875 182.597656 211.003906 182.65625 C 213.761719 183.132812 215.8125 185.5 215.886719 188.296875 C 216.222656 188.222656 216.585938 188.175781 217.023438 188.15625 C 216.882812 184.875 214.433594 182.089844 211.195312 181.535156 C 210.609375 181.433594 210.011719 181.40625 209.417969 181.457031 C 209.3125 181.859375 209.132812 182.285156 208.890625 182.683594 C 209.265625 182.609375 209.640625 182.570312 210.003906 182.570312 Z M 215.863281 188.324219 L 215.863281 188.3125 C 215.796875 185.519531 213.75 183.152344 211 182.679688 C 210.671875 182.621094 210.335938 182.59375 210.003906 182.59375 C 209.636719 182.59375 209.253906 182.632812 208.867188 182.710938 L 208.84375 182.714844 L 208.855469 182.691406 C 209.105469 182.289062 209.292969 181.855469 209.398438 181.441406 L 209.398438 181.433594 L 209.40625 181.433594 C 210.003906 181.382812 210.609375 181.410156 211.199219 181.511719 C 212.796875 181.785156 214.261719 182.609375 215.324219 183.835938 C 216.371094 185.042969 216.980469 186.582031 217.046875 188.167969 L 217.046875 188.179688 L 217.035156 188.179688 C 216.585938 188.199219 216.21875 188.246094 215.878906 188.320312 L 215.863281 188.324219 " fill-opacity="1" fill-rule="nonzero"/><path fill="#ffffff" d="M 213.550781 187.859375 C 213.8125 187.859375 214.070312 187.910156 214.320312 188.015625 C 214.589844 187.796875 214.777344 187.484375 214.835938 187.140625 C 214.96875 186.355469 214.441406 185.609375 213.65625 185.472656 C 213.277344 185.40625 212.894531 185.496094 212.578125 185.71875 C 212.265625 185.941406 212.054688 186.273438 211.988281 186.652344 C 211.988281 186.65625 211.988281 186.664062 211.988281 186.667969 C 212.191406 186.871094 212.371094 187.109375 212.515625 187.375 C 212.761719 187.496094 212.992188 187.667969 213.195312 187.878906 C 213.316406 187.867188 213.433594 187.859375 213.550781 187.859375 Z M 214.371094 188.820312 L 214.195312 188.726562 C 213.984375 188.613281 213.765625 188.558594 213.550781 188.558594 C 213.410156 188.558594 213.265625 188.570312 213.105469 188.589844 L 212.914062 188.617188 L 212.792969 188.46875 C 212.597656 188.242188 212.367188 188.066406 212.125 187.960938 L 212.007812 187.910156 L 211.949219 187.796875 C 211.808594 187.515625 211.617188 187.265625 211.394531 187.074219 L 211.269531 186.964844 L 211.277344 186.792969 C 211.277344 186.699219 211.289062 186.613281 211.300781 186.53125 C 211.398438 185.96875 211.710938 185.476562 212.175781 185.148438 C 212.644531 184.816406 213.210938 184.6875 213.777344 184.785156 C 214.9375 184.984375 215.722656 186.09375 215.523438 187.257812 C 215.417969 187.859375 215.0625 188.390625 214.539062 188.714844 L 214.371094 188.820312 " fill-opacity="1" fill-rule="nonzero"/><path fill="#ffffff" d="M 218.398438 194.800781 C 218.285156 194.914062 218.167969 195.019531 218.046875 195.113281 C 217.789062 195.316406 217.53125 195.476562 217.265625 195.605469 C 219.953125 196.46875 221.667969 199.203125 221.175781 202.058594 C 220.914062 203.574219 220.082031 204.898438 218.824219 205.785156 C 217.566406 206.671875 216.042969 207.015625 214.527344 206.753906 C 213.011719 206.496094 211.6875 205.660156 210.800781 204.402344 C 210.765625 204.351562 210.734375 204.292969 210.695312 204.238281 C 210.761719 204.644531 210.785156 205.042969 210.75 205.425781 C 210.734375 205.617188 210.699219 205.8125 210.644531 206.007812 C 211.644531 206.996094 212.917969 207.65625 214.332031 207.902344 C 214.726562 207.96875 215.125 208.003906 215.519531 208.003906 C 216.933594 208.003906 218.3125 207.566406 219.496094 206.734375 C 221.003906 205.667969 222.007812 204.078125 222.320312 202.253906 C 222.863281 199.105469 221.171875 196.078125 218.398438 194.800781 " fill-opacity="1" fill-rule="nonzero"/><path fill="#ffffff" d="M 218.480469 198.496094 C 218.1875 198.496094 217.898438 198.585938 217.652344 198.761719 C 217.335938 198.984375 217.125 199.316406 217.0625 199.695312 C 216.925781 200.480469 217.453125 201.226562 218.238281 201.363281 C 218.320312 201.375 218.402344 201.382812 218.484375 201.382812 C 219.191406 201.382812 219.789062 200.878906 219.90625 200.183594 C 220.042969 199.398438 219.511719 198.652344 218.730469 198.515625 C 218.648438 198.503906 218.5625 198.496094 218.480469 198.496094 Z M 218.484375 202.082031 C 218.363281 202.082031 218.242188 202.070312 218.121094 202.050781 C 216.957031 201.851562 216.171875 200.742188 216.375 199.578125 C 216.46875 199.015625 216.78125 198.523438 217.25 198.191406 C 217.71875 197.859375 218.285156 197.734375 218.847656 197.828125 C 220.011719 198.03125 220.792969 199.140625 220.59375 200.304688 C 220.417969 201.332031 219.53125 202.082031 218.484375 202.082031 " fill-opacity="1" fill-rule="nonzero"/><path fill="#ffffff" d="M 215.066406 197.722656 C 214.636719 197.113281 213.996094 196.710938 213.257812 196.582031 C 212.765625 196.5 212.28125 196.554688 211.839844 196.714844 C 211.839844 196.8125 211.839844 196.910156 211.824219 197.003906 C 211.800781 197.203125 211.753906 197.386719 211.6875 197.554688 C 212.011719 197.355469 212.390625 197.238281 212.785156 197.238281 C 212.902344 197.238281 213.023438 197.25 213.140625 197.269531 C 213.691406 197.367188 214.171875 197.667969 214.496094 198.125 C 214.816406 198.582031 214.945312 199.136719 214.847656 199.6875 C 214.753906 200.238281 214.449219 200.722656 213.996094 201.042969 C 213.539062 201.363281 212.976562 201.492188 212.433594 201.398438 C 211.878906 201.300781 211.398438 201 211.078125 200.542969 C 210.753906 200.085938 210.628906 199.53125 210.722656 198.980469 C 210.742188 198.859375 210.773438 198.746094 210.8125 198.636719 C 210.742188 198.679688 210.671875 198.722656 210.597656 198.761719 C 210.4375 199.011719 210.234375 199.222656 209.996094 199.390625 C 210.007812 199.945312 210.179688 200.480469 210.507812 200.945312 C 210.9375 201.554688 211.578125 201.957031 212.3125 202.085938 C 212.472656 202.113281 212.632812 202.125 212.792969 202.125 C 213.367188 202.125 213.921875 201.949219 214.398438 201.613281 C 215.003906 201.183594 215.410156 200.542969 215.539062 199.808594 C 215.664062 199.074219 215.496094 198.332031 215.066406 197.722656 " fill-opacity="1" fill-rule="nonzero"/><path fill="#ffffff" d="M 217.117188 202.929688 C 216.832031 202.929688 216.554688 203.019531 216.316406 203.1875 C 216.011719 203.402344 215.808594 203.722656 215.742188 204.089844 C 215.613281 204.847656 216.125 205.570312 216.882812 205.703125 C 217.25 205.765625 217.621094 205.679688 217.925781 205.46875 C 218.230469 205.25 218.429688 204.929688 218.496094 204.5625 C 218.558594 204.195312 218.472656 203.828125 218.257812 203.523438 C 218.042969 203.21875 217.722656 203.015625 217.355469 202.953125 C 217.277344 202.9375 217.195312 202.929688 217.117188 202.929688 Z M 217.121094 206.421875 C 217.003906 206.421875 216.882812 206.410156 216.765625 206.390625 C 215.625 206.195312 214.859375 205.109375 215.054688 203.972656 C 215.152344 203.421875 215.457031 202.941406 215.914062 202.617188 C 216.371094 202.292969 216.925781 202.167969 217.472656 202.265625 C 218.023438 202.359375 218.507812 202.664062 218.828125 203.121094 C 219.152344 203.574219 219.277344 204.128906 219.183594 204.683594 C 219.085938 205.234375 218.785156 205.714844 218.328125 206.035156 C 217.972656 206.289062 217.554688 206.421875 217.121094 206.421875 " fill-opacity="1" fill-rule="nonzero"/><path fill="#ffffff" d="M 163.441406 191.257812 C 163.445312 191.203125 163.445312 191.144531 163.453125 191.089844 C 163.5 190.726562 163.613281 190.414062 163.78125 190.148438 C 162.773438 189.808594 161.863281 189.246094 161.109375 188.5 C 161.132812 188.683594 161.136719 188.871094 161.113281 189.046875 C 161.109375 189.066406 161.105469 189.082031 161.105469 189.097656 C 161.222656 189.441406 161.269531 189.796875 161.234375 190.125 C 161.90625 190.613281 162.648438 190.992188 163.441406 191.257812 " fill-opacity="1" fill-rule="nonzero"/><path fill="#ffffff" d="M 172.953125 184.695312 C 172.863281 185.214844 172.710938 185.707031 172.519531 186.175781 C 172.703125 186.148438 172.890625 186.128906 173.082031 186.128906 C 173.3125 186.128906 173.53125 186.179688 173.734375 186.265625 C 173.890625 185.824219 174.015625 185.367188 174.097656 184.890625 C 174.863281 180.449219 171.867188 176.210938 167.425781 175.445312 C 166.917969 175.359375 166.410156 175.320312 165.914062 175.328125 C 165.839844 175.816406 165.640625 176.210938 165.359375 176.523438 C 165.582031 176.5 165.808594 176.488281 166.035156 176.488281 C 166.429688 176.488281 166.828125 176.523438 167.226562 176.589844 C 171.039062 177.246094 173.609375 180.882812 172.953125 184.695312 " fill-opacity="1" fill-rule="nonzero"/><path fill="#ffffff" d="M 165.96875 181.480469 C 165.371094 181.480469 164.792969 181.664062 164.296875 182.011719 C 163.664062 182.460938 163.242188 183.128906 163.109375 183.894531 C 162.835938 185.476562 163.902344 186.980469 165.480469 187.253906 C 166.246094 187.382812 167.019531 187.207031 167.652344 186.761719 C 168.285156 186.3125 168.707031 185.644531 168.839844 184.882812 C 168.972656 184.117188 168.796875 183.34375 168.347656 182.710938 C 167.902344 182.078125 167.234375 181.652344 166.46875 181.523438 C 166.300781 181.496094 166.132812 181.480469 165.96875 181.480469 Z M 165.980469 187.992188 C 165.777344 187.992188 165.570312 187.976562 165.363281 187.941406 C 163.402344 187.605469 162.085938 185.734375 162.421875 183.777344 C 162.585938 182.828125 163.109375 182 163.894531 181.441406 C 164.683594 180.886719 165.636719 180.671875 166.585938 180.835938 C 167.535156 181 168.363281 181.523438 168.917969 182.308594 C 169.476562 183.09375 169.691406 184.050781 169.527344 185 C 169.363281 185.949219 168.839844 186.777344 168.054688 187.332031 C 167.441406 187.765625 166.726562 187.992188 165.980469 187.992188 " fill-opacity="1" fill-rule="nonzero"/><path fill="#ffffff" d="M 166.785156 178.980469 C 166.671875 179.652344 166.09375 180.140625 165.414062 180.140625 C 165.332031 180.140625 165.253906 180.132812 165.175781 180.121094 C 164.808594 180.058594 164.488281 179.855469 164.273438 179.550781 C 164.058594 179.246094 163.972656 178.875 164.035156 178.507812 C 164.097656 178.140625 164.300781 177.820312 164.605469 177.605469 C 164.84375 177.4375 165.121094 177.347656 165.410156 177.347656 C 165.488281 177.347656 165.570312 177.355469 165.648438 177.371094 C 166.015625 177.433594 166.335938 177.636719 166.550781 177.941406 C 166.765625 178.246094 166.851562 178.613281 166.785156 178.980469 Z M 167.121094 177.539062 C 166.800781 177.082031 166.316406 176.777344 165.765625 176.683594 C 165.402344 176.621094 165.035156 176.65625 164.699219 176.777344 C 164.617188 177.058594 164.496094 177.316406 164.324219 177.492188 C 164.269531 177.546875 164.222656 177.605469 164.171875 177.664062 C 164.171875 177.667969 164.171875 177.671875 164.171875 177.675781 C 164.15625 178.25 163.78125 178.792969 163.363281 179.183594 C 163.421875 179.457031 163.535156 179.71875 163.703125 179.953125 C 164.023438 180.410156 164.507812 180.714844 165.058594 180.808594 C 165.175781 180.828125 165.292969 180.839844 165.414062 180.839844 C 166.433594 180.839844 167.300781 180.109375 167.472656 179.101562 C 167.570312 178.550781 167.445312 177.996094 167.121094 177.539062 " fill-opacity="1" fill-rule="nonzero"/><path fill="#ffffff" d="M 185.324219 173.613281 C 185.675781 173.402344 186.082031 173.269531 186.511719 173.214844 C 186.558594 171.632812 186.210938 170.109375 185.546875 168.75 C 185.1875 168.878906 184.789062 168.945312 184.386719 168.945312 C 184.371094 168.945312 184.355469 168.941406 184.339844 168.941406 C 185.097656 170.332031 185.464844 171.945312 185.324219 173.613281 " fill-opacity="1" fill-rule="nonzero"/><path fill="#ffffff" d="M 168.6875 176.273438 C 168.929688 176.273438 169.160156 176.328125 169.375 176.421875 C 168.722656 175.011719 168.476562 173.457031 168.671875 171.894531 C 168.359375 172.265625 167.929688 172.519531 167.449219 172.664062 C 167.410156 173.921875 167.625 175.160156 168.074219 176.328125 C 168.273438 176.292969 168.476562 176.273438 168.6875 176.273438 " fill-opacity="1" fill-rule="nonzero"/><path fill="#ffffff" d="M 182.042969 179.628906 C 182.042969 179.609375 182.046875 179.589844 182.050781 179.570312 C 180.265625 180.933594 177.945312 181.582031 175.5625 181.171875 C 174.710938 181.023438 173.90625 180.75 173.160156 180.367188 C 173.25 180.640625 173.300781 180.921875 173.300781 181.191406 C 173.402344 181.386719 173.476562 181.59375 173.527344 181.800781 C 174.113281 182.03125 174.726562 182.207031 175.363281 182.316406 C 175.910156 182.410156 176.453125 182.457031 176.988281 182.457031 C 178.890625 182.457031 180.707031 181.878906 182.230469 180.867188 C 182.0625 180.457031 181.988281 180.023438 182.042969 179.628906 " fill-opacity="1" fill-rule="nonzero"/><path fill="#ffffff" d="M 174.050781 168.804688 C 173.957031 169.015625 173.890625 169.234375 173.851562 169.460938 C 173.582031 171.039062 174.644531 172.546875 176.226562 172.816406 C 176.390625 172.847656 176.554688 172.859375 176.71875 172.859375 C 178.136719 172.859375 179.34375 171.84375 179.582031 170.445312 C 179.675781 169.910156 179.617188 169.371094 179.410156 168.871094 C 178.890625 168.96875 178.324219 168.980469 177.8125 168.738281 C 177.484375 168.832031 177.140625 168.878906 176.785156 168.878906 C 176.46875 168.878906 176.160156 168.804688 175.871094 168.660156 C 175.472656 168.800781 175.035156 168.878906 174.585938 168.878906 C 174.40625 168.878906 174.226562 168.851562 174.050781 168.804688 Z M 176.71875 173.558594 C 176.515625 173.558594 176.308594 173.539062 176.109375 173.503906 C 174.148438 173.167969 172.828125 171.300781 173.164062 169.339844 C 173.234375 168.945312 173.371094 168.5625 173.570312 168.199219 L 173.726562 167.917969 L 174.019531 168.054688 C 174.203125 168.136719 174.394531 168.179688 174.585938 168.179688 C 175.003906 168.179688 175.40625 168.101562 175.757812 167.953125 L 175.921875 167.886719 L 176.070312 167.976562 C 176.300781 168.109375 176.539062 168.179688 176.785156 168.179688 C 177.117188 168.179688 177.441406 168.128906 177.742188 168.035156 L 177.882812 167.988281 L 178.015625 168.058594 C 178.230469 168.179688 178.457031 168.238281 178.683594 168.238281 C 178.972656 168.238281 179.253906 168.203125 179.519531 168.128906 L 179.792969 168.058594 L 179.921875 168.308594 C 180.28125 169.011719 180.402344 169.789062 180.269531 170.5625 C 179.972656 172.300781 178.480469 173.558594 176.71875 173.558594 " fill-opacity="1" fill-rule="nonzero"/><path fill="#ffffff" d="M 184.203125 205.671875 C 182.550781 203.339844 181.910156 200.503906 182.394531 197.6875 C 182.941406 194.503906 184.851562 191.894531 187.417969 190.34375 C 187.050781 190.179688 186.738281 189.890625 186.5 189.546875 C 183.816406 191.285156 181.835938 194.09375 181.25 197.488281 C 180.601562 201.261719 181.820312 204.933594 184.238281 207.550781 C 184.707031 207.472656 185.195312 207.453125 185.714844 207.453125 C 185.742188 207.453125 185.761719 207.457031 185.785156 207.457031 C 185.199219 206.929688 184.667969 206.332031 184.203125 205.671875 " fill-opacity="1" fill-rule="nonzero"/><path fill="#ffffff" d="M 198.292969 188.914062 C 198.039062 189.273438 197.679688 189.539062 197.269531 189.714844 C 199.023438 190.484375 200.542969 191.722656 201.679688 193.328125 C 202.691406 194.761719 203.320312 196.382812 203.546875 198.070312 C 203.777344 197.570312 204.101562 197.101562 204.46875 196.714844 C 203.652344 193.367188 201.402344 190.492188 198.292969 188.914062 " fill-opacity="1" fill-rule="nonzero"/><path fill="#ffffff" d="M 200.9375 197.867188 C 199.9375 197.867188 199.050781 198.589844 198.875 199.605469 C 198.679688 200.742188 199.445312 201.828125 200.582031 202.023438 C 200.953125 202.089844 201.335938 202.050781 201.683594 201.914062 C 201.757812 201.46875 201.921875 200.996094 202.164062 200.535156 C 202.164062 200.429688 202.171875 200.335938 202.183594 200.246094 C 202.25 199.734375 202.4375 199.285156 202.742188 198.910156 C 202.433594 198.375 201.902344 198.003906 201.292969 197.898438 C 201.171875 197.878906 201.054688 197.867188 200.9375 197.867188 Z M 200.9375 202.753906 C 200.78125 202.753906 200.621094 202.738281 200.464844 202.710938 C 198.945312 202.449219 197.925781 201.003906 198.1875 199.488281 C 198.445312 197.972656 199.894531 196.949219 201.410156 197.210938 C 202.324219 197.367188 203.097656 197.972656 203.480469 198.824219 L 203.578125 199.042969 L 203.410156 199.210938 C 203.113281 199.511719 202.929688 199.890625 202.875 200.335938 C 202.863281 200.414062 202.859375 200.5 202.863281 200.609375 L 202.867188 200.707031 L 202.820312 200.789062 C 202.558594 201.265625 202.394531 201.75 202.351562 202.191406 L 202.332031 202.382812 L 202.160156 202.46875 C 201.773438 202.65625 201.363281 202.753906 200.9375 202.753906 " fill-opacity="1" fill-rule="nonzero"/><path fill="#ffffff" d="M 201.65625 179.511719 C 201.378906 179.503906 201.121094 179.429688 200.882812 179.304688 C 201.15625 180.484375 201.191406 181.71875 200.980469 182.949219 C 200.558594 185.398438 199.207031 187.535156 197.179688 188.96875 C 195.148438 190.402344 192.683594 190.960938 190.234375 190.539062 C 185.179688 189.667969 181.773438 184.847656 182.640625 179.792969 C 183.421875 175.269531 187.363281 172.066406 191.804688 172.066406 C 192.328125 172.066406 192.855469 172.109375 193.386719 172.203125 C 194.652344 172.417969 195.832031 172.886719 196.875 173.5625 C 196.734375 173.246094 196.648438 172.910156 196.636719 172.582031 C 196.464844 172.371094 196.320312 172.128906 196.21875 171.875 C 195.390625 171.492188 194.507812 171.214844 193.585938 171.054688 C 187.898438 170.078125 182.476562 173.910156 181.496094 179.597656 C 180.519531 185.285156 184.347656 190.707031 190.035156 191.683594 C 190.636719 191.789062 191.238281 191.839844 191.832031 191.839844 C 193.976562 191.839844 196.0625 191.179688 197.851562 189.917969 C 200.132812 188.304688 201.652344 185.902344 202.125 183.144531 C 202.300781 182.125 202.320312 181.101562 202.195312 180.097656 C 201.988281 179.9375 201.804688 179.738281 201.65625 179.511719 " fill-opacity="1" fill-rule="nonzero"/><path fill="#ffffff" d="M 197.542969 175.140625 C 197.246094 175.140625 196.957031 175.230469 196.710938 175.40625 C 196.398438 175.628906 196.1875 175.960938 196.121094 176.339844 C 196.058594 176.71875 196.144531 177.101562 196.367188 177.417969 C 196.589844 177.730469 196.921875 177.941406 197.300781 178.007812 C 197.679688 178.074219 198.066406 177.984375 198.378906 177.761719 C 198.691406 177.539062 198.902344 177.207031 198.96875 176.828125 C 199.035156 176.449219 198.949219 176.066406 198.722656 175.75 C 198.5 175.4375 198.171875 175.226562 197.789062 175.160156 C 197.707031 175.148438 197.625 175.140625 197.542969 175.140625 Z M 197.550781 178.726562 C 197.425781 178.726562 197.304688 178.714844 197.183594 178.695312 C 196.617188 178.597656 196.125 178.285156 195.796875 177.820312 C 195.464844 177.351562 195.339844 176.785156 195.433594 176.222656 C 195.53125 175.65625 195.84375 175.164062 196.308594 174.835938 C 196.777344 174.503906 197.34375 174.375 197.910156 174.472656 C 198.472656 174.570312 198.964844 174.882812 199.292969 175.347656 C 199.625 175.816406 199.753906 176.382812 199.65625 176.945312 C 199.558594 177.511719 199.246094 178.003906 198.78125 178.332031 C 198.417969 178.589844 197.992188 178.726562 197.550781 178.726562 " fill-opacity="1" fill-rule="nonzero"/><path fill="#ffffff" d="M 173.855469 185.597656 C 171.101562 185.125 168.324219 185.75 166.042969 187.363281 C 163.832031 188.925781 162.339844 191.234375 161.816406 193.882812 C 162.210938 194.199219 162.546875 194.59375 162.824219 195.035156 C 162.84375 194.800781 162.871094 194.570312 162.914062 194.335938 C 163.335938 191.886719 164.683594 189.746094 166.714844 188.3125 C 168.300781 187.191406 170.15625 186.605469 172.0625 186.605469 C 172.589844 186.605469 173.125 186.652344 173.660156 186.742188 C 178.714844 187.613281 182.121094 192.433594 181.25 197.488281 C 180.378906 202.542969 175.558594 205.949219 170.503906 205.082031 C 169.59375 204.921875 168.742188 204.636719 167.953125 204.246094 C 168.289062 204.722656 168.546875 205.261719 168.71875 205.816406 C 169.230469 205.992188 169.757812 206.132812 170.308594 206.226562 C 170.90625 206.328125 171.5 206.378906 172.085938 206.378906 C 177.085938 206.378906 181.519531 202.777344 182.394531 197.6875 C 183.375 192 179.542969 186.578125 173.855469 185.597656 " fill-opacity="1" fill-rule="nonzero"/><path fill="#ffffff" d="M 176.476562 214.300781 C 176.09375 214.375 175.699219 214.410156 175.28125 214.417969 C 175.625 215.355469 175.738281 216.386719 175.558594 217.4375 C 175.011719 220.628906 171.96875 222.777344 168.777344 222.226562 C 168.464844 222.171875 168.164062 222.09375 167.871094 221.996094 C 168.160156 222.417969 168.386719 222.886719 168.550781 223.367188 C 168.5625 223.371094 168.570312 223.371094 168.578125 223.375 C 168.980469 223.441406 169.382812 223.476562 169.777344 223.476562 C 173.136719 223.476562 176.117188 221.054688 176.703125 217.632812 C 176.898438 216.5 176.816406 215.363281 176.476562 214.300781 " fill-opacity="1" fill-rule="nonzero"/><path fill="#ffffff" d="M 271.265625 137.886719 C 271.070312 137.574219 270.671875 137.460938 270.339844 137.625 L 224.382812 160.394531 L 224.667969 160.734375 C 224.757812 160.84375 224.847656 160.964844 224.933594 161.085938 L 225.105469 161.335938 L 267.007812 140.574219 L 233.691406 166.734375 L 235.292969 166.324219 C 235.566406 166.253906 235.859375 166.207031 236.183594 166.179688 L 236.289062 166.171875 L 271.101562 138.839844 C 271.394531 138.609375 271.464844 138.203125 271.265625 137.886719 " fill-opacity="1" fill-rule="nonzero"/><path fill="#ffffff" d="M 93.15625 167.765625 C 92.789062 167.714844 92.457031 167.945312 92.367188 168.308594 C 92.277344 168.667969 92.46875 169.023438 92.816406 169.15625 L 137.839844 185.851562 L 137.953125 185.507812 C 137.996094 185.375 138.046875 185.242188 138.105469 185.109375 L 138.261719 184.769531 L 96.8125 169.398438 L 141.042969 174.960938 L 141.140625 174.707031 C 141.195312 174.570312 141.257812 174.429688 141.328125 174.296875 L 141.554688 173.855469 L 93.15625 167.765625 " fill-opacity="1" fill-rule="nonzero"/><path fill="#ffffff" d="M 161.160156 226.046875 C 161.027344 225.980469 160.898438 225.902344 160.777344 225.816406 L 160.5625 225.664062 L 114.964844 262.609375 L 153.066406 218.460938 L 152.859375 218.230469 C 152.765625 218.125 152.671875 218.007812 152.585938 217.890625 L 152.328125 217.535156 L 109.613281 267.03125 L 110.378906 267.820312 L 161.636719 226.292969 L 161.160156 226.046875 " fill-opacity="1" fill-rule="nonzero"/><path fill="#ffffff" d="M 194.898438 234.285156 L 194.414062 234.59375 C 194.277344 234.683594 194.140625 234.757812 194.003906 234.824219 L 193.785156 234.925781 L 198.152344 286.277344 L 187.507812 246.074219 L 187.183594 247.410156 C 187.164062 247.492188 187.136719 247.574219 187.105469 247.671875 L 187.085938 247.734375 L 187.089844 247.796875 C 187.097656 247.988281 187.097656 248.171875 187.082031 248.34375 C 187.074219 248.445312 187.054688 248.554688 187.03125 248.675781 L 187.015625 248.753906 L 197.964844 290.113281 C 198.0625 290.488281 198.390625 290.742188 198.773438 290.742188 C 198.824219 290.742188 198.875 290.738281 198.921875 290.730469 C 199.359375 290.65625 199.65625 290.265625 199.621094 289.824219 L 194.898438 234.285156 " fill-opacity="1" fill-rule="nonzero"/><path fill="#ffffff" d="M 189.640625 181.070312 C 189.042969 181.070312 188.464844 181.25 187.96875 181.601562 C 187.332031 182.050781 186.910156 182.71875 186.78125 183.484375 C 186.648438 184.25 186.824219 185.019531 187.269531 185.652344 C 187.71875 186.289062 188.386719 186.710938 189.152344 186.839844 C 189.316406 186.871094 189.480469 186.882812 189.648438 186.882812 C 191.066406 186.882812 192.269531 185.867188 192.511719 184.46875 C 192.640625 183.703125 192.46875 182.933594 192.019531 182.300781 C 191.570312 181.664062 190.902344 181.242188 190.136719 181.113281 C 189.972656 181.082031 189.804688 181.070312 189.640625 181.070312 Z M 189.648438 187.582031 C 189.441406 187.582031 189.238281 187.5625 189.035156 187.53125 C 188.085938 187.367188 187.257812 186.84375 186.699219 186.054688 C 186.144531 185.269531 185.929688 184.316406 186.09375 183.367188 C 186.257812 182.417969 186.777344 181.589844 187.566406 181.03125 C 188.351562 180.476562 189.308594 180.261719 190.257812 180.425781 C 191.207031 180.585938 192.035156 181.109375 192.589844 181.898438 C 193.144531 182.683594 193.359375 183.640625 193.199219 184.585938 C 192.898438 186.324219 191.40625 187.582031 189.648438 187.582031 " fill-opacity="1" fill-rule="nonzero"/><path fill="#ffffff" d="M 191.84375 173.882812 C 191.414062 173.882812 190.996094 174.015625 190.640625 174.269531 C 190.183594 174.589844 189.878906 175.070312 189.785156 175.621094 C 189.691406 176.171875 189.816406 176.730469 190.136719 177.183594 C 190.460938 177.640625 190.941406 177.945312 191.492188 178.039062 C 192.039062 178.132812 192.601562 178.007812 193.054688 177.6875 C 193.511719 177.363281 193.816406 176.882812 193.910156 176.332031 C 194.105469 175.195312 193.339844 174.109375 192.203125 173.914062 C 192.082031 173.894531 191.964844 173.882812 191.84375 173.882812 Z M 191.851562 178.769531 C 191.691406 178.769531 191.53125 178.753906 191.375 178.726562 C 190.640625 178.601562 189.996094 178.195312 189.566406 177.585938 C 189.136719 176.980469 188.972656 176.238281 189.097656 175.503906 C 189.222656 174.769531 189.628906 174.128906 190.238281 173.699219 C 190.847656 173.269531 191.585938 173.101562 192.320312 173.226562 C 193.835938 173.488281 194.859375 174.933594 194.597656 176.449219 C 194.472656 177.1875 194.066406 177.828125 193.457031 178.257812 C 192.984375 178.59375 192.429688 178.769531 191.851562 178.769531 " fill-opacity="1" fill-rule="nonzero"/><path fill="#ffffff" d="M 196.179688 179.574219 C 195.511719 179.574219 194.921875 180.054688 194.804688 180.734375 C 194.675781 181.492188 195.183594 182.214844 195.945312 182.347656 C 196.023438 182.359375 196.101562 182.367188 196.179688 182.367188 C 196.863281 182.367188 197.441406 181.878906 197.554688 181.207031 C 197.6875 180.449219 197.175781 179.726562 196.417969 179.597656 C 196.335938 179.582031 196.257812 179.574219 196.179688 179.574219 Z M 196.179688 183.0625 C 196.0625 183.0625 195.941406 183.054688 195.824219 183.035156 C 194.6875 182.839844 193.921875 181.753906 194.117188 180.617188 C 194.3125 179.480469 195.398438 178.714844 196.535156 178.90625 C 197.671875 179.105469 198.4375 180.1875 198.242188 181.324219 C 198.070312 182.332031 197.203125 183.0625 196.179688 183.0625 " fill-opacity="1" fill-rule="nonzero"/><path fill="#ffffff" d="M 174 189.707031 C 172.609375 189.707031 171.378906 190.707031 171.132812 192.121094 C 170.863281 193.699219 171.925781 195.207031 173.507812 195.476562 C 173.671875 195.507812 173.835938 195.519531 174 195.519531 C 175.421875 195.519531 176.625 194.503906 176.863281 193.105469 C 177.136719 191.527344 176.074219 190.019531 174.492188 189.746094 C 174.328125 189.71875 174.160156 189.707031 174 189.707031 Z M 174 196.21875 C 173.796875 196.21875 173.589844 196.199219 173.386719 196.164062 C 171.429688 195.828125 170.109375 193.960938 170.445312 192 C 170.785156 190.042969 172.652344 188.722656 174.609375 189.058594 C 176.570312 189.398438 177.890625 191.265625 177.550781 193.222656 C 177.253906 194.957031 175.761719 196.21875 174 196.21875 " fill-opacity="1" fill-rule="nonzero"/><path fill="#ffffff" d="M 173.441406 198.566406 C 172.441406 198.566406 171.554688 199.285156 171.378906 200.304688 C 171.183594 201.441406 171.949219 202.527344 173.085938 202.722656 C 173.203125 202.742188 173.324219 202.753906 173.441406 202.753906 C 174.464844 202.753906 175.332031 202.019531 175.503906 201.011719 C 175.597656 200.460938 175.472656 199.90625 175.152344 199.449219 C 174.828125 198.992188 174.347656 198.691406 173.796875 198.59375 C 173.675781 198.574219 173.558594 198.566406 173.441406 198.566406 Z M 173.441406 203.449219 C 173.285156 203.449219 173.125 203.4375 172.96875 203.410156 C 171.449219 203.148438 170.429688 201.703125 170.691406 200.183594 C 170.953125 198.667969 172.398438 197.648438 173.914062 197.90625 C 174.648438 198.035156 175.289062 198.441406 175.71875 199.046875 C 176.152344 199.65625 176.320312 200.398438 176.191406 201.132812 C 175.960938 202.476562 174.804688 203.449219 173.441406 203.449219 " fill-opacity="1" fill-rule="nonzero"/><path fill="#ffffff" d="M 167.269531 194.996094 C 166.976562 194.996094 166.6875 195.085938 166.441406 195.261719 C 166.125 195.484375 165.917969 195.816406 165.851562 196.195312 C 165.785156 196.574219 165.871094 196.957031 166.09375 197.273438 C 166.316406 197.589844 166.648438 197.796875 167.03125 197.863281 C 167.109375 197.878906 167.191406 197.882812 167.273438 197.882812 C 167.980469 197.882812 168.578125 197.378906 168.695312 196.683594 C 168.761719 196.304688 168.675781 195.921875 168.453125 195.609375 C 168.230469 195.292969 167.898438 195.082031 167.519531 195.019531 C 167.4375 195.003906 167.351562 194.996094 167.269531 194.996094 Z M 167.273438 198.582031 C 167.152344 198.582031 167.03125 198.570312 166.910156 198.550781 C 166.347656 198.453125 165.855469 198.144531 165.523438 197.675781 C 165.195312 197.207031 165.066406 196.640625 165.164062 196.078125 C 165.261719 195.511719 165.570312 195.019531 166.039062 194.691406 C 166.507812 194.359375 167.074219 194.230469 167.636719 194.332031 C 168.199219 194.425781 168.695312 194.738281 169.023438 195.203125 C 169.351562 195.671875 169.480469 196.238281 169.382812 196.804688 C 169.207031 197.835938 168.320312 198.582031 167.273438 198.582031 " fill-opacity="1" fill-rule="nonzero"/><path fill="#ffffff" d="M 192.0625 198.933594 C 191.398438 198.933594 190.75 199.136719 190.195312 199.53125 C 189.488281 200.03125 189.015625 200.777344 188.871094 201.632812 C 188.566406 203.394531 189.753906 205.078125 191.519531 205.378906 C 191.699219 205.410156 191.886719 205.429688 192.070312 205.429688 C 193.65625 205.429688 195 204.292969 195.269531 202.730469 C 195.414062 201.878906 195.21875 201.019531 194.71875 200.308594 C 194.21875 199.601562 193.472656 199.128906 192.621094 198.984375 C 192.433594 198.949219 192.246094 198.933594 192.0625 198.933594 Z M 192.070312 206.125 C 191.847656 206.125 191.621094 206.105469 191.402344 206.066406 C 189.257812 205.699219 187.8125 203.65625 188.183594 201.511719 C 188.359375 200.472656 188.933594 199.566406 189.792969 198.960938 C 190.652344 198.351562 191.699219 198.117188 192.738281 198.292969 C 193.773438 198.472656 194.679688 199.046875 195.289062 199.90625 C 195.898438 200.769531 196.132812 201.8125 195.957031 202.851562 C 195.628906 204.75 193.996094 206.125 192.070312 206.125 " fill-opacity="1" fill-rule="nonzero"/><path fill="#ffffff" d="M 196.03125 192.066406 C 195.601562 192.066406 195.183594 192.199219 194.828125 192.453125 C 194.371094 192.773438 194.066406 193.253906 193.972656 193.808594 C 193.777344 194.945312 194.542969 196.027344 195.679688 196.226562 C 195.796875 196.246094 195.917969 196.253906 196.035156 196.253906 C 197.058594 196.253906 197.925781 195.523438 198.097656 194.515625 C 198.191406 193.96875 198.066406 193.414062 197.742188 192.953125 C 197.421875 192.496094 196.9375 192.195312 196.390625 192.097656 C 196.269531 192.078125 196.148438 192.066406 196.03125 192.066406 Z M 196.035156 196.953125 C 195.878906 196.953125 195.71875 196.941406 195.5625 196.914062 C 194.046875 196.652344 193.023438 195.203125 193.285156 193.6875 C 193.410156 192.953125 193.816406 192.3125 194.425781 191.882812 C 195.035156 191.453125 195.773438 191.285156 196.507812 191.410156 C 198.023438 191.671875 199.046875 193.117188 198.785156 194.636719 C 198.554688 195.976562 197.398438 196.953125 196.035156 196.953125 " fill-opacity="1" fill-rule="nonzero"/><path fill="#ffffff" d="M 186.3125 194.398438 C 186.023438 194.398438 185.746094 194.484375 185.507812 194.652344 C 185.203125 194.867188 185 195.191406 184.9375 195.558594 C 184.875 195.921875 184.960938 196.292969 185.175781 196.597656 C 185.390625 196.902344 185.710938 197.105469 186.078125 197.167969 C 186.445312 197.234375 186.816406 197.148438 187.121094 196.933594 C 187.425781 196.71875 187.625 196.398438 187.691406 196.03125 C 187.753906 195.664062 187.667969 195.292969 187.453125 194.988281 C 187.238281 194.683594 186.917969 194.480469 186.550781 194.417969 C 186.472656 194.40625 186.390625 194.398438 186.3125 194.398438 Z M 186.316406 197.886719 C 186.199219 197.886719 186.078125 197.875 185.957031 197.855469 C 185.410156 197.761719 184.929688 197.457031 184.605469 197 C 184.28125 196.542969 184.15625 195.988281 184.25 195.4375 C 184.347656 194.886719 184.648438 194.40625 185.105469 194.082031 C 185.5625 193.761719 186.117188 193.636719 186.667969 193.730469 C 187.21875 193.824219 187.703125 194.128906 188.023438 194.585938 C 188.347656 195.042969 188.472656 195.597656 188.378906 196.148438 C 188.28125 196.699219 187.980469 197.179688 187.523438 197.503906 C 187.167969 197.753906 186.75 197.886719 186.316406 197.886719 " fill-opacity="1" fill-rule="nonzero"/><path fill="#ffffff" d="M 173.949219 173.636719 C 173.519531 173.636719 173.105469 173.769531 172.746094 174.023438 C 172.289062 174.34375 171.984375 174.824219 171.890625 175.375 C 171.695312 176.515625 172.460938 177.597656 173.597656 177.792969 C 174.144531 177.886719 174.707031 177.761719 175.160156 177.441406 C 175.617188 177.117188 175.921875 176.636719 176.015625 176.085938 C 176.113281 175.535156 175.988281 174.980469 175.664062 174.523438 C 175.339844 174.066406 174.859375 173.761719 174.308594 173.667969 C 174.1875 173.648438 174.070312 173.636719 173.949219 173.636719 Z M 173.960938 178.523438 C 173.800781 178.523438 173.636719 178.507812 173.480469 178.480469 C 171.964844 178.21875 170.941406 176.773438 171.203125 175.257812 C 171.332031 174.523438 171.734375 173.882812 172.34375 173.453125 C 172.953125 173.019531 173.691406 172.855469 174.425781 172.980469 C 175.164062 173.105469 175.804688 173.511719 176.234375 174.121094 C 176.664062 174.730469 176.832031 175.46875 176.703125 176.203125 C 176.578125 176.9375 176.171875 177.582031 175.566406 178.011719 C 175.089844 178.34375 174.535156 178.523438 173.960938 178.523438 " fill-opacity="1" fill-rule="nonzero"/><path fill="#ffffff" d="M 180.726562 173.375 C 180.0625 173.375 179.46875 173.859375 179.351562 174.535156 C 179.289062 174.902344 179.371094 175.273438 179.585938 175.578125 C 179.800781 175.882812 180.125 176.085938 180.492188 176.148438 C 180.855469 176.210938 181.230469 176.125 181.53125 175.914062 C 181.835938 175.695312 182.039062 175.375 182.101562 175.007812 C 182.164062 174.640625 182.082031 174.273438 181.867188 173.96875 C 181.652344 173.664062 181.332031 173.460938 180.964844 173.398438 C 180.882812 173.382812 180.804688 173.375 180.726562 173.375 Z M 180.730469 176.867188 C 180.613281 176.867188 180.492188 176.855469 180.371094 176.835938 C 179.820312 176.738281 179.339844 176.4375 179.015625 175.980469 C 178.695312 175.523438 178.570312 174.96875 178.664062 174.417969 C 178.859375 173.28125 179.945312 172.515625 181.082031 172.707031 C 181.632812 172.804688 182.113281 173.109375 182.4375 173.566406 C 182.757812 174.023438 182.886719 174.578125 182.789062 175.128906 C 182.695312 175.679688 182.390625 176.160156 181.933594 176.480469 C 181.578125 176.734375 181.164062 176.867188 180.730469 176.867188 " fill-opacity="1" fill-rule="nonzero"/><path fill="#ffffff" d="M 187.328125 153.519531 C 186.328125 153.519531 185.441406 154.238281 185.265625 155.257812 C 185.167969 155.808594 185.296875 156.363281 185.617188 156.820312 C 185.941406 157.277344 186.421875 157.582031 186.972656 157.675781 C 187.089844 157.695312 187.210938 157.707031 187.328125 157.707031 C 188.351562 157.707031 189.21875 156.972656 189.390625 155.96875 C 189.585938 154.828125 188.820312 153.746094 187.683594 153.550781 C 187.5625 153.527344 187.445312 153.519531 187.328125 153.519531 Z M 187.328125 158.402344 C 187.171875 158.402344 187.011719 158.390625 186.855469 158.363281 C 186.121094 158.238281 185.476562 157.832031 185.046875 157.222656 C 184.617188 156.613281 184.449219 155.875 184.578125 155.140625 C 184.835938 153.621094 186.285156 152.601562 187.800781 152.863281 C 189.316406 153.121094 190.339844 154.570312 190.078125 156.085938 C 189.847656 157.429688 188.691406 158.402344 187.328125 158.402344 " fill-opacity="1" fill-rule="nonzero"/><path fill="#ffffff" d="M 194.097656 153.257812 C 193.8125 153.257812 193.535156 153.34375 193.296875 153.511719 C 192.992188 153.726562 192.789062 154.050781 192.726562 154.417969 C 192.59375 155.175781 193.105469 155.898438 193.863281 156.027344 C 194.230469 156.09375 194.601562 156.007812 194.90625 155.792969 C 195.210938 155.578125 195.414062 155.257812 195.476562 154.890625 C 195.539062 154.523438 195.457031 154.152344 195.242188 153.847656 C 195.023438 153.542969 194.703125 153.339844 194.335938 153.277344 C 194.257812 153.265625 194.175781 153.257812 194.097656 153.257812 Z M 194.105469 156.746094 C 193.984375 156.746094 193.863281 156.738281 193.746094 156.714844 C 192.609375 156.519531 191.84375 155.4375 192.039062 154.296875 C 192.132812 153.746094 192.4375 153.265625 192.894531 152.941406 C 193.351562 152.621094 193.90625 152.496094 194.457031 152.589844 C 195.007812 152.683594 195.488281 152.988281 195.808594 153.445312 C 196.132812 153.902344 196.257812 154.457031 196.164062 155.007812 C 196.066406 155.558594 195.765625 156.039062 195.308594 156.363281 C 194.953125 156.613281 194.535156 156.746094 194.105469 156.746094 " fill-opacity="1" fill-rule="nonzero"/><path fill="#ffffff" d="M 190.28125 217.972656 C 189.992188 217.972656 189.714844 218.058594 189.476562 218.226562 C 189.171875 218.441406 188.96875 218.765625 188.90625 219.132812 C 188.84375 219.5 188.925781 219.867188 189.140625 220.171875 C 189.355469 220.476562 189.679688 220.679688 190.046875 220.742188 C 190.410156 220.804688 190.785156 220.722656 191.085938 220.507812 C 191.390625 220.292969 191.59375 219.972656 191.65625 219.605469 C 191.71875 219.238281 191.636719 218.867188 191.421875 218.5625 C 191.207031 218.257812 190.886719 218.054688 190.519531 217.992188 C 190.4375 217.980469 190.359375 217.972656 190.28125 217.972656 Z M 190.285156 221.460938 C 190.167969 221.460938 190.046875 221.453125 189.925781 221.429688 C 189.375 221.335938 188.894531 221.03125 188.574219 220.574219 C 188.25 220.117188 188.125 219.5625 188.21875 219.011719 C 188.3125 218.460938 188.617188 217.980469 189.074219 217.660156 C 189.53125 217.335938 190.085938 217.210938 190.636719 217.304688 C 191.1875 217.398438 191.667969 217.703125 191.992188 218.160156 C 192.316406 218.617188 192.441406 219.171875 192.34375 219.722656 C 192.25 220.273438 191.945312 220.753906 191.488281 221.078125 C 191.132812 221.328125 190.71875 221.460938 190.285156 221.460938 " fill-opacity="1" fill-rule="nonzero"/><path fill="#ffffff" d="M 194.097656 221.476562 C 193.597656 221.476562 193.109375 221.628906 192.691406 221.925781 C 192.160156 222.300781 191.804688 222.863281 191.695312 223.503906 C 191.464844 224.832031 192.359375 226.097656 193.6875 226.324219 C 194.328125 226.4375 194.980469 226.289062 195.511719 225.914062 C 196.042969 225.535156 196.398438 224.976562 196.507812 224.332031 C 196.734375 223.003906 195.84375 221.742188 194.515625 221.511719 C 194.375 221.488281 194.234375 221.476562 194.097656 221.476562 Z M 194.105469 227.058594 C 193.929688 227.058594 193.746094 227.042969 193.570312 227.011719 C 191.863281 226.71875 190.714844 225.09375 191.007812 223.386719 C 191.148438 222.558594 191.605469 221.839844 192.289062 221.355469 C 192.972656 220.871094 193.804688 220.683594 194.632812 220.824219 C 196.339844 221.117188 197.488281 222.746094 197.195312 224.453125 C 197.054688 225.277344 196.597656 226 195.914062 226.484375 C 195.378906 226.859375 194.753906 227.058594 194.105469 227.058594 " fill-opacity="1" fill-rule="nonzero"/><path fill="#ffffff" d="M 171.78125 217.148438 C 171.113281 217.148438 170.519531 217.628906 170.40625 218.308594 C 170.273438 219.066406 170.785156 219.789062 171.542969 219.921875 C 171.910156 219.984375 172.28125 219.898438 172.585938 219.683594 C 172.890625 219.46875 173.09375 219.148438 173.15625 218.78125 C 173.21875 218.414062 173.136719 218.042969 172.917969 217.738281 C 172.703125 217.433594 172.382812 217.230469 172.015625 217.167969 C 171.9375 217.15625 171.859375 217.148438 171.78125 217.148438 Z M 171.785156 220.636719 C 171.664062 220.636719 171.542969 220.628906 171.425781 220.605469 C 170.289062 220.410156 169.523438 219.328125 169.71875 218.1875 C 169.914062 217.050781 170.996094 216.285156 172.132812 216.480469 C 172.6875 216.578125 173.167969 216.878906 173.488281 217.335938 C 173.8125 217.792969 173.9375 218.347656 173.84375 218.898438 C 173.75 219.449219 173.445312 219.929688 172.988281 220.253906 C 172.632812 220.503906 172.214844 220.636719 171.785156 220.636719 " fill-opacity="1" fill-rule="nonzero"/><path fill="#ffffff" d="M 151.710938 193.175781 C 151.28125 193.175781 150.863281 193.304688 150.503906 193.558594 C 150.046875 193.882812 149.746094 194.363281 149.648438 194.914062 C 149.554688 195.464844 149.679688 196.019531 150.003906 196.476562 C 150.324219 196.933594 150.808594 197.234375 151.359375 197.332031 C 151.902344 197.425781 152.464844 197.300781 152.921875 196.976562 C 153.378906 196.65625 153.679688 196.175781 153.777344 195.621094 C 153.972656 194.484375 153.207031 193.402344 152.066406 193.203125 C 151.949219 193.183594 151.828125 193.175781 151.710938 193.175781 Z M 151.71875 198.058594 C 151.558594 198.058594 151.398438 198.046875 151.238281 198.019531 C 150.503906 197.890625 149.863281 197.488281 149.433594 196.878906 C 149.003906 196.269531 148.835938 195.53125 148.960938 194.796875 C 149.089844 194.058594 149.492188 193.417969 150.101562 192.988281 C 150.710938 192.558594 151.453125 192.390625 152.1875 192.515625 C 153.703125 192.777344 154.722656 194.226562 154.464844 195.742188 C 154.335938 196.476562 153.933594 197.117188 153.324219 197.546875 C 152.847656 197.882812 152.292969 198.058594 151.71875 198.058594 " fill-opacity="1" fill-rule="nonzero"/><path fill="#ffffff" d="M 199.089844 154.214844 C 198.582031 156.527344 195.335938 161.667969 194.160156 162.351562 C 193.925781 162.472656 192.3125 162.710938 187.90625 162.730469 L 183.011719 155.074219 L 178.332031 162.476562 C 173.417969 162.195312 171.15625 161.78125 170.710938 161.507812 C 169.03125 160.472656 163.664062 155.066406 162.058594 153.433594 C 162.035156 153.410156 162.027344 153.382812 162.03125 153.351562 C 162.039062 153.316406 162.054688 153.296875 162.085938 153.285156 C 167.085938 151.207031 184.847656 145.152344 188.851562 145.460938 C 193.378906 145.800781 198.1875 152.273438 199.136719 153.617188 C 199.148438 153.652344 199.175781 153.8125 199.089844 154.214844 Z M 169.980469 162.695312 C 170.839844 163.222656 173.761719 163.628906 178.664062 163.894531 L 179.074219 163.917969 L 183.015625 157.675781 L 187.144531 164.128906 L 187.527344 164.128906 C 193.890625 164.117188 194.617188 163.699219 194.855469 163.558594 C 196.316406 162.714844 199.851562 157.253906 200.453125 154.511719 C 200.617188 153.765625 200.5625 153.214844 200.289062 152.828125 C 198.90625 150.871094 194 144.449219 188.957031 144.066406 C 184.484375 143.722656 165.914062 150.183594 161.550781 151.996094 C 161.09375 152.183594 160.761719 152.585938 160.664062 153.074219 C 160.566406 153.558594 160.714844 154.058594 161.0625 154.414062 C 163.15625 156.542969 168.214844 161.613281 169.980469 162.695312 " fill-opacity="1" fill-rule="nonzero"/><path fill="#ffffff" d="M 206.125 190.117188 C 205.371094 192.59375 199.179688 206.472656 198.015625 207.144531 C 197.390625 207.457031 191.054688 207.257812 186.859375 207.128906 C 176.992188 206.820312 172.539062 206.796875 171.332031 207.476562 C 170.097656 207.0625 166.324219 201.902344 163.546875 195.472656 C 162.820312 193.796875 162.433594 191.789062 162.09375 190.015625 C 161.734375 188.140625 161.417969 186.503906 160.765625 185.496094 C 165.066406 177.542969 170.453125 169.324219 172.113281 169.230469 C 175.238281 169.054688 189.425781 169.171875 193.089844 170.488281 C 194.546875 171.011719 197.6875 174.855469 201.085938 180.28125 C 204.792969 186.199219 206.167969 189.679688 206.125 190.117188 Z M 193.5625 169.175781 C 189.726562 167.796875 175.21875 167.65625 172.03125 167.839844 C 168.710938 168.023438 160.863281 182.359375 159.324219 185.234375 L 159.085938 185.675781 L 159.429688 186.042969 C 160.03125 186.675781 160.382812 188.507812 160.722656 190.28125 C 161.078125 192.125 161.480469 194.210938 162.265625 196.027344 C 164.726562 201.714844 168.816406 208.21875 170.984375 208.828125 C 171.117188 208.863281 171.246094 208.882812 171.371094 208.882812 C 171.617188 208.882812 171.847656 208.8125 172.039062 208.675781 C 172.875 208.085938 181.9375 208.371094 186.816406 208.523438 C 194.640625 208.765625 197.90625 208.820312 198.714844 208.355469 C 200.652344 207.234375 207.09375 191.71875 207.457031 190.523438 C 207.996094 188.753906 202.859375 180.480469 202.269531 179.542969 C 200.511719 176.734375 196.140625 170.101562 193.5625 169.175781 " fill-opacity="1" fill-rule="nonzero"/><path fill="#ffffff" d="M 213.511719 174.550781 L 204.796875 175.203125 C 202.226562 170.804688 202.226562 169.269531 202.457031 168.742188 C 203.574219 166.21875 205.371094 162.496094 206.347656 160.5 C 206.46875 160.257812 207.585938 158.953125 208.957031 158.617188 C 209.644531 158.449219 210.285156 158.574219 210.855469 158.996094 C 214.558594 161.71875 225.726562 169.929688 227.71875 172.660156 C 226.980469 179.929688 226.007812 185.359375 225.519531 186.101562 C 225.40625 186.125 225.261719 186.160156 225.082031 186.203125 C 214.359375 188.808594 212.382812 187.328125 212.03125 186.570312 C 211.597656 185.640625 210.609375 184.136719 209.449219 182.40625 Z M 211.679688 157.871094 C 210.761719 157.195312 209.734375 156.992188 208.621094 157.261719 C 206.828125 157.703125 205.371094 159.320312 205.09375 159.886719 C 204.113281 161.890625 202.304688 165.632812 201.179688 168.179688 C 200.535156 169.640625 201.347656 172.144531 203.816406 176.289062 L 204.035156 176.660156 L 211.125 176.128906 L 207.832031 182.496094 L 208.058594 182.839844 C 209.34375 184.75 210.355469 186.28125 210.765625 187.160156 C 211.363281 188.449219 212.953125 189.078125 215.617188 189.078125 C 218.003906 189.078125 221.207031 188.582031 225.414062 187.5625 C 225.667969 187.5 225.851562 187.453125 225.957031 187.429688 C 226.542969 187.308594 227.199219 187.167969 228.277344 179.613281 C 228.773438 176.121094 229.128906 172.582031 229.132812 172.550781 L 229.15625 172.3125 L 229.03125 172.109375 C 227.511719 169.664062 218.402344 162.8125 211.679688 157.871094 " fill-opacity="1" fill-rule="nonzero"/><path fill="#ffffff" d="M 154.011719 158.964844 C 154.691406 158.902344 158.984375 161.894531 161.402344 165.582031 C 162.398438 167.097656 162.710938 168.304688 162.230469 168.808594 C 161.515625 169.5625 160.804688 170.484375 160.113281 171.550781 L 152.277344 170.203125 L 156.691406 178.414062 C 155.734375 180.832031 155.105469 182.917969 154.867188 183.742188 C 153.515625 184.066406 148.742188 184.960938 146.332031 182.199219 C 145.929688 181.742188 145.421875 180.328125 146.5 176.015625 C 148.425781 168.316406 153.132812 159.503906 154.011719 158.964844 Z M 151.554688 185.550781 C 153.691406 185.550781 155.441406 185.042969 155.632812 184.984375 L 156.007812 184.871094 L 156.105469 184.496094 C 156.113281 184.46875 156.824219 181.816406 158.105469 178.632812 L 158.226562 178.328125 L 154.863281 172.0625 L 160.796875 173.085938 L 161.046875 172.6875 C 161.765625 171.53125 162.507812 170.546875 163.246094 169.769531 C 163.9375 169.035156 164.386719 167.582031 162.570312 164.816406 C 160.488281 161.644531 155.339844 156.996094 153.535156 157.652344 C 151.832031 158.269531 146.929688 168.742188 145.207031 175.4375 C 144.191406 179.386719 144.214844 181.898438 145.28125 183.117188 C 146.671875 184.710938 148.839844 185.550781 151.554688 185.550781 " fill-opacity="1" fill-rule="nonzero"/><path fill="#ffffff" d="M 208.945312 222.535156 C 208.890625 222.535156 208.84375 222.53125 208.800781 222.527344 C 207.289062 222.265625 203.425781 215.320312 203.660156 212.613281 C 203.691406 212.265625 203.960938 211.285156 205.425781 208.597656 L 213.542969 208.890625 L 209.570312 201.6875 C 211.621094 198.492188 213.050781 196.515625 213.339844 196.21875 C 213.804688 196.058594 216.941406 195.71875 226.011719 195.394531 C 226.261719 195.382812 226.503906 195.480469 226.675781 195.664062 C 226.847656 195.847656 226.933594 196.09375 226.910156 196.34375 C 225.804688 208.820312 224.964844 214.089844 224.550781 214.863281 C 223.714844 216.421875 211.203125 222.535156 208.945312 222.535156 Z M 225.960938 194 C 213.421875 194.445312 212.835938 194.859375 212.554688 195.058594 C 211.8125 195.582031 208.316406 201.054688 208.167969 201.285156 L 207.945312 201.636719 L 211.128906 207.40625 L 204.617188 207.171875 L 204.410156 207.546875 C 203.027344 210.050781 202.347656 211.621094 202.269531 212.492188 C 202.003906 215.53125 206.019531 223.460938 208.566406 223.902344 C 208.652344 223.917969 208.75 223.925781 208.855469 223.925781 C 210.839844 223.925781 216.496094 221.234375 217.613281 220.695312 C 219.320312 219.867188 224.964844 217.046875 225.78125 215.523438 C 226.601562 213.992188 227.605469 204.316406 228.300781 196.464844 C 228.359375 195.820312 228.136719 195.175781 227.6875 194.703125 C 227.242188 194.234375 226.613281 193.976562 225.960938 194 " fill-opacity="1" fill-rule="nonzero"/><g clip-path="url(#b1e5c92573)"><path fill="#ffffff" d="M 236.382812 177.394531 L 230.640625 216.320312 L 230.617188 216.488281 L 282.234375 272.292969 L 219.640625 223.808594 L 187.878906 236.960938 L 182.046875 297.71875 L 177.011719 234.34375 L 176.972656 233.84375 L 176.484375 233.722656 C 176.363281 233.691406 164.292969 230.53125 152.335938 217.210938 C 142.300781 206.035156 139.585938 196.714844 139.558594 196.621094 L 139.4375 196.183594 L 82.183594 188.003906 L 138.335938 186.203125 L 138.445312 185.664062 C 138.484375 185.46875 142.449219 166.277344 149.796875 156.285156 C 150.285156 155.621094 150.789062 154.933594 135.972656 135.488281 C 129.742188 127.3125 122.703125 118.347656 118.507812 113.03125 L 158.914062 147.863281 L 159.0625 147.992188 L 185.578125 139.425781 L 195.96875 77.832031 L 195.300781 140.953125 L 195.648438 141.15625 C 195.742188 141.210938 205.0625 146.695312 212.226562 151.542969 C 220.929688 157.4375 231.910156 167.542969 232.019531 167.644531 L 232.347656 167.945312 L 292.832031 143.042969 Z M 298.523438 140.164062 C 298.289062 139.703125 297.757812 139.503906 297.28125 139.703125 L 232.636719 166.316406 C 230.890625 164.726562 220.996094 155.796875 213.007812 150.390625 C 206.625 146.066406 198.652344 141.3125 196.703125 140.160156 L 197.417969 72.472656 C 197.425781 71.960938 197.042969 71.539062 196.53125 71.496094 C 196.019531 71.449219 195.570312 71.796875 195.484375 72.300781 L 184.34375 138.359375 L 159.378906 146.425781 L 116.070312 109.085938 C 115.679688 108.75 115.128906 108.765625 114.757812 109.121094 C 114.386719 109.476562 114.351562 110.027344 114.667969 110.425781 C 137.425781 139.125 147.992188 153.683594 148.546875 155.636719 C 141.78125 164.976562 137.847656 181.871094 137.195312 184.84375 L 77.308594 186.761719 C 76.800781 186.777344 76.394531 187.175781 76.367188 187.683594 C 76.339844 188.191406 76.699219 188.628906 77.203125 188.699219 L 138.355469 197.4375 C 139.050781 199.53125 142.269531 208.085938 151.296875 218.144531 C 162.167969 230.253906 173.039062 234.136719 175.660156 234.9375 L 181.039062 302.617188 C 181.078125 303.125 181.492188 303.511719 182.003906 303.515625 L 182.007812 303.515625 C 182.523438 303.515625 182.929688 303.144531 182.980469 302.632812 L 189.191406 237.929688 L 219.429688 225.40625 L 285.398438 276.511719 C 285.804688 276.824219 286.367188 276.777344 286.714844 276.398438 C 287.058594 276.023438 287.058594 275.457031 286.710938 275.082031 L 232.09375 216.03125 L 237.667969 178.25 L 298.160156 141.433594 C 298.601562 141.167969 298.753906 140.621094 298.523438 140.164062 " fill-opacity="1" fill-rule="nonzero"/></g><path fill="#ffffff" d="M 166.882812 220.867188 C 167.375 219.375 169.410156 215.050781 172.746094 214.890625 C 174.144531 214.820312 177.277344 214.828125 180.964844 214.902344 L 184.476562 223.542969 L 188.242188 215.128906 C 194.195312 215.382812 195.722656 215.652344 196.101562 215.753906 C 196.226562 215.941406 196.414062 216.160156 196.660156 216.445312 C 197.828125 217.820312 200.261719 220.675781 199.324219 224.132812 C 198.457031 227.320312 193.324219 229.167969 184.066406 229.613281 C 176.699219 229.960938 168.390625 222.320312 166.882812 220.867188 Z M 197.242188 214.953125 C 197.027344 214.46875 196.859375 214.085938 187.828125 213.714844 L 187.355469 213.695312 L 184.539062 219.988281 L 181.914062 213.527344 L 181.453125 213.519531 C 177.53125 213.433594 174.167969 213.421875 172.679688 213.496094 C 167.917969 213.726562 165.558594 220.109375 165.410156 220.960938 L 165.351562 221.3125 L 165.601562 221.566406 C 165.976562 221.953125 174.945312 231.023438 183.550781 231.023438 C 183.746094 231.023438 183.9375 231.019531 184.132812 231.007812 C 194.203125 230.523438 199.613281 228.390625 200.671875 224.496094 C 201.804688 220.332031 199.046875 217.097656 197.71875 215.539062 C 197.558594 215.347656 197.285156 215.027344 197.242188 214.953125 " fill-opacity="1" fill-rule="nonzero"/><path fill="#ffffff" d="M 159.179688 213.996094 C 158.304688 213.933594 151.78125 207.921875 150.027344 205.097656 C 148.1875 202.136719 145.230469 193.710938 145.695312 192.746094 C 145.980469 192.15625 149.308594 191.828125 152.035156 191.828125 C 153.097656 191.828125 154.070312 191.878906 154.730469 191.984375 C 154.824219 192.1875 154.90625 192.816406 154.964844 193.285156 C 155.097656 194.3125 155.28125 195.710938 155.816406 197.511719 L 151.527344 203.054688 L 158.324219 203.300781 C 159.492188 205.359375 160.976562 207.484375 162.746094 209.625 C 161.21875 212.136719 159.621094 213.992188 159.179688 213.996094 Z M 159.355469 202.28125 L 159.164062 201.933594 L 154.292969 201.757812 L 157.363281 197.792969 L 157.253906 197.445312 C 156.671875 195.585938 156.488281 194.152344 156.347656 193.101562 C 156.175781 191.761719 156.046875 190.792969 155.054688 190.621094 C 153.953125 190.433594 145.46875 190.003906 144.4375 192.140625 C 143.449219 194.195312 147.625 203.882812 148.839844 205.835938 C 150.210938 208.035156 157.214844 215.382812 159.171875 215.394531 L 159.175781 215.394531 C 160.816406 215.394531 163.234375 211.558594 164.199219 209.910156 L 164.449219 209.484375 L 164.132812 209.105469 C 162.179688 206.789062 160.570312 204.492188 159.355469 202.28125 " fill-opacity="1" fill-rule="nonzero"/></svg>