<svg xmlns="http://www.w3.org/2000/svg" xmlns:xlink="http://www.w3.org/1999/xlink" width="500" zoomAndPan="magnify" viewBox="0 0 375 374.999991" height="500" preserveAspectRatio="xMidYMid meet" version="1.0"><defs><clipPath id="942260805f"><path d="M 187.5 0 C 83.945312 0 0 83.945312 0 187.5 C 0 291.054688 83.945312 375 187.5 375 C 291.054688 375 375 291.054688 375 187.5 C 375 83.945312 291.054688 0 187.5 0 Z M 187.5 0 " clip-rule="nonzero"/></clipPath></defs><g clip-path="url(#942260805f)"><rect x="-37.5" width="450" fill="#a2c36e" y="-37.499999" height="449.999989" fill-opacity="1"/></g><path fill="#ffffff" d="M 100.445312 293.3125 C 100.78125 290.050781 101.84375 287.066406 103.476562 284.640625 C 99.148438 281.230469 91.71875 278.140625 86.777344 279.617188 C 83.222656 280.699219 78.972656 282.886719 77.136719 286.347656 C 75.523438 289.433594 76.136719 292.007812 75.734375 295.253906 C 75.269531 298.992188 76.4375 300.820312 80.546875 301.675781 C 82.898438 302.179688 85.257812 302.507812 87.664062 302.5625 C 90.804688 302.65625 97.230469 303.382812 99.167969 300.214844 C 99.53125 299.617188 99.980469 299.273438 100.472656 299.074219 C 100.277344 297.265625 100.25 295.363281 100.445312 293.3125 Z M 115.953125 193.242188 C 115.914062 193.222656 115.886719 193.207031 115.867188 193.1875 C 113.175781 191.984375 110.695312 191.171875 108.660156 189 C 107.449219 187.695312 106.695312 186.109375 105.722656 184.65625 C 105.324219 185.390625 104.949219 186.148438 104.59375 186.902344 C 104.839844 189.792969 106.347656 192.292969 110.050781 193.027344 C 112.027344 193.421875 113.984375 193.328125 115.953125 193.242188 Z M 111.503906 168.960938 C 114.898438 166.023438 118.332031 162.21875 122.347656 160.53125 C 119.515625 160.039062 116.566406 159.878906 113.761719 159.433594 C 109.660156 158.808594 105.554688 158.25 101.398438 158.15625 C 101.480469 159.199219 102.078125 160.152344 102.992188 161.214844 C 105.472656 164.066406 108.324219 166.472656 111.289062 168.785156 C 111.375 168.839844 111.429688 168.914062 111.503906 168.960938 Z M 116.4375 157.15625 C 118.3125 157.410156 120.101562 157.605469 121.863281 157.855469 C 118.023438 154.507812 113.855469 151.191406 109.023438 149.96875 C 106.191406 150.507812 103.597656 153.054688 102.191406 155.496094 C 106.984375 155.683594 111.664062 156.449219 116.4375 157.15625 Z M 117.371094 117.351562 C 120.066406 117.9375 122.703125 117.601562 125.164062 116.558594 C 122.058594 114.328125 118.238281 113.109375 114.433594 112.847656 C 114.414062 112.894531 114.378906 112.949219 114.359375 113.007812 C 114.683594 114.90625 115.273438 116.886719 117.371094 117.351562 Z M 120.933594 279.542969 C 121.480469 279.773438 122.058594 280.027344 122.621094 280.269531 C 122.46875 273.0625 112.960938 266.261719 106.097656 266.992188 C 101.230469 267.511719 96.121094 270.355469 93.210938 274.429688 C 98.328125 275.214844 103.375 277.519531 107.226562 280.753906 C 110.863281 278.140625 115.664062 277.386719 120.933594 279.542969 Z M 125.761719 146.574219 C 125.472656 146.414062 125.183594 146.238281 124.894531 146.0625 C 120.605469 143.777344 117.351562 141.042969 113.351562 139.273438 C 111.609375 141.042969 111.792969 143.234375 112.027344 145.558594 C 116.121094 148.28125 120.644531 148.390625 125.761719 146.574219 Z M 128.949219 202.699219 C 128.949219 202.503906 128.96875 202.289062 129.027344 202.09375 C 125.957031 200.367188 123.320312 198.015625 120.492188 195.964844 C 119.851562 195.824219 119.1875 195.734375 118.527344 195.769531 C 114.863281 195.917969 110.890625 196.703125 107.457031 194.929688 C 105.398438 193.847656 103.960938 192.488281 103.046875 190.902344 C 102.683594 192.039062 102.394531 193.132812 102.253906 194.195312 C 101.554688 199.164062 117.351562 204.75 120.875 205.792969 C 121.148438 205.859375 121.359375 205.972656 121.558594 206.09375 C 121.929688 206.09375 122.3125 206.203125 122.667969 206.363281 C 124.484375 204.75 126.621094 203.601562 128.949219 202.699219 Z M 127.804688 237.085938 C 131.273438 236.6875 133.78125 234.53125 135.992188 231.894531 C 130.171875 231.195312 124.773438 223.902344 121.417969 217.421875 C 120.371094 221.140625 119.832031 225.019531 120.066406 228.769531 C 120.25 232.089844 125.277344 234.476562 127.804688 237.085938 Z M 133.121094 255.109375 C 135.019531 249.078125 132.207031 240.582031 123.824219 243.101562 C 114.75 245.824219 109.351562 252.492188 108.652344 261.722656 C 109.507812 261.824219 110.375 261.984375 111.199219 262.273438 C 115.273438 263.652344 119.328125 265.742188 122.453125 268.574219 C 122.621094 268.378906 122.796875 268.191406 123.03125 268.035156 C 128.019531 264.640625 131.253906 260.996094 133.121094 255.109375 Z M 133.316406 117.117188 C 136.316406 117.996094 139.515625 117.976562 142.640625 118.070312 C 135.597656 113.957031 128.449219 110.199219 121.230469 106.3125 C 121.015625 106.777344 120.644531 107.1875 120.027344 107.476562 C 118.804688 108.0625 117.789062 108.761719 116.902344 109.574219 C 123.132812 110.648438 127.179688 115.355469 133.316406 117.117188 Z M 125.492188 143.367188 C 130.675781 146.433594 137.59375 147.1875 144.09375 147.523438 C 138.6875 145.269531 133.566406 142.84375 128.632812 139.253906 C 126.695312 137.855469 125.042969 136.054688 123.441406 134.210938 C 122.992188 133.996094 122.667969 133.59375 122.488281 133.109375 C 119.402344 129.519531 116.335938 125.949219 111.644531 124.78125 C 111.625 124.800781 111.609375 124.839844 111.589844 124.855469 C 109.566406 127.28125 111.214844 131.804688 112.765625 134.015625 C 113.023438 134.386719 113.175781 134.769531 113.230469 135.125 C 113.25 135.140625 113.265625 135.179688 113.296875 135.199219 C 117.5 137.632812 121.34375 140.90625 125.492188 143.367188 Z M 132.980469 178.054688 C 134.730469 177.839844 136.585938 177.875 138.433594 177.996094 C 131.199219 175.824219 124.054688 173.242188 116.371094 172.347656 C 117.175781 172.8125 117.929688 173.363281 118.574219 174.0625 C 123.011719 178.929688 127.160156 178.734375 132.980469 178.054688 Z M 130.640625 199.21875 C 134.265625 195.015625 139.992188 193.511719 144.605469 190.4375 C 138.808594 192.433594 133.042969 192.84375 127.730469 188.496094 C 126.226562 189.253906 124.859375 190.203125 123.421875 191.089844 C 122.742188 191.519531 121.695312 191.40625 121.148438 190.800781 C 117.136719 186.363281 115.167969 180.617188 111.664062 175.957031 C 110.132812 177.691406 108.613281 179.796875 107.214844 182.074219 C 108 183.023438 108.652344 184.03125 109.332031 185.175781 C 111.410156 188.628906 114.164062 188.945312 117.210938 190.855469 C 118.394531 191.59375 119.535156 192.414062 120.660156 193.242188 C 124.335938 193.691406 127.535156 196.8125 130.640625 199.21875 Z M 139.226562 248.359375 C 140.933594 245.722656 142.902344 243.242188 145.296875 241.320312 C 142.863281 239.183594 140.140625 237.515625 138.292969 234.953125 C 136.691406 236.777344 134.917969 238.328125 132.886719 239.398438 C 136.148438 241.628906 138.488281 244.734375 139.226562 248.359375 Z M 143.03125 275.289062 C 137.136719 275.792969 129.082031 275.449219 127.375 271.503906 C 126.890625 271.875 126.386719 272.238281 125.847656 272.613281 C 127.628906 275.503906 128.4375 278.917969 127.765625 282.851562 C 131.160156 284.789062 134.398438 287.121094 136.941406 289.902344 C 137 289.976562 137.054688 290.03125 137.109375 290.105469 C 138.21875 284.753906 140.234375 279.792969 143.03125 275.289062 Z M 140.316406 151.589844 C 141.363281 151.207031 142.351562 150.761719 143.320312 150.292969 C 138.21875 150.136719 132.726562 149.753906 128.660156 148.019531 C 125.34375 149.734375 121.921875 150.601562 118.574219 150.433594 C 121.59375 152.542969 124.371094 155.070312 127.03125 157.371094 C 131.140625 154.566406 135.636719 153.324219 140.316406 151.589844 Z M 142.117188 303.1875 L 142.097656 303.167969 C 141.464844 301.359375 136.167969 297.050781 134.917969 295.671875 C 132.457031 292.996094 129.816406 290.582031 126.730469 288.632812 C 123.171875 286.347656 118.488281 283.1875 114.011719 283.726562 C 107.785156 284.464844 105.808594 290.207031 105.628906 295.402344 C 105.285156 305.144531 113.585938 313.480469 123.765625 313.230469 C 131.628906 313.023438 137.054688 308.652344 142.117188 303.1875 Z M 142.917969 222.019531 C 142.722656 222.019531 142.527344 222.054688 142.332031 222.035156 C 137.855469 221.730469 134.59375 220.058594 131.488281 218.101562 C 132.785156 219.863281 134.183594 221.515625 136.222656 222.539062 C 138.59375 223.726562 140.765625 223.183594 142.917969 222.019531 Z M 146.722656 177.457031 C 144.878906 176.414062 143.207031 175.265625 141.902344 174.0625 C 138.050781 170.566406 132.363281 162.695312 126.292969 163.507812 C 121.808594 164.121094 119.09375 166.863281 116.261719 169.632812 C 126.851562 170.875 136.496094 175.320312 146.722656 177.457031 Z M 142.332031 219.34375 C 143.824219 219.238281 145.304688 218.933594 146.78125 218.558594 C 141.808594 215.695312 136.960938 208.414062 132.511719 205.449219 C 129.277344 206.457031 126.292969 207.695312 124.140625 210.1875 C 124.054688 210.351562 124 210.511719 123.90625 210.671875 C 124.625 211.035156 125.316406 211.425781 125.996094 211.855469 C 126.042969 211.890625 126.117188 211.929688 126.171875 211.964844 C 131.234375 215.210938 135.582031 219.828125 142.332031 219.34375 Z M 143.386719 138.171875 C 146.527344 137.082031 149.585938 135.839844 152.765625 134.871094 C 145.277344 134.285156 137.808594 134.042969 130.152344 134.246094 C 133.988281 136.988281 138.023438 140.054688 143.386719 138.171875 Z M 148.113281 121.371094 C 148.09375 121.371094 148.074219 121.351562 148.058594 121.332031 C 143.085938 120.316406 137.519531 121.78125 132.597656 119.71875 C 131.234375 119.140625 129.921875 118.441406 128.617188 117.6875 C 128.523438 117.796875 128.449219 117.902344 128.328125 117.976562 C 124.773438 120.074219 119.671875 121.386719 115.699219 119.609375 C 114.433594 119.039062 113.601562 118.191406 112.996094 117.175781 C 112.765625 118.460938 112.613281 119.792969 112.558594 121.175781 C 117.574219 122.460938 121.089844 125.769531 124.699219 129.949219 C 124.800781 130.078125 124.914062 130.199219 125.042969 130.332031 C 129.800781 128.875 134.125 126.5625 138.703125 124.550781 C 141.714844 123.234375 145.046875 122.515625 148.113281 121.371094 Z M 145.761719 168.953125 C 150.828125 171.144531 152.8125 168.320312 156.046875 166.632812 C 149.148438 165.101562 142.171875 163.488281 135.199219 162.734375 C 138.574219 165.082031 142.238281 167.441406 145.761719 168.953125 Z M 155.199219 181.699219 C 151.777344 182.183594 148.8125 181.660156 145.109375 180.925781 C 138.453125 179.609375 132.960938 181.71875 126.441406 181.464844 C 122.367188 181.296875 119.5625 179.144531 116.707031 176.871094 C 118.683594 180.261719 120.371094 183.871094 122.851562 186.996094 C 124.019531 186.242188 125.183594 185.503906 126.480469 184.90625 C 126.714844 184.804688 126.964844 184.765625 127.199219 184.75 C 127.839844 184.355469 128.699219 184.320312 129.417969 184.980469 C 136.820312 191.945312 146.695312 186.042969 155.199219 181.699219 Z M 169.78125 134.03125 C 163.984375 130.816406 158.070312 127.777344 152.5625 124.101562 C 152.363281 124.046875 152.167969 123.972656 151.972656 123.832031 C 151.972656 123.832031 151.953125 123.832031 151.953125 123.8125 C 147.785156 125.808594 143.113281 126.574219 138.917969 128.585938 C 136.839844 129.574219 134.769531 130.5625 132.691406 131.476562 C 145.257812 131.320312 157.140625 132.328125 169.78125 134.03125 Z M 153.96875 207.796875 C 155.5625 207.136719 157.15625 206.6875 158.761719 206.34375 C 153.660156 205.074219 148.652344 203.628906 143.570312 203.097656 C 146.460938 204.84375 151.449219 208.84375 153.96875 207.796875 Z M 164.488281 136.671875 C 162.351562 136.484375 160.214844 136.382812 158.128906 136.597656 C 152.132812 137.183594 146.964844 140.113281 141.167969 141.464844 C 140.859375 141.53125 140.550781 141.585938 140.253906 141.605469 C 143.617188 143.292969 147.179688 144.746094 150.910156 146.257812 C 154.6875 141.910156 159.332031 138.769531 164.488281 136.671875 Z M 165.539062 282.8125 C 164.804688 278.320312 161.949219 274.460938 161.503906 270.046875 C 161.4375 269.453125 160.898438 265.042969 160.683594 265.042969 C 158.882812 266.246094 157.214844 267.625 155.621094 269.097656 C 147.878906 276.222656 142.855469 284.371094 141.734375 295.074219 C 142.703125 296.046875 143.710938 296.996094 144.820312 297.929688 C 145.78125 298.722656 146.230469 299.234375 146.582031 299.941406 C 146.855469 300.046875 147.125 300.214844 147.394531 300.445312 C 148.988281 301.902344 151.574219 301.59375 153.566406 300.960938 C 153.503906 298.238281 154.304688 295.410156 155.890625 292.792969 C 158.203125 289.023438 161.539062 285.199219 165.539062 282.8125 Z M 167.011719 215.769531 C 165.539062 215.679688 164.105469 215.574219 162.6875 215.613281 C 159.925781 217.140625 157.734375 219.433594 154.265625 219.453125 C 152.402344 219.453125 150.601562 220.058594 148.832031 220.675781 C 145.027344 223.296875 141.921875 227.210938 136.242188 225.542969 C 130.40625 223.816406 129.183594 216.273438 123.871094 213.757812 C 126.171875 218.234375 129.585938 222.167969 132.867188 225.878906 C 136.632812 230.128906 142.414062 227.117188 147.070312 225.757812 C 152.792969 224.070312 157.054688 219.742188 162.378906 217.226562 C 163.871094 216.527344 165.4375 216.117188 167.011719 215.769531 Z M 165.792969 262.988281 C 171.777344 257.265625 172.945312 242.925781 162.472656 241.355469 C 153.660156 240.023438 146.949219 245.878906 142.703125 252.9375 C 140.121094 257.246094 137.699219 261.554688 134.882812 265.703125 C 133.855469 267.234375 131.824219 268.921875 134.648438 269.347656 C 138.863281 269.957031 142.703125 270.335938 146.910156 269.347656 C 147.125 269.292969 147.339844 269.257812 147.535156 269.257812 C 150.230469 266.207031 153.351562 263.457031 156.867188 261.105469 C 159.925781 259.074219 164.289062 257.890625 165.691406 262.523438 C 165.746094 262.683594 165.765625 262.832031 165.792969 262.988281 Z M 173.28125 105.554688 C 167.804688 101.945312 161.09375 98.785156 154.6875 97.183594 C 147.945312 95.496094 140.933594 94.308594 134.050781 93.199219 C 132.074219 92.894531 130.246094 92.269531 128.464844 91.632812 C 126.621094 90.992188 124.820312 90.347656 122.882812 90.058594 C 119.65625 89.554688 120.734375 100.316406 121.902344 101.855469 C 122.078125 102.105469 122.199219 102.339844 122.292969 102.589844 C 126.601562 104.921875 130.871094 107.207031 135.132812 109.519531 C 147.683594 105.734375 160.375 106.273438 173.28125 105.554688 Z M 167.070312 79.558594 C 171.722656 80.398438 176.441406 81.078125 181.175781 81.40625 C 175.292969 77.5625 169.066406 74.476562 162.742188 71.316406 C 157.269531 68.585938 152.308594 63.773438 146.40625 62.046875 C 145.277344 63.867188 144.375 65.984375 143.675781 68.332031 C 143.65625 68.371094 143.636719 68.40625 143.617188 68.445312 C 151.414062 72.621094 158.042969 77.9375 167.070312 79.558594 Z M 163.964844 117.648438 C 168.019531 122.628906 173.53125 121.976562 178.054688 119 C 172.871094 115.933594 167.574219 115.375 161.632812 115.160156 C 162.492188 115.933594 163.285156 116.792969 163.964844 117.648438 Z M 172.636719 205.074219 C 173.785156 204.964844 174.910156 204.824219 176.050781 204.617188 C 173.585938 203.507812 171.453125 201.71875 169.046875 199.507812 C 163.945312 194.800781 157.410156 192.644531 151.917969 188.628906 C 149.839844 191.609375 147.144531 193.921875 143.859375 195.628906 C 140.878906 197.167969 137.230469 198.34375 134.609375 200.5625 C 140.71875 199.613281 146.546875 200.421875 152.671875 202.015625 C 159.527344 203.816406 165.921875 205.019531 172.636719 205.074219 Z M 172.8125 174.890625 C 175.871094 172.234375 179.171875 169.867188 182.667969 167.777344 C 177.195312 168.683594 171.863281 169.25 166.042969 168.53125 C 163.730469 168.589844 161.398438 168.589844 159.058594 168.589844 C 158.882812 168.589844 158.722656 168.550781 158.574219 168.496094 C 154.734375 169.753906 153.140625 174.117188 148.113281 172.644531 C 147.664062 172.503906 147.207031 172.347656 146.761719 172.179688 C 151.273438 175.574219 156.085938 178.304688 162.15625 178.574219 C 165.578125 177.027344 169.222656 175.730469 172.8125 174.890625 Z M 177.503906 209.347656 C 177.773438 208.515625 177.953125 208.011719 178.148438 207.546875 C 174.734375 207.910156 171.339844 208.050781 167.945312 207.855469 C 167.246094 207.875 166.546875 207.890625 165.847656 207.929688 C 160.960938 208.105469 157.269531 209.542969 152.773438 211.035156 C 150.964844 211.621094 149.550781 211.054688 148.253906 209.71875 C 144.804688 206.128906 141.128906 204.695312 136.726562 204.152344 C 142.78125 209.46875 149.046875 218.101562 154.808594 212.574219 C 157.140625 210.335938 160.609375 211.035156 163.441406 211.445312 C 166.277344 211.875 176.207031 213.261719 177.503906 209.347656 Z M 178.652344 238.699219 C 178.183594 238.269531 177.738281 237.84375 177.234375 237.402344 C 173.707031 234.429688 170.949219 235.074219 167.105469 233.851562 C 162.183594 232.3125 157.734375 230.242188 153.820312 226.941406 C 149.726562 229.152344 145.167969 230.457031 140.589844 231.390625 C 141.96875 234.894531 145.746094 236.722656 148.484375 239.183594 C 155.9375 235.035156 166.464844 233.925781 171.804688 241.199219 C 174.34375 240.929688 176.671875 240.265625 178.652344 238.699219 Z M 178.667969 280.472656 C 179.042969 279.617188 179.460938 278.777344 179.890625 277.910156 C 176.207031 277.730469 172.207031 277.03125 168.992188 275.289062 C 169.652344 276.996094 170.210938 278.777344 170.585938 280.714844 C 171.339844 280.53125 172.113281 280.410156 172.90625 280.351562 C 174.695312 280.230469 176.671875 280.25 178.667969 280.472656 Z M 180.84375 117.566406 C 187.519531 117.648438 193.980469 116.019531 200.515625 114.925781 C 192.253906 113.59375 183.929688 111.691406 176.207031 109.667969 C 176.03125 109.613281 175.890625 109.519531 175.722656 109.433594 C 166.257812 109.378906 156.457031 109.378906 146.992188 110.777344 C 152.792969 111.382812 158.574219 112.195312 164.429688 112.503906 C 170.585938 112.847656 175.761719 114.058594 180.84375 117.566406 Z M 179.246094 302.851562 C 179.976562 296.976562 183.601562 292.882812 188.347656 290.320312 C 185.28125 286.460938 175.957031 284.558594 171.722656 286.03125 C 167.070312 287.644531 162.835938 291.101562 160.53125 295.523438 C 157.308594 301.734375 159.675781 305.089844 165.324219 308.429688 C 170.230469 311.320312 175.0625 311.429688 180.265625 309.78125 C 179.351562 307.664062 178.921875 305.359375 179.246094 302.851562 Z M 182.835938 164.046875 C 183.230469 163.9375 183.601562 163.851562 184.003906 163.722656 C 177.558594 161.839844 171.238281 160.132812 164.992188 157.203125 C 160.878906 155.265625 156.03125 154.136719 152.988281 150.621094 C 148.832031 151.011719 145.277344 153.882812 141.324219 155.226562 C 137.519531 156.523438 133.820312 157.6875 130.40625 159.683594 C 139.890625 160.074219 149.242188 162.6875 158.527344 164.496094 C 161.445312 165.054688 164.355469 165.566406 167.285156 165.933594 C 172.5625 165.875 177.859375 165.558594 182.835938 164.046875 Z M 196.515625 61.273438 C 187.339844 63.363281 177.8125 62.53125 168.402344 59.679688 C 172.09375 61.691406 175.890625 63.578125 180.160156 64.667969 C 185.90625 66.121094 191.339844 64.238281 196.515625 61.273438 Z M 187.554688 123.179688 C 192.5625 121.480469 197.234375 119.699219 201.738281 117.398438 C 194.808594 118.480469 187.984375 120.34375 180.898438 120.261719 C 176.246094 123.832031 170.089844 126.105469 164.859375 122.589844 C 163.152344 121.445312 162.332031 119.394531 160.804688 118.070312 C 157.289062 114.992188 153.839844 114.601562 149.511719 114.441406 C 147.207031 114.347656 145.046875 114.226562 142.882812 113.863281 C 146.035156 115.664062 149.128906 117.527344 152.207031 119.503906 C 152.457031 119.542969 152.730469 119.644531 152.980469 119.832031 C 159.5 124.402344 166.640625 127.886719 173.53125 131.824219 C 177.316406 127.636719 182.042969 125.054688 187.554688 123.179688 Z M 201.886719 222.074219 C 193.859375 218.820312 184.722656 217.765625 176.339844 217.152344 C 176.320312 217.152344 176.300781 217.140625 176.28125 217.140625 C 173.007812 218.539062 169.765625 218.753906 166.390625 219.847656 C 165.523438 220.136719 164.738281 220.460938 163.984375 220.796875 C 168.347656 220.816406 172.5625 222 177.464844 223.042969 C 185.765625 224.789062 193.746094 222.933594 201.886719 222.074219 Z M 189.652344 192.273438 C 191.378906 191.15625 193.105469 190.027344 194.828125 189.019531 C 190.195312 190.53125 185.652344 192.554688 182.101562 193.382812 C 180.898438 193.671875 179.695312 193.792969 178.492188 193.792969 C 182.277344 194.699219 185.988281 194.625 189.652344 192.273438 Z M 192.039062 264.351562 C 191.917969 262.699219 192.039062 261.199219 192.402344 259.847656 C 188.199219 256.621094 181.328125 251.519531 175.582031 253.5625 C 175.601562 259.027344 173.429688 264.15625 168.644531 267.746094 C 168.664062 267.765625 168.683594 267.78125 168.683594 267.820312 C 170.445312 272.398438 178.828125 272.648438 182.855469 272.574219 C 182.996094 272.574219 183.097656 272.59375 183.230469 272.59375 C 185.671875 269.332031 188.664062 266.421875 192.039062 264.351562 Z M 193.429688 226.652344 C 194.417969 226.242188 195.417969 225.859375 196.40625 225.488281 C 191.824219 226.128906 187.230469 226.785156 182.546875 226.632812 C 178.742188 226.53125 175.292969 225.609375 171.9375 224.824219 C 172.691406 225.199219 173.457031 225.609375 174.230469 226.066406 C 177.914062 228.164062 182.855469 231.773438 187.460938 229.488281 C 189.4375 228.5 191.378906 227.511719 193.429688 226.652344 Z M 195.042969 147.796875 C 193.105469 147.8125 191.164062 147.777344 189.222656 147.636719 C 182.257812 147.132812 175.257812 147.691406 168.273438 148.261719 C 170.089844 148.699219 171.917969 149.230469 173.785156 149.941406 C 176.085938 150.796875 182.546875 155.570312 184.917969 153.558594 C 186.390625 152.328125 187.460938 151.339844 189.1875 150.425781 C 191.070312 149.398438 193.027344 148.53125 195.042969 147.796875 Z M 195.082031 255.167969 C 196.535156 253.730469 198.417969 252.648438 200.628906 251.96875 C 195.742188 249.953125 191.339844 246.558594 188.039062 241.878906 C 187.75 242.289062 187.445312 242.699219 187.183594 243.148438 C 186.640625 244.035156 185.496094 244.351562 184.589844 243.835938 C 183.359375 243.101562 182.332031 242.234375 181.363281 241.320312 C 179.117188 243.203125 176.550781 244.191406 173.726562 244.695312 C 174.210938 245.859375 174.59375 247.027344 174.902344 248.210938 C 182.027344 246.515625 189.570312 250.980469 195.082031 255.167969 Z M 202.121094 184.785156 C 197.316406 182.015625 192.496094 179.257812 187.304688 178.285156 C 177.664062 176.449219 165.261719 180.421875 156.550781 185.875 C 156.671875 185.894531 156.804688 185.894531 156.90625 185.914062 C 156.960938 185.894531 157.019531 185.859375 157.054688 185.839844 C 157.558594 185.71875 157.96875 185.859375 158.277344 186.164062 C 163.515625 187.152344 168.328125 189.234375 173.644531 190.332031 C 181.214844 191.890625 186.761719 188.964844 193.726562 186.808594 C 196.339844 186.007812 199.230469 185.160156 202.121094 184.785156 Z M 203.15625 56.359375 C 202.765625 56.414062 202.371094 56.453125 201.972656 56.480469 C 195.082031 57.058594 188.234375 55.511719 181.363281 55.425781 C 175.742188 55.335938 170.15625 55.660156 164.578125 55.53125 C 177.335938 60.359375 190.855469 61.535156 203.15625 56.359375 Z M 202.605469 84.605469 C 203.054688 84.332031 203.464844 84.082031 203.855469 83.847656 C 195.796875 84.378906 187.554688 85.871094 179.3125 85.050781 C 172.460938 84.371094 165.691406 83.402344 159.152344 81.257812 C 167.105469 87.261719 180.710938 91.652344 189.027344 89.898438 C 194.074219 88.835938 198.242188 87.328125 202.605469 84.605469 Z M 208.527344 225.46875 C 208.332031 225.347656 208.117188 225.234375 207.910156 225.105469 C 199.3125 226.828125 191.992188 232.21875 183.480469 233.265625 C 181.039062 233.5625 177.140625 230.820312 175.257812 229.738281 C 169.296875 226.34375 164 223.257812 157.464844 224.730469 C 157.390625 224.789062 157.324219 224.824219 157.25 224.871094 C 162.835938 229.078125 168.972656 229.582031 175.507812 231.734375 C 179.425781 233.019531 181.867188 237.011719 185.054688 239.578125 C 190.714844 232.125 200.085938 231.304688 207.5 226.363281 C 207.613281 225.898438 207.949219 225.523438 208.527344 225.46875 Z M 209.113281 188.609375 C 208.851562 188.488281 208.582031 188.355469 208.3125 188.21875 C 200.863281 186.742188 192.992188 192.84375 187.703125 197.226562 C 186.210938 198.445312 184.644531 199.109375 182.707031 199.109375 C 180.496094 199.109375 178.148438 197.1875 176.339844 196.234375 C 172.03125 193.960938 167.984375 192.003906 163.441406 190.976562 C 164.804688 191.675781 166.175781 192.414062 167.480469 193.242188 C 173.390625 196.9375 176.710938 203.433594 184.992188 201.664062 C 192.292969 200.097656 204.527344 195.574219 209.113281 188.609375 Z M 209.476562 59.390625 C 210.933594 57.636719 211.808594 55.988281 212.425781 54.28125 C 210.558594 55.566406 208.648438 56.667969 206.707031 57.636719 C 203.175781 60.003906 199.695312 62.429688 196.070312 64.621094 C 192.964844 66.484375 189.066406 68.835938 185.207031 68.351562 C 180.234375 67.707031 175.453125 66.160156 170.847656 64.183594 C 165.324219 61.796875 160.410156 57.953125 154.828125 55.820312 C 152.496094 56.398438 150.574219 57.441406 148.988281 58.886719 C 154.613281 61.003906 159.273438 65.367188 164.644531 68.0625 C 171.472656 71.476562 178.164062 74.8125 184.488281 79.082031 C 188.582031 74.226562 194.882812 72.445312 200.164062 68.957031 C 204.085938 66.355469 206.53125 62.980469 209.476562 59.390625 Z M 208.972656 144.457031 C 210.792969 144.222656 212.601562 144.027344 214.417969 143.871094 C 206.242188 141.753906 198.472656 138.425781 190.054688 137.257812 C 178.183594 135.589844 165.027344 138.246094 156.105469 146.359375 C 167.164062 145.949219 178.203125 143.953125 189.222656 144.941406 C 195.855469 145.539062 202.417969 144.90625 208.972656 144.457031 Z M 198.519531 318.414062 C 206.261719 322.917969 212.5625 309.742188 212.507812 304.390625 C 212.480469 300.390625 211.558594 296.296875 207.539062 294.449219 C 205.28125 293.40625 203.117188 293.292969 200.898438 292.382812 C 194.445312 292.746094 183.621094 296.167969 184.628906 304.429688 C 185.558594 312.046875 192.601562 314.984375 198.519531 318.414062 Z M 213.066406 48.136719 C 212.925781 48.03125 212.796875 47.902344 212.695312 47.773438 C 207.902344 44.453125 200.050781 42.859375 194.988281 46.289062 C 194.035156 46.933594 193.121094 46.839844 192.402344 46.390625 C 191.976562 46.375 191.527344 46.269531 191.070312 45.980469 C 186.746094 43.285156 177.578125 43.734375 174.285156 47.957031 C 173.679688 48.730469 172.945312 48.964844 172.246094 48.851562 C 172.132812 48.871094 172.050781 48.890625 171.9375 48.890625 C 169.53125 48.929688 163.695312 49.085938 162.332031 51.726562 C 171.804688 52.304688 181.34375 51.53125 190.855469 52.351562 C 196.964844 52.890625 208.582031 53.953125 213.066406 48.136719 Z M 213.644531 214.390625 C 215.527344 212.375 217.5625 211.109375 219.660156 210.296875 C 213.179688 210.765625 206.660156 211.070312 200.265625 210.746094 C 205.402344 212.953125 212.246094 215.902344 213.644531 214.390625 Z M 207.902344 288.789062 C 210.34375 285.3125 214.484375 282.234375 214.449219 277.675781 C 214.402344 271.578125 210.949219 266.980469 204.339844 266.8125 C 194.6875 266.5625 187.714844 273.171875 184.023438 281.535156 C 187.863281 282.738281 191.339844 284.773438 193.375 287.980469 C 193.410156 288.035156 193.429688 287.980469 193.449219 288.035156 C 195.957031 287.300781 198.578125 286.691406 201.152344 286.582031 C 201.179688 286.582031 201.195312 286.191406 201.234375 286.191406 L 201.253906 286.191406 C 201.851562 286.191406 202.335938 286.710938 202.707031 286.945312 C 204.433594 287.605469 206.195312 288.25 207.902344 288.789062 Z M 219.0625 149.054688 C 219.585938 148.335938 220.144531 147.65625 220.683594 146.9375 C 216.769531 146.722656 212.835938 146.863281 208.890625 147.113281 C 205.851562 147.507812 202.886719 148.066406 200.265625 148.820312 C 194.167969 150.582031 190.585938 153.558594 185.328125 156.652344 C 183.070312 157.960938 179.816406 156.09375 177.914062 155.050781 C 171.183594 151.339844 164.609375 149.847656 157.15625 149.519531 C 160.71875 152.390625 167.226562 154.332031 170.875 155.917969 C 177.195312 158.675781 184.125 159.703125 190.679688 161.839844 C 190.875 161.894531 191.023438 161.976562 191.164062 162.070312 C 192.710938 161.820312 194.269531 161.660156 195.890625 161.550781 C 201.402344 159.527344 207.109375 158.089844 212.777344 157.242188 C 212.925781 157.082031 213.085938 156.914062 213.320312 156.792969 C 215.976562 155.28125 217.300781 151.480469 219.0625 149.054688 Z M 222.046875 247.027344 C 211.527344 248.183594 201.71875 244.070312 191.414062 240.15625 C 195.621094 246.09375 202.296875 251.324219 209.839844 250.457031 C 213.785156 250.011719 218.167969 248.917969 222.046875 247.027344 Z M 219.996094 64.527344 C 222.4375 60.882812 223.835938 56.667969 226.464844 53.144531 C 224.992188 49.570312 221.308594 47.941406 217.664062 48.136719 C 217.160156 52.089844 217.523438 54.671875 215.007812 58.457031 C 212.816406 61.757812 210.035156 65.441406 207.144531 68.191406 C 206.316406 68.984375 205.382812 69.703125 204.414062 70.363281 C 210.15625 70 216.964844 69.011719 219.996094 64.527344 Z M 220.144531 178.089844 C 221.253906 177.476562 222.4375 176.8125 223.660156 176.113281 C 219.15625 177.570312 214.652344 178.621094 210.054688 178.425781 C 209.046875 178.371094 208.058594 178.269531 207.070312 178.15625 C 207.902344 178.59375 208.703125 179.042969 209.535156 179.488281 C 215.9375 182.941406 215.648438 180.503906 220.144531 178.089844 Z M 237.46875 91.632812 C 227.632812 92.035156 218.1875 93.351562 208.703125 97.472656 C 201.71875 100.53125 194.558594 102.964844 187.414062 105.519531 C 192.636719 105.378906 197.820312 104.941406 203.015625 104.457031 C 209.457031 103.269531 215.6875 101.425781 221.003906 98.535156 C 226.355469 95.605469 231.761719 93.164062 237.46875 91.632812 Z M 227.519531 243.183594 C 226.570312 242.597656 225.636719 242.074219 224.722656 241.824219 C 221.917969 241.105469 219.015625 240.519531 216.339844 239.378906 C 211.789062 237.441406 208.683594 235.148438 206.875 230.859375 C 202.082031 233.246094 196.75 234.765625 192.480469 237.691406 C 204.003906 242.113281 215.203125 247.214844 227.519531 243.183594 Z M 226.410156 124.960938 C 227.378906 124.066406 228.472656 123.421875 229.609375 122.789062 C 222.847656 124.476562 216.136719 126.199219 209.355469 127.691406 C 210.390625 127.867188 211.433594 128.082031 212.507812 128.410156 C 218.792969 130.21875 222.046875 128.933594 226.410156 124.960938 Z M 227.269531 88.5 C 227.210938 88.351562 227.164062 88.210938 227.128906 88.0625 C 221.992188 85.03125 216.675781 83.921875 211.257812 83.679688 C 211.054688 84.027344 210.71875 84.296875 210.234375 84.351562 C 204.683594 84.996094 200.863281 89.863281 195.472656 91.1875 C 190.753906 92.363281 185.167969 93.9375 180.246094 92.847656 C 171.777344 90.917969 160.140625 86.8125 154.070312 80.359375 C 153.894531 80.183594 153.800781 79.988281 153.746094 79.792969 C 153.351562 78.335938 143.515625 86.550781 143.226562 88.984375 C 149.960938 89.089844 156.402344 93.257812 162.816406 94.980469 C 168.71875 96.578125 173.484375 100.296875 177.625 105.171875 C 189.261719 100.53125 201.179688 95.839844 212.972656 91.691406 C 217.703125 90.019531 222.476562 89.070312 227.269531 88.5 Z M 234.832031 206.53125 C 229.515625 204.984375 223.660156 204.515625 219.015625 201.335938 C 215.9375 199.238281 212.257812 196.507812 210.484375 193.027344 C 204.5625 199.703125 193.214844 204.339844 184.933594 205.523438 C 200.480469 210.277344 218.539062 207.445312 234.832031 206.53125 Z M 219.027344 281.050781 C 225.972656 281.199219 236.285156 274.703125 228.152344 268.539062 C 224.824219 266.011719 221.683594 263.167969 218.128906 260.949219 C 212.972656 257.730469 198.707031 252.722656 197.484375 261.925781 C 201.113281 260.875 205.039062 260.855469 209.105469 262.308594 C 214.539062 264.269531 218.867188 267.800781 219.585938 273.910156 C 219.929688 276.761719 219.679688 279.046875 219.027344 281.050781 Z M 234.484375 169.429688 C 232.367188 169.269531 230.253906 168.980469 228.117188 168.394531 C 222.4375 166.808594 218.296875 163.582031 213.105469 161 C 202.960938 162.613281 192.496094 166.089844 183.519531 171.636719 C 183.574219 171.636719 183.601562 171.621094 183.65625 171.621094 C 184.058594 171.695312 184.433594 171.769531 184.824219 171.835938 C 191.574219 171.925781 197.839844 174.3125 204.917969 175.265625 C 215.222656 176.671875 224.703125 172.347656 234.484375 169.429688 Z M 224.144531 71.585938 C 228.351562 68.742188 231.027344 61.050781 229.730469 55.585938 C 229.226562 55.484375 228.816406 55.25 228.507812 54.921875 L 228.488281 54.921875 C 225.171875 59.503906 224.003906 66.234375 219.0625 69.359375 C 216.675781 70.867188 213.824219 71.726562 210.828125 72.285156 C 215.6875 73.320312 220.535156 74.011719 224.144531 71.585938 Z M 229.980469 213.402344 C 232.910156 212.992188 235.203125 211.949219 237.292969 210.351562 C 229.675781 211.808594 221.617188 210.046875 215.546875 216.292969 C 212.910156 219.007812 210.371094 217.886719 207.183594 216.347656 C 202.222656 213.945312 197.570312 211.675781 192.011719 211.109375 C 190.089844 210.902344 188.039062 210.78125 186.15625 210.277344 C 184.785156 209.925781 183.519531 209.542969 182.417969 208.945312 C 181.558594 210.492188 180.765625 212.085938 180.011719 213.691406 C 189.121094 214.476562 198.761719 216.023438 206.914062 220.191406 C 209.03125 220.871094 211.144531 221.589844 213.28125 222.289062 C 214.699219 222.773438 216.03125 223.660156 217.429688 224.171875 C 218.726562 223.800781 219.835938 222.867188 220.628906 221.011719 C 221.308594 219.378906 221.972656 217.335938 223.304688 216.078125 C 225.246094 214.261719 227.378906 213.757812 229.980469 213.402344 Z M 233.433594 70.363281 C 234.039062 66.449219 233.441406 63.539062 232.601562 60.546875 C 232.265625 65.085938 230.570312 69.75 227.863281 72.136719 C 220.75 78.429688 211.667969 74.261719 203.304688 73.300781 C 201.449219 73.394531 199.675781 73.757812 197.878906 74.132812 C 197.839844 74.132812 197.820312 74.132812 197.792969 74.132812 C 193.820312 76.183594 189.867188 78.261719 187.265625 81.5625 C 188.757812 81.546875 190.25 81.488281 191.722656 81.367188 C 205.207031 80.203125 217.019531 77.636719 228.992188 84.800781 C 231.027344 80.203125 232.675781 75.335938 233.433594 70.363281 Z M 242.300781 170.601562 C 236.910156 172.058594 231.4375 175.5 226.800781 177.707031 C 224.183594 178.949219 217.914062 184.496094 215.101562 184.125 C 209.730469 183.40625 205.925781 180.019531 200.804688 178.324219 C 197.71875 177.316406 194.59375 176.503906 191.453125 175.84375 C 198.707031 178.445312 205.132812 183.003906 212.425781 186.027344 C 214.269531 185.054688 216.152344 184.804688 218.558594 184.339844 C 219.546875 184.140625 220.535156 183.882812 221.523438 183.640625 C 221.644531 183.488281 221.796875 183.367188 221.992188 183.273438 C 226.296875 181.242188 230.101562 178.351562 234.195312 175.984375 C 237.039062 174.351562 239.835938 172.703125 242.300781 170.601562 Z M 236.890625 98.339844 C 238.289062 96.089844 240.695312 94.71875 242.960938 93.273438 C 233.75 95.007812 226.214844 100.222656 217.609375 103.289062 C 219.910156 103.167969 222.207031 103.074219 224.507812 103.058594 C 230.570312 103.019531 233.589844 103.699219 236.890625 98.339844 Z M 231.726562 129.480469 C 236.613281 126.777344 242.550781 123.898438 245.890625 119.199219 C 237.953125 122.320312 231.304688 124.996094 224.5625 130.527344 C 222.402344 132.289062 220.480469 133.472656 217.503906 132.625 C 209.300781 130.3125 201.132812 128.464844 192.636719 130.835938 C 190.503906 131.441406 188.421875 132.074219 186.332031 132.625 C 185.671875 132.839844 184.992188 133.054688 184.320312 133.257812 C 196.710938 133.828125 208.042969 139.542969 220.320312 141.351562 C 222.632812 135.449219 226.101562 132.605469 231.726562 129.480469 Z M 243.503906 116.671875 C 240.882812 116.445312 238.226562 116.445312 235.566406 116.539062 C 235.203125 116.652344 234.832031 116.671875 234.46875 116.578125 C 226.953125 116.914062 219.371094 117.835938 212.058594 116.34375 C 211.722656 116.308594 211.378906 116.269531 211.042969 116.25 C 205.8125 119.859375 200.441406 122.863281 194.382812 124.875 C 189.132812 126.628906 183.929688 128.195312 179.640625 131.320312 C 180.917969 131.1875 182.164062 131.011719 183.40625 130.796875 C 187.398438 129.632812 191.292969 128.082031 195.433594 127.421875 C 201.421875 126.453125 207.265625 125.464844 213.140625 123.898438 C 223.136719 121.230469 233.339844 118.804688 243.503906 116.671875 Z M 256.34375 186.257812 C 249.246094 183.703125 242.570312 181.449219 234.484375 183.742188 C 230.175781 184.964844 225.765625 186.742188 221.367188 187.621094 C 219.910156 187.890625 218.382812 188.011719 216.925781 188.320312 C 229.589844 191.929688 243.625 190.4375 256.34375 186.257812 Z M 245.851562 94.5625 C 244.613281 95.449219 243.324219 96.195312 242.046875 97.152344 C 238.8125 99.523438 238.886719 101.910156 236.445312 104.046875 C 234.636719 105.582031 232.640625 105.769531 230.289062 105.75 C 218.617188 105.695312 206.996094 107.148438 195.332031 107.886719 C 192.972656 108.214844 190.625 108.503906 188.273438 108.714844 C 195.527344 110.347656 203.015625 111.691406 210.175781 112.390625 C 210.523438 112.269531 210.894531 112.195312 211.324219 112.304688 C 211.789062 112.429688 212.257812 112.519531 212.730469 112.625 C 212.972656 112.640625 213.261719 112.679688 213.515625 112.699219 C 213.839844 112.71875 214.113281 112.808594 214.34375 112.929688 C 220.75 113.996094 227.378906 113.339844 234 113.007812 C 236.535156 109.863281 239.484375 107.132812 241.507812 103.578125 C 243.175781 100.652344 244.59375 97.648438 245.851562 94.5625 Z M 242.242188 229.253906 C 245.460938 228.472656 248.453125 227.855469 251.289062 226.691406 C 243.699219 227.546875 236.246094 229.21875 228.6875 230.476562 C 226.53125 230.839844 224.339844 230.726562 222.140625 230.457031 C 224.667969 231.789062 227.210938 233.019531 230.09375 233.636719 C 233.730469 234.429688 238.597656 230.128906 242.242188 229.253906 Z M 240.75 77.171875 C 245.441406 71.960938 246.261719 65.300781 246.449219 58.511719 C 242.839844 57.179688 238.925781 56.183594 235.183594 55.78125 C 236.5 60.277344 238.1875 64.082031 237.394531 69.179688 C 236.65625 74.03125 235.378906 78.671875 233.664062 83.175781 C 236.15625 81.3125 238.691406 79.464844 240.75 77.171875 Z M 250.140625 224.125 C 248.875 223.726562 247.558594 223.390625 246.179688 223.148438 C 240.433594 222.203125 235.242188 221.125 231.035156 217.011719 C 228.601562 217.375 226.085938 217.980469 224.957031 220.480469 C 224.398438 221.683594 223.949219 222.96875 223.324219 224.136719 C 222.605469 225.503906 221.871094 226.558594 220.917969 227.425781 C 226.699219 228.226562 231.921875 227.230469 237.589844 226.128906 C 241.796875 225.308594 245.945312 224.601562 250.140625 224.125 Z M 242.652344 259.886719 C 246.710938 259.597656 247.894531 257.03125 249.132812 253.542969 C 242.859375 251.09375 235.996094 250.242188 230.71875 245.683594 C 226.464844 250.027344 221.347656 252.628906 216.050781 253.601562 C 219.425781 255.195312 222.605469 257.40625 225.496094 259.652344 C 226.429688 260.386719 227.519531 261.125 228.648438 261.878906 C 228.992188 261.683594 229.367188 261.535156 229.832031 261.5 C 234.113281 261.105469 238.363281 260.175781 242.652344 259.886719 Z M 242.105469 235.453125 C 247 233.832031 250.46875 232.183594 253.480469 228.75 C 251.289062 229.796875 249.050781 230.375 246.214844 231.054688 C 241.058594 232.3125 236.855469 235.453125 231.828125 236.621094 C 229.765625 237.105469 226.894531 235.230469 225.132812 234.261719 C 221.738281 232.398438 218.203125 230.476562 214.464844 229.292969 C 213.550781 229.171875 212.636719 229.078125 211.722656 229.039062 C 211.296875 229.019531 210.988281 228.84375 210.773438 228.574219 C 210.566406 228.714844 210.371094 228.863281 210.175781 228.984375 C 212.816406 236.003906 219.761719 236.097656 225.730469 238.195312 C 228.703125 239.242188 232.976562 242.96875 235.746094 239.78125 C 237.609375 237.597656 239.316406 236.351562 242.105469 235.453125 Z M 251.960938 81.835938 C 250.820312 82.589844 249.710938 83.308594 248.433594 83.773438 C 246.105469 84.621094 243.773438 85.226562 241.367188 85.824219 C 239.410156 86.328125 237.542969 87.09375 235.652344 87.847656 C 239.949219 87.671875 244.277344 87.691406 248.648438 87.707031 C 248.667969 87.691406 248.6875 87.671875 248.6875 87.652344 C 250.335938 86.125 251.261719 84.027344 251.960938 81.835938 Z M 249.050781 191.863281 C 250.792969 190.957031 252.546875 190.242188 254.273438 189.464844 C 247.867188 191.050781 241.253906 191.871094 234.738281 193.09375 C 233.441406 193.328125 232.210938 193.457031 231.007812 193.53125 C 233.355469 194.195312 235.6875 195.035156 237.953125 196.253906 C 244.546875 199.808594 244.089844 194.425781 249.050781 191.863281 Z M 250.355469 152.644531 C 251.128906 151.609375 251.941406 150.621094 252.78125 149.632812 C 249.40625 150.722656 245.636719 150.761719 242.457031 152.699219 C 240.21875 154.097656 238.019531 155.125 235.855469 155.9375 C 237.507812 156.253906 239.136719 156.699219 240.714844 157.316406 C 242.457031 158.015625 246.878906 160.496094 248.257812 157.382812 C 248.371094 157.121094 249.710938 153.546875 250.355469 152.644531 Z M 253.378906 64.117188 C 253.144531 62.515625 252.660156 61.273438 251.671875 60.78125 C 250.839844 60.359375 249.984375 59.96875 249.085938 59.578125 C 249.03125 61.152344 248.917969 62.746094 248.742188 64.332031 C 250.308594 64.40625 251.921875 64.621094 253.378906 64.117188 Z M 252.445312 77.078125 C 252.585938 74.980469 253.414062 70.617188 253.5 66.878906 C 251.847656 67.222656 250.085938 67.046875 248.371094 67.007812 C 247.753906 70.363281 246.710938 73.589844 244.828125 76.472656 C 243.15625 79 240.828125 81.058594 238.363281 82.980469 C 239.640625 82.515625 240.917969 82.085938 242.167969 81.75 C 246 80.761719 249.03125 78.671875 252.445312 77.078125 Z M 260.847656 242.699219 C 259.15625 241.84375 257.433594 241.050781 255.691406 240.097656 C 253.730469 239.042969 252.082031 237.765625 251.148438 235.96875 C 250.121094 236.582031 249.011719 237.105469 247.792969 237.515625 C 243.71875 238.894531 241.132812 241.066406 237.917969 243.457031 C 245.441406 244.574219 253.863281 244.695312 260.847656 242.699219 Z M 256.789062 193.710938 C 258.476562 192.46875 259.371094 190.941406 260.148438 189.269531 C 255.902344 192.023438 250.777344 193.261719 247.308594 197.101562 C 246.335938 198.175781 244.339844 201.375 242.261719 200.796875 C 235.707031 198.988281 231.203125 195.519531 224.023438 194.679688 C 220.414062 194.25 217.125 193.261719 213.914062 191.824219 C 216.574219 197.316406 225.796875 200.710938 230.484375 201.746094 C 235.371094 202.828125 240.144531 203.917969 244.128906 206.921875 C 247.148438 204.300781 248.023438 199.796875 251.242188 197.167969 C 252.929688 195.789062 255.027344 194.996094 256.789062 193.710938 Z M 259.242188 142.183594 C 259.464844 141.910156 259.660156 141.621094 259.859375 141.351562 C 248.707031 141.699219 236.097656 139.46875 226.664062 145.605469 C 224.21875 148.28125 221.917969 151.171875 220.089844 154.277344 C 219.660156 154.992188 219.257812 155.695312 218.828125 156.363281 C 221.273438 155.84375 223.789062 155.496094 226.296875 155.339844 C 231.324219 154.3125 236.117188 152.894531 241.117188 150.386719 C 244.554688 148.644531 248.097656 148.222656 251.6875 146.976562 C 254.8125 145.894531 257.105469 144.140625 259.242188 142.183594 Z M 254.953125 92.820312 C 260.269531 94.636719 266.496094 93.273438 267.949219 87.558594 C 263.660156 89.824219 259.484375 91.886719 254.953125 92.820312 Z M 261.433594 143.757812 C 261.347656 143.851562 261.238281 143.933594 261.144531 144.027344 C 257.796875 148.160156 253.5 151.675781 251.511719 156.636719 C 250.8125 158.359375 249.804688 161.082031 247.699219 161.660156 C 244.492188 162.539062 241.152344 160.09375 238.242188 159.238281 C 234.914062 158.265625 231.492188 157.902344 228.0625 157.976562 C 224.957031 158.539062 221.703125 158.929688 218.113281 159.414062 C 222.261719 161.78125 226.140625 164.300781 231.089844 165.195312 C 236.65625 166.183594 241.871094 165.660156 247.34375 166.0625 C 249.191406 162.417969 252.371094 160.261719 255.457031 157.4375 C 259.585938 153.671875 260.417969 148.800781 261.433594 143.757812 Z M 263.390625 137.351562 C 265.136719 135.011719 266.375 132.308594 267.464844 129.5 C 266.261719 130.386719 264.9375 131.011719 263.429688 131.171875 C 258.246094 131.785156 253.011719 131.960938 247.949219 132.570312 C 241.433594 134.640625 234.914062 136.738281 229.011719 140.113281 C 239.53125 135.824219 252.238281 138.460938 263.390625 137.351562 Z M 264.128906 244.535156 C 264.109375 244.519531 264.070312 244.5 264.0625 244.480469 C 256.621094 247.335938 247.445312 247.472656 239.015625 246.347656 C 243.539062 248.230469 248.585938 249.117188 253.105469 251.214844 C 253.144531 251.230469 253.199219 251.25 253.246094 251.269531 C 253.265625 251.269531 253.265625 251.269531 253.285156 251.269531 C 254.867188 251.660156 256.425781 252.144531 258.011719 252.507812 C 259.140625 252.78125 260.984375 253.441406 262.171875 253.078125 C 263.355469 252.722656 263.988281 247.195312 263.949219 245.648438 C 263.933594 245.21875 264.007812 244.855469 264.128906 244.535156 Z M 271.632812 115.46875 C 269.210938 115.710938 266.785156 115.972656 264.34375 116.382812 C 259.960938 117.097656 255.585938 116.054688 251.222656 116.96875 C 247.398438 127.65625 234.738281 129.753906 227.613281 136.914062 C 233.953125 132.390625 241.648438 130.3125 249.386719 129.164062 C 257.574219 125.734375 263.914062 119.664062 271.632812 115.46875 Z M 259.222656 217.617188 C 263.679688 216.003906 266.917969 212.742188 270.125 209.402344 C 262.515625 212.542969 254.671875 214.660156 246.570312 215.808594 C 250.683594 216.992188 255.605469 218.933594 259.222656 217.617188 Z M 267.886719 84.566406 C 267.8125 84.472656 267.753906 84.371094 267.671875 84.296875 C 264.574219 81.757812 260.148438 80.847656 256.191406 80.667969 C 255.203125 84.117188 254.113281 87.632812 251.53125 90.140625 C 251.476562 90.328125 251.398438 90.507812 251.34375 90.683594 C 257.292969 90.328125 262.535156 87.402344 267.886719 84.566406 Z M 267.921875 98.84375 C 268.4375 96.632812 268.6875 94.386719 268.652344 92.101562 C 264.648438 97.171875 256.269531 97.601562 250.335938 93.507812 C 249.03125 97.078125 247.539062 100.613281 245.675781 103.90625 C 243.71875 107.308594 241.3125 109.984375 238.925781 112.847656 C 242.085938 112.828125 245.226562 112.988281 248.3125 113.566406 C 248.332031 113.566406 248.332031 113.566406 248.332031 113.546875 C 251.746094 111.300781 255.566406 110.132812 259.175781 108.335938 C 261.117188 107.382812 263.082031 106.339844 264.558594 104.707031 C 266.105469 103 266.785156 100.808594 267.921875 98.84375 Z M 271.773438 205.792969 C 270.550781 205.738281 269.339844 205.570312 268.082031 205.234375 C 263.410156 203.882812 259.15625 201.894531 255.261719 199.023438 C 255.007812 199.164062 254.777344 199.304688 254.542969 199.472656 C 250.085938 202.398438 249.589844 208.285156 244.84375 211.070312 C 243.929688 211.59375 243.074219 211.285156 242.550781 210.671875 C 241.449219 211.835938 240.324219 212.972656 239.082031 213.945312 C 250.46875 213.113281 261.332031 210.492188 271.773438 205.792969 Z M 265.246094 218.503906 C 268.921875 215.417969 272.996094 213.09375 274.5625 208.804688 C 270.273438 213.308594 265.871094 219.164062 259.941406 220.210938 C 255.839844 220.945312 252.761719 220.273438 248.78125 219.089844 C 245.460938 218.101562 242.105469 217.859375 238.746094 217.550781 C 245.058594 220.097656 252.816406 219.539062 258.617188 223.816406 C 260.148438 224.945312 261.136719 224.347656 261.992188 223.164062 C 261.957031 222.417969 262.335938 221.664062 263.082031 221.414062 C 263.71875 220.347656 264.359375 219.238281 265.246094 218.503906 Z M 271.417969 231.847656 C 271.4375 231.789062 271.4375 231.734375 271.4375 231.679688 C 271.148438 230.28125 270.683594 229.058594 269.320312 227.96875 C 268.117188 227.007812 266.496094 225.792969 264.882812 225.308594 C 264.257812 226.074219 263.625 226.886719 263 227.761719 C 262.496094 228.414062 261.757812 228.863281 260.96875 229.078125 C 260.128906 229.308594 259.28125 228.917969 258.503906 228.378906 C 257.199219 230.355469 255.839844 232.125 254.234375 233.636719 C 254.738281 236.21875 258.851562 237.421875 260.902344 238.375 C 263.949219 239.78125 266.683594 241.480469 269.265625 243.625 C 270.898438 243.921875 270.878906 241.683594 270.992188 240.003906 C 271.148438 237.515625 270.972656 234.960938 271.269531 232.472656 C 271.308594 232.257812 271.34375 232.042969 271.417969 231.847656 Z M 271.476562 119.410156 C 271.632812 119.09375 271.792969 118.769531 271.960938 118.441406 C 266.859375 121.621094 262.421875 126.023438 257.273438 128.96875 C 260.882812 129.015625 264.546875 128.78125 266.535156 126.574219 C 268.492188 124.382812 269.984375 121.910156 271.476562 119.410156 Z M 280.109375 162.984375 C 273.433594 161.195312 266.945312 158.574219 259.941406 158.25 C 256.640625 161.53125 251.976562 164.066406 250.355469 168.496094 C 250.085938 169.203125 249.554688 169.597656 248.976562 169.71875 C 248.742188 169.828125 248.492188 169.867188 248.203125 169.867188 C 248.164062 169.941406 248.136719 170.007812 248.082031 170.082031 C 246.355469 172.273438 244.257812 174.042969 241.992188 175.609375 C 242.046875 175.59375 242.105469 175.574219 242.148438 175.554688 C 244.070312 174.332031 246.046875 173.222656 248.21875 172.542969 C 252.734375 171.144531 257.488281 170.816406 261.972656 169.417969 C 267.867188 167.601562 273.882812 163.898438 280.109375 162.984375 Z M 275.859375 169.128906 C 277.257812 167.730469 278.710938 166.613281 280.25 165.605469 C 273.378906 166.648438 265.984375 171.636719 259.511719 172.738281 C 259.214844 172.777344 258.925781 172.839844 258.636719 172.914062 C 261.199219 173.476562 263.625 174.566406 266.199219 174.949219 C 272.621094 175.882812 272.875 172.160156 275.859375 169.128906 Z M 276.519531 181.746094 C 279.195312 177.78125 280.109375 173.148438 281.183594 168.53125 C 278.441406 170.742188 276.230469 173.289062 273.554688 176.019531 C 272.425781 177.167969 270.339844 178.015625 268.726562 178.015625 C 261.703125 178.015625 257.058594 174.371094 249.496094 176.347656 C 247.828125 176.777344 246.195312 177.28125 244.59375 177.839844 C 243.949219 178.15625 243.304688 178.480469 242.652344 178.816406 C 249.339844 179.199219 255.53125 182.074219 262.03125 184.28125 C 262.335938 184.246094 262.609375 184.355469 262.804688 184.535156 C 262.925781 184.570312 263.039062 184.609375 263.160156 184.636719 C 263.214844 184.617188 263.234375 184.589844 263.289062 184.570312 C 267.679688 183.332031 271.960938 182.269531 276.015625 182.484375 C 276.035156 182.445312 276.074219 182.417969 276.101562 182.363281 C 276.175781 182.148438 276.324219 181.933594 276.519531 181.746094 Z M 280.847656 228.03125 C 281.6875 223.996094 280.921875 219.808594 280.847656 215.714844 C 280.847656 215.417969 280.902344 215.128906 280.96875 214.875 C 279.800781 214.046875 278.691406 213.167969 277.761719 212.164062 C 276.929688 214.195312 275.617188 216.003906 273.554688 217.320312 C 271.09375 218.875 269.171875 220.488281 267.449219 222.324219 C 268.941406 223.027344 270.355469 223.996094 271.578125 224.984375 C 272.742188 225.917969 273.730469 226.90625 274.433594 228.226562 C 274.582031 228.515625 274.683594 228.804688 274.777344 229.113281 C 276.464844 228.984375 278.226562 228.945312 279.820312 228.453125 C 280.175781 228.339844 280.519531 228.183594 280.847656 228.03125 Z M 268.511719 191.460938 C 273.898438 190.761719 279.511719 191.789062 284.847656 191.460938 C 284.457031 190.605469 283.878906 189.8125 283.058594 189.148438 C 277.183594 184.355469 271.148438 186.257812 264.707031 188.085938 C 264.6875 188.140625 264.707031 188.199219 264.667969 188.246094 C 264.027344 189.691406 263.539062 191.246094 262.824219 192.644531 C 264.648438 192.085938 266.570312 191.695312 268.511719 191.460938 Z M 281.003906 143.953125 C 284.242188 144.476562 290.21875 144.382812 290.535156 140.402344 C 286.199219 141.835938 281.332031 142.441406 276.660156 143.003906 C 278.078125 143.386719 279.53125 143.722656 281.003906 143.953125 Z M 282.070312 126.105469 C 282.945312 123.46875 285.277344 120.398438 285.136719 117.601562 C 285.082031 116.652344 282.085938 115.195312 280.089844 114.527344 C 274.152344 118.460938 272.390625 126.453125 269.535156 133.4375 C 273.304688 130.757812 277.238281 128.410156 281.648438 126.972656 C 281.722656 126.667969 281.863281 126.378906 282.070312 126.105469 Z M 284.746094 201.570312 C 285.257812 199.21875 285.816406 196.523438 285.566406 194.101562 C 276.640625 194.78125 267.167969 192.023438 259.066406 197.121094 C 263.410156 200.011719 268.707031 202.425781 273.84375 202.289062 C 277.667969 202.167969 281.042969 201.375 284.746094 201.570312 Z M 288.261719 213.578125 C 288.277344 212.042969 288.148438 210.492188 287.972656 208.964844 C 287.8125 207.601562 287.683594 206.277344 287.542969 204.925781 C 287.074219 205.355469 286.375 205.523438 285.722656 205.410156 C 283.449219 205.058594 281.203125 205.179688 278.972656 205.394531 C 278.972656 205.773438 278.964844 206.128906 278.925781 206.511719 C 279.449219 209.636719 282.386719 211.5 285.117188 213.152344 C 286.441406 213.289062 288.261719 213.476562 288.261719 213.578125 Z M 289.359375 137.957031 C 289.015625 137.472656 288.632812 136.96875 288.222656 136.464844 C 286.589844 134.460938 284.941406 132.449219 283.355469 130.40625 C 276.894531 132.371094 271.53125 136.503906 266.207031 140.578125 C 267.539062 140.726562 268.855469 140.980469 270.140625 141.257812 C 272.699219 141.042969 275.28125 140.402344 277.125 140.039062 C 281.183594 139.253906 285.386719 139.105469 289.359375 137.957031 Z M 289.265625 149.632812 C 290.824219 147.8125 291.597656 146.183594 291.765625 144.605469 C 287.523438 148.726562 275.550781 145.425781 268.835938 143.871094 C 267.671875 143.898438 266.515625 143.851562 265.386719 143.644531 C 264.773438 146.957031 264.324219 150.492188 263.082031 153.558594 C 267.867188 152.542969 272.714844 153.183594 277.546875 152.09375 C 281.351562 151.207031 285.371094 150.566406 289.230469 149.6875 C 289.25 149.667969 289.25 149.652344 289.265625 149.632812 Z M 293.304688 162.753906 C 293.417969 159.722656 293.433594 155.953125 290.863281 154.3125 C 290.84375 154.292969 290.824219 154.265625 290.785156 154.265625 C 290.320312 154.136719 289.871094 153.882812 289.519531 153.546875 C 285.15625 154.582031 280.59375 155.433594 276.269531 156.039062 C 274.488281 156.289062 272.742188 156.382812 271.027344 156.46875 C 275.746094 157.78125 280.398438 159.394531 285.238281 160.328125 C 285.332031 160.347656 285.371094 160.402344 285.460938 160.421875 C 285.660156 160.457031 285.871094 160.515625 286.050781 160.597656 C 288.511719 161.15625 290.953125 161.875 293.304688 162.753906 Z M 298.011719 177.800781 C 294.9375 176.367188 292.429688 175.285156 290.144531 172.355469 C 288.613281 170.417969 287.253906 168.335938 285.566406 166.546875 C 284.417969 170.621094 283.757812 174.816406 282.28125 178.714844 C 283.503906 178.324219 284.867188 178.136719 286.703125 178.25 C 290.433594 178.464844 294.238281 178.070312 298.011719 177.800781 Z M 296.390625 189.234375 C 296.25 189.542969 296.371094 189.542969 296.390625 189.234375 Z M 296.371094 189.074219 C 296.371094 189.039062 296.371094 188.980469 296.355469 188.933594 C 296.289062 188.589844 296.195312 188.246094 296.101562 187.910156 C 295.867188 187.152344 295.636719 186.398438 295.335938 185.664062 C 294.878906 184.535156 294.394531 183.425781 293.789062 182.363281 C 293.714844 182.230469 293.667969 182.109375 293.613281 181.960938 C 291.765625 182.109375 289.929688 182.203125 288.148438 182.109375 C 285.566406 181.949219 283.195312 181.511719 280.988281 183.238281 C 280.902344 183.3125 280.808594 183.386719 280.714844 183.453125 C 282.824219 184.246094 284.828125 185.542969 286.730469 187.546875 C 287.699219 188.589844 288.351562 189.753906 288.761719 191.015625 C 290.023438 190.78125 291.289062 190.585938 292.53125 190.296875 C 293.554688 190.0625 295.421875 189.832031 296.371094 189.074219 Z M 299.320312 175.515625 C 299.121094 174.890625 298.871094 174.296875 298.65625 173.828125 C 297.574219 171.5 296.269531 169.109375 294.414062 167.292969 C 292.25 166.296875 289.964844 165.503906 287.644531 164.878906 C 289.25 166.613281 290.527344 168.609375 292.046875 170.453125 C 293.164062 171.804688 294.433594 173.382812 296.054688 174.15625 C 297.109375 174.679688 298.226562 175.070312 299.320312 175.515625 Z M 304.707031 175.164062 C 305.3125 179.433594 303.273438 181.484375 300.019531 182.652344 C 301.417969 185.605469 302.515625 189.167969 301.117188 191.789062 C 299.589844 194.679688 295.167969 195.453125 291.710938 195.964844 C 292.464844 199.648438 292.660156 203.277344 293.128906 207.042969 C 293.378906 209.1875 293.828125 211.425781 293.648438 213.578125 C 293.304688 218.308594 290.085938 218.914062 286.394531 218.660156 C 286.554688 220.910156 286.75 223.164062 286.609375 225.414062 C 286.496094 227.25 286.515625 230.355469 285.117188 231.773438 C 283.09375 233.832031 279.589844 234.140625 276.539062 234.355469 C 276.390625 237.710938 276.789062 241.199219 275.652344 244.371094 C 274.449219 247.78125 272.0625 249.21875 269.152344 248.964844 C 268.742188 252.359375 267.558594 256.332031 265.003906 257.695312 C 261.621094 259.492188 257.273438 258.019531 253.609375 256.9375 C 252.332031 260.210938 250.46875 263.707031 247.148438 264.660156 C 244.492188 265.414062 241.5625 265.332031 238.832031 265.742188 C 237.449219 265.9375 236.050781 266.132812 234.671875 266.328125 C 237.628906 269.078125 239.222656 272.359375 236.359375 276.652344 C 231.746094 283.550781 224.6875 287.589844 216.441406 286.152344 C 215.371094 287.785156 214.09375 289.453125 212.777344 291.375 C 213.625 292.035156 214.417969 292.847656 215.082031 293.910156 C 217.5625 297.789062 218.328125 302.21875 217.703125 306.777344 C 217.019531 311.738281 215.648438 316.203125 211.648438 319.382812 C 208.601562 321.808594 204.5625 326.742188 199.976562 325.027344 C 194.652344 322.992188 187.628906 319.441406 183.246094 314.433594 C 183.136719 314.480469 183.03125 314.554688 182.882812 314.59375 C 174.074219 317.808594 164.46875 316.316406 157.503906 309.6875 C 156.375 308.613281 155.507812 307.449219 154.863281 306.191406 C 152.226562 307.011719 149.277344 307.066406 146.695312 306.097656 C 146.640625 306.210938 146.566406 306.292969 146.5 306.386719 C 139.226562 314.394531 130.125 321.5 118.21875 317.875 C 110.40625 315.488281 104.734375 311.179688 102.039062 304.988281 C 97.871094 308.578125 90.617188 308.308594 85.554688 307.839844 C 81.414062 307.457031 75.847656 307.011719 72.546875 304.140625 C 69.5625 301.539062 70.1875 298.917969 70.355469 295.253906 C 70.730469 286.152344 73.65625 277.929688 83.511719 274.960938 C 84.679688 274.628906 85.898438 274.394531 87.121094 274.261719 C 87.160156 274.125 87.214844 273.984375 87.28125 273.835938 C 89.957031 268.183594 96.53125 263.222656 103.261719 261.917969 C 103.691406 254.644531 106.367188 248.109375 111.953125 243.183594 C 114.300781 241.125 117.808594 239.089844 121.464844 238.039062 C 117.929688 234.953125 114.210938 233.636719 114.710938 227.269531 C 115.1875 221.355469 116.046875 215.949219 118.144531 210.566406 C 113.117188 208.84375 108.792969 206.027344 104 203.6875 C 101.25 202.34375 97.285156 200.832031 96.867188 197.300781 C 95.933594 189.1875 102.003906 178.894531 107.449219 172.550781 C 103.242188 169.308594 95.847656 164.105469 95.773438 158.117188 C 95.71875 152.375 101.191406 147.097656 106.617188 145.175781 C 106.441406 142.183594 106.636719 139.355469 108.289062 136.933594 C 108.230469 136.886719 108.167969 136.8125 108.109375 136.738281 C 105.183594 132.558594 104.230469 126.238281 107.160156 121.875 C 107.316406 114.328125 109.546875 107.074219 116.417969 103.289062 C 111.503906 94.308594 121.789062 80.0625 129.667969 76.144531 C 130.5 74.65625 131.507812 73.359375 132.988281 72.445312 C 134.769531 71.34375 137.390625 70.449219 138.070312 68.210938 C 139.097656 64.835938 139.738281 61.292969 141.949219 58.421875 C 145.867188 53.3125 150.929688 50.542969 157.175781 50.039062 C 159.042969 44.957031 166.0625 43.695312 171.042969 43.539062 C 175.957031 38.222656 187.144531 37.671875 193.242188 41.050781 C 199.75 37.414062 209.226562 38.941406 215.183594 42.980469 C 221.5625 41.730469 227.882812 44.5625 230.953125 50.234375 C 236.191406 50.019531 241.039062 51.417969 246 53.097656 C 249.085938 54.132812 253.394531 54.710938 255.78125 57.132812 C 260.210938 61.582031 258.476562 69.359375 257.9375 75.390625 C 263.082031 75.839844 269.808594 77.40625 272.316406 81.488281 C 273.824219 83.941406 273.824219 87.054688 273.964844 89.824219 C 274.171875 93.703125 273.882812 97.367188 272.894531 101.042969 C 277.304688 102.609375 283.988281 105.117188 283.234375 109.84375 C 286.246094 111.046875 289.59375 113.304688 290.292969 115.972656 C 291.289062 119.777344 288.746094 123.503906 287.449219 126.992188 C 290.898438 131.515625 294.992188 135.589844 297.238281 140.90625 C 298.816406 144.625 297.3125 147.964844 295.140625 150.890625 C 298.542969 154.191406 298.675781 159.199219 298.65625 163.871094 C 301.511719 166.769531 304.128906 171.300781 304.707031 175.164062 Z M 140.625 73.992188 C 138.320312 76.5 117.175781 85.636719 131.878906 87.308594 C 136.261719 87.8125 137.96875 87.539062 140.859375 84.707031 C 142.183594 83.402344 147.785156 75.511719 150.285156 77.058594 C 147.554688 75.371094 144.894531 73.507812 142.136719 71.941406 C 141.714844 72.640625 141.230469 73.320312 140.625 73.992188 Z M 277.769531 109.203125 C 277.808594 109.21875 277.824219 109.285156 277.863281 109.414062 C 277.824219 109.304688 277.824219 109.265625 277.824219 109.230469 C 277.824219 109.230469 277.808594 109.21875 277.769531 109.203125 Z M 277.761719 109.183594 C 277.742188 109.164062 277.722656 109.144531 277.6875 109.109375 C 277.0625 108.511719 276.304688 108.101562 275.511719 107.746094 C 273.6875 106.878906 271.707031 106.359375 269.808594 105.660156 C 269.367188 105.5 269.015625 105.246094 268.742188 104.957031 C 267.402344 107.132812 265.851562 109.035156 263.195312 110.488281 C 261.546875 111.382812 259.820312 112.140625 258.113281 112.894531 C 260.445312 112.914062 262.785156 112.929688 265.097656 112.445312 C 269.125 111.625 272.976562 111.570312 276.988281 111.132812 C 277.003906 111.066406 277.023438 110.992188 277.0625 110.9375 C 277.089844 110.5625 277.21875 110.171875 277.472656 109.769531 C 277.667969 109.480469 277.722656 109.183594 277.761719 109.183594 " fill-opacity="1" fill-rule="nonzero"/></svg>