<svg xmlns="http://www.w3.org/2000/svg" xmlns:xlink="http://www.w3.org/1999/xlink" width="500" zoomAndPan="magnify" viewBox="0 0 375 374.999991" height="500" preserveAspectRatio="xMidYMid meet" version="1.0"><defs><clipPath id="47d3bc7496"><path d="M 187.5 0 C 83.945312 0 0 83.945312 0 187.5 C 0 291.054688 83.945312 375 187.5 375 C 291.054688 375 375 291.054688 375 187.5 C 375 83.945312 291.054688 0 187.5 0 Z M 187.5 0 " clip-rule="nonzero"/></clipPath><clipPath id="b780591094"><path d="M 33 112 L 341.9375 112 L 341.9375 242.460938 L 33 242.460938 Z M 33 112 " clip-rule="nonzero"/></clipPath></defs><g clip-path="url(#47d3bc7496)"><rect x="-37.5" width="450" fill="#a2c36e" y="-37.499999" height="449.999989" fill-opacity="1"/></g><g clip-path="url(#b780591094)"><path fill="#ffffff" d="M 330.632812 215.5 C 330.539062 215.5 330.496094 215.453125 330.449219 215.40625 C 329.671875 214.769531 329.125 213.945312 328.851562 212.988281 C 328.710938 212.4375 328.53125 211.890625 328.347656 211.25 C 325.46875 201.566406 318.796875 178.90625 306.28125 158.070312 C 290.519531 131.800781 270.78125 116.769531 247.710938 113.390625 C 245.425781 113.070312 243.140625 112.796875 240.949219 112.566406 C 240.902344 112.566406 240.902344 112.519531 240.902344 112.519531 L 240.855469 112.566406 C 185.300781 107.496094 148.753906 141.167969 141.761719 148.25 C 141.535156 148.476562 141.214844 148.796875 140.757812 149.253906 C 129.976562 160.402344 109.324219 180.367188 87.027344 194.300781 C 87.027344 194.300781 86.984375 194.300781 86.984375 194.300781 C 72.179688 203.53125 56.648438 210.109375 42.894531 209.652344 C 38.417969 209.515625 34.671875 212.484375 33.804688 216.914062 C 32.9375 221.300781 35.265625 225.460938 39.421875 227.011719 C 43.808594 228.613281 49.613281 229.707031 56.691406 230.257812 C 74.875 231.671875 91.644531 230.257812 107.863281 225.960938 C 116.589844 223.675781 125.179688 220.523438 133.765625 216.503906 C 135.410156 215.820312 149.894531 209.878906 181.601562 198.871094 C 206.042969 190.371094 246.796875 193.933594 268.816406 206.453125 C 275.988281 210.519531 280.648438 215.363281 282.433594 220.480469 C 282.476562 220.617188 282.433594 220.800781 282.339844 220.9375 C 282.066406 221.300781 281.746094 221.667969 281.335938 222.125 C 279.644531 224.042969 277.589844 226.464844 275.945312 230.300781 C 274.757812 233.132812 275.488281 235.234375 276.355469 236.515625 C 278.914062 240.351562 286.542969 242.273438 298.96875 242.273438 C 299.519531 242.273438 300.113281 242.273438 300.707031 242.273438 C 305.09375 242.226562 314.871094 241.585938 323.824219 239.667969 C 335.472656 237.199219 341.277344 233.5 341.597656 228.335938 C 342.054688 220.066406 335.015625 216.457031 330.632812 215.5 Z M 320.945312 205.996094 C 317.839844 209.46875 309.066406 215.910156 288.417969 212.894531 C 288.234375 212.851562 288.097656 212.757812 288.050781 212.574219 C 287.273438 209.835938 285.902344 207 283.941406 204.214844 C 283.710938 203.894531 283.941406 203.484375 284.304688 203.484375 C 285.035156 203.484375 285.765625 203.53125 286.496094 203.53125 C 303.675781 203.53125 312.449219 198.457031 316.605469 194.621094 C 316.835938 194.390625 317.246094 194.484375 317.335938 194.804688 C 318.617188 198.277344 319.847656 201.886719 321.039062 205.585938 C 321.082031 205.722656 321.082031 205.90625 320.945312 205.996094 Z M 291.570312 146.238281 C 295.316406 150.898438 298.832031 156.0625 302.214844 161.863281 C 302.261719 161.953125 302.261719 162 302.261719 162.089844 C 302.121094 165.609375 300.019531 183.382812 270.875 191.058594 C 270.734375 191.101562 270.597656 191.058594 270.507812 190.964844 C 269.183594 190.007812 267.765625 189.046875 266.351562 188.132812 C 266.074219 187.949219 266.074219 187.539062 266.351562 187.355469 C 275.257812 181.601562 282.339844 172.144531 287 159.671875 C 288.875 154.691406 290.0625 150.03125 290.792969 146.375 C 290.839844 146.054688 291.339844 145.964844 291.570312 146.238281 Z M 286.40625 140.574219 C 285.355469 148.066406 280.332031 174.382812 260.640625 184.613281 C 260.503906 184.707031 260.363281 184.660156 260.226562 184.613281 C 259.175781 184.019531 258.082031 183.472656 256.984375 182.925781 C 256.757812 182.789062 256.664062 182.511719 256.800781 182.285156 C 267.539062 165.242188 269.914062 149.847656 269.960938 139.660156 C 269.960938 134.589844 269.410156 130.292969 268.773438 127.050781 C 268.679688 126.683594 269.089844 126.363281 269.457031 126.546875 C 275.394531 130.019531 281.015625 134.589844 286.316406 140.160156 C 286.40625 140.300781 286.453125 140.4375 286.40625 140.574219 Z M 246.886719 118.550781 C 252.140625 119.328125 257.210938 120.746094 262.101562 122.847656 C 262.238281 122.890625 262.328125 122.984375 262.375 123.121094 C 264.019531 128.238281 270.097656 152.039062 251.914062 180.183594 C 251.777344 180.367188 251.546875 180.457031 251.363281 180.367188 C 250.816406 180.136719 250.269531 179.910156 249.71875 179.679688 C 248.257812 179.085938 246.75 178.539062 245.242188 178.082031 C 245.015625 177.992188 244.878906 177.761719 244.921875 177.535156 C 254.5625 145.734375 249.902344 127.78125 245.472656 119.101562 C 245.289062 118.78125 245.5625 118.414062 245.929688 118.460938 C 246.246094 118.460938 246.566406 118.507812 246.886719 118.550781 Z M 238.480469 117.773438 C 241.953125 122.296875 251.183594 138.792969 239.804688 176.164062 C 239.714844 176.390625 239.484375 176.527344 239.257812 176.484375 C 236.332031 175.84375 233.320312 175.386719 230.210938 175.113281 C 229.9375 175.066406 229.753906 174.792969 229.800781 174.519531 C 234.824219 156.242188 232.128906 140.800781 228.839844 130.886719 C 227.058594 125.449219 224.914062 121.109375 223.175781 118.050781 C 222.992188 117.773438 223.222656 117.363281 223.542969 117.363281 C 228.203125 117.136719 233.089844 117.179688 238.117188 117.546875 C 238.296875 117.636719 238.390625 117.683594 238.480469 117.773438 Z M 217.144531 118.1875 C 221.347656 124.765625 232.722656 146.328125 224.363281 174.519531 C 224.316406 174.703125 224.136719 174.839844 223.90625 174.839844 C 221.941406 174.839844 219.976562 174.839844 218.011719 174.976562 C 217.738281 174.976562 217.511719 174.746094 217.554688 174.472656 C 220.390625 156.472656 214.402344 142.582031 208.648438 133.855469 C 205.265625 128.738281 201.613281 124.8125 198.824219 122.160156 C 198.550781 121.933594 198.6875 121.476562 199.007812 121.382812 C 204.535156 119.878906 210.476562 118.6875 216.734375 118.003906 C 216.871094 117.957031 217.007812 118.050781 217.144531 118.1875 Z M 191.972656 123.484375 C 192.109375 123.441406 192.292969 123.441406 192.429688 123.578125 C 194.851562 125.542969 199.875 130.109375 204.351562 136.871094 C 212.027344 148.613281 214.632812 161.496094 212.074219 175.203125 C 212.027344 175.386719 211.890625 175.570312 211.664062 175.570312 C 209.515625 175.84375 207.324219 176.207031 205.085938 176.621094 C 204.808594 176.664062 204.582031 176.484375 204.535156 176.253906 C 201.199219 154.097656 190.921875 143.132812 182.605469 137.785156 C 178.949219 135.410156 175.34375 133.949219 172.328125 133.035156 C 171.960938 132.898438 171.871094 132.394531 172.234375 132.210938 C 178.039062 129.015625 184.660156 125.953125 191.972656 123.484375 Z M 164.421875 136.828125 C 164.515625 136.78125 164.605469 136.734375 164.695312 136.734375 C 167.117188 136.964844 173.285156 137.96875 179.820312 142.171875 C 190.464844 149.023438 197.042969 160.859375 199.464844 177.441406 C 199.511719 177.671875 199.375 177.898438 199.144531 177.945312 C 196.082031 178.722656 193.023438 179.636719 189.960938 180.6875 C 189.734375 180.777344 189.460938 180.640625 189.367188 180.367188 C 185.210938 165.382812 178.21875 155.054688 168.535156 149.617188 C 163.28125 146.648438 158.074219 145.644531 153.824219 145.507812 C 153.414062 145.507812 153.230469 144.960938 153.550781 144.683594 C 156.472656 142.308594 160.128906 139.566406 164.421875 136.828125 Z M 144.457031 152.910156 C 144.867188 152.453125 145.1875 152.132812 145.417969 151.949219 C 145.507812 151.859375 145.601562 151.765625 145.691406 151.675781 C 145.738281 151.628906 145.828125 151.582031 145.917969 151.539062 C 147.746094 151.082031 156.882812 149.117188 166.023438 154.277344 C 174.472656 159.078125 180.640625 168.488281 184.386719 182.285156 C 184.433594 182.511719 184.34375 182.742188 184.113281 182.832031 C 181.554688 183.839844 178.996094 184.933594 176.4375 186.167969 C 176.210938 186.261719 175.9375 186.167969 175.84375 185.984375 C 169.039062 173.238281 160.492188 165.199219 150.398438 162 C 145.875 160.582031 141.625 160.308594 137.96875 160.628906 C 137.558594 160.675781 137.332031 160.171875 137.605469 159.851562 C 139.933594 157.523438 142.21875 155.238281 144.457031 152.910156 Z M 57.011719 225.046875 C 50.433594 224.546875 45.089844 223.539062 41.160156 222.078125 C 39.011719 221.300781 38.554688 219.429688 38.875 217.964844 C 39.148438 216.457031 40.335938 214.859375 42.621094 214.953125 C 43.125 214.953125 43.625 214.996094 44.175781 214.996094 C 45.867188 214.996094 47.601562 214.90625 49.382812 214.722656 C 49.429688 214.722656 49.429688 214.722656 49.476562 214.722656 C 54.042969 215.089844 67.019531 216.914062 72.410156 224.820312 C 72.636719 225.140625 72.410156 225.550781 72.042969 225.550781 C 67.109375 225.597656 62.128906 225.414062 57.011719 225.046875 Z M 78.53125 225.003906 C 76.246094 219.839844 72.316406 216.414062 68.113281 214.175781 C 67.65625 213.945312 67.886719 213.261719 68.390625 213.304688 C 73.78125 213.902344 82.414062 216.09375 90.730469 223.3125 C 91.003906 223.585938 90.867188 224.042969 90.5 224.132812 C 86.710938 224.683594 82.871094 225.046875 78.988281 225.277344 C 78.761719 225.320312 78.621094 225.183594 78.53125 225.003906 Z M 97.675781 222.71875 C 89.128906 213.761719 79.855469 210.152344 72.957031 208.738281 C 72.5 208.648438 72.457031 208.050781 72.867188 207.871094 L 72.957031 207.824219 C 73.003906 207.824219 73.003906 207.777344 73.050781 207.777344 C 79.671875 206.589844 98.359375 204.855469 111.015625 218.925781 C 111.242188 219.15625 111.105469 219.566406 110.785156 219.65625 C 106.582031 220.9375 102.335938 221.941406 98.085938 222.808594 C 97.949219 222.902344 97.8125 222.855469 97.675781 222.71875 Z M 117.183594 217.648438 C 117 217.691406 116.816406 217.648438 116.679688 217.507812 C 107.726562 206.226562 96.441406 202.660156 88.308594 201.746094 C 87.761719 201.703125 87.210938 201.609375 86.710938 201.609375 C 86.253906 201.566406 86.117188 200.972656 86.527344 200.742188 C 87.347656 200.238281 88.21875 199.738281 89.039062 199.234375 C 89.085938 199.1875 89.128906 199.1875 89.175781 199.1875 C 92.328125 198.414062 108.183594 195.71875 125.359375 213.855469 C 125.589844 214.082031 125.496094 214.496094 125.222656 214.585938 C 122.527344 215.683594 119.832031 216.734375 117.183594 217.648438 Z M 132.03125 211.523438 C 132.03125 211.523438 131.984375 211.523438 132.03125 211.523438 C 131.664062 211.660156 131.484375 211.753906 131.484375 211.753906 C 131.390625 211.800781 131.253906 211.84375 131.164062 211.890625 C 130.980469 211.980469 130.75 211.9375 130.613281 211.800781 C 118.828125 198.59375 107.359375 194.484375 99.089844 193.476562 C 98.679688 193.433594 98.542969 192.882812 98.863281 192.65625 C 99.683594 192.0625 100.550781 191.46875 101.421875 190.828125 C 101.464844 190.828125 101.464844 190.78125 101.511719 190.78125 C 103.566406 189.914062 120.152344 184.066406 141.898438 205.675781 C 142.128906 205.90625 142.082031 206.269531 141.808594 206.40625 C 138.519531 208.28125 135.273438 209.972656 132.03125 211.523438 Z M 156.425781 197.5 C 153.414062 199.554688 150.351562 201.472656 147.382812 203.253906 C 147.199219 203.347656 146.96875 203.347656 146.832031 203.164062 C 132.671875 188.589844 120.199219 184.660156 111.515625 184.203125 C 111.105469 184.203125 110.921875 183.65625 111.242188 183.382812 C 111.699219 183.015625 112.203125 182.605469 112.660156 182.238281 C 112.660156 182.238281 112.707031 182.195312 112.707031 182.195312 C 113.574219 181.691406 118.917969 178.765625 126.640625 178.996094 C 137.054688 179.359375 147.472656 185.390625 156.976562 196.449219 C 157.160156 196.675781 157.113281 196.996094 156.882812 197.132812 C 156.746094 197.316406 156.566406 197.40625 156.425781 197.5 Z M 126.503906 173.789062 C 125.589844 173.789062 124.722656 173.789062 123.898438 173.832031 C 123.488281 173.878906 123.257812 173.332031 123.578125 173.054688 C 125.269531 171.546875 127.003906 169.996094 128.695312 168.441406 C 128.742188 168.394531 128.742188 168.394531 128.785156 168.351562 C 130.433594 167.574219 139.019531 163.828125 148.980469 167.027344 C 157.660156 169.8125 165.109375 176.941406 171.183594 188.269531 C 171.320312 188.5 171.230469 188.773438 171 188.910156 C 168.03125 190.464844 165.109375 192.109375 162.183594 193.890625 C 162 194.027344 161.726562 193.980469 161.589844 193.796875 C 148.066406 177.671875 135.136719 173.96875 126.503906 173.789062 Z M 271.285156 201.929688 C 248.167969 188.773438 205.402344 185.070312 179.773438 193.933594 C 174.703125 195.71875 170.042969 197.316406 165.792969 198.824219 C 165.289062 199.007812 164.925781 198.277344 165.382812 198 C 194.394531 180.410156 224.773438 175.386719 247.710938 184.570312 C 261.371094 190.050781 272.472656 197.863281 278.546875 205.722656 C 278.867188 206.132812 278.320312 206.683594 277.910156 206.363281 C 275.945312 204.808594 273.75 203.347656 271.285156 201.929688 Z M 278.824219 197.910156 C 278.730469 197.910156 278.59375 197.863281 278.546875 197.773438 C 278.320312 197.542969 278.136719 197.363281 277.910156 197.132812 C 277.40625 196.632812 276.902344 196.175781 276.355469 195.671875 C 276.082031 195.441406 276.171875 194.984375 276.539062 194.894531 C 292.027344 189.914062 299.609375 182.011719 303.265625 175.890625 C 304.453125 173.878906 305.320312 171.960938 305.960938 170.222656 C 306.097656 169.859375 306.601562 169.8125 306.78125 170.179688 C 309.660156 175.796875 312.355469 181.828125 314.914062 188.363281 C 314.960938 188.5 314.960938 188.679688 314.871094 188.820312 C 313.132812 191.148438 304.773438 200.058594 278.824219 197.910156 Z M 336.296875 228.019531 C 336.207031 229.707031 332.550781 232.449219 322.683594 234.550781 C 314.09375 236.378906 304.726562 236.972656 300.570312 237.019531 C 288.507812 237.199219 281.882812 235.417969 280.648438 233.589844 C 280.558594 233.453125 280.375 233.179688 280.695312 232.359375 C 282.019531 229.25 283.710938 227.285156 285.21875 225.550781 C 287 223.496094 288.691406 221.53125 288.828125 218.558594 C 288.828125 218.46875 288.828125 218.332031 288.828125 218.242188 C 292.4375 218.742188 295.679688 218.925781 298.695312 218.925781 C 310.941406 218.925781 318.203125 215.316406 322.40625 211.890625 C 322.636719 211.660156 323.046875 211.800781 323.140625 212.117188 C 323.183594 212.300781 323.277344 212.484375 323.320312 212.710938 C 323.503906 213.351562 323.6875 213.945312 323.824219 214.496094 C 324.507812 216.824219 326.0625 218.835938 328.117188 220.160156 C 328.4375 220.34375 328.757812 220.480469 329.125 220.523438 C 329.855469 220.707031 336.664062 221.988281 336.296875 228.019531 Z M 336.296875 228.019531 " fill-opacity="1" fill-rule="nonzero"/></g></svg>