<svg xmlns="http://www.w3.org/2000/svg" xmlns:xlink="http://www.w3.org/1999/xlink" width="500" zoomAndPan="magnify" viewBox="0 0 375 374.999991" height="500" preserveAspectRatio="xMidYMid meet" version="1.0"><defs><clipPath id="abfe060246"><path d="M 187.5 0 C 83.945312 0 0 83.945312 0 187.5 C 0 291.054688 83.945312 375 187.5 375 C 291.054688 375 375 291.054688 375 187.5 C 375 83.945312 291.054688 0 187.5 0 Z M 187.5 0 " clip-rule="nonzero"/></clipPath><clipPath id="648ff7262c"><path d="M 65.472656 162 L 209 162 L 209 311 L 65.472656 311 Z M 65.472656 162 " clip-rule="nonzero"/></clipPath><clipPath id="0a514e9107"><path d="M 160 64 L 309.222656 64 L 309.222656 220 L 160 220 Z M 160 64 " clip-rule="nonzero"/></clipPath></defs><g clip-path="url(#abfe060246)"><rect x="-37.5" width="450" fill="#58a39d" y="-37.499999" height="449.999989" fill-opacity="1"/></g><g clip-path="url(#648ff7262c)"><path fill="#ffffff" d="M 181.761719 229.855469 C 180.386719 226.082031 187.214844 218.042969 193.230469 210.902344 C 200.867188 201.894531 208.066406 193.386719 204.480469 188.152344 C 201.019531 183.039062 189.175781 185.097656 171.472656 188.804688 C 162.933594 190.613281 153.242188 192.640625 150.5625 191.457031 C 148.035156 190.332031 142.738281 185.066406 137.625 179.984375 C 126.71875 169.109375 118.613281 161.503906 113.441406 162.3125 C 112.007812 162.53125 110.851562 163.402344 110.136719 164.808594 C 108.828125 167.363281 108.515625 175.03125 108.140625 187.308594 C 107.890625 195.820312 107.550781 207.476562 106.363281 209.28125 C 105.085938 211.246094 98.417969 213.335938 91.964844 215.359375 C 79.5 219.289062 65.347656 223.746094 65.660156 232.785156 C 65.910156 240.078125 79.3125 243.316406 92.308594 246.464844 C 97.949219 247.835938 103.3125 249.117188 105.742188 250.457031 C 105.835938 250.519531 105.929688 250.613281 106.023438 250.734375 C 106.054688 250.765625 106.054688 250.765625 106.054688 250.765625 C 107.828125 253.167969 107.113281 266.539062 106.613281 275.578125 C 105.492188 295.867188 105.242188 308.304688 111.164062 309.828125 C 111.945312 310.015625 112.722656 310.109375 113.503906 310.109375 C 123.601562 310.109375 131.546875 293.25 138.65625 278.257812 C 142.488281 270.152344 146.851562 260.960938 149.375 260.429688 C 149.40625 260.429688 149.4375 260.429688 149.46875 260.429688 C 149.53125 260.429688 149.59375 260.460938 149.65625 260.460938 C 149.875 260.460938 150.09375 260.429688 150.28125 260.335938 C 156.667969 259.898438 167.265625 267.253906 176.710938 273.769531 C 189.269531 282.464844 201.144531 290.691406 206.757812 284.335938 C 212.585938 277.726562 201.300781 259.648438 188.210938 240.078125 C 185 235.402344 182.257812 231.289062 181.761719 229.855469 Z M 201.707031 193.886719 C 201.769531 193.511719 201.800781 193.105469 201.769531 192.671875 C 201.738281 192.140625 201.425781 191.671875 200.992188 191.425781 C 201.488281 191.425781 201.957031 191.175781 202.238281 190.769531 C 202.425781 191.640625 202.207031 192.671875 201.707031 193.886719 Z M 205.199219 280.035156 C 202.671875 269.375 193.324219 259.027344 185.71875 250.613281 L 183.378906 247.992188 C 174.746094 238.300781 163.277344 228.667969 151.152344 220.847656 C 150.4375 220.378906 149.46875 220.597656 149.003906 221.3125 C 148.535156 222.03125 148.753906 222.996094 149.46875 223.464844 C 161.375 231.132812 172.597656 240.605469 181.074219 250.082031 L 183.441406 252.699219 C 190.890625 260.929688 201.082031 272.210938 202.578125 282.683594 C 202.609375 282.933594 202.703125 283.121094 202.828125 283.304688 C 197.96875 284.738281 187.683594 277.632812 178.488281 271.277344 C 168.699219 264.511719 158.632812 257.5625 151.214844 257.28125 L 151.214844 250.050781 C 151.214844 249.488281 150.902344 249.023438 150.46875 248.742188 C 150.625 248.742188 150.777344 248.710938 150.933594 248.648438 C 151.714844 248.304688 152.121094 247.402344 151.777344 246.621094 C 151.746094 246.527344 151.746094 246.214844 151.746094 245.96875 L 151.746094 245.5625 C 151.746094 244.722656 151.027344 244.160156 150.1875 244.160156 C 149.4375 244.066406 148.628906 245 148.628906 245.875 C 148.628906 246.402344 148.597656 247.089844 148.910156 247.804688 C 149.035156 248.117188 149.25 248.335938 149.5 248.492188 C 148.722656 248.585938 148.128906 249.207031 148.128906 250.019531 L 148.128906 257.6875 C 144.546875 259.058594 141.210938 265.695312 135.882812 276.980469 C 129.117188 291.285156 120.703125 309.082031 112.007812 306.839844 C 108.140625 305.839844 109.140625 287.761719 109.792969 275.792969 C 110.542969 262.175781 110.851562 253.449219 108.890625 249.613281 C 109.917969 247.058594 111.289062 245.375 113.222656 244.441406 C 113.96875 244.066406 114.25 243.226562 113.96875 242.476562 C 114.15625 242.539062 114.34375 242.601562 114.5625 242.601562 C 115.0625 242.601562 115.558594 242.351562 115.871094 241.914062 C 115.964844 241.851562 116.121094 241.789062 116.246094 241.730469 C 116.558594 241.605469 116.835938 241.449219 117.054688 241.292969 C 117.835938 240.761719 118.394531 240.109375 118.863281 239.546875 C 119.394531 238.859375 119.269531 237.894531 118.582031 237.363281 C 117.898438 236.835938 116.929688 236.960938 116.402344 237.644531 C 116.089844 238.050781 115.746094 238.425781 115.339844 238.707031 C 115.246094 238.769531 115.09375 238.828125 114.9375 238.890625 C 114.34375 239.171875 113.535156 239.546875 113.128906 240.417969 C 112.972656 240.824219 112.972656 241.230469 113.097656 241.605469 C 112.691406 241.449219 112.257812 241.449219 111.851562 241.636719 C 109.542969 242.757812 107.800781 244.691406 106.488281 247.371094 C 103.558594 246 98.699219 244.8125 93.117188 243.472656 C 90.65625 242.882812 87.914062 242.195312 85.140625 241.449219 C 85.296875 241.449219 85.484375 241.449219 85.640625 241.386719 C 85.917969 241.292969 86.292969 241.417969 86.761719 241.761719 C 87.042969 241.976562 87.351562 242.070312 87.695312 242.070312 C 88.164062 242.070312 88.628906 241.851562 88.941406 241.449219 C 89.441406 240.761719 89.316406 239.796875 88.628906 239.265625 C 86.980469 238.050781 85.578125 238.144531 84.671875 238.457031 C 84.390625 238.550781 84.203125 238.707031 84.019531 238.921875 C 84.113281 238.113281 83.582031 237.363281 82.769531 237.210938 C 79.902344 236.648438 78.4375 236.367188 76.664062 234.3125 C 76.101562 233.65625 75.105469 233.59375 74.449219 234.15625 C 73.796875 234.714844 73.734375 235.714844 74.292969 236.367188 C 76.785156 239.265625 79.15625 239.734375 82.179688 240.292969 C 82.273438 240.324219 82.367188 240.324219 82.492188 240.324219 C 82.925781 240.324219 83.332031 240.109375 83.613281 239.796875 C 83.582031 240.015625 83.613281 240.234375 83.675781 240.449219 C 83.800781 240.824219 84.050781 241.105469 84.359375 241.292969 C 77.878906 239.484375 71.550781 237.242188 69.523438 234.527344 C 69.710938 234.621094 69.929688 234.683594 70.148438 234.683594 C 70.429688 234.683594 70.710938 234.621094 70.988281 234.433594 C 77.035156 230.632812 127.371094 221.625 138.996094 221.625 C 139.871094 221.625 140.554688 220.941406 140.554688 220.066406 C 140.554688 219.195312 139.871094 218.507812 138.996094 218.507812 C 127.871094 218.507812 76.257812 227.453125 69.339844 231.785156 C 69.152344 231.878906 69.027344 232.035156 68.902344 232.191406 C 69.460938 225.832031 82.460938 221.71875 92.996094 218.414062 C 100.847656 215.953125 106.023438 214.207031 108.328125 211.902344 C 109.699219 211.621094 112.195312 211.621094 113.378906 211.933594 C 113.503906 211.964844 113.660156 211.996094 113.78125 211.996094 C 114.46875 211.996094 115.09375 211.527344 115.277344 210.839844 C 115.496094 210 115 209.160156 114.15625 208.941406 C 113.066406 208.660156 111.445312 208.566406 109.917969 208.628906 C 110.761719 204.824219 111.039062 197.6875 111.351562 187.496094 C 111.601562 179.082031 111.914062 168.671875 112.972656 166.394531 C 113.066406 167.082031 113.535156 167.644531 114.25 167.707031 C 116.527344 168.640625 125.9375 183.195312 130.457031 192.828125 C 131.890625 195.882812 132.953125 197.875 133.980469 199.777344 C 135.757812 203.113281 137.316406 205.980469 140.339844 213.738281 C 140.585938 214.363281 141.179688 214.738281 141.804688 214.738281 C 141.988281 214.738281 142.175781 214.707031 142.363281 214.644531 C 143.175781 214.332031 143.546875 213.429688 143.238281 212.617188 C 140.121094 204.671875 138.5625 201.742188 136.722656 198.3125 C 135.726562 196.472656 134.664062 194.507812 133.261719 191.515625 C 131.515625 187.839844 123.007812 172.101562 117.585938 166.582031 C 122.480469 169.324219 129.773438 176.621094 135.507812 182.292969 C 140.867188 187.621094 145.511719 192.234375 148.628906 193.980469 C 147.632812 195.941406 147.570312 198.65625 147.570312 198.6875 C 147.570312 198.902344 147.632812 199.121094 147.695312 199.308594 C 147.101562 199.527344 146.664062 200.089844 146.664062 200.742188 C 146.664062 201.335938 146.507812 201.988281 146.351562 202.675781 C 146.136719 203.609375 145.917969 204.546875 145.980469 205.605469 C 146.042969 206.445312 146.726562 207.070312 147.539062 207.070312 C 147.570312 207.070312 147.601562 207.070312 147.632812 207.070312 C 148.503906 207.007812 149.160156 206.289062 149.097656 205.417969 C 149.066406 204.824219 149.222656 204.109375 149.375 203.359375 C 149.5625 202.582031 149.75 201.679688 149.75 200.742188 C 149.75 200.523438 149.6875 200.308594 149.59375 200.121094 C 150.1875 199.902344 150.625 199.339844 150.625 198.65625 C 150.625 197.378906 151.089844 195.476562 151.496094 195.039062 C 151.589844 195.007812 151.683594 194.914062 151.746094 194.882812 C 155.765625 195.226562 162.46875 193.949219 172.128906 191.921875 C 180.792969 190.113281 191.828125 187.777344 197.875 188.339844 C 190.765625 188.960938 181.011719 193.824219 174.25 197.253906 C 172.785156 198 171.441406 198.65625 170.351562 199.183594 C 161.8125 203.238281 153.894531 209.34375 148.691406 213.585938 C 148.035156 214.113281 147.910156 215.113281 148.472656 215.765625 C 148.785156 216.140625 149.222656 216.328125 149.6875 216.328125 C 150.03125 216.328125 150.375 216.203125 150.6875 215.984375 C 155.765625 211.839844 163.464844 205.886719 171.722656 201.988281 C 172.847656 201.460938 174.1875 200.773438 175.683594 200.027344 C 182.351562 196.660156 193.230469 191.238281 199.554688 191.425781 C 199.058594 191.703125 198.714844 192.234375 198.746094 192.859375 C 198.808594 193.886719 198.339844 194.851562 197.8125 195.941406 C 197.65625 196.253906 197.5 196.597656 197.375 196.910156 C 197.28125 197.128906 197.25 197.378906 197.28125 197.625 C 196.6875 197.65625 196.128906 198 195.910156 198.5625 C 195.785156 198.84375 195.535156 199.089844 195.222656 199.246094 C 194.445312 199.589844 194.101562 200.523438 194.445312 201.304688 C 194.695312 201.863281 195.285156 202.207031 195.878906 202.207031 C 196.097656 202.207031 196.316406 202.175781 196.535156 202.050781 C 196.59375 202.019531 196.65625 201.957031 196.71875 201.925781 C 194.914062 204.265625 192.855469 206.664062 190.984375 208.910156 C 185.875 214.925781 181.011719 220.691406 179.265625 225.492188 C 179.046875 225.367188 178.800781 225.242188 178.582031 225.085938 C 178.050781 224.773438 177.519531 224.460938 177.023438 224.242188 C 176.523438 224.023438 176.023438 223.839844 175.527344 223.683594 C 174.777344 223.433594 174.15625 223.183594 173.5625 222.777344 C 172.847656 222.28125 171.878906 222.46875 171.382812 223.152344 C 170.882812 223.871094 171.070312 224.835938 171.753906 225.335938 C 172.691406 225.988281 173.59375 226.300781 174.464844 226.613281 C 174.871094 226.769531 175.277344 226.894531 175.714844 227.078125 C 176.085938 227.265625 176.523438 227.515625 176.929688 227.765625 C 177.457031 228.078125 177.988281 228.390625 178.550781 228.636719 C 178.519531 229.449219 178.644531 230.195312 178.890625 230.914062 C 179.546875 232.691406 182.101562 236.523438 185.6875 241.851562 C 192.449219 252.078125 205.820312 272.085938 205.199219 280.035156 Z M 205.199219 280.035156 " fill-opacity="1" fill-rule="nonzero"/></g><path fill="#ffffff" d="M 140.585938 222.3125 C 134.945312 227.109375 107.300781 292.34375 111.101562 305.714844 C 111.289062 306.402344 111.914062 306.835938 112.597656 306.835938 C 112.753906 306.835938 112.878906 306.808594 113.035156 306.777344 C 113.875 306.527344 114.34375 305.683594 114.125 304.84375 C 110.976562 293.714844 136.941406 229.511719 142.644531 224.679688 C 143.300781 224.117188 143.390625 223.121094 142.832031 222.46875 C 142.238281 221.8125 141.242188 221.75 140.585938 222.3125 Z M 140.585938 222.3125 " fill-opacity="1" fill-rule="nonzero"/><path fill="#ffffff" d="M 120.265625 209.84375 C 118.894531 209.5 117.367188 209.5 116.089844 209.5 L 115.871094 211.058594 L 116.089844 212.617188 C 117.304688 212.617188 118.519531 212.617188 119.519531 212.867188 C 119.644531 212.898438 119.765625 212.898438 119.890625 212.898438 C 120.578125 212.898438 121.230469 212.429688 121.386719 211.714844 C 121.605469 210.902344 121.109375 210.0625 120.265625 209.84375 Z M 120.265625 209.84375 " fill-opacity="1" fill-rule="nonzero"/><path fill="#ffffff" d="M 134.664062 213.054688 C 133.386719 212.742188 132.203125 212.367188 131.019531 211.964844 C 128.554688 211.152344 126.03125 210.34375 123.101562 210.3125 C 122.261719 210.3125 121.542969 210.996094 121.542969 211.871094 C 121.542969 212.742188 122.230469 213.429688 123.101562 213.429688 C 125.566406 213.429688 127.746094 214.144531 130.082031 214.925781 C 131.363281 215.328125 132.640625 215.765625 133.980469 216.078125 C 134.105469 216.109375 134.230469 216.109375 134.355469 216.109375 C 135.070312 216.109375 135.695312 215.609375 135.882812 214.925781 C 136.035156 214.082031 135.507812 213.242188 134.664062 213.054688 Z M 134.664062 213.054688 " fill-opacity="1" fill-rule="nonzero"/><path fill="#ffffff" d="M 146.914062 207.539062 C 146.074219 207.320312 145.230469 207.785156 145.011719 208.628906 C 144.917969 208.941406 144.734375 209.28125 144.421875 209.8125 C 143.984375 210.5625 144.296875 211.433594 145.011719 211.871094 C 145.230469 211.996094 145.480469 212.058594 145.761719 212.058594 C 146.320312 212.058594 146.882812 211.746094 147.195312 211.246094 C 147.507812 210.714844 147.816406 210.15625 148.035156 209.4375 C 148.253906 208.628906 147.753906 207.785156 146.914062 207.539062 Z M 146.914062 207.539062 " fill-opacity="1" fill-rule="nonzero"/><path fill="#ffffff" d="M 120.140625 236.992188 C 120.296875 237.023438 120.453125 237.054688 120.578125 237.054688 C 121.230469 237.054688 121.824219 236.648438 122.011719 235.960938 C 122.261719 235.527344 123.539062 234.25 123.851562 234.09375 C 124.691406 233.875 125.191406 233.03125 124.972656 232.191406 C 124.753906 231.351562 123.914062 230.851562 123.070312 231.070312 C 121.855469 231.382812 119.363281 233.8125 119.050781 234.996094 C 118.832031 235.839844 119.300781 236.773438 120.140625 236.992188 Z M 120.140625 236.992188 " fill-opacity="1" fill-rule="nonzero"/><path fill="#ffffff" d="M 170.726562 221.0625 C 170.070312 220.660156 169.355469 220.597656 168.792969 220.597656 C 168.636719 220.597656 168.480469 220.597656 168.328125 220.566406 C 167.484375 220.410156 166.644531 220.941406 166.488281 221.75 C 166.300781 222.589844 166.832031 223.433594 167.671875 223.589844 C 167.953125 223.652344 168.296875 223.683594 168.636719 223.683594 C 168.792969 223.683594 169.011719 223.714844 169.105469 223.714844 C 169.355469 223.839844 169.605469 223.902344 169.855469 223.902344 C 170.351562 223.902344 170.851562 223.652344 171.164062 223.183594 C 171.660156 222.5 171.441406 221.53125 170.726562 221.0625 Z M 170.726562 221.0625 " fill-opacity="1" fill-rule="nonzero"/><path fill="#ffffff" d="M 164.648438 219.164062 C 163.871094 219.195312 163.058594 219.039062 162.15625 218.851562 C 161.34375 218.695312 160.472656 218.507812 159.570312 218.476562 C 158.726562 218.445312 157.980469 219.132812 157.949219 219.972656 C 157.917969 220.847656 158.601562 221.5625 159.445312 221.59375 C 160.128906 221.625 160.816406 221.75 161.5 221.90625 C 162.40625 222.09375 163.339844 222.28125 164.335938 222.28125 C 164.492188 222.28125 164.648438 222.28125 164.804688 222.28125 C 165.675781 222.21875 166.300781 221.46875 166.269531 220.628906 C 166.238281 219.785156 165.492188 219.101562 164.648438 219.164062 Z M 164.648438 219.164062 " fill-opacity="1" fill-rule="nonzero"/><path fill="#ffffff" d="M 148.066406 235.746094 L 148.066406 241.105469 C 148.066406 241.976562 148.753906 242.664062 149.625 242.664062 C 150.5 242.664062 151.183594 241.976562 151.183594 241.105469 L 151.183594 235.746094 C 151.183594 234.871094 150.5 234.1875 149.625 234.1875 C 148.753906 234.1875 148.066406 234.902344 148.066406 235.746094 Z M 148.066406 235.746094 " fill-opacity="1" fill-rule="nonzero"/><path fill="#ffffff" d="M 120.515625 186.375 C 121.699219 185.191406 121.046875 183.226562 119.765625 181.917969 C 118.300781 180.390625 116.742188 180.546875 115.871094 181.355469 C 115.15625 182.011719 114.34375 183.257812 114.34375 184.535156 C 114.34375 185.285156 114.65625 185.96875 115.1875 186.4375 C 115.871094 187.03125 116.835938 187.339844 117.804688 187.339844 C 118.832031 187.371094 119.859375 187.03125 120.515625 186.375 Z M 117.554688 184.253906 C 117.554688 184.222656 117.585938 184.191406 117.585938 184.160156 C 117.617188 184.191406 117.648438 184.222656 117.679688 184.253906 C 117.617188 184.253906 117.585938 184.253906 117.554688 184.253906 Z M 117.554688 184.253906 " fill-opacity="1" fill-rule="nonzero"/><path fill="#ffffff" d="M 120.828125 195.882812 C 121.261719 197.316406 123.007812 197.96875 123.539062 198.125 C 124.097656 198.3125 124.628906 198.375 125.097656 198.375 C 125.84375 198.375 126.53125 198.1875 127.058594 197.78125 C 128.554688 196.628906 129.085938 195.070312 128.464844 193.605469 C 127.808594 192.078125 125.9375 191.019531 124.285156 191.238281 C 124.160156 191.269531 124.007812 191.300781 123.882812 191.363281 C 120.609375 192.734375 120.421875 194.570312 120.828125 195.882812 Z M 124.847656 194.324219 C 125.160156 194.386719 125.566406 194.664062 125.59375 194.820312 C 125.59375 194.851562 125.503906 195.070312 125.253906 195.257812 C 124.910156 195.351562 123.945312 195.039062 123.789062 195.039062 C 123.789062 195.007812 123.945312 194.726562 124.847656 194.324219 Z M 124.847656 194.324219 " fill-opacity="1" fill-rule="nonzero"/><path fill="#ffffff" d="M 139.464844 190.019531 C 139.371094 190.019531 139.277344 190.050781 139.183594 190.082031 C 137.066406 190.769531 136.441406 192.453125 136.785156 193.855469 C 137.160156 195.414062 138.78125 196.878906 140.929688 196.878906 C 141.179688 196.878906 141.429688 196.847656 141.679688 196.816406 C 141.957031 196.785156 142.238281 196.660156 142.457031 196.472656 C 143.703125 195.414062 143.734375 193.480469 143.144531 192.140625 C 142.457031 190.613281 141.054688 189.804688 139.464844 190.019531 Z M 140.089844 193.480469 C 139.902344 193.355469 139.839844 193.230469 139.808594 193.230469 C 139.839844 193.199219 139.902344 193.167969 139.996094 193.136719 C 140.121094 193.136719 140.152344 193.199219 140.214844 193.261719 C 140.308594 193.386719 140.339844 193.511719 140.367188 193.667969 C 140.246094 193.605469 140.152344 193.542969 140.089844 193.480469 Z M 140.089844 193.480469 " fill-opacity="1" fill-rule="nonzero"/><path fill="#ffffff" d="M 115.777344 214.363281 C 115.371094 214.394531 115.125 214.363281 114.875 214.425781 C 113.128906 214.363281 112.316406 215.019531 111.945312 215.640625 C 111.476562 216.390625 111.539062 217.324219 112.039062 218.132812 C 112.691406 219.164062 114.25 220.097656 116.339844 220.097656 C 116.621094 220.097656 116.929688 220.097656 117.242188 220.035156 C 118.175781 219.910156 120.140625 219.691406 120.859375 218.226562 C 121.078125 217.761719 121.355469 216.824219 120.640625 215.640625 C 119.734375 214.113281 117.554688 214.269531 115.777344 214.363281 Z M 115.777344 214.363281 " fill-opacity="1" fill-rule="nonzero"/><path fill="#ffffff" d="M 107.675781 228.421875 C 107.582031 228.449219 107.488281 228.449219 107.425781 228.511719 C 105.429688 229.324219 104.214844 231.007812 104.621094 232.472656 C 104.746094 233.0625 105.304688 234.25 107.425781 234.25 C 107.707031 234.25 108.015625 234.21875 108.359375 234.1875 C 109.949219 233.96875 111.195312 233.0625 111.664062 231.847656 C 112.007812 230.945312 111.851562 229.976562 111.257812 229.292969 C 110.820312 228.792969 109.761719 227.984375 107.675781 228.421875 Z M 107.675781 228.421875 " fill-opacity="1" fill-rule="nonzero"/><path fill="#ffffff" d="M 94.304688 231.691406 C 94.210938 231.660156 94.117188 231.660156 93.992188 231.660156 L 93.367188 231.660156 C 91.746094 231.597656 89.941406 231.597656 88.257812 233.4375 C 87.726562 234.03125 87.726562 234.902344 88.226562 235.496094 C 89.441406 236.898438 90.75 237.332031 91.964844 237.332031 C 92.464844 237.332031 92.933594 237.273438 93.398438 237.148438 C 95.050781 236.429688 96.171875 234.871094 96.015625 233.53125 C 95.925781 232.628906 95.238281 231.878906 94.304688 231.691406 Z M 94.304688 231.691406 " fill-opacity="1" fill-rule="nonzero"/><path fill="#ffffff" d="M 186.125 208.503906 C 186.402344 208.503906 186.714844 208.472656 187.058594 208.441406 C 187.183594 208.410156 187.339844 208.378906 187.464844 208.316406 C 188.398438 207.910156 189.832031 206.789062 188.992188 203.984375 C 188.898438 203.390625 188.460938 202.894531 187.835938 202.738281 C 186.277344 202.332031 184.691406 202.863281 183.753906 204.109375 C 183.007812 205.105469 182.882812 206.289062 183.441406 207.195312 C 183.753906 207.695312 184.503906 208.503906 186.125 208.503906 Z M 186.125 208.503906 " fill-opacity="1" fill-rule="nonzero"/><path fill="#ffffff" d="M 160.035156 201.148438 C 160.128906 201.148438 160.222656 201.148438 160.316406 201.148438 C 161.625 201.148438 162.839844 200.214844 163.277344 198.84375 C 163.683594 197.5625 163.214844 196.285156 162.0625 195.632812 C 161.8125 195.476562 161.5 195.414062 161.21875 195.445312 C 158.914062 195.539062 157.449219 196.097656 156.855469 197.128906 C 156.453125 197.8125 156.453125 198.59375 156.792969 199.277344 C 157.605469 200.898438 160.003906 201.148438 160.035156 201.148438 Z M 160.035156 201.148438 " fill-opacity="1" fill-rule="nonzero"/><path fill="#ffffff" d="M 141.460938 243.164062 C 139.371094 242.726562 137.316406 244.378906 136.378906 246.246094 C 135.570312 247.835938 135.726562 249.425781 136.753906 250.363281 C 136.972656 250.582031 137.253906 250.703125 137.5625 250.765625 C 137.71875 250.796875 137.875 250.796875 138.03125 250.796875 C 139.183594 250.796875 140.742188 250.207031 141.804688 248.992188 C 142.925781 247.710938 143.207031 246 142.644531 244.222656 C 142.457031 243.660156 142.019531 243.253906 141.460938 243.164062 Z M 141.460938 243.164062 " fill-opacity="1" fill-rule="nonzero"/><path fill="#ffffff" d="M 172.285156 253.324219 C 172.90625 253.324219 173.5 253.167969 174.03125 252.761719 C 175.683594 251.515625 175.714844 250.207031 175.589844 249.519531 C 175.339844 248.210938 174.09375 247.121094 172.378906 246.683594 C 170.632812 246.214844 169.105469 246.558594 168.265625 247.558594 C 168.171875 247.652344 168.109375 247.773438 168.046875 247.898438 C 167.359375 249.300781 167.890625 250.953125 169.355469 252.167969 C 170.164062 252.824219 171.257812 253.324219 172.285156 253.324219 Z M 172.535156 249.894531 C 172.535156 249.894531 172.472656 250.019531 172.285156 250.175781 C 172.191406 250.175781 171.785156 250.113281 171.351562 249.769531 C 171.257812 249.707031 171.195312 249.644531 171.132812 249.582031 C 171.691406 249.644531 172.378906 249.832031 172.535156 249.894531 Z M 172.535156 249.894531 " fill-opacity="1" fill-rule="nonzero"/><path fill="#ffffff" d="M 178.953125 231.660156 C 177.894531 229.511719 175.464844 229.511719 174.558594 229.511719 L 174.527344 231.070312 L 174.527344 229.511719 C 173.84375 229.511719 173.21875 229.976562 173.03125 230.632812 C 172.691406 231.753906 172.9375 232.96875 173.71875 234.0625 C 174.621094 235.339844 176.210938 236.367188 177.394531 236.398438 C 177.425781 236.398438 177.457031 236.398438 177.457031 236.398438 C 177.738281 236.398438 177.988281 236.335938 178.238281 236.179688 C 179.140625 235.652344 180.449219 234.464844 179.109375 232.222656 C 179.078125 232.035156 179.046875 231.847656 178.953125 231.660156 Z M 178.953125 231.660156 " fill-opacity="1" fill-rule="nonzero"/><path fill="#ffffff" d="M 119.828125 253.914062 C 120.078125 253.976562 120.359375 254.007812 120.609375 254.007812 C 121.824219 254.007812 123.039062 253.355469 123.882812 252.167969 C 124.878906 250.765625 125.410156 248.523438 124.253906 246.714844 C 124.007812 246.277344 123.539062 246.03125 123.039062 246 C 121.824219 245.875 120.734375 246.308594 119.953125 247.152344 C 118.148438 249.085938 118.582031 252.511719 118.613281 252.636719 C 118.738281 253.261719 119.207031 253.757812 119.828125 253.914062 Z M 119.828125 253.914062 " fill-opacity="1" fill-rule="nonzero"/><path fill="#ffffff" d="M 185.28125 264.230469 C 185.8125 264.230469 186.308594 264.136719 186.808594 263.949219 C 187.558594 263.671875 187.960938 262.828125 187.742188 262.050781 C 187.058594 259.804688 184.160156 256.128906 181.417969 256.84375 C 181.136719 256.90625 180.855469 257.0625 180.667969 257.28125 C 179.546875 258.496094 179.484375 260.148438 180.480469 261.613281 C 181.417969 263.078125 183.378906 264.230469 185.28125 264.230469 Z M 185.28125 264.230469 " fill-opacity="1" fill-rule="nonzero"/><path fill="#ffffff" d="M 187.992188 276.605469 C 188.585938 277.011719 189.238281 277.476562 189.863281 277.851562 C 190.113281 278.007812 190.394531 278.101562 190.671875 278.101562 C 190.984375 278.101562 191.265625 277.976562 191.546875 277.789062 C 191.453125 278.445312 191.765625 279.097656 192.386719 279.410156 C 192.949219 279.691406 193.417969 280.035156 193.882812 280.4375 C 194.851562 281.1875 196.003906 282.121094 197.96875 282.121094 C 198.152344 282.121094 198.339844 282.121094 198.558594 282.089844 C 199.433594 281.996094 200.054688 281.25 199.960938 280.40625 C 199.898438 279.535156 199.121094 278.972656 198.277344 279.003906 C 197.21875 279.097656 196.75 278.726562 195.816406 278.007812 C 195.253906 277.570312 194.601562 277.042969 193.757812 276.636719 C 193.261719 276.386719 192.667969 276.480469 192.230469 276.761719 C 192.324219 276.167969 192.046875 275.546875 191.515625 275.234375 C 190.953125 274.890625 190.363281 274.484375 189.832031 274.113281 C 189.148438 273.613281 188.148438 273.769531 187.652344 274.453125 C 187.152344 275.109375 187.308594 276.105469 187.992188 276.605469 Z M 187.992188 276.605469 " fill-opacity="1" fill-rule="nonzero"/><path fill="#ffffff" d="M 185.9375 271.554688 C 185.625 271.554688 185.375 271.398438 185.21875 271.246094 C 184.597656 270.652344 183.597656 270.652344 183.007812 271.277344 C 182.414062 271.898438 182.414062 272.894531 183.039062 273.488281 C 183.816406 274.238281 184.84375 274.671875 185.90625 274.671875 C 186.746094 274.671875 187.464844 273.988281 187.464844 273.113281 C 187.464844 272.242188 186.808594 271.554688 185.9375 271.554688 Z M 185.9375 271.554688 " fill-opacity="1" fill-rule="nonzero"/><path fill="#ffffff" d="M 122.199219 294.027344 C 121.261719 294.964844 120.796875 296.023438 120.359375 296.925781 C 120.171875 297.363281 119.953125 297.800781 119.703125 298.203125 C 119.425781 298.671875 118.894531 299.265625 118.394531 299.824219 C 117.585938 300.730469 116.804688 301.570312 116.496094 302.503906 C 116.214844 303.316406 116.652344 304.21875 117.460938 304.5 C 117.617188 304.5625 117.804688 304.59375 117.960938 304.59375 C 118.613281 304.59375 119.207031 304.1875 119.425781 303.535156 C 119.550781 303.222656 120.234375 302.441406 120.703125 301.945312 C 121.324219 301.257812 121.949219 300.574219 122.386719 299.855469 C 122.695312 299.328125 122.945312 298.796875 123.195312 298.265625 C 123.570312 297.488281 123.882812 296.800781 124.410156 296.273438 C 125.035156 295.648438 125.035156 294.683594 124.410156 294.058594 C 123.789062 293.40625 122.820312 293.40625 122.199219 294.027344 Z M 122.199219 294.027344 " fill-opacity="1" fill-rule="nonzero"/><path fill="#ffffff" d="M 125.066406 288.699219 C 124.285156 289.132812 123.664062 289.882812 123.445312 290.660156 C 123.195312 291.472656 123.757812 292.28125 124.566406 292.53125 C 124.691406 292.5625 124.847656 292.59375 124.972656 292.59375 C 125.6875 292.59375 126.375 292.09375 126.5625 291.410156 C 127.308594 291.003906 127.589844 290.039062 127.183594 289.289062 C 126.78125 288.542969 125.84375 288.292969 125.066406 288.699219 Z M 125.066406 288.699219 " fill-opacity="1" fill-rule="nonzero"/><path fill="#ffffff" d="M 129.023438 283.242188 C 128.214844 282.964844 127.308594 283.367188 127.03125 284.179688 C 126.84375 284.707031 126.59375 285.457031 126.25 285.988281 C 125.8125 286.734375 126.0625 287.667969 126.8125 288.105469 C 127.058594 288.261719 127.339844 288.324219 127.589844 288.324219 C 128.121094 288.324219 128.648438 288.042969 128.929688 287.546875 C 129.367188 286.796875 129.648438 286.019531 129.960938 285.207031 C 130.269531 284.398438 129.835938 283.523438 129.023438 283.242188 Z M 129.023438 283.242188 " fill-opacity="1" fill-rule="nonzero"/><path fill="#ffffff" d="M 92.464844 239.421875 C 91.839844 239.109375 91.15625 239.015625 90.4375 239.140625 C 89.597656 239.296875 89.066406 240.109375 89.222656 240.949219 C 89.378906 241.789062 90.21875 242.351562 91.0625 242.226562 C 91.28125 242.351562 91.53125 242.382812 91.746094 242.382812 C 92.308594 242.382812 92.871094 242.070312 93.148438 241.542969 C 93.554688 240.761719 93.242188 239.796875 92.464844 239.421875 Z M 92.464844 239.421875 " fill-opacity="1" fill-rule="nonzero"/><path fill="#ffffff" d="M 113.78125 174.84375 C 113.8125 174.84375 113.8125 174.84375 113.84375 174.84375 C 114.71875 174.8125 115.371094 174.09375 115.339844 173.222656 C 115.308594 172.132812 115.339844 171.289062 115.464844 170.542969 C 115.621094 169.699219 115.03125 168.890625 114.1875 168.734375 C 113.347656 168.609375 112.535156 169.171875 112.378906 170.011719 C 112.226562 170.945312 112.164062 172.007812 112.226562 173.285156 C 112.257812 174.15625 112.941406 174.84375 113.78125 174.84375 Z M 113.78125 174.84375 " fill-opacity="1" fill-rule="nonzero"/><path fill="#ffffff" d="M 115.496094 178.644531 L 115.496094 176.867188 C 115.496094 175.996094 114.8125 175.308594 113.9375 175.308594 C 113.066406 175.308594 112.378906 175.996094 112.378906 176.867188 L 112.378906 178.644531 C 112.378906 179.519531 113.066406 180.203125 113.9375 180.203125 C 114.8125 180.203125 115.496094 179.488281 115.496094 178.644531 Z M 115.496094 178.644531 " fill-opacity="1" fill-rule="nonzero"/><g clip-path="url(#0a514e9107)"><path fill="#ffffff" d="M 282.183594 121.296875 C 274.265625 117.617188 265.289062 113.441406 263.855469 110.886719 C 262.484375 108.488281 261.425781 101.101562 260.363281 93.960938 C 258.121094 78.722656 256.1875 67.75 251.605469 65.320312 C 250.328125 64.632812 248.894531 64.632812 247.492188 65.351562 C 244.90625 66.628906 240.074219 72.550781 232.40625 82.179688 C 227.109375 88.851562 219.847656 97.984375 217.820312 98.699219 C 215.609375 99.480469 209.03125 97.171875 202.640625 94.960938 C 190.300781 90.628906 176.335938 85.734375 171.132812 93.152344 C 166.957031 99.136719 175.777344 109.765625 184.285156 120.082031 C 187.992188 124.570312 191.484375 128.808594 192.636719 131.332031 C 192.667969 131.425781 192.699219 131.582031 192.699219 131.707031 C 192.699219 131.738281 192.699219 131.738281 192.699219 131.769531 C 192.699219 134.761719 184.097656 145.046875 178.300781 151.964844 C 165.242188 167.550781 157.605469 177.367188 161.4375 182.105469 C 168.699219 191.113281 186.558594 181.636719 202.332031 173.316406 C 210.277344 169.109375 219.253906 164.339844 221.59375 165.460938 C 221.625 165.460938 221.65625 165.492188 221.6875 165.492188 C 221.746094 165.523438 221.746094 165.585938 221.808594 165.648438 C 221.839844 165.679688 221.933594 165.679688 222.027344 165.710938 C 227.546875 168.890625 231.722656 181.386719 235.429688 192.484375 C 239.980469 206.136719 244.3125 219.101562 251.761719 219.101562 C 252.230469 219.101562 252.699219 219.039062 253.164062 218.945312 C 261.765625 217.136719 263.605469 195.910156 264.820312 172.410156 C 265.132812 166.707031 265.382812 161.753906 265.820312 160.320312 C 266.972656 156.484375 277.257812 154.117188 286.359375 152.027344 C 297.859375 149.378906 308.707031 146.886719 309.015625 140.558594 C 309.296875 134.386719 298.578125 128.933594 282.183594 121.296875 Z M 285.671875 148.972656 C 277.972656 150.75 270.617188 152.433594 266.347656 155.238281 C 266.253906 154.988281 266.128906 154.738281 266.039062 154.519531 C 265.789062 153.960938 265.570312 153.398438 265.289062 152.933594 C 265.007812 152.433594 264.726562 151.996094 264.449219 151.589844 C 264.011719 150.9375 263.636719 150.375 263.417969 149.691406 C 263.136719 148.878906 262.265625 148.445312 261.457031 148.691406 C 260.644531 148.972656 260.207031 149.847656 260.457031 150.65625 C 260.832031 151.746094 261.363281 152.527344 261.859375 153.304688 C 262.109375 153.679688 262.359375 154.023438 262.578125 154.429688 C 262.796875 154.800781 262.953125 155.238281 263.167969 155.707031 C 263.417969 156.265625 263.667969 156.828125 263.949219 157.359375 C 263.449219 157.980469 263.078125 158.667969 262.859375 159.382812 C 262.328125 161.191406 262.078125 165.804688 261.734375 172.226562 C 261.082031 184.597656 259.804688 209.003906 254.410156 214.675781 C 258.898438 204.609375 257.683594 190.675781 256.625 179.300781 L 256.3125 175.808594 C 255.191406 162.875 251.792969 148.289062 246.777344 134.761719 C 246.464844 133.949219 245.589844 133.546875 244.78125 133.855469 C 243.96875 134.167969 243.566406 135.042969 243.878906 135.851562 C 248.800781 149.128906 252.136719 163.433594 253.226562 176.089844 L 253.539062 179.613281 C 254.566406 190.644531 255.96875 205.792969 250.890625 215.082031 C 250.765625 215.296875 250.734375 215.515625 250.703125 215.703125 C 245.996094 213.894531 241.976562 202.113281 238.421875 191.515625 C 234.652344 180.234375 230.753906 168.609375 224.988281 163.964844 L 229.320312 158.167969 C 229.664062 157.730469 229.695312 157.171875 229.507812 156.671875 C 229.632812 156.765625 229.757812 156.828125 229.914062 156.859375 C 230.039062 156.890625 230.164062 156.921875 230.289062 156.921875 C 230.972656 156.921875 231.628906 156.453125 231.785156 155.738281 C 231.816406 155.613281 232.003906 155.394531 232.15625 155.175781 L 232.40625 154.863281 C 232.90625 154.179688 232.6875 153.304688 232.003906 152.808594 C 231.316406 152.277344 230.257812 152.558594 229.726562 153.242188 C 229.382812 153.679688 228.980469 154.210938 228.792969 154.957031 C 228.699219 155.269531 228.761719 155.613281 228.886719 155.894531 C 228.199219 155.488281 227.328125 155.613281 226.828125 156.265625 L 222.246094 162.375 C 221.777344 162.25 221.3125 162.15625 220.78125 162.15625 C 216.886719 162.15625 210.558594 165.367188 200.867188 170.511719 C 186.902344 177.898438 169.511719 187.089844 163.839844 180.109375 C 161.34375 177.023438 172.96875 163.125 180.667969 153.929688 C 189.425781 143.457031 194.976562 136.632812 195.691406 132.390625 C 198.03125 130.988281 200.117188 130.492188 202.175781 130.863281 C 202.984375 131.019531 203.734375 130.523438 203.953125 129.742188 C 204.324219 130.367188 205.105469 130.648438 205.789062 130.398438 C 205.914062 130.398438 206.070312 130.460938 206.195312 130.492188 C 206.507812 130.554688 206.820312 130.617188 207.097656 130.648438 C 207.191406 130.648438 207.316406 130.648438 207.410156 130.648438 C 208.253906 130.648438 208.96875 130.492188 209.59375 130.304688 C 210.433594 130.085938 210.902344 129.214844 210.683594 128.371094 C 210.464844 127.53125 209.59375 127.0625 208.75 127.28125 C 208.097656 127.46875 207.660156 127.53125 207.253906 127.5 C 207.128906 127.5 206.972656 127.46875 206.820312 127.4375 C 206.164062 127.3125 205.292969 127.125 204.480469 127.59375 C 204.105469 127.8125 203.859375 128.152344 203.765625 128.527344 C 203.546875 128.183594 203.171875 127.902344 202.734375 127.8125 C 200.210938 127.34375 197.65625 127.8125 195.007812 129.183594 C 193.480469 126.316406 190.300781 122.480469 186.652344 118.054688 C 185.03125 116.121094 183.226562 113.910156 181.449219 111.632812 C 181.574219 111.726562 181.730469 111.820312 181.882812 111.882812 C 182.164062 111.976562 182.382812 112.289062 182.539062 112.851562 C 182.726562 113.535156 183.347656 113.972656 184.035156 113.972656 C 184.191406 113.972656 184.316406 113.941406 184.472656 113.910156 C 185.3125 113.660156 185.78125 112.789062 185.53125 111.976562 C 184.9375 110.015625 183.753906 109.234375 182.851562 108.953125 C 182.570312 108.859375 182.289062 108.890625 182.039062 108.921875 C 182.601562 108.332031 182.632812 107.425781 182.070312 106.804688 C 180.109375 104.621094 179.109375 103.53125 178.921875 100.820312 C 178.859375 99.945312 178.113281 99.324219 177.273438 99.355469 C 176.398438 99.417969 175.777344 100.164062 175.808594 101.007812 C 176.054688 104.808594 177.675781 106.617188 179.765625 108.890625 C 180.078125 109.234375 180.480469 109.390625 180.917969 109.390625 C 181.011719 109.390625 181.105469 109.359375 181.199219 109.328125 C 181.042969 109.484375 180.917969 109.671875 180.855469 109.890625 C 180.730469 110.261719 180.761719 110.636719 180.917969 110.980469 C 176.804688 105.652344 173.0625 100.070312 173.09375 96.644531 C 173.34375 97.078125 173.78125 97.421875 174.3125 97.453125 C 181.449219 98.046875 227.140625 120.984375 236.460938 127.933594 C 236.738281 128.152344 237.050781 128.246094 237.394531 128.246094 C 237.863281 128.246094 238.328125 128.027344 238.640625 127.625 C 239.171875 126.9375 239.015625 125.972656 238.328125 125.441406 C 229.414062 118.773438 182.726562 95.023438 174.589844 94.335938 C 174.375 94.335938 174.1875 94.367188 174 94.429688 C 178.238281 89.660156 191.109375 94.148438 201.550781 97.796875 C 209.3125 100.507812 214.515625 102.253906 217.726562 101.785156 C 219.035156 102.378906 221 103.875 221.75 104.839844 C 222.058594 105.214844 222.496094 105.433594 222.964844 105.433594 C 223.304688 105.433594 223.648438 105.308594 223.929688 105.089844 C 224.617188 104.558594 224.710938 103.5625 224.179688 102.90625 C 223.492188 102.035156 222.214844 100.976562 220.96875 100.101562 C 223.929688 97.578125 228.417969 92 234.777344 84.019531 C 240.011719 77.445312 246.496094 69.308594 248.707031 68.09375 C 248.367188 68.6875 248.425781 69.402344 248.957031 69.902344 C 250.234375 72.019531 249.019531 89.289062 246.871094 99.699219 C 246.183594 103 245.839844 105.246094 245.527344 107.363281 C 244.96875 111.105469 244.46875 114.316406 242.257812 122.355469 C 242.039062 123.199219 242.503906 124.039062 243.347656 124.289062 C 243.472656 124.320312 243.628906 124.351562 243.753906 124.351562 C 244.4375 124.351562 245.0625 123.882812 245.25 123.199219 C 247.523438 114.96875 248.023438 111.664062 248.582031 107.832031 C 248.894531 105.773438 249.238281 103.5625 249.890625 100.320312 C 250.703125 96.332031 253.320312 78.628906 252.261719 70.960938 C 254.503906 76.074219 256.03125 86.296875 257.1875 94.273438 C 258.277344 101.753906 259.242188 108.238281 260.675781 111.480469 C 258.714844 112.445312 257.03125 114.59375 257 114.625 C 256.875 114.8125 256.78125 115 256.71875 115.21875 C 256.09375 115.03125 255.441406 115.21875 255.035156 115.75 C 254.691406 116.214844 254.164062 116.652344 253.632812 117.121094 C 252.914062 117.742188 252.167969 118.367188 251.605469 119.238281 C 251.140625 119.957031 251.328125 120.921875 252.042969 121.390625 C 252.292969 121.578125 252.605469 121.640625 252.882812 121.640625 C 253.382812 121.640625 253.882812 121.390625 254.195312 120.921875 C 254.535156 120.425781 255.066406 119.957031 255.660156 119.457031 C 256.28125 118.929688 256.96875 118.335938 257.527344 117.585938 C 257.683594 117.402344 257.746094 117.152344 257.808594 116.933594 C 257.964844 116.996094 258.089844 117.089844 258.246094 117.089844 C 258.714844 117.089844 259.179688 116.871094 259.492188 116.464844 C 260.269531 115.4375 261.765625 114.191406 262.359375 114.097656 C 262.453125 114.128906 262.578125 114.097656 262.671875 114.128906 C 265.695312 116.839844 271.835938 119.800781 280.78125 123.945312 C 288.757812 127.65625 298.917969 132.390625 303.46875 136.445312 C 297.390625 132.703125 286.703125 130.804688 279.253906 129.492188 C 277.632812 129.214844 276.167969 128.933594 274.953125 128.714844 C 265.664062 126.84375 255.691406 127 248.988281 127.28125 C 248.117188 127.3125 247.460938 128.027344 247.492188 128.902344 C 247.523438 129.773438 248.335938 130.460938 249.113281 130.398438 C 255.660156 130.117188 265.382812 129.960938 274.328125 131.769531 C 275.542969 132.019531 277.039062 132.269531 278.691406 132.578125 C 286.078125 133.886719 298.203125 136.039062 303.125 140.027344 C 302.503906 139.871094 301.816406 140.089844 301.445312 140.652344 C 300.851562 141.523438 299.917969 142.023438 298.855469 142.585938 C 298.546875 142.738281 298.234375 142.925781 297.921875 143.082031 C 297.703125 143.207031 297.546875 143.394531 297.421875 143.582031 C 296.925781 143.238281 296.300781 143.207031 295.738281 143.519531 C 295.492188 143.675781 295.117188 143.707031 294.773438 143.644531 C 293.933594 143.457031 293.089844 143.988281 292.933594 144.828125 C 292.746094 145.667969 293.277344 146.511719 294.121094 146.667969 C 294.183594 146.667969 294.242188 146.667969 294.304688 146.699219 C 291.53125 147.632812 288.507812 148.320312 285.671875 148.972656 Z M 303.375 143.457031 C 303.65625 143.175781 303.90625 142.894531 304.15625 142.523438 C 304.46875 142.054688 304.46875 141.492188 304.25 141.027344 C 304.527344 141.242188 304.839844 141.367188 305.152344 141.367188 C 305.308594 141.367188 305.496094 141.335938 305.652344 141.273438 C 305.277344 142.054688 304.46875 142.800781 303.375 143.457031 Z M 303.375 143.457031 " fill-opacity="1" fill-rule="nonzero"/></g><path fill="#ffffff" d="M 237.425781 129.585938 C 230.039062 130.054688 168.824219 165.710938 163.839844 178.675781 C 163.527344 179.488281 163.933594 180.390625 164.742188 180.703125 C 164.929688 180.765625 165.117188 180.796875 165.304688 180.796875 C 165.925781 180.796875 166.519531 180.421875 166.769531 179.796875 C 170.914062 169.015625 230.164062 133.171875 237.644531 132.671875 C 238.515625 132.609375 239.140625 131.863281 239.109375 131.019531 C 239.015625 130.179688 238.234375 129.554688 237.425781 129.585938 Z M 237.425781 129.585938 " fill-opacity="1" fill-rule="nonzero"/><path fill="#ffffff" d="M 228.605469 107.457031 C 227.699219 106.367188 226.515625 105.464844 225.457031 104.652344 L 224.367188 105.773438 L 223.585938 107.148438 C 224.554688 107.863281 225.519531 108.613281 226.203125 109.421875 C 226.515625 109.796875 226.953125 109.984375 227.421875 109.984375 C 227.761719 109.984375 228.105469 109.859375 228.417969 109.640625 C 229.042969 109.109375 229.132812 108.113281 228.605469 107.457031 Z M 228.605469 107.457031 " fill-opacity="1" fill-rule="nonzero"/><path fill="#ffffff" d="M 235.929688 115.59375 C 234.433594 113.472656 232.90625 111.292969 230.570312 109.515625 C 229.882812 108.984375 228.917969 109.140625 228.386719 109.828125 C 227.855469 110.511719 228.011719 111.480469 228.699219 112.007812 C 230.660156 113.472656 232.003906 115.375 233.40625 117.371094 C 234.183594 118.460938 234.964844 119.550781 235.835938 120.609375 C 236.148438 120.984375 236.582031 121.171875 237.019531 121.171875 C 237.363281 121.171875 237.738281 121.046875 238.015625 120.796875 C 238.671875 120.238281 238.765625 119.269531 238.203125 118.617188 C 237.394531 117.648438 236.644531 116.621094 235.929688 115.59375 Z M 235.929688 115.59375 " fill-opacity="1" fill-rule="nonzero"/><path fill="#ffffff" d="M 248.675781 124.851562 C 248.894531 124.851562 249.113281 124.820312 249.332031 124.726562 C 249.859375 124.507812 250.484375 124.226562 251.078125 123.789062 C 251.761719 123.261719 251.886719 122.292969 251.355469 121.609375 C 250.828125 120.921875 249.859375 120.796875 249.175781 121.328125 C 248.925781 121.546875 248.582031 121.671875 247.992188 121.921875 C 247.210938 122.261719 246.898438 123.136719 247.242188 123.945312 C 247.429688 124.507812 248.054688 124.851562 248.675781 124.851562 Z M 248.675781 124.851562 " fill-opacity="1" fill-rule="nonzero"/><path fill="#ffffff" d="M 213.457031 129.710938 C 213.769531 129.710938 214.082031 129.617188 214.359375 129.398438 C 214.828125 129.183594 216.605469 128.933594 216.949219 128.996094 C 217.757812 129.339844 218.664062 128.933594 218.972656 128.152344 C 219.316406 127.375 218.910156 126.4375 218.132812 126.128906 C 216.949219 125.660156 213.519531 126.097656 212.554688 126.875 C 211.867188 127.40625 211.679688 128.433594 212.242188 129.121094 C 212.554688 129.492188 212.988281 129.710938 213.457031 129.710938 Z M 213.457031 129.710938 " fill-opacity="1" fill-rule="nonzero"/><path fill="#ffffff" d="M 261.019531 145.109375 C 260.894531 145.015625 260.769531 144.921875 260.675781 144.796875 C 260.117188 144.144531 259.117188 144.082031 258.464844 144.640625 C 257.808594 145.203125 257.746094 146.199219 258.308594 146.855469 C 258.496094 147.074219 258.742188 147.289062 258.992188 147.507812 C 259.117188 147.601562 259.273438 147.757812 259.367188 147.820312 C 259.617188 148.382812 260.175781 148.753906 260.800781 148.753906 C 260.988281 148.753906 261.144531 148.722656 261.332031 148.660156 C 262.140625 148.382812 262.546875 147.476562 262.265625 146.667969 C 262.015625 145.949219 261.457031 145.484375 261.019531 145.109375 Z M 261.019531 145.109375 " fill-opacity="1" fill-rule="nonzero"/><path fill="#ffffff" d="M 258.992188 143.644531 C 259.460938 142.925781 259.273438 141.960938 258.527344 141.492188 C 257.902344 141.089844 257.308594 140.433594 256.71875 139.777344 C 256.15625 139.15625 255.597656 138.5 254.878906 137.941406 C 254.195312 137.410156 253.226562 137.503906 252.699219 138.191406 C 252.167969 138.875 252.261719 139.839844 252.945312 140.371094 C 253.476562 140.808594 253.945312 141.335938 254.410156 141.835938 C 255.128906 142.648438 255.84375 143.457031 256.84375 144.113281 C 257.09375 144.265625 257.402344 144.359375 257.683594 144.359375 C 258.183594 144.359375 258.679688 144.113281 258.992188 143.644531 Z M 258.992188 143.644531 " fill-opacity="1" fill-rule="nonzero"/><path fill="#ffffff" d="M 235.335938 144.859375 L 232.125 149.160156 L 234.621094 151.03125 L 237.832031 146.730469 C 238.359375 146.042969 238.203125 145.078125 237.519531 144.546875 C 236.832031 144.019531 235.867188 144.171875 235.335938 144.859375 Z M 235.335938 144.859375 " fill-opacity="1" fill-rule="nonzero"/><path fill="#ffffff" d="M 242.441406 88.820312 C 242.566406 88.820312 242.722656 88.820312 242.847656 88.789062 C 244.5 88.539062 245.15625 86.574219 244.90625 84.769531 C 244.65625 82.679688 243.316406 81.839844 242.101562 81.996094 C 241.132812 82.085938 239.730469 82.585938 238.984375 83.644531 C 238.546875 84.269531 238.359375 84.984375 238.515625 85.671875 C 238.859375 87.386719 240.730469 88.820312 242.441406 88.820312 Z M 241.851562 85.265625 C 241.851562 85.296875 241.851562 85.359375 241.851562 85.390625 C 241.820312 85.359375 241.789062 85.328125 241.757812 85.296875 C 241.789062 85.296875 241.820312 85.296875 241.851562 85.265625 Z M 241.851562 85.265625 " fill-opacity="1" fill-rule="nonzero"/><path fill="#ffffff" d="M 241.257812 101.847656 C 243.128906 101.816406 244.5 100.882812 244.90625 99.355469 C 245.3125 97.734375 244.46875 95.769531 243.003906 94.960938 C 242.878906 94.898438 242.753906 94.835938 242.597656 94.804688 C 239.140625 93.960938 237.863281 95.335938 237.425781 96.613281 C 236.925781 98.015625 237.925781 99.605469 238.265625 100.039062 C 239.109375 101.226562 240.199219 101.878906 241.257812 101.878906 C 241.226562 101.847656 241.257812 101.847656 241.257812 101.847656 Z M 240.292969 97.671875 C 240.324219 97.671875 240.386719 97.640625 240.636719 97.640625 C 240.824219 97.640625 241.132812 97.671875 241.601562 97.765625 C 241.820312 97.984375 241.976562 98.449219 241.882812 98.605469 C 241.851562 98.636719 241.664062 98.730469 241.351562 98.761719 C 241.007812 98.636719 240.417969 97.796875 240.292969 97.671875 Z M 240.292969 97.671875 " fill-opacity="1" fill-rule="nonzero"/><path fill="#ffffff" d="M 253.539062 109.828125 C 253.757812 109.953125 254.007812 110.015625 254.253906 110.015625 C 254.285156 110.015625 254.316406 110.015625 254.347656 110.015625 C 255.96875 109.921875 257.1875 108.394531 257.496094 106.960938 C 257.871094 105.371094 257.214844 103.875 255.8125 103.09375 C 255.722656 103.0625 255.660156 103 255.566406 102.96875 C 253.476562 102.253906 251.949219 103.21875 251.386719 104.527344 C 250.703125 106.148438 251.292969 108.644531 253.539062 109.828125 Z M 254.410156 105.867188 C 254.503906 105.929688 254.503906 105.992188 254.503906 106.117188 C 254.503906 106.273438 254.441406 106.398438 254.410156 106.523438 C 254.347656 106.398438 254.316406 106.304688 254.285156 106.210938 C 254.226562 105.992188 254.253906 105.835938 254.226562 105.835938 C 254.253906 105.835938 254.316406 105.835938 254.410156 105.867188 Z M 254.410156 105.867188 " fill-opacity="1" fill-rule="nonzero"/><path fill="#ffffff" d="M 222.277344 108.394531 C 222.058594 108.238281 221.871094 108.144531 221.746094 108.050781 C 221.6875 107.988281 221.59375 107.957031 221.53125 107.925781 C 220.191406 106.804688 219.128906 106.867188 218.476562 107.148438 C 217.664062 107.457031 217.136719 108.238281 217.074219 109.203125 C 216.980469 110.605469 217.882812 112.570312 220.097656 113.847656 C 220.6875 114.191406 221.777344 114.8125 222.902344 114.8125 C 223.304688 114.8125 223.679688 114.75 224.054688 114.535156 C 224.523438 114.316406 225.300781 113.722656 225.425781 112.320312 C 225.644531 110.542969 223.773438 109.359375 222.277344 108.394531 Z M 222.277344 108.394531 " fill-opacity="1" fill-rule="nonzero"/><path fill="#ffffff" d="M 207.378906 114.78125 C 207.285156 114.75 207.222656 114.71875 207.128906 114.6875 C 205.042969 114.128906 203.078125 114.78125 202.484375 116.183594 C 202.238281 116.808594 201.925781 118.398438 204.480469 119.800781 C 205.230469 120.207031 205.976562 120.394531 206.726562 120.394531 C 207.378906 120.394531 208.003906 120.238281 208.53125 119.894531 C 209.34375 119.363281 209.8125 118.523438 209.75 117.585938 C 209.6875 116.933594 209.3125 115.6875 207.378906 114.78125 Z M 207.378906 114.78125 " fill-opacity="1" fill-rule="nonzero"/><path fill="#ffffff" d="M 194.476562 109.203125 L 193.976562 108.828125 C 192.699219 107.832031 191.265625 106.710938 188.835938 107.207031 C 188.054688 107.363281 187.527344 108.050781 187.589844 108.828125 C 187.773438 111.417969 189.238281 112.632812 190.734375 113.253906 C 191.109375 113.347656 191.515625 113.378906 191.890625 113.378906 C 193.230469 113.378906 194.476562 112.820312 195.007812 111.914062 C 195.472656 111.105469 195.378906 110.109375 194.726562 109.390625 C 194.632812 109.328125 194.570312 109.234375 194.476562 109.203125 Z M 194.476562 109.203125 " fill-opacity="1" fill-rule="nonzero"/><path fill="#ffffff" d="M 282.867188 140.871094 C 281.683594 141.210938 280.871094 142.085938 280.78125 143.175781 C 280.71875 143.894531 280.871094 145.234375 282.929688 146.324219 C 283.054688 146.386719 283.179688 146.449219 283.304688 146.480469 C 283.523438 146.542969 283.773438 146.574219 284.050781 146.574219 C 285.050781 146.574219 286.328125 146.074219 287.105469 143.925781 C 287.386719 143.394531 287.324219 142.707031 286.949219 142.242188 C 285.984375 140.964844 284.363281 140.433594 282.867188 140.871094 Z M 282.867188 140.871094 " fill-opacity="1" fill-rule="nonzero"/><path fill="#ffffff" d="M 265.632812 124.320312 C 266.160156 124.820312 266.878906 125.066406 267.625 125.066406 C 268.3125 125.066406 269 124.851562 269.589844 124.445312 C 270.679688 123.664062 271.054688 122.355469 270.523438 121.140625 C 270.402344 120.859375 270.214844 120.640625 269.964844 120.484375 C 268.0625 119.175781 266.535156 118.773438 265.476562 119.207031 C 264.757812 119.519531 264.261719 120.144531 264.136719 120.890625 C 263.855469 122.636719 265.632812 124.289062 265.632812 124.320312 Z M 265.632812 124.320312 " fill-opacity="1" fill-rule="nonzero"/><path fill="#ffffff" d="M 219.722656 146.230469 C 218.132812 147.011719 217.289062 148.382812 217.539062 149.753906 C 217.601562 150.0625 217.726562 150.34375 217.945312 150.5625 C 218.601562 151.25 219.910156 151.808594 221.3125 151.808594 C 221.6875 151.808594 222.027344 151.777344 222.402344 151.683594 C 224.054688 151.3125 225.300781 150.125 225.925781 148.382812 C 226.113281 147.851562 225.988281 147.257812 225.613281 146.824219 C 224.179688 145.234375 221.5625 145.328125 219.722656 146.230469 Z M 219.722656 146.230469 " fill-opacity="1" fill-rule="nonzero"/><path fill="#ffffff" d="M 242.535156 170.730469 C 242.941406 172.378906 244.15625 174.03125 245.933594 174.03125 C 247.992188 174.03125 248.800781 173.003906 249.113281 172.347656 C 249.707031 171.164062 249.363281 169.542969 248.242188 168.140625 C 247.117188 166.738281 245.714844 166.085938 244.40625 166.363281 C 244.28125 166.394531 244.15625 166.425781 244.03125 166.488281 C 242.691406 167.207031 242.101562 168.890625 242.535156 170.730469 Z M 246.464844 170.851562 C 246.464844 170.851562 246.339844 170.914062 246.089844 170.945312 C 245.996094 170.914062 245.746094 170.605469 245.589844 170.074219 C 245.558594 169.980469 245.527344 169.855469 245.527344 169.792969 C 245.933594 170.136719 246.371094 170.699219 246.464844 170.851562 Z M 246.464844 170.851562 " fill-opacity="1" fill-rule="nonzero"/><path fill="#ffffff" d="M 259.304688 156.953125 L 260.238281 155.707031 C 259.679688 155.300781 258.929688 155.269531 258.371094 155.707031 C 257.433594 156.390625 256.90625 157.511719 256.875 158.855469 C 256.84375 160.410156 257.496094 162.1875 258.402344 162.9375 C 258.621094 163.125 258.929688 163.25 259.210938 163.28125 C 259.367188 163.3125 259.523438 163.3125 259.679688 163.3125 C 260.707031 163.3125 262.046875 162.875 262.265625 160.628906 C 262.359375 160.472656 262.453125 160.289062 262.484375 160.070312 C 262.921875 157.730469 260.988281 156.265625 260.269531 155.707031 Z M 259.304688 156.953125 " fill-opacity="1" fill-rule="nonzero"/><path fill="#ffffff" d="M 204.699219 143.738281 C 205.167969 143.738281 205.664062 143.675781 206.164062 143.519531 C 207.816406 142.988281 209.5625 141.523438 209.75 139.375 C 209.78125 138.875 209.59375 138.40625 209.21875 138.066406 C 208.285156 137.253906 207.222656 136.941406 206.070312 137.128906 C 203.453125 137.597656 201.769531 140.589844 201.707031 140.714844 C 201.394531 141.273438 201.457031 141.960938 201.863281 142.460938 C 202.546875 143.300781 203.578125 143.738281 204.699219 143.738281 Z M 204.699219 143.738281 " fill-opacity="1" fill-rule="nonzero"/><path fill="#ffffff" d="M 248.488281 181.605469 C 246.867188 181.917969 245.808594 183.195312 245.746094 184.972656 C 245.652344 187.183594 247.117188 189.992188 249.457031 190.613281 C 249.582031 190.644531 249.738281 190.675781 249.859375 190.675781 C 250.515625 190.675781 251.109375 190.269531 251.324219 189.648438 C 252.136719 187.464844 251.980469 182.789062 249.363281 181.699219 C 249.082031 181.605469 248.800781 181.574219 248.488281 181.605469 Z M 248.488281 181.605469 " fill-opacity="1" fill-rule="nonzero"/><path fill="#ffffff" d="M 249.644531 209.5625 C 248.707031 209.003906 248.582031 208.410156 248.273438 207.289062 C 248.085938 206.601562 247.867188 205.792969 247.429688 204.949219 C 247.179688 204.453125 246.683594 204.171875 246.121094 204.140625 C 246.527344 203.703125 246.683594 203.082031 246.464844 202.488281 C 246.214844 201.863281 245.964844 201.179688 245.777344 200.554688 C 245.527344 199.746094 244.65625 199.277344 243.816406 199.527344 C 243.003906 199.777344 242.535156 200.648438 242.785156 201.492188 C 243.003906 202.175781 243.253906 202.925781 243.535156 203.609375 C 243.753906 204.203125 244.3125 204.546875 244.90625 204.578125 C 244.4375 205.042969 244.28125 205.761719 244.625 206.382812 C 244.90625 206.945312 245.0625 207.507812 245.21875 208.097656 C 245.558594 209.40625 245.996094 211.027344 247.960938 212.242188 C 248.210938 212.398438 248.488281 212.460938 248.769531 212.460938 C 249.300781 212.460938 249.800781 212.210938 250.109375 211.714844 C 250.609375 210.964844 250.390625 210 249.644531 209.5625 Z M 249.644531 209.5625 " fill-opacity="1" fill-rule="nonzero"/><path fill="#ffffff" d="M 244.53125 198.375 C 245.0625 197.6875 244.90625 196.722656 244.21875 196.191406 C 244 196.035156 243.878906 195.820312 243.847656 195.539062 C 243.722656 194.695312 242.910156 194.105469 242.070312 194.230469 C 241.226562 194.355469 240.636719 195.164062 240.761719 196.003906 C 240.917969 197.066406 241.476562 198.03125 242.351562 198.65625 C 242.628906 198.871094 242.972656 198.964844 243.285156 198.964844 C 243.753906 198.996094 244.21875 198.78125 244.53125 198.375 Z M 244.53125 198.375 " fill-opacity="1" fill-rule="nonzero"/><path fill="#ffffff" d="M 179.734375 175.996094 C 178.425781 176.183594 177.394531 176.742188 176.492188 177.210938 C 176.085938 177.429688 175.652344 177.679688 175.214844 177.867188 C 174.714844 178.085938 173.9375 178.207031 173.1875 178.363281 C 172.003906 178.582031 170.851562 178.800781 170.070312 179.363281 C 169.355469 179.828125 169.167969 180.828125 169.667969 181.511719 C 169.976562 181.949219 170.445312 182.199219 170.976562 182.199219 C 171.289062 182.199219 171.566406 182.105469 171.847656 181.917969 C 172.128906 181.730469 173.15625 181.542969 173.8125 181.386719 C 174.714844 181.199219 175.621094 181.046875 176.398438 180.734375 C 176.960938 180.515625 177.488281 180.234375 178.019531 179.953125 C 178.800781 179.550781 179.453125 179.175781 180.203125 179.082031 C 181.042969 178.957031 181.636719 178.175781 181.511719 177.304688 C 181.355469 176.464844 180.574219 175.871094 179.734375 175.996094 Z M 179.734375 175.996094 " fill-opacity="1" fill-rule="nonzero"/><path fill="#ffffff" d="M 185.21875 173.472656 C 184.316406 173.347656 183.410156 173.566406 182.726562 174.0625 C 182.039062 174.59375 182.007812 175.558594 182.507812 176.246094 C 182.820312 176.652344 183.316406 176.867188 183.816406 176.867188 C 184.160156 176.867188 184.503906 176.773438 184.78125 176.558594 C 185.625 176.652344 186.433594 176.089844 186.527344 175.214844 C 186.652344 174.375 186.0625 173.597656 185.21875 173.472656 Z M 185.21875 173.472656 " fill-opacity="1" fill-rule="nonzero"/><path fill="#ffffff" d="M 189.488281 171.039062 C 189.023438 171.351562 188.367188 171.789062 187.773438 172.039062 C 186.996094 172.378906 186.621094 173.285156 186.933594 174.0625 C 187.183594 174.65625 187.773438 175.03125 188.367188 175.03125 C 188.554688 175.03125 188.773438 175 188.960938 174.90625 C 189.738281 174.5625 190.457031 174.125 191.171875 173.628906 C 191.890625 173.160156 192.078125 172.195312 191.609375 171.476562 C 191.171875 170.761719 190.207031 170.542969 189.488281 171.039062 Z M 189.488281 171.039062 " fill-opacity="1" fill-rule="nonzero"/><path fill="#ffffff" d="M 187.183594 113.039062 C 186.402344 112.632812 185.5 112.976562 185.125 113.722656 C 184.722656 114.503906 185.0625 115.4375 185.84375 115.84375 C 186.125 116.402344 186.652344 116.714844 187.246094 116.714844 C 187.464844 116.714844 187.710938 116.652344 187.929688 116.558594 C 188.710938 116.183594 189.023438 115.25 188.648438 114.472656 C 188.304688 113.878906 187.804688 113.378906 187.183594 113.039062 Z M 187.183594 113.039062 " fill-opacity="1" fill-rule="nonzero"/><path fill="#ffffff" d="M 245.3125 75.855469 C 245.808594 75.855469 246.277344 75.636719 246.589844 75.199219 C 246.992188 74.636719 247.585938 73.796875 248.304688 73.144531 C 248.925781 72.550781 248.957031 71.554688 248.363281 70.929688 C 247.773438 70.304688 246.777344 70.273438 246.152344 70.867188 C 245.25 71.707031 244.53125 72.707031 244.03125 73.390625 C 243.535156 74.109375 243.722656 75.074219 244.40625 75.574219 C 244.6875 75.761719 245 75.855469 245.3125 75.855469 Z M 245.3125 75.855469 " fill-opacity="1" fill-rule="nonzero"/><path fill="#ffffff" d="M 242.226562 80.21875 C 242.691406 80.21875 243.160156 80 243.472656 79.59375 L 244.53125 78.160156 C 245.0625 77.476562 244.90625 76.507812 244.21875 75.980469 C 243.535156 75.449219 242.566406 75.605469 242.039062 76.289062 L 240.976562 77.722656 C 240.449219 78.410156 240.605469 79.375 241.289062 79.90625 C 241.570312 80.125 241.914062 80.21875 242.226562 80.21875 Z M 242.226562 80.21875 " fill-opacity="1" fill-rule="nonzero"/></svg>