<svg xmlns="http://www.w3.org/2000/svg" xmlns:xlink="http://www.w3.org/1999/xlink" width="500" zoomAndPan="magnify" viewBox="0 0 375 374.999991" height="500" preserveAspectRatio="xMidYMid meet" version="1.0"><defs><clipPath id="fa4f30c99a"><path d="M 187.5 0 C 83.945312 0 0 83.945312 0 187.5 C 0 291.054688 83.945312 375 187.5 375 C 291.054688 375 375 291.054688 375 187.5 C 375 83.945312 291.054688 0 187.5 0 Z M 187.5 0 " clip-rule="nonzero"/></clipPath><clipPath id="e454169d40"><path d="M 43 105.144531 L 340 105.144531 L 340 291.894531 L 43 291.894531 Z M 43 105.144531 " clip-rule="nonzero"/></clipPath></defs><g clip-path="url(#fa4f30c99a)"><rect x="-37.5" width="450" fill="#a2c36e" y="-37.499999" height="449.999989" fill-opacity="1"/></g><path fill="#fffff9" d="M 92.5 124 C 91.558594 127.535156 88 129.660156 84.554688 128.75 C 81.113281 127.839844 79.089844 124.234375 80.03125 120.703125 C 80.976562 117.167969 93.445312 120.464844 92.5 124 " fill-opacity="1" fill-rule="nonzero"/><path fill="#fffff9" d="M 92.550781 176.320312 C 94.953125 176.320312 96.902344 174.367188 96.902344 171.96875 C 96.902344 169.566406 94.953125 167.613281 92.550781 167.613281 C 90.148438 167.613281 88.199219 169.566406 88.199219 171.96875 C 88.199219 174.367188 90.148438 176.320312 92.550781 176.320312 Z M 92.550781 162.757812 C 97.628906 162.757812 101.757812 166.890625 101.757812 171.96875 C 101.757812 177.046875 97.628906 181.175781 92.550781 181.175781 C 87.472656 181.175781 83.34375 177.046875 83.34375 171.96875 C 83.34375 166.890625 87.472656 162.757812 92.550781 162.757812 " fill-opacity="1" fill-rule="nonzero"/><g clip-path="url(#e454169d40)"><path fill="#fffff9" d="M 65.136719 142.507812 C 65.953125 143.042969 66.738281 143.5625 67.480469 144.054688 C 75.5 149.402344 77.730469 163.15625 79.523438 174.207031 C 80.222656 178.523438 80.882812 182.597656 81.761719 185.207031 C 82.789062 188.265625 86.230469 191.933594 90.582031 192.710938 C 91.847656 192.933594 93.0625 192.886719 94.226562 192.574219 C 94.234375 192.570312 94.246094 192.570312 94.253906 192.566406 C 96.21875 192.03125 98.035156 190.734375 99.679688 188.683594 C 110.449219 175.261719 105.332031 145.953125 105.277344 145.65625 C 105.039062 144.339844 105.917969 143.078125 107.234375 142.839844 C 108.554688 142.609375 109.816406 143.476562 110.054688 144.796875 C 110.289062 146.085938 115.617188 176.570312 103.464844 191.722656 C 101.949219 193.609375 100.234375 195.042969 98.398438 196.042969 C 103.882812 203.910156 116.296875 220.417969 126.074219 224.011719 C 126.179688 224.046875 126.285156 224.078125 126.386719 224.113281 C 125.414062 223.324219 124.4375 222.539062 123.480469 221.769531 C 112.496094 212.941406 106.761719 203.460938 106.898438 194.351562 C 106.953125 190.578125 109.039062 187.359375 112.613281 185.519531 C 117.171875 183.171875 123.25 183.539062 127.402344 186.410156 C 131.398438 189.167969 133.242188 193.769531 132.601562 199.363281 C 132.039062 204.261719 139.675781 209.945312 145.808594 214.515625 C 147.238281 215.578125 148.632812 216.617188 149.910156 217.625 C 155.046875 221.679688 158.859375 224.691406 159.445312 228.546875 C 165.882812 228.617188 172.273438 228.445312 178.15625 228.28125 C 180.882812 228.207031 183.527344 228.132812 186.054688 228.085938 C 187.609375 228.054688 189.0625 228.015625 190.472656 227.972656 C 188.558594 220.386719 198.539062 210.847656 208.953125 205.03125 C 217.371094 200.335938 224.710938 203.6875 228.25 209.09375 C 230.71875 212.867188 230.746094 216.792969 228.3125 218.640625 C 227.6875 219.113281 226.878906 219.648438 226.007812 220.214844 C 225.53125 220.527344 224.835938 220.980469 224.117188 221.484375 C 226.816406 221.351562 229.757812 221.214844 232.914062 221.070312 C 251.683594 220.207031 277.386719 219.019531 303.585938 216.050781 C 324.667969 213.660156 333.375 203.203125 334.492188 194.21875 C 335.707031 184.46875 328.878906 175.300781 317.097656 170.859375 C 288.785156 160.183594 257.671875 156.160156 241.140625 155.199219 C 246.441406 156.664062 252.929688 158.28125 259.601562 159.949219 C 281.160156 165.332031 305.59375 171.433594 313.503906 177.484375 C 316.945312 180.121094 318.398438 183.566406 317.488281 186.933594 C 316.359375 191.113281 311.769531 194.40625 306.070312 195.125 C 271.472656 199.480469 241.589844 203.246094 224.191406 196.726562 C 191.359375 184.433594 168.464844 173.425781 152.652344 164.4375 C 152.617188 164.417969 152.582031 164.402344 152.550781 164.378906 C 132.273438 152.84375 123.667969 144.648438 120.695312 141.339844 C 117.964844 138.308594 115.757812 134.824219 113.421875 131.132812 C 107.613281 121.964844 101.609375 112.480469 87.039062 110.769531 C 81.789062 110.152344 77.386719 112.550781 73.5 114.671875 C 71.773438 115.609375 70.144531 116.5 68.597656 117.015625 C 67.351562 117.429688 65.769531 117.789062 63.9375 118.207031 C 59.449219 119.226562 53.066406 120.683594 49.933594 123.746094 L 72.109375 132.515625 C 73.355469 133.007812 73.96875 134.417969 73.476562 135.667969 C 73.097656 136.621094 72.1875 137.203125 71.21875 137.203125 C 70.921875 137.203125 70.621094 137.144531 70.324219 137.03125 L 48.664062 128.464844 C 50.648438 132.976562 59.785156 138.988281 65.136719 142.507812 Z M 138.96875 228.375 C 140.484375 229.785156 140.773438 231.238281 140.75 232.203125 C 140.691406 234.425781 139.003906 236.082031 137.746094 237.132812 L 137.496094 237.339844 C 134.113281 240.164062 129.898438 243.683594 126.734375 245.4375 C 124.117188 246.890625 120.992188 246.761719 118.597656 246.449219 C 119.070312 248.394531 119.613281 250.597656 119.820312 251.425781 C 120.089844 252.492188 120.316406 253.507812 120.519531 254.425781 C 120.617188 254.863281 120.726562 255.34375 120.828125 255.796875 C 120.953125 255.695312 121.078125 255.597656 121.203125 255.496094 C 123.214844 253.886719 125.71875 251.886719 127.433594 250.851562 L 128.878906 249.992188 C 132.976562 247.566406 142.566406 241.890625 148.457031 237.039062 C 152.65625 233.578125 154.691406 231.132812 154.675781 229.566406 C 154.65625 227.550781 150.890625 224.582031 146.90625 221.4375 C 145.660156 220.453125 144.300781 219.445312 142.910156 218.40625 C 135.40625 212.820312 126.898438 206.484375 127.777344 198.808594 C 128.214844 195.027344 127.128906 192.121094 124.644531 190.402344 C 123.136719 189.359375 121.183594 188.824219 119.230469 188.824219 C 117.6875 188.824219 116.152344 189.15625 114.835938 189.835938 C 113.449219 190.546875 111.789062 191.921875 111.75 194.421875 C 111.636719 201.984375 116.746094 210.132812 126.519531 217.988281 C 131.058594 221.632812 136.140625 225.746094 138.96875 228.375 Z M 195.21875 227.035156 C 196.566406 230.847656 205.714844 234.230469 212.394531 236.699219 C 214.03125 237.304688 215.613281 237.890625 217.054688 238.460938 C 219.617188 239.476562 222.671875 241.007812 223.527344 243.847656 C 224.0625 245.625 223.617188 247.558594 222.199219 249.59375 C 220.671875 251.789062 219.519531 253.242188 217.449219 255.101562 C 215.996094 256.40625 214.566406 257.484375 213.140625 258.351562 C 215.398438 260.164062 219.117188 262.757812 221.457031 264.074219 C 222.292969 259.835938 222.898438 257.566406 223.917969 256.371094 C 224.871094 255.253906 225.96875 254.039062 227.148438 252.738281 C 230.304688 249.25 233.882812 245.296875 236.820312 240.808594 C 236.894531 240.695312 236.910156 240.648438 236.867188 240.492188 C 236.164062 237.734375 227.5 233.082031 223.332031 230.847656 C 221.941406 230.101562 220.679688 229.425781 219.671875 228.839844 C 217.550781 227.605469 216.449219 226.050781 216.398438 224.214844 C 216.308594 220.75 220.050781 218.308594 223.355469 216.152344 C 224.0625 215.6875 224.726562 215.257812 225.257812 214.863281 C 225.414062 214.164062 224.714844 211.761719 222.515625 209.828125 C 220.746094 208.273438 216.933594 206.132812 211.320312 209.269531 C 201.183594 214.925781 193.8125 223.0625 195.21875 227.035156 Z M 43.890625 124.222656 C 43.914062 124.144531 43.929688 124.070312 43.957031 123.992188 C 43.960938 123.984375 43.96875 123.976562 43.96875 123.96875 C 43.972656 123.960938 43.972656 123.953125 43.976562 123.945312 C 46.855469 117.105469 56.109375 115.003906 62.863281 113.472656 C 64.570312 113.085938 66.042969 112.75 67.0625 112.410156 C 68.199219 112.03125 69.578125 111.28125 71.175781 110.410156 C 75.246094 108.191406 80.820312 105.144531 87.605469 105.945312 C 98.789062 107.261719 105.59375 112.523438 110.699219 118.726562 C 114.359375 118.0625 124.34375 116.589844 135.683594 117.8125 C 137.015625 117.953125 137.980469 119.152344 137.835938 120.484375 C 137.691406 121.816406 136.5 122.777344 135.164062 122.636719 C 126.453125 121.699219 118.464844 122.480469 113.996094 123.121094 C 115.234375 124.929688 116.390625 126.753906 117.523438 128.539062 C 118.785156 130.527344 120.011719 132.441406 121.28125 134.234375 C 124.851562 133.257812 133.730469 131.144531 143.898438 131.144531 C 145.238281 131.144531 146.328125 132.230469 146.328125 133.574219 C 146.328125 134.914062 145.238281 136 143.898438 136 C 135.945312 136 128.695312 137.414062 124.59375 138.40625 C 127.378906 141.433594 131.589844 145.023438 137.296875 149.054688 C 140.339844 147.679688 148.136719 144.628906 156.902344 144.921875 C 158.242188 144.964844 159.292969 146.085938 159.25 147.421875 C 159.207031 148.765625 158.078125 149.828125 156.75 149.769531 C 150.984375 149.59375 145.601562 151.082031 142.136719 152.34375 C 145.628906 154.632812 149.550781 157.035156 153.9375 159.546875 C 156.820312 158.199219 164.21875 155.234375 173.007812 155.515625 C 174.347656 155.558594 175.398438 156.679688 175.355469 158.019531 C 175.3125 159.359375 174.164062 160.429688 172.851562 160.367188 C 167.527344 160.203125 162.691406 161.433594 159.394531 162.585938 C 163.347656 164.742188 167.621094 166.960938 172.21875 169.234375 C 175.09375 167.882812 182.757812 164.753906 191.652344 165.050781 C 192.992188 165.09375 194.046875 166.214844 194.003906 167.554688 C 193.960938 168.894531 192.828125 169.941406 191.5 169.902344 C 186.273438 169.730469 181.46875 170.9375 178.109375 172.097656 C 181.273438 173.609375 184.589844 175.140625 188.039062 176.6875 C 190.699219 175.753906 198.15625 173.511719 206.804688 174.167969 C 208.140625 174.269531 209.140625 175.433594 209.039062 176.769531 C 208.941406 178.105469 207.785156 179.113281 206.4375 179.007812 C 202.179688 178.6875 198.203125 179.175781 195.105469 179.808594 C 200.070312 181.957031 205.308594 184.136719 210.8125 186.339844 C 213.167969 185.230469 219.0625 183.097656 227.734375 184.359375 C 229.0625 184.550781 229.980469 185.78125 229.789062 187.109375 C 229.597656 188.433594 228.371094 189.347656 227.039062 189.160156 C 223.441406 188.640625 220.429688 188.804688 218.078125 189.199219 C 220.636719 190.191406 223.226562 191.183594 225.894531 192.183594 C 242.175781 198.277344 271.503906 194.585938 305.464844 190.308594 C 309.597656 189.789062 312.285156 187.582031 312.800781 185.667969 C 313.285156 183.882812 311.84375 182.328125 310.554688 181.339844 C 303.441406 175.898438 278.480469 169.667969 258.425781 164.65625 C 244.246094 161.117188 232.003906 158.058594 227.558594 155.71875 C 225.902344 154.847656 225.671875 153.28125 226.160156 152.195312 C 226.804688 150.761719 227.691406 149.890625 237.070312 150.15625 C 243.046875 150.320312 250.648438 150.957031 258.476562 151.945312 C 270.96875 153.527344 295.421875 157.496094 318.808594 166.316406 C 332.761719 171.578125 340.808594 182.765625 339.308594 194.816406 C 337.960938 205.636719 328.015625 218.164062 304.132812 220.871094 C 277.769531 223.863281 251.972656 225.050781 233.136719 225.917969 C 230.277344 226.050781 227.597656 226.175781 225.113281 226.296875 C 225.285156 226.386719 225.453125 226.476562 225.625 226.570312 C 233.964844 231.042969 240.433594 234.820312 241.570312 239.292969 C 241.945312 240.757812 241.707031 242.203125 240.882812 243.464844 C 237.738281 248.273438 233.859375 252.554688 230.746094 255.996094 C 230.53125 256.230469 230.339844 256.445312 230.136719 256.671875 C 233.746094 257.863281 238.074219 260.269531 239.933594 265.144531 C 240.414062 266.398438 239.785156 267.800781 238.53125 268.277344 C 238.246094 268.386719 237.957031 268.4375 237.667969 268.4375 C 236.691406 268.4375 235.769531 267.84375 235.398438 266.875 C 233.980469 263.160156 229.96875 261.546875 227.152344 260.863281 C 226.726562 262.394531 226.289062 264.644531 226.089844 265.6875 C 225.929688 266.519531 225.792969 267.21875 225.6875 267.664062 C 225.652344 267.808594 225.574219 267.925781 225.519531 268.058594 C 224.28125 273.167969 223.082031 280.640625 223.746094 289.015625 C 223.855469 290.351562 222.855469 291.519531 221.519531 291.628906 C 221.453125 291.632812 221.390625 291.636719 221.324219 291.636719 C 220.070312 291.636719 219.007812 290.671875 218.910156 289.402344 C 218.273438 281.398438 219.21875 274.179688 220.367188 268.828125 C 219.761719 268.535156 219.09375 268.179688 218.382812 267.78125 C 215.011719 273.394531 212.265625 282.980469 211.644531 288.3125 C 211.5 289.550781 210.453125 290.460938 209.238281 290.460938 C 209.144531 290.460938 209.046875 290.453125 208.953125 290.441406 C 207.621094 290.289062 206.667969 289.082031 206.824219 287.75 C 207.484375 282.078125 210.402344 271.675781 214.265625 265.222656 C 213.835938 264.929688 213.414062 264.636719 212.996094 264.339844 C 210.007812 267.546875 203.789062 273.808594 197.636719 277.359375 L 198.6875 278.722656 C 199.507812 279.785156 199.3125 281.308594 198.25 282.128906 C 197.808594 282.46875 197.285156 282.632812 196.769531 282.632812 C 196.042969 282.632812 195.324219 282.308594 194.847656 281.6875 L 192.003906 278.003906 C 191.546875 277.410156 191.390625 276.640625 191.578125 275.914062 C 191.765625 275.1875 192.277344 274.589844 192.96875 274.292969 C 198.894531 271.742188 205.859375 264.835938 209.175781 261.308594 C 208.953125 261.105469 208.761719 260.910156 208.566406 260.71875 C 201.738281 263.953125 194.222656 263.851562 190.203125 263.46875 L 190.203125 267.984375 C 190.203125 269.328125 189.117188 270.414062 187.773438 270.414062 C 186.433594 270.414062 185.347656 269.328125 185.347656 267.984375 L 185.347656 260.691406 C 185.347656 259.964844 185.675781 259.273438 186.238281 258.8125 C 186.800781 258.351562 187.542969 258.167969 188.253906 258.3125 C 188.363281 258.335938 199.476562 260.492188 207.976562 255.5625 C 208.042969 255.519531 208.113281 255.496094 208.183594 255.464844 C 208.238281 255.4375 208.277344 255.394531 208.335938 255.371094 C 210.253906 254.582031 212.171875 253.3125 214.207031 251.488281 C 215.933594 249.9375 216.875 248.75 218.214844 246.824219 C 218.800781 245.980469 218.9375 245.445312 218.878906 245.246094 C 218.851562 245.148438 218.496094 244.253906 215.265625 242.972656 C 213.855469 242.414062 212.3125 241.84375 210.714844 241.253906 C 204.414062 238.925781 197.488281 236.363281 193.515625 232.726562 C 191.257812 232.8125 188.816406 232.886719 186.148438 232.9375 C 183.632812 232.984375 181.003906 233.058594 178.292969 233.132812 C 173.257812 233.273438 167.863281 233.421875 162.363281 233.421875 C 161.066406 233.421875 159.765625 233.40625 158.460938 233.386719 C 157.148438 235.800781 154.707031 238.179688 151.542969 240.785156 C 145.53125 245.738281 136.09375 251.359375 131.722656 253.949219 C 135.695312 256.453125 141.128906 260.804688 142.371094 266.457031 C 142.65625 267.765625 141.828125 269.058594 140.519531 269.347656 C 140.34375 269.386719 140.167969 269.40625 139.996094 269.40625 C 138.878906 269.40625 137.878906 268.628906 137.625 267.496094 C 136.632812 262.945312 130.851562 258.917969 127.234375 256.925781 C 126.207031 257.707031 125.136719 258.566406 124.234375 259.289062 C 122.925781 260.335938 122.15625 260.945312 121.671875 261.265625 C 121.429688 261.429688 121.167969 261.542969 120.90625 261.632812 C 116.496094 265.277344 111.535156 269.644531 107.851562 274.859375 C 107.378906 275.53125 106.628906 275.886719 105.867188 275.886719 C 105.382812 275.886719 104.894531 275.742188 104.472656 275.445312 C 103.375 274.671875 103.113281 273.15625 103.886719 272.0625 C 107.589844 266.820312 112.3125 262.503906 116.648438 258.863281 C 116.46875 258.335938 116.308594 257.734375 116.148438 257.070312 C 111.183594 258.324219 104.640625 260.898438 96.910156 264.679688 C 96.566406 264.847656 96.203125 264.929688 95.847656 264.929688 C 94.949219 264.929688 94.085938 264.429688 93.667969 263.566406 C 93.078125 262.363281 93.574219 260.910156 94.777344 260.324219 C 102.933594 256.332031 109.710938 253.675781 115.046875 252.339844 C 114.949219 251.949219 114.816406 251.410156 114.660156 250.78125 C 110.566406 251.171875 103.082031 251.496094 95.34375 249.878906 L 94.066406 252.542969 C 93.652344 253.414062 92.78125 253.921875 91.878906 253.921875 C 91.523438 253.921875 91.167969 253.84375 90.828125 253.679688 C 89.621094 253.101562 89.113281 251.652344 89.691406 250.445312 L 91.808594 246.027344 C 92.308594 244.988281 93.472656 244.441406 94.589844 244.726562 C 101.835938 246.554688 109.261719 246.351562 113.5 246 C 113.449219 245.777344 113.398438 245.570312 113.355469 245.371094 C 108.742188 243.839844 104.628906 241.519531 101.082031 238.429688 L 99.675781 240.121094 C 98.820312 241.152344 97.289062 241.292969 96.257812 240.433594 C 95.230469 239.578125 95.089844 238.046875 95.945312 237.015625 L 98.929688 233.433594 C 99.207031 233.078125 99.574219 232.804688 100.007812 232.644531 C 101.480469 232.113281 102.464844 233.074219 102.996094 233.59375 C 106.679688 237.195312 111.183594 239.75 116.375 241.21875 C 116.796875 241.257812 117.242188 241.328125 117.714844 241.40625 C 119.53125 241.703125 122.570312 242.199219 124.378906 241.195312 C 127.140625 239.660156 131.328125 236.167969 134.386719 233.613281 L 134.636719 233.40625 C 135.453125 232.722656 135.75 232.308594 135.851562 232.128906 C 135.8125 232.078125 135.753906 232.011719 135.664062 231.929688 C 135.476562 231.757812 135.257812 231.558594 135.046875 231.371094 C 131.296875 230.671875 127.699219 229.777344 124.402344 228.566406 C 112.992188 224.375 99.625 206.4375 93.578125 197.613281 C 92.324219 197.753906 91.035156 197.71875 89.734375 197.488281 C 84.207031 196.503906 78.921875 191.992188 77.160156 186.753906 C 76.15625 183.769531 75.496094 179.699219 74.730469 174.984375 C 73.089844 164.863281 71.046875 152.269531 64.785156 148.09375 C 64.054688 147.605469 63.277344 147.09375 62.46875 146.5625 C 52.808594 140.210938 40.832031 132.320312 43.890625 124.222656 " fill-opacity="1" fill-rule="nonzero"/></g></svg>