<svg xmlns="http://www.w3.org/2000/svg" xmlns:xlink="http://www.w3.org/1999/xlink" width="500" zoomAndPan="magnify" viewBox="0 0 375 374.999991" height="500" preserveAspectRatio="xMidYMid meet" version="1.0"><defs><clipPath id="d2d8ee4160"><path d="M 187.5 0 C 83.945312 0 0 83.945312 0 187.5 C 0 291.054688 83.945312 375 187.5 375 C 291.054688 375 375 291.054688 375 187.5 C 375 83.945312 291.054688 0 187.5 0 Z M 187.5 0 " clip-rule="nonzero"/></clipPath></defs><g clip-path="url(#d2d8ee4160)"><rect x="-37.5" width="450" fill="#58a39d" y="-37.499999" height="449.999989" fill-opacity="1"/></g><path fill="#ffffff" d="M 329.25 248.835938 C 326.027344 240.429688 303.660156 219.714844 288.59375 212.949219 C 280.390625 209.265625 269.539062 206.84375 261.121094 205.375 C 273.28125 203.566406 298.453125 200.636719 305.203125 203.609375 C 312.421875 206.785156 322.933594 224.976562 326.375 231.714844 C 326.769531 232.488281 327.558594 232.953125 328.402344 232.953125 C 328.585938 232.953125 328.777344 232.929688 328.964844 232.882812 C 329.996094 232.621094 330.703125 231.679688 330.675781 230.617188 C 330.636719 229.261719 329.570312 197.351562 314.164062 189.445312 C 301.566406 182.980469 273.652344 187.792969 264.257812 189.675781 C 264.382812 188.402344 264.453125 187.070312 264.460938 185.679688 C 269.917969 185.078125 284.902344 183.082031 291.261719 178.703125 C 298.878906 173.457031 317.007812 129.125 319.050781 124.085938 C 319.492188 123.003906 319.039062 121.765625 318.003906 121.222656 C 316.972656 120.675781 315.695312 121 315.050781 121.976562 C 307.863281 132.8125 287.882812 161.796875 281.835938 165.761719 C 276.121094 169.507812 265.660156 170.128906 261.761719 170.234375 C 260.542969 166.871094 258.84375 163.378906 256.53125 159.816406 C 261.910156 157.175781 273.789062 150.613281 275.101562 143.65625 C 275.460938 141.757812 275.402344 139.824219 274.96875 137.945312 C 285.957031 125.351562 285.1875 111.976562 272.605469 98.167969 C 272.382812 97.929688 272.117188 97.738281 271.816406 97.609375 C 271.246094 97.363281 270.683594 97.164062 270.121094 96.960938 C 268.367188 92.75 260.835938 76.910156 246.148438 74.074219 C 230.535156 62.253906 217.386719 60.742188 202.261719 69.027344 C 201.492188 69.449219 201.035156 70.273438 201.082031 71.148438 C 201.132812 72.023438 201.679688 72.796875 202.492188 73.128906 L 225.714844 82.625 C 224.859375 83.980469 224.148438 85.40625 223.566406 86.871094 L 199.058594 78.199219 C 198.300781 77.9375 197.460938 78.082031 196.84375 78.59375 C 196.226562 79.109375 195.925781 79.914062 196.054688 80.703125 C 198.105469 93.457031 207 101.597656 222.453125 104.941406 C 224.964844 109.9375 232.800781 110.9375 238.605469 110.9375 C 239.441406 110.9375 240.238281 110.917969 240.96875 110.882812 C 240.988281 111.011719 240.960938 111.140625 241 111.265625 C 241.21875 111.9375 241.742188 112.472656 242.410156 112.707031 C 252.195312 116.136719 253.902344 120.367188 253.707031 123.746094 C 244 124.191406 236.710938 133.269531 233.855469 137.460938 C 230.960938 135.53125 227.980469 133.847656 224.9375 132.367188 C 224.984375 131.945312 225.066406 131.535156 225.066406 131.097656 C 225.066406 124.914062 220.039062 119.886719 213.855469 119.886719 C 209.578125 119.886719 205.898438 122.324219 204.007812 125.859375 C 197.523438 124.867188 192.085938 124.863281 188.046875 124.859375 L 187.167969 124.859375 C 183.089844 124.867188 177.683594 124.871094 171.207031 125.859375 C 169.320312 122.324219 165.636719 119.886719 161.359375 119.886719 C 155.175781 119.886719 150.148438 124.914062 150.148438 131.097656 C 150.148438 131.53125 150.226562 131.945312 150.277344 132.367188 C 147.234375 133.847656 144.253906 135.53125 141.359375 137.464844 C 138.496094 133.265625 131.195312 124.179688 121.507812 123.742188 C 121.316406 120.367188 123.023438 116.140625 132.804688 112.707031 C 133.472656 112.472656 133.992188 111.9375 134.214844 111.265625 C 134.253906 111.140625 134.226562 111.015625 134.246094 110.886719 C 134.976562 110.917969 135.773438 110.9375 136.609375 110.9375 C 142.414062 110.9375 150.25 109.941406 152.761719 104.941406 C 168.214844 101.597656 177.105469 93.457031 179.160156 80.707031 C 179.289062 79.914062 178.988281 79.113281 178.371094 78.597656 C 177.753906 78.085938 176.914062 77.9375 176.15625 78.199219 L 151.652344 86.871094 C 151.070312 85.40625 150.359375 83.980469 149.503906 82.625 L 172.726562 73.128906 C 173.539062 72.796875 174.085938 72.027344 174.136719 71.148438 C 174.183594 70.273438 173.726562 69.449219 172.957031 69.027344 C 157.832031 60.746094 144.679688 62.253906 129.070312 74.074219 C 114.382812 76.910156 106.851562 92.757812 105.097656 96.964844 C 104.535156 97.164062 103.972656 97.367188 103.402344 97.609375 C 103.101562 97.738281 102.835938 97.929688 102.613281 98.171875 C 90.03125 111.980469 89.261719 125.355469 100.25 137.945312 C 99.816406 139.828125 99.757812 141.757812 100.117188 143.65625 C 101.429688 150.613281 113.3125 157.175781 118.6875 159.820312 C 116.375 163.382812 114.675781 166.875 113.457031 170.246094 C 109.554688 170.144531 99.097656 169.515625 93.382812 165.765625 C 87.332031 161.800781 67.355469 132.816406 60.167969 121.980469 C 59.519531 121.007812 58.242188 120.683594 57.214844 121.226562 C 56.179688 121.769531 55.730469 123.011719 56.167969 124.09375 C 58.210938 129.128906 76.34375 173.460938 83.957031 178.707031 C 90.316406 183.085938 105.300781 185.082031 110.757812 185.683594 C 110.769531 187.074219 110.839844 188.40625 110.960938 189.679688 C 101.566406 187.796875 73.652344 182.984375 61.054688 189.453125 C 45.648438 197.355469 44.582031 229.265625 44.542969 230.621094 C 44.515625 231.683594 45.222656 232.625 46.253906 232.886719 C 46.441406 232.9375 46.628906 232.957031 46.816406 232.957031 C 47.65625 232.957031 48.445312 232.492188 48.839844 231.71875 C 52.28125 224.980469 62.785156 206.792969 70.011719 203.613281 C 77.070312 200.507812 104.203125 203.839844 115.621094 205.617188 C 107.03125 206.816406 95.34375 209.039062 86.625 212.953125 C 71.554688 219.714844 49.183594 240.429688 45.960938 248.835938 C 42.867188 256.902344 45.210938 277.480469 45.316406 278.351562 C 45.441406 279.453125 46.351562 280.304688 47.457031 280.359375 C 47.496094 280.359375 47.535156 280.359375 47.574219 280.359375 C 48.636719 280.359375 49.5625 279.625 49.792969 278.574219 C 49.828125 278.425781 53.171875 263.488281 59.085938 256.75 C 65.65625 249.253906 83.117188 233.613281 90.695312 231.050781 C 94.339844 229.816406 101.828125 229.34375 109.074219 228.886719 C 109.382812 228.867188 109.691406 228.847656 110 228.828125 C 104.625 231.203125 99.574219 233.921875 96.984375 236.613281 C 94.730469 238.953125 92.253906 244.0625 89.996094 250.257812 C 89.933594 250.410156 89.859375 250.558594 89.832031 250.722656 C 85.035156 264.066406 81.3125 282.167969 83.042969 288.679688 C 84.800781 295.296875 91.847656 307.023438 100.503906 311.832031 C 103.050781 313.246094 105.535156 313.957031 107.921875 313.957031 C 109.101562 313.957031 110.253906 313.785156 111.382812 313.4375 C 116.464844 311.882812 120.257812 308.808594 122.339844 304.546875 C 124.433594 300.265625 124.640625 294.980469 122.898438 290.402344 C 120.726562 284.703125 111.855469 279.621094 107.222656 277.289062 C 112.273438 270.542969 114.5 261.617188 113.996094 250.148438 C 127.125 249.882812 139.25 244.523438 150.9375 233.859375 C 154.910156 236.472656 166.257812 242.386719 187.605469 242.386719 C 208.953125 242.386719 220.296875 236.46875 224.273438 233.859375 C 235.960938 244.523438 248.085938 249.882812 261.214844 250.148438 C 260.707031 261.617188 262.933594 270.542969 267.988281 277.289062 C 263.351562 279.621094 254.484375 284.703125 252.3125 290.402344 C 250.566406 294.980469 250.777344 300.265625 252.867188 304.546875 C 254.953125 308.808594 258.742188 311.882812 263.828125 313.4375 C 264.957031 313.785156 266.109375 313.957031 267.285156 313.957031 C 269.675781 313.957031 272.160156 313.246094 274.710938 311.832031 C 283.367188 307.023438 290.410156 295.296875 292.167969 288.679688 C 293.898438 282.167969 290.175781 264.066406 285.378906 250.722656 C 285.351562 250.558594 285.277344 250.410156 285.214844 250.257812 C 282.957031 244.0625 280.480469 238.953125 278.226562 236.613281 C 275.636719 233.921875 270.585938 231.203125 265.210938 228.828125 C 265.523438 228.847656 265.832031 228.867188 266.136719 228.886719 C 273.382812 229.34375 280.875 229.816406 284.515625 231.050781 C 292.09375 233.613281 309.550781 249.253906 316.125 256.746094 C 322.027344 263.472656 325.382812 278.425781 325.417969 278.574219 C 325.648438 279.621094 326.578125 280.359375 327.636719 280.359375 C 327.675781 280.359375 327.714844 280.359375 327.753906 280.355469 C 328.863281 280.300781 329.765625 279.449219 329.894531 278.347656 C 329.996094 277.480469 332.339844 256.902344 329.25 248.835938 Z M 312.085938 193.496094 C 320.0625 197.585938 323.53125 210.535156 325.023438 220.019531 C 320.289062 212.214844 313.265625 202.1875 307.035156 199.445312 C 298.742188 195.800781 272.351562 199.140625 261.722656 200.6875 C 262.339844 199.042969 262.996094 196.949219 263.515625 194.472656 C 270.203125 193.078125 300.074219 187.332031 312.085938 193.496094 Z M 284.324219 169.566406 C 288.714844 166.691406 297.992188 154.433594 305.859375 143.371094 C 299.179688 158.246094 291.949219 172.707031 288.679688 174.957031 C 283.746094 178.355469 270.925781 180.382812 264.246094 181.128906 C 264.046875 179.082031 263.6875 176.949219 263.136719 174.742188 C 268.117188 174.535156 278.167969 173.605469 284.324219 169.566406 Z M 237.972656 73.976562 C 234.402344 74.648438 231.25 76.308594 228.648438 78.910156 L 208.929688 70.847656 C 218.808594 66.757812 227.773438 67.726562 237.972656 73.976562 Z M 201.472656 83.878906 L 222.195312 91.210938 C 221.457031 94.367188 221.242188 97.445312 221.386719 99.996094 C 210.695312 97.253906 204.101562 91.96875 201.472656 83.878906 Z M 226.308594 102.386719 C 225.175781 98.179688 226.144531 88.933594 230.863281 83.210938 C 233.894531 79.53125 237.96875 77.851562 243 78.207031 C 254.328125 79.007812 261.398438 89.75 264.46875 95.679688 C 256.859375 94.933594 249.886719 98.429688 243.652344 106.128906 C 237.933594 106.71875 227.417969 106.53125 226.308594 102.386719 Z M 246.742188 109.511719 C 253.644531 100.644531 260.960938 98.121094 269.574219 101.601562 C 279.570312 112.773438 280.683594 123.144531 272.980469 133.203125 C 272.71875 132.785156 272.441406 132.375 272.140625 131.976562 C 269.023438 127.847656 264.136719 125.097656 258.226562 124.082031 C 258.496094 119.296875 256.273438 113.644531 246.742188 109.511719 Z M 255.460938 128.296875 C 261.136719 128.808594 265.773438 131.089844 268.511719 134.71875 C 270.394531 137.210938 271.148438 140.082031 270.632812 142.808594 C 269.820312 147.105469 260.523438 152.875 253.871094 156.050781 C 252.714844 154.539062 251.460938 153.019531 250.0625 151.492188 C 246.113281 147.179688 241.9375 143.378906 237.570312 140.097656 C 240.148438 136.324219 247.089844 127.535156 255.460938 128.296875 Z M 213.855469 124.433594 C 217.527344 124.433594 220.515625 127.421875 220.515625 131.09375 C 220.515625 134.769531 217.527344 137.757812 213.855469 137.757812 C 210.183594 137.757812 207.191406 134.769531 207.191406 131.09375 C 207.191406 127.421875 210.179688 124.433594 213.855469 124.433594 Z M 161.359375 124.433594 C 165.03125 124.433594 168.019531 127.421875 168.019531 131.09375 C 168.019531 134.769531 165.03125 137.757812 161.359375 137.757812 C 157.683594 137.757812 154.695312 134.769531 154.695312 131.09375 C 154.695312 127.421875 157.683594 124.433594 161.359375 124.433594 Z M 173.738281 83.878906 C 171.109375 91.96875 164.515625 97.253906 153.824219 99.996094 C 153.96875 97.445312 153.753906 94.367188 153.015625 91.210938 Z M 166.277344 70.847656 L 146.558594 78.914062 C 143.957031 76.3125 140.804688 74.652344 137.230469 73.976562 C 147.4375 67.722656 156.394531 66.757812 166.277344 70.847656 Z M 132.207031 78.203125 C 137.234375 77.855469 141.316406 79.53125 144.347656 83.207031 C 149.0625 88.929688 150.035156 98.179688 148.902344 102.386719 C 147.789062 106.53125 137.269531 106.714844 131.554688 106.128906 C 125.320312 98.429688 118.347656 94.9375 110.742188 95.679688 C 113.8125 89.75 120.882812 79.007812 132.207031 78.203125 Z M 105.636719 101.601562 C 114.25 98.121094 121.566406 100.644531 128.46875 109.511719 C 118.933594 113.644531 116.714844 119.296875 116.984375 124.082031 C 111.074219 125.097656 106.1875 127.847656 103.070312 131.976562 C 102.765625 132.375 102.488281 132.785156 102.230469 133.203125 C 94.527344 123.144531 95.640625 112.773438 105.636719 101.601562 Z M 104.578125 142.808594 C 104.0625 140.082031 104.816406 137.210938 106.699219 134.71875 C 109.441406 131.089844 114.074219 128.808594 119.75 128.296875 C 128.097656 127.535156 135.054688 136.324219 137.636719 140.101562 C 133.269531 143.382812 129.097656 147.179688 125.148438 151.496094 C 123.75 153.019531 122.496094 154.542969 121.339844 156.054688 C 114.6875 152.878906 105.394531 147.113281 104.578125 142.808594 Z M 86.53125 174.960938 C 83.261719 172.707031 76.03125 158.25 69.351562 143.375 C 77.21875 154.433594 86.5 166.691406 90.886719 169.566406 C 97.042969 173.605469 107.097656 174.535156 112.074219 174.746094 C 111.523438 176.953125 111.164062 179.089844 110.964844 181.132812 C 104.285156 180.382812 91.472656 178.359375 86.53125 174.960938 Z M 68.175781 199.445312 C 61.9375 202.191406 54.90625 212.234375 50.171875 220.042969 C 51.808594 209.953125 55.542969 197.386719 63.128906 193.496094 C 75.128906 187.332031 105.007812 193.074219 111.691406 194.472656 C 112.214844 196.949219 112.871094 199.046875 113.488281 200.6875 C 102.859375 199.140625 76.46875 195.796875 68.175781 199.445312 Z M 108.789062 224.351562 C 100.902344 224.847656 93.453125 225.320312 89.238281 226.746094 C 79.96875 229.882812 61.507812 247.097656 55.667969 253.75 C 52.878906 256.933594 50.640625 261.507812 48.976562 265.800781 C 48.789062 259.898438 48.976562 253.664062 50.207031 250.464844 C 52.824219 243.632812 73.519531 223.816406 88.480469 217.09375 C 101.828125 211.097656 123.5 209.203125 126.960938 208.933594 C 129.253906 209.789062 131.707031 210.8125 134.078125 212.011719 C 135.566406 212.765625 136.898438 213.617188 138.101562 214.535156 C 137.015625 216.390625 134.523438 219.65625 129.527344 221.671875 C 129.214844 221.765625 128.480469 221.992188 127.433594 222.324219 C 122.988281 223.449219 115.800781 223.910156 108.789062 224.351562 Z M 128.820312 226.65625 C 129.542969 226.46875 130.207031 226.261719 130.808594 226.039062 C 130.863281 226.023438 130.929688 226 130.980469 225.984375 C 130.984375 225.984375 130.992188 225.976562 131 225.972656 C 131.050781 225.953125 131.121094 225.9375 131.171875 225.917969 C 136.703125 223.703125 139.859375 220.164062 141.523438 217.644531 C 145.941406 222.449219 147.6875 227.851562 148.265625 230.144531 C 140.359375 237.445312 132.269531 242.128906 123.832031 244.261719 C 123.339844 239.109375 120.816406 234.785156 116.253906 231.152344 C 120.902344 229.296875 125.527344 227.707031 128.820312 226.65625 Z M 118.652344 292.023438 C 119.957031 295.445312 119.808594 299.378906 118.257812 302.550781 C 116.71875 305.695312 113.960938 307.898438 110.054688 309.09375 C 107.867188 309.757812 105.394531 309.34375 102.714844 307.859375 C 96.589844 304.453125 91.242188 296.753906 88.691406 290.957031 C 89.085938 290.984375 89.503906 291.046875 89.878906 291.046875 C 96.628906 291.046875 100.324219 286.601562 104.363281 280.949219 C 109.71875 283.546875 117.203125 288.214844 118.652344 292.023438 Z M 101.9375 276.550781 C 101.890625 276.601562 101.859375 276.660156 101.820312 276.714844 C 101.800781 276.742188 101.769531 276.753906 101.753906 276.777344 C 96.472656 284.257812 93.800781 287.453125 87.207031 286.171875 C 86.515625 280.136719 89.253906 266.777344 92.832031 255.753906 C 96.757812 260.101562 100.84375 261.652344 104.625 261.652344 C 106.128906 261.652344 107.578125 261.410156 108.953125 261.019531 C 107.957031 267.40625 105.628906 272.539062 101.9375 276.550781 Z M 111.644531 245.597656 C 111.019531 245.550781 110.382812 245.832031 109.9375 246.300781 C 109.496094 246.765625 109.265625 247.398438 109.316406 248.039062 C 109.53125 250.867188 109.550781 253.496094 109.429688 255.992188 C 103.703125 258.40625 98.941406 256.707031 94.597656 250.699219 C 96.492188 245.667969 98.488281 241.613281 100.265625 239.769531 C 102.304688 237.652344 106.558594 235.351562 111.347656 233.214844 C 116.40625 236.5 118.992188 240.339844 119.324219 245.148438 C 116.796875 245.511719 114.238281 245.667969 111.644531 245.597656 Z M 152.828125 229.644531 C 152.0625 226.183594 148.589844 214.25 136.136719 207.953125 C 133.425781 206.582031 130.640625 205.429688 128.078125 204.488281 C 128.050781 204.476562 128.023438 204.46875 127.996094 204.460938 C 123.921875 202.96875 120.429688 202.011719 118.777344 201.59375 C 118.046875 200.152344 116.617188 196.921875 115.789062 192.4375 C 115.777344 192.238281 115.746094 192.050781 115.683594 191.863281 C 115.292969 189.546875 115.074219 186.910156 115.183594 184.027344 C 115.195312 183.957031 115.234375 183.894531 115.242188 183.820312 C 115.253906 183.703125 115.214844 183.597656 115.203125 183.484375 C 115.367188 180.386719 115.929688 177.011719 117.078125 173.445312 C 117.109375 173.378906 117.121094 173.3125 117.144531 173.242188 C 119.054688 167.414062 122.535156 161.070312 128.496094 154.5625 C 135.566406 146.847656 143.371094 140.871094 151.714844 136.722656 C 153.660156 140.042969 157.234375 142.308594 161.355469 142.308594 C 167.535156 142.308594 172.566406 137.28125 172.566406 131.097656 C 172.566406 130.8125 172.5 130.542969 172.480469 130.261719 C 178.375 129.40625 183.382812 129.402344 187.164062 129.40625 L 188.046875 129.40625 C 191.816406 129.40625 196.832031 129.40625 202.730469 130.261719 C 202.710938 130.542969 202.644531 130.8125 202.644531 131.097656 C 202.644531 137.28125 207.671875 142.308594 213.855469 142.308594 C 217.976562 142.308594 221.546875 140.046875 223.496094 136.722656 C 231.835938 140.871094 239.644531 146.847656 246.714844 154.5625 C 252.671875 161.070312 256.160156 167.414062 258.066406 173.242188 C 258.089844 173.3125 258.105469 173.382812 258.136719 173.453125 C 259.285156 177.023438 259.84375 180.398438 260.003906 183.496094 C 259.996094 183.605469 259.957031 183.707031 259.96875 183.820312 C 259.972656 183.910156 260.019531 183.980469 260.035156 184.0625 C 260.144531 186.941406 259.914062 189.5625 259.523438 191.875 C 259.460938 192.066406 259.429688 192.257812 259.425781 192.460938 C 258.667969 196.546875 257.410156 199.582031 256.644531 201.171875 C 254.851562 201.191406 251.796875 201.6875 247.195312 203.609375 C 247.171875 203.617188 247.152344 203.628906 247.132812 203.636719 C 244.8125 204.609375 242.128906 205.917969 238.960938 207.761719 C 236.292969 209.316406 234.058594 211.097656 232.152344 212.964844 C 232.144531 212.972656 232.136719 212.980469 232.125 212.988281 C 225.480469 219.503906 223.074219 227.050781 222.417969 229.617188 C 219.988281 231.332031 209.335938 237.839844 187.605469 237.839844 C 165.960938 237.84375 155.308594 231.390625 152.828125 229.644531 Z M 244.042969 225.917969 C 244.09375 225.941406 244.164062 225.957031 244.21875 225.976562 C 244.222656 225.976562 244.230469 225.984375 244.234375 225.984375 C 244.273438 225.996094 244.328125 226.015625 244.371094 226.027344 C 244.988281 226.257812 245.664062 226.46875 246.398438 226.660156 C 249.691406 227.707031 254.308594 229.300781 258.960938 231.152344 C 254.394531 234.792969 251.867188 239.117188 251.378906 244.273438 C 242.949219 242.148438 234.882812 237.464844 226.984375 230.175781 C 227.617188 227.957031 229.410156 222.964844 233.507812 218.175781 C 235.296875 220.476562 238.59375 223.738281 244.042969 225.917969 Z M 272.496094 307.855469 C 269.816406 309.34375 267.347656 309.757812 265.15625 309.089844 C 261.253906 307.894531 258.492188 305.695312 256.953125 302.546875 C 255.402344 299.378906 255.257812 295.445312 256.5625 292.019531 C 258.007812 288.21875 265.488281 283.550781 270.847656 280.945312 C 274.886719 286.597656 278.582031 291.042969 285.335938 291.042969 C 285.710938 291.042969 286.128906 290.984375 286.523438 290.953125 C 283.96875 296.75 278.621094 304.453125 272.496094 307.855469 Z M 288.003906 286.171875 C 281.417969 287.453125 278.742188 284.257812 273.460938 276.777344 C 273.441406 276.753906 273.410156 276.738281 273.394531 276.714844 C 273.351562 276.660156 273.320312 276.601562 273.273438 276.546875 C 269.582031 272.539062 267.257812 267.402344 266.257812 261.019531 C 267.632812 261.410156 269.085938 261.652344 270.585938 261.652344 C 274.367188 261.652344 278.453125 260.101562 282.382812 255.75 C 285.957031 266.777344 288.695312 280.136719 288.003906 286.171875 Z M 280.617188 250.699219 C 276.273438 256.707031 271.507812 258.40625 265.785156 255.992188 C 265.664062 253.496094 265.6875 250.863281 265.898438 248.039062 C 265.945312 247.398438 265.71875 246.761719 265.277344 246.296875 C 264.832031 245.832031 264.207031 245.542969 263.570312 245.59375 C 260.972656 245.667969 258.417969 245.519531 255.894531 245.15625 C 256.21875 240.347656 258.808594 236.5 263.867188 233.214844 C 268.660156 235.347656 272.910156 237.652344 274.949219 239.769531 C 276.722656 241.613281 278.722656 245.667969 280.617188 250.699219 Z M 326.234375 265.800781 C 324.566406 261.507812 322.332031 256.933594 319.542969 253.75 C 313.703125 247.097656 295.242188 229.882812 285.972656 226.746094 C 281.757812 225.320312 274.308594 224.847656 266.421875 224.351562 C 259.414062 223.910156 252.226562 223.449219 247.777344 222.324219 C 246.714844 221.984375 245.976562 221.761719 245.671875 221.667969 C 240.683594 219.652344 237.984375 216.660156 236.75 214.921875 C 238.082031 213.769531 239.5625 212.675781 241.25 211.691406 C 243.972656 210.105469 246.265625 208.972656 248.238281 208.113281 C 252.089844 208.546875 273.5 211.152344 286.730469 217.09375 C 301.691406 223.816406 322.382812 243.628906 325.003906 250.464844 C 326.230469 253.664062 326.421875 259.898438 326.234375 265.800781 Z M 326.234375 265.800781 " fill-opacity="1" fill-rule="nonzero"/></svg>