<svg xmlns="http://www.w3.org/2000/svg" xmlns:xlink="http://www.w3.org/1999/xlink" width="500" zoomAndPan="magnify" viewBox="0 0 375 374.999991" height="500" preserveAspectRatio="xMidYMid meet" version="1.0"><defs><clipPath id="4c49221951"><path d="M 187.5 0 C 83.945312 0 0 83.945312 0 187.5 C 0 291.054688 83.945312 375 187.5 375 C 291.054688 375 375 291.054688 375 187.5 C 375 83.945312 291.054688 0 187.5 0 Z M 187.5 0 " clip-rule="nonzero"/></clipPath><clipPath id="db196bce55"><path d="M 21 87 L 355 87 L 355 266.636719 L 21 266.636719 Z M 21 87 " clip-rule="nonzero"/></clipPath></defs><g clip-path="url(#4c49221951)"><rect x="-37.5" width="450" fill="#58a39d" y="-37.499999" height="449.999989" fill-opacity="1"/></g><path fill="#ffffff" d="M 316.625 172.15625 C 316.625 169.230469 318.996094 166.855469 321.925781 166.855469 C 324.855469 166.855469 327.226562 169.230469 327.226562 172.15625 C 327.226562 175.085938 324.855469 177.460938 321.925781 177.460938 C 318.996094 177.460938 316.625 175.085938 316.625 172.15625 Z M 316.625 172.15625 " fill-opacity="1" fill-rule="nonzero"/><g clip-path="url(#db196bce55)"><path fill="#ffffff" d="M 32.492188 187.535156 C 29.570312 180.074219 14.820312 139.546875 35.300781 130.332031 C 55.433594 121.269531 75.757812 159.089844 79.921875 167.386719 L 95.074219 167.386719 C 96.6875 166.058594 100.570312 162.941406 106.261719 158.824219 C 94.679688 155.613281 74.824219 148.800781 74.824219 139.8125 C 74.824219 134.605469 83.070312 132.386719 101.140625 127.527344 C 109.613281 125.246094 120.15625 122.410156 131.257812 118.773438 C 139.898438 115.941406 148.390625 112.320312 157.386719 108.480469 C 175.824219 100.613281 194.898438 92.480469 218.871094 89.390625 C 258.261719 84.3125 274.675781 92.109375 287.210938 105.382812 C 294.0625 112.632812 297.777344 124.183594 298.75 127.539062 C 314.484375 136.667969 329.089844 149.304688 342.441406 165.46875 C 343.480469 166.722656 344.550781 168.023438 344.753906 168.214844 C 345.613281 168.769531 346.976562 169.175781 348.691406 169.382812 C 352.179688 169.804688 354.855469 172.773438 354.910156 176.285156 L 354.984375 180.742188 C 355.046875 184.585938 353.742188 188.359375 351.304688 191.375 C 344.359375 199.96875 325.914062 220.960938 304.761719 230.222656 C 302.816406 231.078125 300.601562 231.867188 298.210938 232.609375 C 291.773438 251.675781 266.699219 263.78125 254.292969 266.066406 C 252.601562 266.378906 251.085938 266.535156 249.746094 266.535156 C 246.730469 266.535156 244.617188 265.746094 243.441406 264.167969 C 239.164062 258.425781 245.375 253.277344 249.492188 249.867188 C 251.378906 248.300781 253.523438 246.523438 254.027344 245.363281 C 255.269531 242.511719 254.386719 240.628906 253.644531 239.675781 C 225.347656 241.761719 194.753906 241.03125 179.710938 238.648438 C 176.65625 238.167969 173.082031 237.414062 169.175781 236.464844 C 145.945312 256.851562 98.175781 265.84375 78.75 265.84375 C 76.101562 265.84375 73.976562 265.675781 72.519531 265.34375 C 71.765625 265.179688 69.457031 264.660156 68.660156 262.691406 C 67.179688 259.015625 69.011719 254.902344 71.207031 251.710938 C 68.8125 251.523438 66.492188 250.722656 65.363281 248.601562 C 63.28125 244.6875 65.773438 238.710938 73.207031 229.789062 C 77.101562 225.113281 84.554688 217.671875 89.460938 212.878906 L 79.726562 212.910156 C 75.601562 219.277344 56.730469 247.132812 40.503906 249.789062 C 39.621094 249.933594 38.761719 250.003906 37.917969 250.003906 C 34.683594 250.003906 31.761719 248.941406 29.191406 246.824219 C 12.042969 232.675781 29.101562 194.621094 32.492188 187.535156 Z M 84.882812 207.605469 C 84.167969 205.671875 83.5625 203.152344 83.5625 200.019531 C 83.5625 195.296875 85.414062 191.988281 86.9375 190.058594 C 85.445312 188.019531 83.5625 184.550781 83.5625 180.023438 C 83.5625 177.054688 84.242188 174.597656 85.054688 172.683594 L 80.066406 172.683594 C 75.40625 183.960938 75.421875 195.429688 80.109375 207.621094 Z M 283.367188 109.015625 C 271.617188 96.574219 256.84375 89.832031 219.550781 94.636719 C 196.300781 97.632812 177.570312 105.621094 159.460938 113.351562 C 150.359375 117.234375 141.761719 120.902344 132.90625 123.804688 C 121.667969 127.488281 111.046875 130.34375 102.515625 132.636719 C 92.847656 135.238281 81.925781 138.175781 80.136719 140.097656 C 80.824219 144.421875 96.667969 151.027344 111.910156 154.832031 C 113.832031 153.507812 115.914062 152.105469 118.105469 150.671875 L 100.101562 143.417969 C 98.746094 142.871094 98.089844 141.332031 98.636719 139.972656 C 99.183594 138.617188 100.726562 137.964844 102.082031 138.507812 L 123.566406 147.167969 C 125.332031 146.058594 127.183594 144.929688 129.078125 143.796875 L 120.925781 137.902344 C 119.742188 137.042969 119.476562 135.390625 120.332031 134.207031 C 121.183594 133.027344 122.839844 132.757812 124.023438 133.613281 L 134.0625 140.875 C 136.347656 139.5625 138.6875 138.246094 141.113281 136.9375 L 136.449219 132.019531 C 135.445312 130.960938 135.488281 129.289062 136.546875 128.28125 C 137.605469 127.273438 139.285156 127.316406 140.289062 128.378906 L 145.976562 134.371094 C 148.574219 133.035156 151.253906 131.71875 153.984375 130.421875 L 150.457031 127.238281 C 149.375 126.257812 149.289062 124.585938 150.269531 123.5 C 151.25 122.417969 152.921875 122.332031 154.003906 123.3125 L 159.207031 128.007812 C 161.707031 126.882812 164.25 125.785156 166.839844 124.722656 L 163.410156 119.738281 C 162.582031 118.535156 162.890625 116.886719 164.09375 116.058594 C 165.300781 115.230469 166.941406 115.535156 167.773438 116.738281 L 171.886719 122.71875 C 175.320312 121.402344 178.816406 120.15625 182.367188 118.988281 L 179.039062 113.664062 C 178.261719 112.425781 178.640625 110.792969 179.875 110.015625 C 181.117188 109.242188 182.75 109.621094 183.523438 110.859375 L 187.578125 117.351562 C 190.9375 116.34375 194.335938 115.417969 197.769531 114.589844 L 194.910156 108.292969 C 194.300781 106.964844 194.890625 105.394531 196.21875 104.792969 C 197.566406 104.1875 199.121094 104.777344 199.722656 106.105469 L 203.050781 113.417969 C 207.34375 112.523438 211.683594 111.785156 216.058594 111.230469 L 214.832031 105.027344 C 214.550781 103.59375 215.484375 102.203125 216.914062 101.917969 C 218.339844 101.636719 219.742188 102.566406 220.027344 104 L 221.34375 110.660156 C 225.585938 110.273438 229.847656 110.074219 234.128906 110.074219 L 233.472656 104.84375 C 233.289062 103.390625 234.316406 102.070312 235.765625 101.886719 C 237.257812 101.703125 238.539062 102.734375 238.71875 104.183594 L 239.476562 110.179688 C 241.0625 110.246094 242.648438 110.308594 244.238281 110.433594 C 246.605469 110.621094 248.949219 110.875 251.285156 111.1875 L 250.84375 106.164062 C 250.714844 104.707031 251.789062 103.425781 253.246094 103.296875 C 254.714844 103.171875 255.984375 104.242188 256.113281 105.703125 L 256.671875 112.054688 C 260.578125 112.746094 264.429688 113.632812 268.230469 114.679688 L 267.445312 110.417969 C 267.183594 108.984375 268.132812 107.605469 269.570312 107.339844 C 271.003906 107.074219 272.382812 108.027344 272.652344 109.464844 L 273.925781 116.394531 C 280.0625 118.398438 286.058594 120.863281 291.902344 123.8125 C 290.179688 119.308594 287.335938 113.21875 283.367188 109.015625 Z M 258.882812 247.472656 C 257.875 249.792969 255.445312 251.808594 252.871094 253.941406 C 248.496094 257.566406 246.601562 259.550781 247.605469 260.917969 C 248.308594 261.425781 252.378906 261.6875 259.839844 259.09375 C 272.269531 254.785156 286.117188 245.71875 291.808594 234.351562 C 289.089844 235.003906 286.191406 235.597656 283.152344 236.144531 C 278.09375 241.644531 272.277344 247.59375 266.832031 251.066406 C 266.390625 251.347656 265.894531 251.480469 265.414062 251.480469 C 264.539062 251.480469 263.683594 251.050781 263.179688 250.257812 C 262.394531 249.027344 262.757812 247.390625 263.988281 246.605469 C 267.386719 244.441406 271.050781 241.085938 274.578125 237.503906 C 269.691406 238.183594 264.570312 238.753906 259.320312 239.21875 C 260.109375 241.417969 260.296875 244.234375 258.882812 247.472656 Z M 180.539062 233.425781 C 206.308594 237.496094 277.5625 236.371094 302.640625 225.378906 C 322.726562 216.582031 340.492188 196.34375 347.191406 188.054688 C 348.847656 186.003906 349.738281 183.4375 349.691406 180.832031 L 349.621094 176.371094 C 349.605469 175.476562 348.949219 174.746094 348.058594 174.636719 C 345.507812 174.328125 343.429688 173.660156 341.875 172.652344 C 341.132812 172.171875 340.441406 171.355469 338.359375 168.835938 C 332.179688 161.351562 318.152344 144.386719 295.464844 131.542969 C 295.246094 131.453125 295.054688 131.34375 294.867188 131.199219 C 287.710938 127.203125 279.699219 123.632812 270.816406 120.882812 C 270.757812 120.863281 270.699219 120.851562 270.640625 120.828125 C 262.445312 118.308594 253.523438 116.484375 243.820312 115.707031 C 172.152344 110.027344 98.476562 171.433594 97.738281 172.054688 C 97.261719 172.457031 96.65625 172.679688 96.03125 172.679688 L 90.996094 172.679688 C 90.1875 173.910156 88.855469 176.460938 88.855469 180.019531 C 88.855469 184.960938 92.257812 188.167969 92.28125 188.183594 C 92.867188 188.714844 93.1875 189.480469 93.152344 190.269531 C 93.113281 191.0625 92.726562 191.792969 92.097656 192.265625 C 92.0625 192.292969 88.855469 194.847656 88.855469 200.015625 C 88.855469 203.800781 89.941406 206.328125 90.640625 207.582031 L 96.019531 207.566406 C 96.023438 207.566406 96.027344 207.566406 96.03125 207.566406 C 96.042969 207.566406 96.054688 207.574219 96.070312 207.574219 C 96.136719 207.574219 96.195312 207.601562 96.261719 207.605469 C 96.492188 207.628906 96.726562 207.648438 96.945312 207.730469 C 97.539062 207.949219 156.5 229.625 180.539062 233.425781 Z M 77.273438 233.175781 C 70.199219 241.664062 69.644531 245.398438 69.972656 246.039062 C 70.65625 246.644531 74.058594 246.558594 76.847656 245.878906 C 78.007812 245.597656 79.226562 246.128906 79.800781 247.183594 C 80.375 248.234375 80.167969 249.546875 79.292969 250.371094 C 76.503906 253 73.15625 257.632812 73.429688 260.15625 C 80.941406 262.621094 135.996094 255.4375 162.8125 234.835938 C 159.746094 234.011719 156.546875 233.109375 153.277344 232.152344 L 141.351562 242.550781 C 140.851562 242.988281 140.226562 243.203125 139.613281 243.203125 C 138.875 243.203125 138.140625 242.894531 137.617188 242.292969 C 136.660156 241.195312 136.773438 239.519531 137.875 238.5625 L 147.285156 230.355469 C 144.988281 229.652344 142.6875 228.933594 140.386719 228.207031 L 125.03125 244.492188 C 124.511719 245.046875 123.808594 245.324219 123.105469 245.324219 C 122.453125 245.324219 121.800781 245.085938 121.289062 244.605469 C 120.226562 243.601562 120.175781 241.925781 121.179688 240.867188 L 134.800781 226.414062 C 132.496094 225.667969 130.210938 224.914062 127.976562 224.171875 L 110.976562 244.382812 C 110.453125 245.003906 109.703125 245.324219 108.945312 245.324219 C 108.34375 245.324219 107.742188 245.121094 107.246094 244.703125 C 106.125 243.765625 105.980469 242.09375 106.921875 240.976562 L 122.582031 222.363281 C 120.316406 221.59375 118.125 220.847656 116.035156 220.125 L 96.308594 245.597656 C 95.785156 246.273438 95.003906 246.625 94.210938 246.625 C 93.644531 246.625 93.074219 246.445312 92.597656 246.070312 C 91.441406 245.175781 91.226562 243.511719 92.121094 242.359375 L 110.761719 218.296875 C 108.953125 217.660156 107.246094 217.058594 105.6875 216.507812 L 88.972656 237.492188 C 88.453125 238.148438 87.683594 238.488281 86.902344 238.488281 C 86.324219 238.488281 85.742188 238.300781 85.257812 237.914062 C 84.113281 237.003906 83.925781 235.335938 84.835938 234.195312 L 100.421875 214.625 C 98.839844 214.058594 97.570312 213.597656 96.664062 213.261719 C 93.078125 216.71875 82.097656 227.378906 77.273438 233.175781 Z M 32.5625 242.742188 C 34.59375 244.417969 36.917969 245.015625 39.648438 244.570312 C 52.121094 242.53125 69.011719 219.824219 75.339844 209.949219 C 69.976562 196.257812 69.988281 182.882812 75.386719 170.148438 C 69.136719 157.351562 51.546875 128.820312 37.46875 135.160156 C 22.992188 141.671875 32.820312 174.519531 37.828125 186.625 C 38.121094 187.339844 38.09375 188.140625 37.75 188.828125 C 31.996094 200.269531 19.859375 232.265625 32.5625 242.742188 Z M 32.5625 242.742188 " fill-opacity="1" fill-rule="nonzero"/></g><path fill="#ffffff" d="M 291.367188 160.1875 C 292.933594 160.789062 294.65625 160.691406 296.089844 159.914062 C 297.492188 159.152344 298.453125 157.859375 298.792969 156.269531 C 299.621094 152.398438 299.601562 147.996094 298.738281 142.808594 C 298.496094 141.363281 299.46875 140.003906 300.910156 139.761719 C 302.347656 139.515625 303.71875 140.496094 303.953125 141.9375 C 304.929688 147.792969 304.933594 152.84375 303.964844 157.371094 C 303.308594 160.453125 301.355469 163.074219 298.609375 164.566406 C 295.8125 166.082031 292.480469 166.28125 289.464844 165.125 C 284.71875 163.289062 283.996094 164.910156 283.765625 165.441406 C 282.269531 168.863281 285.902344 187.773438 292.269531 201.105469 C 295.140625 207.121094 297.328125 209.113281 298.164062 209.34375 C 303.800781 210.863281 312.816406 204.144531 315.828125 201.425781 C 316.914062 200.457031 318.585938 200.53125 319.5625 201.617188 C 320.542969 202.699219 320.460938 204.371094 319.378906 205.351562 C 318.199219 206.417969 308.609375 214.851562 299.894531 214.847656 C 298.839844 214.847656 297.789062 214.722656 296.773438 214.449219 C 293.679688 213.605469 290.644531 209.984375 287.492188 203.382812 C 282.132812 192.15625 276.035156 169.890625 278.917969 163.316406 C 279.816406 161.285156 282.800781 156.890625 291.367188 160.1875 Z M 291.367188 160.1875 " fill-opacity="1" fill-rule="nonzero"/><path fill="#ffffff" d="M 275.070312 185.644531 C 275.851562 186.015625 276.402344 186.746094 276.542969 187.601562 C 276.683594 188.453125 276.398438 189.324219 275.777344 189.925781 C 272.464844 193.144531 270.125 199.496094 273.503906 207.664062 C 274.042969 208.96875 273.460938 210.46875 272.183594 211.070312 C 271.613281 211.339844 261.453125 216.03125 249.761719 216.03125 C 245.628906 216.03125 241.3125 215.441406 237.15625 213.875 C 231.484375 211.726562 229.570312 209.917969 227.882812 208.320312 C 226.703125 207.203125 225.683594 206.242188 223.101562 205.046875 C 214.78125 201.203125 206.703125 202.015625 206.625 202.023438 C 205.425781 202.15625 204.328125 201.492188 203.878906 200.398438 C 203.433594 199.300781 203.765625 198.039062 204.699219 197.308594 C 228.875 178.402344 251.886719 174.59375 275.070312 185.644531 Z M 225.324219 200.246094 C 228.691406 201.804688 230.191406 203.226562 231.519531 204.480469 C 232.972656 205.859375 234.347656 207.15625 239.027344 208.925781 C 249.871094 213.035156 262.652344 209.101562 267.710938 207.195312 C 267.460938 206.390625 267.257812 205.585938 267.09375 204.785156 L 249.1875 206.703125 C 249.089844 206.714844 248.996094 206.71875 248.902344 206.71875 C 247.566406 206.71875 246.421875 205.710938 246.277344 204.355469 C 246.121094 202.902344 247.171875 201.597656 248.625 201.441406 L 266.585938 199.519531 C 266.601562 198.664062 266.667969 197.824219 266.777344 197.003906 L 248.628906 195.085938 C 247.175781 194.933594 246.121094 193.632812 246.277344 192.175781 C 246.429688 190.726562 247.714844 189.65625 249.1875 189.824219 L 268.207031 191.832031 C 268.625 190.859375 269.101562 189.914062 269.683594 189.035156 C 251.460938 181.503906 233.1875 184.121094 214.085938 197.019531 C 217.347656 197.457031 221.289062 198.378906 225.324219 200.246094 Z M 225.324219 200.246094 " fill-opacity="1" fill-rule="nonzero"/><path fill="#ffffff" d="M 66.453125 190.277344 L 44.679688 190.277344 C 43.21875 190.277344 42.035156 189.09375 42.035156 187.632812 C 42.035156 186.167969 43.21875 184.988281 44.679688 184.988281 L 66.453125 184.988281 C 67.917969 184.988281 69.101562 186.167969 69.101562 187.632812 C 69.101562 189.09375 67.914062 190.277344 66.453125 190.277344 Z M 66.453125 190.277344 " fill-opacity="1" fill-rule="nonzero"/><path fill="#ffffff" d="M 66.460938 201.335938 L 41.296875 204.722656 C 41.175781 204.738281 41.054688 204.746094 40.941406 204.746094 C 39.636719 204.746094 38.496094 203.785156 38.320312 202.457031 C 38.128906 201.007812 39.144531 199.675781 40.585938 199.480469 L 65.75 196.09375 C 67.234375 195.898438 68.535156 196.914062 68.726562 198.359375 C 68.921875 199.808594 67.90625 201.136719 66.460938 201.335938 Z M 66.460938 201.335938 " fill-opacity="1" fill-rule="nonzero"/><path fill="#ffffff" d="M 67.414062 205.921875 C 68.582031 205.042969 70.238281 205.269531 71.121094 206.433594 C 72.003906 207.597656 71.773438 209.257812 70.609375 210.140625 L 39.085938 233.996094 C 38.605469 234.355469 38.046875 234.527344 37.488281 234.527344 C 36.6875 234.527344 35.898438 234.167969 35.375 233.480469 C 34.496094 232.316406 34.726562 230.660156 35.890625 229.773438 Z M 67.414062 205.921875 " fill-opacity="1" fill-rule="nonzero"/><path fill="#ffffff" d="M 66.457031 179.191406 L 41.292969 175.804688 C 39.84375 175.609375 38.828125 174.28125 39.023438 172.828125 C 39.21875 171.378906 40.523438 170.363281 42 170.558594 L 67.164062 173.945312 C 68.613281 174.140625 69.628906 175.472656 69.433594 176.921875 C 69.257812 178.25 68.117188 179.214844 66.8125 179.214844 C 66.699219 179.214844 66.578125 179.207031 66.457031 179.191406 Z M 66.457031 179.191406 " fill-opacity="1" fill-rule="nonzero"/><path fill="#ffffff" d="M 69.007812 171.574219 C 68.453125 171.574219 67.890625 171.398438 67.410156 171.035156 L 35.890625 147.1875 C 34.726562 146.304688 34.496094 144.644531 35.375 143.480469 C 36.257812 142.316406 37.917969 142.082031 39.082031 142.964844 L 70.605469 166.816406 C 71.769531 167.699219 72 169.355469 71.117188 170.523438 C 70.601562 171.210938 69.808594 171.574219 69.007812 171.574219 Z M 69.007812 171.574219 " fill-opacity="1" fill-rule="nonzero"/></svg>