<svg xmlns="http://www.w3.org/2000/svg" xmlns:xlink="http://www.w3.org/1999/xlink" width="500" zoomAndPan="magnify" viewBox="0 0 375 374.999991" height="500" preserveAspectRatio="xMidYMid meet" version="1.0"><defs><clipPath id="3dccf863db"><path d="M 187.5 0 C 83.945312 0 0 83.945312 0 187.5 C 0 291.054688 83.945312 375 187.5 375 C 291.054688 375 375 291.054688 375 187.5 C 375 83.945312 291.054688 0 187.5 0 Z M 187.5 0 " clip-rule="nonzero"/></clipPath></defs><g clip-path="url(#3dccf863db)"><rect x="-37.5" width="450" fill="#a2c36e" y="-37.499999" height="449.999989" fill-opacity="1"/></g><path fill="#ffffff" d="M 99.910156 121.574219 C 100.429688 121.601562 100.976562 121.652344 101.515625 121.6875 C 101.179688 121.59375 100.851562 121.496094 100.535156 121.410156 C 96.570312 120.074219 92.992188 118.589844 89.59375 117.273438 C 82.808594 114.605469 76.871094 112.429688 71.617188 110.949219 C 68.574219 110.101562 65.792969 109.484375 63.242188 109.082031 C 62.703125 109.023438 62.164062 108.964844 61.625 108.917969 C 57.941406 108.628906 41.511719 110.542969 46.246094 118.070312 C 48.355469 121.4375 51.964844 124.058594 55.949219 126.210938 C 55.949219 126.175781 55.9375 126.117188 55.917969 126.066406 L 55.984375 125.472656 C 56.074219 124.644531 56.554688 123.914062 57.101562 123.324219 C 57.671875 122.785156 58.316406 122.296875 59.035156 121.949219 C 59.738281 121.515625 60.519531 121.285156 61.316406 120.957031 C 62.125 120.738281 62.914062 120.449219 63.828125 120.265625 C 65.609375 119.824219 67.574219 119.792969 69.59375 119.832031 C 71.632812 119.898438 73.761719 120.148438 75.996094 120.371094 C 78.179688 120.640625 80.554688 120.660156 83.058594 120.792969 C 88.089844 120.988281 93.691406 121.167969 99.910156 121.574219 Z M 102.46875 123.980469 C 101.554688 123.914062 100.640625 123.835938 99.746094 123.777344 C 93.585938 123.355469 88.003906 123.113281 82.972656 122.863281 C 80.441406 122.710938 78.0625 122.652344 75.761719 122.335938 C 73.53125 122.082031 71.453125 121.796875 69.515625 121.707031 C 67.59375 121.632812 65.773438 121.621094 64.175781 121.976562 C 63.367188 122.113281 62.570312 122.363281 61.816406 122.546875 C 61.117188 122.816406 60.375 123.007812 59.769531 123.355469 C 58.527344 123.941406 57.535156 124.789062 57.402344 125.691406 C 57.296875 126.15625 57.4375 126.644531 57.660156 127.097656 C 61.355469 128.945312 65.226562 130.410156 68.441406 131.699219 C 69.75 132.207031 71.046875 132.71875 72.367188 133.210938 C 74.492188 131.21875 76.871094 129.648438 79.285156 128.472656 C 82.414062 126.933594 85.617188 125.992188 88.679688 125.335938 C 93.617188 124.328125 98.234375 124.019531 102.46875 123.980469 Z M 117.359375 180.808594 C 121.363281 177.210938 127.019531 173.515625 134.375 169.964844 C 131.035156 171.234375 127.394531 172.675781 123.113281 174.160156 C 118.40625 175.757812 113.085938 177.199219 107.761719 179.808594 C 105.125 181.117188 102.5 182.8125 100.402344 185.167969 C 98.609375 187.121094 97.332031 189.617188 96.753906 192.417969 C 98.023438 192.523438 99.3125 192.628906 100.601562 192.734375 C 103.191406 192.9375 105.78125 193.136719 108.390625 193.300781 C 108.496094 193.003906 108.628906 192.6875 108.765625 192.339844 C 109.890625 189.617188 112.238281 185.3125 117.359375 180.808594 Z M 130.628906 129.011719 C 130.714844 129.011719 130.824219 129.011719 130.910156 129.011719 C 130.660156 128.925781 130.359375 128.839844 130.101562 128.742188 C 129.359375 128.523438 128.648438 128.300781 127.945312 128.089844 C 122.207031 127.253906 114.828125 126.210938 105.464844 126.078125 C 100.535156 126.039062 95.03125 126.261719 89.140625 127.492188 C 84.320312 128.542969 79.09375 130.4375 74.78125 134.09375 C 78.613281 135.472656 82.480469 136.761719 86.386719 137.886719 C 103.039062 130.832031 118.273438 129.003906 130.628906 129.011719 Z M 133.671875 164.613281 C 133.429688 164.679688 133.210938 164.757812 132.976562 164.824219 C 130.628906 165.429688 128.347656 166 126.136719 166.566406 C 125.027344 166.882812 123.921875 167.058594 122.804688 167.238281 C 121.699219 167.421875 120.621094 167.597656 119.542969 167.777344 C 118.464844 167.960938 117.40625 168.125 116.367188 168.296875 C 115.261719 168.421875 114.230469 168.460938 113.210938 168.511719 C 111.171875 168.585938 109.179688 168.644531 107.261719 168.722656 C 103.433594 168.835938 99.832031 168.960938 96.445312 169.125 C 89.699219 169.453125 83.808594 169.964844 78.777344 170.664062 C 73.742188 171.398438 69.535156 172.3125 66.195312 173.515625 C 62.859375 174.667969 60.382812 176.191406 59.085938 177.882812 C 58.605469 178.488281 58.285156 179.097656 58.09375 179.675781 C 57.96875 182.636719 59.953125 185.253906 64.589844 186.824219 C 65.601562 187.171875 66.621094 187.460938 67.632812 187.757812 C 69.613281 184.496094 72.65625 182.292969 75.589844 180.761719 C 78.910156 179.058594 82.277344 177.988281 85.484375 177.132812 C 91.933594 175.457031 97.839844 174.71875 103.058594 173.785156 C 108.195312 172.792969 112.777344 171.472656 116.800781 170.339844 C 118.8125 169.789062 120.6875 169.203125 122.421875 168.636719 C 124.171875 168.105469 125.789062 167.558594 127.269531 167.019531 C 129.746094 166.160156 131.851562 165.351562 133.671875 164.613281 Z M 166.074219 136.65625 C 164.351562 136.460938 162.496094 136.171875 160.492188 135.769531 C 156.703125 135.058594 152.410156 133.855469 147.511719 132.757812 C 145.054688 132.3125 142.398438 131.976562 139.597656 131.542969 C 138.195312 131.410156 136.742188 131.378906 135.238281 131.273438 C 133.730469 131.238281 132.199219 131.042969 130.601562 131.101562 C 129.011719 131.140625 127.375 131.1875 125.703125 131.238281 C 124.863281 131.265625 124.007812 131.246094 123.152344 131.324219 C 122.285156 131.398438 121.417969 131.503906 120.554688 131.59375 C 118.78125 131.773438 116.984375 131.96875 115.125 132.160156 C 113.289062 132.488281 111.410156 132.824219 109.484375 133.171875 C 103.308594 134.414062 96.707031 136.164062 89.910156 138.859375 C 94.828125 140.15625 99.804688 141.253906 104.855469 142.082031 C 106.347656 142.3125 107.859375 142.542969 109.378906 142.746094 C 109.410156 142.71875 109.4375 142.6875 109.449219 142.660156 C 109.851562 142.148438 110.390625 141.71875 110.890625 141.207031 C 111.949219 140.253906 113.238281 139.378906 114.710938 138.570312 C 117.6875 137.03125 121.476562 136.039062 125.808594 135.664062 C 130.148438 135.277344 135.027344 135.441406 140.457031 135.847656 C 145.863281 136.242188 151.839844 136.90625 158.414062 137.011719 C 160.898438 137.050781 163.476562 136.972656 166.074219 136.65625 Z M 165.84375 164.496094 C 165.929688 164.410156 166.035156 164.3125 166.125 164.226562 C 165.285156 164.59375 164.402344 164.976562 163.457031 165.382812 C 158.722656 167.433594 152.464844 169.964844 144.824219 173.898438 C 141.050781 175.921875 136.875 178.277344 132.871094 181.589844 C 130.898438 183.234375 128.964844 185.167969 127.539062 187.507812 C 126.40625 189.316406 125.78125 191.425781 125.816406 193.609375 C 129.023438 193.476562 132.199219 193.242188 135.375 192.820312 C 137.144531 192.578125 138.945312 192.300781 140.753906 191.953125 C 140.871094 191.070312 141.003906 189.972656 141.234375 188.613281 C 141.484375 187.085938 141.878906 185.167969 143.027344 183.148438 C 144.179688 181.136719 146.039062 179.203125 148.40625 177.441406 C 150.761719 175.640625 153.621094 173.996094 156.769531 172.167969 L 157.347656 171.820312 L 157.644531 171.65625 C 157.664062 171.65625 157.742188 171.582031 157.847656 171.511719 C 158.203125 171.222656 158.558594 170.933594 158.933594 170.636719 C 159.289062 170.359375 159.664062 170.050781 160.039062 169.75 C 160.40625 169.445312 160.761719 169.105469 161.117188 168.769531 C 161.839844 168.125 162.621094 167.355469 163.398438 166.625 C 164.1875 165.941406 164.996094 165.226562 165.84375 164.496094 Z M 169.519531 138.367188 C 169.355469 138.398438 169.191406 138.433594 169.03125 138.464844 C 165.316406 139.15625 161.753906 139.273438 158.386719 139.234375 C 151.640625 139.078125 145.664062 138.347656 140.292969 137.914062 C 134.914062 137.464844 130.128906 137.242188 125.953125 137.519531 C 121.777344 137.808594 118.214844 138.667969 115.425781 139.996094 C 114.046875 140.695312 112.835938 141.449219 111.835938 142.304688 C 111.574219 142.542969 111.304688 142.765625 111.054688 142.976562 C 130.496094 145.546875 151.265625 145.539062 169.519531 138.367188 Z M 171.078125 135.691406 C 172.417969 135.308594 173.746094 134.816406 175.007812 134.179688 C 170.261719 134.046875 165.71875 133.265625 161.417969 132.421875 C 155.265625 131.140625 149.484375 129.523438 144.035156 128.253906 C 138.898438 127.339844 133.921875 126.722656 129.128906 126.183594 C 129.667969 126.335938 130.207031 126.480469 130.773438 126.644531 C 131.554688 126.90625 132.402344 127.175781 133.238281 127.445312 C 136.953125 128.203125 139.675781 128.878906 141.574219 129.378906 C 143.496094 129.890625 144.574219 130.214844 144.980469 130.429688 C 145.96875 130.589844 146.972656 130.753906 147.914062 130.9375 C 152.898438 132.132812 157.097656 133.402344 160.820312 134.210938 C 164.882812 135.144531 168.277344 135.597656 171.078125 135.691406 Z M 172.503906 163.574219 C 173.792969 162.234375 174.753906 161.1875 175.46875 160.40625 C 172.292969 161.859375 169.597656 163.910156 167.394531 166.066406 C 166.527344 166.808594 165.691406 167.527344 164.863281 168.230469 C 164.09375 168.960938 163.371094 169.644531 162.570312 170.359375 C 162.1875 170.695312 161.8125 171.042969 161.4375 171.386719 C 161.03125 171.707031 160.628906 172.003906 160.242188 172.300781 C 159.847656 172.601562 159.464844 172.898438 159.089844 173.195312 C 158.992188 173.253906 158.90625 173.359375 158.710938 173.457031 L 158.394531 173.628906 L 157.796875 173.976562 C 154.59375 175.757812 151.792969 177.304688 149.511719 178.933594 C 147.222656 180.550781 145.488281 182.261719 144.390625 183.964844 C 143.3125 185.660156 142.832031 187.402344 142.476562 188.863281 C 142.1875 189.972656 141.96875 190.945312 141.753906 191.753906 C 148.328125 190.453125 154.941406 188.382812 160.839844 185.179688 C 160.628906 184.734375 160.464844 184.253906 160.367188 183.753906 C 160.222656 182.886719 160.195312 182.003906 160.339844 181.214844 C 160.578125 179.625 161.148438 178.257812 161.761719 177.046875 C 163.023438 174.640625 164.476562 172.734375 165.816406 171.058594 C 168.511719 167.75 170.800781 165.390625 172.503906 163.574219 Z M 175.121094 148.859375 C 156.613281 147.605469 137.605469 159.347656 119.621094 161.484375 C 106.714844 163.035156 93.421875 162.457031 80.652344 165.027344 C 74.484375 166.25 66.84375 167.730469 62.15625 172.273438 C 60.644531 173.734375 59.527344 175.265625 58.84375 176.75 C 60.296875 175.027344 62.695312 173.515625 65.765625 172.332031 C 69.179688 170.964844 73.445312 169.933594 78.535156 169.097656 C 83.625 168.269531 89.546875 167.671875 96.347656 167.25 C 99.746094 167.046875 103.355469 166.894531 107.1875 166.75 C 109.101562 166.652344 111.082031 166.574219 113.105469 166.488281 C 114.105469 166.429688 115.144531 166.375 116.117188 166.269531 C 117.136719 166.085938 118.167969 165.902344 119.214844 165.730469 C 120.265625 165.546875 121.332031 165.363281 122.410156 165.171875 C 123.488281 165.007812 124.578125 164.816406 125.652344 164.496094 C 127.839844 163.949219 130.070312 163.359375 132.382812 162.765625 C 134.644531 162.042969 136.960938 161.292969 139.347656 160.542969 C 141.726562 159.753906 144.152344 158.867188 146.632812 158 C 155.238281 154.960938 164.554688 151.300781 175.121094 148.859375 Z M 170.886719 177.75 C 176.171875 172.40625 176.613281 167.191406 176.84375 160.195312 C 176.296875 161.1875 175.324219 162.660156 173.707031 164.613281 C 172.148438 166.574219 169.972656 169.050781 167.441406 172.332031 C 166.199219 173.976562 164.851562 175.851562 163.746094 178.039062 C 162.832031 179.867188 162.050781 182.167969 162.804688 184.054688 C 165.738281 182.273438 168.472656 180.210938 170.886719 177.75 Z M 175.902344 126.210938 C 176.171875 125.972656 176.460938 125.742188 176.757812 125.53125 C 176.066406 124.613281 175.5625 123.59375 175.21875 122.535156 C 174.824219 123.410156 174.46875 124.328125 174.140625 125.261719 C 174.738281 125.566406 175.324219 125.886719 175.902344 126.210938 Z M 161.871094 130.214844 C 166.585938 131.160156 171.5625 131.976562 176.640625 131.949219 C 160.109375 120.359375 136.605469 124 117.523438 121.035156 C 107.832031 119.523438 98.292969 117.300781 88.785156 114.980469 C 89.277344 115.164062 89.757812 115.347656 90.265625 115.539062 C 93.664062 116.808594 97.292969 118.261719 101.140625 119.523438 C 103.058594 120.121094 105.136719 120.503906 107.214844 121.035156 C 109.359375 121.417969 111.535156 121.871094 113.808594 122.191406 C 122.902344 123.59375 133.132812 124.105469 144.480469 126.097656 C 150.097656 127.386719 155.804688 128.976562 161.871094 130.214844 Z M 177 157.382812 C 177.113281 156.230469 177.277344 155.152344 177.554688 154.121094 C 174.410156 154.835938 171.484375 156.363281 168.730469 157.875 C 165.46875 159.703125 162.273438 161.609375 158.925781 162.851562 C 155.652344 163.988281 152.542969 165.066406 149.570312 166.105469 C 146.671875 167.164062 143.902344 168.164062 141.273438 169.125 C 130.949219 173.304688 123.410156 177.769531 118.386719 182.023438 C 113.316406 186.226562 110.902344 190.171875 109.574219 192.714844 C 109.4375 192.9375 109.339844 193.148438 109.234375 193.351562 C 114 193.628906 118.792969 193.78125 123.585938 193.675781 C 123.546875 192.714844 123.605469 191.753906 123.816406 190.835938 C 124.171875 189.191406 124.796875 187.671875 125.625 186.351562 C 127.261719 183.6875 129.359375 181.628906 131.457031 179.875 C 135.703125 176.421875 139.984375 174.0625 143.871094 172.0625 C 151.695312 168.152344 158.046875 165.765625 162.859375 163.898438 C 165.46875 162.929688 167.625 162.101562 169.40625 161.445312 C 171.589844 159.789062 174.109375 158.355469 177 157.382812 Z M 176.804688 110.273438 C 176.84375 107.476562 178.289062 104.886719 180.066406 102.382812 C 177.449219 101.21875 174.824219 101.59375 173.957031 105.339844 C 173.285156 108.234375 174.035156 110.574219 176.804688 110.273438 Z M 178.375 151.660156 C 178.558594 151.226562 178.769531 150.792969 178.992188 150.339844 C 167.277344 152.679688 156.941406 156.722656 147.375 160.058594 C 144.949219 160.90625 142.59375 161.773438 140.261719 162.535156 C 140.195312 162.582031 140.15625 162.609375 140.089844 162.640625 C 138.90625 163.398438 137.289062 164.226562 135.296875 165.296875 C 133.246094 166.199219 130.824219 167.402344 127.828125 168.511719 C 126.347656 169.097656 124.730469 169.695312 122.980469 170.28125 C 121.238281 170.898438 119.351562 171.523438 117.328125 172.136719 C 113.289062 173.359375 108.746094 174.746094 103.433594 175.832031 C 98.160156 176.824219 92.296875 177.613281 86.0625 179.28125 C 82.941406 180.117188 79.710938 181.15625 76.640625 182.753906 C 74.058594 184.089844 71.578125 185.910156 69.894531 188.382812 C 77.910156 190.5 86.207031 191.484375 94.472656 192.222656 C 95.136719 188.953125 96.628906 185.949219 98.726562 183.667969 C 101.121094 181.03125 103.980469 179.203125 106.773438 177.84375 C 112.421875 175.113281 117.792969 173.726562 122.46875 172.195312 C 127.058594 170.65625 131.253906 169.039062 134.941406 167.75 C 138.683594 166.574219 141.9375 165.515625 144.75 164.6875 C 150.417969 163.035156 154.324219 161.925781 156.828125 161.242188 C 157.269531 161.101562 157.691406 160.945312 158.144531 160.78125 C 161.273438 159.617188 164.3125 157.789062 167.652344 155.914062 C 170.78125 154.191406 174.253906 152.332031 178.375 151.660156 Z M 182.03125 139.800781 C 181.90625 139.609375 181.808594 139.40625 181.734375 139.1875 C 181.703125 139.070312 181.683594 139.003906 181.683594 138.972656 C 181.675781 138.945312 181.648438 138.917969 181.609375 138.859375 C 181.492188 138.648438 181.367188 138.433594 181.234375 138.242188 C 181.164062 138.128906 181.089844 137.992188 181.011719 137.867188 C 179.242188 138.867188 177.449219 139.800781 175.621094 140.660156 C 175.285156 141.628906 175.113281 142.707031 175.546875 143.660156 C 175.679688 143.949219 175.765625 144.238281 175.804688 144.515625 C 176.890625 144.574219 177.988281 144.671875 179.078125 144.816406 C 179.5 142.84375 180.550781 141.089844 182.03125 139.800781 Z M 184.910156 122.09375 C 184.910156 119.804688 184.9375 117.9375 185.109375 115.875 C 183.464844 116.089844 181.847656 116.453125 180.261719 117.03125 C 179.933594 117.15625 179.636719 117.195312 179.367188 117.183594 C 179.347656 117.273438 179.347656 117.367188 179.335938 117.472656 C 178.835938 119.628906 179.308594 121.738281 180.789062 123.304688 C 182.089844 122.785156 183.484375 122.363281 184.910156 122.09375 Z M 183.734375 144.941406 C 186.476562 144.671875 189.085938 144.46875 191.625 144.863281 C 191.03125 143.027344 189.441406 141.640625 187.265625 142.121094 C 185.457031 142.523438 184.292969 143.527344 183.734375 144.941406 Z M 190.210938 182.996094 C 190.183594 179.203125 190.355469 175.265625 191.183594 171.550781 C 189.730469 171.195312 188.277344 170.992188 186.804688 170.964844 C 187.75 174.863281 187.988281 179.011719 187.949219 182.996094 C 188.824219 182.996094 189.546875 182.996094 190.210938 182.996094 Z M 191.03125 197.316406 C 190.703125 194.167969 190.433594 191.019531 190.308594 187.863281 C 190.308594 187.738281 190.308594 187.605469 190.296875 187.488281 C 189.546875 187.488281 188.652344 187.488281 187.816406 187.488281 C 187.796875 187.605469 187.796875 187.738281 187.796875 187.863281 C 187.632812 190.90625 187.335938 193.957031 186.988281 196.996094 C 188.414062 197.027344 189.730469 197.121094 191.03125 197.316406 Z M 195.496094 303.082031 C 191.300781 301.792969 186.863281 302.390625 182.542969 302.957031 C 183.996094 306.375 186.121094 309.519531 189.058594 312.3125 C 191.914062 309.597656 194.023438 306.460938 195.496094 303.082031 Z M 193.097656 216.292969 C 192.742188 211.511719 192.128906 206.765625 191.558594 202 C 189.972656 201.675781 187.738281 201.550781 186.449219 201.511719 C 185.851562 206.304688 185.238281 211.105469 184.917969 215.917969 C 187.660156 215.851562 190.414062 215.734375 193.097656 216.292969 Z M 192.886719 253.355469 C 192.753906 249.234375 192.859375 245.109375 193.011719 240.960938 C 190.414062 241.027344 187.824219 241.230469 185.253906 241.585938 C 185.21875 241.585938 185.207031 241.585938 185.1875 241.585938 C 185.285156 245.644531 185.292969 249.6875 185.109375 253.730469 C 187.679688 253.105469 190.328125 252.816406 192.886719 253.355469 Z M 194.339844 266.570312 C 193.773438 263.71875 193.398438 260.910156 193.175781 258.082031 C 193.128906 258.0625 193.078125 258.0625 193.042969 258.042969 C 190.296875 257.136719 187.46875 257.667969 184.773438 258.484375 C 184.535156 261.007812 184.214844 263.558594 183.734375 266.117188 C 187.257812 265.625 190.953125 265.636719 194.339844 266.570312 Z M 193.175781 236.464844 C 193.347656 231.914062 193.523438 227.324219 193.445312 222.65625 C 193.425781 222.097656 193.386719 221.546875 193.367188 220.988281 C 190.566406 220.144531 187.613281 220.335938 184.707031 220.421875 C 184.699219 221.152344 184.667969 221.902344 184.667969 222.65625 C 184.699219 227.5625 184.910156 232.375 185.054688 237.121094 C 187.75 236.78125 190.460938 236.542969 193.175781 236.464844 Z M 193.617188 99.792969 C 193.667969 99.765625 193.726562 99.738281 193.773438 99.707031 C 192.675781 96.347656 183.15625 97.640625 183.332031 99.015625 C 183.4375 99.074219 183.5625 99.167969 183.667969 99.246094 C 186.882812 98.207031 190.222656 98.851562 193.445312 99.957031 C 193.503906 99.917969 193.5625 99.851562 193.617188 99.792969 Z M 194.390625 116.617188 C 194.390625 116.414062 194.417969 116.242188 194.464844 116.078125 C 192.839844 115.875 191.222656 115.730469 189.625 115.683594 C 189.472656 117.4375 189.433594 120.089844 189.402344 121.6875 C 190.144531 121.707031 190.867188 121.765625 191.589844 121.871094 C 191.695312 121.652344 191.839844 121.4375 192.050781 121.277344 C 193.53125 120.089844 194.339844 118.523438 194.390625 116.617188 Z M 196.382812 156.875 C 196.015625 154.640625 195.332031 152.46875 193.9375 150.4375 C 193.886719 150.339844 193.859375 150.273438 193.820312 150.195312 C 190.867188 148.800781 187.765625 148.992188 184.542969 149.339844 C 184.535156 149.6875 184.410156 150.0625 184.160156 150.4375 C 182.984375 152.160156 182.3125 153.996094 181.90625 155.882812 C 186.671875 152.917969 192.484375 153.148438 196.382812 156.875 Z M 193.917969 132.351562 C 194.640625 131.667969 195.378906 131.042969 196.121094 130.410156 C 194.445312 124.21875 184.910156 125.671875 179.960938 128.839844 C 181.433594 129.898438 182.839844 131.074219 184.1875 132.351562 C 184.839844 132.996094 184.976562 133.75 184.785156 134.421875 C 184.785156 134.691406 184.746094 134.960938 184.640625 135.203125 C 185.148438 136.066406 185.6875 136.867188 186.015625 137.820312 C 186.363281 137.75 186.71875 137.683594 187.074219 137.644531 C 187.691406 137.589844 188.257812 137.589844 188.824219 137.644531 C 189.816406 136.492188 190.808594 135.355469 191.453125 133.960938 C 191.789062 133.179688 192.695312 132.824219 193.523438 132.863281 C 193.617188 132.699219 193.753906 132.527344 193.917969 132.351562 Z M 195.0625 162.582031 C 195.035156 162.523438 195.003906 162.457031 194.964844 162.398438 C 192.453125 156.441406 185.910156 157.625 182.148438 161.476562 C 183.464844 163.003906 184.515625 164.679688 185.3125 166.507812 C 187.738281 166.402344 190.144531 166.644531 192.484375 167.238281 C 193.148438 165.59375 193.996094 164.015625 195.0625 162.582031 Z M 198.238281 285.933594 C 197.980469 281.324219 197.101562 276.695312 195.773438 272.316406 C 195.71875 272.113281 195.660156 271.882812 195.601562 271.667969 C 195.417969 271.640625 195.246094 271.613281 195.035156 271.523438 C 191.183594 269.996094 186.746094 270.023438 182.707031 270.832031 C 182.570312 271.332031 182.464844 271.824219 182.328125 272.316406 C 181.144531 276.636719 180.308594 281.140625 180.011719 285.605469 C 186.101562 285.632812 192.175781 285.277344 198.238281 285.933594 Z M 196.523438 111.855469 C 197.457031 109.410156 196.113281 107.136719 194.601562 105.144531 C 194.496094 105.117188 194.390625 105.097656 194.28125 105.058594 C 191.289062 103.867188 187.816406 102.402344 184.679688 103.644531 C 182.839844 105.984375 180.367188 108.832031 181.597656 111.929688 C 186.476562 110.746094 191.558594 111.152344 196.523438 111.855469 Z M 196.976562 298.828125 C 197.726562 296.113281 198.132812 293.285156 198.246094 290.40625 C 192.175781 289.636719 186.042969 290.101562 179.914062 290.101562 C 180.011719 293.015625 180.386719 295.894531 181.089844 298.644531 C 186.390625 298.019531 191.808594 297.105469 196.976562 298.828125 Z M 199.941406 127.628906 C 201.25 126.769531 202.597656 126.011719 203.984375 125.316406 C 202.847656 122.09375 201.472656 118.996094 198.863281 116.898438 C 198.75 119.3125 197.871094 121.679688 196.253906 123.460938 C 197.84375 124.421875 199.132812 125.78125 199.941406 127.628906 Z M 202.550781 143.660156 C 203.003906 142.707031 202.820312 141.628906 202.492188 140.660156 C 199.960938 139.472656 197.488281 138.15625 195.070312 136.683594 C 194.550781 137.675781 193.886719 138.570312 193.175781 139.445312 C 194.832031 140.832031 195.929688 142.929688 196.285156 145.324219 C 198.277344 144.875 200.289062 144.625 202.308594 144.5 C 202.359375 144.238281 202.433594 143.949219 202.550781 143.660156 Z M 201.308594 110.265625 C 204.273438 110.542969 205.0625 107.6875 203.972656 104.742188 C 202.761719 101.460938 200.421875 101.238281 198.007812 102.375 C 199.808594 104.855469 201.261719 107.464844 201.308594 110.265625 Z M 215.386719 183.820312 C 215.984375 181.992188 215.253906 179.789062 214.367188 178.039062 C 213.261719 175.851562 211.914062 173.976562 210.664062 172.332031 C 208.132812 169.050781 205.964844 166.574219 204.40625 164.613281 C 202.761719 162.609375 201.78125 161.136719 201.25 160.15625 C 201.742188 166.449219 201.695312 172.78125 207.226562 177.75 C 209.769531 180.039062 212.492188 182.0625 215.386719 183.820312 Z M 236.367188 191.828125 C 236.15625 191.011719 235.917969 190.019531 235.636719 188.863281 C 235.273438 187.402344 234.800781 185.660156 233.710938 183.964844 C 232.605469 182.261719 230.882812 180.550781 228.59375 178.933594 C 226.320312 177.304688 223.519531 175.757812 220.316406 173.976562 L 219.710938 173.628906 L 219.402344 173.457031 C 219.199219 173.359375 219.113281 173.253906 219.027344 173.195312 C 218.652344 172.898438 218.257812 172.601562 217.871094 172.300781 C 217.476562 172.003906 217.082031 171.707031 216.667969 171.386719 C 216.300781 171.042969 215.925781 170.695312 215.53125 170.359375 C 214.742188 169.644531 214.023438 168.960938 213.242188 168.230469 C 212.414062 167.527344 211.578125 166.808594 210.710938 166.066406 C 208.507812 163.910156 205.8125 161.859375 202.636719 160.40625 C 203.359375 161.1875 204.320312 162.234375 205.601562 163.574219 C 207.3125 165.390625 209.605469 167.75 212.300781 171.058594 C 213.628906 172.734375 215.089844 174.640625 216.339844 177.046875 C 216.957031 178.257812 217.523438 179.625 217.765625 181.214844 C 217.917969 182.003906 217.890625 182.886719 217.738281 183.753906 C 217.660156 184.179688 217.523438 184.582031 217.359375 184.988281 C 223.25 188.269531 229.699219 190.511719 236.367188 191.828125 Z M 247.332031 126.644531 C 247.898438 126.480469 248.425781 126.335938 248.976562 126.183594 C 244.183594 126.722656 239.21875 127.339844 234.078125 128.253906 C 228.621094 129.523438 222.847656 131.140625 216.6875 132.421875 C 212.386719 133.265625 207.851562 134.046875 203.109375 134.179688 C 204.359375 134.816406 205.679688 135.308594 207.023438 135.683594 C 209.816406 135.597656 213.234375 135.144531 217.285156 134.210938 C 221 133.402344 225.203125 132.132812 230.199219 130.9375 C 231.144531 130.753906 232.125 130.589844 233.136719 130.429688 C 233.519531 130.214844 234.597656 129.890625 236.53125 129.378906 C 238.4375 128.878906 241.160156 128.203125 244.875 127.445312 C 245.714844 127.175781 246.550781 126.90625 247.332031 126.644531 Z M 252.285156 193.523438 C 252.316406 191.367188 251.691406 189.289062 250.554688 187.507812 C 249.140625 185.167969 247.214844 183.234375 245.230469 181.589844 C 241.238281 178.277344 237.050781 175.921875 233.28125 173.898438 C 225.648438 169.964844 219.382812 167.433594 214.648438 165.382812 C 213.695312 164.976562 212.820312 164.59375 211.980469 164.226562 C 212.078125 164.3125 212.183594 164.410156 212.269531 164.496094 C 213.109375 165.226562 213.914062 165.941406 214.703125 166.625 C 215.484375 167.355469 216.265625 168.125 216.984375 168.769531 C 217.34375 169.105469 217.707031 169.445312 218.0625 169.75 C 218.4375 170.050781 218.816406 170.359375 219.171875 170.636719 C 219.546875 170.933594 219.910156 171.222656 220.269531 171.511719 C 220.375 171.582031 220.449219 171.65625 220.460938 171.65625 L 220.75 171.820312 L 221.34375 172.167969 C 224.492188 173.996094 227.351562 175.640625 229.699219 177.441406 C 232.066406 179.203125 233.914062 181.136719 235.078125 183.148438 C 236.234375 185.167969 236.617188 187.085938 236.878906 188.613281 C 237.101562 190.019531 237.253906 191.125 237.371094 192.023438 C 239.140625 192.359375 240.941406 192.628906 242.730469 192.820312 C 245.90625 193.175781 249.101562 193.386719 252.285156 193.523438 Z M 267.144531 143.082031 C 266.859375 142.824219 266.558594 142.574219 266.28125 142.304688 C 265.277344 141.464844 264.058594 140.695312 262.679688 139.996094 C 259.878906 138.667969 256.328125 137.808594 252.152344 137.519531 C 247.976562 137.242188 243.191406 137.464844 237.820312 137.914062 C 232.441406 138.347656 226.464844 139.078125 219.730469 139.234375 C 216.359375 139.273438 212.789062 139.15625 209.085938 138.464844 C 208.902344 138.433594 208.738281 138.398438 208.554688 138.367188 C 226.765625 145.519531 247.761719 145.855469 267.144531 143.082031 Z M 268.878906 193.378906 C 268.78125 193.167969 268.675781 192.9375 268.542969 192.714844 C 267.203125 190.171875 264.796875 186.226562 259.714844 182.023438 C 254.683594 177.769531 247.167969 173.304688 236.820312 169.125 C 234.195312 168.164062 231.441406 167.164062 228.523438 166.105469 C 225.570312 165.066406 222.453125 163.988281 219.191406 162.851562 C 215.832031 161.609375 212.644531 159.703125 209.382812 157.875 C 206.5625 156.335938 203.578125 154.777344 200.375 154.074219 C 200.632812 155.152344 200.828125 156.25 200.960938 157.335938 C 203.90625 158.308594 206.476562 159.78125 208.699219 161.445312 C 210.488281 162.101562 212.644531 162.929688 215.253906 163.898438 C 220.054688 165.765625 226.40625 168.152344 234.222656 172.0625 C 238.101562 174.0625 242.402344 176.421875 246.648438 179.875 C 248.753906 181.628906 250.851562 183.6875 252.480469 186.351562 C 253.308594 187.671875 253.933594 189.191406 254.296875 190.835938 C 254.511719 191.722656 254.566406 192.65625 254.539062 193.601562 C 259.3125 193.714844 264.105469 193.628906 268.878906 193.378906 Z M 275.902344 141.601562 C 277.164062 141.359375 281.609375 140.265625 287.519531 138.589844 C 280.957031 136.039062 274.585938 134.382812 268.628906 133.171875 C 266.695312 132.824219 264.808594 132.488281 262.980469 132.160156 C 261.121094 131.96875 259.332031 131.773438 257.5625 131.59375 C 256.695312 131.503906 255.808594 131.398438 254.953125 131.324219 C 254.097656 131.246094 253.25 131.265625 252.410156 131.238281 C 250.726562 131.1875 249.101562 131.140625 247.511719 131.101562 C 245.90625 131.042969 244.386719 131.238281 242.863281 131.273438 C 241.375 131.378906 239.917969 131.410156 238.496094 131.542969 C 235.703125 131.976562 233.058594 132.3125 230.605469 132.757812 C 225.707031 133.855469 221.402344 135.058594 217.613281 135.769531 C 215.609375 136.171875 213.753906 136.460938 212.03125 136.65625 C 214.636719 136.972656 217.21875 137.050781 219.699219 137.011719 C 226.273438 136.90625 232.25 136.242188 237.660156 135.847656 C 243.078125 135.441406 247.957031 135.277344 252.304688 135.664062 C 256.636719 136.039062 260.417969 137.03125 263.402344 138.570312 C 264.867188 139.378906 266.15625 140.253906 267.203125 141.207031 C 267.714844 141.71875 268.253906 142.148438 268.648438 142.660156 C 268.707031 142.71875 268.742188 142.777344 268.792969 142.84375 C 271.1875 142.46875 273.574219 142.0625 275.902344 141.601562 Z M 277.511719 192.734375 C 278.78125 192.609375 280.070312 192.503906 281.359375 192.398438 C 280.765625 189.597656 279.484375 187.113281 277.703125 185.167969 C 275.605469 182.8125 272.988281 181.117188 270.351562 179.808594 C 265.019531 177.199219 259.695312 175.757812 255 174.160156 C 250.71875 172.675781 247.082031 171.234375 243.742188 169.964844 C 251.09375 173.515625 256.753906 177.210938 260.746094 180.808594 C 265.875 185.3125 268.222656 189.617188 269.332031 192.339844 C 269.496094 192.6875 269.621094 193.011719 269.726562 193.3125 C 272.324219 193.167969 274.921875 192.964844 277.511719 192.734375 Z M 287.847656 115.539062 C 288.328125 115.355469 288.769531 115.191406 289.234375 115.011719 C 278.859375 117.5625 268.464844 119.929688 257.859375 121.410156 C 239.46875 123.96875 217.332031 120.824219 201.472656 131.949219 C 206.542969 131.976562 211.519531 131.160156 216.226562 130.214844 C 222.308594 128.976562 228.015625 127.386719 233.625 126.097656 C 244.980469 124.105469 255.210938 123.59375 264.296875 122.191406 C 266.578125 121.871094 268.742188 121.417969 270.890625 121.035156 C 272.96875 120.503906 275.058594 120.121094 276.972656 119.523438 C 280.820312 118.261719 284.429688 116.808594 287.847656 115.539062 Z M 302.9375 133.777344 C 298.710938 130.320312 293.660156 128.511719 288.964844 127.492188 C 283.082031 126.261719 277.570312 126.039062 272.640625 126.066406 C 263.285156 126.210938 255.894531 127.253906 250.160156 128.089844 C 249.457031 128.300781 248.753906 128.523438 247.984375 128.742188 C 247.734375 128.839844 247.457031 128.925781 247.195312 129.011719 C 247.28125 129.011719 247.386719 129.011719 247.484375 129.011719 C 259.660156 129.003906 274.613281 130.765625 290.996094 137.570312 C 294.710938 136.472656 298.808594 135.191406 302.9375 133.777344 Z M 308.316406 188.539062 C 306.644531 185.988281 304.09375 184.121094 301.476562 182.753906 C 298.40625 181.15625 295.171875 180.117188 292.054688 179.28125 C 285.808594 177.613281 279.945312 176.824219 274.683594 175.832031 C 269.359375 174.746094 264.828125 173.359375 260.785156 172.136719 C 258.753906 171.523438 256.867188 170.898438 255.136719 170.28125 C 253.382812 169.695312 251.765625 169.097656 250.285156 168.511719 C 247.28125 167.402344 244.855469 166.199219 242.796875 165.296875 C 240.804688 164.226562 239.199219 163.398438 238.003906 162.640625 C 237.957031 162.609375 237.910156 162.582031 237.851562 162.535156 C 235.511719 161.773438 233.164062 160.90625 230.71875 160.058594 C 221.152344 156.722656 210.796875 152.667969 199.054688 150.339844 C 199.269531 150.78125 199.460938 151.214844 199.625 151.648438 C 203.792969 152.304688 207.292969 154.179688 210.460938 155.914062 C 213.800781 157.789062 216.839844 159.617188 219.96875 160.78125 C 220.410156 160.945312 220.835938 161.101562 221.269531 161.242188 C 223.789062 161.925781 227.699219 163.035156 233.335938 164.6875 C 236.175781 165.515625 239.417969 166.574219 243.164062 167.75 C 246.847656 169.039062 251.046875 170.65625 255.644531 172.195312 C 260.3125 173.726562 265.691406 175.113281 271.34375 177.84375 C 274.125 179.203125 276.980469 181.03125 279.378906 183.667969 C 281.464844 185.949219 282.976562 188.941406 283.632812 192.203125 C 291.890625 191.519531 300.367188 190.769531 308.316406 188.539062 Z M 320.328125 181.597656 C 320.300781 180.617188 320.117188 179.25 319.011719 177.882812 C 317.71875 176.191406 315.257812 174.667969 311.917969 173.515625 C 308.578125 172.3125 304.363281 171.398438 299.328125 170.664062 C 294.285156 169.964844 288.414062 169.453125 281.660156 169.125 C 278.273438 168.960938 274.683594 168.835938 270.84375 168.722656 C 268.917969 168.644531 266.933594 168.585938 264.894531 168.511719 C 263.882812 168.460938 262.835938 168.421875 261.738281 168.296875 C 260.6875 168.125 259.640625 167.960938 258.5625 167.777344 C 257.484375 167.597656 256.40625 167.421875 255.300781 167.238281 C 254.191406 167.058594 253.085938 166.882812 251.96875 166.566406 C 249.753906 166 247.464844 165.429688 245.125 164.824219 C 244.90625 164.757812 244.683594 164.6875 244.441406 164.613281 C 246.273438 165.363281 248.371094 166.160156 250.832031 167.019531 C 252.316406 167.558594 253.933594 168.105469 255.683594 168.636719 C 257.425781 169.203125 259.300781 169.789062 261.304688 170.339844 C 265.335938 171.472656 269.917969 172.792969 275.058594 173.785156 C 280.265625 174.71875 286.183594 175.457031 292.621094 177.132812 C 295.824219 177.988281 299.195312 179.058594 302.523438 180.761719 C 305.488281 182.3125 308.558594 184.535156 310.53125 187.863281 C 311.542969 187.546875 312.523438 187.199219 313.515625 186.824219 C 316.210938 185.792969 319.375 184.128906 320.328125 181.597656 Z M 320.328125 178.441406 C 320.195312 177.980469 320 177.519531 319.710938 177.019531 C 318.222656 174.429688 316.210938 172.03125 313.589844 170.492188 C 308.671875 167.625 303.035156 165.96875 297.460938 165.027344 C 284.574219 162.824219 271.457031 163.035156 258.484375 161.484375 C 240.496094 159.347656 221.5 147.605469 202.984375 148.859375 C 213.539062 151.300781 222.855469 154.960938 231.46875 158 C 233.953125 158.867188 236.378906 159.753906 238.746094 160.542969 C 241.140625 161.292969 243.472656 162.042969 245.734375 162.765625 C 248.03125 163.359375 250.265625 163.949219 252.449219 164.496094 C 253.527344 164.816406 254.625 165.007812 255.703125 165.171875 C 256.78125 165.363281 257.847656 165.546875 258.890625 165.730469 C 259.9375 165.902344 260.976562 166.085938 261.996094 166.269531 C 262.96875 166.375 264 166.429688 265 166.488281 C 267.019531 166.574219 269.003906 166.652344 270.910156 166.75 C 274.757812 166.894531 278.367188 167.046875 281.765625 167.25 C 288.558594 167.671875 294.476562 168.269531 299.570312 169.097656 C 304.660156 169.933594 308.933594 170.964844 312.351562 172.332031 C 315.777344 173.648438 318.363281 175.371094 319.730469 177.363281 C 320 177.710938 320.183594 178.066406 320.328125 178.441406 Z M 320.589844 126.75 C 320.703125 126.394531 320.78125 126.050781 320.703125 125.691406 C 320.570312 124.789062 319.578125 123.941406 318.335938 123.355469 C 317.738281 123.007812 316.988281 122.835938 316.285156 122.546875 C 315.527344 122.363281 314.746094 122.113281 313.917969 121.976562 C 312.332031 121.621094 310.523438 121.632812 308.585938 121.707031 C 306.652344 121.796875 304.574219 122.082031 302.320312 122.335938 C 300.050781 122.652344 297.671875 122.710938 295.140625 122.863281 C 290.109375 123.113281 284.515625 123.355469 278.367188 123.777344 C 277.464844 123.835938 276.550781 123.914062 275.632812 123.980469 C 279.878906 124.019531 284.488281 124.328125 289.433594 125.335938 C 292.484375 125.992188 295.691406 126.933594 298.820312 128.472656 C 301.109375 129.601562 303.390625 131.054688 305.429688 132.910156 C 310.800781 131.003906 316.101562 128.925781 320.589844 126.75 Z M 322.175781 125.960938 C 329.671875 122.113281 334.320312 118.070312 331.894531 114.492188 C 329.019531 110.238281 324.542969 108.726562 319.519531 108.589844 C 315.832031 108.753906 311.492188 109.5625 306.488281 110.949219 C 301.234375 112.429688 295.285156 114.605469 288.519531 117.273438 C 285.125 118.589844 281.542969 120.074219 277.570312 121.410156 C 277.25 121.496094 276.925781 121.59375 276.597656 121.6875 C 277.136719 121.652344 277.675781 121.601562 278.195312 121.574219 C 284.410156 121.167969 290.011719 120.988281 295.046875 120.792969 C 297.546875 120.660156 299.933594 120.640625 302.121094 120.371094 C 304.351562 120.148438 306.480469 119.898438 308.511719 119.832031 C 310.53125 119.792969 312.496094 119.824219 314.273438 120.265625 C 315.1875 120.449219 315.988281 120.738281 316.796875 120.957031 C 317.585938 121.285156 318.363281 121.515625 319.066406 121.949219 C 319.78125 122.296875 320.433594 122.785156 321.003906 123.324219 C 321.558594 123.914062 322.042969 124.644531 322.128906 125.472656 Z M 316.480469 104.425781 C 323.207031 103.894531 337.074219 106.234375 336.851562 115.761719 C 336.640625 124.210938 326.601562 128.820312 320.078125 131.9375 C 307.25 138.019531 293.6875 142.738281 279.742188 145.433594 C 256.289062 149.953125 229.929688 151.496094 207.257812 142.6875 C 207.226562 143.296875 207.121094 143.902344 206.957031 144.5 C 215.714844 144.941406 224.578125 147.664062 232.683594 150.175781 C 247.175781 154.671875 260.628906 157.5 275.867188 158.40625 C 288.472656 159.136719 305.027344 159.058594 315.851562 166.613281 C 321.320312 170.414062 328.671875 178.757812 323.351562 185.652344 C 316.015625 195.128906 297.355469 195.332031 286.480469 196.382812 C 272.027344 197.777344 257.214844 199.25 242.730469 197.316406 C 229.988281 195.621094 217.253906 191.933594 207.160156 183.621094 C 203.03125 180.222656 198.699219 176.015625 197.515625 170.558594 C 197.304688 169.636719 197.171875 168.691406 197.082031 167.75 C 192.511719 176.605469 194.734375 190.203125 195.707031 199.066406 C 197.199219 212.511719 198.027344 225.128906 197.277344 238.699219 C 196.765625 247.90625 195.976562 257.898438 198.785156 266.820312 C 200.691406 272.902344 202.367188 279.136719 202.683594 285.527344 C 203.242188 297.191406 200.441406 308.308594 191.558594 316.113281 C 191.183594 317.007812 190.144531 317.730469 189.058594 317.652344 C 187.960938 317.730469 186.929688 317.007812 186.554688 316.113281 C 177.863281 308.460938 174.449219 297.019531 175.417969 285.527344 C 175.976562 279.011719 177.75 273.113281 179.316406 266.820312 C 181.65625 257.550781 181.367188 248.160156 180.820312 238.699219 C 180.019531 225.109375 180.992188 212.511719 182.40625 199.066406 C 183.332031 190.105469 185.640625 176.441406 180.953125 167.585938 C 180.789062 169.203125 180.519531 170.800781 179.992188 172.359375 C 178.402344 177.152344 174.359375 180.984375 170.492188 183.964844 C 159.714844 192.261719 146.5 196.382812 133.054688 197.566406 C 118.464844 198.855469 103.808594 197.730469 89.277344 196.140625 C 78.910156 195.003906 61.730469 194.679688 54.753906 185.652344 C 49.257812 178.527344 57.402344 168.75 63.78125 165.710938 C 76.621094 159.617188 90.816406 159.109375 104.761719 158.25 C 119.945312 157.328125 133.082031 153.804688 147.539062 149.53125 C 155.054688 147.308594 163.140625 144.949219 171.175781 144.535156 C 170.992188 143.921875 170.886719 143.304688 170.859375 142.6875 C 147.433594 151.8125 119.621094 150.273438 95.734375 144.875 C 81.789062 141.71875 67.917969 137.210938 55.234375 130.542969 C 50.097656 127.847656 39.867188 122.59375 41.347656 115.164062 C 43.367188 105.011719 56.015625 103.375 64.359375 104.78125 C 79.960938 107.40625 95.070312 112.449219 110.632812 115.328125 C 129.050781 118.714844 151.925781 116.15625 170.050781 123.402344 C 170.492188 122.199219 170.992188 121.007812 171.550781 119.859375 C 170.328125 119.253906 169.085938 118.714844 167.847656 118.207031 C 166.625 117.800781 165.402344 117.347656 164.238281 116.789062 C 161.945312 115.703125 163.59375 111.796875 165.980469 112.679688 C 167.191406 113.144531 168.402344 113.605469 169.597656 114.085938 C 171.003906 114.539062 172.425781 114.914062 173.839844 115.300781 C 174.003906 115.347656 174.140625 115.40625 174.273438 115.472656 C 174.515625 115.191406 174.765625 114.941406 175.023438 114.664062 C 170.617188 113.875 168.085938 109.265625 169.617188 104.144531 C 171.136719 99.09375 174.917969 96.8125 179.039062 97.398438 C 180.933594 91.558594 194.417969 91.414062 197.699219 97.773438 C 202.558594 96.425781 207.59375 98.628906 208.632812 104.742188 C 209.46875 109.707031 207.324219 114 203.136719 114.710938 C 203.378906 114.972656 203.609375 115.203125 203.820312 115.472656 C 203.972656 115.40625 204.109375 115.347656 204.273438 115.300781 C 205.679688 114.914062 207.101562 114.539062 208.507812 114.085938 C 209.710938 113.605469 210.921875 113.144531 212.136719 112.679688 C 214.511719 111.796875 216.148438 115.703125 213.867188 116.789062 C 212.683594 117.347656 211.492188 117.800781 210.257812 118.207031 C 209.007812 118.714844 207.777344 119.253906 206.5625 119.859375 C 207.132812 121.035156 207.621094 122.246094 208.09375 123.488281 C 213.78125 121.277344 219.910156 120.042969 226.109375 119.371094 C 240.871094 117.773438 255.539062 117.832031 270.160156 114.789062 C 285.402344 111.632812 300.9375 105.636719 316.480469 104.425781 " fill-opacity="1" fill-rule="nonzero"/></svg>