<svg xmlns="http://www.w3.org/2000/svg" xmlns:xlink="http://www.w3.org/1999/xlink" width="500" zoomAndPan="magnify" viewBox="0 0 375 374.999991" height="500" preserveAspectRatio="xMidYMid meet" version="1.0"><defs><clipPath id="1eab61048b"><path d="M 187.5 0 C 83.945312 0 0 83.945312 0 187.5 C 0 291.054688 83.945312 375 187.5 375 C 291.054688 375 375 291.054688 375 187.5 C 375 83.945312 291.054688 0 187.5 0 Z M 187.5 0 " clip-rule="nonzero"/></clipPath><clipPath id="faab54c6e0"><path d="M 190 198 L 210 198 L 210 311.785156 L 190 311.785156 Z M 190 198 " clip-rule="nonzero"/></clipPath><clipPath id="ab36bef8ec"><path d="M 256 133 L 298 133 L 298 311.785156 L 256 311.785156 Z M 256 133 " clip-rule="nonzero"/></clipPath><clipPath id="2a9cbb977c"><path d="M 165 199 L 185 199 L 185 311.785156 L 165 311.785156 Z M 165 199 " clip-rule="nonzero"/></clipPath><clipPath id="4dc4bf3708"><path d="M 77 133 L 122 133 L 122 311.785156 L 77 311.785156 Z M 77 133 " clip-rule="nonzero"/></clipPath><clipPath id="d8408a1955"><path d="M 117 63.535156 L 258 63.535156 L 258 204 L 117 204 Z M 117 63.535156 " clip-rule="nonzero"/></clipPath></defs><g clip-path="url(#1eab61048b)"><rect x="-37.5" width="450" fill="#fec743" y="-37.499999" height="449.999989" fill-opacity="1"/></g><path fill="#ffffff" d="M 214.152344 205.519531 C 212.90625 205.519531 211.902344 204.511719 211.902344 203.265625 L 211.902344 196.5 C 211.902344 195.253906 212.90625 194.25 214.152344 194.25 C 215.398438 194.25 216.40625 195.253906 216.40625 196.5 L 216.40625 203.265625 C 216.417969 204.511719 215.398438 205.519531 214.152344 205.519531 Z M 214.152344 205.519531 " fill-opacity="1" fill-rule="nonzero"/><path fill="#ffffff" d="M 250.226562 205.519531 C 248.980469 205.519531 247.972656 204.511719 247.972656 203.265625 L 247.972656 160.441406 C 247.972656 159.195312 248.980469 158.191406 250.226562 158.191406 C 251.472656 158.191406 252.476562 159.195312 252.476562 160.441406 L 252.476562 203.265625 C 252.476562 204.511719 251.472656 205.519531 250.226562 205.519531 Z M 250.226562 205.519531 " fill-opacity="1" fill-rule="nonzero"/><path fill="#ffffff" d="M 232.191406 203.265625 C 230.941406 203.265625 229.9375 202.261719 229.9375 201.015625 L 229.9375 185.242188 C 229.9375 183.996094 230.941406 182.992188 232.191406 182.992188 C 233.4375 182.992188 234.441406 183.996094 234.441406 185.242188 L 234.441406 201.015625 C 234.441406 202.261719 233.4375 203.265625 232.191406 203.265625 Z M 232.191406 203.265625 " fill-opacity="1" fill-rule="nonzero"/><g clip-path="url(#faab54c6e0)"><path fill="#ffffff" d="M 207.398438 311.457031 C 206.152344 311.457031 205.148438 310.453125 205.148438 309.203125 L 205.148438 282.203125 C 200.417969 278.410156 196.589844 272.941406 194.300781 266.699219 C 190.980469 257.628906 190.75 247.859375 190.800781 239.402344 C 190.863281 228.640625 191.742188 217.90625 192.59375 207.515625 C 192.773438 205.289062 192.964844 203.0625 193.140625 200.835938 C 193.242188 199.589844 194.351562 198.675781 195.570312 198.765625 C 196.816406 198.867188 197.734375 199.949219 197.644531 201.195312 C 197.464844 203.433594 197.289062 205.660156 197.097656 207.898438 C 196.246094 218.199219 195.378906 228.84375 195.316406 239.441406 C 195.265625 247.492188 195.480469 256.789062 198.546875 265.160156 C 200.683594 270.996094 204.308594 276.007812 208.75 279.289062 L 209.664062 279.964844 L 209.664062 309.203125 C 209.652344 310.453125 208.644531 311.457031 207.398438 311.457031 Z M 207.398438 311.457031 " fill-opacity="1" fill-rule="nonzero"/></g><g clip-path="url(#ab36bef8ec)"><path fill="#ffffff" d="M 270.511719 311.457031 C 269.265625 311.457031 268.261719 310.453125 268.261719 309.203125 L 268.261719 282.800781 L 269.75 282.265625 C 271.554688 281.605469 273.285156 280.777344 274.875 279.796875 C 280.203125 276.515625 284.746094 271.390625 287.65625 265.375 C 294.015625 252.273438 293.648438 236.910156 292.734375 222.308594 C 292.414062 217.335938 292.160156 212.375 291.90625 207.402344 C 291.753906 204.566406 291.613281 201.742188 291.460938 198.90625 C 291.410156 197.925781 291.421875 196.601562 291.449219 195.089844 C 291.523438 190.902344 291.675781 182.203125 288.765625 180.933594 C 287.632812 180.4375 286.628906 180.460938 285.609375 181.007812 C 281.894531 182.980469 278.832031 191.109375 277.925781 195.980469 C 277.226562 199.730469 277.496094 204.804688 277.761719 209.726562 C 277.964844 213.582031 278.167969 217.5625 277.953125 221.148438 C 277.710938 225.015625 274.457031 228.058594 270.523438 228.058594 L 268.617188 228.058594 L 268.300781 226.175781 C 266.570312 215.933594 266.289062 201.195312 266.074219 190.433594 L 266.011719 187.535156 C 265.90625 182.535156 266.175781 177.550781 266.429688 172.726562 C 266.796875 165.847656 267.140625 159.347656 266.53125 152.65625 L 266.390625 151.09375 C 266.035156 146.832031 265.679688 142.417969 262.96875 139.761719 C 261.582031 138.398438 260.183594 137.800781 258.863281 137.941406 C 257.613281 138.082031 256.507812 137.179688 256.382812 135.945312 C 256.253906 134.710938 257.144531 133.589844 258.378906 133.464844 C 260.273438 133.261719 263.148438 133.628906 266.136719 136.554688 C 270.042969 140.394531 270.511719 146.132812 270.894531 150.738281 L 271.019531 152.261719 C 271.667969 159.285156 271.300781 166.253906 270.933594 172.996094 C 270.675781 177.726562 270.421875 182.625 270.511719 187.46875 L 270.5625 190.382812 C 270.753906 200.136719 271.007812 213.199219 272.34375 222.957031 C 272.96875 222.472656 273.386719 221.734375 273.425781 220.910156 C 273.628906 217.578125 273.425781 213.722656 273.234375 209.996094 C 272.96875 204.820312 272.6875 199.476562 273.476562 195.203125 C 273.5 195.0625 276.183594 180.933594 283.472656 177.066406 C 285.710938 175.871094 288.167969 175.792969 290.546875 176.835938 C 296.21875 179.316406 296.050781 188.5 295.9375 195.203125 C 295.914062 196.589844 295.886719 197.796875 295.9375 198.6875 C 296.089844 201.523438 296.242188 204.359375 296.382812 207.199219 C 296.636719 212.15625 296.890625 217.105469 297.210938 222.054688 C 298.164062 237.253906 298.53125 253.277344 291.691406 267.371094 C 288.40625 274.136719 283.269531 279.925781 277.214844 283.652344 C 275.804688 284.515625 274.300781 285.292969 272.75 285.941406 L 272.75 309.21875 C 272.761719 310.453125 271.746094 311.457031 270.511719 311.457031 Z M 270.511719 311.457031 " fill-opacity="1" fill-rule="nonzero"/></g><path fill="#ffffff" d="M 256.445312 278.195312 C 256.242188 278.195312 256.039062 278.171875 255.835938 278.105469 C 247.605469 275.816406 240.800781 268.988281 238.078125 260.273438 C 233.804688 246.640625 240.46875 232.367188 252.921875 228.464844 C 254.117188 228.082031 255.375 228.757812 255.746094 229.9375 C 256.113281 231.121094 255.453125 232.394531 254.269531 232.761719 C 244.183594 235.917969 238.855469 247.65625 242.378906 258.925781 C 244.65625 266.1875 250.277344 271.875 257.042969 273.757812 C 258.238281 274.085938 258.9375 275.332031 258.605469 276.53125 C 258.328125 277.546875 257.425781 278.195312 256.445312 278.195312 Z M 256.445312 278.195312 " fill-opacity="1" fill-rule="nonzero"/><path fill="#ffffff" d="M 160.835938 205.519531 C 159.589844 205.519531 158.582031 204.511719 158.582031 203.265625 L 158.582031 196.5 C 158.582031 195.253906 159.589844 194.25 160.835938 194.25 C 162.082031 194.25 163.085938 195.253906 163.085938 196.5 L 163.085938 203.265625 C 163.097656 204.511719 162.082031 205.519531 160.835938 205.519531 Z M 160.835938 205.519531 " fill-opacity="1" fill-rule="nonzero"/><path fill="#ffffff" d="M 124.777344 205.519531 C 123.53125 205.519531 122.523438 204.511719 122.523438 203.265625 L 122.523438 160.441406 C 122.523438 159.195312 123.53125 158.191406 124.777344 158.191406 C 126.023438 158.191406 127.027344 159.195312 127.027344 160.441406 L 127.027344 203.265625 C 127.027344 204.511719 126.023438 205.519531 124.777344 205.519531 Z M 124.777344 205.519531 " fill-opacity="1" fill-rule="nonzero"/><path fill="#ffffff" d="M 142.8125 203.265625 C 141.566406 203.265625 140.5625 202.261719 140.5625 201.015625 L 140.5625 185.242188 C 140.5625 183.996094 141.566406 182.992188 142.8125 182.992188 C 144.058594 182.992188 145.0625 183.996094 145.0625 185.242188 L 145.0625 201.015625 C 145.0625 202.261719 144.058594 203.265625 142.8125 203.265625 Z M 142.8125 203.265625 " fill-opacity="1" fill-rule="nonzero"/><g clip-path="url(#2a9cbb977c)"><path fill="#ffffff" d="M 167.601562 311.457031 C 166.355469 311.457031 165.351562 310.453125 165.351562 309.203125 L 165.351562 279.964844 L 166.265625 279.289062 C 170.71875 276.007812 174.332031 270.984375 176.46875 265.160156 C 179.53125 256.800781 179.734375 247.503906 179.699219 239.441406 C 179.648438 228.84375 178.769531 218.199219 177.917969 207.898438 L 177.472656 202.390625 C 177.371094 201.15625 178.296875 200.0625 179.546875 199.960938 C 180.765625 199.882812 181.871094 200.785156 181.972656 202.035156 L 182.417969 207.527344 C 183.273438 217.90625 184.148438 228.640625 184.210938 239.414062 C 184.265625 247.875 184.035156 257.640625 180.714844 266.710938 C 178.425781 272.96875 174.597656 278.425781 169.867188 282.214844 L 169.867188 309.21875 C 169.851562 310.453125 168.847656 311.457031 167.601562 311.457031 Z M 167.601562 311.457031 " fill-opacity="1" fill-rule="nonzero"/></g><g clip-path="url(#4dc4bf3708)"><path fill="#ffffff" d="M 104.488281 311.457031 C 103.242188 311.457031 102.238281 310.453125 102.238281 309.203125 L 102.238281 285.929688 C 100.6875 285.28125 99.183594 284.515625 97.773438 283.640625 C 91.730469 279.914062 86.59375 274.125 83.300781 267.359375 C 76.457031 253.265625 76.824219 237.238281 77.777344 222.039062 C 78.085938 217.144531 78.339844 212.234375 78.59375 207.324219 C 78.746094 204.4375 78.898438 201.550781 79.050781 198.664062 C 79.101562 197.773438 79.078125 196.5625 79.050781 195.179688 C 78.921875 188.476562 78.769531 179.277344 84.429688 176.8125 C 86.820312 175.769531 89.265625 175.84375 91.503906 177.039062 C 98.789062 180.90625 101.476562 195.039062 101.5 195.179688 C 102.289062 199.453125 102.007812 204.792969 101.742188 209.96875 C 101.550781 213.695312 101.347656 217.550781 101.550781 220.882812 C 101.601562 221.710938 102.023438 222.433594 102.632812 222.929688 C 103.96875 213.1875 104.222656 200.113281 104.414062 190.355469 L 104.464844 187.445312 C 104.566406 182.597656 104.296875 177.703125 104.042969 172.957031 C 103.6875 166.214844 103.304688 159.257812 103.953125 152.238281 L 104.082031 150.699219 C 104.464844 146.09375 104.933594 140.371094 108.839844 136.53125 C 112.183594 133.25 116.214844 132.496094 119.890625 134.480469 C 120.984375 135.078125 121.394531 136.441406 120.808594 137.535156 C 120.222656 138.628906 118.847656 139.046875 117.753906 138.449219 C 115.835938 137.40625 113.953125 137.839844 112.007812 139.746094 C 109.296875 142.40625 108.929688 146.808594 108.585938 151.066406 L 108.445312 152.644531 C 107.820312 159.335938 108.179688 165.820312 108.546875 172.703125 C 108.800781 177.523438 109.066406 182.523438 108.964844 187.535156 L 108.902344 190.433594 C 108.6875 201.195312 108.40625 215.933594 106.675781 226.175781 L 106.359375 228.058594 L 104.449219 228.058594 C 100.519531 228.058594 97.265625 225.03125 97.023438 221.148438 C 96.808594 217.5625 97.011719 213.570312 97.214844 209.714844 C 97.46875 204.804688 97.734375 199.730469 97.046875 195.980469 C 96.144531 191.109375 93.082031 182.980469 89.367188 181.007812 C 88.335938 180.460938 87.332031 180.4375 86.210938 180.933594 C 83.300781 182.203125 83.453125 190.902344 83.527344 195.089844 C 83.554688 196.601562 83.578125 197.925781 83.515625 198.90625 C 83.363281 201.792969 83.210938 204.667969 83.058594 207.554688 C 82.804688 212.476562 82.546875 217.398438 82.242188 222.320312 C 81.328125 236.921875 80.957031 252.273438 87.316406 265.386719 C 90.230469 271.402344 94.773438 276.515625 100.101562 279.796875 C 101.691406 280.789062 103.421875 281.617188 105.226562 282.265625 L 106.714844 282.800781 L 106.714844 309.207031 C 106.742188 310.453125 105.734375 311.457031 104.488281 311.457031 Z M 104.488281 311.457031 " fill-opacity="1" fill-rule="nonzero"/></g><path fill="#ffffff" d="M 118.554688 278.195312 C 117.566406 278.195312 116.660156 277.546875 116.394531 276.542969 C 116.0625 275.347656 116.761719 274.101562 117.957031 273.769531 C 124.726562 271.875 130.347656 266.203125 132.625 258.9375 C 136.148438 247.667969 130.816406 235.941406 120.730469 232.777344 C 119.546875 232.40625 118.886719 231.136719 119.257812 229.953125 C 119.625 228.769531 120.882812 228.09375 122.078125 228.476562 C 134.53125 232.367188 141.195312 246.640625 136.921875 260.289062 C 134.199219 268.988281 127.394531 275.816406 119.167969 278.121094 C 118.964844 278.171875 118.761719 278.195312 118.554688 278.195312 Z M 118.554688 278.195312 " fill-opacity="1" fill-rule="nonzero"/><g clip-path="url(#d8408a1955)"><path fill="#ffffff" d="M 187.496094 203.265625 C 148.96875 203.265625 117.628906 171.925781 117.628906 133.402344 C 117.628906 94.875 148.96875 63.535156 187.496094 63.535156 C 226.019531 63.535156 257.359375 94.875 257.359375 133.402344 C 257.359375 171.925781 226.035156 203.265625 187.496094 203.265625 Z M 187.496094 68.035156 C 151.449219 68.035156 122.128906 97.355469 122.128906 133.402344 C 122.128906 169.445312 151.449219 198.765625 187.496094 198.765625 C 223.539062 198.765625 252.859375 169.445312 252.859375 133.402344 C 252.859375 97.355469 223.539062 68.035156 187.496094 68.035156 Z M 187.496094 68.035156 " fill-opacity="1" fill-rule="nonzero"/></g><path fill="#ffffff" d="M 187.496094 191.996094 C 155.175781 191.996094 128.898438 165.707031 128.898438 133.402344 C 128.898438 101.09375 155.1875 74.804688 187.496094 74.804688 C 219.800781 74.804688 246.089844 101.09375 246.089844 133.402344 C 246.089844 165.707031 219.8125 191.996094 187.496094 191.996094 Z M 187.496094 79.304688 C 157.667969 79.304688 133.398438 103.574219 133.398438 133.402344 C 133.398438 163.226562 157.667969 187.496094 187.496094 187.496094 C 217.320312 187.496094 241.589844 163.226562 241.589844 133.402344 C 241.589844 103.574219 217.320312 79.304688 187.496094 79.304688 Z M 187.496094 79.304688 " fill-opacity="1" fill-rule="nonzero"/><path fill="#ffffff" d="M 167.691406 163.53125 C 165.644531 163.53125 163.660156 162.910156 161.941406 161.726562 C 152.375 155.101562 147.160156 143.996094 148.332031 132.738281 C 149.503906 121.46875 156.878906 111.675781 167.601562 107.148438 C 169.167969 106.488281 170.894531 106.21875 172.585938 106.398438 C 176.277344 106.78125 179.457031 109.132812 180.894531 112.542969 C 181.949219 115.035156 181.960938 117.792969 180.945312 120.300781 C 179.925781 122.804688 177.980469 124.777344 175.488281 125.832031 C 171.59375 127.472656 168.910156 130.921875 168.515625 134.8125 C 168.109375 138.703125 170.019531 142.636719 173.503906 145.039062 C 175.730469 146.578125 177.230469 148.90625 177.714844 151.5625 C 178.195312 154.234375 177.613281 156.917969 176.074219 159.15625 C 174.535156 161.382812 172.207031 162.882812 169.546875 163.367188 C 168.910156 163.480469 168.300781 163.53125 167.691406 163.53125 Z M 171.53125 110.863281 C 170.78125 110.863281 170.03125 111.015625 169.34375 111.308594 C 160.136719 115.1875 153.800781 123.582031 152.808594 133.210938 C 151.816406 142.839844 156.292969 152.339844 164.5 158.023438 C 165.730469 158.878906 167.246094 159.207031 168.707031 158.941406 C 170.183594 158.671875 171.480469 157.835938 172.332031 156.601562 C 173.183594 155.367188 173.515625 153.867188 173.25 152.390625 C 172.980469 150.914062 172.140625 149.617188 170.910156 148.765625 C 166.074219 145.421875 163.429688 139.898438 164.003906 134.367188 C 164.574219 128.835938 168.300781 123.976562 173.707031 121.699219 C 175.09375 121.113281 176.175781 120.019531 176.734375 118.632812 C 177.292969 117.234375 177.292969 115.707031 176.707031 114.320312 C 175.90625 112.425781 174.140625 111.117188 172.089844 110.902344 C 171.914062 110.863281 171.722656 110.863281 171.53125 110.863281 Z M 171.53125 110.863281 " fill-opacity="1" fill-rule="nonzero"/><path fill="#ffffff" d="M 163.9375 219.050781 L 121.113281 219.050781 C 119.867188 219.050781 118.863281 218.046875 118.863281 216.800781 C 118.863281 215.554688 119.867188 214.550781 121.113281 214.550781 L 163.9375 214.550781 C 165.183594 214.550781 166.191406 215.554688 166.191406 216.800781 C 166.191406 218.046875 165.183594 219.050781 163.9375 219.050781 Z M 163.9375 219.050781 " fill-opacity="1" fill-rule="nonzero"/><path fill="#ffffff" d="M 254.09375 219.050781 L 211.265625 219.050781 C 210.019531 219.050781 209.015625 218.046875 209.015625 216.800781 C 209.015625 215.554688 210.019531 214.550781 211.265625 214.550781 L 254.09375 214.550781 C 255.339844 214.550781 256.34375 215.554688 256.34375 216.800781 C 256.34375 218.046875 255.339844 219.050781 254.09375 219.050781 Z M 254.09375 219.050781 " fill-opacity="1" fill-rule="nonzero"/><path fill="#ffffff" d="M 212.894531 124.878906 C 211.101562 124.878906 209.347656 124.410156 207.742188 123.503906 C 205.328125 122.132812 203.597656 119.894531 202.859375 117.210938 C 202.121094 114.527344 202.476562 111.714844 203.863281 109.296875 C 205.25 106.882812 207.476562 105.152344 210.160156 104.414062 C 212.84375 103.6875 215.65625 104.03125 218.070312 105.417969 C 220.488281 106.804688 222.21875 109.03125 222.957031 111.714844 C 224.46875 117.261719 221.1875 122.996094 215.65625 124.511719 C 214.738281 124.75 213.808594 124.878906 212.894531 124.878906 Z M 215.058594 122.335938 L 215.082031 122.335938 Z M 212.90625 108.546875 C 212.398438 108.546875 211.863281 108.609375 211.355469 108.765625 C 209.828125 109.183594 208.570312 110.164062 207.78125 111.535156 C 206.992188 112.910156 206.800781 114.5 207.210938 116.027344 C 207.628906 117.554688 208.609375 118.8125 209.980469 119.601562 C 211.34375 120.375 212.945312 120.578125 214.472656 120.171875 C 217.613281 119.320312 219.46875 116.066406 218.617188 112.921875 C 217.894531 110.277344 215.503906 108.546875 212.90625 108.546875 Z M 212.90625 108.546875 " fill-opacity="1" fill-rule="nonzero"/><path fill="#ffffff" d="M 212.894531 124.878906 C 211.101562 124.878906 209.347656 124.410156 207.742188 123.503906 C 205.328125 122.132812 203.597656 119.894531 202.859375 117.210938 C 202.121094 114.527344 202.476562 111.714844 203.863281 109.296875 C 205.25 106.882812 207.476562 105.152344 210.160156 104.414062 C 212.84375 103.6875 215.65625 104.03125 218.070312 105.417969 C 220.488281 106.804688 222.21875 109.03125 222.957031 111.714844 C 224.46875 117.261719 221.1875 122.996094 215.65625 124.511719 C 214.738281 124.75 213.808594 124.878906 212.894531 124.878906 Z M 215.058594 122.335938 L 215.082031 122.335938 Z M 212.90625 108.546875 C 212.398438 108.546875 211.863281 108.609375 211.355469 108.765625 C 209.828125 109.183594 208.570312 110.164062 207.78125 111.535156 C 206.992188 112.910156 206.800781 114.5 207.210938 116.027344 C 207.628906 117.554688 208.609375 118.8125 209.980469 119.601562 C 211.34375 120.375 212.945312 120.578125 214.472656 120.171875 C 217.613281 119.320312 219.46875 116.066406 218.617188 112.921875 C 217.894531 110.277344 215.503906 108.546875 212.90625 108.546875 Z M 212.90625 108.546875 " fill-opacity="1" fill-rule="nonzero"/><path fill="#ffffff" d="M 203.367188 110.570312 C 198.789062 110.570312 194.578125 107.515625 193.320312 102.898438 C 192.582031 100.214844 192.9375 97.40625 194.324219 94.988281 C 195.710938 92.574219 197.9375 90.84375 200.621094 90.105469 C 206.152344 88.589844 211.902344 91.859375 213.417969 97.40625 C 214.929688 102.949219 211.648438 108.6875 206.117188 110.199219 C 205.1875 110.441406 204.269531 110.570312 203.367188 110.570312 Z M 205.515625 108.011719 L 205.542969 108.011719 Z M 203.355469 94.238281 C 202.847656 94.238281 202.3125 94.300781 201.804688 94.453125 C 198.660156 95.308594 196.804688 98.5625 197.65625 101.703125 C 198.507812 104.847656 201.765625 106.703125 204.90625 105.851562 C 208.046875 105 209.90625 101.742188 209.054688 98.589844 C 208.339844 95.96875 205.949219 94.238281 203.355469 94.238281 Z M 203.355469 94.238281 " fill-opacity="1" fill-rule="nonzero"/><path fill="#ffffff" d="M 203.367188 110.570312 C 198.789062 110.570312 194.578125 107.515625 193.320312 102.898438 C 192.582031 100.214844 192.9375 97.40625 194.324219 94.988281 C 195.710938 92.574219 197.9375 90.84375 200.621094 90.105469 C 206.152344 88.589844 211.902344 91.859375 213.417969 97.40625 C 214.929688 102.949219 211.648438 108.6875 206.117188 110.199219 C 205.1875 110.441406 204.269531 110.570312 203.367188 110.570312 Z M 205.515625 108.011719 L 205.542969 108.011719 Z M 203.355469 94.238281 C 202.847656 94.238281 202.3125 94.300781 201.804688 94.453125 C 198.660156 95.308594 196.804688 98.5625 197.65625 101.703125 C 198.507812 104.847656 201.765625 106.703125 204.90625 105.851562 C 208.046875 105 209.90625 101.742188 209.054688 98.589844 C 208.339844 95.96875 205.949219 94.238281 203.355469 94.238281 Z M 203.355469 94.238281 " fill-opacity="1" fill-rule="nonzero"/><path fill="#ffffff" d="M 211.941406 142.050781 C 210.148438 142.050781 208.390625 141.578125 206.789062 140.675781 C 204.371094 139.289062 202.644531 137.0625 201.90625 134.378906 C 201.167969 131.695312 201.523438 128.886719 202.910156 126.46875 C 204.296875 124.050781 206.523438 122.324219 209.207031 121.585938 C 214.738281 120.082031 220.488281 123.339844 222 128.886719 C 223.515625 134.429688 220.234375 140.167969 214.699219 141.679688 C 213.796875 141.933594 212.871094 142.050781 211.941406 142.050781 Z M 211.964844 125.730469 C 211.457031 125.730469 210.921875 125.792969 210.414062 125.949219 C 207.273438 126.800781 205.414062 130.054688 206.269531 133.199219 C 206.6875 134.722656 207.667969 135.984375 209.039062 136.769531 C 210.414062 137.558594 212.003906 137.761719 213.53125 137.34375 C 216.671875 136.492188 218.527344 133.234375 217.675781 130.082031 C 216.9375 127.460938 214.5625 125.730469 211.964844 125.730469 Z M 211.964844 125.730469 " fill-opacity="1" fill-rule="nonzero"/><path fill="#ffffff" d="M 211.941406 142.050781 C 210.148438 142.050781 208.390625 141.578125 206.789062 140.675781 C 204.371094 139.289062 202.644531 137.0625 201.90625 134.378906 C 201.167969 131.695312 201.523438 128.886719 202.910156 126.46875 C 204.296875 124.050781 206.523438 122.324219 209.207031 121.585938 C 214.738281 120.082031 220.488281 123.339844 222 128.886719 C 223.515625 134.429688 220.234375 140.167969 214.699219 141.679688 C 213.796875 141.933594 212.871094 142.050781 211.941406 142.050781 Z M 211.964844 125.730469 C 211.457031 125.730469 210.921875 125.792969 210.414062 125.949219 C 207.273438 126.800781 205.414062 130.054688 206.269531 133.199219 C 206.6875 134.722656 207.667969 135.984375 209.039062 136.769531 C 210.414062 137.558594 212.003906 137.761719 213.53125 137.34375 C 216.671875 136.492188 218.527344 133.234375 217.675781 130.082031 C 216.9375 127.460938 214.5625 125.730469 211.964844 125.730469 Z M 211.964844 125.730469 " fill-opacity="1" fill-rule="nonzero"/><path fill="#ffffff" d="M 205.058594 158.039062 C 200.480469 158.039062 196.269531 154.984375 195.011719 150.367188 C 193.496094 144.824219 196.765625 139.085938 202.3125 137.574219 C 207.84375 136.070312 213.59375 139.328125 215.109375 144.875 C 216.621094 150.417969 213.339844 156.15625 207.808594 157.667969 C 206.878906 157.921875 205.960938 158.039062 205.058594 158.039062 Z M 207.210938 155.492188 L 207.234375 155.492188 Z M 205.046875 141.71875 C 204.539062 141.71875 204.003906 141.78125 203.496094 141.933594 C 200.351562 142.789062 198.496094 146.042969 199.347656 149.183594 C 200.199219 152.328125 203.457031 154.183594 206.597656 153.332031 C 209.742188 152.480469 211.597656 149.222656 210.746094 146.082031 C 210.03125 143.449219 207.640625 141.71875 205.046875 141.71875 Z M 205.046875 141.71875 " fill-opacity="1" fill-rule="nonzero"/><path fill="#ffffff" d="M 205.058594 158.039062 C 200.480469 158.039062 196.269531 154.984375 195.011719 150.367188 C 193.496094 144.824219 196.765625 139.085938 202.3125 137.574219 C 207.84375 136.070312 213.59375 139.328125 215.109375 144.875 C 216.621094 150.417969 213.339844 156.15625 207.808594 157.667969 C 206.878906 157.921875 205.960938 158.039062 205.058594 158.039062 Z M 207.210938 155.492188 L 207.234375 155.492188 Z M 205.046875 141.71875 C 204.539062 141.71875 204.003906 141.78125 203.496094 141.933594 C 200.351562 142.789062 198.496094 146.042969 199.347656 149.183594 C 200.199219 152.328125 203.457031 154.183594 206.597656 153.332031 C 209.742188 152.480469 211.597656 149.222656 210.746094 146.082031 C 210.03125 143.449219 207.640625 141.71875 205.046875 141.71875 Z M 205.046875 141.71875 " fill-opacity="1" fill-rule="nonzero"/><path fill="#ffffff" d="M 206.738281 174.496094 C 202.160156 174.496094 197.949219 171.445312 196.691406 166.828125 C 195.953125 164.144531 196.308594 161.332031 197.695312 158.914062 C 199.082031 156.5 201.308594 154.769531 203.992188 154.03125 C 209.523438 152.53125 215.273438 155.785156 216.785156 161.332031 C 217.523438 164.015625 217.167969 166.828125 215.78125 169.242188 C 214.394531 171.660156 212.167969 173.390625 209.484375 174.128906 C 208.558594 174.382812 207.640625 174.496094 206.738281 174.496094 Z M 208.875 171.964844 L 208.902344 171.964844 Z M 206.726562 158.179688 C 206.21875 158.179688 205.683594 158.242188 205.175781 158.382812 C 203.648438 158.800781 202.386719 159.78125 201.601562 161.152344 C 200.8125 162.527344 200.621094 164.117188 201.027344 165.644531 C 201.878906 168.785156 205.148438 170.640625 208.277344 169.789062 C 211.417969 168.9375 213.277344 165.683594 212.425781 162.539062 C 211.710938 159.90625 209.320312 158.179688 206.726562 158.179688 Z M 206.726562 158.179688 " fill-opacity="1" fill-rule="nonzero"/><path fill="#ffffff" d="M 206.738281 174.496094 C 202.160156 174.496094 197.949219 171.445312 196.691406 166.828125 C 195.953125 164.144531 196.308594 161.332031 197.695312 158.914062 C 199.082031 156.5 201.308594 154.769531 203.992188 154.03125 C 209.523438 152.53125 215.273438 155.785156 216.785156 161.332031 C 217.523438 164.015625 217.167969 166.828125 215.78125 169.242188 C 214.394531 171.660156 212.167969 173.390625 209.484375 174.128906 C 208.558594 174.382812 207.640625 174.496094 206.738281 174.496094 Z M 208.875 171.964844 L 208.902344 171.964844 Z M 206.726562 158.179688 C 206.21875 158.179688 205.683594 158.242188 205.175781 158.382812 C 203.648438 158.800781 202.386719 159.78125 201.601562 161.152344 C 200.8125 162.527344 200.621094 164.117188 201.027344 165.644531 C 201.878906 168.785156 205.148438 170.640625 208.277344 169.789062 C 211.417969 168.9375 213.277344 165.683594 212.425781 162.539062 C 211.710938 159.90625 209.320312 158.179688 206.726562 158.179688 Z M 206.726562 158.179688 " fill-opacity="1" fill-rule="nonzero"/></svg>