<svg xmlns="http://www.w3.org/2000/svg" xmlns:xlink="http://www.w3.org/1999/xlink" width="500" zoomAndPan="magnify" viewBox="0 0 375 374.999991" height="500" preserveAspectRatio="xMidYMid meet" version="1.0"><defs><clipPath id="583442bf2f"><path d="M 187.5 0 C 83.945312 0 0 83.945312 0 187.5 C 0 291.054688 83.945312 375 187.5 375 C 291.054688 375 375 291.054688 375 187.5 C 375 83.945312 291.054688 0 187.5 0 Z M 187.5 0 " clip-rule="nonzero"/></clipPath><clipPath id="4f6d32faba"><path d="M 68 63 L 299 63 L 299 311.976562 L 68 311.976562 Z M 68 63 " clip-rule="nonzero"/></clipPath></defs><g clip-path="url(#583442bf2f)"><rect x="-37.5" width="450" fill="#a2c36e" y="-37.499999" height="449.999989" fill-opacity="1"/></g><g clip-path="url(#4f6d32faba)"><path fill="#ffffff" d="M 91.015625 197.902344 C 91.851562 199.5625 92.429688 201.902344 93.066406 204.453125 C 94.027344 208.308594 94.953125 212.699219 96.644531 216.84375 C 98.316406 220.972656 100.855469 225.003906 105.160156 227.355469 C 113.4375 231.910156 113.546875 235.535156 114.214844 240.429688 C 114.539062 242.867188 114.765625 245.722656 116.375 248.589844 C 118 251.433594 121.023438 253.757812 125.492188 255.171875 C 129.558594 256.4375 131.636719 258.277344 133.167969 260.648438 C 134.710938 263.019531 135.589844 266.128906 136.371094 269.621094 C 137.167969 273.117188 137.847656 276.953125 139.410156 280.722656 C 140.984375 284.480469 143.605469 288.1875 147.910156 290.671875 C 153.488281 293.710938 157.453125 298.390625 157.453125 303.644531 C 155.46875 303.746094 151.84375 304.132812 145.957031 302.441406 C 138.664062 300.34375 131.601562 296.167969 129.785156 285.539062 C 128.972656 280.84375 129.121094 275.863281 127.085938 270.8125 C 125.054688 265.769531 120.519531 261.28125 112.101562 258.328125 C 107.566406 256.730469 105.597656 255.121094 104.460938 253.53125 C 103.339844 251.953125 102.867188 250.035156 102.300781 247.320312 C 101.148438 241.890625 98.964844 233.910156 87.621094 227.085938 C 77.25 220.84375 75.007812 213.382812 75.949219 206.976562 C 76.699219 201.773438 79.964844 197.316406 83.378906 195.417969 C 87.246094 193.253906 89.308594 194.4375 91.015625 197.902344 Z M 281.882812 192.164062 C 289.214844 193.042969 299.671875 209.457031 280.976562 221.328125 C 275.285156 224.933594 272.066406 228.96875 270.636719 233.046875 C 269.226562 237.144531 269.566406 240.964844 269.859375 244.070312 C 270.167969 247.15625 270.328125 249.511719 269.746094 251.1875 C 269.160156 252.847656 267.957031 254.457031 263.679688 256.34375 C 255.703125 259.871094 250.921875 263.804688 248.269531 268.535156 C 245.625 273.265625 245.3125 278.222656 245.054688 283.441406 C 244.777344 288.757812 243.117188 292.253906 240.320312 295.015625 C 237.523438 297.761719 233.378906 299.773438 228.066406 301.15625 C 222.8125 302.527344 216.476562 303.207031 209.535156 303.566406 C 215.273438 300.328125 218.734375 296.003906 220.554688 291.390625 C 226.0625 289.894531 229.953125 287.292969 232.40625 283.964844 C 235.300781 280.042969 236.140625 275.574219 236.761719 271.558594 C 237.363281 267.523438 237.785156 263.820312 238.9375 261.074219 C 240.109375 258.328125 241.699219 256.375 245.863281 254.878906 C 250.433594 253.222656 253.441406 250.847656 254.953125 247.910156 C 256.464844 244.976562 256.429688 242.121094 256.546875 239.683594 C 256.660156 237.261719 256.820312 235.179688 257.832031 232.917969 C 258.855469 230.660156 260.773438 228.089844 265.035156 225.101562 C 269.210938 222.175781 270.980469 217.605469 271.664062 213.300781 C 272.347656 209.007812 272.183594 204.636719 272.347656 201.011719 C 272.671875 194.015625 275.660156 191.398438 281.882812 192.164062 Z M 263.632812 122.445312 C 261.648438 132.832031 253.878906 148.148438 244.335938 161.070312 C 239.832031 167.164062 237.667969 172.304688 236.984375 176.789062 C 236.285156 181.273438 237 185.0625 238.09375 187.890625 C 240.042969 192.933594 240.125 196.769531 237.265625 199.804688 C 227.167969 210.5 227.980469 221.523438 228.8125 229.992188 C 229.214844 234.21875 229.511719 237.871094 228.765625 241.027344 C 228.015625 244.164062 226.40625 247.011719 222.082031 250.195312 C 216.085938 254.585938 214.816406 261.414062 214.851562 267.585938 C 214.867188 273.75 215.8125 279.910156 215.011719 285.042969 C 214.203125 290.183594 212.214844 294.257812 205.359375 297.804688 C 201.949219 299.578125 197.230469 301.089844 190.90625 302.175781 C 192.761719 300.15625 194.453125 297.734375 195.800781 294.746094 C 199.867188 285.628906 198.484375 275.761719 196.675781 266.058594 C 198.902344 255.023438 203.667969 246.160156 210.707031 240.585938 C 214.21875 237.96875 216.050781 234.472656 216.425781 231.160156 C 216.816406 227.839844 216.136719 224.855469 215.675781 221.921875 C 214.753906 216.070312 214.003906 210.726562 220.359375 202.855469 C 223.625 198.828125 224.992188 194.667969 225.304688 190.863281 C 225.613281 187.058594 225.011719 183.660156 224.683594 180.488281 C 224.015625 174.148438 223.722656 168.820312 231.964844 160.089844 C 241.800781 149.652344 241.136719 137.316406 241.523438 128.292969 C 241.71875 123.773438 242.207031 120.117188 243.734375 117.484375 C 245.261719 114.851562 247.847656 112.847656 253.714844 111.257812 C 262.984375 108.777344 265.09375 114.871094 263.632812 122.445312 Z M 105.160156 102.160156 C 113.710938 104.042969 123.804688 113.945312 123.546875 132.457031 C 123.402344 142.816406 123.074219 150.859375 124.210938 157.492188 C 125.347656 164.109375 128.503906 169.617188 134.503906 172.59375 C 140.234375 175.441406 143.015625 178.351562 144.5 181.210938 C 145.996094 184.089844 146.289062 187.125 146.1875 190.574219 C 146.089844 194.003906 145.554688 197.691406 145.8125 201.5625 C 146.089844 205.433594 147.488281 209.6875 151.148438 212.84375 C 158.378906 219.121094 162.234375 224.109375 164.179688 228.140625 C 166.132812 232.167969 166.292969 235.257812 165.953125 238.460938 C 165.613281 241.683594 164.554688 245.027344 164.082031 248.976562 C 163.632812 252.910156 163.9375 257.511719 166.441406 262.386719 C 175.332031 279.664062 172.621094 289.402344 169.039062 295.746094 C 167.953125 297.679688 165.464844 300.019531 164.503906 300.28125 C 163.679688 296.050781 160.863281 290.964844 154.457031 286.445312 C 156.179688 282.597656 157.058594 279.441406 157.175781 276.628906 C 157.304688 273.199219 156.265625 270.421875 155.191406 268.160156 C 153.046875 263.675781 150.6875 260.761719 151.667969 250.800781 C 152.378906 243.746094 151.535156 238.722656 149.554688 234.855469 C 147.570312 230.984375 144.644531 228.597656 142.011719 226.351562 C 136.777344 221.847656 131.773438 217.945312 129.953125 201.921875 C 128.683594 190.734375 121.664062 185.601562 116.753906 181.875 C 114.28125 180.023438 112.378906 178.429688 111.273438 176.507812 C 110.152344 174.609375 109.539062 172.253906 110.1875 167.960938 C 111.246094 160.886719 111.109375 155.835938 109.957031 151.753906 C 108.808594 147.660156 106.625 144.761719 104.5 142.175781 C 100.222656 137.023438 95.609375 132.636719 92.632812 117.550781 C 91.234375 110.480469 92.566406 106.238281 95.019531 104.1875 C 98.382812 101.410156 101.484375 101.363281 105.160156 102.160156 Z M 196.757812 70.265625 C 197.542969 70.300781 198.304688 70.476562 199.066406 70.769531 C 202.074219 71.953125 205.421875 75.953125 206.367188 82.863281 C 207.3125 89.777344 205.847656 99.394531 199.574219 110.855469 C 196.503906 116.464844 195.914062 121.652344 196.628906 126.152344 C 197.328125 130.65625 199.101562 134.441406 200.414062 138.113281 C 203.066406 145.429688 204.839844 152.011719 195.71875 165.453125 L 195.707031 165.46875 L 195.691406 165.519531 C 187.171875 178.703125 189.6875 189.773438 192.390625 198.664062 C 193.738281 203.117188 195.023438 207.152344 195.25 211.097656 C 195.460938 215.03125 194.796875 218.953125 191.839844 223.761719 C 184.488281 235.722656 186.347656 248.957031 188.523438 260.90625 C 190.695312 272.835938 193.238281 283.777344 189.347656 291.835938 C 185.726562 299.351562 179.414062 303.152344 172.21875 303.152344 C 173.191406 302.0625 174.152344 300.890625 175.015625 299.542969 C 180.246094 291.351562 182.390625 277.957031 172.738281 259.148438 C 170.902344 255.585938 170.753906 252.871094 171.128906 249.800781 C 171.453125 247.019531 172.347656 243.945312 172.835938 240.371094 C 174.136719 238.488281 176.183594 235.039062 177.515625 230.230469 C 179.550781 222.960938 179.8125 212.605469 173.371094 201.070312 C 170.726562 196.320312 170.367188 192.628906 170.984375 188.925781 C 171.605469 185.230469 173.371094 181.496094 175.390625 177.5 C 177.40625 173.5 179.632812 169.238281 180.65625 164.300781 C 181.695312 159.355469 181.339844 153.714844 178.367188 147.832031 C 175.097656 141.378906 173.996094 136.894531 173.945312 133.652344 C 173.878906 130.421875 174.773438 128.289062 176.171875 125.953125 C 178.96875 121.304688 184.722656 115.90625 184.28125 105.792969 L 184.253906 105.792969 L 184.253906 105.777344 C 183.507812 90.367188 186.15625 80.535156 189.484375 75.394531 C 191.980469 71.535156 194.4375 70.199219 196.757812 70.265625 Z M 196.875 63.324219 C 191.996094 63.390625 187.007812 66.25 183.5625 71.550781 C 178.976562 78.605469 176.394531 89.792969 177.203125 106.125 C 177.511719 113.539062 173.664062 116.382812 170.085938 122.332031 C 168.300781 125.304688 166.785156 129.074219 166.867188 133.777344 C 166.929688 138.492188 168.476562 143.984375 172.035156 151.019531 C 174.347656 155.589844 174.523438 159.179688 173.742188 162.855469 C 172.980469 166.527344 171.082031 170.28125 169.046875 174.332031 C 167.015625 178.378906 164.839844 182.71875 164.003906 187.773438 C 163.160156 192.828125 163.859375 198.550781 167.210938 204.515625 C 172.183594 213.441406 172.363281 220.835938 171.179688 226.460938 C 170.980469 226.007812 170.804688 225.554688 170.574219 225.078125 C 168.042969 219.84375 163.488281 214.171875 155.785156 207.492188 C 153.652344 205.667969 153.066406 203.867188 152.875 201.070312 C 152.679688 198.289062 153.167969 194.730469 153.261719 190.761719 C 153.378906 186.816406 153.054688 182.3125 150.777344 177.9375 C 148.503906 173.566406 144.339844 169.582031 137.671875 166.265625 C 133.613281 164.253906 132.113281 161.667969 131.191406 156.289062 C 130.28125 150.890625 130.492188 142.976562 130.640625 132.554688 C 130.949219 111.375 119 98.273438 106.839844 95.300781 C 100.777344 93.816406 94.40625 94.890625 90.066406 99.121094 C 85.742188 103.363281 83.984375 110.316406 85.691406 118.933594 C 88.910156 135.238281 95.089844 141.886719 99.054688 146.679688 C 101.039062 149.074219 102.351562 150.910156 103.132812 153.6875 C 103.917969 156.449219 104.160156 160.417969 103.183594 166.90625 C 102.371094 172.363281 103.199219 176.738281 105.167969 180.089844 C 107.117188 183.421875 109.925781 185.597656 112.496094 187.53125 C 117.617188 191.398438 121.925781 193.972656 122.933594 202.730469 C 124.933594 220.253906 132.097656 227.160156 137.417969 231.714844 C 140.0625 233.988281 142.035156 235.660156 143.269531 238.066406 C 144.503906 240.472656 145.238281 243.890625 144.632812 250.101562 C 143.496094 261.542969 146.957031 267.460938 148.828125 271.230469 C 150.808594 275.25 149.753906 278.746094 148.601562 282.242188 C 147.480469 281.019531 146.648438 279.640625 145.964844 277.996094 C 144.816406 275.199219 144.132812 271.738281 143.285156 268.046875 C 142.457031 264.375 141.445312 260.410156 139.125 256.796875 C 136.800781 253.207031 133.03125 250.117188 127.628906 248.410156 C 124.269531 247.351562 123.226562 246.28125 122.546875 245.078125 C 121.859375 243.875 121.570312 242.035156 121.226562 239.484375 C 120.527344 234.367188 118.605469 226.691406 108.5625 221.167969 C 106.226562 219.867188 104.566406 217.496094 103.199219 214.160156 C 101.851562 210.828125 100.921875 206.734375 99.929688 202.734375 C 98.941406 198.753906 97.960938 194.855469 95.640625 191.648438 C 93.328125 188.460938 88.859375 186.480469 84.09375 187.589844 C 76.308594 189.375 70.261719 196.902344 68.949219 205.96875 C 67.628906 215.023438 71.730469 225.769531 83.984375 233.148438 C 93.816406 239.066406 94.222656 243.375 95.378906 248.789062 C 95.949219 251.5 96.546875 254.640625 98.695312 257.632812 C 100.828125 260.636719 104.339844 263.109375 109.746094 265.007812 C 116.964844 267.542969 119.226562 270.210938 120.523438 273.460938 C 121.84375 276.726562 121.871094 281.261719 122.800781 286.742188 C 125.125 300.234375 135.199219 306.71875 143.996094 309.242188 C 152.789062 311.773438 160.886719 310.996094 160.886719 310.996094 L 200.535156 310.996094 C 208.660156 310.996094 217.734375 311.144531 229.84375 308.003906 C 235.90625 306.429688 241.289062 304.007812 245.300781 300.039062 C 249.332031 296.058594 251.769531 290.546875 252.109375 283.820312 C 252.371094 278.714844 252.746094 275.039062 254.453125 272 C 256.160156 268.941406 259.359375 266 266.546875 262.832031 C 271.929688 260.457031 275.144531 257.191406 276.433594 253.515625 C 277.730469 249.84375 277.207031 246.414062 276.917969 243.410156 C 276.628906 240.398438 276.480469 237.816406 277.328125 235.378906 C 278.1875 232.941406 280.007812 230.304688 284.753906 227.296875 C 307.203125 213.042969 298.152344 187.359375 282.90625 185.164062 C 276.515625 184.238281 271.523438 185.589844 268.699219 188.984375 C 265.867188 192.382812 265.476562 196.625 265.28125 200.691406 C 265.082031 204.738281 265.203125 208.851562 264.664062 212.1875 C 264.128906 215.53125 263.15625 217.804688 260.972656 219.335938 C 255.96875 222.847656 252.992188 226.453125 251.398438 230 C 249.789062 233.542969 249.476562 236.828125 249.476562 239.378906 C 249.476562 244.546875 246.992188 246.933594 243.464844 248.222656 C 237.722656 250.300781 234.199219 254.171875 232.429688 258.316406 C 230.671875 262.460938 230.246094 266.71875 229.757812 270.488281 C 228.964844 276.621094 227.011719 280.550781 222.316406 283.269531 C 222.742188 277.613281 221.941406 272.132812 221.925781 267.550781 C 221.898438 262.183594 222.578125 258.644531 226.28125 255.910156 C 231.664062 251.964844 234.527344 247.347656 235.628906 242.699219 C 236.738281 238.035156 236.25 233.546875 235.84375 229.304688 C 235.015625 220.816406 233.972656 213.613281 242.410156 204.710938 C 245.726562 201.199219 247.15625 197.445312 247.011719 194.097656 C 246.878906 190.761719 245.628906 188.179688 244.816406 185.722656 C 244.019531 183.253906 243.5 180.960938 243.96875 177.855469 C 244.457031 174.765625 246.015625 170.753906 250.035156 165.308594 C 260.046875 151.734375 268.175781 136.109375 270.582031 123.808594 C 271.804688 117.664062 271.769531 111.996094 268.484375 107.832031 C 266.839844 105.734375 264.339844 104.320312 261.527344 103.796875 C 258.714844 103.277344 255.578125 103.488281 251.988281 104.398438 C 244.867188 106.171875 240.1875 109.570312 237.632812 113.957031 C 235.097656 118.347656 234.660156 123.222656 234.464844 128 C 234.054688 137.59375 234.691406 146.90625 226.839844 155.230469 C 217.378906 165.257812 216.921875 174.332031 217.636719 181.257812 C 218.011719 184.71875 218.484375 187.675781 218.269531 190.328125 C 218.046875 192.992188 217.3125 195.402344 214.859375 198.441406 C 207.183594 207.929688 207.722656 216.84375 208.703125 223.050781 C 209.1875 226.15625 209.609375 228.644531 209.417969 230.367188 C 209.21875 232.105469 208.765625 233.238281 206.484375 234.933594 C 200.523438 239.371094 196.652344 245.53125 194.136719 250.941406 C 193.140625 242.523438 193.515625 234.605469 197.871094 227.484375 C 201.515625 221.570312 202.621094 215.863281 202.324219 210.710938 C 202.035156 205.554688 200.492188 200.988281 199.15625 196.628906 C 196.523438 187.9375 193.644531 180.667969 202.324219 167.617188 C 210.988281 154.582031 210 143.734375 207.089844 135.707031 C 205.644531 131.675781 204.148438 128.328125 203.644531 125.074219 C 203.125 121.839844 203.382812 118.703125 205.804688 114.261719 C 212.648438 101.765625 214.585938 90.644531 213.382812 81.902344 C 212.183594 73.160156 207.804688 66.605469 201.660156 64.199219 C 200.105469 63.570312 198.496094 63.289062 196.875 63.324219 Z M 196.875 63.324219 " fill-opacity="1" fill-rule="nonzero"/></g></svg>