<?xml version="1.0" encoding="UTF-8" standalone="no"?>
<!-- Created with Inkscape (http://www.inkscape.org/) -->

<svg
   version="1.1"
   id="svg18"
   width="58.743732"
   height="56.266705"
   viewBox="0 0 58.743732 56.266705"
   sodipodi:docname="bacteria.svg"
   xmlns:inkscape="http://www.inkscape.org/namespaces/inkscape"
   xmlns:sodipodi="http://sodipodi.sourceforge.net/DTD/sodipodi-0.dtd"
   xmlns="http://www.w3.org/2000/svg"
   xmlns:svg="http://www.w3.org/2000/svg">
  <sodipodi:namedview
     id="namedview71620"
     pagecolor="#ffffff"
     bordercolor="#000000"
     borderopacity="0.25"
     inkscape:showpageshadow="2"
     inkscape:pageopacity="0.0"
     inkscape:pagecheckerboard="0"
     inkscape:deskcolor="#d1d1d1"
     showgrid="false" />
  <defs
     id="defs22" />
  <g
     id="g26"
     transform="matrix(1.3333333,0,0,-1.3333333,0,58.801599)">
    <g
       id="g28"
       transform="scale(0.1)">
      <path
         d="m 281.539,277.461 c 0,-21.262 -17.234,-38.5 -38.5,-38.5 -21.262,0 -38.496,17.238 -38.496,38.5 0,21.258 17.234,38.5 38.496,38.5 21.266,0 38.5,-17.242 38.5,-38.5 z"
         style="fill:none;stroke:#000000;stroke-width:20;stroke-linecap:butt;stroke-linejoin:miter;stroke-miterlimit:10;stroke-dasharray:none;stroke-opacity:1"
         id="path136" />
      <path
         d="m 361.004,142.922 c 0,-21.262 -17.238,-38.5 -38.5,-38.5 -21.262,0 -38.504,17.238 -38.504,38.5 0,21.258 17.242,38.5 38.504,38.5 21.262,0 38.5,-17.242 38.5,-38.5 z"
         style="fill:none;stroke:#000000;stroke-width:20;stroke-linecap:butt;stroke-linejoin:miter;stroke-miterlimit:10;stroke-dasharray:none;stroke-opacity:1"
         id="path138" />
      <path
         d="m 419.621,192.922 c 0,-21.262 -17.234,-38.5 -38.496,-38.5 -21.266,0 -38.5,17.238 -38.5,38.5 0,21.258 17.234,38.5 38.5,38.5 21.262,0 38.496,-17.242 38.496,-38.5 z"
         style="fill:none;stroke:#000000;stroke-width:20;stroke-linecap:butt;stroke-linejoin:miter;stroke-miterlimit:10;stroke-dasharray:none;stroke-opacity:1"
         id="path140" />
      <path
         d="m 430.578,269.129 c 0,-21.27 -17.234,-38.5 -38.496,-38.5 -21.266,0 -38.5,17.23 -38.5,38.5 0,21.262 17.234,38.5 38.5,38.5 21.262,0 38.496,-17.238 38.496,-38.5 z"
         style="fill:none;stroke:#000000;stroke-width:20;stroke-linecap:butt;stroke-linejoin:miter;stroke-miterlimit:10;stroke-dasharray:none;stroke-opacity:1"
         id="path142" />
      <path
         d="m 409.598,343.191 c 0,-21.261 -17.239,-38.5 -38.5,-38.5 -21.262,0 -38.496,17.239 -38.496,38.5 0,21.258 17.234,38.5 38.496,38.5 21.261,0 38.5,-17.242 38.5,-38.5 z"
         style="fill:none;stroke:#000000;stroke-width:20;stroke-linecap:butt;stroke-linejoin:miter;stroke-miterlimit:10;stroke-dasharray:none;stroke-opacity:1"
         id="path144" />
      <path
         d="m 350.488,392.512 c 0,-21.274 -17.234,-38.5 -38.5,-38.5 -21.261,0 -38.5,17.226 -38.5,38.5 0,21.258 17.239,38.5 38.5,38.5 21.266,0 38.5,-17.242 38.5,-38.5 z"
         style="fill:none;stroke:#000000;stroke-width:20;stroke-linecap:butt;stroke-linejoin:miter;stroke-miterlimit:10;stroke-dasharray:none;stroke-opacity:1"
         id="path146" />
      <path
         d="m 206.953,297.461 c 0,-21.262 -17.234,-38.5 -38.492,-38.5 -21.266,0 -38.504,17.238 -38.504,38.5 0,21.258 17.238,38.5 38.504,38.5 21.258,0 38.492,-17.242 38.492,-38.5 z"
         style="fill:none;stroke:#000000;stroke-width:20;stroke-linecap:butt;stroke-linejoin:miter;stroke-miterlimit:10;stroke-dasharray:none;stroke-opacity:1"
         id="path148" />
      <path
         d="m 136.066,267.461 c 0,-21.262 -17.238,-38.5 -38.4996,-38.5 -21.2656,0 -38.5039,17.238 -38.5039,38.5 0,21.258 17.2383,38.5 38.5039,38.5 21.2616,0 38.4996,-17.242 38.4996,-38.5 z"
         style="fill:none;stroke:#000000;stroke-width:20;stroke-linecap:butt;stroke-linejoin:miter;stroke-miterlimit:10;stroke-dasharray:none;stroke-opacity:1"
         id="path150" />
      <path
         d="m 87,207.922 c 0,-21.262 -17.2383,-38.5 -38.5039,-38.5 -21.2578,0 -38.4961,17.238 -38.4961,38.5 0,21.269 17.2383,38.5 38.4961,38.5 21.2656,0 38.5039,-17.231 38.5039,-38.5 z"
         style="fill:none;stroke:#000000;stroke-width:20;stroke-linecap:butt;stroke-linejoin:miter;stroke-miterlimit:10;stroke-dasharray:none;stroke-opacity:1"
         id="path152" />
      <path
         d="M 87,130.93 C 87,109.66 69.7617,92.4219 48.4961,92.4219 27.2383,92.4219 10,109.66 10,130.93 10,152.18 27.2383,169.422 48.4961,169.422 69.7617,169.422 87,152.18 87,130.93 Z"
         style="fill:none;stroke:#000000;stroke-width:20;stroke-linecap:butt;stroke-linejoin:miter;stroke-miterlimit:10;stroke-dasharray:none;stroke-opacity:1"
         id="path154" />
      <path
         d="m 130.488,67.5117 c 0,-21.2734 -17.234,-38.5 -38.4997,-38.5 -21.2656,0 -38.5,17.2266 -38.5,38.5 0,21.2578 17.2344,38.5003 38.5,38.5003 21.2657,0 38.4997,-17.2425 38.4997,-38.5003 z"
         style="fill:none;stroke:#000000;stroke-width:20;stroke-linecap:butt;stroke-linejoin:miter;stroke-miterlimit:10;stroke-dasharray:none;stroke-opacity:1"
         id="path156" />
    </g>
  </g>
</svg>
