<svg xmlns="http://www.w3.org/2000/svg" xmlns:xlink="http://www.w3.org/1999/xlink" width="500" zoomAndPan="magnify" viewBox="0 0 375 374.999991" height="500" preserveAspectRatio="xMidYMid meet" version="1.0"><defs><clipPath id="5db45776c8"><path d="M 187.5 0 C 83.945312 0 0 83.945312 0 187.5 C 0 291.054688 83.945312 375 187.5 375 C 291.054688 375 375 291.054688 375 187.5 C 375 83.945312 291.054688 0 187.5 0 Z M 187.5 0 " clip-rule="nonzero"/></clipPath><clipPath id="09a91926e5"><path d="M 93.070312 65.582031 L 294 65.582031 L 294 331.832031 L 93.070312 331.832031 Z M 93.070312 65.582031 " clip-rule="nonzero"/></clipPath></defs><g clip-path="url(#5db45776c8)"><rect x="-37.5" width="450" fill="#fec743" y="-37.499999" height="449.999989" fill-opacity="1"/></g><g clip-path="url(#09a91926e5)"><path fill="#ffffff" d="M 138.945312 284.328125 C 139.375 284.476562 139.816406 284.640625 140.257812 284.777344 C 139.089844 283.246094 138.441406 281.535156 138.382812 279.828125 C 138.363281 279.550781 138.382812 279.285156 138.398438 279.023438 C 135.324219 278.375 132.246094 277.671875 129.265625 276.753906 C 121.867188 274.480469 115.964844 271.128906 111.714844 266.804688 C 108.105469 263.109375 105.535156 258.570312 103.058594 254.191406 C 101.222656 250.941406 99.292969 247.605469 96.992188 244.660156 C 96.488281 245.734375 96.417969 247.144531 96.859375 248.265625 C 97.535156 249.972656 98.84375 251.382812 100.238281 252.882812 C 100.808594 253.5 101.371094 254.097656 101.898438 254.730469 C 103.847656 257.054688 105.300781 259.714844 106.710938 262.289062 C 107.941406 264.558594 109.117188 266.699219 110.597656 268.640625 C 115.003906 274.402344 121.917969 277.785156 126.738281 279.8125 C 130.722656 281.492188 134.902344 282.933594 138.945312 284.328125 Z M 141.117188 221.222656 C 141.992188 220.3125 143.097656 219.621094 144.285156 219.167969 C 142.597656 217.730469 140.890625 216.257812 139.230469 214.757812 C 124.332031 201.21875 112.761719 184.121094 105.679688 165.269531 C 105.316406 165.753906 105.007812 166.316406 104.773438 166.933594 C 104.078125 168.753906 104.070312 170.84375 104.15625 172.652344 C 104.703125 185.542969 110.46875 197.925781 119.953125 206.644531 C 124.507812 210.832031 129.949219 214.210938 135.222656 217.496094 C 137.179688 218.710938 139.160156 219.949219 141.117188 221.222656 Z M 145.945312 138.582031 C 147.71875 120.148438 143.296875 101.429688 133.527344 85.730469 C 133.378906 85.84375 133.230469 85.949219 133.09375 86.085938 C 133.285156 90.570312 134.332031 95.085938 136.121094 99.199219 C 140.15625 108.5 141.582031 118.734375 140.234375 128.808594 C 140.148438 129.398438 139.714844 129.882812 139.125 130.03125 C 138.546875 130.175781 137.941406 129.953125 137.585938 129.464844 L 122.523438 108.699219 C 121.234375 106.898438 120.015625 105.390625 118.394531 104.945312 C 117.972656 104.824219 117.460938 104.765625 116.898438 104.714844 C 115.523438 104.566406 113.800781 104.375 112.675781 102.945312 C 111.894531 101.992188 111.730469 100.832031 111.601562 99.902344 C 111.515625 99.246094 111.417969 98.628906 111.160156 98.289062 C 110.96875 98.066406 110.65625 98.003906 110.484375 97.996094 C 110.277344 97.980469 110.070312 98.003906 109.871094 98.066406 C 110.226562 102.199219 112.761719 105.746094 114.90625 108.03125 C 116.691406 109.929688 118.792969 111.65625 120.8125 113.3125 C 121.996094 114.296875 123.226562 115.3125 124.402344 116.351562 C 129.75 121.164062 134.226562 127.101562 137.367188 133.574219 C 138.234375 135.351562 139.089844 137.058594 139.921875 138.714844 C 142.199219 143.265625 144.257812 147.40625 146.03125 151.964844 C 145.574219 147.390625 145.511719 142.910156 145.945312 138.582031 Z M 150.699219 172.707031 C 151.097656 172.210938 151.894531 170.867188 150.820312 169.34375 C 150.402344 168.789062 149.730469 168.441406 149.261719 168.582031 C 149.097656 168.605469 148.949219 168.691406 148.820312 168.824219 C 148.421875 169.210938 148.117188 169.957031 148.039062 170.765625 C 147.867188 172.609375 148.207031 173.605469 148.628906 173.773438 C 149.070312 173.945312 150.023438 173.546875 150.699219 172.707031 Z M 154.558594 285.84375 C 155.355469 283.730469 154.445312 280.339844 153.15625 278.980469 C 151.554688 277.273438 149.089844 276.222656 146.207031 276.050781 C 144.519531 275.964844 143.273438 276.222656 142.476562 276.890625 C 141.714844 277.507812 141.273438 278.597656 141.316406 279.726562 C 141.351562 280.816406 141.816406 281.988281 142.621094 283.054688 C 143.722656 284.492188 145.28125 285.445312 147.511719 286.078125 C 148.03125 286.207031 148.628906 286.441406 149.261719 286.695312 C 150.308594 287.09375 151.582031 287.578125 152.316406 287.515625 C 153.460938 287.40625 154.167969 286.875 154.558594 285.84375 Z M 157.996094 236.953125 C 158.703125 236.339844 158.160156 232.59375 156.253906 228.175781 C 154.792969 224.785156 152.230469 222.332031 149.425781 221.605469 C 146.691406 220.902344 142.996094 222.253906 142.128906 225.105469 C 141.609375 226.832031 142.128906 228.988281 143.488281 230.757812 C 144.941406 232.636719 147.132812 233.929688 148.863281 234.855469 C 153.15625 237.117188 156.808594 237.960938 157.996094 236.953125 Z M 161.085938 189.589844 C 161.136719 189.554688 161.195312 189.546875 161.257812 189.511719 C 160.886719 189.105469 160.496094 188.679688 160.082031 188.261719 C 156.410156 184.675781 153.753906 180.367188 151.683594 175.757812 C 150.800781 176.390625 149.816406 176.753906 148.878906 176.753906 C 148.414062 176.753906 147.972656 176.667969 147.546875 176.5 C 146.457031 176.058594 144.707031 174.707031 145.125 170.476562 C 145.269531 168.960938 145.867188 167.574219 146.777344 166.707031 C 147.15625 166.34375 147.597656 166.09375 148.074219 165.902344 C 147.511719 164.082031 147.003906 162.246094 146.515625 160.414062 C 144.371094 152.554688 141.394531 146.601562 137.957031 139.703125 C 137.117188 138.039062 136.269531 136.320312 135.386719 134.527344 C 132.375 128.320312 128.054688 122.601562 122.929688 118 C 121.789062 116.984375 120.585938 115.988281 119.410156 115.019531 C 117.339844 113.3125 115.195312 111.550781 113.304688 109.53125 C 112.257812 108.429688 111.132812 107.035156 110.164062 105.433594 C 109.542969 107.199219 109.871094 109.445312 111.074219 111.507812 C 112.300781 113.589844 114.214844 115.339844 116.078125 117.046875 C 127.734375 127.664062 138.46875 138.375 141.644531 152.710938 C 142.519531 156.714844 142.742188 160.839844 142.960938 164.84375 C 143.246094 170.140625 143.523438 175.132812 145.191406 179.875 C 147.410156 186.175781 152.089844 191.53125 156.296875 196.054688 L 156.792969 196.582031 C 156.871094 193.574219 158.558594 190.75 161.085938 189.589844 Z M 170.476562 203.699219 C 171.109375 201.351562 170.933594 198.800781 170.007812 196.558594 C 169.273438 194.804688 168.148438 193.429688 166.804688 192.632812 C 165.957031 192.128906 164.996094 191.867188 164.105469 191.867188 C 163.472656 191.867188 162.859375 192 162.3125 192.25 C 160.695312 192.996094 159.613281 195.023438 159.71875 197.058594 C 159.820312 198.984375 160.875 201.011719 162.625 202.582031 C 164.019531 203.863281 166.355469 205.46875 168.214844 206.011719 C 168.726562 206.160156 169.011719 206.054688 169.167969 205.96875 C 169.695312 205.675781 170.179688 204.816406 170.476562 203.699219 Z M 177.21875 237.5 C 177.183594 237.429688 177.175781 237.371094 177.140625 237.292969 C 176.75 235.808594 176.5 234.265625 176.265625 232.769531 C 176.085938 231.625 175.894531 230.429688 175.644531 229.300781 C 174.542969 224.535156 173.027344 219.578125 171.019531 214.167969 C 170.347656 212.375 169.800781 210.640625 169.332031 208.949219 C 169.117188 208.976562 168.910156 209.019531 168.683594 209.019531 C 168.261719 209.019531 167.835938 208.96875 167.394531 208.828125 C 167.308594 208.804688 167.203125 208.777344 167.117188 208.742188 C 167.878906 209.859375 168.582031 210.996094 169.230469 212.199219 C 172.855469 218.945312 173.324219 226.746094 170.46875 233.0625 C 170.199219 233.652344 169.585938 234 168.953125 233.910156 C 168.320312 233.84375 167.800781 233.375 167.6875 232.742188 C 166.320312 225.945312 161.40625 219.523438 153.050781 213.640625 C 150.464844 211.8125 147.71875 210.113281 145.046875 208.464844 C 140.484375 205.65625 135.75 202.726562 131.628906 199.089844 C 124.480469 192.753906 119.21875 184.179688 116.792969 174.925781 C 116.65625 174.34375 116.507812 173.753906 116.371094 173.164062 C 115.800781 170.816406 115.253906 168.589844 114.113281 166.699219 C 112.863281 164.679688 110.414062 162.929688 108.140625 163.519531 C 107.898438 163.578125 107.699219 163.664062 107.472656 163.769531 C 114.40625 182.585938 125.890625 199.644531 140.71875 213.109375 C 142.597656 214.820312 144.5625 216.507812 146.457031 218.136719 C 146.621094 218.257812 146.769531 218.40625 146.925781 218.535156 C 148.015625 218.414062 149.113281 218.492188 150.144531 218.753906 C 153.832031 219.699219 157.128906 222.785156 158.957031 227.003906 C 159.585938 228.476562 160.332031 230.429688 160.789062 232.371094 C 161.785156 233.574219 162.816406 234.769531 163.914062 235.851562 C 166.617188 238.53125 168.65625 241.675781 170.40625 244.851562 C 170.613281 242.664062 171.230469 240.976562 172.3125 239.71875 C 173.515625 238.359375 175.324219 237.605469 177.21875 237.5 Z M 182.132812 119.414062 C 184.195312 104.902344 184.851562 90.125 184.117188 75.480469 C 183.183594 75.046875 182.367188 74.25 181.925781 73.296875 C 181.589844 72.585938 181.398438 71.855469 181.25 71.207031 C 181.121094 70.6875 181.019531 70.21875 180.84375 69.8125 C 180.613281 69.246094 180.039062 68.675781 179.746094 68.546875 C 178.449219 69.238281 177.453125 70.746094 177.035156 72.664062 C 176.691406 74.292969 176.75 76 176.792969 77.792969 L 176.820312 78.875 C 176.90625 84.085938 175.554688 89.199219 174.242188 94.175781 C 173.167969 98.210938 172.050781 102.390625 171.800781 106.472656 C 171.089844 117.828125 170.371094 129.5625 173.566406 140.601562 C 173.738281 141.226562 173.957031 141.851562 174.144531 142.464844 C 174.5625 140.523438 175.539062 138.859375 176.984375 137.890625 C 178.109375 137.128906 179.511719 136.789062 180.949219 136.851562 C 180.507812 130.921875 181.304688 125.28125 182.132812 119.414062 Z M 184.34375 305.796875 C 184.34375 305.554688 184.308594 305.292969 184.308594 305.058594 C 183.8125 290.222656 180.808594 275.390625 175.539062 261.480469 C 174.519531 260.363281 173.972656 258.949219 173.46875 257.640625 C 173.21875 257 172.984375 256.375 172.707031 255.847656 C 171.773438 254.027344 171.125 252.191406 170.726562 250.335938 C 170.476562 249.808594 170.226562 249.277344 169.964844 248.765625 C 167.964844 244.804688 165.679688 240.691406 162.355469 237.429688 C 161.949219 237.015625 161.578125 236.574219 161.1875 236.164062 C 161.109375 237.394531 160.730469 238.488281 159.890625 239.191406 C 159.761719 239.3125 159.597656 239.398438 159.441406 239.503906 C 161.855469 243.808594 163.785156 248.777344 165.195312 254.339844 C 167.144531 262.089844 167.90625 270.097656 168.65625 277.863281 C 168.703125 278.332031 168.511719 278.796875 168.148438 279.117188 C 167.792969 279.429688 167.289062 279.535156 166.824219 279.421875 L 165.792969 279.171875 C 162.816406 278.417969 161.40625 277.957031 159.585938 274.699219 L 144.398438 247.421875 C 142.683594 244.339844 140.734375 240.835938 137.722656 238.824219 C 135.152344 237.09375 131.042969 236.667969 128.914062 238.992188 C 126.695312 241.398438 127.542969 245.714844 129.648438 248.523438 C 131.109375 250.457031 133.007812 252 135.023438 253.628906 C 136.226562 254.617188 137.472656 255.613281 138.613281 256.730469 C 140.554688 258.585938 144.890625 263.507812 143.339844 269.167969 C 143.226562 269.628906 142.910156 269.976562 142.46875 270.15625 C 142.035156 270.3125 141.558594 270.289062 141.160156 270.035156 C 138.3125 268.277344 134.753906 268.257812 131 268.257812 C 127.148438 268.242188 123.15625 268.242188 119.660156 266.292969 C 116.742188 264.652344 114.726562 261.941406 112.96875 259.558594 L 103.363281 246.574219 C 101.648438 244.261719 100.253906 243.160156 98.992188 243.160156 C 98.871094 243.160156 98.757812 243.175781 98.636719 243.195312 C 101.085938 246.296875 103.066406 249.738281 104.980469 253.101562 C 107.386719 257.363281 109.878906 261.757812 113.289062 265.261719 C 117.28125 269.316406 122.863281 272.480469 129.90625 274.636719 C 132.832031 275.546875 135.871094 276.242188 138.925781 276.875 C 139.308594 275.988281 139.878906 275.203125 140.613281 274.613281 C 141.992188 273.476562 143.945312 272.964844 146.386719 273.121094 C 150.015625 273.347656 153.164062 274.699219 155.285156 276.960938 C 156.175781 277.90625 156.929688 279.363281 157.363281 280.964844 C 161.871094 282.316406 166.207031 284.136719 170.113281 286.882812 C 176.265625 291.210938 181.183594 297.753906 184.34375 305.796875 Z M 184.351562 253.335938 C 184.410156 250.941406 184.410156 248.394531 183.734375 246.070312 C 183.042969 243.6875 181.632812 241.824219 179.902344 240.941406 C 178.058594 240.003906 175.6875 240.324219 174.519531 241.660156 C 173.78125 242.5 173.375 243.785156 173.273438 245.558594 C 173.105469 248.515625 173.800781 251.53125 175.324219 254.511719 C 175.679688 255.1875 175.9375 255.890625 176.207031 256.585938 C 176.835938 258.214844 177.367188 259.617188 178.65625 260.214844 C 179.894531 260.789062 181.519531 260.535156 182.515625 259.644531 C 184.03125 258.292969 184.289062 255.820312 184.351562 253.335938 Z M 186.523438 328.554688 C 186.117188 320.085938 184.765625 312.953125 182.367188 306.808594 C 179.375 299.078125 174.707031 292.8125 168.847656 288.695312 C 165.429688 286.296875 161.699219 284.664062 157.761719 283.402344 C 157.839844 284.597656 157.71875 285.800781 157.3125 286.882812 C 156.703125 288.488281 155.5625 289.605469 154.03125 290.132812 C 162.332031 293.992188 168.449219 298.558594 172.640625 304.070312 C 177.953125 311.039062 180.445312 319.976562 179.625 328.851562 C 181.917969 328.773438 184.21875 328.667969 186.523438 328.554688 Z M 185.589844 283.878906 C 185.691406 281.492188 185.789062 279.03125 185.378906 276.875 C 184.660156 273.070312 183.960938 269.273438 183.234375 265.476562 C 183.078125 264.628906 182.914062 263.761719 182.75 262.910156 C 181.917969 263.257812 181.019531 263.464844 180.125 263.464844 C 179.582031 263.464844 179.054688 263.378906 178.542969 263.25 C 181.980469 272.921875 184.351562 282.992188 185.589844 293.175781 C 185.589844 291.546875 185.570312 289.925781 185.511719 288.332031 C 185.457031 286.882812 185.511719 285.34375 185.589844 283.878906 Z M 188.402344 160.640625 C 189.769531 159.800781 190.632812 157.199219 190.433594 154.609375 C 190.054688 149.902344 188.394531 145.671875 185.761719 142.675781 C 184.601562 141.332031 183.460938 140.480469 182.257812 140.058594 C 180.957031 139.597656 179.5625 139.703125 178.628906 140.335938 C 177.71875 140.949219 177.070312 142.15625 176.90625 143.558594 C 176.734375 145.066406 177.054688 146.671875 177.367188 148.058594 C 178.734375 154.0625 181.105469 157.710938 185.3125 160.261719 C 186.558594 161.003906 187.597656 161.136719 188.402344 160.640625 Z M 193.351562 197.128906 C 193.578125 193.246094 193.34375 189.382812 193.101562 186.441406 C 192.554688 179.441406 191.257812 172.507812 189.222656 165.832031 C 189.023438 165.140625 188.773438 164.429688 188.539062 163.726562 C 188.167969 163.832031 187.785156 163.890625 187.34375 163.890625 C 186.332031 163.890625 185.164062 163.597656 183.796875 162.773438 C 183.121094 162.375 182.507812 161.933594 181.902344 161.472656 C 182.066406 161.871094 182.222656 162.289062 182.367188 162.6875 C 187.449219 176.917969 188.140625 192.320312 184.289062 206.097656 C 184.132812 206.679688 183.605469 207.113281 182.992188 207.15625 C 182.386719 207.199219 181.796875 206.863281 181.546875 206.308594 C 179.226562 201.203125 176.421875 196.261719 173.21875 191.617188 C 171.914062 189.71875 170.269531 187.882812 168.675781 186.105469 C 166.660156 183.851562 164.574219 181.519531 163.050781 178.953125 C 160.0625 174.003906 158.453125 167.339844 157.144531 161.992188 L 157.078125 161.664062 C 155.667969 155.933594 154.808594 150.050781 154.507812 144.199219 C 154.34375 141.15625 154.324219 138.074219 154.316406 135.097656 C 154.296875 129.984375 154.28125 124.707031 153.503906 119.621094 C 152.28125 111.636719 149.199219 103.941406 146.207031 96.503906 C 144.871094 93.1875 143.488281 89.761719 141.039062 87.25 C 140.085938 86.285156 138.570312 85.082031 136.738281 84.824219 C 136.355469 84.761719 135.957031 84.777344 135.558594 84.832031 C 145.46875 100.898438 149.9375 119.984375 148.128906 138.792969 C 147.304688 147.378906 148.292969 156.65625 150.984375 165.902344 C 151.832031 166.222656 152.628906 166.828125 153.207031 167.636719 C 154.617188 169.621094 154.636719 172.03125 153.328125 174.03125 C 155.371094 178.753906 157.984375 183.113281 161.621094 186.695312 C 162.375 187.441406 163.050781 188.195312 163.664062 188.957031 C 165.222656 188.871094 166.867188 189.25 168.292969 190.089844 C 170.179688 191.199219 171.738281 193.097656 172.707031 195.421875 C 173.894531 198.273438 174.121094 201.480469 173.316406 204.460938 C 172.898438 206.011719 172.222656 207.199219 171.339844 207.980469 C 171.84375 209.75 172.386719 211.535156 173.074219 213.40625 C 175.132812 218.902344 176.671875 223.945312 177.789062 228.816406 C 178.066406 230.003906 178.257812 231.242188 178.449219 232.429688 C 178.691406 233.929688 178.90625 235.359375 179.269531 236.71875 C 179.375 237.058594 179.511719 237.394531 179.605469 237.734375 C 180.167969 237.871094 180.714844 238.0625 181.226562 238.316406 C 182.871094 239.148438 184.28125 240.578125 185.3125 242.355469 C 186.816406 230.488281 188.835938 218.640625 191.371094 206.992188 C 191.578125 206.054688 191.8125 205.09375 192.046875 204.140625 C 192.617188 201.835938 193.222656 199.453125 193.351562 197.128906 Z M 201.601562 213.847656 C 199.375 213.769531 197.4375 212.800781 196 211.058594 C 194.910156 209.730469 194.210938 208.085938 193.777344 206.394531 C 193.691406 206.742188 193.601562 207.113281 193.523438 207.46875 C 191.257812 217.886719 189.386719 228.476562 187.949219 239.085938 C 190.167969 233.632812 192.703125 228.3125 195.542969 223.164062 C 197.203125 220.15625 199.167969 216.871094 201.601562 213.847656 Z M 206.671875 189.503906 C 207.546875 175.546875 204.101562 159.714844 196.183594 141.496094 C 195.808594 140.613281 195.4375 139.78125 195.074219 138.957031 C 193.394531 135.1875 191.957031 131.9375 190.859375 127.621094 C 188.625 118.902344 190.875 109.765625 193.160156 101.90625 L 193.75 99.902344 C 195.878906 92.613281 198.09375 85.066406 197.4375 77.613281 C 197.144531 74.335938 196.199219 72.011719 194.632812 70.738281 C 193.734375 70 192.3125 69.691406 191.109375 69.957031 C 190.523438 70.097656 189.726562 70.445312 189.363281 71.25 C 189.214844 71.570312 189.109375 71.925781 189.007812 72.289062 C 188.667969 73.40625 188.226562 74.941406 186.660156 75.574219 C 186.558594 75.625 186.4375 75.644531 186.324219 75.679688 C 187.050781 90.359375 186.375 105.164062 184.308594 119.722656 C 183.46875 125.660156 182.679688 131.355469 183.191406 137.273438 C 183.207031 137.273438 183.234375 137.292969 183.25 137.292969 C 184.929688 137.890625 186.472656 139.007812 187.96875 140.734375 C 191.023438 144.199219 192.929688 149.054688 193.351562 154.375 C 193.585938 157.285156 192.78125 160.839844 190.523438 162.695312 C 190.796875 163.535156 191.074219 164.359375 191.34375 165.199219 C 193.414062 172.011719 194.746094 179.101562 195.308594 186.261719 C 195.457031 188.148438 195.601562 190.414062 195.628906 192.820312 C 197.066406 190.308594 199.339844 188.617188 201.78125 188.304688 C 203.453125 188.097656 205.15625 188.558594 206.671875 189.503906 Z M 208.34375 201.773438 C 208.621094 198.628906 208.316406 196.304688 207.367188 194.449219 C 206.421875 192.648438 204.335938 190.957031 202.164062 191.234375 C 200.257812 191.46875 198.769531 193.117188 198.027344 194.554688 C 197.058594 196.417969 196.703125 198.644531 196.363281 200.785156 C 195.964844 203.335938 196.476562 207.027344 198.261719 209.167969 C 199.1875 210.304688 200.3125 210.859375 201.722656 210.917969 C 203.445312 210.953125 205.332031 209.84375 206.507812 208.066406 C 207.503906 206.523438 208.09375 204.523438 208.34375 201.773438 Z M 203.246094 244.589844 C 205.9375 243.878906 209.296875 239.753906 209.042969 237.472656 C 208.90625 236.035156 207.988281 234.734375 206.785156 234.25 C 206.292969 234.050781 205.816406 233.957031 205.367188 233.957031 C 204.421875 233.957031 203.558594 234.355469 202.777344 235.167969 C 200.832031 237.160156 199.964844 241.089844 200.960938 243.386719 C 201.453125 244.546875 202.121094 244.894531 203.246094 244.589844 Z M 214.792969 282.421875 C 214.097656 282.179688 213.484375 281.8125 212.964844 281.335938 C 212.046875 280.503906 211.546875 279.429688 211.328125 278.269531 C 208.570312 282.757812 206.90625 288.046875 205.539062 292.941406 C 203.0625 301.835938 200.960938 310.96875 199.316406 320.070312 C 198.8125 322.816406 198.433594 325.480469 198.933594 327.90625 C 200.933594 327.820312 202.925781 327.730469 204.925781 327.671875 C 205.183594 323.476562 205.382812 319.246094 205.523438 315.070312 C 205.566406 313.675781 205.539062 312.234375 205.496094 310.691406 C 205.433594 307.617188 205.367188 304.425781 205.964844 301.472656 C 207.21875 295.265625 209.355469 287.5625 214.792969 282.421875 Z M 231.765625 271.996094 C 232.761719 270.054688 232.761719 267.835938 231.765625 266.316406 C 230.585938 264.542969 228.207031 263.925781 226.269531 263.925781 C 226.050781 263.925781 225.828125 263.933594 225.609375 263.953125 C 221.769531 264.230469 218.210938 266.59375 216.097656 270.242188 C 214.515625 272.984375 213.234375 277.609375 214.9375 279.171875 C 215.675781 279.828125 217.007812 280.003906 218.902344 279.664062 C 221.792969 279.136719 224.527344 278.113281 227.039062 276.597656 C 229.339844 275.203125 230.882812 273.683594 231.765625 271.996094 Z M 241 171.449219 C 241.191406 169.414062 241.304688 167.039062 240.808594 164.800781 C 240.308594 162.582031 239.21875 160.769531 237.753906 159.679688 C 236.976562 159.097656 235.9375 158.726562 234.96875 158.726562 C 234.273438 158.726562 233.617188 158.917969 233.117188 159.339844 C 232.335938 160.015625 231.894531 161.238281 231.730469 163.199219 C 231.367188 167.609375 232.121094 172.109375 233.875 176.207031 C 233.980469 176.457031 234.085938 176.710938 234.1875 176.96875 C 234.804688 178.488281 235.226562 179.414062 236.03125 179.484375 C 237.140625 179.621094 238.621094 178.488281 239.355469 177.402344 C 240.472656 175.757812 240.808594 173.5625 241 171.449219 Z M 248.554688 217.695312 C 249.628906 214.152344 250.746094 210.535156 253.109375 207.703125 C 251.265625 208.527344 249.621094 210.09375 248.488281 211.671875 C 247.535156 212.964844 246.757812 214.359375 245.917969 215.851562 C 244.878906 217.714844 243.789062 219.65625 242.351562 221.371094 C 239.085938 225.3125 234.066406 228.121094 227.445312 229.726562 C 224.363281 230.472656 221.207031 230.914062 218.148438 231.355469 C 215.847656 231.675781 213.46875 232.015625 211.183594 232.492188 C 210.722656 232.578125 210.265625 232.679688 209.816406 232.785156 C 210.984375 233.902344 211.796875 235.445312 211.96875 237.152344 C 212.054688 237.882812 211.953125 238.660156 211.734375 239.457031 C 212.152344 239.398438 212.558594 239.335938 212.964844 239.277344 C 215.128906 238.972656 217.363281 238.660156 219.535156 238.253906 C 225.246094 237.179688 230.804688 235.367188 236.074219 232.914062 C 239.0625 231.519531 242.394531 229.691406 244.609375 226.796875 C 246.574219 224.238281 247.585938 220.921875 248.554688 217.695312 Z M 256.667969 95.238281 C 254.875 95.195312 252.996094 96.402344 251.84375 97.789062 C 250.808594 99.019531 250.046875 100.476562 249.222656 102.019531 C 248.722656 102.980469 248.191406 103.960938 247.605469 104.921875 C 244.59375 109.679688 240.046875 112.988281 235.644531 116.195312 C 231.6875 119.074219 227.964844 121.796875 225.230469 125.453125 C 220.824219 131.398438 219.136719 139.78125 220.089844 151.082031 C 220.324219 153.785156 220.675781 156.566406 220.996094 159.253906 C 221.8125 165.710938 222.640625 172.367188 221.984375 178.996094 C 221.265625 186.320312 218.0625 194.996094 211.371094 199.964844 C 211.371094 200.628906 211.339844 201.324219 211.269531 202.042969 C 211.128906 203.464844 210.898438 204.703125 210.601562 205.832031 C 211.292969 205.378906 211.988281 204.921875 212.671875 204.480469 C 215.699219 202.519531 218.566406 200.675781 221.058594 198.03125 C 225.316406 193.480469 229.972656 186.71875 232.214844 179.734375 C 231.921875 179.179688 231.679688 178.589844 231.472656 178.078125 C 231.367188 177.835938 231.28125 177.601562 231.175781 177.386719 C 229.21875 172.828125 228.398438 167.84375 228.8125 162.964844 C 228.941406 161.214844 229.359375 158.71875 231.195312 157.121094 C 231.304688 157.019531 231.425781 156.964844 231.539062 156.871094 C 230.527344 151.039062 229.695312 145.039062 230.648438 139.191406 C 232.085938 130.367188 238.429688 123.3125 244.039062 117.089844 C 249.984375 110.476562 255.421875 103.871094 256.3125 95.898438 C 256.347656 95.640625 256.476562 95.421875 256.667969 95.238281 Z M 259.117188 260.804688 C 259.152344 260.15625 258.988281 259.332031 258.484375 258.949219 C 258.035156 258.59375 257.210938 258.585938 256.527344 258.570312 C 254.539062 258.59375 251.601562 259.9375 250.953125 261.566406 C 250.832031 261.863281 250.53125 262.644531 251.800781 263.910156 C 252.960938 265.027344 254.605469 265.320312 256.207031 264.6875 C 257.894531 264.011719 259.046875 262.476562 259.117188 260.804688 Z M 280.035156 232.835938 C 282.398438 224.871094 282.832031 216.328125 282.753906 208.613281 C 282.035156 209.964844 281.082031 211.195312 279.628906 212.011719 C 279.058594 212.3125 278.347656 212.226562 277.898438 211.777344 C 277.421875 211.316406 277.328125 210.613281 277.613281 210.035156 C 277.691406 209.90625 277.605469 209.695312 277.570312 209.628906 C 277.441406 209.359375 277.1875 209.125 276.945312 209.0625 C 276.304688 208.90625 275.457031 209.304688 274.929688 210.007812 C 274.273438 210.847656 273.976562 212.035156 273.769531 213.09375 C 273.121094 216.359375 273.035156 219.828125 272.949219 223.183594 C 272.816406 228.355469 272.6875 233.695312 270.609375 238.636719 C 268.203125 244.363281 263.246094 249.234375 256.648438 252.339844 C 250.234375 255.363281 243.242188 256.367188 237.867188 256.898438 C 236.570312 257.027344 235.253906 257.128906 233.953125 257.234375 C 230.414062 257.53125 226.769531 257.832031 223.273438 258.550781 C 217.941406 259.644531 213.71875 261.59375 210.6875 264.375 C 208.238281 266.628906 206.527344 269.480469 205.070312 272.4375 C 204.457031 273.683594 203.28125 279.152344 200.941406 277.125 C 200.09375 276.390625 199.972656 275.140625 200.007812 274.023438 C 200.121094 270.710938 200.136719 268.300781 200.796875 264.90625 C 201.503906 261.308594 202.222656 257.582031 204.527344 254.46875 C 206.300781 252.0625 208.957031 250.121094 212.664062 248.558594 C 217.136719 246.660156 221.921875 245.714844 226.554688 244.804688 L 227.949219 244.527344 C 232.804688 243.558594 237.902344 242.429688 242.308594 240.046875 C 246.988281 237.5 250.339844 233.652344 251.480469 229.5 C 252.097656 227.253906 252.132812 224.871094 252.15625 222.359375 C 252.175781 221.007812 252.183594 219.621094 252.304688 218.242188 C 252.519531 215.5625 253.109375 212.980469 253.820312 210.449219 C 252.375 212.730469 251.527344 215.460938 250.660156 218.328125 C 249.628906 221.742188 248.574219 225.269531 246.359375 228.148438 C 243.832031 231.441406 240.046875 233.488281 237.019531 234.898438 C 231.574219 237.457031 225.828125 239.3125 219.933594 240.429688 C 217.707031 240.835938 215.449219 241.167969 213.257812 241.460938 C 212.394531 241.589844 211.546875 241.703125 210.679688 241.84375 C 209.105469 244.46875 206.378906 246.808594 204 247.441406 C 203.511719 247.570312 203.027344 247.632812 202.570312 247.632812 C 201.03125 247.632812 199.714844 246.894531 198.796875 245.542969 C 196.71875 248.1875 195.457031 252.015625 195.039062 254.789062 C 194.425781 258.941406 194.839844 263.257812 195.230469 267.4375 C 195.378906 268.933594 195.523438 270.433594 195.609375 271.933594 C 196.277344 281.753906 195.058594 291.675781 193.878906 301.261719 C 192.78125 310.113281 191.683594 319.273438 192.0625 328.261719 C 193.585938 328.183594 195.144531 328.097656 196.703125 328.019531 C 196.234375 325.332031 196.625 322.539062 197.144531 319.671875 C 198.796875 310.503906 200.917969 301.304688 203.410156 292.351562 C 205.132812 286.207031 207.289062 279.492188 211.460938 274.230469 C 211.902344 272.105469 212.773438 270.097656 213.554688 268.769531 C 216.160156 264.273438 220.574219 261.378906 225.394531 261.011719 C 227.84375 260.832031 230.925781 261.402344 233.054688 263.378906 C 235.011719 262.789062 236.976562 262.261719 239.035156 261.84375 C 240.707031 261.523438 242.375 261.230469 244.0625 260.9375 C 245.511719 260.675781 246.964844 260.425781 248.410156 260.148438 C 249.714844 257.46875 253.550781 255.65625 256.503906 255.632812 C 257.644531 255.613281 259.089844 255.71875 260.25 256.601562 C 260.300781 256.644531 260.335938 256.707031 260.398438 256.742188 C 261.703125 256.1875 262.976562 255.570312 264.214844 254.835938 C 271.492188 250.484375 277.121094 242.675781 280.035156 232.835938 Z M 288.976562 232.601562 C 291.316406 221.917969 291.488281 213.257812 289.558594 205.34375 C 289.117188 203.527344 288.542969 202.554688 287.792969 202.261719 C 286.71875 201.863281 285.496094 202.996094 284.71875 204.269531 C 284.8125 204.417969 284.882812 204.601562 284.882812 204.808594 C 285.132812 213.597656 284.988281 223.882812 282.140625 233.460938 C 279.066406 243.835938 273.09375 252.105469 265.339844 256.730469 C 264.152344 257.433594 262.914062 258.039062 261.667969 258.585938 C 261.9375 259.289062 262.085938 260.085938 262.050781 260.925781 C 261.921875 263.777344 260.058594 266.316406 257.28125 267.417969 C 256.390625 267.773438 255.464844 267.945312 254.554688 267.945312 C 252.773438 267.945312 251.074219 267.289062 249.757812 266.003906 C 248.460938 264.75 248.003906 263.507812 247.933594 262.476562 C 246.773438 262.6875 245.605469 262.910156 244.453125 263.101562 C 242.773438 263.386719 241.113281 263.683594 239.460938 264.019531 C 237.773438 264.351562 236.136719 264.785156 234.527344 265.261719 C 235.773438 267.582031 235.746094 270.6875 234.378906 273.328125 C 234.109375 273.847656 233.808594 274.335938 233.453125 274.804688 C 234.273438 274.65625 235.097656 274.507812 235.902344 274.378906 C 237.210938 274.152344 238.515625 273.9375 239.796875 273.683594 C 254.035156 270.996094 266.203125 265.15625 275.015625 256.808594 C 282.0625 250.121094 287.03125 241.511719 288.976562 232.601562 Z M 292.40625 204.644531 C 294.457031 213.007812 294.285156 222.082031 291.84375 233.234375 C 289.773438 242.71875 284.519531 251.851562 277.042969 258.941406 C 267.824219 267.6875 255.125 273.789062 240.332031 276.578125 C 239.042969 276.8125 237.71875 277.046875 236.40625 277.273438 C 234 277.679688 231.574219 278.113281 229.210938 278.652344 C 228.988281 278.796875 228.796875 278.964844 228.546875 279.109375 C 225.730469 280.816406 222.660156 281.980469 219.414062 282.550781 C 219.386719 282.558594 219.34375 282.558594 219.308594 282.578125 C 218.582031 283.0625 217.855469 283.582031 217.199219 284.179688 C 212.074219 288.738281 210.03125 296.125 208.84375 302.058594 C 208.300781 304.695312 208.371094 307.703125 208.429688 310.632812 C 208.472656 312.132812 208.507812 313.691406 208.464844 315.171875 C 208.300781 319.820312 208.066406 324.550781 207.753906 329.195312 C 207.710938 329.960938 207.097656 330.566406 206.335938 330.582031 C 203.867188 330.636719 201.367188 330.738281 198.875 330.859375 C 198.832031 330.878906 198.796875 330.921875 198.753906 330.9375 C 198.625 330.972656 198.492188 331.007812 198.347656 331.007812 C 198.199219 331.007812 198.050781 330.964844 197.921875 330.902344 C 196.007812 330.992188 194.105469 331.09375 192.226562 331.199219 C 187.570312 331.449219 182.742188 331.710938 177.996094 331.832031 C 177.980469 331.832031 177.980469 331.832031 177.960938 331.832031 C 177.539062 331.832031 177.140625 331.648438 176.863281 331.328125 C 176.570312 331.007812 176.457031 330.582031 176.507812 330.140625 C 177.746094 321.507812 175.488281 312.660156 170.300781 305.847656 C 165.941406 300.117188 159.292969 295.429688 149.9375 291.519531 C 146.03125 289.882812 141.949219 288.46875 137.984375 287.109375 C 133.90625 285.695312 129.675781 284.242188 125.597656 282.515625 C 120.472656 280.359375 113.097656 276.753906 108.269531 270.433594 C 106.652344 268.300781 105.359375 265.960938 104.132812 263.699219 C 102.730469 261.144531 101.414062 258.734375 99.648438 256.609375 C 99.144531 256.03125 98.617188 255.449219 98.089844 254.894531 C 96.566406 253.246094 94.992188 251.574219 94.125 249.339844 C 93.339844 247.3125 93.496094 244.796875 94.542969 242.941406 C 95.328125 241.503906 96.59375 240.578125 98.089844 240.300781 C 101.863281 239.625 104.667969 243.394531 105.722656 244.824219 L 115.332031 257.808594 C 116.914062 259.957031 118.726562 262.390625 121.097656 263.71875 C 123.933594 265.304688 127.371094 265.304688 131 265.320312 C 134.289062 265.320312 137.644531 265.328125 140.71875 266.542969 C 140.589844 263 137.621094 259.835938 136.589844 258.847656 C 135.515625 257.824219 134.332031 256.863281 133.171875 255.925781 C 131.109375 254.246094 128.980469 252.511719 127.3125 250.292969 C 124.507812 246.589844 123.363281 240.664062 126.738281 237.007812 C 129.984375 233.488281 135.699219 233.910156 139.351562 236.375 C 142.960938 238.800781 145.089844 242.621094 146.96875 245.984375 L 162.148438 273.261719 C 163.257812 275.226562 163.75 275.589844 165.535156 276.066406 C 164.851562 269.066406 164.0625 261.90625 162.347656 255.058594 C 160.921875 249.453125 158.957031 244.511719 156.488281 240.28125 C 156.472656 240.28125 156.453125 240.300781 156.4375 240.300781 C 153.433594 240.300781 149.816406 238.679688 147.503906 237.457031 C 145.503906 236.398438 142.976562 234.882812 141.167969 232.558594 C 139.203125 230.019531 138.511719 226.917969 139.324219 224.257812 C 139.375 224.066406 139.453125 223.882812 139.523438 223.710938 C 137.621094 222.460938 135.664062 221.222656 133.671875 219.992188 C 128.296875 216.636719 122.730469 213.179688 117.953125 208.820312 C 107.914062 199.574219 101.8125 186.441406 101.222656 172.785156 C 101.128906 170.675781 101.164062 168.207031 102.027344 165.902344 C 103.023438 163.242188 105.023438 161.300781 107.386719 160.683594 C 111.21875 159.679688 114.847656 162.296875 116.605469 165.164062 C 118.007812 167.445312 118.621094 170 119.21875 172.472656 C 119.355469 173.042969 119.503906 173.625 119.652344 174.179688 C 121.910156 182.871094 126.851562 190.921875 133.578125 196.878906 C 137.515625 200.363281 142.128906 203.214844 146.585938 205.96875 C 149.289062 207.640625 152.089844 209.359375 154.738281 211.230469 C 161.847656 216.238281 166.660156 221.683594 169.117188 227.472656 C 169.878906 222.972656 169.039062 218.035156 166.648438 213.597656 C 163.890625 208.449219 159.726562 204.027344 155.71875 199.746094 L 154.152344 198.054688 C 149.746094 193.324219 144.847656 187.691406 142.414062 180.851562 C 140.613281 175.703125 140.320312 170.269531 140.027344 165.007812 C 139.816406 161.125 139.601562 157.121094 138.761719 153.34375 C 135.785156 139.867188 125.398438 129.519531 114.113281 119.222656 C 112.085938 117.367188 110 115.476562 108.546875 112.988281 C 106.972656 110.3125 106.519531 107.3125 107.265625 104.800781 C 107.152344 104.625 107.023438 104.460938 106.902344 104.289062 C 106.390625 103.621094 105.828125 102.859375 105.65625 101.566406 C 105.34375 99.433594 105.976562 97.414062 107.34375 96.183594 C 108.234375 95.386719 109.5 94.960938 110.71875 95.066406 C 111.816406 95.144531 112.789062 95.640625 113.4375 96.4375 C 114.214844 97.40625 114.378906 98.566406 114.507812 99.488281 C 114.597656 100.152344 114.683594 100.769531 114.949219 101.109375 C 115.316406 101.550781 116.050781 101.652344 117.226562 101.785156 C 117.859375 101.863281 118.515625 101.929688 119.175781 102.113281 C 121.917969 102.859375 123.640625 105.242188 124.90625 106.976562 L 137.6875 124.621094 C 138.207031 116.328125 136.753906 108.023438 133.429688 100.371094 C 131.421875 95.761719 130.289062 90.65625 130.140625 85.609375 C 130.132812 85.289062 130.238281 84.976562 130.425781 84.71875 C 131.890625 82.691406 134.652344 81.527344 137.179688 81.910156 C 139.265625 82.214844 141.316406 83.347656 143.125 85.1875 C 146.007812 88.117188 147.554688 91.988281 148.941406 95.40625 C 151.980469 103.003906 155.136719 110.839844 156.410156 119.179688 C 157.222656 124.472656 157.234375 129.863281 157.25 135.082031 C 157.257812 138.027344 157.277344 141.070312 157.441406 144.042969 C 157.734375 149.710938 158.574219 155.40625 159.925781 160.980469 L 159.992188 161.28125 C 161.316406 166.726562 162.824219 172.871094 165.558594 177.445312 C 166.953125 179.769531 168.847656 181.882812 170.855469 184.128906 C 172.519531 185.984375 174.242188 187.898438 175.644531 189.945312 C 178.152344 193.585938 180.429688 197.40625 182.429688 201.367188 C 184.964844 189.207031 184.003906 175.992188 179.597656 163.683594 C 178.480469 160.5625 177.113281 157.453125 175.789062 154.453125 C 173.945312 150.257812 172.035156 145.933594 170.726562 141.425781 C 167.410156 129.882812 168.191406 117.359375 168.867188 106.28125 C 169.125 101.921875 170.285156 97.597656 171.382812 93.402344 C 172.726562 88.417969 173.972656 83.714844 173.886719 78.9375 L 173.851562 77.878906 C 173.800781 75.980469 173.746094 74.015625 174.179688 72.039062 C 174.792969 69.144531 176.414062 66.882812 178.59375 65.839844 C 179.261719 65.511719 180.003906 65.503906 180.742188 65.78125 C 182.046875 66.285156 183.105469 67.636719 183.546875 68.675781 C 183.8125 69.292969 183.960938 69.914062 184.097656 70.496094 C 184.238281 71.078125 184.367188 71.605469 184.574219 72.03125 C 184.835938 72.585938 185.378906 72.921875 185.554688 72.851562 C 185.804688 72.75 186.03125 72.03125 186.183594 71.457031 C 186.332031 70.980469 186.472656 70.496094 186.6875 70.027344 C 187.363281 68.546875 188.695312 67.496094 190.445312 67.105469 C 192.546875 66.605469 194.867188 67.132812 196.492188 68.460938 C 198.703125 70.261719 200.007812 73.261719 200.355469 77.367188 C 201.0625 85.359375 198.769531 93.167969 196.554688 100.726562 L 195.984375 102.726562 C 193.8125 110.207031 191.648438 118.882812 193.691406 126.882812 C 194.738281 130.964844 196.148438 134.121094 197.757812 137.761719 C 198.121094 138.582031 198.492188 139.441406 198.890625 140.316406 C 207.460938 160.070312 210.929688 177.132812 209.417969 192.1875 C 209.605469 192.484375 209.796875 192.777344 209.96875 193.097656 C 210.488281 194.105469 210.851562 195.207031 211.085938 196.410156 C 216.019531 191.867188 218.460938 184.777344 219.058594 178.71875 C 219.691406 172.417969 218.867188 165.902344 218.089844 159.628906 C 217.75 156.90625 217.40625 154.097656 217.171875 151.316406 C 216.160156 139.277344 218.019531 130.246094 222.875 123.710938 C 225.878906 119.679688 229.957031 116.691406 233.910156 113.832031 C 238.28125 110.632812 242.410156 107.625 245.113281 103.34375 C 245.648438 102.496094 246.125 101.59375 246.617188 100.65625 C 247.476562 99.035156 248.367188 97.371094 249.605469 95.890625 C 251.671875 93.402344 255.300781 91.433594 258.691406 92.640625 C 261.902344 93.773438 263.902344 97.40625 264.050781 102.347656 C 264.242188 108.917969 262.277344 115.519531 258.527344 120.929688 C 253.082031 128.765625 248.175781 136.511719 247.882812 145.058594 C 247.726562 149.375 248.410156 153.785156 249.074219 158.066406 C 249.628906 161.613281 250.191406 165.269531 250.304688 168.960938 C 250.640625 179.519531 247.09375 190.335938 240.542969 198.609375 C 235.796875 204.617188 229.507812 209.375 222.304688 212.410156 C 215.570312 215.226562 209.726562 218.023438 206.316406 223.519531 C 204.847656 225.902344 203.921875 228.5625 203.53125 231.3125 C 204.292969 231.078125 205.089844 230.972656 205.894531 231.035156 C 207.410156 230.324219 209.019531 229.917969 210.59375 229.597656 C 212.964844 229.117188 215.390625 228.773438 217.726562 228.441406 C 220.71875 228.019531 223.800781 227.578125 226.753906 226.855469 C 232.761719 225.417969 237.242188 222.929688 240.101562 219.488281 C 241.347656 217.972656 242.332031 216.238281 243.363281 214.402344 C 244.203125 212.921875 245.070312 211.378906 246.105469 209.9375 C 249.136719 205.761719 253.230469 203.628906 257.066406 204.269531 C 257.488281 204.347656 257.851562 204.601562 258.078125 204.964844 C 258.292969 205.335938 258.355469 205.777344 258.226562 206.1875 C 256.917969 210.171875 255.574219 214.296875 255.230469 218.476562 C 255.125 219.757812 255.109375 221.09375 255.089844 222.386719 C 255.066406 224.984375 255.03125 227.664062 254.3125 230.28125 C 252.960938 235.210938 249.085938 239.710938 243.699219 242.632812 C 238.941406 245.203125 233.601562 246.410156 228.519531 247.414062 L 227.125 247.691406 C 222.632812 248.578125 218.003906 249.488281 213.804688 251.261719 C 210.601562 252.617188 208.34375 254.246094 206.890625 256.222656 C 204.984375 258.792969 204.351562 262.035156 203.679688 265.476562 C 203.261719 267.609375 202.839844 269.800781 202.078125 271.90625 C 203.738281 268.347656 205.710938 264.949219 208.699219 262.21875 C 212.132812 259.070312 216.835938 256.863281 222.695312 255.675781 C 226.347656 254.921875 230.085938 254.617188 233.703125 254.304688 C 234.992188 254.203125 236.28125 254.089844 237.574219 253.96875 C 242.714844 253.457031 249.394531 252.511719 255.402344 249.675781 C 261.332031 246.886719 265.78125 242.5625 267.894531 237.5 C 269.761719 233.078125 269.890625 228.242188 270.023438 223.113281 C 270.117188 219.621094 270.203125 216.039062 270.878906 212.539062 C 271.15625 211.144531 271.570312 209.523438 272.609375 208.195312 C 273.875 206.566406 275.839844 205.777344 277.613281 206.203125 C 278.511719 206.421875 279.316406 206.984375 279.863281 207.761719 C 280.433594 206.863281 280.859375 205.777344 281.300781 204.660156 L 281.492188 204.175781 C 282.726562 201.039062 285.722656 198.332031 288.820312 199.511719 C 291.105469 200.378906 291.964844 202.847656 292.40625 204.644531 Z M 246.183594 158.507812 C 245.492188 154.113281 244.78125 149.546875 244.945312 144.960938 C 245.277344 135.621094 250.410156 127.472656 256.105469 119.257812 C 259.515625 114.359375 261.289062 108.371094 261.117188 102.417969 C 261.074219 101.1875 260.742188 97.328125 258.46875 95.828125 C 258.5 95.933594 258.511719 96.039062 258.5 96.148438 C 257.53125 104.765625 251.878906 111.679688 245.664062 118.570312 C 240.265625 124.558594 234.152344 131.355469 232.820312 139.554688 C 231.957031 144.875 232.675781 150.449219 233.617188 155.953125 C 235.652344 155.492188 237.902344 156.125 239.503906 157.3125 C 241.546875 158.8125 243.027344 161.257812 243.667969 164.152344 C 244.253906 166.785156 244.125 169.445312 243.917969 171.707031 C 243.683594 174.222656 243.277344 176.839844 241.789062 179.050781 C 240.664062 180.722656 238.457031 182.4375 236.179688 182.4375 C 236.050781 182.4375 235.902344 182.4375 235.773438 182.429688 C 235.011719 182.351562 234.386719 182.09375 233.875 181.738281 C 231.445312 188.496094 227.003906 194.894531 222.660156 199.539062 C 219.984375 202.390625 216.878906 204.390625 213.867188 206.332031 C 212.222656 207.390625 210.535156 208.492188 208.914062 209.730469 C 207.945312 211.1875 206.671875 212.304688 205.246094 213.023438 C 201.992188 216.429688 199.507812 220.546875 197.480469 224.222656 C 193.328125 231.738281 189.847656 239.632812 187.066406 247.761719 C 187.335938 249.675781 187.335938 251.582031 187.292969 253.421875 C 187.214844 256.421875 186.835938 259.472656 184.730469 261.550781 C 184.957031 262.730469 185.191406 263.910156 185.398438 265.070312 C 186.117188 268.867188 186.835938 272.652344 187.554688 276.449219 C 188.011719 278.875 187.890625 281.460938 187.785156 283.972656 C 187.71875 285.472656 187.65625 286.882812 187.699219 288.238281 C 187.875 292.492188 187.300781 296.6875 187.214844 300.96875 C 187.15625 303.371094 187.101562 305.761719 187.050781 308.179688 C 187 310.425781 186.539062 313.101562 186.902344 315.320312 C 187.613281 319.6875 188.503906 323.9375 188.730469 328.433594 C 189.09375 328.417969 189.472656 328.40625 189.855469 328.375 C 189.472656 319.203125 190.589844 309.957031 191.699219 301.003906 C 192.851562 291.503906 194.0625 281.691406 193.429688 272.082031 C 193.328125 270.597656 193.179688 269.125 193.050781 267.644531 C 192.632812 263.335938 192.210938 258.882812 192.867188 254.46875 C 193.292969 251.515625 194.839844 246.496094 197.84375 243.289062 C 197.101562 240.101562 198.113281 236.042969 200.390625 233.460938 C 200.519531 229.429688 201.679688 225.4375 203.824219 221.976562 C 207.6875 215.746094 214.230469 212.609375 221.160156 209.6875 C 227.914062 206.84375 233.808594 202.390625 238.238281 196.792969 C 244.359375 189.042969 247.691406 178.929688 247.371094 169.046875 C 247.265625 165.546875 246.714844 161.976562 246.183594 158.507812 " fill-opacity="1" fill-rule="nonzero"/></g></svg>