<svg xmlns="http://www.w3.org/2000/svg" xmlns:xlink="http://www.w3.org/1999/xlink" width="500" zoomAndPan="magnify" viewBox="0 0 375 374.999991" height="500" preserveAspectRatio="xMidYMid meet" version="1.0"><defs><clipPath id="8ee8283b62"><path d="M 187.5 0 C 83.945312 0 0 83.945312 0 187.5 C 0 291.054688 83.945312 375 187.5 375 C 291.054688 375 375 291.054688 375 187.5 C 375 83.945312 291.054688 0 187.5 0 Z M 187.5 0 " clip-rule="nonzero"/></clipPath><clipPath id="c484754d51"><path d="M 88 67 L 286.75 67 L 286.75 308 L 88 308 Z M 88 67 " clip-rule="nonzero"/></clipPath></defs><g clip-path="url(#8ee8283b62)"><rect x="-37.5" width="450" fill="#a2c36e" y="-37.499999" height="449.999989" fill-opacity="1"/></g><g clip-path="url(#c484754d51)"><path fill="#ffffff" d="M 114.367188 280.878906 C 114.648438 278.136719 115.542969 275.632812 116.914062 273.59375 C 113.277344 270.726562 107.035156 268.136719 102.882812 269.371094 C 99.898438 270.28125 96.328125 272.121094 94.785156 275.027344 C 93.429688 277.621094 93.945312 279.78125 93.609375 282.507812 C 93.21875 285.648438 94.195312 287.183594 97.652344 287.90625 C 99.625 288.328125 101.605469 288.601562 103.628906 288.648438 C 106.265625 288.730469 111.664062 289.339844 113.292969 286.675781 C 113.597656 286.175781 113.976562 285.886719 114.390625 285.71875 C 114.226562 284.199219 114.203125 282.601562 114.367188 280.878906 Z M 127.394531 196.8125 C 127.363281 196.796875 127.339844 196.78125 127.324219 196.765625 C 125.058594 195.753906 122.976562 195.074219 121.269531 193.246094 C 120.25 192.152344 119.617188 190.820312 118.800781 189.597656 C 118.464844 190.214844 118.152344 190.851562 117.851562 191.484375 C 118.058594 193.914062 119.324219 196.011719 122.4375 196.632812 C 124.097656 196.960938 125.742188 196.882812 127.394531 196.8125 Z M 123.65625 176.414062 C 126.507812 173.945312 129.390625 170.75 132.769531 169.332031 C 130.386719 168.917969 127.910156 168.785156 125.554688 168.410156 C 122.105469 167.882812 118.660156 167.414062 115.167969 167.335938 C 115.238281 168.210938 115.738281 169.011719 116.503906 169.90625 C 118.589844 172.300781 120.988281 174.324219 123.476562 176.265625 C 123.546875 176.3125 123.59375 176.375 123.65625 176.414062 Z M 127.800781 166.496094 C 129.375 166.707031 130.878906 166.875 132.359375 167.085938 C 129.132812 164.273438 125.632812 161.484375 121.574219 160.457031 C 119.191406 160.910156 117.015625 163.050781 115.832031 165.101562 C 119.859375 165.257812 123.789062 165.902344 127.800781 166.496094 Z M 128.585938 133.054688 C 130.847656 133.550781 133.066406 133.269531 135.132812 132.390625 C 132.523438 130.519531 129.3125 129.492188 126.117188 129.273438 C 126.101562 129.3125 126.070312 129.359375 126.054688 129.40625 C 126.328125 131.003906 126.824219 132.664062 128.585938 133.054688 Z M 131.578125 269.308594 C 132.039062 269.503906 132.523438 269.71875 132.996094 269.921875 C 132.871094 263.867188 124.878906 258.15625 119.113281 258.765625 C 115.023438 259.203125 110.734375 261.59375 108.289062 265.015625 C 112.589844 265.675781 116.828125 267.609375 120.0625 270.328125 C 123.117188 268.136719 127.152344 267.5 131.578125 269.308594 Z M 135.636719 157.605469 C 135.390625 157.472656 135.148438 157.324219 134.90625 157.175781 C 131.304688 155.257812 128.570312 152.960938 125.207031 151.472656 C 123.742188 152.960938 123.902344 154.800781 124.097656 156.753906 C 127.535156 159.039062 131.335938 159.132812 135.636719 157.605469 Z M 138.3125 204.753906 C 138.3125 204.589844 138.328125 204.410156 138.375 204.246094 C 135.800781 202.796875 133.582031 200.824219 131.207031 199.097656 C 130.667969 198.980469 130.113281 198.902344 129.554688 198.933594 C 126.476562 199.058594 123.140625 199.71875 120.257812 198.230469 C 118.527344 197.320312 117.320312 196.175781 116.554688 194.847656 C 116.246094 195.800781 116.003906 196.71875 115.886719 197.609375 C 115.300781 201.785156 128.570312 206.480469 131.53125 207.355469 C 131.757812 207.410156 131.9375 207.503906 132.101562 207.605469 C 132.414062 207.605469 132.738281 207.699219 133.035156 207.832031 C 134.5625 206.480469 136.355469 205.515625 138.3125 204.753906 Z M 137.351562 233.644531 C 140.265625 233.308594 142.371094 231.5 144.226562 229.28125 C 139.339844 228.695312 134.804688 222.566406 131.984375 217.125 C 131.105469 220.25 130.652344 223.507812 130.847656 226.65625 C 131.003906 229.445312 135.226562 231.453125 137.351562 233.644531 Z M 141.816406 248.785156 C 143.414062 243.71875 141.046875 236.582031 134.003906 238.695312 C 126.382812 240.984375 121.847656 246.585938 121.261719 254.339844 C 121.980469 254.425781 122.710938 254.558594 123.398438 254.800781 C 126.824219 255.960938 130.230469 257.714844 132.855469 260.097656 C 132.996094 259.933594 133.144531 259.777344 133.339844 259.644531 C 137.53125 256.792969 140.25 253.730469 141.816406 248.785156 Z M 141.980469 132.859375 C 144.503906 133.597656 147.1875 133.582031 149.8125 133.660156 C 143.898438 130.207031 137.890625 127.046875 131.828125 123.78125 C 131.648438 124.171875 131.335938 124.519531 130.816406 124.761719 C 129.792969 125.253906 128.9375 125.84375 128.191406 126.523438 C 133.425781 127.425781 136.824219 131.378906 141.980469 132.859375 Z M 135.40625 154.910156 C 139.761719 157.488281 145.574219 158.125 151.035156 158.40625 C 146.492188 156.507812 142.191406 154.472656 138.046875 151.457031 C 136.417969 150.28125 135.03125 148.769531 133.683594 147.21875 C 133.308594 147.039062 133.035156 146.703125 132.886719 146.296875 C 130.292969 143.277344 127.714844 140.277344 123.773438 139.300781 C 123.757812 139.316406 123.742188 139.347656 123.726562 139.363281 C 122.027344 141.398438 123.414062 145.199219 124.714844 147.054688 C 124.933594 147.367188 125.058594 147.6875 125.105469 147.988281 C 125.121094 148.003906 125.136719 148.035156 125.160156 148.050781 C 128.695312 150.09375 131.921875 152.84375 135.40625 154.910156 Z M 141.699219 184.050781 C 143.171875 183.871094 144.730469 183.902344 146.28125 184.003906 C 140.203125 182.179688 134.203125 180.007812 127.746094 179.257812 C 128.421875 179.648438 129.054688 180.113281 129.59375 180.699219 C 133.324219 184.789062 136.808594 184.625 141.699219 184.050781 Z M 139.730469 201.832031 C 142.777344 198.300781 147.589844 197.039062 151.464844 194.453125 C 146.59375 196.128906 141.753906 196.476562 137.289062 192.824219 C 136.027344 193.460938 134.875 194.257812 133.667969 195.003906 C 133.097656 195.363281 132.21875 195.269531 131.757812 194.761719 C 128.390625 191.03125 126.734375 186.207031 123.789062 182.289062 C 122.507812 183.746094 121.230469 185.515625 120.054688 187.429688 C 120.710938 188.226562 121.261719 189.074219 121.832031 190.035156 C 123.578125 192.933594 125.890625 193.199219 128.453125 194.808594 C 129.445312 195.425781 130.402344 196.113281 131.351562 196.8125 C 134.4375 197.1875 137.125 199.8125 139.730469 201.832031 Z M 146.945312 243.113281 C 148.378906 240.898438 150.03125 238.816406 152.046875 237.199219 C 150 235.40625 147.714844 234.003906 146.164062 231.851562 C 144.816406 233.386719 143.328125 234.6875 141.621094 235.585938 C 144.359375 237.460938 146.328125 240.066406 146.945312 243.113281 Z M 150.140625 265.738281 C 145.191406 266.160156 138.421875 265.871094 136.988281 262.558594 C 136.582031 262.871094 136.160156 263.175781 135.707031 263.488281 C 137.203125 265.917969 137.882812 268.785156 137.320312 272.089844 C 140.171875 273.71875 142.886719 275.679688 145.027344 278.011719 C 145.074219 278.074219 145.121094 278.121094 145.167969 278.183594 C 146.101562 273.6875 147.792969 269.519531 150.140625 265.738281 Z M 147.863281 161.820312 C 148.738281 161.5 149.570312 161.125 150.386719 160.730469 C 146.101562 160.597656 141.484375 160.277344 138.070312 158.820312 C 135.28125 160.261719 132.40625 160.992188 129.59375 160.847656 C 132.132812 162.621094 134.46875 164.742188 136.699219 166.675781 C 140.15625 164.320312 143.929688 163.277344 147.863281 161.820312 Z M 149.375 289.175781 L 149.359375 289.160156 C 148.824219 287.640625 144.375 284.019531 143.328125 282.863281 C 141.257812 280.613281 139.042969 278.585938 136.449219 276.949219 C 133.457031 275.027344 129.523438 272.371094 125.765625 272.828125 C 120.53125 273.445312 118.871094 278.269531 118.722656 282.632812 C 118.433594 290.820312 125.40625 297.824219 133.957031 297.613281 C 140.5625 297.4375 145.121094 293.765625 149.375 289.175781 Z M 150.046875 220.984375 C 149.882812 220.984375 149.71875 221.015625 149.554688 221 C 145.792969 220.742188 143.054688 219.339844 140.445312 217.695312 C 141.535156 219.175781 142.707031 220.5625 144.421875 221.425781 C 146.414062 222.417969 148.238281 221.964844 150.046875 220.984375 Z M 153.246094 183.550781 C 151.691406 182.671875 150.289062 181.710938 149.195312 180.699219 C 145.960938 177.761719 141.179688 171.148438 136.082031 171.832031 C 132.3125 172.347656 130.035156 174.652344 127.652344 176.976562 C 136.550781 178.019531 144.652344 181.757812 153.246094 183.550781 Z M 149.554688 218.738281 C 150.808594 218.652344 152.054688 218.394531 153.292969 218.078125 C 149.117188 215.675781 145.042969 209.558594 141.304688 207.066406 C 138.589844 207.910156 136.082031 208.953125 134.273438 211.046875 C 134.203125 211.1875 134.152344 211.320312 134.074219 211.453125 C 134.679688 211.757812 135.257812 212.085938 135.832031 212.449219 C 135.871094 212.480469 135.933594 212.511719 135.980469 212.542969 C 140.234375 215.265625 143.882812 219.144531 149.554688 218.738281 Z M 150.441406 150.546875 C 153.078125 149.632812 155.648438 148.589844 158.320312 147.777344 C 152.03125 147.28125 145.753906 147.078125 139.324219 147.25 C 142.542969 149.554688 145.9375 152.128906 150.441406 150.546875 Z M 154.410156 136.433594 C 154.394531 136.433594 154.378906 136.417969 154.363281 136.402344 C 150.1875 135.546875 145.511719 136.777344 141.375 135.046875 C 140.234375 134.5625 139.128906 133.972656 138.03125 133.339844 C 137.953125 133.433594 137.890625 133.519531 137.789062 133.582031 C 134.804688 135.34375 130.519531 136.449219 127.183594 134.953125 C 126.117188 134.472656 125.421875 133.761719 124.910156 132.90625 C 124.714844 133.988281 124.589844 135.109375 124.542969 136.269531 C 128.757812 137.347656 131.710938 140.128906 134.742188 143.640625 C 134.828125 143.75 134.921875 143.851562 135.03125 143.960938 C 139.027344 142.738281 142.660156 140.796875 146.507812 139.105469 C 149.039062 138 151.835938 137.394531 154.410156 136.433594 Z M 152.4375 176.40625 C 156.691406 178.246094 158.359375 175.875 161.078125 174.457031 C 155.28125 173.171875 149.421875 171.816406 143.5625 171.179688 C 146.398438 173.15625 149.476562 175.136719 152.4375 176.40625 Z M 160.363281 187.113281 C 157.488281 187.523438 155 187.082031 151.890625 186.464844 C 146.296875 185.359375 141.683594 187.128906 136.207031 186.917969 C 132.785156 186.777344 130.425781 184.96875 128.027344 183.058594 C 129.6875 185.90625 131.105469 188.941406 133.191406 191.5625 C 134.171875 190.929688 135.148438 190.308594 136.238281 189.808594 C 136.433594 189.722656 136.644531 189.691406 136.839844 189.675781 C 137.382812 189.347656 138.101562 189.316406 138.707031 189.871094 C 144.925781 195.722656 153.21875 190.765625 160.363281 187.113281 Z M 172.617188 147.070312 C 167.742188 144.367188 162.777344 141.8125 158.148438 138.726562 C 157.984375 138.679688 157.820312 138.617188 157.65625 138.5 C 157.65625 138.5 157.636719 138.5 157.636719 138.484375 C 154.136719 140.160156 150.210938 140.804688 146.6875 142.496094 C 144.941406 143.324219 143.203125 144.15625 141.453125 144.925781 C 152.015625 144.789062 161.992188 145.636719 172.617188 147.070312 Z M 159.332031 209.039062 C 160.671875 208.484375 162.007812 208.109375 163.355469 207.816406 C 159.070312 206.753906 154.867188 205.539062 150.597656 205.09375 C 153.023438 206.558594 157.214844 209.917969 159.332031 209.039062 Z M 168.167969 149.289062 C 166.371094 149.128906 164.578125 149.042969 162.824219 149.226562 C 157.789062 149.71875 153.449219 152.179688 148.574219 153.3125 C 148.316406 153.367188 148.058594 153.414062 147.808594 153.429688 C 150.636719 154.847656 153.628906 156.070312 156.761719 157.339844 C 159.933594 153.691406 163.835938 151.050781 168.167969 149.289062 Z M 169.050781 272.058594 C 168.433594 268.285156 166.035156 265.039062 165.660156 261.335938 C 165.605469 260.835938 165.152344 257.128906 164.96875 257.128906 C 163.457031 258.140625 162.058594 259.296875 160.71875 260.535156 C 154.214844 266.519531 149.992188 273.367188 149.054688 282.359375 C 149.867188 283.175781 150.714844 283.972656 151.644531 284.757812 C 152.453125 285.421875 152.828125 285.855469 153.125 286.449219 C 153.355469 286.535156 153.582031 286.675781 153.808594 286.871094 C 155.148438 288.09375 157.316406 287.835938 158.992188 287.304688 C 158.9375 285.015625 159.613281 282.640625 160.945312 280.441406 C 162.886719 277.277344 165.691406 274.066406 169.050781 272.058594 Z M 170.289062 215.738281 C 169.050781 215.660156 167.84375 215.574219 166.65625 215.605469 C 164.335938 216.890625 162.496094 218.816406 159.582031 218.832031 C 158.015625 218.832031 156.503906 219.339844 155.015625 219.859375 C 151.820312 222.058594 149.210938 225.347656 144.441406 223.945312 C 139.535156 222.496094 138.507812 216.160156 134.042969 214.046875 C 135.980469 217.804688 138.847656 221.109375 141.605469 224.230469 C 144.769531 227.800781 149.625 225.269531 153.535156 224.128906 C 158.34375 222.710938 161.921875 219.074219 166.394531 216.960938 C 167.648438 216.371094 168.964844 216.027344 170.289062 215.738281 Z M 169.261719 255.40625 C 174.292969 250.597656 175.273438 238.546875 166.476562 237.230469 C 159.070312 236.113281 153.433594 241.03125 149.867188 246.960938 C 147.699219 250.582031 145.660156 254.199219 143.296875 257.683594 C 142.433594 258.96875 140.726562 260.386719 143.101562 260.746094 C 146.640625 261.257812 149.867188 261.578125 153.402344 260.746094 C 153.582031 260.699219 153.761719 260.667969 153.925781 260.667969 C 156.191406 258.109375 158.8125 255.796875 161.765625 253.824219 C 164.335938 252.117188 168.003906 251.121094 169.175781 255.015625 C 169.222656 255.148438 169.238281 255.273438 169.261719 255.40625 Z M 175.554688 123.148438 C 170.957031 120.117188 165.316406 117.460938 159.933594 116.113281 C 154.269531 114.695312 148.378906 113.699219 142.597656 112.769531 C 140.9375 112.507812 139.402344 111.984375 137.90625 111.453125 C 136.355469 110.910156 134.84375 110.371094 133.214844 110.128906 C 130.503906 109.707031 131.414062 118.746094 132.390625 120.039062 C 132.539062 120.25 132.640625 120.445312 132.722656 120.65625 C 136.339844 122.613281 139.925781 124.535156 143.507812 126.476562 C 154.050781 123.296875 164.710938 123.75 175.554688 123.148438 Z M 170.335938 101.308594 C 174.246094 102.011719 178.210938 102.585938 182.1875 102.859375 C 177.246094 99.632812 172.011719 97.039062 166.703125 94.382812 C 162.105469 92.089844 157.9375 88.046875 152.976562 86.597656 C 152.03125 88.125 151.269531 89.902344 150.683594 91.875 C 150.667969 91.90625 150.652344 91.9375 150.636719 91.96875 C 157.183594 95.480469 162.753906 99.945312 170.335938 101.308594 Z M 167.726562 133.308594 C 171.136719 137.492188 175.765625 136.941406 179.5625 134.441406 C 175.207031 131.867188 170.757812 131.394531 165.769531 131.214844 C 166.492188 131.867188 167.15625 132.585938 167.726562 133.308594 Z M 175.011719 206.753906 C 175.976562 206.660156 176.925781 206.542969 177.878906 206.367188 C 175.8125 205.4375 174.019531 203.933594 171.996094 202.078125 C 167.710938 198.121094 162.222656 196.3125 157.605469 192.933594 C 155.859375 195.441406 153.597656 197.382812 150.839844 198.816406 C 148.332031 200.109375 145.269531 201.097656 143.070312 202.960938 C 148.199219 202.164062 153.09375 202.84375 158.242188 204.183594 C 164 205.695312 169.371094 206.707031 175.011719 206.753906 Z M 175.160156 181.394531 C 177.730469 179.164062 180.503906 177.175781 183.441406 175.417969 C 178.84375 176.179688 174.363281 176.65625 169.476562 176.054688 C 167.53125 176.101562 165.574219 176.101562 163.609375 176.101562 C 163.457031 176.101562 163.324219 176.070312 163.199219 176.023438 C 159.972656 177.078125 158.632812 180.746094 154.410156 179.507812 C 154.035156 179.390625 153.652344 179.257812 153.277344 179.117188 C 157.066406 181.96875 161.109375 184.261719 166.207031 184.492188 C 169.082031 183.191406 172.144531 182.101562 175.160156 181.394531 Z M 179.101562 210.339844 C 179.328125 209.644531 179.476562 209.21875 179.640625 208.828125 C 176.777344 209.132812 173.925781 209.25 171.074219 209.085938 C 170.484375 209.101562 169.898438 209.117188 169.308594 209.148438 C 165.207031 209.296875 162.105469 210.503906 158.328125 211.757812 C 156.808594 212.25 155.617188 211.773438 154.527344 210.652344 C 151.628906 207.636719 148.542969 206.429688 144.847656 205.976562 C 149.929688 210.441406 155.195312 217.695312 160.035156 213.050781 C 161.992188 211.171875 164.90625 211.757812 167.289062 212.101562 C 169.671875 212.464844 178.011719 213.628906 179.101562 210.339844 Z M 180.066406 235 C 179.675781 234.640625 179.296875 234.277344 178.875 233.910156 C 175.914062 231.410156 173.59375 231.953125 170.367188 230.925781 C 166.230469 229.632812 162.496094 227.894531 159.207031 225.121094 C 155.765625 226.976562 151.9375 228.074219 148.089844 228.859375 C 149.25 231.804688 152.421875 233.339844 154.726562 235.40625 C 160.984375 231.921875 169.828125 230.988281 174.316406 237.097656 C 176.445312 236.871094 178.40625 236.316406 180.066406 235 Z M 180.082031 270.09375 C 180.394531 269.371094 180.746094 268.667969 181.105469 267.9375 C 178.011719 267.789062 174.652344 267.203125 171.949219 265.738281 C 172.507812 267.171875 172.976562 268.667969 173.289062 270.296875 C 173.925781 270.140625 174.574219 270.039062 175.238281 269.992188 C 176.746094 269.890625 178.40625 269.90625 180.082031 270.09375 Z M 181.90625 133.238281 C 187.515625 133.308594 192.945312 131.9375 198.433594 131.019531 C 191.496094 129.898438 184.5 128.300781 178.011719 126.601562 C 177.863281 126.554688 177.746094 126.476562 177.605469 126.40625 C 169.65625 126.359375 161.421875 126.359375 153.472656 127.535156 C 158.34375 128.042969 163.199219 128.726562 168.121094 128.984375 C 173.289062 129.273438 177.636719 130.292969 181.90625 133.238281 Z M 180.566406 288.894531 C 181.179688 283.957031 184.226562 280.519531 188.210938 278.363281 C 185.636719 275.121094 177.800781 273.523438 174.246094 274.761719 C 170.335938 276.117188 166.78125 279.023438 164.84375 282.734375 C 162.136719 287.953125 164.125 290.773438 168.871094 293.578125 C 172.992188 296.007812 177.050781 296.101562 181.421875 294.714844 C 180.652344 292.933594 180.292969 291 180.566406 288.894531 Z M 183.582031 172.285156 C 183.910156 172.191406 184.226562 172.121094 184.5625 172.011719 C 179.148438 170.429688 173.839844 168.996094 168.589844 166.535156 C 165.136719 164.90625 161.0625 163.960938 158.507812 161.007812 C 155.015625 161.335938 152.03125 163.746094 148.707031 164.875 C 145.511719 165.964844 142.402344 166.945312 139.535156 168.621094 C 147.503906 168.949219 155.359375 171.140625 163.160156 172.660156 C 165.613281 173.132812 168.058594 173.5625 170.515625 173.867188 C 174.949219 173.820312 179.398438 173.554688 183.582031 172.285156 Z M 195.074219 85.945312 C 187.367188 87.703125 179.359375 87.003906 171.457031 84.605469 C 174.558594 86.300781 177.746094 87.882812 181.335938 88.796875 C 186.160156 90.019531 190.726562 88.4375 195.074219 85.945312 Z M 187.546875 137.953125 C 191.753906 136.527344 195.675781 135.03125 199.460938 133.097656 C 193.640625 134.003906 187.90625 135.570312 181.953125 135.5 C 178.042969 138.5 172.875 140.410156 168.480469 137.457031 C 167.046875 136.496094 166.355469 134.773438 165.074219 133.660156 C 162.121094 131.074219 159.222656 130.746094 155.585938 130.613281 C 153.652344 130.535156 151.835938 130.433594 150.015625 130.125 C 152.664062 131.640625 155.265625 133.207031 157.851562 134.867188 C 158.0625 134.898438 158.289062 134.984375 158.5 135.140625 C 163.976562 138.980469 169.976562 141.910156 175.765625 145.214844 C 178.945312 141.695312 182.917969 139.527344 187.546875 137.953125 Z M 199.585938 221.03125 C 192.839844 218.300781 185.164062 217.414062 178.121094 216.898438 C 178.105469 216.898438 178.089844 216.890625 178.074219 216.890625 C 175.328125 218.0625 172.601562 218.246094 169.765625 219.160156 C 169.035156 219.402344 168.378906 219.679688 167.742188 219.960938 C 171.410156 219.976562 174.949219 220.96875 179.070312 221.847656 C 186.042969 223.3125 192.746094 221.753906 199.585938 221.03125 Z M 189.308594 195.996094 C 190.757812 195.058594 192.207031 194.109375 193.65625 193.265625 C 189.761719 194.53125 185.949219 196.234375 182.964844 196.929688 C 181.953125 197.171875 180.941406 197.273438 179.933594 197.273438 C 183.113281 198.035156 186.230469 197.972656 189.308594 195.996094 Z M 191.3125 256.550781 C 191.210938 255.164062 191.3125 253.902344 191.621094 252.765625 C 188.085938 250.054688 182.3125 245.769531 177.488281 247.484375 C 177.503906 252.078125 175.679688 256.386719 171.660156 259.402344 C 171.675781 259.417969 171.691406 259.433594 171.691406 259.464844 C 173.171875 263.308594 180.214844 263.519531 183.597656 263.457031 C 183.714844 263.457031 183.800781 263.472656 183.910156 263.472656 C 185.964844 260.730469 188.480469 258.289062 191.3125 256.550781 Z M 192.480469 224.878906 C 193.3125 224.535156 194.148438 224.214844 194.980469 223.898438 C 191.132812 224.441406 187.273438 224.988281 183.339844 224.863281 C 180.144531 224.777344 177.246094 224 174.425781 223.34375 C 175.058594 223.65625 175.703125 224 176.351562 224.386719 C 179.445312 226.148438 183.597656 229.179688 187.46875 227.261719 C 189.128906 226.429688 190.757812 225.601562 192.480469 224.878906 Z M 193.835938 158.632812 C 192.207031 158.648438 190.578125 158.617188 188.949219 158.5 C 183.097656 158.078125 177.214844 158.546875 171.347656 159.023438 C 172.875 159.390625 174.410156 159.839844 175.976562 160.433594 C 177.910156 161.15625 183.339844 165.164062 185.328125 163.472656 C 186.566406 162.441406 187.46875 161.609375 188.917969 160.839844 C 190.5 159.980469 192.144531 159.25 193.835938 158.632812 Z M 193.867188 248.832031 C 195.089844 247.628906 196.671875 246.71875 198.527344 246.148438 C 194.425781 244.453125 190.726562 241.601562 187.953125 237.671875 C 187.710938 238.015625 187.453125 238.359375 187.234375 238.734375 C 186.777344 239.480469 185.816406 239.746094 185.054688 239.316406 C 184.019531 238.695312 183.160156 237.96875 182.34375 237.199219 C 180.457031 238.785156 178.304688 239.613281 175.929688 240.035156 C 176.335938 241.015625 176.65625 241.996094 176.917969 242.988281 C 182.902344 241.5625 189.238281 245.316406 193.867188 248.832031 Z M 199.78125 189.707031 C 195.746094 187.378906 191.699219 185.0625 187.335938 184.246094 C 179.234375 182.703125 168.816406 186.042969 161.5 190.625 C 161.601562 190.640625 161.710938 190.640625 161.796875 190.65625 C 161.84375 190.640625 161.890625 190.609375 161.921875 190.59375 C 162.347656 190.492188 162.691406 190.609375 162.949219 190.867188 C 167.351562 191.695312 171.394531 193.445312 175.859375 194.367188 C 182.21875 195.675781 186.878906 193.214844 192.730469 191.40625 C 194.925781 190.734375 197.355469 190.019531 199.78125 189.707031 Z M 200.652344 81.820312 C 200.324219 81.867188 199.992188 81.898438 199.65625 81.921875 C 193.867188 82.40625 188.117188 81.105469 182.34375 81.035156 C 177.621094 80.957031 172.929688 81.230469 168.246094 81.121094 C 178.960938 85.179688 190.320312 86.167969 200.652344 81.820312 Z M 200.1875 105.546875 C 200.566406 105.320312 200.910156 105.105469 201.238281 104.910156 C 194.472656 105.359375 187.546875 106.609375 180.621094 105.921875 C 174.863281 105.351562 169.175781 104.535156 163.6875 102.734375 C 170.367188 107.777344 181.796875 111.46875 188.785156 109.996094 C 193.023438 109.101562 196.523438 107.832031 200.1875 105.546875 Z M 205.164062 223.882812 C 205 223.78125 204.820312 223.6875 204.648438 223.578125 C 197.425781 225.027344 191.273438 229.554688 184.125 230.433594 C 182.070312 230.683594 178.796875 228.378906 177.214844 227.472656 C 172.207031 224.621094 167.757812 222.027344 162.269531 223.265625 C 162.207031 223.3125 162.152344 223.34375 162.089844 223.382812 C 166.78125 226.914062 171.933594 227.339844 177.425781 229.148438 C 180.714844 230.230469 182.769531 233.582031 185.445312 235.734375 C 190.203125 229.476562 198.074219 228.789062 204.300781 224.636719 C 204.394531 224.246094 204.679688 223.929688 205.164062 223.882812 Z M 205.65625 192.917969 C 205.4375 192.816406 205.210938 192.707031 204.984375 192.589844 C 198.722656 191.351562 192.113281 196.476562 187.671875 200.15625 C 186.417969 201.183594 185.101562 201.738281 183.472656 201.738281 C 181.617188 201.738281 179.640625 200.125 178.121094 199.328125 C 174.503906 197.414062 171.105469 195.769531 167.289062 194.910156 C 168.433594 195.496094 169.585938 196.113281 170.679688 196.8125 C 175.648438 199.914062 178.4375 205.375 185.390625 203.886719 C 191.527344 202.570312 201.804688 198.769531 205.65625 192.917969 Z M 205.960938 84.363281 C 207.183594 82.890625 207.921875 81.503906 208.4375 80.070312 C 206.871094 81.152344 205.265625 82.078125 203.636719 82.890625 C 200.667969 84.882812 197.746094 86.917969 194.699219 88.757812 C 192.089844 90.324219 188.816406 92.300781 185.574219 91.890625 C 181.398438 91.351562 177.378906 90.050781 173.507812 88.390625 C 168.871094 86.386719 164.742188 83.15625 160.050781 81.363281 C 158.09375 81.851562 156.480469 82.726562 155.148438 83.941406 C 159.871094 85.71875 163.789062 89.386719 168.300781 91.648438 C 174.035156 94.515625 179.660156 97.320312 184.96875 100.910156 C 188.40625 96.828125 193.703125 95.332031 198.136719 92.402344 C 201.433594 90.214844 203.488281 87.378906 205.960938 84.363281 Z M 205.539062 155.828125 C 207.066406 155.632812 208.585938 155.46875 210.113281 155.335938 C 203.246094 153.554688 196.71875 150.761719 189.644531 149.78125 C 179.675781 148.378906 168.621094 150.609375 161.125 157.425781 C 170.414062 157.082031 179.691406 155.40625 188.949219 156.234375 C 194.519531 156.738281 200.03125 156.203125 205.539062 155.828125 Z M 196.757812 301.96875 C 203.261719 305.75 208.554688 294.683594 208.507812 290.1875 C 208.484375 286.824219 207.710938 283.386719 204.332031 281.835938 C 202.4375 280.957031 200.621094 280.863281 198.757812 280.097656 C 193.335938 280.402344 184.242188 283.277344 185.085938 290.21875 C 185.871094 296.617188 191.785156 299.085938 196.757812 301.96875 Z M 208.976562 74.910156 C 208.859375 74.824219 208.75 74.714844 208.664062 74.605469 C 204.640625 71.816406 198.042969 70.476562 193.789062 73.359375 C 192.992188 73.898438 192.222656 73.820312 191.621094 73.445312 C 191.257812 73.429688 190.882812 73.34375 190.5 73.101562 C 186.863281 70.835938 179.164062 71.210938 176.398438 74.761719 C 175.890625 75.410156 175.273438 75.605469 174.683594 75.511719 C 174.589844 75.527344 174.519531 75.542969 174.425781 75.542969 C 172.40625 75.574219 167.5 75.707031 166.355469 77.925781 C 174.316406 78.410156 182.328125 77.761719 190.320312 78.449219 C 195.449219 78.90625 205.210938 79.796875 208.976562 74.910156 Z M 209.464844 214.578125 C 211.046875 212.886719 212.753906 211.820312 214.515625 211.140625 C 209.074219 211.53125 203.597656 211.789062 198.222656 211.515625 C 202.539062 213.371094 208.289062 215.847656 209.464844 214.578125 Z M 204.640625 277.082031 C 206.691406 274.160156 210.167969 271.574219 210.136719 267.742188 C 210.097656 262.621094 207.199219 258.757812 201.644531 258.617188 C 193.539062 258.40625 187.679688 263.960938 184.578125 270.984375 C 187.804688 271.996094 190.726562 273.703125 192.433594 276.398438 C 192.464844 276.445312 192.480469 276.398438 192.496094 276.445312 C 194.605469 275.828125 196.804688 275.316406 198.96875 275.222656 C 198.992188 275.222656 199.007812 274.894531 199.039062 274.894531 L 199.054688 274.894531 C 199.554688 274.894531 199.960938 275.332031 200.277344 275.53125 C 201.726562 276.085938 203.207031 276.625 204.640625 277.082031 Z M 214.015625 159.691406 C 214.453125 159.085938 214.925781 158.515625 215.378906 157.910156 C 212.089844 157.730469 208.78125 157.847656 205.46875 158.0625 C 202.914062 158.390625 200.425781 158.859375 198.222656 159.492188 C 193.101562 160.976562 190.09375 163.472656 185.675781 166.074219 C 183.777344 167.171875 181.042969 165.605469 179.445312 164.726562 C 173.792969 161.609375 168.269531 160.355469 162.007812 160.082031 C 165.003906 162.496094 170.46875 164.125 173.53125 165.457031 C 178.84375 167.773438 184.664062 168.636719 190.171875 170.429688 C 190.335938 170.476562 190.460938 170.546875 190.578125 170.625 C 191.878906 170.414062 193.1875 170.28125 194.550781 170.1875 C 199.179688 168.488281 203.972656 167.28125 208.734375 166.566406 C 208.859375 166.433594 208.992188 166.292969 209.191406 166.191406 C 211.421875 164.921875 212.535156 161.726562 214.015625 159.691406 Z M 216.523438 241.996094 C 207.6875 242.964844 199.445312 239.511719 190.789062 236.222656 C 194.320312 241.210938 199.929688 245.605469 206.269531 244.878906 C 209.582031 244.5 213.261719 243.585938 216.523438 241.996094 Z M 214.796875 88.679688 C 216.851562 85.617188 218.027344 82.078125 220.234375 79.117188 C 218.996094 76.117188 215.902344 74.746094 212.839844 74.910156 C 212.417969 78.230469 212.722656 80.402344 210.609375 83.582031 C 208.765625 86.355469 206.433594 89.449219 204.003906 91.757812 C 203.308594 92.425781 202.523438 93.027344 201.710938 93.585938 C 206.535156 93.277344 212.253906 92.449219 214.796875 88.679688 Z M 214.925781 184.082031 C 215.855469 183.566406 216.851562 183.011719 217.878906 182.421875 C 214.09375 183.644531 210.308594 184.53125 206.449219 184.363281 C 205.601562 184.316406 204.773438 184.230469 203.941406 184.136719 C 204.640625 184.507812 205.3125 184.882812 206.007812 185.257812 C 211.390625 188.15625 211.148438 186.113281 214.925781 184.082031 Z M 229.476562 111.453125 C 221.214844 111.789062 213.277344 112.894531 205.3125 116.355469 C 199.445312 118.925781 193.429688 120.96875 187.429688 123.117188 C 191.816406 123 196.171875 122.628906 200.535156 122.222656 C 205.945312 121.226562 211.179688 119.675781 215.644531 117.25 C 220.140625 114.789062 224.683594 112.738281 229.476562 111.453125 Z M 221.121094 238.769531 C 220.320312 238.273438 219.539062 237.835938 218.769531 237.625 C 216.414062 237.019531 213.976562 236.527344 211.726562 235.570312 C 207.90625 233.941406 205.296875 232.015625 203.777344 228.410156 C 199.75 230.417969 195.269531 231.695312 191.683594 234.152344 C 201.363281 237.867188 210.773438 242.152344 221.121094 238.769531 Z M 220.1875 139.449219 C 221.003906 138.695312 221.917969 138.15625 222.875 137.625 C 217.195312 139.042969 211.554688 140.492188 205.859375 141.742188 C 206.730469 141.894531 207.609375 142.074219 208.507812 142.347656 C 213.789062 143.867188 216.523438 142.785156 220.1875 139.449219 Z M 220.910156 108.820312 C 220.863281 108.695312 220.824219 108.578125 220.792969 108.453125 C 216.476562 105.90625 212.011719 104.972656 207.457031 104.769531 C 207.285156 105.058594 207.003906 105.289062 206.597656 105.335938 C 201.9375 105.875 198.722656 109.964844 194.195312 111.078125 C 190.234375 112.0625 185.542969 113.386719 181.40625 112.46875 C 174.292969 110.847656 164.515625 107.402344 159.417969 101.980469 C 159.269531 101.832031 159.191406 101.667969 159.144531 101.503906 C 158.8125 100.28125 150.550781 107.183594 150.308594 109.226562 C 155.960938 109.3125 161.375 112.816406 166.765625 114.265625 C 171.722656 115.605469 175.726562 118.730469 179.203125 122.828125 C 188.980469 118.925781 198.992188 114.984375 208.898438 111.5 C 212.871094 110.097656 216.882812 109.296875 220.910156 108.820312 Z M 227.261719 207.976562 C 222.796875 206.675781 217.878906 206.28125 213.976562 203.613281 C 211.390625 201.847656 208.296875 199.554688 206.808594 196.632812 C 201.835938 202.242188 192.300781 206.132812 185.34375 207.128906 C 198.402344 211.125 213.578125 208.742188 227.261719 207.976562 Z M 213.984375 270.578125 C 219.820312 270.703125 228.484375 265.246094 221.652344 260.066406 C 218.855469 257.945312 216.214844 255.554688 213.230469 253.691406 C 208.898438 250.988281 196.914062 246.78125 195.890625 254.511719 C 198.9375 253.628906 202.234375 253.613281 205.648438 254.832031 C 210.214844 256.480469 213.851562 259.449219 214.453125 264.578125 C 214.742188 266.976562 214.53125 268.894531 213.984375 270.578125 Z M 226.972656 176.804688 C 225.195312 176.671875 223.414062 176.429688 221.621094 175.9375 C 216.851562 174.605469 213.371094 171.894531 209.007812 169.722656 C 200.488281 171.078125 191.699219 174 184.15625 178.664062 C 184.203125 178.664062 184.226562 178.648438 184.273438 178.648438 C 184.609375 178.710938 184.921875 178.773438 185.25 178.828125 C 190.921875 178.90625 196.1875 180.910156 202.132812 181.710938 C 210.789062 182.890625 218.753906 179.257812 226.972656 176.804688 Z M 218.285156 94.609375 C 221.816406 92.222656 224.066406 85.757812 222.976562 81.167969 C 222.554688 81.082031 222.207031 80.886719 221.949219 80.613281 L 221.933594 80.613281 C 219.144531 84.457031 218.167969 90.113281 214.015625 92.738281 C 212.011719 94.007812 209.613281 94.726562 207.097656 95.199219 C 211.179688 96.066406 215.253906 96.648438 218.285156 94.609375 Z M 223.1875 213.746094 C 225.648438 213.402344 227.574219 212.527344 229.328125 211.1875 C 222.929688 212.410156 216.160156 210.929688 211.0625 216.175781 C 208.84375 218.457031 206.714844 217.515625 204.035156 216.222656 C 199.867188 214.203125 195.960938 212.296875 191.289062 211.820312 C 189.675781 211.648438 187.953125 211.546875 186.371094 211.125 C 185.21875 210.824219 184.15625 210.503906 183.230469 210.003906 C 182.507812 211.304688 181.84375 212.644531 181.210938 213.992188 C 188.863281 214.648438 196.960938 215.949219 203.808594 219.449219 C 205.585938 220.023438 207.363281 220.625 209.160156 221.214844 C 210.347656 221.621094 211.46875 222.363281 212.644531 222.796875 C 213.734375 222.480469 214.664062 221.699219 215.332031 220.140625 C 215.902344 218.769531 216.460938 217.054688 217.578125 215.996094 C 219.207031 214.46875 221.003906 214.046875 223.1875 213.746094 Z M 226.085938 93.585938 C 226.59375 90.292969 226.09375 87.851562 225.390625 85.335938 C 225.105469 89.152344 223.679688 93.066406 221.410156 95.074219 C 215.433594 100.359375 207.804688 96.859375 200.777344 96.050781 C 199.21875 96.128906 197.730469 96.4375 196.21875 96.75 C 196.1875 96.75 196.171875 96.75 196.148438 96.75 C 192.808594 98.472656 189.488281 100.21875 187.304688 102.992188 C 188.558594 102.976562 189.808594 102.929688 191.046875 102.828125 C 202.375 101.847656 212.300781 99.695312 222.359375 105.710938 C 224.066406 101.847656 225.453125 97.757812 226.085938 93.585938 Z M 233.535156 177.792969 C 229.007812 179.015625 224.410156 181.90625 220.515625 183.761719 C 218.316406 184.804688 213.050781 189.464844 210.6875 189.152344 C 206.175781 188.546875 202.976562 185.703125 198.675781 184.277344 C 196.085938 183.433594 193.460938 182.75 190.820312 182.195312 C 196.914062 184.378906 202.3125 188.210938 208.4375 190.75 C 209.988281 189.933594 211.570312 189.722656 213.59375 189.332031 C 214.421875 189.167969 215.253906 188.949219 216.082031 188.742188 C 216.183594 188.617188 216.308594 188.515625 216.476562 188.4375 C 220.09375 186.730469 223.289062 184.300781 226.730469 182.3125 C 229.117188 180.941406 231.46875 179.554688 233.535156 177.792969 Z M 228.992188 117.085938 C 230.167969 115.195312 232.1875 114.046875 234.09375 112.832031 C 226.351562 114.289062 220.023438 118.667969 212.792969 121.242188 C 214.726562 121.140625 216.65625 121.0625 218.589844 121.046875 C 223.679688 121.015625 226.21875 121.589844 228.992188 117.085938 Z M 224.652344 143.246094 C 228.757812 140.976562 233.746094 138.554688 236.550781 134.609375 C 229.886719 137.230469 224.300781 139.480469 218.636719 144.125 C 216.820312 145.605469 215.207031 146.601562 212.707031 145.886719 C 205.8125 143.945312 198.953125 142.394531 191.816406 144.382812 C 190.023438 144.894531 188.273438 145.425781 186.519531 145.886719 C 185.964844 146.066406 185.390625 146.246094 184.828125 146.421875 C 195.238281 146.898438 204.757812 151.699219 215.074219 153.21875 C 217.015625 148.261719 219.929688 145.871094 224.652344 143.246094 Z M 234.546875 132.484375 C 232.34375 132.296875 230.113281 132.296875 227.878906 132.375 C 227.574219 132.46875 227.261719 132.484375 226.957031 132.40625 C 220.640625 132.6875 214.273438 133.464844 208.132812 132.210938 C 207.851562 132.179688 207.5625 132.148438 207.277344 132.132812 C 202.882812 135.164062 198.371094 137.6875 193.28125 139.378906 C 188.871094 140.851562 184.5 142.167969 180.894531 144.789062 C 181.96875 144.679688 183.019531 144.53125 184.058594 144.351562 C 187.414062 143.375 190.6875 142.074219 194.164062 141.515625 C 199.195312 140.703125 204.105469 139.871094 209.042969 138.554688 C 217.4375 136.316406 226.007812 134.277344 234.546875 132.484375 Z M 245.332031 190.945312 C 239.371094 188.796875 233.761719 186.902344 226.972656 188.828125 C 223.351562 189.855469 219.648438 191.351562 215.949219 192.089844 C 214.726562 192.316406 213.445312 192.417969 212.222656 192.675781 C 222.859375 195.707031 234.648438 194.453125 245.332031 190.945312 Z M 236.519531 113.910156 C 235.480469 114.65625 234.398438 115.28125 233.324219 116.089844 C 230.605469 118.078125 230.667969 120.085938 228.617188 121.878906 C 227.097656 123.171875 225.421875 123.328125 223.445312 123.3125 C 213.640625 123.265625 203.878906 124.488281 194.078125 125.105469 C 192.097656 125.378906 190.125 125.621094 188.148438 125.804688 C 194.242188 127.171875 200.535156 128.300781 206.550781 128.890625 C 206.839844 128.789062 207.152344 128.726562 207.511719 128.820312 C 207.90625 128.921875 208.296875 129 208.695312 129.085938 C 208.898438 129.101562 209.144531 129.132812 209.355469 129.148438 C 209.628906 129.164062 209.855469 129.242188 210.050781 129.34375 C 215.433594 130.238281 221.003906 129.6875 226.5625 129.40625 C 228.695312 126.765625 231.171875 124.472656 232.871094 121.488281 C 234.273438 119.027344 235.464844 116.503906 236.519531 113.910156 Z M 233.488281 227.066406 C 236.191406 226.40625 238.707031 225.890625 241.085938 224.910156 C 234.710938 225.632812 228.453125 227.035156 222.097656 228.089844 C 220.289062 228.394531 218.449219 228.300781 216.601562 228.074219 C 218.722656 229.195312 220.863281 230.230469 223.28125 230.746094 C 226.335938 231.410156 230.425781 227.800781 233.488281 227.066406 Z M 232.234375 99.300781 C 236.175781 94.925781 236.863281 89.332031 237.023438 83.628906 C 233.992188 82.507812 230.699219 81.667969 227.558594 81.332031 C 228.664062 85.109375 230.082031 88.304688 229.414062 92.589844 C 228.796875 96.664062 227.722656 100.5625 226.28125 104.347656 C 228.375 102.78125 230.503906 101.230469 232.234375 99.300781 Z M 240.125 222.757812 C 239.058594 222.417969 237.953125 222.136719 236.792969 221.933594 C 231.96875 221.144531 227.605469 220.234375 224.074219 216.78125 C 222.027344 217.085938 219.914062 217.59375 218.964844 219.695312 C 218.496094 220.703125 218.121094 221.785156 217.59375 222.765625 C 216.992188 223.914062 216.375 224.800781 215.574219 225.527344 C 220.429688 226.203125 224.816406 225.363281 229.582031 224.441406 C 233.113281 223.75 236.597656 223.15625 240.125 222.757812 Z M 233.832031 252.796875 C 237.242188 252.554688 238.234375 250.398438 239.277344 247.46875 C 234.007812 245.410156 228.242188 244.699219 223.808594 240.867188 C 220.234375 244.515625 215.933594 246.703125 211.484375 247.515625 C 214.320312 248.855469 216.992188 250.714844 219.421875 252.601562 C 220.203125 253.21875 221.121094 253.839844 222.066406 254.472656 C 222.359375 254.308594 222.671875 254.183594 223.0625 254.152344 C 226.660156 253.824219 230.230469 253.039062 233.832031 252.796875 Z M 233.371094 232.273438 C 237.484375 230.910156 240.398438 229.523438 242.929688 226.640625 C 241.085938 227.519531 239.207031 228.003906 236.824219 228.578125 C 232.492188 229.632812 228.960938 232.273438 224.738281 233.253906 C 223.007812 233.660156 220.59375 232.085938 219.113281 231.269531 C 216.261719 229.703125 213.292969 228.089844 210.152344 227.097656 C 209.386719 226.992188 208.617188 226.914062 207.851562 226.882812 C 207.488281 226.867188 207.230469 226.71875 207.050781 226.492188 C 206.878906 226.609375 206.714844 226.734375 206.550781 226.835938 C 208.765625 232.734375 214.601562 232.8125 219.617188 234.578125 C 222.113281 235.453125 225.703125 238.585938 228.027344 235.910156 C 229.597656 234.074219 231.03125 233.027344 233.371094 232.273438 Z M 241.652344 103.21875 C 240.695312 103.855469 239.761719 104.457031 238.691406 104.847656 C 236.730469 105.5625 234.773438 106.070312 232.753906 106.570312 C 231.109375 106.996094 229.539062 107.636719 227.949219 108.273438 C 231.5625 108.121094 235.195312 108.140625 238.871094 108.15625 C 238.886719 108.140625 238.902344 108.121094 238.902344 108.105469 C 240.289062 106.824219 241.0625 105.058594 241.652344 103.21875 Z M 239.207031 195.652344 C 240.671875 194.894531 242.144531 194.289062 243.59375 193.640625 C 238.210938 194.972656 232.660156 195.660156 227.183594 196.6875 C 226.09375 196.882812 225.058594 196.992188 224.050781 197.054688 C 226.023438 197.609375 227.980469 198.316406 229.886719 199.34375 C 235.421875 202.328125 235.039062 197.808594 239.207031 195.652344 Z M 240.304688 162.707031 C 240.953125 161.835938 241.636719 161.007812 242.339844 160.175781 C 239.503906 161.09375 236.339844 161.125 233.667969 162.753906 C 231.789062 163.929688 229.941406 164.789062 228.125 165.472656 C 229.507812 165.738281 230.878906 166.113281 232.203125 166.628906 C 233.667969 167.21875 237.382812 169.300781 238.542969 166.683594 C 238.636719 166.464844 239.761719 163.464844 240.304688 162.707031 Z M 242.84375 88.335938 C 242.644531 86.988281 242.238281 85.945312 241.410156 85.53125 C 240.710938 85.179688 239.992188 84.851562 239.238281 84.519531 C 239.191406 85.84375 239.097656 87.183594 238.949219 88.515625 C 240.265625 88.578125 241.621094 88.757812 242.84375 88.335938 Z M 242.058594 99.222656 C 242.175781 97.460938 242.875 93.796875 242.945312 90.65625 C 241.558594 90.945312 240.078125 90.796875 238.636719 90.765625 C 238.117188 93.585938 237.242188 96.292969 235.660156 98.714844 C 234.257812 100.839844 232.296875 102.570312 230.230469 104.183594 C 231.304688 103.792969 232.375 103.429688 233.425781 103.148438 C 236.644531 102.320312 239.191406 100.5625 242.058594 99.222656 Z M 249.117188 238.359375 C 247.699219 237.640625 246.25 236.972656 244.785156 236.175781 C 243.140625 235.289062 241.753906 234.214844 240.96875 232.703125 C 240.109375 233.222656 239.175781 233.660156 238.148438 234.003906 C 234.726562 235.164062 232.558594 236.988281 229.855469 238.996094 C 236.175781 239.933594 243.25 240.035156 249.117188 238.359375 Z M 245.710938 197.203125 C 247.125 196.160156 247.878906 194.878906 248.527344 193.476562 C 244.964844 195.785156 240.65625 196.828125 237.742188 200.054688 C 236.929688 200.957031 235.25 203.644531 233.503906 203.15625 C 227.996094 201.636719 224.214844 198.722656 218.183594 198.019531 C 215.152344 197.65625 212.386719 196.828125 209.691406 195.621094 C 211.921875 200.234375 219.671875 203.085938 223.609375 203.957031 C 227.714844 204.863281 231.726562 205.78125 235.070312 208.304688 C 237.609375 206.101562 238.34375 202.320312 241.046875 200.109375 C 242.464844 198.949219 244.226562 198.285156 245.710938 197.203125 Z M 247.769531 153.917969 C 247.957031 153.691406 248.121094 153.445312 248.285156 153.21875 C 238.917969 153.507812 228.328125 151.636719 220.398438 156.792969 C 218.347656 159.039062 216.414062 161.46875 214.875 164.078125 C 214.515625 164.679688 214.179688 165.265625 213.820312 165.832031 C 215.871094 165.394531 217.988281 165.101562 220.09375 164.96875 C 224.316406 164.109375 228.34375 162.917969 232.542969 160.808594 C 235.433594 159.34375 238.410156 158.992188 241.425781 157.941406 C 244.046875 157.035156 245.976562 155.5625 247.769531 153.917969 Z M 244.164062 112.445312 C 248.628906 113.972656 253.863281 112.832031 255.085938 108.027344 C 251.480469 109.933594 247.972656 111.664062 244.164062 112.445312 Z M 249.609375 155.242188 C 249.539062 155.320312 249.445312 155.390625 249.367188 155.46875 C 246.554688 158.9375 242.945312 161.890625 241.273438 166.058594 C 240.6875 167.507812 239.84375 169.796875 238.070312 170.28125 C 235.375 171.015625 232.574219 168.964844 230.128906 168.242188 C 227.332031 167.429688 224.457031 167.125 221.574219 167.1875 C 218.964844 167.65625 216.230469 167.984375 213.214844 168.394531 C 216.703125 170.382812 219.960938 172.496094 224.121094 173.25 C 228.796875 174.078125 233.175781 173.640625 237.773438 173.976562 C 239.324219 170.914062 241.996094 169.105469 244.589844 166.730469 C 248.058594 163.566406 248.757812 159.476562 249.609375 155.242188 Z M 251.253906 149.859375 C 252.71875 147.894531 253.761719 145.621094 254.679688 143.261719 C 253.667969 144.007812 252.554688 144.53125 251.285156 144.664062 C 246.929688 145.183594 242.535156 145.332031 238.28125 145.839844 C 232.808594 147.578125 227.332031 149.34375 222.375 152.179688 C 231.210938 148.574219 241.886719 150.792969 251.253906 149.859375 Z M 251.875 239.902344 C 251.859375 239.886719 251.828125 239.871094 251.820312 239.855469 C 245.566406 242.253906 237.859375 242.371094 230.777344 241.421875 C 234.578125 243.003906 238.816406 243.75 242.613281 245.511719 C 242.644531 245.527344 242.691406 245.542969 242.730469 245.558594 C 242.746094 245.558594 242.746094 245.558594 242.761719 245.558594 C 244.09375 245.886719 245.402344 246.296875 246.734375 246.601562 C 247.683594 246.828125 249.234375 247.382812 250.230469 247.078125 C 251.222656 246.78125 251.757812 242.136719 251.726562 240.835938 C 251.710938 240.476562 251.773438 240.167969 251.875 239.902344 Z M 258.179688 131.472656 C 256.144531 131.679688 254.105469 131.898438 252.054688 132.242188 C 248.371094 132.84375 244.699219 131.96875 241.03125 132.734375 C 237.820312 141.710938 227.183594 143.476562 221.199219 149.492188 C 226.523438 145.691406 232.988281 143.945312 239.488281 142.980469 C 246.367188 140.097656 251.695312 135 258.179688 131.472656 Z M 247.753906 217.289062 C 251.496094 215.933594 254.214844 213.191406 256.910156 210.386719 C 250.519531 213.027344 243.929688 214.804688 237.125 215.769531 C 240.578125 216.765625 244.714844 218.394531 247.753906 217.289062 Z M 255.03125 105.515625 C 254.96875 105.4375 254.921875 105.351562 254.851562 105.289062 C 252.25 103.15625 248.527344 102.390625 245.207031 102.238281 C 244.378906 105.136719 243.460938 108.089844 241.289062 110.199219 C 241.242188 110.355469 241.179688 110.503906 241.132812 110.652344 C 246.132812 110.355469 250.535156 107.894531 255.03125 105.515625 Z M 255.0625 117.507812 C 255.492188 115.652344 255.703125 113.761719 255.671875 111.84375 C 252.3125 116.105469 245.269531 116.464844 240.289062 113.027344 C 239.191406 116.027344 237.9375 118.996094 236.371094 121.761719 C 234.726562 124.621094 232.707031 126.867188 230.699219 129.273438 C 233.355469 129.257812 235.996094 129.390625 238.589844 129.875 C 238.605469 129.875 238.605469 129.875 238.605469 129.859375 C 241.472656 127.972656 244.683594 126.992188 247.714844 125.480469 C 249.34375 124.683594 250.996094 123.804688 252.234375 122.433594 C 253.535156 121 254.105469 119.160156 255.0625 117.507812 Z M 258.296875 207.355469 C 257.269531 207.308594 256.253906 207.167969 255.195312 206.886719 C 251.269531 205.75 247.699219 204.082031 244.425781 201.667969 C 244.210938 201.785156 244.015625 201.902344 243.820312 202.042969 C 240.078125 204.503906 239.660156 209.449219 235.675781 211.789062 C 234.90625 212.226562 234.1875 211.96875 233.746094 211.453125 C 232.824219 212.433594 231.875 213.386719 230.832031 214.203125 C 240.398438 213.503906 249.523438 211.304688 258.296875 207.355469 Z M 252.8125 218.03125 C 255.898438 215.441406 259.324219 213.488281 260.640625 209.886719 C 257.035156 213.667969 253.339844 218.589844 248.355469 219.464844 C 244.910156 220.085938 242.324219 219.519531 238.980469 218.527344 C 236.191406 217.695312 233.371094 217.492188 230.550781 217.234375 C 235.855469 219.371094 242.371094 218.902344 247.246094 222.496094 C 248.527344 223.445312 249.359375 222.945312 250.078125 221.949219 C 250.046875 221.324219 250.371094 220.6875 250.996094 220.476562 C 251.527344 219.582031 252.070312 218.652344 252.8125 218.03125 Z M 258 229.242188 C 258.015625 229.195312 258.015625 229.148438 258.015625 229.101562 C 257.773438 227.925781 257.378906 226.898438 256.238281 225.984375 C 255.226562 225.175781 253.863281 224.160156 252.507812 223.75 C 251.984375 224.394531 251.449219 225.074219 250.925781 225.8125 C 250.503906 226.359375 249.882812 226.734375 249.21875 226.914062 C 248.511719 227.113281 247.800781 226.78125 247.148438 226.328125 C 246.054688 227.988281 244.910156 229.476562 243.5625 230.746094 C 243.984375 232.917969 247.441406 233.925781 249.164062 234.726562 C 251.726562 235.910156 254.019531 237.335938 256.191406 239.136719 C 257.5625 239.386719 257.546875 237.507812 257.640625 236.097656 C 257.773438 234.003906 257.625 231.859375 257.875 229.765625 C 257.90625 229.585938 257.9375 229.40625 258 229.242188 Z M 258.046875 134.789062 C 258.179688 134.519531 258.3125 134.246094 258.453125 133.972656 C 254.167969 136.644531 250.441406 140.339844 246.117188 142.816406 C 249.148438 142.855469 252.226562 142.660156 253.894531 140.804688 C 255.539062 138.964844 256.792969 136.886719 258.046875 134.789062 Z M 265.300781 171.394531 C 259.691406 169.890625 254.238281 167.6875 248.355469 167.414062 C 245.582031 170.171875 241.667969 172.300781 240.304688 176.023438 C 240.078125 176.617188 239.628906 176.945312 239.144531 177.046875 C 238.949219 177.144531 238.738281 177.175781 238.496094 177.175781 C 238.464844 177.238281 238.441406 177.292969 238.394531 177.355469 C 236.945312 179.195312 235.179688 180.683594 233.277344 182 C 233.324219 181.984375 233.371094 181.96875 233.410156 181.953125 C 235.023438 180.925781 236.683594 179.992188 238.511719 179.421875 C 242.300781 178.246094 246.296875 177.972656 250.0625 176.796875 C 255.015625 175.269531 260.066406 172.160156 265.300781 171.394531 Z M 261.726562 176.554688 C 262.902344 175.378906 264.125 174.441406 265.417969 173.59375 C 259.644531 174.472656 253.433594 178.664062 247.996094 179.585938 C 247.746094 179.617188 247.503906 179.671875 247.261719 179.734375 C 249.414062 180.207031 251.449219 181.121094 253.613281 181.441406 C 259.011719 182.226562 259.222656 179.101562 261.726562 176.554688 Z M 262.285156 187.152344 C 264.53125 183.824219 265.300781 179.929688 266.199219 176.054688 C 263.898438 177.910156 262.042969 180.050781 259.792969 182.34375 C 258.84375 183.308594 257.089844 184.019531 255.734375 184.019531 C 249.835938 184.019531 245.9375 180.957031 239.582031 182.617188 C 238.179688 182.976562 236.808594 183.402344 235.464844 183.871094 C 234.921875 184.136719 234.382812 184.410156 233.832031 184.695312 C 239.449219 185.015625 244.652344 187.429688 250.113281 189.285156 C 250.371094 189.253906 250.597656 189.347656 250.761719 189.496094 C 250.863281 189.527344 250.957031 189.558594 251.058594 189.582031 C 251.105469 189.566406 251.121094 189.542969 251.167969 189.527344 C 254.859375 188.484375 258.453125 187.59375 261.863281 187.773438 C 261.878906 187.742188 261.910156 187.71875 261.933594 187.671875 C 261.996094 187.492188 262.121094 187.308594 262.285156 187.152344 Z M 265.917969 226.039062 C 266.625 222.648438 265.980469 219.128906 265.917969 215.691406 C 265.917969 215.441406 265.964844 215.195312 266.019531 214.984375 C 265.042969 214.289062 264.109375 213.550781 263.328125 212.707031 C 262.628906 214.414062 261.523438 215.933594 259.792969 217.039062 C 257.726562 218.347656 256.113281 219.703125 254.664062 221.246094 C 255.914062 221.832031 257.105469 222.648438 258.132812 223.476562 C 259.113281 224.261719 259.941406 225.089844 260.53125 226.203125 C 260.65625 226.445312 260.742188 226.6875 260.820312 226.945312 C 262.238281 226.835938 263.71875 226.804688 265.058594 226.390625 C 265.355469 226.296875 265.644531 226.164062 265.917969 226.039062 Z M 255.554688 195.316406 C 260.082031 194.730469 264.800781 195.589844 269.28125 195.316406 C 268.949219 194.59375 268.464844 193.929688 267.777344 193.375 C 262.839844 189.347656 257.773438 190.945312 252.359375 192.480469 C 252.34375 192.527344 252.359375 192.574219 252.328125 192.613281 C 251.789062 193.828125 251.378906 195.136719 250.777344 196.3125 C 252.3125 195.839844 253.925781 195.511719 255.554688 195.316406 Z M 266.050781 155.40625 C 268.769531 155.84375 273.792969 155.765625 274.058594 152.421875 C 270.414062 153.628906 266.328125 154.136719 262.402344 154.605469 C 263.59375 154.925781 264.816406 155.210938 266.050781 155.40625 Z M 266.945312 140.410156 C 267.679688 138.195312 269.640625 135.617188 269.523438 133.269531 C 269.476562 132.46875 266.960938 131.246094 265.285156 130.683594 C 260.292969 133.988281 258.8125 140.703125 256.417969 146.570312 C 259.582031 144.320312 262.886719 142.347656 266.59375 141.140625 C 266.65625 140.882812 266.773438 140.640625 266.945312 140.410156 Z M 269.195312 203.808594 C 269.625 201.832031 270.09375 199.570312 269.882812 197.53125 C 262.386719 198.105469 254.425781 195.785156 247.621094 200.070312 C 251.269531 202.5 255.71875 204.527344 260.035156 204.410156 C 263.246094 204.308594 266.082031 203.644531 269.195312 203.808594 Z M 272.148438 213.898438 C 272.164062 212.605469 272.050781 211.304688 271.902344 210.019531 C 271.769531 208.875 271.660156 207.761719 271.542969 206.628906 C 271.152344 206.988281 270.5625 207.128906 270.015625 207.035156 C 268.105469 206.738281 266.214844 206.839844 264.34375 207.019531 C 264.34375 207.339844 264.335938 207.636719 264.304688 207.960938 C 264.742188 210.582031 267.210938 212.148438 269.507812 213.535156 C 270.617188 213.652344 272.148438 213.8125 272.148438 213.898438 Z M 273.070312 150.367188 C 272.78125 149.960938 272.460938 149.539062 272.113281 149.113281 C 270.746094 147.429688 269.359375 145.738281 268.027344 144.023438 C 262.597656 145.675781 258.09375 149.144531 253.621094 152.570312 C 254.742188 152.695312 255.84375 152.90625 256.925781 153.140625 C 259.074219 152.960938 261.242188 152.421875 262.792969 152.113281 C 266.199219 151.457031 269.734375 151.332031 273.070312 150.367188 Z M 272.992188 160.175781 C 274.300781 158.648438 274.949219 157.277344 275.09375 155.953125 C 271.527344 159.414062 261.46875 156.644531 255.828125 155.335938 C 254.851562 155.359375 253.878906 155.320312 252.929688 155.148438 C 252.414062 157.925781 252.039062 160.894531 250.996094 163.472656 C 255.015625 162.621094 259.089844 163.160156 263.144531 162.242188 C 266.34375 161.5 269.71875 160.957031 272.960938 160.222656 C 272.976562 160.207031 272.976562 160.191406 272.992188 160.175781 Z M 276.382812 171.195312 C 276.476562 168.652344 276.492188 165.488281 274.332031 164.109375 C 274.316406 164.09375 274.300781 164.070312 274.269531 164.070312 C 273.878906 163.960938 273.5 163.746094 273.203125 163.464844 C 269.539062 164.335938 265.707031 165.046875 262.074219 165.558594 C 260.578125 165.769531 259.113281 165.847656 257.671875 165.917969 C 261.632812 167.023438 265.542969 168.378906 269.609375 169.160156 C 269.6875 169.175781 269.71875 169.222656 269.796875 169.238281 C 269.960938 169.269531 270.140625 169.316406 270.289062 169.386719 C 272.359375 169.859375 274.410156 170.460938 276.382812 171.195312 Z M 280.339844 183.839844 C 277.753906 182.632812 275.648438 181.726562 273.730469 179.265625 C 272.445312 177.636719 271.300781 175.890625 269.882812 174.386719 C 268.917969 177.808594 268.363281 181.332031 267.125 184.609375 C 268.152344 184.277344 269.296875 184.121094 270.839844 184.214844 C 273.972656 184.394531 277.167969 184.066406 280.339844 183.839844 Z M 278.976562 193.445312 C 278.859375 193.703125 278.960938 193.703125 278.976562 193.445312 Z M 278.960938 193.3125 C 278.960938 193.28125 278.960938 193.230469 278.945312 193.191406 C 278.890625 192.902344 278.8125 192.613281 278.734375 192.332031 C 278.539062 191.695312 278.34375 191.0625 278.09375 190.445312 C 277.707031 189.496094 277.300781 188.5625 276.792969 187.671875 C 276.730469 187.5625 276.691406 187.460938 276.644531 187.332031 C 275.09375 187.460938 273.546875 187.539062 272.050781 187.460938 C 269.882812 187.324219 267.894531 186.957031 266.035156 188.40625 C 265.964844 188.46875 265.886719 188.53125 265.808594 188.585938 C 267.578125 189.253906 269.265625 190.34375 270.863281 192.027344 C 271.675781 192.902344 272.226562 193.882812 272.570312 194.941406 C 273.628906 194.746094 274.691406 194.578125 275.734375 194.335938 C 276.597656 194.140625 278.164062 193.945312 278.960938 193.3125 Z M 281.4375 181.921875 C 281.273438 181.394531 281.0625 180.894531 280.878906 180.503906 C 279.972656 178.542969 278.875 176.539062 277.316406 175.011719 C 275.5 174.171875 273.578125 173.507812 271.628906 172.984375 C 272.976562 174.441406 274.050781 176.117188 275.328125 177.667969 C 276.265625 178.804688 277.332031 180.128906 278.695312 180.777344 C 279.582031 181.214844 280.519531 181.546875 281.4375 181.921875 Z M 285.964844 181.625 C 286.472656 185.210938 284.757812 186.933594 282.023438 187.914062 C 283.199219 190.398438 284.125 193.390625 282.949219 195.589844 C 281.664062 198.019531 277.949219 198.667969 275.042969 199.097656 C 275.679688 202.195312 275.84375 205.242188 276.234375 208.40625 C 276.445312 210.207031 276.824219 212.085938 276.675781 213.898438 C 276.382812 217.867188 273.683594 218.378906 270.578125 218.164062 C 270.714844 220.054688 270.878906 221.949219 270.761719 223.835938 C 270.667969 225.378906 270.683594 227.988281 269.507812 229.179688 C 267.808594 230.910156 264.863281 231.167969 262.300781 231.347656 C 262.175781 234.167969 262.511719 237.097656 261.554688 239.761719 C 260.546875 242.628906 258.539062 243.835938 256.097656 243.625 C 255.75 246.476562 254.757812 249.8125 252.609375 250.957031 C 249.765625 252.46875 246.117188 251.230469 243.039062 250.320312 C 241.964844 253.070312 240.398438 256.007812 237.609375 256.808594 C 235.375 257.441406 232.917969 257.371094 230.621094 257.714844 C 229.460938 257.882812 228.289062 258.046875 227.128906 258.210938 C 229.613281 260.519531 230.949219 263.277344 228.546875 266.882812 C 224.667969 272.679688 218.738281 276.070312 211.8125 274.863281 C 210.914062 276.234375 209.839844 277.636719 208.734375 279.25 C 209.449219 279.804688 210.113281 280.488281 210.671875 281.382812 C 212.753906 284.640625 213.394531 288.359375 212.871094 292.191406 C 212.300781 296.359375 211.148438 300.109375 207.789062 302.78125 C 205.226562 304.820312 201.835938 308.960938 197.980469 307.519531 C 193.507812 305.8125 187.609375 302.828125 183.925781 298.621094 C 183.832031 298.660156 183.746094 298.722656 183.621094 298.753906 C 176.21875 301.457031 168.152344 300.203125 162.300781 294.636719 C 161.351562 293.734375 160.625 292.753906 160.082031 291.699219 C 157.867188 292.386719 155.390625 292.433594 153.21875 291.621094 C 153.171875 291.714844 153.109375 291.785156 153.054688 291.863281 C 146.945312 298.589844 139.300781 304.558594 129.296875 301.511719 C 122.734375 299.507812 117.96875 295.886719 115.707031 290.6875 C 112.207031 293.703125 106.109375 293.476562 101.855469 293.085938 C 98.378906 292.761719 93.703125 292.386719 90.929688 289.972656 C 88.421875 287.789062 88.949219 285.585938 89.089844 282.507812 C 89.402344 274.863281 91.863281 267.953125 100.140625 265.464844 C 101.121094 265.183594 102.148438 264.984375 103.171875 264.875 C 103.203125 264.757812 103.25 264.640625 103.304688 264.515625 C 105.554688 259.769531 111.078125 255.601562 116.734375 254.503906 C 117.09375 248.394531 119.339844 242.902344 124.035156 238.769531 C 126.007812 237.035156 128.953125 235.328125 132.023438 234.445312 C 129.054688 231.851562 125.929688 230.746094 126.351562 225.394531 C 126.75 220.429688 127.472656 215.886719 129.234375 211.367188 C 125.011719 209.917969 121.378906 207.550781 117.351562 205.585938 C 115.039062 204.457031 111.710938 203.1875 111.359375 200.21875 C 110.574219 193.40625 115.675781 184.757812 120.25 179.429688 C 116.71875 176.703125 110.503906 172.332031 110.441406 167.304688 C 110.394531 162.480469 114.992188 158.046875 119.554688 156.429688 C 119.402344 153.917969 119.570312 151.542969 120.957031 149.507812 C 120.90625 149.46875 120.851562 149.40625 120.804688 149.34375 C 118.347656 145.832031 117.546875 140.523438 120.007812 136.855469 C 120.140625 130.519531 122.011719 124.425781 127.785156 121.242188 C 123.65625 113.699219 132.296875 101.730469 138.917969 98.441406 C 139.613281 97.1875 140.460938 96.097656 141.707031 95.332031 C 143.203125 94.40625 145.402344 93.65625 145.976562 91.773438 C 146.835938 88.9375 147.378906 85.960938 149.234375 83.550781 C 152.523438 79.257812 156.777344 76.929688 162.023438 76.507812 C 163.59375 72.238281 169.492188 71.179688 173.671875 71.046875 C 177.800781 66.582031 187.203125 66.121094 192.324219 68.957031 C 197.792969 65.902344 205.75 67.1875 210.757812 70.578125 C 216.113281 69.527344 221.425781 71.910156 224.003906 76.671875 C 228.40625 76.492188 232.476562 77.667969 236.644531 79.078125 C 239.238281 79.945312 242.859375 80.433594 244.863281 82.46875 C 248.582031 86.207031 247.125 92.738281 246.671875 97.804688 C 250.996094 98.183594 256.644531 99.5 258.75 102.929688 C 260.019531 104.988281 260.019531 107.605469 260.136719 109.933594 C 260.308594 113.191406 260.066406 116.269531 259.238281 119.355469 C 262.941406 120.671875 268.558594 122.777344 267.925781 126.75 C 270.453125 127.761719 273.265625 129.65625 273.855469 131.898438 C 274.691406 135.09375 272.554688 138.226562 271.464844 141.15625 C 274.363281 144.957031 277.800781 148.378906 279.691406 152.84375 C 281.015625 155.96875 279.753906 158.773438 277.925781 161.234375 C 280.785156 164.007812 280.894531 168.210938 280.878906 172.136719 C 283.277344 174.574219 285.480469 178.378906 285.964844 181.625 Z M 148.121094 96.632812 C 146.1875 98.738281 128.421875 106.414062 140.773438 107.816406 C 144.457031 108.242188 145.886719 108.011719 148.316406 105.632812 C 149.429688 104.535156 154.136719 97.910156 156.238281 99.207031 C 153.941406 97.789062 151.707031 96.222656 149.390625 94.90625 C 149.039062 95.496094 148.628906 96.066406 148.121094 96.632812 Z M 263.335938 126.210938 C 263.367188 126.226562 263.382812 126.28125 263.414062 126.390625 C 263.382812 126.296875 263.382812 126.265625 263.382812 126.234375 C 263.382812 126.234375 263.367188 126.226562 263.335938 126.210938 Z M 263.328125 126.195312 C 263.308594 126.179688 263.292969 126.164062 263.261719 126.132812 C 262.738281 125.628906 262.105469 125.285156 261.4375 124.988281 C 259.902344 124.257812 258.242188 123.820312 256.644531 123.234375 C 256.277344 123.101562 255.976562 122.890625 255.75 122.644531 C 254.625 124.472656 253.324219 126.070312 251.089844 127.292969 C 249.703125 128.042969 248.253906 128.679688 246.820312 129.3125 C 248.78125 129.328125 250.746094 129.34375 252.6875 128.9375 C 256.074219 128.246094 259.308594 128.199219 262.675781 127.832031 C 262.691406 127.777344 262.707031 127.714844 262.738281 127.667969 C 262.761719 127.355469 262.871094 127.023438 263.082031 126.6875 C 263.246094 126.445312 263.292969 126.195312 263.328125 126.195312 " fill-opacity="1" fill-rule="nonzero"/></g></svg>