<svg xmlns="http://www.w3.org/2000/svg" xmlns:xlink="http://www.w3.org/1999/xlink" width="500" zoomAndPan="magnify" viewBox="0 0 375 374.999991" height="500" preserveAspectRatio="xMidYMid meet" version="1.0"><defs><clipPath id="8be44144e7"><path d="M 187.5 0 C 83.945312 0 0 83.945312 0 187.5 C 0 291.054688 83.945312 375 187.5 375 C 291.054688 375 375 291.054688 375 187.5 C 375 83.945312 291.054688 0 187.5 0 Z M 187.5 0 " clip-rule="nonzero"/></clipPath><clipPath id="d9f795dc63"><path d="M 61 78 L 314 78 L 314 298.820312 L 61 298.820312 Z M 61 78 " clip-rule="nonzero"/></clipPath></defs><g clip-path="url(#8be44144e7)"><rect x="-37.5" width="450" fill="#58a39d" y="-37.499999" height="449.999989" fill-opacity="1"/></g><g clip-path="url(#d9f795dc63)"><path fill="#ffffff" d="M 312.214844 241.464844 C 309.382812 234.066406 289.699219 215.839844 276.445312 209.886719 C 269.230469 206.648438 259.679688 204.515625 252.273438 203.226562 C 262.972656 201.632812 285.121094 199.054688 291.0625 201.671875 C 297.414062 204.464844 306.660156 220.46875 309.6875 226.398438 C 310.035156 227.082031 310.730469 227.492188 311.46875 227.492188 C 311.632812 227.492188 311.800781 227.46875 311.964844 227.429688 C 312.871094 227.195312 313.496094 226.371094 313.46875 225.433594 C 313.4375 224.242188 312.5 196.167969 298.941406 189.210938 C 287.859375 183.519531 263.300781 187.753906 255.035156 189.410156 C 255.144531 188.292969 255.207031 187.117188 255.210938 185.894531 C 260.011719 185.367188 273.195312 183.613281 278.792969 179.757812 C 285.492188 175.140625 301.449219 136.136719 303.242188 131.703125 C 303.628906 130.753906 303.230469 129.660156 302.324219 129.183594 C 301.414062 128.703125 300.292969 128.988281 299.722656 129.847656 C 293.398438 139.378906 275.820312 164.882812 270.5 168.371094 C 265.46875 171.667969 256.269531 172.210938 252.835938 172.304688 C 251.765625 169.347656 250.269531 166.273438 248.234375 163.140625 C 252.96875 160.816406 263.417969 155.042969 264.574219 148.921875 C 264.890625 147.25 264.839844 145.550781 264.457031 143.894531 C 274.125 132.816406 273.449219 121.050781 262.378906 108.902344 C 262.183594 108.6875 261.949219 108.519531 261.683594 108.40625 C 261.183594 108.191406 260.6875 108.015625 260.191406 107.839844 C 258.648438 104.132812 252.023438 90.195312 239.101562 87.699219 C 225.363281 77.300781 213.792969 75.96875 200.484375 83.261719 C 199.808594 83.628906 199.40625 84.355469 199.449219 85.125 C 199.492188 85.898438 199.976562 86.574219 200.691406 86.867188 L 221.121094 95.222656 C 220.367188 96.414062 219.742188 97.671875 219.230469 98.957031 L 197.667969 91.328125 C 197.003906 91.097656 196.261719 91.226562 195.71875 91.679688 C 195.175781 92.128906 194.914062 92.835938 195.023438 93.53125 C 196.832031 104.753906 204.65625 111.914062 218.253906 114.859375 C 220.460938 119.253906 227.355469 120.132812 232.460938 120.132812 C 233.199219 120.132812 233.898438 120.117188 234.542969 120.085938 C 234.558594 120.199219 234.535156 120.3125 234.570312 120.421875 C 234.761719 121.015625 235.222656 121.484375 235.8125 121.691406 C 244.421875 124.707031 245.921875 128.433594 245.75 131.402344 C 237.210938 131.796875 230.796875 139.78125 228.28125 143.472656 C 225.738281 141.773438 223.113281 140.289062 220.4375 138.992188 C 220.480469 138.617188 220.550781 138.257812 220.550781 137.871094 C 220.550781 132.433594 216.128906 128.007812 210.6875 128.007812 C 206.921875 128.007812 203.683594 130.152344 202.023438 133.261719 C 196.316406 132.390625 191.535156 132.386719 187.980469 132.382812 L 187.203125 132.382812 C 183.621094 132.390625 178.863281 132.394531 173.164062 133.261719 C 171.503906 130.152344 168.261719 128.007812 164.496094 128.007812 C 159.058594 128.007812 154.636719 132.433594 154.636719 137.871094 C 154.636719 138.253906 154.703125 138.617188 154.75 138.992188 C 152.070312 140.292969 149.449219 141.773438 146.902344 143.472656 C 144.382812 139.78125 137.957031 131.785156 129.433594 131.402344 C 129.265625 128.433594 130.769531 124.710938 139.375 121.691406 C 139.964844 121.484375 140.421875 121.015625 140.617188 120.421875 C 140.652344 120.3125 140.628906 120.203125 140.644531 120.089844 C 141.289062 120.117188 141.984375 120.136719 142.722656 120.136719 C 147.832031 120.136719 154.726562 119.257812 156.933594 114.859375 C 170.53125 111.917969 178.355469 104.753906 180.160156 93.535156 C 180.273438 92.839844 180.007812 92.132812 179.46875 91.679688 C 178.925781 91.226562 178.183594 91.101562 177.519531 91.332031 L 155.960938 98.957031 C 155.445312 97.671875 154.820312 96.414062 154.070312 95.222656 L 174.5 86.867188 C 175.214844 86.574219 175.695312 85.898438 175.738281 85.125 C 175.78125 84.355469 175.378906 83.628906 174.703125 83.261719 C 161.398438 75.972656 149.824219 77.300781 136.089844 87.699219 C 123.167969 90.195312 116.542969 104.136719 115 107.839844 C 114.503906 108.015625 114.007812 108.195312 113.507812 108.410156 C 113.242188 108.519531 113.007812 108.6875 112.8125 108.902344 C 101.742188 121.050781 101.0625 132.820312 110.730469 143.898438 C 110.351562 145.554688 110.296875 147.253906 110.613281 148.921875 C 111.769531 155.042969 122.226562 160.816406 126.953125 163.140625 C 124.917969 166.277344 123.421875 169.351562 122.351562 172.316406 C 118.917969 172.230469 109.71875 171.671875 104.691406 168.375 C 99.367188 164.886719 81.789062 139.382812 75.46875 129.851562 C 74.898438 128.996094 73.773438 128.710938 72.867188 129.1875 C 71.957031 129.664062 71.558594 130.757812 71.945312 131.707031 C 73.742188 136.140625 89.699219 175.144531 96.394531 179.761719 C 101.992188 183.617188 115.175781 185.371094 119.976562 185.898438 C 119.984375 187.121094 120.046875 188.296875 120.15625 189.414062 C 111.890625 187.757812 87.328125 183.527344 76.246094 189.214844 C 62.691406 196.171875 61.75 224.246094 61.71875 225.4375 C 61.695312 226.371094 62.316406 227.199219 63.222656 227.433594 C 63.386719 227.472656 63.554688 227.496094 63.71875 227.496094 C 64.457031 227.496094 65.152344 227.085938 65.5 226.402344 C 68.527344 220.472656 77.769531 204.472656 84.128906 201.675781 C 90.335938 198.941406 114.210938 201.875 124.257812 203.4375 C 116.699219 204.492188 106.414062 206.449219 98.742188 209.894531 C 85.484375 215.839844 65.800781 234.066406 62.964844 241.464844 C 60.246094 248.5625 62.308594 266.667969 62.398438 267.433594 C 62.511719 268.402344 63.308594 269.152344 64.28125 269.199219 C 64.316406 269.199219 64.351562 269.199219 64.382812 269.199219 C 65.320312 269.199219 66.136719 268.550781 66.335938 267.628906 C 66.367188 267.5 69.3125 254.355469 74.511719 248.425781 C 80.296875 241.832031 95.65625 228.070312 102.324219 225.8125 C 105.53125 224.730469 112.121094 224.3125 118.496094 223.910156 C 118.769531 223.894531 119.039062 223.878906 119.308594 223.859375 C 114.582031 225.949219 110.136719 228.339844 107.859375 230.710938 C 105.875 232.769531 103.695312 237.265625 101.710938 242.714844 C 101.65625 242.851562 101.589844 242.980469 101.566406 243.125 C 97.347656 254.863281 94.070312 270.792969 95.59375 276.519531 C 97.136719 282.34375 103.339844 292.660156 110.953125 296.890625 C 113.195312 298.136719 115.382812 298.761719 117.484375 298.761719 C 118.519531 298.761719 119.535156 298.609375 120.527344 298.304688 C 125 296.9375 128.335938 294.230469 130.167969 290.480469 C 132.007812 286.714844 132.191406 282.0625 130.660156 278.035156 C 128.75 273.023438 120.945312 268.546875 116.867188 266.5 C 121.3125 260.5625 123.269531 252.707031 122.824219 242.617188 C 134.378906 242.382812 145.042969 237.667969 155.328125 228.285156 C 158.824219 230.585938 168.808594 235.789062 187.589844 235.789062 C 206.375 235.789062 216.355469 230.582031 219.851562 228.285156 C 230.136719 237.667969 240.804688 242.382812 252.355469 242.617188 C 251.910156 252.707031 253.867188 260.5625 258.316406 266.5 C 254.238281 268.546875 246.433594 273.023438 244.523438 278.035156 C 242.988281 282.0625 243.171875 286.714844 245.011719 290.480469 C 246.847656 294.230469 250.179688 296.9375 254.65625 298.304688 C 255.648438 298.609375 256.664062 298.761719 257.699219 298.761719 C 259.800781 298.761719 261.988281 298.132812 264.230469 296.890625 C 271.847656 292.660156 278.046875 282.34375 279.59375 276.519531 C 281.113281 270.792969 277.835938 254.863281 273.617188 243.125 C 273.59375 242.980469 273.527344 242.851562 273.472656 242.714844 C 271.488281 237.265625 269.308594 232.769531 267.324219 230.710938 C 265.046875 228.34375 260.601562 225.949219 255.875 223.859375 C 256.144531 223.878906 256.417969 223.894531 256.6875 223.910156 C 263.0625 224.3125 269.652344 224.730469 272.859375 225.8125 C 279.527344 228.070312 294.886719 241.832031 300.667969 248.421875 C 305.859375 254.34375 308.816406 267.5 308.84375 267.628906 C 309.050781 268.550781 309.867188 269.199219 310.796875 269.199219 C 310.832031 269.199219 310.867188 269.199219 310.898438 269.195312 C 311.875 269.148438 312.671875 268.402344 312.785156 267.429688 C 312.875 266.667969 314.9375 248.5625 312.214844 241.464844 Z M 297.113281 192.773438 C 304.132812 196.371094 307.1875 207.765625 308.5 216.113281 C 304.332031 209.242188 298.15625 200.421875 292.671875 198.007812 C 285.375 194.800781 262.152344 197.738281 252.804688 199.101562 C 253.34375 197.65625 253.921875 195.8125 254.382812 193.632812 C 260.261719 192.40625 286.546875 187.347656 297.113281 192.773438 Z M 272.691406 171.71875 C 276.550781 169.1875 284.714844 158.402344 291.636719 148.671875 C 285.757812 161.761719 279.398438 174.480469 276.519531 176.460938 C 272.179688 179.453125 260.902344 181.234375 255.023438 181.894531 C 254.847656 180.09375 254.53125 178.214844 254.046875 176.273438 C 258.429688 176.089844 267.273438 175.269531 272.691406 171.71875 Z M 231.90625 87.613281 C 228.765625 88.207031 225.992188 89.667969 223.703125 91.957031 L 206.355469 84.859375 C 215.046875 81.265625 222.933594 82.113281 231.90625 87.613281 Z M 199.792969 96.324219 L 218.023438 102.777344 C 217.375 105.554688 217.1875 108.261719 217.3125 110.507812 C 207.90625 108.09375 202.105469 103.445312 199.792969 96.324219 Z M 221.644531 112.613281 C 220.648438 108.910156 221.5 100.773438 225.652344 95.738281 C 228.316406 92.503906 231.902344 91.023438 236.332031 91.335938 C 246.296875 92.042969 252.515625 101.492188 255.21875 106.710938 C 248.523438 106.054688 242.390625 109.132812 236.90625 115.90625 C 231.875 116.421875 222.621094 116.257812 221.644531 112.613281 Z M 239.621094 118.882812 C 245.695312 111.078125 252.132812 108.859375 259.710938 111.921875 C 268.507812 121.75 269.484375 130.875 262.707031 139.722656 C 262.476562 139.359375 262.234375 138.996094 261.96875 138.644531 C 259.226562 135.011719 254.925781 132.59375 249.726562 131.699219 C 249.964844 127.488281 248.007812 122.515625 239.621094 118.882812 Z M 247.292969 135.40625 C 252.289062 135.859375 256.367188 137.863281 258.777344 141.058594 C 260.433594 143.25 261.09375 145.777344 260.640625 148.175781 C 259.925781 151.957031 251.746094 157.03125 245.894531 159.828125 C 244.878906 158.496094 243.773438 157.160156 242.542969 155.816406 C 239.070312 152.023438 235.394531 148.679688 231.550781 145.792969 C 233.820312 142.46875 239.929688 134.738281 247.292969 135.40625 Z M 210.6875 132.007812 C 213.917969 132.007812 216.546875 134.636719 216.546875 137.871094 C 216.546875 141.101562 213.917969 143.730469 210.6875 143.730469 C 207.457031 143.730469 204.824219 141.101562 204.824219 137.871094 C 204.824219 134.636719 207.453125 132.007812 210.6875 132.007812 Z M 164.496094 132.007812 C 167.726562 132.007812 170.359375 134.636719 170.359375 137.871094 C 170.359375 141.101562 167.730469 143.730469 164.496094 143.730469 C 161.265625 143.730469 158.636719 141.101562 158.636719 137.871094 C 158.636719 134.636719 161.265625 132.007812 164.496094 132.007812 Z M 175.390625 96.324219 C 173.078125 103.445312 167.277344 108.09375 157.867188 110.507812 C 157.996094 108.261719 157.808594 105.554688 157.15625 102.777344 Z M 168.828125 84.863281 L 151.476562 91.957031 C 149.1875 89.667969 146.414062 88.210938 143.269531 87.617188 C 152.25 82.113281 160.132812 81.261719 168.828125 84.863281 Z M 138.851562 91.335938 C 143.273438 91.027344 146.863281 92.5 149.53125 95.738281 C 153.679688 100.769531 154.535156 108.910156 153.539062 112.609375 C 152.558594 116.257812 143.304688 116.417969 138.277344 115.902344 C 132.789062 109.128906 126.65625 106.054688 119.960938 106.710938 C 122.664062 101.492188 128.886719 92.042969 138.851562 91.335938 Z M 115.472656 111.921875 C 123.050781 108.859375 129.488281 111.078125 135.558594 118.882812 C 127.171875 122.515625 125.21875 127.488281 125.457031 131.699219 C 120.257812 132.59375 115.957031 135.011719 113.210938 138.644531 C 112.945312 138.996094 112.703125 139.359375 112.472656 139.722656 C 105.695312 130.875 106.675781 121.75 115.472656 111.921875 Z M 114.539062 148.175781 C 114.085938 145.777344 114.75 143.25 116.40625 141.058594 C 118.816406 137.863281 122.894531 135.859375 127.886719 135.40625 C 135.234375 134.738281 141.355469 142.472656 143.628906 145.792969 C 139.785156 148.679688 136.113281 152.023438 132.636719 155.820312 C 131.40625 157.160156 130.304688 158.5 129.285156 159.828125 C 123.433594 157.035156 115.257812 151.964844 114.539062 148.175781 Z M 98.664062 176.464844 C 95.785156 174.484375 89.425781 161.761719 83.546875 148.671875 C 90.46875 158.40625 98.632812 169.1875 102.492188 171.71875 C 107.910156 175.273438 116.753906 176.089844 121.136719 176.277344 C 120.652344 178.21875 120.335938 180.097656 120.160156 181.898438 C 114.28125 181.238281 103.007812 179.457031 98.664062 176.464844 Z M 82.511719 198.007812 C 77.023438 200.421875 70.839844 209.261719 66.671875 216.132812 C 68.109375 207.253906 71.398438 196.195312 78.070312 192.773438 C 88.628906 187.347656 114.917969 192.402344 120.800781 193.632812 C 121.257812 195.8125 121.835938 197.65625 122.378906 199.101562 C 113.027344 197.738281 89.808594 194.796875 82.511719 198.007812 Z M 118.246094 219.921875 C 111.304688 220.359375 104.753906 220.773438 101.042969 222.027344 C 92.886719 224.789062 76.644531 239.933594 71.507812 245.789062 C 69.050781 248.585938 67.085938 252.613281 65.617188 256.390625 C 65.453125 251.195312 65.621094 245.710938 66.699219 242.894531 C 69.003906 236.882812 87.214844 219.449219 100.375 213.535156 C 112.121094 208.261719 131.1875 206.59375 134.234375 206.355469 C 136.253906 207.109375 138.410156 208.007812 140.496094 209.0625 C 141.804688 209.726562 142.976562 210.476562 144.035156 211.285156 C 143.078125 212.917969 140.886719 215.789062 136.492188 217.5625 C 136.214844 217.644531 135.570312 217.84375 134.648438 218.136719 C 130.738281 219.125 124.414062 219.53125 118.246094 219.921875 Z M 135.871094 221.949219 C 136.503906 221.78125 137.089844 221.601562 137.621094 221.40625 C 137.667969 221.390625 137.722656 221.371094 137.769531 221.359375 C 137.773438 221.355469 137.78125 221.351562 137.785156 221.347656 C 137.832031 221.332031 137.894531 221.316406 137.9375 221.296875 C 142.804688 219.351562 145.582031 216.234375 147.046875 214.019531 C 150.933594 218.246094 152.46875 223 152.976562 225.019531 C 146.019531 231.441406 138.902344 235.5625 131.480469 237.4375 C 131.046875 232.90625 128.828125 229.101562 124.8125 225.902344 C 128.90625 224.273438 132.972656 222.875 135.871094 221.949219 Z M 126.921875 279.460938 C 128.070312 282.472656 127.941406 285.933594 126.578125 288.722656 C 125.222656 291.492188 122.792969 293.429688 119.359375 294.480469 C 117.433594 295.066406 115.257812 294.703125 112.902344 293.394531 C 107.511719 290.398438 102.808594 283.625 100.5625 278.523438 C 100.910156 278.550781 101.277344 278.601562 101.605469 278.601562 C 107.546875 278.601562 110.796875 274.691406 114.351562 269.71875 C 119.0625 272.003906 125.648438 276.109375 126.921875 279.460938 Z M 112.214844 265.847656 C 112.175781 265.890625 112.148438 265.945312 112.113281 265.992188 C 112.097656 266.015625 112.070312 266.027344 112.054688 266.046875 C 107.40625 272.628906 105.058594 275.441406 99.257812 274.3125 C 98.648438 269.003906 101.058594 257.25 104.203125 247.550781 C 107.660156 251.375 111.257812 252.742188 114.582031 252.742188 C 115.902344 252.742188 117.179688 252.527344 118.390625 252.183594 C 117.511719 257.800781 115.464844 262.320312 112.214844 265.847656 Z M 120.757812 238.613281 C 120.207031 238.574219 119.644531 238.820312 119.257812 239.234375 C 118.867188 239.644531 118.664062 240.199219 118.710938 240.761719 C 118.898438 243.25 118.914062 245.566406 118.808594 247.761719 C 113.769531 249.886719 109.582031 248.390625 105.757812 243.105469 C 107.425781 238.675781 109.183594 235.109375 110.746094 233.488281 C 112.539062 231.625 116.28125 229.597656 120.496094 227.71875 C 124.945312 230.609375 127.222656 233.988281 127.515625 238.21875 C 125.289062 238.539062 123.039062 238.675781 120.757812 238.613281 Z M 156.992188 224.578125 C 156.320312 221.53125 153.265625 211.035156 142.304688 205.492188 C 139.921875 204.285156 137.472656 203.273438 135.21875 202.445312 C 135.195312 202.4375 135.171875 202.429688 135.144531 202.421875 C 131.558594 201.109375 128.484375 200.265625 127.03125 199.898438 C 126.390625 198.628906 125.132812 195.785156 124.402344 191.839844 C 124.394531 191.664062 124.367188 191.5 124.3125 191.335938 C 123.96875 189.296875 123.773438 186.976562 123.871094 184.445312 C 123.882812 184.378906 123.917969 184.324219 123.921875 184.257812 C 123.933594 184.15625 123.898438 184.0625 123.890625 183.964844 C 124.035156 181.238281 124.53125 178.269531 125.539062 175.132812 C 125.566406 175.074219 125.574219 175.011719 125.59375 174.953125 C 127.277344 169.824219 130.339844 164.246094 135.585938 158.519531 C 141.804688 151.730469 148.671875 146.46875 156.011719 142.820312 C 157.726562 145.742188 160.867188 147.734375 164.496094 147.734375 C 169.933594 147.734375 174.359375 143.3125 174.359375 137.871094 C 174.359375 137.621094 174.300781 137.382812 174.285156 137.136719 C 179.472656 136.386719 183.875 136.378906 187.203125 136.382812 L 187.980469 136.382812 C 191.296875 136.382812 195.710938 136.386719 200.898438 137.136719 C 200.878906 137.382812 200.824219 137.621094 200.824219 137.871094 C 200.824219 143.3125 205.246094 147.734375 210.6875 147.734375 C 214.3125 147.734375 217.453125 145.746094 219.167969 142.820312 C 226.507812 146.46875 233.378906 151.730469 239.597656 158.519531 C 244.839844 164.246094 247.90625 169.824219 249.585938 174.953125 C 249.605469 175.015625 249.621094 175.078125 249.648438 175.136719 C 250.660156 178.28125 251.148438 181.25 251.289062 183.976562 C 251.285156 184.070312 251.25 184.160156 251.257812 184.257812 C 251.265625 184.335938 251.304688 184.398438 251.320312 184.472656 C 251.414062 187.007812 251.210938 189.3125 250.867188 191.347656 C 250.8125 191.515625 250.785156 191.683594 250.78125 191.863281 C 250.113281 195.457031 249.007812 198.128906 248.335938 199.527344 C 246.757812 199.546875 244.070312 199.980469 240.019531 201.671875 C 240 201.679688 239.984375 201.691406 239.964844 201.695312 C 237.921875 202.550781 235.5625 203.703125 232.777344 205.324219 C 230.429688 206.691406 228.464844 208.261719 226.785156 209.902344 C 226.777344 209.910156 226.769531 209.914062 226.761719 209.921875 C 220.914062 215.65625 218.796875 222.296875 218.222656 224.554688 C 216.082031 226.0625 206.710938 231.789062 187.589844 231.789062 C 168.546875 231.792969 159.175781 226.113281 156.992188 224.578125 Z M 237.246094 221.300781 C 237.292969 221.320312 237.351562 221.332031 237.402344 221.351562 C 237.40625 221.351562 237.410156 221.355469 237.414062 221.359375 C 237.453125 221.367188 237.5 221.386719 237.539062 221.398438 C 238.078125 221.597656 238.675781 221.785156 239.320312 221.953125 C 242.21875 222.875 246.28125 224.277344 250.371094 225.902344 C 246.355469 229.105469 244.132812 232.910156 243.703125 237.449219 C 236.285156 235.582031 229.1875 231.460938 222.238281 225.046875 C 222.796875 223.09375 224.371094 218.699219 227.980469 214.488281 C 229.554688 216.511719 232.453125 219.382812 237.246094 221.300781 Z M 262.285156 293.394531 C 259.925781 294.699219 257.753906 295.066406 255.824219 294.480469 C 252.390625 293.425781 249.960938 291.492188 248.605469 288.722656 C 247.242188 285.933594 247.113281 282.472656 248.261719 279.460938 C 249.535156 276.113281 256.117188 272.007812 260.832031 269.71875 C 264.386719 274.6875 267.636719 278.597656 273.578125 278.597656 C 273.910156 278.597656 274.277344 278.546875 274.621094 278.519531 C 272.375 283.621094 267.671875 290.398438 262.285156 293.394531 Z M 275.925781 274.3125 C 270.132812 275.441406 267.777344 272.628906 263.128906 266.046875 C 263.113281 266.027344 263.085938 266.015625 263.070312 265.992188 C 263.035156 265.945312 263.007812 265.890625 262.96875 265.847656 C 259.71875 262.320312 257.671875 257.800781 256.792969 252.183594 C 258.003906 252.527344 259.28125 252.738281 260.601562 252.738281 C 263.929688 252.738281 267.523438 251.375 270.980469 247.546875 C 274.125 257.25 276.535156 269.003906 275.925781 274.3125 Z M 269.425781 243.101562 C 265.605469 248.386719 261.414062 249.882812 256.378906 247.757812 C 256.273438 245.5625 256.289062 243.25 256.476562 240.761719 C 256.519531 240.199219 256.320312 239.640625 255.929688 239.230469 C 255.539062 238.820312 254.988281 238.566406 254.425781 238.609375 C 252.144531 238.675781 249.894531 238.546875 247.675781 238.226562 C 247.960938 233.992188 250.242188 230.609375 254.691406 227.71875 C 258.90625 229.597656 262.644531 231.625 264.441406 233.484375 C 266 235.109375 267.757812 238.675781 269.425781 243.101562 Z M 309.5625 256.390625 C 308.097656 252.613281 306.128906 248.585938 303.675781 245.789062 C 298.539062 239.933594 282.292969 224.789062 274.136719 222.027344 C 270.429688 220.773438 263.875 220.359375 256.9375 219.921875 C 250.773438 219.53125 244.449219 219.125 240.53125 218.136719 C 239.597656 217.839844 238.949219 217.640625 238.683594 217.558594 C 234.289062 215.789062 231.917969 213.152344 230.828125 211.625 C 232.003906 210.613281 233.304688 209.648438 234.789062 208.785156 C 237.183594 207.386719 239.203125 206.390625 240.941406 205.636719 C 244.328125 206.015625 263.164062 208.308594 274.808594 213.535156 C 287.96875 219.449219 306.175781 236.882812 308.480469 242.894531 C 309.558594 245.710938 309.726562 251.199219 309.5625 256.390625 Z M 309.5625 256.390625 " fill-opacity="1" fill-rule="nonzero"/></g></svg>