<?xml version="1.0" encoding="UTF-8" standalone="no"?>
<!-- Created with Inkscape (http://www.inkscape.org/) -->

<svg
   version="1.1"
   id="svg3719"
   width="158.35289"
   height="117.64633"
   viewBox="0 0 158.35289 117.64634"
   sodipodi:docname="crustaceans.svg"
   xmlns:inkscape="http://www.inkscape.org/namespaces/inkscape"
   xmlns:sodipodi="http://sodipodi.sourceforge.net/DTD/sodipodi-0.dtd"
   xmlns="http://www.w3.org/2000/svg"
   xmlns:svg="http://www.w3.org/2000/svg">
  <sodipodi:namedview
     id="namedview59755"
     pagecolor="#ffffff"
     bordercolor="#000000"
     borderopacity="0.25"
     inkscape:showpageshadow="2"
     inkscape:pageopacity="0.0"
     inkscape:pagecheckerboard="0"
     inkscape:deskcolor="#d1d1d1"
     showgrid="false" />
  <defs
     id="defs3723" />
  <g
     id="g3727"
     transform="matrix(1.3333333,0,0,-1.3333333,-1861.4902,1196.465)"
     style="stroke:#000000;stroke-opacity:1">
    <g
       id="g3729"
       transform="scale(0.1)"
       style="stroke:#000000;stroke-opacity:1">
      <path
         d="m 14555,8166.14 c 310,30 300,270 300,270 -70,230 -300,220 -300,220 0,0 -230,10 -300,-220 0,0 -10,-240 300,-270 z"
         style="fill:none;stroke:#ffffff;stroke-width:40;stroke-linecap:round;stroke-linejoin:round;stroke-miterlimit:10;stroke-dasharray:none;stroke-opacity:1"
         id="path3891" />
      <path
         d="m 14295,8306.14 c 0,0 -110,-20 -150,-130"
         style="fill:none;stroke:#ffffff;stroke-width:30;stroke-linecap:round;stroke-linejoin:round;stroke-miterlimit:10;stroke-dasharray:none;stroke-opacity:1"
         id="path3893" />
      <path
         d="m 14325,8266.14 c 0,0 -80,-40 -110,-130"
         style="fill:none;stroke:#ffffff;stroke-width:30;stroke-linecap:round;stroke-linejoin:round;stroke-miterlimit:10;stroke-dasharray:none;stroke-opacity:1"
         id="path3895" />
      <path
         d="m 14385,8216.14 c 0,0 -90,-30 -100,-110"
         style="fill:none;stroke:#ffffff;stroke-width:30;stroke-linecap:round;stroke-linejoin:round;stroke-miterlimit:10;stroke-dasharray:none;stroke-opacity:1"
         id="path3897" />
      <path
         d="m 14815,8306.14 c 0,0 110,-20 150,-130"
         style="fill:none;stroke:#ffffff;stroke-width:30;stroke-linecap:round;stroke-linejoin:round;stroke-miterlimit:10;stroke-dasharray:none;stroke-opacity:1"
         id="path3899" />
      <path
         d="m 14785,8266.14 c 0,0 80,-40 110,-130"
         style="fill:none;stroke:#ffffff;stroke-width:30;stroke-linecap:round;stroke-linejoin:round;stroke-miterlimit:10;stroke-dasharray:none;stroke-opacity:1"
         id="path3901" />
      <path
         d="m 14725,8216.14 c 0,0 90,-30 100,-110"
         style="fill:none;stroke:#ffffff;stroke-width:30;stroke-linecap:round;stroke-linejoin:round;stroke-miterlimit:10;stroke-dasharray:none;stroke-opacity:1"
         id="path3903" />
      <path
         d="m 14465,8546.14 c 0,-11.05 -9,-20 -20,-20 -11,0 -20,8.95 -20,20 0,11.04 9,20 20,20 11,0 20,-8.96 20,-20"
         style="fill:#ffffff;fill-opacity:1;fill-rule:nonzero;stroke:#ffffff;stroke-opacity:1"
         id="path3905"
         inkscape:export-filename="crustaceans_light.svg"
         inkscape:export-xdpi="96"
         inkscape:export-ydpi="96" />
      <path
         d="m 14645,8546.14 c 0,-11.05 9,-20 20,-20 11,0 20,8.95 20,20 0,11.04 -9,20 -20,20 -11,0 -20,-8.96 -20,-20"
         style="fill:#ffffff;fill-opacity:1;fill-rule:nonzero;stroke:#ffffff;stroke-opacity:1"
         id="path3907" />
      <path
         d="m 14355,8946.14 c 0,0 -160,50 -290,-110 -130,-160 -70,-240 -70,-240 0,0 80,30 130,-50 0,0 200,60 300,310 0,0 -150,-110 -190,-60 -45,56.31 120,150 120,150 z"
         style="fill:none;stroke:#ffffff;stroke-width:40;stroke-linecap:round;stroke-linejoin:round;stroke-miterlimit:10;stroke-dasharray:none;stroke-opacity:1"
         id="path3909" />
      <path
         d="m 13995,8596.14 c 0,0 -20.7,-51.72 50,-80 50,-20 80,30 80,30"
         style="fill:none;stroke:#ffffff;stroke-width:40;stroke-linecap:round;stroke-linejoin:round;stroke-miterlimit:10;stroke-dasharray:none;stroke-opacity:1"
         id="path3911" />
      <path
         d="m 14025,8526.14 c 0,0 10,-130 230,-130"
         style="fill:none;stroke:#ffffff;stroke-width:40;stroke-linecap:round;stroke-linejoin:round;stroke-miterlimit:10;stroke-dasharray:none;stroke-opacity:1"
         id="path3913" />
      <path
         d="m 14755,8946.14 c 0,0 160,50 290,-110 130,-160 70,-240 70,-240 0,0 -80,30 -130,-50 0,0 -200,60 -300,310 0,0 150,-110 190,-60 45,56.31 -120,150 -120,150 z"
         style="fill:none;stroke:#ffffff;stroke-width:40;stroke-linecap:round;stroke-linejoin:round;stroke-miterlimit:10;stroke-dasharray:none;stroke-opacity:1"
         id="path3915" />
      <path
         d="m 15115,8596.14 c 0,0 20.7,-51.72 -50,-80 -50,-20 -80,30 -80,30"
         style="fill:none;stroke:#ffffff;stroke-width:40;stroke-linecap:round;stroke-linejoin:round;stroke-miterlimit:10;stroke-dasharray:none;stroke-opacity:1"
         id="path3917" />
      <path
         d="m 15085,8526.14 c 0,0 -10,-130 -230,-130"
         style="fill:none;stroke:#ffffff;stroke-width:40;stroke-linecap:round;stroke-linejoin:round;stroke-miterlimit:10;stroke-dasharray:none;stroke-opacity:1"
         id="path3919"
         inkscape:export-filename="crustaceans.svg"
         inkscape:export-xdpi="96"
         inkscape:export-ydpi="96" />
    </g>
  </g>
</svg>
