<svg xmlns="http://www.w3.org/2000/svg" xmlns:xlink="http://www.w3.org/1999/xlink" width="500" zoomAndPan="magnify" viewBox="0 0 375 374.999991" height="500" preserveAspectRatio="xMidYMid meet" version="1.0"><defs><clipPath id="8352e421e4"><path d="M 187.5 0 C 83.945312 0 0 83.945312 0 187.5 C 0 291.054688 83.945312 375 187.5 375 C 291.054688 375 375 291.054688 375 187.5 C 375 83.945312 291.054688 0 187.5 0 Z M 187.5 0 " clip-rule="nonzero"/></clipPath><clipPath id="98770c2f80"><path d="M 78 77.695312 L 297 77.695312 L 297 296 L 78 296 Z M 78 77.695312 " clip-rule="nonzero"/></clipPath></defs><g clip-path="url(#8352e421e4)"><rect x="-37.5" width="450" fill="#58a39d" y="-37.499999" height="449.999989" fill-opacity="1"/></g><path fill="#fffff9" d="M 164.601562 203.933594 C 167.671875 203.933594 170.144531 206.445312 170.125 209.515625 C 170.125 209.554688 170.125 209.613281 170.125 209.671875 C 170.242188 212.742188 167.828125 215.3125 164.753906 215.429688 C 161.683594 215.523438 159.113281 213.128906 159.019531 210.058594 C 159.019531 209.921875 159.019531 209.804688 159.019531 209.671875 C 158.902344 206.597656 161.316406 204.027344 164.386719 203.933594 C 164.445312 203.933594 164.523438 203.933594 164.601562 203.933594 Z M 210.640625 157.894531 C 213.710938 157.796875 216.261719 160.210938 216.359375 163.285156 C 216.359375 163.339844 216.359375 163.398438 216.359375 163.457031 C 216.398438 166.527344 213.945312 169.039062 210.851562 169.078125 C 207.78125 169.117188 205.269531 166.664062 205.230469 163.574219 C 205.230469 163.535156 205.230469 163.496094 205.230469 163.457031 C 205.230469 160.445312 207.625 157.96875 210.640625 157.894531 Z M 277.914062 95.046875 C 277.582031 95.027344 277.273438 95.160156 277.023438 95.375 L 215.585938 156.832031 C 211.933594 154.183594 206.816406 154.996094 204.167969 158.667969 C 202.121094 161.527344 202.121094 165.371094 204.167969 168.230469 L 169.355469 203.042969 C 165.703125 200.398438 160.601562 201.226562 157.953125 204.878906 C 155.886719 207.738281 155.886719 211.601562 157.953125 214.460938 L 96.5 275.898438 C 96.015625 276.421875 96.035156 277.25 96.554688 277.734375 C 97.058594 278.21875 97.851562 278.21875 98.351562 277.734375 L 159.789062 216.296875 C 163.460938 218.945312 168.5625 218.113281 171.207031 214.460938 C 173.257812 211.601562 173.257812 207.738281 171.207031 204.898438 L 206.023438 170.066406 C 209.675781 172.710938 214.773438 171.882812 217.421875 168.230469 C 219.488281 165.371094 219.488281 161.527344 217.421875 158.667969 L 278.859375 97.230469 C 279.359375 96.6875 279.324219 95.855469 278.78125 95.375 C 278.550781 95.160156 278.242188 95.046875 277.929688 95.046875 L 277.914062 95.046875 " fill-opacity="1" fill-rule="nonzero"/><g clip-path="url(#98770c2f80)"><path fill="#fffff9" d="M 279.128906 80.304688 C 287.476562 80.460938 294.121094 87.335938 293.96875 95.683594 C 293.890625 99.566406 292.324219 103.296875 289.582031 106.058594 L 255.65625 139.984375 C 255.09375 140.542969 254.59375 141.164062 254.148438 141.820312 C 224.976562 186.003906 187.167969 223.8125 142.980469 252.984375 C 142.324219 253.429688 141.6875 253.933594 141.128906 254.492188 L 107.222656 288.417969 C 101.289062 294.292969 91.726562 294.234375 85.851562 288.300781 C 80.039062 282.410156 80.039062 272.941406 85.851562 267.070312 L 119.777344 233.144531 C 120.339844 232.585938 120.839844 231.964844 121.285156 231.289062 C 150.457031 187.105469 188.269531 149.296875 232.453125 120.121094 C 233.109375 119.679688 233.726562 119.175781 234.308594 118.617188 L 268.214844 84.691406 C 271.113281 81.8125 275.054688 80.246094 279.128906 80.304688 Z M 279.128906 77.695312 C 274.339844 77.621094 269.738281 79.472656 266.339844 82.855469 L 232.414062 116.78125 C 231.96875 117.207031 231.507812 117.609375 230.984375 117.960938 C 186.511719 147.304688 148.449219 185.386719 119.082031 229.859375 C 118.734375 230.382812 118.347656 230.863281 117.925781 231.289062 L 84 265.214844 C 77.160156 272.210938 77.273438 283.414062 84.25 290.253906 C 91.148438 296.996094 102.160156 296.996094 109.035156 290.273438 L 142.960938 256.347656 C 143.40625 255.902344 143.890625 255.515625 144.410156 255.167969 C 188.886719 225.800781 226.945312 187.742188 256.3125 143.269531 C 256.640625 142.746094 257.046875 142.261719 257.472656 141.820312 L 291.398438 107.894531 C 298.292969 100.976562 298.277344 89.753906 291.339844 82.855469 C 288.09375 79.628906 283.726562 77.792969 279.148438 77.695312 L 279.128906 77.695312 " fill-opacity="1" fill-rule="nonzero"/></g></svg>