<svg xmlns="http://www.w3.org/2000/svg" xmlns:xlink="http://www.w3.org/1999/xlink" width="500" zoomAndPan="magnify" viewBox="0 0 375 374.999991" height="500" preserveAspectRatio="xMidYMid meet" version="1.0"><defs><clipPath id="225486536c"><path d="M 187.5 0 C 83.945312 0 0 83.945312 0 187.5 C 0 291.054688 83.945312 375 187.5 375 C 291.054688 375 375 291.054688 375 187.5 C 375 83.945312 291.054688 0 187.5 0 Z M 187.5 0 " clip-rule="nonzero"/></clipPath><clipPath id="c9345adb57"><path d="M 65.472656 162 L 209 162 L 209 311 L 65.472656 311 Z M 65.472656 162 " clip-rule="nonzero"/></clipPath></defs><g clip-path="url(#225486536c)"><rect x="-37.5" width="450" fill="#58a39d" y="-37.499999" height="449.999989" fill-opacity="1"/></g><g clip-path="url(#c9345adb57)"><path fill="#ffffff" d="M 181.621094 230.097656 C 180.25 226.320312 187.066406 218.269531 193.074219 211.121094 C 200.703125 202.097656 207.894531 193.578125 204.3125 188.335938 C 200.859375 183.214844 189.027344 185.273438 171.347656 188.988281 C 162.816406 190.800781 153.136719 192.828125 150.457031 191.644531 C 147.9375 190.519531 142.644531 185.242188 137.539062 180.15625 C 126.644531 169.261719 118.550781 161.644531 113.382812 162.457031 C 111.949219 162.675781 110.796875 163.550781 110.082031 164.957031 C 108.773438 167.515625 108.464844 175.191406 108.089844 187.492188 C 107.839844 196.011719 107.5 207.6875 106.316406 209.496094 C 105.039062 211.464844 98.378906 213.554688 91.933594 215.582031 C 79.480469 219.515625 65.347656 223.980469 65.660156 233.03125 C 65.910156 240.335938 79.296875 243.582031 92.277344 246.734375 C 97.910156 248.109375 103.265625 249.386719 105.695312 250.730469 C 105.785156 250.792969 105.878906 250.886719 105.972656 251.011719 C 106.003906 251.042969 106.003906 251.042969 106.003906 251.042969 C 107.777344 253.445312 107.0625 266.835938 106.566406 275.886719 C 105.445312 296.207031 105.195312 308.660156 111.109375 310.191406 C 111.886719 310.378906 112.667969 310.472656 113.445312 310.472656 C 123.53125 310.472656 131.46875 293.585938 138.566406 278.570312 C 142.394531 270.457031 146.753906 261.25 149.277344 260.71875 C 149.308594 260.71875 149.339844 260.71875 149.371094 260.71875 C 149.429688 260.71875 149.492188 260.75 149.554688 260.75 C 149.773438 260.75 149.992188 260.71875 150.179688 260.625 C 156.558594 260.1875 167.144531 267.554688 176.578125 274.078125 C 189.121094 282.785156 200.984375 291.027344 206.585938 284.660156 C 212.40625 278.042969 201.140625 259.9375 188.0625 240.335938 C 184.859375 235.652344 182.117188 231.535156 181.621094 230.097656 Z M 201.542969 194.078125 C 201.605469 193.703125 201.636719 193.296875 201.605469 192.859375 C 201.574219 192.328125 201.261719 191.859375 200.828125 191.613281 C 201.324219 191.613281 201.792969 191.363281 202.074219 190.957031 C 202.257812 191.828125 202.042969 192.859375 201.542969 194.078125 Z M 205.03125 280.351562 C 202.507812 269.675781 193.167969 259.3125 185.574219 250.886719 L 183.238281 248.265625 C 174.617188 238.554688 163.160156 228.910156 151.050781 221.078125 C 150.335938 220.609375 149.371094 220.828125 148.902344 221.546875 C 148.433594 222.261719 148.652344 223.230469 149.371094 223.699219 C 161.261719 231.378906 172.46875 240.867188 180.933594 250.355469 L 183.300781 252.976562 C 190.742188 261.21875 200.921875 272.515625 202.414062 283.003906 C 202.445312 283.253906 202.539062 283.441406 202.664062 283.628906 C 197.808594 285.066406 187.535156 277.949219 178.351562 271.582031 C 168.578125 264.808594 158.523438 257.847656 151.113281 257.566406 L 151.113281 250.324219 C 151.113281 249.761719 150.800781 249.292969 150.367188 249.011719 C 150.519531 249.011719 150.675781 248.980469 150.832031 248.917969 C 151.609375 248.574219 152.015625 247.671875 151.671875 246.890625 C 151.640625 246.796875 151.640625 246.484375 151.640625 246.234375 L 151.640625 245.828125 C 151.640625 244.988281 150.925781 244.425781 150.085938 244.425781 C 149.339844 244.332031 148.527344 245.265625 148.527344 246.140625 C 148.527344 246.671875 148.496094 247.359375 148.808594 248.078125 C 148.933594 248.390625 149.152344 248.605469 149.398438 248.761719 C 148.621094 248.855469 148.03125 249.480469 148.03125 250.292969 L 148.03125 257.972656 C 144.449219 259.34375 141.121094 265.992188 135.796875 277.292969 C 129.042969 291.621094 120.636719 309.441406 111.949219 307.195312 C 108.089844 306.195312 109.085938 288.09375 109.742188 276.105469 C 110.488281 262.464844 110.800781 253.726562 108.835938 249.886719 C 109.863281 247.328125 111.234375 245.640625 113.164062 244.707031 C 113.910156 244.332031 114.191406 243.488281 113.910156 242.738281 C 114.097656 242.800781 114.285156 242.863281 114.503906 242.863281 C 115 242.863281 115.5 242.613281 115.8125 242.175781 C 115.902344 242.113281 116.058594 242.050781 116.183594 241.988281 C 116.496094 241.863281 116.777344 241.710938 116.992188 241.554688 C 117.773438 241.023438 118.332031 240.367188 118.800781 239.804688 C 119.328125 239.117188 119.203125 238.152344 118.519531 237.621094 C 117.835938 237.089844 116.871094 237.214844 116.339844 237.902344 C 116.027344 238.308594 115.6875 238.679688 115.28125 238.960938 C 115.1875 239.023438 115.03125 239.085938 114.875 239.148438 C 114.285156 239.429688 113.476562 239.804688 113.070312 240.679688 C 112.914062 241.085938 112.914062 241.492188 113.039062 241.863281 C 112.636719 241.710938 112.199219 241.710938 111.796875 241.894531 C 109.492188 243.019531 107.75 244.957031 106.441406 247.640625 C 103.515625 246.265625 98.65625 245.082031 93.085938 243.738281 C 90.625 243.144531 87.886719 242.457031 85.117188 241.710938 C 85.273438 241.710938 85.457031 241.710938 85.613281 241.648438 C 85.894531 241.554688 86.269531 241.679688 86.734375 242.019531 C 87.015625 242.238281 87.328125 242.332031 87.667969 242.332031 C 88.136719 242.332031 88.601562 242.113281 88.914062 241.710938 C 89.414062 241.023438 89.289062 240.054688 88.601562 239.523438 C 86.953125 238.308594 85.550781 238.402344 84.648438 238.710938 C 84.371094 238.804688 84.183594 238.960938 83.996094 239.179688 C 84.089844 238.371094 83.558594 237.621094 82.75 237.464844 C 79.886719 236.902344 78.421875 236.621094 76.648438 234.5625 C 76.089844 233.90625 75.09375 233.84375 74.4375 234.40625 C 73.785156 234.96875 73.722656 235.964844 74.28125 236.621094 C 76.773438 239.523438 79.140625 239.992188 82.160156 240.554688 C 82.253906 240.585938 82.347656 240.585938 82.46875 240.585938 C 82.90625 240.585938 83.3125 240.367188 83.589844 240.054688 C 83.558594 240.273438 83.589844 240.492188 83.652344 240.710938 C 83.777344 241.085938 84.027344 241.367188 84.339844 241.554688 C 77.863281 239.742188 71.542969 237.496094 69.519531 234.78125 C 69.707031 234.875 69.925781 234.9375 70.144531 234.9375 C 70.421875 234.9375 70.703125 234.875 70.984375 234.6875 C 77.023438 230.878906 127.296875 221.855469 138.910156 221.855469 C 139.78125 221.855469 140.464844 221.171875 140.464844 220.296875 C 140.464844 219.421875 139.78125 218.734375 138.910156 218.734375 C 127.796875 218.734375 76.246094 227.695312 69.332031 232.03125 C 69.148438 232.125 69.023438 232.28125 68.898438 232.4375 C 69.457031 226.070312 82.4375 221.949219 92.960938 218.640625 C 100.804688 216.175781 105.972656 214.429688 108.277344 212.117188 C 109.648438 211.835938 112.136719 211.835938 113.320312 212.148438 C 113.445312 212.179688 113.601562 212.210938 113.726562 212.210938 C 114.410156 212.210938 115.03125 211.746094 115.21875 211.058594 C 115.4375 210.214844 114.9375 209.371094 114.097656 209.152344 C 113.007812 208.871094 111.390625 208.777344 109.863281 208.839844 C 110.707031 205.035156 110.984375 197.886719 111.296875 187.679688 C 111.546875 179.25 111.855469 168.824219 112.914062 166.546875 C 113.007812 167.234375 113.476562 167.796875 114.191406 167.859375 C 116.464844 168.792969 125.867188 183.371094 130.378906 193.015625 C 131.8125 196.074219 132.871094 198.074219 133.898438 199.976562 C 135.671875 203.316406 137.226562 206.1875 140.25 213.960938 C 140.496094 214.585938 141.089844 214.960938 141.710938 214.960938 C 141.898438 214.960938 142.085938 214.929688 142.273438 214.867188 C 143.082031 214.554688 143.453125 213.648438 143.144531 212.835938 C 140.03125 204.878906 138.472656 201.941406 136.636719 198.507812 C 135.640625 196.667969 134.582031 194.703125 133.179688 191.707031 C 131.4375 188.023438 122.941406 172.257812 117.523438 166.734375 C 122.410156 169.480469 129.695312 176.785156 135.421875 182.464844 C 140.777344 187.804688 145.414062 192.421875 148.527344 194.171875 C 147.53125 196.136719 147.46875 198.851562 147.46875 198.882812 C 147.46875 199.101562 147.53125 199.320312 147.59375 199.507812 C 147.003906 199.726562 146.566406 200.289062 146.566406 200.945312 C 146.566406 201.539062 146.410156 202.191406 146.257812 202.878906 C 146.039062 203.816406 145.820312 204.753906 145.882812 205.8125 C 145.945312 206.65625 146.628906 207.28125 147.4375 207.28125 C 147.46875 207.28125 147.5 207.28125 147.53125 207.28125 C 148.402344 207.21875 149.058594 206.5 148.996094 205.625 C 148.964844 205.035156 149.121094 204.316406 149.277344 203.566406 C 149.460938 202.785156 149.648438 201.878906 149.648438 200.945312 C 149.648438 200.726562 149.585938 200.507812 149.492188 200.320312 C 150.085938 200.101562 150.519531 199.539062 150.519531 198.851562 C 150.519531 197.574219 150.988281 195.667969 151.394531 195.230469 C 151.484375 195.199219 151.578125 195.105469 151.640625 195.074219 C 155.65625 195.417969 162.351562 194.140625 172 192.109375 C 180.65625 190.300781 191.675781 187.960938 197.714844 188.519531 C 190.617188 189.144531 180.875 194.015625 174.117188 197.449219 C 172.65625 198.199219 171.316406 198.851562 170.226562 199.382812 C 161.695312 203.441406 153.789062 209.558594 148.589844 213.804688 C 147.9375 214.335938 147.8125 215.332031 148.375 215.988281 C 148.683594 216.363281 149.121094 216.550781 149.585938 216.550781 C 149.929688 216.550781 150.273438 216.425781 150.582031 216.207031 C 155.65625 212.054688 163.347656 206.09375 171.597656 202.191406 C 172.71875 201.664062 174.054688 200.976562 175.550781 200.226562 C 182.210938 196.855469 193.074219 191.425781 199.394531 191.613281 C 198.898438 191.890625 198.554688 192.421875 198.585938 193.046875 C 198.648438 194.078125 198.179688 195.046875 197.652344 196.136719 C 197.496094 196.449219 197.339844 196.792969 197.214844 197.105469 C 197.125 197.324219 197.09375 197.574219 197.125 197.824219 C 196.53125 197.855469 195.972656 198.199219 195.753906 198.757812 C 195.628906 199.039062 195.378906 199.289062 195.070312 199.445312 C 194.289062 199.789062 193.949219 200.726562 194.289062 201.507812 C 194.539062 202.066406 195.128906 202.410156 195.722656 202.410156 C 195.941406 202.410156 196.15625 202.378906 196.375 202.253906 C 196.4375 202.222656 196.5 202.160156 196.5625 202.128906 C 194.757812 204.472656 192.703125 206.875 190.835938 209.121094 C 185.730469 215.144531 180.875 220.921875 179.128906 225.726562 C 178.910156 225.601562 178.664062 225.476562 178.445312 225.320312 C 177.914062 225.011719 177.386719 224.699219 176.886719 224.480469 C 176.390625 224.261719 175.890625 224.074219 175.394531 223.917969 C 174.648438 223.667969 174.023438 223.417969 173.433594 223.011719 C 172.71875 222.511719 171.75 222.699219 171.253906 223.386719 C 170.753906 224.105469 170.941406 225.074219 171.628906 225.570312 C 172.5625 226.226562 173.464844 226.539062 174.335938 226.851562 C 174.742188 227.007812 175.144531 227.132812 175.582031 227.320312 C 175.953125 227.507812 176.390625 227.757812 176.796875 228.007812 C 177.324219 228.320312 177.851562 228.628906 178.414062 228.878906 C 178.382812 229.691406 178.507812 230.441406 178.757812 231.160156 C 179.410156 232.9375 181.960938 236.777344 185.542969 242.113281 C 192.296875 252.351562 205.652344 272.390625 205.03125 280.351562 Z M 205.03125 280.351562 " fill-opacity="1" fill-rule="nonzero"/></g><path fill="#ffffff" d="M 140.496094 222.542969 C 134.863281 227.351562 107.25 292.679688 111.046875 306.070312 C 111.234375 306.757812 111.855469 307.195312 112.542969 307.195312 C 112.699219 307.195312 112.824219 307.164062 112.976562 307.132812 C 113.820312 306.882812 114.285156 306.039062 114.066406 305.199219 C 110.921875 294.054688 136.855469 229.753906 142.550781 224.917969 C 143.207031 224.355469 143.300781 223.355469 142.738281 222.699219 C 142.148438 222.042969 141.152344 221.980469 140.496094 222.542969 Z M 140.496094 222.542969 " fill-opacity="1" fill-rule="nonzero"/><path fill="#ffffff" d="M 120.199219 210.058594 C 118.832031 209.714844 117.304688 209.714844 116.027344 209.714844 L 115.8125 211.277344 L 116.027344 212.835938 C 117.242188 212.835938 118.457031 212.835938 119.453125 213.085938 C 119.578125 213.117188 119.703125 213.117188 119.828125 213.117188 C 120.511719 213.117188 121.164062 212.648438 121.320312 211.929688 C 121.539062 211.121094 121.039062 210.277344 120.199219 210.058594 Z M 120.199219 210.058594 " fill-opacity="1" fill-rule="nonzero"/><path fill="#ffffff" d="M 134.582031 213.273438 C 133.304688 212.960938 132.125 212.585938 130.941406 212.179688 C 128.480469 211.371094 125.960938 210.558594 123.03125 210.527344 C 122.191406 210.527344 121.476562 211.214844 121.476562 212.085938 C 121.476562 212.960938 122.160156 213.648438 123.03125 213.648438 C 125.492188 213.648438 127.671875 214.367188 130.007812 215.144531 C 131.28125 215.550781 132.558594 215.988281 133.898438 216.300781 C 134.023438 216.332031 134.148438 216.332031 134.269531 216.332031 C 134.988281 216.332031 135.609375 215.832031 135.796875 215.144531 C 135.953125 214.304688 135.421875 213.460938 134.582031 213.273438 Z M 134.582031 213.273438 " fill-opacity="1" fill-rule="nonzero"/><path fill="#ffffff" d="M 146.816406 207.75 C 145.976562 207.53125 145.136719 208 144.917969 208.839844 C 144.824219 209.152344 144.636719 209.496094 144.324219 210.027344 C 143.890625 210.777344 144.203125 211.652344 144.917969 212.085938 C 145.136719 212.210938 145.382812 212.273438 145.664062 212.273438 C 146.226562 212.273438 146.785156 211.960938 147.097656 211.464844 C 147.40625 210.933594 147.71875 210.371094 147.9375 209.652344 C 148.15625 208.839844 147.65625 208 146.816406 207.75 Z M 146.816406 207.75 " fill-opacity="1" fill-rule="nonzero"/><path fill="#ffffff" d="M 120.074219 237.246094 C 120.230469 237.277344 120.386719 237.308594 120.511719 237.308594 C 121.164062 237.308594 121.757812 236.902344 121.945312 236.214844 C 122.191406 235.777344 123.46875 234.5 123.78125 234.34375 C 124.621094 234.125 125.117188 233.28125 124.902344 232.4375 C 124.683594 231.597656 123.84375 231.097656 123 231.316406 C 121.789062 231.628906 119.296875 234.0625 118.984375 235.246094 C 118.769531 236.089844 119.234375 237.027344 120.074219 237.246094 Z M 120.074219 237.246094 " fill-opacity="1" fill-rule="nonzero"/><path fill="#ffffff" d="M 170.601562 221.296875 C 169.945312 220.890625 169.230469 220.828125 168.671875 220.828125 C 168.515625 220.828125 168.359375 220.828125 168.203125 220.796875 C 167.363281 220.640625 166.523438 221.171875 166.367188 221.980469 C 166.179688 222.824219 166.707031 223.667969 167.550781 223.824219 C 167.828125 223.886719 168.171875 223.917969 168.515625 223.917969 C 168.671875 223.917969 168.886719 223.949219 168.980469 223.949219 C 169.230469 224.074219 169.480469 224.136719 169.726562 224.136719 C 170.226562 224.136719 170.722656 223.886719 171.035156 223.417969 C 171.535156 222.730469 171.316406 221.761719 170.601562 221.296875 Z M 170.601562 221.296875 " fill-opacity="1" fill-rule="nonzero"/><path fill="#ffffff" d="M 164.53125 219.390625 C 163.75 219.421875 162.941406 219.265625 162.039062 219.078125 C 161.230469 218.921875 160.359375 218.734375 159.457031 218.703125 C 158.613281 218.671875 157.867188 219.359375 157.835938 220.203125 C 157.804688 221.078125 158.492188 221.792969 159.332031 221.824219 C 160.015625 221.855469 160.699219 221.980469 161.386719 222.136719 C 162.289062 222.324219 163.222656 222.511719 164.21875 222.511719 C 164.375 222.511719 164.53125 222.511719 164.683594 222.511719 C 165.558594 222.449219 166.179688 221.703125 166.148438 220.859375 C 166.117188 220.015625 165.371094 219.328125 164.53125 219.390625 Z M 164.53125 219.390625 " fill-opacity="1" fill-rule="nonzero"/><path fill="#ffffff" d="M 147.96875 235.996094 L 147.96875 241.367188 C 147.96875 242.238281 148.652344 242.925781 149.523438 242.925781 C 150.398438 242.925781 151.082031 242.238281 151.082031 241.367188 L 151.082031 235.996094 C 151.082031 235.125 150.398438 234.4375 149.523438 234.4375 C 148.652344 234.4375 147.96875 235.152344 147.96875 235.996094 Z M 147.96875 235.996094 " fill-opacity="1" fill-rule="nonzero"/><path fill="#ffffff" d="M 120.449219 186.554688 C 121.632812 185.367188 120.976562 183.402344 119.703125 182.089844 C 118.238281 180.5625 116.683594 180.71875 115.8125 181.53125 C 115.09375 182.183594 114.285156 183.433594 114.285156 184.714844 C 114.285156 185.460938 114.597656 186.148438 115.125 186.617188 C 115.8125 187.210938 116.777344 187.523438 117.742188 187.523438 C 118.769531 187.554688 119.796875 187.210938 120.449219 186.554688 Z M 117.492188 184.433594 C 117.492188 184.402344 117.523438 184.371094 117.523438 184.339844 C 117.554688 184.371094 117.585938 184.402344 117.617188 184.433594 C 117.554688 184.433594 117.523438 184.433594 117.492188 184.433594 Z M 117.492188 184.433594 " fill-opacity="1" fill-rule="nonzero"/><path fill="#ffffff" d="M 120.761719 196.074219 C 121.195312 197.511719 122.941406 198.167969 123.46875 198.324219 C 124.027344 198.507812 124.558594 198.570312 125.023438 198.570312 C 125.773438 198.570312 126.457031 198.382812 126.988281 197.980469 C 128.480469 196.824219 129.011719 195.261719 128.386719 193.796875 C 127.734375 192.265625 125.867188 191.207031 124.214844 191.425781 C 124.089844 191.457031 123.9375 191.488281 123.8125 191.550781 C 120.542969 192.921875 120.355469 194.765625 120.761719 196.074219 Z M 124.777344 194.515625 C 125.085938 194.578125 125.492188 194.859375 125.523438 195.015625 C 125.523438 195.042969 125.429688 195.261719 125.179688 195.449219 C 124.839844 195.542969 123.875 195.230469 123.71875 195.230469 C 123.71875 195.199219 123.875 194.921875 124.777344 194.515625 Z M 124.777344 194.515625 " fill-opacity="1" fill-rule="nonzero"/><path fill="#ffffff" d="M 139.375 190.207031 C 139.28125 190.207031 139.191406 190.238281 139.097656 190.269531 C 136.980469 190.957031 136.355469 192.640625 136.699219 194.046875 C 137.074219 195.605469 138.691406 197.074219 140.839844 197.074219 C 141.089844 197.074219 141.335938 197.042969 141.585938 197.011719 C 141.867188 196.980469 142.148438 196.855469 142.363281 196.667969 C 143.609375 195.605469 143.640625 193.671875 143.050781 192.328125 C 142.363281 190.800781 140.964844 189.988281 139.375 190.207031 Z M 140 193.671875 C 139.8125 193.546875 139.75 193.421875 139.71875 193.421875 C 139.75 193.390625 139.8125 193.359375 139.90625 193.328125 C 140.03125 193.328125 140.0625 193.390625 140.125 193.453125 C 140.21875 193.578125 140.25 193.703125 140.277344 193.859375 C 140.15625 193.796875 140.0625 193.734375 140 193.671875 Z M 140 193.671875 " fill-opacity="1" fill-rule="nonzero"/><path fill="#ffffff" d="M 115.71875 214.585938 C 115.3125 214.617188 115.0625 214.585938 114.816406 214.648438 C 113.070312 214.585938 112.261719 215.238281 111.886719 215.863281 C 111.421875 216.613281 111.484375 217.550781 111.980469 218.363281 C 112.636719 219.390625 114.191406 220.328125 116.277344 220.328125 C 116.558594 220.328125 116.871094 220.328125 117.179688 220.265625 C 118.113281 220.140625 120.074219 219.921875 120.792969 218.453125 C 121.007812 217.988281 121.289062 217.050781 120.574219 215.863281 C 119.671875 214.335938 117.492188 214.492188 115.71875 214.585938 Z M 115.71875 214.585938 " fill-opacity="1" fill-rule="nonzero"/><path fill="#ffffff" d="M 107.625 228.660156 C 107.53125 228.691406 107.4375 228.691406 107.375 228.753906 C 105.382812 229.566406 104.167969 231.253906 104.574219 232.71875 C 104.699219 233.3125 105.257812 234.5 107.375 234.5 C 107.65625 234.5 107.964844 234.46875 108.308594 234.4375 C 109.894531 234.21875 111.140625 233.3125 111.609375 232.09375 C 111.949219 231.191406 111.796875 230.222656 111.203125 229.535156 C 110.769531 229.035156 109.710938 228.226562 107.625 228.660156 Z M 107.625 228.660156 " fill-opacity="1" fill-rule="nonzero"/><path fill="#ffffff" d="M 94.269531 231.9375 C 94.175781 231.90625 94.082031 231.90625 93.957031 231.90625 L 93.335938 231.90625 C 91.714844 231.84375 89.910156 231.84375 88.230469 233.6875 C 87.699219 234.28125 87.699219 235.152344 88.199219 235.746094 C 89.414062 237.152344 90.71875 237.589844 91.933594 237.589844 C 92.433594 237.589844 92.898438 237.527344 93.367188 237.402344 C 95.015625 236.683594 96.136719 235.121094 95.980469 233.78125 C 95.886719 232.875 95.203125 232.125 94.269531 231.9375 Z M 94.269531 231.9375 " fill-opacity="1" fill-rule="nonzero"/><path fill="#ffffff" d="M 185.976562 208.714844 C 186.257812 208.714844 186.570312 208.683594 186.914062 208.652344 C 187.035156 208.621094 187.191406 208.589844 187.316406 208.527344 C 188.25 208.125 189.683594 207 188.84375 204.191406 C 188.75 203.597656 188.3125 203.097656 187.691406 202.941406 C 186.132812 202.535156 184.546875 203.066406 183.613281 204.316406 C 182.867188 205.3125 182.742188 206.5 183.300781 207.40625 C 183.613281 207.90625 184.359375 208.714844 185.976562 208.714844 Z M 185.976562 208.714844 " fill-opacity="1" fill-rule="nonzero"/><path fill="#ffffff" d="M 159.921875 201.351562 C 160.015625 201.351562 160.109375 201.351562 160.203125 201.351562 C 161.511719 201.351562 162.722656 200.414062 163.160156 199.039062 C 163.566406 197.761719 163.097656 196.480469 161.945312 195.824219 C 161.695312 195.667969 161.386719 195.605469 161.105469 195.636719 C 158.800781 195.730469 157.339844 196.292969 156.746094 197.324219 C 156.34375 198.011719 156.34375 198.789062 156.683594 199.476562 C 157.496094 201.101562 159.890625 201.351562 159.921875 201.351562 Z M 159.921875 201.351562 " fill-opacity="1" fill-rule="nonzero"/><path fill="#ffffff" d="M 141.367188 243.425781 C 139.28125 242.988281 137.226562 244.644531 136.292969 246.515625 C 135.484375 248.109375 135.640625 249.699219 136.667969 250.636719 C 136.886719 250.855469 137.167969 250.980469 137.476562 251.042969 C 137.632812 251.074219 137.789062 251.074219 137.945312 251.074219 C 139.097656 251.074219 140.652344 250.480469 141.710938 249.261719 C 142.832031 247.984375 143.113281 246.265625 142.550781 244.488281 C 142.363281 243.925781 141.929688 243.519531 141.367188 243.425781 Z M 141.367188 243.425781 " fill-opacity="1" fill-rule="nonzero"/><path fill="#ffffff" d="M 172.15625 253.601562 C 172.777344 253.601562 173.371094 253.445312 173.898438 253.039062 C 175.550781 251.792969 175.582031 250.480469 175.457031 249.792969 C 175.207031 248.484375 173.960938 247.390625 172.25 246.953125 C 170.507812 246.484375 168.980469 246.828125 168.140625 247.828125 C 168.046875 247.921875 167.984375 248.046875 167.921875 248.171875 C 167.238281 249.574219 167.765625 251.230469 169.230469 252.445312 C 170.039062 253.101562 171.128906 253.601562 172.15625 253.601562 Z M 172.40625 250.167969 C 172.40625 250.167969 172.34375 250.292969 172.15625 250.449219 C 172.0625 250.449219 171.660156 250.386719 171.222656 250.042969 C 171.128906 249.980469 171.066406 249.917969 171.003906 249.855469 C 171.566406 249.917969 172.25 250.105469 172.40625 250.167969 Z M 172.40625 250.167969 " fill-opacity="1" fill-rule="nonzero"/><path fill="#ffffff" d="M 178.820312 231.90625 C 177.761719 229.753906 175.332031 229.753906 174.429688 229.753906 L 174.398438 231.316406 L 174.398438 229.753906 C 173.714844 229.753906 173.089844 230.222656 172.902344 230.878906 C 172.5625 232 172.808594 233.21875 173.589844 234.3125 C 174.492188 235.589844 176.078125 236.621094 177.261719 236.652344 C 177.292969 236.652344 177.324219 236.652344 177.324219 236.652344 C 177.605469 236.652344 177.851562 236.589844 178.101562 236.433594 C 179.003906 235.902344 180.3125 234.71875 178.972656 232.46875 C 178.941406 232.28125 178.910156 232.09375 178.820312 231.90625 Z M 178.820312 231.90625 " fill-opacity="1" fill-rule="nonzero"/><path fill="#ffffff" d="M 119.765625 254.195312 C 120.011719 254.257812 120.292969 254.289062 120.542969 254.289062 C 121.757812 254.289062 122.972656 253.632812 123.8125 252.445312 C 124.808594 251.042969 125.335938 248.792969 124.183594 246.984375 C 123.9375 246.546875 123.46875 246.296875 122.972656 246.265625 C 121.757812 246.140625 120.667969 246.578125 119.890625 247.421875 C 118.082031 249.355469 118.519531 252.789062 118.550781 252.914062 C 118.675781 253.539062 119.140625 254.039062 119.765625 254.195312 Z M 119.765625 254.195312 " fill-opacity="1" fill-rule="nonzero"/><path fill="#ffffff" d="M 185.136719 264.527344 C 185.667969 264.527344 186.164062 264.433594 186.664062 264.246094 C 187.410156 263.964844 187.816406 263.121094 187.597656 262.339844 C 186.914062 260.09375 184.015625 256.410156 181.277344 257.128906 C 180.996094 257.191406 180.71875 257.347656 180.53125 257.566406 C 179.410156 258.78125 179.347656 260.4375 180.34375 261.902344 C 181.277344 263.371094 183.238281 264.527344 185.136719 264.527344 Z M 185.136719 264.527344 " fill-opacity="1" fill-rule="nonzero"/><path fill="#ffffff" d="M 187.847656 276.917969 C 188.4375 277.324219 189.089844 277.792969 189.714844 278.167969 C 189.964844 278.324219 190.242188 278.417969 190.523438 278.417969 C 190.835938 278.417969 191.113281 278.292969 191.394531 278.105469 C 191.300781 278.757812 191.613281 279.414062 192.234375 279.726562 C 192.796875 280.007812 193.261719 280.351562 193.730469 280.757812 C 194.695312 281.507812 195.847656 282.441406 197.808594 282.441406 C 197.996094 282.441406 198.179688 282.441406 198.398438 282.410156 C 199.269531 282.316406 199.894531 281.570312 199.800781 280.726562 C 199.738281 279.851562 198.960938 279.289062 198.121094 279.320312 C 197.0625 279.414062 196.59375 279.039062 195.660156 278.324219 C 195.097656 277.886719 194.445312 277.355469 193.605469 276.949219 C 193.105469 276.699219 192.515625 276.792969 192.078125 277.074219 C 192.171875 276.480469 191.894531 275.855469 191.363281 275.542969 C 190.804688 275.203125 190.210938 274.796875 189.683594 274.421875 C 188.996094 273.921875 188 274.078125 187.503906 274.765625 C 187.003906 275.417969 187.160156 276.417969 187.847656 276.917969 Z M 187.847656 276.917969 " fill-opacity="1" fill-rule="nonzero"/><path fill="#ffffff" d="M 185.792969 271.863281 C 185.480469 271.863281 185.230469 271.707031 185.074219 271.550781 C 184.453125 270.957031 183.457031 270.957031 182.867188 271.582031 C 182.273438 272.203125 182.273438 273.203125 182.898438 273.796875 C 183.675781 274.546875 184.703125 274.984375 185.761719 274.984375 C 186.601562 274.984375 187.316406 274.296875 187.316406 273.421875 C 187.316406 272.546875 186.664062 271.863281 185.792969 271.863281 Z M 185.792969 271.863281 " fill-opacity="1" fill-rule="nonzero"/><path fill="#ffffff" d="M 122.128906 294.367188 C 121.195312 295.300781 120.730469 296.363281 120.292969 297.269531 C 120.105469 297.707031 119.890625 298.144531 119.640625 298.550781 C 119.359375 299.015625 118.832031 299.609375 118.332031 300.171875 C 117.523438 301.078125 116.746094 301.917969 116.433594 302.855469 C 116.152344 303.667969 116.589844 304.574219 117.398438 304.855469 C 117.554688 304.917969 117.742188 304.949219 117.898438 304.949219 C 118.550781 304.949219 119.140625 304.542969 119.359375 303.886719 C 119.484375 303.574219 120.167969 302.792969 120.636719 302.292969 C 121.257812 301.609375 121.882812 300.921875 122.316406 300.203125 C 122.628906 299.671875 122.878906 299.140625 123.125 298.609375 C 123.5 297.832031 123.8125 297.144531 124.339844 296.613281 C 124.964844 295.988281 124.964844 295.023438 124.339844 294.398438 C 123.71875 293.742188 122.753906 293.742188 122.128906 294.367188 Z M 122.128906 294.367188 " fill-opacity="1" fill-rule="nonzero"/><path fill="#ffffff" d="M 124.996094 289.027344 C 124.214844 289.464844 123.59375 290.214844 123.375 290.996094 C 123.125 291.808594 123.6875 292.617188 124.496094 292.867188 C 124.621094 292.898438 124.777344 292.929688 124.902344 292.929688 C 125.617188 292.929688 126.300781 292.429688 126.488281 291.746094 C 127.234375 291.339844 127.515625 290.371094 127.109375 289.621094 C 126.707031 288.871094 125.773438 288.621094 124.996094 289.027344 Z M 124.996094 289.027344 " fill-opacity="1" fill-rule="nonzero"/><path fill="#ffffff" d="M 128.949219 283.566406 C 128.136719 283.285156 127.234375 283.691406 126.957031 284.503906 C 126.769531 285.035156 126.519531 285.78125 126.175781 286.3125 C 125.742188 287.0625 125.992188 288 126.738281 288.4375 C 126.988281 288.589844 127.265625 288.652344 127.515625 288.652344 C 128.046875 288.652344 128.574219 288.375 128.855469 287.875 C 129.289062 287.125 129.570312 286.34375 129.882812 285.53125 C 130.191406 284.722656 129.757812 283.847656 128.949219 283.566406 Z M 128.949219 283.566406 " fill-opacity="1" fill-rule="nonzero"/><path fill="#ffffff" d="M 92.433594 239.679688 C 91.808594 239.367188 91.125 239.273438 90.410156 239.398438 C 89.566406 239.554688 89.039062 240.367188 89.195312 241.210938 C 89.351562 242.050781 90.191406 242.613281 91.03125 242.488281 C 91.25 242.613281 91.5 242.644531 91.714844 242.644531 C 92.277344 242.644531 92.835938 242.332031 93.117188 241.804688 C 93.523438 241.023438 93.210938 240.054688 92.433594 239.679688 Z M 92.433594 239.679688 " fill-opacity="1" fill-rule="nonzero"/><path fill="#ffffff" d="M 113.726562 175.003906 C 113.757812 175.003906 113.757812 175.003906 113.789062 175.003906 C 114.660156 174.976562 115.3125 174.257812 115.28125 173.382812 C 115.25 172.289062 115.28125 171.449219 115.40625 170.699219 C 115.5625 169.855469 114.96875 169.042969 114.128906 168.886719 C 113.289062 168.761719 112.480469 169.324219 112.324219 170.167969 C 112.167969 171.105469 112.105469 172.164062 112.167969 173.445312 C 112.199219 174.320312 112.882812 175.003906 113.726562 175.003906 Z M 113.726562 175.003906 " fill-opacity="1" fill-rule="nonzero"/><path fill="#ffffff" d="M 115.4375 178.8125 L 115.4375 177.035156 C 115.4375 176.160156 114.753906 175.472656 113.878906 175.472656 C 113.007812 175.472656 112.324219 176.160156 112.324219 177.035156 L 112.324219 178.8125 C 112.324219 179.6875 113.007812 180.375 113.878906 180.375 C 114.753906 180.375 115.4375 179.65625 115.4375 178.8125 Z M 115.4375 178.8125 " fill-opacity="1" fill-rule="nonzero"/><path fill="#ffffff" d="M 281.921875 121.382812 C 274.015625 117.699219 265.050781 113.515625 263.617188 110.957031 C 262.246094 108.550781 261.1875 101.15625 260.128906 94.007812 C 257.890625 78.742188 255.960938 67.757812 251.382812 65.320312 C 250.105469 64.636719 248.675781 64.636719 247.273438 65.351562 C 244.691406 66.632812 239.863281 72.5625 232.207031 82.207031 C 226.914062 88.886719 219.660156 98.035156 217.636719 98.75 C 215.425781 99.53125 208.859375 97.222656 202.476562 95.003906 C 190.148438 90.667969 176.203125 85.765625 171.003906 93.195312 C 166.832031 99.1875 175.644531 109.832031 184.140625 120.164062 C 187.847656 124.660156 191.332031 128.902344 192.484375 131.433594 C 192.515625 131.527344 192.546875 131.679688 192.546875 131.804688 C 192.546875 131.835938 192.546875 131.835938 192.546875 131.867188 C 192.546875 134.867188 183.953125 145.164062 178.164062 152.09375 C 165.121094 167.703125 157.496094 177.535156 161.324219 182.277344 C 168.578125 191.300781 186.414062 181.808594 202.167969 173.476562 C 210.105469 169.261719 219.070312 164.488281 221.40625 165.609375 C 221.4375 165.609375 221.46875 165.640625 221.5 165.640625 C 221.558594 165.671875 221.558594 165.734375 221.621094 165.796875 C 221.652344 165.828125 221.746094 165.828125 221.839844 165.859375 C 227.351562 169.042969 231.523438 181.5625 235.226562 192.671875 C 239.773438 206.34375 244.097656 219.328125 251.539062 219.328125 C 252.003906 219.328125 252.472656 219.265625 252.941406 219.171875 C 261.53125 217.363281 263.367188 196.105469 264.582031 172.570312 C 264.894531 166.859375 265.144531 161.894531 265.578125 160.460938 C 266.730469 156.621094 277.003906 154.25 286.09375 152.15625 C 297.582031 149.503906 308.414062 147.007812 308.726562 140.671875 C 309.003906 134.492188 298.296875 129.027344 281.921875 121.382812 Z M 285.410156 149.097656 C 277.71875 150.878906 270.371094 152.5625 266.109375 155.371094 C 266.015625 155.121094 265.890625 154.875 265.796875 154.65625 C 265.546875 154.09375 265.328125 153.53125 265.050781 153.0625 C 264.769531 152.5625 264.488281 152.125 264.207031 151.71875 C 263.773438 151.066406 263.398438 150.503906 263.179688 149.816406 C 262.902344 149.003906 262.03125 148.566406 261.21875 148.816406 C 260.410156 149.097656 259.976562 149.972656 260.222656 150.785156 C 260.597656 151.875 261.125 152.65625 261.625 153.4375 C 261.875 153.8125 262.125 154.15625 262.339844 154.5625 C 262.558594 154.9375 262.714844 155.371094 262.933594 155.839844 C 263.179688 156.402344 263.429688 156.964844 263.710938 157.496094 C 263.210938 158.121094 262.839844 158.804688 262.621094 159.523438 C 262.09375 161.335938 261.84375 165.953125 261.5 172.382812 C 260.847656 184.777344 259.570312 209.214844 254.183594 214.898438 C 258.667969 204.816406 257.453125 190.863281 256.394531 179.46875 L 256.082031 175.972656 C 254.964844 163.019531 251.570312 148.410156 246.558594 134.867188 C 246.246094 134.054688 245.375 133.648438 244.566406 133.960938 C 243.757812 134.273438 243.351562 135.144531 243.664062 135.957031 C 248.582031 149.253906 251.914062 163.582031 253 176.253906 L 253.3125 179.78125 C 254.339844 190.832031 255.742188 206 250.667969 215.300781 C 250.542969 215.519531 250.511719 215.738281 250.480469 215.925781 C 245.78125 214.117188 241.765625 202.316406 238.214844 191.703125 C 234.449219 180.40625 230.558594 168.761719 224.796875 164.113281 L 229.125 158.304688 C 229.46875 157.871094 229.5 157.308594 229.3125 156.808594 C 229.4375 156.902344 229.5625 156.964844 229.714844 156.996094 C 229.839844 157.027344 229.964844 157.058594 230.089844 157.058594 C 230.773438 157.058594 231.429688 156.589844 231.585938 155.871094 C 231.617188 155.746094 231.800781 155.527344 231.957031 155.308594 L 232.207031 154.996094 C 232.703125 154.3125 232.488281 153.4375 231.800781 152.9375 C 231.117188 152.40625 230.058594 152.6875 229.53125 153.375 C 229.1875 153.8125 228.78125 154.34375 228.597656 155.089844 C 228.503906 155.402344 228.566406 155.746094 228.6875 156.027344 C 228.003906 155.621094 227.132812 155.746094 226.632812 156.402344 L 222.058594 162.519531 C 221.589844 162.394531 221.125 162.300781 220.59375 162.300781 C 216.703125 162.300781 210.382812 165.515625 200.703125 170.667969 C 186.757812 178.066406 169.386719 187.273438 163.71875 180.28125 C 161.230469 177.191406 172.839844 163.269531 180.53125 154.0625 C 189.277344 143.574219 194.820312 136.738281 195.535156 132.492188 C 197.871094 131.089844 199.957031 130.589844 202.011719 130.964844 C 202.820312 131.121094 203.566406 130.621094 203.785156 129.839844 C 204.160156 130.464844 204.9375 130.746094 205.621094 130.496094 C 205.746094 130.496094 205.902344 130.558594 206.027344 130.589844 C 206.335938 130.652344 206.648438 130.714844 206.929688 130.746094 C 207.023438 130.746094 207.148438 130.746094 207.242188 130.746094 C 208.082031 130.746094 208.796875 130.589844 209.417969 130.402344 C 210.261719 130.183594 210.726562 129.308594 210.507812 128.464844 C 210.292969 127.625 209.417969 127.15625 208.578125 127.375 C 207.925781 127.5625 207.488281 127.625 207.085938 127.59375 C 206.960938 127.59375 206.804688 127.5625 206.648438 127.53125 C 205.996094 127.40625 205.125 127.21875 204.3125 127.6875 C 203.941406 127.90625 203.691406 128.246094 203.597656 128.621094 C 203.378906 128.277344 203.007812 128 202.570312 127.90625 C 200.050781 127.4375 197.496094 127.90625 194.851562 129.277344 C 193.324219 126.40625 190.148438 122.566406 186.507812 118.136719 C 184.890625 116.199219 183.082031 113.984375 181.308594 111.703125 C 181.433594 111.796875 181.589844 111.890625 181.746094 111.953125 C 182.023438 112.046875 182.242188 112.359375 182.398438 112.921875 C 182.585938 113.609375 183.207031 114.046875 183.894531 114.046875 C 184.046875 114.046875 184.171875 114.015625 184.328125 113.984375 C 185.167969 113.734375 185.636719 112.859375 185.386719 112.046875 C 184.796875 110.082031 183.613281 109.300781 182.710938 109.019531 C 182.429688 108.925781 182.148438 108.957031 181.902344 108.988281 C 182.460938 108.394531 182.492188 107.492188 181.929688 106.867188 C 179.96875 104.683594 178.972656 103.589844 178.789062 100.875 C 178.726562 100 177.976562 99.375 177.136719 99.40625 C 176.265625 99.46875 175.644531 100.21875 175.675781 101.0625 C 175.921875 104.867188 177.542969 106.679688 179.628906 108.957031 C 179.9375 109.300781 180.34375 109.457031 180.78125 109.457031 C 180.875 109.457031 180.964844 109.425781 181.058594 109.394531 C 180.902344 109.550781 180.78125 109.738281 180.71875 109.957031 C 180.59375 110.332031 180.625 110.707031 180.78125 111.050781 C 176.671875 105.710938 172.933594 100.125 172.964844 96.691406 C 173.214844 97.128906 173.652344 97.472656 174.179688 97.503906 C 181.308594 98.097656 226.945312 121.070312 236.253906 128.03125 C 236.535156 128.246094 236.84375 128.339844 237.1875 128.339844 C 237.65625 128.339844 238.121094 128.125 238.433594 127.71875 C 238.960938 127.03125 238.804688 126.0625 238.121094 125.53125 C 229.21875 118.851562 182.585938 95.066406 174.460938 94.382812 C 174.242188 94.382812 174.054688 94.414062 173.867188 94.476562 C 178.101562 89.699219 190.960938 94.195312 201.386719 97.847656 C 209.140625 100.5625 214.339844 102.308594 217.542969 101.839844 C 218.851562 102.433594 220.8125 103.933594 221.558594 104.898438 C 221.871094 105.273438 222.308594 105.492188 222.773438 105.492188 C 223.117188 105.492188 223.460938 105.367188 223.738281 105.148438 C 224.425781 104.621094 224.519531 103.621094 223.988281 102.964844 C 223.304688 102.089844 222.027344 101.03125 220.78125 100.15625 C 223.738281 97.628906 228.222656 92.039062 234.574219 84.050781 C 239.804688 77.464844 246.277344 69.316406 248.488281 68.097656 C 248.144531 68.691406 248.207031 69.410156 248.738281 69.910156 C 250.011719 72.03125 248.800781 89.324219 246.652344 99.75 C 245.964844 103.058594 245.625 105.304688 245.3125 107.429688 C 244.753906 111.175781 244.253906 114.390625 242.042969 122.441406 C 241.828125 123.285156 242.292969 124.128906 243.132812 124.378906 C 243.257812 124.410156 243.414062 124.441406 243.539062 124.441406 C 244.222656 124.441406 244.847656 123.972656 245.03125 123.285156 C 247.304688 115.042969 247.804688 111.734375 248.363281 107.898438 C 248.675781 105.835938 249.015625 103.621094 249.671875 100.375 C 250.480469 96.378906 253.09375 78.648438 252.035156 70.972656 C 254.277344 76.089844 255.804688 86.328125 256.957031 94.320312 C 258.046875 101.808594 259.011719 108.300781 260.441406 111.546875 C 258.480469 112.515625 256.800781 114.671875 256.769531 114.703125 C 256.644531 114.886719 256.550781 115.074219 256.488281 115.292969 C 255.867188 115.105469 255.210938 115.292969 254.808594 115.824219 C 254.464844 116.292969 253.9375 116.730469 253.40625 117.199219 C 252.691406 117.824219 251.945312 118.445312 251.382812 119.320312 C 250.917969 120.039062 251.101562 121.007812 251.820312 121.476562 C 252.066406 121.660156 252.378906 121.722656 252.660156 121.722656 C 253.15625 121.722656 253.65625 121.476562 253.96875 121.007812 C 254.308594 120.507812 254.839844 120.039062 255.429688 119.539062 C 256.054688 119.007812 256.738281 118.414062 257.296875 117.667969 C 257.453125 117.480469 257.515625 117.230469 257.578125 117.011719 C 257.734375 117.074219 257.859375 117.167969 258.015625 117.167969 C 258.480469 117.167969 258.949219 116.949219 259.257812 116.542969 C 260.039062 115.511719 261.53125 114.265625 262.125 114.171875 C 262.214844 114.203125 262.339844 114.171875 262.433594 114.203125 C 265.453125 116.917969 271.585938 119.882812 280.519531 124.035156 C 288.492188 127.75 298.640625 132.492188 303.183594 136.550781 C 297.113281 132.804688 286.4375 130.902344 278.996094 129.589844 C 277.378906 129.308594 275.914062 129.027344 274.699219 128.808594 C 265.421875 126.9375 255.460938 127.09375 248.769531 127.375 C 247.898438 127.40625 247.242188 128.125 247.273438 128.996094 C 247.304688 129.871094 248.113281 130.558594 248.894531 130.496094 C 255.429688 130.214844 265.144531 130.058594 274.078125 131.867188 C 275.292969 132.117188 276.785156 132.367188 278.433594 132.679688 C 285.8125 133.992188 297.921875 136.144531 302.839844 140.140625 C 302.21875 139.984375 301.535156 140.203125 301.160156 140.765625 C 300.570312 141.636719 299.636719 142.136719 298.578125 142.699219 C 298.265625 142.855469 297.953125 143.042969 297.644531 143.199219 C 297.425781 143.324219 297.269531 143.511719 297.144531 143.699219 C 296.648438 143.355469 296.023438 143.324219 295.464844 143.636719 C 295.214844 143.792969 294.839844 143.824219 294.5 143.761719 C 293.65625 143.574219 292.816406 144.105469 292.660156 144.945312 C 292.476562 145.789062 293.003906 146.632812 293.84375 146.789062 C 293.90625 146.789062 293.96875 146.789062 294.03125 146.820312 C 291.261719 147.757812 288.242188 148.441406 285.410156 149.097656 Z M 303.089844 143.574219 C 303.371094 143.292969 303.621094 143.011719 303.867188 142.636719 C 304.179688 142.167969 304.179688 141.605469 303.960938 141.140625 C 304.242188 141.359375 304.554688 141.484375 304.863281 141.484375 C 305.019531 141.484375 305.207031 141.453125 305.363281 141.390625 C 304.988281 142.167969 304.179688 142.917969 303.089844 143.574219 Z M 303.089844 143.574219 " fill-opacity="1" fill-rule="nonzero"/><path fill="#ffffff" d="M 237.21875 129.683594 C 229.839844 130.152344 168.699219 165.859375 163.71875 178.84375 C 163.410156 179.65625 163.8125 180.5625 164.625 180.875 C 164.808594 180.9375 164.996094 180.96875 165.183594 180.96875 C 165.804688 180.96875 166.398438 180.59375 166.648438 179.96875 C 170.785156 169.167969 229.964844 133.273438 237.4375 132.773438 C 238.308594 132.710938 238.929688 131.960938 238.898438 131.121094 C 238.804688 130.277344 238.027344 129.652344 237.21875 129.683594 Z M 237.21875 129.683594 " fill-opacity="1" fill-rule="nonzero"/><path fill="#ffffff" d="M 228.410156 107.523438 C 227.507812 106.429688 226.324219 105.523438 225.265625 104.714844 L 224.175781 105.835938 L 223.398438 107.210938 C 224.363281 107.929688 225.328125 108.675781 226.011719 109.488281 C 226.324219 109.863281 226.757812 110.050781 227.226562 110.050781 C 227.570312 110.050781 227.910156 109.925781 228.222656 109.707031 C 228.84375 109.175781 228.9375 108.179688 228.410156 107.523438 Z M 228.410156 107.523438 " fill-opacity="1" fill-rule="nonzero"/><path fill="#ffffff" d="M 235.722656 115.667969 C 234.230469 113.546875 232.703125 111.363281 230.371094 109.582031 C 229.683594 109.050781 228.71875 109.207031 228.191406 109.894531 C 227.660156 110.582031 227.816406 111.546875 228.503906 112.078125 C 230.464844 113.546875 231.800781 115.449219 233.203125 117.449219 C 233.980469 118.539062 234.757812 119.632812 235.632812 120.695312 C 235.941406 121.070312 236.378906 121.257812 236.8125 121.257812 C 237.15625 121.257812 237.53125 121.132812 237.808594 120.882812 C 238.464844 120.320312 238.558594 119.351562 237.996094 118.695312 C 237.1875 117.730469 236.441406 116.699219 235.722656 115.667969 Z M 235.722656 115.667969 " fill-opacity="1" fill-rule="nonzero"/><path fill="#ffffff" d="M 248.457031 124.9375 C 248.675781 124.9375 248.894531 124.90625 249.109375 124.816406 C 249.640625 124.597656 250.261719 124.316406 250.855469 123.878906 C 251.539062 123.347656 251.664062 122.378906 251.132812 121.691406 C 250.605469 121.007812 249.640625 120.882812 248.953125 121.414062 C 248.707031 121.628906 248.363281 121.753906 247.773438 122.003906 C 246.992188 122.347656 246.683594 123.222656 247.023438 124.035156 C 247.210938 124.597656 247.835938 124.9375 248.457031 124.9375 Z M 248.457031 124.9375 " fill-opacity="1" fill-rule="nonzero"/><path fill="#ffffff" d="M 213.28125 129.808594 C 213.589844 129.808594 213.902344 129.714844 214.183594 129.496094 C 214.648438 129.277344 216.421875 129.027344 216.765625 129.089844 C 217.574219 129.433594 218.476562 129.027344 218.789062 128.246094 C 219.132812 127.46875 218.726562 126.53125 217.949219 126.21875 C 216.765625 125.75 213.34375 126.1875 212.375 126.96875 C 211.691406 127.5 211.503906 128.527344 212.066406 129.214844 C 212.375 129.589844 212.8125 129.808594 213.28125 129.808594 Z M 213.28125 129.808594 " fill-opacity="1" fill-rule="nonzero"/><path fill="#ffffff" d="M 260.785156 145.226562 C 260.660156 145.132812 260.535156 145.039062 260.441406 144.917969 C 259.882812 144.261719 258.886719 144.199219 258.230469 144.761719 C 257.578125 145.320312 257.515625 146.320312 258.074219 146.976562 C 258.261719 147.195312 258.511719 147.414062 258.761719 147.632812 C 258.886719 147.726562 259.042969 147.882812 259.132812 147.945312 C 259.382812 148.503906 259.945312 148.878906 260.566406 148.878906 C 260.753906 148.878906 260.910156 148.847656 261.097656 148.785156 C 261.90625 148.503906 262.308594 147.601562 262.03125 146.789062 C 261.78125 146.070312 261.21875 145.601562 260.785156 145.226562 Z M 260.785156 145.226562 " fill-opacity="1" fill-rule="nonzero"/><path fill="#ffffff" d="M 258.761719 143.761719 C 259.226562 143.042969 259.042969 142.074219 258.292969 141.605469 C 257.671875 141.203125 257.078125 140.546875 256.488281 139.890625 C 255.929688 139.265625 255.367188 138.609375 254.652344 138.050781 C 253.96875 137.519531 253 137.613281 252.472656 138.296875 C 251.945312 138.984375 252.035156 139.953125 252.722656 140.484375 C 253.25 140.921875 253.71875 141.453125 254.183594 141.949219 C 254.902344 142.761719 255.617188 143.574219 256.613281 144.230469 C 256.863281 144.386719 257.171875 144.480469 257.453125 144.480469 C 257.953125 144.480469 258.449219 144.230469 258.761719 143.761719 Z M 258.761719 143.761719 " fill-opacity="1" fill-rule="nonzero"/><path fill="#ffffff" d="M 235.132812 144.976562 L 231.925781 149.285156 L 234.417969 151.160156 L 237.625 146.851562 C 238.152344 146.164062 237.996094 145.195312 237.3125 144.667969 C 236.628906 144.136719 235.664062 144.292969 235.132812 144.976562 Z M 235.132812 144.976562 " fill-opacity="1" fill-rule="nonzero"/><path fill="#ffffff" d="M 242.230469 88.855469 C 242.355469 88.855469 242.511719 88.855469 242.636719 88.824219 C 244.285156 88.574219 244.9375 86.609375 244.691406 84.800781 C 244.441406 82.707031 243.101562 81.863281 241.886719 82.019531 C 240.921875 82.113281 239.523438 82.613281 238.773438 83.675781 C 238.339844 84.300781 238.152344 85.015625 238.308594 85.703125 C 238.652344 87.421875 240.519531 88.855469 242.230469 88.855469 Z M 241.640625 85.296875 C 241.640625 85.328125 241.640625 85.390625 241.640625 85.421875 C 241.609375 85.390625 241.578125 85.359375 241.546875 85.328125 C 241.578125 85.328125 241.609375 85.328125 241.640625 85.296875 Z M 241.640625 85.296875 " fill-opacity="1" fill-rule="nonzero"/><path fill="#ffffff" d="M 241.046875 101.902344 C 242.914062 101.871094 244.285156 100.9375 244.691406 99.40625 C 245.09375 97.785156 244.253906 95.816406 242.792969 95.003906 C 242.667969 94.941406 242.542969 94.878906 242.386719 94.847656 C 238.929688 94.007812 237.65625 95.378906 237.21875 96.660156 C 236.722656 98.066406 237.71875 99.65625 238.058594 100.09375 C 238.898438 101.28125 239.988281 101.933594 241.046875 101.933594 C 241.015625 101.902344 241.046875 101.902344 241.046875 101.902344 Z M 240.082031 97.722656 C 240.113281 97.722656 240.175781 97.691406 240.425781 97.691406 C 240.613281 97.691406 240.921875 97.722656 241.390625 97.816406 C 241.609375 98.035156 241.765625 98.5 241.671875 98.65625 C 241.640625 98.6875 241.453125 98.78125 241.140625 98.8125 C 240.796875 98.6875 240.207031 97.847656 240.082031 97.722656 Z M 240.082031 97.722656 " fill-opacity="1" fill-rule="nonzero"/><path fill="#ffffff" d="M 253.3125 109.894531 C 253.53125 110.019531 253.78125 110.082031 254.027344 110.082031 C 254.058594 110.082031 254.089844 110.082031 254.121094 110.082031 C 255.742188 109.988281 256.957031 108.457031 257.265625 107.023438 C 257.640625 105.429688 256.988281 103.933594 255.585938 103.152344 C 255.492188 103.121094 255.429688 103.058594 255.335938 103.027344 C 253.25 102.308594 251.726562 103.277344 251.164062 104.589844 C 250.480469 106.210938 251.070312 108.707031 253.3125 109.894531 Z M 254.183594 105.929688 C 254.277344 105.992188 254.277344 106.054688 254.277344 106.179688 C 254.277344 106.335938 254.214844 106.460938 254.183594 106.585938 C 254.121094 106.460938 254.089844 106.367188 254.058594 106.273438 C 253.996094 106.054688 254.027344 105.898438 253.996094 105.898438 C 254.027344 105.898438 254.089844 105.898438 254.183594 105.929688 Z M 254.183594 105.929688 " fill-opacity="1" fill-rule="nonzero"/><path fill="#ffffff" d="M 222.089844 108.457031 C 221.871094 108.300781 221.683594 108.207031 221.558594 108.117188 C 221.496094 108.054688 221.40625 108.023438 221.34375 107.992188 C 220.003906 106.867188 218.945312 106.929688 218.292969 107.210938 C 217.480469 107.523438 216.953125 108.300781 216.890625 109.269531 C 216.796875 110.675781 217.699219 112.640625 219.910156 113.921875 C 220.5 114.265625 221.589844 114.886719 222.710938 114.886719 C 223.117188 114.886719 223.492188 114.828125 223.863281 114.609375 C 224.332031 114.390625 225.109375 113.796875 225.234375 112.390625 C 225.453125 110.613281 223.582031 109.425781 222.089844 108.457031 Z M 222.089844 108.457031 " fill-opacity="1" fill-rule="nonzero"/><path fill="#ffffff" d="M 207.210938 114.859375 C 207.117188 114.828125 207.054688 114.796875 206.960938 114.765625 C 204.875 114.203125 202.914062 114.859375 202.320312 116.261719 C 202.074219 116.886719 201.761719 118.476562 204.3125 119.882812 C 205.0625 120.289062 205.808594 120.476562 206.554688 120.476562 C 207.210938 120.476562 207.832031 120.320312 208.359375 119.976562 C 209.171875 119.445312 209.636719 118.601562 209.574219 117.667969 C 209.511719 117.011719 209.140625 115.761719 207.210938 114.859375 Z M 207.210938 114.859375 " fill-opacity="1" fill-rule="nonzero"/><path fill="#ffffff" d="M 194.320312 109.269531 L 193.824219 108.894531 C 192.546875 107.898438 191.113281 106.773438 188.6875 107.273438 C 187.910156 107.429688 187.378906 108.117188 187.441406 108.894531 C 187.628906 111.488281 189.089844 112.703125 190.585938 113.328125 C 190.960938 113.421875 191.363281 113.453125 191.738281 113.453125 C 193.074219 113.453125 194.320312 112.890625 194.851562 111.984375 C 195.316406 111.175781 195.222656 110.175781 194.570312 109.457031 C 194.476562 109.394531 194.414062 109.300781 194.320312 109.269531 Z M 194.320312 109.269531 " fill-opacity="1" fill-rule="nonzero"/><path fill="#ffffff" d="M 282.605469 140.984375 C 281.421875 141.328125 280.613281 142.199219 280.519531 143.292969 C 280.457031 144.011719 280.613281 145.351562 282.667969 146.445312 C 282.792969 146.507812 282.917969 146.570312 283.042969 146.601562 C 283.261719 146.664062 283.507812 146.695312 283.789062 146.695312 C 284.785156 146.695312 286.0625 146.195312 286.839844 144.042969 C 287.121094 143.511719 287.058594 142.824219 286.683594 142.355469 C 285.71875 141.078125 284.101562 140.546875 282.605469 140.984375 Z M 282.605469 140.984375 " fill-opacity="1" fill-rule="nonzero"/><path fill="#ffffff" d="M 265.390625 124.410156 C 265.921875 124.90625 266.636719 125.15625 267.382812 125.15625 C 268.070312 125.15625 268.753906 124.9375 269.34375 124.535156 C 270.433594 123.753906 270.808594 122.441406 270.277344 121.226562 C 270.15625 120.945312 269.96875 120.726562 269.71875 120.570312 C 267.820312 119.257812 266.292969 118.851562 265.234375 119.289062 C 264.519531 119.601562 264.023438 120.226562 263.898438 120.976562 C 263.617188 122.722656 265.390625 124.378906 265.390625 124.410156 Z M 265.390625 124.410156 " fill-opacity="1" fill-rule="nonzero"/><path fill="#ffffff" d="M 219.535156 146.351562 C 217.949219 147.132812 217.109375 148.503906 217.359375 149.878906 C 217.421875 150.191406 217.542969 150.472656 217.761719 150.691406 C 218.417969 151.378906 219.722656 151.9375 221.125 151.9375 C 221.496094 151.9375 221.839844 151.90625 222.214844 151.8125 C 223.863281 151.441406 225.109375 150.253906 225.730469 148.503906 C 225.917969 147.976562 225.792969 147.382812 225.421875 146.945312 C 223.988281 145.351562 221.375 145.445312 219.535156 146.351562 Z M 219.535156 146.351562 " fill-opacity="1" fill-rule="nonzero"/><path fill="#ffffff" d="M 242.324219 170.886719 C 242.730469 172.539062 243.941406 174.195312 245.71875 174.195312 C 247.773438 174.195312 248.582031 173.164062 248.894531 172.507812 C 249.484375 171.324219 249.140625 169.699219 248.019531 168.296875 C 246.898438 166.890625 245.5 166.234375 244.191406 166.515625 C 244.066406 166.546875 243.941406 166.578125 243.820312 166.640625 C 242.480469 167.359375 241.886719 169.042969 242.324219 170.886719 Z M 246.246094 171.011719 C 246.246094 171.011719 246.121094 171.074219 245.871094 171.105469 C 245.78125 171.074219 245.53125 170.761719 245.375 170.230469 C 245.34375 170.136719 245.3125 170.011719 245.3125 169.949219 C 245.71875 170.292969 246.152344 170.855469 246.246094 171.011719 Z M 246.246094 171.011719 " fill-opacity="1" fill-rule="nonzero"/><path fill="#ffffff" d="M 259.070312 157.089844 L 260.007812 155.839844 C 259.445312 155.433594 258.699219 155.402344 258.136719 155.839844 C 257.203125 156.527344 256.675781 157.652344 256.644531 158.992188 C 256.613281 160.554688 257.265625 162.332031 258.167969 163.082031 C 258.386719 163.269531 258.699219 163.394531 258.980469 163.425781 C 259.132812 163.457031 259.289062 163.457031 259.445312 163.457031 C 260.472656 163.457031 261.8125 163.019531 262.03125 160.773438 C 262.121094 160.617188 262.214844 160.429688 262.246094 160.210938 C 262.683594 157.871094 260.753906 156.402344 260.039062 155.839844 Z M 259.070312 157.089844 " fill-opacity="1" fill-rule="nonzero"/><path fill="#ffffff" d="M 204.53125 143.855469 C 205 143.855469 205.496094 143.792969 205.996094 143.636719 C 207.644531 143.105469 209.386719 141.636719 209.574219 139.484375 C 209.605469 138.984375 209.417969 138.515625 209.046875 138.175781 C 208.113281 137.363281 207.054688 137.050781 205.902344 137.238281 C 203.285156 137.707031 201.605469 140.703125 201.542969 140.828125 C 201.230469 141.390625 201.292969 142.074219 201.699219 142.574219 C 202.382812 143.417969 203.410156 143.855469 204.53125 143.855469 Z M 204.53125 143.855469 " fill-opacity="1" fill-rule="nonzero"/><path fill="#ffffff" d="M 248.269531 181.777344 C 246.652344 182.089844 245.59375 183.371094 245.53125 185.148438 C 245.4375 187.367188 246.898438 190.175781 249.234375 190.800781 C 249.359375 190.832031 249.515625 190.863281 249.640625 190.863281 C 250.292969 190.863281 250.886719 190.457031 251.101562 189.832031 C 251.914062 187.648438 251.757812 182.964844 249.140625 181.871094 C 248.863281 181.777344 248.582031 181.746094 248.269531 181.777344 Z M 248.269531 181.777344 " fill-opacity="1" fill-rule="nonzero"/><path fill="#ffffff" d="M 249.421875 209.777344 C 248.488281 209.214844 248.363281 208.621094 248.050781 207.5 C 247.867188 206.8125 247.648438 206 247.210938 205.15625 C 246.960938 204.660156 246.464844 204.378906 245.902344 204.347656 C 246.308594 203.910156 246.464844 203.285156 246.246094 202.691406 C 245.996094 202.066406 245.75 201.382812 245.5625 200.757812 C 245.3125 199.945312 244.441406 199.476562 243.601562 199.726562 C 242.792969 199.976562 242.324219 200.851562 242.574219 201.695312 C 242.792969 202.378906 243.039062 203.128906 243.320312 203.816406 C 243.539062 204.410156 244.097656 204.753906 244.691406 204.785156 C 244.222656 205.25 244.066406 205.96875 244.410156 206.59375 C 244.691406 207.15625 244.847656 207.71875 245 208.3125 C 245.34375 209.621094 245.78125 211.246094 247.742188 212.460938 C 247.988281 212.617188 248.269531 212.679688 248.550781 212.679688 C 249.078125 212.679688 249.578125 212.429688 249.890625 211.929688 C 250.386719 211.183594 250.167969 210.214844 249.421875 209.777344 Z M 249.421875 209.777344 " fill-opacity="1" fill-rule="nonzero"/><path fill="#ffffff" d="M 244.316406 198.570312 C 244.847656 197.886719 244.691406 196.917969 244.003906 196.386719 C 243.789062 196.230469 243.664062 196.011719 243.632812 195.730469 C 243.507812 194.890625 242.699219 194.296875 241.855469 194.421875 C 241.015625 194.546875 240.425781 195.355469 240.550781 196.199219 C 240.707031 197.261719 241.265625 198.230469 242.136719 198.851562 C 242.417969 199.070312 242.761719 199.164062 243.070312 199.164062 C 243.539062 199.195312 244.003906 198.976562 244.316406 198.570312 Z M 244.316406 198.570312 " fill-opacity="1" fill-rule="nonzero"/><path fill="#ffffff" d="M 179.597656 176.160156 C 178.289062 176.347656 177.261719 176.910156 176.359375 177.378906 C 175.953125 177.597656 175.519531 177.847656 175.082031 178.035156 C 174.585938 178.253906 173.804688 178.375 173.058594 178.53125 C 171.875 178.75 170.722656 178.96875 169.945312 179.53125 C 169.230469 180 169.042969 181 169.542969 181.683594 C 169.851562 182.121094 170.320312 182.371094 170.847656 182.371094 C 171.160156 182.371094 171.441406 182.277344 171.722656 182.089844 C 172 181.902344 173.027344 181.714844 173.683594 181.5625 C 174.585938 181.375 175.488281 181.21875 176.265625 180.90625 C 176.824219 180.6875 177.355469 180.40625 177.882812 180.125 C 178.664062 179.71875 179.316406 179.34375 180.0625 179.25 C 180.902344 179.125 181.496094 178.34375 181.371094 177.472656 C 181.214844 176.628906 180.4375 176.035156 179.597656 176.160156 Z M 179.597656 176.160156 " fill-opacity="1" fill-rule="nonzero"/><path fill="#ffffff" d="M 185.074219 173.632812 C 184.171875 173.507812 183.269531 173.726562 182.585938 174.226562 C 181.898438 174.757812 181.871094 175.722656 182.367188 176.410156 C 182.679688 176.816406 183.175781 177.035156 183.675781 177.035156 C 184.015625 177.035156 184.359375 176.941406 184.640625 176.722656 C 185.480469 176.816406 186.289062 176.253906 186.382812 175.378906 C 186.507812 174.539062 185.917969 173.757812 185.074219 173.632812 Z M 185.074219 173.632812 " fill-opacity="1" fill-rule="nonzero"/><path fill="#ffffff" d="M 189.339844 171.199219 C 188.875 171.511719 188.21875 171.945312 187.628906 172.195312 C 186.851562 172.539062 186.476562 173.445312 186.789062 174.226562 C 187.035156 174.820312 187.628906 175.191406 188.21875 175.191406 C 188.40625 175.191406 188.625 175.160156 188.8125 175.066406 C 189.589844 174.726562 190.304688 174.289062 191.023438 173.789062 C 191.738281 173.320312 191.925781 172.351562 191.457031 171.636719 C 191.023438 170.917969 190.054688 170.699219 189.339844 171.199219 Z M 189.339844 171.199219 " fill-opacity="1" fill-rule="nonzero"/><path fill="#ffffff" d="M 187.035156 113.109375 C 186.257812 112.703125 185.355469 113.046875 184.980469 113.796875 C 184.578125 114.578125 184.921875 115.511719 185.699219 115.917969 C 185.976562 116.480469 186.507812 116.792969 187.097656 116.792969 C 187.316406 116.792969 187.566406 116.730469 187.785156 116.636719 C 188.5625 116.261719 188.875 115.324219 188.5 114.546875 C 188.15625 113.953125 187.660156 113.453125 187.035156 113.109375 Z M 187.035156 113.109375 " fill-opacity="1" fill-rule="nonzero"/><path fill="#ffffff" d="M 245.09375 75.871094 C 245.59375 75.871094 246.058594 75.652344 246.371094 75.214844 C 246.777344 74.65625 247.367188 73.8125 248.082031 73.15625 C 248.707031 72.5625 248.738281 71.5625 248.144531 70.941406 C 247.554688 70.316406 246.558594 70.285156 245.933594 70.878906 C 245.03125 71.71875 244.316406 72.71875 243.820312 73.40625 C 243.320312 74.125 243.507812 75.089844 244.191406 75.589844 C 244.472656 75.777344 244.785156 75.871094 245.09375 75.871094 Z M 245.09375 75.871094 " fill-opacity="1" fill-rule="nonzero"/><path fill="#ffffff" d="M 242.011719 80.242188 C 242.480469 80.242188 242.945312 80.023438 243.257812 79.617188 L 244.316406 78.179688 C 244.847656 77.496094 244.691406 76.527344 244.003906 75.996094 C 243.320312 75.464844 242.355469 75.621094 241.824219 76.308594 L 240.769531 77.746094 C 240.238281 78.429688 240.394531 79.398438 241.078125 79.929688 C 241.359375 80.148438 241.703125 80.242188 242.011719 80.242188 Z M 242.011719 80.242188 " fill-opacity="1" fill-rule="nonzero"/></svg>