<svg xmlns="http://www.w3.org/2000/svg" xmlns:xlink="http://www.w3.org/1999/xlink" width="500" zoomAndPan="magnify" viewBox="0 0 375 374.999991" height="500" preserveAspectRatio="xMidYMid meet" version="1.0"><defs><clipPath id="eb5a50759f"><path d="M 187.5 0 C 83.945312 0 0 83.945312 0 187.5 C 0 291.054688 83.945312 375 187.5 375 C 291.054688 375 375 291.054688 375 187.5 C 375 83.945312 291.054688 0 187.5 0 Z M 187.5 0 " clip-rule="nonzero"/></clipPath><clipPath id="da793acf70"><path d="M 45 110 L 337.5 110 L 337.5 267.5625 L 45 267.5625 Z M 45 110 " clip-rule="nonzero"/></clipPath></defs><g clip-path="url(#eb5a50759f)"><rect x="-37.5" width="450" fill="#58a39d" y="-37.499999" height="449.999989" fill-opacity="1"/></g><path fill="#ffffff" d="M 303.851562 184.734375 C 303.851562 182.167969 305.925781 180.085938 308.484375 180.085938 C 311.046875 180.085938 313.121094 182.167969 313.121094 184.734375 C 313.121094 187.300781 311.046875 189.378906 308.484375 189.378906 C 305.925781 189.378906 303.851562 187.300781 303.851562 184.734375 Z M 303.851562 184.734375 " fill-opacity="1" fill-rule="nonzero"/><g clip-path="url(#da793acf70)"><path fill="#ffffff" d="M 55.429688 198.210938 C 52.875 191.671875 39.980469 156.15625 57.882812 148.078125 C 75.488281 140.136719 93.257812 173.28125 96.898438 180.554688 L 110.144531 180.554688 C 111.558594 179.386719 114.949219 176.65625 119.925781 173.046875 C 109.800781 170.234375 92.441406 164.261719 92.441406 156.386719 C 92.441406 151.824219 99.652344 149.878906 115.449219 145.621094 C 122.855469 143.621094 132.074219 141.136719 141.78125 137.949219 C 149.335938 135.46875 156.761719 132.292969 164.625 128.929688 C 180.746094 122.035156 197.421875 114.90625 218.386719 112.195312 C 252.824219 107.746094 267.175781 114.582031 278.136719 126.214844 C 284.125 132.566406 287.371094 142.6875 288.222656 145.628906 C 301.980469 153.628906 314.75 164.707031 326.421875 178.871094 C 327.332031 179.972656 328.269531 181.109375 328.445312 181.277344 C 329.195312 181.765625 330.386719 182.121094 331.886719 182.300781 C 334.9375 182.671875 337.277344 185.273438 337.328125 188.351562 L 337.390625 192.253906 C 337.445312 195.625 336.304688 198.933594 334.171875 201.574219 C 328.097656 209.105469 311.972656 227.503906 293.480469 235.621094 C 291.777344 236.371094 289.84375 237.0625 287.75 237.710938 C 282.125 254.421875 260.199219 265.03125 249.351562 267.035156 C 247.875 267.308594 246.550781 267.445312 245.378906 267.445312 C 242.738281 267.445312 240.894531 266.75 239.863281 265.367188 C 236.125 260.335938 241.558594 255.824219 245.15625 252.835938 C 246.804688 251.460938 248.679688 249.902344 249.121094 248.890625 C 250.207031 246.390625 249.433594 244.742188 248.785156 243.902344 C 224.046875 245.734375 197.296875 245.089844 184.144531 243.003906 C 181.472656 242.582031 178.347656 241.921875 174.933594 241.089844 C 154.625 258.957031 112.859375 266.835938 95.871094 266.835938 C 93.558594 266.835938 91.703125 266.691406 90.425781 266.402344 C 89.765625 266.253906 87.75 265.800781 87.050781 264.074219 C 85.757812 260.855469 87.359375 257.25 89.28125 254.449219 C 87.183594 254.285156 85.15625 253.585938 84.167969 251.726562 C 82.347656 248.296875 84.527344 243.058594 91.027344 235.238281 C 94.429688 231.140625 100.949219 224.621094 105.238281 220.417969 L 96.726562 220.449219 C 93.121094 226.027344 76.621094 250.441406 62.433594 252.769531 C 61.664062 252.894531 60.910156 252.957031 60.171875 252.957031 C 57.347656 252.957031 54.789062 252.023438 52.542969 250.167969 C 37.546875 237.769531 52.464844 204.417969 55.429688 198.210938 Z M 101.234375 215.796875 C 100.613281 214.105469 100.078125 211.894531 100.078125 209.152344 C 100.078125 205.011719 101.699219 202.113281 103.035156 200.421875 C 101.726562 198.632812 100.078125 195.59375 100.078125 191.625 C 100.078125 189.023438 100.675781 186.871094 101.382812 185.191406 L 97.023438 185.191406 C 92.949219 195.078125 92.960938 205.128906 97.0625 215.8125 Z M 274.773438 129.398438 C 264.5 118.496094 251.582031 112.585938 218.976562 116.792969 C 198.652344 119.421875 182.273438 126.421875 166.4375 133.195312 C 158.480469 136.601562 150.964844 139.8125 143.222656 142.355469 C 133.394531 145.585938 124.109375 148.089844 116.652344 150.097656 C 108.199219 152.378906 98.648438 154.953125 97.085938 156.636719 C 97.6875 160.425781 111.539062 166.214844 124.863281 169.550781 C 126.546875 168.386719 128.367188 167.160156 130.28125 165.90625 L 114.542969 159.546875 C 113.355469 159.066406 112.785156 157.71875 113.261719 156.527344 C 113.738281 155.339844 115.085938 154.769531 116.273438 155.242188 L 135.054688 162.832031 C 136.601562 161.859375 138.21875 160.875 139.875 159.878906 L 132.75 154.710938 C 131.714844 153.960938 131.480469 152.511719 132.226562 151.476562 C 132.976562 150.441406 134.421875 150.203125 135.457031 150.953125 L 144.234375 157.316406 C 146.230469 156.167969 148.277344 155.015625 150.398438 153.867188 L 146.320312 149.558594 C 145.441406 148.632812 145.480469 147.164062 146.40625 146.28125 C 147.332031 145.398438 148.800781 145.4375 149.679688 146.367188 L 154.652344 151.621094 C 156.921875 150.449219 159.261719 149.292969 161.652344 148.15625 L 158.570312 145.367188 C 157.621094 144.507812 157.546875 143.042969 158.402344 142.09375 C 159.261719 141.140625 160.722656 141.066406 161.667969 141.925781 L 166.21875 146.042969 C 168.402344 145.054688 170.628906 144.09375 172.894531 143.160156 L 169.894531 138.796875 C 169.171875 137.742188 169.4375 136.296875 170.488281 135.570312 C 171.546875 134.84375 172.980469 135.113281 173.710938 136.167969 L 177.304688 141.40625 C 180.304688 140.25 183.363281 139.160156 186.46875 138.136719 L 183.554688 133.46875 C 182.878906 132.386719 183.210938 130.953125 184.289062 130.273438 C 185.375 129.59375 186.800781 129.925781 187.476562 131.011719 L 191.023438 136.703125 C 193.960938 135.820312 196.929688 135.007812 199.933594 134.285156 L 197.433594 128.765625 C 196.902344 127.597656 197.417969 126.222656 198.578125 125.695312 C 199.753906 125.164062 201.117188 125.683594 201.640625 126.84375 L 204.550781 133.257812 C 208.304688 132.46875 212.097656 131.824219 215.925781 131.335938 L 214.851562 125.902344 C 214.609375 124.644531 215.421875 123.425781 216.671875 123.175781 C 217.921875 122.929688 219.144531 123.746094 219.394531 125.003906 L 220.546875 130.839844 C 224.253906 130.5 227.980469 130.324219 231.726562 130.324219 L 231.148438 125.738281 C 230.988281 124.46875 231.886719 123.308594 233.15625 123.148438 C 234.460938 122.988281 235.582031 123.890625 235.738281 125.164062 L 236.398438 130.417969 C 237.789062 130.476562 239.171875 130.53125 240.5625 130.640625 C 242.632812 130.804688 244.683594 131.027344 246.722656 131.300781 L 246.335938 126.898438 C 246.222656 125.621094 247.164062 124.496094 248.4375 124.386719 C 249.722656 124.277344 250.832031 125.214844 250.945312 126.492188 L 251.433594 132.058594 C 254.847656 132.667969 258.214844 133.445312 261.539062 134.363281 L 260.855469 130.628906 C 260.621094 129.367188 261.457031 128.160156 262.710938 127.929688 C 263.964844 127.695312 265.171875 128.53125 265.402344 129.789062 L 266.519531 135.863281 C 271.886719 137.621094 277.128906 139.78125 282.238281 142.367188 C 280.730469 138.417969 278.246094 133.082031 274.773438 129.398438 Z M 253.367188 250.738281 C 252.484375 252.769531 250.359375 254.535156 248.109375 256.40625 C 244.285156 259.585938 242.628906 261.324219 243.503906 262.523438 C 244.121094 262.96875 247.679688 263.195312 254.203125 260.921875 C 265.070312 257.144531 277.179688 249.199219 282.152344 239.238281 C 279.777344 239.808594 277.242188 240.332031 274.585938 240.8125 C 270.164062 245.632812 265.078125 250.84375 260.316406 253.886719 C 259.929688 254.132812 259.5 254.25 259.074219 254.25 C 258.3125 254.25 257.566406 253.875 257.125 253.179688 C 256.4375 252.101562 256.753906 250.667969 257.832031 249.976562 C 260.800781 248.078125 264.003906 245.140625 267.089844 242.003906 C 262.816406 242.597656 258.339844 243.097656 253.75 243.503906 C 254.4375 245.433594 254.601562 247.898438 253.367188 250.738281 Z M 184.867188 238.425781 C 207.398438 241.992188 269.695312 241.007812 291.625 231.375 C 309.1875 223.664062 324.71875 205.929688 330.578125 198.664062 C 332.023438 196.867188 332.800781 194.621094 332.761719 192.332031 L 332.699219 188.425781 C 332.6875 187.640625 332.113281 187 331.332031 186.90625 C 329.105469 186.636719 327.289062 186.050781 325.925781 185.167969 C 325.28125 184.746094 324.671875 184.027344 322.855469 181.820312 C 317.449219 175.261719 305.1875 160.394531 285.351562 149.140625 C 285.160156 149.0625 284.992188 148.964844 284.828125 148.839844 C 278.574219 145.335938 271.566406 142.207031 263.800781 139.796875 C 263.746094 139.78125 263.695312 139.773438 263.644531 139.75 C 256.480469 137.542969 248.679688 135.941406 240.199219 135.261719 C 177.539062 130.285156 113.121094 184.097656 112.476562 184.644531 C 112.058594 184.996094 111.53125 185.191406 110.980469 185.191406 L 106.578125 185.191406 C 105.871094 186.269531 104.707031 188.503906 104.707031 191.625 C 104.707031 195.953125 107.683594 198.765625 107.703125 198.78125 C 108.21875 199.242188 108.496094 199.914062 108.464844 200.605469 C 108.433594 201.300781 108.09375 201.941406 107.542969 202.355469 C 107.515625 202.378906 104.707031 204.617188 104.707031 209.148438 C 104.707031 212.464844 105.65625 214.679688 106.269531 215.78125 L 110.972656 215.761719 C 110.976562 215.761719 110.980469 215.761719 110.980469 215.761719 C 110.992188 215.761719 111.003906 215.769531 111.015625 215.769531 C 111.074219 215.769531 111.128906 215.796875 111.183594 215.800781 C 111.386719 215.820312 111.589844 215.835938 111.78125 215.90625 C 112.300781 216.097656 163.851562 235.097656 184.867188 238.425781 Z M 94.582031 238.207031 C 88.394531 245.648438 87.914062 248.917969 88.199219 249.480469 C 88.796875 250.011719 91.769531 249.9375 94.207031 249.339844 C 95.222656 249.09375 96.289062 249.5625 96.792969 250.484375 C 97.292969 251.40625 97.113281 252.554688 96.347656 253.277344 C 93.910156 255.578125 90.980469 259.640625 91.222656 261.855469 C 97.789062 264.011719 145.925781 257.71875 169.371094 239.664062 C 166.6875 238.941406 163.890625 238.152344 161.03125 237.308594 L 150.605469 246.425781 C 150.167969 246.804688 149.625 246.996094 149.085938 246.996094 C 148.441406 246.996094 147.800781 246.726562 147.339844 246.199219 C 146.503906 245.234375 146.605469 243.769531 147.566406 242.925781 L 155.792969 235.734375 C 153.789062 235.121094 151.773438 234.492188 149.761719 233.851562 L 136.339844 248.125 C 135.882812 248.609375 135.269531 248.855469 134.652344 248.855469 C 134.085938 248.855469 133.515625 248.644531 133.066406 248.222656 C 132.136719 247.34375 132.09375 245.875 132.96875 244.945312 L 144.878906 232.28125 C 142.863281 231.625 140.867188 230.96875 138.914062 230.316406 L 124.046875 248.027344 C 123.589844 248.574219 122.9375 248.855469 122.273438 248.855469 C 121.75 248.855469 121.222656 248.675781 120.785156 248.3125 C 119.808594 247.488281 119.679688 246.023438 120.503906 245.042969 L 134.195312 228.730469 C 132.214844 228.058594 130.300781 227.402344 128.472656 226.773438 L 111.222656 249.09375 C 110.769531 249.6875 110.085938 249.996094 109.390625 249.996094 C 108.898438 249.996094 108.398438 249.835938 107.980469 249.511719 C 106.96875 248.722656 106.78125 247.269531 107.566406 246.257812 L 123.859375 225.167969 C 122.277344 224.609375 120.789062 224.085938 119.425781 223.601562 L 104.8125 241.992188 C 104.355469 242.566406 103.683594 242.863281 103 242.863281 C 102.496094 242.863281 101.988281 242.699219 101.5625 242.359375 C 100.5625 241.5625 100.398438 240.101562 101.195312 239.101562 L 114.820312 221.953125 C 113.4375 221.453125 112.328125 221.050781 111.535156 220.757812 C 108.398438 223.785156 98.800781 233.128906 94.582031 238.207031 Z M 55.492188 246.59375 C 57.269531 248.0625 59.300781 248.585938 61.6875 248.191406 C 72.59375 246.40625 87.359375 226.507812 92.890625 217.851562 C 88.203125 205.855469 88.214844 194.132812 92.933594 182.972656 C 87.46875 171.757812 72.089844 146.753906 59.78125 152.308594 C 47.121094 158.015625 55.714844 186.804688 60.09375 197.414062 C 60.351562 198.039062 60.324219 198.738281 60.027344 199.34375 C 54.996094 209.371094 44.382812 237.410156 55.492188 246.59375 Z M 55.492188 246.59375 " fill-opacity="1" fill-rule="nonzero"/></g><path fill="#ffffff" d="M 281.769531 174.246094 C 283.140625 174.769531 284.644531 174.683594 285.894531 174.003906 C 287.125 173.335938 287.964844 172.203125 288.261719 170.808594 C 288.984375 167.417969 288.96875 163.558594 288.210938 159.011719 C 288 157.746094 288.851562 156.554688 290.113281 156.34375 C 291.367188 156.128906 292.566406 156.988281 292.773438 158.25 C 293.625 163.378906 293.628906 167.804688 292.78125 171.773438 C 292.207031 174.476562 290.5 176.773438 288.101562 178.078125 C 285.652344 179.40625 282.742188 179.585938 280.105469 178.570312 C 275.953125 176.960938 275.324219 178.378906 275.121094 178.847656 C 273.8125 181.84375 276.992188 198.417969 282.554688 210.101562 C 285.066406 215.375 286.980469 217.121094 287.710938 217.320312 C 292.640625 218.65625 300.523438 212.765625 303.15625 210.382812 C 304.101562 209.53125 305.566406 209.597656 306.421875 210.550781 C 307.277344 211.5 307.203125 212.964844 306.257812 213.824219 C 305.226562 214.757812 296.84375 222.148438 289.226562 222.144531 C 288.300781 222.144531 287.382812 222.039062 286.496094 221.796875 C 283.792969 221.054688 281.136719 217.882812 278.378906 212.101562 C 273.695312 202.257812 268.363281 182.746094 270.882812 176.984375 C 271.667969 175.203125 274.28125 171.355469 281.769531 174.246094 Z M 281.769531 174.246094 " fill-opacity="1" fill-rule="nonzero"/><path fill="#ffffff" d="M 267.519531 196.550781 C 268.203125 196.878906 268.683594 197.519531 268.808594 198.265625 C 268.929688 199.015625 268.679688 199.777344 268.136719 200.304688 C 265.242188 203.125 263.199219 208.691406 266.148438 215.851562 C 266.621094 216.996094 266.113281 218.308594 264.996094 218.835938 C 264.496094 219.070312 255.613281 223.183594 245.390625 223.183594 C 241.78125 223.183594 238.003906 222.667969 234.371094 221.292969 C 229.410156 219.410156 227.738281 217.828125 226.261719 216.425781 C 225.230469 215.449219 224.339844 214.605469 222.082031 213.554688 C 214.804688 210.1875 207.746094 210.902344 207.675781 210.90625 C 206.628906 211.023438 205.667969 210.441406 205.277344 209.480469 C 204.886719 208.519531 205.175781 207.417969 205.992188 206.777344 C 227.128906 190.207031 247.25 186.867188 267.519531 196.550781 Z M 224.023438 209.351562 C 226.96875 210.714844 228.28125 211.960938 229.441406 213.058594 C 230.714844 214.269531 231.914062 215.40625 236.007812 216.957031 C 245.488281 220.558594 256.664062 217.109375 261.085938 215.4375 C 260.867188 214.734375 260.691406 214.027344 260.542969 213.328125 L 244.890625 215.007812 C 244.804688 215.019531 244.722656 215.023438 244.640625 215.023438 C 243.472656 215.023438 242.472656 214.140625 242.34375 212.949219 C 242.207031 211.679688 243.128906 210.535156 244.398438 210.398438 L 260.101562 208.710938 C 260.113281 207.964844 260.171875 207.226562 260.269531 206.507812 L 244.402344 204.828125 C 243.132812 204.695312 242.210938 203.554688 242.34375 202.277344 C 242.480469 201.003906 243.601562 200.070312 244.890625 200.21875 L 261.519531 201.976562 C 261.886719 201.125 262.300781 200.296875 262.8125 199.523438 C 246.878906 192.925781 230.902344 195.21875 214.199219 206.519531 C 217.050781 206.902344 220.5 207.714844 224.023438 209.351562 Z M 224.023438 209.351562 " fill-opacity="1" fill-rule="nonzero"/><path fill="#ffffff" d="M 85.121094 200.613281 L 66.085938 200.613281 C 64.808594 200.613281 63.773438 199.578125 63.773438 198.296875 C 63.773438 197.011719 64.808594 195.976562 66.085938 195.976562 L 85.121094 195.976562 C 86.402344 195.976562 87.4375 197.011719 87.4375 198.296875 C 87.4375 199.578125 86.398438 200.613281 85.121094 200.613281 Z M 85.121094 200.613281 " fill-opacity="1" fill-rule="nonzero"/><path fill="#ffffff" d="M 85.128906 210.304688 L 63.128906 213.273438 C 63.019531 213.285156 62.917969 213.292969 62.816406 213.292969 C 61.675781 213.292969 60.679688 212.449219 60.523438 211.285156 C 60.355469 210.015625 61.246094 208.847656 62.507812 208.675781 L 84.507812 205.710938 C 85.804688 205.539062 86.941406 206.429688 87.109375 207.695312 C 87.28125 208.96875 86.394531 210.132812 85.128906 210.304688 Z M 85.128906 210.304688 " fill-opacity="1" fill-rule="nonzero"/><path fill="#ffffff" d="M 85.960938 214.324219 C 86.984375 213.554688 88.429688 213.753906 89.203125 214.773438 C 89.972656 215.792969 89.773438 217.246094 88.753906 218.019531 L 61.195312 238.925781 C 60.773438 239.242188 60.285156 239.394531 59.796875 239.394531 C 59.097656 239.394531 58.40625 239.078125 57.949219 238.476562 C 57.179688 237.457031 57.382812 236.003906 58.398438 235.226562 Z M 85.960938 214.324219 " fill-opacity="1" fill-rule="nonzero"/><path fill="#ffffff" d="M 85.125 190.898438 L 63.121094 187.929688 C 61.859375 187.757812 60.96875 186.59375 61.140625 185.324219 C 61.3125 184.050781 62.449219 183.160156 63.742188 183.332031 L 85.746094 186.300781 C 87.011719 186.472656 87.898438 187.640625 87.726562 188.910156 C 87.574219 190.074219 86.578125 190.917969 85.4375 190.917969 C 85.335938 190.917969 85.230469 190.910156 85.125 190.898438 Z M 85.125 190.898438 " fill-opacity="1" fill-rule="nonzero"/><path fill="#ffffff" d="M 87.355469 184.222656 C 86.871094 184.222656 86.378906 184.066406 85.960938 183.75 L 58.398438 162.847656 C 57.382812 162.078125 57.179688 160.621094 57.949219 159.601562 C 58.722656 158.578125 60.171875 158.375 61.191406 159.152344 L 88.753906 180.050781 C 89.769531 180.824219 89.972656 182.277344 89.199219 183.300781 C 88.746094 183.902344 88.054688 184.222656 87.355469 184.222656 Z M 87.355469 184.222656 " fill-opacity="1" fill-rule="nonzero"/></svg>