<svg xmlns="http://www.w3.org/2000/svg" xmlns:xlink="http://www.w3.org/1999/xlink" width="500" zoomAndPan="magnify" viewBox="0 0 375 374.999991" height="500" preserveAspectRatio="xMidYMid meet" version="1.0"><defs><clipPath id="1a34f71590"><path d="M 187.5 0 C 83.945312 0 0 83.945312 0 187.5 C 0 291.054688 83.945312 375 187.5 375 C 291.054688 375 375 291.054688 375 187.5 C 375 83.945312 291.054688 0 187.5 0 Z M 187.5 0 " clip-rule="nonzero"/></clipPath><clipPath id="e4580266cf"><path d="M 37.5 82 L 337 82 L 337 292.75 L 37.5 292.75 Z M 37.5 82 " clip-rule="nonzero"/></clipPath></defs><g clip-path="url(#1a34f71590)"><rect x="-37.5" width="450" fill="#a2c36e" y="-37.499999" height="449.999989" fill-opacity="1"/></g><g clip-path="url(#e4580266cf)"><path fill="#ffffff" d="M 335.984375 154 C 329.121094 150.664062 321.933594 148.316406 314.421875 146.957031 C 306.914062 145.597656 299.359375 145.273438 291.761719 145.988281 C 291.738281 145.65625 291.617188 145.359375 291.402344 145.105469 C 291.1875 144.847656 290.917969 144.679688 290.59375 144.597656 C 285.144531 142.855469 279.554688 141.113281 273.878906 139.546875 C 273.921875 139.289062 273.890625 139.039062 273.789062 138.800781 C 273.683594 138.558594 273.523438 138.367188 273.304688 138.222656 C 275.722656 125.496094 276.070312 105.871094 266.164062 96.4375 C 265.835938 96.121094 265.207031 96.523438 265.453125 96.941406 L 265.589844 97.21875 C 263.847656 109.058594 262.109375 128.28125 270.464844 138.554688 C 259.167969 135.558594 247.746094 133.15625 236.199219 131.347656 C 241.578125 117.328125 240.394531 99.902344 235.992188 85.851562 C 235.949219 85.753906 235.882812 85.679688 235.789062 85.632812 C 235.695312 85.582031 235.59375 85.570312 235.492188 85.59375 C 235.390625 85.617188 235.304688 85.671875 235.242188 85.757812 C 235.179688 85.839844 235.148438 85.9375 235.15625 86.042969 C 238.324219 101.46875 237.261719 114.925781 235.554688 130.160156 C 234.238281 126.671875 233.214844 123.101562 232.488281 119.441406 C 231.757812 115.785156 231.335938 112.09375 231.214844 108.367188 C 231.097656 104.636719 231.285156 100.925781 231.78125 97.230469 C 232.273438 93.535156 233.070312 89.902344 234.164062 86.335938 C 234.320312 85.796875 233.519531 85.640625 233.328125 86.128906 C 231.898438 89.722656 230.839844 93.425781 230.15625 97.234375 C 229.472656 101.042969 229.175781 104.878906 229.265625 108.746094 C 229.355469 112.617188 229.832031 116.4375 230.691406 120.207031 C 231.550781 123.980469 232.777344 127.628906 234.371094 131.15625 C 224.988281 129.746094 215.566406 128.71875 206.199219 128.175781 C 206.390625 128.183594 206.554688 128.117188 206.691406 127.984375 C 206.828125 127.851562 206.894531 127.6875 206.894531 127.5 C 206.804688 118.75 205.300781 110.253906 202.386719 102.007812 C 200.644531 97.167969 198.90625 91.246094 193.679688 89.402344 C 193.226562 89.226562 192.808594 89.941406 193.28125 90.203125 C 198.78125 93.25 201.0625 103.277344 202.492188 108.605469 C 204.066406 114.566406 205.011719 120.628906 205.328125 126.785156 C 201.980469 121.375 199.257812 115.671875 197.164062 109.664062 C 195.070312 103.65625 193.652344 97.496094 192.914062 91.179688 C 192.914062 90.601562 192.007812 90.863281 192.042969 91.386719 C 192.328125 97.925781 193.480469 104.308594 195.5 110.539062 C 197.515625 116.765625 200.328125 122.609375 203.9375 128.074219 C 195.613281 127.636719 187.34375 127.566406 179.230469 127.898438 C 177.28125 127.898438 175.328125 128.109375 173.378906 128.246094 C 173.65625 121.28125 171.636719 114.472656 170.507812 107.683594 C 169.097656 99.882812 168.121094 91.910156 165.753906 84.335938 C 166.414062 83.605469 166.257812 82.210938 164.953125 82.210938 C 163.332031 82.210938 163.019531 84.648438 164.671875 84.734375 C 164.75 92.1875 165.5 99.570312 166.917969 106.882812 C 168.050781 114.074219 168.660156 121.71875 171.777344 128.367188 C 170.035156 128.507812 168.296875 128.664062 166.554688 128.855469 C 165.960938 115.101562 163.664062 99.394531 159.03125 86.652344 C 159.867188 85.988281 159.78125 84.40625 158.40625 84.40625 C 157.03125 84.40625 156.523438 86.476562 157.761719 86.878906 C 157.203125 100.214844 159.675781 116.128906 163.210938 129.238281 C 161.46875 129.449219 159.730469 129.675781 157.902344 129.917969 C 158.195312 123.371094 156.457031 116.5625 155.65625 110.105469 C 154.628906 101.957031 153.808594 93.789062 152.171875 85.726562 C 152.972656 85.050781 152.867188 83.515625 151.492188 83.515625 C 150.117188 83.515625 149.613281 85.675781 150.96875 85.988281 C 150.550781 93.800781 150.726562 101.601562 151.492188 109.390625 C 152.050781 116.214844 152.015625 123.859375 154.242188 130.441406 C 152.085938 130.769531 149.945312 131.121094 147.800781 131.503906 C 148.515625 125.964844 147.210938 120.324219 146.53125 114.753906 C 145.773438 106.570312 144.453125 98.480469 142.578125 90.480469 C 142.777344 90.316406 142.910156 90.113281 142.976562 89.867188 C 143.046875 89.621094 143.039062 89.375 142.953125 89.132812 C 142.867188 88.890625 142.71875 88.695312 142.511719 88.546875 C 142.300781 88.398438 142.070312 88.324219 141.8125 88.320312 C 140.261719 88.320312 139.933594 90.550781 141.359375 90.8125 C 141.152344 97.996094 141.410156 105.164062 142.125 112.316406 C 142.613281 118.6875 142.230469 125.984375 144.457031 132.09375 L 140.714844 132.773438 C 140.644531 132.601562 140.539062 132.449219 140.402344 132.320312 C 140.402344 125.738281 138.382812 119.140625 136.917969 112.734375 C 135.457031 106.324219 134.570312 99.902344 132.042969 93.964844 C 132.230469 93.796875 132.355469 93.59375 132.414062 93.351562 C 132.472656 93.109375 132.453125 92.871094 132.363281 92.640625 C 132.269531 92.40625 132.121094 92.222656 131.914062 92.085938 C 131.703125 91.949219 131.476562 91.882812 131.226562 91.890625 C 129.730469 91.890625 129.363281 93.964844 130.617188 94.347656 C 130.617188 100.824219 132.132812 107.285156 133.261719 113.636719 C 134.394531 119.992188 135.003906 127.238281 137.6875 133.367188 C 135.074219 133.871094 132.460938 134.410156 129.851562 134.949219 C 129.519531 121.925781 128.839844 107.300781 125.445312 94.746094 C 125.652344 94.589844 125.792969 94.386719 125.871094 94.136719 C 125.945312 93.890625 125.941406 93.640625 125.855469 93.394531 C 125.769531 93.148438 125.621094 92.953125 125.40625 92.804688 C 125.195312 92.65625 124.957031 92.582031 124.695312 92.589844 C 123.164062 92.589844 122.816406 94.765625 124.191406 95.058594 C 122.867188 108.03125 124.417969 122.917969 126.070312 135.734375 L 123.425781 136.289062 C 123.703125 129.621094 120.867188 122.605469 119.089844 116.25 C 117.359375 109.53125 115.164062 102.96875 112.507812 96.558594 C 112.667969 96.382812 112.765625 96.179688 112.804688 95.945312 C 112.84375 95.714844 112.8125 95.488281 112.71875 95.273438 C 112.621094 95.058594 112.472656 94.886719 112.273438 94.757812 C 112.074219 94.632812 111.855469 94.570312 111.621094 94.574219 C 110 94.574219 109.6875 97.046875 111.359375 97.113281 C 112.457031 104.375 113.9375 111.554688 115.800781 118.652344 C 117.210938 124.589844 117.890625 131.433594 120.917969 136.8125 L 113.328125 138.378906 C 113.328125 133.59375 111.8125 128.75 110.925781 123.980469 C 109.53125 115.914062 107.722656 107.9375 105.507812 100.058594 C 106.308594 99.378906 106.222656 97.828125 104.847656 97.828125 C 103.472656 97.828125 103.140625 99.726562 104.203125 100.265625 C 104.464844 107.421875 105.335938 114.507812 106.277344 121.613281 C 107.007812 127.148438 106.988281 133.800781 108.972656 139.320312 C 106.746094 139.808594 104.5 140.3125 102.269531 140.835938 C 100.546875 127.21875 97.917969 113.796875 96.054688 100.265625 C 96.246094 100.101562 96.371094 99.898438 96.429688 99.652344 C 96.492188 99.410156 96.476562 99.167969 96.386719 98.933594 C 96.300781 98.699219 96.148438 98.511719 95.941406 98.367188 C 95.734375 98.226562 95.503906 98.15625 95.253906 98.160156 C 93.601562 98.160156 93.304688 100.683594 95.046875 100.703125 C 95.535156 114.378906 97.074219 127.9375 99.660156 141.375 L 97.082031 142.054688 C 96.230469 135.960938 93.113281 130.039062 90.726562 124.398438 C 88.660156 118.757812 86.023438 113.394531 82.820312 108.3125 C 82.863281 108.222656 82.890625 108.128906 82.910156 108.03125 C 82.925781 107.9375 82.929688 107.839844 82.921875 107.742188 C 82.914062 107.644531 82.890625 107.550781 82.859375 107.457031 C 82.828125 107.367188 82.78125 107.28125 82.726562 107.199219 C 82.671875 107.117188 82.609375 107.046875 82.535156 106.980469 C 82.460938 106.917969 82.378906 106.863281 82.289062 106.820312 C 82.203125 106.777344 82.109375 106.746094 82.015625 106.730469 C 81.917969 106.710938 81.824219 106.703125 81.726562 106.707031 C 79.984375 106.707031 79.773438 109.25 81.535156 109.25 L 81.636719 109.25 C 82.957031 114.628906 84.726562 119.851562 86.949219 124.921875 C 89.210938 130.71875 90.953125 137.441406 94.4375 142.679688 C 91.773438 143.394531 89.210938 144.144531 86.53125 144.960938 C 85.171875 133.261719 81.082031 121.039062 76.625 110.140625 C 76.757812 109.960938 76.832031 109.757812 76.851562 109.535156 C 76.867188 109.308594 76.824219 109.097656 76.722656 108.902344 C 76.617188 108.703125 76.46875 108.546875 76.273438 108.433594 C 76.082031 108.320312 75.871094 108.269531 75.648438 108.277344 C 74.011719 108.277344 73.699219 110.816406 75.457031 110.816406 L 75.5625 110.816406 C 77.300781 122.414062 80.070312 134.914062 84.859375 145.640625 C 83.746094 145.988281 82.648438 146.371094 81.535156 146.753906 C 80.941406 141.359375 78.050781 136.117188 76.1875 131.085938 C 74.324219 126.054688 72.550781 120.515625 70.582031 115.292969 C 70.71875 115.113281 70.792969 114.910156 70.808594 114.683594 C 70.828125 114.457031 70.78125 114.246094 70.675781 114.046875 C 70.570312 113.847656 70.417969 113.691406 70.222656 113.578125 C 70.027344 113.46875 69.816406 113.417969 69.589844 113.429688 C 67.953125 113.429688 67.640625 115.988281 69.398438 115.988281 C 70.34375 122.191406 71.796875 128.273438 73.75 134.238281 C 75.160156 138.695312 76.328125 143.882812 79.183594 147.644531 L 79.0625 147.644531 C 73.175781 139.703125 66.089844 133.070312 59.558594 125.703125 C 59.160156 125.269531 58.410156 125.914062 58.8125 126.382812 C 64.835938 133.785156 70.128906 141.636719 76.761719 148.546875 L 75.28125 149.019531 C 66.976562 140.035156 50.699219 143.445312 40.128906 143.796875 C 39.988281 143.765625 39.855469 143.792969 39.734375 143.871094 C 39.617188 143.953125 39.539062 144.0625 39.511719 144.203125 C 39.484375 144.347656 39.507812 144.476562 39.589844 144.597656 C 39.667969 144.71875 39.777344 144.792969 39.921875 144.824219 C 40.410156 144.996094 40.910156 145.136719 41.417969 145.242188 C 47.71875 149.574219 56.460938 150.464844 64.660156 151.179688 C 54.980469 152.519531 44.933594 155.304688 37.726562 161.449219 C 37.609375 161.546875 37.539062 161.667969 37.511719 161.816406 C 37.480469 161.964844 37.503906 162.101562 37.578125 162.234375 C 37.648438 162.367188 37.753906 162.460938 37.894531 162.515625 C 38.035156 162.570312 38.175781 162.578125 38.316406 162.53125 C 39.082031 162.386719 39.839844 162.203125 40.582031 161.972656 C 48.703125 162.144531 56.652344 161.070312 64.4375 158.75 C 65.792969 158.367188 67.324219 158.039062 68.839844 157.601562 C 63.09375 163.242188 58.394531 169.425781 57.539062 178.148438 L 56.6875 178.964844 C 56.601562 179.0625 56.554688 179.171875 56.546875 179.300781 C 56.539062 179.429688 56.574219 179.546875 56.652344 179.648438 C 56.726562 179.753906 56.828125 179.820312 56.953125 179.855469 C 57.078125 179.886719 57.199219 179.875 57.3125 179.820312 C 68.25 174.492188 74.605469 164.148438 76.46875 152.65625 C 76.589844 152.398438 76.710938 152.136719 76.816406 151.855469 L 77.652344 151.683594 C 77.101562 160.753906 77.292969 169.804688 78.226562 178.84375 C 77.882812 179.046875 77.636719 179.335938 77.492188 179.707031 C 77.34375 180.078125 77.328125 180.453125 77.441406 180.835938 C 77.554688 181.21875 77.773438 181.527344 78.097656 181.757812 C 78.421875 181.992188 78.785156 182.097656 79.183594 182.082031 C 79.605469 182.09375 79.988281 181.976562 80.335938 181.734375 C 80.679688 181.492188 80.917969 181.167969 81.050781 180.769531 C 81.183594 180.367188 81.183594 179.96875 81.050781 179.566406 C 80.917969 179.164062 80.679688 178.84375 80.332031 178.601562 C 80.644531 169.5 80.214844 160.433594 79.042969 151.402344 L 82.402344 150.65625 C 82.945312 161.257812 83.238281 172.609375 86.320312 182.746094 C 86.148438 183.007812 86.050781 183.300781 86.035156 183.613281 C 86.019531 183.929688 86.085938 184.230469 86.234375 184.507812 C 86.378906 184.789062 86.585938 185.011719 86.855469 185.179688 C 87.125 185.347656 87.414062 185.4375 87.730469 185.445312 C 88.144531 185.480469 88.527344 185.390625 88.882812 185.183594 C 89.238281 184.972656 89.5 184.679688 89.664062 184.300781 C 89.832031 183.921875 89.875 183.53125 89.792969 183.128906 C 89.707031 182.722656 89.515625 182.382812 89.210938 182.101562 C 89.210938 171.480469 86.390625 160.527344 83.988281 150.238281 L 88.445312 149.210938 C 88.917969 158.976562 91.476562 169.007812 93.09375 178.671875 C 91.597656 179.472656 91.597656 182.152344 93.757812 182.152344 C 94.132812 182.152344 94.484375 182.054688 94.804688 181.855469 C 95.125 181.65625 95.367188 181.386719 95.53125 181.046875 C 95.695312 180.707031 95.757812 180.347656 95.71875 179.972656 C 95.675781 179.597656 95.539062 179.261719 95.304688 178.964844 C 94.957031 169.042969 94.050781 158.074219 89.945312 148.914062 L 96.019531 147.46875 C 96.285156 153.304688 96.867188 159.109375 97.761719 164.878906 C 98.542969 169.929688 98.960938 175.328125 101.140625 180.0625 C 100.855469 180.300781 100.664062 180.597656 100.566406 180.953125 C 100.472656 181.3125 100.488281 181.664062 100.617188 182.011719 C 100.746094 182.359375 100.964844 182.636719 101.273438 182.84375 C 101.578125 183.054688 101.917969 183.152344 102.289062 183.144531 C 102.660156 183.140625 103 183.042969 103.316406 182.851562 C 103.632812 182.660156 103.875 182.398438 104.046875 182.070312 C 104.21875 181.742188 104.292969 181.394531 104.273438 181.023438 C 104.25 180.652344 104.132812 180.316406 103.925781 180.011719 C 105.054688 169.703125 100.339844 156.835938 97.222656 147.347656 C 97.195312 147.289062 97.160156 147.234375 97.117188 147.191406 L 104.761719 145.308594 C 103.617188 156.117188 104.464844 166.769531 107.300781 177.261719 C 106.433594 178.339844 106.691406 180.21875 108.519531 180.21875 C 110.679688 180.21875 111.21875 177.242188 109.425781 176.738281 C 109.9375 171.398438 109.898438 166.0625 109.3125 160.730469 C 108.722656 155.402344 107.601562 150.183594 105.945312 145.082031 L 111.359375 143.761719 C 111.441406 143.839844 111.535156 143.902344 111.636719 143.953125 C 111.480469 153.71875 112.074219 166.691406 116.863281 175.292969 C 116.789062 175.421875 116.730469 175.5625 116.695312 175.707031 C 116.65625 175.851562 116.636719 176 116.636719 176.152344 C 116.636719 176.300781 116.65625 176.449219 116.695312 176.59375 C 116.734375 176.742188 116.792969 176.878906 116.867188 177.007812 C 116.941406 177.140625 117.03125 177.257812 117.136719 177.367188 C 117.242188 177.472656 117.359375 177.566406 117.488281 177.640625 C 117.617188 177.71875 117.753906 177.777344 117.898438 177.820312 C 118.042969 177.863281 118.191406 177.882812 118.339844 177.886719 C 120.429688 177.886719 121.023438 175.050781 119.421875 174.40625 C 119.558594 169.597656 118.21875 164.933594 117.261719 160.230469 C 116.09375 154.554688 114.910156 148.914062 113.273438 143.34375 L 120.519531 141.601562 C 119.75 150.929688 120.816406 160.039062 123.722656 168.9375 C 123.542969 169.144531 123.4375 169.386719 123.40625 169.660156 C 123.371094 169.929688 123.414062 170.1875 123.535156 170.433594 C 123.65625 170.679688 123.835938 170.871094 124.070312 171.011719 C 124.308594 171.152344 124.5625 171.214844 124.835938 171.199219 C 125.035156 171.261719 125.242188 171.285156 125.453125 171.265625 C 125.660156 171.246094 125.859375 171.1875 126.042969 171.089844 C 126.230469 170.992188 126.390625 170.859375 126.523438 170.699219 C 126.660156 170.539062 126.757812 170.355469 126.820312 170.15625 C 126.882812 169.957031 126.902344 169.75 126.882812 169.539062 C 126.863281 169.332031 126.804688 169.132812 126.707031 168.949219 C 126.609375 168.761719 126.480469 168.601562 126.320312 168.46875 C 126.15625 168.332031 125.976562 168.234375 125.777344 168.171875 C 125.671875 158.941406 124.417969 149.871094 122.015625 140.957031 L 128.441406 139.460938 C 128.375 148.945312 130.117188 158.085938 133.664062 166.882812 C 133.652344 167.039062 133.675781 167.191406 133.730469 167.339844 C 133.785156 167.484375 133.871094 167.613281 133.984375 167.726562 C 134.09375 167.835938 134.226562 167.917969 134.375 167.972656 C 134.519531 168.023438 134.671875 168.046875 134.832031 168.03125 C 135.050781 168.042969 135.261719 168.003906 135.464844 167.914062 C 135.664062 167.820312 135.832031 167.691406 135.972656 167.515625 C 136.109375 167.34375 136.199219 167.152344 136.246094 166.933594 C 136.289062 166.71875 136.28125 166.503906 136.222656 166.289062 C 136.746094 157.148438 132.339844 148.042969 130.179688 139.164062 C 133.90625 138.328125 137.640625 137.53125 141.378906 136.777344 C 139.675781 143.0625 139.09375 149.445312 139.636719 155.929688 C 139.933594 161.363281 139.84375 167.058594 141.535156 172.261719 C 140.960938 173.011719 141.152344 174.28125 142.386719 174.28125 C 142.503906 174.28125 142.621094 174.265625 142.734375 174.234375 C 142.847656 174.203125 142.957031 174.160156 143.058594 174.097656 C 143.160156 174.039062 143.253906 173.96875 143.339844 173.886719 C 143.421875 173.804688 143.496094 173.710938 143.554688 173.609375 C 143.617188 173.507812 143.660156 173.402344 143.695312 173.289062 C 143.726562 173.175781 143.746094 173.058594 143.746094 172.941406 C 143.75 172.824219 143.738281 172.707031 143.710938 172.589844 C 143.683594 172.476562 143.644531 172.367188 143.589844 172.261719 C 147.503906 161.816406 142.527344 147.886719 142.527344 136.953125 C 142.515625 136.820312 142.46875 136.707031 142.386719 136.605469 L 148.777344 135.421875 C 147.632812 140.269531 147.054688 145.1875 147.035156 150.167969 C 146.828125 155.667969 146.269531 161.554688 147.90625 166.867188 C 147.980469 167.09375 148.109375 167.285156 148.289062 167.441406 C 148.238281 167.527344 148.203125 167.621094 148.175781 167.71875 C 148.148438 167.820312 148.136719 167.917969 148.136719 168.019531 C 148.136719 168.121094 148.152344 168.222656 148.179688 168.320312 C 148.207031 168.417969 148.246094 168.511719 148.296875 168.601562 C 148.347656 168.6875 148.40625 168.769531 148.480469 168.839844 C 148.550781 168.910156 148.632812 168.972656 148.71875 169.023438 C 148.808594 169.074219 148.902344 169.113281 149 169.140625 C 149.097656 169.167969 149.199219 169.179688 149.300781 169.179688 C 149.511719 169.175781 149.714844 169.125 149.90625 169.03125 C 150.097656 168.933594 150.257812 168.800781 150.386719 168.632812 C 150.515625 168.460938 150.605469 168.273438 150.648438 168.066406 C 150.691406 167.855469 150.691406 167.648438 150.640625 167.441406 C 150.8125 167.257812 150.929688 167.042969 150.988281 166.796875 C 152.3125 161.347656 151.703125 155.6875 151.597656 150.117188 C 151.71875 145.078125 151.40625 140.070312 150.65625 135.089844 C 153.617188 134.585938 156.578125 134.113281 159.570312 133.714844 C 155.949219 143.796875 155.460938 155.878906 156.003906 166.429688 C 156.015625 166.605469 156.054688 166.773438 156.125 166.933594 C 155.984375 167.117188 155.902344 167.320312 155.882812 167.550781 C 155.863281 167.777344 155.90625 167.992188 156.015625 168.195312 C 156.121094 168.398438 156.273438 168.554688 156.472656 168.667969 C 156.671875 168.78125 156.886719 168.828125 157.117188 168.816406 C 157.332031 168.8125 157.535156 168.765625 157.726562 168.671875 C 157.921875 168.574219 158.082031 168.441406 158.210938 168.273438 C 158.34375 168.101562 158.429688 167.914062 158.472656 167.703125 C 158.515625 167.492188 158.511719 167.28125 158.457031 167.074219 C 161.347656 162.84375 161.035156 158.578125 160.949219 153.597656 C 160.949219 146.894531 161.296875 140.191406 160.949219 133.503906 C 163.644531 133.15625 166.34375 132.859375 169.0625 132.617188 C 167.320312 137.996094 167.320312 143.863281 167.023438 149.507812 C 166.796875 155.511719 166.136719 161.957031 168.121094 167.71875 C 168.195312 167.910156 168.300781 168.085938 168.433594 168.242188 C 167.945312 168.988281 168.15625 170.171875 169.355469 170.171875 C 169.570312 170.171875 169.777344 170.125 169.96875 170.027344 C 170.160156 169.933594 170.320312 169.800781 170.453125 169.628906 C 170.582031 169.460938 170.671875 169.269531 170.714844 169.058594 C 170.757812 168.847656 170.75 168.640625 170.699219 168.433594 C 170.910156 168.25 171.054688 168.023438 171.132812 167.753906 C 172.753906 161.832031 172.039062 155.566406 171.988281 149.542969 C 171.988281 143.917969 172.421875 137.960938 171.082031 132.460938 C 174.234375 132.199219 177.402344 131.972656 180.605469 131.867188 C 193.148438 131.507812 205.632812 132.210938 218.058594 133.976562 C 204.40625 135.070312 189.746094 141.113281 184.019531 154.035156 C 183.566406 155.058594 185.132812 155.496094 185.757812 154.710938 L 185.757812 154.589844 C 193.960938 152.363281 202.457031 150.238281 210.136719 146.6875 C 216.523438 143.742188 219.015625 139.964844 222.636719 134.8125 L 223.28125 134.8125 C 230.542969 135.925781 237.75 137.25 244.957031 138.710938 C 232.890625 140.644531 221.207031 147.417969 215.203125 158.089844 C 214.714844 158.976562 215.878906 159.96875 216.613281 159.152344 C 230.542969 157.21875 243.390625 152.554688 249.554688 139.667969 C 261.046875 142.054688 272.554688 144.664062 284.222656 147.015625 C 265.191406 150.082031 246.648438 158.421875 229.0625 168.085938 C 215.132812 162.859375 195.839844 160.25 183.460938 170.46875 C 182.519531 171.253906 183.601562 172.542969 184.628906 172.019531 L 185.375 171.6875 C 190.648438 173.496094 196.066406 174.613281 201.625 175.046875 C 207.183594 175.480469 212.707031 175.214844 218.195312 174.246094 L 213.949219 176.753906 C 201.535156 184.121094 189.570312 192.042969 177.664062 200.3125 C 173.554688 195.089844 166.082031 191.816406 161.015625 187.65625 C 157.535156 184.816406 154.050781 181.472656 149.527344 180.691406 C 149.566406 180.5625 149.589844 180.429688 149.597656 180.296875 C 149.605469 180.160156 149.597656 180.027344 149.570312 179.894531 C 149.542969 179.761719 149.5 179.632812 149.441406 179.511719 C 149.382812 179.390625 149.3125 179.277344 149.226562 179.175781 C 149.136719 179.070312 149.039062 178.980469 148.929688 178.902344 C 148.820312 178.824219 148.703125 178.761719 148.578125 178.710938 C 148.449219 178.664062 148.320312 178.628906 148.1875 178.613281 C 148.050781 178.597656 147.917969 178.601562 147.785156 178.617188 C 145.398438 178.617188 144.964844 182.308594 147.503906 182.308594 L 147.664062 182.308594 C 152.347656 186.105469 157.203125 189.726562 161.921875 193.503906 C 165.839844 196.65625 170.296875 200.609375 175.277344 201.949219 C 172.054688 204.230469 168.835938 206.511719 165.648438 208.914062 C 162.527344 205.203125 159.101562 201.796875 155.375 198.695312 C 151.4375 195.117188 147.257812 191.84375 142.839844 188.875 C 142.90625 188.742188 142.957031 188.605469 142.992188 188.460938 C 143.023438 188.316406 143.039062 188.167969 143.035156 188.019531 C 143.03125 187.871094 143.007812 187.726562 142.964844 187.585938 C 142.925781 187.441406 142.867188 187.308594 142.789062 187.179688 C 142.714844 187.054688 142.621094 186.9375 142.515625 186.835938 C 142.414062 186.730469 142.296875 186.640625 142.167969 186.566406 C 142.039062 186.492188 141.902344 186.433594 141.761719 186.394531 C 141.617188 186.355469 141.472656 186.335938 141.324219 186.332031 C 138.9375 186.332031 138.488281 190.023438 141.046875 190.023438 C 141.332031 190.023438 141.605469 189.964844 141.863281 189.847656 C 145.316406 194.175781 149.109375 198.171875 153.25 201.84375 C 156.433594 205.015625 159.867188 207.882812 163.558594 210.445312 L 158.859375 213.929688 L 156.890625 215.375 C 153.511719 211.890625 149.558594 208.828125 146.113281 205.519531 C 142.683594 202.046875 139.03125 198.824219 135.160156 195.855469 C 135.238281 195.726562 135.300781 195.589844 135.34375 195.441406 C 135.386719 195.296875 135.410156 195.148438 135.414062 194.996094 C 135.417969 194.84375 135.402344 194.691406 135.367188 194.546875 C 135.332031 194.398438 135.277344 194.257812 135.207031 194.121094 C 135.132812 193.988281 135.046875 193.867188 134.941406 193.753906 C 134.835938 193.644531 134.722656 193.550781 134.59375 193.46875 C 134.460938 193.390625 134.324219 193.328125 134.179688 193.28125 C 134.035156 193.238281 133.886719 193.214844 133.734375 193.210938 C 131.347656 193.210938 130.894531 196.898438 133.4375 196.898438 C 133.558594 196.917969 133.679688 196.917969 133.804688 196.898438 C 136.171875 201.566406 140.089844 205.1875 143.796875 208.808594 C 146.863281 212.058594 150.144531 215.074219 153.632812 217.863281 L 148.828125 221.347656 C 146.269531 218.125 142.335938 215.460938 139.515625 212.640625 C 136.074219 209.121094 132.453125 205.800781 128.648438 202.679688 C 128.835938 202.417969 128.941406 202.128906 128.96875 201.808594 C 128.992188 201.492188 128.933594 201.1875 128.792969 200.898438 C 128.652344 200.613281 128.445312 200.382812 128.175781 200.207031 C 127.90625 200.035156 127.613281 199.941406 127.292969 199.929688 C 124.90625 199.929688 124.453125 203.621094 126.996094 203.621094 C 127.171875 203.609375 127.347656 203.574219 127.515625 203.515625 C 130.207031 207.714844 133.363281 211.519531 136.988281 214.9375 C 139.808594 217.925781 142.789062 220.746094 145.921875 223.402344 L 139.21875 228.363281 C 136.636719 224.554688 133.734375 221.007812 130.511719 217.722656 C 127.769531 214.542969 124.757812 211.640625 121.476562 209.019531 C 122.277344 207.9375 121.996094 206.128906 120.203125 206.128906 C 117.820312 206.128906 117.367188 209.820312 119.925781 209.820312 L 120.101562 209.820312 C 122.191406 213.308594 124.605469 216.558594 127.34375 219.570312 C 130.285156 223.339844 133.535156 226.824219 137.09375 230.015625 L 137.269531 230.015625 C 135.351562 231.460938 133.453125 232.925781 131.558594 234.386719 C 129.085938 231.148438 126.433594 228.066406 123.601562 225.140625 C 120.359375 221.660156 116.984375 217.273438 112.789062 214.972656 C 112.84375 214.84375 112.882812 214.710938 112.90625 214.574219 C 112.929688 214.4375 112.933594 214.296875 112.921875 214.15625 C 112.90625 214.019531 112.878906 213.882812 112.828125 213.75 C 112.78125 213.621094 112.71875 213.496094 112.640625 213.378906 C 112.558594 213.265625 112.464844 213.160156 112.359375 213.070312 C 112.253906 212.980469 112.136719 212.902344 112.011719 212.839844 C 111.886719 212.777344 111.753906 212.734375 111.617188 212.707031 C 111.480469 212.679688 111.34375 212.667969 111.203125 212.675781 C 108.816406 212.675781 108.363281 216.367188 110.925781 216.367188 C 111.050781 216.382812 111.179688 216.382812 111.308594 216.367188 C 113.046875 220.492188 117.089844 224.011719 120.011719 227.285156 C 122.839844 230.496094 125.839844 233.539062 129.015625 236.40625 C 127.273438 237.730469 125.53125 239.089844 123.949219 240.445312 C 121.65625 237.148438 119.109375 234.058594 116.304688 231.183594 C 113.257812 227.703125 110.089844 223.695312 106.03125 221.363281 C 106.085938 221.234375 106.121094 221.101562 106.140625 220.964844 C 106.160156 220.828125 106.164062 220.691406 106.148438 220.554688 C 106.132812 220.414062 106.101562 220.28125 106.050781 220.152344 C 106 220.023438 105.9375 219.902344 105.855469 219.789062 C 105.777344 219.675781 105.683594 219.574219 105.578125 219.484375 C 105.472656 219.394531 105.355469 219.320312 105.230469 219.261719 C 105.105469 219.199219 104.976562 219.15625 104.839844 219.128906 C 104.707031 219.101562 104.566406 219.09375 104.429688 219.101562 C 102.042969 219.101562 101.609375 222.792969 104.152344 222.792969 C 104.4375 222.789062 104.707031 222.730469 104.96875 222.617188 C 106.816406 226.796875 110.4375 230.433594 113.378906 233.847656 C 115.804688 236.960938 118.433594 239.890625 121.265625 242.640625 L 116.445312 246.523438 C 114.074219 243.230469 110.800781 240.359375 108.261719 237.3125 C 105.316406 233.832031 102.601562 228.886719 98.789062 226.222656 C 98.960938 225.957031 99.058594 225.667969 99.074219 225.351562 C 99.089844 225.035156 99.023438 224.738281 98.878906 224.457031 C 98.730469 224.175781 98.523438 223.953125 98.253906 223.785156 C 97.988281 223.617188 97.695312 223.53125 97.378906 223.523438 C 94.992188 223.523438 94.539062 227.214844 97.097656 227.214844 C 97.222656 227.222656 97.34375 227.222656 97.464844 227.214844 C 98.371094 231.652344 102.148438 235.917969 104.863281 239.402344 C 107.382812 243.015625 110.285156 246.289062 113.570312 249.222656 L 112.386719 250.285156 L 112.386719 250.195312 C 109.269531 247.183594 105.125 245.058594 101.609375 242.519531 C 97.8125 239.800781 94.191406 236.808594 90.222656 234.351562 C 90.265625 234.226562 90.292969 234.097656 90.304688 233.964844 C 90.316406 233.832031 90.3125 233.699219 90.289062 233.570312 C 90.269531 233.4375 90.230469 233.3125 90.179688 233.1875 C 90.125 233.066406 90.058594 232.953125 89.976562 232.847656 C 89.898438 232.742188 89.804688 232.648438 89.699219 232.566406 C 89.59375 232.484375 89.480469 232.414062 89.359375 232.363281 C 89.238281 232.308594 89.113281 232.269531 88.980469 232.246094 C 88.851562 232.222656 88.71875 232.21875 88.585938 232.226562 C 86.21875 232.226562 85.765625 235.917969 88.308594 235.917969 C 88.78125 235.914062 89.199219 235.757812 89.558594 235.449219 C 92.394531 238.9375 95.644531 241.984375 99.3125 244.589844 C 102.820312 247.539062 106.683594 249.898438 110.90625 251.675781 C 109.671875 252.824219 108.453125 253.976562 107.25 255.160156 C 103.917969 252.324219 100.382812 249.761719 96.648438 247.480469 C 92.519531 244.660156 88.359375 241.945312 84.007812 239.488281 C 84.066406 239.359375 84.105469 239.222656 84.132812 239.078125 C 84.15625 238.9375 84.164062 238.796875 84.15625 238.652344 C 84.144531 238.507812 84.117188 238.367188 84.074219 238.230469 C 84.027344 238.097656 83.96875 237.964844 83.890625 237.84375 C 83.8125 237.722656 83.722656 237.613281 83.621094 237.515625 C 83.515625 237.414062 83.402344 237.328125 83.277344 237.257812 C 83.152344 237.1875 83.019531 237.132812 82.878906 237.097656 C 82.742188 237.058594 82.601562 237.035156 82.457031 237.035156 C 80.070312 237.035156 79.617188 240.726562 82.179688 240.726562 C 82.535156 240.71875 82.867188 240.621094 83.171875 240.429688 C 89.421875 246.574219 97.292969 253.347656 105.351562 257.023438 C 104.445312 257.945312 103.488281 258.761719 102.585938 259.773438 C 102.492188 259.867188 102.429688 259.976562 102.394531 260.105469 C 99.78125 256.882812 94.871094 255.628906 91.023438 254.550781 C 84.507812 252.679688 77.878906 252.097656 71.140625 252.808594 C 70.148438 252.914062 69.867188 254.445312 71.015625 254.429688 L 71.488281 254.429688 C 73.453125 258.3125 78.957031 259.511719 82.890625 260.433594 C 87.714844 261.488281 92.597656 262.070312 97.535156 262.175781 C 86.460938 263.394531 71.015625 264.804688 67.257812 275.894531 C 67.011719 276.609375 67.902344 276.957031 68.386719 276.539062 L 70.914062 274.46875 C 79.898438 274.242188 90.167969 273.929688 97.34375 268.480469 C 92.660156 275.285156 89.613281 282.6875 90.378906 291.480469 C 90.378906 292.507812 92.121094 292.195312 92.121094 291.269531 C 92.121094 291.269531 92.121094 291.269531 92.121094 291.167969 C 96.683594 289.980469 99.675781 282.859375 101.191406 278.976562 C 102.707031 275.09375 106.257812 266.09375 102.394531 262.699219 L 102.550781 262.453125 C 102.566406 262.390625 102.566406 262.328125 102.550781 262.261719 C 102.660156 262.175781 102.703125 262.0625 102.675781 261.921875 C 102.648438 261.78125 102.566406 261.691406 102.425781 261.652344 C 102.4375 261.589844 102.4375 261.527344 102.425781 261.460938 C 102.636719 261.449219 102.777344 261.347656 102.84375 261.148438 C 103.019531 261.167969 103.175781 261.128906 103.316406 261.027344 C 105.054688 260.015625 106.570312 258.953125 108.171875 257.894531 C 108.132812 262.769531 108.511719 267.617188 109.304688 272.429688 C 109.824219 278.304688 110.761719 284.105469 112.125 289.84375 C 111.835938 290.078125 111.636719 290.375 111.539062 290.734375 C 111.4375 291.09375 111.449219 291.449219 111.578125 291.796875 C 111.707031 292.148438 111.925781 292.429688 112.234375 292.640625 C 112.542969 292.851562 112.882812 292.953125 113.257812 292.941406 C 113.648438 292.941406 114.007812 292.832031 114.332031 292.613281 C 114.65625 292.398438 114.894531 292.109375 115.046875 291.75 C 115.199219 291.386719 115.238281 291.015625 115.167969 290.632812 C 115.09375 290.246094 114.921875 289.914062 114.648438 289.632812 C 114.910156 279.394531 113.363281 266.5625 109.546875 257.023438 C 111.082031 255.996094 112.5625 254.914062 114.058594 253.851562 C 114.042969 259.074219 114.804688 264.183594 116.339844 269.175781 C 117.453125 273.511719 117.820312 279.117188 119.683594 283.332031 C 119.425781 283.578125 119.261719 283.875 119.1875 284.21875 C 119.113281 284.566406 119.144531 284.902344 119.273438 285.234375 C 119.40625 285.5625 119.617188 285.824219 119.914062 286.023438 C 120.207031 286.222656 120.527344 286.324219 120.882812 286.324219 C 121.273438 286.328125 121.632812 286.222656 121.960938 286.007812 C 122.289062 285.796875 122.527344 285.511719 122.683594 285.152344 C 122.839844 284.792969 122.882812 284.421875 122.816406 284.039062 C 122.75 283.652344 122.578125 283.320312 122.3125 283.035156 C 123.113281 278.941406 121.386719 274.328125 120.273438 270.445312 C 118.53125 264.648438 116.878906 258.851562 115.15625 253.035156 L 118.289062 250.71875 C 121.644531 261.796875 125.929688 272.507812 131.140625 282.84375 C 131.089844 282.96875 131.058594 283.101562 131.042969 283.234375 C 131.027344 283.371094 131.027344 283.503906 131.046875 283.636719 C 131.0625 283.773438 131.097656 283.902344 131.148438 284.027344 C 131.199219 284.152344 131.265625 284.269531 131.347656 284.378906 C 131.429688 284.488281 131.519531 284.585938 131.625 284.667969 C 131.730469 284.753906 131.847656 284.824219 131.96875 284.882812 C 132.09375 284.9375 132.222656 284.976562 132.355469 285 C 132.488281 285.023438 132.625 285.03125 132.757812 285.019531 C 134.882812 285.019531 135.441406 282.113281 133.734375 281.539062 C 133.558594 276.695312 131.332031 272.414062 129.222656 268.0625 C 126.289062 261.839844 122.988281 255.820312 119.316406 250.003906 C 121.5 248.367188 123.65625 246.707031 125.792969 245.027344 C 126.210938 249.074219 127.21875 252.96875 128.824219 256.707031 C 131.015625 262.386719 133.054688 268.253906 135.789062 273.738281 C 135.757812 273.863281 135.738281 273.992188 135.738281 274.121094 C 135.738281 274.25 135.753906 274.378906 135.78125 274.503906 C 135.8125 274.632812 135.859375 274.753906 135.917969 274.867188 C 135.976562 274.984375 136.050781 275.089844 136.136719 275.1875 C 136.222656 275.285156 136.316406 275.371094 136.425781 275.445312 C 136.53125 275.519531 136.644531 275.582031 136.765625 275.628906 C 136.886719 275.671875 137.011719 275.703125 137.140625 275.722656 C 137.269531 275.738281 137.398438 275.738281 137.527344 275.722656 C 139.652344 275.722656 140.226562 272.796875 138.503906 272.238281 C 138.347656 267.296875 136.414062 263.011719 134.289062 258.519531 C 131.957031 253.609375 129.761719 248.683594 127.535156 243.738281 L 132.480469 239.558594 C 133.445312 245.507812 134.972656 251.3125 137.058594 256.96875 C 139.339844 262.960938 141.394531 270.152344 145.015625 275.476562 C 144.96875 275.605469 144.9375 275.734375 144.921875 275.867188 C 144.910156 276 144.910156 276.132812 144.929688 276.269531 C 144.949219 276.402344 144.984375 276.53125 145.035156 276.652344 C 145.089844 276.777344 145.152344 276.894531 145.234375 277 C 145.316406 277.109375 145.40625 277.203125 145.511719 277.289062 C 145.617188 277.371094 145.730469 277.441406 145.855469 277.5 C 145.976562 277.554688 146.101562 277.59375 146.234375 277.617188 C 146.367188 277.640625 146.5 277.648438 146.636719 277.636719 C 148.882812 277.636719 149.367188 274.433594 147.332031 274.035156 C 147.714844 269.070312 145.277344 264.648438 143.101562 260.105469 C 139.59375 253.039062 136.519531 245.789062 133.871094 238.355469 L 139.6875 233.65625 C 140.667969 238.390625 142.078125 242.992188 143.917969 247.464844 C 146.234375 253.433594 148.0625 260.015625 151.144531 265.640625 C 151.085938 265.773438 151.039062 265.90625 151.015625 266.050781 C 150.988281 266.191406 150.976562 266.335938 150.988281 266.476562 C 150.996094 266.621094 151.023438 266.761719 151.066406 266.898438 C 151.109375 267.039062 151.167969 267.167969 151.246094 267.289062 C 151.320312 267.414062 151.410156 267.523438 151.515625 267.625 C 151.617188 267.722656 151.730469 267.808594 151.855469 267.882812 C 151.980469 267.953125 152.113281 268.007812 152.253906 268.046875 C 152.390625 268.089844 152.53125 268.109375 152.675781 268.113281 C 153.066406 268.117188 153.425781 268.011719 153.75 267.800781 C 154.078125 267.585938 154.316406 267.304688 154.46875 266.945312 C 154.625 266.589844 154.667969 266.21875 154.597656 265.835938 C 154.527344 265.453125 154.355469 265.121094 154.085938 264.839844 C 153.757812 259.269531 151.230469 254.078125 149.003906 249.03125 C 146.53125 243.425781 143.972656 237.851562 141.410156 232.261719 C 143.859375 230.289062 146.316406 228.351562 148.777344 226.449219 C 149.503906 230.550781 150.664062 234.527344 152.257812 238.375 C 154.382812 244.242188 154.574219 250.929688 156.890625 256.585938 C 156.6875 256.847656 156.566406 257.140625 156.527344 257.464844 C 156.488281 257.792969 156.539062 258.109375 156.679688 258.40625 C 156.820312 258.707031 157.027344 258.945312 157.304688 259.125 C 157.582031 259.304688 157.882812 259.398438 158.214844 259.40625 C 158.578125 259.414062 158.921875 259.328125 159.238281 259.144531 C 159.554688 258.964844 159.804688 258.714844 159.984375 258.398438 C 160.167969 258.082031 160.253906 257.742188 160.25 257.375 C 160.242188 257.011719 160.144531 256.671875 159.953125 256.359375 C 161.90625 246.035156 155.253906 234.316406 150.570312 225.160156 L 152.902344 223.417969 L 157.429688 219.9375 C 157.628906 219.96875 157.824219 219.96875 158.023438 219.9375 C 159.25 225.402344 160.773438 230.78125 162.601562 236.078125 C 164.152344 241.074219 164.933594 246.679688 167.460938 251.277344 C 167.402344 251.40625 167.363281 251.542969 167.339844 251.683594 C 167.3125 251.824219 167.308594 251.964844 167.320312 252.109375 C 167.328125 252.25 167.359375 252.390625 167.402344 252.523438 C 167.449219 252.660156 167.507812 252.789062 167.585938 252.90625 C 167.660156 253.027344 167.753906 253.136719 167.855469 253.234375 C 167.957031 253.332031 168.074219 253.417969 168.195312 253.488281 C 168.320312 253.558594 168.453125 253.613281 168.589844 253.652344 C 168.726562 253.6875 168.867188 253.710938 169.007812 253.714844 C 169.378906 253.714844 169.722656 253.621094 170.039062 253.429688 C 170.355469 253.238281 170.601562 252.980469 170.773438 252.652344 C 170.945312 252.324219 171.019531 251.976562 170.996094 251.605469 C 170.972656 251.238281 170.855469 250.902344 170.644531 250.597656 C 170.785156 244.835938 168.3125 238.933594 166.433594 233.570312 C 164.777344 228.1875 162.371094 223.164062 159.207031 218.507812 C 161.65625 216.6875 164.109375 214.875 166.570312 213.074219 C 166.886719 218.785156 168.957031 224.359375 170.351562 229.878906 C 171.742188 235.398438 172.492188 241.839844 174.808594 247.289062 C 174.738281 247.421875 174.683594 247.558594 174.648438 247.703125 C 174.617188 247.847656 174.601562 247.992188 174.601562 248.140625 C 174.605469 248.292969 174.628906 248.4375 174.667969 248.582031 C 174.707031 248.722656 174.765625 248.859375 174.839844 248.988281 C 174.914062 249.117188 175.007812 249.230469 175.109375 249.335938 C 175.214844 249.441406 175.332031 249.53125 175.460938 249.609375 C 175.589844 249.683594 175.722656 249.742188 175.867188 249.78125 C 176.011719 249.824219 176.15625 249.84375 176.304688 249.847656 C 176.476562 249.851562 176.648438 249.828125 176.816406 249.785156 C 176.984375 249.742188 177.144531 249.675781 177.296875 249.589844 C 177.449219 249.503906 177.585938 249.398438 177.710938 249.277344 C 177.832031 249.15625 177.9375 249.019531 178.027344 248.871094 C 178.117188 248.71875 178.183594 248.5625 178.230469 248.394531 C 178.277344 248.226562 178.300781 248.054688 178.300781 247.882812 C 178.304688 247.707031 178.28125 247.535156 178.238281 247.367188 C 178.195312 247.199219 178.132812 247.039062 178.046875 246.890625 C 178.308594 240.445312 176.0625 233.65625 174.335938 227.527344 C 172.890625 222.304688 171.429688 216.785156 168.3125 212.292969 C 168.484375 212.082031 168.59375 211.84375 168.644531 211.578125 C 170.964844 209.90625 173.285156 208.246094 175.609375 206.597656 C 176.300781 212.601562 177.339844 218.546875 178.726562 224.429688 C 180.238281 232.332031 181.476562 240.375 183.441406 248.195312 C 183.273438 248.457031 183.183594 248.746094 183.167969 249.058594 C 183.15625 249.375 183.222656 249.667969 183.367188 249.945312 C 183.511719 250.222656 183.71875 250.445312 183.984375 250.613281 C 184.25 250.777344 184.539062 250.867188 184.851562 250.875 C 185.210938 250.882812 185.546875 250.796875 185.863281 250.621094 C 186.175781 250.441406 186.421875 250.199219 186.601562 249.890625 C 186.78125 249.578125 186.871094 249.242188 186.871094 248.882812 C 186.871094 248.523438 186.777344 248.191406 186.59375 247.882812 C 188.003906 241.109375 184.851562 233.359375 183.339844 226.742188 C 181.703125 219.585938 180.519531 211.980469 177.699219 205.136719 C 187.605469 198.171875 197.652344 191.414062 207.957031 185.027344 L 213.566406 181.542969 C 210.003906 185.484375 207.167969 189.886719 205.050781 194.757812 C 201.429688 203.464844 201.027344 213.265625 200.699219 222.617188 C 200.367188 223.261719 200.054688 223.90625 199.742188 224.550781 C 199.566406 224.933594 200.140625 225.054688 200.351562 224.792969 L 200.664062 224.394531 C 200.765625 225.230469 202.125 225.140625 202.179688 224.269531 C 202.230469 223.402344 202.179688 222.929688 202.316406 222.269531 C 211.527344 210.082031 221.75 192.214844 220.859375 177.15625 C 227.824219 173.117188 234.789062 169.214844 241.859375 165.628906 C 230.835938 181.125 224.445312 201.652344 229.097656 220.40625 C 229.160156 220.621094 229.300781 220.714844 229.523438 220.691406 C 229.746094 220.664062 229.863281 220.542969 229.878906 220.320312 L 229.878906 220.144531 C 229.9375 220.207031 230.011719 220.238281 230.097656 220.238281 C 230.183594 220.238281 230.257812 220.207031 230.316406 220.144531 C 235.957031 211.769531 239.542969 201.425781 242.101562 191.710938 C 244.296875 183.371094 246.769531 173.429688 244.367188 164.96875 C 244.335938 164.859375 244.273438 164.777344 244.171875 164.722656 C 244.074219 164.667969 243.96875 164.65625 243.859375 164.6875 C 250.128906 161.589844 256.46875 158.699219 262.925781 156.175781 C 268.671875 153.910156 274.589844 152.269531 280.679688 151.253906 C 286.773438 150.238281 292.902344 149.871094 299.074219 150.152344 C 281.816406 158.648438 268.273438 174.351562 260.125 191.503906 C 259.652344 192.511719 261.359375 193.121094 261.863281 192.199219 C 271.371094 174.457031 284.742188 161.816406 301.074219 150.847656 C 299.890625 160.128906 287.84375 169.6875 281.644531 175.691406 C 275.167969 181.980469 268.097656 187.410156 261.183594 193.105469 C 261.035156 193.214844 260.945312 193.363281 260.914062 193.546875 C 260.886719 193.734375 260.925781 193.902344 261.039062 194.054688 C 261.148438 194.203125 261.296875 194.292969 261.480469 194.324219 C 261.667969 194.351562 261.835938 194.3125 261.988281 194.203125 C 272.183594 187.597656 281.285156 179.730469 289.289062 170.589844 C 294.25 165.070312 301.875 158.160156 302.085938 150.273438 C 313.214844 151.210938 324.15625 153.195312 334.90625 156.226562 C 336.105469 156.644531 337.394531 154.660156 335.984375 154 Z M 56.128906 144.945312 C 62.410156 145.175781 68.34375 146.734375 73.925781 149.628906 L 72.828125 150.082031 C 64.148438 149.007812 55.546875 147.492188 47.023438 145.535156 C 50.046875 145.160156 53.082031 144.960938 56.128906 144.945312 Z M 57.644531 158.527344 C 53.414062 159.308594 49.148438 159.761719 44.882812 160.265625 C 47.890625 158.675781 51.011719 157.355469 54.25 156.3125 C 60.011719 154.800781 65.898438 153.667969 71.523438 151.699219 L 72.21875 151.699219 C 72.339844 151.980469 72.539062 152.1875 72.808594 152.324219 C 73.082031 152.464844 73.367188 152.5 73.664062 152.429688 L 74.480469 152.273438 C 73.402344 153.25 72.324219 154.226562 71.261719 155.21875 C 66.996094 157.183594 61.613281 157.722656 57.628906 158.527344 Z M 59.386719 176.476562 C 61.265625 172.488281 62.171875 168.066406 64.886719 164.480469 C 67.097656 161.679688 69.449219 159.003906 71.941406 156.453125 C 73.191406 155.925781 74.308594 155.1875 75.28125 154.242188 C 74.734375 157.109375 73.8125 159.851562 72.519531 162.464844 C 71.226562 165.082031 69.605469 167.476562 67.65625 169.652344 C 65.050781 172.117188 62.289062 174.390625 59.367188 176.476562 Z M 272.03125 136.1875 C 266.808594 124.191406 267.210938 112.089844 266.617188 99.046875 C 272.15625 110.105469 273.128906 123.945312 272.03125 136.1875 Z M 186.714844 153.597656 C 195.804688 141.167969 207.609375 137.058594 222.359375 134.96875 C 213.113281 146.058594 200.105469 149.019531 186.714844 153.511719 Z M 217.847656 158.019531 C 226.554688 148.355469 236.445312 141.636719 249.1875 139.511719 C 241.804688 150.761719 230.699219 155.078125 217.761719 157.933594 Z M 72.585938 254.183594 C 77.488281 254.007812 82.359375 254.34375 87.191406 255.195312 C 91.632812 256.046875 98.195312 257.335938 101.644531 260.558594 C 96.59375 260.105469 91.5625 259.773438 86.546875 258.9375 C 82.386719 258.257812 75.648438 257.492188 72.585938 254.183594 Z M 71.992188 273.335938 C 75.792969 270.0625 80.105469 267.742188 84.929688 266.371094 C 90.414062 264.890625 96.019531 263.96875 101.503906 262.472656 C 97.359375 266.285156 93.6875 269.800781 88.0625 271.542969 C 82.890625 273.058594 77.390625 273.039062 71.992188 273.320312 Z M 99.484375 276.402344 C 98.09375 280.160156 96.003906 285.925781 92.414062 288.589844 C 93.410156 279.101562 96.734375 271.527344 102.027344 263.414062 C 103.472656 266.71875 100.617188 273.300781 99.484375 276.382812 Z M 186.714844 170.992188 C 200.644531 164.757812 212.972656 167.074219 227.824219 168.710938 L 222.828125 171.652344 C 210.621094 173.882812 199.234375 174.351562 186.714844 170.992188 Z M 202.386719 219.167969 C 202.734375 212.007812 203.894531 204.980469 205.867188 198.085938 C 208.171875 191.234375 211.71875 185.105469 216.507812 179.699219 L 219.78125 177.746094 C 219.675781 193.242188 209.664062 206.058594 202.386719 219.167969 Z M 238.742188 195.664062 C 236.410156 204.023438 232.699219 211.699219 229.722656 219.796875 C 229.722656 199.84375 232.648438 181.980469 243.410156 165.054688 C 243.398438 165.101562 243.398438 165.148438 243.410156 165.195312 C 245.289062 174.769531 241.371094 186.539062 238.8125 195.664062 Z M 243.582031 164.792969 Z M 258.433594 196.777344 C 258.539062 196.777344 258.519531 196.953125 258.433594 196.953125 C 258.347656 196.953125 258.382812 196.777344 258.503906 196.777344 Z M 200.765625 227.265625 C 200.890625 227.265625 200.765625 227.441406 200.765625 227.441406 C 200.765625 227.441406 200.734375 227.265625 200.835938 227.265625 Z M 165.824219 134.792969 Z M 165.824219 134.792969 " fill-opacity="1" fill-rule="nonzero"/></g></svg>