<svg xmlns="http://www.w3.org/2000/svg" xmlns:xlink="http://www.w3.org/1999/xlink" width="500" zoomAndPan="magnify" viewBox="0 0 375 374.999991" height="500" preserveAspectRatio="xMidYMid meet" version="1.0"><defs><clipPath id="1d29360dd7"><path d="M 187.5 0 C 83.945312 0 0 83.945312 0 187.5 C 0 291.054688 83.945312 375 187.5 375 C 291.054688 375 375 291.054688 375 187.5 C 375 83.945312 291.054688 0 187.5 0 Z M 187.5 0 " clip-rule="nonzero"/></clipPath><clipPath id="f726ac9977"><path d="M 87.863281 49 L 287 49 L 287 326 L 87.863281 326 Z M 87.863281 49 " clip-rule="nonzero"/></clipPath></defs><g clip-path="url(#1d29360dd7)"><rect x="-37.5" width="450" fill="#a2c36e" y="-37.499999" height="449.999989" fill-opacity="1"/></g><g clip-path="url(#f726ac9977)"><path fill="#fffff9" d="M 267.898438 266.511719 C 264.503906 265.097656 261.25 263.421875 257.773438 262.207031 C 254.058594 260.90625 250.222656 259.957031 246.335938 259.375 C 242.582031 258.8125 238.792969 258.542969 234.996094 258.640625 C 231.3125 258.730469 227.695312 259.277344 224.042969 259.710938 C 220.238281 260.160156 216.167969 260.523438 212.5 259.175781 C 208.804688 257.820312 206.527344 254.605469 204.085938 251.714844 C 203.78125 251.355469 203.46875 251.003906 203.152344 250.65625 C 208.488281 248.894531 214.074219 247.574219 219.703125 247.800781 C 221.652344 247.878906 223.578125 248.179688 225.4375 248.773438 C 227.265625 249.359375 228.886719 250.359375 230.625 251.148438 C 233.605469 252.503906 236.824219 253.367188 240.125 253.074219 C 243.980469 252.730469 247.417969 250.648438 251.347656 250.792969 C 254.484375 250.910156 257.808594 252.035156 260.671875 253.269531 C 263.714844 254.582031 266.578125 256.320312 269.296875 258.203125 C 272.980469 260.753906 276.460938 263.644531 279.6875 266.765625 C 279.34375 267.027344 278.980469 267.257812 278.589844 267.457031 C 275.195312 269.1875 271.175781 267.871094 267.898438 266.511719 Z M 195.847656 245.910156 C 193.765625 245.402344 191.53125 245.480469 189.675781 246.414062 C 189.84375 244.484375 190.070312 242.5625 190.347656 240.644531 C 190.480469 240.355469 190.535156 240.03125 190.484375 239.703125 C 190.84375 237.378906 191.277344 235.066406 191.796875 232.761719 C 193.074219 227.078125 194.480469 221.445312 195.140625 215.648438 C 195.929688 208.734375 195.820312 201.730469 194.875 194.84375 C 198.753906 194.386719 202.453125 194.777344 204.960938 198.351562 C 205.265625 198.785156 205.542969 199.234375 205.796875 199.691406 C 205.832031 200 205.96875 200.285156 206.214844 200.492188 C 207.613281 203.359375 208.253906 206.558594 209.199219 209.601562 C 210.308594 213.183594 211.914062 216.394531 214.714844 218.949219 C 217.171875 221.191406 219.996094 223.027344 222.8125 224.785156 C 225.527344 226.480469 228.296875 228.097656 231.09375 229.652344 C 229.972656 229.921875 228.875 230.316406 227.832031 230.898438 C 224.164062 232.929688 221.597656 236.300781 217.425781 237.453125 C 213.382812 238.574219 209.09375 238.457031 205.238281 240.265625 C 202.21875 241.683594 199.839844 244.042969 199.136719 247.273438 C 198.132812 246.675781 197.046875 246.207031 195.847656 245.910156 Z M 180.878906 232.816406 C 173.898438 229.230469 166.847656 225.121094 160.789062 220.113281 C 160.480469 219.859375 160.167969 219.597656 159.859375 219.332031 C 162.359375 217.179688 164.847656 215.214844 167.652344 213.453125 C 170.417969 211.714844 173.246094 210.011719 175.652344 207.785156 C 179.46875 204.253906 182.296875 198.695312 180.800781 193.496094 C 181.074219 193.484375 181.347656 193.480469 181.625 193.484375 C 185.113281 193.542969 188.738281 194.617188 191.875 196.167969 C 192.570312 201.660156 192.714844 207.226562 192.28125 212.773438 C 191.828125 218.574219 190.558594 224.203125 189.246094 229.855469 C 188.730469 232.089844 188.257812 234.324219 187.851562 236.570312 C 185.839844 234.808594 183.453125 233.460938 180.878906 232.816406 Z M 155.324219 241.394531 C 147.050781 244.835938 137.722656 244.28125 129.25 241.914062 C 128.707031 241.761719 128.164062 241.601562 127.621094 241.4375 C 127.445312 241.332031 127.25 241.265625 127.042969 241.253906 C 123.269531 240.058594 119.605469 238.554688 116.011719 236.902344 C 111.875 235 107.6875 233.054688 103.714844 230.820312 C 100.085938 228.78125 97.40625 226.0625 95.585938 222.300781 C 93.910156 218.847656 93.003906 215.035156 92.128906 211.3125 C 91.292969 207.777344 90.496094 203.878906 91.339844 200.265625 C 91.628906 199.027344 92.136719 197.945312 92.816406 197.027344 C 95.382812 201.863281 98.246094 206.785156 102.496094 210.304688 C 104.871094 212.269531 107.601562 213.746094 110.628906 214.414062 C 114.125 215.1875 117.722656 215.066406 121.269531 215.355469 C 127.800781 215.886719 134.550781 217.617188 139.242188 222.464844 C 141.601562 224.90625 143.574219 227.609375 146.3125 229.660156 C 148.78125 231.511719 151.636719 232.820312 154.582031 233.714844 C 158.472656 234.890625 162.519531 235.371094 166.585938 235.527344 C 162.796875 237.433594 159.15625 239.804688 155.324219 241.394531 Z M 129.421875 254.445312 C 125.246094 256.234375 120.503906 255.027344 116.183594 256.214844 C 115.964844 256.277344 115.753906 256.347656 115.542969 256.421875 C 118.628906 251.761719 122.578125 247.734375 127.222656 244.566406 C 130.679688 245.601562 134.210938 246.371094 137.800781 246.734375 C 135.546875 249.785156 132.96875 252.925781 129.421875 254.445312 Z M 109.445312 250.394531 C 109.039062 246.472656 110.117188 242.402344 112.652344 239.351562 C 112.769531 239.210938 112.855469 239.066406 112.917969 238.917969 C 113.953125 239.398438 114.988281 239.871094 116.027344 240.335938 C 118.488281 241.429688 120.996094 242.457031 123.546875 243.363281 C 118.757812 247.015625 114.707031 251.546875 111.648438 256.742188 C 111.460938 256.449219 111.292969 256.113281 111.117188 255.789062 C 110.203125 254.136719 109.640625 252.273438 109.445312 250.394531 Z M 123.027344 197.824219 C 127.269531 197.414062 131.367188 196.015625 135.652344 196.886719 C 139.382812 197.640625 142.8125 199.542969 145.394531 202.347656 C 148.1875 205.378906 149.914062 209.433594 151.332031 213.25 C 152.601562 216.664062 155.109375 219.363281 157.835938 221.710938 C 162.578125 225.800781 167.976562 229.308594 173.507812 232.417969 C 168.0625 232.539062 162.542969 232.46875 157.238281 231.183594 C 154.410156 230.5 151.691406 229.460938 149.238281 227.886719 C 146.496094 226.125 144.535156 223.640625 142.382812 221.246094 C 138.054688 216.417969 132.261719 213.847656 125.933594 212.789062 C 119.617188 211.734375 112.425781 212.941406 106.742188 209.515625 C 101.332031 206.25 98.089844 200.332031 95.222656 194.871094 C 96.296875 194.242188 97.53125 193.820312 98.890625 193.648438 C 107.234375 192.570312 114.621094 198.628906 123.027344 197.824219 Z M 160.421875 198.800781 C 163.964844 199.125 167.121094 199.214844 170.457031 197.664062 C 172.066406 196.914062 173.476562 195.828125 175.035156 194.992188 C 175.085938 194.964844 175.136719 194.945312 175.183594 194.917969 C 173.957031 196.34375 172.691406 197.734375 171.355469 199.054688 C 170.683594 199.714844 169.988281 200.382812 169.246094 200.953125 C 168.980469 201.15625 168.699219 201.351562 168.410156 201.519531 C 168.300781 201.585938 167.789062 201.824219 167.890625 201.796875 C 165.449219 202.730469 162.824219 203.191406 160.46875 204.367188 C 157.839844 205.683594 155.496094 207.675781 153.300781 209.667969 C 152.167969 206.929688 150.804688 204.253906 149.054688 201.882812 C 148.609375 201.28125 148.136719 200.714844 147.644531 200.175781 C 151.785156 198.914062 156.097656 198.402344 160.421875 198.800781 Z M 157.5625 217.183594 C 156.3125 215.878906 155.21875 214.441406 154.519531 212.800781 C 156.9375 210.578125 159.589844 208.035156 162.671875 206.796875 C 164.894531 205.910156 167.378906 205.539062 169.523438 204.484375 C 171.054688 203.734375 172.371094 202.453125 173.570312 201.269531 C 175.148438 199.71875 176.621094 198.066406 178.050781 196.375 C 178.109375 200.566406 175.042969 204.457031 171.753906 206.976562 C 169.449219 208.746094 166.90625 210.179688 164.472656 211.761719 C 161.988281 213.375 159.796875 215.253906 157.5625 217.183594 Z M 173.0625 171.0625 C 171.527344 172.175781 170.136719 173.402344 168.453125 174.3125 C 166.472656 175.382812 164.273438 175.945312 162.058594 176.289062 C 157.132812 177.054688 152.03125 177.078125 147.058594 177.382812 C 137.601562 177.964844 127.339844 179.234375 119.734375 172.328125 C 118.605469 171.300781 115.347656 168.480469 116.265625 166.703125 C 117.101562 165.089844 120.859375 165.269531 122.308594 165.238281 C 127.398438 165.125 131.777344 166.792969 136.597656 168.105469 C 140.90625 169.28125 144.722656 169 148.597656 166.804688 C 152.707031 164.480469 157.335938 163.699219 162.019531 164.039062 C 162.214844 164.054688 162.390625 164.035156 162.550781 163.992188 C 163.46875 164.300781 164.402344 164.570312 165.328125 164.820312 C 168.097656 165.570312 170.886719 166.246094 173.644531 167.03125 C 175.578125 167.582031 177.566406 168.21875 179.265625 169.320312 C 179.496094 169.46875 179.726562 169.628906 179.949219 169.789062 C 177.648438 169.234375 175.28125 169.460938 173.0625 171.0625 Z M 130.792969 158.976562 C 128.308594 158.265625 125.714844 157.574219 123.417969 156.355469 C 118.921875 153.972656 117.527344 148.941406 114.765625 144.988281 C 112.601562 141.894531 109.953125 139.246094 108.203125 135.863281 C 106.433594 132.441406 104.636719 127.796875 105.15625 123.859375 C 105.289062 122.851562 105.449219 122.449219 106.324219 122.425781 C 107.644531 122.390625 109.070312 122.992188 110.253906 123.515625 C 112.503906 124.511719 114.65625 125.804688 116.652344 127.296875 C 116.789062 127.449219 116.945312 127.5625 117.109375 127.640625 C 118.269531 128.539062 119.375 129.496094 120.414062 130.503906 C 122.960938 132.976562 124.511719 136.421875 127.320312 138.59375 C 129.433594 140.234375 131.425781 140.269531 133.988281 140.09375 C 136.867188 139.894531 139.347656 141.371094 141.855469 142.582031 C 145.648438 144.40625 149.410156 146.292969 153.144531 148.230469 C 151.410156 151.585938 151.589844 155.253906 153.992188 158.488281 C 154.726562 159.472656 155.582031 160.296875 156.519531 161.007812 C 153.957031 161.300781 151.445312 161.949219 149.101562 163.015625 C 145.496094 162.410156 141.90625 161.710938 138.339844 160.898438 C 135.808594 160.324219 133.289062 159.691406 130.792969 158.976562 Z M 116.460938 117.40625 C 116.414062 116.601562 116.066406 114.3125 116.828125 113.738281 C 117.707031 113.074219 119.464844 114.390625 120.265625 115.058594 C 121.917969 119.625 125.027344 124.019531 128.484375 127.316406 C 132 130.671875 136.242188 133.167969 140.800781 134.816406 C 144.644531 138.117188 149.269531 140.605469 153.832031 142.675781 C 154.265625 143.070312 154.699219 143.46875 155.117188 143.867188 C 155.339844 144.078125 155.582031 144.203125 155.820312 144.265625 C 155.5 144.707031 155.179688 145.148438 154.863281 145.59375 C 151.347656 143.769531 147.808594 141.988281 144.242188 140.261719 C 141.949219 139.148438 139.550781 137.722656 137.03125 137.183594 C 134.5625 136.65625 131.730469 137.839844 129.546875 136.363281 C 128.085938 135.371094 127.171875 133.878906 126.195312 132.457031 C 124.953125 130.652344 123.464844 129.023438 121.847656 127.546875 C 120.933594 126.714844 119.980469 125.914062 118.992188 125.152344 C 117.605469 122.773438 116.625 120.179688 116.460938 117.40625 Z M 123.394531 102.148438 C 124.410156 99.460938 125.957031 96.984375 127.578125 94.625 C 129.039062 92.496094 130.515625 90.199219 132.382812 88.398438 C 132.90625 87.886719 133.484375 87.535156 134.085938 87.128906 C 134.769531 86.667969 134.597656 86.925781 134.582031 87.65625 C 134.539062 89.222656 134.027344 90.730469 133.636719 92.234375 C 133.003906 94.664062 132.902344 96.972656 133.367188 99.390625 C 132.570312 100.234375 131.886719 101.144531 131.382812 101.992188 C 129.492188 105.191406 129.042969 109.554688 128.929688 113.191406 C 128.816406 116.878906 129.429688 120.816406 131.441406 123.976562 C 132.332031 125.371094 133.351562 126.726562 134.429688 128.039062 C 130.3125 125.160156 126.929688 121.320312 124.472656 116.773438 C 123.96875 115.839844 123.550781 114.882812 123.21875 113.914062 C 123.195312 113.765625 123.148438 113.613281 123.066406 113.46875 C 121.902344 109.792969 121.96875 105.925781 123.394531 102.148438 Z M 138.550781 86.113281 C 139.976562 81.460938 145.152344 73.300781 153.722656 69.742188 C 154.492188 69.421875 155.417969 69.265625 156.164062 68.902344 C 156.019531 69.246094 156.019531 69.75 155.882812 70.105469 C 155.15625 71.960938 153.636719 73.460938 152.460938 75.03125 C 150.5625 77.5625 149.773438 80.082031 149.472656 81.296875 C 149.152344 82.585938 148.808594 84.699219 149.199219 87.433594 C 148.335938 89.566406 147.691406 91.792969 147.257812 94.046875 C 146.316406 98.980469 146.246094 104.03125 146.777344 109.019531 C 145.21875 112.652344 144.371094 116.550781 143.996094 120.488281 C 143.980469 120.460938 143.964844 120.429688 143.953125 120.398438 C 143.6875 119.824219 143.5 119.210938 143.320312 118.605469 C 142.90625 117.203125 142.617188 115.761719 142.367188 114.320312 C 142.015625 112.265625 141.796875 110.332031 141.878906 108.25 C 141.988281 105.414062 142.546875 102.539062 142.488281 99.703125 C 142.445312 97.675781 141.367188 96.011719 139.113281 96.152344 C 138.117188 96.214844 137.125 96.574219 136.1875 97.117188 C 136.132812 96.457031 136.132812 95.796875 136.214844 95.132812 C 136.433594 93.34375 136.820312 92.128906 137.296875 90.632812 C 138.082031 88.191406 138.1875 87.292969 138.550781 86.113281 Z M 168.632812 55.878906 C 169.71875 55.035156 170.945312 54.269531 172.242188 53.804688 C 172.933594 53.554688 173.648438 53.386719 174.382812 53.386719 C 174.988281 53.386719 175.582031 53.492188 176.167969 53.609375 C 176.292969 53.636719 176.417969 53.660156 176.542969 53.6875 C 174.707031 55.296875 173.820312 57.882812 173.394531 60.25 C 172.171875 60.945312 171.015625 61.769531 169.949219 62.699219 C 166.039062 66.128906 163.558594 70.882812 162.203125 75.871094 C 161.40625 75.382812 160.335938 75.292969 158.917969 75.828125 C 156.417969 76.769531 154.421875 78.746094 152.820312 80.929688 C 153.027344 80.308594 153.277344 79.699219 153.582031 79.105469 C 154.671875 76.960938 156.398438 75.277344 157.710938 73.28125 C 158.550781 72.003906 159.378906 70.261719 159.378906 68.609375 C 161.515625 63.820312 164.453125 59.121094 168.632812 55.878906 Z M 192.320312 53.871094 C 190.089844 54.832031 188.078125 56.242188 186.402344 58.050781 C 183.253906 57.375 180.039062 57.632812 177.046875 58.625 C 177.40625 57.734375 177.910156 56.910156 178.605469 56.179688 C 178.925781 55.84375 179.25 55.472656 179.527344 55.082031 C 183.433594 52.703125 188.078125 52.351562 192.320312 53.871094 Z M 201.328125 64.269531 C 201.367188 64.316406 201.40625 64.363281 201.449219 64.402344 C 200.863281 67.519531 202.46875 70.652344 203.839844 73.53125 C 205.324219 76.648438 206.082031 79.945312 206.121094 83.328125 C 205.671875 82.976562 205.183594 82.6875 204.660156 82.507812 C 203.726562 78.28125 202.5 74.089844 200.59375 70.195312 C 199.445312 67.855469 197.941406 65.410156 195.957031 63.675781 C 195.859375 63.589844 195.757812 63.507812 195.65625 63.425781 C 196.539062 61.605469 197.425781 59.785156 198.3125 57.964844 C 198.78125 60.285156 199.816406 62.386719 201.328125 64.269531 Z M 201.25 54.019531 C 201.421875 52.988281 201.683594 52.359375 202.8125 52.726562 C 206.316406 53.867188 209.523438 56.933594 211.597656 59.875 C 211.628906 59.925781 211.664062 59.96875 211.699219 60.011719 C 212 61.496094 212.8125 62.84375 213.523438 64.191406 C 214.949219 66.890625 215.46875 69.839844 215.644531 72.835938 C 213.027344 68.167969 209.140625 64.285156 204.363281 61.714844 C 203.996094 61.519531 203.570312 61.46875 203.179688 61.5625 C 202.21875 60.214844 201.570312 58.648438 201.300781 57.015625 C 201.144531 56.054688 201.089844 54.984375 201.25 54.019531 Z M 214.851562 57.976562 C 216.101562 55.140625 221.320312 60.25 222.335938 61.328125 C 224.109375 63.214844 225.5 65.402344 226.496094 67.773438 C 226.113281 68.097656 225.511719 68.671875 225.011719 69.519531 C 222.472656 73.800781 225.257812 80.109375 226.054688 81.640625 C 227.359375 84.152344 228.597656 86.671875 229.253906 89.441406 C 229.375 89.957031 229.46875 90.472656 229.550781 90.992188 C 227.984375 87.597656 225.96875 84.472656 223.214844 81.824219 C 222.273438 80.921875 220.746094 79.273438 219.121094 78.183594 C 219.035156 77.296875 218.945312 76.414062 218.859375 75.527344 C 218.835938 72.839844 218.6875 70.148438 218.082031 67.527344 C 217.683594 65.8125 217.054688 64.164062 216.230469 62.605469 C 215.554688 61.332031 214.175781 59.507812 214.851562 57.976562 Z M 233.265625 83.449219 C 235.074219 88.675781 237.003906 93.859375 238.949219 99.035156 C 239.050781 99.304688 239.203125 99.519531 239.382812 99.683594 C 239.34375 100.277344 239.339844 100.871094 239.324219 101.410156 C 239.183594 106.191406 239.425781 110.996094 238.488281 115.714844 C 237.867188 118.835938 236.796875 121.804688 235.402344 124.625 C 236.628906 118.332031 236.863281 111.847656 236.039062 105.476562 C 235.785156 103.535156 235.40625 101.539062 234.378906 99.84375 C 233.972656 99.175781 233.417969 98.484375 232.753906 97.933594 C 233.222656 93.652344 232.820312 89.355469 231.242188 85.316406 C 230.453125 83.308594 229.453125 81.40625 228.46875 79.488281 C 227.648438 77.894531 226.757812 76.191406 226.679688 74.363281 C 226.644531 73.53125 226.714844 72.4375 227.242188 71.75 C 228.1875 70.519531 229.40625 71.875 229.9375 72.8125 C 230.453125 73.722656 230.566406 74.734375 230.820312 75.730469 C 231.484375 78.34375 232.386719 80.90625 233.265625 83.449219 Z M 239.734375 90.046875 C 244.015625 83.589844 240.363281 75.980469 241.265625 68.925781 C 242.929688 70.746094 243.824219 73.210938 244.5 75.582031 C 245.625 79.527344 246.445312 83.570312 247.109375 87.617188 C 247.136719 87.789062 247.1875 87.941406 247.253906 88.074219 C 247.046875 88.363281 246.878906 88.726562 246.761719 89.179688 C 245.878906 92.578125 246.628906 96.761719 247.34375 100.121094 C 247.960938 103.054688 248.855469 105.902344 249.53125 108.816406 C 250.859375 114.53125 249.828125 120.605469 248.347656 126.203125 C 248.246094 126.234375 248.140625 126.265625 248.035156 126.296875 C 248.011719 126.183594 247.976562 126.078125 247.929688 125.984375 C 248.011719 125.664062 248.082031 125.273438 248.109375 125.15625 C 248.257812 124.523438 248.394531 123.890625 248.511719 123.253906 C 248.773438 121.839844 248.96875 120.410156 249.09375 118.980469 C 249.332031 116.210938 249.289062 113.417969 248.96875 110.65625 C 248.648438 107.9375 248.105469 105.25 247.273438 102.640625 C 246.605469 100.546875 245.957031 98.117188 244.09375 96.769531 C 243.207031 96.128906 242.101562 95.761719 241.183594 96.089844 C 240.496094 94.261719 239.816406 92.429688 239.140625 90.59375 C 239.363281 90.480469 239.570312 90.300781 239.734375 90.046875 Z M 255.390625 97.152344 C 256.691406 100.375 257.308594 103.871094 257.453125 107.332031 C 257.679688 112.8125 257.015625 118.160156 255.464844 123.410156 C 254.28125 123.960938 253.09375 124.488281 251.886719 124.976562 C 252.871094 120.769531 253.480469 116.429688 253.164062 112.128906 C 252.816406 107.351562 251.015625 102.820312 250.125 98.132812 C 249.8125 96.484375 249.65625 94.816406 249.640625 93.136719 C 249.628906 92.234375 249.765625 91.3125 249.738281 90.414062 C 249.742188 90.367188 249.746094 90.320312 249.746094 90.273438 C 249.996094 90.433594 250.363281 90.617188 250.4375 90.660156 C 252.8125 91.980469 254.402344 94.710938 255.390625 97.152344 Z M 265.171875 122.886719 C 266.105469 122.679688 266.167969 122.871094 266.210938 123.75 C 266.238281 124.238281 266.199219 124.742188 266.160156 125.230469 C 265.769531 130.027344 263.75 134.851562 261.929688 139.289062 C 257.851562 143.285156 254.640625 148.445312 249.976562 151.71875 C 243.054688 156.574219 234.023438 157.585938 227.03125 162.148438 C 227.742188 159.308594 227.664062 156.386719 225.714844 153.875 C 224.578125 152.410156 223.0625 151.304688 221.871094 149.894531 C 226.171875 142.6875 231.859375 134.515625 240.007812 131.507812 C 243.203125 130.324219 246.605469 129.894531 249.894531 128.996094 C 250.058594 128.976562 250.222656 128.933594 250.371094 128.863281 C 251.128906 128.644531 251.878906 128.398438 252.617188 128.109375 C 255.453125 126.992188 258.132812 125.535156 260.933594 124.339844 C 262.296875 123.757812 263.722656 123.203125 265.171875 122.886719 Z M 270.382812 137.367188 C 271.226562 137.074219 272.144531 136.828125 273.042969 137.023438 C 274.4375 137.328125 274.023438 138.320312 273.578125 139.417969 C 271.976562 143.390625 269.097656 146.695312 266.238281 149.8125 C 263.304688 153.003906 260.242188 156.113281 257.84375 159.746094 C 256.527344 161.746094 255.6875 163.9375 254.566406 166.035156 C 253.453125 168.117188 251.78125 169.519531 249.613281 170.421875 C 247.207031 171.425781 244.554688 171.910156 242.003906 172.410156 C 238.839844 173.027344 235.527344 173.425781 232.421875 172.292969 C 230.136719 171.457031 228.21875 170.355469 225.746094 170.019531 C 224.941406 169.910156 224.136719 169.863281 223.332031 169.859375 C 223.660156 169.445312 223.972656 169.011719 224.261719 168.5625 C 224.453125 168.480469 224.640625 168.347656 224.8125 168.15625 C 230.566406 161.660156 239.808594 160.445312 247.3125 156.863281 C 251.066406 155.070312 254.21875 152.566406 257.015625 149.5 C 259.789062 146.453125 262.25 143.085938 265.382812 140.386719 C 266.855469 139.117188 268.539062 138.011719 270.382812 137.367188 Z M 216.09375 171.347656 C 212.949219 172.375 209.34375 172.113281 206.066406 172.398438 C 202.871094 172.675781 199.683594 173.0625 196.507812 173.515625 C 196.808594 173.078125 197.105469 172.636719 197.382812 172.175781 C 199.191406 169.175781 200.207031 165.796875 201.078125 162.425781 C 202.242188 157.933594 203.300781 153.410156 204.3125 148.878906 C 204.789062 146.753906 205.136719 144.515625 205.972656 142.492188 C 206.796875 140.496094 208.242188 138.929688 209.859375 137.539062 C 210.59375 136.90625 211.480469 135.96875 212.363281 135.570312 C 213.070312 135.25 213.453125 135.648438 213.992188 136.230469 C 215.316406 137.652344 215.816406 139.691406 216.144531 141.554688 C 216.691406 144.691406 216.933594 147.78125 218.492188 150.472656 C 218.558594 150.652344 218.660156 150.816406 218.789062 150.957031 C 219.058594 151.375 219.363281 151.78125 219.714844 152.175781 C 220.914062 153.539062 222.496094 154.613281 223.507812 156.136719 C 224.839844 158.140625 224.355469 160.511719 223.625 162.652344 C 222.328125 166.449219 220.085938 170.042969 216.09375 171.347656 Z M 156.253906 140.632812 C 156.140625 140.421875 155.953125 140.238281 155.683594 140.097656 C 153.90625 138.433594 152.117188 136.773438 150.394531 135.054688 C 148.238281 132.902344 147.105469 130.636719 146.933594 127.570312 C 146.640625 122.421875 147.234375 117.027344 148.910156 112.140625 C 149.117188 111.546875 149.34375 110.957031 149.589844 110.375 C 149.789062 110.183594 149.917969 109.917969 149.945312 109.578125 C 150.605469 108.164062 151.402344 106.8125 152.34375 105.574219 C 153.046875 104.652344 153.839844 103.800781 154.699219 103.027344 C 155.019531 102.742188 155.960938 101.753906 156.445312 101.898438 C 156.875 102.027344 157.03125 102.738281 157.121094 103.097656 C 157.773438 105.78125 156.863281 109.136719 156.34375 111.785156 C 155.75 114.808594 155.035156 117.808594 154.617188 120.867188 C 153.671875 127.785156 155.070312 134.449219 156.773438 141.117188 C 156.597656 140.957031 156.425781 140.792969 156.253906 140.632812 Z M 201.296875 91.542969 C 201.320312 91.746094 201.347656 91.949219 201.375 92.15625 C 198.164062 92.988281 195.421875 94.847656 193.445312 97.328125 C 193.488281 94.238281 193.199219 91.164062 192.519531 88.175781 C 192.53125 88.144531 192.546875 88.113281 192.558594 88.078125 C 194.15625 83.496094 194.859375 78.605469 194.550781 73.761719 C 194.402344 71.46875 193.8125 69.289062 193.519531 67.03125 C 193.472656 66.660156 193.507812 66.300781 193.488281 65.933594 C 193.492188 65.871094 193.507812 65.808594 193.523438 65.753906 C 193.542969 65.761719 193.566406 65.773438 193.589844 65.78125 C 194.230469 66.109375 194.792969 66.949219 195.246094 67.5 C 198.726562 71.738281 200.457031 77.898438 201.652344 83.398438 C 200.410156 85.484375 201.105469 89.972656 201.296875 91.542969 Z M 207.203125 89.382812 C 207.582031 89.945312 208.945312 91.824219 210.273438 94.851562 C 210.273438 94.851562 213.355469 101.863281 213.414062 109.445312 C 213.417969 109.703125 213.398438 110.945312 213.417969 112.398438 C 213.433594 113.667969 213.449219 114.9375 213.394531 116.207031 C 213.203125 120.546875 212.273438 124.765625 210.511719 128.644531 C 210.828125 124.59375 210.773438 120.519531 210.191406 116.472656 C 209.96875 114.917969 209.257812 109.308594 207.398438 106.664062 C 207.390625 106.640625 207.386719 106.613281 207.378906 106.589844 C 206.242188 102.664062 205.398438 98.667969 204.835938 94.625 C 204.503906 92.261719 204.144531 89.867188 204.078125 87.480469 C 204.066406 87.089844 204.203125 86.460938 204.234375 85.949219 C 205.238281 87.09375 206.328125 88.085938 207.203125 89.382812 Z M 215.582031 123.574219 C 216.609375 119.039062 216.527344 114.507812 216.546875 109.898438 C 216.546875 109.878906 216.550781 109.855469 216.550781 109.832031 C 217.058594 110.628906 217.605469 111.402344 218.019531 112.265625 C 220.230469 116.859375 220.652344 122.113281 220.195312 127.128906 C 219.886719 130.515625 219.140625 133.859375 218.136719 137.113281 C 217.449219 135.390625 216.410156 133.863281 214.734375 132.808594 C 213.785156 132.210938 212.957031 132.105469 212.167969 132.292969 C 213.710938 129.578125 214.878906 126.664062 215.582031 123.574219 Z M 201.875 145.101562 C 200.726562 143.988281 199.753906 142.695312 199.085938 141.238281 C 197.78125 138.394531 198.042969 135.367188 198.691406 132.394531 C 199.839844 127.144531 201.105469 121.898438 202.476562 116.703125 C 203.148438 114.160156 203.738281 111.378906 205.015625 109.046875 C 205.164062 109.355469 205.355469 109.695312 205.394531 109.800781 C 205.613281 110.421875 205.804688 111.050781 205.988281 111.683594 C 206.433594 113.253906 206.785156 114.851562 207.039062 116.460938 C 208.027344 122.6875 207.621094 129.109375 206.507812 135.292969 C 206.453125 135.609375 206.511719 135.9375 206.644531 136.238281 C 206.070312 136.792969 205.523438 137.375 205.023438 138.007812 C 203.398438 140.074219 202.515625 142.542969 201.875 145.101562 Z M 192.101562 174.070312 C 193.277344 167.710938 193.046875 161.058594 190.789062 154.980469 C 188.726562 148.300781 190.410156 141.246094 195.050781 136.277344 C 195 138.1875 195.25 140.089844 196.007812 141.96875 C 197.085938 144.632812 198.90625 146.792969 201.117188 148.566406 C 200.910156 149.597656 200.707031 150.621094 200.476562 151.617188 C 199.289062 156.738281 198.277344 162.046875 196.425781 166.980469 C 195.445312 169.589844 193.953125 171.992188 192.101562 174.070312 Z M 181.214844 140.550781 C 180.347656 132.8125 181.285156 124.75 185.15625 117.898438 C 186.386719 115.714844 187.875 113.699219 189.660156 111.9375 C 189.953125 111.652344 190.253906 111.371094 190.558594 111.097656 C 190.621094 111.042969 190.683594 110.988281 190.746094 110.933594 C 190.820312 110.90625 190.882812 110.878906 190.9375 110.847656 C 190.960938 110.945312 190.984375 111.042969 191 111.140625 C 191.132812 112.027344 191.078125 112.9375 190.921875 113.816406 C 190.015625 118.894531 187.289062 123.476562 185.984375 128.449219 C 184.632812 133.613281 185.53125 138.757812 187.507812 143.613281 C 187.191406 144.824219 186.976562 146.066406 186.867188 147.316406 C 185.277344 144.964844 183.394531 142.835938 181.191406 141.066406 C 181.226562 140.914062 181.234375 140.742188 181.214844 140.550781 Z M 169.96875 135.683594 C 167.289062 127.855469 165.90625 119.167969 168.347656 111.226562 C 168.484375 111.027344 168.566406 110.792969 168.574219 110.523438 C 168.984375 109.300781 169.492188 108.097656 170.105469 106.917969 C 171.140625 104.914062 172.429688 103.054688 174.011719 101.441406 C 174.40625 101.035156 174.816406 100.5625 175.242188 100.199219 C 175.367188 100.09375 175.425781 100.050781 175.441406 100.027344 C 176.011719 100.40625 176.28125 102.246094 176.367188 102.726562 C 177.03125 106.472656 175.945312 110.085938 175.691406 113.792969 C 175.382812 118.265625 176.71875 122.636719 178.640625 126.632812 C 177.84375 130.648438 177.613281 134.753906 177.921875 138.84375 C 177.332031 138.507812 176.726562 138.199219 176.101562 137.914062 C 174.117188 137.015625 172.058594 136.300781 169.96875 135.683594 Z M 188.6875 108.425781 C 187.003906 109.695312 185.542969 111.734375 184.4375 113.238281 C 182.566406 115.777344 181.035156 118.667969 179.972656 121.679688 C 179.023438 118.878906 178.554688 115.9375 178.910156 112.960938 C 181.761719 107.578125 183.625 101.761719 184.382812 95.714844 C 185.023438 90.621094 184.433594 85.113281 185.992188 80.171875 C 191.035156 88.714844 191.285156 98.890625 188.6875 108.425781 Z M 203.875 105.675781 C 203.871094 105.675781 203.867188 105.679688 203.859375 105.683594 C 201.617188 106.992188 200.882812 110.804688 200.226562 113.058594 C 198.535156 118.882812 197.210938 124.832031 195.855469 130.738281 C 195.78125 131.058594 195.710938 131.378906 195.644531 131.699219 C 195.460938 131.753906 195.28125 131.847656 195.109375 131.980469 C 192.613281 133.925781 190.640625 136.359375 189.242188 139.070312 C 188.203125 135.074219 188.316406 131.097656 189.722656 126.953125 C 190.660156 124.183594 191.828125 121.503906 192.789062 118.746094 C 193.59375 116.4375 194.390625 113.917969 194.171875 111.4375 C 194.0625 110.21875 193.699219 108.769531 192.898438 107.949219 C 192.871094 106.847656 192.921875 103.125 195.59375 99.671875 C 197.835938 96.777344 200.671875 95.675781 201.796875 95.304688 C 202.3125 98.796875 202.972656 102.257812 203.875 105.675781 Z M 183.464844 63.3125 C 183.328125 64.570312 183.097656 66.484375 182.707031 68.84375 C 182.402344 70.691406 182.378906 70.539062 182.3125 71.203125 C 182.105469 73.410156 182.441406 74.398438 182.410156 77.777344 C 182.386719 80.292969 182.1875 80.660156 181.898438 86.0625 C 181.65625 90.632812 181.523438 92.917969 181.476562 93.511719 C 181.214844 96.742188 180.597656 99.929688 179.652344 103.019531 C 179.023438 101.253906 178.601562 99.789062 178.339844 98.804688 C 176.417969 91.574219 176.777344 86.703125 176.222656 82.023438 C 176.222656 82.023438 176.03125 79.984375 176.066406 78.488281 C 176.070312 78.292969 176.121094 77.519531 176.101562 77.722656 C 176.15625 77.167969 176.226562 75.679688 175.679688 74.757812 C 175.640625 74.691406 175.59375 74.640625 175.554688 74.578125 C 176.964844 72.550781 178.382812 70.519531 179.816406 68.480469 C 181.035156 66.75 182.25 65.027344 183.464844 63.3125 Z M 167.226562 88.613281 C 167.824219 85.933594 168.640625 83.296875 169.6875 80.757812 C 170.175781 79.566406 170.664062 78.070312 171.515625 77.085938 C 172.070312 76.445312 173.085938 75.863281 173.054688 77.054688 C 173.007812 78.960938 172.976562 80.785156 173.144531 82.703125 C 173.5625 87.519531 174.226562 92.316406 174.90625 97.105469 C 172.617188 97.765625 170.234375 100.867188 169.046875 102.582031 C 168.382812 103.539062 167.792969 104.542969 167.265625 105.578125 C 166 99.964844 165.929688 94.457031 167.226562 88.613281 Z M 233.230469 117.464844 C 232.78125 123.417969 231.355469 129.257812 229.132812 134.796875 C 229.070312 134.960938 229.035156 135.113281 229.023438 135.257812 C 225.589844 138.609375 222.726562 142.566406 220.1875 146.640625 C 219.867188 145.527344 219.695312 144.359375 219.53125 143.226562 C 219.492188 142.949219 219.453125 142.671875 219.410156 142.390625 C 219.609375 142.222656 219.773438 141.996094 219.882812 141.703125 C 221.847656 136.394531 223.316406 130.585938 223.492188 124.816406 C 223.84375 124.921875 224.25 124.890625 224.664062 124.652344 C 228.542969 122.398438 229.246094 117.761719 229.359375 113.652344 C 229.433594 110.875 229.410156 108.105469 229.652344 105.335938 C 229.777344 103.910156 229.953125 102.488281 230.222656 101.082031 C 230.277344 100.769531 230.34375 100.460938 230.421875 100.15625 C 230.484375 100.191406 230.566406 100.234375 230.671875 100.289062 C 231.148438 100.527344 231.527344 101.164062 231.777344 101.609375 C 232.980469 103.71875 233.078125 106.53125 233.246094 108.890625 C 233.449219 111.742188 233.441406 114.609375 233.230469 117.464844 Z M 242.34375 108.8125 C 242.425781 106.683594 242.410156 104.554688 242.4375 102.425781 C 242.449219 101.613281 242.460938 100.792969 242.527344 99.980469 C 242.535156 99.914062 242.554688 99.789062 242.582031 99.640625 C 242.8125 99.980469 243.070312 100.273438 243.242188 100.675781 C 243.738281 101.839844 244.136719 103.0625 244.496094 104.273438 C 245.191406 106.625 245.683594 109.042969 245.917969 111.484375 C 246.175781 114.160156 246.175781 116.863281 245.902344 119.535156 C 245.769531 120.871094 245.550781 122.195312 245.269531 123.507812 C 245.0625 124.480469 244.289062 126.074219 244.625 127.09375 C 243.300781 127.367188 241.980469 127.636719 240.679688 127.996094 C 239.054688 128.445312 237.507812 129.105469 236.042969 129.914062 C 239.996094 123.453125 242.050781 116.480469 242.34375 108.8125 Z M 223.691406 86.914062 C 225.890625 90.078125 227.476562 93.707031 228.652344 97.359375 C 227.402344 98.25 227.179688 100.214844 226.953125 101.699219 C 226.5625 104.269531 226.363281 106.859375 226.289062 109.457031 C 226.179688 113.191406 227.003906 119.21875 223.453125 121.703125 C 223.265625 118.261719 222.558594 114.871094 221.164062 111.648438 C 220.667969 110.496094 219.636719 108.167969 218.296875 106.683594 C 220.613281 102.179688 222.011719 97.820312 220.367188 92.722656 C 219.585938 90.3125 218.398438 88.058594 217.480469 85.703125 C 217.007812 84.492188 216.460938 83.148438 216.332031 81.84375 C 216.296875 81.472656 216.246094 80.847656 216.453125 80.511719 C 216.695312 80.109375 216.6875 80.28125 217.175781 80.613281 C 218.949219 81.816406 220.570312 83.578125 222.074219 85.105469 C 222.476562 85.515625 222.875 85.933594 223.253906 86.367188 C 223.355469 86.484375 223.679688 86.910156 223.691406 86.914062 Z M 204.433594 65.402344 C 209.046875 68.34375 212.609375 72.6875 214.53125 77.832031 C 214.292969 78.058594 214.070312 78.332031 213.863281 78.679688 C 211.796875 82.128906 214.621094 87.007812 216.015625 90.1875 C 217.058594 92.574219 218.109375 95.089844 218.054688 97.742188 C 218.007812 100.125 217.03125 102.34375 215.9375 104.449219 C 215.527344 100.171875 214.378906 96.015625 212.445312 92.144531 C 211.484375 90.214844 210.359375 88.355469 209.070312 86.621094 C 209.5625 82.640625 209.144531 78.546875 207.757812 74.777344 C 206.785156 72.121094 204.0625 68.496094 204.433594 65.402344 Z M 195.804688 55.96875 C 194.726562 58.183594 193.648438 60.398438 192.574219 62.613281 C 192.085938 62.753906 191.621094 63.050781 191.203125 63.539062 C 189.738281 65.261719 190.488281 67.738281 190.878906 69.699219 C 191.738281 74.007812 191.664062 78.433594 190.78125 82.710938 C 189.820312 80.390625 188.578125 78.15625 187.027344 76.050781 C 186.609375 75.484375 185.847656 75.175781 185.203125 75.332031 C 184.945312 74.433594 183.160156 67.746094 187.382812 61.824219 C 190.3125 57.71875 194.441406 56.355469 195.804688 55.96875 Z M 163.570312 86.195312 C 163.992188 84.890625 164.300781 82.820312 164.214844 80.839844 C 164.324219 80.675781 164.40625 80.476562 164.449219 80.230469 C 165.367188 74.8125 167.4375 69.472656 171.445312 65.585938 C 174.511719 62.609375 178.695312 60.757812 182.9375 60.800781 C 178.890625 64.375 175.441406 68.542969 172.714844 73.230469 C 171.515625 73.289062 170.277344 73.867188 169.441406 74.707031 C 167.433594 76.722656 166.457031 80.210938 165.578125 82.847656 C 164.050781 87.394531 163.132812 92.234375 163.042969 97.039062 C 162.960938 101.550781 163.953125 106.136719 165.332031 110.414062 C 164.65625 112.660156 164.230469 114.984375 164.039062 117.308594 C 163.550781 123.152344 164.574219 129.007812 166.316406 134.589844 C 165.183594 134.347656 164.050781 134.300781 163.117188 134.804688 C 162.210938 135.292969 161.640625 136.261719 161.054688 137.070312 C 160.542969 137.777344 160.027344 138.488281 159.515625 139.199219 C 158.726562 136.128906 157.988281 133.035156 157.628906 129.890625 C 157.195312 126.089844 157.441406 122.371094 158.144531 118.621094 C 158.796875 115.140625 159.648438 111.703125 160.097656 108.1875 C 160.421875 105.621094 160.933594 102.1875 159.066406 100.035156 C 158.9375 99.890625 158.808594 99.757812 158.679688 99.636719 C 158.871094 97.0625 159.492188 94.445312 160.671875 92.140625 C 161.695312 90.152344 162.867188 88.347656 163.570312 86.195312 Z M 153.058594 86.511719 C 154.195312 84.277344 155.621094 82.117188 157.472656 80.410156 C 158.039062 79.886719 158.652344 79.421875 159.335938 79.0625 C 159.683594 78.882812 160.027344 78.734375 160.402344 78.632812 C 160.710938 78.550781 160.105469 78.238281 160.527344 78.472656 C 160.726562 78.585938 160.847656 79.253906 160.910156 79.464844 C 161.613281 81.839844 161 84.453125 160.066406 86.679688 C 159.230469 88.667969 157.9375 90.402344 157.132812 92.417969 C 156.320312 94.464844 155.84375 96.609375 155.617188 98.792969 C 153.460938 99.304688 151.25 101.710938 149.582031 104.070312 C 149.441406 98.03125 150.3125 91.910156 153.058594 86.511719 Z M 139.273438 99.046875 C 139.265625 99.0625 139.265625 99.085938 139.261719 99.101562 C 139.261719 99.085938 139.265625 99.070312 139.273438 99.046875 Z M 141.652344 131.375 C 139.390625 129.210938 137.429688 126.710938 135.515625 124.246094 C 133.316406 121.410156 132.175781 118.390625 132.066406 114.765625 C 131.960938 111.355469 132.257812 107.058594 133.867188 103.976562 C 134.664062 102.453125 135.972656 101.117188 137.398438 100.164062 C 137.984375 99.773438 138.605469 99.605469 139.199219 99.292969 C 139.21875 99.285156 139.230469 99.277344 139.242188 99.269531 C 139.230469 99.675781 139.335938 100.394531 139.304688 100.859375 C 139.207031 102.253906 139.039062 103.640625 138.933594 105.035156 C 138.75 107.355469 138.585938 109.652344 138.875 111.964844 C 139.238281 114.808594 139.660156 117.71875 140.613281 120.429688 C 141.019531 121.582031 141.480469 122.894531 142.488281 123.652344 C 142.859375 123.929688 143.308594 124.15625 143.773438 124.285156 C 143.765625 124.597656 143.757812 124.914062 143.753906 125.226562 C 143.726562 128.695312 144.101562 132.101562 146.171875 134.964844 C 144.5625 133.882812 143.035156 132.695312 141.652344 131.375 Z M 163.195312 160.921875 C 159.585938 159.707031 155.394531 157.277344 155.042969 153.023438 C 154.882812 151.117188 155.886719 149.5625 156.945312 148.070312 C 158.433594 145.96875 159.960938 143.902344 161.46875 141.820312 C 162.058594 141.007812 162.644531 140.195312 163.234375 139.382812 C 163.53125 138.972656 163.894531 138.226562 164.292969 137.921875 C 164.53125 137.742188 164.730469 137.65625 164.921875 137.625 C 165.46875 137.546875 165.925781 137.773438 166.070312 137.847656 C 167.230469 138.445312 168.640625 138.230469 172.511719 139.808594 C 174.660156 140.691406 176.375 141.613281 177.183594 142.132812 C 181.324219 144.789062 184.433594 148.628906 186.652344 153.226562 C 189.929688 160.015625 190.316406 167.605469 188.738281 174.847656 C 187.453125 172.988281 186.046875 171.207031 184.460938 169.605469 C 182.085938 167.203125 179.421875 165.644531 176.246094 164.5625 C 171.972656 163.101562 167.476562 162.359375 163.195312 160.921875 Z M 225.261719 195.453125 C 228.308594 196.109375 231.113281 197.425781 233.542969 199.375 C 235.855469 201.222656 237.921875 203.386719 240.449219 204.957031 C 243.453125 206.824219 246.414062 206.894531 249.847656 206.886719 C 252.191406 206.878906 254.761719 207.847656 256.855469 208.828125 C 260.519531 210.546875 262.765625 214.085938 264.585938 217.574219 C 267.664062 223.480469 269.433594 230.082031 270.34375 236.675781 C 266.65625 234.566406 262.652344 233.007812 258.511719 231.871094 C 256.535156 228.449219 254.328125 225.171875 251.859375 222.085938 C 249.03125 218.546875 245.804688 214.976562 241.707031 212.890625 C 239.75 211.898438 237.699219 211.359375 235.542969 211.003906 C 233.269531 210.632812 230.90625 210.386719 228.820312 209.335938 C 225.441406 207.628906 222.921875 204.445312 219.796875 202.324219 C 216.800781 200.289062 213.402344 198.96875 209.882812 198.183594 C 214.417969 195.324219 219.976562 194.316406 225.261719 195.453125 Z M 236.679688 229.113281 C 232.921875 227.132812 229.222656 225.039062 225.597656 222.820312 C 222.519531 220.9375 219.375 219.011719 216.722656 216.539062 C 212.460938 212.566406 211.824219 206.695312 209.933594 201.429688 C 213.699219 202.402344 217.15625 204.042969 220.253906 206.546875 C 221.941406 207.910156 223.46875 209.464844 225.210938 210.761719 C 227.214844 212.25 229.492188 213.113281 231.933594 213.578125 C 234.804688 214.121094 237.707031 214.324219 240.335938 215.707031 C 242.636719 216.917969 244.589844 218.644531 246.367188 220.519531 C 249.355469 223.671875 251.945312 227.175781 254.246094 230.855469 C 249.398438 229.863281 244.441406 229.367188 239.632812 229.191406 C 238.65625 229.152344 237.667969 229.117188 236.679688 229.113281 Z M 283.257812 259.820312 C 283.140625 261.417969 282.636719 263.035156 281.785156 264.421875 C 274.335938 257.191406 265.394531 250.582031 255.203125 248.199219 C 251.273438 247.277344 247.714844 247.800781 243.917969 249.003906 C 240.21875 250.171875 236.816406 250.265625 233.164062 248.84375 C 231.105469 248.042969 229.234375 246.839844 227.167969 246.0625 C 225.28125 245.351562 223.296875 244.972656 221.296875 244.773438 C 214.871094 244.136719 208.320312 245.640625 202.203125 247.671875 C 202.855469 244.835938 205.949219 243.113281 208.539062 242.339844 C 211.960938 241.324219 215.605469 241.351562 219.011719 240.253906 C 222.324219 239.183594 224.695312 236.972656 227.417969 234.925781 C 230.601562 232.53125 233.90625 232.195312 237.789062 232.273438 C 243.960938 232.398438 250.445312 233.003906 256.621094 234.574219 C 256.890625 234.757812 257.195312 234.824219 257.5 234.804688 C 263.308594 236.375 268.820312 238.828125 273.507812 242.570312 C 278.570312 246.609375 283.753906 252.953125 283.257812 259.820312 Z M 174.570312 270.386719 C 175.574219 271.601562 176.050781 272.304688 176.332031 273.71875 C 176.8125 276.121094 176.351562 278.722656 175.808594 281.070312 C 173.332031 291.773438 167.007812 301.378906 159.851562 309.527344 C 157.597656 312.097656 155.242188 314.746094 152.515625 316.832031 C 151.90625 317.300781 151.257812 317.742188 150.566406 318.078125 C 150.152344 318.28125 150.527344 318.101562 150.160156 318.242188 C 150.105469 318.265625 149.992188 318.289062 149.886719 318.308594 C 145.378906 309.6875 152.324219 300.125 156.738281 292.980469 C 159.234375 288.941406 161.539062 284.644531 162.265625 279.890625 C 162.652344 277.339844 162.667969 274.765625 162.847656 272.195312 C 163.03125 269.578125 163.558594 267.039062 164.417969 264.558594 C 166.203125 259.417969 169.203125 254.785156 172.167969 250.253906 C 173.078125 253.476562 173.109375 256.816406 172.492188 260.175781 C 172.160156 261.984375 171.804688 263.824219 172.082031 265.667969 C 172.363281 267.5625 173.378906 268.949219 174.570312 270.386719 Z M 144.199219 315.886719 C 141.660156 313.542969 139.820312 310.402344 138.613281 307.1875 C 137.332031 303.765625 136.667969 300.078125 137.070312 296.425781 C 137.472656 292.773438 138.574219 289.074219 139.578125 285.546875 C 141.488281 278.867188 144.277344 272.09375 149.8125 267.601562 C 152.953125 265.054688 156.679688 263.351562 159.847656 260.84375 C 161.414062 259.597656 162.753906 258.171875 163.90625 256.539062 C 165.195312 254.707031 166.195312 252.675781 167.621094 250.941406 C 168.011719 250.46875 168.425781 250.023438 168.859375 249.59375 C 166.34375 253.476562 163.921875 257.425781 162.160156 261.71875 C 161.171875 264.121094 160.421875 266.617188 160.039062 269.1875 C 159.628906 271.929688 159.644531 274.691406 159.414062 277.449219 C 158.535156 287.972656 149.964844 295.3125 146.695312 304.980469 C 145.34375 308.988281 144.890625 313.351562 146.125 317.347656 C 145.421875 316.925781 144.773438 316.414062 144.199219 315.886719 Z M 277.414062 241.800781 C 276.230469 240.714844 274.988281 239.722656 273.695312 238.808594 C 273.714844 238.679688 273.71875 238.542969 273.699219 238.390625 C 272.890625 231.429688 271.269531 224.574219 268.359375 218.179688 C 266.53125 214.167969 264.085938 209.828125 260.402344 207.222656 C 258.0625 205.570312 255.015625 204.597656 252.230469 204.023438 C 249.371094 203.433594 246.390625 204.277344 243.632812 203.109375 C 240.515625 201.785156 238.179688 199.082031 235.578125 197.011719 C 233.078125 195.019531 230.296875 193.53125 227.199219 192.699219 C 220.460938 190.882812 212.917969 192.074219 207.246094 196.179688 C 206.957031 195.796875 206.644531 195.421875 206.3125 195.058594 C 203.070312 191.550781 198.753906 191.238281 194.394531 191.761719 C 193.648438 187.507812 192.574219 183.3125 191.1875 179.21875 C 191.996094 178.5625 192.761719 177.859375 193.492188 177.125 C 197.800781 176.433594 202.128906 175.867188 206.480469 175.5 C 209.839844 175.21875 213.4375 175.425781 216.683594 174.445312 C 217.484375 174.203125 218.234375 173.894531 218.945312 173.527344 C 218.945312 173.523438 218.949219 173.523438 218.953125 173.523438 C 221.445312 172.914062 224.046875 172.757812 226.566406 173.335938 C 228.835938 173.859375 230.777344 175.222656 233.054688 175.746094 C 236.09375 176.445312 239.207031 176.113281 242.242188 175.546875 C 244.703125 175.089844 247.214844 174.601562 249.582031 173.773438 C 251.824219 172.984375 254.015625 171.851562 255.609375 170.050781 C 257.359375 168.074219 258.128906 165.546875 259.378906 163.269531 C 261.679688 159.085938 265.089844 155.683594 268.296875 152.199219 C 271.445312 148.78125 274.527344 145.183594 276.351562 140.859375 C 277.230469 138.785156 277.746094 136.339844 275.671875 134.800781 C 274.0625 133.605469 271.792969 133.648438 269.957031 134.210938 C 268.796875 134.5625 267.726562 135.03125 266.722656 135.59375 C 267.871094 132.457031 268.828125 129.234375 269.21875 125.957031 C 269.46875 123.851562 269.613281 120.832031 267.242188 119.886719 C 265.804688 119.316406 264.164062 119.859375 262.769531 120.308594 C 261.546875 120.703125 260.355469 121.1875 259.179688 121.703125 C 261.222656 113.414062 261.535156 104.03125 258.332031 96.117188 C 257.265625 93.46875 255.746094 90.890625 253.539062 89.035156 C 252.667969 88.304688 251.378906 87.535156 250.144531 87.242188 C 250.160156 87.097656 250.160156 86.945312 250.132812 86.78125 C 249.398438 82.300781 248.53125 77.753906 247.121094 73.429688 C 245.988281 69.960938 244.253906 66.6875 241.0625 64.722656 C 240.175781 64.175781 239.050781 64.714844 238.757812 65.660156 C 237.578125 69.480469 238.046875 73.433594 238.453125 77.335938 C 238.785156 80.578125 239.121094 83.972656 237.828125 86.972656 C 237.308594 85.523438 236.792969 84.074219 236.289062 82.617188 C 235.332031 79.84375 234.296875 77.039062 233.667969 74.164062 C 233.28125 72.390625 232.609375 70.671875 231.238281 69.410156 C 230.90625 69.109375 230.546875 68.859375 230.167969 68.660156 C 228.964844 64.953125 226.957031 61.554688 224.21875 58.765625 C 221.875 56.378906 217.828125 52.84375 214.207031 54.449219 C 213.453125 54.78125 212.863281 55.304688 212.433594 55.933594 C 211.21875 54.566406 209.867188 53.339844 208.359375 52.261719 C 206.378906 50.847656 202.949219 48.433594 200.464844 49.757812 C 199.398438 50.324219 198.769531 51.3125 198.417969 52.433594 C 197.578125 52.484375 196.753906 52.597656 195.945312 52.753906 C 195.921875 52.316406 195.679688 51.902344 195.132812 51.65625 C 190.066406 49.355469 184.386719 49.152344 179.421875 51.5625 C 178.136719 50.390625 175.546875 50.179688 173.953125 50.261719 C 172.042969 50.363281 170.195312 51.148438 168.578125 52.128906 C 163.527344 55.1875 159.878906 60.335938 157.316406 65.636719 C 156.183594 65.480469 154.808594 65.988281 153.738281 66.386719 C 145.613281 69.394531 139.113281 75.878906 136.011719 83.929688 C 135.84375 83.855469 135.65625 83.796875 135.457031 83.75 C 132.691406 83.152344 129.953125 86.21875 128.457031 88.121094 C 126.441406 90.691406 124.5 93.382812 122.839844 96.199219 C 120.183594 100.710938 118.609375 105.738281 119.238281 110.851562 C 118.488281 110.585938 117.699219 110.449219 116.886719 110.523438 C 114.753906 110.710938 113.625 112.410156 113.371094 114.394531 C 113.042969 116.9375 113.382812 119.523438 114.15625 121.972656 C 113.128906 121.40625 112.070312 120.894531 110.992188 120.445312 C 108.5625 119.4375 104.679688 118.222656 102.886719 120.964844 C 100.839844 124.09375 102.320312 129.175781 103.378906 132.382812 C 104.765625 136.585938 106.941406 140.214844 109.75 143.605469 C 111.191406 145.351562 112.519531 147.148438 113.683594 149.097656 C 115.125 151.511719 116.179688 154.1875 118.125 156.261719 C 122.117188 160.511719 128.761719 161.773438 134.183594 163.128906 C 137.5625 163.976562 140.976562 164.710938 144.402344 165.351562 C 142.296875 166 140.074219 165.753906 137.964844 165.222656 C 135.527344 164.609375 133.1875 163.660156 130.746094 163.050781 C 128.1875 162.414062 125.523438 162.085938 122.890625 162.09375 C 119.40625 162.101562 113 162.402344 112.988281 167.261719 C 112.984375 169.5625 114.652344 171.570312 116.128906 173.167969 C 117.597656 174.757812 119.3125 176.152344 121.152344 177.292969 C 125.347656 179.890625 130.160156 180.914062 135.046875 181.035156 C 140.488281 181.167969 145.972656 180.585938 151.402344 180.25 C 156.398438 179.945312 161.679688 180 166.503906 178.496094 C 168.929688 177.742188 171.132812 176.515625 173.140625 174.96875 C 174.402344 173.992188 175.527344 172.886719 177.179688 172.691406 C 180.992188 172.234375 184.535156 175.441406 187.042969 177.933594 C 187.324219 178.371094 187.59375 178.808594 187.859375 179.242188 C 187.886719 179.3125 187.921875 179.378906 187.960938 179.445312 C 189.4375 183.703125 190.5625 188.070312 191.324219 192.496094 C 188.703125 191.425781 185.921875 190.703125 183.125 190.4375 C 182.128906 190.34375 181.117188 190.324219 180.105469 190.386719 C 179.726562 190.226562 179.296875 190.230469 178.910156 190.503906 C 177.910156 190.632812 176.917969 190.851562 175.96875 191.179688 C 174.054688 191.839844 172.40625 192.925781 170.6875 193.96875 C 168.890625 195.0625 166.9375 195.816406 164.816406 195.953125 C 163.207031 196.058594 161.617188 195.753906 160.015625 195.628906 C 155.492188 195.265625 150.898438 195.875 146.574219 197.222656 C 146.019531 197.398438 145.691406 197.777344 145.558594 198.214844 C 140.773438 194.308594 134.46875 192.84375 128.195312 193.84375 C 125.914062 194.207031 123.65625 194.761719 121.335938 194.78125 C 119.050781 194.804688 116.832031 194.304688 114.652344 193.664062 C 110.5 192.449219 106.496094 190.761719 102.132812 190.457031 C 98.425781 190.195312 94.535156 190.96875 91.703125 193.507812 C 88.914062 196.007812 87.894531 199.769531 87.878906 203.402344 C 87.863281 207.316406 88.832031 211.195312 89.796875 214.960938 C 90.789062 218.839844 92 222.78125 94.148438 226.191406 C 96.457031 229.859375 99.761719 232.320312 103.5625 234.296875 C 105.71875 235.421875 107.894531 236.515625 110.089844 237.574219 C 107.257812 241.199219 105.867188 245.789062 106.308594 250.394531 C 106.636719 253.777344 108.675781 261.953125 113.542969 260.65625 C 114.925781 260.289062 116.105469 259.441406 117.523438 259.113281 C 118.933594 258.789062 120.382812 258.742188 121.824219 258.691406 C 124.578125 258.589844 127.398438 258.5625 130.007812 257.578125 C 134.824219 255.753906 138.101562 251.621094 141.042969 247.589844 C 141.199219 247.375 141.285156 247.160156 141.320312 246.953125 C 141.964844 246.96875 142.613281 246.972656 143.261719 246.957031 C 148.40625 246.847656 153.414062 245.75 158.085938 243.582031 C 162.84375 241.371094 167.179688 238.273438 172.175781 236.578125 C 174.546875 235.773438 177.15625 235.25 179.488281 235.734375 C 182.601562 236.382812 185.144531 238.058594 187.230469 240.355469 C 187.179688 240.699219 187.132812 241.039062 187.085938 241.382812 C 180.621094 240.011719 173.691406 241.675781 168.476562 245.769531 C 165.25 248.304688 163.523438 251.683594 161.199219 254.953125 C 158.804688 258.328125 155.183594 260.292969 151.761719 262.445312 C 148.484375 264.511719 145.589844 266.867188 143.253906 269.980469 C 140.972656 273.027344 139.34375 276.496094 138.046875 280.0625 C 136.710938 283.734375 135.761719 287.535156 134.871094 291.339844 C 133.925781 295.378906 133.527344 299.21875 134.28125 303.332031 C 135.484375 309.917969 139.394531 317.953125 145.902344 320.71875 C 149.867188 322.40625 152.695312 320.847656 155.734375 318.222656 C 161.738281 313.03125 166.90625 306.417969 171.101562 299.707031 C 173.679688 295.589844 175.914062 291.207031 177.480469 286.601562 C 179.09375 281.855469 181.082031 275.21875 178.46875 270.433594 C 177.929688 269.453125 177.152344 268.628906 176.445312 267.773438 C 174.605469 265.542969 175.140625 263.121094 175.613281 260.488281 C 176.503906 255.542969 176 250.753906 173.96875 246.144531 C 173.953125 246.105469 173.933594 246.070312 173.914062 246.035156 C 177.847656 244.128906 182.410156 243.542969 186.707031 244.515625 C 186.613281 245.449219 186.523438 246.382812 186.453125 247.320312 C 185.601562 258.914062 186.460938 270.558594 186.8125 282.15625 C 187.019531 288.992188 187.046875 295.835938 187.3125 302.667969 C 187.601562 310.035156 188.800781 317.328125 190.285156 324.542969 C 190.691406 326.515625 193.714844 325.679688 193.308594 323.707031 C 191.960938 317.15625 190.816406 310.527344 190.5 303.835938 C 190.199219 297.507812 190.199219 291.160156 190.027344 284.824219 C 189.714844 273.449219 188.871094 262.046875 189.390625 250.667969 C 189.515625 250.585938 189.636719 250.476562 189.75 250.339844 C 191.773438 247.878906 195.242188 248.59375 197.691406 250.027344 C 198.203125 250.324219 198.679688 250.667969 199.132812 251.039062 C 199.261719 251.226562 199.433594 251.375 199.636719 251.472656 C 201.589844 253.246094 203.117188 255.570312 204.863281 257.484375 C 207.34375 260.199219 210.375 262.140625 214.019531 262.832031 C 217.683594 263.527344 221.40625 263.183594 225.074219 262.71875 C 233.265625 261.683594 241.234375 261.359375 249.371094 263.105469 C 253.445312 263.976562 257.453125 265.246094 261.265625 266.933594 C 264.792969 268.496094 268.289062 270.425781 272.125 271.121094 C 275.609375 271.753906 279.183594 271.257812 281.972656 268.953125 C 284.492188 266.871094 285.960938 263.707031 286.328125 260.492188 C 287.148438 253.304688 282.480469 246.4375 277.414062 241.800781 " fill-opacity="1" fill-rule="nonzero"/></g></svg>