<?xml version="1.0" encoding="UTF-8" standalone="no"?>
<!-- Created with Inkscape (http://www.inkscape.org/) -->

<svg
   width="151.64961mm"
   height="156.125mm"
   viewBox="0 0 151.64961 156.125"
   version="1.1"
   id="svg5"
   xml:space="preserve"
   xmlns:inkscape="http://www.inkscape.org/namespaces/inkscape"
   xmlns:sodipodi="http://sodipodi.sourceforge.net/DTD/sodipodi-0.dtd"
   xmlns="http://www.w3.org/2000/svg"
   xmlns:svg="http://www.w3.org/2000/svg"><sodipodi:namedview
     id="namedview7"
     pagecolor="#ffffff"
     bordercolor="#000000"
     borderopacity="0.25"
     inkscape:showpageshadow="2"
     inkscape:pageopacity="0.0"
     inkscape:pagecheckerboard="0"
     inkscape:deskcolor="#d1d1d1"
     inkscape:document-units="mm"
     showgrid="false" /><defs
     id="defs2" /><g
     inkscape:label="Layer 1"
     inkscape:groupmode="layer"
     id="layer1"
     transform="translate(-129.30654,-120.77648)"><g
       id="g815"
       transform="matrix(0.03527778,0,0,-0.03527778,-365.3792,757.80465)"
       style="fill:#ffffff"
       inkscape:export-filename="amphibian.svg"
       inkscape:export-xdpi="96"
       inkscape:export-ydpi="96"><path
         d="m 15827.2,14758.5 c -26.1,0 -50.1,17.1 -57.6,43.5 -9.2,31.8 9.3,65 41.1,74.2 458.2,131.5 836.7,381 1094.5,721.4 20,26.4 57.7,31.7 84.1,11.6 26.4,-20 31.6,-57.6 11.6,-84 -273.6,-361.3 -673.8,-625.7 -1157.1,-764.4 -5.5,-1.6 -11.1,-2.3 -16.6,-2.3"
         style="fill:#ffffff;fill-opacity:1;fill-rule:nonzero;stroke:none"
         id="path1225"
         inkscape:export-filename="amphibian.svg"
         inkscape:export-xdpi="96"
         inkscape:export-ydpi="96" /><path
         d="m 17168.3,15862.8 c -8.3,0 -16.8,1.7 -24.9,5.4 -30.1,13.8 -43.4,49.4 -29.6,79.5 64.5,141.1 114,295 147.1,457.5 6.6,32.4 38.3,53.4 70.8,46.8 32.4,-6.6 53.4,-38.3 46.8,-70.8 -34.9,-171.4 -87.3,-334 -155.5,-483.4 -10.1,-22 -31.9,-35 -54.7,-35"
         style="fill:#ffffff;fill-opacity:1;fill-rule:nonzero;stroke:none"
         id="path1227" /><path
         d="m 17362.1,16629.5 c -1.7,0 -3.4,0.1 -5.2,0.2 -33,2.9 -57.5,32 -54.6,65 8,92.5 11.5,189.2 10.6,287.4 -11,84.8 -37.9,101.1 -39.1,101.7 -28.7,16.5 -38.7,53.1 -22.2,81.9 16.4,28.7 53.1,38.7 81.9,22.2 36.8,-21 83.8,-71.9 98.9,-194.5 0.3,-2.2 0.4,-4.4 0.4,-6.6 1.1,-103.2 -2.6,-205 -11,-302.4 -2.7,-31.3 -28.9,-54.9 -59.7,-54.9"
         style="fill:#ffffff;fill-opacity:1;fill-rule:nonzero;stroke:none"
         id="path1229" /><path
         d="m 15781.2,13992.3 c -184.8,0 -313.1,15.4 -327.6,17.2 -32.9,4.1 -56.1,34.1 -52,67 4.1,32.9 34,56.1 67,52.1 9.5,-1.2 942.6,-112.3 1471.8,289.7 -93.4,375.1 -727.2,429.3 -733.8,429.8 -33,2.6 -57.7,31.5 -55.1,64.5 2.5,33 31.2,57.8 64.4,55.2 31.5,-2.5 772.5,-65.4 849.8,-564.7 3.3,-21 -4.8,-42.1 -21.3,-55.6 -367.9,-300.9 -915.6,-355.2 -1263.2,-355.2"
         style="fill:#ffffff;fill-opacity:1;fill-rule:nonzero;stroke:none"
         id="path1231" /><path
         d="m 16241.3,14339.4 c -943.6,0 -1054,310.7 -1063.6,347.2 l 115.9,30.8 c 0,0 -0.1,0.7 -0.5,2 0.9,-2.8 106.8,-277.7 1035.8,-259.2 0.4,0.1 0.8,0.1 1.2,0.1 32.6,0 59.3,-26.1 60,-58.9 0.6,-33.1 -25.7,-60.5 -58.8,-61.1 -30.8,-0.6 -60.9,-0.9 -90,-0.9"
         style="fill:#ffffff;fill-opacity:1;fill-rule:nonzero;stroke:none"
         id="path1233" /><path
         d="m 16484.3,14338.2 c -31.1,0 -57.5,24 -59.8,55.6 -2.4,33.1 22.5,61.8 55.5,64.2 l 84.8,6.2 c 33.1,2.4 61.8,-22.5 64.2,-55.5 2.4,-33.1 -22.5,-61.8 -55.5,-64.2 l -84.8,-6.2 c -1.4,-0.1 -2.9,-0.1 -4.4,-0.1"
         style="fill:#ffffff;fill-opacity:1;fill-rule:nonzero;stroke:none"
         id="path1235" /><path
         d="m 14988,14054.5 c -14.7,0 -29.3,5.3 -40.9,16 -24.2,22.6 -25.6,60.6 -3,84.8 247.5,266.1 746.5,305.2 767.7,306.8 33.1,2.4 61.8,-22.5 64.2,-55.5 2.4,-33.1 -22.5,-61.8 -55.5,-64.2 -4.7,-0.4 -473.3,-37.4 -688.6,-268.8 -11.8,-12.7 -27.8,-19.1 -43.9,-19.1"
         style="fill:#ffffff;fill-opacity:1;fill-rule:nonzero;stroke:none"
         id="path1237" /><path
         d="m 15414.9,13837 c -233.2,0 -452.9,187.6 -462.4,195.8 -25.1,21.7 -27.8,59.5 -6.1,84.6 21.6,25.1 59.5,27.8 84.6,6.2 3.4,-2.9 205.7,-174.4 396.8,-166.4 33.4,1.5 61.1,-24.3 62.5,-57.4 1.4,-33.1 -24.3,-61.1 -57.4,-62.5 -6,-0.2 -12,-0.3 -18,-0.3"
         style="fill:#ffffff;fill-opacity:1;fill-rule:nonzero;stroke:none"
         id="path1239" /><path
         d="m 17310.3,16647.4 c -25.8,0 -50.2,-11.2 -67,-30.6 -15.5,-17.9 -23.1,-40.7 -21.3,-64.3 1.7,-23.6 12.5,-45.1 30.3,-60.5 16.1,-13.9 36.6,-21.6 57.9,-21.6 25.7,0 50.1,11.2 66.9,30.6 15.5,17.9 23.1,40.7 21.4,64.3 -1.8,23.6 -12.6,45.1 -30.4,60.5 -16.1,13.9 -36.6,21.6 -57.8,21.6 z m -0.1,-297 c -50.1,0 -98.5,18 -136.3,50.8 -42.2,36.4 -67.6,87.1 -71.6,142.6 -4.1,55.5 13.8,109.3 50.2,151.4 39.6,45.9 97.1,72.2 157.8,72.2 50,0 98.4,-18.1 136.2,-50.8 42.2,-36.4 67.6,-87.1 71.6,-142.6 4.1,-55.6 -13.8,-109.3 -50.2,-151.5 -39.6,-45.8 -97.1,-72.1 -157.7,-72.1"
         style="fill:#ffffff;fill-opacity:1;fill-rule:nonzero;stroke:none"
         id="path1241" /><path
         d="m 16707.3,17168.7 c -25.7,0 -50.1,-11.2 -66.9,-30.6 -15.5,-17.9 -23.1,-40.7 -21.4,-64.3 1.7,-23.6 12.5,-45.1 30.4,-60.5 16.1,-13.9 36.6,-21.6 57.8,-21.6 25.8,0 50.2,11.2 67,30.6 31.9,36.9 27.8,92.9 -9.1,124.8 -16,13.9 -36.6,21.6 -57.8,21.6 z m -0.1,-297 c -50,0 -98.4,18.1 -136.3,50.8 -42.1,36.4 -67.5,87.1 -71.5,142.6 -4.1,55.5 13.8,109.3 50.2,151.5 39.6,45.8 97.1,72.1 157.7,72.1 50.1,0 98.5,-18 136.3,-50.8 87,-75.2 96.6,-207.1 21.4,-294 -39.6,-45.9 -97.2,-72.2 -157.8,-72.2"
         style="fill:#ffffff;fill-opacity:1;fill-rule:nonzero;stroke:none"
         id="path1243" /><path
         d="m 17391.6,15668.2 c -21.1,0 -41.6,11.2 -52.6,31 -75,135.7 -221,155 -227.2,155.7 -32.8,4 -56.3,33.8 -52.5,66.6 3.8,32.8 33.4,56.3 66.1,52.7 8.6,-1 213,-25.8 318.7,-216.9 16,-29 5.5,-65.5 -23.5,-81.6 -9.2,-5 -19.2,-7.5 -29,-7.5"
         style="fill:#ffffff;fill-opacity:1;fill-rule:nonzero;stroke:none"
         id="path1245" /><path
         d="m 17409.6,15396.1 c -139.8,0 -376.8,94.5 -428.1,115.6 -30.6,12.7 -45.2,47.7 -32.6,78.4 12.6,30.6 47.7,45.2 78.3,32.6 128.5,-53 337.4,-120.4 401.6,-105.2 249.9,72.6 457.8,511.1 459.9,515.5 14,30 49.7,43 79.7,28.9 30,-14 43,-49.7 29,-79.7 -9.4,-20.1 -233.8,-493.7 -536.6,-580.4 -0.6,-0.1 -1.2,-0.3 -1.8,-0.5 -14.4,-3.6 -31,-5.2 -49.4,-5.2"
         style="fill:#ffffff;fill-opacity:1;fill-rule:nonzero;stroke:none"
         id="path1247" /><path
         d="m 17414,15679.8 c -21.7,0 -42.7,11.9 -53.3,32.6 -15.2,29.4 -3.7,65.6 25.7,80.8 3.7,1.9 242.3,127.7 279.9,292.8 13.4,58.6 -1.3,115.3 -44.8,173.2 -19.9,26.5 -14.5,64.1 12,84 26.4,19.9 64.1,14.6 84,-11.9 65.1,-86.7 87.3,-178.4 65.8,-272.3 -50.4,-219.9 -329.9,-366.3 -341.8,-372.5 -8.8,-4.5 -18.2,-6.7 -27.5,-6.7"
         style="fill:#ffffff;fill-opacity:1;fill-rule:nonzero;stroke:none"
         id="path1249" /><path
         d="m 17814.5,16176.5 c -20,0 -38.7,9.9 -49.8,26.5 -18.8,28 -89.8,59.9 -131.9,72.7 -31.7,9.6 -49.6,43.1 -40.1,74.8 9.6,31.7 43,49.6 74.7,40.1 15.6,-4.7 72.5,-23 124.1,-55.1 27.2,106.2 -17.3,205.8 -17.8,207 -13.8,30 -0.7,65.6 29.3,79.5 30,13.9 65.4,1 79.4,-28.9 3.9,-8.2 93.7,-204.7 -16.5,-387.6 -10.6,-17.5 -29.4,-28.5 -49.9,-29 -0.5,0 -1,0 -1.5,0"
         style="fill:#ffffff;fill-opacity:1;fill-rule:nonzero;stroke:none"
         id="path1251" /><path
         d="m 17788,16597.9 c -20.5,0 -40.4,10.5 -51.7,29.3 -16.7,28.2 -7.8,64.5 20,81.7 0,0 0,0 0.1,0 0,0.1 0,0.1 0.1,0.1 v 0 c 0.2,0.2 0.4,0.3 0.6,0.4 l 0.2,0.1 9.7,-16 -9.4,16.2 c 9.3,5.5 20.1,8.6 30.9,8.6 27,0 50.7,-18.1 57.8,-44.1 7.1,-25.9 -4.3,-53.6 -27.1,-67.5 v 0 c -0.1,-0.1 -0.2,-0.1 -0.3,-0.1 0,-0.1 -0.1,-0.2 -0.2,-0.2 -9.7,-5.7 -20.3,-8.5 -30.7,-8.5"
         style="fill:#ffffff;fill-opacity:1;fill-rule:nonzero;stroke:none"
         id="path1253" /><path
         d="m 18021.1,16659.2 c -20.6,0 -40.6,10.6 -51.8,29.6 -16.7,28.5 -7.3,65.1 21.1,81.9 0.1,0.1 0.2,0.1 0.3,0.2 l 0.1,0.1 10.2,-17.1 -9.8,17.3 c 9.2,5.3 19.8,8.3 30.5,8.3 27.1,0 50.8,-18.1 57.9,-44.3 7,-25.9 -4.6,-53.7 -27.6,-67.5 v 0 c -0.1,0 -0.2,-0.1 -0.3,-0.1 -0.1,-0.1 -0.1,-0.2 -0.2,-0.2 -9.6,-5.6 -20,-8.2 -30.4,-8.2"
         style="fill:#ffffff;fill-opacity:1;fill-rule:nonzero;stroke:none"
         id="path1255" /><path
         d="m 18236.5,16530.7 c -20.6,0 -40.8,10.7 -51.9,29.8 -16.7,28.7 -7,65.4 21.6,82 l 0.2,0.1 10.6,-17.8 -10.3,18 c 9.2,5.4 19.8,8.3 30.4,8.3 27.1,0 50.9,-18.2 57.9,-44.4 7.1,-26 -4.7,-53.7 -27.7,-67.5 v 0 c -0.1,0 -0.2,-0.1 -0.3,-0.1 -0.1,-0.1 -0.2,-0.2 -0.3,-0.2 -9.5,-5.5 -19.9,-8.2 -30.2,-8.2"
         style="fill:#ffffff;fill-opacity:1;fill-rule:nonzero;stroke:none"
         id="path1257" /><path
         d="m 17576.3,16331.6 c -20.4,0 -40.3,10.3 -51.5,29 -16.9,28.1 -8.2,64.5 19.6,81.8 2.1,1.3 4.2,2.5 6.4,3.6 8.1,3.8 17.1,5.9 26,5.9 27,0 50.6,-18 57.8,-43.9 3.8,-13.6 2.4,-27.7 -3,-40 -5.3,-12.3 -14.5,-22.4 -26.1,-28.8 -9.2,-5.2 -19.3,-7.6 -29.2,-7.6"
         style="fill:#ffffff;fill-opacity:1;fill-rule:nonzero;stroke:none"
         id="path1259" /><path
         d="m 15882.9,13631.9 c -33.1,0 -60,26.9 -60,60 0,13.6 4.6,26.1 12.2,36.2 3.2,4.3 7.1,8.2 11.6,11.6 2.1,1.6 4.4,3.1 6.7,4.5 9.2,5.2 19.7,8.1 30.2,8.1 27,0 50.7,-18 57.9,-44.1 7,-25.5 -4,-52.7 -26.2,-66.8 -9.3,-6 -20.4,-9.5 -32.4,-9.5"
         style="fill:#ffffff;fill-opacity:1;fill-rule:nonzero;stroke:none"
         id="path1261" /><path
         d="m 16116.7,13749.2 c -20.4,0 -40.3,10.4 -51.5,29.1 -17,28.2 -8.1,64.7 19.8,81.9 1.7,1.1 3.6,2.1 5.4,3 8.3,4.1 17.6,6.4 26.8,6.4 27,0 50.6,-18 57.8,-44 3.8,-13.5 2.5,-27.5 -2.9,-39.9 -5.4,-12.4 -14.8,-22.7 -26.6,-29.1 -9.1,-5 -19,-7.4 -28.8,-7.4"
         style="fill:#ffffff;fill-opacity:1;fill-rule:nonzero;stroke:none"
         id="path1263" /><path
         d="m 17951.4,16182 c -12.4,0 -25,3.9 -35.8,11.9 -26.5,19.8 -32.1,57.4 -12.3,83.9 149.6,201 100.4,334.9 99.9,336.1 -12.7,30.6 1.7,65.8 32.3,78.5 30.6,12.7 65.7,-1.8 78.5,-32.4 3.3,-7.8 77.9,-195.5 -114.4,-453.8 -11.8,-15.8 -29.9,-24.2 -48.2,-24.2"
         style="fill:#ffffff;fill-opacity:1;fill-rule:nonzero;stroke:none"
         id="path1265" /><path
         d="m 18008.1,16061.3 c -18.6,0 -36.9,8.6 -48.7,24.8 -19.4,26.9 -13.4,64.4 13.4,83.8 236.4,171.3 228.9,336 228.5,342.9 -3,33.1 21.4,61.8 54.4,64.8 33,3.1 62.2,-21.7 65.2,-54.7 0.8,-9.6 17.7,-236 -277.7,-450.1 -10.6,-7.8 -22.9,-11.5 -35.1,-11.5"
         style="fill:#ffffff;fill-opacity:1;fill-rule:nonzero;stroke:none"
         id="path1267" /><path
         d="m 16035.8,13784.8 c -9.1,0 -18.4,2.1 -27.1,6.5 -193.5,97.8 -441.1,112.5 -443.6,112.6 -33,1.8 -58.4,30.1 -56.6,63.2 1.9,33.1 30.2,58.6 63.2,56.6 11.2,-0.6 275.4,-16.3 491.2,-125.3 29.5,-15 41.4,-51.1 26.5,-80.6 -10.6,-20.9 -31.7,-33 -53.6,-33"
         style="fill:#ffffff;fill-opacity:1;fill-rule:nonzero;stroke:none"
         id="path1269" /><path
         d="m 15817,13687.3 c -11.5,0 -23.1,3.3 -33.4,10.2 -159.9,107.5 -378.3,148.1 -380.5,148.5 -32.5,6 -54.2,37.2 -48.3,69.8 5.9,32.6 37.2,54.2 69.7,48.3 9.9,-1.8 244.8,-45.2 426,-167 27.5,-18.5 34.8,-55.8 16.4,-83.3 -11.6,-17.2 -30.6,-26.5 -49.9,-26.5"
         style="fill:#ffffff;fill-opacity:1;fill-rule:nonzero;stroke:none"
         id="path1271" /><path
         d="m 15205.5,15283.8 c -2.7,0 -5.4,0.1 -8.1,0.5 -32.9,4.5 -55.9,34.7 -51.4,67.5 67.4,498.3 271.1,932.4 589.2,1255.4 23.3,23.6 61.2,23.9 84.8,0.6 23.6,-23.2 23.9,-61.2 0.7,-84.9 -299.7,-304.3 -491.9,-714.8 -555.8,-1187.2 -4.1,-30.1 -29.8,-51.9 -59.4,-51.9"
         style="fill:#ffffff;fill-opacity:1;fill-rule:nonzero;stroke:none"
         id="path1273" /><path
         d="m 16104.5,16770.3 c -19.7,0 -39,9.7 -50.5,27.5 -18,27.8 -10,64.9 17.8,82.9 141.4,91.4 298.8,168.1 468,228.1 31.3,11 65.6,-5.3 76.6,-36.5 11.1,-31.3 -5.3,-65.6 -36.5,-76.6 -160.4,-56.9 -309.4,-129.5 -442.9,-215.8 -10.1,-6.5 -21.4,-9.6 -32.5,-9.6"
         style="fill:#ffffff;fill-opacity:1;fill-rule:nonzero;stroke:none"
         id="path1275" /><path
         d="m 16843.1,17074.6 c -27.3,0 -52,18.7 -58.4,46.4 -7.5,32.3 12.6,64.5 44.9,72 92.7,21.5 190.1,39.3 289.5,52.7 2.2,0.3 4.4,0.5 6.6,0.5 123.3,2.9 180.6,-36.4 206.8,-69.8 20.4,-26.1 15.9,-63.8 -10.2,-84.3 -26.1,-20.4 -63.8,-15.8 -84.3,10.3 -0.8,1 -21.1,25.2 -106.3,23.9 -94.5,-12.9 -187,-29.7 -275,-50.2 -4.6,-1 -9.1,-1.5 -13.6,-1.5"
         style="fill:#ffffff;fill-opacity:1;fill-rule:nonzero;stroke:none"
         id="path1277" /><path
         d="m 14516.6,14813.2 c -26.3,0 -50.4,17.4 -57.7,44 -11.2,40.5 -270,998.7 104.7,1623 10.9,18.2 30.6,29 51.9,29.1 505.2,-4.4 674.5,-728.6 681.5,-759.4 7.3,-32.3 -13,-64.5 -45.3,-71.8 -32.2,-7.3 -64.4,13 -71.7,45.3 -1.8,7.6 -147.1,625.8 -531.4,664 -321.3,-581.6 -76.6,-1489 -74.1,-1498.2 8.8,-32 -9.9,-65 -41.8,-73.8 -5.4,-1.5 -10.8,-2.2 -16.1,-2.2"
         style="fill:#ffffff;fill-opacity:1;fill-rule:nonzero;stroke:none"
         id="path1279" /><path
         d="m 15168.7,14681.9 c -38.7,4.5 -381.2,72.9 -509.3,1091.6 -4.1,32.8 19.2,62.9 52,67 32.8,4.1 62.9,-19.2 67.1,-52.1 115.9,-922.1 403.1,-987 406,-987.5 -1.4,0.2 -2.1,0.2 -2.1,0.2 l -13.7,-119.2"
         style="fill:#ffffff;fill-opacity:1;fill-rule:nonzero;stroke:none"
         id="path1281" /><path
         d="m 14693.6,15886.3 c -31.2,0 -57.5,24.1 -59.8,55.7 l -5.2,71.7 c -2.4,33.1 22.4,61.8 55.5,64.2 33.1,2.4 61.8,-22.5 64.2,-55.5 l 5.2,-71.7 c 2.4,-33.1 -22.5,-61.8 -55.5,-64.2 -1.5,-0.1 -3,-0.2 -4.4,-0.2"
         style="fill:#ffffff;fill-opacity:1;fill-rule:nonzero;stroke:none"
         id="path1283" /><path
         d="m 14629.9,14351.6 c -13.1,0 -26.4,4.4 -37.5,13.2 -25.8,20.8 -30,58.6 -9.2,84.4 197.9,246.4 166.8,715.5 166.5,720.2 -2.4,33 22.5,61.7 55.5,64.1 33.1,2.4 61.8,-22.4 64.2,-55.5 1.5,-21.1 34.9,-520.5 -192.6,-803.9 -11.9,-14.8 -29.3,-22.5 -46.9,-22.5"
         style="fill:#ffffff;fill-opacity:1;fill-rule:nonzero;stroke:none"
         id="path1285" /><path
         d="m 14593.5,14350.1 c -13.9,0 -27.9,4.8 -39.2,14.6 -9.7,8.4 -238.2,208.4 -262.8,447.1 -3.4,33 20.6,62.5 53.5,65.8 33.1,3.5 62.5,-20.5 65.9,-53.5 19.7,-190.9 219.9,-366.9 221.9,-368.7 25,-21.7 27.7,-59.6 6,-84.6 -11.8,-13.7 -28.5,-20.7 -45.3,-20.7"
         style="fill:#ffffff;fill-opacity:1;fill-rule:nonzero;stroke:none"
         id="path1287" /><path
         d="m 16103.4,16720 c -26.7,0 -51,17.9 -58,44.9 -1.6,5.7 -41.7,147.4 -186.8,202 -31,11.7 -46.7,46.3 -35.1,77.3 11.7,31 46.3,46.7 77.3,35 204.5,-76.9 258.5,-275.6 260.7,-284 8.3,-32.1 -10.9,-64.8 -42.9,-73.2 -5.1,-1.3 -10.2,-2 -15.2,-2"
         style="fill:#ffffff;fill-opacity:1;fill-rule:nonzero;stroke:none"
         id="path1289" /><path
         d="m 15776.3,16556.7 c -20.5,0 -40.4,10.4 -51.6,29.3 -32.1,53.9 -191.3,329.4 -178.2,456.6 0,0.6 0.1,1.2 0.2,1.9 42,312.1 478.3,602.5 496.8,614.7 27.7,18.2 64.9,10.5 83.1,-17.1 18.2,-27.7 10.6,-64.9 -17.1,-83.2 -4.1,-2.6 -408,-271.7 -443.7,-529.4 -5.7,-65.1 93.1,-266.2 162,-382.2 17,-28.5 7.6,-65.3 -20.9,-82.2 -9.6,-5.7 -20.2,-8.4 -30.6,-8.4"
         style="fill:#ffffff;fill-opacity:1;fill-rule:nonzero;stroke:none"
         id="path1291" /><path
         d="m 15887.9,16986.9 c -6.4,0 -13,1.1 -19.5,3.3 -31.3,10.8 -48,44.9 -37.2,76.2 4.4,12.7 108.9,310.5 319.2,392 89.9,34.9 183.7,26.2 278.9,-25.7 29.1,-15.9 39.8,-52.4 23.9,-81.4 -15.8,-29.1 -52.3,-39.9 -81.4,-24 -63.6,34.7 -121.8,41 -178,19.3 -131.9,-51.2 -224.5,-247.8 -249.1,-319.2 -8.6,-24.9 -31.9,-40.5 -56.8,-40.5"
         style="fill:#ffffff;fill-opacity:1;fill-rule:nonzero;stroke:none"
         id="path1293" /><path
         d="m 16441,17306.3 c -22.6,0 -44.2,12.8 -54.4,34.6 -18.7,39.7 -60.6,105.4 -91,120 -18.5,8.8 -31.2,26.5 -33.6,46.9 -2.5,20.3 5.6,40.5 21.5,53.6 165,135.4 372.4,75 381.1,72.3 31.7,-9.5 49.7,-43 40.1,-74.8 -9.5,-31.6 -42.9,-49.6 -74.5,-40.1 -2.2,0.6 -106.6,29.8 -207.4,-12.3 39.2,-46.4 65.6,-100 72.5,-114.8 14,-30 1.1,-65.7 -29,-79.8 -8.2,-3.8 -16.8,-5.6 -25.3,-5.6"
         style="fill:#ffffff;fill-opacity:1;fill-rule:nonzero;stroke:none"
         id="path1295" /><path
         d="m 16742.3,17489.5 c -7.7,0 -15.5,1.4 -23,4.6 -30.5,12.6 -45.1,47.6 -32.5,78.2 0.1,0 0.1,0.1 0.1,0.1 v 0.1 l 19.7,-7.9 -19.5,8.3 c 9.3,22.4 31.2,37.2 55.5,37.2 20.1,0 38.8,-10 49.9,-26.6 11,-16.5 12.9,-38 5.5,-56.3 v 0 c 0,-0.2 -0.1,-0.3 -0.1,-0.4 0,0 -0.1,-0.1 -0.1,-0.2 -9.6,-23.2 -32,-37.1 -55.5,-37.1"
         style="fill:#ffffff;fill-opacity:1;fill-rule:nonzero;stroke:none"
         id="path1297" /><path
         d="m 16769.2,17729 c -7.6,0 -15.3,1.5 -22.8,4.5 -30.6,12.7 -45.3,47.7 -32.7,78.3 0,0.1 0,0.1 0,0.1 l 53.8,-22.2 -53.5,22.7 c 0,0.1 0,0.1 0,0.2 v 0 c 9.3,22.4 31.3,37.2 55.5,37.2 20,0 38.7,-10 49.9,-26.6 11,-16.4 12.9,-37.9 5.6,-56.3 v 0 c 0,-0.1 -0.1,-0.2 -0.1,-0.3 -0.1,-0.2 -0.1,-0.3 -0.2,-0.4 -9.5,-23.2 -31.9,-37.2 -55.5,-37.2"
         style="fill:#ffffff;fill-opacity:1;fill-rule:nonzero;stroke:none"
         id="path1299" /><path
         d="m 16611,17923.6 c -7.6,0 -15.3,1.5 -22.7,4.5 -30.7,12.6 -45.3,47.6 -32.8,78.3 0,0 0,0 0,0 l 53.9,-22.1 -53.6,22.6 c 0,0.1 0,0.2 0,0.2 v 0 c 9.3,22.5 31.3,37.3 55.6,37.3 20,0 38.6,-10 49.8,-26.6 11,-16.4 12.9,-37.9 5.7,-56.2 v 0 c -0.1,-0.1 -0.1,-0.2 -0.2,-0.4 0,-0.1 -0.1,-0.2 -0.1,-0.3 -9.6,-23.2 -32,-37.3 -55.6,-37.3"
         style="fill:#ffffff;fill-opacity:1;fill-rule:nonzero;stroke:none"
         id="path1301" /><path
         d="m 16509.3,17241.4 c -7.6,0 -15.3,1.5 -22.8,4.6 -30.6,12.6 -45.3,47.6 -32.6,78.3 0,0 0,0 0,0 l 53.7,-22.1 -53.5,22.6 c 0,0.1 0,0.2 0.1,0.2 v 0 c 9.3,22.4 31.2,37.2 55.5,37.2 20,0 38.7,-10 49.8,-26.6 11,-16.4 12.9,-37.9 5.6,-56.2 v 0 c 0,-0.1 -0.1,-0.3 -0.1,-0.4 -0.1,-0.1 -0.1,-0.2 -0.2,-0.4 -9.5,-23.1 -31.9,-37.2 -55.5,-37.2"
         style="fill:#ffffff;fill-opacity:1;fill-rule:nonzero;stroke:none"
         id="path1303" /><path
         d="m 14082.6,15176.1 c -7.6,0 -15.3,1.5 -22.8,4.5 -30.6,12.6 -45.3,47.7 -32.7,78.3 v 0 l 53.8,-22.1 -53.6,22.7 c 0,0 0.1,0.1 0.1,0.2 v 0 c 9.3,22.4 31.2,37.2 55.5,37.2 20,0 38.7,-10 49.8,-26.6 11,-16.4 12.9,-37.8 5.7,-56.2 v 0 c 0,-0.1 -0.1,-0.2 -0.1,-0.3 -0.1,-0.2 -0.1,-0.3 -0.2,-0.4 -9.5,-23.2 -31.9,-37.3 -55.5,-37.3"
         style="fill:#ffffff;fill-opacity:1;fill-rule:nonzero;stroke:none"
         id="path1305" /><path
         d="m 14164.8,15424.3 c -7.7,0 -15.5,1.5 -23,4.6 -30.3,12.7 -44.8,47.2 -32.7,77.5 v 0 c 0.1,0.1 0.1,0.2 0.1,0.3 v 0 c 0,0 0,0 0.1,0 0,0.1 0,0.1 0,0.1 0,0 0,0 0,0.1 0.1,0.1 0.1,0.3 0.2,0.4 l 0.1,0.2 18.8,-7.6 -18.7,8 c 9.3,22.3 31.3,37.1 55.5,37.1 20,0 38.8,-10.1 49.9,-26.8 11,-16.5 12.9,-37.9 5.5,-56.3 v 0 c -0.1,-0.1 -0.1,-0.2 -0.2,-0.3 0,-0.1 0,-0.2 -0.1,-0.3 -9.6,-23 -31.9,-37 -55.5,-37"
         style="fill:#ffffff;fill-opacity:1;fill-rule:nonzero;stroke:none"
         id="path1307" /><path
         d="m 16307.2,17591.3 c -15.4,0 -30.7,5.9 -42.5,17.6 -23.4,23.5 -23.4,61.5 0.1,84.9 227.8,227.5 424.3,180.8 432.6,178.7 l -29.6,-116.3 0.9,-0.2 c -5.8,1.2 -142.8,28.9 -319.1,-147.1 -11.7,-11.7 -27.1,-17.6 -42.4,-17.6"
         style="fill:#ffffff;fill-opacity:1;fill-rule:nonzero;stroke:none"
         id="path1309" /><path
         d="m 16179.6,17629.8 c -9.4,0 -18.9,2.2 -27.8,6.9 -29.4,15.3 -40.7,51.6 -25.3,81 169.1,323.2 395.7,339.2 405.2,339.7 33.4,1.8 61.4,-23.5 63.2,-56.6 1.8,-32.9 -23.2,-61 -55.9,-63.2 -8.5,-0.7 -171.6,-18.3 -306.2,-275.6 -10.7,-20.5 -31.6,-32.2 -53.2,-32.2"
         style="fill:#ffffff;fill-opacity:1;fill-rule:nonzero;stroke:none"
         id="path1311" /><path
         d="m 14397,14904.2 c -28,0 -53,19.7 -58.7,48.1 -0.5,2.4 -51.2,245.9 -175.5,422.7 -19.1,27.1 -12.6,64.5 14.5,83.6 27.1,19 64.6,12.5 83.6,-14.6 139.1,-197.7 192.8,-456.9 195,-467.8 6.6,-32.5 -14.4,-64.2 -46.9,-70.8 -4,-0.8 -8,-1.2 -12,-1.2"
         style="fill:#ffffff;fill-opacity:1;fill-rule:nonzero;stroke:none"
         id="path1313" /><path
         d="m 14361.2,14742.8 c -25,0 -48.4,15.8 -56.8,40.9 -0.7,2.1 -72.5,212.2 -201.9,354.9 -22.3,24.6 -20.4,62.5 4.1,84.8 24.6,22.3 62.5,20.4 84.8,-4.1 146.6,-161.7 223.5,-387.9 226.7,-397.4 10.6,-31.5 -6.3,-65.5 -37.8,-76 -6.3,-2.1 -12.7,-3.1 -19.1,-3.1"
         style="fill:#ffffff;fill-opacity:1;fill-rule:nonzero;stroke:none"
         id="path1315" /><path
         d="m 16583.6,16315.4 c -15.3,0 -38.9,-8.3 -59.2,-31.9 -25.8,-29.8 -29.6,-67 -15.6,-79.1 4,-3.5 9.6,-5.2 16.8,-5.2 15.3,0 38.9,8.4 59.3,32 25.8,29.8 29.5,67 15.5,79.1 -3.9,3.4 -9.6,5.1 -16.8,5.1 z m -58,-236.2 c -36.3,0 -69.2,11.9 -95.3,34.4 -66.7,57.7 -65.2,169.1 3.3,248.4 39.8,46 95.9,73.4 150,73.4 36.3,0 69.3,-11.8 95.3,-34.3 66.7,-57.8 65.3,-169.2 -3.3,-248.4 -39.7,-46 -95.8,-73.5 -150,-73.5"
         style="fill:#ffffff;fill-opacity:1;fill-rule:nonzero;stroke:none"
         id="path1317" /><path
         d="m 15873.5,16136.3 c -15.3,0 -38.9,-8.4 -59.3,-32 -25.8,-29.8 -29.5,-67 -15.5,-79.1 4,-3.4 9.6,-5.1 16.8,-5.1 15.3,0 38.9,8.3 59.2,31.9 13.9,16.1 22.5,35.4 23.5,52.9 0.4,6.9 -0.1,19.5 -7.9,26.2 -4,3.4 -9.6,5.2 -16.8,5.2 z m -58,-236.2 c -36.3,0 -69.3,11.8 -95.3,34.3 -66.7,57.7 -65.3,169.2 3.2,248.4 39.8,46 95.9,73.5 150.1,73.5 36.3,0 69.2,-11.9 95.2,-34.4 34.2,-29.5 52.1,-74.7 49.3,-123.9 -2.5,-44.1 -21.2,-88.3 -52.5,-124.5 -39.8,-46 -95.8,-73.4 -150,-73.4"
         style="fill:#ffffff;fill-opacity:1;fill-rule:nonzero;stroke:none"
         id="path1319" /><path
         d="m 16359.7,15689.5 c -15.3,0 -38.9,-8.4 -59.3,-32 -25.8,-29.8 -29.5,-67 -15.5,-79.1 3.9,-3.4 9.6,-5.2 16.7,-5.2 15.3,0 38.9,8.4 59.3,32 13.9,16.1 22.5,35.3 23.5,52.9 0.4,6.9 -0.1,19.5 -8,26.2 -3.9,3.4 -9.6,5.2 -16.7,5.2 z m -58.1,-236.3 c -36.3,0 -69.2,11.9 -95.2,34.4 -66.7,57.7 -65.3,169.2 3.2,248.4 39.8,46 95.9,73.5 150.1,73.5 36.3,0 69.2,-11.9 95.2,-34.4 34.1,-29.5 52.1,-74.7 49.3,-123.9 -2.6,-44 -21.2,-88.3 -52.5,-124.5 -39.8,-46 -95.9,-73.5 -150.1,-73.5"
         style="fill:#ffffff;fill-opacity:1;fill-rule:nonzero;stroke:none"
         id="path1321" /><path
         d="m 17003.4,16256.5 c -6.5,-0.7 -16.5,-5.6 -24.9,-15.4 -9.5,-11 -11.7,-21.6 -11.6,-26.8 6.5,0.8 16.4,5.6 24.9,15.4 9.5,11.1 11.7,21.6 11.6,26.8 z m -38.2,-162.3 c -29.5,0 -56.4,9.8 -77.8,28.2 -27.9,24.1 -42.6,60.7 -40.3,100.4 2,34.4 16.4,68.8 40.6,96.8 30.9,35.7 74.8,57 117.4,57 29.5,0 56.4,-9.7 77.7,-28.2 54.6,-47.2 54.5,-133.8 -0.3,-197.2 -30.8,-35.7 -74.7,-57 -117.3,-57"
         style="fill:#ffffff;fill-opacity:1;fill-rule:nonzero;stroke:none"
         id="path1323" /><path
         d="m 16803.2,15855.6 c -6.6,-0.6 -17,-5.5 -25.8,-15.7 -9.6,-11 -12,-22.3 -11.8,-27.7 6.6,0.6 17,5.5 25.8,15.7 9.6,11.1 12.1,22.3 11.8,27.7 z m -38.9,-163.5 c -29.6,0 -56.6,9.8 -78,28.3 -28,24.2 -42.7,61 -40.4,100.8 1.9,34.6 16.4,69.1 40.8,97.2 31,35.9 75,57.3 117.8,57.3 29.6,0 56.6,-9.8 78,-28.3 28,-24.2 42.8,-61 40.5,-100.8 -2,-34.6 -16.5,-69.1 -40.8,-97.2 -31,-35.9 -75.1,-57.3 -117.9,-57.3"
         style="fill:#ffffff;fill-opacity:1;fill-rule:nonzero;stroke:none"
         id="path1325" /><path
         d="m 16148.6,16474.5 c -6.6,-0.6 -17,-5.5 -25.8,-15.6 -9.6,-11.1 -12.1,-22.4 -11.8,-27.8 6.6,0.6 17,5.5 25.8,15.7 9.6,11.1 12,22.3 11.8,27.7 z m -38.9,-163.5 c -29.6,0 -56.6,9.8 -78,28.3 -54.8,47.4 -54.7,134.4 0.3,198 31,35.9 75.1,57.3 117.9,57.3 29.6,0 56.6,-9.8 78,-28.3 54.8,-47.4 54.6,-134.4 -0.4,-198 -31,-35.9 -75,-57.3 -117.8,-57.3"
         style="fill:#ffffff;fill-opacity:1;fill-rule:nonzero;stroke:none"
         id="path1327" /><path
         d="m 16121.8,15175.7 c -6.6,-0.6 -17,-5.5 -25.8,-15.6 -9.6,-11.2 -12.1,-22.4 -11.8,-27.8 6.6,0.6 17,5.5 25.8,15.7 9.6,11.1 12.1,22.3 11.8,27.7 z m -38.9,-163.5 c -29.6,0 -56.6,9.8 -78,28.3 -28,24.2 -42.7,61 -40.5,100.8 2,34.6 16.5,69.1 40.8,97.2 31,35.9 75.1,57.3 117.9,57.3 29.6,0 56.6,-9.8 78,-28.3 28,-24.2 42.7,-61 40.4,-100.8 -1.9,-34.6 -16.4,-69.1 -40.8,-97.2 -30.9,-35.9 -75,-57.3 -117.8,-57.3"
         style="fill:#ffffff;fill-opacity:1;fill-rule:nonzero;stroke:none"
         id="path1329" /><path
         d="m 15528.6,14948.3 c -6.6,-0.6 -17,-5.5 -25.8,-15.7 -9.6,-11.1 -12.1,-22.3 -11.8,-27.7 6.6,0.6 17,5.5 25.8,15.7 9.6,11.1 12.1,22.3 11.8,27.7 z m -38.9,-163.5 c -29.6,0 -56.6,9.8 -78,28.3 -28,24.2 -42.7,61 -40.5,100.8 2,34.6 16.5,69.1 40.8,97.2 31,35.9 75.1,57.3 117.9,57.3 29.6,0 56.6,-9.8 78,-28.3 28,-24.2 42.7,-61 40.4,-100.8 -1.9,-34.6 -16.4,-69.1 -40.8,-97.2 -31,-35.9 -75,-57.3 -117.8,-57.3"
         style="fill:#ffffff;fill-opacity:1;fill-rule:nonzero;stroke:none"
         id="path1331" /><path
         d="m 15755.4,15418.7 c -15.3,0 -38.9,-8.4 -59.2,-31.9 -25.8,-29.8 -29.6,-67 -15.6,-79.1 4,-3.5 9.6,-5.2 16.8,-5.2 15.3,0 38.9,8.4 59.3,32 25.8,29.8 29.5,67 15.5,79.1 -4,3.4 -9.6,5.1 -16.8,5.1 z m -58,-236.2 c -36.3,0 -69.2,11.9 -95.3,34.4 -66.7,57.7 -65.2,169.1 3.3,248.4 39.8,46 95.9,73.4 150,73.4 36.3,0 69.3,-11.8 95.3,-34.3 66.7,-57.8 65.3,-169.2 -3.3,-248.4 -39.7,-46 -95.8,-73.5 -150,-73.5"
         style="fill:#ffffff;fill-opacity:1;fill-rule:nonzero;stroke:none"
         id="path1333" /></g></g></svg>
