<svg xmlns="http://www.w3.org/2000/svg" xmlns:xlink="http://www.w3.org/1999/xlink" width="500" zoomAndPan="magnify" viewBox="0 0 375 374.999991" height="500" preserveAspectRatio="xMidYMid meet" version="1.0"><defs><clipPath id="b393dea692"><path d="M 187.5 0 C 83.945312 0 0 83.945312 0 187.5 C 0 291.054688 83.945312 375 187.5 375 C 291.054688 375 375 291.054688 375 187.5 C 375 83.945312 291.054688 0 187.5 0 Z M 187.5 0 " clip-rule="nonzero"/></clipPath><clipPath id="cbee001a29"><path d="M 41 100 L 325 100 L 325 296 L 41 296 Z M 41 100 " clip-rule="nonzero"/></clipPath><clipPath id="8e1b6a8faa"><path d="M 35.8125 106.226562 L 308.746094 65.191406 L 339.296875 268.40625 L 66.367188 309.445312 Z M 35.8125 106.226562 " clip-rule="nonzero"/></clipPath><clipPath id="b61d57587b"><path d="M 35.8125 106.226562 L 308.746094 65.191406 L 339.296875 268.40625 L 66.367188 309.445312 Z M 35.8125 106.226562 " clip-rule="nonzero"/></clipPath><clipPath id="b561fcaa5d"><path d="M 53 127 L 59 127 L 59 133 L 53 133 Z M 53 127 " clip-rule="nonzero"/></clipPath><clipPath id="bc34497fe4"><path d="M 35.8125 106.226562 L 308.746094 65.191406 L 339.296875 268.40625 L 66.367188 309.445312 Z M 35.8125 106.226562 " clip-rule="nonzero"/></clipPath><clipPath id="17929a279d"><path d="M 35.8125 106.226562 L 308.746094 65.191406 L 339.296875 268.40625 L 66.367188 309.445312 Z M 35.8125 106.226562 " clip-rule="nonzero"/></clipPath><clipPath id="15754e3623"><path d="M 78 125 L 113 125 L 113 160 L 78 160 Z M 78 125 " clip-rule="nonzero"/></clipPath><clipPath id="e7058ac5e9"><path d="M 35.8125 106.226562 L 308.746094 65.191406 L 339.296875 268.40625 L 66.367188 309.445312 Z M 35.8125 106.226562 " clip-rule="nonzero"/></clipPath><clipPath id="11b84409d9"><path d="M 35.8125 106.226562 L 308.746094 65.191406 L 339.296875 268.40625 L 66.367188 309.445312 Z M 35.8125 106.226562 " clip-rule="nonzero"/></clipPath><clipPath id="982a67ea9f"><path d="M 78 130 L 98 130 L 98 150 L 78 150 Z M 78 130 " clip-rule="nonzero"/></clipPath><clipPath id="bdf8dc3e59"><path d="M 35.8125 106.226562 L 308.746094 65.191406 L 339.296875 268.40625 L 66.367188 309.445312 Z M 35.8125 106.226562 " clip-rule="nonzero"/></clipPath><clipPath id="522a690a18"><path d="M 35.8125 106.226562 L 308.746094 65.191406 L 339.296875 268.40625 L 66.367188 309.445312 Z M 35.8125 106.226562 " clip-rule="nonzero"/></clipPath><clipPath id="985bc9b39a"><path d="M 145 183 L 150 183 L 150 188 L 145 188 Z M 145 183 " clip-rule="nonzero"/></clipPath><clipPath id="b6650a69ad"><path d="M 35.8125 106.226562 L 308.746094 65.191406 L 339.296875 268.40625 L 66.367188 309.445312 Z M 35.8125 106.226562 " clip-rule="nonzero"/></clipPath><clipPath id="d6e7929ccd"><path d="M 35.8125 106.226562 L 308.746094 65.191406 L 339.296875 268.40625 L 66.367188 309.445312 Z M 35.8125 106.226562 " clip-rule="nonzero"/></clipPath><clipPath id="7948c5135e"><path d="M 195 142 L 264 142 L 264 161 L 195 161 Z M 195 142 " clip-rule="nonzero"/></clipPath><clipPath id="066800ba4e"><path d="M 35.8125 106.226562 L 308.746094 65.191406 L 339.296875 268.40625 L 66.367188 309.445312 Z M 35.8125 106.226562 " clip-rule="nonzero"/></clipPath><clipPath id="9e22720316"><path d="M 35.8125 106.226562 L 308.746094 65.191406 L 339.296875 268.40625 L 66.367188 309.445312 Z M 35.8125 106.226562 " clip-rule="nonzero"/></clipPath><clipPath id="ecbbdf45c4"><path d="M 269 160 L 274 160 L 274 165 L 269 165 Z M 269 160 " clip-rule="nonzero"/></clipPath><clipPath id="308bf764d2"><path d="M 35.8125 106.226562 L 308.746094 65.191406 L 339.296875 268.40625 L 66.367188 309.445312 Z M 35.8125 106.226562 " clip-rule="nonzero"/></clipPath><clipPath id="98afc63cf4"><path d="M 35.8125 106.226562 L 308.746094 65.191406 L 339.296875 268.40625 L 66.367188 309.445312 Z M 35.8125 106.226562 " clip-rule="nonzero"/></clipPath></defs><g clip-path="url(#b393dea692)"><rect x="-37.5" width="450" fill="#a2c36e" y="-37.499999" height="449.999989" fill-opacity="1"/></g><g clip-path="url(#cbee001a29)"><g clip-path="url(#8e1b6a8faa)"><g clip-path="url(#b61d57587b)"><path fill="#ffffff" d="M 323.753906 171.457031 C 322.3125 168.273438 319.527344 165.816406 316.386719 164.359375 C 312.910156 162.75 308.933594 162.53125 305.160156 162.738281 C 304.882812 162.757812 304.605469 162.777344 304.328125 162.796875 C 303.175781 160.140625 301.023438 158.339844 298.496094 156.984375 C 300.84375 154.285156 301.617188 150.488281 300.191406 147.09375 C 298.59375 143.304688 294.847656 141.328125 290.863281 141.152344 C 288.914062 141.066406 286.972656 141.269531 285.035156 141.429688 C 282.9375 141.601562 280.847656 141.625 278.746094 141.523438 C 274.457031 141.324219 270.203125 140.726562 265.925781 140.375 C 261.226562 139.988281 256.441406 139.914062 251.8125 140.925781 C 248.476562 139.800781 245.140625 138.683594 241.800781 137.574219 C 234.378906 135.105469 226.855469 132.761719 219.101562 131.578125 C 203.648438 129.226562 188.117188 132.261719 172.613281 131.949219 C 156.714844 131.632812 141.796875 126.148438 126.824219 121.367188 C 122.890625 120.113281 118.960938 118.855469 115.03125 117.601562 C 111.726562 116.546875 107.980469 115.773438 104.992188 113.957031 C 101.917969 112.09375 101.164062 108.613281 99.023438 105.945312 C 97.050781 103.484375 94.230469 101.679688 91.210938 100.796875 C 84.640625 98.878906 77.613281 101.128906 72.808594 105.886719 C 70.410156 108.257812 68.90625 111.292969 66.609375 113.730469 C 64.070312 116.421875 60.4375 116.910156 57.046875 117.898438 C 51.339844 119.566406 45.984375 123.292969 43.335938 128.722656 C 40.191406 135.164062 42.710938 142.101562 46.980469 147.332031 C 49.273438 150.136719 51.996094 152.574219 54.71875 154.953125 C 57.464844 157.347656 60.289062 159.648438 63.183594 161.851562 C 68.863281 166.171875 74.828125 170.121094 81.023438 173.664062 C 87.335938 177.273438 93.871094 180.332031 100.519531 183.257812 C 103.738281 184.671875 106.949219 186.132812 109.917969 188.023438 C 112.886719 189.910156 115.332031 192.242188 117.738281 194.785156 C 120.042969 197.222656 122.457031 199.433594 125.230469 201.296875 C 124.628906 202.683594 123.507812 203.644531 122.21875 204.382812 C 122.199219 204.375 122.179688 204.367188 122.15625 204.359375 C 117.824219 202.929688 113.511719 204.417969 109.515625 206.175781 C 106.21875 207.621094 102.171875 209.640625 98.542969 208.183594 C 96.566406 207.386719 94.953125 206.082031 92.742188 205.945312 C 90.710938 205.816406 88.722656 206.363281 87.035156 207.5 C 85.421875 208.589844 83.839844 210.5 84.046875 212.566406 C 84.308594 215.160156 87.21875 215.5625 89.238281 216.171875 L 97.25 218.574219 C 98.457031 218.933594 99.65625 219.332031 100.867188 219.640625 C 100.039062 220.261719 99.167969 220.828125 98.242188 221.316406 C 95.660156 222.679688 92.773438 223.203125 90.011719 224.070312 C 88.589844 224.519531 87.234375 225.078125 85.96875 225.867188 C 84.632812 226.699219 83.699219 227.789062 82.652344 228.945312 C 81.636719 230.070312 80.292969 230.167969 78.882812 230.464844 C 77.347656 230.789062 75.910156 231.339844 74.644531 232.277344 C 72.238281 234.058594 71.101562 237.144531 72.269531 239.96875 C 75.339844 247.390625 85.226562 240.203125 89.488281 237.980469 C 95.824219 234.679688 102.457031 231.996094 109.082031 229.34375 C 112.523438 227.960938 115.964844 226.582031 119.410156 225.203125 C 121.070312 224.539062 122.722656 223.832031 124.402344 223.214844 C 125.488281 222.816406 126.832031 222.394531 127.773438 223.296875 C 128.894531 224.378906 129.710938 225.953125 130.59375 227.230469 C 131.359375 228.328125 132.746094 229.726562 132.703125 231.152344 C 132.683594 231.890625 132.457031 232.617188 132.40625 233.355469 C 132.347656 234.246094 132.445312 235.09375 132.714844 235.941406 C 133.132812 237.25 133.988281 238.414062 135.070312 239.25 C 137.496094 241.121094 140.984375 240.925781 143.300781 238.972656 C 145.933594 236.75 145.980469 233.355469 145.21875 230.253906 C 144.785156 228.488281 144.296875 226.734375 143.835938 224.976562 C 143.5625 223.941406 142.996094 222.769531 144.140625 222.199219 C 145.398438 221.578125 146.992188 221.53125 148.351562 221.304688 C 150.195312 221.003906 152.039062 220.703125 153.882812 220.398438 L 159.414062 219.496094 C 159.855469 219.421875 160.191406 219.234375 160.4375 218.980469 L 169.183594 223.238281 C 168.765625 224.667969 168.359375 226.097656 168.023438 227.550781 C 167.484375 229.886719 167.222656 232.269531 167.039062 234.660156 C 166.671875 239.339844 166.699219 244.5 164.542969 248.792969 C 164.054688 249.761719 163.414062 250.265625 162.363281 250.578125 C 161.316406 250.886719 160.246094 251.085938 159.230469 251.496094 C 157.304688 252.269531 155.574219 253.507812 153.996094 254.839844 C 151.171875 257.222656 148.613281 260.335938 145.105469 261.734375 C 143.066406 262.550781 140.996094 262.226562 138.871094 262.023438 C 137.667969 261.90625 136.429688 261.84375 135.226562 262.011719 C 133.847656 262.207031 132.539062 262.738281 131.277344 263.304688 C 130.269531 263.757812 129.261719 264.285156 128.175781 264.523438 C 127.015625 264.78125 125.878906 264.609375 124.722656 264.421875 C 122.308594 264.039062 119.792969 263.714844 117.648438 265.164062 C 113.941406 267.660156 114.058594 273.296875 117.449219 275.960938 C 119.140625 277.289062 121.488281 277.835938 123.601562 277.476562 C 126.222656 277.03125 128.09375 275.078125 130.480469 274.085938 C 134.933594 272.234375 140.019531 272.859375 144.699219 272.121094 C 147.367188 271.699219 149.875 270.835938 152.171875 269.414062 C 154.324219 268.082031 155.914062 266.257812 157.835938 264.664062 C 158.59375 264.035156 161.117188 262.589844 161.53125 264.335938 C 161.96875 266.191406 159.621094 268.351562 158.601562 269.621094 C 157.136719 271.4375 155.976562 273.316406 155.546875 275.636719 C 155.339844 276.734375 155.191406 277.519531 154.324219 278.304688 C 153.425781 279.121094 152.480469 279.875 151.621094 280.738281 C 149.800781 282.578125 147.984375 284.6875 146.929688 287.078125 C 145.929688 289.355469 145.917969 292.242188 148.101562 293.851562 C 151.824219 296.589844 157.71875 294.84375 160.09375 291.144531 C 160.753906 290.113281 161.183594 288.976562 161.746094 287.894531 C 162.316406 286.800781 163.152344 285.867188 163.96875 284.957031 C 165.605469 283.132812 166.964844 281.273438 168 279.042969 C 169.839844 275.089844 170.730469 270.140625 174.199219 267.183594 C 176.003906 265.644531 178.253906 265.238281 180.574219 265.214844 C 183.160156 265.1875 185.730469 265.460938 188.316406 265.207031 C 193.074219 264.738281 197.683594 262.890625 201.523438 260.074219 C 203.261719 258.796875 204.824219 257.289062 206.203125 255.632812 C 210.523438 254.816406 215.183594 255.796875 219.550781 255.3125 C 221.015625 255.148438 222.507812 254.835938 223.925781 254.339844 L 221.902344 258.492188 C 220.949219 260.453125 219.992188 262.417969 219.039062 264.378906 C 218.175781 266.148438 216.992188 268.027344 217.820312 270.039062 C 219.535156 274.195312 224.78125 273.03125 227.941406 271.574219 C 229.472656 270.863281 230.859375 269.808594 231.570312 268.242188 C 232.359375 266.511719 231.910156 264.699219 231.964844 262.882812 C 232.0625 259.507812 233.75 256.488281 235.675781 253.808594 C 236.675781 252.421875 237.757812 251.09375 238.847656 249.777344 C 239.984375 248.40625 241.144531 247.046875 242.601562 246.003906 C 245.640625 243.832031 249.902344 244.109375 253.445312 243.574219 C 256.992188 243.035156 260.480469 242.207031 263.910156 241.160156 C 277.390625 237.042969 289.632812 228.949219 298.75 218.226562 C 303.628906 212.488281 307.207031 205.917969 310.953125 199.425781 C 312.871094 196.101562 314.859375 192.808594 317.152344 189.722656 C 319.242188 186.910156 321.714844 184.375 323.34375 181.242188 C 324.9375 178.1875 325.1875 174.621094 323.753906 171.457031 Z M 274.835938 144.949219 C 278.625 145.273438 282.402344 145.347656 286.191406 145.023438 C 289.160156 144.765625 292.726562 144.296875 295.199219 146.355469 C 297.847656 148.566406 297.867188 152.695312 295.324219 154.992188 C 295.179688 155.125 295.058594 155.269531 294.96875 155.417969 C 292.863281 154.625 290.703125 153.996094 288.78125 153.347656 C 280.835938 150.679688 272.890625 148.011719 264.945312 145.34375 C 263.414062 144.828125 261.886719 144.316406 260.355469 143.800781 C 265.179688 143.824219 270.027344 144.535156 274.835938 144.949219 Z M 98.988281 215.257812 C 97.042969 214.675781 95.101562 214.09375 93.160156 213.511719 C 92.1875 213.21875 91.21875 212.925781 90.246094 212.636719 C 89.761719 212.492188 89.273438 212.34375 88.789062 212.199219 C 88.546875 212.128906 88.300781 212.058594 88.058594 211.984375 C 87.988281 211.960938 87.914062 211.9375 87.84375 211.910156 C 87.871094 211.84375 87.894531 211.777344 87.914062 211.742188 C 88.066406 211.488281 88.277344 211.253906 88.488281 211.046875 C 88.972656 210.574219 89.542969 210.230469 90.167969 209.976562 C 91.5 209.433594 92.90625 209.507812 94.203125 210.09375 C 95.921875 210.871094 97.375 211.851562 99.269531 212.191406 C 102.828125 212.832031 106.476562 211.519531 109.695312 210.125 C 110.808594 209.644531 111.988281 209.089844 113.203125 208.605469 C 112.386719 209.113281 111.597656 209.671875 110.828125 210.300781 C 108.554688 212.164062 106.546875 214.417969 104.421875 216.511719 C 102.582031 216.539062 100.71875 215.777344 98.988281 215.257812 Z M 148 217.632812 C 145.304688 218.078125 141.707031 218.25 140.265625 220.992188 C 139.429688 222.585938 139.855469 224.265625 140.289062 225.902344 C 140.730469 227.585938 141.207031 229.265625 141.613281 230.960938 C 142.136719 233.148438 142.425781 236.132812 139.636719 236.8125 C 138.628906 237.058594 137.640625 236.726562 136.933594 235.984375 C 136.113281 235.121094 136.003906 234.136719 136.175781 233.007812 C 136.425781 231.351562 136.515625 229.820312 135.703125 228.285156 C 134.875 226.722656 133.738281 225.296875 132.730469 223.847656 C 131.839844 222.5625 131.011719 221.097656 129.738281 220.144531 C 128.460938 219.1875 126.851562 218.929688 125.292969 219.175781 C 123.722656 219.425781 122.234375 220.109375 120.769531 220.695312 C 119.042969 221.386719 117.320312 222.078125 115.59375 222.769531 C 109.039062 225.394531 102.441406 227.9375 95.988281 230.796875 C 92.78125 232.214844 89.613281 233.726562 86.527344 235.394531 C 83.734375 236.902344 80.828125 239.015625 77.625 239.511719 C 75.433594 239.851562 74.957031 237.3125 76.164062 235.878906 C 78.027344 233.660156 81.234375 234.238281 83.578125 232.90625 C 85.003906 232.09375 85.777344 230.691406 87 229.65625 C 87.996094 228.8125 89.167969 228.265625 90.386719 227.816406 C 93.078125 226.832031 95.945312 226.386719 98.578125 225.246094 C 103.738281 223.007812 107.285156 218.542969 111.296875 214.800781 C 113.300781 212.933594 115.429688 211.273438 117.960938 210.191406 C 120.878906 208.941406 124.082031 208.101562 126.433594 205.847656 C 127.238281 205.078125 127.921875 204.214844 128.414062 203.230469 C 130.933594 204.644531 133.542969 205.902344 136.140625 207.164062 C 142.503906 210.261719 148.867188 213.355469 155.230469 216.449219 C 152.820312 216.84375 150.410156 217.238281 148 217.632812 Z M 192.460938 260.625 C 190.414062 261.292969 188.203125 261.640625 186.054688 261.675781 C 183.390625 261.71875 180.714844 261.367188 178.058594 261.703125 C 172.96875 262.351562 169.683594 265.890625 167.589844 270.324219 C 166.59375 272.429688 165.886719 274.660156 164.972656 276.800781 C 164.039062 278.980469 162.804688 280.773438 161.21875 282.535156 C 160.441406 283.402344 159.65625 284.269531 159.035156 285.261719 C 158.339844 286.371094 157.910156 287.605469 157.265625 288.738281 C 156.339844 290.363281 154.601562 291.398438 152.726562 291.476562 C 152.023438 291.507812 151.179688 291.40625 150.550781 291.0625 C 149.648438 290.574219 149.925781 289.535156 150.242188 288.742188 C 151.078125 286.640625 152.8125 284.691406 154.421875 283.136719 C 156.292969 281.335938 158.363281 280.042969 158.980469 277.363281 C 159.226562 276.292969 159.316406 275.285156 159.828125 274.289062 C 160.292969 273.394531 160.941406 272.597656 161.570312 271.816406 C 163.015625 270.023438 164.550781 268.277344 165.082031 265.980469 C 165.625 263.617188 164.636719 261.144531 162.292969 260.226562 C 159.984375 259.320312 157.480469 260.21875 155.648438 261.699219 C 153.707031 263.265625 152.148438 265.183594 149.972656 266.476562 C 145.679688 269.027344 140.613281 268.742188 135.816406 269.195312 C 133.386719 269.421875 130.925781 269.855469 128.683594 270.855469 C 126.664062 271.753906 124.816406 273.789062 122.523438 273.90625 C 121.007812 273.980469 119.238281 273.226562 118.703125 271.710938 C 118.285156 270.519531 118.667969 268.804688 119.863281 268.101562 C 121.53125 267.125 124.078125 268.144531 125.851562 268.296875 C 128.574219 268.53125 130.808594 267.535156 133.238281 266.46875 C 134.273438 266.015625 135.296875 265.652344 136.433594 265.59375 C 137.710938 265.523438 139 265.757812 140.269531 265.875 C 142.535156 266.082031 144.726562 265.90625 146.835938 265.007812 C 150.480469 263.457031 153.164062 260.402344 156.109375 257.878906 C 157.515625 256.675781 158.996094 255.554688 160.730469 254.863281 C 162.972656 253.964844 165.285156 253.910156 166.929688 251.890625 C 168.4375 250.042969 169.09375 247.402344 169.589844 245.128906 C 170.113281 242.746094 170.324219 240.308594 170.503906 237.878906 C 170.683594 235.433594 170.824219 232.976562 171.199219 230.546875 C 171.558594 228.203125 172.21875 225.9375 172.882812 223.667969 C 174.21875 219.113281 175.660156 214.21875 174.402344 209.476562 C 173.746094 207 172.492188 204.722656 169.9375 203.816406 C 167.492188 202.949219 164.703125 202.761719 162.15625 202.328125 C 159.40625 201.859375 156.65625 201.386719 153.90625 200.917969 C 151.558594 200.519531 151.128906 204.179688 153.460938 204.578125 C 156.339844 205.066406 159.210938 205.558594 162.089844 206.046875 C 163.339844 206.261719 164.589844 206.472656 165.835938 206.6875 C 166.9375 206.875 168.246094 206.9375 169.230469 207.527344 C 170.90625 208.527344 171.191406 211.527344 171.207031 213.246094 C 171.226562 215.402344 170.765625 217.5625 170.207031 219.644531 C 163.03125 216.15625 155.851562 212.664062 148.675781 209.171875 C 145.101562 207.433594 141.527344 205.695312 137.953125 203.957031 C 134.722656 202.386719 131.457031 200.863281 128.40625 198.964844 C 125.34375 197.0625 122.769531 194.753906 120.304688 192.144531 C 117.894531 189.59375 115.417969 187.207031 112.464844 185.285156 C 106.722656 181.550781 100.207031 179.242188 94.039062 176.328125 C 81.402344 170.355469 69.570312 162.710938 58.898438 153.699219 C 53.945312 149.511719 47.703125 144.609375 45.972656 138.039062 C 44.402344 132.0625 47.960938 126.738281 52.933594 123.683594 C 55.605469 122.039062 58.523438 121.328125 61.507812 120.5 C 64.933594 119.554688 67.773438 118.097656 70.085938 115.335938 C 72.132812 112.890625 73.605469 110.035156 76.035156 107.90625 C 78.5 105.742188 81.511719 104.238281 84.789062 103.839844 C 87.660156 103.496094 90.703125 104.132812 93.164062 105.65625 C 94.40625 106.425781 95.492188 107.386719 96.371094 108.554688 C 97.371094 109.882812 98.007812 111.445312 98.867188 112.863281 C 100.613281 115.746094 103.242188 117.476562 106.355469 118.644531 C 109.824219 119.953125 113.429688 120.957031 116.960938 122.085938 C 124.441406 124.472656 131.917969 126.890625 139.414062 129.246094 C 146.691406 131.53125 154.066406 133.679688 161.632812 134.78125 C 176.714844 136.980469 191.847656 134.15625 206.972656 134.34375 C 214.519531 134.441406 221.914062 135.53125 229.191406 137.527344 C 236.566406 139.546875 243.789062 142.125 251.035156 144.5625 C 251.117188 144.597656 251.199219 144.625 251.285156 144.644531 C 258.875 147.195312 266.464844 149.742188 274.054688 152.292969 L 285.496094 156.136719 C 288.8125 157.25 292.238281 158.214844 295.441406 159.636719 C 297.332031 160.476562 299.125 161.5625 300.292969 163.199219 C 297.886719 163.503906 295.484375 163.886719 293.097656 164.242188 C 284.746094 165.496094 276.429688 167.082031 268.386719 169.699219 C 260.632812 172.21875 253.40625 175.894531 246.59375 180.351562 C 239.933594 184.714844 233.726562 189.726562 227.636719 194.84375 C 222.109375 199.488281 216.5625 204.476562 213.390625 211.089844 C 211.949219 214.089844 211.167969 217.511719 211.199219 220.90625 C 207.824219 222.085938 204.25 222.589844 200.679688 222.382812 C 200 218.488281 198.28125 214.773438 197.269531 210.871094 C 196.902344 209.449219 196.621094 207.976562 196.589844 206.503906 C 196.558594 204.996094 196.753906 203.488281 196.820312 201.980469 C 196.960938 198.960938 196.597656 196.042969 194.804688 193.527344 C 191.714844 189.191406 185.949219 187.71875 181.011719 186.746094 C 173.878906 185.339844 166.570312 184.980469 159.324219 185.5625 C 158.332031 185.640625 157.632812 186.722656 157.773438 187.660156 C 157.929688 188.703125 158.875 189.285156 159.871094 189.207031 C 166.003906 188.714844 172.171875 188.980469 178.242188 189.984375 C 182.695312 190.71875 188.464844 191.609375 191.527344 195.316406 C 193.167969 197.304688 193.269531 199.765625 193.121094 202.234375 C 192.933594 205.246094 192.808594 208.128906 193.535156 211.089844 C 194.886719 216.5625 198.109375 221.90625 197.078125 227.707031 C 196.484375 231.027344 195.332031 234.105469 195.398438 237.527344 C 195.460938 240.828125 196.335938 244.09375 197.96875 246.96875 C 194.824219 247.617188 191.6875 248.308594 188.597656 249.210938 C 186.554688 249.808594 184.324219 250.582031 183.507812 252.761719 C 182.65625 255.035156 184.097656 257.421875 186.089844 258.488281 C 188.371094 259.707031 191.355469 259.628906 193.863281 259.410156 C 194.617188 259.34375 195.371094 259.238281 196.117188 259.097656 C 194.945312 259.699219 193.722656 260.210938 192.460938 260.625 Z M 201.363281 245.5 C 201.179688 245.167969 201 244.832031 200.832031 244.496094 C 200.863281 244.484375 200.894531 244.476562 200.925781 244.460938 C 204.945312 242.71875 209.453125 242.3125 213.738281 241.613281 C 215.957031 241.25 218.175781 240.886719 220.394531 240.527344 C 215.222656 243.175781 209.394531 244.632812 203.707031 245.804688 C 202.984375 245.949219 202.265625 246.097656 201.542969 246.242188 C 201.550781 245.984375 201.496094 245.730469 201.363281 245.5 Z M 212.8125 238.03125 C 208.359375 238.757812 203.734375 239.257812 199.550781 241.039062 C 199.238281 239.796875 199.0625 238.515625 199.058594 237.21875 C 199.046875 234.144531 200.160156 231.296875 200.714844 228.3125 C 200.859375 227.554688 200.933594 226.808594 200.960938 226.070312 C 204.578125 226.203125 208.144531 225.71875 211.585938 224.640625 C 211.910156 226.246094 212.4375 227.8125 213.191406 229.273438 C 214.679688 232.148438 216.953125 234.433594 219.875 235.847656 C 220.46875 236.136719 221.085938 236.375 221.710938 236.574219 C 218.742188 237.0625 215.777344 237.546875 212.8125 238.03125 Z M 319.339844 180.859375 C 317.511719 183.695312 315.136719 186.148438 313.199219 188.910156 C 309.03125 194.84375 305.84375 201.378906 301.996094 207.507812 C 294.882812 218.839844 284.761719 227.96875 272.683594 233.785156 C 266.710938 236.65625 260.367188 238.707031 253.828125 239.789062 C 250.25 240.378906 246.457031 240.324219 243.039062 241.628906 C 239.652344 242.917969 237.316406 245.832031 235.097656 248.554688 C 232.992188 251.136719 230.941406 253.851562 229.625 256.933594 C 228.980469 258.4375 228.511719 260.066406 228.355469 261.699219 C 228.273438 262.574219 228.292969 263.453125 228.34375 264.328125 C 228.386719 265.070312 228.515625 265.894531 228.261719 266.617188 C 227.851562 267.789062 226.355469 268.292969 225.292969 268.675781 C 224.332031 269.027344 222.132812 269.945312 221.34375 268.808594 C 221.050781 268.386719 221.433594 267.894531 221.632812 267.480469 C 222.101562 266.496094 222.585938 265.515625 223.066406 264.535156 C 223.964844 262.6875 224.867188 260.84375 225.765625 258.996094 L 230.46875 249.332031 C 230.699219 248.9375 230.902344 248.523438 231.078125 248.085938 C 231.972656 245.859375 228.675781 244.613281 227.648438 246.722656 C 227.519531 246.984375 227.394531 247.242188 227.265625 247.503906 C 225.433594 250.703125 221.117188 251.605469 217.675781 251.78125 C 212.050781 252.074219 206.277344 250.769531 201.039062 253.519531 C 200.917969 253.585938 200.804688 253.660156 200.707031 253.738281 C 200.621094 253.765625 200.535156 253.800781 200.449219 253.839844 C 198.507812 254.75 196.496094 255.367188 194.371094 255.652344 C 192.511719 255.902344 190.332031 256.058594 188.503906 255.515625 C 187.9375 255.351562 187.078125 254.980469 186.976562 254.300781 C 186.90625 253.828125 187.335938 253.597656 187.71875 253.402344 C 189.535156 252.464844 191.78125 252.105469 193.753906 251.640625 C 202.273438 249.632812 211.082031 248.597656 219.203125 245.167969 C 223.4375 243.378906 227.449219 240.9375 230.675781 237.644531 C 230.832031 237.484375 230.960938 237.3125 231.066406 237.128906 C 234.105469 236.703125 237.078125 235.828125 239.988281 234.878906 C 243.96875 233.585938 247.933594 232.210938 251.824219 230.667969 C 259.480469 227.628906 266.667969 223.730469 273.371094 218.945312 C 279.890625 214.289062 285.921875 209 291.890625 203.664062 C 297.625 198.539062 303.433594 193.4375 308.480469 187.617188 C 310.886719 184.839844 313.089844 181.894531 314.980469 178.746094 C 315.496094 177.894531 315.449219 176.800781 314.59375 176.167969 C 313.851562 175.621094 312.527344 175.699219 312.011719 176.558594 C 308.316406 182.707031 303.445312 187.996094 298.253906 192.90625 C 292.832031 198.035156 287.226562 203.015625 281.53125 207.839844 C 275.792969 212.703125 269.804688 217.359375 263.277344 221.125 C 256.4375 225.074219 249.058594 227.953125 241.59375 230.480469 C 238.363281 231.574219 235.125 232.675781 231.761719 233.285156 C 228.84375 233.8125 225.710938 234.03125 222.847656 233.082031 C 217.453125 231.292969 214.828125 225.914062 214.898438 220.480469 C 214.980469 214.132812 218.5 208.6875 222.777344 204.238281 C 225.09375 201.828125 227.644531 199.652344 230.203125 197.511719 C 233.144531 195.042969 236.109375 192.605469 239.144531 190.25 C 245.066406 185.65625 251.253906 181.367188 257.953125 177.972656 C 264.96875 174.417969 272.460938 172.019531 280.128906 170.328125 C 287.738281 168.648438 295.539062 167.378906 303.296875 166.585938 C 309.4375 165.957031 317.441406 166.484375 320.378906 172.957031 C 321.609375 175.664062 320.898438 178.4375 319.339844 180.859375 Z M 319.339844 180.859375 " fill-opacity="1" fill-rule="nonzero"/></g></g></g><g clip-path="url(#b561fcaa5d)"><g clip-path="url(#bc34497fe4)"><g clip-path="url(#17929a279d)"><path fill="#ffffff" d="M 57.523438 128.988281 C 56.910156 128.6875 56.300781 128.382812 55.6875 128.078125 C 54.820312 127.648438 53.597656 128.222656 53.285156 129.109375 C 52.933594 130.117188 53.390625 131.042969 54.316406 131.503906 C 54.929688 131.804688 55.539062 132.109375 56.152344 132.410156 C 57.019531 132.839844 58.242188 132.269531 58.554688 131.382812 C 58.90625 130.375 58.449219 129.445312 57.523438 128.988281 Z M 57.523438 128.988281 " fill-opacity="1" fill-rule="nonzero"/></g></g></g><g clip-path="url(#15754e3623)"><g clip-path="url(#e7058ac5e9)"><g clip-path="url(#11b84409d9)"><path fill="#ffffff" d="M 97.742188 159.054688 C 88.5 160.445312 79.855469 154.070312 78.46875 144.851562 C 77.082031 135.628906 83.472656 126.996094 92.714844 125.609375 C 101.957031 124.21875 110.601562 130.589844 111.988281 139.8125 C 113.375 149.03125 106.984375 157.664062 97.742188 159.054688 Z M 93.175781 128.675781 C 85.628906 129.8125 80.410156 136.859375 81.542969 144.390625 C 82.675781 151.917969 89.734375 157.121094 97.28125 155.984375 C 104.828125 154.851562 110.046875 147.800781 108.914062 140.273438 C 107.78125 132.746094 100.722656 127.542969 93.175781 128.675781 Z M 93.175781 128.675781 " fill-opacity="1" fill-rule="nonzero"/></g></g></g><g clip-path="url(#982a67ea9f)"><g clip-path="url(#bdf8dc3e59)"><g clip-path="url(#522a690a18)"><path fill="#ffffff" d="M 89.539062 149.152344 C 84.496094 149.910156 79.773438 146.433594 79.019531 141.398438 C 78.261719 136.367188 81.75 131.65625 86.792969 130.894531 C 91.839844 130.136719 96.558594 133.617188 97.316406 138.648438 C 98.074219 143.683594 94.582031 148.394531 89.539062 149.152344 Z M 87.253906 133.964844 C 83.90625 134.46875 81.589844 137.597656 82.09375 140.9375 C 82.59375 144.28125 85.730469 146.589844 89.078125 146.085938 C 92.425781 145.582031 94.742188 142.453125 94.242188 139.109375 C 93.738281 135.769531 90.605469 133.460938 87.253906 133.964844 Z M 87.253906 133.964844 " fill-opacity="1" fill-rule="nonzero"/></g></g></g><g clip-path="url(#985bc9b39a)"><g clip-path="url(#b6650a69ad)"><g clip-path="url(#d6e7929ccd)"><path fill="#ffffff" d="M 147.183594 183.476562 C 144.832031 183.828125 145.375 187.472656 147.730469 187.117188 C 150.078125 186.765625 149.535156 183.121094 147.183594 183.476562 Z M 147.183594 183.476562 " fill-opacity="1" fill-rule="nonzero"/></g></g></g><g clip-path="url(#7948c5135e)"><g clip-path="url(#066800ba4e)"><g clip-path="url(#9e22720316)"><path fill="#ffffff" d="M 262.125 156.878906 C 254.402344 152.757812 245.984375 150.097656 237.675781 147.417969 C 229.5 144.78125 221.046875 142.371094 212.386719 142.316406 C 207.261719 142.285156 202.210938 143.3125 197.097656 143.351562 C 196.101562 143.355469 195.171875 143.886719 195.042969 144.960938 C 194.9375 145.851562 195.652344 147.019531 196.65625 147.011719 C 201.234375 146.976562 205.746094 146.1875 210.3125 146.003906 C 214.480469 145.835938 218.675781 146.339844 222.757812 147.148438 C 231.113281 148.796875 239.289062 151.683594 247.296875 154.527344 C 251.902344 156.167969 256.4375 158 260.753906 160.304688 C 261.632812 160.773438 262.8125 160.125 263.152344 159.273438 C 263.558594 158.261719 263.007812 157.351562 262.125 156.878906 Z M 262.125 156.878906 " fill-opacity="1" fill-rule="nonzero"/></g></g></g><g clip-path="url(#ecbbdf45c4)"><g clip-path="url(#308bf764d2)"><g clip-path="url(#98afc63cf4)"><path fill="#ffffff" d="M 271.007812 160.59375 C 268.65625 160.949219 269.199219 164.59375 271.554688 164.238281 C 273.902344 163.886719 273.359375 160.242188 271.007812 160.59375 Z M 271.007812 160.59375 " fill-opacity="1" fill-rule="nonzero"/></g></g></g></svg>