<svg xmlns="http://www.w3.org/2000/svg" xmlns:xlink="http://www.w3.org/1999/xlink" width="500" zoomAndPan="magnify" viewBox="0 0 375 374.999991" height="500" preserveAspectRatio="xMidYMid meet" version="1.0"><defs><clipPath id="d35bab6a32"><path d="M 187.5 0 C 83.945312 0 0 83.945312 0 187.5 C 0 291.054688 83.945312 375 187.5 375 C 291.054688 375 375 291.054688 375 187.5 C 375 83.945312 291.054688 0 187.5 0 Z M 187.5 0 " clip-rule="nonzero"/></clipPath></defs><g clip-path="url(#d35bab6a32)"><rect x="-37.5" width="450" fill="#a2c36e" y="-37.499999" height="449.999989" fill-opacity="1"/></g><path fill="#ffffff" d="M 62.707031 248.5 C 62.671875 248.394531 62.652344 248.269531 62.621094 248.160156 C 80.25 250.433594 94.78125 259.804688 104.285156 267.789062 C 104.257812 268.058594 104.242188 268.324219 104.234375 268.585938 C 104.136719 268.539062 104.027344 268.484375 103.929688 268.441406 C 99.980469 266.679688 92.410156 263.089844 85.089844 259.613281 C 75.609375 255.117188 66.660156 250.871094 63.519531 249.59375 C 63.375 249.539062 63 249.382812 62.707031 248.5 Z M 65.632812 232.804688 C 83.027344 237.625 99.03125 255.476562 104.621094 262.273438 C 94.546875 254.308594 80.007812 245.71875 62.558594 243.632812 C 63.042969 239.835938 64.472656 235.335938 65.632812 232.804688 Z M 77.484375 223.878906 C 86.9375 231.953125 102.507812 248.355469 109.890625 260.15625 C 109.609375 260.285156 109.332031 260.445312 109.050781 260.597656 C 104.414062 254.742188 87.972656 235.382812 68.847656 229.089844 C 71.179688 227.3125 74.554688 225.292969 77.484375 223.878906 Z M 82.953125 222.117188 C 95.144531 226.261719 108.097656 247.878906 114.574219 258.835938 C 114.503906 258.84375 114.421875 258.863281 114.347656 258.875 C 107.246094 246.976562 92.230469 230.976562 82.292969 222.121094 C 82.550781 222.089844 82.78125 222.082031 82.953125 222.117188 Z M 117.171875 263.195312 C 118.550781 265.453125 119.257812 266.429688 119.929688 266.917969 C 122.054688 268.460938 124.8125 268.46875 126.949219 266.933594 C 129.101562 265.390625 129.980469 262.765625 129.195312 260.25 C 128.78125 258.898438 127.558594 256.542969 126.144531 253.808594 C 124.710938 251.050781 122.933594 247.621094 122.535156 246.121094 C 119.273438 234.007812 121.269531 226.769531 128.472656 224.605469 C 134.007812 222.945312 143.8125 220.757812 151.300781 219.316406 C 151.554688 220.144531 151.816406 220.945312 152.089844 221.710938 C 154.066406 227.210938 156.113281 232.898438 158.515625 236.949219 C 162.976562 244.472656 166.519531 249.023438 169.484375 252.171875 C 163.632812 250.992188 158.144531 249.449219 154.691406 248.402344 C 152.992188 247.882812 151.183594 248.363281 149.960938 249.648438 C 148.730469 250.9375 148.339844 252.777344 148.9375 254.457031 C 155.117188 271.789062 156.484375 284.59375 152.511719 287.878906 C 143.746094 295.136719 126.324219 283.167969 114.796875 275.246094 C 112.71875 273.820312 110.78125 272.492188 109.023438 271.351562 C 108.664062 269.992188 108.246094 266.339844 110.4375 264.945312 C 113 263.316406 115.652344 263.132812 117.171875 263.195312 Z M 153.265625 136.679688 C 154.941406 131.082031 157.03125 126.949219 159.613281 122.132812 C 161.613281 123.96875 164.238281 125.050781 167.054688 125.050781 C 173.148438 125.050781 178.105469 120.089844 178.105469 114 C 178.105469 108.367188 173.855469 103.714844 168.394531 103.050781 C 174.859375 91.230469 185.738281 90.976562 186.226562 90.972656 L 188.761719 90.972656 C 189.257812 90.976562 200.144531 91.230469 206.605469 103.050781 C 201.144531 103.714844 196.894531 108.367188 196.894531 114 C 196.894531 120.089844 201.851562 125.050781 207.945312 125.050781 C 210.761719 125.050781 213.382812 123.96875 215.382812 122.132812 C 217.96875 126.949219 220.058594 131.082031 221.734375 136.679688 C 224.476562 145.84375 226.574219 198.230469 218.683594 220.191406 C 216.777344 225.496094 214.804688 230.984375 212.621094 234.65625 C 205.242188 247.097656 200.789062 250.777344 196.855469 254.023438 L 196.382812 254.417969 C 196.292969 254.484375 196.203125 254.558594 196.101562 254.644531 C 193.914062 256.460938 190.820312 257.449219 187.566406 257.351562 L 187.363281 257.351562 C 184.164062 257.449219 181.082031 256.460938 178.863281 254.617188 C 178.785156 254.550781 178.703125 254.480469 178.617188 254.417969 L 178.140625 254.023438 C 174.210938 250.777344 169.753906 247.097656 162.375 234.65625 C 160.1875 230.976562 158.21875 225.496094 156.316406 220.191406 C 148.421875 198.230469 150.519531 145.839844 153.265625 136.679688 Z M 163.703125 114.1875 C 164.105469 115.371094 165.210938 116.230469 166.527344 116.230469 C 168.179688 116.230469 169.519531 114.890625 169.519531 113.238281 C 169.519531 111.585938 168.179688 110.246094 166.527344 110.246094 C 166.070312 110.246094 165.644531 110.355469 165.257812 110.539062 C 165.59375 109.691406 165.925781 108.816406 166.253906 107.882812 C 166.300781 107.75 166.351562 107.628906 166.402344 107.496094 C 166.617188 107.472656 166.832031 107.453125 167.054688 107.453125 C 170.671875 107.453125 173.617188 110.386719 173.617188 114 C 173.617188 117.617188 170.671875 120.5625 167.054688 120.5625 C 164.980469 120.5625 163.074219 119.582031 161.851562 117.960938 C 162.429688 116.855469 163.054688 115.601562 163.703125 114.1875 Z M 208.597656 107.496094 C 208.644531 107.628906 208.699219 107.753906 208.746094 107.890625 C 209.074219 108.820312 209.40625 109.695312 209.742188 110.539062 C 209.351562 110.355469 208.925781 110.246094 208.46875 110.246094 C 206.816406 110.246094 205.476562 111.585938 205.476562 113.238281 C 205.476562 114.890625 206.816406 116.230469 208.46875 116.230469 C 209.789062 116.230469 210.894531 115.375 211.292969 114.1875 C 211.941406 115.601562 212.570312 116.855469 213.148438 117.960938 C 211.921875 119.582031 210.019531 120.5625 207.945312 120.5625 C 204.328125 120.5625 201.382812 117.617188 201.382812 114 C 201.382812 110.386719 204.328125 107.453125 207.945312 107.453125 C 208.164062 107.453125 208.378906 107.472656 208.597656 107.496094 Z M 246.523438 224.605469 C 253.726562 226.769531 255.726562 234.007812 252.460938 246.128906 C 252.066406 247.621094 250.285156 251.050781 248.855469 253.8125 C 247.441406 256.542969 246.21875 258.898438 245.808594 260.238281 C 245.019531 262.765625 245.898438 265.394531 248.046875 266.933594 C 250.1875 268.46875 252.941406 268.464844 255.070312 266.917969 C 255.742188 266.429688 256.449219 265.449219 257.824219 263.191406 C 259.34375 263.128906 262 263.3125 264.5625 264.945312 C 266.75 266.339844 266.335938 269.992188 265.976562 271.351562 C 264.21875 272.492188 262.28125 273.820312 260.203125 275.246094 C 248.675781 283.167969 231.253906 295.136719 222.484375 287.878906 C 218.511719 284.59375 219.882812 271.789062 226.058594 254.457031 C 226.660156 252.777344 226.265625 250.933594 225.039062 249.648438 C 223.8125 248.363281 222.003906 247.890625 220.308594 248.402344 C 216.855469 249.449219 211.363281 250.992188 205.515625 252.171875 C 208.480469 249.027344 212.019531 244.472656 216.480469 236.949219 C 218.882812 232.90625 220.929688 227.214844 222.910156 221.710938 C 223.183594 220.945312 223.445312 220.144531 223.695312 219.316406 C 231.1875 220.757812 240.992188 222.945312 246.523438 224.605469 Z M 292.011719 222.128906 C 292.191406 222.089844 292.429688 222.097656 292.699219 222.125 C 282.757812 230.984375 267.75 246.980469 260.648438 258.875 C 260.578125 258.863281 260.496094 258.84375 260.425781 258.835938 C 266.902344 247.878906 279.851562 226.261719 292.011719 222.128906 Z M 306.152344 229.089844 C 287.027344 235.382812 270.585938 254.742188 265.949219 260.597656 C 265.667969 260.445312 265.386719 260.285156 265.109375 260.15625 C 272.492188 248.351562 288.0625 231.945312 297.519531 223.875 C 300.453125 225.289062 303.824219 227.308594 306.152344 229.089844 Z M 312.441406 243.632812 C 294.992188 245.71875 280.453125 254.308594 270.378906 262.273438 C 275.972656 255.472656 291.972656 237.625 309.363281 232.804688 C 310.527344 235.335938 311.957031 239.835938 312.441406 243.632812 Z M 312.292969 248.5 C 312 249.382812 311.621094 249.539062 311.480469 249.59375 C 308.339844 250.871094 299.378906 255.121094 289.894531 259.621094 C 282.582031 263.089844 275.015625 266.679688 271.070312 268.441406 C 270.972656 268.484375 270.863281 268.539062 270.761719 268.589844 C 270.753906 268.324219 270.742188 268.058594 270.714844 267.789062 C 280.214844 259.804688 294.746094 250.433594 312.375 248.160156 C 312.347656 248.269531 312.328125 248.394531 312.292969 248.5 Z M 147.226562 147.445312 C 136.964844 142.464844 132.238281 139.84375 131.308594 139.042969 C 129.730469 137.6875 122.617188 126.695312 117.425781 118.664062 C 112.710938 111.375 108.640625 105.078125 107.136719 103.359375 C 104.746094 100.625 99.519531 98.25 95.242188 96.65625 L 97.226562 92.691406 C 97.78125 91.550781 98 90.292969 97.863281 89.054688 L 97.480469 85.519531 L 100.339844 86.464844 C 101.617188 86.902344 103.003906 86.835938 104.269531 86.269531 L 107.976562 84.519531 L 109.992188 96.089844 C 110.136719 96.953125 110.472656 97.765625 111.023438 98.542969 L 111.710938 99.476562 C 125.375 118.105469 133.390625 128.773438 135.539062 131.191406 C 137.902344 133.839844 144.050781 136.132812 148.46875 137.515625 C 148.007812 139.886719 147.578125 143.296875 147.226562 147.445312 Z M 239.464844 131.1875 C 241.609375 128.773438 249.621094 118.105469 263.289062 99.476562 L 264 98.511719 C 264.523438 97.769531 264.863281 96.957031 265.003906 96.105469 L 267.015625 84.554688 L 270.753906 86.28125 C 271.996094 86.835938 273.382812 86.902344 274.636719 86.472656 L 277.519531 85.519531 L 277.136719 89.046875 C 276.996094 90.289062 277.21875 91.550781 277.785156 92.710938 L 279.753906 96.65625 C 275.5 98.242188 270.257812 100.617188 267.863281 103.359375 C 266.359375 105.078125 262.285156 111.375 257.570312 118.664062 C 252.378906 126.695312 245.269531 137.6875 243.6875 139.046875 C 242.757812 139.84375 238.035156 142.464844 227.769531 147.445312 C 227.417969 143.296875 226.992188 139.886719 226.53125 137.515625 C 230.945312 136.132812 237.097656 133.839844 239.464844 131.1875 Z M 102.105469 272.539062 C 104.453125 273.585938 108.066406 276.070312 112.253906 278.945312 C 122.300781 285.851562 135.136719 294.667969 145.726562 294.667969 C 149.253906 294.667969 152.53125 293.691406 155.371094 291.339844 C 162.699219 285.28125 158.21875 267.121094 153.164062 252.949219 C 153.148438 252.90625 153.125 252.832031 153.207031 252.746094 C 153.285156 252.664062 153.34375 252.683594 153.386719 252.699219 C 158.292969 254.183594 167.175781 256.640625 175.621094 257.761719 L 176.03125 258.101562 C 178.914062 260.496094 182.867188 261.847656 186.945312 261.847656 C 187.128906 261.847656 187.316406 261.84375 187.5 261.835938 C 191.757812 261.964844 195.953125 260.605469 199.003906 258.058594 L 199.371094 257.765625 C 207.816406 256.644531 216.707031 254.183594 221.617188 252.695312 C 221.65625 252.683594 221.714844 252.667969 221.792969 252.746094 C 221.875 252.832031 221.847656 252.910156 221.832031 252.949219 C 216.78125 267.117188 212.296875 285.28125 219.625 291.335938 C 222.46875 293.691406 225.742188 294.667969 229.273438 294.667969 C 239.863281 294.667969 252.699219 285.851562 262.746094 278.945312 C 266.929688 276.070312 270.546875 273.585938 272.894531 272.539062 C 276.894531 270.757812 284.480469 267.160156 291.820312 263.675781 C 300.828125 259.402344 310.148438 254.980469 313.171875 253.753906 C 314.28125 253.300781 315.773438 252.269531 316.554688 249.914062 C 318.632812 243.652344 314.203125 231.945312 312.574219 229.25 C 311.082031 226.789062 304.234375 221.898438 298.277344 219.328125 C 298.101562 219.226562 297.921875 219.144531 297.730469 219.09375 C 294.851562 217.910156 292.230469 217.3125 290.601562 217.867188 C 276.605469 222.625 263.328125 245.09375 256.195312 257.164062 C 254.585938 259.890625 252.921875 262.707031 252.355469 263.339844 C 251.59375 263.835938 250.921875 263.472656 250.664062 263.289062 C 250.453125 263.136719 249.785156 262.5625 250.09375 261.566406 C 250.386719 260.605469 251.691406 258.09375 252.839844 255.875 C 254.53125 252.617188 256.277344 249.25 256.796875 247.289062 C 261.796875 228.714844 254.671875 222.367188 247.8125 220.308594 C 242.226562 218.628906 232.429688 216.433594 224.855469 214.96875 C 228.996094 197.328125 229.25 170.222656 228.121094 152.257812 C 236.261719 148.339844 244.71875 144.082031 246.613281 142.449219 C 248.539062 140.796875 253.695312 132.925781 261.339844 121.101562 C 265.574219 114.554688 269.949219 107.789062 271.242188 106.3125 C 272.6875 104.65625 276.726562 102.519531 282.019531 100.605469 C 283.03125 100.25 283.847656 99.476562 284.253906 98.476562 C 284.660156 97.472656 284.617188 96.34375 284.136719 95.378906 L 281.808594 90.722656 C 281.625 90.34375 281.550781 89.949219 281.597656 89.535156 L 282.09375 84.945312 C 282.242188 83.644531 281.722656 82.375 280.699219 81.554688 C 279.679688 80.738281 278.339844 80.503906 277.132812 80.917969 L 273.207031 82.21875 C 273.011719 82.285156 272.789062 82.269531 272.609375 82.195312 L 268.769531 80.421875 C 267.554688 79.867188 266.175781 79.890625 264.984375 80.488281 C 263.785156 81.085938 262.933594 82.183594 262.625 83.589844 L 260.578125 95.351562 C 260.546875 95.546875 260.46875 95.730469 260.359375 95.886719 L 259.667969 96.824219 C 242.75 119.886719 237.515625 126.621094 236.113281 128.203125 C 234.882812 129.578125 230.570312 131.535156 225.332031 133.191406 C 223.457031 127.648438 221.195312 123.445312 218.410156 118.289062 L 217.71875 117 C 216.363281 114.488281 214.605469 111.015625 212.980469 106.402344 C 212.777344 105.820312 212.558594 105.253906 212.335938 104.6875 C 205.09375 86.691406 189.433594 86.484375 188.769531 86.484375 L 186.226562 86.484375 C 185.566406 86.484375 169.90625 86.691406 162.660156 104.699219 C 162.441406 105.253906 162.222656 105.820312 162.019531 106.398438 C 160.398438 111 158.640625 114.476562 157.289062 116.988281 C 157.285156 116.988281 157.285156 116.992188 157.285156 116.992188 C 157.285156 116.996094 157.28125 116.996094 157.28125 117 L 156.589844 118.285156 C 153.804688 123.441406 151.542969 127.644531 149.667969 133.191406 C 144.429688 131.535156 140.117188 129.582031 138.890625 128.207031 C 137.480469 126.621094 132.25 119.886719 115.328125 96.824219 L 114.664062 95.917969 C 114.53125 95.730469 114.449219 95.542969 114.417969 95.335938 L 112.351562 83.492188 C 112.066406 82.183594 111.214844 81.089844 110.015625 80.488281 C 108.824219 79.890625 107.441406 79.867188 106.21875 80.425781 L 102.414062 82.179688 C 102.210938 82.269531 101.988281 82.285156 101.769531 82.210938 L 97.890625 80.929688 C 96.660156 80.503906 95.316406 80.738281 94.300781 81.554688 C 93.277344 82.375 92.753906 83.644531 92.902344 84.929688 L 93.402344 89.542969 C 93.445312 89.945312 93.375 90.34375 93.199219 90.703125 L 90.863281 95.378906 C 90.378906 96.34375 90.335938 97.472656 90.746094 98.476562 C 91.152344 99.476562 91.964844 100.25 92.953125 100.59375 C 98.273438 102.519531 102.308594 104.65625 103.757812 106.316406 C 105.046875 107.789062 109.425781 114.558594 113.660156 121.105469 C 121.300781 132.925781 126.457031 140.796875 128.382812 142.445312 C 130.277344 144.078125 138.738281 148.339844 146.875 152.257812 C 145.75 170.21875 146 197.328125 150.144531 214.96875 C 142.566406 216.433594 132.773438 218.628906 127.183594 220.308594 C 120.324219 222.367188 113.199219 228.714844 118.199219 247.285156 C 118.722656 249.25 120.46875 252.617188 122.15625 255.875 C 123.304688 258.09375 124.609375 260.605469 124.90625 261.574219 C 125.214844 262.5625 124.546875 263.136719 124.332031 263.289062 C 124.074219 263.472656 123.402344 263.839844 122.644531 263.339844 C 122.078125 262.707031 120.414062 259.890625 118.800781 257.164062 C 111.667969 245.09375 98.394531 222.625 84.398438 217.867188 C 82.773438 217.3125 80.15625 217.910156 77.28125 219.089844 C 77.082031 219.144531 76.886719 219.230469 76.707031 219.339844 C 70.753906 221.910156 63.914062 226.792969 62.425781 229.25 C 60.792969 231.945312 56.367188 243.652344 58.445312 249.914062 C 59.226562 252.269531 60.714844 253.300781 61.828125 253.753906 C 64.847656 254.980469 74.160156 259.398438 83.164062 263.667969 C 90.507812 267.15625 98.101562 270.757812 102.105469 272.539062 " fill-opacity="1" fill-rule="nonzero"/></svg>