<?xml version="1.0" encoding="UTF-8" standalone="no"?>
<svg
   version="1.1"
   id="svg1301"
   width="236.53345"
   height="187.17422"
   xmlns="http://www.w3.org/2000/svg"
   xmlns:svg="http://www.w3.org/2000/svg">
  <defs
     id="defs1305" />
  <path
     style="fill:#ffffff;stroke-width:3.44531"
     d="m 17.17789,185.45344 c -3.210555,-3.86848 -3.295572,-7.85886 -0.357134,-16.76241 7.157338,-21.68696 30.748908,-36.48931 62.785488,-39.39429 18.42795,-1.67099 20.11321,-1.2461 20.11321,5.07098 0,5.80616 -3.0491,7.25314 -19.31151,9.16447 -28.68924,3.37186 -49.59473,16.68712 -49.59473,31.58819 0,10.75619 -8.15514,16.93628 -13.635324,10.33306 z m 18.930224,-8.58372 c -3.04178,-4.92171 10.541,-15.92459 25.00999,-20.25961 7.08884,-2.12386 24.22493,-5.46933 38.08021,-7.43436 29.736986,-4.21746 37.029256,-7.45809 49.403746,-21.95463 7.34388,-8.60326 10.14726,-9.97245 13.53936,-6.61272 3.40609,3.37358 3.29974,6.06464 -0.52189,13.20541 -7.71714,14.41961 -29.4835,24.70543 -63.973936,30.23124 -17.24746,2.76327 -36.16275,7.50823 -42.03398,10.54436 -12.24876,6.33408 -16.67807,6.85195 -19.5035,2.28031 z M 1.7067463,156.28158 c -2.790499,-4.51513 3.072033,-18.22414 10.7492777,-25.13623 9.94113,-8.95034 27.34125,-15.22438 60.35998,-21.76426 46.141646,-9.13909 58.847106,-19.92373 45.657306,-38.75482 -10.7237,-15.31022 -46.918206,-6.54104 -37.134006,8.9968 5.62653,8.93522 14.93484,9.29206 14.93484,0.57253 0,-5.17054 1.80224,-7.0488 5.989726,-6.24236 15.56592,2.99772 4.17935,26.91423 -12.813766,26.91423 -19.51516,0 -32.20465,-29.57167 -18.14817,-42.29261 9.38683,-8.49496 25.20511,-13.328727 35.917856,-10.97581 14.78537,3.24741 30.39809,20.61643 30.39809,33.81763 0,22.95304 -15.12983,32.8575 -66.264596,43.37889 -40.56644,8.34686 -49.36598,12.34303 -54.50644,24.7532 -4.024297,9.71551 -11.2976717,12.94998 -15.1400977,6.73281 z M 105.12868,135.71097 c -2.3447,-3.79381 6.43465,-11.51525 9.55035,-8.39955 1.24684,1.24684 2.26698,4.33417 2.26698,6.86073 0,5.13248 -8.88154,6.28901 -11.81733,1.53882 z m 19.50672,-4.41505 c -3.00961,-3.00961 -1.53369,-6.76591 6.05403,-15.40784 12.91771,-14.71245 15.65009,-29.87379 8.83903,-49.04557 -6.30091,-17.73578 -6.88838,-35.782953 -1.50734,-46.305042 10.59083,-20.70928933 35.26903,-26.1583563 47.58107,-10.506135 9.04295,11.496245 9.00769,18.627128 -0.14966,30.26882 -8.27946,10.525627 -22.26261,11.130207 -28.46048,1.230514 -5.11466,-8.169507 2.14032,-16.018527 9.30786,-10.069996 7.22759,5.998374 15.34179,-4.177399 9.21641,-11.558033 -6.1875,-7.455473 -16.00466,-6.354647 -22.19917,2.489259 -6.743,9.626987 -6.80186,21.852322 -0.19536,40.577143 7.12241,20.18706 6.39559,33.83744 -2.64066,49.59444 -9.5816,16.70795 -20.18506,24.39311 -25.84573,18.73244 z m 38.38661,-18.26296 c -1.04365,-2.71969 -0.93531,-6.50182 0.24075,-8.40472 2.81627,-4.55682 12.25356,-0.81958 12.25356,4.85251 0,6.47295 -10.25474,9.38844 -12.49431,3.55221 z m 43.50211,-15.6108 c -8.15899,-8.159 -8.7669,-14.82566 -1.87357,-20.54662 6.17025,-5.12086 13.39493,-1.29325 10.71939,5.6791 -1.20115,3.13015 -0.29175,4.55132 2.34911,3.67104 8.05314,-2.68439 4.6648,-14.35229 -5.17256,-17.8119 -7.62111,-2.6802 -11.33925,-1.95529 -18.94922,3.69447 -5.20722,3.86591 -11.2261,10.49838 -13.37529,14.73881 -6.21989,12.27206 -10.0688,14.8443 -14.40106,9.62424 -2.94897,-3.55329 -2.37017,-7.55028 2.39102,-16.51124 13.6824,-25.75147 44.44453,-35.28907 60.86332,-18.87028 11.50812,11.50813 11.24576,26.74774 -0.62124,36.08232 -11.2392,8.84075 -13.31553,8.86443 -21.9299,0.25006 z"
     id="path1181" />
</svg>
