<?xml version="1.0" encoding="UTF-8" standalone="no"?>
<svg
   width="209.95116"
   zoomAndPan="magnify"
   viewBox="0 0 157.46337 266.5547"
   height="355.40628"
   preserveAspectRatio="xMidYMid"
   version="1.0"
   id="svg217"
   xmlns="http://www.w3.org/2000/svg"
   xmlns:svg="http://www.w3.org/2000/svg">
  <defs
     id="defs203" />
  <path
     style="fill:#ffffff;fill-opacity:1;stroke-width:3.83789"
     d="M 56.431726,263.2701 C 24.751266,254.60463 8.2283917e-7,223.05576 8.2283917e-7,191.34016 8.2283917e-7,165.42826 13.025866,144.00884 44.486536,118.18754 c 15.4427,-12.67458 30.81848,-27.227729 34.16839,-32.340349 5.58801,-8.52837 5.55525,-10.20223 -0.3969,-20.2784 -3.65428,-6.186218 -5.36363,-13.911924 -3.91393,-17.689782 2.43995,-6.358394 2.96858,-6.349712 10.1695,0.167025 9.18243,8.309991 9.74553,4.751158 1.46595,-9.265054 -5.55885,-9.410376 -5.57709,-11.699807 -0.19584,-24.578964 C 89.047396,6.3909075 93.166336,-4.7150754e-7 94.936916,-4.7150754e-7 c 1.77057,0 9.128144,4.93297797150754 16.350144,10.96217747150754 12.95737,10.817284 13.04422,11.094491 6.57134,20.973362 -9.80548,14.965046 -8.64035,22.463396 3.03514,19.533037 13.26054,-3.328184 13.02473,9.24697 -0.40771,21.741805 -5.50135,5.11734 -14.94461,16.44295 -20.985044,25.16802 -6.04044,8.725069 -22.21462,24.690649 -35.94262,35.479069 -31.19912,24.51843 -38.38642,37.41412 -35.31345,63.36051 1.71793,14.50526 5.15563,22.17241 13.8312,30.84799 10.20334,10.20333 14.67493,11.7219 38.4767,13.06683 32.836044,1.8554 42.590234,-3.33742 51.859344,-27.60824 5.62641,-14.73254 5.80944,-18.56114 1.33777,-27.98409 -10.21296,-21.52136 -49.402834,-30.70049 -55.054114,-12.89489 -2.6986,8.50255 4.81384,25.74885 12.50108,28.69873 6.94047,2.6633 16.264224,-4.39283 16.264224,-12.30862 0,-4.68203 1.0748,-4.86483 5.75684,-0.97908 8.76915,7.27775 7.28662,25.77645 -2.48491,31.00601 -11.437764,6.1213 -35.073524,-1.36643 -45.282824,-14.34545 -8.52325,-10.83555 -10.61167,-35.09148 -4.07325,-47.30863 5.02274,-9.38508 28.13046,-16.7534 43.455874,-13.8567 60.22449,11.3832 72.18787,86.14819 17.97429,112.32995 -23.069044,11.1409 -44.098214,13.48168 -66.375214,7.38831 z"
     id="path357" />
</svg>
