<?xml version="1.0" encoding="UTF-8" standalone="no"?>
<!-- Created with Inkscape (http://www.inkscape.org/) -->

<svg
   width="139.36842mm"
   height="190.60648mm"
   viewBox="0 0 139.36842 190.60648"
   version="1.1"
   id="svg5"
   xml:space="preserve"
   xmlns="http://www.w3.org/2000/svg"
   xmlns:svg="http://www.w3.org/2000/svg"><defs
     id="defs2" /><g
     id="layer1"
     transform="translate(-38.735642,-48.499842)"><path
       style="fill:#ffffff;fill-opacity:1;stroke-width:0.352778"
       d="m 104.28422,238.86754 c -5.601243,-0.67032 -5.648293,-0.72879 -3.86425,-4.80237 4.60356,-10.51153 6.49147,-21.23191 5.34674,-30.36129 -0.93557,-7.46136 -2.86658,-12.00761 -6.938853,-16.33646 -4.12387,-4.3837 -7.82663,-6.6464 -14.16913,-8.65851 -23.06719,-7.31793 -39.29811,-23.15736 -44.57652,-43.50135 -1.40878,-5.42969 -1.76298,-13.83258 -0.82063,-19.46825 1.34774,-8.06 4.72518,-18.229845 8.83965,-26.617102 4.38648,-8.941735 9.3281,-15.952018 16.41265,-23.283333 3.46333,-3.583959 4.48427,-4.918692 6.65555,-8.701252 2.44695,-4.262783 2.64551,-4.502683 4.32488,-5.225127 2.37663,-1.022398 6.83741,-1.956383 12.99398,-2.720643 7.43277,-0.922683 32.431123,-0.922683 39.863893,0 6.15657,0.76426 10.61735,1.698245 12.99398,2.720643 1.67937,0.722444 1.87793,0.962344 4.32488,5.225127 2.17129,3.78256 3.19222,5.117293 6.65555,8.701252 7.08455,7.331315 12.02617,14.341598 16.41265,23.283333 4.11447,8.387257 7.49192,18.557102 8.83965,26.617102 0.93988,5.62092 0.5878,14.04016 -0.81285,19.43744 -3.64627,14.05061 -12.39708,25.88118 -25.69005,34.73144 -6.05067,4.02843 -15.56579,8.21665 -22.01826,9.69165 -1.66099,0.37969 -2.22907,0.74714 -3.94665,2.55284 -2.05305,2.15838 -4.33057,6.10339 -5.35466,9.27508 -0.99081,3.06863 -1.26577,5.11472 -1.6228,12.0758 -0.19137,3.73128 -0.59813,8.4144 -0.90391,10.40695 -0.80016,5.21399 -3.11086,14.48125 -5.03751,20.20336 l -1.66293,4.93889 -1.93646,0.0493 c -1.06505,0.0271 -3.00392,-0.0784 -4.30859,-0.23455 z M 76.641387,156.81779 c 0.30691,-0.11777 0.55802,-0.41286 0.55802,-0.65574 0,-0.24289 -1.49401,-2.67953 -3.32001,-5.41476 -5.50534,-8.24662 -8.92333,-16.16392 -10.84139,-25.11259 -0.67348,-3.1421 -0.79395,-4.77475 -0.79395,-10.75972 0,-5.99339 0.11984,-7.61318 0.79606,-10.75971 1.13969,-5.303185 2.58158,-9.438407 4.99471,-14.324523 1.15996,-2.348693 2.10902,-4.435147 2.10902,-4.636562 0,-0.201419 -0.27692,-0.472476 -0.61538,-0.602354 -0.83151,-0.319084 -1.77621,0.920715 -3.73341,4.899621 -2.16387,4.399082 -3.61285,8.673513 -4.7195,13.922438 -0.82555,3.9156 -0.93908,5.26559 -0.95241,11.3247 -0.0128,5.80443 0.11146,7.51299 0.79517,10.93611 1.77818,8.9027 5.5377,17.86285 10.8054,25.75278 2.33297,3.49431 3.96091,5.64445 4.27361,5.64445 0.0473,0 0.33715,-0.0964 0.64406,-0.21414 z m 65.027273,-0.57961 c 1.68407,-1.80768 6.30873,-9.21507 8.42455,-13.49375 8.69033,-17.57383 9.03494,-36.86105 0.9522,-53.292978 -1.9572,-3.978907 -2.9019,-5.218705 -3.73341,-4.899621 -0.33846,0.129878 -0.61538,0.400935 -0.61538,0.602354 0,0.201415 0.94906,2.287869 2.10902,4.636562 2.41313,4.886116 3.85502,9.021338 4.99471,14.324523 0.67622,3.14653 0.79606,4.76632 0.79606,10.75971 0,5.98497 -0.12047,7.61762 -0.79395,10.75972 -1.91806,8.94867 -5.33605,16.86597 -10.84139,25.11259 -1.826,2.73523 -3.32001,5.17563 -3.32001,5.4231 0,0.39504 0.45919,0.74786 1.08504,0.83368 0.1117,0.0153 0.53585,-0.32933 0.94256,-0.76589 z M 85.953657,143.18156 c 0.0651,-0.34166 -0.37086,-1.23894 -0.96884,-1.99396 -0.59799,-0.75502 -1.96113,-2.85161 -3.0292,-4.65909 -7.1183,-12.04617 -7.85218,-25.14585 -2.07014,-36.951415 1.39906,-2.85656 1.55004,-3.37135 1.11606,-3.80533 -0.73769,-0.737693 -1.3973,-0.318561 -2.45031,1.55699 -5.02869,8.956775 -5.96969,21.514005 -2.37551,31.700085 1.45007,4.10957 3.28578,7.71667 5.96741,11.72576 1.75149,2.6185 2.33265,3.24287 2.93777,3.1562 0.41489,-0.0594 0.80763,-0.38758 0.87276,-0.72924 z m 48.756953,-2.44681 c 2.66887,-3.99001 4.50601,-7.60184 5.95414,-11.70591 3.59418,-10.18608 2.65318,-22.74331 -2.37551,-31.700085 -1.05301,-1.875551 -1.71262,-2.294683 -2.45031,-1.55699 -0.43398,0.43398 -0.283,0.94877 1.11606,3.80533 4.81394,9.828925 5.13147,20.026345 0.96038,30.842355 -1.14306,2.96404 -4.23269,8.46135 -6.03311,10.73456 -1.41524,1.7869 -1.40276,2.82514 0.034,2.82514 0.39457,0 1.42268,-1.19368 2.79438,-3.2444 z m -7.41677,-82.653798 c 6.25367,-0.684016 10.98481,-1.619893 13.2464,-2.620298 1.4702,-0.650342 1.63338,-0.820533 1.19546,-1.246878 -2.31908,-2.257799 -17.26997,-4.073512 -33.542,-4.073512 -15.795323,0 -31.323603,1.90331 -33.112333,4.058597 -1.30672,1.5745 9.7557,3.80036 22.57915,4.543131 5.323183,0.308333 24.728353,-0.124544 29.633323,-0.66104 z"
       id="path870" /></g></svg>
