<?xml version="1.0" encoding="UTF-8" standalone="no"?>
<svg
   width="500"
   zoomAndPan="magnify"
   viewBox="0 0 375 374.999991"
   height="500"
   preserveAspectRatio="xMidYMid meet"
   version="1.0"
   id="svg1189"
   sodipodi:docname="iek_south_east_arnhem_land.svg"
   inkscape:version="1.2.2 (b0a8486541, 2022-12-01)"
   xmlns:inkscape="http://www.inkscape.org/namespaces/inkscape"
   xmlns:sodipodi="http://sodipodi.sourceforge.net/DTD/sodipodi-0.dtd"
   xmlns="http://www.w3.org/2000/svg"
   xmlns:svg="http://www.w3.org/2000/svg">
  <sodipodi:namedview
     id="namedview1191"
     pagecolor="#ffffff"
     bordercolor="#000000"
     borderopacity="0.25"
     inkscape:showpageshadow="2"
     inkscape:pageopacity="0.0"
     inkscape:pagecheckerboard="0"
     inkscape:deskcolor="#d1d1d1"
     showgrid="false"
     inkscape:zoom="0.472"
     inkscape:cx="250"
     inkscape:cy="250"
     inkscape:window-width="956"
     inkscape:window-height="1166"
     inkscape:window-x="0"
     inkscape:window-y="0"
     inkscape:window-maximized="1"
     inkscape:current-layer="svg1189" />
  <defs
     id="defs1127">
    <g
       id="g1122" />
    <clipPath
       id="3f2a14e63b">
      <path
         d="M 187.5 0 C 83.945312 0 0 83.945312 0 187.5 C 0 291.054688 83.945312 375 187.5 375 C 291.054688 375 375 291.054688 375 187.5 C 375 83.945312 291.054688 0 187.5 0 Z M 187.5 0 "
         clip-rule="nonzero"
         id="path1124" />
    </clipPath>
  </defs>
  <g
     clip-path="url(#3f2a14e63b)"
     id="g1135">
    <rect
       x="-37.5"
       width="450"
       fill="#a2c36e"
       y="-37.499999"
       height="449.999989"
       fill-opacity="1"
       id="rect1133" />
  </g>
  <g
     fill="#ffffff"
     fill-opacity="1"
     id="g1161">
    <g
       transform="translate(99.164061, 157.49999)"
       id="g1141">
      <g
         id="g1139">
        <path
           d="M 8.625 0 L 8.625 -68.53125 L 23.15625 -68.53125 L 23.15625 0 Z M 8.625 0 "
           id="path1137" />
      </g>
    </g>
    <g
       transform="translate(130.945309, 157.49999)"
       id="g1147">
      <g
         id="g1145">
        <path
           d="M 48.09375 0 L 8.625 0 L 8.625 -68.53125 L 48.09375 -68.53125 L 48.09375 -56.625 L 23.15625 -56.625 L 23.15625 -41.578125 L 46.359375 -41.578125 L 46.359375 -29.671875 L 23.15625 -29.671875 L 23.15625 -12 L 48.09375 -12 Z M 48.09375 0 "
           id="path1143" />
      </g>
    </g>
    <g
       transform="translate(184.71093, 157.49999)"
       id="g1153">
      <g
         id="g1151">
        <path
           d="M 63.75 0 L 47.25 0 L 29.296875 -28.875 L 23.15625 -24.46875 L 23.15625 0 L 8.625 0 L 8.625 -68.53125 L 23.15625 -68.53125 L 23.15625 -37.171875 C 24.125 -38.515625 25.078125 -39.859375 26.015625 -41.203125 C 26.953125 -42.546875 27.90625 -43.890625 28.875 -45.234375 L 47.4375 -68.53125 L 63.5625 -68.53125 L 39.65625 -38.203125 Z M 63.75 0 "
           id="path1149" />
      </g>
    </g>
    <g
       transform="translate(248.460926, 157.49999)"
       id="g1159">
      <g
         id="g1157">
        <path
           d="M 5.484375 -6.703125 C 5.484375 -9.640625 6.285156 -11.703125 7.890625 -12.890625 C 9.503906 -14.078125 11.453125 -14.671875 13.734375 -14.671875 C 15.953125 -14.671875 17.863281 -14.078125 19.46875 -12.890625 C 21.082031 -11.703125 21.890625 -9.640625 21.890625 -6.703125 C 21.890625 -3.890625 21.082031 -1.859375 19.46875 -0.609375 C 17.863281 0.640625 15.953125 1.265625 13.734375 1.265625 C 11.453125 1.265625 9.503906 0.640625 7.890625 -0.609375 C 6.285156 -1.859375 5.484375 -3.890625 5.484375 -6.703125 Z M 5.484375 -45.421875 C 5.484375 -48.359375 6.285156 -50.421875 7.890625 -51.609375 C 9.503906 -52.796875 11.453125 -53.390625 13.734375 -53.390625 C 15.953125 -53.390625 17.863281 -52.796875 19.46875 -51.609375 C 21.082031 -50.421875 21.890625 -48.359375 21.890625 -45.421875 C 21.890625 -42.578125 21.082031 -40.535156 19.46875 -39.296875 C 17.863281 -38.066406 15.953125 -37.453125 13.734375 -37.453125 C 11.453125 -37.453125 9.503906 -38.066406 7.890625 -39.296875 C 6.285156 -40.535156 5.484375 -42.578125 5.484375 -45.421875 Z M 5.484375 -45.421875 "
           id="path1155" />
      </g>
    </g>
  </g>
  <g
     fill="#ffffff"
     fill-opacity="1"
     id="g1187">
    <g
       transform="translate(73.945312, 291.749981)"
       id="g1167">
      <g
         id="g1165">
        <path
           d="M 49.078125 -19.03125 C 49.078125 -14.96875 48.09375 -11.4375 46.125 -8.4375 C 44.15625 -5.4375 41.285156 -3.125 37.515625 -1.5 C 33.753906 0.125 29.1875 0.9375 23.8125 0.9375 C 21.4375 0.9375 19.113281 0.78125 16.84375 0.46875 C 14.582031 0.15625 12.410156 -0.300781 10.328125 -0.90625 C 8.253906 -1.519531 6.28125 -2.28125 4.40625 -3.1875 L 4.40625 -16.6875 C 7.65625 -15.25 11.03125 -13.953125 14.53125 -12.796875 C 18.03125 -11.640625 21.5 -11.0625 24.9375 -11.0625 C 27.3125 -11.0625 29.222656 -11.375 30.671875 -12 C 32.128906 -12.625 33.1875 -13.484375 33.84375 -14.578125 C 34.5 -15.671875 34.828125 -16.921875 34.828125 -18.328125 C 34.828125 -20.046875 34.25 -21.515625 33.09375 -22.734375 C 31.9375 -23.953125 30.347656 -25.09375 28.328125 -26.15625 C 26.316406 -27.21875 24.046875 -28.359375 21.515625 -29.578125 C 19.921875 -30.328125 18.1875 -31.238281 16.3125 -32.3125 C 14.4375 -33.394531 12.65625 -34.71875 10.96875 -36.28125 C 9.28125 -37.84375 7.894531 -39.738281 6.8125 -41.96875 C 5.738281 -44.207031 5.203125 -46.890625 5.203125 -50.015625 C 5.203125 -54.109375 6.140625 -57.609375 8.015625 -60.515625 C 9.890625 -63.421875 12.566406 -65.644531 16.046875 -67.1875 C 19.535156 -68.738281 23.65625 -69.515625 28.40625 -69.515625 C 31.96875 -69.515625 35.363281 -69.097656 38.59375 -68.265625 C 41.832031 -67.441406 45.21875 -66.25 48.75 -64.6875 L 44.0625 -53.390625 C 40.90625 -54.671875 38.078125 -55.660156 35.578125 -56.359375 C 33.078125 -57.066406 30.53125 -57.421875 27.9375 -57.421875 C 26.125 -57.421875 24.578125 -57.128906 23.296875 -56.546875 C 22.015625 -55.972656 21.046875 -55.160156 20.390625 -54.109375 C 19.734375 -53.066406 19.40625 -51.859375 19.40625 -50.484375 C 19.40625 -48.859375 19.878906 -47.488281 20.828125 -46.375 C 21.785156 -45.269531 23.222656 -44.203125 25.140625 -43.171875 C 27.066406 -42.140625 29.46875 -40.9375 32.34375 -39.5625 C 35.84375 -37.90625 38.832031 -36.175781 41.3125 -34.375 C 43.800781 -32.582031 45.71875 -30.472656 47.0625 -28.046875 C 48.40625 -25.628906 49.078125 -22.625 49.078125 -19.03125 Z M 49.078125 -19.03125 "
           id="path1163" />
      </g>
    </g>
    <g
       transform="translate(126.820309, 291.749981)"
       id="g1173">
      <g
         id="g1171">
        <path
           d="M 48.09375 0 L 8.625 0 L 8.625 -68.53125 L 48.09375 -68.53125 L 48.09375 -56.625 L 23.15625 -56.625 L 23.15625 -41.578125 L 46.359375 -41.578125 L 46.359375 -29.671875 L 23.15625 -29.671875 L 23.15625 -12 L 48.09375 -12 Z M 48.09375 0 "
           id="path1169" />
      </g>
    </g>
    <g
       transform="translate(180.58593, 291.749981)"
       id="g1179">
      <g
         id="g1177">
        <path
           d="M 50.578125 0 L 45.609375 -16.3125 L 20.625 -16.3125 L 15.65625 0 L 0 0 L 24.1875 -68.8125 L 41.953125 -68.8125 L 66.234375 0 Z M 42.140625 -28.5 L 37.171875 -44.4375 C 36.859375 -45.5 36.441406 -46.863281 35.921875 -48.53125 C 35.410156 -50.207031 34.894531 -51.910156 34.375 -53.640625 C 33.863281 -55.378906 33.453125 -56.890625 33.140625 -58.171875 C 32.828125 -56.890625 32.394531 -55.300781 31.84375 -53.40625 C 31.300781 -51.519531 30.78125 -49.734375 30.28125 -48.046875 C 29.78125 -46.359375 29.421875 -45.15625 29.203125 -44.4375 L 24.28125 -28.5 Z M 42.140625 -28.5 "
           id="path1175" />
      </g>
    </g>
    <g
       transform="translate(246.820301, 291.749981)"
       id="g1185">
      <g
         id="g1183">
        <path
           d="M 8.625 0 L 8.625 -68.53125 L 23.15625 -68.53125 L 23.15625 -12 L 50.953125 -12 L 50.953125 0 Z M 8.625 0 "
           id="path1181" />
      </g>
    </g>
  </g>
</svg>
