<?xml version="1.0" encoding="UTF-8" standalone="no"?>
<!-- Created with Inkscape (http://www.inkscape.org/) -->

<svg
   version="1.1"
   id="svg9905"
   width="117.33463"
   height="166.84264"
   viewBox="0 0 117.33463 166.84264"
   sodipodi:docname="insects.svg"
   xmlns:inkscape="http://www.inkscape.org/namespaces/inkscape"
   xmlns:sodipodi="http://sodipodi.sourceforge.net/DTD/sodipodi-0.dtd"
   xmlns="http://www.w3.org/2000/svg"
   xmlns:svg="http://www.w3.org/2000/svg">
  <sodipodi:namedview
     id="namedview43770"
     pagecolor="#ffffff"
     bordercolor="#000000"
     borderopacity="0.25"
     inkscape:showpageshadow="2"
     inkscape:pageopacity="0.0"
     inkscape:pagecheckerboard="0"
     inkscape:deskcolor="#d1d1d1"
     showgrid="false" />
  <defs
     id="defs9909" />
  <g
     id="g9913"
     transform="matrix(1.3333333,0,0,-1.3333333,-461.33268,896.75464)">
    <g
       id="g9915"
       transform="scale(0.1)">
      <path
         d="m 4020,6354.34 h -20 c -0.01,-27.68 -11.16,-52.55 -29.29,-70.71 -18.16,-18.13 -43.03,-29.28 -70.71,-29.29 -27.68,0.01 -52.55,11.16 -70.71,29.29 -18.13,18.16 -29.28,43.03 -29.29,70.71 -0.03,13.89 2.93,31.82 8.57,50.27 8.37,27.73 22.79,56.8 39.84,77.61 8.48,10.43 17.57,18.75 26.38,24.15 8.87,5.43 17.14,7.96 25.21,7.97 5.41,-0.01 10.82,-1.13 16.52,-3.49 9.95,-4.08 20.68,-12.23 30.78,-23.59 15.21,-16.98 28.78,-40.83 38.14,-65.23 9.43,-24.35 14.62,-49.42 14.56,-67.69 h 20 20 c -0.03,19.24 -3.78,40.39 -10.29,61.9 -9.84,32.22 -25.86,65.11 -47.12,91.26 -10.66,13.06 -22.69,24.48 -36.43,32.94 -13.68,8.44 -29.38,13.91 -46.16,13.9 -11.16,0.01 -21.93,-2.42 -31.85,-6.54 -17.39,-7.25 -32.31,-19.4 -45.3,-33.91 -19.43,-21.84 -34.74,-49.35 -45.62,-77.49 -10.8,-28.2 -17.17,-56.83 -17.23,-82.06 0.01,-77.33 62.67,-139.99 140,-140 77.33,0.01 139.99,62.67 140,140 h -20"
         style="fill:#000000;fill-opacity:1;fill-rule:nonzero;stroke:none"
         id="path10461" />
      <path
         d="m 3878.4,6528.38 -35.31,82.8 32.53,40.67 c 6.9,8.62 5.5,21.21 -3.13,28.11 -8.62,6.9 -21.21,5.5 -28.11,-3.13 l -40,-50 c -4.58,-5.72 -5.66,-13.58 -2.78,-20.33 l 40,-93.81 c 4.34,-10.16 16.08,-14.88 26.24,-10.55 10.17,4.33 14.89,16.08 10.56,26.24"
         style="fill:#000000;fill-opacity:1;fill-rule:nonzero;stroke:none"
         id="path10463" />
      <path
         d="m 3809.9,6259.83 c -0.33,-0.62 -8.78,-16.53 -17.3,-40.6 -8.48,-24.1 -17.19,-56.31 -17.24,-90.35 0,-17.01 2.22,-34.55 8.16,-51.56 5.91,-16.99 15.68,-33.42 30.14,-47.36 l 13.89,14.38 -17.12,-10.34 10.76,6.5 -10.82,-6.39 0.06,-0.11 10.76,6.5 -10.82,-6.39 0.07,-0.13 c 1.05,-1.72 10.26,-19.3 10.16,-41.48 -0.11,-16.37 -4.36,-35.16 -20.7,-55.62 -13.32,-16.56 -32.11,-42.04 -47.71,-74.63 -15.58,-32.57 -28.04,-72.46 -28.04,-117.48 -0.04,-40.09 10.04,-84.07 35.73,-129.13 25.68,-45.1 66.69,-91.27 128.13,-137.3 8.84,-6.63 21.37,-4.83 28,4.01 6.62,8.84 4.82,21.37 -4.02,28 -58.04,43.49 -94.96,85.75 -117.34,125.08 -22.37,39.37 -30.46,75.85 -30.5,109.34 -0.01,37.54 10.43,71.58 24.13,100.22 13.68,28.63 30.56,51.64 42.78,66.81 22.3,27.54 29.64,56.75 29.53,80.7 -0.01,18.01 -3.84,33.15 -7.67,43.95 -3.84,10.81 -7.71,17.34 -8.24,18.23 -0.87,1.43 -2.03,2.88 -3.23,4.04 -9.69,9.4 -16.02,19.97 -20.17,31.79 -4.13,11.79 -5.93,24.85 -5.92,38.37 -0.06,27.03 7.33,55.6 14.95,77.01 3.79,10.71 7.59,19.66 10.41,25.85 1.41,3.09 2.57,5.49 3.36,7.08 l 0.89,1.76 0.21,0.4 0.04,0.07 -4.37,2.31 4.36,-2.32 0.01,0.01 -4.37,2.31 4.36,-2.32 c 5.19,9.75 1.49,21.86 -8.26,27.05 -9.75,5.19 -21.86,1.49 -27.05,-8.26"
         style="fill:#000000;fill-opacity:1;fill-rule:nonzero;stroke:none"
         id="path10465" />
      <path
         d="m 3954.79,6241.04 4.27,2.27 -4.28,-2.26 0.01,-0.01 4.27,2.27 -4.28,-2.26 c 0.17,-0.3 7.81,-14.85 15.27,-36.17 7.49,-21.29 14.64,-49.39 14.59,-76 0.01,-13.52 -1.79,-26.58 -5.92,-38.37 -4.15,-11.82 -10.48,-22.39 -20.17,-31.79 -1.2,-1.16 -2.36,-2.61 -3.22,-4.04 -0.54,-0.89 -4.41,-7.42 -8.25,-18.23 -3.83,-10.8 -7.66,-25.94 -7.68,-43.95 -0.1,-23.94 7.24,-53.16 29.54,-80.7 12.22,-15.17 29.09,-38.18 42.78,-66.81 13.7,-28.64 24.14,-62.68 24.13,-100.22 -0.04,-33.49 -8.14,-69.97 -30.5,-109.34 -22.38,-39.33 -59.3,-81.59 -117.34,-125.08 -8.84,-6.63 -10.64,-19.16 -4.02,-28 6.63,-8.84 19.16,-10.64 28,-4.01 61.44,46.03 102.45,92.2 128.12,137.3 25.7,45.06 35.78,89.04 35.74,129.13 0,45.02 -12.47,84.91 -28.04,117.48 -15.6,32.59 -34.39,58.07 -47.71,74.63 -16.34,20.46 -20.59,39.25 -20.7,55.62 -0.01,12.23 2.68,23.01 5.37,30.57 1.34,3.77 2.67,6.73 3.6,8.63 0.47,0.95 0.83,1.64 1.05,2.03 l 0.2,0.37 0.01,0.01 -10.82,6.39 10.76,-6.5 0.06,0.11 -10.82,6.39 10.76,-6.5 -17.12,10.34 13.89,-14.38 c 14.46,13.94 24.23,30.37 30.14,47.36 5.94,17.01 8.16,34.55 8.16,51.56 -0.05,34.04 -8.76,66.25 -17.24,90.35 -8.52,24.07 -16.97,39.98 -17.3,40.6 -5.19,9.75 -17.3,13.45 -27.05,8.26 -9.75,-5.19 -13.45,-17.3 -8.26,-27.05"
         style="fill:#000000;fill-opacity:1;fill-rule:nonzero;stroke:none"
         id="path10467" />
      <path
         d="m 3847.66,5949.57 c 15.24,9.37 33.08,14.76 52.34,14.77 19.27,-0.01 37.11,-5.4 52.35,-14.78 9.41,-5.79 21.73,-2.87 27.52,6.54 5.79,9.4 2.87,21.72 -6.54,27.51 -21.31,13.14 -46.52,20.74 -73.33,20.73 -26.8,0.01 -52.01,-7.58 -73.31,-20.71 -9.4,-5.79 -12.33,-18.11 -6.54,-27.51 5.79,-9.41 18.11,-12.34 27.51,-6.55"
         style="fill:#000000;fill-opacity:1;fill-rule:nonzero;stroke:none"
         id="path10469" />
      <path
         d="m 4025.24,5658.56 c -36.83,-9.01 -79.64,-14.22 -125.24,-14.22 -45.59,0 -88.38,5.21 -125.2,14.21 -10.73,2.63 -21.56,-3.94 -24.18,-14.67 -2.62,-10.73 3.95,-21.56 14.68,-24.18 40.28,-9.84 86.07,-15.35 134.7,-15.36 48.64,0.01 94.45,5.52 134.74,15.37 10.73,2.62 17.3,13.45 14.68,24.18 -2.63,10.73 -13.45,17.3 -24.18,14.67"
         style="fill:#000000;fill-opacity:1;fill-rule:nonzero;stroke:none"
         id="path10471" />
      <path
         d="m 4048.82,5785.09 c -41.55,-12.95 -93.11,-20.76 -148.82,-20.75 -55.73,-0.01 -107.3,7.8 -148.86,20.77 -10.55,3.28 -21.76,-2.6 -25.04,-13.15 -3.29,-10.55 2.6,-21.76 13.14,-25.04 46.11,-14.35 101.3,-22.57 160.76,-22.58 59.44,0.01 114.62,8.22 160.71,22.56 10.55,3.29 16.43,14.5 13.15,25.04 -3.28,10.55 -14.49,16.44 -25.04,13.15"
         style="fill:#000000;fill-opacity:1;fill-rule:nonzero;stroke:none"
         id="path10473" />
      <path
         d="m 4013.51,5895.86 c -34.08,-7.34 -72.67,-11.52 -113.51,-11.52 -40.84,0 -79.42,4.17 -113.5,11.52 -10.8,2.33 -21.44,-4.53 -23.77,-15.33 -2.32,-10.8 4.54,-21.44 15.34,-23.77 37.09,-7.99 78.37,-12.42 121.93,-12.42 43.56,0 84.85,4.43 121.94,12.42 10.8,2.33 17.66,12.97 15.34,23.77 -2.33,10.8 -12.97,17.66 -23.77,15.33"
         style="fill:#000000;fill-opacity:1;fill-rule:nonzero;stroke:none"
         id="path10475" />
      <path
         d="m 3837.25,6487.13 -110,187.34 c -0.85,1.44 -1.92,2.83 -3.11,4.01 -0.76,0.75 -12.09,12.04 -30.95,23.59 -18.83,11.45 -45.47,23.51 -77.1,23.59 -6.31,0 -12.79,-0.49 -19.38,-1.59 -10.89,-1.82 -18.25,-12.12 -16.44,-23.02 1.82,-10.89 12.12,-18.25 23.02,-16.44 4.32,0.72 8.58,1.05 12.8,1.05 20.95,0.08 41.27,-8.52 56.25,-17.72 7.47,-4.57 13.55,-9.18 17.65,-12.57 2.06,-1.69 3.62,-3.08 4.62,-4 l 1.07,-1 0.2,-0.2 0.02,-0.01 8.1,8.18 -8.14,-8.14 0.04,-0.04 8.1,8.18 -8.14,-8.14 14.14,14.14 -17.25,-10.13 110,-187.33 c 5.6,-9.53 17.85,-12.71 27.38,-7.12 9.52,5.59 12.71,17.85 7.12,27.37"
         style="fill:#000000;fill-opacity:1;fill-rule:nonzero;stroke:none"
         id="path10477" />
      <path
         d="m 3802.67,6179.7 -50.61,12.29 -132.77,189.67 0.01,-0.02 c -3.82,5.47 -8.94,9.87 -14.87,12.85 l -0.02,0.01 -95.47,47.73 c -9.88,4.94 -21.89,0.93 -26.83,-8.95 -4.94,-9.87 -0.93,-21.89 8.95,-26.83 l 95.46,-47.73 h -0.01 l 0.01,0.01 h -0.01 v -0.01 l 0.01,0.01 h -0.01 l 0.01,-0.01 137.1,-195.85 c 2.79,-3.99 6.93,-6.81 11.66,-7.96 l 57.95,-14.08 c 10.74,-2.61 21.55,3.98 24.16,14.71 2.61,10.74 -3.98,21.55 -14.71,24.16"
         style="fill:#000000;fill-opacity:1;fill-rule:nonzero;stroke:none"
         id="path10479" />
      <path
         d="m 3817.24,6085.14 -160.44,58.01 c -8.58,3.1 -18.11,0.04 -23.28,-7.48 l -100.14,-145.66 h -0.01 v -0.01 0.01 0 -0.01 0.01 l -44.43,22.22 c -9.88,4.94 -21.89,0.93 -26.83,-8.94 -4.94,-9.88 -0.93,-21.9 8.95,-26.84 l 44.43,-22.21 c 5.68,-2.85 11.84,-4.23 17.88,-4.23 12.78,-0.02 25.29,6.18 32.97,17.35 l 91.39,132.92 145.9,-52.76 c 10.39,-3.75 21.86,1.63 25.61,12.01 3.76,10.39 -1.62,21.86 -12,25.61"
         style="fill:#000000;fill-opacity:1;fill-rule:nonzero;stroke:none"
         id="path10481" />
      <path
         d="m 3836.65,5967.66 -127.17,-3.33 c -8.4,-0.22 -15.8,-5.7 -18.45,-13.66 l -88.21,-264.61 v -0.02 l 0.06,-0.02 -0.05,0.05 -0.01,-0.03 0.06,-0.02 -0.05,0.05 -115.63,-96.36 c -8.49,-7.08 -9.64,-19.69 -2.56,-28.17 7.07,-8.49 19.68,-9.64 28.16,-2.56 l 115.63,96.35 c 5.71,4.76 10,11.02 12.35,18.11 l -0.01,-0.03 83.77,251.3 113.16,2.97 c 11.04,0.29 19.76,9.47 19.47,20.51 -0.29,11.05 -9.47,19.76 -20.52,19.47"
         style="fill:#000000;fill-opacity:1;fill-rule:nonzero;stroke:none"
         id="path10483" />
      <path
         d="m 3958.4,6512.69 40,93.81 c 2.88,6.75 1.8,14.61 -2.78,20.33 l -40,50 c -6.9,8.63 -19.49,10.03 -28.11,3.13 -8.63,-6.9 -10.03,-19.49 -3.13,-28.11 l 32.53,-40.67 -35.31,-82.8 c -4.33,-10.16 0.39,-21.91 10.56,-26.24 10.16,-4.33 21.9,0.39 26.24,10.55"
         style="fill:#000000;fill-opacity:1;fill-rule:nonzero;stroke:none"
         id="path10485" />
      <path
         d="m 3997.25,6466.88 110,187.33 -17.25,10.13 14.14,-14.14 -8.17,8.17 8.13,-8.21 0.04,0.04 -8.17,8.17 8.13,-8.21 0.4,0.38 c 2.05,1.97 12.16,11.17 26.72,19.5 14.58,8.41 33.34,15.68 52.69,15.62 4.22,0 8.48,-0.33 12.8,-1.05 10.9,-1.81 21.2,5.55 23.02,16.44 1.81,10.9 -5.55,21.2 -16.44,23.02 -6.59,1.1 -13.07,1.59 -19.38,1.59 -31.63,-0.08 -58.27,-12.14 -77.1,-23.59 -18.86,-11.55 -30.19,-22.84 -30.95,-23.59 -1.19,-1.18 -2.26,-2.57 -3.11,-4.01 l -110,-187.34 c -5.59,-9.52 -2.4,-21.78 7.12,-27.37 9.53,-5.59 21.78,-2.41 27.38,7.12"
         style="fill:#000000;fill-opacity:1;fill-rule:nonzero;stroke:none"
         id="path10487" />
      <path
         d="m 4006.77,6140.83 57.95,14.08 c 4.73,1.15 8.87,3.97 11.66,7.96 l 137.1,195.85 0.01,0.01 h -0.01 l 0.01,-0.01 v 0.01 h -0.01 l 0.01,-0.01 95.45,47.73 c 9.88,4.94 13.89,16.96 8.95,26.83 -4.94,9.88 -16.95,13.89 -26.83,8.95 l -95.47,-47.73 c -5.95,-2.99 -11.07,-7.39 -14.89,-12.86 l 0.01,0.02 -132.77,-189.67 -50.61,-12.29 c -10.74,-2.61 -17.33,-13.42 -14.72,-24.16 2.61,-10.73 13.42,-17.32 24.16,-14.71"
         style="fill:#000000;fill-opacity:1;fill-rule:nonzero;stroke:none"
         id="path10489" />
      <path
         d="m 3996.37,6047.52 145.9,52.76 91.39,-132.93 c 7.68,-11.16 20.19,-17.36 32.97,-17.34 6.04,0 12.2,1.38 17.87,4.22 l 44.44,22.22 c 9.88,4.94 13.89,16.96 8.95,26.83 -4.94,9.88 -16.95,13.89 -26.83,8.95 l -44.44,-22.22 h 0.01 v 0 l -100.15,145.66 c -5.17,7.52 -14.7,10.58 -23.28,7.48 l -160.44,-58.01 c -10.38,-3.75 -15.76,-15.22 -12,-25.61 3.75,-10.39 15.22,-15.76 25.61,-12.01"
         style="fill:#000000;fill-opacity:1;fill-rule:nonzero;stroke:none"
         id="path10491" />
      <path
         d="m 3962.3,5927.68 113.16,-2.97 83.77,-251.3 -0.01,0.03 c 2.35,-7.09 6.64,-13.35 12.35,-18.11 l 115.63,-96.35 c 8.48,-7.07 21.09,-5.93 28.16,2.56 7.08,8.48 5.93,21.09 -2.56,28.17 l -115.63,96.35 -0.05,-0.04 0.06,0.02 -0.01,0.03 -0.05,-0.05 0.06,0.02 v 0.02 l -88.21,264.61 c -2.65,7.96 -10.06,13.44 -18.45,13.66 l -127.17,3.33 c -11.05,0.29 -20.23,-8.42 -20.52,-19.47 -0.29,-11.04 8.43,-20.22 19.47,-20.51"
         style="fill:#000000;fill-opacity:1;fill-rule:nonzero;stroke:none"
         id="path10493" />
    </g>
  </g>
</svg>
