<?xml version="1.0" encoding="UTF-8" standalone="no"?>
<!-- Created with Inkscape (http://www.inkscape.org/) -->

<svg
   version="1.1"
   id="svg18"
   width="101.98722"
   height="77.968056"
   viewBox="0 0 101.98722 77.968055"
   sodipodi:docname="mammals.svg"
   xmlns:inkscape="http://www.inkscape.org/namespaces/inkscape"
   xmlns:sodipodi="http://sodipodi.sourceforge.net/DTD/sodipodi-0.dtd"
   xmlns="http://www.w3.org/2000/svg"
   xmlns:svg="http://www.w3.org/2000/svg">
  <defs
     id="defs22" />
  <sodipodi:namedview
     id="namedview20"
     pagecolor="#ffffff"
     bordercolor="#000000"
     borderopacity="0.25"
     inkscape:showpageshadow="2"
     inkscape:pageopacity="0.0"
     inkscape:pagecheckerboard="0"
     inkscape:deskcolor="#d1d1d1"
     showgrid="false" />
  <g
     id="g26"
     inkscape:groupmode="layer"
     inkscape:label="Page 1"
     transform="matrix(1.3333333,0,0,-1.3333333,-285.09469,312.78989)">
    <g
       id="g28"
       transform="scale(0.1)"
       style="stroke:#ffffff;stroke-opacity:1">
      <path
         d="m 2757.58,2288.26 c -0.83,1.6 -1.62,3.22 -2.5,4.79 -1.13,2.01 -2.43,3.91 -3.46,5.99 -2.92,5.9 -1.03,10.12 4.89,10.07 14.39,-0.13 33.63,-12.41 38.16,-30.73 1.04,-4.22 2.06,-8.43 3.05,-12.65 0.65,-2.75 2.05,-4.45 4.51,-3.46 7.26,2.93 14.2,0.41 20.79,-2.33 6.38,-2.64 12.41,-6.64 18.3,-10.62 4.03,-2.72 7.27,-6.6 8.98,-12.05 2.62,-8.39 8.84,-12.7 14.91,-17.08 7.68,-5.55 15.45,-10.93 23.08,-16.58 5.92,-4.38 6.28,-8.15 1.65,-14.26 -4.06,-5.35 -9.16,-8.9 -15.05,-10.57 -2.28,-0.64 -5.09,-0.78 -7.2,0.2 -12.1,5.67 -23.46,4.06 -35.16,-2.27 -11.65,-6.3 -23.98,-5.45 -35.85,-0.22 -5.78,2.55 -10.2,0.04 -13.64,-4.22 -6.45,-7.99 -12.42,-16.54 -18.18,-25.22 -9.18,-13.84 -17.48,-28.8 -30.61,-37.99 -7.8,-5.45 -16.47,-9.27 -24.92,-13.35 -8.92,-4.31 -14.84,-11.55 -18.15,-22.1 -5.16,-16.49 -11.52,-32.32 -19.82,-47.01 -5.78,-10.23 -13.19,-18.56 -21.92,-25.25 -1.33,-1.03 -3.34,-0.84 -5.04,-1.21 -0.23,1.5 -0.27,3.11 -0.75,4.5 -0.4,1.16 -1.17,2.37 -2.06,3.02 -0.98,0.72 -2.3,0.82 -4.52,1.53 1.96,2.14 3.02,3.91 4.47,4.8 14.12,8.65 18.51,23.8 19.21,40.76 0.38,9.25 -0.67,18.66 -1.74,27.89 -0.84,7.18 -4.69,10.66 -11.66,11.63 -11.29,1.56 -22.6,2.84 -33.89,4.28 -8.88,1.13 -17.67,2.66 -25.68,7.76 -2.94,1.87 -5.76,0.92 -7.75,-1.75 -5.83,-7.82 -12.17,-15.33 -16.94,-23.99 -10.86,-19.72 -25.74,-33.89 -42.54,-45.98 -17.47,-12.57 -35.06,-25 -50.37,-41.22 -14.49,-15.35 -11.62,-33.1 -15.24,-56.32 -4.62,-29.59 -5.01,-59.48 -6.29,-89.34 -0.63,-14.89 -14.15,-30.19 -19.19,-44.17 -4.72,-13.08 -11.82,-24.52 -23.09,-31.18 -1.88,-1.11 -4.82,-1.17 -6.81,-0.29 -2.71,1.21 -2.31,4.59 -1.86,7.55 0.24,1.62 0.41,3.34 0.24,4.96 -1.77,17.15 3.83,31.24 12.92,44.08 1.63,2.31 2.92,5.42 3.35,8.36 4.04,27.68 5,55.57 3.12,83.55 -0.66,9.77 -1.31,19.69 -3.36,29.12 -2.09,9.61 -0.36,17.62 4.15,25.24 10.65,18 21.46,35.86 32.18,53.8 8.89,14.86 17.66,29.85 23.48,46.74 2.22,6.47 3.41,13.58 4.23,20.53 0.88,7.4 -1.98,13.5 -6.97,18.17 -9.59,8.96 -19.28,17.83 -26.65,29.49 -2.97,4.7 -5.35,9.93 -8,14.91 -0.28,0.52 -0.48,1.08 -0.76,1.59 -5.84,11.05 -9.56,11.54 -17.68,3.06 -14.06,-14.65 -27.78,-29.85 -42.59,-43.4 -19.73,-18.04 -41.87,-31.22 -65.69,-40.69 -32.41,-12.88 -65.21,-14.91 -98.47,-6.18 -16.17,4.24 -31.83,10.65 -45.9,21.07 -4.87,3.6 -8.53,9.46 -12.69,14.36 -1.27,1.49 -2.57,3.04 -3.47,4.83 -0.64,1.29 -0.64,3.02 -0.93,4.56 1.31,0.03 2.82,0.57 3.9,0 5.4,-2.86 10.74,-5.89 16.01,-9.07 11.59,-6.98 23.95,-11.23 36.72,-13.79 23.12,-4.64 46.11,-2.91 68.75,3.79 12.09,3.57 22.29,11.77 32,20.61 22.64,20.6 42.29,44.82 60.66,70.41 18.25,25.42 35.66,51.67 53.65,77.36 17.28,24.68 37.84,44.66 63.31,56.66 29.02,13.67 58.82,16.14 89.18,6.19 27.68,-9.07 51.41,-26.36 72.86,-48.18 16.94,-17.23 33.26,-35.32 50.27,-52.46 5.58,-5.63 12.27,-9.93 18.8,-14.07 9.98,-6.3 20.06,-3.73 29.28,2.22 12.4,8.01 24.36,16.94 36.42,25.65 1.09,0.79 1.53,2.82 2.27,4.28 -1.35,0.61 -2.67,1.63 -4.06,1.76 -7.16,0.67 -14.47,-0.08 -21.21,4 -11.61,7.04 -19.42,17.8 -23.05,32.45 -0.63,2.55 -0.34,6.51 1.01,8.27 1.09,1.42 4.59,1.2 6.7,0.46 3.54,-1.25 6.81,-3.52 10.22,-5.29 1.56,-0.81 3.18,-1.47 4.77,-2.19 0.3,0.47 0.61,0.95 0.91,1.43 z"
         style="fill:none;stroke:#ffffff;stroke-width:20;stroke-linecap:round;stroke-linejoin:round;stroke-miterlimit:10;stroke-dasharray:none;stroke-opacity:1"
         id="path446"
         inkscape:export-filename="../devel/frontend/public/species-icons/mammals.svg"
         inkscape:export-xdpi="96"
         inkscape:export-ydpi="96" />
      <path
         d="m 2478.01,2096 c 0,0 20.23,59.21 9.31,131.98"
         style="fill:none;stroke:#ffffff;stroke-width:20;stroke-linecap:round;stroke-linejoin:round;stroke-miterlimit:10;stroke-dasharray:none;stroke-opacity:1"
         id="path448" />
      <path
         d="m 2826.01,2224.71 c 0,-4.19 -3.39,-7.58 -7.58,-7.58 -4.18,0 -7.58,3.39 -7.58,7.58 0,4.18 3.4,7.58 7.58,7.58 4.19,0 7.58,-3.4 7.58,-7.58"
         style="fill:#ffffff;fill-opacity:1;fill-rule:nonzero;stroke:#ffffff;stroke-opacity:1"
         id="path450" />
    </g>
  </g>
</svg>
