<?xml version="1.0" encoding="UTF-8" standalone="no"?>
<!-- Created with Inkscape (http://www.inkscape.org/) -->

<svg
   version="1.1"
   id="svg3719"
   width="138.8744"
   height="131.07327"
   viewBox="0 0 138.87441 131.07327"
   sodipodi:docname="molluscs.svg"
   xmlns:inkscape="http://www.inkscape.org/namespaces/inkscape"
   xmlns:sodipodi="http://sodipodi.sourceforge.net/DTD/sodipodi-0.dtd"
   xmlns="http://www.w3.org/2000/svg"
   xmlns:svg="http://www.w3.org/2000/svg">
  <sodipodi:namedview
     id="namedview66973"
     pagecolor="#ffffff"
     bordercolor="#000000"
     borderopacity="0.25"
     inkscape:showpageshadow="2"
     inkscape:pageopacity="0.0"
     inkscape:pagecheckerboard="0"
     inkscape:deskcolor="#d1d1d1"
     showgrid="false" />
  <defs
     id="defs3723" />
  <g
     id="g3727"
     transform="matrix(1.3333333,0,0,-1.3333333,-291.22945,604.81865)">
    <g
       id="g3729"
       transform="scale(0.1)">
      <path
         d="m 2615,4456.14 c 0,0 -30,40 -100,30 -70,-10 -90,-80 -90,-100 0,-20 90,-410 190,-550"
         style="fill:none;stroke:#ffffff;stroke-width:40;stroke-linecap:round;stroke-linejoin:round;stroke-miterlimit:10;stroke-dasharray:none;stroke-opacity:1"
         id="path4087"
         inkscape:export-filename="molluscs.svg"
         inkscape:export-xdpi="96"
         inkscape:export-ydpi="96" />
      <path
         d="m 2425,4396.14 c 0,0 -40,10 -70,-10 -30,-20 -60,-60 -50,-130 10,-70 100,-360 240,-450"
         style="fill:none;stroke:#ffffff;stroke-width:40;stroke-linecap:round;stroke-linejoin:round;stroke-miterlimit:10;stroke-dasharray:none;stroke-opacity:1"
         id="path4089" />
      <path
         d="m 2495,3706.14 v -120 c 0,0 60,-40 170,20"
         style="fill:none;stroke:#ffffff;stroke-width:40;stroke-linecap:round;stroke-linejoin:round;stroke-miterlimit:10;stroke-dasharray:none;stroke-opacity:1"
         id="path4091" />
      <path
         d="m 2735,3846.14 c 0,0 70,420 60,600 0,0 -10,70 -90,70 -80,0 -90,-70 -90,-70 -10,-180 60,-600 60,-600"
         style="fill:none;stroke:#ffffff;stroke-width:40;stroke-linecap:round;stroke-linejoin:round;stroke-miterlimit:10;stroke-dasharray:none;stroke-opacity:1"
         id="path4093" />
      <path
         d="m 2795,4456.14 c 0,0 30,40 100,30 70,-10 90,-80 90,-100 0,-20 -90,-410 -190,-550"
         style="fill:none;stroke:#ffffff;stroke-width:40;stroke-linecap:round;stroke-linejoin:round;stroke-miterlimit:10;stroke-dasharray:none;stroke-opacity:1"
         id="path4095" />
      <path
         d="m 2985,4396.14 c 0,0 40,10 70,-10 30,-20 60,-60 50,-130 -10,-70 -100,-360 -240,-450"
         style="fill:none;stroke:#ffffff;stroke-width:40;stroke-linecap:round;stroke-linejoin:round;stroke-miterlimit:10;stroke-dasharray:none;stroke-opacity:1"
         id="path4097" />
      <path
         d="m 3115,4266.14 c 0,0 30,10 50,-10 20,-20 60,-100 30,-190 -30,-90 -240,-410 -490,-460 -250,50 -460,370 -490,460 -30,90 10,170 30,190 20,20 50,10 50,10"
         style="fill:none;stroke:#ffffff;stroke-width:40;stroke-linecap:round;stroke-linejoin:round;stroke-miterlimit:10;stroke-dasharray:none;stroke-opacity:1"
         id="path4099" />
      <path
         d="m 2915,3706.14 v -120 c 0,0 -60,-40 -170,20"
         style="fill:none;stroke:#ffffff;stroke-width:40;stroke-linecap:round;stroke-linejoin:round;stroke-miterlimit:10;stroke-dasharray:none;stroke-opacity:1"
         id="path4101" />
    </g>
  </g>
</svg>
