<svg xmlns="http://www.w3.org/2000/svg" xmlns:xlink="http://www.w3.org/1999/xlink" width="500" zoomAndPan="magnify" viewBox="0 0 375 374.999991" height="500" preserveAspectRatio="xMidYMid meet" version="1.0"><defs><clipPath id="b94e909710"><path d="M 187.5 0 C 83.945312 0 0 83.945312 0 187.5 C 0 291.054688 83.945312 375 187.5 375 C 291.054688 375 375 291.054688 375 187.5 C 375 83.945312 291.054688 0 187.5 0 Z M 187.5 0 " clip-rule="nonzero"/></clipPath><clipPath id="86446c59c5"><path d="M 58.132812 115 L 181.632812 115 L 181.632812 311 L 58.132812 311 Z M 58.132812 115 " clip-rule="nonzero"/></clipPath><clipPath id="ce8a035da0"><path d="M 183.25 86.046875 L 316.878906 86.046875 L 316.878906 279.835938 L 183.25 279.835938 Z M 183.25 86.046875 " clip-rule="nonzero"/></clipPath></defs><g clip-path="url(#b94e909710)"><rect x="-37.5" width="450" fill="#58a39d" y="-37.499999" height="449.999989" fill-opacity="1"/></g><g clip-path="url(#86446c59c5)"><path fill="#ffffff" d="M 172.382812 191.035156 C 170.035156 186.484375 173.40625 181.855469 171.167969 176.960938 C 168.929688 172.070312 160.546875 169.773438 158.863281 165.285156 C 157.179688 160.792969 159.011719 150.507812 151.8125 149.503906 C 144.613281 148.5 140.148438 158.707031 135.261719 152.585938 C 130.378906 146.46875 129.222656 142.222656 123.332031 143.308594 C 117.445312 144.394531 115.566406 145.996094 111.066406 141.292969 C 106.566406 136.589844 100.78125 140.445312 99.132812 145.621094 C 97.484375 150.796875 98.011719 154.15625 92.480469 151.25 C 86.949219 148.347656 83.472656 150.203125 80.742188 154.726562 C 78.007812 159.253906 79.132812 161.207031 75.839844 166.3125 C 75.839844 166.3125 70.4375 171.582031 66.476562 171.382812 C 62.515625 171.183594 62.113281 158.136719 69.871094 151.183594 C 77.628906 144.234375 79.871094 140.765625 81.457031 136.257812 C 83.046875 131.746094 86.589844 131.355469 97.867188 131.230469 C 109.144531 131.105469 105.914062 127.183594 112.863281 121.34375 C 118.679688 116.453125 123.195312 117.269531 126.527344 121.828125 C 129.863281 126.386719 137.476562 131.097656 146.890625 133.71875 C 156.304688 136.34375 157.011719 137.710938 160.398438 149.964844 C 163.785156 162.21875 170.835938 157.015625 175.832031 168.035156 C 180.828125 179.054688 176.007812 190.136719 176.007812 190.136719 C 176.007812 190.136719 174.730469 195.582031 172.382812 191.035156 Z M 163.167969 205.425781 C 156.21875 206.019531 150.324219 204.976562 145 200.234375 C 139.675781 195.496094 131.800781 190.171875 122.042969 197.929688 C 112.28125 205.683594 112.464844 205.820312 102.386719 208.378906 C 92.304688 210.941406 93.550781 216.8125 92.972656 221.488281 C 92.390625 226.171875 90.640625 239.066406 83.15625 232.042969 C 83.15625 232.042969 76.710938 227.476562 79.582031 219.652344 C 82.453125 211.828125 83.125 208.769531 81.175781 201.535156 C 79.226562 194.300781 83.972656 187.988281 94.765625 185.804688 C 105.558594 183.625 107.714844 178.535156 112.507812 172.539062 C 117.300781 166.542969 122.851562 167.476562 123.957031 171.402344 C 125.0625 175.328125 128.84375 182.769531 135.039062 180.484375 C 141.230469 178.207031 145.496094 177.210938 147.515625 182.796875 C 149.53125 188.378906 151.726562 189.839844 155.980469 189.828125 C 160.238281 189.820312 169.890625 192.898438 172.179688 203.359375 C 174.464844 213.816406 170.113281 204.828125 163.167969 205.425781 Z M 170.191406 226.285156 C 169.039062 237.777344 169.839844 237.652344 170.488281 241.8125 C 171.136719 245.972656 172.078125 253.035156 169.980469 255.332031 C 167.882812 257.628906 166.953125 254.824219 167.128906 250.699219 C 167.300781 246.570312 169.082031 233.835938 161.941406 232.167969 C 154.804688 230.5 157.167969 227.835938 154.417969 223.839844 C 151.664062 219.84375 145.335938 222.308594 142.972656 221.859375 C 140.613281 221.410156 136.589844 216.632812 132.304688 219.597656 C 128.019531 222.5625 125.703125 230.792969 119.71875 230.253906 C 113.742188 229.714844 107.089844 230.097656 106.550781 236.085938 C 106.011719 242.070312 111.785156 249.6875 107.515625 253.796875 C 103.246094 257.910156 101.40625 266.0625 108.574219 273.136719 C 115.734375 280.210938 125.148438 280.707031 131.191406 287.953125 C 131.191406 287.953125 129.273438 283.011719 126.714844 278.167969 C 124.15625 273.320312 128.25 271.207031 127.105469 265.976562 C 125.957031 260.746094 124.421875 255.085938 129.765625 252.609375 C 135.109375 250.136719 137.863281 254.132812 140.953125 256.105469 C 144.046875 258.082031 150.738281 253.753906 153.757812 260.496094 C 156.777344 267.234375 161.378906 269.460938 157.964844 270.652344 C 154.546875 271.84375 153.808594 271.304688 149.148438 266.625 C 144.484375 261.945312 132.84375 269.175781 135.734375 283.476562 C 138.621094 297.773438 155.410156 302.523438 162.617188 297.296875 C 169.824219 292.070312 165.144531 284.117188 161.09375 282.292969 C 157.039062 280.46875 150.3125 280.375 147.875 284.6875 C 145.4375 289.003906 149.171875 293.605469 152.253906 293.839844 C 155.070312 294.054688 157.046875 293.089844 157.757812 291.339844 C 158.769531 288.839844 157.265625 287.152344 156.160156 286.34375 C 156.160156 286.34375 158.15625 288.652344 155.035156 289.632812 C 151.910156 290.613281 150.722656 287.195312 151.113281 285.496094 C 151.503906 283.792969 154.660156 281.988281 158.128906 283.25 C 161.601562 284.507812 164.554688 289.78125 161.351562 293.398438 C 158.152344 297.011719 153.304688 297.445312 148.480469 295.90625 C 143.65625 294.363281 137.820312 287.410156 138.5625 279.589844 C 139.308594 271.773438 145.664062 271.59375 147.875 274.199219 C 150.082031 276.804688 151.09375 276.972656 155.699219 276.085938 C 160.3125 275.203125 165.144531 278.875 165.828125 282.207031 C 165.828125 282.207031 168.15625 278.238281 163.855469 269.566406 C 159.550781 260.898438 157.238281 266.011719 155.308594 256.808594 C 153.382812 247.605469 148.203125 252.183594 145.484375 252.609375 C 142.765625 253.035156 140.601562 253.867188 136.421875 249.109375 C 132.238281 244.359375 125.132812 250.222656 123.210938 253.636719 C 121.289062 257.050781 120.789062 264.34375 120.769531 271.554688 C 120.75 278.773438 116.9375 274.285156 113.441406 272.867188 C 109.945312 271.449219 102.566406 267.195312 107.777344 259.660156 C 112.984375 252.125 113.363281 251.410156 111.90625 243.113281 C 110.445312 234.820312 111.128906 232.90625 118.152344 232.792969 C 125.175781 232.679688 128.324219 231.859375 131.816406 225.902344 C 135.304688 219.945312 138.863281 225.945312 141.621094 226.824219 C 144.378906 227.703125 151.527344 223.144531 150.835938 228.171875 C 150.148438 233.195312 152.304688 235.476562 157.796875 237.078125 C 163.285156 238.679688 163.773438 240.734375 163.304688 247.199219 C 162.84375 253.664062 164.1875 260.171875 169.4375 274.921875 C 174.691406 289.671875 171.179688 297.597656 166.835938 301.226562 C 162.488281 304.859375 152.179688 309.09375 140.808594 302.351562 C 129.4375 295.605469 121.636719 288.632812 112.003906 283.582031 C 102.371094 278.535156 97.960938 275.457031 93.429688 268.460938 C 93.429688 268.460938 90.886719 264.761719 89.328125 255.828125 C 87.769531 246.890625 86.320312 248.101562 90.015625 240.3125 C 93.710938 232.519531 94.886719 229.550781 94.769531 222.519531 C 94.652344 215.492188 97.476562 212.589844 105.257812 211.042969 C 113.039062 209.5 118.75 205.164062 125.257812 200.703125 C 131.765625 196.242188 136.707031 199.566406 140.667969 205.011719 C 144.632812 210.457031 147.835938 214.214844 156.359375 213.210938 C 164.882812 212.203125 171.347656 214.796875 170.191406 226.285156 Z M 83.28125 243.332031 C 83.28125 243.332031 82.746094 246.199219 79.792969 244.042969 C 76.835938 241.882812 69.941406 239.683594 68.09375 224.730469 C 66.25 209.773438 69.417969 212.226562 63.375 199.734375 C 57.328125 187.238281 63.363281 181.871094 68.640625 175.796875 C 73.914062 169.726562 78.355469 169.851562 80.78125 161.277344 C 83.210938 152.703125 86.1875 152.890625 90.691406 154.480469 C 95.199219 156.070312 99.0625 157.757812 100.917969 150.75 C 102.769531 143.738281 106.488281 141.355469 110.480469 143.84375 C 114.472656 146.332031 117.15625 146.734375 122.113281 145.957031 C 127.066406 145.183594 127.816406 149.984375 130.492188 153.496094 C 133.171875 157.011719 137.273438 159.15625 142.761719 155.511719 C 148.253906 151.867188 155.324219 152.070312 155.5 158.433594 C 155.675781 164.800781 157.285156 168.808594 162.753906 172.378906 C 168.226562 175.949219 168.421875 185.589844 163.390625 185.882812 C 158.359375 186.179688 155.765625 187.40625 151.40625 179.398438 C 147.042969 171.394531 141.535156 177.011719 137.464844 177.15625 C 133.390625 177.300781 131.683594 177.898438 126.65625 169.832031 C 121.632812 161.769531 112.742188 167.75 109.261719 172.71875 C 105.777344 177.691406 101.941406 178.289062 92.527344 180.910156 C 83.113281 183.53125 76.425781 189.988281 78.226562 198.390625 C 80.03125 206.796875 80.449219 210.503906 78.148438 216.761719 C 75.851562 223.023438 73.8125 227.765625 83.132812 237.128906 C 83.132812 237.128906 85.238281 239.089844 83.28125 243.332031 Z M 175.117188 162.414062 C 163.355469 152.125 165.445312 150.8125 163.667969 147.8125 C 161.886719 144.816406 166.210938 132.664062 153.933594 131.632812 C 141.65625 130.605469 137.46875 128.96875 133.054688 123.757812 C 128.636719 118.546875 124.980469 111.910156 116.578125 116.828125 C 108.175781 121.75 106.347656 128.921875 99.554688 127.359375 C 92.761719 125.800781 79.523438 124.921875 77.4375 136.722656 C 75.347656 148.523438 65.378906 145.492188 60.316406 157.105469 C 55.253906 168.714844 61.257812 179.902344 61.257812 179.902344 C 51.601562 204.035156 67.613281 193.332031 65.605469 218.234375 C 63.601562 243.132812 73.082031 247.222656 79.167969 250.53125 C 85.253906 253.839844 86.25 260.242188 86.25 260.242188 C 88 271.441406 97.960938 280.699219 111.679688 286.75 C 125.398438 292.796875 129.183594 302.363281 142.902344 308.414062 C 156.621094 314.460938 170.925781 309.601562 174.511719 296.914062 C 178.097656 284.21875 169.273438 267.574219 169.273438 267.574219 C 171.53125 265.25 176.855469 259.5 174.316406 247.441406 C 171.777344 235.382812 175.261719 232.542969 179.066406 219.160156 C 182.875 205.78125 177.867188 200.992188 177.867188 200.992188 C 178.886719 194.933594 186.875 172.703125 175.117188 162.414062 " fill-opacity="1" fill-rule="nonzero"/></g><path fill="#ffffff" d="M 70.683594 171.761719 C 70.683594 171.761719 68.089844 163.539062 70.425781 156.835938 C 72.761719 150.128906 79.707031 149.152344 83.453125 141.683594 C 87.199219 134.210938 92.011719 133.566406 96.292969 134.429688 C 100.574219 135.285156 104.980469 136.238281 110.199219 130.5 C 115.417969 124.769531 120.667969 119.25 127.917969 130.023438 C 127.917969 130.023438 121.476562 121.636719 115.628906 128.234375 C 109.785156 134.828125 106.335938 137.226562 98.660156 137.007812 C 90.984375 136.789062 90.011719 138.25 86.421875 142.53125 C 82.832031 146.804688 81.53125 147.554688 76.171875 151.671875 C 70.808594 155.789062 71.507812 163.765625 72.96875 170.3125 L 70.683594 171.761719 " fill-opacity="1" fill-rule="nonzero"/><path fill="#ffffff" d="M 71.304688 210.675781 C 71.304688 210.675781 71.15625 206.21875 67.132812 198.652344 C 63.113281 191.089844 63.574219 184.242188 68.320312 181.09375 C 73.070312 177.945312 79.222656 176.109375 83.503906 168.554688 C 87.78125 161.003906 89.253906 160.660156 95.480469 160.671875 C 101.703125 160.679688 103.46875 158 104.324219 153.714844 C 105.183594 149.425781 106.824219 145.238281 112.355469 150.597656 C 112.355469 150.597656 107.691406 147.285156 106.789062 150.597656 C 105.882812 153.90625 107.246094 159.8125 102.191406 161.695312 C 97.136719 163.582031 88.554688 161.753906 86.410156 166.898438 C 84.265625 172.042969 80.984375 177.582031 74.339844 180.480469 C 67.695312 183.378906 65.136719 187.273438 66.941406 193.21875 C 68.742188 199.167969 71.875 205.234375 71.304688 210.675781 " fill-opacity="1" fill-rule="nonzero"/><path fill="#ffffff" d="M 90.675781 232.667969 C 90.675781 232.667969 83.09375 230.246094 82.628906 223.765625 C 82.160156 217.28125 87.480469 213.609375 85.886719 204.789062 C 84.289062 195.96875 84.929688 192.371094 92.929688 190.464844 C 100.925781 188.554688 106.226562 186.851562 109.203125 182.125 C 112.175781 177.398438 117.765625 166.359375 123.082031 177.332031 C 123.082031 177.332031 119.746094 172.0625 116.671875 174.726562 C 113.59375 177.394531 110.992188 187.308594 103.511719 189.027344 C 96.03125 190.746094 86.78125 191.644531 87.386719 198.324219 C 87.992188 205.003906 89.980469 206.550781 86.867188 213.15625 C 83.75 219.765625 82.488281 227.066406 91.730469 230.316406 L 90.675781 232.667969 " fill-opacity="1" fill-rule="nonzero"/><path fill="#ffffff" d="M 107.65625 277.761719 C 107.65625 277.761719 95.730469 273.398438 93.972656 259.359375 C 92.21875 245.320312 91.046875 243.429688 94.554688 238.617188 C 98.0625 233.804688 99.039062 231.6875 99.542969 222.320312 C 100.042969 212.953125 111.199219 214.484375 113.683594 214.3125 C 116.167969 214.144531 119.847656 213.242188 123.355469 208.429688 C 126.859375 203.621094 134.042969 199.980469 140.1875 211.367188 C 140.1875 211.367188 136.367188 205.082031 130.734375 206.074219 C 125.105469 207.0625 124.851562 213.113281 118.402344 215.871094 C 111.957031 218.628906 100.992188 215.539062 101.097656 224.589844 C 101.203125 233.640625 98.8125 235.109375 96.511719 239.949219 C 94.210938 244.789062 95.523438 248.300781 95.625 253.855469 C 95.730469 259.414062 96.644531 270.855469 107.65625 277.761719 " fill-opacity="1" fill-rule="nonzero"/><path fill="#ffffff" d="M 121.6875 270.429688 C 121.6875 270.429688 110.890625 269.824219 111.207031 263.4375 C 111.515625 257.050781 117.492188 255.460938 116.542969 247.304688 C 115.597656 239.148438 115.179688 236.480469 119.878906 236.511719 C 124.582031 236.542969 128.207031 237.394531 131.910156 232.445312 C 135.609375 227.492188 137.855469 226.484375 142.195312 230.507812 C 146.535156 234.523438 148.207031 237.539062 151.828125 239.050781 C 151.828125 239.050781 149.621094 239.613281 143.597656 233.894531 C 137.570312 228.171875 136.015625 231.472656 134.207031 233.175781 C 132.398438 234.878906 131.324219 239.199219 123.746094 238.199219 C 116.167969 237.199219 119.449219 244.226562 119.257812 247.207031 C 119.070312 250.1875 118.605469 252.117188 115.257812 257.230469 C 111.90625 262.347656 113.574219 267.4375 122.105469 267.523438 L 121.6875 270.429688 " fill-opacity="1" fill-rule="nonzero"/><path fill="#ffffff" d="M 132.441406 281.96875 C 132.441406 281.96875 128.296875 277.8125 129.972656 271.757812 C 131.644531 265.703125 128.589844 266.398438 130.039062 259.617188 C 131.488281 252.835938 134.992188 255.671875 138.105469 258.136719 C 141.21875 260.597656 145.769531 261.085938 148.820312 261.046875 C 148.820312 261.046875 144.617188 262.800781 140.449219 261.265625 C 136.28125 259.734375 132.550781 255.945312 132.027344 260.289062 C 131.503906 264.632812 133.441406 265.503906 132.050781 269.875 C 130.660156 274.242188 129.574219 276.191406 132.441406 281.96875 " fill-opacity="1" fill-rule="nonzero"/><g clip-path="url(#ce8a035da0)"><path fill="#ffffff" d="M 292.84375 213.683594 C 285.078125 218.496094 277.195312 225.539062 272.332031 230.609375 C 267.460938 235.675781 262.835938 239.574219 250.5 240.484375 C 238.167969 241.398438 232.105469 250.558594 227.128906 256.992188 C 222.148438 263.421875 216.8125 269.085938 205.457031 267.769531 C 194.109375 266.453125 190.082031 256.585938 192.273438 248.53125 C 194.464844 240.476562 204.664062 239.816406 207.535156 243.542969 C 210.40625 247.261719 209.039062 252.1875 206.054688 254.867188 C 203.066406 257.546875 197.355469 254.96875 199.363281 249.484375 C 199.363281 249.484375 200.316406 246.558594 203.679688 247.082031 C 203.679688 247.082031 199.796875 244.886719 196.605469 248.5625 C 193.414062 252.242188 196.234375 257.863281 200.355469 259.761719 C 204.472656 261.660156 211.78125 259.878906 213.570312 252.089844 C 215.359375 244.296875 210.03125 239.023438 202.875 238.40625 C 195.714844 237.785156 186.761719 245.824219 190.214844 256.789062 C 193.667969 267.75 203.902344 271.09375 211.003906 270.308594 C 218.105469 269.527344 224.828125 266.410156 232.726562 256.765625 C 240.625 247.117188 249.226562 246.644531 258.203125 244.34375 C 267.183594 242.042969 271.230469 235.070312 273.117188 236.847656 C 275.003906 238.628906 269.675781 247.597656 258.019531 251.078125 C 246.367188 254.5625 241.015625 257.792969 233.132812 264.835938 C 225.253906 271.882812 218.699219 275.035156 207.738281 275.191406 C 196.777344 275.34375 186.304688 267.261719 185.921875 251.550781 C 185.535156 235.84375 196.269531 225.917969 198.675781 220.164062 C 201.082031 214.414062 200.546875 210.308594 206.328125 203.347656 C 212.109375 196.386719 206.636719 192.644531 206.480469 182.539062 C 206.320312 172.433594 208.59375 171.519531 210.074219 169.394531 C 210.074219 169.394531 217.570312 160.011719 211.222656 148.792969 C 204.875 137.574219 212.507812 132.5625 216.996094 129.328125 C 221.484375 126.089844 233.082031 121.207031 234.90625 113.25 C 236.726562 105.292969 239.625 96.34375 247.976562 97.90625 C 256.328125 99.46875 258.738281 97.882812 262.941406 96.847656 C 267.148438 95.8125 274.078125 95.863281 279.222656 98.667969 C 284.363281 101.472656 291.0625 100.953125 293.839844 104.308594 C 296.613281 107.664062 299.007812 112.851562 300.433594 122.699219 C 301.863281 132.546875 308.246094 134.394531 310.257812 137.242188 C 312.269531 140.09375 316.304688 144.058594 308.242188 157.835938 C 300.175781 171.621094 301.050781 179.960938 301.550781 189.269531 C 302.046875 198.578125 300.605469 208.871094 292.84375 213.683594 Z M 196.5625 190.203125 C 194.453125 177.78125 190.535156 171.585938 198.78125 164.441406 C 198.78125 164.441406 190.523438 149.875 196.179688 137.675781 C 196.179688 137.675781 197.902344 134.390625 199.171875 138.300781 C 200.445312 142.210938 202.089844 145.160156 205.75 150.085938 C 209.414062 155.015625 207.957031 162.875 203.871094 170.015625 C 199.789062 177.15625 204.726562 185.128906 205.683594 191.40625 C 206.636719 197.679688 206.0625 198.777344 203.070312 202.324219 C 200.082031 205.871094 199.761719 208.234375 198.671875 211.828125 C 198.671875 211.828125 198.589844 213.898438 196.671875 216.449219 C 194.753906 219.003906 193.671875 216.695312 193.972656 211.894531 C 194.273438 207.09375 198.671875 202.625 196.5625 190.203125 Z M 204.414062 113.859375 C 210.921875 107.574219 218.46875 114.699219 226.496094 101.082031 C 234.527344 87.46875 237.382812 88.757812 244.226562 90.875 C 251.078125 92.992188 251.816406 91.929688 258.824219 90.78125 C 265.828125 89.632812 270.214844 91.066406 269.238281 92.425781 C 268.261719 93.785156 265.734375 93.433594 262.664062 94.011719 C 259.59375 94.589844 260.511719 96.863281 251.558594 95.699219 C 242.601562 94.53125 235.980469 93.851562 232.652344 102.363281 C 229.324219 110.875 231.019531 116.089844 218.398438 124.234375 C 218.398438 124.234375 213.28125 127.167969 210.648438 131.480469 C 208.019531 135.796875 206.355469 140.488281 204.488281 136.105469 C 202.617188 131.722656 197.90625 120.152344 204.414062 113.859375 Z M 312.257812 170.539062 C 310.757812 178.332031 304.300781 183.242188 304.300781 183.242188 C 303.84375 169.832031 307.785156 165.328125 308.152344 164.128906 C 308.515625 162.933594 313.757812 162.746094 312.257812 170.539062 Z M 313.707031 157.410156 C 311.804688 153.195312 313.414062 152.140625 313.414062 152.140625 C 323.90625 138.34375 307.34375 134.554688 305.964844 122.804688 C 304.585938 111.054688 302.167969 104.304688 293.863281 100.84375 C 285.558594 97.378906 280.015625 99.003906 275.925781 93.640625 C 271.832031 88.273438 266.925781 85.171875 260.109375 87.921875 C 253.292969 90.675781 247.898438 89.902344 244.046875 88.40625 C 240.195312 86.910156 232.097656 82.449219 225.964844 91.941406 C 219.832031 101.433594 217.878906 104.15625 211.535156 106.308594 C 205.1875 108.464844 199.09375 112.757812 198.445312 119.222656 C 197.800781 125.6875 195.792969 127.003906 195.792969 127.003906 C 184.464844 144.796875 194.859375 163.28125 194.859375 163.28125 C 184.488281 178.144531 197.125 190.839844 190.839844 202.734375 C 184.558594 214.625 190.125 227.941406 190.125 227.941406 C 190.125 227.941406 180.039062 244.773438 184.585938 261.347656 C 189.125 277.921875 208.316406 282.429688 221.480469 277.523438 C 234.644531 272.617188 235.453125 262.019531 250.554688 256.128906 C 265.65625 250.234375 268.847656 251.59375 275.769531 243.304688 C 282.691406 235.019531 275.34375 228.628906 286.660156 220.90625 C 297.976562 213.1875 300.730469 209.9375 302.652344 202.351562 C 304.574219 194.761719 304.5 186.757812 304.5 186.757812 C 321.824219 168.476562 315.609375 161.625 313.707031 157.410156 " fill-opacity="1" fill-rule="nonzero"/></g><path fill="#ffffff" d="M 228.117188 248.09375 C 228.117188 248.09375 237.191406 236.953125 247.84375 235.78125 C 258.5 234.609375 266.226562 229.960938 273.175781 222.808594 C 280.125 215.65625 291.847656 211.839844 295.34375 205.015625 C 298.84375 198.1875 294.835938 178.597656 299.671875 166.582031 C 304.507812 154.5625 312.160156 146.515625 305.410156 140.164062 C 298.660156 133.808594 296.203125 128.089844 295.917969 119.4375 C 295.628906 110.78125 294.089844 109.417969 281.074219 105.671875 C 281.074219 105.671875 290.640625 109.742188 292.171875 112.40625 C 293.699219 115.066406 293.242188 116.015625 293.945312 122.671875 C 294.644531 129.328125 297.546875 135.40625 302.449219 141.890625 C 307.347656 148.378906 305.4375 150.066406 302.035156 157.695312 C 298.632812 165.324219 293.730469 172.640625 294.777344 186.402344 C 295.828125 200.164062 292.152344 204.089844 287.269531 208.808594 C 282.390625 213.523438 277.070312 216.585938 271.679688 222.496094 C 266.289062 228.414062 263.628906 229.941406 253.269531 232.21875 C 242.90625 234.492188 237.296875 236.453125 228.117188 248.09375 " fill-opacity="1" fill-rule="nonzero"/><path fill="#ffffff" d="M 237.15625 192.734375 C 237.15625 192.734375 238.84375 185.445312 236.328125 178.324219 C 233.816406 171.199219 235.109375 171.644531 239.476562 162.304688 C 243.84375 152.96875 245.878906 148.179688 253.613281 142.667969 C 261.347656 137.15625 269.472656 142.3125 270.640625 146.726562 C 271.808594 151.136719 269.464844 157.421875 272.308594 164.613281 C 275.15625 171.804688 271.160156 176.007812 265.527344 185.605469 C 259.894531 195.203125 260.980469 201.679688 250.109375 203.066406 C 239.234375 204.453125 226.675781 199.761719 218.351562 213.140625 C 210.023438 226.519531 225.476562 236.503906 235.546875 230.605469 C 245.617188 224.710938 241.984375 220.480469 259.757812 209.238281 C 277.53125 198 284.136719 182.875 281.074219 173.378906 C 278.011719 163.886719 278.722656 157.957031 280.996094 147.835938 C 283.269531 137.714844 276.445312 132.128906 270.835938 134.089844 C 265.222656 136.046875 257.921875 131.925781 254.007812 134.066406 C 250.09375 136.203125 244.289062 142.464844 239.570312 145.132812 C 234.851562 147.796875 237.582031 153.054688 232.097656 160.25 C 226.613281 167.445312 226.386719 171.046875 227.480469 176.65625 C 228.570312 182.269531 231.585938 193.660156 228.417969 203.074219 L 222.53125 206.367188 C 222.53125 206.367188 226.550781 198.695312 223.367188 183.097656 C 220.183594 167.5 227.625 165.921875 230.445312 158.171875 C 233.265625 150.421875 231.761719 146.808594 239.574219 140.097656 C 247.382812 133.382812 248.941406 125.023438 256.746094 128.382812 C 264.554688 131.742188 270.453125 126.714844 276.199219 129.125 C 281.945312 131.535156 287.875 136.414062 282.839844 150.648438 C 277.804688 164.886719 281.777344 164.148438 284.242188 173.167969 C 286.707031 182.191406 287.066406 192.164062 275.191406 203.417969 C 263.316406 214.667969 256.894531 213.855469 247.425781 223.523438 C 237.960938 233.191406 236.609375 235.515625 228.449219 235.554688 C 220.289062 235.597656 212.476562 228.070312 213.476562 219.074219 C 214.476562 210.074219 222.796875 201.734375 237.695312 201.007812 C 252.59375 200.285156 256.476562 197.445312 259.796875 185.632812 C 263.113281 173.816406 273.730469 175.328125 268.78125 164.054688 C 263.835938 152.777344 272.921875 154.144531 264.910156 146.75 C 256.902344 139.355469 250.03125 154.078125 245.019531 160.679688 C 240.007812 167.277344 237.15625 170.160156 238.417969 174.9375 C 239.683594 179.714844 240.601562 186.15625 237.15625 192.734375 " fill-opacity="1" fill-rule="nonzero"/><path fill="#ffffff" d="M 225.6875 212.058594 C 225.6875 212.058594 219.789062 217.085938 222.414062 222.839844 C 225.035156 228.597656 234.601562 227.632812 241.5 218.644531 C 248.394531 209.65625 250.15625 210.371094 256.746094 206.183594 C 263.34375 201.996094 275.726562 194.148438 277.730469 179.460938 C 277.730469 179.460938 275.316406 191.113281 263.292969 199.730469 C 251.269531 208.34375 246.269531 209.042969 241.691406 215.210938 C 237.113281 221.378906 231.851562 225.84375 226.246094 222.769531 C 220.632812 219.691406 224.511719 213.550781 225.6875 212.058594 " fill-opacity="1" fill-rule="nonzero"/></svg>