<?xml version="1.0" encoding="UTF-8" standalone="no"?>
<!-- Created with Inkscape (http://www.inkscape.org/) -->

<svg
   version="1.1"
   id="svg31251"
   width="67.877045"
   height="88.356285"
   viewBox="0 0 67.877045 88.356285"
   sodipodi:docname="plants.svg"
   xmlns:inkscape="http://www.inkscape.org/namespaces/inkscape"
   xmlns:sodipodi="http://sodipodi.sourceforge.net/DTD/sodipodi-0.dtd"
   xmlns="http://www.w3.org/2000/svg"
   xmlns:svg="http://www.w3.org/2000/svg">
  <sodipodi:namedview
     id="namedview33278"
     pagecolor="#ffffff"
     bordercolor="#000000"
     borderopacity="0.25"
     inkscape:showpageshadow="2"
     inkscape:pageopacity="0.0"
     inkscape:pagecheckerboard="0"
     inkscape:deskcolor="#d1d1d1"
     showgrid="false" />
  <defs
     id="defs31255" />
  <g
     id="g31259"
     transform="matrix(1.3333333,0,0,-1.3333333,-302.14666,423.32932)">
    <g
       id="g31261"
       transform="scale(0.1)">
      <path
         d="m 2599.7,2735.61 c 0,-12.56 -10.18,-22.74 -22.74,-22.74 -12.57,0 -22.75,10.18 -22.75,22.74 0,12.57 10.18,22.75 22.75,22.75 12.56,0 22.74,-10.18 22.74,-22.75 z"
         style="fill:none;stroke:#000000;stroke-width:20;stroke-linecap:round;stroke-linejoin:round;stroke-miterlimit:10;stroke-dasharray:none;stroke-opacity:1"
         id="path31479"
         inkscape:export-filename="plants_light.svg"
         inkscape:export-xdpi="96"
         inkscape:export-ydpi="96" />
      <path
         d="m 2721.77,2699.56 c 5.21,11.43 18.7,16.47 30.13,11.26 11.43,-5.21 16.47,-18.69 11.26,-30.12 -5.21,-11.43 -18.7,-16.47 -30.12,-11.27 -11.43,5.21 -16.48,18.7 -11.27,30.13 z"
         style="fill:none;stroke:#000000;stroke-width:20;stroke-linecap:round;stroke-linejoin:round;stroke-miterlimit:10;stroke-dasharray:none;stroke-opacity:1"
         id="path31481" />
      <path
         d="m 2652.54,2731.12 c 5.21,11.43 18.69,16.47 30.12,11.26 11.43,-5.21 16.47,-18.7 11.27,-30.13 -5.22,-11.43 -18.7,-16.47 -30.13,-11.26 -11.43,5.21 -16.48,18.7 -11.26,30.13 z"
         style="fill:none;stroke:#000000;stroke-width:20;stroke-linecap:round;stroke-linejoin:round;stroke-miterlimit:10;stroke-dasharray:none;stroke-opacity:1"
         id="path31483" />
      <path
         d="m 2670.58,2630.81 c 5.21,11.44 18.7,16.48 30.13,11.27 11.43,-5.21 16.47,-18.7 11.26,-30.13 -5.21,-11.43 -18.7,-16.47 -30.13,-11.26 -11.43,5.21 -16.47,18.7 -11.26,30.12 z"
         style="fill:none;stroke:#000000;stroke-width:20;stroke-linecap:round;stroke-linejoin:round;stroke-miterlimit:10;stroke-dasharray:none;stroke-opacity:1"
         id="path31485" />
      <path
         d="m 2305.93,2822.86 c 0,0 97.34,-137.24 207.77,-101.63"
         style="fill:none;stroke:#000000;stroke-width:20;stroke-linecap:round;stroke-linejoin:round;stroke-miterlimit:10;stroke-dasharray:none;stroke-opacity:1"
         id="path31487" />
      <path
         d="m 2305.93,2822.86 c 0,0 167.3,8.27 208.45,-100.23"
         style="fill:none;stroke:#000000;stroke-width:20;stroke-linecap:round;stroke-linejoin:round;stroke-miterlimit:10;stroke-dasharray:none;stroke-opacity:1"
         id="path31489" />
      <path
         d="m 2276.1,3164.97 c 0,0 6.04,-277.51 190.22,-332.72"
         style="fill:none;stroke:#000000;stroke-width:20;stroke-linecap:round;stroke-linejoin:round;stroke-miterlimit:10;stroke-dasharray:none;stroke-opacity:1"
         id="path31491" />
      <path
         d="m 2360.05,3018.35 -4.89,8.34"
         style="fill:none;stroke:#000000;stroke-width:20;stroke-linecap:round;stroke-linejoin:round;stroke-miterlimit:10;stroke-dasharray:none;stroke-opacity:1"
         id="path31493" />
      <path
         d="m 2276.1,3164.97 c 0,0 238.31,-144.72 192.45,-331.45 l -89.8,152.99"
         style="fill:none;stroke:#000000;stroke-width:20;stroke-linecap:round;stroke-linejoin:round;stroke-miterlimit:10;stroke-dasharray:none;stroke-opacity:1"
         id="path31495" />
      <path
         d="m 2545.38,3143.12 c 0,0 -64.1,-86.76 -81.21,-188.03"
         style="fill:none;stroke:#000000;stroke-width:20;stroke-linecap:round;stroke-linejoin:round;stroke-miterlimit:10;stroke-dasharray:none;stroke-opacity:1"
         id="path31497" />
      <path
         d="m 2545.38,3143.12 c 0,0 97.4,-253.01 -44.18,-370.3 l 22.48,204.83"
         style="fill:none;stroke:#000000;stroke-width:20;stroke-linecap:round;stroke-linejoin:round;stroke-miterlimit:10;stroke-dasharray:none;stroke-opacity:1"
         id="path31499" />
      <path
         d="m 2691.27,2674.15 c 0,0 -133.08,-22.33 -144.18,-151.87 0,0 -3.77,199.4 -80.77,309.97"
         style="fill:none;stroke:#000000;stroke-width:20;stroke-linecap:round;stroke-linejoin:round;stroke-miterlimit:10;stroke-dasharray:none;stroke-opacity:1"
         id="path31501" />
      <path
         d="m 2584.3,2682.68 c 0,0 15.54,-35.9 -11.35,-84.08"
         style="fill:none;stroke:#000000;stroke-width:20;stroke-linecap:round;stroke-linejoin:round;stroke-miterlimit:10;stroke-dasharray:none;stroke-opacity:1"
         id="path31503" />
    </g>
  </g>
</svg>
