<svg xmlns="http://www.w3.org/2000/svg" xmlns:xlink="http://www.w3.org/1999/xlink" width="500" zoomAndPan="magnify" viewBox="0 0 375 374.999991" height="500" preserveAspectRatio="xMidYMid meet" version="1.0"><defs><clipPath id="e303c3bc53"><path d="M 187.5 0 C 83.945312 0 0 83.945312 0 187.5 C 0 291.054688 83.945312 375 187.5 375 C 291.054688 375 375 291.054688 375 187.5 C 375 83.945312 291.054688 0 187.5 0 Z M 187.5 0 " clip-rule="nonzero"/></clipPath><clipPath id="a900d29744"><path d="M 62 101.191406 L 337 101.191406 L 337 273.691406 L 62 273.691406 Z M 62 101.191406 " clip-rule="nonzero"/></clipPath></defs><g clip-path="url(#e303c3bc53)"><rect x="-37.5" width="450" fill="#a2c36e" y="-37.499999" height="449.999989" fill-opacity="1"/></g><path fill="#fffff9" d="M 107.667969 118.644531 C 106.792969 121.914062 103.5 123.882812 100.3125 123.039062 C 97.128906 122.199219 95.253906 118.863281 96.125 115.589844 C 97 112.320312 108.539062 115.371094 107.667969 118.644531 " fill-opacity="1" fill-rule="nonzero"/><path fill="#fffff9" d="M 107.710938 167.070312 C 109.933594 167.070312 111.742188 165.261719 111.742188 163.039062 C 111.742188 160.820312 109.933594 159.011719 107.710938 159.011719 C 105.492188 159.011719 103.683594 160.820312 103.683594 163.039062 C 103.683594 165.261719 105.492188 167.070312 107.710938 167.070312 Z M 107.710938 154.519531 C 112.414062 154.519531 116.234375 158.339844 116.234375 163.039062 C 116.234375 167.738281 112.414062 171.5625 107.710938 171.5625 C 103.011719 171.5625 99.191406 167.738281 99.191406 163.039062 C 99.191406 158.339844 103.011719 154.519531 107.710938 154.519531 " fill-opacity="1" fill-rule="nonzero"/><g clip-path="url(#a900d29744)"><path fill="#fffff9" d="M 82.339844 135.773438 C 83.09375 136.269531 83.820312 136.75 84.507812 137.207031 C 91.933594 142.15625 93.996094 154.886719 95.65625 165.113281 C 96.304688 169.105469 96.914062 172.878906 97.726562 175.296875 C 98.679688 178.125 101.863281 181.519531 105.890625 182.238281 C 107.0625 182.445312 108.183594 182.402344 109.261719 182.113281 C 109.273438 182.109375 109.28125 182.109375 109.289062 182.105469 C 111.105469 181.613281 112.785156 180.410156 114.308594 178.511719 C 124.277344 166.085938 119.539062 138.960938 119.492188 138.691406 C 119.269531 137.46875 120.082031 136.300781 121.304688 136.082031 C 122.527344 135.867188 123.691406 136.671875 123.910156 137.890625 C 124.128906 139.085938 129.0625 167.300781 117.8125 181.324219 C 116.410156 183.070312 114.824219 184.394531 113.125 185.324219 C 118.203125 192.605469 129.691406 207.882812 138.742188 211.207031 C 138.835938 211.242188 138.9375 211.269531 139.03125 211.304688 C 138.128906 210.574219 137.222656 209.84375 136.339844 209.132812 C 126.171875 200.964844 120.863281 192.1875 120.992188 183.757812 C 121.042969 180.265625 122.972656 177.285156 126.28125 175.582031 C 130.5 173.410156 136.128906 173.75 139.96875 176.40625 C 143.667969 178.960938 145.375 183.21875 144.78125 188.394531 C 144.257812 192.929688 151.328125 198.191406 157.003906 202.417969 C 158.328125 203.40625 159.617188 204.367188 160.800781 205.296875 C 165.554688 209.046875 169.082031 211.839844 169.625 215.40625 C 175.585938 215.46875 181.496094 215.3125 186.941406 215.160156 C 189.464844 215.089844 191.914062 215.023438 194.253906 214.976562 C 195.691406 214.949219 197.039062 214.914062 198.34375 214.875 C 196.570312 207.855469 205.808594 199.023438 215.445312 193.640625 C 223.238281 189.292969 230.03125 192.398438 233.308594 197.402344 C 235.59375 200.894531 235.617188 204.527344 233.367188 206.238281 C 232.785156 206.675781 232.039062 207.167969 231.230469 207.695312 C 230.792969 207.984375 230.144531 208.40625 229.484375 208.871094 C 231.980469 208.746094 234.703125 208.621094 237.625 208.488281 C 254.996094 207.6875 278.785156 206.589844 303.035156 203.839844 C 322.542969 201.628906 330.601562 191.949219 331.636719 183.632812 C 332.761719 174.609375 326.441406 166.125 315.539062 162.011719 C 289.332031 152.132812 260.535156 148.410156 245.238281 147.523438 C 250.144531 148.875 256.148438 150.375 262.324219 151.917969 C 282.277344 156.898438 304.890625 162.546875 312.210938 168.148438 C 315.398438 170.585938 316.742188 173.773438 315.898438 176.890625 C 314.855469 180.761719 310.609375 183.808594 305.332031 184.472656 C 273.308594 188.503906 245.652344 191.988281 229.550781 185.957031 C 199.164062 174.578125 177.972656 164.390625 163.335938 156.070312 C 163.304688 156.054688 163.273438 156.035156 163.242188 156.019531 C 144.476562 145.34375 136.515625 137.753906 133.757812 134.695312 C 131.234375 131.890625 129.191406 128.664062 127.027344 125.246094 C 121.652344 116.761719 116.097656 107.984375 102.609375 106.398438 C 97.753906 105.828125 93.675781 108.046875 90.078125 110.011719 C 88.484375 110.878906 86.972656 111.703125 85.542969 112.179688 C 84.390625 112.566406 82.925781 112.898438 81.230469 113.28125 C 77.074219 114.226562 71.167969 115.574219 68.265625 118.40625 L 88.792969 126.527344 C 89.949219 126.984375 90.515625 128.289062 90.058594 129.441406 C 89.707031 130.324219 88.863281 130.863281 87.96875 130.863281 C 87.695312 130.863281 87.414062 130.8125 87.140625 130.703125 L 67.09375 122.773438 C 68.929688 126.953125 77.386719 132.519531 82.339844 135.773438 Z M 150.671875 215.246094 C 152.078125 216.554688 152.34375 217.894531 152.320312 218.792969 C 152.265625 220.847656 150.707031 222.378906 149.542969 223.351562 L 149.3125 223.546875 C 146.179688 226.160156 142.277344 229.414062 139.351562 231.039062 C 136.925781 232.386719 134.035156 232.261719 131.820312 231.972656 C 132.257812 233.777344 132.757812 235.816406 132.953125 236.582031 C 133.203125 237.566406 133.410156 238.507812 133.597656 239.359375 C 133.6875 239.765625 133.789062 240.207031 133.886719 240.625 C 134 240.535156 134.117188 240.441406 134.230469 240.351562 C 136.09375 238.859375 138.410156 237.007812 139.996094 236.050781 L 141.335938 235.253906 C 145.125 233.011719 154.003906 227.757812 159.457031 223.265625 C 163.34375 220.0625 165.226562 217.800781 165.210938 216.347656 C 165.191406 214.484375 161.707031 211.734375 158.019531 208.824219 C 156.867188 207.917969 155.609375 206.980469 154.320312 206.023438 C 147.375 200.851562 139.5 194.984375 140.316406 187.882812 C 140.71875 184.382812 139.714844 181.691406 137.414062 180.101562 C 136.019531 179.136719 134.210938 178.640625 132.40625 178.640625 C 130.980469 178.640625 129.554688 178.949219 128.335938 179.578125 C 127.054688 180.238281 125.519531 181.511719 125.484375 183.824219 C 125.378906 190.820312 130.105469 198.363281 139.152344 205.632812 C 143.355469 209.007812 148.054688 212.8125 150.671875 215.246094 Z M 202.734375 214.007812 C 203.984375 217.535156 212.449219 220.667969 218.632812 222.953125 C 220.148438 223.511719 221.609375 224.054688 222.945312 224.582031 C 225.316406 225.523438 228.144531 226.9375 228.933594 229.566406 C 229.429688 231.210938 229.015625 233 227.707031 234.886719 C 226.292969 236.917969 225.226562 238.261719 223.308594 239.984375 C 221.964844 241.191406 220.644531 242.1875 219.320312 242.992188 C 221.410156 244.671875 224.855469 247.070312 227.023438 248.289062 C 227.792969 244.367188 228.355469 242.265625 229.296875 241.160156 C 230.179688 240.125 231.195312 239 232.289062 237.796875 C 235.210938 234.566406 238.523438 230.910156 241.238281 226.753906 C 241.308594 226.648438 241.320312 226.609375 241.285156 226.460938 C 240.632812 223.910156 232.609375 219.605469 228.753906 217.535156 C 227.46875 216.84375 226.300781 216.21875 225.367188 215.675781 C 223.402344 214.535156 222.382812 213.09375 222.339844 211.398438 C 222.253906 208.191406 225.71875 205.929688 228.773438 203.933594 C 229.429688 203.503906 230.046875 203.105469 230.539062 202.742188 C 230.683594 202.09375 230.035156 199.871094 228 198.082031 C 226.359375 196.640625 222.835938 194.664062 217.636719 197.5625 C 208.257812 202.800781 201.433594 210.332031 202.734375 214.007812 Z M 62.675781 118.851562 C 62.699219 118.78125 62.710938 118.707031 62.738281 118.636719 C 62.742188 118.628906 62.746094 118.625 62.75 118.617188 C 62.753906 118.609375 62.753906 118.601562 62.757812 118.59375 C 65.417969 112.261719 73.984375 110.320312 80.234375 108.902344 C 81.8125 108.542969 83.179688 108.234375 84.121094 107.917969 C 85.175781 107.566406 86.449219 106.871094 87.929688 106.066406 C 91.699219 104.011719 96.855469 101.195312 103.136719 101.933594 C 113.484375 103.152344 119.78125 108.019531 124.507812 113.765625 C 127.898438 113.148438 137.136719 111.785156 147.632812 112.914062 C 148.867188 113.046875 149.757812 114.15625 149.625 115.390625 C 149.492188 116.621094 148.390625 117.511719 147.152344 117.382812 C 139.089844 116.515625 131.695312 117.234375 127.558594 117.832031 C 128.707031 119.503906 129.777344 121.195312 130.824219 122.84375 C 131.992188 124.6875 133.128906 126.457031 134.304688 128.117188 C 137.609375 127.214844 145.824219 125.257812 155.238281 125.257812 C 156.476562 125.257812 157.484375 126.261719 157.484375 127.503906 C 157.484375 128.746094 156.476562 129.75 155.238281 129.75 C 147.875 129.75 141.167969 131.058594 137.367188 131.976562 C 139.945312 134.78125 143.84375 138.101562 149.125 141.835938 C 151.941406 140.5625 159.160156 137.738281 167.273438 138.007812 C 168.511719 138.046875 169.484375 139.085938 169.445312 140.324219 C 169.40625 141.566406 168.359375 142.546875 167.128906 142.496094 C 161.792969 142.332031 156.8125 143.710938 153.605469 144.875 C 156.839844 146.996094 160.46875 149.21875 164.527344 151.542969 C 167.195312 150.296875 174.046875 147.550781 182.179688 147.8125 C 183.417969 147.851562 184.390625 148.890625 184.351562 150.128906 C 184.308594 151.371094 183.246094 152.359375 182.035156 152.304688 C 177.105469 152.152344 172.628906 153.292969 169.578125 154.359375 C 173.238281 156.351562 177.195312 158.40625 181.445312 160.511719 C 184.109375 159.257812 191.203125 156.363281 199.4375 156.636719 C 200.675781 156.679688 201.648438 157.714844 201.609375 158.953125 C 201.570312 160.195312 200.523438 161.167969 199.292969 161.128906 C 194.457031 160.96875 190.007812 162.085938 186.898438 163.164062 C 189.828125 164.558594 192.898438 165.976562 196.089844 167.410156 C 198.554688 166.546875 205.453125 164.46875 213.457031 165.078125 C 214.695312 165.171875 215.621094 166.25 215.527344 167.484375 C 215.433594 168.722656 214.367188 169.65625 213.121094 169.554688 C 209.175781 169.261719 205.496094 169.710938 202.628906 170.296875 C 207.226562 172.285156 212.074219 174.304688 217.167969 176.34375 C 219.347656 175.316406 224.804688 173.339844 232.832031 174.507812 C 234.058594 174.683594 234.910156 175.824219 234.730469 177.054688 C 234.550781 178.28125 233.421875 179.128906 232.183594 178.953125 C 228.855469 178.472656 226.070312 178.621094 223.890625 178.988281 C 226.257812 179.90625 228.660156 180.824219 231.128906 181.75 C 246.195312 187.394531 273.339844 183.972656 304.773438 180.015625 C 308.597656 179.535156 311.085938 177.492188 311.5625 175.71875 C 312.007812 174.066406 310.675781 172.628906 309.480469 171.714844 C 302.902344 166.679688 279.796875 160.910156 261.234375 156.273438 C 248.113281 153 236.78125 150.167969 232.667969 148.003906 C 231.132812 147.195312 230.921875 145.746094 231.375 144.742188 C 231.972656 143.414062 232.789062 142.605469 241.46875 142.851562 C 247.003906 143.003906 254.039062 143.59375 261.28125 144.511719 C 272.84375 145.972656 295.476562 149.648438 317.125 157.8125 C 330.039062 162.679688 337.484375 173.035156 336.097656 184.1875 C 334.847656 194.203125 325.640625 205.796875 303.539062 208.304688 C 279.140625 211.070312 255.265625 212.171875 237.832031 212.972656 C 235.183594 213.097656 232.703125 213.210938 230.40625 213.324219 C 230.5625 213.410156 230.71875 213.492188 230.878906 213.578125 C 238.59375 217.71875 244.582031 221.214844 245.636719 225.351562 C 245.984375 226.710938 245.761719 228.042969 245 229.210938 C 242.089844 233.664062 238.5 237.625 235.617188 240.808594 C 235.421875 241.027344 235.242188 241.226562 235.050781 241.4375 C 238.394531 242.539062 242.398438 244.765625 244.121094 249.28125 C 244.5625 250.4375 243.984375 251.738281 242.824219 252.179688 C 242.558594 252.28125 242.289062 252.328125 242.023438 252.328125 C 241.117188 252.328125 240.265625 251.777344 239.925781 250.882812 C 238.613281 247.441406 234.898438 245.949219 232.292969 245.316406 C 231.898438 246.734375 231.492188 248.816406 231.308594 249.78125 C 231.160156 250.550781 231.035156 251.199219 230.933594 251.609375 C 230.902344 251.742188 230.828125 251.851562 230.777344 251.976562 C 229.636719 256.707031 228.523438 263.621094 229.140625 271.375 C 229.238281 272.609375 228.3125 273.691406 227.078125 273.789062 C 227.015625 273.792969 226.957031 273.796875 226.898438 273.796875 C 225.738281 273.796875 224.753906 272.90625 224.660156 271.730469 C 224.074219 264.320312 224.949219 257.644531 226.011719 252.6875 C 225.453125 252.417969 224.832031 252.089844 224.175781 251.71875 C 221.054688 256.914062 218.511719 265.789062 217.9375 270.722656 C 217.804688 271.867188 216.832031 272.707031 215.710938 272.707031 C 215.625 272.707031 215.535156 272.703125 215.445312 272.695312 C 214.214844 272.550781 213.332031 271.433594 213.476562 270.203125 C 214.089844 264.953125 216.785156 255.324219 220.363281 249.351562 C 219.96875 249.082031 219.578125 248.808594 219.1875 248.535156 C 216.425781 251.503906 210.667969 257.296875 204.972656 260.582031 L 205.949219 261.847656 C 206.707031 262.828125 206.523438 264.238281 205.542969 264.996094 C 205.132812 265.3125 204.648438 265.464844 204.171875 265.464844 C 203.5 265.464844 202.832031 265.164062 202.390625 264.589844 L 199.761719 261.183594 C 199.335938 260.632812 199.191406 259.917969 199.363281 259.246094 C 199.539062 258.574219 200.015625 258.019531 200.652344 257.746094 C 206.136719 255.386719 212.582031 248.996094 215.652344 245.730469 C 215.449219 245.539062 215.269531 245.363281 215.089844 245.179688 C 208.769531 248.175781 201.8125 248.082031 198.09375 247.726562 L 198.09375 251.910156 C 198.09375 253.148438 197.085938 254.15625 195.847656 254.15625 C 194.605469 254.15625 193.601562 253.148438 193.601562 251.910156 L 193.601562 245.15625 C 193.601562 244.484375 193.902344 243.84375 194.421875 243.417969 C 194.945312 242.992188 195.632812 242.820312 196.289062 242.953125 C 196.390625 242.976562 206.675781 244.972656 214.542969 240.410156 C 214.605469 240.371094 214.671875 240.351562 214.734375 240.320312 C 214.785156 240.296875 214.824219 240.253906 214.875 240.230469 C 216.648438 239.503906 218.425781 238.328125 220.308594 236.640625 C 221.90625 235.207031 222.777344 234.105469 224.015625 232.320312 C 224.5625 231.539062 224.691406 231.046875 224.632812 230.863281 C 224.605469 230.773438 224.28125 229.945312 221.289062 228.757812 C 219.984375 228.242188 218.554688 227.714844 217.074219 227.164062 C 211.246094 225.011719 204.835938 222.640625 201.160156 219.273438 C 199.066406 219.355469 196.8125 219.421875 194.339844 219.46875 C 192.011719 219.511719 189.578125 219.582031 187.070312 219.652344 C 182.410156 219.78125 177.414062 219.917969 172.324219 219.917969 C 171.128906 219.917969 169.921875 219.902344 168.714844 219.886719 C 167.5 222.121094 165.238281 224.320312 162.3125 226.734375 C 156.75 231.316406 148.011719 236.523438 143.964844 238.917969 C 147.644531 241.234375 152.675781 245.261719 153.820312 250.492188 C 154.085938 251.707031 153.320312 252.902344 152.109375 253.167969 C 151.945312 253.203125 151.785156 253.222656 151.625 253.222656 C 150.59375 253.222656 149.664062 252.503906 149.433594 251.457031 C 148.511719 247.242188 143.164062 243.515625 139.8125 241.671875 C 138.863281 242.398438 137.871094 243.191406 137.035156 243.859375 C 135.824219 244.828125 135.113281 245.390625 134.667969 245.691406 C 134.4375 245.839844 134.199219 245.945312 133.957031 246.03125 C 129.875 249.402344 125.285156 253.445312 121.875 258.273438 C 121.4375 258.890625 120.742188 259.222656 120.039062 259.222656 C 119.589844 259.222656 119.136719 259.089844 118.746094 258.8125 C 117.730469 258.09375 117.488281 256.695312 118.207031 255.679688 C 121.628906 250.832031 126.003906 246.835938 130.015625 243.464844 C 129.847656 242.980469 129.699219 242.421875 129.550781 241.804688 C 124.957031 242.964844 118.902344 245.351562 111.746094 248.851562 C 111.429688 249.007812 111.09375 249.078125 110.761719 249.078125 C 109.933594 249.078125 109.132812 248.617188 108.746094 247.820312 C 108.199219 246.707031 108.660156 245.359375 109.773438 244.816406 C 117.320312 241.125 123.59375 238.664062 128.53125 237.429688 C 128.441406 237.066406 128.320312 236.566406 128.175781 235.988281 C 124.386719 236.347656 117.457031 236.648438 110.300781 235.148438 L 109.113281 237.613281 C 108.730469 238.421875 107.925781 238.890625 107.089844 238.890625 C 106.761719 238.890625 106.433594 238.820312 106.121094 238.667969 C 105 238.132812 104.527344 236.792969 105.066406 235.671875 L 107.027344 231.585938 C 107.488281 230.621094 108.566406 230.117188 109.597656 230.378906 C 116.308594 232.070312 123.179688 231.886719 127.101562 231.5625 C 127.054688 231.351562 127.007812 231.160156 126.964844 230.976562 C 122.699219 229.558594 118.890625 227.414062 115.609375 224.554688 L 114.308594 226.117188 C 113.515625 227.074219 112.097656 227.203125 111.144531 226.40625 C 110.191406 225.613281 110.0625 224.199219 110.855469 223.246094 L 113.617188 219.925781 C 113.871094 219.601562 114.214844 219.347656 114.613281 219.199219 C 115.976562 218.707031 116.886719 219.59375 117.378906 220.074219 C 120.789062 223.410156 124.957031 225.773438 129.761719 227.136719 C 130.152344 227.171875 130.5625 227.234375 131.003906 227.308594 C 132.6875 227.582031 135.5 228.042969 137.171875 227.113281 C 139.726562 225.691406 143.601562 222.457031 146.433594 220.09375 L 146.664062 219.902344 C 147.421875 219.269531 147.695312 218.890625 147.789062 218.71875 C 147.753906 218.675781 147.695312 218.613281 147.617188 218.539062 C 147.441406 218.378906 147.238281 218.195312 147.042969 218.019531 C 143.574219 217.375 140.242188 216.546875 137.191406 215.425781 C 126.632812 211.546875 114.257812 194.945312 108.664062 186.773438 C 107.5 186.90625 106.3125 186.875 105.105469 186.660156 C 99.992188 185.75 95.097656 181.574219 93.46875 176.726562 C 92.539062 173.960938 91.929688 170.195312 91.21875 165.832031 C 89.699219 156.464844 87.8125 144.808594 82.015625 140.945312 C 81.335938 140.492188 80.617188 140.019531 79.871094 139.527344 C 70.929688 133.648438 59.84375 126.347656 62.675781 118.851562 " fill-opacity="1" fill-rule="nonzero"/></g></svg>