<svg xmlns="http://www.w3.org/2000/svg" xmlns:xlink="http://www.w3.org/1999/xlink" width="500" zoomAndPan="magnify" viewBox="0 0 375 374.999991" height="500" preserveAspectRatio="xMidYMid meet" version="1.0"><defs><clipPath id="922b0d8c02"><path d="M 187.5 0 C 83.945312 0 0 83.945312 0 187.5 C 0 291.054688 83.945312 375 187.5 375 C 291.054688 375 375 291.054688 375 187.5 C 375 83.945312 291.054688 0 187.5 0 Z M 187.5 0 " clip-rule="nonzero"/></clipPath><clipPath id="b1bd604dd3"><path d="M 37.5 89.015625 L 337.5 89.015625 L 337.5 281.765625 L 37.5 281.765625 Z M 37.5 89.015625 " clip-rule="nonzero"/></clipPath></defs><g clip-path="url(#922b0d8c02)"><rect x="-37.5" width="450" fill="#58a39d" y="-37.499999" height="449.999989" fill-opacity="1"/></g><path fill="#ffffff" d="M 286.15625 177.1875 C 286.15625 177.5 286.183594 177.8125 286.246094 178.117188 C 286.308594 178.425781 286.398438 178.722656 286.515625 179.011719 C 286.636719 179.300781 286.785156 179.574219 286.957031 179.835938 C 287.132812 180.09375 287.328125 180.335938 287.550781 180.554688 C 287.769531 180.777344 288.011719 180.976562 288.269531 181.148438 C 288.53125 181.324219 288.804688 181.46875 289.09375 181.589844 C 289.382812 181.707031 289.679688 181.796875 289.988281 181.859375 C 290.292969 181.921875 290.605469 181.949219 290.917969 181.949219 C 291.230469 181.949219 291.539062 181.921875 291.84375 181.859375 C 292.152344 181.796875 292.449219 181.707031 292.738281 181.589844 C 293.027344 181.46875 293.300781 181.324219 293.5625 181.148438 C 293.820312 180.976562 294.0625 180.777344 294.285156 180.554688 C 294.503906 180.335938 294.703125 180.09375 294.875 179.835938 C 295.050781 179.574219 295.195312 179.300781 295.316406 179.011719 C 295.4375 178.722656 295.527344 178.425781 295.585938 178.117188 C 295.648438 177.8125 295.679688 177.5 295.679688 177.1875 C 295.679688 176.875 295.648438 176.566406 295.585938 176.261719 C 295.527344 175.953125 295.4375 175.65625 295.316406 175.367188 C 295.195312 175.078125 295.050781 174.804688 294.875 174.542969 C 294.703125 174.285156 294.503906 174.042969 294.285156 173.820312 C 294.0625 173.601562 293.820312 173.402344 293.5625 173.230469 C 293.300781 173.054688 293.027344 172.910156 292.738281 172.789062 C 292.449219 172.671875 292.152344 172.578125 291.84375 172.519531 C 291.539062 172.457031 291.230469 172.425781 290.917969 172.425781 C 290.605469 172.425781 290.292969 172.457031 289.988281 172.519531 C 289.679688 172.578125 289.382812 172.671875 289.09375 172.789062 C 288.804688 172.910156 288.53125 173.054688 288.269531 173.230469 C 288.011719 173.402344 287.769531 173.601562 287.550781 173.820312 C 287.328125 174.042969 287.132812 174.285156 286.957031 174.542969 C 286.785156 174.804688 286.636719 175.078125 286.515625 175.367188 C 286.398438 175.65625 286.308594 175.953125 286.246094 176.261719 C 286.183594 176.566406 286.15625 176.875 286.15625 177.1875 Z M 286.15625 177.1875 " fill-opacity="1" fill-rule="nonzero"/><g clip-path="url(#b1bd604dd3)"><path fill="#ffffff" d="M 43.644531 174.230469 C 45.378906 172.195312 47.914062 170.804688 50.15625 169.894531 C 47.996094 168.007812 45.527344 165.210938 44.070312 161.457031 C 41.378906 154.523438 37.894531 116.28125 37.507812 111.941406 C 37.425781 111.019531 37.886719 110.128906 38.6875 109.667969 C 39.492188 109.207031 40.492188 109.25 41.25 109.785156 C 57.582031 121.292969 69.214844 136.496094 75.824219 154.96875 C 76.046875 155.589844 76.558594 155.714844 76.839844 155.734375 C 77.082031 155.757812 77.664062 155.71875 77.992188 155.097656 L 83.027344 145.5625 C 83.417969 144.824219 84.167969 144.339844 85.003906 144.296875 C 85.84375 144.253906 86.636719 144.644531 87.105469 145.339844 L 94.691406 156.535156 C 96.433594 159.101562 99.632812 160.351562 102.652344 159.644531 L 191.125 138.890625 C 192.351562 138.601562 193.445312 137.933594 194.203125 137.007812 C 195.710938 135.164062 197.675781 131.921875 198.480469 126.941406 C 199.226562 122.328125 198.800781 116.199219 198.421875 110.792969 C 198.027344 105.183594 197.6875 100.335938 198.535156 97.191406 C 200.445312 90.074219 204.996094 89.492188 205.507812 89.449219 C 206.023438 89.394531 206.542969 89.53125 206.980469 89.808594 C 220.277344 98.21875 231.441406 115.136719 242.050781 142.988281 C 257.285156 143.820312 337.5 149.363281 337.5 173.6875 C 337.5 177.328125 336.660156 180.828125 335.1875 184.183594 C 335.144531 184.269531 335.113281 184.363281 335.0625 184.441406 C 322.015625 213.433594 260.046875 231.359375 251.257812 233.769531 C 246.253906 242.933594 236.929688 252.941406 231.703125 258.195312 C 229.1875 260.726562 208.421875 281.332031 199.535156 281.332031 C 198.820312 281.332031 198.179688 281.195312 197.632812 280.910156 C 193.515625 278.730469 195.527344 272.875 198.300781 264.769531 C 199.40625 261.542969 200.660156 257.890625 201.589844 254.265625 C 203.136719 248.242188 203.355469 243.644531 203.550781 239.59375 C 203.582031 238.949219 203.617188 238.339844 203.652344 237.726562 C 178.460938 235.175781 153.546875 229.816406 129.527344 221.757812 C 125.257812 227.011719 120.179688 230.859375 114.167969 233.355469 C 111.789062 234.339844 109.074219 234.089844 106.910156 232.667969 C 104.75 231.246094 103.4375 228.851562 103.402344 226.269531 L 103.203125 211.738281 C 100.625 210.640625 98.039062 209.492188 95.453125 208.320312 C 92.464844 212.597656 88.832031 216.078125 84.550781 218.578125 C 83.734375 219.054688 82.828125 219.292969 81.925781 219.292969 C 80.894531 219.292969 79.859375 218.980469 78.953125 218.367188 C 77.253906 217.214844 76.390625 215.25 76.699219 213.242188 C 77.417969 208.546875 77.363281 203.792969 76.59375 199.078125 C 75.417969 198.457031 74.238281 197.824219 73.058594 197.1875 C 66.984375 208.894531 56.160156 217.835938 40.742188 223.796875 C 39.984375 224.089844 39.132812 223.976562 38.480469 223.503906 C 37.828125 223.027344 37.457031 222.253906 37.503906 221.445312 C 38.230469 208.5625 40.285156 178.171875 43.644531 174.230469 Z M 329.449219 185.117188 C 327.101562 184.945312 324.183594 184.910156 322.136719 185.433594 C 320.851562 185.761719 320.078125 186.859375 318.953125 188.632812 C 317.785156 190.472656 316.328125 192.765625 313.484375 193.292969 C 310.605469 193.820312 308.769531 192.59375 307.4375 191.695312 C 306.335938 190.957031 305.769531 190.621094 304.726562 190.675781 C 303.632812 190.757812 302.253906 191.957031 300.792969 193.222656 C 298.714844 195.027344 296.363281 197.070312 293.113281 197.613281 C 289.609375 198.191406 287.609375 197.15625 286.152344 196.390625 C 285.132812 195.859375 284.5625 195.566406 283.507812 195.683594 C 282.132812 195.828125 280.429688 197.1875 278.777344 198.5 C 276.867188 200.019531 274.894531 201.589844 272.554688 202.171875 C 270.40625 202.703125 268.496094 202.011719 266.9375 201.203125 C 267.464844 203.046875 268.171875 204.902344 269.074219 206.773438 C 269.644531 207.957031 269.144531 209.378906 267.960938 209.949219 C 267.625 210.109375 267.277344 210.1875 266.929688 210.1875 C 266.042969 210.1875 265.191406 209.691406 264.78125 208.839844 C 263.554688 206.292969 262.667969 203.730469 262.054688 201.171875 C 261.96875 201.429688 261.886719 201.71875 261.792969 202.050781 C 261.394531 203.503906 260.851562 205.492188 258.605469 206.488281 C 258.5625 206.507812 258.519531 206.515625 258.476562 206.535156 C 258.765625 207.242188 259.058594 207.953125 259.398438 208.667969 C 259.96875 209.851562 259.472656 211.273438 258.285156 211.847656 C 257.953125 212.007812 257.601562 212.082031 257.253906 212.082031 C 256.367188 212.082031 255.519531 211.585938 255.105469 210.734375 C 254.359375 209.183594 253.765625 207.628906 253.246094 206.070312 C 252.972656 205.945312 252.710938 205.816406 252.46875 205.691406 C 251.90625 205.410156 250.9375 204.929688 250.6875 204.988281 C 250.089844 205.144531 248.753906 206.550781 247.640625 208.121094 C 248.3125 209.660156 249.191406 211.222656 250.441406 213.410156 C 251.363281 215.015625 252.449219 216.921875 253.746094 219.339844 C 255.023438 221.71875 254.863281 224.738281 253.78125 228.070312 C 268.953125 223.523438 316.519531 207.71875 329.449219 185.117188 Z M 204.183594 232.992188 C 204.410156 231.777344 204.703125 230.589844 205.1875 229.449219 C 206.4375 226.496094 209.574219 224.089844 212.726562 222.308594 C 211.894531 220.339844 210.0625 217.238281 206.53125 216.375 C 203.511719 215.632812 201.421875 216.3125 199.003906 217.101562 C 196.71875 217.847656 194.136719 218.695312 190.765625 218.230469 C 187.003906 217.71875 184.851562 215.921875 183.117188 214.476562 C 181.605469 213.21875 180.515625 212.308594 178.53125 212.148438 C 176.480469 211.96875 175.386719 212.699219 173.761719 213.792969 C 172.121094 214.898438 170.078125 216.273438 166.84375 216.4375 C 163.355469 216.578125 159.578125 213.921875 155.582031 211.070312 C 152.234375 208.679688 148.4375 205.96875 145.738281 205.859375 C 141.101562 205.707031 137.53125 209.078125 136.71875 209.945312 C 135.429688 212.769531 134.011719 215.347656 132.476562 217.707031 C 155.734375 225.394531 179.824219 230.53125 204.183594 232.992188 Z M 79.875 195.433594 C 79.917969 195.453125 79.941406 195.492188 79.984375 195.519531 C 80.132812 195.605469 80.253906 195.71875 80.378906 195.835938 C 80.480469 195.933594 80.585938 196.019531 80.667969 196.132812 C 80.757812 196.25 80.816406 196.386719 80.882812 196.523438 C 80.953125 196.671875 81.023438 196.8125 81.0625 196.96875 C 81.074219 197.019531 81.105469 197.054688 81.117188 197.101562 C 82.167969 202.699219 82.265625 208.371094 81.40625 213.964844 C 81.367188 214.195312 81.507812 214.339844 81.632812 214.421875 C 81.753906 214.507812 81.949219 214.578125 82.148438 214.464844 C 86.394531 211.984375 89.820312 208.585938 92.621094 204.078125 C 92.683594 203.976562 92.78125 203.917969 92.855469 203.828125 C 92.953125 203.710938 93.046875 203.59375 93.167969 203.5 C 93.289062 203.398438 93.421875 203.328125 93.5625 203.257812 C 93.695312 203.1875 93.824219 203.121094 93.964844 203.078125 C 94.113281 203.035156 94.257812 203.019531 94.410156 203.007812 C 94.5625 202.992188 94.710938 202.976562 94.863281 202.988281 C 95.023438 203.003906 95.171875 203.054688 95.332031 203.101562 C 95.4375 203.132812 95.542969 203.128906 95.644531 203.175781 C 98.132812 204.324219 100.636719 205.433594 103.136719 206.519531 L 103.035156 199.085938 C 103.003906 196.664062 101.167969 194.660156 98.769531 194.414062 C 96.847656 194.214844 95.535156 193.945312 94.625 193.546875 C 92.996094 192.835938 92.007812 191.367188 91.050781 189.949219 C 90.15625 188.625 89.3125 187.378906 88.121094 186.878906 C 87.9375 186.804688 86.128906 186.1875 78.902344 187.773438 C 77.539062 188.078125 76.421875 189.050781 75.996094 190.320312 C 75.710938 191.179688 75.394531 192.023438 75.058594 192.855469 C 76.660156 193.726562 78.265625 194.597656 79.875 195.433594 Z M 71.480469 188.804688 C 72.4375 185.964844 74.886719 183.785156 77.875 183.125 C 86.789062 181.171875 89.164062 182.164062 89.949219 182.484375 C 92.457031 183.527344 93.863281 185.609375 94.992188 187.285156 C 95.492188 188.019531 96.171875 189.027344 96.527344 189.183594 C 96.636719 189.230469 97.273438 189.472656 99.253906 189.675781 C 104.058594 190.164062 107.734375 194.183594 107.796875 199.019531 L 108.167969 226.203125 C 108.179688 227.222656 108.675781 228.128906 109.527344 228.6875 C 110.378906 229.25 111.402344 229.347656 112.34375 228.953125 C 121.113281 225.3125 127.714844 218.347656 132.53125 207.652344 C 132.617188 207.464844 132.730469 207.285156 132.863281 207.121094 C 133.074219 206.863281 138.207031 200.699219 145.941406 201.101562 C 150.054688 201.273438 154.269531 204.285156 158.351562 207.195312 C 161.304688 209.304688 164.644531 211.6875 166.496094 211.6875 C 166.535156 211.6875 166.570312 211.6875 166.601562 211.683594 C 168.515625 211.585938 169.660156 210.816406 171.109375 209.84375 C 172.929688 208.621094 175.199219 207.101562 178.917969 207.402344 C 182.410156 207.683594 184.410156 209.351562 186.171875 210.824219 C 187.691406 212.089844 189.003906 213.1875 191.414062 213.515625 C 193.6875 213.828125 195.472656 213.25 197.53125 212.578125 C 200.253906 211.6875 203.335938 210.695312 207.667969 211.75 C 213.039062 213.066406 215.753906 217.332031 217.007812 220.207031 C 218.933594 219.390625 220.4375 218.890625 220.859375 218.757812 C 222.105469 218.351562 223.449219 219.046875 223.847656 220.300781 C 224.246094 221.554688 223.554688 222.894531 222.304688 223.292969 C 218.128906 224.625 210.984375 227.976562 209.574219 231.304688 C 208.605469 233.589844 208.476562 236.339844 208.308594 239.816406 C 208.117188 243.886719 207.871094 248.949219 206.207031 255.445312 C 205.230469 259.253906 203.945312 263.003906 202.8125 266.3125 C 201.550781 269.992188 199.851562 274.945312 200.039062 276.628906 C 205.429688 276.136719 230.816406 255.617188 244.003906 236.476562 C 248.769531 229.554688 250.84375 223.992188 249.558594 221.589844 C 248.285156 219.21875 247.214844 217.347656 246.3125 215.773438 C 243.320312 210.535156 241.953125 208.144531 241.078125 201.300781 C 239.945312 192.414062 244.535156 181.480469 244.730469 181.019531 C 245.242188 179.808594 246.644531 179.242188 247.851562 179.761719 C 249.0625 180.273438 249.625 181.671875 249.113281 182.882812 C 249.070312 182.984375 244.832031 193.097656 245.800781 200.695312 C 245.890625 201.382812 245.984375 202.007812 246.078125 202.59375 C 247.199219 201.492188 248.496094 200.542969 249.851562 200.304688 C 250.554688 200.171875 251.210938 200.242188 251.84375 200.378906 C 251.058594 195.359375 251.414062 190.335938 252.980469 185.355469 C 253.371094 184.105469 254.703125 183.402344 255.964844 183.796875 C 257.214844 184.195312 257.914062 185.53125 257.519531 186.785156 C 255.949219 191.785156 255.773438 196.714844 256.9375 201.695312 C 257.019531 201.460938 257.105469 201.152344 257.203125 200.792969 C 257.601562 199.351562 258.203125 197.167969 260.503906 195.597656 C 260.730469 195.445312 260.953125 195.347656 261.171875 195.238281 C 260.953125 191.300781 261.425781 187.367188 262.652344 183.460938 C 263.046875 182.207031 264.382812 181.503906 265.636719 181.902344 C 266.894531 182.296875 267.589844 183.636719 267.195312 184.890625 C 266.097656 188.378906 265.6875 191.828125 265.917969 195.289062 C 266.691406 195.613281 267.410156 196.011719 268.015625 196.359375 C 269.285156 197.097656 270.480469 197.785156 271.410156 197.550781 C 272.742188 197.21875 274.308594 195.976562 275.820312 194.773438 C 278.003906 193.039062 280.257812 191.246094 283.007812 190.953125 C 285.492188 190.691406 287.09375 191.511719 288.363281 192.175781 C 289.59375 192.820312 290.40625 193.234375 292.339844 192.921875 C 294.261719 192.601562 295.917969 191.160156 297.671875 189.632812 C 299.660156 187.910156 301.710938 186.125 304.394531 185.933594 C 307.113281 185.726562 308.835938 186.898438 310.097656 187.75 C 311.25 188.527344 311.695312 188.78125 312.625 188.613281 C 313.371094 188.472656 313.996094 187.566406 314.9375 186.085938 C 316.191406 184.105469 317.753906 181.644531 320.960938 180.824219 C 324.367188 179.949219 328.964844 180.25 331.535156 180.527344 C 332.289062 178.300781 332.738281 176.023438 332.738281 173.6875 C 332.738281 158 276.015625 149.402344 240.257812 147.664062 C 239.308594 147.617188 238.480469 147.011719 238.144531 146.121094 C 228.023438 119.140625 217.601562 102.675781 205.410156 94.472656 C 204.777344 94.902344 203.796875 95.945312 203.132812 98.421875 C 202.492188 100.796875 202.820312 105.492188 203.171875 110.460938 C 203.570312 116.125 204.015625 122.542969 203.183594 127.699219 C 202.210938 133.722656 199.765625 137.722656 197.886719 140.019531 C 196.464844 141.757812 194.453125 143 192.214844 143.523438 L 103.742188 164.28125 C 98.8125 165.4375 93.59375 163.402344 90.75 159.207031 L 85.386719 151.292969 L 82.199219 157.324219 C 81.082031 159.445312 78.910156 160.640625 76.503906 160.484375 C 74.121094 160.316406 72.144531 158.816406 71.339844 156.574219 C 65.65625 140.679688 56.046875 127.335938 42.746094 116.835938 C 44.078125 130.695312 46.703125 155.082031 48.507812 159.738281 C 50.777344 165.589844 56.507812 168.617188 56.5625 168.640625 C 57.46875 169.101562 57.984375 170.097656 57.832031 171.105469 C 57.6875 172.117188 56.910156 172.921875 55.90625 173.101562 C 54.242188 173.410156 49.441406 174.761719 47.304688 177.269531 C 45.671875 179.75 43.648438 199.234375 42.480469 217.9375 C 57.625 211.316406 67.128906 201.761719 71.480469 188.804688 Z M 71.480469 188.804688 " fill-opacity="1" fill-rule="nonzero"/></g></svg>