<svg xmlns="http://www.w3.org/2000/svg" xmlns:xlink="http://www.w3.org/1999/xlink" width="500" zoomAndPan="magnify" viewBox="0 0 375 374.999991" height="500" preserveAspectRatio="xMidYMid meet" version="1.0"><defs><clipPath id="edf70c5e47"><path d="M 187.5 0 C 83.945312 0 0 83.945312 0 187.5 C 0 291.054688 83.945312 375 187.5 375 C 291.054688 375 375 291.054688 375 187.5 C 375 83.945312 291.054688 0 187.5 0 Z M 187.5 0 " clip-rule="nonzero"/></clipPath><clipPath id="96e6e932f7"><path d="M 96 209 L 139 209 L 139 299.539062 L 96 299.539062 Z M 96 209 " clip-rule="nonzero"/></clipPath><clipPath id="545b9c84ba"><path d="M 78.796875 187 L 151 187 L 151 269 L 78.796875 269 Z M 78.796875 187 " clip-rule="nonzero"/></clipPath><clipPath id="7c7bec5d81"><path d="M 117 75.289062 L 170 75.289062 L 170 185 L 117 185 Z M 117 75.289062 " clip-rule="nonzero"/></clipPath><clipPath id="02bb46159d"><path d="M 236 209 L 279 209 L 279 299.539062 L 236 299.539062 Z M 236 209 " clip-rule="nonzero"/></clipPath><clipPath id="cb7c1e68b4"><path d="M 224 187 L 296.296875 187 L 296.296875 269 L 224 269 Z M 224 187 " clip-rule="nonzero"/></clipPath><clipPath id="28c701b5e9"><path d="M 205 75.289062 L 258 75.289062 L 258 185 L 205 185 Z M 205 75.289062 " clip-rule="nonzero"/></clipPath></defs><g clip-path="url(#edf70c5e47)"><rect x="-37.5" width="450" fill="#fec743" y="-37.499999" height="449.999989" fill-opacity="1"/></g><path fill="#ffffff" d="M 166.917969 128.886719 C 166.515625 128.886719 166.125 128.816406 165.742188 128.683594 C 165.363281 128.546875 165.019531 128.351562 164.707031 128.097656 C 164.394531 127.839844 164.136719 127.539062 163.925781 127.195312 C 163.71875 126.851562 163.574219 126.480469 163.492188 126.085938 C 163.160156 124.457031 162.992188 122.816406 162.992188 121.152344 C 162.992188 120.105469 163.0625 119.0625 163.203125 118.023438 C 163.34375 116.984375 163.550781 115.960938 163.832031 114.949219 C 164.109375 113.941406 164.453125 112.953125 164.867188 111.988281 C 165.277344 111.027344 165.75 110.09375 166.289062 109.195312 C 166.824219 108.292969 167.417969 107.433594 168.070312 106.613281 C 168.726562 105.792969 169.429688 105.023438 170.1875 104.296875 C 170.941406 103.570312 171.746094 102.902344 172.59375 102.285156 C 173.4375 101.667969 174.324219 101.109375 175.246094 100.613281 C 175.648438 100.378906 176.082031 100.234375 176.542969 100.175781 C 177 100.113281 177.457031 100.144531 177.90625 100.265625 C 178.355469 100.382812 178.761719 100.585938 179.132812 100.871094 C 179.5 101.152344 179.800781 101.496094 180.03125 101.898438 C 180.265625 102.300781 180.410156 102.730469 180.472656 103.191406 C 180.53125 103.652344 180.5 104.109375 180.382812 104.558594 C 180.261719 105.003906 180.058594 105.414062 179.777344 105.78125 C 179.492188 106.152344 179.148438 106.453125 178.746094 106.683594 C 177.425781 107.375 176.222656 108.230469 175.136719 109.25 C 174.046875 110.269531 173.121094 111.417969 172.347656 112.695312 C 171.578125 113.96875 170.992188 115.328125 170.589844 116.761719 C 170.191406 118.199219 169.992188 119.664062 169.996094 121.152344 C 169.992188 122.339844 170.109375 123.519531 170.34375 124.683594 C 170.398438 124.9375 170.421875 125.195312 170.414062 125.453125 C 170.410156 125.714844 170.375 125.96875 170.3125 126.222656 C 170.25 126.472656 170.164062 126.714844 170.046875 126.949219 C 169.929688 127.179688 169.789062 127.398438 169.625 127.597656 C 169.460938 127.800781 169.277344 127.980469 169.070312 128.140625 C 168.867188 128.300781 168.648438 128.4375 168.414062 128.546875 C 168.179688 128.65625 167.933594 128.742188 167.679688 128.796875 C 167.425781 128.855469 167.171875 128.882812 166.910156 128.882812 Z M 166.917969 128.886719 " fill-opacity="1" fill-rule="nonzero"/><path fill="#ffffff" d="M 208.4375 126.40625 C 208.335938 126.410156 208.238281 126.410156 208.140625 126.40625 C 207.679688 126.367188 207.242188 126.242188 206.828125 126.027344 C 206.417969 125.816406 206.0625 125.53125 205.761719 125.175781 C 205.460938 124.824219 205.242188 124.425781 205.101562 123.984375 C 204.957031 123.542969 204.90625 123.089844 204.945312 122.628906 C 204.984375 122.148438 205.003906 121.664062 205.003906 121.175781 C 204.976562 119.683594 204.757812 118.222656 204.34375 116.792969 C 203.929688 115.363281 203.335938 114.011719 202.5625 112.738281 C 201.789062 111.460938 200.863281 110.3125 199.785156 109.285156 C 198.707031 108.253906 197.515625 107.386719 196.207031 106.671875 C 195.820312 106.429688 195.496094 106.121094 195.230469 105.75 C 194.964844 105.378906 194.78125 104.96875 194.675781 104.527344 C 194.570312 104.082031 194.550781 103.632812 194.621094 103.183594 C 194.691406 102.730469 194.839844 102.3125 195.074219 101.917969 C 195.308594 101.527344 195.609375 101.195312 195.972656 100.917969 C 196.339844 100.644531 196.742188 100.449219 197.183594 100.332031 C 197.625 100.214844 198.070312 100.183594 198.523438 100.242188 C 198.976562 100.300781 199.402344 100.441406 199.796875 100.664062 C 200.710938 101.171875 201.585938 101.734375 202.425781 102.355469 C 203.261719 102.976562 204.054688 103.648438 204.804688 104.375 C 205.554688 105.101562 206.25 105.871094 206.898438 106.691406 C 207.546875 107.507812 208.136719 108.363281 208.667969 109.261719 C 209.203125 110.15625 209.675781 111.082031 210.085938 112.042969 C 210.5 113 210.84375 113.980469 211.125 114.984375 C 211.410156 115.988281 211.625 117.007812 211.769531 118.039062 C 211.917969 119.074219 211.996094 120.109375 212.007812 121.152344 C 212.007812 121.839844 211.980469 122.515625 211.921875 123.1875 C 211.886719 123.625 211.773438 124.042969 211.582031 124.4375 C 211.386719 124.832031 211.128906 125.179688 210.808594 125.476562 C 210.484375 125.773438 210.117188 126.003906 209.707031 126.164062 C 209.300781 126.324219 208.875 126.40625 208.4375 126.40625 Z M 208.4375 126.40625 " fill-opacity="1" fill-rule="nonzero"/><path fill="#ffffff" d="M 187.5 184.171875 C 186.351562 184.171875 185.210938 184.113281 184.066406 184.003906 C 182.925781 183.890625 181.792969 183.722656 180.667969 183.5 C 179.546875 183.273438 178.433594 182.996094 177.335938 182.664062 C 176.238281 182.332031 175.160156 181.945312 174.101562 181.507812 C 173.042969 181.066406 172.007812 180.578125 170.996094 180.039062 C 169.984375 179.496094 169.003906 178.90625 168.050781 178.269531 C 167.097656 177.632812 166.175781 176.953125 165.289062 176.222656 C 164.402344 175.496094 163.554688 174.726562 162.742188 173.917969 C 161.933594 173.105469 161.164062 172.257812 160.4375 171.371094 C 159.710938 170.484375 159.027344 169.566406 158.390625 168.613281 C 157.753906 167.660156 157.164062 166.675781 156.625 165.664062 C 156.082031 164.652344 155.59375 163.617188 155.15625 162.558594 C 154.714844 161.5 154.332031 160.421875 153.996094 159.324219 C 153.664062 158.226562 153.386719 157.117188 153.164062 155.992188 C 152.9375 154.867188 152.769531 153.734375 152.660156 152.59375 C 152.546875 151.453125 152.488281 150.308594 152.488281 149.160156 C 152.488281 148.015625 152.546875 146.871094 152.660156 145.730469 C 152.769531 144.589844 152.9375 143.457031 153.164062 142.332031 C 153.386719 141.207031 153.664062 140.09375 153.996094 139 C 154.332031 137.902344 154.714844 136.824219 155.15625 135.761719 C 155.59375 134.703125 156.082031 133.667969 156.625 132.65625 C 157.164062 131.644531 157.753906 130.664062 158.390625 129.710938 C 159.027344 128.757812 159.710938 127.835938 160.4375 126.949219 C 161.164062 126.066406 161.933594 125.214844 162.742188 124.40625 C 163.554688 123.59375 164.402344 122.824219 165.289062 122.097656 C 166.175781 121.371094 167.097656 120.6875 168.050781 120.050781 C 169.003906 119.414062 169.984375 118.824219 170.996094 118.285156 C 172.007812 117.746094 173.042969 117.253906 174.101562 116.816406 C 175.160156 116.378906 176.238281 115.992188 177.335938 115.660156 C 178.433594 115.324219 179.546875 115.046875 180.667969 114.824219 C 181.792969 114.601562 182.925781 114.433594 184.066406 114.320312 C 185.210938 114.207031 186.351562 114.152344 187.5 114.152344 C 188.644531 114.152344 189.789062 114.207031 190.929688 114.320312 C 192.074219 114.433594 193.207031 114.601562 194.328125 114.824219 C 195.453125 115.046875 196.566406 115.324219 197.664062 115.660156 C 198.761719 115.992188 199.839844 116.378906 200.898438 116.816406 C 201.957031 117.253906 202.992188 117.746094 204.003906 118.285156 C 205.015625 118.824219 205.996094 119.414062 206.949219 120.050781 C 207.902344 120.6875 208.824219 121.371094 209.710938 122.097656 C 210.597656 122.824219 211.445312 123.59375 212.253906 124.40625 C 213.066406 125.214844 213.835938 126.066406 214.5625 126.949219 C 215.289062 127.835938 215.972656 128.757812 216.609375 129.710938 C 217.246094 130.664062 217.835938 131.644531 218.375 132.65625 C 218.917969 133.667969 219.40625 134.703125 219.84375 135.761719 C 220.285156 136.824219 220.667969 137.902344 221.003906 139 C 221.335938 140.09375 221.613281 141.207031 221.835938 142.332031 C 222.0625 143.457031 222.230469 144.589844 222.339844 145.730469 C 222.453125 146.871094 222.511719 148.015625 222.511719 149.160156 C 222.511719 150.023438 222.480469 150.875 222.417969 151.71875 C 222.386719 152.179688 222.265625 152.621094 222.058594 153.035156 C 221.851562 153.449219 221.570312 153.808594 221.21875 154.113281 C 220.871094 154.417969 220.472656 154.644531 220.035156 154.789062 C 219.59375 154.9375 219.140625 154.992188 218.679688 154.960938 C 218.214844 154.925781 217.777344 154.808594 217.359375 154.601562 C 216.945312 154.390625 216.585938 154.113281 216.28125 153.761719 C 215.976562 153.410156 215.75 153.015625 215.605469 152.574219 C 215.457031 152.132812 215.402344 151.683594 215.433594 151.21875 C 215.484375 150.539062 215.507812 149.863281 215.507812 149.160156 C 215.507812 148.597656 215.492188 148.035156 215.457031 147.472656 C 215.421875 146.90625 215.371094 146.347656 215.304688 145.785156 C 215.234375 145.226562 215.148438 144.671875 215.046875 144.117188 C 214.945312 143.5625 214.828125 143.007812 214.691406 142.460938 C 214.558594 141.914062 214.40625 141.371094 214.238281 140.832031 C 214.070312 140.296875 213.886719 139.761719 213.6875 139.234375 C 213.484375 138.707031 213.269531 138.1875 213.039062 137.671875 C 212.804688 137.160156 212.558594 136.652344 212.296875 136.152344 C 212.035156 135.652344 211.757812 135.164062 211.464844 134.679688 C 211.175781 134.199219 210.867188 133.726562 210.546875 133.261719 C 210.226562 132.796875 209.890625 132.34375 209.542969 131.898438 C 209.195312 131.457031 208.835938 131.023438 208.460938 130.601562 C 208.085938 130.179688 207.699219 129.769531 207.300781 129.371094 C 206.902344 128.972656 206.492188 128.585938 206.070312 128.210938 C 205.648438 127.839844 205.214844 127.476562 204.769531 127.128906 C 204.324219 126.78125 203.871094 126.449219 203.40625 126.128906 C 202.941406 125.808594 202.46875 125.503906 201.988281 125.210938 C 201.503906 124.917969 201.011719 124.644531 200.511719 124.382812 C 200.015625 124.121094 199.507812 123.875 198.992188 123.640625 C 198.476562 123.410156 197.957031 123.195312 197.429688 122.996094 C 196.902344 122.796875 196.371094 122.613281 195.832031 122.445312 C 195.292969 122.277344 194.75 122.128906 194.203125 121.992188 C 193.65625 121.859375 193.101562 121.738281 192.546875 121.640625 C 191.992188 121.539062 191.4375 121.453125 190.875 121.386719 C 190.316406 121.316406 189.753906 121.265625 189.191406 121.234375 C 188.628906 121.199219 188.066406 121.183594 187.503906 121.183594 C 186.9375 121.183594 186.375 121.203125 185.8125 121.238281 C 185.25 121.269531 184.6875 121.324219 184.128906 121.390625 C 183.570312 121.460938 183.011719 121.542969 182.457031 121.648438 C 181.902344 121.75 181.351562 121.867188 180.804688 122.003906 C 180.257812 122.136719 179.714844 122.289062 179.175781 122.457031 C 178.636719 122.625 178.105469 122.8125 177.578125 123.011719 C 177.050781 123.210938 176.53125 123.429688 176.015625 123.660156 C 175.5 123.890625 174.996094 124.140625 174.496094 124.402344 C 173.996094 124.664062 173.507812 124.941406 173.023438 125.234375 C 172.542969 125.527344 172.070312 125.832031 171.605469 126.152344 C 171.140625 126.472656 170.6875 126.808594 170.242188 127.15625 C 169.800781 127.503906 169.367188 127.867188 168.945312 128.242188 C 168.523438 128.617188 168.113281 129.003906 167.714844 129.402344 C 167.316406 129.800781 166.929688 130.210938 166.558594 130.632812 C 166.183594 131.054688 165.824219 131.488281 165.476562 131.933594 C 165.128906 132.378906 164.796875 132.832031 164.476562 133.296875 C 164.15625 133.761719 163.851562 134.234375 163.558594 134.71875 C 163.269531 135.203125 162.992188 135.691406 162.730469 136.191406 C 162.46875 136.691406 162.222656 137.199219 161.992188 137.714844 C 161.761719 138.226562 161.546875 138.75 161.347656 139.277344 C 161.148438 139.804688 160.964844 140.335938 160.796875 140.875 C 160.628906 141.414062 160.480469 141.957031 160.34375 142.503906 C 160.210938 143.054688 160.09375 143.605469 159.992188 144.160156 C 159.890625 144.714844 159.808594 145.269531 159.742188 145.832031 C 159.671875 146.390625 159.621094 146.953125 159.589844 147.515625 C 159.554688 148.078125 159.539062 148.640625 159.539062 149.207031 C 159.542969 149.769531 159.558594 150.332031 159.59375 150.894531 C 159.628906 151.457031 159.679688 152.019531 159.75 152.578125 C 159.816406 153.140625 159.902344 153.695312 160.007812 154.25 C 160.109375 154.804688 160.226562 155.355469 160.363281 155.902344 C 160.5 156.449219 160.652344 156.992188 160.820312 157.53125 C 160.988281 158.070312 161.171875 158.601562 161.375 159.128906 C 161.574219 159.65625 161.792969 160.175781 162.023438 160.691406 C 162.253906 161.203125 162.503906 161.710938 162.765625 162.210938 C 163.027344 162.707031 163.304688 163.199219 163.597656 163.679688 C 163.890625 164.164062 164.199219 164.636719 164.519531 165.101562 C 164.839844 165.5625 165.175781 166.015625 165.523438 166.460938 C 165.871094 166.902344 166.234375 167.335938 166.609375 167.757812 C 166.984375 168.179688 167.371094 168.589844 167.769531 168.988281 C 168.167969 169.386719 168.578125 169.769531 169.003906 170.144531 C 169.425781 170.515625 169.859375 170.878906 170.304688 171.222656 C 170.746094 171.570312 171.203125 171.90625 171.667969 172.222656 C 172.132812 172.542969 172.605469 172.847656 173.089844 173.140625 C 173.570312 173.429688 174.0625 173.707031 174.5625 173.96875 C 175.0625 174.230469 175.570312 174.476562 176.085938 174.707031 C 176.597656 174.9375 177.121094 175.152344 177.648438 175.351562 C 178.175781 175.550781 178.707031 175.730469 179.246094 175.898438 C 179.785156 176.066406 180.328125 176.214844 180.878906 176.351562 C 181.425781 176.484375 181.976562 176.601562 182.53125 176.703125 C 183.085938 176.800781 183.644531 176.886719 184.203125 176.953125 C 184.761719 177.019531 185.324219 177.070312 185.886719 177.101562 C 186.449219 177.136719 187.015625 177.152344 187.578125 177.152344 C 188.140625 177.148438 188.707031 177.132812 189.269531 177.097656 C 189.832031 177.0625 190.390625 177.007812 190.953125 176.941406 C 191.511719 176.871094 192.070312 176.785156 192.621094 176.683594 C 193.175781 176.578125 193.726562 176.460938 194.277344 176.324219 C 194.824219 176.1875 195.367188 176.035156 195.902344 175.867188 C 196.441406 175.699219 196.972656 175.511719 197.5 175.3125 C 198.027344 175.109375 198.546875 174.894531 199.0625 174.660156 C 199.574219 174.429688 200.082031 174.179688 200.582031 173.917969 C 201.078125 173.65625 201.570312 173.378906 202.050781 173.085938 C 202.535156 172.792969 203.007812 172.484375 203.46875 172.164062 C 203.933594 171.84375 204.386719 171.507812 204.828125 171.160156 C 205.273438 170.808594 205.703125 170.449219 206.125 170.074219 C 206.546875 169.699219 206.957031 169.3125 207.355469 168.910156 C 207.753906 168.511719 208.136719 168.101562 208.511719 167.675781 C 208.882812 167.253906 209.246094 166.820312 209.589844 166.375 C 209.9375 165.929688 210.269531 165.476562 210.589844 165.011719 C 210.910156 164.546875 211.214844 164.074219 211.503906 163.589844 C 211.796875 163.105469 212.070312 162.613281 212.332031 162.113281 C 212.542969 161.691406 212.824219 161.324219 213.179688 161.015625 C 213.535156 160.707031 213.9375 160.480469 214.386719 160.335938 C 214.835938 160.1875 215.296875 160.136719 215.765625 160.175781 C 216.234375 160.214844 216.679688 160.34375 217.097656 160.5625 C 217.515625 160.78125 217.875 161.074219 218.171875 161.4375 C 218.472656 161.800781 218.691406 162.207031 218.828125 162.660156 C 218.960938 163.113281 219.003906 163.574219 218.953125 164.042969 C 218.902344 164.511719 218.761719 164.953125 218.53125 165.363281 C 217.796875 166.777344 216.96875 168.132812 216.050781 169.429688 C 215.128906 170.730469 214.125 171.960938 213.035156 173.121094 C 211.945312 174.285156 210.785156 175.367188 209.546875 176.371094 C 208.308594 177.371094 207.011719 178.285156 205.648438 179.113281 C 204.289062 179.9375 202.875 180.664062 201.414062 181.296875 C 199.953125 181.929688 198.457031 182.460938 196.921875 182.886719 C 195.386719 183.316406 193.832031 183.636719 192.253906 183.851562 C 190.675781 184.066406 189.09375 184.171875 187.5 184.171875 Z M 187.5 184.171875 " fill-opacity="1" fill-rule="nonzero"/><g clip-path="url(#96e6e932f7)"><path fill="#ffffff" d="M 106.976562 299.703125 C 106.511719 299.703125 106.066406 299.617188 105.636719 299.4375 C 105.207031 299.261719 104.828125 299.007812 104.5 298.679688 C 104.171875 298.351562 103.921875 297.972656 103.742188 297.542969 C 103.566406 297.113281 103.476562 296.667969 103.476562 296.203125 L 103.476562 279.128906 L 96.578125 251.539062 C 96.425781 250.933594 96.433594 250.332031 96.605469 249.730469 L 103.609375 225.222656 C 103.898438 224.214844 104.519531 223.480469 105.464844 223.023438 L 133.472656 209.628906 C 133.886719 209.457031 134.316406 209.371094 134.761719 209.363281 C 135.207031 209.359375 135.640625 209.4375 136.058594 209.597656 C 136.472656 209.757812 136.847656 209.988281 137.175781 210.292969 C 137.503906 210.59375 137.765625 210.949219 137.957031 211.351562 C 138.152344 211.753906 138.261719 212.179688 138.292969 212.625 C 138.324219 213.070312 138.273438 213.503906 138.136719 213.929688 C 138 214.355469 137.792969 214.742188 137.507812 215.085938 C 137.226562 215.429688 136.886719 215.710938 136.496094 215.929688 L 109.910156 228.660156 L 103.609375 250.753906 L 110.382812 277.851562 C 110.449219 278.128906 110.480469 278.410156 110.476562 278.699219 L 110.476562 296.203125 C 110.476562 296.667969 110.390625 297.113281 110.210938 297.542969 C 110.035156 297.972656 109.78125 298.351562 109.453125 298.679688 C 109.125 299.007812 108.746094 299.261719 108.316406 299.4375 C 107.886719 299.617188 107.441406 299.703125 106.976562 299.703125 Z M 106.976562 299.703125 " fill-opacity="1" fill-rule="nonzero"/></g><g clip-path="url(#545b9c84ba)"><path fill="#ffffff" d="M 82.46875 268.195312 C 82.003906 268.195312 81.558594 268.105469 81.128906 267.929688 C 80.699219 267.75 80.324219 267.5 79.996094 267.167969 C 79.664062 266.839844 79.414062 266.460938 79.234375 266.035156 C 79.058594 265.605469 78.96875 265.160156 78.96875 264.695312 L 78.96875 226.296875 C 78.96875 225.480469 79.222656 224.753906 79.730469 224.117188 L 93.734375 206.5 C 94.152344 205.96875 94.6875 205.589844 95.328125 205.371094 L 145.898438 187.863281 C 146.335938 187.710938 146.789062 187.644531 147.253906 187.667969 C 147.722656 187.695312 148.164062 187.808594 148.585938 188.011719 C 149.003906 188.214844 149.371094 188.488281 149.679688 188.835938 C 149.988281 189.183594 150.222656 189.578125 150.375 190.019531 C 150.527344 190.460938 150.585938 190.914062 150.558594 191.378906 C 150.53125 191.84375 150.414062 192.289062 150.207031 192.707031 C 150.003906 193.125 149.726562 193.488281 149.375 193.796875 C 149.023438 194.105469 148.628906 194.332031 148.1875 194.480469 L 98.574219 211.652344 L 85.972656 227.515625 L 85.972656 264.695312 C 85.972656 265.160156 85.882812 265.605469 85.703125 266.035156 C 85.527344 266.460938 85.273438 266.839844 84.945312 267.167969 C 84.617188 267.5 84.238281 267.75 83.808594 267.929688 C 83.378906 268.105469 82.933594 268.195312 82.46875 268.195312 Z M 82.46875 268.195312 " fill-opacity="1" fill-rule="nonzero"/></g><path fill="#ffffff" d="M 150.457031 194.675781 L 124.441406 194.675781 C 123.59375 194.675781 122.847656 194.402344 122.199219 193.863281 L 101.230469 176.355469 C 100.832031 176.023438 100.523438 175.621094 100.304688 175.152344 C 100.085938 174.683594 99.972656 174.1875 99.976562 173.667969 L 99.976562 93.144531 C 99.976562 92.679688 100.0625 92.234375 100.242188 91.804688 C 100.417969 91.375 100.671875 90.996094 101 90.667969 C 101.328125 90.339844 101.707031 90.089844 102.136719 89.910156 C 102.566406 89.734375 103.011719 89.644531 103.476562 89.644531 C 103.941406 89.644531 104.386719 89.734375 104.816406 89.910156 C 105.246094 90.089844 105.625 90.339844 105.953125 90.667969 C 106.28125 90.996094 106.53125 91.375 106.710938 91.804688 C 106.886719 92.234375 106.976562 92.679688 106.976562 93.144531 L 106.976562 172.03125 L 125.710938 187.671875 L 150.457031 187.671875 C 150.921875 187.671875 151.367188 187.761719 151.796875 187.9375 C 152.222656 188.117188 152.601562 188.371094 152.929688 188.699219 C 153.257812 189.027344 153.511719 189.40625 153.691406 189.832031 C 153.867188 190.261719 153.957031 190.707031 153.957031 191.171875 C 153.957031 191.636719 153.867188 192.085938 153.691406 192.511719 C 153.511719 192.941406 153.257812 193.320312 152.929688 193.648438 C 152.601562 193.976562 152.222656 194.230469 151.796875 194.40625 C 151.367188 194.585938 150.921875 194.675781 150.457031 194.675781 Z M 150.457031 194.675781 " fill-opacity="1" fill-rule="nonzero"/><g clip-path="url(#7c7bec5d81)"><path fill="#ffffff" d="M 166.492188 184.171875 L 138.316406 184.171875 C 137.351562 184.171875 136.527344 183.828125 135.84375 183.144531 L 118.425781 165.722656 C 117.742188 165.039062 117.398438 164.210938 117.398438 163.246094 L 117.398438 96.644531 C 117.398438 95.824219 117.65625 95.09375 118.167969 94.449219 L 132.257812 76.945312 C 132.550781 76.585938 132.898438 76.296875 133.304688 76.078125 C 133.710938 75.855469 134.144531 75.722656 134.605469 75.675781 C 135.066406 75.625 135.519531 75.667969 135.960938 75.796875 C 136.40625 75.929688 136.808594 76.140625 137.167969 76.429688 C 137.527344 76.71875 137.820312 77.066406 138.042969 77.472656 C 138.265625 77.878906 138.402344 78.308594 138.453125 78.769531 C 138.503906 79.230469 138.464844 79.683594 138.335938 80.125 C 138.207031 80.570312 138 80.972656 137.710938 81.335938 L 124.410156 97.882812 L 124.410156 161.796875 L 139.765625 177.167969 L 166.492188 177.167969 C 166.957031 177.167969 167.40625 177.257812 167.832031 177.4375 C 168.261719 177.613281 168.640625 177.867188 168.96875 178.195312 C 169.296875 178.523438 169.550781 178.902344 169.726562 179.332031 C 169.90625 179.757812 169.996094 180.207031 169.996094 180.671875 C 169.996094 181.132812 169.90625 181.582031 169.726562 182.011719 C 169.550781 182.4375 169.296875 182.816406 168.96875 183.144531 C 168.640625 183.472656 168.261719 183.726562 167.832031 183.90625 C 167.40625 184.082031 166.957031 184.171875 166.492188 184.171875 Z M 166.492188 184.171875 " fill-opacity="1" fill-rule="nonzero"/></g><g clip-path="url(#02bb46159d)"><path fill="#ffffff" d="M 268.023438 299.703125 C 267.558594 299.703125 267.113281 299.617188 266.683594 299.4375 C 266.253906 299.261719 265.875 299.007812 265.546875 298.679688 C 265.21875 298.351562 264.964844 297.972656 264.789062 297.542969 C 264.609375 297.113281 264.523438 296.667969 264.523438 296.203125 L 264.523438 278.699219 C 264.523438 278.410156 264.554688 278.128906 264.625 277.851562 L 271.402344 250.753906 L 265.097656 228.660156 L 238.511719 215.945312 C 238.121094 215.730469 237.785156 215.449219 237.5 215.105469 C 237.21875 214.757812 237.007812 214.371094 236.875 213.949219 C 236.738281 213.523438 236.683594 213.085938 236.714844 212.640625 C 236.746094 212.195312 236.859375 211.769531 237.050781 211.367188 C 237.246094 210.964844 237.507812 210.613281 237.835938 210.308594 C 238.164062 210.007812 238.535156 209.777344 238.953125 209.617188 C 239.371094 209.457031 239.800781 209.378906 240.246094 209.382812 C 240.695312 209.386719 241.125 209.476562 241.539062 209.644531 L 269.546875 223.042969 C 270.492188 223.5 271.109375 224.230469 271.402344 225.242188 L 278.402344 249.75 C 278.574219 250.347656 278.585938 250.949219 278.429688 251.554688 L 271.523438 279.128906 L 271.523438 296.203125 C 271.523438 296.667969 271.433594 297.113281 271.257812 297.542969 C 271.078125 297.972656 270.828125 298.351562 270.5 298.679688 C 270.171875 299.007812 269.792969 299.261719 269.363281 299.4375 C 268.933594 299.617188 268.488281 299.703125 268.023438 299.703125 Z M 268.023438 299.703125 " fill-opacity="1" fill-rule="nonzero"/></g><g clip-path="url(#cb7c1e68b4)"><path fill="#ffffff" d="M 292.53125 268.195312 C 292.066406 268.195312 291.617188 268.105469 291.191406 267.929688 C 290.761719 267.75 290.382812 267.5 290.054688 267.167969 C 289.726562 266.839844 289.472656 266.460938 289.296875 266.035156 C 289.117188 265.605469 289.027344 265.160156 289.027344 264.695312 L 289.027344 227.515625 L 276.425781 211.652344 L 226.8125 194.480469 C 226.371094 194.332031 225.976562 194.105469 225.625 193.796875 C 225.273438 193.488281 224.996094 193.125 224.789062 192.707031 C 224.585938 192.289062 224.46875 191.84375 224.441406 191.378906 C 224.410156 190.914062 224.472656 190.460938 224.625 190.019531 C 224.777344 189.578125 225.011719 189.183594 225.320312 188.835938 C 225.628906 188.488281 225.996094 188.214844 226.414062 188.011719 C 226.835938 187.808594 227.277344 187.695312 227.746094 187.667969 C 228.210938 187.644531 228.664062 187.710938 229.101562 187.863281 L 279.671875 205.371094 C 280.3125 205.589844 280.84375 205.96875 281.265625 206.5 L 295.269531 224.117188 C 295.777344 224.753906 296.03125 225.480469 296.03125 226.296875 L 296.03125 264.695312 C 296.03125 265.160156 295.941406 265.605469 295.765625 266.035156 C 295.585938 266.460938 295.332031 266.839844 295.003906 267.167969 C 294.675781 267.5 294.296875 267.75 293.871094 267.929688 C 293.441406 268.105469 292.992188 268.195312 292.53125 268.195312 Z M 292.53125 268.195312 " fill-opacity="1" fill-rule="nonzero"/></g><path fill="#ffffff" d="M 250.558594 194.675781 L 227.957031 194.675781 C 227.492188 194.675781 227.046875 194.585938 226.617188 194.40625 C 226.1875 194.230469 225.808594 193.976562 225.480469 193.648438 C 225.152344 193.320312 224.902344 192.941406 224.722656 192.511719 C 224.546875 192.085938 224.457031 191.636719 224.457031 191.171875 C 224.457031 190.707031 224.546875 190.261719 224.722656 189.832031 C 224.902344 189.40625 225.152344 189.027344 225.480469 188.699219 C 225.808594 188.371094 226.1875 188.117188 226.617188 187.9375 C 227.046875 187.761719 227.492188 187.671875 227.957031 187.671875 L 249.289062 187.671875 L 268.023438 172.03125 L 268.023438 93.144531 C 268.023438 92.679688 268.113281 92.234375 268.289062 91.804688 C 268.46875 91.375 268.71875 90.996094 269.046875 90.667969 C 269.375 90.339844 269.753906 90.089844 270.183594 89.910156 C 270.613281 89.734375 271.058594 89.644531 271.523438 89.644531 C 271.988281 89.644531 272.433594 89.734375 272.863281 89.910156 C 273.292969 90.089844 273.671875 90.339844 274 90.667969 C 274.328125 90.996094 274.582031 91.375 274.757812 91.804688 C 274.9375 92.234375 275.023438 92.679688 275.023438 93.144531 L 275.023438 173.667969 C 275.023438 174.1875 274.914062 174.683594 274.695312 175.152344 C 274.476562 175.621094 274.167969 176.023438 273.769531 176.355469 L 252.800781 193.863281 C 252.152344 194.402344 251.40625 194.675781 250.558594 194.675781 Z M 250.558594 194.675781 " fill-opacity="1" fill-rule="nonzero"/><g clip-path="url(#28c701b5e9)"><path fill="#ffffff" d="M 236.683594 184.171875 L 208.503906 184.171875 C 208.042969 184.171875 207.59375 184.082031 207.164062 183.90625 C 206.738281 183.726562 206.359375 183.472656 206.03125 183.144531 C 205.703125 182.816406 205.449219 182.4375 205.269531 182.011719 C 205.09375 181.582031 205.003906 181.132812 205.003906 180.671875 C 205.003906 180.207031 205.09375 179.757812 205.269531 179.332031 C 205.449219 178.902344 205.703125 178.523438 206.03125 178.195312 C 206.359375 177.867188 206.738281 177.613281 207.164062 177.4375 C 207.59375 177.257812 208.042969 177.167969 208.503906 177.167969 L 235.230469 177.167969 L 250.597656 161.796875 L 250.597656 97.882812 L 237.292969 81.335938 C 236.980469 80.976562 236.75 80.570312 236.601562 80.117188 C 236.453125 79.667969 236.402344 79.203125 236.441406 78.726562 C 236.484375 78.253906 236.617188 77.804688 236.839844 77.386719 C 237.066406 76.964844 237.363281 76.605469 237.734375 76.308594 C 238.105469 76.007812 238.519531 75.792969 238.976562 75.664062 C 239.4375 75.535156 239.902344 75.5 240.375 75.558594 C 240.847656 75.621094 241.289062 75.769531 241.699219 76.011719 C 242.109375 76.253906 242.457031 76.5625 242.742188 76.945312 L 256.832031 94.449219 C 257.34375 95.09375 257.601562 95.824219 257.601562 96.644531 L 257.601562 163.246094 C 257.601562 164.210938 257.257812 165.039062 256.574219 165.722656 L 239.15625 183.144531 C 238.472656 183.828125 237.648438 184.171875 236.683594 184.171875 Z M 236.683594 184.171875 " fill-opacity="1" fill-rule="nonzero"/></g><path fill="#ffffff" d="M 187.5 292.703125 C 185.082031 292.703125 182.675781 292.554688 180.277344 292.261719 C 177.875 291.96875 175.503906 291.53125 173.15625 290.949219 C 170.8125 290.367188 168.511719 289.644531 166.253906 288.785156 C 163.996094 287.921875 161.796875 286.925781 159.660156 285.792969 C 157.523438 284.664062 155.464844 283.410156 153.480469 282.027344 C 151.496094 280.648438 149.605469 279.148438 147.804688 277.539062 C 146.003906 275.925781 144.304688 274.210938 142.714844 272.394531 C 141.121094 270.574219 139.644531 268.667969 138.285156 266.667969 C 138.027344 266.285156 137.847656 265.863281 137.753906 265.410156 C 137.660156 264.953125 137.65625 264.5 137.746094 264.042969 C 137.832031 263.585938 138.003906 263.164062 138.257812 262.773438 C 138.511719 262.386719 138.832031 262.0625 139.21875 261.800781 C 139.601562 261.539062 140.023438 261.359375 140.476562 261.265625 C 140.933594 261.171875 141.386719 261.167969 141.84375 261.253906 C 142.300781 261.34375 142.722656 261.511719 143.113281 261.769531 C 143.5 262.023438 143.824219 262.34375 144.085938 262.726562 C 144.6875 263.609375 145.316406 264.472656 145.96875 265.316406 C 146.625 266.160156 147.300781 266.984375 148.007812 267.789062 C 148.710938 268.589844 149.4375 269.371094 150.1875 270.128906 C 150.941406 270.890625 151.714844 271.625 152.511719 272.335938 C 153.308594 273.046875 154.125 273.734375 154.964844 274.394531 C 155.800781 275.058594 156.660156 275.691406 157.535156 276.300781 C 158.414062 276.910156 159.308594 277.492188 160.222656 278.046875 C 161.132812 278.601562 162.0625 279.128906 163.007812 279.625 C 163.953125 280.125 164.910156 280.59375 165.882812 281.03125 C 166.855469 281.472656 167.84375 281.882812 168.839844 282.261719 C 169.839844 282.640625 170.847656 282.988281 171.867188 283.304688 C 172.886719 283.625 173.914062 283.910156 174.953125 284.164062 C 175.988281 284.421875 177.03125 284.644531 178.082031 284.835938 C 179.132812 285.027344 180.191406 285.183594 181.25 285.3125 C 182.308594 285.4375 183.375 285.535156 184.441406 285.597656 C 185.503906 285.65625 186.574219 285.6875 187.640625 285.683594 C 188.707031 285.683594 189.773438 285.644531 190.839844 285.578125 C 191.90625 285.511719 192.96875 285.410156 194.027344 285.277344 C 195.089844 285.144531 196.144531 284.980469 197.191406 284.78125 C 198.242188 284.585938 199.285156 284.355469 200.320312 284.09375 C 201.355469 283.835938 202.382812 283.542969 203.398438 283.21875 C 204.417969 282.894531 205.425781 282.542969 206.421875 282.15625 C 207.417969 281.769531 208.398438 281.355469 209.371094 280.910156 C 210.34375 280.46875 211.296875 279.992188 212.238281 279.488281 C 213.183594 278.988281 214.109375 278.457031 215.015625 277.894531 C 215.925781 277.335938 216.816406 276.75 217.691406 276.136719 C 218.566406 275.519531 219.417969 274.878906 220.253906 274.214844 C 221.089844 273.546875 221.902344 272.859375 222.695312 272.140625 C 223.488281 271.425781 224.257812 270.6875 225.003906 269.925781 C 225.753906 269.160156 226.476562 268.375 227.175781 267.570312 C 227.875 266.761719 228.550781 265.933594 229.199219 265.085938 C 229.847656 264.238281 230.46875 263.371094 231.066406 262.484375 C 231.660156 261.601562 232.230469 260.695312 232.769531 259.777344 C 233.3125 258.855469 233.824219 257.917969 234.308594 256.96875 C 234.792969 256.015625 235.246094 255.050781 235.671875 254.070312 C 236.097656 253.089844 236.492188 252.097656 236.855469 251.09375 C 237.222656 250.089844 237.554688 249.078125 237.855469 248.054688 C 238.160156 247.027344 238.429688 245.996094 238.671875 244.957031 C 238.910156 243.914062 239.117188 242.867188 239.292969 241.816406 C 239.46875 240.761719 239.613281 239.703125 239.722656 238.640625 C 239.835938 237.578125 239.914062 236.515625 239.960938 235.449219 C 240.007812 234.382812 240.019531 233.3125 240.003906 232.246094 C 239.984375 231.179688 239.933594 230.113281 239.847656 229.046875 C 239.765625 227.984375 239.648438 226.921875 239.5 225.863281 C 239.351562 224.808594 239.171875 223.753906 238.957031 222.707031 C 238.746094 221.664062 238.5 220.625 238.222656 219.59375 C 237.949219 218.558594 237.640625 217.539062 237.300781 216.523438 C 236.964844 215.511719 236.59375 214.511719 236.195312 213.519531 C 235.796875 212.53125 235.367188 211.554688 234.90625 210.589844 C 234.449219 209.625 233.960938 208.675781 233.441406 207.742188 C 232.925781 206.808594 232.378906 205.890625 231.808594 204.988281 C 231.234375 204.085938 230.632812 203.203125 230.007812 202.339844 C 229.378906 201.476562 228.726562 200.628906 228.050781 199.804688 C 227.371094 198.980469 226.667969 198.179688 225.941406 197.394531 C 225.214844 196.613281 224.460938 195.855469 223.6875 195.121094 C 222.914062 194.382812 222.121094 193.671875 221.300781 192.984375 C 220.484375 192.296875 219.648438 191.636719 218.789062 191 C 217.933594 190.363281 217.058594 189.753906 216.164062 189.167969 C 215.265625 188.585938 214.355469 188.03125 213.425781 187.503906 C 212.5 186.976562 211.554688 186.476562 210.59375 186.007812 C 209.636719 185.539062 208.664062 185.097656 207.679688 184.6875 C 206.691406 184.277344 205.695312 183.898438 204.6875 183.546875 C 203.675781 183.199219 202.660156 182.878906 201.628906 182.59375 C 200.601562 182.304688 199.566406 182.050781 198.519531 181.824219 C 198.078125 181.71875 197.671875 181.53125 197.300781 181.265625 C 196.933594 180.996094 196.628906 180.671875 196.386719 180.285156 C 196.144531 179.898438 195.980469 179.480469 195.902344 179.035156 C 195.824219 178.585938 195.832031 178.136719 195.925781 177.691406 C 196.023438 177.246094 196.199219 176.835938 196.453125 176.457031 C 196.710938 176.082031 197.027344 175.765625 197.40625 175.511719 C 197.785156 175.261719 198.195312 175.085938 198.644531 174.996094 C 199.089844 174.902344 199.535156 174.898438 199.984375 174.980469 C 201.761719 175.359375 203.519531 175.820312 205.257812 176.363281 C 206.996094 176.902344 208.703125 177.523438 210.382812 178.222656 C 212.0625 178.917969 213.707031 179.691406 215.316406 180.539062 C 216.925781 181.390625 218.492188 182.308594 220.015625 183.300781 C 221.542969 184.292969 223.015625 185.355469 224.445312 186.480469 C 225.871094 187.609375 227.246094 188.800781 228.5625 190.054688 C 229.882812 191.304688 231.140625 192.617188 232.335938 193.984375 C 233.535156 195.355469 234.667969 196.777344 235.738281 198.25 C 236.804688 199.722656 237.800781 201.238281 238.730469 202.804688 C 239.660156 204.367188 240.515625 205.972656 241.296875 207.613281 C 242.078125 209.257812 242.78125 210.929688 243.410156 212.636719 C 244.039062 214.347656 244.585938 216.078125 245.054688 217.835938 C 245.523438 219.59375 245.914062 221.367188 246.21875 223.160156 C 246.527344 224.953125 246.75 226.757812 246.890625 228.570312 C 247.03125 230.386719 247.089844 232.203125 247.0625 234.019531 C 247.039062 235.839844 246.929688 237.652344 246.738281 239.460938 C 246.546875 241.269531 246.273438 243.066406 245.914062 244.851562 C 245.558594 246.632812 245.121094 248.398438 244.601562 250.140625 C 244.085938 251.886719 243.488281 253.601562 242.8125 255.289062 C 242.136719 256.980469 241.386719 258.632812 240.558594 260.253906 C 239.730469 261.875 238.832031 263.453125 237.859375 264.992188 C 236.886719 266.527344 235.847656 268.019531 234.738281 269.460938 C 233.628906 270.902344 232.457031 272.289062 231.21875 273.625 C 229.984375 274.960938 228.691406 276.234375 227.335938 277.453125 C 225.984375 278.667969 224.578125 279.820312 223.121094 280.90625 C 221.660156 281.992188 220.15625 283.011719 218.605469 283.960938 C 217.050781 284.910156 215.460938 285.785156 213.828125 286.589844 C 212.195312 287.390625 210.53125 288.117188 208.832031 288.769531 C 207.132812 289.417969 205.40625 289.988281 203.65625 290.480469 C 201.90625 290.972656 200.136719 291.386719 198.347656 291.714844 C 196.558594 292.046875 194.757812 292.292969 192.945312 292.457031 C 191.132812 292.621094 189.320312 292.703125 187.5 292.703125 Z M 187.5 292.703125 " fill-opacity="1" fill-rule="nonzero"/><path fill="#ffffff" d="M 134.339844 254.402344 C 133.972656 254.402344 133.613281 254.34375 133.265625 254.230469 C 132.914062 254.117188 132.589844 253.953125 132.292969 253.738281 C 131.992188 253.523438 131.734375 253.269531 131.519531 252.972656 C 131.300781 252.675781 131.132812 252.351562 131.019531 252.003906 C 130.691406 251.015625 130.386719 250.015625 130.109375 249.011719 C 129.835938 248.007812 129.585938 246.996094 129.363281 245.976562 C 129.140625 244.957031 128.945312 243.933594 128.773438 242.90625 C 128.605469 241.875 128.460938 240.84375 128.347656 239.808594 C 128.230469 238.773438 128.144531 237.734375 128.082031 236.691406 C 128.023438 235.652344 127.988281 234.609375 127.984375 233.570312 C 127.976562 232.527344 128 231.484375 128.046875 230.441406 C 128.097656 229.402344 128.171875 228.363281 128.277344 227.324219 C 128.378906 226.289062 128.511719 225.253906 128.667969 224.222656 C 128.824219 223.191406 129.011719 222.167969 129.222656 221.144531 C 129.433594 220.125 129.671875 219.109375 129.933594 218.101562 C 130.199219 217.09375 130.492188 216.09375 130.808594 215.101562 C 131.125 214.105469 131.46875 213.125 131.835938 212.148438 C 132.207031 211.171875 132.601562 210.207031 133.019531 209.253906 C 133.4375 208.300781 133.882812 207.355469 134.351562 206.425781 C 134.820312 205.496094 135.3125 204.578125 135.832031 203.671875 C 136.347656 202.765625 136.890625 201.875 137.453125 201 C 138.015625 200.121094 138.601562 199.261719 139.210938 198.414062 C 139.820312 197.570312 140.453125 196.738281 141.105469 195.925781 C 141.757812 195.113281 142.429688 194.316406 143.125 193.539062 C 143.820312 192.761719 144.535156 192.003906 145.269531 191.265625 C 146.003906 190.523438 146.753906 189.804688 147.527344 189.101562 C 148.300781 188.402344 149.089844 187.722656 149.898438 187.0625 C 150.703125 186.40625 151.53125 185.765625 152.371094 185.152344 C 153.210938 184.535156 154.070312 183.941406 154.941406 183.371094 C 155.8125 182.800781 156.699219 182.253906 157.601562 181.730469 C 158.5 181.203125 159.414062 180.703125 160.34375 180.226562 C 161.269531 179.753906 162.210938 179.300781 163.160156 178.875 C 164.113281 178.445312 165.074219 178.042969 166.046875 177.667969 C 167.015625 177.292969 168 176.941406 168.988281 176.617188 C 169.980469 176.289062 170.976562 175.992188 171.984375 175.71875 C 172.992188 175.445312 174.003906 175.199219 175.023438 174.980469 C 175.46875 174.898438 175.917969 174.902344 176.363281 174.996094 C 176.808594 175.085938 177.222656 175.261719 177.601562 175.511719 C 177.980469 175.765625 178.296875 176.082031 178.554688 176.457031 C 178.808594 176.835938 178.984375 177.246094 179.078125 177.691406 C 179.175781 178.136719 179.183594 178.585938 179.105469 179.035156 C 179.023438 179.480469 178.863281 179.898438 178.621094 180.285156 C 178.378906 180.671875 178.074219 180.996094 177.703125 181.265625 C 177.335938 181.53125 176.929688 181.71875 176.484375 181.824219 C 175.585938 182.019531 174.691406 182.238281 173.804688 182.476562 C 172.917969 182.71875 172.035156 182.980469 171.164062 183.269531 C 170.289062 183.554688 169.421875 183.863281 168.566406 184.195312 C 167.707031 184.53125 166.859375 184.882812 166.019531 185.261719 C 165.179688 185.636719 164.351562 186.035156 163.53125 186.457031 C 162.714844 186.875 161.910156 187.320312 161.113281 187.78125 C 160.316406 188.242188 159.535156 188.726562 158.765625 189.230469 C 157.996094 189.734375 157.242188 190.257812 156.5 190.800781 C 155.757812 191.34375 155.027344 191.90625 154.316406 192.488281 C 153.601562 193.070312 152.90625 193.671875 152.226562 194.289062 C 151.542969 194.90625 150.878906 195.542969 150.230469 196.195312 C 149.582031 196.847656 148.953125 197.519531 148.339844 198.203125 C 147.726562 198.890625 147.132812 199.59375 146.558594 200.308594 C 145.984375 201.027344 145.425781 201.757812 144.886719 202.507812 C 144.351562 203.253906 143.832031 204.011719 143.335938 204.785156 C 142.839844 205.558594 142.363281 206.347656 141.90625 207.144531 C 141.449219 207.945312 141.015625 208.753906 140.601562 209.574219 C 140.1875 210.398438 139.796875 211.230469 139.425781 212.070312 C 139.054688 212.914062 138.707031 213.765625 138.382812 214.625 C 138.058594 215.484375 137.753906 216.355469 137.476562 217.230469 C 137.195312 218.105469 136.9375 218.988281 136.703125 219.878906 C 136.472656 220.769531 136.261719 221.664062 136.074219 222.566406 C 135.890625 223.464844 135.726562 224.371094 135.585938 225.28125 C 135.449219 226.191406 135.332031 227.101562 135.242188 228.019531 C 135.152344 228.933594 135.085938 229.851562 135.042969 230.769531 C 135 231.6875 134.980469 232.609375 134.984375 233.527344 C 134.992188 234.449219 135.019531 235.367188 135.074219 236.285156 C 135.128906 237.203125 135.207031 238.121094 135.308594 239.035156 C 135.410156 239.949219 135.535156 240.859375 135.683594 241.765625 C 135.835938 242.675781 136.007812 243.578125 136.203125 244.476562 C 136.402344 245.375 136.621094 246.265625 136.867188 247.152344 C 137.109375 248.042969 137.375 248.921875 137.667969 249.792969 C 137.8125 250.234375 137.871094 250.6875 137.835938 251.148438 C 137.804688 251.613281 137.683594 252.054688 137.476562 252.46875 C 137.265625 252.882812 136.988281 253.242188 136.636719 253.546875 C 136.285156 253.851562 135.886719 254.078125 135.445312 254.222656 C 135.085938 254.339844 134.71875 254.398438 134.339844 254.402344 Z M 134.339844 254.402344 " fill-opacity="1" fill-rule="nonzero"/><path fill="#ffffff" d="M 205.078125 274.847656 C 204.679688 274.847656 204.292969 274.78125 203.917969 274.648438 C 203.539062 274.515625 203.195312 274.324219 202.886719 274.074219 C 202.574219 273.824219 202.316406 273.53125 202.105469 273.191406 C 201.894531 272.855469 201.746094 272.488281 201.660156 272.101562 C 201.574219 271.710938 201.554688 271.320312 201.601562 270.921875 C 201.652344 270.527344 201.765625 270.152344 201.941406 269.792969 C 202.117188 269.4375 202.347656 269.117188 202.632812 268.839844 C 202.917969 268.5625 203.242188 268.339844 203.605469 268.171875 C 205.136719 267.460938 206.617188 266.65625 208.042969 265.753906 C 209.46875 264.851562 210.832031 263.859375 212.128906 262.777344 C 213.425781 261.695312 214.644531 260.535156 215.789062 259.292969 C 216.933594 258.050781 217.992188 256.742188 218.964844 255.359375 C 219.9375 253.980469 220.816406 252.542969 221.601562 251.046875 C 222.386719 249.550781 223.070312 248.011719 223.652344 246.425781 C 224.234375 244.839844 224.710938 243.226562 225.078125 241.578125 C 225.449219 239.929688 225.710938 238.265625 225.863281 236.585938 C 225.894531 236.117188 226.015625 235.671875 226.226562 235.25 C 226.4375 234.828125 226.722656 234.464844 227.078125 234.160156 C 227.4375 233.855469 227.839844 233.628906 228.285156 233.484375 C 228.734375 233.339844 229.191406 233.289062 229.660156 233.332031 C 230.128906 233.371094 230.574219 233.5 230.988281 233.722656 C 231.40625 233.941406 231.761719 234.230469 232.0625 234.59375 C 232.359375 234.957031 232.578125 235.367188 232.710938 235.816406 C 232.847656 236.265625 232.886719 236.726562 232.835938 237.195312 C 232.660156 239.179688 232.351562 241.148438 231.914062 243.09375 C 231.476562 245.042969 230.914062 246.953125 230.226562 248.824219 C 229.539062 250.699219 228.734375 252.519531 227.808594 254.285156 C 226.882812 256.054688 225.84375 257.753906 224.695312 259.386719 C 223.546875 261.015625 222.292969 262.566406 220.941406 264.03125 C 219.589844 265.5 218.148438 266.871094 216.617188 268.152344 C 215.082031 269.429688 213.472656 270.601562 211.789062 271.667969 C 210.101562 272.734375 208.351562 273.6875 206.542969 274.523438 C 206.078125 274.742188 205.589844 274.847656 205.078125 274.847656 Z M 205.078125 274.847656 " fill-opacity="1" fill-rule="nonzero"/><path fill="#ffffff" d="M 229.355469 240.386719 C 229.25 240.390625 229.148438 240.390625 229.046875 240.386719 C 228.582031 240.347656 228.148438 240.21875 227.734375 240.003906 C 227.324219 239.789062 226.96875 239.503906 226.667969 239.148438 C 226.371094 238.792969 226.152344 238.394531 226.011719 237.953125 C 225.875 237.511719 225.824219 237.058594 225.863281 236.59375 C 225.957031 235.476562 226.011719 234.339844 226.011719 233.199219 C 226.011719 232.734375 226.101562 232.289062 226.277344 231.859375 C 226.453125 231.429688 226.707031 231.050781 227.035156 230.722656 C 227.363281 230.394531 227.742188 230.140625 228.171875 229.964844 C 228.601562 229.785156 229.046875 229.699219 229.511719 229.699219 C 229.976562 229.699219 230.421875 229.785156 230.851562 229.964844 C 231.28125 230.140625 231.660156 230.394531 231.988281 230.722656 C 232.316406 231.050781 232.570312 231.429688 232.746094 231.859375 C 232.925781 232.289062 233.011719 232.734375 233.011719 233.199219 C 233.011719 234.546875 232.953125 235.882812 232.835938 237.203125 C 232.796875 237.640625 232.679688 238.050781 232.488281 238.441406 C 232.292969 238.832031 232.035156 239.175781 231.710938 239.46875 C 231.390625 239.765625 231.027344 239.992188 230.617188 240.148438 C 230.210938 240.308594 229.789062 240.386719 229.355469 240.386719 Z M 229.355469 240.386719 " fill-opacity="1" fill-rule="nonzero"/><path fill="#ffffff" d="M 229.511719 226.183594 C 229.046875 226.1875 228.597656 226.101562 228.167969 225.925781 C 227.734375 225.75 227.355469 225.496094 227.027344 225.167969 C 226.695312 224.839844 226.445312 224.457031 226.269531 224.027344 C 226.089844 223.597656 226.007812 223.148438 226.011719 222.683594 C 226.003906 222.222656 226.085938 221.78125 226.253906 221.351562 C 226.449219 220.925781 226.707031 220.542969 227.027344 220.195312 C 227.441406 219.785156 227.925781 219.5 228.484375 219.332031 C 229.042969 219.164062 229.605469 219.136719 230.175781 219.25 C 230.410156 219.285156 230.632812 219.355469 230.84375 219.460938 C 231.0625 219.53125 231.261719 219.636719 231.441406 219.777344 C 231.640625 219.898438 231.828125 220.039062 232 220.195312 C 232.320312 220.535156 232.566406 220.917969 232.734375 221.351562 C 232.851562 221.617188 232.929688 221.890625 232.972656 222.175781 C 233.019531 222.460938 233.027344 222.746094 233.003906 223.035156 C 232.976562 223.320312 232.914062 223.601562 232.816406 223.875 C 232.722656 224.144531 232.59375 224.402344 232.433594 224.640625 C 232.273438 224.882812 232.085938 225.097656 231.871094 225.292969 C 231.65625 225.484375 231.421875 225.648438 231.167969 225.78125 C 230.914062 225.917969 230.644531 226.019531 230.363281 226.085938 C 230.085938 226.152344 229.800781 226.1875 229.511719 226.183594 Z M 229.511719 226.183594 " fill-opacity="1" fill-rule="nonzero"/></svg>