<?xml version="1.0" encoding="UTF-8" standalone="no"?>
<!-- Created with Inkscape (http://www.inkscape.org/) -->

<svg
   version="1.1"
   id="svg18"
   width="50.666656"
   height="50.666687"
   viewBox="0 0 50.666656 50.666687"
   sodipodi:docname="iStock-1045495746.eps"
   xmlns:inkscape="http://www.inkscape.org/namespaces/inkscape"
   xmlns:sodipodi="http://sodipodi.sourceforge.net/DTD/sodipodi-0.dtd"
   xmlns="http://www.w3.org/2000/svg"
   xmlns:svg="http://www.w3.org/2000/svg">
  <defs
     id="defs22" />
  <sodipodi:namedview
     id="namedview20"
     pagecolor="#ffffff"
     bordercolor="#000000"
     borderopacity="0.25"
     inkscape:showpageshadow="2"
     inkscape:pageopacity="0.0"
     inkscape:pagecheckerboard="0"
     inkscape:deskcolor="#d1d1d1"
     showgrid="false" />
  <g
     id="g26"
     inkscape:groupmode="layer"
     inkscape:label="Page 1"
     transform="matrix(1.3333333,0,0,-1.3333333,-345.02399,206.66667)">
    <g
       id="g28"
       transform="scale(0.1)">
      <path
         d="m 2777.68,1330 v 0 c -11.05,0 -20,8.95 -20,20 v 100 c 0,11.05 8.95,20 20,20 v 0 c 11.04,0 20,-8.95 20,-20 v -100 c 0,-11.05 -8.96,-20 -20,-20 z"
         style="fill:none;stroke:#313030;stroke-width:20;stroke-linecap:butt;stroke-linejoin:miter;stroke-miterlimit:10;stroke-dasharray:none;stroke-opacity:1"
         id="path290" />
      <path
         d="m 2777.68,1250 v 0 c -11.05,0 -20,8.95 -20,20 v 0 c 0,11.05 8.95,20 20,20 v 0 c 11.04,0 20,-8.95 20,-20 v 0 c 0,-11.05 -8.96,-20 -20,-20 z"
         style="fill:none;stroke:#313030;stroke-width:20;stroke-linecap:butt;stroke-linejoin:miter;stroke-miterlimit:10;stroke-dasharray:none;stroke-opacity:1"
         id="path292" />
      <path
         d="m 2957.68,1360 c 0,-99.41 -80.59,-180 -180,-180 -99.41,0 -180,80.59 -180,180 0,99.41 80.59,180 180,180 99.41,0 180,-80.59 180,-180 z"
         style="fill:none;stroke:#313030;stroke-width:20;stroke-linecap:butt;stroke-linejoin:miter;stroke-miterlimit:10;stroke-dasharray:none;stroke-opacity:1"
         id="path294" />
    </g>
  </g>
</svg>
