<?xml version="1.0" encoding="UTF-8" standalone="no"?>
<!-- Created with Inkscape (http://www.inkscape.org/) -->

<svg
   version="1.1"
   id="svg5682"
   width="356.20151"
   height="326.82849"
   viewBox="0 0 356.20151 326.82849"
   sodipodi:docname="vulnerable_fire.svg"
   xmlns:inkscape="http://www.inkscape.org/namespaces/inkscape"
   xmlns:sodipodi="http://sodipodi.sourceforge.net/DTD/sodipodi-0.dtd"
   xmlns="http://www.w3.org/2000/svg"
   xmlns:svg="http://www.w3.org/2000/svg">
  <defs
     id="defs5686" />
  <sodipodi:namedview
     id="namedview5684"
     pagecolor="#ffffff"
     bordercolor="#000000"
     borderopacity="0.25"
     inkscape:showpageshadow="2"
     inkscape:pageopacity="0.0"
     inkscape:pagecheckerboard="0"
     inkscape:deskcolor="#d1d1d1"
     showgrid="false" />
  <g
     id="g5690"
     inkscape:groupmode="layer"
     inkscape:label="Page 1"
     transform="matrix(1.3333333,0,0,-1.3333333,-339.07277,654.14974)">
    <path
       style="display:inline;fill:#ffffff;fill-opacity:1;stroke-width:0.00109612"
       d="m 0.27835103,0.00755034 c -0.001146,0.00415268 -0.002398,0.0090604 -0.002782,0.01090604 -3.8397e-4,0.0018456 -9.6551e-4,0.0042894 -0.001292,0.0054306 -4.0024e-4,0.0013976 0.001808,1.5552e-4 0.006764,-0.0038047 0.004047,-0.0032338 0.008914,-0.0065584 0.0108148,-0.0073881 0.005494,-0.002398 0.0150529,-0.0018866 0.0212922,0.001139 0.009179,0.0044511 0.0131715,0.01101938 0.0235493,0.03873968 0.008693,0.02321923 0.0135689,0.03229873 0.0228846,0.04261111 0.006692,0.007408 0.009642,0.0097109 0.0178273,0.01391902 0.012433,0.006391 0.0223954,0.008649 0.0388098,0.008793 0.0158901,1.3959e-4 0.0203456,-0.001289 0.0333974,-0.0107116 0.011316,-0.008169 0.0149807,-0.0098687 0.0212779,-0.0098687 0.006843,0 0.009424,0.001328 0.0171758,0.0088377 0.006835,0.006621 0.012544,0.0103272 0.0180191,0.0116958 0.00227,5.6738e-4 0.003238,0.001879 0.004647,0.006297 0.002112,0.006621 0.005875,0.0100827 0.0109616,0.0100827 0.007905,0 0.0110627,-0.004745 0.0110627,-0.0166233 0,-0.00696 5.2189e-4,-0.00891 0.004923,-0.01839019 0.003609,-0.0077733 0.004923,-0.01194738 0.004923,-0.01563494 0,-0.0086219 -0.004691,-0.01516548 -0.0126165,-0.01759776 -0.003737,-0.0011468 -0.005523,-0.0010189 -0.0121352,8.6936e-4 l -0.007754,0.0022141 -0.002576,-0.0052939 c -0.004587,-0.0094261 -0.0127077,-0.01748082 -0.0227058,-0.02252043 -0.004943,-0.0024915 -0.008981,-0.0048644 -0.008973,-0.0052731 7.52e-6,-4.0871e-4 0.001216,-0.0046633 0.002685,-0.0094546 0.003118,-0.01016746 0.003252,-0.01289566 0.001019,-0.02072752 L 0.47789744,0 h -0.005232 -0.005232 l 0.002214,0.0070924 0.002214,0.00709241 -0.002987,0.01014057 c -0.004572,0.01552037 -0.002861,0.02014009 0.00919,0.02481964 0.0103402,0.0040151 0.0188359,0.01335621 0.0236027,0.02595137 0.001249,0.0032999 0.002428,0.0061639 0.00262,0.0063645 1.9236e-4,2.0055e-4 0.004966,-0.0011754 0.0106092,-0.0030578 0.010263,-0.0034236 0.0124626,-0.0034675 0.0159826,-3.1921e-4 0.002992,0.0026764 0.002227,0.0073706 -0.002954,0.01811299 -0.004527,0.0093864 -0.004834,0.01059164 -0.004834,0.01899331 0,0.004934 -4.5548e-4,0.008971 -0.001012,0.008971 -5.5669e-4,0 -0.002102,-0.003523 -0.003434,-0.00783 -0.002161,-0.006987 -0.002717,-0.007831 -0.005164,-0.007836 -0.006182,-1.41e-5 -0.0108994,-0.002489 -0.0183951,-0.0096528 -0.009641,-0.0092137 -0.0143977,-0.01153709 -0.0236859,-0.01156916 -0.009227,-3.188e-5 -0.0142487,0.0019078 -0.0245942,0.0095002 -0.0139123,0.01021002 -0.016718,0.01119991 -0.0311262,0.01098156 -0.0213554,-3.2363e-4 -0.0362012,-0.005991 -0.0480697,-0.01835069 -0.008295,-0.0086382 -0.0136052,-0.01867671 -0.022738,-0.04298337 -0.004161,-0.01107382 -0.009554,-0.02329424 -0.011984,-0.02715649 -0.008315,-0.01321427 -0.018429,-0.018675175 -0.0332852,-0.01797259 -0.004686,2.2161e-4 -0.00852,2.169e-5 -0.00852,-4.4428523e-4 C 0.29108485,3.812528e-4 0.28868857,0 0.28575977,0 h -0.005325 z m 0.0767795,5.5928e-4 c 0.002157,0.00446029 0.00501,0.01112055 0.006338,0.01480058 l 0.002416,0.006691 -0.002613,0.0052036 c -0.001437,0.002862 -0.002896,0.0070239 -0.003243,0.0092486 L 0.3573982,0.0480985 h 0.004804 c 0.004693,0 0.004835,-1.0626e-4 0.006122,-0.0045804 0.001681,-0.0058437 0.008854,-0.01336283 0.0154373,-0.01618303 0.002783,-0.001192 0.005064,-0.0026706 0.005069,-0.0032858 5.38e-6,-6.1522e-4 -0.001805,-0.006275 -0.004024,-0.01257739 L 0.38077336,1.3020134e-5 0.37554605,6.3087248e-6 C 0.36958947,-1.5212528e-6 0.36967786,-7.1996644e-4 0.37413983,0.01144272 l 0.002762,0.0075279 -0.002267,0.0016536 c -0.002733,0.0019934 -0.003608,0.0015594 -0.004524,-0.0022437 -3.835e-4,-0.0015913 -0.002193,-0.0063779 -0.004022,-0.01063697 L 0.36276287,0 h -0.005777 -0.005777 z M 0.39742213,4.89016e-4 c 0,3.3325503e-4 0.002628,0.005518964 0.005839,0.011523784 0.014537,0.02718046 0.0148218,0.04058415 0.001188,0.05591915 l -0.006928,0.0077924 0.003542,0.0035747 0.003542,0.0035748 0.006609,-0.0073571 c 0.007174,-0.0079861 0.0101378,-0.01315447 0.0120284,-0.02097317 l 0.001219,-0.0050413 0.0057,-6.9771e-4 c 0.009486,-0.001161 0.0120904,-9.474e-5 0.0151554,0.0062042 l 0.002671,0.0054889 0.004137,-0.0024215 0.004137,-0.0024215 -0.003237,-0.0072033 c -0.004367,-0.0097192 -0.003819,-0.01297594 0.004614,-0.02741617 0.004069,-0.0069682 0.007019,-0.01340748 0.007459,-0.01628121 L 0.46582484,0 h -0.0052 c -0.004671,0 -0.005202,2.5619687e-4 -0.00522,0.00251678 -1.095e-5,0.00138423 -0.003166,0.00805369 -0.00701,0.01482103 -0.003845,0.0067673 -0.007281,0.01419183 -0.007636,0.01649888 -6.3785e-4,0.0041435 -7.0948e-4,0.0041972 -0.005879,0.0044044 -0.0118256,4.7393e-4 -0.0107472,9.808e-4 -0.0123449,-0.0058026 -7.9693e-4,-0.0033837 -0.004236,-0.01194072 -0.007641,-0.01901566 L 0.40870194,5.592941e-4 0.40306294,2.2119566e-4 c -0.003101,-1.85950781e-4 -0.005639,-6.543624e-5 -0.005639,2.6782998e-4 z M 0.49967388,0.00419358 c 6.1153e-4,0.00230646 0.003714,0.00936136 0.006895,0.01567756 l 0.005783,0.01148398 V 0.0426735 0.05399187 l 0.007477,-5.5713e-4 c 0.0176629,-0.0013161 0.0326243,-0.01548594 0.0397569,-0.03765359 0.001265,-0.0039322 0.00191,-0.00754239 0.001432,-0.00802258 -4.7754e-4,-4.8019e-4 -0.002593,-0.00120281 -0.004701,-0.00160582 -0.003772,-7.2104e-4 -0.003855,-6.555e-4 -0.005223,0.0041076 -0.003653,0.01272229 -0.0112433,0.02381925 -0.0197782,0.02891691 -0.008199,0.0048969 -0.009297,0.0045799 -0.009297,-0.0026831 0,-0.0073186 -0.001796,-0.01286703 -0.007399,-0.02285795 -0.00235,-0.00419048 -0.004599,-0.00897289 -0.004998,-0.0106276 C 0.50896081,2.6439597e-4 0.50844295,0 0.50372954,0 h -0.005168 z M 0.30612245,0.0518736 v 0.01384228 l -0.003415,7.1128e-4 c -0.008805,0.0018339 -0.018773,0.01226834 -0.0214299,0.02243283 -0.003281,0.01255404 0.005854,0.06346297 0.0150695,0.08397348 0.0108294,0.0241035 0.0239135,0.0193461 0.0338804,-0.0123189 0.003645,-0.0115801 0.008756,-0.037985 0.0104384,-0.0539241 0.001177,-0.0111573 0.001123,-0.01319959 -4.9903e-4,-0.01855673 -0.001002,-0.0033108 -0.003151,-0.0078107 -0.004775,-0.0099998 -0.003722,-0.0050162 -0.0115541,-0.01065348 -0.0161111,-0.01159598 l -0.003491,-7.2201e-4 V 0.0518736 0.03803132 h -0.004834 -0.004834 z m 0.0139635,0.02592147 c 0.006735,0.0035954 0.0117488,0.01207173 0.0117917,0.01993609 6.628e-5,0.01217082 -0.00777,0.051791 -0.0132301,0.06689072 -0.004972,0.0137493 -0.007683,0.0160128 -0.011492,0.009595 -0.007126,-0.012005 -0.0183787,-0.0653271 -0.0167706,-0.07946641 0.001687,-0.01483436 0.0171443,-0.02365846 0.029701,-0.0169554 z m 0.2283194,0.03857352 c -0.001088,0.0114937 -0.003042,0.0171117 -0.0102982,0.0296045 -0.00728,0.0125339 -0.009643,0.019436 -0.009643,0.0281673 0,0.004297 -4.0943e-4,0.005949 -0.001474,0.005949 -0.001482,0 -0.009117,-0.007989 -0.0110202,-0.0115298 -9.5241e-4,-0.001772 -0.001315,-0.001776 -0.005522,-5.503e-5 l -0.004503,0.001842 0.002398,0.004452 c 0.00355,0.00659 0.0127877,0.0148858 0.0187659,0.0168526 0.004899,0.001612 0.0153191,0.003495 0.015318,0.002769 -3e-7,-1.915e-4 -9.67e-4,-0.002996 -0.002148,-0.006233 -0.004336,-0.0118814 -0.00243,-0.0228785 0.006472,-0.0373302 0.007684,-0.0124738 0.0117514,-0.0258443 0.0117801,-0.0387204 7.51e-6,-0.003548 -1.0441e-4,-0.003635 -0.004687,-0.003635 h -0.004695 z m -0.0824633,0.01083 -3.137e-4,0.00863 -0.003759,0.001114 c -0.005131,0.00152 -0.0131628,0.0101343 -0.0147988,0.0158714 -0.001839,0.006447 -0.001645,0.0126602 8.4353e-4,0.0270511 0.004915,0.0284258 0.0137586,0.0460769 0.0230852,0.0460769 0.009327,0 0.0181701,-0.0176511 0.0230852,-0.0460769 0.002488,-0.014391 0.002682,-0.0206039 8.4353e-4,-0.0270511 -0.001636,-0.005737 -0.009668,-0.014351 -0.0147988,-0.0158714 l -0.003759,-0.001114 -3.1371e-4,-0.00863 -3.1372e-4,-0.00863 h -0.004743 -0.004743 z m 0.012854,0.0204464 c 0.001925,0.001223 0.004498,0.003863 0.005716,0.005868 0.001913,0.003149 0.00214,0.004866 0.001663,0.0125941 -9.5901e-4,0.0155203 -0.00922,0.0444661 -0.0138183,0.0484202 -0.001413,0.001215 -0.002022,9.8132e-4 -0.003889,-0.001491 -0.004836,-0.006402 -0.0116312,-0.031676 -0.0126181,-0.0469291 -5.0173e-4,-0.007755 -2.8339e-4,-0.009435 0.001636,-0.0125941 0.002988,-0.004917 0.00829,-0.008091 0.0135133,-0.008091 0.002397,0 0.005844,9.8285e-4 0.007797,0.002223 z m -0.0545211,-0.008586 c 0,0.0163194 -0.005702,0.0305238 -0.0168063,0.0418697 -0.007174,0.00733 -0.008972,0.008323 -0.008972,0.004957 0,-0.003775 -0.003194,-0.0132707 -0.00582,-0.0172997 -0.002561,-0.003931 -0.002579,-0.004118 -9.7554e-4,-0.0105108 0.001605,-0.006399 0.001677,-0.0217193 1.1079e-4,-0.0233508 -4.0837e-4,-4.2528e-4 -0.002476,-5.324e-5 -0.004595,8.2678e-4 l -0.003852,0.0016 -2.3686e-4,0.009445 c -3.7228e-4,0.0148456 -0.002689,0.0186759 -0.0230563,0.0381221 -0.009862,0.009416 -0.0125045,0.0150472 -0.0123811,0.0263861 8.399e-5,0.007721 -7.52e-6,0.008031 -0.002038,0.006899 -0.003953,-0.002203 -0.0103595,-0.008919 -0.0137363,-0.0143987 l -0.003358,-0.00545 -0.003967,0.001712 c -0.002182,9.4159e-4 -0.004122,0.001862 -0.004311,0.002045 -9.2094e-4,8.9377e-4 0.004608,0.009894 0.009507,0.0154761 0.007861,0.008958 0.0163428,0.0130936 0.0284648,0.0138812 l 0.009297,6.0405e-4 -0.004934,-0.007506 c -0.002714,-0.004128 -0.005007,-0.008858 -0.005096,-0.010511 -5.7355e-4,-0.0106416 0.002314,-0.016047 0.0141143,-0.0264167 0.004835,-0.004249 0.00953,-0.0089 0.0104326,-0.0103342 9.0247e-4,-0.001434 0.002055,-0.002608 0.002561,-0.002608 5.0632e-4,0 0.001725,0.00288 0.002707,0.0064 0.001764,0.006318 0.001448,0.0115823 -0.001278,0.0213102 l -7.1227e-4,0.002542 0.007919,-0.002963 c 0.0183308,-0.006858 0.0309964,-0.0205952 0.0374329,-0.040599 0.002615,-0.008127 0.004553,-0.0232345 0.00361,-0.0281443 -5.8344e-4,-0.003038 -9.9001e-4,-0.003289 -0.005331,-0.003289 h -0.004699 z"
       id="path6621"
       transform="matrix(931.02002,0,0,894.12002,-1.01,283.29001)"
       sodipodi:nodetypes="sssssssscssssscsssssscssccscccccsssssssssscsssssscscscssccsccssssccsscssccccsccscccsscssccccsccsscsssccscccccccsssscssscsccccsccscccsccccccssscsscssssscssscscscccccccsssscccccccscscscsccsscssscssscccsccscccssscscsssscc"
       inkscape:export-filename="../devel/frontend/public/species-icons/vulnerable_fire.svg"
       inkscape:export-xdpi="96"
       inkscape:export-ydpi="96" />
    <path
       style="display:inline;fill:#ffffff;fill-opacity:1;stroke-width:0.0013663"
       d="m 0.1865613,0.86531253 c -0.002894,0.009519 -0.004818,0.0292615 -0.004835,0.0496179 -6.62e-6,0.007639 8.9667e-4,0.0298954 0.002007,0.0494589 l 0.002019,0.0355701 0.002554,2.021e-5 c 0.001405,1.112e-5 0.002554,-0.001156 0.002554,-0.002593 0,-0.001437 -9.6775e-4,-0.0190113 -0.002151,-0.0390536 -0.002438,-0.0413078 -0.002564,-0.0480099 -0.001124,-0.0595112 9.98e-4,-0.007969 0.00129,-0.008228 0.0104839,-0.009289 0.0103886,-0.001199 0.0103364,-0.001319 0.008397,0.0192279 -0.00126,0.0133475 -0.001957,0.0146065 -0.00871,0.0157249 l -0.005201,8.6137e-4 0.00349,0.0373264 L 0.19953498,1 h 0.002652 c 0.001459,0 0.002648,-0.001172 0.002643,-0.002604 -4.84e-6,-0.001432 -7.2672e-4,-0.0104167 -0.001604,-0.0199653 -8.7701e-4,-0.009549 -0.001599,-0.018533 -0.001604,-0.0199653 -4.84e-6,-0.001432 7.2628e-4,-0.002604 0.001625,-0.002604 0.002505,0 0.005731,-0.0124573 0.00737,-0.0284608 0.001975,-0.0192779 0.002096,-0.0472176 2.5574e-4,-0.0591163 -0.001176,-0.007603 -0.001623,-0.007948 -0.0115591,-0.008916 -0.009871,-9.6156e-4 -0.0104445,-6.4935e-4 -0.0127523,0.006944 z m -0.0321409,0.0336884 c -0.005616,0.0134596 -0.009946,0.0405386 -0.0132343,0.0827705 L 0.13976683,1 l 0.008746,-2.2009e-4 c 0.006463,-1.6266e-4 0.008395,-0.001139 0.007402,-0.003741 -7.3925e-4,-0.001936 -0.00334,-0.003009 -0.00578,-0.002384 -0.00244,6.2508e-4 -0.004436,2.19e-4 -0.004435,-9.024e-4 4e-8,-0.001121 9.4748e-4,-0.0105835 0.002105,-0.0210269 0.004635,-0.041803 0.0121694,-0.0589152 0.0181806,-0.041292 0.002809,0.008235 0.007162,0.0341216 0.009143,0.0543682 0.001448,0.0148049 0.001557,0.0151856 0.004327,0.0151916 0.002778,6.07e-6 0.002827,-1.6969e-4 0.002203,-0.007806 -0.003027,-0.0370542 -0.008717,-0.0756147 -0.0131995,-0.089452 -0.003671,-0.0113319 -0.0101486,-0.0130555 -0.0140385,-0.003734 z m 0.0946563,0.0654088 C 0.24952178,0.99828944 0.24968822,1 0.25253958,1 c 0.002257,0 0.002401,-5.4e-4 0.002084,-0.007813 C 0.25443602,0.98789 0.25413089,0.9746089 0.2539455,0.9626731 L 0.25360842,0.9409717 h -0.00242 -0.00242 z m -0.018962,0.003472 c -8.9249e-4,0.005252 -0.001773,0.0146267 -0.001957,0.0208333 L 0.22782258,1 h 0.002429 c 0.001816,0 0.002521,-0.001534 0.002794,-0.006076 3.4737e-4,-0.005787 3.9773e-4,-0.005787 0.001058,0 C 0.23458652,0.99816334 0.23553474,1 0.23724013,1 h 0.002444 L 0.23909498,0.9876025 c -0.001326,-0.0278982 -0.005888,-0.0379169 -0.00898,-0.0197208 z"
       id="path6736"
       transform="matrix(1860.02,0,0,288.12,-1.01,-1.71)"
       sodipodi:nodetypes="ccccssccssscccsscsscssccscsssccscscsccscsccccsccsccscss"
       inkscape:export-filename="vulnerable_fire_light.svg"
       inkscape:export-xdpi="96"
       inkscape:export-ydpi="96" />
  </g>
</svg>
