<svg xmlns="http://www.w3.org/2000/svg" xmlns:xlink="http://www.w3.org/1999/xlink" width="500" zoomAndPan="magnify" viewBox="0 0 375 374.999991" height="500" preserveAspectRatio="xMidYMid meet" version="1.0"><defs><clipPath id="4ca57831cb"><path d="M 187.5 0 C 83.945312 0 0 83.945312 0 187.5 C 0 291.054688 83.945312 375 187.5 375 C 291.054688 375 375 291.054688 375 187.5 C 375 83.945312 291.054688 0 187.5 0 Z M 187.5 0 " clip-rule="nonzero"/></clipPath><clipPath id="e1b0b15492"><path d="M 65.703125 303 L 309.453125 303 L 309.453125 307.53125 L 65.703125 307.53125 Z M 65.703125 303 " clip-rule="nonzero"/></clipPath><clipPath id="745dafc4fd"><path d="M 77 67.53125 L 302 67.53125 L 302 184 L 77 184 Z M 77 67.53125 " clip-rule="nonzero"/></clipPath></defs><g clip-path="url(#4ca57831cb)"><rect x="-37.5" width="450" fill="#fec743" y="-37.499999" height="449.999989" fill-opacity="1"/></g><path fill="#ffffff" d="M 126.070312 177.820312 C 127.402344 176.871094 129.117188 176.679688 130.640625 177.058594 C 131.589844 175.726562 131.402344 174.015625 130.257812 172.871094 L 126.449219 169.066406 C 125.308594 167.921875 123.023438 167.921875 121.878906 169.066406 L 121.117188 169.828125 C 119.214844 168.875 117.308594 168.113281 115.214844 167.542969 L 115.214844 165.828125 C 115.214844 164.117188 113.691406 162.59375 111.976562 162.59375 L 106.644531 162.59375 C 104.929688 162.59375 103.40625 164.117188 103.40625 165.828125 L 103.40625 167.542969 C 100.742188 168.113281 98.265625 169.253906 95.789062 170.777344 L 95.410156 170.398438 C 94.839844 169.828125 94.078125 169.445312 93.125 169.445312 C 92.171875 169.445312 91.410156 169.828125 90.839844 170.398438 L 87.03125 174.203125 C 85.699219 175.539062 85.699219 177.441406 87.03125 178.773438 L 87.601562 179.34375 C 86.648438 181.246094 85.886719 183.152344 85.316406 185.246094 L 84.175781 185.246094 C 82.460938 185.246094 80.9375 186.769531 80.9375 188.480469 L 80.9375 193.8125 C 80.9375 195.523438 82.460938 197.046875 84.175781 197.046875 L 85.886719 197.046875 C 86.460938 199.140625 87.222656 201.046875 88.171875 202.949219 L 87.601562 203.519531 C 86.269531 204.851562 86.269531 206.753906 87.601562 208.089844 L 91.410156 211.894531 C 92.554688 213.039062 94.839844 213.039062 95.980469 211.894531 L 96.363281 211.515625 C 98.648438 213.039062 101.3125 214.179688 103.980469 214.75 L 103.980469 216.464844 C 103.980469 218.175781 105.503906 219.699219 107.214844 219.699219 L 112.546875 219.699219 C 114.261719 219.699219 115.785156 218.175781 115.785156 216.464844 L 115.785156 214.75 C 116.738281 214.558594 117.691406 214.179688 118.453125 213.800781 C 118.261719 212.464844 118.070312 211.132812 118.070312 209.800781 C 116.929688 210.371094 115.59375 210.753906 114.453125 210.945312 C 112.929688 211.324219 111.976562 212.65625 111.976562 214.179688 L 111.976562 216.082031 L 107.789062 216.082031 L 107.789062 214.558594 C 107.789062 213.039062 106.835938 211.707031 105.3125 211.324219 C 102.835938 210.753906 100.359375 209.800781 98.265625 208.277344 C 96.933594 207.328125 95.21875 207.515625 94.078125 208.660156 L 93.886719 208.851562 L 91.03125 205.996094 L 91.601562 205.421875 C 92.554688 204.472656 92.742188 202.757812 92.171875 201.425781 C 91.21875 199.710938 90.457031 197.808594 89.886719 195.714844 C 89.507812 194.191406 88.171875 193.242188 86.648438 193.242188 L 84.746094 193.242188 L 84.746094 189.050781 L 86.269531 189.050781 C 87.792969 189.050781 89.125 188.101562 89.507812 186.578125 C 89.886719 184.675781 90.648438 182.769531 91.792969 180.867188 C 92.554688 179.535156 92.363281 178.011719 91.21875 176.871094 L 90.648438 176.296875 L 93.503906 173.441406 L 93.695312 173.632812 C 94.839844 174.777344 96.550781 174.964844 97.886719 174.015625 C 99.980469 172.492188 102.457031 171.539062 104.929688 170.96875 C 106.453125 170.589844 107.40625 169.253906 107.40625 167.734375 L 107.40625 166.589844 L 111.597656 166.589844 L 111.597656 168.113281 C 111.597656 169.636719 112.546875 170.96875 114.070312 171.347656 C 115.976562 171.730469 117.878906 172.492188 119.59375 173.632812 C 120.925781 174.394531 122.449219 174.203125 123.59375 173.0625 L 124.164062 172.492188 L 127.019531 175.347656 L 126.832031 175.539062 C 126.257812 176.109375 125.878906 177.058594 126.070312 177.820312 Z M 126.070312 177.820312 " fill-opacity="1" fill-rule="nonzero"/><path fill="#ffffff" d="M 254.039062 174.203125 C 254.039062 169.066406 249.847656 164.878906 244.707031 164.878906 C 239.566406 164.878906 235.375 169.066406 235.375 174.203125 C 235.375 179.34375 239.566406 183.53125 244.707031 183.53125 C 249.847656 183.53125 254.039062 179.34375 254.039062 174.203125 Z M 239.183594 174.203125 C 239.183594 171.160156 241.660156 168.683594 244.707031 168.683594 C 247.753906 168.683594 250.230469 171.160156 250.230469 174.203125 C 250.230469 177.25 247.753906 179.726562 244.707031 179.726562 C 241.660156 179.726562 239.183594 177.25 239.183594 174.203125 Z M 239.183594 174.203125 " fill-opacity="1" fill-rule="nonzero"/><path fill="#ffffff" d="M 99.597656 191.335938 C 99.597656 196.855469 103.980469 201.234375 109.5 201.234375 C 115.023438 201.234375 119.402344 196.855469 119.402344 191.335938 C 119.402344 185.816406 115.023438 181.4375 109.5 181.4375 C 103.980469 181.4375 99.597656 185.816406 99.597656 191.335938 Z M 115.59375 191.335938 C 115.59375 194.761719 112.929688 197.429688 109.5 197.429688 C 106.074219 197.429688 103.40625 194.761719 103.40625 191.335938 C 103.40625 187.910156 106.074219 185.246094 109.5 185.246094 C 112.929688 185.246094 115.59375 187.910156 115.59375 191.335938 Z M 115.59375 191.335938 " fill-opacity="1" fill-rule="nonzero"/><path fill="#ffffff" d="M 265.082031 174.203125 C 265.082031 162.785156 255.941406 153.644531 244.707031 153.644531 C 233.472656 153.644531 224.332031 162.785156 224.332031 174.203125 C 224.332031 185.625 233.472656 194.761719 244.707031 194.761719 C 255.941406 194.761719 265.082031 185.4375 265.082031 174.203125 Z M 228.140625 174.203125 C 228.140625 165.066406 235.566406 157.453125 244.707031 157.453125 C 253.847656 157.453125 261.273438 164.878906 261.273438 174.203125 C 261.273438 183.53125 253.847656 190.957031 244.707031 190.957031 C 235.566406 190.957031 228.140625 183.34375 228.140625 174.203125 Z M 228.140625 174.203125 " fill-opacity="1" fill-rule="nonzero"/><g clip-path="url(#e1b0b15492)"><path fill="#ffffff" d="M 309.453125 305.550781 C 309.453125 304.410156 308.691406 303.648438 307.546875 303.648438 L 67.605469 303.648438 C 66.464844 303.648438 65.703125 304.410156 65.703125 305.550781 C 65.703125 306.695312 66.464844 307.453125 67.605469 307.453125 L 307.546875 307.453125 C 308.691406 307.453125 309.453125 306.695312 309.453125 305.550781 Z M 309.453125 305.550781 " fill-opacity="1" fill-rule="nonzero"/></g><path fill="#ffffff" d="M 79.03125 296.035156 L 155.203125 296.035156 C 155.585938 296.035156 156.15625 295.84375 156.347656 295.652344 C 156.539062 295.84375 156.726562 295.84375 157.109375 296.035156 C 157.300781 296.035156 157.488281 296.035156 157.488281 296.035156 C 157.679688 296.035156 157.679688 296.035156 157.871094 296.035156 C 158.0625 296.035156 158.25 296.222656 158.441406 296.222656 C 159.011719 296.222656 159.394531 296.035156 159.773438 295.652344 C 160.535156 294.890625 160.535156 293.75 159.773438 292.988281 C 164.917969 273.953125 175.007812 258.722656 190.054688 247.113281 C 191.195312 249.015625 193.289062 251.679688 196.527344 252.632812 C 197.671875 253.011719 198.8125 253.203125 199.957031 253.203125 C 203.953125 253.203125 207.382812 251.300781 207.574219 251.300781 C 208.335938 250.917969 208.714844 249.777344 208.523438 249.015625 C 208.523438 249.015625 208.335938 248.632812 208.144531 248.0625 C 212.144531 248.0625 215.761719 245.96875 215.761719 245.96875 C 216.523438 245.398438 216.902344 244.445312 216.523438 243.496094 C 216.523438 243.496094 216.523438 243.304688 216.523438 243.304688 C 216.714844 243.304688 216.902344 243.304688 216.902344 243.304688 C 220.710938 243.304688 224.140625 241.589844 224.332031 241.589844 C 225.09375 241.210938 225.472656 240.257812 225.28125 239.308594 C 225.855469 239.496094 226.617188 239.496094 227.1875 239.496094 C 230.996094 239.496094 234.421875 237.785156 234.421875 237.785156 C 235.183594 237.402344 235.566406 236.453125 235.375 235.5 C 235.945312 235.691406 236.707031 235.691406 237.28125 235.691406 C 241.46875 235.691406 245.277344 233.40625 245.46875 233.214844 C 246.230469 232.644531 246.609375 231.691406 246.230469 230.742188 C 246.230469 230.550781 245.46875 229.027344 244.136719 227.3125 C 244.136719 227.3125 244.136719 227.3125 244.324219 227.3125 C 245.660156 227.3125 247.183594 227.125 248.515625 226.554688 C 253.65625 224.460938 255.941406 218.175781 255.941406 217.988281 C 256.324219 217.035156 255.941406 216.082031 254.988281 215.703125 C 254.800781 215.511719 248.894531 212.65625 243.753906 214.941406 C 243.375 215.132812 242.992188 215.320312 242.613281 215.511719 C 242.613281 214.179688 242.613281 213.226562 242.613281 213.039062 C 242.421875 212.085938 241.660156 211.324219 240.707031 211.324219 C 240.515625 211.324219 234.804688 211.515625 230.996094 214.941406 C 230.804688 213.988281 229.851562 213.417969 228.902344 213.417969 C 228.710938 213.417969 222.234375 214.371094 219.1875 218.75 C 219 218.367188 219 218.175781 219 217.988281 C 218.617188 217.035156 217.664062 216.464844 216.714844 216.84375 C 216.523438 216.84375 211.191406 218.367188 208.144531 222.363281 C 207.761719 221.605469 206.8125 221.414062 206.050781 221.605469 C 205.859375 221.605469 200.335938 223.316406 197.671875 227.695312 C 197.480469 227.125 197.097656 226.742188 197.097656 226.742188 C 196.527344 225.980469 195.574219 225.601562 194.625 226.171875 C 194.433594 226.363281 188.71875 229.21875 187.195312 234.546875 C 186.054688 238.355469 187.386719 241.972656 188.339844 243.875 C 174.058594 254.726562 163.964844 269.003906 158.0625 286.515625 C 154.632812 269.003906 156.15625 252.441406 163.203125 236.261719 C 164.726562 237.214844 167.011719 238.164062 169.488281 238.164062 C 170.058594 238.164062 170.628906 238.164062 171.199219 237.972656 C 176.53125 237.023438 180.152344 231.503906 180.152344 231.3125 C 180.722656 230.550781 180.53125 229.410156 179.769531 228.835938 C 179.769531 228.835938 179.199219 228.457031 178.4375 227.886719 C 182.054688 225.792969 184.148438 222.175781 184.339844 221.984375 C 184.722656 221.222656 184.53125 220.460938 184.148438 219.890625 C 188.148438 218.367188 191.003906 214.941406 191.195312 214.75 C 191.765625 213.988281 191.765625 212.847656 191.003906 212.277344 C 191.003906 212.277344 190.625 211.894531 190.242188 211.515625 C 194.433594 209.609375 196.910156 205.234375 197.097656 204.851562 C 197.289062 204.472656 197.289062 204.089844 197.289062 203.519531 C 202.050781 202.1875 205.097656 197.808594 205.289062 197.617188 C 205.859375 196.855469 205.667969 195.714844 205.097656 195.144531 C 204.90625 194.953125 203.382812 193.621094 200.90625 192.480469 C 202.8125 192.097656 204.714844 191.148438 206.429688 189.625 C 210.429688 185.816406 210.429688 179.152344 210.238281 178.964844 C 210.238281 178.011719 209.476562 177.25 208.523438 177.058594 C 208.335938 177.058594 201.859375 176.488281 197.671875 180.488281 C 196.335938 181.820312 195.386719 183.53125 194.8125 185.054688 C 194.050781 182.390625 192.71875 180.296875 192.527344 180.105469 C 191.957031 179.34375 190.816406 179.152344 190.054688 179.535156 C 189.863281 179.726562 184.148438 182.960938 183.007812 188.101562 C 183.007812 188.101562 183.007812 188.292969 183.007812 188.292969 C 182.625 187.910156 182.246094 187.53125 182.246094 187.53125 C 181.484375 186.769531 180.53125 186.769531 179.769531 187.339844 C 179.578125 187.53125 175.582031 190.957031 174.628906 195.714844 C 173.867188 195.335938 173.105469 195.335938 172.535156 195.90625 C 172.34375 196.097656 168.535156 199.523438 167.582031 204.089844 C 167.582031 204.089844 167.390625 204.089844 167.390625 204.089844 C 166.628906 203.519531 165.488281 203.519531 164.917969 204.28125 C 164.726562 204.472656 160.15625 209.421875 160.535156 215.132812 C 160.535156 215.320312 160.535156 215.703125 160.535156 215.894531 C 159.773438 215.320312 159.011719 214.941406 159.011719 214.941406 C 158.0625 214.558594 157.109375 214.75 156.539062 215.703125 C 156.347656 215.894531 152.917969 221.414062 154.253906 226.742188 C 155.203125 230.550781 158.0625 233.023438 159.964844 234.167969 C 152.539062 251.109375 150.824219 268.429688 154.253906 286.707031 C 143.96875 274.523438 137.683594 260.816406 135.398438 244.828125 C 137.683594 244.636719 140.921875 244.066406 143.589844 241.589844 C 147.398438 237.785156 147.398438 231.3125 147.398438 231.121094 C 147.398438 230.167969 146.636719 229.410156 145.683594 229.21875 C 145.683594 229.21875 145.113281 229.21875 144.160156 229.21875 C 146.0625 225.410156 145.875 221.03125 145.683594 220.84375 C 145.683594 219.890625 144.921875 219.320312 143.96875 219.128906 C 146.0625 215.132812 145.875 210.371094 145.875 210.183594 C 145.875 209.800781 145.683594 209.421875 145.300781 209.039062 C 148.347656 205.613281 148.921875 200.472656 148.921875 200.285156 C 148.921875 199.332031 148.347656 198.570312 147.398438 198.191406 C 150.632812 194.761719 151.207031 189.433594 151.207031 189.242188 C 151.207031 188.292969 150.632812 187.339844 149.683594 187.148438 C 149.492188 187.148438 147.398438 186.578125 144.730469 186.957031 C 145.683594 185.816406 146.636719 184.484375 147.015625 182.769531 C 148.539062 177.441406 145.300781 171.730469 145.113281 171.539062 C 144.539062 170.777344 143.589844 170.398438 142.636719 170.777344 C 142.445312 170.96875 136.542969 173.632812 135.019531 179.152344 C 134.636719 180.675781 134.449219 182.199219 134.636719 183.722656 C 132.351562 181.820312 130.066406 181.246094 129.878906 181.058594 C 128.925781 180.675781 127.972656 181.246094 127.59375 182.199219 C 127.402344 182.390625 125.117188 187.910156 126.832031 192.859375 C 126.449219 192.667969 126.257812 192.667969 126.257812 192.667969 C 125.308594 192.480469 124.355469 193.050781 123.972656 194 C 123.972656 194.191406 122.261719 199.710938 124.164062 204.28125 C 123.402344 204.28125 122.832031 204.851562 122.449219 205.613281 C 122.449219 205.804688 120.546875 211.707031 122.832031 216.464844 C 122.832031 216.464844 122.640625 216.464844 122.640625 216.464844 C 121.6875 216.273438 120.738281 217.035156 120.546875 217.988281 C 120.546875 218.175781 119.214844 224.269531 122.070312 228.835938 C 121.308594 228.835938 120.925781 228.835938 120.925781 228.835938 C 119.976562 228.835938 119.214844 229.597656 119.214844 230.742188 C 119.214844 230.929688 119.023438 237.402344 122.832031 241.402344 C 125.496094 244.257812 129.304688 244.828125 131.402344 245.019531 C 134.066406 263.292969 141.683594 279.089844 154.253906 292.796875 L 79.03125 292.796875 C 77.890625 292.796875 77.128906 293.558594 77.128906 294.699219 C 77.128906 295.84375 77.890625 296.035156 79.03125 296.035156 Z M 197.859375 248.824219 C 195.765625 248.0625 194.242188 246.160156 193.480469 244.828125 C 195.195312 244.257812 197.671875 243.683594 199.765625 244.445312 C 200.144531 244.636719 200.527344 244.828125 200.90625 245.019531 C 201.480469 245.398438 202.050781 245.96875 202.621094 246.351562 C 203.382812 247.113281 203.953125 247.871094 204.335938 248.445312 C 202.429688 249.015625 199.957031 249.585938 197.859375 248.824219 Z M 206.050781 243.875 C 205.667969 243.683594 205.289062 243.496094 204.90625 243.304688 C 204.335938 242.734375 203.765625 242.351562 203.191406 241.972656 C 202.621094 241.402344 202.050781 240.640625 201.667969 240.066406 C 203.191406 239.496094 205.859375 238.734375 207.953125 239.496094 C 210.046875 240.066406 211.570312 241.972656 212.523438 243.304688 C 210.621094 243.875 208.144531 244.445312 206.050781 243.875 Z M 214.617188 239.117188 C 212.523438 238.355469 211.191406 236.453125 210.238281 235.117188 C 210.429688 235.117188 210.429688 234.929688 210.621094 234.929688 C 212.332031 234.359375 214.617188 233.976562 216.523438 234.738281 C 218.617188 235.5 219.949219 237.402344 220.902344 238.734375 C 219.378906 239.308594 216.714844 239.878906 214.617188 239.117188 Z M 224.902344 235.117188 C 222.808594 234.359375 221.472656 232.453125 220.523438 231.121094 C 222.234375 230.550781 224.710938 229.980469 226.804688 230.929688 C 228.902344 231.691406 230.234375 233.597656 231.1875 234.929688 C 229.472656 235.308594 226.996094 235.878906 224.902344 235.117188 Z M 235.757812 231.3125 C 233.660156 230.742188 232.136719 229.027344 231.1875 227.695312 C 231.375 227.503906 231.757812 227.503906 232.136719 227.3125 C 232.710938 227.125 233.472656 226.933594 234.234375 226.742188 C 234.234375 226.742188 234.234375 226.742188 234.421875 226.742188 C 235.375 226.554688 236.519531 226.554688 237.46875 226.933594 C 239.566406 227.503906 241.089844 229.21875 242.039062 230.550781 C 240.328125 231.3125 237.851562 232.074219 235.757812 231.3125 Z M 245.277344 218.175781 C 247.371094 217.226562 250.039062 217.796875 251.5625 218.175781 C 250.800781 219.699219 249.277344 221.984375 246.992188 222.746094 C 244.707031 223.699219 242.230469 223.125 240.707031 222.746094 C 241.46875 221.414062 242.992188 219.128906 245.277344 218.175781 Z M 238.804688 215.320312 C 238.804688 217.035156 238.230469 219.320312 236.707031 221.03125 C 235.757812 222.175781 234.421875 222.746094 233.089844 223.316406 C 232.328125 223.507812 231.757812 223.699219 230.996094 223.886719 C 230.996094 222.175781 231.566406 219.890625 233.089844 218.175781 C 234.613281 216.273438 237.089844 215.511719 238.804688 215.320312 Z M 222.046875 220.84375 C 223.378906 218.9375 225.664062 217.988281 227.378906 217.414062 C 227.378906 219.128906 227.378906 221.414062 226.042969 223.316406 C 224.710938 225.21875 222.425781 226.171875 220.710938 226.742188 C 220.710938 225.03125 220.710938 222.746094 222.046875 220.84375 Z M 210.621094 225.03125 C 211.761719 222.9375 214.046875 221.792969 215.570312 221.03125 C 215.761719 222.554688 215.953125 225.03125 214.808594 226.933594 C 214.046875 228.457031 212.714844 229.410156 211.382812 230.167969 C 210.808594 230.359375 210.429688 230.550781 209.859375 230.742188 C 209.667969 229.410156 209.476562 227.125 210.621094 225.03125 Z M 200.335938 229.980469 C 201.480469 227.886719 203.574219 226.554688 205.097656 225.792969 C 205.476562 227.3125 205.667969 229.789062 204.714844 231.691406 C 204.144531 233.023438 203.003906 233.976562 201.859375 234.738281 C 201.097656 235.117188 200.527344 235.5 199.765625 235.878906 C 199.574219 234.359375 199.382812 232.074219 200.335938 229.980469 Z M 190.625 235.308594 C 191.195312 233.023438 193.101562 231.3125 194.625 230.359375 C 195.195312 231.882812 195.765625 234.167969 195.195312 236.261719 C 194.625 238.546875 192.71875 240.257812 191.195312 241.210938 C 190.625 239.878906 190.054688 237.59375 190.625 235.308594 Z M 170.4375 233.785156 C 168.34375 234.167969 166.058594 233.214844 164.726562 232.453125 C 165.867188 231.121094 167.773438 229.410156 170.058594 229.027344 C 172.152344 228.648438 174.4375 229.597656 175.769531 230.359375 C 174.628906 231.691406 172.722656 233.40625 170.4375 233.785156 Z M 174.820312 225.03125 C 172.722656 225.601562 170.4375 224.839844 169.105469 224.078125 C 169.296875 223.886719 169.296875 223.699219 169.488281 223.507812 C 170.628906 222.175781 172.34375 220.652344 174.246094 220.269531 C 176.34375 219.699219 178.628906 220.460938 179.960938 221.222656 C 178.816406 222.554688 177.105469 224.460938 174.820312 225.03125 Z M 181.101562 216.273438 C 178.816406 216.464844 176.914062 215.320312 175.582031 214.558594 C 176.914062 213.417969 179.007812 211.707031 181.101562 211.515625 C 183.386719 211.324219 185.292969 212.464844 186.625 213.226562 C 185.484375 214.371094 183.386719 216.082031 181.101562 216.273438 Z M 187.386719 207.898438 C 185.292969 208.46875 183.007812 207.707031 181.675781 206.945312 C 182.816406 205.613281 184.53125 203.710938 186.816406 203.140625 C 188.910156 202.566406 191.195312 203.328125 192.527344 204.089844 C 191.386719 205.421875 189.671875 207.328125 187.386719 207.898438 Z M 195.386719 199.523438 C 193.289062 199.710938 191.195312 198.761719 189.863281 198 C 190.242188 197.617188 190.625 197.238281 190.816406 196.855469 C 191.957031 195.90625 193.480469 194.953125 195.195312 194.761719 C 197.480469 194.574219 199.574219 195.523438 200.90625 196.285156 C 199.574219 197.617188 197.671875 199.332031 195.386719 199.523438 Z M 200.335938 182.769531 C 202.050781 181.058594 204.527344 180.675781 206.238281 180.488281 C 206.050781 182.199219 205.289062 184.863281 203.574219 186.386719 C 201.859375 188.101562 199.382812 188.480469 197.671875 188.671875 C 198.050781 186.957031 198.621094 184.484375 200.335938 182.769531 Z M 186.625 188.863281 C 187.195312 186.578125 189.101562 184.863281 190.433594 183.722656 C 191.195312 185.246094 191.765625 187.53125 191.386719 189.625 C 190.816406 191.90625 188.910156 193.621094 187.578125 194.761719 C 186.816406 193.242188 186.054688 190.957031 186.625 188.863281 Z M 180.722656 191.527344 C 181.675781 192.859375 182.816406 194.953125 182.625 197.238281 C 182.4375 199.523438 181.101562 201.617188 179.960938 202.949219 C 179.007812 201.617188 177.867188 199.523438 178.054688 197.238281 C 178.246094 194.953125 179.578125 192.859375 180.722656 191.527344 Z M 173.484375 200.09375 C 174.4375 201.425781 175.582031 203.519531 175.582031 205.613281 C 175.582031 207.898438 174.058594 210.183594 172.914062 211.515625 C 172.722656 211.132812 172.34375 210.753906 172.152344 210.183594 C 171.960938 209.800781 171.773438 209.230469 171.582031 208.851562 C 171.199219 207.898438 171.011719 206.945312 171.011719 205.804688 C 171.011719 203.519531 172.34375 201.425781 173.484375 200.09375 Z M 166.25 208.277344 C 166.820312 208.851562 167.390625 209.609375 167.964844 210.5625 C 168.152344 210.945312 168.34375 211.515625 168.535156 211.894531 C 168.726562 212.65625 168.914062 213.226562 169.105469 213.988281 C 169.296875 215.703125 168.535156 217.414062 167.773438 218.9375 C 167.390625 219.507812 167.203125 219.890625 166.820312 220.460938 C 165.679688 219.128906 164.15625 217.226562 163.964844 214.75 C 163.773438 212.277344 165.296875 209.800781 166.25 208.277344 Z M 158.632812 219.128906 C 159.964844 220.082031 161.679688 221.792969 162.058594 223.886719 C 162.632812 226.171875 161.871094 228.648438 161.109375 230.167969 C 159.773438 229.21875 158.0625 227.503906 157.679688 225.410156 C 157.109375 223.316406 157.871094 220.84375 158.632812 219.128906 Z M 136.542969 214.558594 C 138.066406 212.847656 140.351562 212.277344 141.875 212.085938 C 141.683594 213.800781 141.304688 216.464844 139.78125 218.175781 C 138.257812 219.890625 135.972656 220.460938 134.449219 220.652344 C 134.449219 218.9375 135.019531 216.273438 136.542969 214.558594 Z M 141.683594 222.746094 C 141.492188 224.460938 141.113281 227.125 139.589844 228.835938 C 138.066406 230.550781 135.78125 231.121094 134.257812 231.3125 C 134.449219 229.597656 134.828125 226.933594 136.351562 225.21875 C 137.875 223.507812 140.160156 222.9375 141.683594 222.746094 Z M 141.492188 206.945312 C 139.78125 208.277344 137.496094 208.46875 135.972656 208.46875 C 135.972656 208.277344 135.972656 208.089844 136.160156 207.898438 C 136.542969 206.183594 137.496094 204.089844 139.207031 202.757812 C 140.921875 201.425781 143.207031 201.234375 144.921875 201.234375 C 144.160156 203.140625 143.207031 205.613281 141.492188 206.945312 Z M 131.589844 200.472656 C 132.351562 201.996094 132.542969 203.710938 132.542969 205.234375 C 132.351562 205.804688 132.351562 206.375 132.351562 206.753906 C 130.828125 206.183594 128.925781 205.042969 127.972656 203.140625 C 126.832031 201.046875 127.019531 198.570312 127.210938 196.667969 C 128.542969 197.238281 130.640625 198.378906 131.589844 200.472656 Z M 125.496094 208.277344 C 127.019531 208.851562 129.117188 209.992188 130.066406 212.085938 C 130.640625 213.226562 130.828125 214.371094 131.019531 215.511719 C 130.828125 216.464844 130.828125 217.414062 130.640625 218.367188 C 129.117188 217.796875 127.210938 216.65625 126.257812 214.75 C 125.117188 212.65625 125.308594 209.992188 125.496094 208.277344 Z M 123.972656 220.269531 C 125.496094 220.652344 127.59375 221.605469 128.925781 223.507812 C 129.6875 224.648438 130.066406 225.792969 130.257812 227.125 C 130.257812 228.074219 130.257812 228.835938 130.257812 229.789062 C 128.734375 229.21875 126.640625 228.457031 125.496094 226.554688 C 123.972656 224.648438 123.972656 221.984375 123.972656 220.269531 Z M 140.542969 238.734375 C 139.019531 240.257812 136.734375 240.828125 135.019531 240.828125 C 135.210938 239.117188 135.972656 236.640625 137.496094 234.929688 C 139.019531 233.40625 141.304688 232.835938 143.015625 232.835938 C 142.828125 234.546875 142.253906 237.023438 140.542969 238.734375 Z M 147.015625 190.386719 C 146.636719 192.097656 145.683594 194.574219 143.777344 195.90625 C 142.066406 197.238281 139.78125 197.429688 138.066406 197.429688 C 138.445312 195.714844 139.398438 193.242188 141.304688 191.90625 C 143.015625 190.574219 145.300781 190.195312 147.015625 190.386719 Z M 138.636719 179.914062 C 139.398438 177.632812 141.304688 175.917969 142.636719 174.964844 C 143.207031 176.679688 143.96875 179.152344 143.398438 181.4375 C 142.636719 183.722656 140.730469 185.4375 139.398438 186.386719 C 138.636719 184.863281 137.875 182.199219 138.636719 179.914062 Z M 130.257812 185.246094 C 131.78125 186.007812 133.6875 187.339844 134.449219 189.433594 C 135.019531 190.765625 135.019531 192.289062 135.019531 193.621094 C 134.828125 194.382812 134.636719 195.144531 134.449219 195.714844 C 133.113281 194.953125 131.210938 193.621094 130.449219 191.71875 C 129.496094 189.433594 129.878906 186.957031 130.257812 185.246094 Z M 125.308594 238.355469 C 123.785156 236.640625 123.023438 234.167969 122.832031 232.453125 C 124.355469 232.644531 126.640625 233.214844 128.164062 234.738281 C 129.6875 236.261719 130.257812 238.546875 130.449219 240.066406 C 130.449219 240.257812 130.449219 240.449219 130.449219 240.640625 C 129.117188 240.449219 126.832031 239.878906 125.308594 238.355469 Z M 125.308594 238.355469 " fill-opacity="1" fill-rule="nonzero"/><path fill="#ffffff" d="M 299.929688 282.707031 C 299.929688 281.566406 299.167969 280.804688 298.027344 280.804688 L 210.429688 280.804688 C 209.285156 280.804688 208.523438 281.566406 208.523438 282.707031 C 208.523438 283.851562 209.285156 284.613281 210.429688 284.613281 L 298.027344 284.613281 C 299.167969 284.613281 299.929688 283.851562 299.929688 282.707031 Z M 299.929688 282.707031 " fill-opacity="1" fill-rule="nonzero"/><path fill="#ffffff" d="M 187.578125 296.035156 L 195.195312 296.035156 C 196.335938 296.035156 197.097656 295.273438 197.097656 294.128906 C 197.097656 292.988281 196.335938 292.226562 195.195312 292.226562 L 187.578125 292.226562 C 186.433594 292.226562 185.671875 292.988281 185.671875 294.128906 C 185.671875 295.273438 186.433594 296.035156 187.578125 296.035156 Z M 187.578125 296.035156 " fill-opacity="1" fill-rule="nonzero"/><path fill="#ffffff" d="M 206.621094 292.226562 C 205.476562 292.226562 204.714844 292.988281 204.714844 294.128906 C 204.714844 295.273438 205.476562 296.035156 206.621094 296.035156 L 214.238281 296.035156 C 215.378906 296.035156 216.140625 295.273438 216.140625 294.128906 C 216.140625 292.988281 215.378906 292.226562 214.238281 292.226562 Z M 206.621094 292.226562 " fill-opacity="1" fill-rule="nonzero"/><path fill="#ffffff" d="M 193.289062 282.707031 C 193.289062 281.566406 192.527344 280.804688 191.386719 280.804688 L 179.960938 280.804688 C 178.816406 280.804688 178.054688 281.566406 178.054688 282.707031 C 178.054688 283.851562 178.816406 284.613281 179.960938 284.613281 L 191.386719 284.613281 C 192.527344 284.613281 193.289062 283.851562 193.289062 282.707031 Z M 193.289062 282.707031 " fill-opacity="1" fill-rule="nonzero"/><path fill="#ffffff" d="M 257.65625 212.65625 C 260.511719 211.707031 263.367188 210.371094 265.84375 208.851562 C 266.035156 208.660156 266.226562 208.851562 266.414062 209.039062 L 268.890625 211.515625 C 270.605469 213.226562 273.269531 213.226562 274.984375 211.515625 L 281.839844 204.660156 C 283.554688 202.949219 283.554688 200.285156 281.839844 198.570312 L 279.363281 196.097656 C 279.175781 195.90625 279.175781 195.714844 279.175781 195.523438 C 281.460938 191.90625 282.984375 187.910156 283.933594 183.914062 C 283.933594 183.722656 284.125 183.53125 284.507812 183.53125 L 287.933594 183.53125 C 290.410156 183.53125 292.3125 181.628906 292.3125 179.152344 L 292.3125 169.445312 C 292.3125 166.972656 290.410156 165.066406 287.933594 165.066406 L 284.695312 165.066406 C 284.507812 165.066406 284.316406 164.878906 284.125 164.6875 C 283.171875 160.5 281.460938 156.691406 279.363281 153.074219 C 279.175781 152.882812 279.363281 152.695312 279.554688 152.503906 L 282.03125 150.03125 C 283.746094 148.316406 283.746094 145.652344 282.03125 143.9375 L 275.175781 137.085938 C 273.460938 135.371094 270.796875 135.371094 269.082031 137.085938 L 266.605469 139.558594 C 266.414062 139.75 266.226562 139.75 266.035156 139.75 C 262.417969 137.464844 258.417969 135.941406 254.417969 134.992188 C 254.226562 134.992188 254.039062 134.800781 254.039062 134.421875 L 254.039062 130.992188 C 254.039062 128.519531 252.132812 126.617188 249.65625 126.617188 L 239.945312 126.617188 C 237.46875 126.617188 235.566406 128.519531 235.566406 130.992188 L 235.566406 134.230469 C 235.566406 134.421875 235.375 134.609375 235.183594 134.800781 C 230.996094 135.753906 227.1875 137.464844 223.570312 139.558594 C 223.378906 139.75 223.1875 139.558594 222.996094 139.371094 L 220.523438 136.894531 C 218.808594 135.179688 216.140625 135.179688 214.429688 136.894531 L 207.574219 143.746094 C 206.8125 144.507812 206.238281 145.652344 206.238281 146.792969 C 206.238281 147.933594 206.621094 149.078125 207.574219 149.839844 L 210.046875 152.3125 C 210.238281 152.503906 210.238281 152.695312 210.238281 152.882812 C 207.953125 156.5 206.429688 160.5 205.476562 164.496094 C 205.476562 164.6875 205.289062 164.878906 204.90625 164.878906 L 201.480469 164.878906 C 199.003906 164.878906 197.097656 166.78125 197.097656 169.253906 L 197.097656 175.539062 C 198.433594 174.777344 199.574219 174.203125 200.90625 173.824219 L 200.90625 169.445312 C 200.90625 169.253906 201.097656 168.875 201.480469 168.875 L 204.714844 168.875 C 206.8125 168.875 208.523438 167.542969 208.90625 165.636719 C 209.859375 161.832031 211.191406 158.40625 213.285156 154.980469 C 214.238281 153.265625 214.046875 151.171875 212.714844 149.648438 L 210.238281 147.175781 C 210.046875 146.984375 210.046875 146.984375 210.046875 146.792969 C 210.046875 146.601562 210.046875 146.601562 210.238281 146.414062 L 217.09375 139.558594 C 217.285156 139.371094 217.664062 139.371094 217.855469 139.558594 L 220.332031 142.035156 C 221.664062 143.367188 223.949219 143.746094 225.664062 142.605469 C 228.902344 140.511719 232.519531 139.179688 236.328125 138.226562 C 238.230469 137.847656 239.566406 136.132812 239.566406 134.039062 L 239.566406 130.613281 C 239.566406 130.421875 239.753906 130.042969 240.136719 130.042969 L 249.847656 130.042969 C 250.039062 130.042969 250.417969 130.230469 250.417969 130.613281 L 250.417969 134.230469 C 250.417969 136.324219 251.753906 138.035156 253.65625 138.417969 C 257.464844 139.371094 260.894531 140.703125 264.320312 142.796875 C 266.035156 143.746094 268.128906 143.558594 269.652344 142.226562 L 272.128906 139.75 C 272.320312 139.558594 272.699219 139.558594 272.890625 139.75 L 279.746094 146.601562 C 279.9375 146.792969 279.9375 147.175781 279.746094 147.363281 L 277.269531 149.839844 C 275.9375 151.171875 275.554688 153.457031 276.699219 155.167969 C 278.792969 158.40625 280.125 162.023438 281.078125 165.828125 C 281.460938 167.734375 283.171875 169.066406 285.269531 169.066406 L 288.695312 169.066406 C 288.886719 169.066406 289.265625 169.253906 289.265625 169.636719 L 289.265625 179.34375 C 289.265625 179.535156 289.078125 179.914062 288.695312 179.914062 L 284.695312 179.914062 C 282.601562 179.914062 280.886719 181.246094 280.507812 183.152344 C 279.554688 186.957031 278.222656 190.386719 276.128906 193.8125 C 275.175781 195.523438 275.367188 197.617188 276.699219 199.140625 L 279.175781 201.617188 C 279.363281 201.804688 279.363281 202.1875 279.175781 202.378906 L 272.320312 209.230469 C 272.128906 209.421875 271.746094 209.421875 271.558594 209.230469 L 269.082031 206.753906 C 267.75 205.421875 265.464844 205.042969 263.75 206.183594 C 260.511719 208.277344 256.894531 209.609375 253.085938 210.5625 C 252.515625 210.753906 252.132812 210.945312 251.753906 211.132812 C 254.417969 211.707031 256.132812 212.464844 256.511719 212.65625 C 257.085938 212.277344 257.273438 212.464844 257.65625 212.65625 Z M 257.65625 212.65625 " fill-opacity="1" fill-rule="nonzero"/><path fill="#ffffff" d="M 153.492188 195.144531 L 167.773438 195.144531 C 168.726562 194 169.675781 193.050781 169.867188 192.859375 C 170.4375 192.289062 171.199219 191.90625 171.773438 191.71875 C 171.773438 191.527344 171.960938 191.335938 171.960938 191.148438 L 154.632812 191.148438 C 154.253906 192.289062 154.0625 193.621094 153.492188 195.144531 Z M 153.492188 195.144531 " fill-opacity="1" fill-rule="nonzero"/><g clip-path="url(#745dafc4fd)"><path fill="#ffffff" d="M 79.03125 166.972656 L 79.792969 166.972656 C 80.367188 166.972656 80.746094 166.78125 81.128906 166.398438 C 88.363281 159.546875 97.695312 155.929688 107.789062 155.929688 C 119.59375 155.929688 130.257812 161.261719 137.304688 169.445312 C 138.636719 168.492188 139.78125 167.734375 140.542969 167.351562 C 132.734375 158.023438 121.117188 152.125 107.976562 152.125 C 98.074219 152.125 88.746094 155.359375 81.128906 161.449219 L 81.128906 145.652344 L 109.691406 145.652344 C 110.835938 145.652344 111.597656 144.890625 111.597656 143.746094 C 111.597656 142.605469 110.835938 141.84375 109.691406 141.84375 L 80.9375 141.84375 L 80.9375 138.035156 L 109.5 138.035156 C 110.644531 138.035156 111.40625 137.277344 111.40625 136.132812 C 111.40625 134.992188 110.644531 134.230469 109.5 134.230469 L 80.9375 134.230469 L 80.9375 130.421875 L 99.980469 130.421875 C 104.167969 130.421875 107.597656 126.996094 107.597656 122.808594 C 107.597656 118.621094 104.167969 115.195312 99.980469 115.195312 L 81.699219 115.195312 C 83.792969 108.53125 90.269531 103.773438 97.695312 103.773438 L 139.398438 103.773438 L 157.109375 121.667969 L 157.109375 141.84375 C 157.109375 142.984375 157.871094 143.746094 159.011719 143.746094 L 179.578125 143.746094 C 180.152344 143.746094 180.722656 143.367188 181.101562 142.984375 L 181.863281 142.035156 C 194.8125 119.570312 219 105.675781 245.277344 105.675781 C 264.511719 105.675781 282.601562 112.910156 296.3125 126.042969 C 297.457031 127.1875 298.027344 128.519531 298.027344 130.042969 C 298.027344 131.566406 297.457031 132.898438 296.3125 134.039062 L 294.789062 135.5625 C 294.789062 135.5625 294.597656 135.371094 294.597656 135.371094 C 293.835938 134.421875 292.886719 133.46875 291.933594 132.515625 C 278.792969 119.382812 260.511719 112.339844 241.46875 113.480469 C 209.859375 115.195312 183.578125 139.75 180.53125 170.589844 C 180.152344 174.964844 180.152344 179.152344 180.53125 183.53125 C 180.53125 183.53125 180.722656 183.53125 180.722656 183.53125 C 181.675781 181.820312 182.816406 180.488281 183.960938 179.535156 C 183.769531 176.679688 183.960938 174.015625 184.148438 171.160156 C 187.007812 142.226562 211.570312 119.191406 241.46875 117.476562 C 259.179688 116.527344 276.507812 123 288.886719 135.371094 C 289.648438 136.132812 290.601562 137.085938 291.363281 138.035156 C 291.550781 138.226562 291.550781 138.417969 291.742188 138.417969 L 293.074219 139.75 C 293.835938 140.511719 294.980469 140.511719 295.742188 139.75 L 298.597656 137.085938 C 300.503906 135.371094 301.453125 132.898438 301.453125 130.421875 C 301.453125 127.949219 300.503906 125.472656 298.597656 123.761719 C 286.410156 111.957031 270.796875 104.722656 253.847656 102.820312 L 253.847656 73.886719 C 254.226562 70.460938 251.371094 67.605469 247.945312 67.605469 L 245.46875 67.605469 C 241.851562 67.605469 238.992188 70.460938 238.992188 73.886719 L 238.992188 98.0625 L 204.144531 98.0625 C 199.957031 98.0625 196.527344 101.488281 196.527344 105.675781 C 196.527344 109.863281 199.957031 113.289062 204.144531 113.289062 L 204.714844 113.289062 C 194.050781 119.761719 184.910156 128.898438 178.628906 139.941406 L 160.917969 139.941406 L 160.917969 120.90625 C 160.917969 120.332031 160.726562 119.953125 160.347656 119.570312 L 151.777344 110.816406 L 160.15625 102.25 L 165.105469 107.199219 C 165.488281 107.578125 166.058594 107.769531 166.441406 107.769531 C 167.011719 107.769531 167.390625 107.578125 167.773438 107.199219 C 168.535156 106.4375 168.535156 105.296875 167.773438 104.535156 L 156.347656 93.113281 C 155.585938 92.351562 154.441406 92.351562 153.679688 93.113281 C 152.917969 93.875 152.917969 95.015625 153.679688 95.777344 L 157.488281 99.585938 L 149.109375 108.152344 L 141.683594 100.535156 C 141.304688 100.15625 140.921875 99.964844 140.351562 99.964844 L 97.886719 99.964844 C 87.984375 99.964844 79.792969 106.816406 77.699219 115.957031 C 77.320312 116.335938 77.128906 116.71875 77.128906 117.097656 L 77.128906 165.257812 C 77.128906 166.210938 77.890625 166.972656 79.03125 166.972656 Z M 245.277344 71.410156 L 247.753906 71.410156 C 249.277344 71.410156 250.417969 72.554688 250.417969 73.886719 L 250.417969 101.867188 C 248.707031 101.867188 246.992188 101.867188 245.277344 101.867188 C 244.515625 101.867188 243.5625 101.867188 242.800781 101.867188 L 242.800781 73.886719 C 242.800781 72.554688 243.945312 71.410156 245.277344 71.410156 Z M 204.144531 109.484375 C 202.050781 109.484375 200.335938 107.769531 200.335938 105.675781 C 200.335938 103.582031 202.050781 101.867188 204.144531 101.867188 L 238.230469 101.867188 L 238.230469 102.25 C 228.902344 103.011719 219.949219 105.675781 211.761719 109.484375 Z M 99.980469 119 C 102.074219 119 103.789062 120.714844 103.789062 122.808594 C 103.789062 124.902344 102.074219 126.617188 99.980469 126.617188 L 80.9375 126.617188 L 80.9375 120.144531 C 80.9375 119.761719 80.9375 119.382812 80.9375 119 Z M 99.980469 119 " fill-opacity="1" fill-rule="nonzero"/></g><path fill="#ffffff" d="M 209.285156 196.667969 C 209.097656 197.617188 208.90625 198.570312 208.335938 199.332031 C 208.144531 199.523438 207.574219 200.472656 206.429688 201.617188 C 206.429688 202.757812 207 203.710938 207.761719 204.472656 L 214.617188 211.324219 C 216.332031 213.039062 219 213.039062 220.710938 211.324219 L 223.1875 208.851562 C 223.378906 208.660156 223.570312 208.660156 223.757812 208.660156 C 224.519531 209.039062 225.28125 209.421875 226.042969 209.992188 C 227.378906 209.609375 228.328125 209.421875 228.519531 209.421875 C 229.664062 209.230469 230.613281 209.421875 231.566406 209.800781 C 232.136719 209.421875 232.710938 209.230469 233.28125 208.851562 C 230.613281 207.898438 228.140625 206.753906 225.664062 205.421875 C 224.902344 205.042969 224.140625 204.851562 223.378906 204.851562 C 222.234375 204.851562 221.09375 205.234375 220.332031 206.183594 L 217.855469 208.660156 C 217.664062 208.851562 217.285156 208.851562 217.09375 208.660156 L 210.238281 201.804688 C 210.046875 201.617188 210.046875 201.617188 210.046875 201.425781 C 210.046875 201.234375 210.046875 201.234375 210.238281 201.046875 L 212.714844 198.570312 C 214.046875 197.238281 214.429688 194.953125 213.285156 193.242188 C 212.523438 191.90625 211.761719 190.574219 211.191406 189.050781 C 210.621094 190.003906 209.859375 190.957031 208.90625 191.71875 C 208.714844 191.90625 208.523438 191.90625 208.335938 192.097656 C 208.90625 193.050781 209.476562 194.191406 210.046875 195.144531 C 210.238281 195.335938 210.046875 195.523438 209.859375 195.714844 Z M 209.285156 196.667969 " fill-opacity="1" fill-rule="nonzero"/></svg>