<svg xmlns="http://www.w3.org/2000/svg" xmlns:xlink="http://www.w3.org/1999/xlink" width="500" zoomAndPan="magnify" viewBox="0 0 375 374.999991" height="500" preserveAspectRatio="xMidYMid meet" version="1.0"><defs><clipPath id="d5da1dcfb6"><path d="M 187.5 0 C 83.945312 0 0 83.945312 0 187.5 C 0 291.054688 83.945312 375 187.5 375 C 291.054688 375 375 291.054688 375 187.5 C 375 83.945312 291.054688 0 187.5 0 Z M 187.5 0 " clip-rule="nonzero"/></clipPath><clipPath id="930c8733bc"><path d="M 91.636719 278 L 283.636719 278 L 283.636719 298 L 91.636719 298 Z M 91.636719 278 " clip-rule="nonzero"/></clipPath><clipPath id="f568c850f2"><path d="M 173 52.480469 L 200 52.480469 L 200 101 L 173 101 Z M 173 52.480469 " clip-rule="nonzero"/></clipPath><clipPath id="cb8a47999b"><path d="M 91.636719 301 L 283.636719 301 L 283.636719 321 L 91.636719 321 Z M 91.636719 301 " clip-rule="nonzero"/></clipPath></defs><g clip-path="url(#d5da1dcfb6)"><rect x="-37.5" width="450" fill="#fec743" y="-37.499999" height="449.999989" fill-opacity="1"/></g><g clip-path="url(#930c8733bc)"><path fill="#ffffff" d="M 99.515625 291.816406 C 108.0625 298.707031 122.714844 298.859375 131.519531 292.144531 L 137.394531 287.664062 C 144.542969 282.207031 156.761719 282.113281 164.078125 287.464844 L 170.890625 292.449219 C 179.84375 298.996094 194.457031 298.644531 202.808594 291.675781 L 208.492188 286.945312 C 215.429688 281.160156 228.105469 280.835938 235.613281 286.257812 L 244.753906 292.847656 C 249.0625 295.953125 254.589844 297.496094 260.109375 297.496094 C 265.996094 297.496094 271.875 295.738281 276.238281 292.257812 L 283.65625 286.335938 L 281.269531 283.359375 L 273.851562 289.277344 C 266.769531 294.933594 254.464844 295.148438 246.988281 289.757812 L 237.851562 283.167969 C 228.90625 276.714844 214.339844 277.101562 206.039062 284.015625 L 200.359375 288.746094 C 193.371094 294.570312 180.652344 294.859375 173.144531 289.371094 L 166.328125 284.382812 C 157.621094 278.015625 143.597656 278.121094 135.074219 284.632812 L 129.199219 289.113281 C 121.816406 294.742188 109.074219 294.617188 101.914062 288.847656 L 97.683594 285.441406 C 96.371094 284.382812 94.882812 283.460938 93.257812 282.699219 L 91.636719 286.148438 C 92.980469 286.78125 94.210938 287.546875 95.285156 288.410156 Z M 99.515625 291.816406 " fill-opacity="1" fill-rule="nonzero"/></g><path fill="#ffffff" d="M 95.921875 265.730469 C 95.910156 265.371094 95.171875 229.625 136.023438 203.972656 C 165.167969 185.667969 179.128906 165.972656 185.152344 155.019531 L 185.152344 181.039062 C 183.535156 185.007812 175.054688 203.015625 149.210938 219.246094 C 118.621094 238.457031 119.238281 264.757812 119.28125 265.871094 L 123.097656 265.730469 C 123.085938 265.476562 122.609375 240.460938 151.246094 222.46875 C 170.410156 210.433594 180.359375 197.539062 185.152344 189.464844 L 185.152344 216.035156 C 184.011719 218.707031 178.988281 228.710938 164.484375 237.8125 C 146.15625 249.324219 146.53125 265.195312 146.554688 265.863281 L 150.371094 265.730469 C 150.355469 265.144531 150.132812 251.332031 166.515625 241.042969 C 176.15625 234.992188 181.878906 228.546875 185.148438 223.78125 L 185.148438 265.792969 L 188.96875 265.792969 L 188.96875 223.402344 C 192.195312 228.203125 197.960938 234.828125 207.851562 241.042969 C 224.234375 251.332031 224.015625 265.152344 224 265.726562 L 227.816406 265.863281 C 227.84375 265.195312 228.214844 249.324219 209.890625 237.8125 C 193.800781 227.707031 189.324219 216.363281 188.96875 215.402344 L 188.96875 189.035156 C 193.667969 197.070312 203.621094 210.214844 223.128906 222.464844 C 251.765625 240.449219 251.28125 265.472656 251.277344 265.71875 L 255.09375 265.859375 C 255.136719 264.75 255.75 238.445312 225.164062 219.234375 C 197.503906 201.863281 189.6875 182.3125 188.96875 180.378906 L 188.96875 154.539062 C 194.847656 165.390625 208.78125 185.394531 238.351562 203.960938 C 279.203125 229.617188 278.464844 265.367188 278.453125 265.71875 L 282.269531 265.859375 C 282.285156 265.46875 282.570312 256.101562 277.523438 243.347656 C 272.902344 231.640625 262.699219 214.753906 240.382812 200.734375 C 207.082031 179.820312 194.03125 156.65625 190.195312 148.386719 L 221.117188 110.964844 L 218.171875 108.539062 L 188.96875 143.875 L 188.96875 109.75 L 185.148438 109.75 L 185.148438 144.113281 L 155.746094 108.539062 L 152.800781 110.964844 L 184.019531 148.738281 C 180.003906 157.292969 166.894531 180.070312 133.988281 200.742188 C 111.664062 214.757812 101.46875 231.652344 96.84375 243.351562 C 91.800781 256.113281 92.085938 265.472656 92.097656 265.863281 Z M 95.921875 265.730469 " fill-opacity="1" fill-rule="nonzero"/><g clip-path="url(#f568c850f2)"><path fill="#ffffff" d="M 186.09375 99.714844 L 187.265625 100.402344 L 188.300781 99.523438 C 195.03125 93.8125 198.632812 87.15625 199.007812 79.734375 C 199.714844 65.878906 188.90625 54.480469 188.441406 53.996094 L 187.054688 52.566406 L 185.679688 54.015625 C 176.5625 63.621094 172.5625 72.941406 173.804688 81.710938 C 175.441406 93.324219 185.65625 99.464844 186.09375 99.714844 Z M 187.019531 58.195312 C 189.742188 61.570312 195.671875 70.058594 195.195312 79.546875 C 194.890625 85.476562 192.109375 90.894531 186.914062 95.664062 C 184.4375 93.839844 178.652344 88.828125 177.585938 81.140625 C 176.59375 74.042969 179.765625 66.328125 187.019531 58.195312 Z M 187.019531 58.195312 " fill-opacity="1" fill-rule="nonzero"/></g><path fill="#ffffff" d="M 133.148438 149.628906 C 135.804688 150.5625 138.535156 151.03125 141.328125 151.03125 C 145.914062 151.03125 150.671875 149.769531 155.546875 147.257812 L 156.753906 146.636719 L 156.5625 145.292969 C 156.492188 144.792969 154.6875 133.027344 144.550781 127.101562 C 136.894531 122.625 126.742188 122.777344 114.378906 127.546875 L 112.511719 128.265625 L 113.320312 130.09375 C 113.589844 130.703125 120.042969 145.007812 133.148438 149.628906 Z M 142.585938 130.375 C 149.300781 134.28125 151.75 141.527344 152.5 144.511719 C 146.113281 147.492188 140.042969 148.007812 134.445312 146.039062 C 125.484375 142.894531 119.851562 134.179688 117.75 130.371094 C 128.03125 126.761719 136.382812 126.761719 142.585938 130.375 Z M 142.585938 130.375 " fill-opacity="1" fill-rule="nonzero"/><path fill="#ffffff" d="M 228.71875 127.101562 C 218.582031 133.027344 216.773438 144.792969 216.703125 145.292969 L 216.511719 146.636719 L 217.71875 147.257812 C 222.597656 149.769531 227.351562 151.03125 231.9375 151.03125 C 234.734375 151.03125 237.464844 150.5625 240.117188 149.628906 C 253.222656 145.015625 259.679688 130.703125 259.949219 130.09375 L 260.753906 128.265625 L 258.890625 127.546875 C 246.527344 122.777344 236.378906 122.625 228.71875 127.101562 Z M 238.828125 146.039062 C 233.226562 148.007812 227.152344 147.488281 220.769531 144.503906 C 221.503906 141.535156 223.921875 134.324219 230.652344 130.390625 C 236.863281 126.761719 245.21875 126.757812 255.53125 130.371094 C 253.421875 134.179688 247.785156 142.894531 238.828125 146.039062 Z M 238.828125 146.039062 " fill-opacity="1" fill-rule="nonzero"/><path fill="#ffffff" d="M 145.753906 101.074219 L 147.089844 101.316406 L 147.757812 100.132812 C 148.003906 99.695312 153.765625 89.273438 149.347656 78.40625 C 146.015625 70.199219 137.878906 64.136719 125.171875 60.382812 L 123.253906 59.816406 L 122.773438 61.757812 C 122.617188 62.402344 118.988281 77.675781 126.554688 89.316406 C 130.605469 95.546875 137.066406 99.5 145.753906 101.074219 Z M 126.113281 64.671875 C 136.464844 68.078125 143.085938 73.167969 145.796875 79.804688 C 148.730469 86.992188 146.242188 94.226562 145.015625 97.042969 C 138.136719 95.519531 133.007812 92.230469 129.773438 87.257812 C 124.597656 79.304688 125.457031 68.964844 126.113281 64.671875 Z M 126.113281 64.671875 " fill-opacity="1" fill-rule="nonzero"/><path fill="#ffffff" d="M 225.179688 101.316406 L 226.519531 101.074219 C 235.207031 99.5 241.667969 95.546875 245.71875 89.308594 C 253.289062 77.667969 249.660156 62.394531 249.5 61.753906 L 249.019531 59.808594 L 247.101562 60.378906 C 234.390625 64.128906 226.257812 70.195312 222.921875 78.398438 C 218.511719 89.265625 224.265625 99.695312 224.515625 100.128906 Z M 226.472656 79.800781 C 229.1875 73.160156 235.800781 68.078125 246.15625 64.667969 C 246.816406 68.964844 247.675781 79.300781 242.496094 87.25 C 239.257812 92.21875 234.132812 95.503906 227.25 97.03125 C 226.023438 94.21875 223.535156 86.984375 226.472656 79.800781 Z M 226.472656 79.800781 " fill-opacity="1" fill-rule="nonzero"/><g clip-path="url(#cb8a47999b)"><path fill="#ffffff" d="M 281.269531 306.753906 L 273.851562 312.675781 C 266.769531 318.332031 254.464844 318.546875 246.988281 313.15625 L 237.851562 306.5625 C 228.902344 300.113281 214.339844 300.5 206.039062 307.417969 L 200.359375 312.152344 C 193.371094 317.972656 180.652344 318.269531 173.144531 312.773438 L 166.328125 307.789062 C 157.621094 301.417969 143.597656 301.523438 135.074219 308.03125 L 129.199219 312.511719 C 121.816406 318.140625 109.074219 318.015625 101.914062 312.246094 L 97.683594 308.835938 C 96.371094 307.777344 94.882812 306.855469 93.257812 306.09375 L 91.636719 309.539062 C 92.980469 310.171875 94.210938 310.933594 95.285156 311.796875 L 99.515625 315.210938 C 108.0625 322.101562 122.714844 322.25 131.519531 315.539062 L 137.394531 311.054688 C 144.542969 305.597656 156.761719 305.507812 164.078125 310.859375 L 170.890625 315.84375 C 179.84375 322.390625 194.457031 322.035156 202.808594 315.070312 L 208.492188 310.335938 C 215.429688 304.558594 228.105469 304.230469 235.613281 309.648438 L 244.753906 316.242188 C 249.0625 319.347656 254.589844 320.894531 260.109375 320.894531 C 265.996094 320.894531 271.875 319.136719 276.238281 315.65625 L 283.65625 309.730469 Z M 281.269531 306.753906 " fill-opacity="1" fill-rule="nonzero"/></g></svg>