<svg xmlns="http://www.w3.org/2000/svg" xmlns:xlink="http://www.w3.org/1999/xlink" width="500" zoomAndPan="magnify" viewBox="0 0 375 374.999991" height="500" preserveAspectRatio="xMidYMid meet" version="1.0"><defs><clipPath id="cb337d2d72"><path d="M 187.5 0 C 83.945312 0 0 83.945312 0 187.5 C 0 291.054688 83.945312 375 187.5 375 C 291.054688 375 375 291.054688 375 187.5 C 375 83.945312 291.054688 0 187.5 0 Z M 187.5 0 " clip-rule="nonzero"/></clipPath><clipPath id="27fe9fc904"><path d="M 67.558594 78.078125 L 307.558594 78.078125 L 307.558594 318 L 67.558594 318 Z M 67.558594 78.078125 " clip-rule="nonzero"/></clipPath></defs><g clip-path="url(#cb337d2d72)"><rect x="-37.5" width="450" fill="#fec743" y="-37.499999" height="449.999989" fill-opacity="1"/></g><path fill="#ffffff" d="M 238.730469 115.925781 L 238.730469 99.109375 C 238.730469 98.058594 237.882812 97.207031 236.828125 97.207031 C 235.777344 97.207031 234.925781 98.058594 234.925781 99.109375 L 234.925781 115.925781 C 234.925781 116.972656 235.777344 117.828125 236.828125 117.828125 C 237.882812 117.828125 238.730469 116.972656 238.730469 115.925781 Z M 238.730469 115.925781 " fill-opacity="1" fill-rule="nonzero"/><g clip-path="url(#27fe9fc904)"><path fill="#ffffff" d="M 300.476562 255.6875 C 297.164062 252.535156 292.675781 251.140625 286.777344 251.433594 C 268.277344 252.351562 247.347656 270.632812 233.644531 291.824219 C 236.695312 279.34375 238.585938 266.566406 238.714844 251.136719 C 261.707031 248.257812 275.523438 237.542969 279.738281 219.222656 C 279.742188 219.214844 279.738281 219.207031 279.738281 219.199219 C 279.742188 219.191406 279.746094 219.183594 279.75 219.171875 L 280.902344 213.488281 C 281.109375 212.457031 280.445312 211.457031 279.414062 211.246094 C 278.371094 211.035156 277.378906 211.703125 277.167969 212.734375 L 276.414062 216.445312 C 272.605469 215.472656 268.972656 214.988281 265.539062 215.019531 C 272.96875 209.574219 277.945312 202.417969 280.394531 193.574219 C 280.398438 193.566406 280.394531 193.5625 280.398438 193.554688 C 280.398438 193.546875 280.40625 193.542969 280.40625 193.53125 L 281.90625 187.613281 C 282.164062 186.59375 281.546875 185.558594 280.527344 185.300781 C 279.507812 185.039062 278.472656 185.660156 278.214844 186.679688 L 277.167969 190.8125 C 273.265625 189.957031 269.578125 189.539062 266.109375 189.558594 C 273.777344 184.148438 278.355469 177.039062 279.730469 168.234375 C 279.730469 168.230469 279.734375 168.230469 279.734375 168.226562 L 281.097656 162.160156 C 281.328125 161.132812 280.679688 160.117188 279.65625 159.886719 C 278.636719 159.660156 277.613281 160.304688 277.382812 161.328125 L 276.429688 165.589844 C 272.296875 164.789062 268.410156 164.429688 264.78125 164.53125 C 272.175781 159.0625 277.175781 151.585938 279.707031 142.132812 C 279.707031 142.128906 279.710938 142.128906 279.710938 142.125 L 281.890625 134.445312 C 282.175781 133.433594 281.589844 132.382812 280.578125 132.097656 C 279.574219 131.804688 278.515625 132.394531 278.230469 133.40625 L 276.578125 139.242188 C 272.46875 138.039062 268.585938 137.410156 264.953125 137.398438 C 272.769531 131.765625 277.730469 124.765625 279.722656 116.410156 C 279.722656 116.40625 279.726562 116.40625 279.726562 116.402344 L 281.503906 109.527344 C 281.769531 108.511719 281.15625 107.472656 280.140625 107.207031 C 279.125 106.945312 278.082031 107.558594 277.820312 108.574219 L 276.433594 113.925781 C 262.6875 113.0625 253.6875 113.988281 245.472656 120.285156 C 248.964844 108.308594 246.71875 95.9375 238.730469 86.566406 L 238.730469 80.074219 C 238.730469 79.027344 237.882812 78.171875 236.828125 78.171875 C 235.777344 78.171875 234.925781 79.027344 234.925781 80.074219 L 234.925781 86.566406 C 226.9375 95.9375 224.691406 108.308594 228.183594 120.285156 C 219.96875 113.988281 210.96875 113.058594 197.21875 113.925781 L 195.835938 108.574219 C 195.570312 107.554688 194.527344 106.949219 193.515625 107.207031 C 192.5 107.472656 191.886719 108.507812 192.148438 109.527344 L 193.929688 116.398438 C 193.929688 116.402344 193.933594 116.40625 193.933594 116.410156 C 195.925781 124.761719 200.886719 131.765625 208.703125 137.394531 C 205.070312 137.410156 201.191406 138.035156 197.078125 139.238281 L 195.425781 133.40625 C 195.136719 132.394531 194.078125 131.804688 193.078125 132.09375 C 192.066406 132.378906 191.476562 133.433594 191.765625 134.441406 L 193.941406 142.125 C 193.941406 142.125 193.945312 142.128906 193.945312 142.128906 C 196.476562 151.585938 201.480469 159.0625 208.875 164.53125 C 205.246094 164.429688 201.359375 164.789062 197.226562 165.589844 L 196.269531 161.324219 C 196.042969 160.300781 195.027344 159.660156 193.996094 159.886719 C 192.972656 160.117188 192.328125 161.132812 192.558594 162.15625 L 193.917969 168.222656 C 193.917969 168.226562 193.917969 168.230469 193.921875 168.234375 C 195.296875 177.035156 199.875 184.144531 207.542969 189.554688 C 204.074219 189.535156 200.386719 189.953125 196.488281 190.8125 L 195.441406 186.675781 C 195.179688 185.660156 194.140625 185.039062 193.128906 185.300781 C 192.109375 185.554688 191.492188 186.589844 191.75 187.613281 L 193.246094 193.53125 C 193.246094 193.539062 193.253906 193.542969 193.253906 193.554688 C 193.257812 193.558594 193.253906 193.566406 193.257812 193.570312 C 195.707031 202.417969 200.6875 209.574219 208.117188 215.019531 C 204.679688 214.984375 201.050781 215.472656 197.238281 216.445312 L 196.488281 212.734375 C 196.277344 211.703125 195.289062 211.039062 194.242188 211.246094 C 193.210938 211.457031 192.546875 212.457031 192.753906 213.488281 L 193.90625 219.171875 C 193.910156 219.183594 193.914062 219.191406 193.917969 219.199219 C 193.917969 219.207031 193.917969 219.214844 193.917969 219.222656 C 198.132812 237.53125 211.9375 248.246094 234.90625 251.132812 C 234.75 269.769531 231.957031 284.480469 227.644531 299.59375 C 223.527344 285.871094 215.335938 276.335938 204.527344 273.007812 C 191.742188 269.074219 169.839844 275.164062 160.148438 284.664062 C 159.429688 282.304688 158.671875 279.996094 157.90625 277.664062 C 157.222656 275.589844 156.550781 273.476562 155.890625 271.347656 C 177.347656 262.769531 187.988281 248.9375 187.464844 230.175781 C 187.464844 230.164062 187.457031 230.15625 187.457031 230.144531 C 187.457031 230.136719 187.460938 230.132812 187.460938 230.125 L 187.148438 224.335938 C 187.09375 223.285156 186.113281 222.480469 185.144531 222.539062 C 184.09375 222.59375 183.289062 223.492188 183.347656 224.542969 L 183.554688 228.324219 C 179.621094 228.339844 175.988281 228.78125 172.671875 229.675781 C 178.492188 222.539062 181.507812 214.363281 181.652344 205.1875 C 181.652344 205.179688 181.648438 205.171875 181.648438 205.164062 C 181.648438 205.15625 181.652344 205.152344 181.652344 205.144531 L 181.613281 199.039062 C 181.605469 197.992188 180.753906 197.148438 179.707031 197.148438 C 179.703125 197.148438 179.699219 197.148438 179.695312 197.148438 C 178.644531 197.152344 177.796875 198.011719 177.804688 199.0625 L 177.832031 203.324219 C 173.84375 203.476562 170.167969 204 166.8125 204.890625 C 172.878906 197.722656 175.519531 189.683594 174.632812 180.816406 L 174.425781 174.605469 C 174.390625 173.554688 173.546875 172.746094 172.457031 172.769531 C 171.410156 172.804688 170.585938 173.683594 170.621094 174.734375 L 170.769531 179.101562 C 166.570312 179.363281 162.71875 179.996094 159.234375 181.003906 C 165.007812 173.847656 167.972656 165.359375 168.042969 155.570312 C 168.042969 155.570312 168.042969 155.566406 168.042969 155.5625 L 168.21875 147.582031 C 168.242188 146.53125 167.40625 145.660156 166.355469 145.636719 C 165.316406 145.660156 164.433594 146.449219 164.410156 147.5 L 164.277344 153.5625 C 159.996094 153.429688 156.082031 153.800781 152.5625 154.703125 C 158.714844 147.285156 161.753906 139.257812 161.582031 130.667969 C 161.582031 130.667969 161.582031 130.664062 161.582031 130.664062 L 161.582031 130.625 L 161.570312 123.566406 C 161.570312 122.515625 160.71875 121.664062 159.667969 121.664062 C 158.613281 121.664062 157.765625 122.519531 157.765625 123.570312 L 157.773438 129.097656 C 144.246094 131.71875 135.773438 134.878906 129.40625 143.042969 C 129.773438 130.570312 124.488281 119.164062 114.398438 112.105469 L 112.765625 105.824219 C 112.5 104.804688 111.460938 104.199219 110.441406 104.460938 C 109.425781 104.726562 108.816406 105.765625 109.082031 106.78125 L 110.714844 113.0625 C 105.339844 124.140625 106.277344 136.679688 112.675781 147.394531 C 103.140625 143.367188 94.199219 144.730469 81.109375 149.027344 L 78.421875 144.199219 C 77.910156 143.28125 76.753906 142.949219 75.832031 143.460938 C 74.914062 143.972656 74.585938 145.128906 75.09375 146.046875 L 78.542969 152.25 C 78.546875 152.253906 78.550781 152.257812 78.550781 152.261719 C 82.582031 159.839844 89.136719 165.371094 98.117188 168.855469 C 94.605469 169.78125 91.011719 171.363281 87.339844 173.558594 L 84.273438 168.332031 C 83.742188 167.425781 82.574219 167.121094 81.671875 167.652344 C 80.761719 168.183594 80.460938 169.351562 80.992188 170.257812 L 85.015625 177.117188 C 85.015625 177.117188 85.019531 177.121094 85.019531 177.125 L 85.027344 177.140625 C 85.027344 177.140625 85.027344 177.144531 85.027344 177.144531 C 89.859375 185.664062 96.585938 191.636719 105.121094 195.074219 C 101.582031 195.886719 97.910156 197.210938 94.113281 199.027344 L 92.113281 195.144531 C 91.632812 194.207031 90.484375 193.835938 89.550781 194.320312 C 88.613281 194.800781 88.246094 195.949219 88.726562 196.882812 L 91.570312 202.410156 C 91.570312 202.414062 91.574219 202.414062 91.574219 202.417969 C 95.117188 210.585938 101.332031 216.324219 110.113281 219.628906 C 106.75 220.484375 103.292969 221.816406 99.738281 223.625 L 97.683594 219.886719 C 97.175781 218.960938 96.019531 218.628906 95.101562 219.132812 C 94.179688 219.640625 93.84375 220.796875 94.347656 221.71875 L 97.289062 227.070312 C 97.292969 227.078125 97.300781 227.082031 97.304688 227.089844 C 97.308594 227.097656 97.308594 227.101562 97.3125 227.105469 C 101.90625 235.050781 108.523438 240.722656 117.082031 244.125 C 113.75 244.957031 110.359375 246.339844 106.917969 248.242188 L 105.253906 244.839844 C 104.792969 243.894531 103.648438 243.5 102.710938 243.964844 C 101.765625 244.425781 101.375 245.566406 101.835938 246.507812 L 104.378906 251.71875 C 104.382812 251.726562 104.390625 251.734375 104.394531 251.742188 C 104.398438 251.75 104.398438 251.757812 104.402344 251.761719 C 111.777344 265.910156 124.453125 273.039062 142.167969 273.039062 C 145.34375 273.039062 148.699219 272.792969 152.199219 272.332031 C 152.886719 274.554688 153.585938 276.71875 154.289062 278.847656 C 157.257812 287.867188 160.082031 296.46875 160.820312 309.375 C 153.535156 298.949219 136.34375 277.867188 115.144531 275.839844 C 87.328125 273.1875 68.839844 300.484375 68.066406 301.648438 C 67.558594 302.410156 67.667969 303.429688 68.328125 304.066406 C 68.984375 304.707031 70.007812 304.785156 70.75 304.253906 C 70.957031 304.109375 91.621094 289.695312 114.859375 293.707031 C 137.859375 297.683594 147.796875 316.742188 147.894531 316.933594 C 148.21875 317.570312 148.878906 317.976562 149.59375 317.976562 L 162.914062 317.976562 C 163.144531 317.976562 163.359375 317.917969 163.570312 317.839844 C 163.625 317.824219 163.671875 317.800781 163.726562 317.777344 C 163.917969 317.683594 164.105469 317.570312 164.253906 317.417969 C 164.257812 317.417969 164.257812 317.414062 164.261719 317.414062 C 164.378906 317.296875 164.480469 317.164062 164.5625 317.015625 C 164.589844 316.972656 164.597656 316.925781 164.621094 316.882812 C 164.644531 316.828125 164.664062 316.777344 164.6875 316.71875 C 164.761719 316.511719 164.8125 316.300781 164.8125 316.085938 C 164.8125 316.078125 164.816406 316.074219 164.816406 316.070312 C 164.816406 316.066406 164.816406 316.0625 164.816406 316.0625 C 164.816406 316.0625 164.816406 316.058594 164.816406 316.058594 C 164.816406 304.9375 163.445312 296.765625 161.53125 289.496094 C 166.652344 287.058594 185.429688 279.117188 198.0625 287.085938 C 212.882812 296.441406 215.761719 316.128906 215.789062 316.328125 C 215.914062 317.269531 216.722656 317.972656 217.671875 317.972656 L 223.753906 317.972656 C 223.765625 317.972656 223.78125 317.972656 223.796875 317.972656 C 223.808594 317.972656 223.824219 317.972656 223.839844 317.972656 L 242.847656 317.972656 C 243.726562 317.972656 244.488281 317.371094 244.699219 316.515625 C 250.988281 290.636719 273.355469 265.648438 286.097656 265.164062 C 297.882812 264.722656 300.601562 276.90625 303.242188 288.699219 L 303.800781 291.195312 C 304.015625 292.136719 304.902344 292.777344 305.871094 292.660156 C 306.835938 292.554688 307.5625 291.738281 307.5625 290.769531 C 307.558594 275.566406 307.558594 262.425781 300.476562 255.6875 Z M 130.042969 172.289062 C 131.355469 171.566406 132.628906 170.835938 133.859375 170.09375 C 132.835938 172.160156 131.960938 174.417969 131.234375 176.871094 Z M 136.503906 197.136719 C 137.636719 196.652344 138.746094 196.152344 139.816406 195.636719 C 138.910156 197.207031 138.113281 198.890625 137.425781 200.679688 Z M 133.742188 201.636719 C 132.277344 200.414062 130.765625 199.335938 129.210938 198.410156 C 130.390625 198.339844 131.605469 198.214844 132.820312 198.089844 Z M 142.890625 221.699219 C 144.261719 221.066406 145.59375 220.421875 146.875 219.765625 C 145.769531 221.675781 144.808594 223.742188 144 225.980469 Z M 140.320312 226.933594 C 138.527344 225.375 136.679688 224.039062 134.785156 222.910156 C 136.226562 222.859375 137.703125 222.769531 139.207031 222.65625 Z M 149.394531 246.714844 C 150.84375 246.03125 152.246094 245.328125 153.597656 244.609375 C 152.449219 246.636719 151.449219 248.859375 150.574219 251.261719 Z M 146.894531 252.21875 C 144.964844 250.550781 143.007812 249.09375 141.015625 247.886719 C 142.550781 247.855469 144.113281 247.785156 145.714844 247.675781 Z M 183.671875 232.101562 C 183.453125 248.285156 173.976562 259.941406 154.84375 267.671875 L 152.417969 258.355469 C 156.648438 240.738281 166.878906 232.121094 183.671875 232.101562 Z M 148.421875 242.96875 L 145.902344 233.277344 C 149.46875 216.425781 159.898438 207.839844 177.761719 207.109375 C 176.777344 222.265625 167.132812 234.019531 148.421875 242.96875 Z M 141.917969 217.957031 L 139.273438 207.789062 C 142.703125 192.164062 153.078125 183.992188 170.96875 182.875 C 171.558594 196.855469 161.777344 208.640625 141.917969 217.957031 Z M 164.1875 157.332031 C 163.636719 169.316406 158.324219 178.902344 148.117188 186.351562 C 147.921875 186.496094 147.714844 186.628906 147.523438 186.777344 C 144.070312 189.222656 140.078125 191.429688 135.535156 193.414062 L 133.339844 184.964844 C 136.332031 165.84375 146.417969 156.78125 164.1875 157.332031 Z M 157.742188 132.980469 C 157.25 142.652344 152.226562 151.402344 142.519531 159.4375 C 141.964844 159.851562 141.410156 160.273438 140.890625 160.734375 C 137.472656 163.394531 133.53125 165.976562 129.058594 168.488281 L 126.324219 157.980469 C 127.042969 156.128906 127.628906 154.273438 128.097656 152.417969 C 133.734375 140.875 140.308594 136.460938 157.742188 132.980469 Z M 113.472656 116.121094 C 124.597656 124.738281 128.484375 139.71875 123.496094 154.664062 C 111.859375 144.042969 107.957031 129.066406 113.472656 116.121094 Z M 83.023438 152.40625 C 99.953125 146.953125 107.839844 147.609375 118.386719 154.949219 C 119.695312 156.339844 121.113281 157.671875 122.640625 158.941406 L 125.371094 169.449219 C 120.304688 169.441406 115.652344 169.125 111.414062 168.480469 C 110.542969 168.285156 109.664062 168.148438 108.78125 168.042969 C 96.613281 165.714844 88.105469 160.523438 83.023438 152.40625 Z M 125.820312 173.269531 C 126 173.269531 126.183594 173.265625 126.367188 173.265625 L 127.554688 177.832031 C 125.730469 176.042969 123.867188 174.503906 121.972656 173.195312 C 123.234375 173.242188 124.507812 173.269531 125.820312 173.269531 Z M 89.253906 176.816406 C 104.488281 167.683594 117.722656 170.679688 129.660156 185.925781 L 131.855469 194.371094 C 126.917969 194.855469 122.351562 194.871094 118.148438 194.414062 C 117.914062 194.382812 117.679688 194.363281 117.449219 194.332031 C 104.890625 192.800781 95.578125 187.015625 89.253906 176.816406 Z M 95.773438 202.425781 C 111.941406 194.6875 124.984375 196.773438 135.59375 208.75 L 138.238281 218.917969 C 116.339844 220.453125 102.066406 214.921875 95.773438 202.425781 Z M 101.644531 226.898438 C 108.675781 223.34375 115.1875 221.828125 121.246094 222.347656 C 121.28125 222.355469 121.320312 222.355469 121.355469 222.359375 C 129 223.050781 135.914062 227.011719 142.21875 234.238281 L 144.734375 243.925781 C 124.039062 245.222656 109.882812 239.65625 101.644531 226.898438 Z M 108.652344 251.605469 C 123.335938 243.445312 136.460938 245.984375 148.738281 259.316406 L 151.160156 268.628906 C 130.664062 271.199219 116.726562 265.632812 108.652344 251.605469 Z M 150.71875 314.175781 C 148.207031 309.855469 137.511719 293.765625 115.507812 289.964844 C 100.320312 287.339844 86.441406 291.902344 77.773438 295.96875 C 85.1875 288.339844 98.398438 278.058594 114.789062 279.636719 C 136.097656 281.675781 153.867188 305.773438 159.449219 314.175781 Z M 275.585938 220.128906 C 271.296875 235.742188 259.195312 244.636719 238.730469 247.300781 L 238.730469 237.675781 C 247.257812 221.6875 259.328125 215.929688 275.585938 220.128906 Z M 238.730469 230.34375 L 238.730469 225.652344 C 240.308594 225.355469 241.839844 225.03125 243.332031 224.671875 C 241.710938 226.339844 240.179688 228.242188 238.730469 230.34375 Z M 276.152344 194.457031 C 271.386719 208.875 259.09375 217.824219 238.730469 221.777344 L 238.730469 211.765625 C 246.425781 196.351562 258.691406 190.667969 276.152344 194.457031 Z M 238.730469 204.222656 L 238.730469 199.804688 C 240.21875 199.535156 241.667969 199.25 243.074219 198.9375 C 241.527344 200.503906 240.074219 202.257812 238.730469 204.222656 Z M 275.679688 169.292969 C 272.730469 182.972656 260.296875 191.914062 238.730469 195.9375 L 238.730469 185.429688 C 245.984375 171.171875 258.082031 165.867188 275.679688 169.292969 Z M 238.730469 178.085938 L 238.730469 174.425781 C 239.949219 174.238281 241.152344 174.035156 242.316406 173.804688 C 241.042969 175.097656 239.847656 176.523438 238.730469 178.085938 Z M 252.613281 166.933594 C 252.417969 167.011719 252.21875 167.082031 252.023438 167.164062 C 248.0625 168.664062 243.632812 169.800781 238.730469 170.578125 L 238.730469 161.851562 C 246.441406 144.09375 258.496094 137.859375 275.539062 142.867188 C 271.984375 154.347656 264.40625 162.292969 252.613281 166.933594 Z M 238.730469 153.484375 L 238.730469 148.75 C 240.183594 148.378906 241.601562 147.992188 242.976562 147.582031 C 241.46875 149.328125 240.050781 151.292969 238.730469 153.484375 Z M 275.429688 117.671875 C 272.523438 126.917969 265.453125 134.121094 254.027344 139.457031 C 253.390625 139.714844 252.757812 139.980469 252.140625 140.292969 C 248.167969 142.007812 243.695312 143.515625 238.730469 144.820312 L 238.730469 133.96875 C 239.890625 132.355469 240.929688 130.703125 241.84375 129.027344 C 250.207031 119.277344 257.679688 116.65625 275.429688 117.671875 Z M 236.828125 90.21875 C 245.425781 101.359375 245.421875 116.835938 236.828125 130.046875 C 228.234375 116.835938 228.230469 101.363281 236.828125 90.21875 Z M 198.226562 117.671875 C 215.980469 116.65625 223.449219 119.277344 231.8125 129.03125 C 232.730469 130.707031 233.769531 132.355469 234.925781 133.96875 L 234.925781 144.820312 C 229.964844 143.515625 225.492188 142.007812 221.515625 140.292969 C 220.902344 139.980469 220.265625 139.714844 219.628906 139.453125 C 208.207031 134.121094 201.136719 126.917969 198.226562 117.671875 Z M 234.925781 148.75 L 234.925781 153.484375 C 233.605469 151.289062 232.1875 149.328125 230.675781 147.582031 C 232.054688 147.992188 233.472656 148.378906 234.925781 148.75 Z M 198.117188 142.867188 C 215.15625 137.859375 227.214844 144.09375 234.925781 161.851562 L 234.925781 170.578125 C 230.023438 169.800781 225.59375 168.664062 221.632812 167.164062 C 221.441406 167.082031 221.246094 167.015625 221.050781 166.9375 C 209.253906 162.296875 201.671875 154.351562 198.117188 142.867188 Z M 234.925781 174.425781 L 234.925781 178.085938 C 233.808594 176.523438 232.613281 175.097656 231.339844 173.804688 C 232.507812 174.035156 233.707031 174.238281 234.925781 174.425781 Z M 197.980469 169.292969 C 215.574219 165.871094 227.671875 171.167969 234.925781 185.429688 L 234.925781 195.9375 C 213.359375 191.914062 200.925781 182.972656 197.980469 169.292969 Z M 234.925781 199.804688 L 234.925781 204.222656 C 233.582031 202.261719 232.128906 200.507812 230.582031 198.9375 C 231.988281 199.25 233.4375 199.535156 234.925781 199.804688 Z M 197.503906 194.457031 C 214.976562 190.671875 227.230469 196.351562 234.925781 211.769531 L 234.925781 221.78125 C 214.5625 217.824219 202.269531 208.875 197.503906 194.457031 Z M 234.925781 225.652344 L 234.925781 230.34375 C 233.476562 228.246094 231.945312 226.34375 230.324219 224.671875 C 231.816406 225.027344 233.347656 225.355469 234.925781 225.652344 Z M 198.074219 220.128906 C 214.332031 215.925781 226.398438 221.691406 234.925781 237.679688 L 234.925781 247.300781 C 214.460938 244.636719 202.359375 235.742188 198.074219 220.128906 Z M 222.441406 314.175781 L 219.273438 314.175781 C 218.234375 308.929688 213.976562 292.640625 200.09375 283.878906 C 190.894531 278.074219 179.339844 279.46875 170.71875 281.941406 C 180.480469 276.886719 194.304688 273.84375 203.40625 276.644531 C 214.425781 280.035156 222.449219 290.960938 225.476562 306.664062 C 224.332031 309.183594 223.316406 311.695312 222.441406 314.175781 Z M 285.953125 261.371094 C 270.664062 261.953125 248.128906 288.816406 241.367188 314.175781 L 226.488281 314.175781 C 227.257812 312.078125 228.125 309.988281 229.066406 307.914062 C 229.15625 307.773438 229.226562 307.621094 229.273438 307.457031 C 241.753906 280.402344 267.78125 256.1875 286.964844 255.234375 C 291.761719 254.996094 295.332031 256.046875 297.855469 258.441406 C 301.339844 261.761719 302.765625 267.65625 303.347656 274.757812 C 300.421875 267.128906 295.5625 261.007812 285.953125 261.371094 Z M 285.953125 261.371094 " fill-opacity="1" fill-rule="nonzero"/></g><path fill="#ffffff" d="M 207.253906 224.808594 C 206.242188 224.496094 205.183594 225.058594 204.875 226.0625 C 204.5625 227.066406 205.125 228.132812 206.128906 228.445312 C 212.339844 230.367188 218.566406 233.507812 224.632812 237.769531 C 224.96875 238.003906 225.351562 238.117188 225.726562 238.117188 C 226.324219 238.117188 226.914062 237.835938 227.285156 237.308594 C 227.890625 236.445312 227.683594 235.257812 226.824219 234.65625 C 220.429688 230.164062 213.847656 226.847656 207.253906 224.808594 Z M 207.253906 224.808594 " fill-opacity="1" fill-rule="nonzero"/><path fill="#ffffff" d="M 207.253906 198.535156 C 206.242188 198.21875 205.183594 198.785156 204.875 199.789062 C 204.5625 200.792969 205.125 201.859375 206.128906 202.167969 C 212.339844 204.09375 218.566406 207.230469 224.632812 211.496094 C 224.96875 211.730469 225.351562 211.84375 225.726562 211.84375 C 226.324219 211.84375 226.914062 211.558594 227.285156 211.03125 C 227.890625 210.171875 227.683594 208.984375 226.824219 208.382812 C 220.429688 203.886719 213.847656 200.574219 207.253906 198.535156 Z M 207.253906 198.535156 " fill-opacity="1" fill-rule="nonzero"/><path fill="#ffffff" d="M 207.253906 172.261719 C 206.242188 171.945312 205.183594 172.511719 204.875 173.515625 C 204.5625 174.519531 205.125 175.585938 206.128906 175.894531 C 212.339844 177.820312 218.566406 180.957031 224.632812 185.222656 C 224.96875 185.457031 225.351562 185.566406 225.726562 185.566406 C 226.324219 185.566406 226.914062 185.285156 227.285156 184.757812 C 227.890625 183.898438 227.683594 182.710938 226.824219 182.109375 C 220.429688 177.613281 213.847656 174.300781 207.253906 172.261719 Z M 207.253906 172.261719 " fill-opacity="1" fill-rule="nonzero"/><path fill="#ffffff" d="M 225.726562 159.292969 C 226.324219 159.292969 226.914062 159.011719 227.285156 158.484375 C 227.890625 157.625 227.683594 156.4375 226.824219 155.832031 C 220.429688 151.335938 213.847656 148.023438 207.253906 145.984375 C 206.242188 145.667969 205.183594 146.234375 204.875 147.238281 C 204.5625 148.242188 205.125 149.308594 206.128906 149.617188 C 212.339844 151.542969 218.566406 154.683594 224.632812 158.945312 C 224.96875 159.179688 225.351562 159.292969 225.726562 159.292969 Z M 225.726562 159.292969 " fill-opacity="1" fill-rule="nonzero"/><path fill="#ffffff" d="M 225.476562 134.183594 C 226.074219 134.183594 226.664062 133.902344 227.035156 133.375 C 227.636719 132.515625 227.433594 131.328125 226.570312 130.722656 C 220.1875 126.230469 213.601562 122.917969 207.003906 120.875 C 206 120.554688 204.933594 121.125 204.625 122.128906 C 204.3125 123.132812 204.875 124.199219 205.878906 124.507812 C 212.097656 126.433594 218.320312 129.574219 224.382812 133.835938 C 224.714844 134.070312 225.097656 134.183594 225.476562 134.183594 Z M 225.476562 134.183594 " fill-opacity="1" fill-rule="nonzero"/><path fill="#ffffff" d="M 247.929688 238.117188 C 248.304688 238.117188 248.6875 238.007812 249.019531 237.773438 C 255.089844 233.507812 261.3125 230.371094 267.527344 228.445312 C 268.53125 228.136719 269.09375 227.070312 268.78125 226.066406 C 268.472656 225.0625 267.410156 224.5 266.402344 224.8125 C 259.808594 226.851562 253.222656 230.167969 246.832031 234.660156 C 245.972656 235.261719 245.765625 236.449219 246.371094 237.3125 C 246.742188 237.835938 247.332031 238.117188 247.929688 238.117188 Z M 247.929688 238.117188 " fill-opacity="1" fill-rule="nonzero"/><path fill="#ffffff" d="M 247.929688 211.84375 C 248.304688 211.84375 248.6875 211.730469 249.019531 211.496094 C 255.089844 207.230469 261.3125 204.09375 267.527344 202.167969 C 268.53125 201.859375 269.09375 200.792969 268.78125 199.789062 C 268.472656 198.785156 267.410156 198.222656 266.402344 198.535156 C 259.808594 200.578125 253.222656 203.890625 246.832031 208.382812 C 245.972656 208.988281 245.765625 210.175781 246.371094 211.035156 C 246.742188 211.558594 247.332031 211.84375 247.929688 211.84375 Z M 247.929688 211.84375 " fill-opacity="1" fill-rule="nonzero"/><path fill="#ffffff" d="M 247.929688 185.566406 C 248.304688 185.566406 248.6875 185.457031 249.019531 185.222656 C 255.089844 180.957031 261.3125 177.820312 267.527344 175.894531 C 268.53125 175.585938 269.09375 174.519531 268.78125 173.515625 C 268.472656 172.511719 267.410156 171.949219 266.402344 172.261719 C 259.808594 174.300781 253.222656 177.617188 246.832031 182.109375 C 245.972656 182.710938 245.765625 183.898438 246.371094 184.761719 C 246.742188 185.285156 247.332031 185.566406 247.929688 185.566406 Z M 247.929688 185.566406 " fill-opacity="1" fill-rule="nonzero"/><path fill="#ffffff" d="M 246.371094 158.484375 C 246.742188 159.011719 247.332031 159.292969 247.929688 159.292969 C 248.304688 159.292969 248.6875 159.179688 249.019531 158.945312 C 255.089844 154.683594 261.3125 151.546875 267.527344 149.621094 C 268.53125 149.3125 269.09375 148.246094 268.78125 147.238281 C 268.472656 146.238281 267.410156 145.671875 266.402344 145.984375 C 259.808594 148.027344 253.222656 151.339844 246.832031 155.835938 C 245.972656 156.4375 245.765625 157.625 246.371094 158.484375 Z M 246.371094 158.484375 " fill-opacity="1" fill-rule="nonzero"/><path fill="#ffffff" d="M 248.179688 134.183594 C 248.554688 134.183594 248.9375 134.070312 249.273438 133.835938 C 255.335938 129.574219 261.5625 126.433594 267.78125 124.511719 C 268.78125 124.199219 269.34375 123.136719 269.035156 122.128906 C 268.722656 121.128906 267.660156 120.558594 266.652344 120.875 C 260.058594 122.917969 253.472656 126.230469 247.082031 130.726562 C 246.222656 131.328125 246.015625 132.515625 246.621094 133.375 C 246.992188 133.902344 247.582031 134.183594 248.179688 134.183594 Z M 248.179688 134.183594 " fill-opacity="1" fill-rule="nonzero"/><path fill="#ffffff" d="M 121.785156 140.519531 L 117.554688 124.25 C 117.289062 123.230469 116.25 122.621094 115.230469 122.886719 C 114.214844 123.152344 113.605469 124.191406 113.871094 125.207031 L 118.101562 141.476562 C 118.324219 142.332031 119.09375 142.902344 119.941406 142.902344 C 120.101562 142.902344 120.261719 142.882812 120.421875 142.839844 C 121.4375 142.574219 122.046875 141.535156 121.785156 140.519531 Z M 121.785156 140.519531 " fill-opacity="1" fill-rule="nonzero"/><path fill="#ffffff" d="M 140.132812 258.429688 C 132.820312 255.6875 125.613281 254.136719 118.714844 253.820312 C 117.683594 253.800781 116.777344 254.582031 116.726562 255.632812 C 116.679688 256.683594 117.492188 257.574219 118.542969 257.621094 C 125.042969 257.921875 131.855469 259.394531 138.800781 261.992188 C 139.019531 262.074219 139.242188 262.113281 139.46875 262.113281 C 140.238281 262.113281 140.964844 261.640625 141.25 260.878906 C 141.617188 259.894531 141.121094 258.796875 140.132812 258.429688 Z M 140.132812 258.429688 " fill-opacity="1" fill-rule="nonzero"/><path fill="#ffffff" d="M 133.523438 233 C 126.210938 230.261719 119.003906 228.710938 112.105469 228.394531 C 111.046875 228.367188 110.164062 229.15625 110.117188 230.207031 C 110.070312 231.257812 110.882812 232.148438 111.933594 232.195312 C 118.429688 232.496094 125.246094 233.964844 132.191406 236.566406 C 132.410156 236.648438 132.632812 236.6875 132.859375 236.6875 C 133.628906 236.6875 134.355469 236.214844 134.640625 235.453125 C 135.007812 234.464844 134.507812 233.367188 133.523438 233 Z M 133.523438 233 " fill-opacity="1" fill-rule="nonzero"/><path fill="#ffffff" d="M 126.914062 207.570312 C 119.597656 204.828125 112.390625 203.277344 105.496094 202.960938 C 104.480469 202.925781 103.554688 203.726562 103.507812 204.773438 C 103.457031 205.824219 104.269531 206.714844 105.320312 206.765625 C 111.820312 207.0625 118.636719 208.53125 125.578125 211.132812 C 125.796875 211.214844 126.019531 211.253906 126.246094 211.253906 C 127.015625 211.253906 127.742188 210.785156 128.03125 210.019531 C 128.394531 209.035156 127.898438 207.9375 126.914062 207.570312 Z M 126.914062 207.570312 " fill-opacity="1" fill-rule="nonzero"/><path fill="#ffffff" d="M 118.964844 185.707031 C 119.183594 185.789062 119.410156 185.828125 119.632812 185.828125 C 120.40625 185.828125 121.128906 185.355469 121.417969 184.59375 C 121.785156 183.605469 121.289062 182.511719 120.300781 182.140625 C 112.988281 179.402344 105.78125 177.851562 98.886719 177.535156 C 97.84375 177.492188 96.945312 178.296875 96.894531 179.347656 C 96.847656 180.398438 97.660156 181.289062 98.710938 181.335938 C 105.210938 181.632812 112.023438 183.105469 118.964844 185.707031 Z M 118.964844 185.707031 " fill-opacity="1" fill-rule="nonzero"/><path fill="#ffffff" d="M 112.40625 161.464844 C 112.625 161.546875 112.851562 161.589844 113.074219 161.589844 C 113.847656 161.589844 114.570312 161.117188 114.859375 160.351562 C 115.226562 159.367188 114.730469 158.269531 113.742188 157.902344 C 106.425781 155.160156 99.222656 153.613281 92.328125 153.292969 C 91.273438 153.261719 90.382812 154.058594 90.335938 155.109375 C 90.289062 156.160156 91.101562 157.050781 92.152344 157.097656 C 98.648438 157.394531 105.460938 158.863281 112.40625 161.464844 Z M 112.40625 161.464844 " fill-opacity="1" fill-rule="nonzero"/><path fill="#ffffff" d="M 159.71875 256.078125 C 160.078125 256.382812 160.515625 256.53125 160.949219 256.53125 C 161.488281 256.53125 162.023438 256.300781 162.402344 255.859375 C 167.199219 250.203125 172.4375 245.601562 177.964844 242.175781 C 178.859375 241.621094 179.132812 240.449219 178.578125 239.554688 C 178.03125 238.664062 176.855469 238.386719 175.960938 238.941406 C 170.09375 242.574219 164.554688 247.4375 159.5 253.398438 C 158.820312 254.195312 158.917969 255.394531 159.71875 256.078125 Z M 159.71875 256.078125 " fill-opacity="1" fill-rule="nonzero"/><path fill="#ffffff" d="M 153.109375 230.644531 C 153.464844 230.949219 153.902344 231.097656 154.339844 231.097656 C 154.878906 231.097656 155.414062 230.871094 155.792969 230.425781 C 160.589844 224.773438 165.828125 220.167969 171.355469 216.746094 C 172.25 216.191406 172.523438 215.019531 171.96875 214.125 C 171.417969 213.230469 170.246094 212.957031 169.351562 213.507812 C 163.484375 217.140625 157.949219 222.003906 152.890625 227.964844 C 152.207031 228.765625 152.308594 229.964844 153.109375 230.644531 Z M 153.109375 230.644531 " fill-opacity="1" fill-rule="nonzero"/><path fill="#ffffff" d="M 146.496094 205.214844 C 146.855469 205.519531 147.292969 205.667969 147.726562 205.667969 C 148.265625 205.667969 148.800781 205.441406 149.179688 204.996094 C 153.976562 199.34375 159.214844 194.738281 164.742188 191.316406 C 165.636719 190.761719 165.910156 189.589844 165.359375 188.695312 C 164.804688 187.800781 163.632812 187.527344 162.738281 188.078125 C 156.875 191.714844 151.335938 196.578125 146.277344 202.535156 C 145.597656 203.335938 145.695312 204.539062 146.496094 205.214844 Z M 146.496094 205.214844 " fill-opacity="1" fill-rule="nonzero"/><path fill="#ffffff" d="M 139.882812 179.789062 C 140.242188 180.09375 140.679688 180.242188 141.117188 180.242188 C 141.65625 180.242188 142.191406 180.011719 142.566406 179.570312 C 147.367188 173.914062 152.605469 169.308594 158.132812 165.886719 C 159.027344 165.332031 159.300781 164.160156 158.746094 163.265625 C 158.195312 162.371094 157.023438 162.097656 156.128906 162.652344 C 150.261719 166.285156 144.726562 171.148438 139.664062 177.105469 C 138.988281 177.90625 139.082031 179.109375 139.882812 179.789062 Z M 139.882812 179.789062 " fill-opacity="1" fill-rule="nonzero"/><path fill="#ffffff" d="M 133.808594 155.425781 C 134.167969 155.726562 134.605469 155.875 135.039062 155.875 C 135.578125 155.875 136.113281 155.648438 136.492188 155.203125 C 141.292969 149.550781 146.527344 144.945312 152.054688 141.523438 C 152.949219 140.96875 153.222656 139.796875 152.671875 138.902344 C 152.121094 138.011719 150.945312 137.734375 150.050781 138.285156 C 144.1875 141.921875 138.648438 146.78125 133.589844 152.742188 C 132.910156 153.542969 133.007812 154.742188 133.808594 155.425781 Z M 133.808594 155.425781 " fill-opacity="1" fill-rule="nonzero"/></svg>