<svg xmlns="http://www.w3.org/2000/svg" xmlns:xlink="http://www.w3.org/1999/xlink" width="500" zoomAndPan="magnify" viewBox="0 0 375 374.999991" height="500" preserveAspectRatio="xMidYMid meet" version="1.0"><defs><clipPath id="3051175937"><path d="M 187.5 0 C 83.945312 0 0 83.945312 0 187.5 C 0 291.054688 83.945312 375 187.5 375 C 291.054688 375 375 291.054688 375 187.5 C 375 83.945312 291.054688 0 187.5 0 Z M 187.5 0 " clip-rule="nonzero"/></clipPath><clipPath id="3b58e2ee99"><path d="M 55.109375 152 L 126 152 L 126 257 L 55.109375 257 Z M 55.109375 152 " clip-rule="nonzero"/></clipPath><clipPath id="d624954a04"><path d="M 249 152 L 319.859375 152 L 319.859375 257 L 249 257 Z M 249 152 " clip-rule="nonzero"/></clipPath><clipPath id="7342fe9fb9"><path d="M 152 274 L 214 274 L 214 307.6875 L 152 307.6875 Z M 152 274 " clip-rule="nonzero"/></clipPath><clipPath id="5e9f376399"><path d="M 129 67.6875 L 246 67.6875 L 246 177 L 129 177 Z M 129 67.6875 " clip-rule="nonzero"/></clipPath><clipPath id="d7a6e29239"><path d="M 159 67.6875 L 216 67.6875 L 216 173 L 159 173 Z M 159 67.6875 " clip-rule="nonzero"/></clipPath></defs><g clip-path="url(#3051175937)"><rect x="-37.5" width="450" fill="#f47c2e" y="-37.499999" height="449.999989" fill-opacity="1"/></g><g clip-path="url(#3b58e2ee99)"><path fill="#ffffff" d="M 93.460938 256.71875 C 92.640625 256.71875 91.808594 256.605469 90.980469 256.378906 L 62.222656 248.355469 C 59.8125 247.683594 57.8125 246.109375 56.59375 243.921875 C 55.371094 241.734375 55.082031 239.199219 55.777344 236.792969 L 78.003906 159.589844 C 79.410156 154.695312 84.542969 151.824219 89.441406 153.191406 L 118.199219 161.210938 C 120.609375 161.882812 122.609375 163.460938 123.828125 165.648438 C 125.050781 167.835938 125.339844 170.367188 124.644531 172.777344 L 102.417969 249.980469 C 101.246094 254.046875 97.503906 256.71875 93.460938 256.71875 Z M 92.589844 250.585938 C 94.332031 251.070312 96.152344 250.050781 96.652344 248.3125 L 118.878906 171.109375 C 119.125 170.253906 119.023438 169.355469 118.589844 168.578125 C 118.15625 167.800781 117.445312 167.242188 116.589844 167.003906 L 87.832031 158.984375 C 86.09375 158.5 84.269531 159.515625 83.769531 161.253906 L 61.542969 238.457031 C 61.296875 239.3125 61.398438 240.210938 61.832031 240.988281 C 62.265625 241.765625 62.976562 242.328125 63.832031 242.566406 Z M 92.589844 250.585938 " fill-opacity="1" fill-rule="nonzero"/></g><path fill="#ffffff" d="M 82.957031 242.625 C 82.046875 242.625 81.136719 242.503906 80.238281 242.25 C 77.648438 241.53125 75.496094 239.839844 74.171875 237.492188 C 72.851562 235.148438 72.519531 232.425781 73.242188 229.832031 C 73.964844 227.238281 75.648438 225.078125 77.992188 223.757812 C 80.332031 222.433594 83.050781 222.097656 85.640625 222.824219 C 88.230469 223.546875 90.386719 225.234375 91.707031 227.582031 C 93.027344 229.925781 93.359375 232.648438 92.636719 235.242188 C 91.917969 237.835938 90.230469 239.996094 87.886719 241.320312 C 86.355469 242.183594 84.667969 242.625 82.957031 242.625 Z M 82.941406 228.464844 C 81.160156 228.464844 79.523438 229.644531 79.023438 231.445312 C 78.730469 232.492188 78.867188 233.589844 79.398438 234.539062 C 79.933594 235.484375 80.800781 236.167969 81.847656 236.457031 C 82.894531 236.753906 83.992188 236.617188 84.9375 236.082031 C 85.882812 235.546875 86.566406 234.675781 86.855469 233.628906 C 87.148438 232.582031 87.011719 231.484375 86.480469 230.535156 C 85.945312 229.585938 85.078125 228.90625 84.03125 228.613281 C 83.667969 228.511719 83.300781 228.464844 82.941406 228.464844 Z M 82.941406 228.464844 " fill-opacity="1" fill-rule="nonzero"/><g clip-path="url(#d624954a04)"><path fill="#ffffff" d="M 281.449219 256.71875 C 277.40625 256.71875 273.660156 254.046875 272.492188 249.980469 L 250.261719 172.773438 C 249.570312 170.367188 249.859375 167.835938 251.078125 165.648438 C 252.296875 163.460938 254.296875 161.882812 256.707031 161.210938 L 285.46875 153.191406 L 285.464844 153.191406 C 290.367188 151.824219 295.496094 154.695312 296.90625 159.589844 L 319.132812 236.792969 C 319.824219 239.203125 319.535156 241.734375 318.316406 243.921875 C 317.097656 246.109375 315.097656 247.683594 312.6875 248.355469 L 283.929688 256.375 C 283.101562 256.609375 282.269531 256.71875 281.449219 256.71875 Z M 287.957031 158.863281 C 287.667969 158.863281 287.371094 158.902344 287.078125 158.984375 L 258.316406 167.003906 C 257.460938 167.242188 256.753906 167.800781 256.320312 168.578125 C 255.886719 169.355469 255.78125 170.253906 256.03125 171.109375 L 278.257812 248.3125 C 278.757812 250.050781 280.578125 251.070312 282.320312 250.585938 L 311.078125 242.566406 C 311.933594 242.328125 312.644531 241.765625 313.078125 240.988281 C 313.511719 240.210938 313.613281 239.3125 313.367188 238.457031 L 291.136719 161.253906 C 290.722656 159.808594 289.394531 158.863281 287.957031 158.863281 Z M 286.273438 156.085938 L 286.277344 156.085938 Z M 286.273438 156.085938 " fill-opacity="1" fill-rule="nonzero"/></g><path fill="#ffffff" d="M 277.429688 190.304688 C 273.023438 190.304688 268.96875 187.382812 267.730469 182.925781 C 267.007812 180.332031 267.339844 177.609375 268.660156 175.265625 C 269.980469 172.917969 272.136719 171.230469 274.726562 170.507812 C 277.316406 169.785156 280.035156 170.117188 282.375 171.4375 C 284.714844 172.761719 286.402344 174.921875 287.125 177.515625 C 288.613281 182.871094 285.472656 188.441406 280.125 189.933594 C 279.226562 190.1875 278.320312 190.304688 277.429688 190.304688 Z M 277.433594 176.148438 C 277.066406 176.148438 276.699219 176.199219 276.335938 176.296875 C 275.289062 176.589844 274.421875 177.273438 273.886719 178.21875 C 273.351562 179.167969 273.21875 180.265625 273.511719 181.3125 C 273.800781 182.359375 274.484375 183.230469 275.429688 183.765625 C 276.375 184.300781 277.46875 184.433594 278.515625 184.144531 C 279.5625 183.851562 280.433594 183.167969 280.96875 182.222656 C 281.5 181.277344 281.632812 180.175781 281.34375 179.128906 C 281.050781 178.082031 280.371094 177.210938 279.425781 176.675781 C 278.808594 176.324219 278.125 176.148438 277.433594 176.148438 Z M 277.433594 176.148438 " fill-opacity="1" fill-rule="nonzero"/><path fill="#ffffff" d="M 245.980469 257.113281 C 244.371094 257.113281 243.039062 255.835938 242.980469 254.214844 C 242.921875 252.554688 244.214844 251.164062 245.867188 251.101562 C 246.019531 251.097656 260.851562 250.4375 272.433594 242.40625 C 273.796875 241.460938 275.667969 241.804688 276.609375 243.167969 C 277.554688 244.535156 277.214844 246.40625 275.851562 247.351562 C 262.785156 256.40625 246.765625 257.085938 246.089844 257.109375 C 246.050781 257.109375 246.015625 257.113281 245.980469 257.113281 Z M 245.980469 257.113281 " fill-opacity="1" fill-rule="nonzero"/><path fill="#ffffff" d="M 110.574219 253.621094 C 109.804688 253.621094 109.039062 253.328125 108.453125 252.738281 L 99.558594 243.828125 C 98.386719 242.65625 98.386719 240.753906 99.558594 239.578125 C 100.730469 238.40625 102.628906 238.40625 103.800781 239.578125 L 112.695312 248.488281 C 113.867188 249.664062 113.867188 251.566406 112.695312 252.738281 C 112.109375 253.328125 111.34375 253.621094 110.574219 253.621094 Z M 110.574219 253.621094 " fill-opacity="1" fill-rule="nonzero"/><g clip-path="url(#7342fe9fb9)"><path fill="#ffffff" d="M 169.476562 307.511719 C 165.558594 307.511719 161.640625 306.015625 158.660156 303.027344 L 153.539062 297.902344 C 152.367188 296.726562 152.367188 294.824219 153.539062 293.652344 C 154.710938 292.476562 156.609375 292.476562 157.785156 293.652344 L 162.902344 298.777344 C 166.527344 302.40625 172.421875 302.40625 176.046875 298.777344 C 177.804688 297.027344 178.769531 294.691406 178.769531 292.199219 C 178.769531 290.988281 178.539062 289.808594 178.089844 288.691406 C 177.625 287.542969 176.941406 286.507812 176.046875 285.613281 C 174.875 284.441406 174.875 282.535156 176.046875 281.363281 C 177.21875 280.1875 179.117188 280.1875 180.289062 281.363281 L 191.6875 292.773438 C 195.3125 296.402344 201.207031 296.402344 204.832031 292.773438 C 206.589844 291.015625 207.554688 288.675781 207.554688 286.1875 C 207.554688 283.703125 206.589844 281.363281 204.832031 279.605469 C 203.660156 278.433594 203.660156 276.53125 204.832031 275.355469 C 206.003906 274.183594 207.90625 274.183594 209.078125 275.355469 C 211.964844 278.25 213.558594 282.097656 213.558594 286.1875 C 213.558594 290.28125 211.964844 294.128906 209.078125 297.023438 C 203.113281 303 193.40625 303 187.445312 297.023438 L 184.640625 294.21875 C 184.207031 297.554688 182.699219 300.628906 180.285156 303.035156 C 177.308594 306.019531 173.394531 307.511719 169.476562 307.511719 Z M 169.476562 307.511719 " fill-opacity="1" fill-rule="nonzero"/></g><path fill="#ffffff" d="M 220.65625 289.109375 C 216.570312 289.109375 212.730469 287.515625 209.839844 284.621094 L 181.84375 256.578125 C 180.671875 255.40625 180.671875 253.5 181.84375 252.328125 C 183.015625 251.152344 184.914062 251.152344 186.085938 252.328125 L 214.082031 280.371094 C 215.839844 282.128906 218.171875 283.097656 220.65625 283.097656 C 223.140625 283.097656 225.472656 282.128906 227.230469 280.371094 C 230.851562 276.742188 230.851562 270.832031 227.230469 267.203125 L 199.230469 239.160156 C 198.058594 237.988281 198.058594 236.085938 199.230469 234.910156 C 200.402344 233.738281 202.304688 233.738281 203.476562 234.910156 L 231.472656 262.953125 C 237.4375 268.925781 237.4375 278.648438 231.472656 284.621094 C 228.582031 287.515625 224.742188 289.109375 220.65625 289.109375 Z M 220.65625 289.109375 " fill-opacity="1" fill-rule="nonzero"/><path fill="#ffffff" d="M 233.84375 267.484375 C 229.757812 267.484375 225.917969 265.890625 223.027344 262.992188 C 221.855469 261.820312 221.855469 259.917969 223.027344 258.742188 C 224.199219 257.570312 226.101562 257.570312 227.273438 258.742188 C 229.027344 260.503906 231.363281 261.472656 233.84375 261.472656 C 236.328125 261.472656 238.660156 260.503906 240.417969 258.742188 C 241.8125 257.34375 242.710938 255.574219 243.015625 253.636719 C 243.097656 253.140625 243.136719 252.65625 243.136719 252.160156 C 243.136719 249.675781 242.171875 247.335938 240.414062 245.574219 L 195.964844 201.050781 C 192.730469 197.808594 187.988281 196.566406 183.582031 197.808594 C 181.324219 198.445312 179.289062 199.695312 177.699219 201.425781 L 163.847656 216.492188 C 163.820312 216.523438 163.789062 216.554688 163.761719 216.582031 C 157.246094 223.109375 146.644531 223.109375 140.128906 216.582031 C 134.894531 211.339844 133.710938 203.429688 137.183594 196.894531 C 141.632812 188.515625 149.328125 177.019531 160.707031 169.839844 C 160.75 169.8125 160.792969 169.789062 160.835938 169.761719 C 170.195312 163.894531 180.449219 161.921875 191.316406 163.894531 C 192.949219 164.132812 215.5625 167.617188 233.304688 179.796875 L 252.527344 171.472656 C 254.046875 170.816406 255.816406 171.515625 256.472656 173.039062 C 257.132812 174.5625 256.429688 176.332031 254.910156 176.992188 L 234.144531 185.984375 C 233.171875 186.402344 232.050781 186.277344 231.195312 185.660156 C 214.1875 173.34375 190.644531 169.875 190.410156 169.839844 C 190.371094 169.835938 190.332031 169.828125 190.292969 169.820312 C 180.886719 168.101562 172.007812 169.816406 163.914062 174.925781 C 163.875 174.949219 163.835938 174.976562 163.792969 174.996094 C 153.589844 181.480469 146.574219 192.011719 142.480469 199.71875 C 140.257812 203.902344 141.019531 208.972656 144.371094 212.332031 C 148.53125 216.5 155.296875 216.511719 159.476562 212.371094 L 173.285156 197.351562 C 175.628906 194.804688 178.625 192.960938 181.957031 192.023438 C 188.445312 190.191406 195.441406 192.023438 200.207031 196.800781 L 244.660156 241.324219 C 247.550781 244.226562 249.140625 248.074219 249.140625 252.160156 C 249.140625 252.988281 249.074219 253.8125 248.9375 254.605469 C 248.441406 257.773438 246.960938 260.683594 244.664062 262.992188 C 241.773438 265.890625 237.929688 267.484375 233.84375 267.484375 Z M 233.84375 267.484375 " fill-opacity="1" fill-rule="nonzero"/><path fill="#ffffff" d="M 120.644531 179.171875 C 119.277344 179.171875 118.039062 178.226562 117.722656 176.832031 C 117.355469 175.214844 118.367188 173.605469 119.984375 173.234375 C 139.492188 168.785156 161.433594 169.351562 162.386719 169.378906 C 164.007812 169.417969 165.3125 170.746094 165.3125 172.382812 C 165.3125 174.070312 163.914062 175.433594 162.226562 175.386719 C 161.320312 175.363281 140.105469 174.8125 121.316406 179.097656 C 121.089844 179.148438 120.867188 179.171875 120.644531 179.171875 Z M 120.644531 179.171875 " fill-opacity="1" fill-rule="nonzero"/><g clip-path="url(#5e9f376399)"><path fill="#ffffff" d="M 215.660156 176.871094 C 214.636719 176.871094 213.640625 176.34375 213.078125 175.398438 C 212.230469 173.972656 212.699219 172.128906 214.125 171.28125 C 229.921875 161.875 239.738281 144.617188 239.738281 126.234375 C 239.738281 97.574219 216.46875 74.085938 187.867188 73.875 C 187.824219 73.875 187.777344 73.875 187.734375 73.871094 C 187.640625 73.867188 187.550781 73.867188 187.457031 73.867188 C 187.363281 73.867188 187.277344 73.867188 187.183594 73.871094 C 187.136719 73.875 187.09375 73.875 187.046875 73.875 C 158.441406 74.085938 135.171875 97.574219 135.171875 126.234375 C 135.171875 135.445312 137.59375 144.496094 142.171875 152.40625 C 146.183594 159.371094 151.835938 165.402344 158.523438 169.855469 C 159.902344 170.773438 160.277344 172.640625 159.359375 174.023438 C 158.441406 175.402344 156.578125 175.78125 155.199219 174.859375 C 147.746094 169.898438 141.445312 163.175781 136.976562 155.417969 C 131.871094 146.597656 129.171875 136.503906 129.171875 126.234375 C 129.171875 110.71875 135.179688 96.109375 146.09375 85.101562 C 156.988281 74.117188 171.492188 67.996094 186.945312 67.863281 C 187.289062 67.851562 187.625 67.851562 187.972656 67.863281 C 203.421875 67.996094 217.925781 74.117188 228.816406 85.101562 C 239.730469 96.113281 245.738281 110.71875 245.738281 126.234375 C 245.738281 146.726562 234.800781 165.96875 217.191406 176.449219 C 216.710938 176.734375 216.179688 176.871094 215.660156 176.871094 Z M 215.660156 176.871094 " fill-opacity="1" fill-rule="nonzero"/></g><g clip-path="url(#d7a6e29239)"><path fill="#ffffff" d="M 203.011719 172.582031 C 202.511719 172.582031 202.003906 172.457031 201.535156 172.191406 C 200.09375 171.371094 199.585938 169.539062 200.40625 168.09375 C 202.746094 163.960938 204.695312 158.933594 206.207031 153.15625 C 208.328125 145.015625 209.449219 135.703125 209.449219 126.234375 C 209.449219 116.78125 208.328125 107.480469 206.210938 99.332031 C 202.246094 84.140625 195.007812 74.144531 187.777344 73.875 C 187.640625 73.867188 187.550781 73.867188 187.457031 73.867188 C 187.363281 73.867188 187.273438 73.867188 187.179688 73.871094 C 179.902344 74.144531 172.664062 84.140625 168.695312 99.335938 C 166.578125 107.480469 165.460938 116.78125 165.460938 126.234375 C 165.460938 135.703125 166.582031 145.015625 168.703125 153.15625 C 170.054688 158.320312 171.765625 162.898438 173.785156 166.757812 C 174.554688 168.230469 173.988281 170.046875 172.523438 170.816406 C 171.054688 171.589844 169.238281 171.019531 168.472656 169.550781 C 166.242188 165.289062 164.367188 160.285156 162.898438 154.679688 C 160.644531 146.042969 159.457031 136.207031 159.457031 126.234375 C 159.457031 116.277344 160.644531 106.453125 162.886719 97.816406 C 167.683594 79.445312 176.667969 68.25 186.914062 67.867188 C 187.226562 67.847656 187.644531 67.847656 188.042969 67.867188 C 198.242188 68.25 207.222656 79.445312 212.019531 97.8125 C 214.261719 106.453125 215.449219 116.277344 215.449219 126.234375 C 215.449219 136.207031 214.261719 146.042969 212.011719 154.675781 C 210.371094 160.960938 208.222656 166.472656 205.625 171.058594 C 205.074219 172.035156 204.058594 172.582031 203.011719 172.582031 Z M 203.011719 172.582031 " fill-opacity="1" fill-rule="nonzero"/></g><path fill="#ffffff" d="M 242.738281 129.238281 L 132.171875 129.238281 C 130.515625 129.238281 129.171875 127.890625 129.171875 126.230469 C 129.171875 124.574219 130.515625 123.226562 132.171875 123.226562 L 242.738281 123.226562 C 244.394531 123.226562 245.738281 124.574219 245.738281 126.230469 C 245.738281 127.890625 244.394531 129.238281 242.738281 129.238281 Z M 242.738281 129.238281 " fill-opacity="1" fill-rule="nonzero"/><path fill="#ffffff" d="M 235.335938 156.925781 L 139.574219 156.925781 C 137.917969 156.925781 136.570312 155.578125 136.570312 153.917969 C 136.570312 152.257812 137.917969 150.914062 139.574219 150.914062 L 235.335938 150.914062 C 236.996094 150.914062 238.335938 152.257812 238.335938 153.917969 C 238.335938 155.578125 236.992188 156.925781 235.335938 156.925781 Z M 235.335938 156.925781 " fill-opacity="1" fill-rule="nonzero"/><path fill="#ffffff" d="M 235.355469 101.578125 L 139.554688 101.578125 C 137.894531 101.578125 136.550781 100.230469 136.550781 98.574219 C 136.550781 96.914062 137.894531 95.566406 139.554688 95.566406 L 235.355469 95.566406 C 237.015625 95.566406 238.359375 96.914062 238.359375 98.574219 C 238.359375 100.230469 237.015625 101.578125 235.355469 101.578125 Z M 235.355469 101.578125 " fill-opacity="1" fill-rule="nonzero"/><path fill="#ffffff" d="M 117.554688 265.570312 C 114.613281 265.570312 111.847656 264.421875 109.769531 262.339844 C 107.6875 260.257812 106.542969 257.488281 106.542969 254.542969 C 106.542969 251.597656 107.6875 248.828125 109.769531 246.746094 L 119.238281 237.257812 C 123.53125 232.960938 130.515625 232.960938 134.808594 237.257812 C 136.886719 239.34375 138.03125 242.109375 138.03125 245.058594 C 138.03125 248.003906 136.886719 250.773438 134.808594 252.855469 C 133.636719 254.027344 131.734375 254.027344 130.5625 252.855469 C 129.390625 251.679688 129.390625 249.777344 130.5625 248.605469 C 131.507812 247.65625 132.03125 246.398438 132.03125 245.058594 C 132.03125 243.71875 131.507812 242.460938 130.5625 241.511719 C 128.609375 239.554688 125.433594 239.554688 123.480469 241.511719 L 114.011719 250.996094 C 113.066406 251.945312 112.546875 253.203125 112.546875 254.542969 C 112.546875 255.882812 113.066406 257.140625 114.011719 258.089844 C 114.957031 259.035156 116.214844 259.558594 117.550781 259.558594 C 118.890625 259.558594 120.148438 259.035156 121.09375 258.089844 C 122.265625 256.914062 124.164062 256.917969 125.335938 258.089844 C 126.507812 259.261719 126.507812 261.167969 125.335938 262.339844 C 123.257812 264.421875 120.492188 265.570312 117.554688 265.570312 Z M 117.554688 265.570312 " fill-opacity="1" fill-rule="nonzero"/><path fill="#ffffff" d="M 125.503906 280.289062 C 122.683594 280.289062 119.863281 279.214844 117.71875 277.066406 C 115.636719 274.984375 114.492188 272.214844 114.492188 269.269531 C 114.492188 266.324219 115.636719 263.554688 117.71875 261.46875 L 130.5625 248.601562 C 134.855469 244.304688 141.839844 244.304688 146.132812 248.601562 C 148.210938 250.6875 149.359375 253.457031 149.359375 256.402344 C 149.359375 259.347656 148.210938 262.117188 146.132812 264.199219 C 144.960938 265.371094 143.0625 265.371094 141.890625 264.199219 C 140.714844 263.023438 140.714844 261.121094 141.890625 259.949219 C 142.835938 259 143.355469 257.742188 143.355469 256.402344 C 143.355469 255.0625 142.835938 253.800781 141.890625 252.855469 C 139.9375 250.898438 136.761719 250.898438 134.808594 252.855469 L 121.960938 265.722656 C 121.015625 266.667969 120.496094 267.929688 120.496094 269.269531 C 120.496094 270.609375 121.015625 271.867188 121.960938 272.816406 C 123.914062 274.769531 127.089844 274.769531 129.042969 272.8125 C 130.214844 271.640625 132.113281 271.640625 133.289062 272.816406 C 134.460938 273.988281 134.460938 275.890625 133.289062 277.066406 C 131.140625 279.214844 128.320312 280.289062 125.503906 280.289062 Z M 125.503906 280.289062 " fill-opacity="1" fill-rule="nonzero"/><path fill="#ffffff" d="M 133.097656 295.371094 C 130.277344 295.371094 127.460938 294.296875 125.3125 292.144531 C 123.234375 290.0625 122.089844 287.292969 122.089844 284.347656 C 122.089844 281.402344 123.234375 278.632812 125.316406 276.550781 L 141.890625 259.949219 C 146.183594 255.648438 153.167969 255.648438 157.460938 259.945312 C 159.539062 262.03125 160.683594 264.800781 160.683594 267.746094 C 160.683594 270.691406 159.539062 273.460938 157.460938 275.542969 L 140.882812 292.144531 C 138.738281 294.296875 135.917969 295.371094 133.097656 295.371094 Z M 129.558594 287.894531 C 131.511719 289.851562 134.6875 289.851562 136.640625 287.894531 L 153.214844 271.292969 C 154.160156 270.34375 154.679688 269.085938 154.679688 267.746094 C 154.679688 266.40625 154.160156 265.148438 153.214844 264.199219 C 151.261719 262.242188 148.085938 262.242188 146.132812 264.199219 L 129.558594 280.800781 C 128.613281 281.75 128.09375 283.007812 128.09375 284.347656 C 128.089844 285.6875 128.613281 286.945312 129.558594 287.894531 Z M 129.558594 287.894531 " fill-opacity="1" fill-rule="nonzero"/><path fill="#ffffff" d="M 149.234375 301.898438 C 146.414062 301.898438 143.59375 300.820312 141.449219 298.671875 C 139.367188 296.589844 138.222656 293.820312 138.222656 290.875 C 138.222656 287.929688 139.367188 285.160156 141.449219 283.078125 C 142.621094 281.902344 144.519531 281.902344 145.691406 283.078125 C 146.863281 284.25 146.863281 286.152344 145.691406 287.328125 C 144.746094 288.273438 144.226562 289.535156 144.226562 290.875 C 144.226562 292.214844 144.746094 293.472656 145.691406 294.421875 C 147.644531 296.375 150.820312 296.375 152.773438 294.421875 L 164.539062 282.636719 C 165.484375 281.6875 166.003906 280.429688 166.003906 279.089844 C 166.003906 277.75 165.484375 276.488281 164.539062 275.542969 C 162.585938 273.585938 159.410156 273.585938 157.457031 275.542969 C 156.285156 276.714844 154.386719 276.714844 153.214844 275.542969 C 152.042969 274.367188 152.042969 272.464844 153.214844 271.289062 C 157.507812 266.992188 164.492188 266.992188 168.78125 271.289062 C 170.863281 273.375 172.007812 276.144531 172.007812 279.089844 C 172.007812 282.035156 170.863281 284.804688 168.78125 286.886719 L 157.015625 298.671875 C 154.871094 300.820312 152.050781 301.898438 149.234375 301.898438 Z M 149.234375 301.898438 " fill-opacity="1" fill-rule="nonzero"/></svg>