<svg xmlns="http://www.w3.org/2000/svg" xmlns:xlink="http://www.w3.org/1999/xlink" width="500" zoomAndPan="magnify" viewBox="0 0 375 374.999991" height="500" preserveAspectRatio="xMidYMid meet" version="1.0"><defs><clipPath id="1d701e56eb"><path d="M 187.5 0 C 83.945312 0 0 83.945312 0 187.5 C 0 291.054688 83.945312 375 187.5 375 C 291.054688 375 375 291.054688 375 187.5 C 375 83.945312 291.054688 0 187.5 0 Z M 187.5 0 " clip-rule="nonzero"/></clipPath><clipPath id="6abff98577"><path d="M 75 84.335938 L 306 84.335938 L 306 200 L 75 200 Z M 75 84.335938 " clip-rule="nonzero"/></clipPath><clipPath id="0881a55c2e"><path d="M 68.238281 161 L 306.738281 161 L 306.738281 290 L 68.238281 290 Z M 68.238281 161 " clip-rule="nonzero"/></clipPath></defs><g clip-path="url(#1d701e56eb)"><rect x="-37.5" width="450" fill="#a2c36e" y="-37.499999" height="449.999989" fill-opacity="1"/></g><g clip-path="url(#6abff98577)"><path fill="#ffffff" d="M 113.207031 175.308594 C 116.0625 179.363281 132.941406 199.136719 190.640625 199.136719 C 248.34375 199.136719 265.222656 179.367188 268.074219 175.308594 C 291.429688 168.429688 305.914062 158.402344 305.914062 147.058594 L 305.914062 134.328125 C 305.914062 122.566406 290.234375 111.777344 262.894531 104.679688 C 261.761719 103.070312 260.289062 101.792969 258.492188 100.902344 C 255.980469 99.65625 253.386719 99.160156 250.773438 99.429688 C 248.9375 99.613281 247 98.695312 245.582031 96.964844 C 244.421875 95.542969 242.929688 94.53125 241.15625 93.949219 C 238.777344 93.167969 235.738281 93.28125 232.121094 94.273438 C 229.941406 94.875 227.605469 94.167969 226.007812 92.441406 C 223.738281 89.980469 221.152344 88.386719 218.324219 87.703125 C 213.894531 86.628906 207.550781 87.40625 203.007812 88.25 C 201.511719 88.527344 199.9375 88.183594 198.566406 87.285156 C 197.382812 86.511719 196.089844 85.925781 194.726562 85.535156 C 194.683594 85.523438 194.640625 85.519531 194.597656 85.507812 C 193.324219 85.15625 192 84.960938 190.640625 84.960938 C 186.851562 84.960938 183.242188 86.871094 180.695312 88.644531 C 180.6875 88.648438 180.679688 88.652344 180.671875 88.65625 C 180.46875 88.800781 180.257812 88.945312 180.066406 89.085938 C 178.765625 90.039062 177.101562 90.414062 175.492188 90.125 C 171.605469 89.414062 166.136719 88.773438 162.15625 89.730469 C 160.03125 90.242188 158.183594 91.089844 156.664062 92.257812 C 155.285156 93.324219 153.375 93.675781 151.5625 93.210938 C 149.894531 92.78125 148.355469 92.753906 146.996094 93.128906 C 145.738281 93.472656 144.480469 94.167969 143.257812 95.191406 C 141.632812 96.554688 139.472656 96.492188 138.324219 96.332031 C 136.757812 96.117188 135.027344 96.335938 133.175781 96.992188 C 130.34375 97.992188 128.488281 100.0625 127.265625 102.183594 C 94.753906 109.097656 75.371094 121.085938 75.371094 134.328125 L 75.371094 147.058594 C 75.371094 158.402344 89.855469 168.429688 113.207031 175.308594 Z M 190.640625 195.355469 C 147.289062 195.355469 127.796875 183.808594 120.191406 177.203125 C 139.550781 182.046875 163.890625 184.898438 190.640625 184.898438 C 217.4375 184.898438 241.8125 182.035156 261.183594 177.179688 C 253.691406 183.777344 234.3125 195.355469 190.640625 195.355469 Z M 192.742188 88.957031 C 192.855469 90.265625 191.734375 92.1875 189.464844 93.5 C 186.761719 95.058594 184.070312 94.738281 183.34375 93.480469 C 183.03125 92.941406 183.066406 92.1875 183.398438 91.375 C 185.421875 90.042969 188.054688 88.742188 190.640625 88.742188 C 191.367188 88.742188 192.0625 88.828125 192.742188 88.957031 Z M 134.433594 100.550781 C 135.417969 100.203125 136.324219 100.027344 137.125 100.027344 C 137.363281 100.027344 137.589844 100.042969 137.804688 100.074219 C 140.855469 100.492188 143.652344 99.789062 145.683594 98.085938 C 146.488281 97.410156 147.269531 96.96875 148 96.765625 C 148.714844 96.566406 149.601562 96.605469 150.625 96.867188 C 153.558594 97.617188 156.675781 97.015625 158.96875 95.25 C 160.066406 94.410156 161.433594 93.789062 163.042969 93.402344 C 165.644531 92.777344 169.828125 92.933594 174.820312 93.839844 C 176.382812 94.125 177.96875 93.976562 179.457031 93.511719 C 179.5625 94.164062 179.742188 94.796875 180.074219 95.367188 C 181.195312 97.316406 183.359375 98.335938 185.847656 98.335938 C 187.605469 98.335938 189.527344 97.824219 191.355469 96.769531 C 194.125 95.167969 195.925781 92.769531 196.414062 90.398438 C 196.441406 90.414062 196.472656 90.425781 196.5 90.445312 C 198.6875 91.878906 201.246094 92.417969 203.703125 91.964844 C 209.609375 90.867188 214.488281 90.664062 217.441406 91.375 C 219.53125 91.882812 221.480469 93.105469 223.234375 95.003906 C 225.796875 97.777344 229.585938 98.894531 233.125 97.917969 C 235.976562 97.132812 238.347656 97.003906 239.984375 97.539062 C 241.0625 97.890625 241.964844 98.503906 242.664062 99.355469 C 244.886719 102.070312 248.0625 103.503906 251.160156 103.183594 C 253.050781 102.992188 254.953125 103.359375 256.816406 104.285156 C 259.269531 105.5 260.832031 107.71875 261.453125 110.882812 C 262.273438 115.039062 265.960938 118.1875 270.421875 118.542969 C 272.648438 118.71875 274.75 119.355469 276.660156 120.429688 C 283.101562 124.046875 283.214844 134.136719 283.214844 134.269531 C 283.214844 136.191406 281.855469 138.15625 279.289062 140.074219 C 279.027344 139.117188 278.648438 138.167969 278.125 137.261719 C 275.582031 132.859375 270.984375 130.914062 267.652344 132.832031 C 264.320312 134.753906 263.707031 139.710938 266.25 144.113281 C 266.613281 144.742188 267.035156 145.304688 267.480469 145.839844 C 261.648438 147.898438 254.339844 149.773438 245.777344 151.328125 C 245.941406 150.640625 246.066406 149.9375 246.109375 149.214844 C 246.234375 146.917969 245.71875 144.703125 244.660156 142.972656 C 243.484375 141.050781 241.699219 139.886719 239.765625 139.78125 C 237.800781 139.660156 235.925781 140.636719 234.546875 142.414062 C 233.300781 144.015625 232.542969 146.164062 232.417969 148.457031 C 232.324219 150.175781 232.628906 151.816406 233.203125 153.261719 C 222.8125 154.582031 211.113281 155.457031 198.398438 155.710938 C 198.503906 155.203125 198.589844 154.691406 198.628906 154.164062 C 199.023438 149.097656 196.332031 144.890625 192.5 144.589844 C 190.574219 144.460938 188.644531 145.359375 187.222656 147.109375 C 185.941406 148.683594 185.136719 150.8125 184.960938 153.101562 C 184.890625 154.003906 184.925781 154.894531 185.046875 155.753906 C 168.976562 155.519531 154.476562 154.296875 142.121094 152.425781 C 142.46875 151.417969 142.683594 150.332031 142.746094 149.214844 C 143.027344 144.136719 140.242188 139.996094 136.402344 139.78125 C 134.453125 139.65625 132.566406 140.636719 131.1875 142.417969 C 129.941406 144.019531 129.183594 146.164062 129.058594 148.460938 C 129.03125 148.996094 129.046875 149.523438 129.089844 150.050781 C 109.617188 145.824219 98.074219 139.863281 98.074219 134.246094 C 98.074219 134.1875 98.121094 128.222656 101.621094 125.414062 C 102.980469 124.320312 104.308594 123.753906 105.574219 123.71875 C 108.460938 123.636719 111.160156 121.871094 112.613281 119.105469 C 113.84375 116.761719 115.332031 114.890625 117.042969 113.539062 C 119.683594 111.453125 122.644531 110.621094 124.664062 110.292969 C 126.886719 109.929688 128.753906 108.367188 129.535156 106.21875 C 130.28125 104.164062 131.738281 101.503906 134.433594 100.550781 Z M 271.316406 144.375 C 270.632812 143.8125 270.011719 143.078125 269.519531 142.230469 C 267.960938 139.53125 268.28125 136.835938 269.539062 136.113281 C 270.800781 135.382812 273.289062 136.457031 274.847656 139.15625 C 275.417969 140.144531 275.773438 141.222656 275.871094 142.222656 C 274.523438 142.953125 273.003906 143.671875 271.316406 144.375 Z M 237.117188 152.738281 C 236.460938 151.6875 236.105469 150.222656 236.191406 148.671875 C 236.273438 147.160156 236.761719 145.726562 237.53125 144.738281 C 237.886719 144.277344 238.65625 143.5 239.554688 143.5625 C 240.480469 143.613281 241.128906 144.457031 241.4375 144.957031 C 242.089844 146.023438 242.417969 147.5 242.332031 149.011719 C 242.269531 150.132812 241.988281 151.183594 241.539062 152.0625 C 240.097656 152.292969 238.625 152.519531 237.117188 152.738281 Z M 188.902344 155.789062 C 188.730469 155.039062 188.660156 154.222656 188.726562 153.398438 C 188.84375 151.890625 189.363281 150.464844 190.152344 149.496094 C 190.523438 149.042969 191.300781 148.28125 192.203125 148.363281 C 193.652344 148.476562 195.101562 150.769531 194.859375 153.878906 C 194.808594 154.542969 194.65625 155.175781 194.457031 155.773438 C 193.191406 155.789062 191.925781 155.800781 190.640625 155.800781 C 190.058594 155.800781 189.484375 155.792969 188.902344 155.789062 Z M 133.042969 150.871094 C 132.886719 150.171875 132.789062 149.441406 132.832031 148.671875 C 132.914062 147.160156 133.402344 145.726562 134.167969 144.738281 C 134.527344 144.277344 135.277344 143.496094 136.195312 143.5625 C 137.648438 143.640625 139.144531 145.902344 138.972656 149.011719 C 138.914062 150.03125 138.671875 150.992188 138.292969 151.824219 C 136.492188 151.519531 134.742188 151.203125 133.042969 150.871094 Z M 119.035156 108.027344 C 117.605469 108.636719 116.121094 109.453125 114.695312 110.578125 C 112.570312 112.257812 110.742188 114.535156 109.261719 117.351562 C 108.441406 118.910156 106.988281 119.902344 105.464844 119.945312 C 103.359375 120.003906 101.269531 120.851562 99.253906 122.46875 C 94.28125 126.460938 94.289062 133.964844 94.292969 134.269531 C 94.292969 150.335938 141.71875 159.171875 187.476562 159.5625 C 187.488281 159.5625 187.503906 159.570312 187.523438 159.570312 C 187.53125 159.570312 187.542969 159.5625 187.550781 159.5625 C 188.582031 159.574219 189.613281 159.582031 190.640625 159.582031 C 237.351562 159.582031 286.992188 150.710938 286.992188 134.269531 C 286.992188 133.765625 286.898438 121.851562 278.511719 117.140625 C 276.117188 115.796875 273.496094 115 270.71875 114.777344 C 267.9375 114.558594 265.652344 112.65625 265.15625 110.15625 C 265.085938 109.804688 264.992188 109.472656 264.90625 109.136719 C 288.285156 115.648438 302.132812 124.957031 302.132812 134.328125 C 302.132812 152.792969 251.078125 168.386719 190.640625 168.386719 C 130.203125 168.386719 79.152344 152.789062 79.152344 134.328125 C 79.152344 124.492188 94.5 114.546875 119.035156 108.027344 Z M 79.152344 144.140625 C 92.007812 160.453125 136.382812 172.167969 190.640625 172.167969 C 244.902344 172.167969 289.277344 160.453125 302.132812 144.140625 L 302.132812 147.058594 C 302.132812 165.519531 251.078125 181.117188 190.640625 181.117188 C 130.207031 181.117188 79.152344 165.519531 79.152344 147.058594 Z M 79.152344 144.140625 " fill-opacity="1" fill-rule="nonzero"/></g><path fill="#ffffff" d="M 154.035156 145.636719 C 159.121094 145.636719 163.105469 142.625 163.105469 138.785156 C 163.105469 134.941406 159.121094 131.929688 154.035156 131.929688 C 148.949219 131.929688 144.964844 134.941406 144.964844 138.785156 C 144.964844 142.625 148.949219 145.636719 154.035156 145.636719 Z M 154.035156 135.710938 C 157.152344 135.710938 159.324219 137.332031 159.324219 138.785156 C 159.324219 140.238281 157.152344 141.859375 154.035156 141.859375 C 150.917969 141.859375 148.746094 140.238281 148.746094 138.785156 C 148.746094 137.328125 150.917969 135.710938 154.035156 135.710938 Z M 154.035156 135.710938 " fill-opacity="1" fill-rule="nonzero"/><path fill="#ffffff" d="M 245.753906 131.097656 C 246.878906 133.046875 249.039062 134.0625 251.527344 134.0625 C 253.289062 134.0625 255.210938 133.550781 257.035156 132.496094 C 261.441406 129.953125 263.382812 125.355469 261.464844 122.027344 C 260.496094 120.351562 258.652344 119.28125 256.402344 119.101562 C 254.375 118.933594 252.171875 119.476562 250.179688 120.625 C 245.773438 123.167969 243.832031 127.769531 245.753906 131.097656 C 245.75 131.097656 245.75 131.097656 245.753906 131.097656 Z M 252.070312 123.902344 C 253.378906 123.144531 254.847656 122.769531 256.09375 122.871094 C 256.679688 122.917969 257.722656 123.113281 258.1875 123.917969 C 258.914062 125.179688 257.84375 127.667969 255.144531 129.226562 C 252.441406 130.789062 249.75 130.46875 249.023438 129.210938 C 248.296875 127.949219 249.371094 125.460938 252.070312 123.902344 Z M 252.070312 123.902344 " fill-opacity="1" fill-rule="nonzero"/><path fill="#ffffff" d="M 205.035156 120.316406 C 205.273438 120.332031 205.511719 120.34375 205.753906 120.34375 C 207.574219 120.34375 209.5 119.804688 211.257812 118.789062 C 213.246094 117.640625 214.820312 115.996094 215.691406 114.164062 C 216.65625 112.125 216.65625 109.996094 215.6875 108.320312 C 214.71875 106.644531 212.871094 105.578125 210.625 105.394531 C 208.601562 105.230469 206.394531 105.769531 204.402344 106.921875 C 202.414062 108.070312 200.839844 109.710938 199.96875 111.546875 C 199.003906 113.585938 199.007812 115.714844 199.976562 117.390625 C 200.941406 119.0625 202.785156 120.132812 205.035156 120.316406 Z M 203.386719 113.160156 C 203.921875 112.03125 204.980469 110.949219 206.292969 110.191406 C 207.464844 109.515625 208.757812 109.144531 209.910156 109.144531 C 210.046875 109.144531 210.1875 109.148438 210.316406 109.160156 C 210.902344 109.207031 211.949219 109.410156 212.410156 110.210938 C 212.875 111.015625 212.523438 112.023438 212.273438 112.550781 C 211.738281 113.679688 210.679688 114.761719 209.367188 115.519531 C 208.050781 116.277344 206.582031 116.644531 205.339844 116.550781 C 204.757812 116.503906 203.710938 116.304688 203.246094 115.5 C 202.785156 114.695312 203.132812 113.691406 203.386719 113.160156 Z M 203.386719 113.160156 " fill-opacity="1" fill-rule="nonzero"/><path fill="#ffffff" d="M 182.742188 120.824219 C 184.5 120.824219 186.101562 120.210938 187.242188 118.960938 C 189.828125 116.121094 188.914062 111.214844 185.15625 107.789062 C 181.394531 104.363281 176.421875 103.902344 173.835938 106.746094 C 171.246094 109.585938 172.160156 114.492188 175.921875 117.917969 C 178.023438 119.835938 180.507812 120.824219 182.742188 120.824219 Z M 176.625 109.292969 C 177.609375 108.21875 180.304688 108.484375 182.609375 110.582031 C 184.914062 112.679688 185.429688 115.34375 184.449219 116.417969 C 183.46875 117.488281 180.769531 117.226562 178.464844 115.128906 C 176.160156 113.027344 175.648438 110.367188 176.625 109.292969 Z M 176.625 109.292969 " fill-opacity="1" fill-rule="nonzero"/><path fill="#ffffff" d="M 163.976562 127.621094 C 164.332031 127.667969 164.6875 127.691406 165.035156 127.691406 C 166.84375 127.691406 168.449219 127.042969 169.542969 125.84375 C 170.847656 124.414062 171.304688 122.332031 170.800781 120.136719 C 170.34375 118.160156 169.15625 116.214844 167.457031 114.667969 C 163.695312 111.246094 158.722656 110.785156 156.136719 113.625 C 153.546875 116.46875 154.464844 121.375 158.222656 124.800781 C 159.921875 126.347656 161.964844 127.347656 163.976562 127.621094 Z M 158.929688 116.167969 C 159.910156 115.097656 162.605469 115.359375 164.914062 117.460938 C 166.03125 118.480469 166.835938 119.765625 167.117188 120.980469 C 167.25 121.550781 167.375 122.609375 166.75 123.296875 C 166.125 123.980469 165.058594 123.953125 164.480469 123.875 C 163.242188 123.707031 161.886719 123.027344 160.769531 122.003906 C 158.464844 119.90625 157.949219 117.246094 158.929688 116.167969 Z M 158.929688 116.167969 " fill-opacity="1" fill-rule="nonzero"/><path fill="#ffffff" d="M 124.78125 121.117188 C 123.925781 126.128906 126.222656 130.5625 130.011719 131.210938 C 130.320312 131.265625 130.628906 131.289062 130.9375 131.289062 C 134.375 131.289062 137.511719 128.03125 138.300781 123.429688 C 138.6875 121.164062 138.425781 118.902344 137.574219 117.066406 C 136.621094 115.019531 134.980469 113.664062 133.070312 113.335938 C 129.285156 112.683594 125.640625 116.101562 124.78125 121.117188 Z M 128.507812 121.753906 C 129.003906 118.863281 130.773438 117.035156 132.175781 117.035156 C 132.261719 117.035156 132.351562 117.042969 132.433594 117.058594 C 133.347656 117.214844 133.898438 118.125 134.144531 118.65625 C 134.671875 119.792969 134.828125 121.296875 134.574219 122.792969 C 134.046875 125.867188 132.101562 127.742188 130.648438 127.488281 C 129.214844 127.238281 127.984375 124.824219 128.507812 121.753906 Z M 128.507812 121.753906 " fill-opacity="1" fill-rule="nonzero"/><path fill="#ffffff" d="M 224.304688 133.222656 C 224.542969 133.238281 224.78125 133.25 225.023438 133.25 C 226.84375 133.25 228.769531 132.710938 230.527344 131.695312 C 232.519531 130.546875 234.09375 128.902344 234.960938 127.070312 C 235.925781 125.03125 235.921875 122.902344 234.957031 121.226562 C 233.03125 117.894531 228.078125 117.28125 223.671875 119.824219 C 221.683594 120.972656 220.109375 122.617188 219.238281 124.449219 C 218.273438 126.488281 218.277344 128.617188 219.242188 130.292969 C 220.214844 131.96875 222.058594 133.039062 224.304688 133.222656 Z M 222.65625 126.066406 C 223.191406 124.9375 224.25 123.855469 225.5625 123.097656 C 226.832031 122.363281 228.101562 122.046875 229.164062 122.046875 C 230.363281 122.046875 231.296875 122.449219 231.683594 123.113281 C 232.148438 123.917969 231.796875 124.925781 231.546875 125.453125 C 231.011719 126.582031 229.953125 127.664062 228.640625 128.421875 C 227.328125 129.179688 225.863281 129.554688 224.613281 129.453125 C 224.03125 129.40625 222.984375 129.203125 222.519531 128.402344 C 222.054688 127.601562 222.402344 126.59375 222.65625 126.066406 Z M 222.65625 126.066406 " fill-opacity="1" fill-rule="nonzero"/><path fill="#ffffff" d="M 191.644531 137.636719 C 192.769531 139.585938 194.933594 140.601562 197.417969 140.601562 C 199.179688 140.601562 201.101562 140.089844 202.925781 139.035156 C 207.332031 136.492188 209.273438 131.894531 207.355469 128.566406 C 206.386719 126.890625 204.542969 125.824219 202.296875 125.640625 C 200.273438 125.476562 198.0625 126.015625 196.070312 127.164062 C 191.667969 129.710938 189.722656 134.308594 191.644531 137.636719 Z M 197.960938 130.441406 C 199.273438 129.683594 200.738281 129.304688 201.988281 129.410156 C 202.570312 129.457031 203.617188 129.652344 204.078125 130.457031 C 204.808594 131.71875 203.734375 134.207031 201.035156 135.765625 C 198.335938 137.328125 195.644531 137.007812 194.914062 135.75 C 194.191406 134.488281 195.261719 132 197.960938 130.441406 Z M 197.960938 130.441406 " fill-opacity="1" fill-rule="nonzero"/><path fill="#ffffff" d="M 218.214844 270.226562 C 212.707031 267.050781 207.082031 267.207031 205.128906 270.589844 C 204.101562 272.367188 204.324219 274.621094 205.753906 276.925781 C 206.960938 278.875 208.953125 280.710938 211.359375 282.097656 C 213.765625 283.488281 216.355469 284.292969 218.644531 284.363281 C 218.757812 284.367188 218.871094 284.371094 218.980469 284.371094 C 221.527344 284.371094 223.457031 283.441406 224.441406 281.734375 C 226.394531 278.355469 223.71875 273.40625 218.214844 270.226562 Z M 221.167969 279.847656 C 220.882812 280.339844 219.960938 280.65625 218.761719 280.585938 C 217.105469 280.535156 215.097656 279.894531 213.246094 278.824219 C 211.398438 277.757812 209.835938 276.339844 208.964844 274.933594 C 208.332031 273.910156 208.117188 272.972656 208.402344 272.476562 C 208.664062 272.023438 209.457031 271.738281 210.582031 271.738281 C 212.070312 271.738281 214.136719 272.234375 216.324219 273.496094 C 220.160156 275.714844 221.78125 278.789062 221.167969 279.847656 Z M 221.167969 279.847656 " fill-opacity="1" fill-rule="nonzero"/><path fill="#ffffff" d="M 161.402344 209 C 161.402344 212.914062 166.679688 215.863281 173.679688 215.863281 C 180.679688 215.863281 185.960938 212.914062 185.960938 209 C 185.960938 205.089844 180.683594 202.140625 173.679688 202.140625 C 166.679688 202.140625 161.402344 205.089844 161.402344 209 Z M 182.179688 209 C 182.179688 210.085938 178.953125 212.085938 173.679688 212.085938 C 168.40625 212.085938 165.179688 210.085938 165.179688 209 C 165.179688 207.914062 168.410156 205.917969 173.679688 205.917969 C 178.953125 205.921875 182.179688 207.914062 182.179688 209 Z M 182.179688 209 " fill-opacity="1" fill-rule="nonzero"/><path fill="#ffffff" d="M 182.152344 261.753906 C 179.699219 264.523438 180.933594 269.496094 184.96875 273.066406 C 187.3125 275.144531 190.007812 276.226562 192.335938 276.226562 C 194.019531 276.226562 195.507812 275.664062 196.535156 274.503906 C 198.988281 271.734375 197.757812 266.765625 193.722656 263.191406 C 189.691406 259.617188 184.609375 258.984375 182.152344 261.753906 Z M 193.710938 271.996094 C 192.945312 272.855469 190.140625 272.601562 187.476562 270.242188 C 184.808594 267.878906 184.21875 265.121094 184.980469 264.261719 C 185.238281 263.972656 185.726562 263.8125 186.359375 263.8125 C 187.613281 263.8125 189.449219 264.453125 191.21875 266.019531 C 193.878906 268.382812 194.472656 271.136719 193.710938 271.996094 Z M 193.710938 271.996094 " fill-opacity="1" fill-rule="nonzero"/><path fill="#ffffff" d="M 257.875 228.417969 C 256.605469 229.847656 256.273438 231.964844 256.964844 234.214844 C 257.566406 236.175781 258.890625 238.132812 260.6875 239.730469 C 262.488281 241.324219 264.589844 242.402344 266.609375 242.761719 C 267.101562 242.851562 267.582031 242.894531 268.042969 242.894531 C 269.765625 242.894531 271.257812 242.292969 272.257812 241.164062 C 273.527344 239.730469 273.859375 237.617188 273.167969 235.367188 C 272.566406 233.40625 271.242188 231.449219 269.445312 229.851562 C 265.414062 226.277344 260.328125 225.652344 257.875 228.417969 Z M 269.429688 238.660156 C 269.054688 239.082031 268.269531 239.21875 267.273438 239.042969 C 265.949219 238.804688 264.460938 238.027344 263.195312 236.902344 C 261.925781 235.777344 260.972656 234.394531 260.578125 233.109375 C 260.28125 232.144531 260.328125 231.347656 260.703125 230.925781 C 260.957031 230.636719 261.445312 230.472656 262.078125 230.472656 C 263.335938 230.472656 265.167969 231.113281 266.9375 232.679688 C 268.207031 233.808594 269.160156 235.1875 269.554688 236.476562 C 269.851562 237.4375 269.804688 238.234375 269.429688 238.660156 Z M 269.429688 238.660156 " fill-opacity="1" fill-rule="nonzero"/><g clip-path="url(#0881a55c2e)"><path fill="#ffffff" d="M 305.71875 275.289062 C 304.539062 274.488281 276.691406 255.621094 261.316406 249.011719 C 258.988281 248.011719 255.042969 246.570312 250.019531 244.84375 C 251.183594 243.78125 251.832031 242.523438 251.832031 241.144531 C 251.832031 237.234375 246.550781 234.285156 239.550781 234.285156 C 234.832031 234.285156 230.78125 235.667969 228.730469 237.828125 C 227.394531 237.402344 226.042969 236.96875 224.675781 236.535156 C 226.636719 235.324219 227.792969 233.710938 227.792969 231.898438 C 227.792969 231.769531 227.773438 231.644531 227.761719 231.515625 C 244.445312 228.324219 257.835938 221.6875 267.503906 211.6875 C 268.097656 211.070312 268.203125 210.132812 267.765625 209.398438 C 267.324219 208.664062 266.445312 208.320312 265.621094 208.558594 C 232.742188 218.039062 200.382812 221.691406 169.421875 219.425781 C 162.628906 217.363281 158.09375 216 157.328125 215.769531 C 153.644531 214.535156 150.074219 213.253906 146.664062 211.957031 C 145.304688 208.988281 140.664062 206.917969 134.804688 206.917969 C 134.683594 206.917969 134.566406 206.929688 134.445312 206.929688 C 109.710938 195.878906 91.472656 181.730469 78.71875 163.691406 C 77.164062 161.488281 74.359375 160.667969 71.902344 161.699219 C 70.417969 162.316406 69.265625 163.546875 68.738281 165.066406 C 68.207031 166.59375 68.355469 168.289062 69.144531 169.707031 C 75.871094 181.824219 85.847656 192.695312 98.875 202.164062 C 101.226562 207.277344 104.035156 212.488281 107.226562 217.671875 C 107.503906 222.1875 109.835938 225.691406 112.921875 226.304688 C 130.601562 251.488281 156.097656 273.976562 184.820312 289.6875 C 185.105469 289.84375 185.417969 289.917969 185.726562 289.917969 C 186.246094 289.917969 186.757812 289.703125 187.125 289.300781 C 187.714844 288.652344 187.78125 287.6875 187.289062 286.96875 C 180.832031 277.464844 166.960938 260.816406 149.820312 241.964844 C 150.320312 241.773438 150.707031 241.523438 150.992188 241.292969 C 151.375 240.980469 151.828125 240.496094 152.179688 239.777344 C 155.695312 243.984375 160.28125 247.285156 163.898438 247.285156 C 165.027344 247.285156 166.0625 246.964844 166.9375 246.253906 C 167.269531 245.984375 167.535156 245.667969 167.769531 245.332031 C 168.074219 245.75 168.386719 246.160156 168.714844 246.5625 C 172.265625 250.933594 177.007812 254.402344 180.722656 254.402344 C 181.847656 254.402344 182.882812 254.082031 183.757812 253.371094 C 184.78125 252.542969 186.300781 250.484375 185.019531 246.007812 C 184.964844 245.820312 184.871094 245.617188 184.808594 245.425781 C 187.558594 247.183594 190.664062 248.617188 194.214844 249.457031 C 193.820312 252.160156 195.253906 255.515625 198.207031 258.132812 C 200.550781 260.210938 203.246094 261.292969 205.578125 261.292969 C 207.257812 261.292969 208.75 260.730469 209.777344 259.570312 C 210.03125 259.28125 210.226562 258.957031 210.402344 258.621094 C 242.738281 272.160156 272.355469 278.785156 300.714844 278.785156 C 302.042969 278.785156 303.371094 278.769531 304.695312 278.742188 C 305.515625 278.722656 306.230469 278.175781 306.464844 277.386719 C 306.699219 276.601562 306.398438 275.75 305.71875 275.289062 Z M 239.550781 238.0625 C 244.824219 238.0625 248.050781 240.058594 248.050781 241.144531 C 248.050781 241.699219 247.074219 242.578125 245.324219 243.253906 C 241.632812 242.015625 237.546875 240.671875 233.207031 239.269531 C 234.664062 238.601562 236.804688 238.0625 239.550781 238.0625 Z M 207.460938 231.117188 C 208.488281 230.058594 211.347656 228.816406 215.511719 228.816406 C 220.785156 228.816406 224.011719 230.8125 224.011719 231.898438 C 224.011719 232.683594 222.160156 234.082031 218.824219 234.683594 C 215.070312 233.496094 211.253906 232.300781 207.460938 231.117188 Z M 258.921875 214.320312 C 250.21875 221.089844 239.113281 225.6875 225.8125 228.0625 C 223.660156 226.210938 219.929688 225.035156 215.511719 225.035156 C 209.734375 225.035156 205.140625 227.046875 203.707031 229.949219 C 196.769531 227.796875 189.984375 225.707031 183.839844 223.824219 C 208.261719 224.160156 233.421875 220.988281 258.921875 214.320312 Z M 143.304688 213.785156 C 143.304688 214.871094 140.074219 216.867188 134.804688 216.867188 C 134.113281 216.867188 133.4375 216.816406 132.769531 216.746094 C 132.242188 215.765625 131.625 214.777344 130.84375 213.816406 C 130.21875 213.046875 129.53125 212.367188 128.828125 211.734375 C 130.3125 211.136719 132.363281 210.703125 134.804688 210.703125 C 140.074219 210.703125 143.304688 212.695312 143.304688 213.785156 Z M 148.621094 234.972656 C 149.160156 236.855469 148.992188 238.050781 148.609375 238.359375 C 148.226562 238.679688 147.023438 238.589844 145.292969 237.679688 C 143.203125 236.578125 140.867188 234.542969 138.886719 232.101562 C 136.902344 229.664062 135.390625 226.960938 134.742188 224.691406 C 134.199219 222.808594 134.367188 221.613281 134.75 221.304688 C 134.878906 221.199219 135.101562 221.136719 135.398438 221.136719 C 136 221.136719 136.917969 221.375 138.074219 221.984375 C 140.160156 223.085938 142.496094 225.121094 144.480469 227.5625 C 146.460938 230 147.96875 232.703125 148.621094 234.972656 Z M 120.875 212.421875 C 121.066406 212.265625 121.351562 212.191406 121.703125 212.191406 C 122.171875 212.191406 122.753906 212.324219 123.386719 212.589844 C 124.914062 213.226562 126.5625 214.542969 127.910156 216.203125 C 130.703125 219.636719 131.121094 223.089844 130.167969 223.859375 C 129.222656 224.636719 125.929688 223.519531 123.136719 220.078125 C 120.339844 216.640625 119.925781 213.191406 120.875 212.421875 Z M 72.449219 167.875 C 72.175781 167.386719 72.128906 166.828125 72.3125 166.304688 C 72.488281 165.792969 72.863281 165.394531 73.359375 165.1875 C 74.171875 164.847656 75.105469 165.132812 75.632812 165.875 C 87.90625 183.234375 105.046875 197.066406 127.886719 208.054688 C 126.917969 208.40625 126.046875 208.835938 125.300781 209.332031 C 125.152344 209.261719 125 209.164062 124.847656 209.101562 C 122.339844 208.054688 120.085938 208.195312 118.492188 209.488281 C 118.449219 209.523438 118.421875 209.570312 118.378906 209.609375 C 117.195312 208.074219 115.632812 207.125 113.878906 207.125 C 113.765625 207.125 113.664062 207.164062 113.554688 207.171875 C 94.46875 196.15625 81.015625 183.296875 72.449219 167.875 Z M 109.667969 209.265625 C 109.054688 209.972656 108.53125 210.828125 108.128906 211.808594 C 107.113281 210.042969 106.160156 208.285156 105.242188 206.53125 C 106.683594 207.457031 108.164062 208.367188 109.667969 209.265625 Z M 113.878906 210.902344 C 115.261719 210.902344 116.808594 213.417969 116.808594 216.785156 C 116.808594 220.148438 115.261719 222.664062 113.878906 222.664062 C 112.496094 222.664062 110.945312 220.148438 110.945312 216.785156 C 110.945312 213.417969 112.492188 210.902344 113.878906 210.902344 Z M 116.910156 225.390625 C 118.0625 224.566406 119.003906 223.292969 119.652344 221.703125 C 119.839844 221.953125 119.996094 222.210938 120.199219 222.460938 C 123.015625 225.925781 126.472656 227.875 129.332031 227.875 C 130.179688 227.875 130.972656 227.691406 131.679688 227.335938 C 132.601562 229.679688 134.058594 232.160156 135.949219 234.484375 C 138.277344 237.351562 140.96875 239.667969 143.527344 241.019531 C 143.71875 241.121094 143.894531 241.1875 144.078125 241.277344 C 158.65625 257.175781 171.09375 271.699219 178.972656 281.972656 C 154.355469 267.15625 132.613281 247.34375 116.910156 225.390625 Z M 164.554688 243.320312 C 163.570312 244.125 159.125 242.351562 154.828125 237.0625 C 150.53125 231.769531 149.707031 227.058594 150.691406 226.257812 C 150.84375 226.136719 151.070312 226.074219 151.367188 226.074219 C 153.023438 226.074219 156.773438 228.027344 160.421875 232.515625 C 164.71875 237.808594 165.539062 242.519531 164.554688 243.320312 Z M 181.378906 250.441406 C 180.386719 251.242188 175.949219 249.472656 171.652344 244.183594 C 167.355469 238.890625 166.535156 234.179688 167.519531 233.378906 C 167.667969 233.257812 167.894531 233.195312 168.191406 233.195312 C 169.847656 233.195312 173.597656 235.148438 177.246094 239.640625 C 179.226562 242.082031 180.738281 244.78125 181.390625 247.050781 C 181.929688 248.9375 181.765625 250.128906 181.378906 250.441406 Z M 206.953125 257.0625 C 206.1875 257.925781 203.378906 257.664062 200.71875 255.308594 C 198.054688 252.945312 197.460938 250.1875 198.226562 249.328125 C 198.480469 249.042969 198.964844 248.878906 199.601562 248.878906 C 200.855469 248.878906 202.6875 249.515625 204.460938 251.085938 C 207.125 253.449219 207.714844 256.203125 206.953125 257.0625 Z M 210.886719 254.730469 C 210.488281 252.542969 209.15625 250.199219 206.96875 248.257812 C 203.378906 245.078125 198.972656 244.246094 196.308594 246.046875 C 189.664062 244.828125 184.546875 241.105469 179.003906 235.871094 C 178.984375 235.851562 178.960938 235.847656 178.941406 235.832031 C 174.425781 230.90625 168.578125 227.65625 165.136719 230.449219 C 164.800781 230.71875 164.539062 231.035156 164.300781 231.367188 C 163.996094 230.949219 163.683594 230.539062 163.355469 230.136719 C 158.726562 224.441406 152.078125 220.273438 148.308594 223.328125 C 147.785156 223.75 147.402344 224.269531 147.117188 224.84375 C 145.339844 222.71875 143.378906 220.921875 141.421875 219.617188 C 143.839844 218.785156 145.648438 217.5 146.511719 215.929688 C 149.613281 217.09375 152.824219 218.246094 156.183594 219.371094 C 157.066406 219.636719 244.714844 245.988281 259.824219 252.484375 C 270.976562 257.277344 289.5 269.113281 298.449219 274.992188 C 270.996094 274.644531 242.265625 267.984375 210.886719 254.730469 Z M 210.886719 254.730469 " fill-opacity="1" fill-rule="nonzero"/></g></svg>