<svg xmlns="http://www.w3.org/2000/svg" xmlns:xlink="http://www.w3.org/1999/xlink" width="500" zoomAndPan="magnify" viewBox="0 0 375 374.999991" height="500" preserveAspectRatio="xMidYMid meet" version="1.0"><defs><clipPath id="6405bbc9d2"><path d="M 187.5 0 C 83.945312 0 0 83.945312 0 187.5 C 0 291.054688 83.945312 375 187.5 375 C 291.054688 375 375 291.054688 375 187.5 C 375 83.945312 291.054688 0 187.5 0 Z M 187.5 0 " clip-rule="nonzero"/></clipPath><clipPath id="0b4700ad4d"><path d="M 50.207031 87.449219 L 324.707031 87.449219 L 324.707031 287.699219 L 50.207031 287.699219 Z M 50.207031 87.449219 " clip-rule="nonzero"/></clipPath></defs><g clip-path="url(#6405bbc9d2)"><rect x="-37.5" width="450" fill="#a2c36e" y="-37.499999" height="449.999989" fill-opacity="1"/></g><path fill="#ffffff" d="M 100.992188 161.445312 C 101.914062 161.445312 102.777344 160.867188 103.097656 159.949219 C 103.507812 158.785156 102.898438 157.511719 101.734375 157.097656 C 80.742188 149.703125 63.589844 133.894531 63.414062 133.734375 C 62.515625 132.898438 61.101562 132.945312 60.261719 133.851562 C 59.421875 134.753906 59.476562 136.167969 60.378906 137.007812 C 61.101562 137.683594 78.359375 153.605469 100.253906 161.316406 C 100.496094 161.402344 100.746094 161.445312 100.992188 161.445312 " fill-opacity="1" fill-rule="nonzero"/><path fill="#ffffff" d="M 258.125 153.203125 C 258.449219 154.117188 259.308594 154.691406 260.226562 154.691406 C 260.472656 154.691406 260.726562 154.648438 260.972656 154.5625 C 290.648438 143.996094 311.574219 124.316406 312.449219 123.488281 C 313.34375 122.636719 313.382812 121.222656 312.535156 120.328125 C 311.683594 119.433594 310.273438 119.390625 309.378906 120.242188 C 309.171875 120.441406 288.269531 140.101562 259.480469 150.351562 C 258.316406 150.761719 257.707031 152.042969 258.125 153.203125 " fill-opacity="1" fill-rule="nonzero"/><g clip-path="url(#0b4700ad4d)"><path fill="#ffffff" d="M 274.445312 182.226562 C 273.664062 181.140625 272.804688 180.125 271.964844 179.089844 C 271.855469 178.957031 271.753906 178.820312 271.644531 178.683594 C 270.46875 177.261719 269.230469 175.898438 267.949219 174.582031 C 267.726562 174.355469 267.515625 174.121094 267.292969 173.894531 C 266.070312 172.675781 264.792969 171.519531 263.484375 170.402344 C 263.175781 170.136719 262.878906 169.859375 262.566406 169.601562 C 261.246094 168.515625 259.882812 167.5 258.488281 166.519531 C 258.164062 166.292969 257.855469 166.046875 257.527344 165.824219 C 255.960938 164.769531 254.347656 163.785156 252.703125 162.863281 C 252.542969 162.777344 252.394531 162.675781 252.230469 162.589844 C 246.597656 159.496094 240.542969 157.191406 234.21875 155.871094 C 234.257812 155.714844 234.265625 155.558594 234.304688 155.398438 C 234.757812 153.480469 235.113281 151.546875 235.363281 149.609375 C 235.402344 149.269531 235.433594 148.925781 235.472656 148.582031 C 235.695312 146.566406 235.839844 144.542969 235.839844 142.523438 C 235.839844 140.710938 235.746094 138.90625 235.570312 137.109375 C 235.035156 131.640625 233.699219 126.410156 231.695312 121.523438 C 262.121094 106.640625 295.566406 104.402344 319.878906 115.632812 C 316.289062 140.007812 299.460938 164.664062 274.445312 182.226562 Z M 282.355469 221.085938 C 282.355469 255.34375 254.804688 283.210938 220.933594 283.210938 C 202.617188 283.210938 185.542969 275.109375 173.785156 260.917969 C 174.027344 260.652344 174.234375 260.359375 174.46875 260.089844 C 175.144531 259.304688 175.800781 258.503906 176.441406 257.683594 C 177.019531 256.9375 177.574219 256.183594 178.113281 255.417969 C 178.589844 254.738281 179.058594 254.054688 179.507812 253.355469 C 180.117188 252.40625 180.691406 251.441406 181.246094 250.460938 C 181.585938 249.859375 181.925781 249.257812 182.246094 248.644531 C 182.816406 247.550781 183.335938 246.433594 183.832031 245.308594 C 184.089844 244.730469 184.351562 244.160156 184.585938 243.578125 C 185.066406 242.394531 185.488281 241.195312 185.890625 239.980469 C 186.082031 239.394531 186.296875 238.8125 186.472656 238.214844 C 186.839844 236.984375 187.136719 235.734375 187.421875 234.476562 C 187.566406 233.863281 187.726562 233.261719 187.847656 232.636719 C 188.105469 231.316406 188.289062 229.976562 188.457031 228.632812 C 188.527344 228.058594 188.632812 227.492188 188.691406 226.914062 C 188.875 224.988281 188.980469 223.042969 188.980469 221.085938 C 188.980469 219.136719 188.878906 217.203125 188.691406 215.285156 C 188.628906 214.644531 188.511719 214.023438 188.433594 213.390625 C 188.269531 212.125 188.101562 210.863281 187.859375 209.617188 C 187.71875 208.886719 187.527344 208.175781 187.359375 207.457031 C 187.09375 206.335938 186.832031 205.21875 186.507812 204.117188 C 186.285156 203.363281 186.019531 202.625 185.765625 201.878906 C 185.421875 200.859375 185.066406 199.84375 184.664062 198.847656 C 184.347656 198.054688 183.996094 197.285156 183.648438 196.511719 C 183.242188 195.621094 182.832031 194.734375 182.382812 193.863281 C 181.945312 193.007812 181.476562 192.175781 180.996094 191.34375 C 180.582031 190.628906 180.160156 189.917969 179.714844 189.214844 C 179.113281 188.261719 178.476562 187.328125 177.820312 186.414062 C 177.457031 185.910156 177.09375 185.410156 176.714844 184.917969 C 175.898438 183.847656 175.046875 182.8125 174.160156 181.804688 C 174.046875 181.675781 173.953125 181.535156 173.835938 181.410156 C 174.433594 180.6875 175.054688 179.996094 175.675781 179.308594 C 176.402344 178.507812 177.109375 177.6875 177.871094 176.929688 C 178.757812 176.046875 179.699219 175.234375 180.628906 174.410156 C 181.414062 173.714844 182.183594 172.996094 183.003906 172.34375 C 183.984375 171.5625 185.015625 170.863281 186.039062 170.144531 C 186.875 169.558594 187.695312 168.9375 188.558594 168.394531 C 189.632812 167.71875 190.757812 167.132812 191.867188 166.527344 C 192.742188 166.050781 193.59375 165.539062 194.484375 165.105469 C 195.660156 164.539062 196.882812 164.070312 198.089844 163.582031 C 198.972656 163.222656 199.835938 162.820312 200.738281 162.503906 C 202.03125 162.050781 203.363281 161.710938 204.683594 161.34375 C 205.546875 161.105469 206.390625 160.8125 207.265625 160.609375 C 208.746094 160.269531 210.265625 160.058594 211.777344 159.828125 C 212.527344 159.714844 213.257812 159.539062 214.015625 159.453125 C 216.296875 159.195312 218.605469 159.058594 220.933594 159.058594 C 222.964844 159.058594 224.96875 159.171875 226.949219 159.367188 C 227.148438 159.382812 227.363281 159.414062 227.5625 159.433594 C 229.5 159.644531 231.410156 159.929688 233.289062 160.320312 C 233.296875 160.324219 233.308594 160.324219 233.316406 160.324219 C 235.253906 160.726562 237.152344 161.226562 239.019531 161.808594 C 239.195312 161.863281 239.371094 161.929688 239.546875 161.988281 C 241.238281 162.535156 242.902344 163.144531 244.527344 163.832031 C 244.886719 163.988281 245.242188 164.160156 245.601562 164.320312 C 247.042969 164.964844 248.46875 165.644531 249.851562 166.390625 C 250.328125 166.648438 250.785156 166.941406 251.253906 167.210938 C 252.519531 167.9375 253.777344 168.683594 254.980469 169.5 C 255.441406 169.808594 255.875 170.15625 256.328125 170.480469 C 257.53125 171.339844 258.726562 172.207031 259.863281 173.148438 C 260.128906 173.367188 260.375 173.617188 260.636719 173.839844 C 273.902344 185.226562 282.355469 202.167969 282.355469 221.085938 Z M 172.492188 255.523438 C 171.589844 256.644531 170.632812 257.730469 169.640625 258.789062 C 159.742188 269.398438 145.773438 276.058594 130.269531 276.058594 C 100.296875 276.058594 75.917969 251.398438 75.917969 221.085938 C 75.917969 207.097656 81.171875 194.359375 89.730469 184.660156 C 90.707031 183.554688 91.710938 182.480469 92.761719 181.46875 C 93.128906 181.113281 93.515625 180.777344 93.890625 180.429688 C 94.921875 179.492188 95.980469 178.585938 97.070312 177.734375 C 97.484375 177.410156 97.90625 177.09375 98.332031 176.78125 C 99.445312 175.960938 100.585938 175.1875 101.753906 174.457031 C 102.1875 174.1875 102.613281 173.917969 103.054688 173.660156 C 104.273438 172.941406 105.523438 172.289062 106.789062 171.671875 C 107.210938 171.464844 107.625 171.25 108.054688 171.054688 C 109.382812 170.449219 110.742188 169.917969 112.113281 169.425781 C 112.519531 169.277344 112.914062 169.113281 113.324219 168.976562 C 114.746094 168.503906 116.199219 168.113281 117.660156 167.761719 C 118.050781 167.667969 118.429688 167.546875 118.820312 167.460938 C 120.320312 167.128906 121.847656 166.898438 123.375 166.703125 C 123.753906 166.652344 124.121094 166.570312 124.5 166.527344 C 126.40625 166.320312 128.332031 166.207031 130.269531 166.207031 C 131.738281 166.207031 133.183594 166.316406 134.625 166.433594 C 135.410156 166.496094 136.191406 166.578125 136.96875 166.671875 C 138.023438 166.808594 139.070312 166.964844 140.105469 167.160156 C 140.746094 167.277344 141.382812 167.402344 142.015625 167.542969 C 143.140625 167.796875 144.25 168.089844 145.351562 168.414062 C 145.902344 168.574219 146.457031 168.734375 147.003906 168.914062 C 148.117188 169.277344 149.210938 169.695312 150.292969 170.132812 C 150.824219 170.347656 151.359375 170.550781 151.886719 170.785156 C 152.894531 171.230469 153.875 171.726562 154.847656 172.230469 C 155.4375 172.535156 156.035156 172.824219 156.613281 173.15625 C 157.410156 173.605469 158.175781 174.101562 158.949219 174.59375 C 159.683594 175.058594 160.421875 175.511719 161.136719 176.019531 C 161.632812 176.367188 162.101562 176.75 162.585938 177.117188 C 163.539062 177.835938 164.492188 178.558594 165.398438 179.347656 C 165.546875 179.480469 165.6875 179.617188 165.835938 179.75 C 167 180.785156 168.136719 181.855469 169.21875 182.996094 C 169.222656 182.996094 169.222656 182.996094 169.222656 182.996094 C 169.222656 183 169.222656 183.003906 169.226562 183.007812 C 170.441406 184.269531 171.582031 185.585938 172.664062 186.945312 C 172.765625 187.070312 172.851562 187.207031 172.953125 187.335938 C 173.894531 188.542969 174.785156 189.78125 175.617188 191.058594 C 175.917969 191.515625 176.179688 191.996094 176.464844 192.464844 C 177.066406 193.449219 177.664062 194.441406 178.203125 195.464844 C 178.578125 196.175781 178.902344 196.914062 179.246094 197.644531 C 179.636719 198.476562 180.046875 199.304688 180.394531 200.15625 C 180.757812 201.042969 181.0625 201.960938 181.378906 202.875 C 181.640625 203.617188 181.925781 204.351562 182.15625 205.109375 C 182.460938 206.117188 182.691406 207.15625 182.941406 208.1875 C 183.105469 208.886719 183.308594 209.574219 183.449219 210.28125 C 183.675781 211.4375 183.824219 212.617188 183.980469 213.796875 C 184.0625 214.40625 184.179688 215.003906 184.242188 215.621094 C 184.417969 217.417969 184.515625 219.238281 184.515625 221.085938 C 184.515625 222.9375 184.417969 224.773438 184.238281 226.582031 C 184.191406 227.085938 184.089844 227.578125 184.027344 228.082031 C 183.863281 229.390625 183.691406 230.695312 183.4375 231.972656 C 183.339844 232.480469 183.1875 232.972656 183.074219 233.476562 C 182.785156 234.730469 182.496094 235.988281 182.125 237.210938 C 181.984375 237.679688 181.796875 238.132812 181.644531 238.597656 C 181.238281 239.820312 180.820312 241.042969 180.332031 242.226562 C 180.132812 242.710938 179.894531 243.175781 179.679688 243.648438 C 179.179688 244.773438 178.671875 245.890625 178.097656 246.972656 C 177.785156 247.558594 177.433594 248.125 177.097656 248.699219 C 176.574219 249.613281 176.050781 250.527344 175.472656 251.40625 C 174.945312 252.214844 174.359375 252.988281 173.78125 253.769531 C 173.355469 254.355469 172.941406 254.953125 172.492188 255.523438 Z M 55.105469 130.628906 C 75.019531 121.578125 102.324219 123.511719 127.15625 135.761719 C 127.132812 135.949219 127.144531 136.136719 127.125 136.324219 C 126.894531 138.363281 126.753906 140.425781 126.753906 142.523438 C 126.753906 144.34375 126.863281 146.15625 127.035156 147.960938 C 127.09375 148.558594 127.195312 149.140625 127.269531 149.734375 C 127.425781 150.941406 127.601562 152.136719 127.832031 153.324219 C 127.964844 154.007812 128.125 154.679688 128.285156 155.351562 C 128.539062 156.441406 128.820312 157.511719 129.136719 158.574219 C 129.339844 159.25 129.550781 159.917969 129.777344 160.582031 C 129.910156 160.964844 130.007812 161.363281 130.144531 161.742188 C 129.5625 161.742188 128.984375 161.820312 128.398438 161.839844 C 126.964844 161.882812 125.523438 161.921875 124.113281 162.070312 C 123.765625 162.109375 123.429688 162.1875 123.082031 162.230469 C 121.410156 162.4375 119.75 162.683594 118.125 163.027344 C 117.929688 163.070312 117.738281 163.136719 117.546875 163.179688 C 115.78125 163.574219 114.039062 164.035156 112.339844 164.585938 C 112.121094 164.65625 111.910156 164.75 111.695312 164.824219 C 110.027344 165.382812 108.390625 166 106.792969 166.703125 C 106.492188 166.839844 106.199219 167.003906 105.894531 167.140625 C 104.410156 167.828125 102.953125 168.550781 101.535156 169.355469 C 101.140625 169.582031 100.757812 169.839844 100.363281 170.078125 C 99.074219 170.847656 97.804688 171.648438 96.578125 172.515625 C 96.125 172.835938 95.691406 173.183594 95.246094 173.519531 C 94.121094 174.367188 93.011719 175.238281 91.949219 176.160156 C 91.476562 176.570312 91.023438 177.003906 90.566406 177.429688 C 89.574219 178.347656 88.609375 179.289062 87.679688 180.273438 C 87.480469 180.484375 87.261719 180.664062 87.0625 180.882812 C 69.453125 166.789062 57.917969 148.652344 55.105469 130.628906 Z M 131.457031 137.8125 C 131.492188 137.433594 131.539062 137.058594 131.582031 136.683594 C 134.457031 111.523438 155.617188 91.917969 181.25 91.917969 C 201.527344 91.917969 218.992188 104.164062 226.878906 121.691406 C 227.582031 123.285156 228.222656 124.890625 228.761719 126.515625 C 228.765625 126.527344 228.769531 126.542969 228.773438 126.554688 C 229.347656 128.285156 229.828125 130.03125 230.210938 131.792969 C 230.210938 131.792969 230.214844 131.796875 230.214844 131.800781 C 230.578125 133.453125 230.835938 135.121094 231.027344 136.800781 C 231.042969 136.921875 231.070312 137.042969 231.085938 137.167969 C 231.277344 138.941406 231.375 140.730469 231.375 142.523438 C 231.375 144.445312 231.230469 146.371094 231.011719 148.292969 C 230.980469 148.585938 230.957031 148.875 230.917969 149.167969 C 230.679688 150.992188 230.332031 152.8125 229.894531 154.625 C 229.855469 154.796875 229.808594 154.96875 229.765625 155.140625 C 229.125 155.066406 228.511719 155.03125 227.882812 154.96875 C 227.703125 154.949219 227.519531 154.933594 227.332031 154.917969 C 225.15625 154.722656 223.023438 154.589844 220.933594 154.589844 C 218.445312 154.589844 215.976562 154.738281 213.539062 155.015625 C 212.726562 155.105469 211.9375 155.289062 211.132812 155.410156 C 209.519531 155.65625 207.90625 155.882812 206.328125 156.242188 C 205.375 156.460938 204.460938 156.773438 203.523438 157.03125 C 202.125 157.417969 200.71875 157.78125 199.351562 158.257812 C 198.375 158.597656 197.4375 159.03125 196.480469 159.414062 C 195.195312 159.933594 193.910156 160.429688 192.664062 161.03125 C 191.703125 161.492188 190.78125 162.035156 189.847656 162.542969 C 188.660156 163.1875 187.46875 163.8125 186.320312 164.53125 C 185.394531 165.109375 184.519531 165.757812 183.621094 166.382812 C 182.523438 167.148438 181.425781 167.90625 180.371094 168.742188 C 179.503906 169.425781 178.679688 170.175781 177.847656 170.910156 C 176.835938 171.792969 175.832031 172.675781 174.871094 173.625 C 174.074219 174.417969 173.316406 175.265625 172.550781 176.101562 C 171.929688 176.785156 171.261719 177.40625 170.667969 178.113281 C 170.46875 177.925781 170.257812 177.757812 170.054688 177.574219 C 169.070312 176.648438 168.078125 175.738281 167.03125 174.882812 C 166.371094 174.339844 165.675781 173.855469 164.996094 173.34375 C 164.304688 172.832031 163.640625 172.285156 162.925781 171.800781 C 161.4375 170.78125 159.898438 169.84375 158.328125 168.972656 C 158.125 168.859375 157.90625 168.765625 157.699219 168.65625 C 156.292969 167.898438 154.859375 167.195312 153.398438 166.558594 C 153.039062 166.402344 152.675781 166.269531 152.3125 166.121094 C 150.980469 165.574219 149.636719 165.066406 148.265625 164.621094 C 147.8125 164.472656 147.351562 164.339844 146.894531 164.203125 C 145.597656 163.816406 144.289062 163.472656 142.964844 163.179688 C 142.429688 163.058594 141.894531 162.941406 141.351562 162.835938 C 140.085938 162.59375 138.816406 162.402344 137.53125 162.246094 C 136.917969 162.167969 136.3125 162.078125 135.691406 162.019531 C 135.488281 162 135.285156 161.960938 135.082031 161.945312 C 134.78125 161.222656 134.503906 160.492188 134.238281 159.753906 C 134.011719 159.117188 133.761719 158.488281 133.554688 157.835938 C 133.246094 156.839844 133 155.8125 132.746094 154.789062 C 132.59375 154.144531 132.40625 153.511719 132.273438 152.863281 C 132.042969 151.730469 131.890625 150.574219 131.734375 149.421875 C 131.660156 148.859375 131.546875 148.304688 131.492188 147.738281 C 131.316406 146.011719 131.222656 144.269531 131.222656 142.523438 C 131.222656 140.933594 131.316406 139.363281 131.457031 137.8125 Z M 323.292969 112.308594 C 297.679688 99.722656 262.0625 101.769531 229.820312 117.507812 C 220.769531 99.695312 202.417969 87.449219 181.25 87.449219 C 155.042969 87.449219 133.105469 106.25 127.925781 131.203125 C 101.578125 118.585938 72.609375 117.027344 51.683594 127.308594 C 50.824219 127.730469 50.332031 128.648438 50.453125 129.597656 C 52.953125 149.253906 65.230469 169.070312 84.210938 184.289062 C 76.246094 194.414062 71.449219 207.183594 71.449219 221.085938 C 71.449219 253.863281 97.835938 280.527344 130.269531 280.527344 C 145.945312 280.527344 160.175781 274.238281 170.714844 264.066406 C 183.3125 279.058594 201.433594 287.679688 220.933594 287.679688 C 257.265625 287.679688 286.820312 257.804688 286.820312 221.085938 C 286.820312 208.199219 283.113281 196.199219 276.800781 185.996094 C 303.480469 167.328125 321.285156 140.777344 324.523438 114.59375 C 324.640625 113.648438 324.148438 112.730469 323.292969 112.308594 " fill-opacity="1" fill-rule="nonzero"/></g><path fill="#ffffff" d="M 187.996094 124.578125 C 188.164062 121.734375 190.746094 120.125 192.882812 119.273438 C 193.714844 118.941406 194.269531 118.144531 194.285156 117.25 C 194.367188 113.648438 195.414062 111.050781 197.09375 110.296875 C 198.777344 109.542969 201.308594 110.460938 204.054688 112.832031 C 204.734375 113.417969 205.707031 113.539062 206.515625 113.132812 C 209.375 111.6875 211.972656 111.628906 213.640625 112.976562 C 215.394531 114.390625 216.203125 117.378906 215.863281 121.167969 C 215.796875 121.9375 216.125 122.691406 216.746094 123.152344 C 219.683594 125.363281 221.328125 127.980469 221.261719 130.269531 C 221.125 132.425781 219.339844 134.363281 216.355469 135.589844 C 215.53125 135.925781 214.988281 136.71875 214.96875 137.605469 C 214.890625 141.175781 213.800781 143.777344 212.0625 144.554688 C 210.378906 145.3125 207.847656 144.386719 205.105469 142.023438 C 204.6875 141.664062 204.171875 141.480469 203.644531 141.480469 C 203.304688 141.480469 202.957031 141.558594 202.640625 141.71875 C 200.984375 142.5625 197.851562 143.6875 195.5625 141.914062 C 193.761719 140.382812 192.957031 137.457031 193.292969 133.683594 C 193.363281 132.914062 193.03125 132.160156 192.410156 131.695312 C 189.507812 129.515625 187.855469 126.855469 187.996094 124.578125 Z M 188.769531 134.503906 C 188.597656 139.207031 189.972656 143.019531 192.746094 145.382812 C 195.574219 147.574219 199.367188 147.898438 203.3125 146.316406 C 205.898438 148.28125 208.460938 149.289062 210.796875 149.289062 C 211.878906 149.289062 212.917969 149.070312 213.890625 148.636719 C 216.988281 147.242188 218.9375 143.816406 219.351562 139.125 C 223.199219 137.164062 225.496094 134.085938 225.71875 130.476562 C 225.824219 126.953125 223.898438 123.3125 220.386719 120.34375 C 220.574219 115.539062 219.191406 111.71875 216.445312 109.5 C 213.664062 107.25 209.855469 106.921875 205.847656 108.53125 C 202.050781 105.664062 198.335938 104.839844 195.265625 106.21875 C 192.179688 107.605469 190.300781 110.949219 189.902344 115.710938 C 186 117.652344 183.757812 120.660156 183.539062 124.308594 C 183.320312 127.835938 185.214844 131.5 188.769531 134.503906 " fill-opacity="1" fill-rule="nonzero"/><path fill="#ffffff" d="M 202.40625 122.410156 C 203.46875 121.960938 204.691406 122.003906 205.828125 122.527344 C 207.074219 123.101562 208.082031 124.167969 208.6875 125.574219 C 209.359375 127.039062 209.441406 128.664062 208.917969 130.027344 C 208.625 130.78125 208.023438 131.792969 206.738281 132.351562 C 205.484375 132.929688 204.328125 132.703125 203.578125 132.417969 C 202.242188 131.902344 201.113281 130.773438 200.46875 129.28125 C 199.246094 126.597656 200.117188 123.523438 202.40625 122.410156 Z M 201.984375 136.59375 C 203.011719 136.984375 204.074219 137.179688 205.121094 137.179688 C 206.3125 137.179688 207.484375 136.929688 208.558594 136.429688 C 210.632812 135.53125 212.242188 133.824219 213.085938 131.628906 C 214.035156 129.152344 213.914062 126.269531 212.769531 123.761719 C 211.742188 121.382812 209.941406 119.503906 207.695312 118.46875 C 205.371094 117.402344 202.851562 117.347656 200.597656 118.324219 C 200.570312 118.332031 200.550781 118.34375 200.527344 118.355469 C 196.019531 120.5 194.171875 126.230469 196.386719 131.09375 C 197.492188 133.648438 199.53125 135.652344 201.984375 136.59375 " fill-opacity="1" fill-rule="nonzero"/><path fill="#ffffff" d="M 270.085938 206.214844 C 269.78125 210.125 266.03125 212.171875 263.828125 213.046875 C 262.988281 213.378906 262.429688 214.183594 262.414062 215.085938 C 262.328125 219.617188 260.933594 222.964844 258.757812 223.996094 C 256.4375 224.996094 253.136719 223.832031 249.726562 220.804688 C 249.304688 220.433594 248.777344 220.242188 248.242188 220.242188 C 247.902344 220.242188 247.554688 220.320312 247.238281 220.480469 C 245.074219 221.574219 241.011719 223.042969 238.0625 220.644531 C 235.738281 218.75 234.703125 215.066406 235.140625 210.265625 C 235.214844 209.492188 234.878906 208.742188 234.257812 208.277344 C 230.480469 205.425781 228.441406 202.125 228.664062 199.148438 C 228.804688 196.367188 231.054688 193.894531 234.835938 192.367188 C 235.648438 192.035156 236.199219 191.257812 236.230469 190.375 C 236.402344 185.726562 237.777344 182.460938 240.011719 181.414062 C 242.34375 180.433594 245.625 181.601562 249.023438 184.617188 C 249.710938 185.222656 250.691406 185.351562 251.507812 184.941406 C 253.671875 183.847656 257.726562 182.359375 260.585938 184.777344 C 262.90625 186.667969 263.945312 190.359375 263.503906 195.160156 C 263.433594 195.929688 263.769531 196.683594 264.386719 197.148438 C 268.210938 200.023438 270.230469 203.265625 270.085938 206.214844 Z M 263.433594 181.335938 C 260.226562 178.636719 255.707031 178.285156 250.851562 180.324219 C 246.390625 176.789062 241.960938 175.726562 238.226562 177.316406 C 238.210938 177.324219 238.191406 177.332031 238.171875 177.339844 C 234.566406 179 232.351562 183.042969 231.855469 188.804688 C 227.183594 191.082031 224.417969 194.707031 224.207031 198.867188 C 223.894531 203.039062 226.210938 207.441406 230.613281 211.085938 C 230.339844 216.839844 231.960938 221.433594 235.242188 224.109375 C 238.515625 226.777344 243.0625 227.121094 247.890625 225.097656 C 250.984375 227.554688 254.070312 228.816406 256.941406 228.816406 C 258.207031 228.816406 259.429688 228.570312 260.59375 228.070312 C 264.167969 226.375 266.394531 222.242188 266.8125 216.617188 C 271.421875 214.394531 274.210938 210.78125 274.539062 206.496094 C 274.75 202.257812 272.449219 197.976562 268.035156 194.335938 C 268.3125 188.582031 266.6875 183.988281 263.433594 181.335938 " fill-opacity="1" fill-rule="nonzero"/><path fill="#ffffff" d="M 252.167969 209.199219 C 249.164062 210.511719 245.457031 208.699219 243.894531 205.183594 C 242.320312 201.613281 243.5 197.582031 246.515625 196.203125 C 247.164062 195.90625 247.871094 195.757812 248.59375 195.757812 C 249.277344 195.757812 249.976562 195.886719 250.664062 196.152344 C 252.480469 196.839844 254 198.328125 254.84375 200.238281 C 256.386719 203.730469 255.144531 207.839844 252.167969 209.199219 Z M 252.253906 191.972656 C 249.699219 191.003906 247.007812 191.0625 244.664062 192.136719 C 239.429688 194.53125 237.253906 201.195312 239.816406 206.992188 C 241.761719 211.390625 245.921875 214.082031 250.136719 214.082031 C 251.433594 214.082031 252.734375 213.824219 253.984375 213.285156 C 259.261719 210.871094 261.484375 204.207031 258.925781 198.429688 C 257.605469 195.4375 255.171875 193.085938 252.253906 191.972656 " fill-opacity="1" fill-rule="nonzero"/><path fill="#ffffff" d="M 114.800781 259.582031 C 90 248.019531 88.726562 225.234375 88.683594 224.269531 C 88.636719 223.039062 87.597656 222.09375 86.363281 222.132812 C 85.132812 222.183594 84.179688 223.21875 84.226562 224.453125 C 84.265625 225.523438 85.578125 250.890625 112.917969 263.632812 C 113.226562 263.773438 113.542969 263.84375 113.863281 263.84375 C 114.703125 263.84375 115.503906 263.363281 115.882812 262.550781 C 116.40625 261.429688 115.921875 260.105469 114.800781 259.582031 " fill-opacity="1" fill-rule="nonzero"/><path fill="#ffffff" d="M 173.617188 207.851562 C 173.480469 210.277344 171.484375 212.421875 168.148438 213.742188 C 167.316406 214.070312 166.757812 214.875 166.734375 215.773438 C 166.652344 219.777344 165.519531 222.5625 163.628906 223.417969 C 161.746094 224.28125 158.84375 223.261719 155.894531 220.691406 C 155.480469 220.328125 154.957031 220.140625 154.429688 220.140625 C 154.09375 220.140625 153.757812 220.214844 153.445312 220.371094 C 151.597656 221.28125 148.109375 222.5 145.535156 220.550781 C 143.585938 218.945312 142.675781 215.597656 143.097656 211.585938 C 143.179688 210.816406 142.851562 210.054688 142.242188 209.582031 C 138.917969 207.015625 137.164062 204.195312 137.3125 201.644531 C 137.480469 198.539062 140.324219 196.777344 142.675781 195.851562 C 143.515625 195.519531 144.070312 194.71875 144.085938 193.816406 C 144.171875 189.824219 145.328125 186.933594 147.1875 186.078125 C 149.15625 185.214844 151.976562 186.242188 154.902344 188.878906 C 155.589844 189.496094 156.582031 189.625 157.402344 189.214844 C 159.277344 188.265625 162.789062 186.988281 165.292969 189.039062 C 167.269531 190.671875 168.167969 193.875 167.828125 198.058594 C 167.765625 198.828125 168.101562 199.574219 168.71875 200.035156 C 171.972656 202.460938 173.761719 205.308594 173.617188 207.851562 Z M 172.351562 197.203125 C 172.519531 192.089844 171.042969 187.992188 168.128906 185.589844 C 165.183594 183.160156 161.09375 182.820312 156.753906 184.601562 C 152.765625 181.4375 148.769531 180.511719 145.382812 181.992188 C 145.375 181.996094 145.363281 182 145.359375 182 C 142.082031 183.488281 140.097656 187.113281 139.695312 192.28125 C 135.484375 194.328125 133.070312 197.523438 132.847656 201.394531 C 132.636719 205.164062 134.65625 209.023438 138.558594 212.347656 C 138.296875 217.390625 139.78125 221.601562 142.769531 224.058594 C 145.777344 226.339844 149.84375 226.65625 154.082031 224.972656 C 156.839844 227.089844 159.632812 228.183594 162.171875 228.183594 C 163.335938 228.183594 164.441406 227.957031 165.472656 227.492188 C 168.746094 226.007812 170.730469 222.421875 171.132812 217.308594 C 175.347656 215.25 177.855469 211.953125 178.074219 208.101562 C 178.289062 204.277344 176.265625 200.441406 172.351562 197.203125 " fill-opacity="1" fill-rule="nonzero"/><path fill="#ffffff" d="M 157.863281 210.296875 C 155.300781 211.421875 152.121094 209.875 150.789062 206.902344 C 149.5 203.859375 150.496094 200.378906 152.96875 199.296875 C 152.980469 199.292969 152.984375 199.289062 152.996094 199.285156 C 153.648438 198.988281 154.277344 198.878906 154.847656 198.878906 C 155.53125 198.878906 156.128906 199.035156 156.589844 199.207031 C 158.070312 199.769531 159.335938 201.019531 160.046875 202.613281 C 161.417969 205.746094 160.449219 209.128906 157.863281 210.296875 Z M 158.171875 195.03125 C 155.859375 194.148438 153.367188 194.210938 151.167969 195.207031 C 146.429688 197.289062 144.414062 203.316406 146.699219 208.6875 C 148.484375 212.683594 152.28125 215.121094 156.121094 215.121094 C 157.324219 215.121094 158.53125 214.882812 159.675781 214.382812 C 164.539062 212.179688 166.5 206.226562 164.128906 200.804688 C 162.925781 198.113281 160.753906 196.011719 158.171875 195.03125 " fill-opacity="1" fill-rule="nonzero"/></svg>