<svg xmlns="http://www.w3.org/2000/svg" xmlns:xlink="http://www.w3.org/1999/xlink" width="500" zoomAndPan="magnify" viewBox="0 0 375 374.999991" height="500" preserveAspectRatio="xMidYMid meet" version="1.0"><defs><clipPath id="81d6172a20"><path d="M 187.5 0 C 83.945312 0 0 83.945312 0 187.5 C 0 291.054688 83.945312 375 187.5 375 C 291.054688 375 375 291.054688 375 187.5 C 375 83.945312 291.054688 0 187.5 0 Z M 187.5 0 " clip-rule="nonzero"/></clipPath><clipPath id="0961c3bdb3"><path d="M 62.015625 62.015625 L 313.265625 62.015625 L 313.265625 313.265625 L 62.015625 313.265625 Z M 62.015625 62.015625 " clip-rule="nonzero"/></clipPath></defs><g clip-path="url(#81d6172a20)"><rect x="-37.5" width="450" fill="#f47c2e" y="-37.499999" height="449.999989" fill-opacity="1"/></g><g clip-path="url(#0961c3bdb3)"><path fill="#ffffff" d="M 311.171875 291.191406 L 274.707031 291.191406 L 274.707031 268.4375 C 287.832031 266.410156 297.847656 244.492188 297.847656 216.863281 C 297.847656 213.34375 297.664062 209.894531 297.339844 206.523438 C 298.695312 203.03125 306.957031 180.445312 303.1875 157.460938 C 301.484375 147.054688 297.125 137.546875 292.910156 128.351562 C 287.25 116 281.902344 104.335938 283.972656 92.332031 C 284.117188 91.5 283.722656 90.671875 282.984375 90.257812 C 282.25 89.84375 281.332031 89.933594 280.699219 90.492188 C 275.210938 95.277344 266.925781 97.769531 256.003906 97.921875 C 263.761719 91.949219 268.136719 83.355469 269.320312 71.84375 C 269.398438 71.089844 269.042969 70.359375 268.40625 69.953125 C 267.769531 69.546875 266.957031 69.539062 266.3125 69.929688 C 255.71875 76.316406 246.859375 75.835938 236.589844 75.28125 C 231.941406 75.03125 227.140625 74.769531 221.789062 75.101562 C 210.390625 75.808594 199.226562 80.601562 192.617188 83.996094 C 194.957031 77.273438 195.359375 68.515625 194.164062 63.722656 C 194 63.074219 193.527344 62.554688 192.894531 62.328125 C 192.265625 62.105469 191.570312 62.214844 191.035156 62.613281 C 177.027344 73.152344 161.097656 76.992188 147.042969 80.378906 C 142.734375 81.417969 138.667969 82.398438 134.734375 83.535156 C 122.523438 87.058594 114.714844 94.054688 110.945312 98.203125 L 108.261719 86.855469 C 108.046875 85.941406 107.171875 85.3125 106.292969 85.320312 C 105.355469 85.335938 104.554688 86 104.371094 86.917969 C 102.265625 97.285156 95.566406 106.011719 88.472656 115.253906 C 81.554688 124.261719 74.402344 133.578125 70.363281 145.542969 C 62.402344 169.101562 67.828125 202.933594 68.402344 206.324219 C 68.0625 209.753906 67.878906 213.277344 67.878906 216.863281 C 67.878906 244.492188 77.894531 266.410156 91.019531 268.4375 L 91.019531 291.191406 L 64.105469 291.191406 C 63.007812 291.191406 62.113281 292.085938 62.113281 293.183594 L 62.113281 311.273438 C 62.113281 312.371094 63.007812 313.265625 64.105469 313.265625 L 311.171875 313.265625 C 312.273438 313.265625 313.164062 312.371094 313.164062 311.273438 L 313.164062 293.1875 C 313.164062 292.085938 312.273438 291.191406 311.171875 291.191406 Z M 247.414062 291.191406 L 247.414062 263.800781 C 250.128906 261.214844 252.597656 257.625 254.691406 253.214844 C 258.839844 261.988281 264.457031 267.488281 270.722656 268.449219 L 270.722656 291.191406 Z M 234.914062 291.191406 L 234.914062 225.636719 C 243.296875 218.214844 249.65625 207.898438 253.03125 195.945312 L 259.941406 187.976562 L 266.289062 194.320312 L 243.84375 223.371094 C 243.574219 223.722656 243.429688 224.148438 243.429688 224.59375 L 243.429688 291.195312 L 234.914062 291.195312 Z M 209.742188 291.191406 L 209.742188 237.515625 C 211 237.335938 212.242188 237.105469 213.46875 236.824219 C 216.566406 252.417969 222.964844 263.574219 230.929688 267.273438 L 230.929688 291.191406 Z M 197.132812 291.191406 L 197.132812 208.859375 C 197.132812 208.378906 196.960938 207.917969 196.648438 207.558594 L 185.40625 194.519531 C 185.8125 192.878906 186.15625 191.207031 186.441406 189.519531 L 197.164062 202.273438 C 197.703125 202.917969 198.585938 203.152344 199.371094 202.863281 C 200.160156 202.578125 200.683594 201.832031 200.683594 200.992188 L 200.683594 170.019531 C 200.683594 169.660156 200.585938 169.308594 200.398438 168.996094 L 190.417969 152.3125 L 195.039062 150.085938 L 200.515625 158.671875 C 200.890625 159.257812 201.527344 159.621094 202.238281 159.59375 C 202.929688 159.578125 203.566406 159.203125 203.917969 158.605469 L 210.566406 147.226562 L 214 148.980469 L 205.234375 166.648438 C 205.097656 166.921875 205.027344 167.226562 205.027344 167.53125 L 205.027344 185.355469 C 205.027344 186.171875 205.523438 186.90625 206.28125 187.207031 C 207.039062 187.511719 207.90625 187.320312 208.464844 186.726562 L 219.65625 174.890625 L 222.46875 178.15625 L 206.277344 195.84375 C 205.941406 196.214844 205.753906 196.691406 205.753906 197.191406 L 205.753906 291.1875 L 197.132812 291.1875 Z M 168.882812 291.191406 L 168.882812 268.449219 C 178.589844 266.960938 186.738281 254.632812 190.257812 236.042969 C 191.210938 236.328125 192.175781 236.570312 193.148438 236.796875 L 193.148438 291.191406 Z M 144.53125 291.191406 L 144.53125 264.800781 C 146.855469 262.871094 148.996094 260.238281 150.898438 257.03125 C 154.839844 263.683594 159.691406 267.632812 164.898438 268.4375 L 164.898438 291.191406 Z M 131.925781 291.191406 L 131.925781 208.859375 C 131.925781 208.378906 131.753906 207.917969 131.441406 207.558594 L 112.742188 185.875 L 115.878906 183.144531 L 131.957031 202.277344 C 132.496094 202.917969 133.382812 203.152344 134.164062 202.867188 C 134.953125 202.578125 135.476562 201.832031 135.476562 200.996094 L 135.476562 170.019531 C 135.476562 169.660156 135.378906 169.308594 135.191406 168.996094 L 125.207031 152.3125 L 129.832031 150.085938 L 135.308594 158.671875 C 135.683594 159.257812 136.359375 159.621094 137.027344 159.59375 C 137.722656 159.582031 138.359375 159.207031 138.710938 158.605469 L 145.355469 147.230469 L 148.789062 148.980469 L 140.023438 166.648438 C 139.886719 166.925781 139.816406 167.226562 139.816406 167.535156 L 139.816406 185.359375 C 139.816406 186.175781 140.316406 186.910156 141.070312 187.210938 C 141.828125 187.511719 142.695312 187.320312 143.257812 186.726562 L 154.449219 174.890625 L 157.261719 178.160156 L 141.070312 195.847656 C 140.734375 196.214844 140.546875 196.695312 140.546875 197.191406 L 140.546875 291.191406 Z M 96.707031 138.726562 C 96.707031 138.726562 96.707031 138.722656 96.707031 138.722656 C 99.214844 136.035156 103.347656 130.292969 105.832031 125.191406 C 106.769531 126.945312 107.070312 129.140625 106.761719 131.832031 C 106.636719 132.898438 107.378906 133.867188 108.4375 134.03125 C 109.503906 134.191406 110.492188 133.492188 110.695312 132.441406 C 112.136719 124.988281 114.847656 118.90625 118.964844 113.9375 C 121.078125 117.824219 122.46875 121.789062 123.101562 125.75 C 123.25 126.695312 124.054688 127.402344 125.015625 127.425781 C 125.960938 127.429688 126.816406 126.785156 127.015625 125.847656 C 128.230469 120.113281 130.121094 115.3125 132.746094 111.289062 C 134.40625 116.683594 137.105469 121.78125 142.246094 122.675781 C 142.261719 122.679688 142.273438 122.691406 142.289062 122.695312 C 166.105469 127.746094 183.390625 151.152344 183.390625 178.355469 C 183.390625 204.714844 167.179688 227.414062 144.53125 233.421875 L 144.53125 197.96875 L 161.394531 179.546875 C 162.074219 178.800781 162.09375 177.664062 161.433594 176.902344 L 156.027344 170.617188 C 155.660156 170.191406 155.128906 169.9375 154.566406 169.925781 C 154.007812 169.902344 153.457031 170.140625 153.070312 170.550781 L 143.800781 180.355469 L 143.800781 168.003906 L 153.234375 148.988281 C 153.71875 148.011719 153.328125 146.828125 152.355469 146.332031 L 145.488281 142.824219 C 144.550781 142.339844 143.398438 142.679688 142.863281 143.59375 L 136.910156 153.777344 L 132.238281 146.449219 C 131.695312 145.597656 130.597656 145.289062 129.691406 145.726562 L 121.511719 149.667969 C 121.007812 149.914062 120.628906 150.355469 120.46875 150.894531 C 120.308594 151.429688 120.378906 152.007812 120.667969 152.488281 L 131.488281 170.570312 L 131.488281 195.523438 L 117.621094 179.023438 C 117.277344 178.613281 116.78125 178.359375 116.25 178.316406 C 115.722656 178.277344 115.191406 178.449219 114.789062 178.800781 L 108.628906 184.171875 C 107.800781 184.890625 107.714844 186.144531 108.429688 186.972656 L 127.941406 209.59375 L 127.941406 234.730469 C 102.164062 231.96875 82.269531 207.652344 82.269531 178.355469 C 82.269531 163.453125 87.398438 149.375 96.707031 138.726562 Z M 178.632812 126.292969 C 184.378906 122.496094 189.625 117.636719 194.546875 111.535156 C 194.425781 115.054688 194.734375 118.882812 196.316406 120.960938 C 197.109375 122.003906 198.183594 122.617188 199.417969 122.730469 C 203.808594 123.15625 209.460938 117.492188 212.734375 113.691406 C 214.421875 117.808594 217.355469 120.71875 221.617188 122.535156 C 221.617188 122.535156 221.617188 122.535156 221.621094 122.535156 C 239.925781 131.484375 251.753906 152.519531 251.753906 176.128906 C 251.753906 205 233.472656 229.699219 209.742188 233.496094 L 209.742188 197.972656 L 226.601562 179.546875 C 227.285156 178.804688 227.300781 177.667969 226.644531 176.902344 L 221.238281 170.621094 C 220.867188 170.195312 220.339844 169.941406 219.773438 169.929688 C 219.207031 169.90625 218.667969 170.140625 218.28125 170.550781 L 209.011719 180.355469 L 209.011719 168.007812 L 218.445312 148.996094 C 218.929688 148.015625 218.539062 146.832031 217.566406 146.335938 L 210.699219 142.828125 C 209.761719 142.34375 208.609375 142.683594 208.074219 143.597656 L 202.125 153.78125 L 197.449219 146.453125 C 196.90625 145.597656 195.808594 145.292969 194.90625 145.730469 L 186.722656 149.671875 C 186.21875 149.917969 185.839844 150.359375 185.679688 150.898438 C 185.519531 151.433594 185.59375 152.011719 185.878906 152.492188 L 196.699219 170.574219 L 196.699219 195.527344 L 187.125 184.140625 C 187.289062 182.234375 187.378906 180.304688 187.378906 178.359375 C 187.378906 161.070312 180.796875 145.207031 170.066406 134.039062 C 172.679688 131.09375 175.542969 128.476562 178.632812 126.292969 Z M 245.421875 124.371094 C 251.640625 124.371094 258.71875 120.703125 263.199219 115.453125 C 264.496094 119.539062 264.367188 123.199219 262.816406 126.5625 C 262.542969 127.164062 262.582031 127.859375 262.921875 128.425781 C 263.261719 128.988281 263.859375 129.347656 264.515625 129.382812 C 267.84375 129.5625 270.53125 129.015625 272.574219 127.742188 C 273.582031 133.375 275.300781 137.839844 277.878906 141.585938 C 277.890625 141.601562 277.90625 141.605469 277.914062 141.617188 C 277.921875 141.628906 277.925781 141.648438 277.933594 141.660156 C 285.527344 151.632812 289.707031 164.609375 289.707031 178.191406 C 289.707031 207.054688 270.910156 230.679688 247.410156 231.949219 L 247.410156 225.269531 L 270.511719 195.367188 C 271.125 194.574219 271.050781 193.449219 270.34375 192.742188 L 261.246094 183.644531 C 260.855469 183.25 260.304688 183.035156 259.765625 183.0625 C 259.214844 183.082031 258.695312 183.332031 258.332031 183.746094 L 254.820312 187.792969 C 255.421875 184.015625 255.738281 180.113281 255.738281 176.125 C 255.738281 155.988281 247.5625 137.59375 234.191406 126.128906 C 237.84375 124.96875 241.605469 124.371094 245.421875 124.371094 Z M 252.558594 248.097656 C 251.070312 251.910156 249.332031 255.171875 247.414062 257.773438 L 247.414062 235.941406 C 248.046875 235.90625 248.675781 235.855469 249.300781 235.796875 C 250.136719 240.273438 251.226562 244.40625 252.558594 248.097656 Z M 230.929688 262.71875 C 224.972656 258.71875 219.859375 248.675781 217.324219 235.769531 C 222.195312 234.203125 226.765625 231.855469 230.929688 228.835938 Z M 193.148438 232.707031 C 185.410156 230.738281 178.21875 226.527344 172.128906 220.40625 C 177.371094 214.34375 181.472656 207.097656 184.089844 199.101562 L 193.148438 209.597656 Z M 166.890625 231.34375 C 165.789062 231.34375 164.898438 232.238281 164.898438 233.335938 L 164.898438 264.394531 C 160.609375 263.4375 156.511719 259.382812 153.128906 252.773438 C 155.863281 246.871094 157.914062 239.621094 159.050781 231.546875 C 162.808594 229.257812 166.285156 226.488281 169.421875 223.328125 C 174.476562 228.378906 180.242188 232.230469 186.453125 234.707031 C 183.46875 250.984375 176.515625 262.613281 168.882812 264.367188 L 168.882812 233.335938 C 168.882812 232.238281 167.992188 231.34375 166.890625 231.34375 Z M 144.53125 237.578125 C 148.050781 236.726562 151.429688 235.511719 154.636719 233.957031 C 152.753906 244.695312 149.101562 253.761719 144.53125 259.183594 Z M 116.355469 236.171875 C 120.058594 237.46875 123.933594 238.339844 127.941406 238.734375 L 127.941406 261.800781 C 122.824219 257.609375 118.492188 249.046875 116.011719 237.949219 C 116.132812 237.367188 116.242188 236.765625 116.355469 236.171875 Z M 274.707031 264.394531 L 274.707031 231.601562 C 274.707031 230.503906 273.8125 229.609375 272.714844 229.609375 C 271.613281 229.609375 270.722656 230.503906 270.722656 231.601562 L 270.722656 264.367188 C 263.179688 262.628906 256.285156 251.222656 253.246094 235.226562 C 271.390625 231.667969 286.164062 215.96875 291.527344 195.335938 C 293.054688 201.972656 293.863281 209.269531 293.863281 216.863281 C 293.863281 241.234375 285.277344 262.039062 274.707031 264.394531 Z M 74.136719 146.8125 C 77.964844 135.476562 84.914062 126.429688 91.632812 117.679688 C 97.363281 110.210938 102.847656 103.066406 106.085938 94.96875 L 108 103.0625 C 108.179688 103.832031 108.800781 104.417969 109.578125 104.5625 C 110.363281 104.707031 111.148438 104.371094 111.589844 103.71875 C 111.667969 103.601562 119.644531 92.039062 135.839844 87.363281 C 139.683594 86.25 143.710938 85.28125 147.972656 84.253906 C 161.539062 80.984375 176.808594 77.300781 190.769531 67.710938 C 191.320312 74.316406 189.5625 83.910156 186.148438 87.761719 C 185.488281 88.507812 185.480469 89.621094 186.128906 90.378906 C 186.773438 91.132812 187.878906 91.296875 188.714844 90.757812 C 188.882812 90.652344 205.519531 80.101562 222.039062 79.074219 C 227.15625 78.757812 231.84375 79.011719 236.375 79.257812 C 245.757812 79.765625 254.675781 80.246094 264.804688 75.285156 C 262.847656 85.851562 257.484375 93.296875 248.496094 97.976562 C 247.703125 98.390625 247.28125 99.28125 247.46875 100.15625 C 247.652344 101.03125 248.398438 101.675781 249.296875 101.730469 C 262.140625 102.523438 272.289062 100.671875 279.554688 96.234375 C 279.074219 107.726562 284.054688 118.585938 289.289062 130.003906 C 293.394531 138.960938 297.636719 148.21875 299.257812 158.097656 C 301.738281 173.253906 298.601562 188.589844 296.066406 197.546875 C 295.328125 193.6875 294.363281 190.011719 293.175781 186.578125 C 293.511719 183.839844 293.691406 181.035156 293.691406 178.1875 C 293.691406 163.773438 289.238281 149.972656 281.160156 139.324219 C 278.371094 135.269531 276.714844 130.140625 275.945312 123.175781 C 275.847656 122.308594 275.195312 121.605469 274.34375 121.4375 C 273.488281 121.277344 272.621094 121.683594 272.207031 122.453125 C 271.613281 123.566406 270.484375 124.945312 267.476562 125.328125 C 268.671875 120.78125 268.015625 115.800781 265.503906 110.476562 C 265.1875 109.808594 264.53125 109.371094 263.792969 109.339844 C 263.050781 109.3125 262.359375 109.683594 261.984375 110.320312 C 258.675781 115.960938 251.402344 120.375 245.417969 120.375 C 240.320312 120.375 235.320312 121.359375 230.523438 123.222656 C 228.257812 121.605469 225.871094 120.167969 223.367188 118.945312 C 223.347656 118.9375 223.328125 118.941406 223.308594 118.929688 C 223.292969 118.921875 223.28125 118.90625 223.261719 118.898438 C 218.917969 117.074219 216.527344 114.050781 215.503906 109.101562 C 215.34375 108.339844 214.75 107.734375 213.988281 107.5625 C 213.222656 107.394531 212.429688 107.683594 211.960938 108.308594 C 208.667969 112.667969 202.585938 119.03125 199.78125 118.753906 C 199.71875 118.75 199.640625 118.742188 199.484375 118.539062 C 197.992188 116.582031 198.464844 109.347656 199.273438 104.832031 C 199.441406 103.910156 198.9375 102.996094 198.070312 102.640625 C 197.203125 102.28125 196.207031 102.578125 195.671875 103.347656 C 189.777344 111.902344 183.46875 118.324219 176.390625 122.992188 C 176.382812 122.996094 176.378906 123.007812 176.367188 123.011719 C 176.359375 123.019531 176.347656 123.019531 176.335938 123.027344 C 173.042969 125.359375 169.984375 128.136719 167.195312 131.257812 C 160.390625 125.105469 152.199219 120.714844 143.117188 118.785156 C 143.097656 118.78125 143.078125 118.789062 143.058594 118.785156 C 143.039062 118.78125 143.027344 118.769531 143.007812 118.769531 C 139.785156 118.269531 137.421875 114.316406 135.558594 106.335938 C 135.386719 105.605469 134.816406 105.03125 134.085938 104.851562 C 133.351562 104.679688 132.585938 104.929688 132.097656 105.503906 C 129.132812 108.996094 126.824219 113.074219 125.121094 117.851562 C 124.082031 115.035156 122.703125 112.246094 120.996094 109.507812 C 120.671875 108.988281 120.125 108.644531 119.515625 108.582031 C 118.910156 108.519531 118.296875 108.738281 117.871094 109.179688 C 114.09375 113.097656 111.222656 117.671875 109.199219 123.023438 C 108.527344 121.84375 107.652344 120.792969 106.574219 119.875 C 106.074219 119.449219 105.398438 119.292969 104.761719 119.46875 C 104.128906 119.640625 103.617188 120.113281 103.402344 120.734375 C 101.53125 126.074219 96.207031 133.425781 93.753906 136.042969 C 93.746094 136.050781 93.742188 136.0625 93.738281 136.070312 C 93.726562 136.082031 93.714844 136.085938 93.707031 136.09375 C 84.5625 146.558594 79.210938 160.089844 78.402344 174.535156 C 75.167969 179.25 72.570312 185.433594 70.769531 192.527344 C 69.710938 180.023438 69.292969 161.152344 74.136719 146.8125 Z M 71.863281 216.863281 C 71.863281 203.777344 74.261719 191.53125 78.429688 182.578125 C 79.898438 206.191406 93.539062 226.207031 112.582031 234.667969 C 109.597656 250.964844 102.640625 262.613281 95.003906 264.367188 L 95.003906 227.851562 C 95.003906 226.75 94.109375 225.859375 93.011719 225.859375 C 91.910156 225.859375 91.015625 226.75 91.015625 227.851562 L 91.015625 264.394531 C 80.449219 262.039062 71.863281 241.234375 71.863281 216.863281 Z M 95.003906 268.453125 C 102.914062 267.238281 109.789062 258.820312 113.976562 245.6875 C 117.242188 255.90625 122.140625 263.308594 127.941406 266.640625 L 127.941406 291.195312 L 95.003906 291.195312 Z M 309.179688 309.28125 L 66.101562 309.28125 L 66.101562 295.179688 L 309.179688 295.179688 Z M 309.179688 309.28125 " fill-opacity="1" fill-rule="nonzero"/></g></svg>