<svg xmlns="http://www.w3.org/2000/svg" xmlns:xlink="http://www.w3.org/1999/xlink" width="500" zoomAndPan="magnify" viewBox="0 0 375 374.999991" height="500" preserveAspectRatio="xMidYMid meet" version="1.0"><defs><clipPath id="5aad0b816c"><path d="M 187.5 0 C 83.945312 0 0 83.945312 0 187.5 C 0 291.054688 83.945312 375 187.5 375 C 291.054688 375 375 291.054688 375 187.5 C 375 83.945312 291.054688 0 187.5 0 Z M 187.5 0 " clip-rule="nonzero"/></clipPath><clipPath id="5cd00aad05"><path d="M 69 67.304688 L 302 67.304688 L 302 299.804688 L 69 299.804688 Z M 69 67.304688 " clip-rule="nonzero"/></clipPath></defs><g clip-path="url(#5aad0b816c)"><rect x="-37.5" width="450" fill="#a2c36e" y="-37.499999" height="449.999989" fill-opacity="1"/></g><g clip-path="url(#5cd00aad05)"><path fill="#ffffff" d="M 274.523438 205.890625 C 276.261719 200.015625 275.636719 193.503906 272.449219 187.996094 C 269.925781 183.632812 266.164062 180.417969 261.859375 178.539062 L 261.859375 153.769531 C 284.238281 152.078125 301.925781 133.363281 301.925781 110.597656 C 301.925781 86.726562 282.472656 67.304688 258.558594 67.304688 C 234.644531 67.304688 215.1875 86.726562 215.1875 110.597656 C 215.1875 133.363281 232.878906 152.078125 255.257812 153.769531 L 255.257812 176.765625 C 250.570312 176.230469 245.679688 177.128906 241.289062 179.660156 L 195.050781 206.308594 C 187.203125 199.992188 185.140625 197.277344 185.140625 190.796875 L 185.140625 166.890625 C 185.140625 160.121094 175.253906 156.441406 164.222656 154.976562 L 173.046875 145.480469 C 174.882812 143.503906 175.675781 140.703125 175.167969 137.980469 C 174.695312 135.425781 173.136719 133.332031 170.898438 132.234375 L 144.296875 119.226562 C 144.261719 119.195312 144.199219 119.140625 144.117188 119.0625 L 135.519531 111.101562 C 133.851562 109.558594 131.675781 108.753906 129.398438 108.839844 C 127.121094 108.925781 125.015625 109.890625 123.46875 111.554688 L 114.089844 121.648438 C 112.042969 123.847656 111.398438 126.847656 112.097656 129.5625 L 70.75 174.058594 C 69.574219 175.328125 68.960938 176.980469 69.023438 178.714844 C 69.089844 180.449219 69.824219 182.050781 71.097656 183.226562 L 75.289062 187.109375 C 76.539062 188.265625 78.125 188.835938 79.707031 188.835938 C 81.453125 188.835938 83.195312 188.140625 84.472656 186.765625 L 124.453125 143.738281 L 132.023438 156.609375 C 123.804688 158.863281 119.34375 162.441406 119.34375 166.890625 L 119.34375 190.796875 C 119.34375 198.242188 116.464844 200.8125 105.464844 209.457031 C 103.78125 210.78125 101.871094 212.28125 99.816406 213.933594 C 98.726562 214.808594 98.308594 216.277344 98.773438 217.59375 C 99.238281 218.910156 100.488281 219.792969 101.886719 219.792969 L 171.65625 219.792969 L 156.875 228.3125 L 156.878906 228.320312 C 149.882812 232.214844 145.136719 239.675781 145.136719 248.222656 C 145.136719 248.316406 145.140625 248.40625 145.140625 248.5 L 130.179688 257.121094 L 130.1875 257.132812 C 123.1875 261.027344 118.441406 268.484375 118.441406 277.035156 C 118.441406 289.589844 128.675781 299.804688 141.253906 299.804688 C 145.523438 299.804688 149.523438 298.625 152.945312 296.578125 L 152.949219 296.585938 L 173.007812 285.027344 C 176.257812 293.652344 184.601562 299.804688 194.363281 299.804688 C 198.636719 299.804688 202.632812 298.625 206.054688 296.578125 L 206.0625 296.585938 L 290.515625 247.914062 C 301.410156 241.632812 305.15625 227.679688 298.867188 216.804688 C 293.835938 208.105469 283.878906 203.976562 274.523438 205.890625 Z M 221.789062 110.597656 C 221.789062 90.359375 238.285156 73.894531 258.558594 73.894531 C 278.832031 73.894531 295.328125 90.359375 295.328125 110.597656 C 295.328125 129.726562 280.589844 145.476562 261.859375 147.148438 L 261.859375 133.347656 L 279.839844 122.984375 C 281.417969 122.074219 281.957031 120.058594 281.046875 118.484375 C 280.136719 116.90625 278.117188 116.367188 276.539062 117.277344 L 261.859375 125.738281 L 261.859375 110.597656 C 261.859375 108.78125 260.382812 107.304688 258.558594 107.304688 C 256.734375 107.304688 255.257812 108.78125 255.257812 110.597656 L 255.257812 125.738281 L 240.578125 117.277344 C 239 116.367188 236.980469 116.90625 236.070312 118.484375 C 235.15625 120.058594 235.699219 122.074219 237.277344 122.984375 L 255.257812 133.347656 L 255.257812 147.148438 C 236.523438 145.476562 221.789062 129.726562 221.789062 110.597656 Z M 244.589844 185.367188 C 251.351562 181.46875 259.785156 183.003906 264.789062 188.605469 L 244.621094 200.230469 C 243.042969 201.140625 242.5 203.152344 243.414062 204.730469 C 244.023438 205.785156 245.132812 206.378906 246.273438 206.378906 C 246.835938 206.378906 247.402344 206.234375 247.921875 205.933594 L 268.074219 194.320312 C 269.839844 199.734375 268.644531 205.839844 264.765625 210.164062 L 190.21875 253.132812 C 190.566406 251.550781 190.757812 249.910156 190.757812 248.222656 C 190.757812 237.667969 183.519531 228.765625 173.738281 226.199219 Z M 168.679688 139.183594 C 168.804688 139.84375 168.617188 140.558594 168.210938 141 L 146.863281 163.972656 C 146.453125 164.414062 145.757812 164.652344 145.085938 164.578125 C 144.730469 164.539062 144.257812 164.402344 144.003906 163.972656 L 142.242188 160.976562 L 164.871094 136.625 L 167.992188 138.152344 C 168.445312 138.375 168.617188 138.835938 168.679688 139.183594 Z M 79.703125 182.210938 L 75.660156 178.464844 L 116.011719 135.035156 L 120.058594 138.78125 Z M 127.632812 136.808594 L 119.03125 128.84375 C 118.253906 128.125 118.207031 126.90625 118.929688 126.128906 L 128.308594 116.035156 C 128.65625 115.660156 129.132812 115.445312 129.648438 115.425781 C 129.675781 115.425781 129.699219 115.425781 129.722656 115.425781 C 130.210938 115.425781 130.675781 115.601562 131.03125 115.933594 L 139.628906 123.894531 C 140.054688 124.289062 140.574219 124.742188 141.328125 125.113281 L 158.679688 133.597656 L 138.753906 155.042969 L 128.972656 138.40625 C 128.546875 137.679688 128.054688 137.199219 127.632812 136.808594 Z M 135.5 162.527344 L 138.308594 167.308594 C 139.574219 169.453125 141.78125 170.847656 144.371094 171.128906 C 144.691406 171.164062 145.015625 171.179688 145.335938 171.179688 C 147.753906 171.179688 150.082031 170.199219 151.699219 168.453125 L 158.605469 161.023438 C 171.761719 161.964844 178.035156 165.464844 178.53125 166.890625 C 177.933594 168.617188 169.164062 172.984375 152.242188 172.984375 C 135.332031 172.984375 126.558594 168.621094 125.953125 166.894531 C 126.191406 166.316406 128.417969 164.167969 135.5 162.527344 Z M 111.363281 213.203125 C 121.074219 205.542969 125.945312 201.125 125.945312 190.800781 L 125.945312 174.914062 C 127.6875 175.773438 129.703125 176.507812 131.914062 177.125 L 131.914062 184.363281 C 131.914062 186.183594 133.390625 187.660156 135.210938 187.660156 C 137.035156 187.660156 138.511719 186.183594 138.511719 184.363281 L 138.511719 178.539062 C 142.890625 179.234375 147.617188 179.574219 152.242188 179.574219 C 157.464844 179.574219 162.8125 179.140625 167.644531 178.25 L 167.644531 192.910156 C 167.644531 194.726562 169.121094 196.203125 170.945312 196.203125 C 172.765625 196.203125 174.246094 194.726562 174.246094 192.910156 L 174.246094 176.625 C 175.808594 176.121094 177.25 175.550781 178.542969 174.914062 L 178.542969 190.796875 C 178.542969 199.632812 182.253906 204.242188 188.9375 209.832031 L 183.089844 213.203125 Z M 167.945312 232.042969 C 176.882812 232.042969 184.15625 239.300781 184.15625 248.222656 C 184.15625 257.148438 176.882812 264.40625 167.945312 264.40625 C 159.007812 264.40625 151.734375 257.148438 151.734375 248.222656 C 151.734375 239.300781 159.007812 232.042969 167.945312 232.042969 Z M 125.042969 277.035156 C 125.042969 268.113281 132.316406 260.851562 141.253906 260.851562 C 150.191406 260.851562 157.460938 268.113281 157.460938 277.035156 C 157.460938 285.957031 150.191406 293.21875 141.253906 293.21875 C 132.316406 293.21875 125.042969 285.957031 125.042969 277.035156 Z M 163.25 283.042969 C 163.777344 281.125 164.0625 279.113281 164.0625 277.035156 C 164.0625 274.753906 163.71875 272.550781 163.09375 270.472656 C 164.65625 270.8125 166.28125 270.996094 167.945312 270.996094 C 169.507812 270.996094 171.03125 270.835938 172.503906 270.539062 C 171.886719 272.597656 171.550781 274.777344 171.550781 277.035156 C 171.550781 277.4375 171.5625 277.839844 171.585938 278.238281 Z M 178.152344 277.035156 C 178.152344 268.113281 185.425781 260.851562 194.363281 260.851562 C 203.300781 260.851562 210.574219 268.113281 210.574219 277.035156 C 210.574219 285.957031 203.300781 293.21875 194.363281 293.21875 C 185.425781 293.21875 178.152344 285.957031 178.152344 277.035156 Z M 287.214844 242.207031 L 216.363281 283.042969 C 216.886719 281.125 217.171875 279.113281 217.171875 277.035156 C 217.171875 266.476562 209.9375 257.578125 200.15625 255.011719 L 271.007812 214.175781 C 278.75 209.714844 288.683594 212.371094 293.152344 220.097656 C 297.621094 227.828125 294.957031 237.742188 287.214844 242.207031 Z M 285.808594 224.332031 C 286.71875 225.90625 286.179688 227.921875 284.601562 228.832031 L 231.21875 259.597656 C 230.699219 259.898438 230.128906 260.039062 229.570312 260.039062 C 228.429688 260.039062 227.320312 259.449219 226.710938 258.394531 C 225.796875 256.816406 226.339844 254.800781 227.917969 253.890625 L 281.300781 223.125 C 282.878906 222.214844 284.898438 222.757812 285.808594 224.332031 Z M 200.292969 229.582031 C 199.378906 228.007812 199.921875 225.992188 201.5 225.082031 L 231.25 207.9375 C 232.828125 207.027344 234.84375 207.566406 235.757812 209.140625 C 236.667969 210.71875 236.125 212.734375 234.546875 213.640625 L 204.800781 230.789062 C 204.28125 231.085938 203.710938 231.230469 203.152344 231.230469 C 202.011719 231.230469 200.902344 230.640625 200.292969 229.582031 Z M 200.292969 229.582031 " fill-opacity="1" fill-rule="nonzero"/></g></svg>