<svg xmlns="http://www.w3.org/2000/svg" xmlns:xlink="http://www.w3.org/1999/xlink" width="500" zoomAndPan="magnify" viewBox="0 0 375 374.999991" height="500" preserveAspectRatio="xMidYMid meet" version="1.0"><defs><clipPath id="9e0eeecdce"><path d="M 187.5 0 C 83.945312 0 0 83.945312 0 187.5 C 0 291.054688 83.945312 375 187.5 375 C 291.054688 375 375 291.054688 375 187.5 C 375 83.945312 291.054688 0 187.5 0 Z M 187.5 0 " clip-rule="nonzero"/></clipPath><clipPath id="9f7124837f"><path d="M 43.734375 116.621094 L 330.984375 116.621094 L 330.984375 276.371094 L 43.734375 276.371094 Z M 43.734375 116.621094 " clip-rule="nonzero"/></clipPath></defs><g clip-path="url(#9e0eeecdce)"><rect x="-37.5" width="450" fill="#fec743" y="-37.499999" height="449.999989" fill-opacity="1"/></g><g clip-path="url(#9f7124837f)"><path fill="#ffffff" d="M 329.785156 189.882812 L 299.519531 123.105469 C 297.800781 119.304688 293.988281 116.84375 289.820312 116.84375 L 88.414062 116.84375 C 88.246094 116.84375 88.078125 116.871094 87.917969 116.90625 C 87.898438 116.914062 87.878906 116.910156 87.863281 116.914062 C 87.613281 116.980469 87.382812 117.09375 87.171875 117.234375 C 87.117188 117.269531 87.066406 117.304688 87.019531 117.34375 C 86.824219 117.5 86.640625 117.671875 86.503906 117.890625 C 86.496094 117.902344 86.496094 117.914062 86.488281 117.925781 C 86.484375 117.933594 86.476562 117.9375 86.472656 117.945312 L 44.902344 186.699219 C 43.683594 188.714844 43.644531 191.152344 44.800781 193.203125 C 45.957031 195.257812 48.054688 196.484375 50.40625 196.484375 C 52.167969 196.484375 53.832031 195.730469 55.03125 194.476562 L 63.589844 194.476562 L 63.589844 273.773438 C 63.589844 275.03125 64.605469 276.050781 65.863281 276.050781 L 322.238281 276.050781 C 323.496094 276.050781 324.511719 275.035156 324.515625 273.777344 C 324.542969 258.40625 324.617188 211.929688 324.535156 201.285156 C 326.4375 200.738281 328.101562 199.527344 329.207031 197.8125 C 330.742188 195.429688 330.957031 192.464844 329.785156 189.882812 Z M 63.59375 189.917969 L 58.003906 189.917969 L 63.59375 180.675781 Z M 67.242188 165.835938 L 52.019531 191.015625 C 51.679688 191.578125 51.0625 191.925781 50.40625 191.925781 C 49.410156 191.925781 48.925781 191.253906 48.761719 190.964844 C 48.597656 190.675781 48.277344 189.914062 48.796875 189.0625 L 88.128906 123.996094 L 90.019531 128.167969 L 67.96875 164.636719 C 67.601562 164.945312 67.359375 165.355469 67.242188 165.835938 Z M 92.292969 133.195312 L 106.292969 164.082031 L 73.625 164.082031 Z M 113.765625 271.492188 L 79.160156 271.492188 L 79.160156 201.253906 L 113.765625 201.253906 Z M 132.550781 271.492188 L 118.3125 271.492188 L 118.3125 198.976562 C 118.3125 197.71875 117.292969 196.699219 116.035156 196.699219 L 76.886719 196.699219 C 75.628906 196.699219 74.609375 197.71875 74.609375 198.976562 L 74.609375 271.492188 L 68.140625 271.492188 L 68.140625 173.152344 L 70.867188 168.640625 L 108.359375 168.640625 L 120.015625 194.355469 C 122.011719 198.769531 126.429688 201.621094 131.265625 201.621094 L 132.550781 201.621094 Z M 183.628906 271.492188 L 164.214844 271.492188 L 164.214844 256.738281 C 172.121094 255.753906 179.769531 249.683594 179.769531 239.183594 C 179.769531 238.574219 179.527344 237.992188 179.09375 237.558594 C 178.660156 237.132812 178.125 236.925781 177.460938 236.90625 C 168.976562 237.035156 163.425781 240.335938 161.027344 246.523438 C 157.027344 240.128906 150.460938 237.300781 141.6875 238.292969 C 141.039062 238.367188 140.457031 238.714844 140.082031 239.246094 C 139.710938 239.777344 139.578125 240.445312 139.726562 241.078125 C 142.226562 251.765625 148.414062 257.164062 158.152344 257.164062 C 158.644531 257.164062 159.15625 257.136719 159.667969 257.109375 L 159.667969 271.492188 L 137.097656 271.492188 L 137.097656 201.621094 L 183.628906 201.621094 Z M 164.34375 252.105469 C 165.03125 245.75 168.484375 242.363281 175.03125 241.617188 C 173.988281 248.136719 168.761719 251.269531 164.34375 252.105469 Z M 158.945312 252.597656 C 151.6875 252.882812 147.230469 249.714844 144.886719 242.652344 C 151.875 242.589844 156.472656 245.796875 158.945312 252.597656 Z M 206.351562 266.28125 C 204.109375 263.632812 202.371094 260.316406 201.984375 256.183594 C 204.136719 256.425781 205.785156 257.066406 207.011719 258.082031 C 206.183594 260.757812 205.972656 263.554688 206.351562 266.28125 Z M 212.605469 270.863281 C 210.351562 266.914062 210.0625 262.09375 211.898438 257.894531 C 213.523438 254.191406 216.441406 251.671875 220.046875 250.792969 C 221.386719 254.894531 221.328125 259.222656 219.847656 262.90625 C 218.480469 266.304688 215.992188 269.027344 212.605469 270.863281 Z M 231.851562 271.492188 L 219.410156 271.492188 C 221.425781 269.558594 223.003906 267.25 224.066406 264.613281 C 226.199219 259.308594 226.03125 253.011719 223.605469 247.335938 C 223.214844 246.421875 222.296875 245.875 221.289062 245.964844 C 216.136719 246.46875 211.664062 249.359375 208.921875 253.820312 C 206.539062 252.25 203.421875 251.441406 199.628906 251.503906 C 198.402344 251.511719 197.402344 252.488281 197.363281 253.71875 C 197.167969 260.578125 199.796875 266.617188 205 271.492188 L 188.179688 271.492188 L 188.179688 201.617188 L 231.851562 201.617188 Z M 285.785156 271.492188 L 263.695312 271.492188 L 263.695312 256.738281 C 271.597656 255.753906 279.246094 249.683594 279.246094 239.183594 C 279.246094 238.574219 279.003906 237.992188 278.570312 237.558594 C 278.136719 237.132812 277.566406 236.925781 276.9375 236.90625 C 268.453125 237.035156 262.902344 240.335938 260.503906 246.523438 C 256.507812 240.132812 249.941406 237.308594 241.167969 238.292969 C 240.519531 238.367188 239.9375 238.714844 239.5625 239.246094 C 239.191406 239.777344 239.058594 240.441406 239.207031 241.078125 C 241.703125 251.765625 247.890625 257.164062 257.632812 257.164062 C 258.125 257.164062 258.636719 257.136719 259.148438 257.109375 L 259.148438 271.492188 L 236.398438 271.492188 L 236.398438 201.621094 L 285.785156 201.621094 Z M 263.824219 252.105469 C 264.507812 245.75 267.960938 242.363281 274.511719 241.617188 C 273.464844 248.136719 268.238281 251.269531 263.824219 252.105469 Z M 258.421875 252.597656 C 251.15625 252.882812 246.707031 249.714844 244.363281 242.652344 C 244.441406 242.652344 244.515625 242.652344 244.59375 242.652344 C 251.503906 242.652344 255.980469 245.871094 258.421875 252.597656 Z M 300 266.273438 C 298.585938 264.347656 297.496094 262.050781 297.15625 259.292969 C 298.585938 259.503906 299.726562 259.941406 300.605469 260.597656 C 300.058594 262.457031 299.878906 264.375 300 266.273438 Z M 305.886719 270.832031 C 304.1875 267.644531 304.007812 263.824219 305.472656 260.476562 C 306.75 257.558594 309.011719 255.539062 311.808594 254.75 C 312.816406 258.046875 312.734375 261.5 311.550781 264.445312 C 310.464844 267.140625 308.523438 269.320312 305.886719 270.832031 Z M 319.972656 271.492188 L 312.335938 271.492188 C 313.792969 269.949219 314.960938 268.164062 315.773438 266.148438 C 317.613281 261.578125 317.46875 256.152344 315.375 251.265625 C 314.984375 250.355469 314.058594 249.804688 313.0625 249.894531 C 308.683594 250.328125 304.890625 252.742188 302.5 256.46875 C 300.453125 255.234375 297.867188 254.578125 294.765625 254.582031 C 293.539062 254.589844 292.539062 255.570312 292.503906 256.800781 C 292.339844 262.429688 294.402344 267.410156 298.464844 271.492188 L 290.332031 271.492188 L 290.332031 201.621094 L 320 201.621094 C 320.0625 211.421875 320.003906 252.351562 319.972656 271.492188 Z M 325.386719 195.34375 C 324.683594 196.433594 323.535156 197.0625 322.242188 197.0625 L 235.015625 197.0625 C 234.742188 196.945312 234.4375 196.878906 234.121094 196.878906 C 233.804688 196.878906 233.507812 196.945312 233.230469 197.0625 L 131.265625 197.0625 C 128.210938 197.0625 125.421875 195.257812 124.15625 192.46875 L 91.945312 121.402344 L 289.820312 121.402344 C 292.210938 121.402344 294.394531 122.8125 295.382812 124.992188 L 325.648438 191.769531 C 326.179688 192.949219 326.085938 194.253906 325.386719 195.34375 Z M 325.386719 195.34375 " fill-opacity="1" fill-rule="nonzero"/></g><path fill="#ffffff" d="M 306.65625 160.5 C 306.289062 159.683594 305.476562 159.164062 304.585938 159.164062 L 263.78125 159.164062 C 263.78125 159.164062 263.78125 159.164062 263.777344 159.164062 L 215.316406 159.164062 C 215.316406 159.164062 215.316406 159.164062 215.3125 159.164062 L 166.855469 159.164062 C 166.855469 159.164062 166.855469 159.164062 166.851562 159.164062 L 117.5 159.164062 C 117.132812 159.164062 116.789062 159.25 116.480469 159.402344 C 115.339844 159.921875 114.835938 161.273438 115.355469 162.417969 L 128.519531 191.46875 C 128.886719 192.28125 129.699219 192.804688 130.589844 192.804688 L 317.769531 192.804688 C 318.542969 192.804688 319.261719 192.410156 319.679688 191.761719 C 320.101562 191.109375 320.160156 190.289062 319.839844 189.585938 Z M 229.472656 163.71875 L 222.429688 171.496094 L 218.902344 163.71875 Z M 182.800781 163.71875 L 174.5625 172.816406 L 170.4375 163.71875 Z M 132.058594 188.246094 L 120.941406 163.71875 L 160.609375 163.71875 L 138.394531 188.246094 Z M 144.535156 188.246094 L 165.878906 164.679688 L 171.234375 176.488281 L 160.589844 188.246094 Z M 166.726562 188.246094 L 173.28125 181.007812 L 176.5625 188.246094 Z M 181.558594 188.246094 L 176.609375 177.335938 L 188.941406 163.71875 L 213.90625 163.71875 L 219.097656 175.171875 L 207.253906 188.246094 Z M 213.398438 188.246094 L 221.148438 179.691406 L 225.023438 188.246094 Z M 224.476562 176.015625 L 235.613281 163.71875 L 251.664062 163.71875 L 229.832031 187.828125 Z M 235.59375 188.246094 L 257.804688 163.71875 L 262.371094 163.71875 L 273.488281 188.246094 Z M 278.484375 188.246094 L 267.367188 163.71875 L 303.121094 163.71875 L 314.238281 188.246094 Z M 278.484375 188.246094 " fill-opacity="1" fill-rule="nonzero"/><path fill="#ffffff" d="M 103.871094 244.726562 C 107.914062 244.726562 111.207031 241.429688 111.207031 237.375 C 111.207031 233.320312 107.917969 230.027344 103.871094 230.027344 C 99.824219 230.027344 96.535156 233.320312 96.535156 237.375 C 96.535156 241.429688 99.828125 244.726562 103.871094 244.726562 Z M 103.871094 234.585938 C 105.40625 234.585938 106.65625 235.839844 106.65625 237.378906 C 106.65625 238.914062 105.40625 240.167969 103.871094 240.167969 C 102.335938 240.167969 101.085938 238.914062 101.085938 237.378906 C 101.085938 235.839844 102.335938 234.585938 103.871094 234.585938 Z M 103.871094 234.585938 " fill-opacity="1" fill-rule="nonzero"/><path fill="#ffffff" d="M 212.214844 156.746094 C 212.214844 156.746094 212.21875 156.746094 212.21875 156.746094 L 301.421875 156.746094 C 302.195312 156.746094 302.914062 156.351562 303.335938 155.699219 C 303.753906 155.050781 303.8125 154.230469 303.492188 153.523438 L 290.996094 125.949219 C 290.625 125.136719 289.816406 124.617188 288.925781 124.617188 L 101.75 124.617188 C 100.976562 124.617188 100.257812 125.007812 99.835938 125.660156 C 99.417969 126.3125 99.359375 127.132812 99.679688 127.835938 L 105.585938 140.867188 C 105.585938 140.871094 105.585938 140.875 105.589844 140.878906 L 112.175781 155.410156 C 112.175781 155.410156 112.179688 155.414062 112.179688 155.414062 C 112.191406 155.433594 112.207031 155.449219 112.214844 155.46875 C 112.328125 155.699219 112.480469 155.898438 112.660156 156.074219 C 112.683594 156.097656 112.691406 156.132812 112.71875 156.15625 C 112.757812 156.1875 112.800781 156.199219 112.839844 156.226562 C 112.984375 156.347656 113.140625 156.441406 113.3125 156.519531 C 113.382812 156.550781 113.445312 156.585938 113.515625 156.613281 C 113.75 156.691406 113.992188 156.746094 114.25 156.746094 L 212.210938 156.746094 C 212.210938 156.742188 212.210938 156.746094 212.214844 156.746094 Z M 246.058594 152.183594 L 253.445312 144.027344 L 257.144531 152.183594 Z M 297.894531 152.183594 L 268.25 152.183594 L 288.007812 130.375 Z M 282.953125 129.171875 L 262.128906 152.167969 L 256.773438 140.355469 L 266.902344 129.171875 Z M 260.765625 129.171875 L 254.726562 135.835938 L 251.707031 129.171875 Z M 214.09375 129.171875 L 206.863281 137.15625 L 203.242188 129.171875 Z M 105.28125 129.171875 L 114.261719 129.171875 L 108.289062 135.800781 Z M 110.335938 140.324219 L 120.390625 129.171875 L 134.085938 129.171875 L 114.890625 150.367188 Z M 119.382812 152.183594 L 140.222656 129.167969 L 149.789062 129.167969 L 160.21875 152.183594 Z M 165.214844 152.183594 L 154.78125 129.171875 L 191.898438 129.171875 L 171.054688 152.1875 L 165.214844 152.1875 Z M 177.195312 152.183594 L 198.039062 129.167969 L 198.25 129.167969 L 203.53125 140.828125 L 193.246094 152.183594 Z M 199.390625 152.183594 L 205.585938 145.347656 L 208.683594 152.183594 Z M 220.234375 129.171875 L 246.710938 129.171875 L 251.398438 139.511719 L 239.917969 152.1875 L 213.675781 152.1875 L 208.910156 141.671875 Z M 220.234375 129.171875 " fill-opacity="1" fill-rule="nonzero"/></svg>