<svg xmlns="http://www.w3.org/2000/svg" xmlns:xlink="http://www.w3.org/1999/xlink" width="500" zoomAndPan="magnify" viewBox="0 0 375 374.999991" height="500" preserveAspectRatio="xMidYMid meet" version="1.0"><defs><clipPath id="f6abef7064"><path d="M 187.5 0 C 83.945312 0 0 83.945312 0 187.5 C 0 291.054688 83.945312 375 187.5 375 C 291.054688 375 375 291.054688 375 187.5 C 375 83.945312 291.054688 0 187.5 0 Z M 187.5 0 " clip-rule="nonzero"/></clipPath><clipPath id="220aca7a9b"><path d="M 129 71.371094 L 142 71.371094 L 142 117 L 129 117 Z M 129 71.371094 " clip-rule="nonzero"/></clipPath><clipPath id="fb719290e9"><path d="M 71.078125 113 L 115 113 L 115 132 L 71.078125 132 Z M 71.078125 113 " clip-rule="nonzero"/></clipPath><clipPath id="cc1b769cec"><path d="M 280 110 L 303.578125 110 L 303.578125 123 L 280 123 Z M 280 110 " clip-rule="nonzero"/></clipPath><clipPath id="62f3383bdc"><path d="M 232 71.371094 L 238 71.371094 L 238 95 L 232 95 Z M 232 71.371094 " clip-rule="nonzero"/></clipPath><clipPath id="d649b17a5b"><path d="M 109 265 L 156 265 L 156 303.871094 L 109 303.871094 Z M 109 265 " clip-rule="nonzero"/></clipPath></defs><g clip-path="url(#f6abef7064)"><rect x="-37.5" width="450" fill="#fec743" y="-37.499999" height="449.999989" fill-opacity="1"/></g><path fill="#ffffff" d="M 140.351562 147.417969 C 142.234375 146.097656 144.226562 145.058594 146.269531 144.304688 C 146.632812 141.960938 146.09375 139.5625 144.726562 137.601562 C 143.320312 135.585938 141.210938 134.234375 138.792969 133.808594 C 136.371094 133.375 133.9375 133.917969 131.921875 135.328125 C 129.910156 136.738281 128.566406 138.851562 128.136719 141.277344 C 127.707031 143.699219 128.246094 146.148438 129.652344 148.167969 C 131.019531 150.125 133.082031 151.457031 135.402344 151.921875 C 136.808594 150.257812 138.464844 148.738281 140.351562 147.417969 Z M 140.351562 147.417969 " fill-opacity="1" fill-rule="nonzero"/><path fill="#ffffff" d="M 119.277344 117.195312 C 117.453125 118.472656 116.402344 120.082031 116.109375 121.867188 C 116.109375 121.902344 116.125 121.933594 116.121094 121.96875 C 116.117188 122.046875 116.078125 122.109375 116.0625 122.183594 C 115.863281 124.003906 116.4375 125.992188 117.839844 128.003906 C 120.117188 131.269531 123.292969 134.148438 126.40625 135.832031 C 127.296875 134.464844 128.441406 133.265625 129.816406 132.304688 C 131.1875 131.34375 132.707031 130.675781 134.289062 130.308594 C 133.78125 126.796875 132.175781 122.816406 129.898438 119.550781 C 128.476562 117.511719 126.742188 116.257812 124.878906 115.863281 C 124.863281 115.859375 124.851562 115.867188 124.835938 115.863281 C 124.816406 115.855469 124.800781 115.84375 124.785156 115.835938 C 124.742188 115.828125 124.703125 115.808594 124.664062 115.800781 C 122.882812 115.5 121.019531 115.972656 119.277344 117.195312 Z M 119.277344 117.195312 " fill-opacity="1" fill-rule="nonzero"/><path fill="#ffffff" d="M 92.195312 103.058594 C 93.226562 105.90625 94.589844 108.46875 96.359375 110.664062 C 101.695312 117.292969 109.136719 119.222656 112.863281 119.789062 C 113.5625 117.636719 115 115.691406 117.171875 114.171875 C 119.253906 112.710938 121.589844 111.988281 123.871094 112.042969 C 124.59375 108.292969 125.277344 100.535156 120.839844 93.214844 C 119.414062 90.859375 117.53125 88.757812 115.292969 86.851562 C 110.976562 88.027344 106.546875 90.121094 102.421875 93.015625 C 98.277344 95.917969 94.785156 99.382812 92.195312 103.058594 Z M 92.195312 103.058594 " fill-opacity="1" fill-rule="nonzero"/><path fill="#ffffff" d="M 167.015625 153.480469 C 164.253906 149.515625 160.375 147.160156 155.796875 146.660156 C 155.207031 146.59375 154.605469 146.5625 154.007812 146.5625 C 150.109375 146.5625 146.070312 147.910156 142.457031 150.441406 C 138.289062 153.363281 135.402344 157.363281 134.332031 161.703125 C 133.226562 166.179688 134.105469 170.644531 136.867188 174.605469 C 139.679688 178.640625 143.894531 181.335938 148.730469 182.195312 C 153.570312 183.058594 158.449219 181.976562 162.476562 179.152344 C 170.789062 173.328125 172.824219 161.8125 167.015625 153.480469 Z M 151.472656 174.871094 C 150.957031 176.601562 148.789062 177.550781 146.625 176.992188 C 144.460938 176.4375 143.125 174.582031 143.636719 172.851562 C 144.152344 171.125 146.324219 170.171875 148.488281 170.730469 C 150.648438 171.289062 151.988281 173.140625 151.472656 174.871094 Z M 159.394531 163.089844 C 159.613281 160.859375 161.25 159.144531 163.046875 159.253906 C 164.84375 159.363281 166.121094 161.257812 165.898438 163.488281 C 165.679688 165.714844 164.042969 167.433594 162.246094 167.324219 C 160.449219 167.214844 159.171875 165.316406 159.394531 163.089844 Z M 159.394531 163.089844 " fill-opacity="1" fill-rule="nonzero"/><path fill="#ffffff" d="M 95.523438 77.75 C 95.339844 77.710938 95.175781 77.65625 94.992188 77.613281 C 94.058594 77.402344 92.769531 77.277344 91.90625 77.882812 C 91.207031 78.371094 90.765625 79.328125 90.582031 80.734375 C 90.558594 80.910156 90.554688 81.070312 90.53125 81.246094 C 91.324219 80.613281 92.117188 79.988281 92.9375 79.414062 C 93.769531 78.828125 94.644531 78.285156 95.523438 77.75 Z M 95.523438 77.75 " fill-opacity="1" fill-rule="nonzero"/><path fill="#ffffff" d="M 90.21875 94.15625 C 90.371094 95.710938 90.617188 97.183594 90.917969 98.613281 C 93.503906 95.460938 96.699219 92.523438 100.3125 89.992188 C 103.921875 87.464844 107.761719 85.46875 111.59375 84.113281 C 110.367188 83.339844 109.078125 82.597656 107.679688 81.917969 C 104.414062 83.167969 101.226562 84.851562 98.207031 86.96875 C 95.1875 89.085938 92.511719 91.507812 90.21875 94.15625 Z M 90.21875 94.15625 " fill-opacity="1" fill-rule="nonzero"/><path fill="#ffffff" d="M 102.960938 79.949219 C 102.1875 79.667969 101.386719 79.402344 100.574219 79.148438 C 98.648438 80.125 96.78125 81.21875 95.046875 82.433594 C 93.316406 83.648438 91.660156 85.019531 90.089844 86.488281 C 90.050781 87.34375 90.027344 88.183594 90.023438 89.007812 C 91.882812 87.191406 93.898438 85.488281 96.101562 83.945312 C 98.308594 82.398438 100.609375 81.078125 102.960938 79.949219 Z M 102.960938 79.949219 " fill-opacity="1" fill-rule="nonzero"/><path fill="#ffffff" d="M 148.933594 185.941406 C 149.691406 188.046875 151.121094 190.875 153.644531 192.484375 C 155.070312 193.398438 156.734375 193.832031 158.59375 193.761719 C 156.425781 191.117188 155.335938 188.492188 155.304688 185.917969 C 154.210938 186.085938 153.101562 186.171875 151.988281 186.171875 C 150.972656 186.171875 149.953125 186.082031 148.933594 185.941406 Z M 148.933594 185.941406 " fill-opacity="1" fill-rule="nonzero"/><path fill="#ffffff" d="M 170.441406 176.082031 C 172.535156 177.074219 174.375 178.871094 175.929688 181.484375 C 177.628906 176.625 174.894531 172.683594 172.96875 170.652344 C 172.375 172.554688 171.535156 174.382812 170.441406 176.082031 Z M 170.441406 176.082031 " fill-opacity="1" fill-rule="nonzero"/><path fill="#ffffff" d="M 241.578125 159.894531 C 242.390625 160.890625 243.035156 161.898438 243.542969 162.90625 C 243.621094 163.035156 243.6875 163.15625 243.730469 163.296875 C 243.8125 163.46875 243.894531 163.644531 243.964844 163.816406 C 246.511719 161.78125 248.710938 159.300781 250.257812 156.621094 C 255.957031 146.742188 251.34375 138.164062 244.246094 134.046875 C 240.265625 131.734375 235.90625 130.976562 231.980469 131.90625 C 227.792969 132.894531 224.253906 135.71875 221.742188 140.074219 C 220.195312 142.753906 219.144531 145.898438 218.65625 149.125 C 218.890625 149.09375 219.117188 149.054688 219.359375 149.035156 C 219.394531 149.03125 219.433594 149.03125 219.472656 149.03125 C 219.871094 149 220.277344 148.976562 220.695312 148.984375 C 222.617188 149.011719 224.730469 149.429688 226.960938 150.191406 L 228.925781 144.746094 C 229.273438 143.789062 230.324219 143.292969 231.28125 143.640625 C 232.238281 143.984375 232.730469 145.042969 232.386719 146 L 230.367188 151.59375 C 231.316406 152.046875 232.277344 152.542969 233.253906 153.109375 C 233.328125 153.152344 233.398438 153.199219 233.472656 153.246094 C 234.503906 151.21875 235.753906 148.558594 235.773438 148.519531 C 236.203125 147.601562 237.304688 147.207031 238.21875 147.640625 C 239.136719 148.074219 239.53125 149.171875 239.101562 150.09375 C 239.027344 150.25 237.664062 153.144531 236.574219 155.261719 C 237.429688 155.886719 238.210938 156.527344 238.9375 157.175781 C 241.121094 153.636719 243.164062 149.648438 243.1875 149.601562 C 243.648438 148.695312 244.753906 148.335938 245.660156 148.800781 C 246.566406 149.265625 246.921875 150.375 246.460938 151.28125 C 246.351562 151.492188 244.015625 156.0625 241.578125 159.894531 Z M 241.578125 159.894531 " fill-opacity="1" fill-rule="nonzero"/><path fill="#ffffff" d="M 220.386719 168.726562 C 221.222656 169.375 222.148438 170.003906 223.164062 170.59375 C 224.15625 171.171875 225.164062 171.660156 226.167969 172.066406 C 226.089844 168.082031 228.484375 164.316406 231.539062 162.195312 C 233.265625 160.996094 235.109375 160.375 236.902344 160.261719 C 235.425781 158.90625 233.589844 157.566406 231.410156 156.300781 C 229.25 155.050781 227.179688 154.117188 225.253906 153.507812 C 226.046875 155.125 226.425781 157.035156 226.25 159.132812 C 225.9375 162.84375 223.875 166.808594 220.386719 168.726562 Z M 220.386719 168.726562 " fill-opacity="1" fill-rule="nonzero"/><path fill="#ffffff" d="M 246.089844 130.855469 C 246.632812 131.167969 247.144531 131.507812 247.644531 131.851562 C 252.957031 122.835938 263.914062 105.085938 271.464844 98.601562 C 271.953125 98.183594 272.421875 97.816406 272.882812 97.476562 C 271.722656 95.527344 270.105469 93.886719 268.089844 92.71875 C 266.074219 91.546875 263.851562 90.960938 261.589844 90.921875 C 261.523438 91.492188 261.4375 92.082031 261.320312 92.710938 C 259.480469 102.511719 249.597656 120.886719 244.457031 129.996094 C 245.003906 130.261719 245.550781 130.542969 246.089844 130.855469 Z M 246.089844 130.855469 " fill-opacity="1" fill-rule="nonzero"/><path fill="#ffffff" d="M 226.453125 130.171875 C 226.78125 127.996094 227.808594 122.417969 230.503906 116.109375 C 230.902344 115.171875 231.984375 114.734375 232.917969 115.140625 C 233.851562 115.542969 234.285156 116.625 233.882812 117.5625 C 232.035156 121.890625 231.019531 125.898438 230.492188 128.507812 C 230.707031 128.445312 230.917969 128.367188 231.136719 128.316406 C 232.074219 128.09375 233.035156 127.972656 234 127.902344 C 235.074219 124.472656 238.597656 114.46875 247.066406 99.84375 C 247.578125 98.964844 248.707031 98.667969 249.582031 99.175781 C 250.457031 99.6875 250.757812 100.816406 250.246094 101.695312 C 242.730469 114.679688 239.175781 124.035156 237.839844 128.015625 C 238.886719 128.152344 239.933594 128.363281 240.976562 128.667969 C 250.207031 112.386719 256.445312 98.75 257.707031 92.03125 C 258.5 87.796875 257.9375 84.679688 256.195312 83.695312 C 254.503906 82.738281 251.632812 83.71875 248.875 86.191406 C 238.488281 95.5 231.65625 106.902344 227.167969 117.445312 C 227.140625 117.523438 227.140625 117.605469 227.101562 117.683594 C 227.078125 117.730469 227.042969 117.765625 227.015625 117.808594 C 224.53125 123.699219 222.78125 129.304688 221.554688 134.117188 C 223.019531 132.5 224.660156 131.179688 226.453125 130.171875 Z M 239.484375 99.089844 C 245.390625 91.769531 253.410156 89.378906 253.75 89.28125 C 254.726562 89 255.742188 89.558594 256.023438 90.535156 C 256.308594 91.511719 255.75 92.535156 254.777344 92.820312 C 254.703125 92.84375 247.5 95.019531 242.34375 101.410156 C 241.980469 101.859375 241.449219 102.09375 240.914062 102.09375 C 240.503906 102.09375 240.097656 101.957031 239.757812 101.683594 C 238.96875 101.042969 238.84375 99.878906 239.484375 99.089844 Z M 239.484375 99.089844 " fill-opacity="1" fill-rule="nonzero"/><path fill="#ffffff" d="M 234.1875 173.441406 C 237.050781 173.15625 239.324219 171.90625 240.421875 170.007812 C 241.277344 168.523438 241.273438 166.808594 240.511719 165.011719 C 237.761719 162.707031 234.570312 164.578125 233.636719 165.226562 C 231.15625 166.949219 229.28125 170.140625 230.023438 173.21875 C 231.464844 173.492188 232.867188 173.570312 234.1875 173.441406 Z M 234.1875 173.441406 " fill-opacity="1" fill-rule="nonzero"/><path fill="#ffffff" d="M 250.53125 134.207031 C 251.292969 134.9375 251.988281 135.703125 252.605469 136.511719 C 255.359375 133.238281 257.609375 130.222656 259.765625 127.308594 C 262.746094 123.277344 265.5625 119.472656 269.316406 115.648438 C 269.898438 115.050781 270.371094 114.394531 270.710938 113.703125 C 271.511719 112.066406 272.972656 108.78125 273.71875 105.136719 C 273.921875 104.136719 274.898438 103.492188 275.890625 103.699219 C 276.886719 103.90625 277.527344 104.882812 277.324219 105.878906 C 276.492188 109.929688 274.890625 113.539062 274.011719 115.332031 C 273.496094 116.378906 272.796875 117.355469 271.9375 118.234375 C 268.367188 121.875 265.625 125.582031 262.71875 129.507812 C 260.328125 132.738281 257.828125 136.085938 254.632812 139.808594 C 255.265625 141.121094 255.726562 142.492188 256.027344 143.902344 C 261.339844 137.792969 266.957031 129.1875 267.023438 129.085938 C 267.578125 128.234375 268.71875 127.992188 269.570312 128.546875 C 270.421875 129.105469 270.660156 130.246094 270.105469 131.097656 C 269.789062 131.582031 262.507812 142.734375 256.417969 148.914062 C 256.320312 150.535156 256 152.175781 255.480469 153.820312 C 259.050781 150.335938 263.035156 145.996094 266.914062 140.863281 C 266.929688 140.839844 266.929688 140.816406 266.941406 140.796875 C 266.972656 140.75 267.023438 140.722656 267.058594 140.679688 C 273.953125 131.511719 280.429688 119.878906 283.308594 106.171875 C 284.070312 102.539062 283.484375 99.550781 281.816406 98.558594 C 280.101562 97.539062 277.121094 98.601562 273.859375 101.402344 C 268.679688 105.847656 260.003906 118.066406 250.53125 134.207031 Z M 250.53125 134.207031 " fill-opacity="1" fill-rule="nonzero"/><path fill="#ffffff" d="M 217.148438 153.351562 C 216.265625 153.792969 215.570312 154.4375 215.074219 155.300781 C 213.503906 158.023438 214.207031 162.140625 217.457031 165.949219 C 220.5 165.066406 222.332031 161.839844 222.585938 158.820312 C 222.679688 157.691406 222.683594 154.03125 219.378906 152.769531 C 218.570312 152.863281 217.820312 153.023438 217.195312 153.324219 C 217.179688 153.332031 217.164062 153.34375 217.148438 153.351562 Z M 217.148438 153.351562 " fill-opacity="1" fill-rule="nonzero"/><path fill="#ffffff" d="M 160.085938 250.316406 C 159.878906 249.796875 159.730469 249.273438 159.609375 248.75 C 156.039062 251.257812 154.71875 256.660156 156.71875 261.691406 C 157.941406 264.761719 160.210938 267.195312 162.953125 268.367188 C 164.503906 269.027344 166.125 269.226562 167.652344 268.980469 C 167.375 268.511719 167.125 268.015625 166.917969 267.488281 Z M 160.085938 250.316406 " fill-opacity="1" fill-rule="nonzero"/><path fill="#ffffff" d="M 172.105469 268.605469 C 173.546875 269.828125 175.546875 270.335938 177.875 269.960938 C 180.707031 269.511719 183.65625 268.667969 186.648438 267.449219 C 189.480469 266.296875 194.078125 260.011719 195.410156 254.324219 C 195.8125 252.589844 195.5625 250.113281 194.785156 248.160156 L 193.417969 244.726562 C 192.644531 242.773438 191.128906 240.8125 189.65625 239.847656 C 185.980469 237.445312 180.710938 236.113281 177.148438 236.113281 C 176.015625 236.113281 175.054688 236.246094 174.375 236.527344 C 171.378906 237.746094 168.671875 239.207031 166.324219 240.867188 C 164.394531 242.230469 163.292969 244 163.082031 245.894531 C 162.972656 246.894531 163.09375 247.925781 163.503906 248.953125 L 170.332031 266.121094 C 170.738281 267.136719 171.34375 267.960938 172.097656 268.597656 C 172.097656 268.601562 172.101562 268.601562 172.105469 268.605469 Z M 172.105469 268.605469 " fill-opacity="1" fill-rule="nonzero"/><path fill="#ffffff" d="M 267.636719 226.695312 C 268.222656 225.867188 268.679688 224.996094 269.023438 224.09375 C 255.507812 232.882812 234.195312 242.09375 222.019531 247.054688 C 221.789062 247.144531 221.554688 247.1875 221.328125 247.1875 C 220.601562 247.1875 219.910156 246.753906 219.621094 246.039062 C 219.238281 245.09375 219.691406 244.019531 220.632812 243.636719 C 233.542969 238.378906 256.820312 228.304688 269.695312 219.191406 C 269.605469 218.214844 269.390625 217.246094 269.027344 216.296875 C 268.550781 215.046875 267.851562 213.921875 266.992188 212.933594 C 259.75 213.933594 246.839844 216.992188 225.390625 225.730469 C 225.160156 225.820312 224.925781 225.863281 224.699219 225.863281 C 223.972656 225.863281 223.285156 225.429688 222.992188 224.714844 C 222.609375 223.769531 223.0625 222.695312 224.003906 222.3125 C 242.570312 214.75 254.933594 211.359375 262.808594 209.882812 C 262.105469 209.578125 261.378906 209.316406 260.613281 209.144531 C 249.054688 206.542969 236.277344 207.964844 224.183594 211.226562 C 224.097656 211.265625 224.007812 211.277344 223.917969 211.300781 C 204.414062 216.613281 186.757812 226.699219 178.984375 232.53125 C 183.179688 232.894531 188.105469 234.4375 191.664062 236.757812 C 191.710938 236.789062 191.753906 236.828125 191.800781 236.859375 C 198.253906 233.101562 208.285156 228.726562 208.730469 228.53125 C 209.660156 228.125 210.746094 228.554688 211.152344 229.492188 C 211.554688 230.421875 211.128906 231.507812 210.195312 231.914062 C 210.09375 231.960938 200.894531 235.972656 194.59375 239.511719 C 195.507812 240.667969 196.292969 241.992188 196.835938 243.359375 L 197.144531 244.136719 C 201.382812 243.019531 207.519531 240.753906 207.589844 240.730469 C 208.542969 240.378906 209.601562 240.867188 209.953125 241.820312 C 210.304688 242.777344 209.816406 243.835938 208.863281 244.191406 C 208.582031 244.292969 202.832031 246.414062 198.453125 247.601562 C 199.28125 250.105469 199.515625 252.921875 198.988281 255.164062 C 197.988281 259.457031 195.371094 264.167969 192.492188 267.371094 C 194.082031 267.199219 195.972656 266.898438 198.109375 266.46875 C 198.402344 266.324219 198.71875 266.242188 199.046875 266.269531 C 204.105469 265.195312 210.390625 263.433594 217.195312 260.953125 C 217.433594 260.792969 217.703125 260.691406 217.996094 260.65625 C 224.851562 258.113281 232.179688 254.851562 239.265625 250.832031 C 239.378906 250.75 239.492188 250.683594 239.617188 250.632812 C 250.449219 244.445312 260.667969 236.511719 267.636719 226.695312 Z M 267.636719 226.695312 " fill-opacity="1" fill-rule="nonzero"/><path fill="#ffffff" d="M 201.214844 156.101562 C 201.867188 156.101562 202.5 155.753906 202.832031 155.140625 C 203.316406 154.242188 202.984375 153.125 202.09375 152.636719 L 175.324219 138.078125 C 173.636719 137.160156 171.738281 136.707031 169.816406 136.738281 L 150.667969 137.160156 C 149.652344 137.183594 148.847656 138.027344 148.871094 139.046875 C 148.890625 140.066406 149.722656 140.859375 150.75 140.847656 L 169.898438 140.425781 C 171.183594 140.421875 172.445312 140.707031 173.566406 141.316406 L 200.339844 155.878906 C 200.617188 156.03125 200.917969 156.101562 201.214844 156.101562 Z M 201.214844 156.101562 " fill-opacity="1" fill-rule="nonzero"/><path fill="#ffffff" d="M 135.816406 124.207031 C 136.148438 124.453125 136.53125 124.570312 136.910156 124.570312 C 137.472656 124.570312 138.027344 124.3125 138.390625 123.828125 L 146.960938 112.265625 C 147.453125 111.601562 148.332031 111.347656 149.105469 111.648438 L 177.367188 122.730469 C 178.316406 123.101562 179.378906 122.632812 179.75 121.683594 C 180.121094 120.734375 179.652344 119.664062 178.707031 119.292969 L 150.445312 108.214844 C 148.132812 107.308594 145.484375 108.070312 144.007812 110.066406 L 135.4375 121.628906 C 134.832031 122.445312 135.003906 123.601562 135.816406 124.207031 Z M 135.816406 124.207031 " fill-opacity="1" fill-rule="nonzero"/><g clip-path="url(#220aca7a9b)"><path fill="#ffffff" d="M 130.253906 115.929688 C 130.535156 116.082031 130.835938 116.15625 131.128906 116.15625 C 131.785156 116.15625 132.414062 115.804688 132.75 115.191406 L 140.59375 100.695312 C 141.339844 99.3125 141.46875 97.6875 140.945312 96.207031 L 135.414062 72.972656 C 135.175781 71.980469 134.179688 71.378906 133.195312 71.605469 C 132.207031 71.84375 131.597656 72.835938 131.835938 73.828125 L 137.390625 97.171875 C 137.410156 97.25 137.433594 97.328125 137.460938 97.402344 C 137.652344 97.90625 137.617188 98.464844 137.359375 98.9375 L 129.515625 113.433594 C 129.03125 114.328125 129.363281 115.445312 130.253906 115.929688 Z M 130.253906 115.929688 " fill-opacity="1" fill-rule="nonzero"/></g><path fill="#ffffff" d="M 130.804688 154.488281 C 131.171875 153.542969 130.707031 152.472656 129.761719 152.101562 C 128.8125 151.730469 127.746094 152.199219 127.378906 153.148438 L 120.222656 171.488281 C 119.523438 173.28125 119.300781 175.230469 119.582031 177.132812 L 124.023438 207.339844 C 124.160156 208.257812 124.941406 208.914062 125.839844 208.914062 C 125.929688 208.914062 126.019531 208.910156 126.113281 208.894531 C 127.117188 208.746094 127.808594 207.808594 127.664062 206.804688 L 123.21875 176.59375 C 123.035156 175.328125 123.179688 174.027344 123.648438 172.832031 Z M 130.804688 154.488281 " fill-opacity="1" fill-rule="nonzero"/><path fill="#ffffff" d="M 105.152344 141.558594 L 119.753906 137.21875 C 120.730469 136.929688 121.285156 135.902344 120.996094 134.925781 C 120.707031 133.949219 119.679688 133.390625 118.710938 133.683594 L 104.105469 138.023438 C 101.726562 138.730469 100.101562 140.964844 100.15625 143.449219 L 100.824219 173.863281 C 100.847656 174.871094 101.667969 175.667969 102.664062 175.667969 C 102.675781 175.667969 102.691406 175.667969 102.703125 175.667969 C 103.71875 175.644531 104.523438 174.800781 104.503906 173.785156 L 103.835938 143.367188 C 103.816406 142.539062 104.359375 141.796875 105.152344 141.558594 Z M 105.152344 141.558594 " fill-opacity="1" fill-rule="nonzero"/><g clip-path="url(#fb719290e9)"><path fill="#ffffff" d="M 114.292969 127.097656 C 114.144531 126.089844 113.203125 125.390625 112.203125 125.542969 L 95.964844 127.941406 C 95.429688 128.015625 94.898438 127.863281 94.492188 127.511719 C 94.429688 127.457031 94.367188 127.410156 94.300781 127.363281 L 74.34375 114.113281 C 73.492188 113.546875 72.355469 113.78125 71.792969 114.632812 C 71.230469 115.480469 71.464844 116.625 72.308594 117.1875 L 92.175781 130.378906 C 93.171875 131.203125 94.417969 131.652344 95.695312 131.652344 C 95.964844 131.652344 96.234375 131.628906 96.503906 131.589844 L 112.738281 129.191406 C 113.746094 129.042969 114.4375 128.105469 114.292969 127.097656 Z M 114.292969 127.097656 " fill-opacity="1" fill-rule="nonzero"/></g><path fill="#ffffff" d="M 292.375 145.046875 C 286.582031 143.429688 283.445312 143.710938 280.921875 143.9375 C 278.226562 144.183594 276.441406 144.34375 271.988281 141.800781 C 271.105469 141.296875 269.984375 141.605469 269.480469 142.492188 C 268.980469 143.375 269.289062 144.5 270.171875 145.003906 C 275.621094 148.117188 278.230469 147.882812 281.25 147.613281 C 283.59375 147.402344 286.242188 147.164062 291.386719 148.597656 C 291.554688 148.644531 291.71875 148.667969 291.882812 148.667969 C 292.6875 148.667969 293.425781 148.132812 293.652344 147.316406 C 293.925781 146.335938 293.351562 145.320312 292.375 145.046875 Z M 292.375 145.046875 " fill-opacity="1" fill-rule="nonzero"/><g clip-path="url(#cc1b769cec)"><path fill="#ffffff" d="M 302.957031 111.074219 C 302.4375 110.203125 301.308594 109.917969 300.433594 110.441406 L 287.03125 118.484375 C 286.023438 119.089844 284.777344 119.171875 283.699219 118.703125 C 283.570312 118.644531 283.445312 118.582031 283.320312 118.511719 C 282.441406 118.003906 281.316406 118.304688 280.808594 119.1875 C 280.304688 120.070312 280.605469 121.199219 281.484375 121.707031 C 281.730469 121.847656 281.980469 121.972656 282.238281 122.085938 C 283.167969 122.488281 284.160156 122.691406 285.152344 122.691406 C 286.464844 122.691406 287.769531 122.339844 288.917969 121.648438 L 302.324219 113.605469 C 303.195312 113.082031 303.480469 111.949219 302.957031 111.074219 Z M 302.957031 111.074219 " fill-opacity="1" fill-rule="nonzero"/></g><path fill="#ffffff" d="M 194.421875 141.066406 C 196.015625 141.316406 197.390625 141.421875 198.601562 141.421875 C 202.132812 141.421875 204.230469 140.527344 206 139.769531 C 208.378906 138.757812 209.949219 138.089844 215.175781 140.652344 C 216.089844 141.097656 217.1875 140.71875 217.636719 139.804688 C 218.082031 138.890625 217.703125 137.785156 216.789062 137.335938 C 210.519531 134.261719 207.878906 134.960938 204.5625 136.378906 C 202.414062 137.292969 200.191406 138.242188 194.996094 137.421875 C 193.992188 137.265625 193.050781 137.949219 192.890625 138.957031 C 192.734375 139.960938 193.421875 140.90625 194.421875 141.066406 Z M 194.421875 141.066406 " fill-opacity="1" fill-rule="nonzero"/><path fill="#ffffff" d="M 214.078125 108.640625 C 215.335938 111.371094 216.421875 113.730469 221.667969 116.863281 C 221.964844 117.039062 222.289062 117.125 222.609375 117.125 C 223.234375 117.125 223.847656 116.800781 224.191406 116.222656 C 224.710938 115.347656 224.425781 114.214844 223.550781 113.695312 C 219.28125 111.148438 218.539062 109.535156 217.414062 107.09375 C 216.355469 104.789062 215.035156 101.917969 210.75 97.691406 C 210.023438 96.976562 208.859375 96.984375 208.148438 97.710938 C 207.433594 98.4375 207.445312 99.605469 208.167969 100.320312 C 211.976562 104.074219 213.089844 106.5 214.078125 108.640625 Z M 214.078125 108.640625 " fill-opacity="1" fill-rule="nonzero"/><g clip-path="url(#62f3383bdc)"><path fill="#ffffff" d="M 235.734375 94.4375 C 236.136719 94.4375 236.542969 94.304688 236.878906 94.035156 C 237.675781 93.402344 237.804688 92.242188 237.171875 91.445312 C 236.644531 90.78125 236.359375 89.945312 236.375 89.09375 L 236.648438 73.433594 C 236.664062 72.414062 235.855469 71.574219 234.839844 71.554688 C 233.785156 71.523438 232.988281 72.351562 232.96875 73.367188 L 232.695312 89.03125 C 232.667969 90.738281 233.234375 92.410156 234.296875 93.742188 C 234.660156 94.199219 235.195312 94.4375 235.734375 94.4375 Z M 235.734375 94.4375 " fill-opacity="1" fill-rule="nonzero"/></g><path fill="#ffffff" d="M 252.707031 162.394531 C 257.84375 165.800781 258.050781 167.53125 258.363281 170.152344 C 258.675781 172.726562 259.058594 175.929688 263.019531 180.859375 C 263.382812 181.3125 263.914062 181.550781 264.453125 181.550781 C 264.859375 181.550781 265.265625 181.414062 265.605469 181.140625 C 266.394531 180.503906 266.523438 179.34375 265.886719 178.550781 C 262.585938 174.4375 262.296875 172.035156 262.015625 169.710938 C 261.578125 166.058594 260.835938 163.363281 254.734375 159.320312 C 253.886719 158.757812 252.746094 158.988281 252.1875 159.839844 C 251.625 160.691406 251.859375 161.832031 252.707031 162.394531 Z M 252.707031 162.394531 " fill-opacity="1" fill-rule="nonzero"/><path fill="#ffffff" d="M 222.300781 184.027344 C 222.367188 184.027344 222.433594 184.023438 222.5 184.015625 C 223.507812 183.910156 224.242188 183 224.132812 181.988281 C 223.855469 179.386719 225.167969 175.660156 225.578125 174.582031 C 225.9375 173.628906 225.460938 172.566406 224.507812 172.203125 C 223.566406 171.84375 222.5 172.324219 222.136719 173.273438 C 221.371094 175.300781 220.136719 179.175781 220.476562 182.378906 C 220.574219 183.324219 221.375 184.027344 222.300781 184.027344 Z M 222.300781 184.027344 " fill-opacity="1" fill-rule="nonzero"/><path fill="#ffffff" d="M 212.5 173.207031 C 211.503906 172.992188 210.527344 173.628906 210.316406 174.625 C 210.105469 175.621094 210.738281 176.601562 211.730469 176.8125 C 212.308594 176.9375 212.878906 176.996094 213.441406 176.996094 C 216.207031 176.996094 218.777344 175.535156 220.671875 172.824219 C 221.253906 171.988281 221.050781 170.839844 220.21875 170.257812 C 219.390625 169.671875 218.242188 169.875 217.660156 170.707031 C 216.660156 172.136719 214.957031 173.734375 212.5 173.207031 Z M 212.5 173.207031 " fill-opacity="1" fill-rule="nonzero"/><path fill="#ffffff" d="M 160.464844 269.457031 C 159.527344 269.058594 158.449219 269.496094 158.054688 270.433594 L 156.398438 274.367188 C 156 275.304688 156.4375 276.386719 157.375 276.78125 C 157.609375 276.882812 157.851562 276.925781 158.089844 276.925781 C 158.804688 276.925781 159.488281 276.507812 159.785156 275.800781 L 161.441406 271.871094 C 161.839844 270.933594 161.402344 269.851562 160.464844 269.457031 Z M 160.464844 269.457031 " fill-opacity="1" fill-rule="nonzero"/><g clip-path="url(#d649b17a5b)"><path fill="#ffffff" d="M 152.707031 265.730469 C 134.691406 274.984375 128.085938 282.179688 121.09375 289.800781 C 117.964844 293.210938 114.730469 296.734375 110.304688 300.644531 C 109.542969 301.316406 109.46875 302.484375 110.140625 303.246094 C 110.503906 303.660156 111.011719 303.871094 111.519531 303.871094 C 111.953125 303.871094 112.386719 303.71875 112.734375 303.410156 C 117.308594 299.375 120.609375 295.777344 123.800781 292.296875 C 130.859375 284.605469 136.953125 277.964844 154.386719 269.011719 C 155.289062 268.550781 155.648438 267.4375 155.183594 266.53125 C 154.722656 265.625 153.613281 265.265625 152.707031 265.730469 Z M 152.707031 265.730469 " fill-opacity="1" fill-rule="nonzero"/></g><path fill="#ffffff" d="M 151.136719 260.84375 C 152.140625 260.6875 152.824219 259.742188 152.664062 258.734375 C 152.503906 257.730469 151.5625 257.042969 150.558594 257.203125 C 125.214844 261.242188 101.355469 258.65625 101.117188 258.628906 C 100.117188 258.527344 99.199219 259.242188 99.085938 260.253906 C 98.972656 261.265625 99.699219 262.179688 100.707031 262.292969 C 100.847656 262.308594 108.625 263.152344 120.015625 263.152344 C 128.84375 263.152344 139.847656 262.644531 151.136719 260.84375 Z M 151.136719 260.84375 " fill-opacity="1" fill-rule="nonzero"/><path fill="#ffffff" d="M 147.121094 251.023438 L 151.765625 253.023438 C 152.003906 253.125 152.25 253.171875 152.492188 253.171875 C 153.203125 253.171875 153.882812 252.753906 154.183594 252.054688 C 154.582031 251.117188 154.152344 250.035156 153.21875 249.632812 L 148.570312 247.632812 C 147.636719 247.230469 146.554688 247.667969 146.15625 248.601562 C 145.757812 249.539062 146.1875 250.621094 147.121094 251.023438 Z M 147.121094 251.023438 " fill-opacity="1" fill-rule="nonzero"/><path fill="#ffffff" d="M 188.550781 217.363281 C 188.910156 217.816406 189.445312 218.054688 189.984375 218.054688 C 190.386719 218.054688 190.792969 217.917969 191.132812 217.648438 L 193.554688 215.703125 L 196.09375 217.339844 C 196.402344 217.539062 196.746094 217.632812 197.085938 217.632812 C 197.691406 217.632812 198.285156 217.332031 198.636719 216.785156 C 199.183594 215.929688 198.9375 214.785156 198.082031 214.238281 L 196.582031 213.273438 L 197.566406 212.480469 C 198.359375 211.84375 198.488281 210.683594 197.851562 209.890625 C 197.21875 209.09375 196.058594 208.964844 195.265625 209.601562 L 193.320312 211.167969 L 191.46875 209.976562 C 192.113281 208.632812 192.609375 207.191406 193.011719 205.722656 L 195.136719 206.007812 C 195.21875 206.019531 195.300781 206.023438 195.382812 206.023438 C 196.289062 206.023438 197.078125 205.351562 197.203125 204.425781 C 197.335938 203.414062 196.628906 202.488281 195.621094 202.351562 L 193.800781 202.109375 C 194.054688 200.566406 194.21875 199.050781 194.316406 197.625 L 196.480469 197.945312 C 196.574219 197.957031 196.664062 197.964844 196.753906 197.964844 C 197.648438 197.964844 198.433594 197.304688 198.570312 196.386719 C 198.71875 195.382812 198.023438 194.445312 197.015625 194.296875 L 194.445312 193.917969 C 194.449219 191.195312 194.265625 189.300781 194.246094 189.09375 C 194.140625 188.082031 193.230469 187.351562 192.230469 187.449219 C 191.21875 187.554688 190.484375 188.457031 190.585938 189.472656 C 190.589844 189.515625 190.738281 191.074219 190.753906 193.371094 L 189.007812 193.113281 C 188.011719 192.953125 187.066406 193.660156 186.917969 194.667969 C 186.773438 195.675781 187.464844 196.613281 188.472656 196.761719 L 190.65625 197.085938 C 190.570312 198.523438 190.414062 200.066406 190.15625 201.621094 L 187.347656 201.242188 C 186.351562 201.117188 185.417969 201.816406 185.28125 202.824219 C 185.144531 203.835938 185.851562 204.761719 186.859375 204.898438 L 189.339844 205.230469 C 188.875 206.8125 188.265625 208.328125 187.46875 209.65625 C 186.957031 210.511719 187.214844 211.617188 188.050781 212.15625 L 190.292969 213.601562 L 188.832031 214.769531 C 188.042969 215.40625 187.914062 216.566406 188.550781 217.363281 Z M 188.550781 217.363281 " fill-opacity="1" fill-rule="nonzero"/><path fill="#ffffff" d="M 198.40625 269.109375 C 197.492188 268.65625 196.390625 269.03125 195.941406 269.945312 L 193.320312 275.265625 L 190.730469 274.304688 C 189.78125 273.949219 188.722656 274.4375 188.367188 275.390625 C 188.015625 276.347656 188.5 277.410156 189.453125 277.761719 L 191.683594 278.589844 L 189.5 283.023438 L 186.660156 280.515625 C 185.898438 279.84375 184.734375 279.917969 184.0625 280.683594 C 183.390625 281.449219 183.464844 282.613281 184.230469 283.285156 L 187.03125 285.757812 L 183.503906 288.007812 L 175.210938 285.820312 C 174.234375 285.5625 173.222656 286.148438 172.964844 287.132812 C 172.707031 288.117188 173.292969 289.125 174.277344 289.382812 L 179.273438 290.703125 L 171.761719 295.488281 C 170.90625 296.035156 170.652344 297.175781 171.199219 298.035156 C 171.546875 298.585938 172.144531 298.890625 172.753906 298.890625 C 173.089844 298.890625 173.429688 298.796875 173.738281 298.601562 L 181.734375 293.503906 L 181.472656 297.445312 C 181.402344 298.460938 182.171875 299.335938 183.183594 299.40625 C 183.226562 299.40625 183.265625 299.410156 183.308594 299.410156 C 184.269531 299.410156 185.078125 298.664062 185.140625 297.6875 L 185.582031 291.050781 L 188.992188 288.878906 L 190.273438 293.390625 C 190.503906 294.203125 191.238281 294.730469 192.039062 294.730469 C 192.207031 294.730469 192.378906 294.707031 192.546875 294.660156 C 193.523438 294.378906 194.089844 293.359375 193.8125 292.378906 L 192.046875 286.175781 L 194.320312 281.5625 L 195.164062 283.101562 C 195.5 283.714844 196.128906 284.0625 196.777344 284.0625 C 197.078125 284.0625 197.378906 283.988281 197.660156 283.832031 C 198.550781 283.34375 198.878906 282.222656 198.390625 281.332031 L 196.308594 277.527344 L 199.238281 271.578125 C 199.6875 270.664062 199.316406 269.558594 198.40625 269.109375 Z M 198.40625 269.109375 " fill-opacity="1" fill-rule="nonzero"/><path fill="#ffffff" d="M 161.035156 221.460938 L 162.910156 222.695312 L 160.90625 224.730469 C 160.191406 225.453125 160.199219 226.621094 160.921875 227.335938 C 161.277344 227.691406 161.746094 227.871094 162.214844 227.871094 C 162.6875 227.871094 163.164062 227.6875 163.523438 227.320312 L 166.050781 224.757812 L 169.433594 226.984375 L 167.828125 228.566406 C 167.105469 229.28125 167.09375 230.449219 167.804688 231.175781 C 168.164062 231.542969 168.640625 231.726562 169.117188 231.726562 C 169.582031 231.726562 170.046875 231.550781 170.40625 231.199219 L 172.582031 229.054688 L 174.519531 230.332031 C 174.832031 230.535156 175.179688 230.632812 175.527344 230.632812 C 176.125 230.632812 176.710938 230.339844 177.066406 229.800781 C 177.625 228.949219 177.386719 227.804688 176.539062 227.246094 L 174.683594 226.027344 L 175.949219 221.667969 C 176.230469 220.691406 175.671875 219.667969 174.695312 219.382812 C 173.722656 219.101562 172.699219 219.65625 172.417969 220.636719 L 171.464844 223.910156 L 168.183594 221.75 C 168.179688 221.734375 168.1875 221.722656 168.1875 221.707031 L 167.761719 215.148438 C 167.695312 214.132812 166.804688 213.371094 165.804688 213.429688 C 164.792969 213.496094 164.023438 214.375 164.089844 215.390625 L 164.339844 219.222656 L 162.761719 218.183594 C 162.570312 218.058594 162.355469 217.96875 162.128906 217.921875 L 158.058594 217.066406 L 155.855469 212.144531 C 155.4375 211.214844 154.351562 210.800781 153.421875 211.214844 C 152.496094 211.632812 152.082031 212.722656 152.5 213.652344 L 153.609375 216.132812 L 149.199219 215.203125 C 148.195312 214.996094 147.226562 215.632812 147.019531 216.632812 C 146.8125 217.628906 147.449219 218.605469 148.441406 218.8125 L 154.785156 220.144531 L 152.605469 222.6875 C 151.945312 223.457031 152.03125 224.621094 152.800781 225.285156 C 153.148438 225.585938 153.578125 225.730469 154 225.730469 C 154.515625 225.730469 155.03125 225.511719 155.394531 225.089844 L 158.894531 221.007812 Z M 161.035156 221.460938 " fill-opacity="1" fill-rule="nonzero"/><path fill="#ffffff" d="M 230.320312 284.117188 L 231.925781 282.023438 C 232.546875 281.21875 232.398438 280.058594 231.59375 279.441406 C 230.789062 278.816406 229.632812 278.964844 229.011719 279.773438 L 227.671875 281.523438 C 226.628906 280.566406 225.480469 279.59375 224.246094 278.664062 L 225.40625 277.191406 C 226.035156 276.394531 225.902344 275.234375 225.105469 274.601562 C 224.308594 273.972656 223.152344 274.105469 222.523438 274.90625 L 221.1875 276.597656 C 219.898438 275.828125 218.558594 275.140625 217.183594 274.625 L 217.707031 272.445312 L 220.191406 272.207031 C 221.203125 272.109375 221.945312 271.210938 221.847656 270.195312 C 221.75 269.183594 220.84375 268.410156 219.84375 268.535156 L 218.621094 268.652344 L 219.257812 266 C 219.496094 265.011719 218.886719 264.015625 217.898438 263.777344 C 216.910156 263.539062 215.917969 264.148438 215.679688 265.136719 L 214.746094 269.023438 L 211.664062 269.316406 C 210.652344 269.414062 209.910156 270.3125 210.007812 271.328125 C 210.097656 272.28125 210.898438 272.996094 211.835938 272.996094 C 211.894531 272.996094 211.953125 272.996094 212.011719 272.988281 L 213.835938 272.8125 L 213.210938 275.417969 C 212.976562 276.390625 213.558594 277.375 214.519531 277.632812 C 216 278.03125 217.472656 278.695312 218.886719 279.507812 L 217.316406 281.503906 C 216.683594 282.300781 216.820312 283.460938 217.617188 284.09375 C 217.953125 284.363281 218.355469 284.492188 218.753906 284.492188 C 219.296875 284.492188 219.835938 284.25 220.199219 283.789062 L 221.964844 281.554688 C 223.210938 282.488281 224.371094 283.484375 225.414062 284.457031 L 224.046875 286.242188 C 223.425781 287.046875 223.578125 288.207031 224.382812 288.828125 C 224.71875 289.085938 225.109375 289.210938 225.503906 289.210938 C 226.054688 289.210938 226.597656 288.964844 226.960938 288.492188 L 228.042969 287.085938 C 229.589844 288.742188 230.546875 289.960938 230.570312 289.996094 C 230.933594 290.464844 231.480469 290.710938 232.027344 290.710938 C 232.421875 290.710938 232.816406 290.585938 233.152344 290.328125 C 233.953125 289.707031 234.101562 288.546875 233.484375 287.742188 C 233.355469 287.578125 232.1875 286.082031 230.320312 284.117188 Z M 230.320312 284.117188 " fill-opacity="1" fill-rule="nonzero"/><path fill="#ffffff" d="M 277.40625 250.566406 C 275.625 250.625 274.046875 250.765625 272.59375 250.957031 L 272.539062 249.34375 C 272.503906 248.328125 271.703125 247.488281 270.640625 247.5625 C 269.625 247.597656 268.828125 248.453125 268.863281 249.46875 L 268.9375 251.597656 C 267.257812 251.964844 265.722656 252.398438 264.203125 252.859375 L 264.195312 252.070312 C 264.179688 251.058594 263.359375 250.25 262.355469 250.25 C 262.347656 250.25 262.335938 250.25 262.328125 250.25 C 261.3125 250.265625 260.5 251.101562 260.515625 252.121094 L 260.539062 253.980469 C 259.054688 254.421875 257.464844 254.851562 255.660156 255.253906 L 255.960938 253.75 C 256.160156 252.753906 255.511719 251.78125 254.515625 251.582031 C 253.515625 251.371094 252.550781 252.03125 252.351562 253.03125 L 251.761719 255.992188 C 251.511719 256.03125 251.273438 256.074219 251.015625 256.113281 C 249.597656 256.324219 248.117188 255.9375 246.953125 255.046875 L 243.90625 252.71875 C 243.097656 252.097656 241.945312 252.257812 241.328125 253.066406 C 240.710938 253.875 240.867188 255.03125 241.675781 255.648438 L 244.722656 257.980469 C 246.320312 259.199219 248.285156 259.855469 250.257812 259.855469 C 250.507812 259.855469 250.757812 259.824219 251.007812 259.800781 L 250.621094 261.734375 C 250.421875 262.730469 251.070312 263.703125 252.066406 263.898438 C 252.1875 263.925781 252.308594 263.9375 252.425781 263.9375 C 253.285156 263.9375 254.054688 263.328125 254.226562 262.453125 L 254.878906 259.183594 C 257.046875 258.753906 258.910156 258.28125 260.59375 257.800781 L 260.617188 259.457031 C 260.632812 260.464844 261.453125 261.273438 262.457031 261.273438 C 262.464844 261.273438 262.472656 261.273438 262.480469 261.273438 C 263.496094 261.261719 264.308594 260.421875 264.296875 259.40625 L 264.257812 256.699219 C 265.867188 256.203125 267.414062 255.738281 269.0625 255.347656 L 269.144531 257.714844 C 269.179688 258.710938 269.996094 259.496094 270.980469 259.496094 C 271 259.496094 271.023438 259.496094 271.042969 259.492188 C 272.058594 259.460938 272.855469 258.605469 272.820312 257.589844 L 272.722656 254.660156 C 274.160156 254.460938 275.726562 254.308594 277.535156 254.25 C 278.546875 254.214844 279.34375 253.359375 279.308594 252.34375 C 279.273438 251.328125 278.449219 250.472656 277.40625 250.566406 Z M 277.40625 250.566406 " fill-opacity="1" fill-rule="nonzero"/><path fill="#ffffff" d="M 251.515625 182.492188 C 250.835938 181.738281 249.671875 181.675781 248.917969 182.363281 C 247.578125 183.582031 246.347656 184.566406 245.175781 185.429688 L 243.257812 183.269531 C 242.585938 182.507812 241.421875 182.4375 240.664062 183.117188 C 239.902344 183.792969 239.835938 184.957031 240.507812 185.71875 L 242.082031 187.492188 C 240.617188 188.371094 239.179688 189.125 237.675781 189.894531 L 235.867188 187.933594 C 235.175781 187.183594 234.011719 187.140625 233.269531 187.832031 C 232.523438 188.523438 232.476562 189.691406 233.167969 190.4375 L 234.296875 191.660156 C 232.75 192.496094 231.070312 193.464844 229.207031 194.679688 L 226.515625 192.789062 C 225.683594 192.199219 224.535156 192.402344 223.953125 193.238281 C 223.371094 194.070312 223.574219 195.222656 224.402344 195.804688 L 226.019531 196.941406 C 224.28125 198.359375 223.070312 200.394531 222.714844 202.652344 L 222.300781 205.277344 C 222.140625 206.28125 222.824219 207.226562 223.828125 207.382812 C 223.925781 207.398438 224.023438 207.40625 224.117188 207.40625 C 225.007812 207.40625 225.789062 206.757812 225.933594 205.851562 L 226.347656 203.230469 C 226.578125 201.761719 227.386719 200.433594 228.558594 199.589844 C 228.769531 199.4375 228.96875 199.304688 229.171875 199.15625 L 231.613281 200.871094 C 231.933594 201.097656 232.300781 201.207031 232.667969 201.207031 C 233.246094 201.207031 233.816406 200.933594 234.171875 200.421875 C 234.757812 199.589844 234.554688 198.4375 233.722656 197.855469 L 232.46875 196.972656 C 234.050781 195.992188 235.5 195.183594 236.878906 194.457031 L 238.117188 195.800781 C 238.480469 196.195312 238.972656 196.390625 239.46875 196.390625 C 239.914062 196.390625 240.363281 196.230469 240.714844 195.902344 C 241.460938 195.210938 241.507812 194.042969 240.816406 193.296875 L 240.269531 192.707031 C 241.6875 191.972656 243.097656 191.207031 244.566406 190.292969 L 245.953125 191.863281 C 246.316406 192.273438 246.824219 192.480469 247.328125 192.480469 C 247.761719 192.480469 248.199219 192.328125 248.550781 192.015625 C 249.308594 191.339844 249.378906 190.175781 248.703125 189.414062 L 247.628906 188.199219 C 248.8125 187.316406 250.054688 186.308594 251.390625 185.09375 C 252.140625 184.410156 252.199219 183.246094 251.515625 182.492188 Z M 251.515625 182.492188 " fill-opacity="1" fill-rule="nonzero"/></svg>