<svg xmlns="http://www.w3.org/2000/svg" xmlns:xlink="http://www.w3.org/1999/xlink" width="500" zoomAndPan="magnify" viewBox="0 0 375 374.999991" height="500" preserveAspectRatio="xMidYMid meet" version="1.0"><defs><clipPath id="62625149c8"><path d="M 187.5 0 C 83.945312 0 0 83.945312 0 187.5 C 0 291.054688 83.945312 375 187.5 375 C 291.054688 375 375 291.054688 375 187.5 C 375 83.945312 291.054688 0 187.5 0 Z M 187.5 0 " clip-rule="nonzero"/></clipPath><clipPath id="d262ca0aa5"><path d="M 58.40625 50.925781 L 316.382812 50.925781 L 316.382812 281.175781 L 58.40625 281.175781 Z M 58.40625 50.925781 " clip-rule="nonzero"/></clipPath></defs><rect x="-37.5" width="450" fill="#ffffff" y="-37.499999" height="449.999989" fill-opacity="1"/><rect x="-37.5" width="450" fill="#ffffff" y="-37.499999" height="449.999989" fill-opacity="1"/><g clip-path="url(#62625149c8)"><rect x="-37.5" width="450" fill="#ff3131" y="-37.499999" height="449.999989" fill-opacity="1"/></g><g clip-path="url(#d262ca0aa5)"><path fill="#ff3131" d="M 312.910156 242.601562 L 209.664062 63.785156 C 207.316406 59.714844 203.941406 56.382812 199.902344 54.144531 C 196.101562 52.039062 191.777344 50.925781 187.394531 50.925781 C 183.011719 50.925781 178.6875 52.039062 174.886719 54.144531 C 170.851562 56.382812 167.472656 59.714844 165.125 63.785156 L 61.878906 242.601562 C 59.53125 246.671875 58.332031 251.261719 58.410156 255.878906 C 58.488281 260.222656 59.6875 264.523438 61.878906 268.320312 C 64.070312 272.113281 67.195312 275.300781 70.917969 277.539062 C 74.875 279.917969 79.453125 281.175781 84.148438 281.175781 L 290.640625 281.175781 C 295.335938 281.175781 299.914062 279.917969 303.875 277.539062 C 307.59375 275.300781 310.71875 272.113281 312.910156 268.320312 C 315.105469 264.523438 316.300781 260.222656 316.378906 255.878906 C 316.457031 251.261719 315.261719 246.671875 312.910156 242.601562 " fill-opacity="1" fill-rule="nonzero"/></g><path fill="#ffffff" d="M 187.394531 64.613281 C 185.328125 64.613281 183.296875 65.132812 181.523438 66.117188 C 179.65625 67.152344 178.085938 68.710938 176.980469 70.625 L 73.734375 249.445312 C 72.625 251.363281 72.0625 253.507812 72.097656 255.640625 C 72.132812 257.667969 72.699219 259.683594 73.734375 261.476562 C 74.765625 263.265625 76.230469 264.761719 77.96875 265.804688 C 79.796875 266.90625 81.933594 267.488281 84.148438 267.488281 L 290.640625 267.488281 C 292.855469 267.488281 294.992188 266.90625 296.820312 265.808594 C 298.558594 264.761719 300.023438 263.265625 301.054688 261.476562 C 302.089844 259.683594 302.65625 257.667969 302.691406 255.640625 C 302.730469 253.507812 302.164062 251.367188 301.054688 249.449219 L 197.8125 70.628906 C 196.703125 68.710938 195.132812 67.152344 193.265625 66.113281 C 191.492188 65.132812 189.460938 64.613281 187.394531 64.613281 Z M 290.640625 273.570312 L 84.148438 273.570312 C 80.832031 273.570312 77.609375 272.6875 74.832031 271.019531 C 72.214844 269.449219 70.011719 267.199219 68.464844 264.515625 C 66.914062 261.835938 66.070312 258.800781 66.015625 255.746094 C 65.960938 252.507812 66.804688 249.277344 68.464844 246.40625 L 171.710938 67.585938 C 173.367188 64.710938 175.742188 62.363281 178.574219 60.796875 C 181.246094 59.3125 184.296875 58.53125 187.394531 58.53125 C 190.492188 58.53125 193.542969 59.3125 196.210938 60.792969 C 199.046875 62.363281 201.421875 64.714844 203.078125 67.585938 L 306.328125 246.40625 C 307.984375 249.277344 308.832031 252.507812 308.773438 255.746094 C 308.722656 258.800781 307.875 261.835938 306.324219 264.515625 C 304.777344 267.195312 302.574219 269.449219 299.957031 271.019531 C 297.179688 272.6875 293.957031 273.570312 290.640625 273.570312 " fill-opacity="1" fill-rule="nonzero"/><path fill="#ffffff" d="M 187.394531 225.695312 C 178.367188 225.695312 171.023438 233.039062 171.023438 242.066406 C 171.023438 251.089844 178.367188 258.433594 187.394531 258.433594 C 196.421875 258.433594 203.765625 251.089844 203.765625 242.066406 C 203.765625 233.039062 196.421875 225.695312 187.394531 225.695312 " fill-opacity="1" fill-rule="nonzero"/><path fill="#ffffff" d="M 175.417969 196.691406 C 175.773438 203.039062 181.035156 208.011719 187.394531 208.011719 C 193.753906 208.011719 199.011719 203.039062 199.371094 196.691406 L 203.679688 119.996094 C 203.933594 115.476562 202.359375 111.171875 199.246094 107.878906 C 196.132812 104.585938 191.925781 102.773438 187.394531 102.773438 C 182.863281 102.773438 178.65625 104.585938 175.542969 107.878906 C 172.429688 111.171875 170.855469 115.476562 171.109375 119.996094 L 175.417969 196.691406 " fill-opacity="1" fill-rule="nonzero"/></svg>