<svg xmlns="http://www.w3.org/2000/svg" xmlns:xlink="http://www.w3.org/1999/xlink" width="500" zoomAndPan="magnify" viewBox="0 0 375 374.999991" height="500" preserveAspectRatio="xMidYMid meet" version="1.0"><defs><clipPath id="70225d391a"><path d="M 187.5 0 C 83.945312 0 0 83.945312 0 187.5 C 0 291.054688 83.945312 375 187.5 375 C 291.054688 375 375 291.054688 375 187.5 C 375 83.945312 291.054688 0 187.5 0 Z M 187.5 0 " clip-rule="nonzero"/></clipPath><clipPath id="e4b0ef2d08"><path d="M 44.320312 78.125 L 339.726562 78.125 L 339.726562 297.125 L 44.320312 297.125 Z M 44.320312 78.125 " clip-rule="nonzero"/></clipPath></defs><rect x="-37.5" width="450" fill="#ffffff" y="-37.499999" height="449.999989" fill-opacity="1"/><rect x="-37.5" width="450" fill="#ffffff" y="-37.499999" height="449.999989" fill-opacity="1"/><g clip-path="url(#70225d391a)"><rect x="-37.5" width="450" fill="#fec743" y="-37.499999" height="449.999989" fill-opacity="1"/></g><g clip-path="url(#e4b0ef2d08)"><path fill="#ffffff" d="M 329.921875 147.917969 C 328.761719 149.226562 327.671875 150.464844 326.65625 152.402344 C 325.832031 152.839844 323.75 152.910156 320.871094 152.695312 C 319.707031 152.621094 318.425781 152.5 317.019531 152.332031 C 309.902344 151.480469 300.078125 149.617188 291.191406 147.484375 C 290.492188 147.3125 289.742188 147.53125 289.257812 148.066406 C 288.894531 148.429688 280.589844 157.347656 278.703125 165.175781 C 276.644531 173.703125 271.125 179.183594 265.824219 184.488281 C 261.203125 189.070312 256.457031 193.820312 254.304688 200.339844 C 249.488281 215 241.378906 220.332031 236.027344 223.84375 C 232.710938 226.027344 230.074219 227.769531 230.074219 230.65625 L 225.933594 274.472656 L 210.03125 274.472656 C 210.03125 257.457031 209.667969 236.664062 208.117188 229.203125 C 207.949219 223.238281 201.074219 201.621094 201.003906 201.40625 C 200.640625 200.339844 199.5 199.757812 198.460938 200.097656 C 197.394531 200.460938 196.816406 201.597656 197.179688 202.640625 C 198.847656 207.753906 202.648438 220.574219 203.761719 226.753906 C 195.652344 225.226562 183.378906 226.558594 171.472656 227.84375 C 159.949219 229.082031 148.039062 230.363281 141.117188 228.886719 C 131.96875 226.921875 125.699219 224.234375 120.6875 222.050781 C 114.539062 219.410156 110.28125 217.835938 105.972656 219.242188 C 110.351562 211.484375 111.683594 206.25 112.578125 201.574219 C 112.796875 200.484375 112.070312 199.417969 110.980469 199.222656 C 109.917969 199.03125 108.851562 199.734375 108.632812 200.824219 C 107.398438 207.292969 105.269531 214.855469 94.132812 229.902344 C 94.039062 230.023438 94.011719 230.144531 93.941406 230.292969 C 83.265625 245.050781 79.828125 264.921875 78.789062 274.472656 L 62.882812 274.472656 L 62.882812 260.730469 C 62.882812 250.769531 63.488281 240.445312 67.96875 232.277344 C 68.71875 230.921875 70.265625 227.941406 72.300781 222.996094 C 74.453125 217.738281 73.535156 208.457031 72.375 196.703125 C 72.105469 193.917969 71.816406 191.054688 71.574219 188.171875 C 71.5 187.300781 71.429688 186.429688 71.355469 185.53125 C 71.308594 184.660156 71.234375 183.761719 71.164062 182.890625 C 70.628906 174.769531 70.558594 166.554688 71.816406 159.1875 C 72.832031 153.203125 74.867188 148.28125 77.554688 144.234375 C 78.496094 142.804688 79.515625 141.496094 80.601562 140.285156 C 82.902344 137.71875 85.515625 135.585938 88.300781 133.839844 C 99.21875 126.957031 112.675781 125.816406 120.15625 125.816406 C 145.910156 125.816406 157.601562 127.03125 172.390625 128.554688 C 177.0625 129.042969 182.050781 129.550781 187.835938 130.058594 C 191.5625 130.375 195.605469 128.921875 200.277344 127.199219 C 204.996094 125.480469 210.371094 123.515625 215.960938 123.417969 C 217.800781 123.273438 223.78125 124.535156 229.058594 125.574219 C 235.277344 126.789062 241.160156 127.925781 243.726562 127.925781 C 251.421875 127.925781 260.839844 120.875 270.761719 113.410156 C 279.742188 106.671875 289.039062 99.695312 295.40625 99.695312 C 317.480469 99.695312 328.542969 124.535156 333.867188 136.480469 C 334.449219 137.8125 334.980469 138.976562 335.464844 139.996094 C 333.164062 144.285156 331.445312 146.222656 329.921875 147.917969 Z M 229.46875 293.277344 L 213.636719 293.277344 L 209.957031 289.542969 C 209.984375 287.871094 210.03125 283.800781 210.03125 278.492188 L 225.546875 278.492188 L 225.378906 280.285156 C 225.351562 280.554688 225.378906 280.84375 225.472656 281.109375 Z M 82.394531 293.277344 L 66.976562 293.277344 L 62.882812 285.183594 L 62.882812 278.492188 L 78.425781 278.492188 C 78.328125 279.707031 78.304688 280.410156 78.304688 280.410156 C 78.28125 280.652344 78.328125 280.867188 78.402344 281.109375 Z M 67.847656 158.511719 C 66.320312 167.355469 66.660156 177.171875 67.410156 186.644531 L 63.851562 190.207031 C 61.40625 192.65625 57.851562 193.503906 54.558594 192.414062 C 50.832031 191.152344 48.335938 187.6875 48.335938 183.761719 L 48.335938 181.097656 C 48.335938 168.105469 55.429688 156.207031 66.832031 150.027344 L 70.992188 147.773438 C 69.613281 150.949219 68.523438 154.511719 67.847656 158.511719 Z M 339.507812 139.121094 C 338.949219 138.007812 338.296875 136.554688 337.546875 134.832031 C 332.269531 123.03125 321.742188 99.378906 300.488281 96.058594 C 275.460938 67.4375 243.21875 81.589844 242.878906 81.734375 C 241.886719 82.195312 241.425781 83.382812 241.886719 84.378906 C 242.347656 85.394531 243.53125 85.855469 244.546875 85.394531 C 245.710938 84.863281 272.144531 73.398438 294.628906 95.71875 C 287.054688 96.15625 277.976562 102.964844 268.367188 110.1875 C 259.386719 116.925781 250.089844 123.902344 243.726562 123.902344 C 241.546875 123.902344 235.324219 122.691406 229.832031 121.625 C 223.539062 120.390625 218.117188 119.371094 215.863281 119.371094 C 209.621094 119.515625 203.929688 121.578125 198.921875 123.417969 C 194.683594 124.96875 191.03125 126.277344 188.199219 126.035156 C 182.414062 125.527344 177.449219 125.019531 172.804688 124.535156 C 157.890625 123.007812 146.128906 121.796875 120.15625 121.796875 C 109.238281 121.796875 86.535156 124.050781 74.648438 141.230469 L 64.917969 146.488281 C 52.210938 153.371094 44.320312 166.628906 44.320312 181.097656 L 44.320312 183.761719 C 44.320312 189.433594 47.925781 194.425781 53.273438 196.21875 C 54.65625 196.679688 56.058594 196.898438 57.460938 196.898438 C 60.875 196.898438 64.191406 195.5625 66.710938 193.042969 L 67.871094 191.878906 C 68.039062 193.648438 68.210938 195.394531 68.378906 197.089844 C 69.394531 207.414062 70.363281 217.132812 68.574219 221.46875 C 66.613281 226.21875 65.160156 229.054688 64.457031 230.339844 C 59.542969 239.308594 58.867188 250.238281 58.867188 260.730469 L 58.867188 285.644531 C 58.867188 285.957031 58.9375 286.273438 59.085938 286.5625 L 63.925781 296.207031 C 64.265625 296.886719 64.964844 297.300781 65.742188 297.300781 L 85.179688 297.300781 C 85.808594 297.300781 86.414062 297.007812 86.800781 296.476562 C 87.1875 295.964844 87.285156 295.289062 87.089844 294.65625 L 82.347656 280.214844 C 82.371094 279.632812 82.441406 278.398438 82.613281 276.675781 C 82.613281 276.675781 82.613281 276.675781 82.613281 276.652344 C 83.386719 268.316406 86.386719 247.28125 97.476562 232.277344 C 106.332031 220.28125 109.019531 221.421875 119.089844 225.761719 C 124.003906 227.867188 130.734375 230.777344 140.269531 232.8125 C 147.824219 234.4375 159.515625 233.175781 171.90625 231.84375 C 184.300781 230.511719 197.082031 229.128906 204.367188 231.019531 C 205.457031 237.5625 206.039062 253.558594 206.011719 276.480469 C 206.011719 284.527344 205.941406 290.320312 205.941406 290.320312 C 205.917969 290.878906 206.132812 291.386719 206.496094 291.773438 L 211.363281 296.71875 C 211.75 297.105469 212.257812 297.300781 212.789062 297.300781 L 232.226562 297.300781 C 232.882812 297.300781 233.488281 297.007812 233.875 296.476562 C 234.238281 295.964844 234.359375 295.289062 234.140625 294.65625 L 229.421875 280.238281 L 229.757812 276.675781 L 234.089844 230.847656 C 234.089844 229.929688 236.003906 228.667969 238.230469 227.214844 C 243.703125 223.601562 252.875 217.59375 258.128906 201.597656 C 259.96875 196 264.179688 191.785156 268.65625 187.347656 C 274.105469 181.921875 280.277344 175.765625 282.625 166.121094 C 283.929688 160.617188 289.378906 154.003906 291.410156 151.675781 C 301.941406 154.171875 310.339844 155.722656 316.609375 156.378906 C 316.171875 158.847656 315.230469 160.207031 314.332031 161.492188 C 313.316406 162.894531 312.203125 164.496094 312.203125 167.089844 C 312.203125 171.960938 313.171875 173.703125 313.582031 174.214844 C 313.996094 174.746094 314.625 175.011719 315.253906 175.011719 C 315.6875 175.011719 316.101562 174.890625 316.464844 174.601562 C 317.335938 173.921875 317.527344 172.710938 316.828125 171.863281 C 316.828125 171.839844 316.222656 170.722656 316.222656 167.089844 C 316.222656 165.828125 316.679688 165.148438 317.601562 163.816406 C 318.691406 162.289062 320.070312 160.304688 320.652344 156.667969 C 326.050781 156.886719 329.246094 156.160156 330.117188 154.4375 C 330.9375 152.839844 331.835938 151.84375 332.949219 150.609375 C 334.617188 148.695312 336.722656 146.320312 339.507812 140.941406 C 339.796875 140.382812 339.796875 139.703125 339.507812 139.121094 " fill-opacity="1" fill-rule="nonzero"/></g><path fill="#ffffff" d="M 318.910156 119.179688 C 317.820312 119.179688 316.898438 120.097656 316.898438 121.214844 C 316.898438 122.304688 317.820312 123.226562 318.910156 123.226562 C 320.023438 123.226562 320.917969 122.304688 320.917969 121.214844 C 320.917969 120.097656 320.023438 119.179688 318.910156 119.179688 " fill-opacity="1" fill-rule="nonzero"/><path fill="#ffffff" d="M 296.132812 118.886719 C 295.015625 119.058594 294.242188 120.050781 294.414062 121.164062 C 294.800781 124.171875 294.484375 126.472656 293.515625 127.585938 C 292.910156 128.265625 291.992188 128.605469 290.707031 128.605469 C 283.90625 128.605469 276.039062 119.058594 273.59375 115.375 C 272.964844 114.453125 271.730469 114.210938 270.789062 114.816406 C 269.867188 115.445312 269.625 116.683594 270.253906 117.625 C 270.640625 118.234375 280.347656 132.628906 290.707031 132.628906 C 293.203125 132.628906 295.164062 131.828125 296.542969 130.230469 C 298.359375 128.167969 298.964844 124.921875 298.382812 120.632812 C 298.238281 119.515625 297.21875 118.765625 296.132812 118.886719 " fill-opacity="1" fill-rule="nonzero"/></svg>