<svg xmlns="http://www.w3.org/2000/svg" xmlns:xlink="http://www.w3.org/1999/xlink" width="500" zoomAndPan="magnify" viewBox="0 0 375 374.999991" height="500" preserveAspectRatio="xMidYMid meet" version="1.0"><defs><clipPath id="fafe411f64"><path d="M 187.5 0 C 83.945312 0 0 83.945312 0 187.5 C 0 291.054688 83.945312 375 187.5 375 C 291.054688 375 375 291.054688 375 187.5 C 375 83.945312 291.054688 0 187.5 0 Z M 187.5 0 " clip-rule="nonzero"/></clipPath><clipPath id="830a0879f4"><path d="M 99 37.5 L 205 37.5 L 205 351 L 99 351 Z M 99 37.5 " clip-rule="nonzero"/></clipPath></defs><g clip-path="url(#fafe411f64)"><rect x="-37.5" width="450" fill="#58a39d" y="-37.499999" height="449.999989" fill-opacity="1"/></g><g clip-path="url(#830a0879f4)"><path fill="#ffffff" d="M 169.082031 143.300781 L 169.214844 143.667969 L 169.335938 144.011719 L 169.808594 145.359375 C 169.890625 145.582031 169.957031 145.808594 170.027344 146.039062 L 170.238281 146.722656 L 170.449219 147.402344 C 170.515625 147.628906 170.570312 147.863281 170.632812 148.089844 C 170.75 148.550781 170.878906 149.011719 170.992188 149.472656 L 171.292969 150.863281 C 171.40625 151.328125 171.472656 151.796875 171.558594 152.269531 C 171.640625 152.734375 171.730469 153.203125 171.785156 153.675781 C 172.339844 157.4375 172.457031 161.273438 172.164062 165.097656 C 172.042969 167.011719 171.792969 168.925781 171.488281 170.832031 C 171.1875 172.742188 170.765625 174.640625 170.308594 176.527344 C 169.394531 180.3125 168.175781 184.046875 166.796875 187.738281 C 166.117188 189.589844 165.363281 191.421875 164.59375 193.246094 C 163.816406 195.066406 163.007812 196.882812 162.175781 198.695312 C 161.34375 200.503906 160.46875 202.296875 159.589844 204.09375 C 158.707031 205.890625 157.808594 207.679688 156.890625 209.464844 L 153.652344 215.726562 C 153.476562 215.089844 153.300781 214.457031 153.117188 213.828125 L 152.757812 212.648438 L 152.382812 211.476562 L 151.6875 209.253906 C 151.570312 208.886719 151.453125 208.523438 151.34375 208.15625 L 151.039062 207.042969 L 150.582031 205.378906 L 150.445312 204.816406 L 149.902344 202.574219 C 149.886719 202.507812 149.871094 202.4375 149.855469 202.367188 C 150.570312 201.066406 151.28125 199.757812 151.988281 198.449219 C 152.875 196.808594 153.757812 195.164062 154.617188 193.503906 C 155.472656 191.839844 156.324219 190.167969 157.152344 188.488281 C 157.976562 186.796875 158.777344 185.09375 159.550781 183.371094 C 161.105469 179.933594 162.511719 176.410156 163.746094 172.796875 C 164.363281 170.992188 164.921875 169.160156 165.414062 167.300781 C 165.90625 165.445312 166.351562 163.570312 166.703125 161.667969 C 167.054688 159.761719 167.335938 157.835938 167.503906 155.890625 C 167.675781 153.949219 167.78125 151.992188 167.742188 150.023438 C 167.667969 146.09375 167.144531 142.136719 166.09375 138.308594 C 165.976562 137.824219 165.8125 137.355469 165.667969 136.882812 C 165.519531 136.410156 165.378906 135.933594 165.203125 135.46875 L 164.695312 134.074219 L 164.128906 132.699219 C 163.945312 132.238281 163.730469 131.792969 163.519531 131.34375 L 163.050781 130.335938 L 162.878906 130.007812 L 162.1875 128.695312 L 161.539062 127.496094 C 161.324219 127.101562 161.109375 126.710938 160.910156 126.308594 L 160.300781 125.117188 C 159.921875 124.308594 159.523438 123.507812 159.171875 122.691406 C 158.800781 121.878906 158.476562 121.050781 158.128906 120.230469 L 157.648438 118.984375 C 157.484375 118.570312 157.347656 118.148438 157.195312 117.730469 C 157.109375 117.484375 157.027344 117.242188 156.945312 116.996094 C 159.035156 109.800781 161.382812 102.667969 163.921875 95.59375 L 168.699219 95.59375 C 167.40625 98.8125 166.394531 102.15625 165.675781 105.574219 C 165.242188 107.609375 164.925781 109.675781 164.707031 111.75 C 164.496094 113.828125 164.371094 115.917969 164.375 118.011719 C 164.367188 120.101562 164.464844 122.195312 164.648438 124.28125 C 164.84375 126.363281 165.148438 128.4375 165.527344 130.492188 C 165.625 131.003906 165.710938 131.523438 165.824219 132.03125 L 166.15625 133.566406 C 166.398438 134.578125 166.640625 135.597656 166.929688 136.601562 C 167.195312 137.613281 167.511719 138.605469 167.8125 139.605469 C 168.144531 140.59375 168.457031 141.589844 168.820312 142.566406 Z M 148.578125 225.621094 C 148.351562 226.074219 148.128906 226.523438 147.910156 226.976562 L 147.914062 226.933594 C 147.972656 226.28125 148.015625 225.628906 148.066406 224.976562 C 148.210938 222.804688 148.285156 220.632812 148.304688 218.464844 C 148.433594 218.953125 148.558594 219.445312 148.675781 219.941406 C 148.980469 221.214844 149.25 222.5 149.496094 223.792969 C 149.1875 224.402344 148.878906 225.007812 148.578125 225.621094 Z M 147.582031 186.539062 L 147.425781 184.21875 L 147.328125 181.894531 C 147.285156 181.117188 147.277344 180.339844 147.265625 179.5625 L 147.246094 178.398438 L 147.234375 177.816406 L 147.238281 177.230469 L 147.25 174.898438 C 147.265625 174.121094 147.292969 173.339844 147.3125 172.5625 C 147.324219 172.171875 147.332031 171.785156 147.347656 171.394531 L 147.398438 170.226562 C 147.4375 169.449219 147.460938 168.667969 147.515625 167.890625 C 147.691406 164.777344 147.976562 161.660156 148.316406 158.550781 C 148.679688 155.445312 149.097656 152.339844 149.582031 149.242188 C 150.085938 146.148438 150.648438 143.058594 151.265625 139.976562 C 151.886719 136.898438 152.5625 133.824219 153.292969 130.765625 C 153.699219 129.078125 154.121094 127.390625 154.554688 125.707031 C 154.804688 126.296875 155.0625 126.878906 155.320312 127.460938 L 155.933594 128.769531 C 156.136719 129.210938 156.351562 129.640625 156.570312 130.070312 L 157.207031 131.339844 C 157.398438 131.730469 157.59375 132.121094 157.789062 132.507812 L 157.933594 132.796875 L 158.066406 133.097656 L 158.328125 133.691406 C 158.503906 134.089844 158.6875 134.480469 158.835938 134.890625 L 159.3125 136.097656 L 159.730469 137.328125 C 159.878906 137.734375 159.992188 138.152344 160.113281 138.566406 C 160.230469 138.984375 160.367188 139.394531 160.460938 139.816406 L 160.773438 141.074219 L 161.039062 142.347656 C 161.132812 142.769531 161.199219 143.199219 161.265625 143.625 C 161.335938 144.054688 161.417969 144.480469 161.460938 144.910156 L 161.617188 146.203125 L 161.722656 147.507812 C 161.765625 147.9375 161.769531 148.375 161.792969 148.808594 C 161.8125 149.246094 161.832031 149.679688 161.828125 150.117188 C 161.871094 151.863281 161.789062 153.621094 161.644531 155.375 C 161.507812 157.128906 161.253906 158.886719 160.953125 160.636719 C 160.367188 164.144531 159.464844 167.625 158.40625 171.074219 C 157.355469 174.53125 156.085938 177.945312 154.746094 181.34375 C 154.074219 183.046875 153.359375 184.734375 152.640625 186.425781 C 151.921875 188.117188 151.179688 189.800781 150.425781 191.488281 L 148.582031 195.5625 L 148.277344 193.46875 L 148.003906 191.164062 C 147.90625 190.398438 147.84375 189.625 147.773438 188.855469 C 147.710938 188.082031 147.621094 187.3125 147.582031 186.539062 Z M 146.429688 138.929688 C 145.703125 142.058594 145.058594 145.203125 144.460938 148.363281 C 143.886719 151.523438 143.355469 154.699219 142.9375 157.894531 C 142.527344 161.089844 142.171875 164.296875 141.929688 167.515625 C 141.902344 167.882812 141.875 168.25 141.851562 168.617188 L 141.734375 167.734375 C 141.691406 167.421875 141.660156 167.109375 141.632812 166.796875 L 141.539062 165.863281 L 141.171875 162.113281 L 141.082031 161.179688 L 141.015625 160.238281 L 140.753906 156.484375 L 140.6875 155.546875 L 140.65625 155.074219 L 140.636719 154.605469 L 140.5625 152.726562 C 140.519531 151.472656 140.457031 150.21875 140.421875 148.964844 L 140.382812 145.199219 C 140.378906 144.574219 140.359375 143.945312 140.367188 143.316406 L 140.445312 138.609375 C 140.453125 138.292969 140.453125 137.980469 140.472656 137.667969 L 140.644531 133.90625 C 140.683594 132.648438 140.796875 131.398438 140.882812 130.144531 C 140.976562 128.894531 141.042969 127.636719 141.1875 126.386719 L 141.558594 122.636719 L 142.023438 118.890625 L 142.140625 117.957031 C 142.183594 117.644531 142.234375 117.332031 142.28125 117.023438 L 142.566406 115.160156 L 142.847656 113.289062 L 143.175781 111.429688 C 144.042969 106.46875 145.101562 101.539062 146.398438 96.65625 C 146.492188 96.300781 146.589844 95.949219 146.6875 95.59375 L 150.382812 95.59375 C 150.34375 95.851562 150.304688 96.109375 150.269531 96.367188 C 150 98.277344 149.855469 100.207031 149.8125 102.140625 C 149.773438 104.074219 149.828125 106.015625 150.007812 107.945312 C 150.183594 109.875 150.460938 111.796875 150.828125 113.699219 C 151.167969 115.402344 151.589844 117.085938 152.074219 118.746094 C 150.910156 122.34375 149.816406 125.964844 148.808594 129.609375 C 147.957031 132.699219 147.171875 135.808594 146.429688 138.929688 Z M 154.207031 95.59375 L 160.710938 95.59375 C 158.710938 100.351562 156.824219 105.164062 155.070312 110.023438 C 154.894531 109.15625 154.742188 108.28125 154.613281 107.402344 C 154.019531 103.511719 153.882812 99.542969 154.207031 95.59375 Z M 154.820312 37.503906 C 132.21875 37.503906 112.988281 55.332031 105.820312 80.230469 C 103.652344 87.757812 108.359375 95.59375 115.015625 95.59375 L 120.753906 95.59375 C 120.730469 95.667969 120.703125 95.742188 120.675781 95.816406 C 120.457031 96.425781 120.269531 97.039062 120.070312 97.648438 L 119.472656 99.484375 C 119.371094 99.789062 119.277344 100.097656 119.1875 100.40625 L 118.914062 101.332031 L 118.363281 103.179688 C 118.175781 103.796875 118.007812 104.417969 117.84375 105.039062 L 117.347656 106.90625 C 117.003906 108.148438 116.730469 109.40625 116.425781 110.65625 L 115.980469 112.539062 L 115.589844 114.429688 L 115.203125 116.324219 C 115.140625 116.640625 115.070312 116.957031 115.011719 117.273438 L 114.847656 118.222656 L 114.175781 122.035156 L 113.625 125.863281 C 112.960938 130.976562 112.433594 136.117188 112.246094 141.277344 L 112.152344 143.214844 C 112.125 143.859375 112.121094 144.503906 112.105469 145.152344 L 112.046875 149.023438 C 112.050781 150.3125 112.082031 151.605469 112.101562 152.894531 L 112.140625 155.316406 L 112.164062 155.800781 L 112.210938 156.765625 L 112.402344 160.636719 L 112.453125 161.601562 L 112.535156 162.566406 L 112.859375 166.429688 L 112.941406 167.394531 C 112.964844 167.714844 112.992188 168.035156 113.035156 168.355469 L 113.480469 172.203125 L 113.707031 174.125 C 113.742188 174.449219 113.792969 174.765625 113.84375 175.085938 L 113.988281 176.042969 L 114.578125 179.871094 L 114.722656 180.824219 L 114.796875 181.304688 L 114.886719 181.78125 L 115.953125 187.488281 C 116.070312 188.128906 116.195312 188.738281 116.320312 189.355469 L 116.6875 191.203125 C 116.925781 192.4375 117.148438 193.671875 117.371094 194.90625 C 117.789062 197.378906 118.1875 199.851562 118.503906 202.332031 C 118.851562 204.808594 119.109375 207.292969 119.332031 209.777344 C 119.542969 212.261719 119.664062 214.746094 119.746094 217.226562 C 119.871094 222.195312 119.683594 227.152344 119.058594 232.042969 C 118.746094 234.492188 118.316406 236.917969 117.773438 239.324219 C 117.234375 241.726562 116.582031 244.109375 115.800781 246.453125 C 115.019531 248.796875 114.140625 251.121094 113.167969 253.417969 C 112.195312 255.714844 111.117188 257.980469 110.019531 260.257812 C 108.921875 262.539062 107.769531 264.808594 106.65625 267.117188 C 105.546875 269.433594 104.453125 271.773438 103.480469 274.175781 C 101.519531 278.96875 100.050781 284.023438 99.429688 289.164062 C 99.105469 291.730469 98.976562 294.308594 99.019531 296.878906 C 99.070312 299.445312 99.277344 302 99.640625 304.527344 C 99.617188 301.976562 99.6875 299.433594 99.914062 296.910156 C 100.132812 294.390625 100.515625 291.890625 101.054688 289.441406 C 101.601562 286.992188 102.285156 284.582031 103.160156 282.238281 L 103.484375 281.363281 L 103.828125 280.488281 C 104.050781 279.910156 104.308594 279.335938 104.546875 278.761719 C 105.050781 277.617188 105.570312 276.480469 106.132812 275.359375 C 107.238281 273.113281 108.449219 270.90625 109.695312 268.703125 C 110.945312 266.5 112.214844 264.289062 113.46875 262.050781 C 115.976562 257.574219 118.335938 252.910156 120.1875 248 C 121.117188 245.550781 121.917969 243.042969 122.59375 240.5 C 123.265625 237.960938 123.800781 235.382812 124.21875 232.789062 C 124.316406 232.140625 124.421875 231.492188 124.511719 230.84375 L 124.757812 228.890625 L 124.957031 226.933594 C 125.015625 226.28125 125.058594 225.628906 125.109375 224.976562 C 125.285156 222.363281 125.363281 219.75 125.355469 217.140625 C 125.316406 211.925781 124.929688 206.734375 124.296875 201.59375 C 123.988281 199.019531 123.585938 196.464844 123.167969 193.914062 C 122.945312 192.640625 122.71875 191.371094 122.484375 190.101562 L 121.75 186.320312 L 121.039062 182.621094 L 120.6875 180.769531 L 120.597656 180.308594 L 120.375 178.914062 L 119.789062 175.195312 L 119.640625 174.265625 C 119.589844 173.953125 119.539062 173.644531 119.503906 173.332031 L 119.265625 171.464844 L 118.78125 167.734375 C 118.734375 167.421875 118.703125 167.109375 118.675781 166.796875 L 118.582031 165.863281 L 118.214844 162.113281 L 118.125 161.179688 L 118.0625 160.238281 L 117.800781 156.484375 L 117.734375 155.546875 L 117.699219 155.074219 L 117.679688 154.605469 L 117.609375 152.726562 C 117.5625 151.472656 117.5 150.21875 117.464844 148.964844 L 117.425781 145.199219 C 117.421875 144.574219 117.402344 143.945312 117.410156 143.316406 L 117.488281 138.609375 C 117.496094 138.292969 117.5 137.980469 117.515625 137.667969 L 117.691406 133.90625 C 117.726562 132.648438 117.839844 131.398438 117.925781 130.144531 C 118.023438 128.894531 118.085938 127.636719 118.230469 126.386719 L 118.601562 122.636719 L 119.070312 118.890625 L 119.1875 117.957031 C 119.226562 117.644531 119.277344 117.332031 119.324219 117.023438 L 119.609375 115.160156 L 119.890625 113.289062 L 120.21875 111.429688 C 121.085938 106.46875 122.148438 101.539062 123.441406 96.65625 C 123.535156 96.300781 123.632812 95.949219 123.730469 95.59375 L 143.710938 95.59375 C 143.683594 95.667969 143.65625 95.742188 143.632812 95.816406 C 143.414062 96.425781 143.226562 97.039062 143.023438 97.648438 L 142.429688 99.484375 C 142.328125 99.789062 142.234375 100.097656 142.144531 100.40625 L 141.871094 101.332031 L 141.320312 103.179688 C 141.128906 103.796875 140.964844 104.417969 140.800781 105.039062 L 140.304688 106.90625 C 139.960938 108.148438 139.683594 109.40625 139.382812 110.65625 L 138.9375 112.539062 L 138.546875 114.429688 L 138.160156 116.324219 C 138.097656 116.640625 138.027344 116.957031 137.96875 117.273438 L 137.800781 118.222656 L 137.132812 122.035156 L 136.582031 125.863281 C 135.914062 130.976562 135.386719 136.117188 135.203125 141.277344 L 135.105469 143.214844 C 135.082031 143.859375 135.078125 144.503906 135.0625 145.152344 L 135 149.023438 C 135.007812 150.3125 135.039062 151.605469 135.058594 152.894531 L 135.097656 155.316406 L 135.121094 155.800781 L 135.167969 156.765625 L 135.355469 160.636719 L 135.410156 161.601562 L 135.488281 162.566406 L 135.8125 166.429688 L 135.894531 167.394531 C 135.921875 167.714844 135.949219 168.035156 135.988281 168.355469 L 136.4375 172.203125 L 136.664062 174.125 C 136.699219 174.449219 136.75 174.765625 136.796875 175.085938 L 136.945312 176.042969 L 137.53125 179.871094 L 137.679688 180.824219 L 137.753906 181.304688 L 137.84375 181.78125 L 138.910156 187.488281 C 139.027344 188.128906 139.152344 188.738281 139.273438 189.355469 L 139.644531 191.203125 C 139.882812 192.4375 140.101562 193.671875 140.328125 194.90625 C 140.746094 197.378906 141.140625 199.851562 141.460938 202.332031 C 141.808594 204.808594 142.066406 207.289062 142.285156 209.773438 C 141.992188 210.484375 141.699219 211.199219 141.414062 211.914062 C 140.035156 215.402344 138.753906 218.957031 137.871094 222.636719 C 137.425781 224.472656 137.082031 226.339844 136.933594 228.226562 C 136.792969 230.109375 136.835938 232.015625 137.207031 233.84375 C 137.171875 231.976562 137.410156 230.144531 137.820312 228.359375 C 138.222656 226.570312 138.800781 224.832031 139.445312 223.117188 C 140.382812 220.660156 141.480469 218.261719 142.652344 215.894531 C 142.671875 216.339844 142.6875 216.785156 142.703125 217.226562 C 142.828125 222.195312 142.640625 227.152344 142.011719 232.042969 C 141.699219 234.492188 141.269531 236.917969 140.730469 239.324219 C 140.191406 241.726562 139.539062 244.109375 138.757812 246.453125 C 137.976562 248.796875 137.097656 251.121094 136.121094 253.417969 C 135.148438 255.714844 134.074219 257.980469 132.976562 260.257812 C 131.878906 262.539062 130.726562 264.808594 129.613281 267.117188 C 128.503906 269.433594 127.410156 271.773438 126.4375 274.175781 C 124.476562 278.96875 123.007812 284.023438 122.386719 289.164062 C 122.0625 291.730469 121.929688 294.308594 121.976562 296.878906 C 122.023438 299.445312 122.234375 302 122.597656 304.527344 C 122.570312 301.976562 122.640625 299.433594 122.871094 296.910156 C 123.089844 294.390625 123.472656 291.890625 124.011719 289.441406 C 124.558594 286.992188 125.242188 284.582031 126.113281 282.238281 L 126.441406 281.363281 L 126.785156 280.488281 C 127.007812 279.910156 127.261719 279.335938 127.503906 278.761719 C 128.007812 277.617188 128.527344 276.480469 129.089844 275.359375 C 130.195312 273.113281 131.40625 270.90625 132.652344 268.703125 C 133.898438 266.5 135.171875 264.289062 136.425781 262.050781 C 138.933594 257.574219 141.292969 252.910156 143.140625 248 C 144.070312 245.550781 144.871094 243.042969 145.550781 240.5 C 145.964844 238.925781 146.328125 237.339844 146.644531 235.742188 C 147.253906 234.640625 147.871094 233.539062 148.507812 232.449219 C 149.117188 231.398438 149.734375 230.347656 150.359375 229.304688 C 150.53125 230.71875 150.667969 232.136719 150.765625 233.558594 C 150.976562 236.621094 151.015625 239.699219 150.910156 242.777344 C 150.703125 248.933594 149.839844 255.082031 148.546875 261.164062 C 147.894531 264.203125 147.121094 267.222656 146.257812 270.226562 C 145.402344 273.230469 144.449219 276.214844 143.421875 279.179688 C 142.390625 282.140625 141.304688 285.09375 140.164062 288.03125 C 139.019531 290.972656 137.820312 293.894531 136.613281 296.820312 C 134.1875 302.667969 131.65625 308.5 129.304688 314.441406 C 128.136719 317.414062 127.011719 320.410156 126.023438 323.46875 C 125.046875 326.527344 124.179688 329.640625 123.652344 332.835938 C 123.519531 333.632812 123.410156 334.4375 123.328125 335.242188 C 123.238281 336.050781 123.1875 336.859375 123.167969 337.671875 C 123.121094 339.292969 123.222656 340.925781 123.507812 342.527344 C 123.808594 344.125 124.308594 345.6875 125.035156 347.125 C 125.761719 348.566406 126.726562 349.871094 127.835938 351.011719 C 126.851562 349.765625 126.039062 348.390625 125.464844 346.933594 C 124.894531 345.476562 124.542969 343.945312 124.398438 342.402344 C 124.253906 340.855469 124.277344 339.296875 124.449219 337.753906 C 124.617188 336.210938 124.898438 334.675781 125.269531 333.164062 C 126.011719 330.132812 127.042969 327.167969 128.203125 324.25 C 129.367188 321.328125 130.640625 318.445312 131.976562 315.582031 C 133.304688 312.714844 134.675781 309.859375 136.058594 307 C 137.4375 304.140625 138.8125 301.269531 140.171875 298.390625 C 141.53125 295.507812 142.851562 292.597656 144.132812 289.664062 C 145.410156 286.730469 146.644531 283.769531 147.792969 280.769531 C 148.941406 277.765625 150.023438 274.730469 151.007812 271.660156 C 151.992188 268.585938 152.867188 265.46875 153.628906 262.320312 C 154.394531 259.167969 155.035156 255.980469 155.515625 252.757812 C 156.003906 249.539062 156.34375 246.285156 156.515625 243.019531 C 156.863281 236.492188 156.484375 229.894531 155.371094 223.417969 C 155.265625 222.808594 155.152344 222.207031 155.03125 221.597656 C 155.984375 220.046875 156.925781 218.484375 157.871094 216.921875 C 158.914062 215.1875 159.957031 213.449219 160.972656 211.6875 C 161.992188 209.929688 163 208.164062 163.992188 206.382812 C 164.972656 204.59375 165.929688 202.792969 166.867188 200.972656 C 168.742188 197.332031 170.46875 193.597656 172.023438 189.769531 C 172.226562 189.292969 172.410156 188.808594 172.597656 188.328125 C 172.785156 187.84375 172.972656 187.367188 173.148438 186.875 L 173.679688 185.414062 L 174.179688 183.941406 C 174.835938 181.96875 175.453125 179.980469 175.972656 177.953125 C 176.488281 175.925781 176.945312 173.878906 177.289062 171.800781 C 177.632812 169.726562 177.921875 167.636719 178.0625 165.519531 C 178.355469 161.296875 178.21875 157.011719 177.550781 152.796875 C 177.476562 152.269531 177.367188 151.742188 177.269531 151.21875 C 177.164062 150.699219 177.078125 150.171875 176.945312 149.652344 L 176.578125 148.09375 C 176.441406 147.578125 176.289062 147.0625 176.148438 146.550781 C 176.074219 146.296875 176.007812 146.035156 175.925781 145.78125 L 175.429688 144.261719 C 175.347656 144.007812 175.265625 143.753906 175.167969 143.503906 L 174.605469 142.007812 L 174.332031 141.296875 L 174.0625 140.617188 C 173.695312 139.707031 173.378906 138.785156 173.042969 137.871094 C 172.734375 136.945312 172.410156 136.027344 172.136719 135.089844 C 171.839844 134.160156 171.589844 133.222656 171.320312 132.285156 L 170.953125 130.871094 C 170.828125 130.402344 170.730469 129.925781 170.617188 129.449219 C 169.761719 125.65625 169.199219 121.792969 169.007812 117.90625 C 168.914062 115.964844 168.890625 114.015625 168.972656 112.066406 C 169.050781 110.117188 169.230469 108.171875 169.488281 106.234375 C 169.75 104.296875 170.117188 102.371094 170.558594 100.457031 C 170.9375 98.820312 171.394531 97.199219 171.914062 95.59375 L 181.933594 95.59375 L 181.367188 97.667969 L 180.847656 99.804688 C 180.675781 100.519531 180.492188 101.230469 180.347656 101.949219 L 179.894531 104.105469 C 179.738281 104.820312 179.613281 105.546875 179.484375 106.265625 L 179.101562 108.4375 C 179.03125 108.796875 178.984375 109.160156 178.929688 109.527344 L 178.769531 110.617188 L 178.453125 112.800781 L 178.210938 114.992188 C 178.132812 115.722656 178.042969 116.453125 177.972656 117.183594 L 177.800781 119.386719 C 177.746094 120.121094 177.679688 120.851562 177.636719 121.589844 L 177.539062 123.792969 C 177.511719 124.527344 177.476562 125.265625 177.453125 126 L 177.4375 128.210938 L 177.417969 130.421875 C 177.429688 131.15625 177.457031 131.894531 177.472656 132.632812 L 177.535156 134.84375 L 177.550781 135.394531 L 177.585938 135.945312 L 177.660156 137.050781 L 177.804688 139.257812 L 177.878906 140.359375 L 177.988281 141.464844 L 178.214844 143.664062 L 178.324219 144.765625 C 178.363281 145.132812 178.394531 145.5 178.453125 145.863281 L 179.070312 150.25 C 179.097656 150.429688 179.117188 150.613281 179.148438 150.796875 L 179.246094 151.339844 L 179.441406 152.429688 L 179.835938 154.609375 C 180.074219 156.066406 180.410156 157.503906 180.722656 158.945312 L 181.195312 161.109375 L 181.316406 161.648438 L 181.457031 162.183594 L 181.734375 163.257812 C 182.113281 164.683594 182.472656 166.113281 182.867188 167.535156 L 184.144531 171.777344 L 185.386719 175.875 C 185.753906 177.234375 186.152344 178.585938 186.464844 179.957031 C 186.8125 181.320312 187.082031 182.707031 187.375 184.082031 C 187.507812 184.777344 187.628906 185.472656 187.753906 186.164062 C 187.8125 186.511719 187.882812 186.855469 187.9375 187.207031 L 188.09375 188.253906 L 188.253906 189.296875 L 188.332031 189.820312 L 188.402344 190.347656 L 188.667969 192.445312 C 188.753906 193.148438 188.8125 193.851562 188.886719 194.554688 L 188.992188 195.609375 L 189.070312 196.664062 C 189.304688 199.480469 189.398438 202.316406 189.425781 205.148438 C 189.492188 210.820312 189.171875 216.507812 188.582031 222.179688 L 188.351562 224.308594 L 188.09375 226.433594 L 187.960938 227.496094 L 187.8125 228.558594 C 187.710938 229.265625 187.621094 229.972656 187.511719 230.679688 C 187.09375 233.511719 186.59375 236.328125 186.085938 239.152344 C 185.558594 241.96875 184.984375 244.78125 184.371094 247.589844 C 183.742188 250.394531 183.105469 253.199219 182.421875 255.996094 C 181.734375 258.796875 181.023438 261.589844 180.285156 264.378906 C 179.550781 267.171875 178.800781 269.960938 178.023438 272.75 L 175.683594 281.113281 L 173.324219 289.488281 C 171.757812 295.082031 170.21875 300.691406 168.824219 306.351562 C 167.445312 312.015625 166.1875 317.722656 165.351562 323.511719 C 164.933594 326.402344 164.628906 329.3125 164.503906 332.234375 C 164.382812 335.152344 164.4375 338.082031 164.804688 340.964844 C 164.777344 338.058594 165 335.171875 165.394531 332.3125 C 165.78125 329.453125 166.335938 326.621094 166.972656 323.808594 C 167.621094 321 168.34375 318.207031 169.132812 315.429688 C 169.921875 312.65625 170.75 309.886719 171.625 307.132812 C 172.488281 304.375 173.378906 301.621094 174.292969 298.875 L 177.039062 290.628906 C 177.96875 287.878906 178.878906 285.125 179.789062 282.367188 C 180.699219 279.605469 181.609375 276.84375 182.484375 274.070312 C 183.363281 271.292969 184.222656 268.507812 185.0625 265.71875 C 185.898438 262.925781 186.691406 260.117188 187.46875 257.300781 C 188.242188 254.480469 188.980469 251.652344 189.667969 248.804688 C 190.347656 245.957031 190.992188 243.097656 191.589844 240.226562 C 192.183594 237.351562 192.710938 234.460938 193.179688 231.554688 C 193.300781 230.832031 193.402344 230.101562 193.515625 229.375 L 193.683594 228.285156 L 193.832031 227.191406 L 194.125 225 L 194.390625 222.804688 C 195.03125 216.941406 195.386719 211.027344 195.335938 205.097656 C 195.300781 202.128906 195.1875 199.164062 194.933594 196.199219 L 194.84375 195.085938 L 194.726562 193.976562 C 194.648438 193.238281 194.582031 192.496094 194.488281 191.757812 L 194.199219 189.542969 C 194.152344 189.175781 194.097656 188.804688 194.035156 188.441406 L 193.851562 187.335938 L 193.671875 186.234375 C 193.613281 185.867188 193.535156 185.5 193.46875 185.136719 C 193.324219 184.402344 193.1875 183.671875 193.039062 182.941406 C 192.714844 181.484375 192.40625 180.023438 192.023438 178.582031 C 191.671875 177.128906 191.234375 175.699219 190.828125 174.265625 C 190.605469 173.550781 190.371094 172.839844 190.140625 172.132812 L 189.46875 170.058594 L 188.152344 165.988281 C 187.746094 164.625 187.371094 163.25 186.980469 161.878906 L 186.6875 160.851562 L 186.542969 160.335938 L 186.414062 159.816406 L 185.90625 157.742188 C 185.566406 156.359375 185.199219 154.980469 184.929688 153.582031 C 183.699219 148.015625 182.828125 142.371094 182.28125 136.695312 C 181.171875 125.335938 181.449219 113.824219 183.191406 102.480469 C 183.285156 101.769531 183.417969 101.0625 183.539062 100.355469 L 183.910156 98.234375 L 184.335938 96.125 L 184.441406 95.59375 L 194.625 95.59375 C 201.28125 95.59375 205.984375 87.757812 203.820312 80.230469 C 196.652344 55.332031 177.421875 37.503906 154.820312 37.503906 " fill-opacity="1" fill-rule="nonzero"/></g><path fill="#ffffff" d="M 262.347656 192.507812 L 262.417969 192.695312 L 262.476562 192.867188 L 262.71875 193.554688 C 262.761719 193.667969 262.792969 193.785156 262.828125 193.902344 L 263.042969 194.59375 C 263.078125 194.710938 263.105469 194.828125 263.136719 194.949219 C 263.199219 195.183594 263.261719 195.414062 263.320312 195.648438 L 263.472656 196.359375 C 263.53125 196.597656 263.566406 196.835938 263.609375 197.074219 C 263.652344 197.3125 263.695312 197.550781 263.722656 197.789062 C 264.007812 199.707031 264.066406 201.660156 263.917969 203.609375 C 263.855469 204.585938 263.730469 205.558594 263.574219 206.53125 C 263.417969 207.503906 263.207031 208.46875 262.972656 209.429688 C 262.507812 211.359375 261.886719 213.261719 261.183594 215.140625 C 260.835938 216.082031 260.457031 217.015625 260.0625 217.945312 C 259.667969 218.875 259.253906 219.800781 258.832031 220.722656 C 258.40625 221.640625 257.960938 222.558594 257.511719 223.472656 C 257.0625 224.386719 256.605469 225.296875 256.136719 226.207031 L 254.488281 229.394531 C 254.402344 229.074219 254.308594 228.75 254.214844 228.429688 L 254.035156 227.828125 L 253.84375 227.234375 L 253.488281 226.101562 C 253.429688 225.914062 253.367188 225.726562 253.3125 225.539062 L 253.160156 224.976562 L 253.003906 224.40625 L 252.925781 224.125 L 252.855469 223.839844 L 252.578125 222.695312 C 252.570312 222.664062 252.5625 222.628906 252.558594 222.59375 C 252.921875 221.929688 253.28125 221.261719 253.640625 220.597656 C 254.09375 219.761719 254.542969 218.925781 254.980469 218.078125 C 255.417969 217.230469 255.847656 216.378906 256.273438 215.523438 C 256.691406 214.664062 257.101562 213.792969 257.492188 212.917969 C 258.285156 211.164062 259.003906 209.371094 259.628906 207.53125 C 259.945312 206.609375 260.226562 205.679688 260.480469 204.730469 C 260.730469 203.785156 260.957031 202.832031 261.136719 201.859375 C 261.316406 200.890625 261.457031 199.910156 261.542969 198.921875 C 261.632812 197.929688 261.6875 196.933594 261.664062 195.929688 C 261.628906 193.929688 261.363281 191.914062 260.828125 189.964844 C 260.765625 189.71875 260.683594 189.480469 260.609375 189.238281 C 260.535156 188.996094 260.460938 188.753906 260.371094 188.519531 L 260.113281 187.808594 L 259.824219 187.105469 C 259.730469 186.871094 259.621094 186.644531 259.515625 186.417969 L 259.355469 186.074219 L 259.277344 185.902344 L 259.1875 185.734375 L 258.835938 185.066406 L 258.503906 184.457031 C 258.394531 184.253906 258.285156 184.054688 258.1875 183.851562 L 257.875 183.246094 C 257.683594 182.835938 257.480469 182.425781 257.300781 182.007812 C 257.109375 181.597656 256.945312 181.175781 256.769531 180.753906 L 256.523438 180.121094 C 256.441406 179.910156 256.371094 179.695312 256.292969 179.484375 C 256.25 179.359375 256.210938 179.234375 256.167969 179.109375 C 257.230469 175.441406 258.425781 171.808594 259.71875 168.207031 L 262.152344 168.207031 C 261.496094 169.847656 260.980469 171.550781 260.613281 173.289062 C 260.390625 174.328125 260.230469 175.378906 260.121094 176.4375 C 260.011719 177.496094 259.949219 178.5625 259.949219 179.625 C 259.949219 180.691406 259.996094 181.757812 260.089844 182.820312 C 260.1875 183.882812 260.34375 184.933594 260.539062 185.984375 C 260.589844 186.242188 260.632812 186.507812 260.6875 186.765625 L 260.859375 187.546875 C 260.980469 188.066406 261.105469 188.582031 261.25 189.09375 C 261.386719 189.609375 261.546875 190.113281 261.703125 190.625 C 261.871094 191.128906 262.03125 191.632812 262.214844 192.132812 Z M 251.902344 234.4375 C 251.789062 234.667969 251.675781 234.894531 251.5625 235.128906 L 251.566406 235.105469 C 251.597656 234.773438 251.617188 234.441406 251.640625 234.109375 C 251.71875 233.003906 251.753906 231.894531 251.765625 230.789062 C 251.832031 231.042969 251.894531 231.289062 251.957031 231.542969 C 252.109375 232.195312 252.246094 232.847656 252.371094 233.503906 C 252.214844 233.816406 252.058594 234.125 251.902344 234.4375 Z M 251.398438 214.53125 L 251.320312 213.347656 L 251.265625 212.164062 C 251.246094 211.769531 251.242188 211.371094 251.238281 210.976562 L 251.226562 210.382812 L 251.21875 210.085938 L 251.222656 209.789062 L 251.230469 208.601562 C 251.234375 208.203125 251.25 207.808594 251.257812 207.414062 C 251.265625 207.214844 251.269531 207.015625 251.277344 206.816406 L 251.304688 206.222656 C 251.324219 205.824219 251.335938 205.429688 251.363281 205.03125 C 251.453125 203.445312 251.597656 201.859375 251.773438 200.273438 C 251.957031 198.691406 252.167969 197.109375 252.417969 195.535156 C 252.671875 193.957031 252.960938 192.382812 253.273438 190.816406 C 253.589844 189.246094 253.933594 187.679688 254.308594 186.121094 C 254.511719 185.261719 254.726562 184.402344 254.949219 183.546875 C 255.074219 183.84375 255.207031 184.144531 255.339844 184.4375 L 255.652344 185.105469 C 255.753906 185.328125 255.863281 185.546875 255.976562 185.769531 L 256.300781 186.414062 C 256.398438 186.613281 256.496094 186.8125 256.59375 187.007812 L 256.671875 187.15625 L 256.871094 187.613281 C 256.960938 187.8125 257.054688 188.015625 257.128906 188.222656 L 257.371094 188.839844 L 257.585938 189.464844 C 257.660156 189.671875 257.71875 189.882812 257.78125 190.09375 C 257.839844 190.308594 257.910156 190.515625 257.957031 190.734375 L 258.117188 191.375 L 258.25 192.023438 C 258.300781 192.238281 258.332031 192.453125 258.367188 192.671875 C 258.402344 192.890625 258.445312 193.105469 258.464844 193.328125 L 258.546875 193.988281 L 258.601562 194.648438 C 258.621094 194.867188 258.625 195.089844 258.632812 195.3125 C 258.644531 195.535156 258.65625 195.757812 258.652344 195.980469 C 258.675781 196.867188 258.632812 197.761719 258.558594 198.65625 C 258.492188 199.550781 258.363281 200.445312 258.207031 201.335938 C 257.910156 203.121094 257.449219 204.894531 256.910156 206.652344 C 256.375 208.414062 255.726562 210.152344 255.046875 211.886719 C 254.703125 212.75 254.339844 213.613281 253.972656 214.472656 C 253.609375 215.332031 253.230469 216.191406 252.847656 217.050781 L 251.90625 219.125 L 251.75 218.058594 L 251.613281 216.886719 C 251.5625 216.496094 251.53125 216.101562 251.496094 215.710938 C 251.460938 215.316406 251.417969 214.925781 251.398438 214.53125 Z M 250.808594 190.28125 C 250.441406 191.871094 250.109375 193.476562 249.808594 195.085938 C 249.515625 196.695312 249.246094 198.3125 249.03125 199.941406 C 248.820312 201.566406 248.640625 203.199219 248.519531 204.839844 C 248.503906 205.027344 248.492188 205.214844 248.476562 205.402344 L 248.417969 204.949219 C 248.394531 204.792969 248.382812 204.632812 248.363281 204.476562 L 248.320312 204 L 248.226562 203.042969 L 248.085938 201.613281 L 248.054688 201.132812 L 247.921875 199.222656 L 247.886719 198.746094 L 247.871094 198.503906 L 247.859375 198.265625 L 247.824219 197.308594 C 247.796875 196.667969 247.769531 196.03125 247.75 195.390625 L 247.730469 193.472656 C 247.726562 193.15625 247.71875 192.835938 247.71875 192.515625 L 247.738281 191.554688 L 247.753906 190.597656 L 247.761719 190.117188 C 247.765625 189.957031 247.765625 189.796875 247.777344 189.636719 L 247.863281 187.722656 C 247.882812 187.082031 247.941406 186.445312 247.984375 185.804688 C 248.035156 185.167969 248.066406 184.527344 248.140625 183.890625 L 248.328125 181.980469 L 248.566406 180.074219 L 248.625 179.597656 C 248.648438 179.4375 248.671875 179.28125 248.695312 179.121094 L 248.84375 178.171875 L 248.984375 177.222656 L 249.152344 176.273438 C 249.59375 173.746094 250.136719 171.234375 250.792969 168.75 C 250.839844 168.570312 250.894531 168.390625 250.941406 168.207031 L 252.824219 168.207031 C 252.804688 168.335938 252.785156 168.46875 252.765625 168.601562 C 252.628906 169.574219 252.554688 170.558594 252.53125 171.542969 C 252.511719 172.527344 252.539062 173.515625 252.632812 174.496094 C 252.722656 175.480469 252.863281 176.460938 253.050781 177.429688 C 253.222656 178.296875 253.441406 179.152344 253.6875 180 C 253.09375 181.832031 252.535156 183.675781 252.019531 185.53125 C 251.589844 187.105469 251.1875 188.691406 250.808594 190.28125 Z M 254.769531 168.207031 L 258.085938 168.207031 C 257.066406 170.632812 256.105469 173.082031 255.210938 175.558594 C 255.121094 175.117188 255.042969 174.667969 254.976562 174.222656 C 254.675781 172.242188 254.605469 170.21875 254.769531 168.207031 Z M 269.710938 170.632812 L 269.898438 169.550781 L 270.117188 168.476562 L 270.171875 168.207031 L 275.355469 168.207031 C 278.746094 168.207031 281.144531 164.214844 280.042969 160.382812 C 276.390625 147.699219 266.59375 138.621094 255.085938 138.621094 C 243.570312 138.621094 233.777344 147.699219 230.125 160.382812 C 229.023438 164.214844 231.417969 168.207031 234.808594 168.207031 L 237.734375 168.207031 C 237.71875 168.246094 237.707031 168.28125 237.691406 168.320312 C 237.582031 168.628906 237.484375 168.941406 237.382812 169.253906 L 237.082031 170.1875 C 237.027344 170.34375 236.980469 170.5 236.933594 170.660156 L 236.792969 171.128906 L 236.515625 172.070312 C 236.417969 172.386719 236.332031 172.703125 236.25 173.019531 L 236 173.96875 C 235.824219 174.601562 235.683594 175.242188 235.527344 175.878906 L 235.300781 176.839844 L 235.101562 177.800781 L 234.90625 178.765625 C 234.875 178.929688 234.839844 179.089844 234.808594 179.25 L 234.722656 179.734375 L 234.382812 181.675781 L 234.101562 183.625 C 233.761719 186.230469 233.496094 188.847656 233.398438 191.476562 L 233.351562 192.464844 C 233.335938 192.789062 233.335938 193.121094 233.328125 193.449219 L 233.296875 195.421875 C 233.300781 196.078125 233.316406 196.734375 233.324219 197.394531 L 233.34375 198.625 L 233.359375 198.875 L 233.378906 199.367188 L 233.476562 201.335938 L 233.503906 201.828125 L 233.546875 202.320312 L 233.628906 203.304688 L 233.710938 204.285156 L 233.75 204.777344 C 233.765625 204.941406 233.777344 205.105469 233.800781 205.269531 L 234.027344 207.230469 L 234.144531 208.207031 C 234.160156 208.371094 234.1875 208.535156 234.210938 208.699219 L 234.285156 209.183594 L 234.585938 211.132812 L 234.660156 211.621094 L 234.699219 211.867188 L 234.742188 212.105469 L 234.925781 213.074219 L 235.289062 215.015625 C 235.347656 215.34375 235.414062 215.652344 235.472656 215.964844 L 235.660156 216.90625 C 235.78125 217.535156 235.898438 218.164062 236.007812 218.792969 C 236.222656 220.050781 236.425781 221.3125 236.585938 222.574219 C 236.761719 223.835938 236.894531 225.101562 237.007812 226.367188 C 237.113281 227.632812 237.175781 228.898438 237.21875 230.160156 C 237.28125 232.691406 237.1875 235.214844 236.867188 237.707031 C 236.707031 238.957031 236.488281 240.191406 236.214844 241.414062 C 235.941406 242.640625 235.609375 243.851562 235.210938 245.046875 C 234.8125 246.242188 234.363281 247.425781 233.867188 248.59375 C 233.371094 249.765625 232.824219 250.917969 232.265625 252.082031 C 231.703125 253.242188 231.117188 254.394531 230.550781 255.574219 C 229.988281 256.75 229.429688 257.941406 228.933594 259.167969 C 227.933594 261.609375 227.1875 264.183594 226.871094 266.800781 C 226.707031 268.109375 226.640625 269.421875 226.660156 270.730469 C 226.6875 272.039062 226.792969 273.339844 226.976562 274.628906 C 226.964844 273.328125 227 272.03125 227.117188 270.75 C 227.230469 269.464844 227.425781 268.191406 227.699219 266.941406 C 227.976562 265.695312 228.324219 264.46875 228.769531 263.273438 L 228.933594 262.828125 L 229.113281 262.382812 C 229.226562 262.089844 229.355469 261.796875 229.476562 261.503906 C 229.734375 260.921875 230 260.339844 230.285156 259.769531 C 230.847656 258.625 231.464844 257.503906 232.101562 256.382812 C 232.734375 255.257812 233.382812 254.132812 234.023438 252.992188 C 235.300781 250.710938 236.5 248.335938 237.445312 245.835938 C 237.917969 244.585938 238.324219 243.308594 238.667969 242.015625 C 239.011719 240.722656 239.28125 239.410156 239.496094 238.085938 C 239.546875 237.757812 239.601562 237.425781 239.644531 237.097656 L 239.773438 236.101562 L 239.875 235.105469 C 239.902344 234.773438 239.921875 234.441406 239.953125 234.109375 C 240.039062 232.777344 240.082031 231.445312 240.078125 230.117188 C 240.058594 227.460938 239.859375 224.816406 239.539062 222.199219 C 239.378906 220.886719 239.175781 219.585938 238.960938 218.285156 C 238.847656 217.640625 238.734375 216.992188 238.613281 216.34375 L 238.238281 214.417969 L 237.699219 211.59375 L 237.652344 211.355469 L 237.613281 211.121094 L 237.539062 210.644531 L 237.238281 208.75 L 237.164062 208.28125 C 237.140625 208.121094 237.113281 207.960938 237.097656 207.804688 L 236.972656 206.851562 L 236.726562 204.949219 C 236.703125 204.792969 236.6875 204.632812 236.675781 204.476562 L 236.625 204 L 236.535156 203.042969 L 236.394531 201.613281 L 236.359375 201.132812 L 236.226562 199.222656 L 236.191406 198.746094 L 236.175781 198.503906 L 236.167969 198.265625 L 236.128906 197.308594 C 236.105469 196.667969 236.074219 196.03125 236.058594 195.390625 L 236.039062 193.472656 C 236.035156 193.15625 236.023438 192.835938 236.027344 192.515625 L 236.046875 191.554688 L 236.0625 190.597656 L 236.070312 190.117188 C 236.074219 189.957031 236.074219 189.796875 236.082031 189.636719 L 236.171875 187.722656 C 236.191406 187.082031 236.246094 186.445312 236.292969 185.804688 C 236.339844 185.167969 236.375 184.527344 236.445312 183.890625 L 236.636719 181.980469 L 236.875 180.074219 L 236.933594 179.597656 C 236.953125 179.4375 236.980469 179.28125 237.003906 179.121094 L 237.152344 178.171875 L 237.292969 177.222656 L 237.460938 176.273438 C 237.902344 173.746094 238.441406 171.234375 239.101562 168.75 C 239.148438 168.570312 239.199219 168.390625 239.246094 168.207031 L 249.425781 168.207031 C 249.410156 168.246094 249.398438 168.28125 249.386719 168.320312 C 249.273438 168.628906 249.179688 168.941406 249.074219 169.253906 L 248.773438 170.1875 C 248.71875 170.34375 248.671875 170.5 248.628906 170.660156 L 248.488281 171.128906 L 248.207031 172.070312 C 248.109375 172.386719 248.027344 172.703125 247.941406 173.019531 L 247.691406 173.96875 C 247.515625 174.601562 247.375 175.242188 247.222656 175.878906 L 246.996094 176.839844 L 246.796875 177.800781 L 246.597656 178.765625 C 246.566406 178.929688 246.53125 179.089844 246.5 179.25 L 246.414062 179.734375 L 246.074219 181.675781 L 245.792969 183.625 C 245.457031 186.230469 245.1875 188.847656 245.089844 191.476562 L 245.042969 192.464844 C 245.027344 192.789062 245.027344 193.121094 245.019531 193.449219 L 244.988281 195.421875 C 244.992188 196.078125 245.007812 196.734375 245.015625 197.394531 L 245.035156 198.378906 L 245.039062 198.625 L 245.050781 198.875 L 245.167969 201.335938 L 245.195312 201.828125 L 245.238281 202.320312 L 245.320312 203.304688 L 245.402344 204.285156 L 245.445312 204.777344 C 245.457031 204.941406 245.472656 205.105469 245.492188 205.269531 L 245.71875 207.230469 L 245.835938 208.207031 C 245.855469 208.371094 245.878906 208.535156 245.90625 208.699219 L 246.277344 211.132812 L 246.351562 211.621094 L 246.390625 211.867188 L 246.4375 212.105469 L 246.617188 213.074219 L 246.980469 215.015625 C 247.039062 215.34375 247.101562 215.652344 247.167969 215.964844 L 247.355469 216.90625 C 247.476562 217.535156 247.585938 218.164062 247.703125 218.792969 C 247.914062 220.050781 248.117188 221.3125 248.28125 222.574219 C 248.457031 223.835938 248.585938 225.101562 248.699219 226.363281 C 248.550781 226.726562 248.398438 227.089844 248.253906 227.457031 C 247.554688 229.234375 246.902344 231.042969 246.449219 232.917969 C 246.226562 233.851562 246.050781 234.804688 245.972656 235.761719 C 245.902344 236.722656 245.921875 237.695312 246.113281 238.625 C 246.097656 237.675781 246.21875 236.742188 246.425781 235.832031 C 246.628906 234.921875 246.925781 234.035156 247.253906 233.164062 C 247.730469 231.910156 248.289062 230.6875 248.886719 229.480469 C 248.894531 229.710938 248.902344 229.933594 248.914062 230.160156 C 248.976562 232.691406 248.878906 235.214844 248.558594 237.707031 C 248.402344 238.957031 248.183594 240.191406 247.90625 241.414062 C 247.632812 242.640625 247.300781 243.851562 246.902344 245.046875 C 246.503906 246.242188 246.054688 247.425781 245.5625 248.59375 C 245.0625 249.765625 244.515625 250.917969 243.957031 252.082031 C 243.398438 253.242188 242.8125 254.394531 242.242188 255.574219 C 241.679688 256.75 241.121094 257.941406 240.625 259.167969 C 239.628906 261.609375 238.878906 264.183594 238.5625 266.800781 C 238.398438 268.109375 238.332031 269.421875 238.355469 270.730469 C 238.378906 272.039062 238.484375 273.339844 238.671875 274.628906 C 238.660156 273.328125 238.695312 272.03125 238.808594 270.75 C 238.921875 269.464844 239.117188 268.191406 239.390625 266.941406 C 239.667969 265.695312 240.019531 264.46875 240.460938 263.273438 L 240.628906 262.828125 L 240.804688 262.382812 C 240.917969 262.089844 241.046875 261.796875 241.167969 261.503906 C 241.425781 260.921875 241.691406 260.339844 241.976562 259.769531 C 242.539062 258.625 243.15625 257.503906 243.792969 256.382812 C 244.429688 255.257812 245.074219 254.132812 245.714844 252.992188 C 246.992188 250.710938 248.195312 248.335938 249.136719 245.835938 C 249.609375 244.585938 250.015625 243.308594 250.363281 242.015625 C 250.574219 241.214844 250.757812 240.40625 250.917969 239.589844 C 251.230469 239.027344 251.542969 238.472656 251.867188 237.914062 C 252.179688 237.378906 252.496094 236.84375 252.8125 236.3125 C 252.898438 237.03125 252.96875 237.753906 253.019531 238.480469 C 253.125 240.039062 253.144531 241.605469 253.09375 243.175781 C 252.988281 246.308594 252.546875 249.445312 251.886719 252.539062 C 251.554688 254.085938 251.164062 255.625 250.722656 257.15625 C 250.285156 258.6875 249.800781 260.207031 249.28125 261.71875 C 248.753906 263.226562 248.199219 264.730469 247.617188 266.226562 C 247.035156 267.722656 246.425781 269.210938 245.8125 270.703125 C 244.574219 273.679688 243.285156 276.652344 242.085938 279.675781 C 241.492188 281.191406 240.921875 282.71875 240.417969 284.277344 C 239.917969 285.832031 239.476562 287.417969 239.207031 289.046875 C 239.140625 289.453125 239.085938 289.863281 239.042969 290.273438 C 239 290.683594 238.972656 291.09375 238.960938 291.507812 C 238.9375 292.335938 238.988281 293.167969 239.136719 293.984375 C 239.289062 294.796875 239.542969 295.589844 239.914062 296.324219 C 240.285156 297.058594 240.773438 297.722656 241.339844 298.304688 C 240.835938 297.667969 240.425781 296.96875 240.132812 296.226562 C 239.84375 295.484375 239.664062 294.703125 239.585938 293.917969 C 239.515625 293.132812 239.527344 292.339844 239.613281 291.550781 C 239.699219 290.765625 239.84375 289.984375 240.03125 289.210938 C 240.410156 287.667969 240.9375 286.160156 241.527344 284.671875 C 242.121094 283.1875 242.769531 281.71875 243.449219 280.257812 C 244.125 278.796875 244.824219 277.34375 245.527344 275.886719 C 246.230469 274.429688 246.929688 272.96875 247.621094 271.5 C 248.316406 270.03125 248.988281 268.550781 249.640625 267.058594 C 250.289062 265.5625 250.917969 264.054688 251.503906 262.527344 C 252.089844 260.996094 252.640625 259.453125 253.144531 257.886719 C 253.644531 256.320312 254.085938 254.734375 254.476562 253.128906 C 254.867188 251.523438 255.191406 249.898438 255.4375 248.257812 C 255.6875 246.621094 255.859375 244.964844 255.945312 243.296875 C 256.125 239.972656 255.929688 236.613281 255.363281 233.316406 C 255.3125 233.003906 255.25 232.695312 255.191406 232.386719 C 255.675781 231.597656 256.15625 230.800781 256.636719 230.003906 C 257.167969 229.121094 257.699219 228.234375 258.21875 227.339844 C 258.738281 226.445312 259.25 225.546875 259.757812 224.636719 C 260.253906 223.726562 260.742188 222.808594 261.21875 221.882812 C 262.175781 220.027344 263.054688 218.125 263.847656 216.175781 C 263.949219 215.933594 264.042969 215.6875 264.140625 215.441406 C 264.234375 215.195312 264.328125 214.953125 264.417969 214.703125 L 264.6875 213.957031 L 264.945312 213.207031 C 265.277344 212.203125 265.59375 211.1875 265.859375 210.15625 C 266.121094 209.125 266.351562 208.082031 266.527344 207.023438 C 266.703125 205.96875 266.851562 204.902344 266.921875 203.824219 C 267.070312 201.675781 267 199.492188 266.660156 197.34375 C 266.625 197.074219 266.570312 196.808594 266.515625 196.539062 C 266.464844 196.273438 266.421875 196.003906 266.351562 195.742188 L 266.164062 194.949219 C 266.097656 194.6875 266.019531 194.425781 265.945312 194.164062 C 265.910156 194.03125 265.875 193.898438 265.835938 193.769531 L 265.707031 193.382812 L 265.582031 192.996094 C 265.539062 192.867188 265.5 192.738281 265.449219 192.609375 L 265.160156 191.847656 L 265.023438 191.484375 L 264.886719 191.136719 C 264.699219 190.679688 264.539062 190.207031 264.363281 189.742188 C 264.207031 189.269531 264.042969 188.800781 263.902344 188.324219 C 263.753906 187.851562 263.625 187.371094 263.488281 186.894531 L 263.300781 186.175781 C 263.238281 185.9375 263.1875 185.695312 263.128906 185.453125 C 262.691406 183.519531 262.40625 181.554688 262.308594 179.570312 C 262.261719 178.582031 262.25 177.589844 262.292969 176.597656 C 262.332031 175.605469 262.421875 174.613281 262.554688 173.625 C 262.6875 172.640625 262.875 171.660156 263.101562 170.683594 C 263.292969 169.851562 263.523438 169.023438 263.789062 168.207031 L 268.894531 168.207031 L 268.605469 169.265625 L 268.339844 170.351562 C 268.253906 170.714844 268.160156 171.078125 268.085938 171.445312 L 267.855469 172.542969 C 267.773438 172.90625 267.714844 173.277344 267.648438 173.644531 L 267.449219 174.75 C 267.417969 174.933594 267.390625 175.121094 267.363281 175.304688 L 267.285156 175.859375 L 267.121094 176.972656 L 266.996094 178.085938 C 266.957031 178.460938 266.914062 178.832031 266.878906 179.207031 L 266.789062 180.324219 C 266.761719 180.699219 266.726562 181.074219 266.703125 181.449219 L 266.65625 182.570312 C 266.640625 182.945312 266.621094 183.320312 266.613281 183.695312 L 266.601562 184.820312 L 266.59375 185.949219 C 266.597656 186.320312 266.613281 186.695312 266.621094 187.074219 L 266.652344 188.199219 L 266.664062 188.480469 L 266.679688 188.761719 L 266.71875 189.324219 L 266.792969 190.449219 L 266.828125 191.007812 L 266.882812 191.570312 L 267 192.691406 L 267.054688 193.253906 C 267.074219 193.4375 267.09375 193.625 267.121094 193.8125 L 267.433594 196.046875 C 267.449219 196.136719 267.460938 196.230469 267.476562 196.324219 L 267.527344 196.601562 L 267.625 197.15625 L 267.824219 198.265625 C 267.945312 199.007812 268.121094 199.742188 268.277344 200.476562 L 268.519531 201.578125 L 268.582031 201.851562 L 268.792969 202.671875 C 268.984375 203.398438 269.167969 204.125 269.367188 204.851562 L 270.019531 207.011719 L 270.652344 209.097656 C 270.839844 209.792969 271.042969 210.476562 271.203125 211.179688 C 271.378906 211.871094 271.515625 212.578125 271.667969 213.277344 C 271.734375 213.632812 271.792969 213.984375 271.859375 214.339844 C 271.890625 214.515625 271.925781 214.691406 271.953125 214.871094 L 272.03125 215.402344 L 272.113281 215.933594 L 272.152344 216.203125 L 272.1875 216.46875 L 272.324219 217.539062 C 272.367188 217.894531 272.398438 218.253906 272.4375 218.613281 L 272.488281 219.148438 L 272.527344 219.6875 C 272.648438 221.125 272.695312 222.566406 272.710938 224.011719 C 272.742188 226.898438 272.582031 229.792969 272.28125 232.683594 L 272.164062 233.769531 L 272.03125 234.851562 L 271.964844 235.390625 L 271.886719 235.933594 C 271.835938 236.292969 271.792969 236.65625 271.734375 237.011719 C 271.523438 238.457031 271.265625 239.890625 271.007812 241.328125 C 270.738281 242.761719 270.449219 244.195312 270.136719 245.625 C 269.816406 247.054688 269.492188 248.484375 269.144531 249.910156 C 268.792969 251.335938 268.429688 252.757812 268.054688 254.179688 C 267.679688 255.601562 267.296875 257.019531 266.902344 258.441406 L 265.710938 262.703125 L 264.507812 266.96875 C 263.710938 269.816406 262.925781 272.675781 262.214844 275.558594 C 261.515625 278.441406 260.871094 281.347656 260.449219 284.296875 C 260.234375 285.769531 260.078125 287.253906 260.015625 288.738281 C 259.953125 290.226562 259.980469 291.71875 260.167969 293.1875 C 260.15625 291.707031 260.269531 290.234375 260.46875 288.78125 C 260.667969 287.324219 260.949219 285.878906 261.273438 284.449219 C 261.601562 283.019531 261.972656 281.59375 262.375 280.179688 C 262.773438 278.765625 263.199219 277.359375 263.644531 275.953125 C 264.082031 274.550781 264.539062 273.148438 265 271.75 L 266.402344 267.546875 C 266.875 266.148438 267.339844 264.742188 267.800781 263.339844 C 268.265625 261.933594 268.730469 260.527344 269.171875 259.113281 C 269.621094 257.699219 270.058594 256.28125 270.488281 254.859375 C 270.914062 253.4375 271.320312 252.007812 271.714844 250.574219 C 272.105469 249.136719 272.480469 247.695312 272.832031 246.246094 C 273.179688 244.792969 273.507812 243.339844 273.8125 241.875 C 274.113281 240.410156 274.382812 238.9375 274.621094 237.460938 C 274.683594 237.089844 274.734375 236.71875 274.792969 236.347656 L 274.878906 235.792969 L 274.953125 235.238281 L 275.105469 234.121094 L 275.238281 233.003906 C 275.566406 230.015625 275.746094 227.003906 275.722656 223.980469 C 275.703125 222.472656 275.644531 220.960938 275.511719 219.453125 L 275.46875 218.882812 L 275.410156 218.320312 C 275.371094 217.941406 275.335938 217.566406 275.289062 217.1875 L 275.140625 216.0625 C 275.117188 215.875 275.089844 215.6875 275.058594 215.5 L 274.964844 214.9375 L 274.875 214.375 C 274.84375 214.1875 274.804688 214.003906 274.769531 213.816406 C 274.695312 213.441406 274.625 213.066406 274.550781 212.699219 C 274.382812 211.957031 274.230469 211.210938 274.03125 210.476562 C 273.855469 209.738281 273.632812 209.011719 273.425781 208.277344 C 273.308594 207.914062 273.191406 207.554688 273.074219 207.191406 L 272.730469 206.136719 L 272.0625 204.0625 C 271.851562 203.367188 271.664062 202.667969 271.464844 201.96875 L 271.242188 201.183594 L 271.175781 200.917969 L 270.914062 199.863281 C 270.746094 199.160156 270.558594 198.457031 270.421875 197.742188 C 269.792969 194.90625 269.347656 192.035156 269.070312 189.140625 C 268.503906 183.359375 268.648438 177.496094 269.535156 171.714844 C 269.582031 171.351562 269.652344 170.992188 269.710938 170.632812 " fill-opacity="1" fill-rule="nonzero"/></svg>