<svg xmlns="http://www.w3.org/2000/svg" xmlns:xlink="http://www.w3.org/1999/xlink" width="500" zoomAndPan="magnify" viewBox="0 0 375 374.999991" height="500" preserveAspectRatio="xMidYMid meet" version="1.0"><defs><clipPath id="e755ec1729"><path d="M 187.5 0 C 83.945312 0 0 83.945312 0 187.5 C 0 291.054688 83.945312 375 187.5 375 C 291.054688 375 375 291.054688 375 187.5 C 375 83.945312 291.054688 0 187.5 0 Z M 187.5 0 " clip-rule="nonzero"/></clipPath><clipPath id="b1ba53ad79"><path d="M 65.367188 83 L 309.867188 83 L 309.867188 292.464844 L 65.367188 292.464844 Z M 65.367188 83 " clip-rule="nonzero"/></clipPath></defs><g clip-path="url(#e755ec1729)"><rect x="-37.5" width="450" fill="#f47c2e" y="-37.499999" height="449.999989" fill-opacity="1"/></g><g clip-path="url(#b1ba53ad79)"><path fill="#ffffff" d="M 308.691406 176.777344 C 306.457031 173.46875 299.605469 169.941406 291.3125 169.917969 C 291.28125 169.917969 291.257812 169.917969 291.230469 169.917969 C 284.054688 169.917969 277.390625 172.613281 271.839844 177.628906 L 271.839844 142.039062 C 271.839844 131.851562 263.554688 123.566406 253.371094 123.566406 L 249.492188 123.566406 L 249.492188 111.667969 L 253.5625 111.667969 C 257.183594 111.667969 260.128906 108.722656 260.128906 105.101562 L 260.128906 89.628906 C 260.128906 86.007812 257.183594 83.0625 253.5625 83.0625 L 204.484375 83.0625 C 200.863281 83.0625 197.917969 86.007812 197.917969 89.628906 L 197.917969 105.101562 C 197.917969 108.722656 200.863281 111.667969 204.484375 111.667969 L 207.484375 111.667969 L 207.484375 123.566406 L 204.671875 123.566406 C 194.492188 123.566406 186.207031 131.851562 186.207031 142.039062 L 186.207031 186.082031 C 183.304688 185.351562 180.253906 184.5625 177.308594 183.800781 C 165.195312 180.664062 153.75 177.699219 149.308594 177.5 C 136.914062 176.964844 124.945312 185.621094 118.726562 190.914062 C 114.960938 194.355469 111.125 197.972656 107.742188 201.160156 C 104.871094 203.867188 102.121094 206.457031 100.1875 208.199219 L 96.117188 203.757812 C 94.890625 202.421875 92.8125 202.335938 91.484375 203.554688 L 66.433594 226.457031 C 65.789062 227.042969 65.40625 227.867188 65.371094 228.734375 C 65.332031 229.605469 65.640625 230.453125 66.226562 231.097656 L 121.367188 291.25 C 122.015625 291.953125 122.898438 292.3125 123.789062 292.3125 C 124.578125 292.3125 125.367188 292.03125 126 291.457031 L 151.058594 268.550781 C 151.703125 267.960938 152.085938 267.140625 152.125 266.269531 C 152.160156 265.402344 151.851562 264.550781 151.265625 263.90625 L 146.457031 258.660156 C 148.78125 256.316406 152.460938 253.371094 155.671875 253.484375 C 157.121094 253.550781 161.625 254.726562 166.386719 255.972656 C 178.183594 259.058594 195.609375 263.609375 209.921875 263.609375 C 215.824219 263.609375 221.199219 262.832031 225.429688 260.867188 C 239.382812 254.371094 302.59375 193.179688 308.921875 180.042969 C 309.433594 178.988281 309.339844 177.742188 308.691406 176.777344 Z M 204.484375 89.628906 L 253.5625 89.628906 L 253.566406 105.101562 L 204.488281 105.101562 L 204.488281 89.628906 Z M 214.050781 111.664062 L 242.925781 111.664062 L 242.925781 123.5625 L 214.050781 123.5625 Z M 192.773438 142.035156 C 192.773438 135.46875 198.109375 130.128906 204.675781 130.128906 L 253.371094 130.128906 C 259.9375 130.128906 265.277344 135.472656 265.277344 142.035156 L 265.277344 184.3125 L 265.386719 184.3125 L 240.941406 198.457031 C 238.082031 193.738281 233.003906 190.476562 227.089844 190.207031 L 199.492188 188.964844 C 198.386719 188.917969 195.90625 188.410156 192.769531 187.679688 L 192.769531 142.035156 Z M 123.992188 284.398438 L 73.289062 229.085938 L 93.496094 210.609375 L 144.203125 265.921875 Z M 222.660156 254.910156 C 210.304688 260.667969 182.816406 253.476562 168.042969 249.621094 C 161.515625 247.914062 158.011719 247.019531 155.964844 246.925781 C 150.160156 246.636719 144.984375 250.761719 141.992188 253.789062 L 104.632812 213.035156 C 106.4375 211.402344 108.917969 209.074219 112.25 205.933594 C 115.609375 202.765625 119.421875 199.171875 123.074219 195.828125 C 128.46875 191.238281 138.976562 183.582031 149.019531 184.050781 C 152.773438 184.21875 164.9375 187.371094 175.667969 190.148438 C 188.234375 193.402344 196.085938 195.386719 199.199219 195.527344 L 226.800781 196.769531 C 232.601562 197.035156 237.105469 201.964844 236.847656 207.765625 C 236.582031 213.566406 231.574219 218.0625 225.851562 217.808594 L 179.859375 215.738281 L 179.5625 222.292969 L 225.558594 224.367188 C 225.820312 224.378906 226.078125 224.386719 226.335938 224.386719 C 235.410156 224.386719 242.988281 217.214844 243.40625 208.058594 C 243.453125 206.921875 243.382812 205.808594 243.21875 204.726562 L 270.402344 188.996094 C 270.828125 188.75 271.191406 188.414062 271.46875 188.011719 C 277.976562 178.492188 285.796875 176.484375 291.230469 176.484375 C 291.25 176.484375 291.269531 176.484375 291.292969 176.484375 C 296.042969 176.496094 299.816406 178 301.804688 179.246094 C 291.378906 194.90625 234.964844 249.183594 222.660156 254.910156 Z M 225.742188 165.289062 L 214.769531 165.289062 L 214.769531 158.730469 L 225.742188 158.730469 L 225.742188 147.753906 L 232.308594 147.753906 L 232.308594 158.730469 L 243.28125 158.730469 L 243.28125 165.292969 L 232.308594 165.292969 L 232.308594 176.269531 L 225.742188 176.269531 Z M 225.742188 165.289062 " fill-opacity="1" fill-rule="nonzero"/></g></svg>