<svg xmlns="http://www.w3.org/2000/svg" xmlns:xlink="http://www.w3.org/1999/xlink" width="500" zoomAndPan="magnify" viewBox="0 0 375 374.999991" height="500" preserveAspectRatio="xMidYMid meet" version="1.0"><defs><clipPath id="0159db0335"><path d="M 187.5 0 C 83.945312 0 0 83.945312 0 187.5 C 0 291.054688 83.945312 375 187.5 375 C 291.054688 375 375 291.054688 375 187.5 C 375 83.945312 291.054688 0 187.5 0 Z M 187.5 0 " clip-rule="nonzero"/></clipPath><clipPath id="7e034505a4"><path d="M 246 71.890625 L 298 71.890625 L 298 156 L 246 156 Z M 246 71.890625 " clip-rule="nonzero"/></clipPath><clipPath id="27ee7fc003"><path d="M 71.890625 71.890625 L 304.390625 71.890625 L 304.390625 304.390625 L 71.890625 304.390625 Z M 71.890625 71.890625 " clip-rule="nonzero"/></clipPath></defs><g clip-path="url(#0159db0335)"><rect x="-37.5" width="450" fill="#58a39d" y="-37.499999" height="449.999989" fill-opacity="1"/></g><path fill="#ffffff" d="M 159.988281 183.054688 C 162.347656 188.503906 166.890625 192.863281 171.613281 194.136719 C 172.703125 194.5 172.882812 194.679688 173.246094 198.675781 C 173.429688 200.855469 173.609375 203.21875 174.699219 205.214844 C 176.335938 208.304688 178.878906 209.757812 181.058594 211.027344 C 183.601562 212.480469 185.597656 213.570312 186.871094 217.75 C 187.050781 218.113281 187.234375 218.65625 187.414062 219.019531 C 188.140625 219.566406 188.867188 220.109375 189.59375 220.65625 C 190.683594 218.839844 192.320312 217.203125 194.136719 216.296875 C 193.953125 216.113281 193.953125 215.75 193.773438 215.570312 C 191.59375 208.667969 187.597656 206.488281 184.691406 204.851562 C 182.875 203.761719 181.785156 203.21875 181.238281 201.945312 C 180.875 201.21875 180.695312 199.585938 180.695312 198.132812 C 180.511719 194.679688 180.148438 188.867188 173.792969 187.234375 C 171.25 186.507812 168.523438 183.78125 166.890625 180.148438 C 165.617188 177.425781 164.164062 171.792969 167.433594 165.074219 C 169.070312 161.621094 167.980469 157.808594 166.890625 154.175781 C 166.527344 152.902344 165.800781 150.90625 165.800781 149.816406 C 167.070312 149.453125 167.253906 149.632812 167.617188 149.816406 C 168.886719 150.359375 170.339844 150.722656 173.246094 150.359375 C 174.519531 150.179688 175.609375 149.453125 176.699219 148.90625 C 177.789062 148.179688 179.058594 147.636719 180.511719 147.273438 C 181.964844 147.089844 182.691406 148 184.328125 154.175781 C 185.054688 157.082031 185.78125 159.988281 187.414062 161.804688 C 189.050781 163.800781 194.5 168.707031 207.941406 169.070312 C 208.484375 169.070312 209.03125 169.070312 209.574219 169.070312 C 212.84375 169.25 217.386719 169.433594 223.378906 167.617188 C 224.832031 167.070312 227.558594 167.796875 228.648438 168.886719 C 229.191406 169.433594 229.917969 170.160156 230.464844 170.703125 C 231.554688 171.792969 232.644531 173.066406 234.097656 174.335938 C 235.367188 175.425781 237.367188 175.609375 238.636719 174.519531 C 239.546875 173.792969 241.179688 173.972656 242.089844 174.699219 C 243.179688 175.609375 243.542969 177.789062 243.90625 179.421875 C 244.269531 182.328125 243.90625 184.691406 242.816406 185.234375 C 242.632812 185.234375 242.632812 185.417969 242.453125 185.417969 C 241.363281 185.960938 239.183594 187.050781 238.820312 189.777344 C 238.457031 191.773438 239.546875 193.226562 240.089844 194.136719 C 240.273438 194.316406 240.273438 194.5 240.453125 194.679688 C 242.269531 193.953125 244.449219 193.773438 246.265625 193.953125 C 245.902344 191.046875 246.8125 188.140625 248.992188 185.78125 C 249.71875 184.871094 250.625 183.964844 251.351562 182.875 C 251.535156 181.421875 251.351562 179.785156 251.171875 178.152344 C 250.808594 175.246094 249.898438 171.792969 247.175781 169.25 C 244.449219 166.890625 240.816406 166.164062 237.367188 167.253906 C 237.003906 166.707031 236.457031 166.34375 236.09375 165.800781 C 235.550781 165.074219 234.824219 164.347656 234.097656 163.800781 C 231.007812 160.714844 225.742188 159.261719 221.5625 160.714844 C 216.839844 162.167969 213.390625 161.984375 210.300781 161.804688 C 209.574219 161.804688 209.03125 161.804688 208.484375 161.804688 C 197.585938 161.441406 193.953125 157.988281 193.410156 157.261719 C 192.863281 156.71875 192.320312 154.175781 191.957031 152.539062 C 190.867188 147.636719 188.503906 138.734375 179.96875 140.1875 C 177.242188 140.734375 175.246094 141.824219 173.792969 142.550781 C 173.429688 142.730469 172.882812 143.09375 172.703125 143.09375 C 171.429688 143.277344 171.25 143.277344 170.886719 143.09375 C 169.433594 142.550781 167.980469 142.1875 164.710938 142.730469 C 161.984375 143.277344 160.53125 144.910156 159.988281 146 C 158.171875 149.089844 159.261719 152.722656 160.351562 156.355469 C 160.894531 157.988281 161.804688 160.894531 161.441406 161.804688 C 157.261719 168.707031 157.082031 176.152344 159.988281 183.054688 Z M 159.988281 183.054688 " fill-opacity="1" fill-rule="nonzero"/><path fill="#ffffff" d="M 212.117188 231.917969 C 213.570312 233.007812 215.023438 234.097656 216.660156 235.003906 C 218.65625 236.09375 220.835938 236.640625 223.199219 236.640625 C 225.558594 236.640625 227.921875 235.914062 229.738281 234.097656 C 231.191406 232.644531 231.917969 230.828125 232.460938 229.191406 C 232.824219 228.285156 233.1875 227.195312 233.550781 226.832031 C 234.097656 226.285156 235.550781 226.285156 237.003906 226.105469 C 239.363281 225.921875 242.816406 225.558594 245.175781 222.835938 C 246.628906 221.199219 246.992188 219.203125 247.355469 217.929688 C 247.539062 217.203125 247.71875 216.476562 247.902344 215.75 C 247.355469 216.113281 246.8125 216.476562 246.265625 217.023438 C 243.722656 218.839844 240.816406 219.203125 238.09375 218.65625 C 237.546875 218.65625 237.003906 218.839844 236.457031 218.839844 C 236.277344 218.839844 236.09375 218.839844 235.730469 218.839844 C 235.003906 222.109375 233.007812 224.832031 229.738281 226.46875 C 228.101562 227.375 226.285156 228.101562 224.46875 228.828125 C 221.019531 230.28125 217.023438 229.917969 214.117188 227.921875 C 213.933594 229.554688 213.207031 230.828125 212.117188 231.917969 Z M 212.117188 231.917969 " fill-opacity="1" fill-rule="nonzero"/><path fill="#ffffff" d="M 144.367188 191.046875 C 145.273438 189.777344 146.363281 188.140625 146.910156 186.324219 C 148.90625 180.695312 146.546875 174.519531 140.914062 169.976562 C 140.007812 169.25 139.28125 168.34375 138.734375 167.253906 C 137.828125 169.613281 136.917969 172.15625 135.828125 175.0625 C 136.011719 175.246094 136.191406 175.425781 136.375 175.609375 C 138.917969 177.605469 141.097656 180.695312 140.007812 183.78125 C 139.644531 184.691406 138.917969 185.78125 138.191406 186.6875 C 137.464844 187.777344 136.554688 189.050781 135.828125 190.683594 C 134.011719 194.863281 134.738281 199.402344 135.285156 203.21875 C 135.648438 205.398438 135.828125 207.394531 135.828125 209.394531 C 136.191406 209.574219 136.554688 209.574219 137.101562 209.757812 C 138.554688 210.300781 140.007812 211.027344 141.460938 211.574219 C 142.003906 211.753906 142.367188 211.9375 142.914062 212.300781 C 143.640625 208.847656 143.09375 205.398438 142.730469 202.308594 C 142.1875 198.859375 141.824219 195.953125 142.914062 193.589844 C 143.09375 192.863281 143.640625 191.957031 144.367188 191.046875 Z M 144.367188 191.046875 " fill-opacity="1" fill-rule="nonzero"/><path fill="#ffffff" d="M 111.851562 117.300781 C 97.867188 117.300781 86.421875 129.109375 86.421875 143.457031 C 86.421875 152.539062 96.050781 176.878906 104.222656 195.769531 C 105.496094 198.859375 108.402344 200.855469 111.851562 200.855469 C 115.304688 200.855469 118.027344 198.859375 119.480469 195.769531 C 127.65625 176.878906 137.28125 152.539062 137.28125 143.457031 C 137.28125 129.109375 125.839844 117.300781 111.851562 117.300781 Z M 112.761719 193.046875 C 112.578125 193.410156 112.214844 193.589844 111.851562 193.589844 C 111.488281 193.589844 111.125 193.410156 110.945312 193.046875 C 100.226562 167.980469 93.6875 149.453125 93.6875 143.457031 C 93.6875 133.105469 101.863281 124.566406 111.851562 124.566406 C 121.84375 124.566406 130.015625 133.105469 130.015625 143.457031 C 130.015625 149.269531 123.660156 167.796875 112.761719 193.046875 Z M 112.761719 193.046875 " fill-opacity="1" fill-rule="nonzero"/><path fill="#ffffff" d="M 111.851562 130.742188 C 105.132812 130.742188 99.5 136.375 99.5 143.277344 C 99.5 150.179688 104.949219 155.808594 111.851562 155.808594 C 118.753906 155.808594 124.203125 150.179688 124.203125 143.277344 C 124.203125 136.375 118.574219 130.742188 111.851562 130.742188 Z M 111.851562 148.726562 C 109.128906 148.726562 106.765625 146.363281 106.765625 143.457031 C 106.765625 140.550781 109.128906 138.191406 111.851562 138.191406 C 114.578125 138.191406 116.9375 140.550781 116.9375 143.457031 C 116.9375 146.363281 114.578125 148.726562 111.851562 148.726562 Z M 111.851562 148.726562 " fill-opacity="1" fill-rule="nonzero"/><g clip-path="url(#7e034505a4)"><path fill="#ffffff" d="M 246.265625 98.046875 C 246.265625 107.128906 255.894531 131.46875 264.066406 150.359375 C 265.339844 153.449219 268.246094 155.445312 271.695312 155.445312 C 275.148438 155.445312 277.871094 153.449219 279.324219 150.359375 C 287.5 131.46875 297.125 106.949219 297.125 98.046875 C 297.125 83.699219 285.683594 71.890625 271.695312 71.890625 C 257.710938 71.890625 246.265625 83.699219 246.265625 98.046875 Z M 289.859375 98.046875 C 289.859375 103.859375 283.503906 122.386719 272.605469 147.636719 C 272.421875 148.179688 272.058594 148.179688 271.695312 148.179688 C 271.332031 148.179688 270.96875 148 270.789062 147.636719 C 260.070312 122.570312 253.53125 104.042969 253.53125 98.046875 C 253.53125 87.695312 261.707031 79.15625 271.695312 79.15625 C 281.6875 79.15625 289.859375 87.695312 289.859375 98.046875 Z M 289.859375 98.046875 " fill-opacity="1" fill-rule="nonzero"/></g><path fill="#ffffff" d="M 259.34375 98.046875 C 259.34375 104.949219 264.792969 110.582031 271.695312 110.582031 C 278.597656 110.582031 284.046875 104.949219 284.046875 98.046875 C 284.046875 91.144531 278.417969 85.515625 271.695312 85.515625 C 264.976562 85.332031 259.34375 90.964844 259.34375 98.046875 Z M 276.78125 98.046875 C 276.78125 100.953125 274.421875 103.316406 271.695312 103.316406 C 268.972656 103.316406 266.609375 100.953125 266.609375 98.046875 C 266.609375 95.140625 268.972656 92.78125 271.695312 92.78125 C 274.421875 92.597656 276.78125 94.960938 276.78125 98.046875 Z M 276.78125 98.046875 " fill-opacity="1" fill-rule="nonzero"/><path fill="#ffffff" d="M 117.300781 207.214844 C 115.667969 206.125 113.304688 206.488281 112.214844 208.121094 C 111.125 209.757812 111.488281 212.117188 113.125 213.207031 C 113.851562 213.753906 114.757812 214.296875 115.484375 214.84375 C 116.03125 215.207031 116.757812 215.386719 117.484375 215.386719 C 118.753906 215.386719 119.84375 214.84375 120.570312 213.753906 C 121.660156 212.117188 121.117188 209.757812 119.480469 208.667969 C 118.753906 208.304688 118.027344 207.757812 117.300781 207.214844 Z M 117.300781 207.214844 " fill-opacity="1" fill-rule="nonzero"/><path fill="#ffffff" d="M 134.195312 216.660156 C 132.378906 215.933594 130.199219 216.660156 129.472656 218.476562 C 128.746094 220.292969 129.472656 222.472656 131.289062 223.199219 C 132.921875 223.925781 134.558594 224.652344 136.191406 225.195312 C 136.554688 225.378906 137.101562 225.378906 137.464844 225.378906 C 138.917969 225.378906 140.371094 224.46875 140.914062 223.015625 C 141.640625 221.199219 140.734375 219.019531 138.734375 218.292969 C 137.28125 217.929688 135.648438 217.203125 134.195312 216.660156 Z M 134.195312 216.660156 " fill-opacity="1" fill-rule="nonzero"/><path fill="#ffffff" d="M 203.035156 221.199219 C 201.402344 221.5625 199.765625 222.109375 198.132812 222.472656 C 196.132812 222.835938 194.863281 224.832031 195.40625 226.832031 C 195.769531 228.464844 197.222656 229.738281 199.039062 229.738281 C 199.222656 229.738281 199.585938 229.738281 199.765625 229.738281 C 201.582031 229.375 203.21875 229.011719 205.035156 228.464844 C 207.03125 227.921875 208.121094 225.921875 207.578125 224.105469 C 207.03125 221.925781 205.035156 220.65625 203.035156 221.199219 Z M 203.035156 221.199219 " fill-opacity="1" fill-rule="nonzero"/><path fill="#ffffff" d="M 240.089844 211.9375 C 240.816406 211.9375 241.542969 211.753906 242.089844 211.210938 C 243.542969 210.121094 244.996094 209.03125 246.449219 208.121094 C 248.082031 206.851562 248.265625 204.671875 247.175781 203.035156 C 245.902344 201.402344 243.722656 201.21875 242.089844 202.308594 C 240.816406 203.398438 239.363281 204.308594 238.09375 205.214844 C 236.457031 206.304688 236.09375 208.667969 237.183594 210.300781 C 237.730469 211.390625 238.820312 211.9375 240.089844 211.9375 Z M 240.089844 211.9375 " fill-opacity="1" fill-rule="nonzero"/><path fill="#ffffff" d="M 259.707031 195.769531 C 260.980469 194.316406 262.070312 193.046875 263.160156 191.59375 C 264.429688 189.957031 264.066406 187.777344 262.433594 186.507812 C 260.796875 185.234375 258.617188 185.597656 257.347656 187.234375 C 256.4375 188.503906 255.347656 189.777344 254.257812 191.046875 C 252.988281 192.5 253.167969 194.863281 254.621094 196.132812 C 255.347656 196.679688 256.257812 197.042969 256.984375 197.042969 C 257.890625 197.042969 258.980469 196.679688 259.707031 195.769531 Z M 259.707031 195.769531 " fill-opacity="1" fill-rule="nonzero"/><path fill="#ffffff" d="M 181.601562 224.652344 C 179.96875 224.832031 178.332031 224.832031 176.515625 224.832031 C 174.519531 224.832031 172.882812 226.46875 172.882812 228.464844 C 172.882812 230.464844 174.519531 232.097656 176.515625 232.097656 C 178.332031 232.097656 180.148438 231.917969 181.964844 231.917969 C 183.964844 231.734375 185.417969 230.101562 185.417969 228.101562 C 185.417969 226.105469 183.601562 224.652344 181.601562 224.652344 Z M 181.601562 224.652344 " fill-opacity="1" fill-rule="nonzero"/><path fill="#ffffff" d="M 220.292969 222.652344 C 220.835938 222.652344 221.199219 222.472656 221.746094 222.289062 C 223.378906 221.5625 225.015625 220.835938 226.648438 220.109375 C 228.464844 219.203125 229.191406 217.023438 228.285156 215.207031 C 227.375 213.390625 225.195312 212.664062 223.378906 213.570312 C 221.925781 214.296875 220.292969 215.023438 218.839844 215.570312 C 217.023438 216.296875 216.113281 218.476562 217.023438 220.292969 C 217.566406 221.925781 218.839844 222.652344 220.292969 222.652344 Z M 220.292969 222.652344 " fill-opacity="1" fill-rule="nonzero"/><path fill="#ffffff" d="M 150.542969 225.921875 C 150.179688 227.921875 151.449219 229.738281 153.449219 230.101562 C 155.265625 230.464844 157.082031 230.828125 158.714844 231.007812 C 158.898438 231.007812 159.078125 231.007812 159.261719 231.007812 C 161.078125 231.007812 162.53125 229.738281 162.894531 227.921875 C 163.257812 225.921875 161.804688 224.105469 159.804688 223.742188 C 158.171875 223.5625 156.535156 223.199219 154.902344 222.835938 C 152.902344 222.652344 151.085938 223.925781 150.542969 225.921875 Z M 150.542969 225.921875 " fill-opacity="1" fill-rule="nonzero"/><g clip-path="url(#27ee7fc003)"><path fill="#ffffff" d="M 288.769531 146.546875 C 290.949219 151.632812 292.585938 157.082031 294.039062 162.53125 C 293.128906 161.984375 292.039062 161.441406 291.132812 160.714844 C 288.953125 159.261719 286.226562 157.625 283.503906 157.082031 C 280.960938 159.988281 277.507812 161.984375 273.695312 162.347656 C 273.695312 162.347656 273.695312 162.53125 273.511719 162.53125 C 272.96875 163.257812 272.421875 164.164062 271.878906 164.527344 C 269.878906 166.34375 266.066406 165.253906 264.066406 163.257812 C 262.796875 161.984375 261.886719 160.351562 261.34375 158.535156 C 259.707031 157.082031 258.4375 155.265625 257.527344 153.085938 C 255.167969 147.453125 252.988281 142.550781 251.171875 138.007812 C 249.898438 137.464844 248.628906 136.917969 247.355469 136.554688 C 245.722656 136.011719 243.722656 135.285156 243.179688 134.558594 C 242.453125 133.648438 242.269531 131.652344 242.089844 129.835938 C 241.90625 126.929688 241.542969 123.476562 238.820312 121.480469 C 234.824219 118.390625 228.648438 118.027344 222.652344 120.570312 C 220.65625 121.480469 218.839844 122.570312 217.023438 123.476562 C 215.023438 124.566406 213.207031 125.65625 211.210938 126.382812 C 208.304688 127.472656 204.671875 127.65625 202.855469 125.65625 C 202.128906 124.929688 201.582031 123.296875 201.039062 121.660156 C 199.949219 118.574219 198.496094 113.851562 193.410156 113.304688 C 186.6875 112.578125 186.144531 110.398438 185.234375 105.675781 C 184.328125 101.863281 183.238281 96.414062 177.0625 93.144531 C 173.429688 91.144531 169.070312 90.964844 164.710938 90.964844 C 156.898438 90.78125 154.355469 90.601562 154.355469 84.0625 C 154.355469 84.0625 154.355469 84.0625 154.355469 83.878906 C 165.074219 80.972656 176.335938 79.15625 188.140625 79.15625 C 206.667969 79.15625 224.289062 83.878906 239.546875 92.054688 C 239.910156 89.511719 240.636719 87.148438 241.542969 84.96875 C 225.558594 76.613281 207.394531 71.890625 188.140625 71.890625 C 153.085938 71.890625 121.480469 87.511719 100.226562 112.214844 C 103.859375 110.761719 107.855469 110.035156 111.851562 110.035156 C 112.035156 110.035156 112.035156 110.035156 112.214844 110.035156 C 122.207031 100.226562 134.195312 92.417969 147.273438 87.148438 C 148.542969 98.59375 158.171875 98.773438 164.710938 98.773438 C 167.980469 98.773438 171.429688 98.773438 173.609375 100.046875 C 176.699219 101.679688 177.242188 104.042969 178.152344 107.855469 C 179.242188 112.941406 180.875 119.84375 192.683594 120.933594 C 193.226562 121.296875 193.773438 123.296875 194.136719 124.386719 C 194.863281 126.566406 195.769531 129.109375 197.585938 131.105469 C 201.945312 135.648438 208.847656 135.285156 213.753906 133.46875 C 216.296875 132.558594 218.476562 131.289062 220.65625 130.015625 C 222.289062 129.109375 223.925781 128.199219 225.558594 127.472656 C 228.285156 126.382812 231.917969 125.65625 234.277344 127.292969 C 234.640625 127.835938 234.640625 129.472656 234.824219 130.5625 C 235.003906 133.285156 235.367188 136.738281 237.546875 139.28125 C 239.363281 141.460938 242.269531 142.367188 244.996094 143.457031 C 246.992188 144.183594 249.355469 145.09375 250.261719 146 C 251.714844 148 252.261719 150.722656 252.625 153.449219 C 253.351562 158.535156 254.804688 164.164062 258.980469 168.34375 C 260.796875 170.160156 263.160156 171.613281 265.703125 172.15625 C 265.703125 172.339844 265.519531 172.703125 265.519531 172.882812 C 264.792969 174.699219 265.703125 176.878906 267.699219 177.605469 C 268.0625 177.789062 268.609375 177.789062 268.972656 177.789062 C 270.425781 177.789062 271.878906 176.878906 272.421875 175.425781 C 272.785156 174.519531 273.148438 173.609375 273.332031 172.703125 C 273.332031 172.519531 273.511719 172.339844 273.511719 172.15625 C 274.785156 171.792969 276.054688 171.066406 277.144531 169.976562 C 278.234375 168.886719 279.144531 167.796875 279.871094 166.707031 C 280.597656 165.617188 281.324219 164.710938 281.867188 164.347656 C 282.957031 163.800781 284.957031 164.890625 287.679688 166.707031 C 290.042969 168.34375 292.949219 170.160156 296.21875 170.339844 C 297.125 175.972656 297.671875 181.964844 297.671875 187.960938 C 297.671875 248.082031 248.808594 296.945312 188.6875 296.945312 C 161.441406 296.945312 136.554688 286.953125 117.484375 270.242188 C 119.300781 269.878906 120.933594 268.972656 122.207031 267.699219 C 128.199219 261.886719 127.835938 253.53125 127.472656 246.085938 C 127.109375 238.636719 127.292969 233.550781 130.199219 230.101562 C 129.835938 229.917969 129.289062 229.738281 128.925781 229.554688 C 126.929688 228.648438 125.476562 227.375 124.386719 225.742188 C 119.664062 231.554688 120.027344 239.363281 120.207031 246.265625 C 120.390625 252.625 120.753906 258.800781 117.121094 262.25 C 116.757812 262.613281 116.03125 263.160156 114.757812 262.976562 C 112.214844 262.976562 108.765625 261.160156 106.222656 258.4375 C 89.148438 240.089844 79.15625 215.207031 79.15625 188.140625 C 79.15625 178.515625 80.429688 169.25 82.789062 160.351562 C 80.609375 153.628906 79.882812 149.632812 79.519531 147.089844 C 74.617188 159.804688 71.890625 173.609375 71.890625 188.140625 C 71.890625 216.296875 82.0625 242.269531 98.773438 262.433594 C 98.957031 262.613281 99.136719 262.796875 99.136719 263.160156 C 99.320312 263.523438 99.683594 263.703125 100.046875 264.066406 C 121.480469 288.769531 152.902344 304.390625 188.140625 304.390625 C 252.261719 304.390625 304.390625 252.261719 304.390625 188.140625 C 304.390625 169.976562 300.214844 152.722656 292.585938 137.28125 C 291.496094 140.1875 290.222656 143.277344 288.769531 146.546875 Z M 288.769531 146.546875 " fill-opacity="1" fill-rule="nonzero"/></g></svg>