<svg xmlns="http://www.w3.org/2000/svg" xmlns:xlink="http://www.w3.org/1999/xlink" width="500" zoomAndPan="magnify" viewBox="0 0 375 374.999991" height="500" preserveAspectRatio="xMidYMid meet" version="1.0"><defs><clipPath id="4ef11bd05f"><path d="M 187.5 0 C 83.945312 0 0 83.945312 0 187.5 C 0 291.054688 83.945312 375 187.5 375 C 291.054688 375 375 291.054688 375 187.5 C 375 83.945312 291.054688 0 187.5 0 Z M 187.5 0 " clip-rule="nonzero"/></clipPath><clipPath id="f9c0f10fd5"><path d="M 52 76 L 324 76 L 324 298.808594 L 52 298.808594 Z M 52 76 " clip-rule="nonzero"/></clipPath></defs><g clip-path="url(#4ef11bd05f)"><rect x="-37.5" width="450" fill="#a2c36e" y="-37.499999" height="449.999989" fill-opacity="1"/></g><g clip-path="url(#f9c0f10fd5)"><path fill="#fffff9" d="M 284.398438 111.722656 C 268.945312 90.367188 244.175781 96.988281 219.0625 152.191406 C 216.617188 157.835938 216.792969 156.542969 214.132812 152.859375 C 209.9375 147.058594 203.421875 136.917969 196.144531 134.332031 C 185.117188 66.3125 147.402344 71.84375 135.597656 84.910156 C 120.320312 101.828125 109.4375 122.957031 102.175781 144.464844 C 101.753906 145.65625 101.710938 147.050781 100.222656 147.660156 C 64.097656 169.589844 18.824219 273.496094 88.921875 277.972656 C 91.648438 278.777344 97.269531 277.15625 97.570312 281.070312 C 97.609375 283.554688 98.035156 286.027344 98.144531 288.515625 C 98.371094 293.691406 97.925781 293.175781 94.183594 293.054688 C 93.53125 293.03125 92.839844 293 92.222656 293.175781 C 90.546875 293.664062 88.070312 293.5 88.109375 295.964844 C 88.15625 298.8125 90.664062 297.996094 92.335938 298 C 93.734375 298.003906 256.84375 298.269531 278.746094 298.070312 C 280.503906 298.03125 282.175781 297.398438 282.65625 295.445312 C 282.972656 294.132812 281.40625 293.15625 278.804688 293.082031 C 269.953125 293.425781 267.539062 294.324219 267.46875 293.070312 C 267.28125 289.855469 267.640625 287.132812 267.632812 279.648438 C 267.632812 278.117188 266.84375 275.667969 268.71875 275.683594 C 299.515625 275.96875 321.148438 264.890625 323.007812 242.75 C 325.449219 213.75 315.316406 154.441406 284.398438 111.722656 Z M 105.730469 143.074219 C 110.476562 126.472656 128.992188 88.5 144.699219 81.773438 C 170.367188 70.796875 186.65625 95.636719 193.617188 132.261719 C 193.796875 133.210938 192.527344 134.308594 189.601562 134.296875 C 168.769531 134.226562 152.253906 166.609375 152.777344 160.648438 C 152.921875 158.992188 150.859375 135.808594 155.167969 131.503906 C 159.441406 127.449219 163.277344 122.945312 167.941406 119.289062 C 169.832031 117.964844 170.40625 115.617188 168.488281 114.027344 C 167.21875 112.738281 166.183594 113.199219 165.117188 114.207031 C 161.695312 117.449219 158.285156 120.703125 154.851562 123.9375 C 154.414062 124.351562 154.011719 125.089844 153.242188 124.667969 C 152.015625 122.238281 153.703125 118.433594 152.511719 115.839844 C 151.289062 112.898438 147.183594 113.128906 147.339844 116.628906 C 146.972656 118.648438 148.355469 126.644531 146.609375 127.164062 C 145.742188 127.417969 145.132812 126.238281 144.523438 125.585938 C 141.8125 122.765625 139.484375 119.519531 136.339844 117.152344 C 134.5625 115.714844 132.125 118.277344 133.253906 120.160156 C 136.179688 124.96875 147.597656 133.199219 147.195312 138.003906 C 146.972656 147.953125 145.703125 176.324219 145.550781 176.601562 C 144.222656 179.109375 141.207031 187.882812 140.253906 183.351562 C 136.019531 168.828125 125.359375 146.226562 108.082031 145.742188 C 105.097656 145.832031 105.011719 145.675781 105.730469 143.074219 Z M 102.140625 260.222656 C 102.027344 258.308594 103.125 257.019531 104.363281 255.8125 C 109.71875 250.601562 114.636719 244.957031 120.210938 239.964844 C 124.683594 236.988281 120.09375 232.082031 117.515625 234.972656 C 113.988281 238.851562 109.808594 242.078125 106.4375 246.128906 C 103.484375 250.398438 102.25 250.164062 101.761719 248.21875 C 101.179688 245.890625 101.53125 232.582031 102.003906 229.789062 C 102.390625 227.523438 103.3125 225.425781 105.421875 223.691406 C 109.453125 219.566406 113.363281 215.324219 117.273438 211.085938 C 120.953125 208.203125 115.957031 203.949219 113.492188 207.015625 C 110.0625 210.425781 107.011719 214.871094 103.125 217.601562 C 101.082031 216.136719 103.679688 201.730469 103.507812 198.347656 C 103.761719 192.875 119.066406 182.289062 113.984375 179.414062 C 110.675781 177.113281 108.675781 182.914062 106.398438 184.574219 C 105.828125 185.1875 105.605469 186.554688 104.476562 186.152344 C 103.667969 185.863281 104.152344 184.761719 104.035156 184.027344 C 103.890625 183.132812 103.824219 182.210938 103.585938 181.339844 C 103.476562 179.25 100.695312 179.203125 99.902344 180.929688 C 99.101562 182.457031 98.765625 184.128906 98.460938 185.816406 C 98.355469 186.390625 98.652344 187.273438 97.8125 187.441406 C 94.59375 186.949219 93.03125 178.925781 89.175781 180.941406 C 84.609375 185.960938 100.03125 191.195312 97.691406 201.71875 C 94.71875 220.472656 101.398438 224.925781 86.84375 211.433594 C 85.730469 210.5 84.566406 208.300781 82.640625 210.308594 C 78.898438 214.378906 97.164062 223.203125 96.09375 230.71875 C 94.898438 257.632812 101.695312 253.441406 80.058594 239.574219 C 76.617188 236.792969 73.53125 240.621094 77.339844 243.117188 C 83.464844 247.398438 89.28125 252.085938 94.933594 256.972656 C 98.476562 260.917969 95.957031 269.285156 97.402344 274.476562 C 97.648438 275.984375 96.914062 276.664062 95.351562 276.390625 C 52.75 276.089844 47.8125 243.960938 60.765625 210.203125 C 75.226562 166.726562 115.722656 111.136719 137.992188 184.929688 C 139.242188 189.355469 138.429688 192.855469 136.894531 196.914062 C 130.519531 216.820312 118.910156 242.351562 133.859375 260.980469 C 136.867188 264.574219 136.738281 264.632812 133.851562 268.164062 C 130.390625 272.390625 125.832031 274.960938 120.710938 276.332031 C 117.402344 277.082031 102.957031 280.644531 102.933594 275.132812 C 102.773438 270.160156 102.433594 265.191406 102.140625 260.222656 Z M 140.75 273.105469 C 142.542969 282.007812 135.859375 278.226562 130.089844 277.589844 C 128.753906 277.527344 128.332031 276.148438 129.726562 275.722656 C 132.953125 273.863281 135.441406 271.234375 137.589844 268.246094 C 138.011719 267.652344 138.304688 266.667969 139.3125 267.097656 C 141.648438 268.007812 140.476562 271.148438 140.75 273.105469 Z M 141.125 290.429688 C 140.835938 292.03125 140.105469 292.8125 138.582031 293.09375 C 137.296875 293.332031 112.648438 292.972656 107.664062 292.949219 C 104.210938 292.929688 104.21875 292.90625 103.945312 289.648438 C 104.335938 287.199219 101.214844 279.257812 105.558594 280.003906 C 111.765625 280.953125 117.8125 279.917969 123.804688 278.425781 C 124.625 278.222656 125.390625 278.246094 126.09375 278.589844 C 129.722656 280.386719 133.691406 280.472656 137.585938 280.964844 C 140.6875 281.355469 141.34375 281.539062 141.234375 283.691406 C 141.214844 284.0625 141.347656 289.171875 141.125 290.429688 Z M 183.707031 293.074219 C 178.714844 292.984375 155.65625 293.0625 150.285156 293.011719 C 146.789062 292.980469 146.695312 292.84375 146.570312 289.558594 C 144.496094 275.65625 156.359375 285.105469 166.183594 279.460938 C 171.140625 281.390625 185.859375 277.226562 185.785156 284.800781 C 185.347656 287.542969 188.480469 293.230469 183.707031 293.074219 Z M 146.398438 273.34375 C 146.574219 272.179688 147.128906 272.160156 147.988281 272.550781 C 151.90625 274.324219 155.539062 276.722656 159.734375 277.894531 C 161.695312 279.746094 155.050781 278.71875 154.175781 278.964844 C 154.175781 278.980469 154.175781 278.992188 154.175781 279.011719 C 149.523438 279.035156 144.945312 279.730469 146.398438 273.34375 Z M 190.042969 274.167969 C 189.820312 268.671875 189.921875 263.164062 189.78125 257.660156 C 191.792969 250.9375 202.457031 244.285156 207.804688 239.609375 C 209.421875 237.71875 217.234375 233.417969 214.710938 230.839844 C 213.261719 228.675781 210.679688 229.035156 209.082031 230.988281 C 186.222656 248.898438 189.226562 255.921875 189.210938 229.585938 C 189.203125 229.585938 189.191406 229.585938 189.183594 229.585938 C 188.75 205 188.496094 213.351562 205.816406 197.1875 C 210.40625 193.785156 204.113281 189.027344 201.542969 193.0625 C 198.757812 196.429688 195.375 199.113281 191.871094 201.664062 C 190.636719 203.210938 189.183594 203.050781 189.507812 200.773438 C 191.203125 176.648438 185.582031 179.78125 205.257812 163.359375 C 208.8125 160.851562 204.03125 156.332031 201.183594 159.3125 C 199.140625 160.628906 191.53125 169.386719 190.339844 168.488281 C 189.375 166.621094 190.820312 163.917969 188.542969 162.429688 C 186.566406 161.015625 185.070312 161.613281 184.816406 164.058594 C 184.597656 166.128906 185.296875 169.457031 183.882812 169.945312 C 181.789062 170.773438 177.558594 164.390625 174.945312 163.035156 C 172.640625 160.898438 169.535156 164.804688 172.082031 166.652344 C 190.085938 182.953125 183.992188 175.410156 183.765625 201.726562 C 184.757812 208.546875 171.132812 196.253906 168.441406 195.847656 C 166.410156 194.921875 164.507812 198.015625 166.160156 199.5 C 170.878906 202.730469 175.554688 206.199219 180.722656 208.746094 C 182.929688 209.714844 183.558594 211.425781 183.535156 213.804688 C 183.433594 224.554688 183.503906 235.308594 183.503906 246.0625 C 184.011719 248.777344 182.4375 248.984375 180.769531 247.324219 C 175.230469 243.136719 170.101562 238.433594 164.292969 234.597656 C 162.128906 232.710938 159.101562 236.6875 161.527344 238.210938 C 167.28125 242.136719 172.246094 247.039062 177.789062 251.21875 C 182.429688 253.113281 183.664062 252.546875 184.144531 258.171875 C 184.695312 264.039062 183.828125 269.953125 184.742188 275.816406 C 184.914062 276.929688 184.855469 277.984375 183.222656 277.828125 C 164.410156 278.515625 144.28125 273.164062 133.746094 256.316406 C 117.84375 237.886719 153.289062 144.527344 184.25 136.78125 C 195.878906 133.875 201.824219 138.773438 205.296875 143.273438 C 227.335938 171.851562 243.554688 204.539062 243.511719 245.257812 C 243.488281 266.152344 212.972656 276.304688 194.847656 278.074219 C 190.5 278.214844 190.21875 278.386719 190.042969 274.167969 Z M 258.257812 293.054688 C 249.199219 293.082031 205.492188 293.074219 195.019531 293.054688 C 191.789062 293.042969 191.742188 293 191.671875 289.871094 C 191.628906 288.046875 191.703125 286.210938 191.808594 284.382812 C 192.015625 280.726562 192.027344 280.605469 195.800781 280.1875 C 206.222656 279.695312 216 276.179688 225.652344 272.523438 C 227.550781 272.125 229.515625 270.191406 230.714844 270.742188 C 237.496094 273.847656 249.785156 275.949219 258.90625 275.160156 C 260.863281 274.992188 261.375 275.808594 261.355469 277.890625 C 261.304688 281.945312 261.480469 286.003906 261.464844 290.0625 C 261.457031 292.972656 261.390625 293.042969 258.257812 293.054688 Z M 262.121094 270.730469 C 261.855469 272.09375 261.105469 273.027344 259.289062 272.933594 C 257.390625 273.085938 227.507812 271.273438 233.34375 267.757812 C 236.476562 264.617188 239.660156 261.527344 242.25 257.859375 C 247.632812 252.214844 244.226562 237.3125 248.203125 240.921875 C 252.238281 244.054688 255.71875 247.84375 259.617188 251.109375 C 260.863281 252.03125 261.535156 253.144531 261.886719 254.375 C 262.660156 257.058594 262.566406 268.464844 262.121094 270.730469 Z M 269.070312 273.78125 C 267.039062 273.703125 267.128906 272.769531 267.136719 270.714844 C 267.148438 264.632812 265.78125 255.46875 269.289062 251.632812 C 274.378906 247.105469 279.308594 242.382812 284.492188 237.96875 C 287 235.832031 289.167969 233.386719 291.535156 231.125 C 293.222656 229.507812 292.960938 228.785156 291.171875 226.875 C 289.683594 225.28125 288.480469 225.613281 287.277344 227.0625 C 282.21875 233.152344 275.804688 237.804688 270.109375 243.222656 C 268.925781 244.894531 267.304688 244.558594 267.84375 242.398438 C 268.472656 236.628906 267.445312 211.566406 268.089844 208.160156 C 269.175781 202.484375 272.757812 200.769531 283.21875 191.652344 C 284.929688 189.191406 292.304688 185.671875 288.796875 182.5625 C 287.1875 180.957031 286.121094 180.832031 284.535156 182.707031 C 282.058594 185.640625 267.910156 199.769531 268.539062 194.242188 C 268.566406 189.523438 268.875 171.308594 269.101562 166.984375 C 269.261719 164.019531 269.878906 161.199219 271.777344 158.785156 C 275.546875 154.25 278.617188 149.167969 282.617188 144.808594 C 283.476562 143.875 284.503906 142.867188 283.394531 141.382812 C 282.015625 139.539062 280.414062 139.351562 278.933594 141.148438 C 276.1875 144.484375 273.554688 147.917969 270.882812 151.316406 C 268.382812 154.980469 269.550781 146.328125 266.867188 145.214844 C 265.125 143.867188 263.886719 144.246094 263.582031 146.402344 C 263.398438 147.695312 263.589844 149.027344 263.46875 150.332031 C 263.363281 151.425781 264.203125 153.089844 262.984375 153.476562 C 261.960938 153.804688 261.222656 152.160156 260.476562 151.3125 C 257.4375 148.277344 255.339844 144.21875 251.859375 141.683594 C 249.8125 139.980469 247.1875 142.546875 249.046875 144.519531 C 252.839844 150.804688 264.382812 159.832031 263.632812 166.605469 C 263.207031 176.558594 262.683594 186.515625 262.792969 196.480469 C 263.164062 198.261719 261.574219 198.839844 260.511719 197.433594 C 258.070312 194.839844 241.125 178.46875 238.742188 183.359375 C 238.070312 184.597656 238.859375 185.339844 239.808594 185.917969 C 246.46875 189.984375 251.765625 195.660156 257.582031 200.734375 C 260.902344 203.632812 262.699219 206.4375 262.289062 211.015625 C 261.824219 216.214844 261.910156 241.332031 262.066406 245.132812 C 262.054688 246.449219 260.933594 246.402344 260.34375 245.550781 C 257.144531 242.273438 253.382812 239.511719 249.832031 236.695312 C 246.421875 235.414062 245.578125 232.757812 245.132812 229.398438 C 241.726562 205.484375 233.074219 181.738281 220.050781 161.417969 C 218.738281 159.59375 218.738281 158.128906 219.644531 156.019531 C 231.054688 129.328125 259.28125 80.859375 284.132812 115.222656 C 309.914062 150.875 321.15625 196.808594 321.15625 240.699219 C 321.160156 260.226562 300.394531 274.957031 269.070312 273.78125 Z M 269.070312 273.78125 " fill-opacity="1" fill-rule="nonzero"/></g></svg>