<svg xmlns="http://www.w3.org/2000/svg" xmlns:xlink="http://www.w3.org/1999/xlink" width="500" zoomAndPan="magnify" viewBox="0 0 375 374.999991" height="500" preserveAspectRatio="xMidYMid meet" version="1.0"><defs><clipPath id="99d85a714b"><path d="M 187.5 0 C 83.945312 0 0 83.945312 0 187.5 C 0 291.054688 83.945312 375 187.5 375 C 291.054688 375 375 291.054688 375 187.5 C 375 83.945312 291.054688 0 187.5 0 Z M 187.5 0 " clip-rule="nonzero"/></clipPath><clipPath id="a78a7722d1"><path d="M 45.035156 115.800781 L 345.035156 115.800781 L 345.035156 249.867188 L 45.035156 249.867188 Z M 45.035156 115.800781 " clip-rule="nonzero"/></clipPath></defs><g clip-path="url(#99d85a714b)"><rect x="-37.5" width="450" fill="#ff3131" y="-37.499999" height="449.999989" fill-opacity="1"/></g><g clip-path="url(#a78a7722d1)"><path fill="#ffffff" d="M 99.738281 119.539062 C 100.484375 122.929688 100.269531 126.484375 99.097656 129.769531 L 99.339844 129.769531 C 98.886719 131.105469 99.550781 132.546875 100.855469 133 C 101.789062 133.347656 102.773438 133.105469 103.46875 132.4375 C 106.957031 129.101562 110.230469 125.574219 113.347656 121.917969 C 117.023438 125.308594 119.234375 130.035156 119.5 135.054688 C 119.605469 137.085938 121.019531 138.820312 122.988281 139.355469 C 125.441406 139.96875 127.808594 140.933594 129.996094 142.214844 C 131.726562 143.226562 133.75 143.628906 135.71875 143.363281 C 142.75 142.402344 149.863281 142.242188 156.921875 142.828125 C 158.707031 142.960938 160.488281 142.800781 162.246094 142.375 C 171.890625 139.917969 181.902344 139.035156 191.835938 139.785156 C 202.066406 139.96875 212.210938 141.625 221.960938 144.722656 C 231.070312 148.945312 239.003906 155.40625 244.996094 163.5 C 254.320312 175.785156 263.746094 187.960938 273.308594 200.035156 C 276.105469 203.558594 279.621094 206.417969 283.617188 208.421875 C 293.257812 213.253906 302.6875 218.570312 311.792969 224.363281 C 321.488281 231.414062 331.421875 238.144531 341.492188 244.632812 C 337.523438 245.195312 333.449219 245.089844 329.507812 244.339844 C 320.289062 241.082031 311.289062 237.261719 302.554688 232.855469 C 292.539062 229.8125 283.324219 224.605469 275.519531 217.582031 C 274.214844 216.433594 272.777344 215.46875 271.179688 214.777344 C 267.078125 212.988281 263.136719 210.824219 259.460938 208.285156 C 249.390625 201.421875 235.78125 203.425781 228.113281 212.878906 C 227.152344 214.082031 226.273438 215.335938 225.503906 216.671875 C 223.050781 223.777344 222.546875 231.414062 224.089844 238.757812 C 224.648438 241.429688 223.132812 244.101562 220.574219 244.980469 C 217.351562 246.101562 213.917969 246.503906 210.535156 246.101562 C 200.945312 245.730469 191.382812 244.742188 181.902344 243.164062 C 183.261719 242.632812 184.671875 242.230469 186.109375 241.9375 C 190.984375 240.496094 196.097656 240.015625 201.160156 240.546875 C 203.742188 240.816406 206.03125 238.945312 206.300781 236.382812 C 206.433594 234.941406 205.925781 233.523438 204.914062 232.535156 C 196.792969 224.550781 189.308594 215.976562 182.542969 206.84375 C 179.824219 204.574219 176.761719 202.757812 173.488281 201.421875 C 168.878906 199.554688 163.632812 201.796875 161.769531 206.417969 C 161.636719 206.738281 161.527344 207.03125 161.449219 207.351562 C 159.71875 213.519531 157.132812 219.421875 153.75 224.871094 C 150.636719 234.164062 143.390625 241.484375 134.121094 244.6875 C 129.941406 245.835938 125.574219 246.34375 121.230469 246.238281 C 133.589844 238.519531 141.261719 225.113281 141.605469 210.503906 C 141.714844 206.871094 139.636719 203.558594 136.332031 202.0625 C 122.5625 195.8125 109.726562 187.695312 98.195312 177.921875 C 94.890625 175.144531 90.125 175.089844 86.769531 177.789062 C 83.253906 180.589844 79.390625 182.96875 75.316406 184.863281 C 73.078125 185.90625 70.414062 185.292969 68.84375 183.394531 C 68.710938 183.234375 68.710938 183.023438 68.84375 182.863281 C 72.011719 180.511719 74.171875 177.066406 74.941406 173.195312 C 75.050781 172.660156 75.234375 172.152344 75.503906 171.671875 C 79.019531 165.179688 76.59375 157.035156 70.121094 153.511719 C 68.042969 152.390625 65.726562 151.828125 63.355469 151.910156 C 57.949219 153.03125 52.359375 151.105469 48.734375 146.914062 C 48.574219 146.78125 48.574219 146.539062 48.707031 146.40625 C 48.707031 146.378906 48.734375 146.378906 48.734375 146.351562 C 54.460938 143.09375 60.613281 140.636719 67.007812 139.140625 C 68.179688 138.875 69.269531 138.367188 70.230469 137.699219 C 74.464844 134.628906 79.628906 133.132812 84.851562 133.453125 C 86.847656 133.5625 88.6875 132.414062 89.457031 130.570312 C 91.429688 125.707031 95.15625 121.78125 99.84375 119.539062 Z M 100.246094 115.773438 C 99.765625 115.773438 99.257812 115.855469 98.804688 116.066406 C 93.105469 118.683594 88.578125 123.359375 86.183594 129.179688 C 86.023438 129.609375 85.570312 129.902344 85.117188 129.847656 C 79.070312 129.472656 73.078125 131.210938 68.179688 134.761719 C 67.617188 135.164062 66.953125 135.484375 66.261719 135.644531 C 59.523438 137.21875 53.050781 139.785156 47.03125 143.226562 C 45.140625 144.324219 44.472656 146.753906 45.566406 148.648438 C 45.671875 148.863281 45.832031 149.078125 45.992188 149.265625 C 47.777344 151.347656 49.988281 153.003906 52.464844 154.152344 L 52.464844 159.359375 C 52.492188 160.347656 53.316406 161.148438 54.328125 161.121094 C 55.289062 161.09375 56.058594 160.320312 56.085938 159.359375 L 56.085938 155.351562 C 56.859375 155.539062 57.65625 155.675781 58.457031 155.753906 L 58.457031 161.28125 C 58.484375 162.269531 59.308594 163.070312 60.292969 163.019531 C 61.253906 162.992188 62 162.242188 62.050781 161.28125 L 62.050781 155.753906 C 62.613281 155.699219 63.144531 155.621094 63.703125 155.511719 C 69.109375 155.488281 73.476562 159.867188 73.503906 165.261719 C 73.503906 166.917969 73.105469 168.519531 72.304688 169.960938 C 71.878906 170.761719 71.585938 171.617188 71.402344 172.5 C 70.894531 175.0625 69.589844 177.386719 67.699219 179.148438 L 64.957031 177.226562 C 64.128906 176.664062 63.011719 176.851562 62.453125 177.679688 C 61.867188 178.480469 62.078125 179.601562 62.851562 180.191406 L 65.300781 181.898438 C 64.875 183.183594 65.113281 184.625 65.992188 185.691406 C 68.578125 188.871094 73 189.886719 76.726562 188.148438 C 81.070312 186.144531 85.171875 183.609375 88.925781 180.589844 C 90.921875 178.988281 93.824219 179.015625 95.796875 180.699219 C 107.570312 190.6875 120.699219 198.992188 134.734375 205.347656 C 136.734375 206.257812 137.984375 208.261719 137.929688 210.421875 C 137.585938 224.203125 130.152344 236.808594 118.300781 243.753906 C 116.757812 244.660156 116.25 246.636719 117.15625 248.1875 C 117.691406 249.148438 118.675781 249.734375 119.765625 249.816406 C 124.933594 250.082031 130.101562 249.523438 135.109375 248.160156 C 145.308594 244.660156 153.351562 236.648438 156.921875 226.445312 C 160.382812 220.8125 163.019531 214.722656 164.804688 208.367188 C 165.628906 205.480469 168.613281 203.800781 171.488281 204.601562 C 171.675781 204.65625 171.863281 204.734375 172.046875 204.789062 C 174.84375 205.9375 177.457031 207.484375 179.824219 209.355469 C 186.644531 218.515625 194.179688 227.140625 202.332031 235.125 C 202.757812 235.527344 202.785156 236.222656 202.359375 236.648438 C 202.117188 236.917969 201.773438 237.023438 201.453125 236.96875 C 195.964844 236.410156 190.425781 236.917969 185.152344 238.4375 C 183.101562 238.867188 181.105469 239.507812 179.1875 240.335938 C 177.5625 241.054688 176.816406 242.980469 177.535156 244.632812 C 177.960938 245.621094 178.894531 246.34375 179.957031 246.53125 C 189.945312 248.238281 200.039062 249.308594 210.1875 249.707031 C 214.050781 250.136719 217.964844 249.707031 221.667969 248.425781 C 225.929688 246.929688 228.457031 242.496094 227.527344 238.039062 C 226.140625 231.441406 226.539062 224.605469 228.699219 218.195312 C 229.335938 217.125 230.03125 216.136719 230.777344 215.175781 C 237.300781 207.164062 248.832031 205.480469 257.328125 211.277344 C 261.21875 213.949219 265.320312 216.21875 269.632812 218.089844 C 270.859375 218.648438 272.003906 219.371094 273.042969 220.277344 C 281.140625 227.59375 290.699219 233.042969 301.113281 236.25 C 309.984375 240.683594 319.117188 244.554688 328.46875 247.839844 C 332.914062 248.722656 337.46875 248.855469 341.945312 248.214844 C 343.914062 247.945312 345.273438 246.128906 345.007812 244.152344 C 344.847656 243.113281 344.261719 242.175781 343.382812 241.617188 C 333.316406 235.152344 323.40625 228.421875 313.710938 221.398438 C 304.46875 215.523438 294.9375 210.101562 285.132812 205.214844 C 281.59375 203.425781 278.503906 200.914062 276.050781 197.816406 C 266.492188 185.746094 257.0625 173.59375 247.769531 161.363281 C 241.375 152.734375 232.90625 145.847656 223.160156 141.359375 C 213.039062 138.152344 202.515625 136.390625 191.890625 136.179688 C 181.609375 135.429688 171.277344 136.363281 161.261719 138.902344 C 159.902344 139.222656 158.519531 139.355469 157.132812 139.25 C 149.808594 138.636719 142.433594 138.820312 135.160156 139.808594 C 133.960938 139.96875 132.738281 139.730469 131.699219 139.117188 C 129.222656 137.671875 126.585938 136.578125 123.816406 135.855469 C 123.335938 135.75 122.988281 135.351562 122.964844 134.871094 C 122.671875 128.78125 119.925781 123.066406 115.371094 118.980469 C 114.039062 117.804688 111.988281 117.910156 110.792969 119.246094 C 110.792969 119.273438 110.765625 119.300781 110.738281 119.324219 C 108.472656 121.996094 106.105469 124.613281 103.628906 127.125 C 104.105469 124.1875 104 121.167969 103.308594 118.285156 C 102.960938 116.867188 101.710938 115.855469 100.269531 115.800781 L 100.246094 115.773438 " fill-opacity="1" fill-rule="nonzero"/></g></svg>