<svg id="ardc-logo" xmlns="http://www.w3.org/2000/svg" width="306.952" height="100" viewBox="0 0 306.952 100">
  <path id="Path_735" data-name="Path 735" d="M17.565,0,0,43.764H16.57l5.294-17.6h.217l5.285,17.6h16.4L26.379,0Z" fill="#00b0d5"/>
  <path id="Path_736" data-name="Path 736" d="M203.077,21.882A21.881,21.881,0,0,0,181.2,0H171.44V12.9H181.2a9.013,9.013,0,0,1,0,18.027H171.44V43.755H181.2a21.867,21.867,0,0,0,21.882-21.873" transform="translate(18.492)" fill="#f8b20e"/>
  <path id="Path_737" data-name="Path 737" d="M248.51,21.882A21.881,21.881,0,0,1,270.392,0h9.755V12.9h-9.755a9.013,9.013,0,0,0,0,18.027h9.755V43.755h-9.755A21.867,21.867,0,0,1,248.51,21.882" transform="translate(26.805)" fill="#8e489b"/>
  <path id="Path_738" data-name="Path 738" d="M119.675,15.087a15.151,15.151,0,0,0-5.384-11.945C110.508.128,105.422.01,100.807.01H86.97V11.349h15.276c2.887,0,5.412,1.195,5.412,4.434,0,3.375-2.353,4.706-5.5,4.706h-12.2l16.687,23.285h16.633L110.96,28.326c5.565-1.909,8.715-7.24,8.715-13.24" transform="translate(9.755 -0.001)" fill="#e51875"/>
  <path id="Path_739" data-name="Path 739" d="M302.915,91.163c2.577,0,4.028-1.041,4.028-2.471,0-3.131-5.512-2.163-5.512-3.3,0-.434.574-.751,1.462-.751a4.476,4.476,0,0,1,2.75.9l.985-1.448a6.69,6.69,0,0,0-3.725-1.059c-2.458,0-3.8,1.14-3.8,2.434,0,3.05,5.49,2.009,5.49,3.276,0,.48-.5.824-1.559.824a5.884,5.884,0,0,1-3.205-1.077l-1.05,1.475a7.012,7.012,0,0,0,4.136,1.2m-5.425-.2V85.489c0-1.511-.975-2.471-3.032-2.471a4.752,4.752,0,0,0-3.249,1.185v-1h-2.436v7.746h2.436V85.725a2.9,2.9,0,0,1,2.112-.9c1.04,0,1.711.371,1.711,1.448v4.688h2.458Zm-15.052-1.62a2.257,2.257,0,1,1,2.382-2.262,2.2,2.2,0,0,1-2.382,2.262m0,1.819c3.075,0,4.916-1.873,4.916-4.072s-1.841-4.054-4.916-4.054c-3.054,0-4.894,1.864-4.894,4.054s1.841,4.072,4.894,4.072m-6.324-.2v-5.6c0-1.593-1.018-2.344-2.729-2.344a4.217,4.217,0,0,0-3.184,1.394,2.479,2.479,0,0,0-2.577-1.394,4.517,4.517,0,0,0-3.032,1.185v-1h-2.436v7.746h2.436V85.725a2.667,2.667,0,0,1,1.917-.9c1,0,1.386.516,1.386,1.24v4.9h2.458V85.734a2.586,2.586,0,0,1,1.917-.9c1,0,1.386.516,1.386,1.24v4.9h2.458Zm-16.069,0v-5.6c0-1.593-1.018-2.344-2.729-2.344a4.217,4.217,0,0,0-3.184,1.394,2.479,2.479,0,0,0-2.577-1.394,4.517,4.517,0,0,0-3.032,1.185v-1h-2.436v7.746h2.436V85.725a2.667,2.667,0,0,1,1.917-.9c1,0,1.386.516,1.386,1.24v4.9h2.458V85.734a2.605,2.605,0,0,1,1.917-.9c1,0,1.386.516,1.386,1.24v4.9h2.458Zm-20.282-1.62a2.257,2.257,0,1,1,2.382-2.262,2.2,2.2,0,0,1-2.382,2.262m0,1.819c3.075,0,4.916-1.873,4.916-4.072s-1.841-4.054-4.916-4.054c-3.054,0-4.894,1.864-4.894,4.054s1.841,4.072,4.894,4.072m-10.9,0A6.081,6.081,0,0,0,234.2,88.53l-2.339-.941a3.582,3.582,0,0,1-3,1.557c-2.339,0-4.028-1.493-4.028-3.511s1.689-3.511,4.028-3.511a3.582,3.582,0,0,1,3,1.557l2.339-.959a6.032,6.032,0,0,0-5.338-2.615c-3.855,0-6.833,2.226-6.833,5.538-.011,3.276,2.967,5.52,6.833,5.52m-19.047-1.385c-.964,0-1.743-.416-1.743-1.158s.79-1.167,1.743-1.167a2.714,2.714,0,0,1,1.96.688V89.1a2.669,2.669,0,0,1-1.96.679m4.418,1.185v-5c0-2.226-1.938-2.932-4.072-2.932a6.737,6.737,0,0,0-4.05,1.222l.964,1.43a4.3,4.3,0,0,1,2.664-.914c1.224,0,2.036.516,2.036,1.3v.977a4.223,4.223,0,0,0-2.935-.95c-1.483,0-3.205.679-3.205,2.507,0,1.738,1.733,2.57,3.205,2.57a4.149,4.149,0,0,0,2.935-1.014v.814h2.458Zm-11.1.2a3.443,3.443,0,0,0,2.036-.5l-.52-1.557a1.371,1.371,0,0,1-.845.244.8.8,0,0,1-.845-.869V85h1.884V83.218h-1.884V81.1h-2.436v2.118h-1.538V85h1.538v4.027c0,1.394.9,2.136,2.61,2.136m-9.616-1.385c-.964,0-1.743-.416-1.743-1.158s.79-1.167,1.743-1.167a2.714,2.714,0,0,1,1.96.688V89.1a2.669,2.669,0,0,1-1.96.679m4.407,1.185v-5c0-2.226-1.938-2.932-4.071-2.932a6.715,6.715,0,0,0-4.05,1.222l.964,1.43a4.3,4.3,0,0,1,2.664-.914c1.224,0,2.036.516,2.036,1.3v.977a4.223,4.223,0,0,0-2.935-.95c-1.483,0-3.205.679-3.205,2.507,0,1.738,1.722,2.57,3.205,2.57a4.149,4.149,0,0,0,2.935-1.014v.814h2.458Zm-16.394-2h-2.317V82.277h2.339c2.61,0,4,1.457,4,3.339,0,1.819-1.483,3.348-4.017,3.348m.022,2c4,0,6.779-2.118,6.779-5.357,0-3.2-2.783-5.339-6.8-5.339h-5.046V90.973h5.068Zm-13.492,0v-5.5c0-1.511-.975-2.434-3.01-2.434a4.708,4.708,0,0,0-3.249,1.185V80.268H159.34V90.973H161.8V85.743a2.843,2.843,0,0,1,2.112-.9c1.04,0,1.711.335,1.711,1.412v4.715h2.436Zm-13.676.2a4.671,4.671,0,0,0,3.671-1.412L156.46,88.5a2.487,2.487,0,0,1-1.96.851,2.267,2.267,0,1,1,0-4.507,2.42,2.42,0,0,1,1.96.833l1.592-1.249a4.67,4.67,0,0,0-3.671-1.394c-2.837,0-4.916,1.683-4.916,4.054.011,2.389,2.079,4.072,4.916,4.072m-8.479-.2V85.842a3.365,3.365,0,0,1,2.285-.878,4.233,4.233,0,0,1,.671.045V83.019a4.373,4.373,0,0,0-2.956,1.24V83.218h-2.436v7.746H145.9Zm-8.858-1.185c-.964,0-1.743-.416-1.743-1.158s.79-1.167,1.743-1.167a2.714,2.714,0,0,1,1.96.688V89.1a2.635,2.635,0,0,1-1.96.679m4.418,1.185v-5c0-2.226-1.938-2.932-4.071-2.932a6.737,6.737,0,0,0-4.05,1.222l.964,1.43a4.3,4.3,0,0,1,2.664-.914c1.224,0,2.036.516,2.036,1.3v.977a4.223,4.223,0,0,0-2.935-.95c-1.473,0-3.205.679-3.205,2.507,0,1.738,1.733,2.57,3.205,2.57A4.149,4.149,0,0,0,139,90.159v.814h2.458Zm-11.825-4.615h-4.57a2.026,2.026,0,0,1,2.263-1.656c1.613,0,2.231.914,2.306,1.656m-2.144,4.814a6.541,6.541,0,0,0,3.822-1.077l-1.094-1.348a4.366,4.366,0,0,1-2.458.751c-1.57,0-2.491-.787-2.664-1.728h6.887v-.48c0-2.516-1.863-4.253-4.645-4.253-2.8,0-4.8,1.81-4.8,4.054-.011,2.489,2.122,4.081,4.949,4.081m-9.876,0c2.577,0,4.028-1.041,4.028-2.471,0-3.131-5.512-2.163-5.512-3.3,0-.434.574-.751,1.462-.751a4.417,4.417,0,0,1,2.74.9l.975-1.448a6.69,6.69,0,0,0-3.725-1.059c-2.458,0-3.8,1.14-3.8,2.434,0,3.05,5.49,2.009,5.49,3.276,0,.48-.5.824-1.559.824a5.884,5.884,0,0,1-3.205-1.077l-1.05,1.475a7.132,7.132,0,0,0,4.158,1.2m-7.136-4.814h-4.57a2.026,2.026,0,0,1,2.263-1.656c1.613,0,2.231.914,2.306,1.656m-2.155,4.814a6.541,6.541,0,0,0,3.822-1.077l-1.094-1.348a4.366,4.366,0,0,1-2.458.751c-1.57,0-2.491-.787-2.664-1.728h6.887v-.48c0-2.516-1.862-4.253-4.645-4.253-2.8,0-4.8,1.81-4.8,4.054,0,2.489,2.133,4.081,4.949,4.081m-10.06-6h-2.88V82.277h2.88c1.072,0,1.895.543,1.895,1.43.011.9-.812,1.457-1.895,1.457m4.786,5.8-2.9-4.072a3.258,3.258,0,0,0,2.826-3.176c0-1.991-1.646-3.448-4.321-3.448H92.67V90.973H95.4v-3.8h1.992l2.512,3.8h3.151Zm-18.8,0V85.489c0-1.511-.975-2.471-3.032-2.471A4.752,4.752,0,0,0,77.976,84.2v-1H75.539v7.746h2.436V85.725a2.882,2.882,0,0,1,2.112-.9c1.04,0,1.711.371,1.711,1.448v4.688h2.458ZM69.129,89.779c-.964,0-1.743-.416-1.743-1.158s.79-1.167,1.743-1.167a2.714,2.714,0,0,1,1.96.688V89.1a2.635,2.635,0,0,1-1.96.679m4.418,1.185v-5c0-2.226-1.938-2.932-4.071-2.932a6.737,6.737,0,0,0-4.05,1.222l.964,1.43a4.3,4.3,0,0,1,2.664-.914c1.224,0,2.036.516,2.036,1.3v.977a4.223,4.223,0,0,0-2.935-.95c-1.473,0-3.205.679-3.205,2.507,0,1.738,1.733,2.57,3.205,2.57a4.149,4.149,0,0,0,2.935-1.014v.814h2.458ZM63.411,83.218H60.975v7.746h2.436Zm-1.234-.833a1.359,1.359,0,0,0,1.462-1.222,1.345,1.345,0,0,0-1.462-1.2,1.331,1.331,0,0,0-1.44,1.2,1.352,1.352,0,0,0,1.44,1.222m-3.314-2.118H56.416V90.973h2.436V80.268Zm-8.858,9.511c-.964,0-1.743-.416-1.743-1.158s.79-1.167,1.743-1.167a2.714,2.714,0,0,1,1.96.688V89.1a2.635,2.635,0,0,1-1.96.679m4.418,1.185v-5c0-2.226-1.938-2.932-4.071-2.932A6.737,6.737,0,0,0,46.3,84.25l.964,1.43a4.3,4.3,0,0,1,2.664-.914c1.224,0,2.036.516,2.036,1.3v.977a4.223,4.223,0,0,0-2.935-.95c-1.483,0-3.205.679-3.205,2.507,0,1.738,1.733,2.57,3.205,2.57a4.149,4.149,0,0,0,2.935-1.014v.814h2.458Zm-12.193,0V85.842a3.365,3.365,0,0,1,2.285-.878,4.233,4.233,0,0,1,.671.045V83.019a4.373,4.373,0,0,0-2.956,1.24V83.218H39.794v7.746h2.436Zm-5.6.2a3.443,3.443,0,0,0,2.036-.5l-.52-1.557a1.371,1.371,0,0,1-.845.244.8.8,0,0,1-.845-.869V85h1.884V83.218H36.459V81.1H34.023v2.118H32.485V85h1.538v4.027c-.011,1.394.9,2.136,2.61,2.136m-8.619,0c2.577,0,4.028-1.041,4.028-2.471,0-3.131-5.512-2.163-5.512-3.3,0-.434.574-.751,1.462-.751a4.475,4.475,0,0,1,2.75.9l.975-1.448a6.69,6.69,0,0,0-3.725-1.059c-2.458,0-3.8,1.14-3.8,2.434,0,3.05,5.49,2.009,5.49,3.276,0,.48-.5.824-1.559.824a5.884,5.884,0,0,1-3.205-1.077L23.855,89.96a7.107,7.107,0,0,0,4.158,1.2m-5.458-.2V83.218H20.119v5.249a2.913,2.913,0,0,1-2.112.878c-1.04,0-1.711-.353-1.711-1.43V83.209H13.86v5.5c0,1.511.964,2.443,3,2.443a4.848,4.848,0,0,0,3.259-1.167v.977h2.436ZM8.641,87.145h-4l1.992-4.606Zm4.645,3.819-4.938-10.7H4.938L0,90.964H3.086l.812-1.81h5.49l.8,1.81Z" transform="translate(0 8.828)" fill="gray"/>
</svg>
