<svg id="Layer_1-2" xmlns="http://www.w3.org/2000/svg" width="372" height="105" viewBox="0 0 372 105">
  <g id="Group_22" data-name="Group 22">
    <g id="Group_19" data-name="Group 19" transform="translate(113.232 77.351)">
      <path id="Path_587" data-name="Path 587" d="M121.667,87.661h-1.672l-.927-2.548h-4.09l-.927,2.548H112.43l3.677-9.741H118l3.677,9.741Zm-6.245-3.838h3.2l-1.592-4.543Z" transform="translate(-112.43 -76.862)" fill="#fff"/>
      <path id="Path_588" data-name="Path 588" d="M125.62,87.795a3.453,3.453,0,0,1-1.34-.262,2.065,2.065,0,0,1-.977-.856,2.894,2.894,0,0,1-.373-1.531V80.28h1.581v4.472a1.808,1.808,0,0,0,.423,1.38,1.744,1.744,0,0,0,1.2.373,2.177,2.177,0,0,0,.715-.121,1.665,1.665,0,0,0,.625-.4,1.822,1.822,0,0,0,.433-.705,3.029,3.029,0,0,0,.151-1.007v-4h1.581v7.374h-1.39l-.071-1.2a2.351,2.351,0,0,1-1.038,1.017,3.463,3.463,0,0,1-1.531.322Z" transform="translate(-112.353 -76.845)" fill="#fff"/>
      <path id="Path_589" data-name="Path 589" d="M134.855,87.8a4.8,4.8,0,0,1-2.025-.423,3.49,3.49,0,0,1-1.451-1.209l1.088-.947a2.4,2.4,0,0,0,.937.967,2.843,2.843,0,0,0,1.471.363,2.168,2.168,0,0,0,1.078-.232.756.756,0,0,0,.4-.665.729.729,0,0,0-.181-.494,1.309,1.309,0,0,0-.705-.332l-1.551-.322a3.235,3.235,0,0,1-1.682-.755,1.866,1.866,0,0,1-.5-1.33,1.961,1.961,0,0,1,.353-1.118,2.5,2.5,0,0,1,1.038-.836,3.883,3.883,0,0,1,1.642-.312,4.132,4.132,0,0,1,1.884.393,2.858,2.858,0,0,1,1.2,1.118l-1.088.917a1.888,1.888,0,0,0-.826-.876,2.422,2.422,0,0,0-1.138-.292,2.486,2.486,0,0,0-.816.121,1.128,1.128,0,0,0-.514.322.722.722,0,0,0-.181.484.672.672,0,0,0,.222.514,1.59,1.59,0,0,0,.8.342l1.682.353a2.649,2.649,0,0,1,1.5.705,1.738,1.738,0,0,1,.433,1.2,2.125,2.125,0,0,1-.373,1.249,2.455,2.455,0,0,1-1.058.836,4.106,4.106,0,0,1-1.652.292Z" transform="translate(-112.291 -76.846)" fill="#fff"/>
      <path id="Path_590" data-name="Path 590" d="M144.49,80.286v1.239h-5.53V80.286Zm-2.538-2.166v7.333a1.012,1.012,0,0,0,.292.8,1.124,1.124,0,0,0,.776.252,1.861,1.861,0,0,0,.7-.121,1.91,1.91,0,0,0,.544-.342l.353,1.148a2.311,2.311,0,0,1-.836.463,3.439,3.439,0,0,1-1.1.171,3.347,3.347,0,0,1-1.169-.2,1.66,1.66,0,0,1-.826-.675,2.3,2.3,0,0,1-.312-1.219V78.573l1.581-.443Z" transform="translate(-112.236 -76.861)" fill="#fff"/>
      <path id="Path_591" data-name="Path 591" d="M146,87.645V80.271h1.34l.151,1.33a2.349,2.349,0,0,1,.876-1.1,2.6,2.6,0,0,1,1.44-.373,2.2,2.2,0,0,1,.443.04,1.165,1.165,0,0,1,.373.111l-.222,1.39a3.127,3.127,0,0,0-.363-.1,3.5,3.5,0,0,0-.534-.04,1.845,1.845,0,0,0-.9.242,2.024,2.024,0,0,0-.735.725,2.4,2.4,0,0,0-.292,1.239v3.908H146Z" transform="translate(-112.185 -76.846)" fill="#fff"/>
      <path id="Path_592" data-name="Path 592" d="M156.174,82.91a1.4,1.4,0,0,0-1.521-1.541,1.987,1.987,0,0,0-1.138.312,1.817,1.817,0,0,0-.7,1.007l-1.33-.564a2.652,2.652,0,0,1,1.1-1.451,3.746,3.746,0,0,1,2.115-.544,3.789,3.789,0,0,1,1.561.292,2.391,2.391,0,0,1,1.068.866,2.569,2.569,0,0,1,.393,1.481v3.294a.481.481,0,0,0,.544.544,1.712,1.712,0,0,0,.514-.071l-.091,1.088a1.939,1.939,0,0,1-.856.161,2.081,2.081,0,0,1-.846-.171,1.337,1.337,0,0,1-.594-.514,1.624,1.624,0,0,1-.212-.866v-.1h.322a1.839,1.839,0,0,1-.544.937,2.767,2.767,0,0,1-.957.564,3.5,3.5,0,0,1-1.108.181,3.285,3.285,0,0,1-1.249-.222,1.882,1.882,0,0,1-.866-.675,1.9,1.9,0,0,1-.322-1.118,1.844,1.844,0,0,1,.534-1.36,2.909,2.909,0,0,1,1.531-.725l2.861-.564V84.26l-2.1.423a2.32,2.32,0,0,0-.927.342.832.832,0,0,0,0,1.3,1.361,1.361,0,0,0,.846.242,2.841,2.841,0,0,0,.715-.091,1.857,1.857,0,0,0,.625-.282,1.264,1.264,0,0,0,.433-.514,1.743,1.743,0,0,0,.151-.755v-2Z" transform="translate(-112.145 -76.846)" fill="#fff"/>
      <path id="Path_593" data-name="Path 593" d="M161.791,76.97V85.6a1.118,1.118,0,0,0,.191.755.831.831,0,0,0,.635.212,1.992,1.992,0,0,0,.453-.04,2.53,2.53,0,0,0,.463-.141l-.181,1.179a2.4,2.4,0,0,1-.574.181,3.606,3.606,0,0,1-.645.071,1.87,1.87,0,0,1-1.451-.514,2.271,2.271,0,0,1-.463-1.571V76.97H161.8Z" transform="translate(-112.081 -76.869)" fill="#fff"/>
      <path id="Path_594" data-name="Path 594" d="M165.628,79.054a1.1,1.1,0,0,1-.786-.262.958.958,0,0,1-.272-.735.935.935,0,0,1,.272-.725,1.1,1.1,0,0,1,.786-.252,1.074,1.074,0,0,1,.776.252.95.95,0,0,1,.272.725.988.988,0,0,1-.272.735A1.094,1.094,0,0,1,165.628,79.054Zm.786,1.239v7.374h-1.581V80.293Z" transform="translate(-112.049 -76.868)" fill="#fff"/>
      <path id="Path_595" data-name="Path 595" d="M173.1,82.91a1.4,1.4,0,0,0-1.521-1.541,1.987,1.987,0,0,0-1.138.312,1.817,1.817,0,0,0-.7,1.007l-1.33-.564a2.652,2.652,0,0,1,1.1-1.451,3.746,3.746,0,0,1,2.115-.544,3.789,3.789,0,0,1,1.561.292,2.391,2.391,0,0,1,1.068.866,2.569,2.569,0,0,1,.393,1.481v3.294a.481.481,0,0,0,.544.544,1.712,1.712,0,0,0,.514-.071l-.091,1.088a1.939,1.939,0,0,1-.856.161,2.081,2.081,0,0,1-.846-.171,1.337,1.337,0,0,1-.594-.514,1.624,1.624,0,0,1-.212-.866v-.1h.322a1.839,1.839,0,0,1-.544.937,2.767,2.767,0,0,1-.957.564,3.5,3.5,0,0,1-1.108.181,3.285,3.285,0,0,1-1.249-.222,1.882,1.882,0,0,1-.866-.675,1.9,1.9,0,0,1-.322-1.118,1.844,1.844,0,0,1,.534-1.36,2.909,2.909,0,0,1,1.531-.725l2.861-.564V84.26l-2.1.423a2.319,2.319,0,0,0-.927.342.832.832,0,0,0,0,1.3,1.361,1.361,0,0,0,.846.242,2.841,2.841,0,0,0,.715-.091,1.857,1.857,0,0,0,.625-.282,1.264,1.264,0,0,0,.433-.514,1.742,1.742,0,0,0,.151-.755v-2Z" transform="translate(-112.021 -76.846)" fill="#fff"/>
      <path id="Path_596" data-name="Path 596" d="M177.19,87.645V80.271h1.4l.1,1.914-.212-.2a2.841,2.841,0,0,1,.594-1.058,2.374,2.374,0,0,1,.927-.614,3.272,3.272,0,0,1,1.148-.191,3.217,3.217,0,0,1,1.41.3,2.341,2.341,0,0,1,1,.907,2.851,2.851,0,0,1,.373,1.531v4.785h-1.581V83.353a2.021,2.021,0,0,0-.453-1.511,1.584,1.584,0,0,0-1.128-.423,2.151,2.151,0,0,0-.947.232,1.822,1.822,0,0,0-.755.735,2.587,2.587,0,0,0-.3,1.34v3.929H177.18Z" transform="translate(-111.957 -76.846)" fill="#fff"/>
      <path id="Path_597" data-name="Path 597" d="M195.209,77.93a3.72,3.72,0,0,1,2.488.786,2.866,2.866,0,0,1,0,4.221,3.856,3.856,0,0,1-2.488.745l-.151.091H192.8v3.9H191.24V77.93h3.969Zm-.121,4.533a2.154,2.154,0,0,0,1.42-.393,1.782,1.782,0,0,0,0-2.4,2.171,2.171,0,0,0-1.42-.4H192.8v3.183h2.287Zm.927.322,3.173,4.885h-1.813l-2.72-4.261,1.36-.625Z" transform="translate(-111.854 -76.862)" fill="#fff"/>
      <path id="Path_598" data-name="Path 598" d="M203.907,87.8a4.016,4.016,0,0,1-1.944-.453,3.18,3.18,0,0,1-1.31-1.32,4.788,4.788,0,0,1,0-4.11,3.194,3.194,0,0,1,1.289-1.32,3.848,3.848,0,0,1,1.874-.453,3.659,3.659,0,0,1,1.833.443,2.887,2.887,0,0,1,1.148,1.209,3.766,3.766,0,0,1,.4,1.743c0,.181,0,.342-.01.5a4.1,4.1,0,0,1-.04.413h-5.933V83.243h5.238l-.786.232a2.2,2.2,0,0,0-.5-1.541,1.776,1.776,0,0,0-1.37-.544,2.089,2.089,0,0,0-1.108.292,1.911,1.911,0,0,0-.725.876,3.547,3.547,0,0,0-.252,1.42,3.405,3.405,0,0,0,.262,1.4,1.881,1.881,0,0,0,.755.866,2.118,2.118,0,0,0,1.148.292,2.248,2.248,0,0,0,1.2-.282,1.96,1.96,0,0,0,.725-.786l1.249.594a3.051,3.051,0,0,1-.715.927,2.988,2.988,0,0,1-1.068.594,4.187,4.187,0,0,1-1.36.2Z" transform="translate(-111.788 -76.846)" fill="#fff"/>
      <path id="Path_599" data-name="Path 599" d="M213.549,80.295v1.239H208.24V80.295Zm-1.36-3.425a3.12,3.12,0,0,1,.836.1,1.4,1.4,0,0,1,.564.262l-.292,1.138a1.116,1.116,0,0,0-.373-.151,2.2,2.2,0,0,0-.473-.05,1.435,1.435,0,0,0-.947.282,1.1,1.1,0,0,0-.342.917v1.078l.04.393v6.85H209.62V79.247a2.894,2.894,0,0,1,.171-1.007,1.773,1.773,0,0,1,.514-.745,2.222,2.222,0,0,1,.816-.453,3.552,3.552,0,0,1,1.068-.151Z" transform="translate(-111.73 -76.87)" fill="#fff"/>
      <path id="Path_600" data-name="Path 600" d="M218.007,87.8a4.016,4.016,0,0,1-1.944-.453,3.18,3.18,0,0,1-1.31-1.32,4.788,4.788,0,0,1,0-4.11,3.194,3.194,0,0,1,1.289-1.32,3.848,3.848,0,0,1,1.874-.453,3.659,3.659,0,0,1,1.833.443,2.887,2.887,0,0,1,1.148,1.209,3.766,3.766,0,0,1,.4,1.743c0,.181,0,.342-.01.5a4.1,4.1,0,0,1-.04.413h-5.933V83.243h5.238l-.786.232a2.2,2.2,0,0,0-.5-1.541,1.776,1.776,0,0,0-1.37-.544,2.089,2.089,0,0,0-1.108.292,1.911,1.911,0,0,0-.725.876,3.547,3.547,0,0,0-.252,1.42,3.4,3.4,0,0,0,.262,1.4,1.881,1.881,0,0,0,.755.866,2.118,2.118,0,0,0,1.148.292,2.247,2.247,0,0,0,1.2-.282,1.96,1.96,0,0,0,.725-.786l1.249.594a3.051,3.051,0,0,1-.715.927,2.988,2.988,0,0,1-1.068.594,4.187,4.187,0,0,1-1.36.2Z" transform="translate(-111.685 -76.846)" fill="#fff"/>
      <path id="Path_601" data-name="Path 601" d="M223.23,87.645V80.271h1.34l.151,1.33a2.349,2.349,0,0,1,.876-1.1,2.6,2.6,0,0,1,1.44-.373,2.2,2.2,0,0,1,.443.04,1.165,1.165,0,0,1,.373.111l-.222,1.39a3.127,3.127,0,0,0-.363-.1,3.5,3.5,0,0,0-.534-.04,1.845,1.845,0,0,0-.9.242,1.95,1.95,0,0,0-.735.725,2.4,2.4,0,0,0-.292,1.239v3.908Z" transform="translate(-111.62 -76.846)" fill="#fff"/>
      <path id="Path_602" data-name="Path 602" d="M232.347,87.8a4.016,4.016,0,0,1-1.944-.453,3.18,3.18,0,0,1-1.309-1.32,4.788,4.788,0,0,1,0-4.11,3.193,3.193,0,0,1,1.289-1.32,3.848,3.848,0,0,1,1.874-.453,3.659,3.659,0,0,1,1.833.443,2.887,2.887,0,0,1,1.148,1.209,3.766,3.766,0,0,1,.4,1.743c0,.181,0,.342-.01.5a4.1,4.1,0,0,1-.04.413h-5.933V83.243H234.9l-.786.232a2.2,2.2,0,0,0-.5-1.541,1.776,1.776,0,0,0-1.37-.544,2.089,2.089,0,0,0-1.108.292,1.911,1.911,0,0,0-.725.876,3.546,3.546,0,0,0-.252,1.42,3.405,3.405,0,0,0,.262,1.4,1.881,1.881,0,0,0,.755.866,2.118,2.118,0,0,0,1.148.292,2.247,2.247,0,0,0,1.2-.282,1.959,1.959,0,0,0,.725-.786l1.249.594a3.052,3.052,0,0,1-.715.927,2.988,2.988,0,0,1-1.068.594,4.188,4.188,0,0,1-1.36.2Z" transform="translate(-111.58 -76.846)" fill="#fff"/>
      <path id="Path_603" data-name="Path 603" d="M237.57,87.645V80.271h1.4l.1,1.914-.212-.2a2.841,2.841,0,0,1,.594-1.058,2.374,2.374,0,0,1,.927-.614,3.272,3.272,0,0,1,1.148-.191,3.217,3.217,0,0,1,1.41.3,2.285,2.285,0,0,1,1,.907,2.945,2.945,0,0,1,.373,1.531v4.785h-1.581V83.353a2.021,2.021,0,0,0-.453-1.511,1.584,1.584,0,0,0-1.128-.423,2.15,2.15,0,0,0-.947.232,1.765,1.765,0,0,0-.755.735,2.587,2.587,0,0,0-.3,1.34v3.929H237.56Z" transform="translate(-111.515 -76.846)" fill="#fff"/>
      <path id="Path_604" data-name="Path 604" d="M249.827,80.12a3.942,3.942,0,0,1,1.511.262,3,3,0,0,1,1.058.725,3.169,3.169,0,0,1,.645,1.078l-1.491.594a2.074,2.074,0,0,0-.614-1.038,1.622,1.622,0,0,0-1.1-.363,2.04,2.04,0,0,0-1.138.3,1.883,1.883,0,0,0-.715.876,3.668,3.668,0,0,0-.242,1.42,3.38,3.38,0,0,0,.252,1.4,1.883,1.883,0,0,0,.725.866,2.013,2.013,0,0,0,1.118.292,2.076,2.076,0,0,0,.866-.171,1.6,1.6,0,0,0,.614-.484,1.872,1.872,0,0,0,.332-.776l1.43.484a3.185,3.185,0,0,1-.645,1.158,2.919,2.919,0,0,1-1.088.766,3.821,3.821,0,0,1-1.491.272,4.032,4.032,0,0,1-1.934-.453,3.18,3.18,0,0,1-1.31-1.32,4.788,4.788,0,0,1,0-4.11,3.216,3.216,0,0,1,1.3-1.32,3.9,3.9,0,0,1,1.894-.453Z" transform="translate(-111.452 -76.846)" fill="#fff"/>
      <path id="Path_605" data-name="Path 605" d="M258.117,87.8a4.016,4.016,0,0,1-1.944-.453,3.18,3.18,0,0,1-1.31-1.32,4.788,4.788,0,0,1,0-4.11,3.193,3.193,0,0,1,1.289-1.32,3.848,3.848,0,0,1,1.874-.453,3.659,3.659,0,0,1,1.833.443,2.887,2.887,0,0,1,1.148,1.209,3.767,3.767,0,0,1,.4,1.743c0,.181,0,.342-.01.5a4.11,4.11,0,0,1-.04.413h-5.933V83.243h5.238l-.786.232a2.2,2.2,0,0,0-.5-1.541,1.776,1.776,0,0,0-1.37-.544,2.089,2.089,0,0,0-1.108.292,1.911,1.911,0,0,0-.725.876,3.547,3.547,0,0,0-.252,1.42,3.405,3.405,0,0,0,.262,1.4,1.881,1.881,0,0,0,.755.866,2.119,2.119,0,0,0,1.148.292,2.248,2.248,0,0,0,1.2-.282,1.96,1.96,0,0,0,.725-.786l1.249.594a3.052,3.052,0,0,1-.715.927,2.988,2.988,0,0,1-1.068.594,4.188,4.188,0,0,1-1.36.2Z" transform="translate(-111.392 -76.846)" fill="#fff"/>
      <path id="Path_606" data-name="Path 606" d="M272.273,87.813a4.533,4.533,0,0,1-2.377-.6,4.053,4.053,0,0,1-1.561-1.723,5.957,5.957,0,0,1-.564-2.69,5.618,5.618,0,0,1,.584-2.669,4.156,4.156,0,0,1,1.652-1.733,4.917,4.917,0,0,1,2.458-.614,4.773,4.773,0,0,1,2.458.564,3.97,3.97,0,0,1,1.5,1.743l-1.461.7a2.253,2.253,0,0,0-.927-1.219,2.836,2.836,0,0,0-1.561-.4,2.969,2.969,0,0,0-1.6.423,2.842,2.842,0,0,0-1.068,1.249,4.662,4.662,0,0,0-.383,1.974,5.075,5.075,0,0,0,.342,1.984,2.579,2.579,0,0,0,1.027,1.249,3.148,3.148,0,0,0,1.692.423,3.652,3.652,0,0,0,1.017-.141,2.447,2.447,0,0,0,.826-.413,1.886,1.886,0,0,0,.554-.7,2.347,2.347,0,0,0,.2-1v-.282h-2.831V82.655h4.231v5.016H275.3l-.091-1.964.292.151a2.873,2.873,0,0,1-1.168,1.451,3.792,3.792,0,0,1-2.055.514Z" transform="translate(-111.294 -76.863)" fill="#fff"/>
      <path id="Path_607" data-name="Path 607" d="M281.947,87.8A4.016,4.016,0,0,1,280,87.342a3.18,3.18,0,0,1-1.31-1.32,4.788,4.788,0,0,1,0-4.11,3.193,3.193,0,0,1,1.289-1.32,3.848,3.848,0,0,1,1.874-.453,3.659,3.659,0,0,1,1.833.443,2.888,2.888,0,0,1,1.148,1.209,3.767,3.767,0,0,1,.4,1.743c0,.181,0,.342-.01.5a3.888,3.888,0,0,1-.05.413h-5.933V83.243h5.238l-.786.232a2.2,2.2,0,0,0-.5-1.541,1.776,1.776,0,0,0-1.37-.544,2.089,2.089,0,0,0-1.108.292,1.911,1.911,0,0,0-.725.876,3.547,3.547,0,0,0-.252,1.42,3.4,3.4,0,0,0,.262,1.4,1.881,1.881,0,0,0,.755.866,2.118,2.118,0,0,0,1.148.292,2.247,2.247,0,0,0,1.2-.282,1.959,1.959,0,0,0,.725-.786l1.249.594a3.052,3.052,0,0,1-.715.927,2.988,2.988,0,0,1-1.068.594,4.188,4.188,0,0,1-1.36.2Z" transform="translate(-111.218 -76.846)" fill="#fff"/>
      <path id="Path_608" data-name="Path 608" d="M287.16,87.645V80.271h1.4l.1,1.914-.212-.2a2.841,2.841,0,0,1,.594-1.058,2.374,2.374,0,0,1,.927-.614,3.272,3.272,0,0,1,1.148-.191,3.217,3.217,0,0,1,1.41.3,2.285,2.285,0,0,1,1,.907,2.944,2.944,0,0,1,.373,1.531v4.785h-1.581V83.353a2.021,2.021,0,0,0-.453-1.511,1.584,1.584,0,0,0-1.128-.423,2.151,2.151,0,0,0-.947.232,1.766,1.766,0,0,0-.755.735,2.587,2.587,0,0,0-.3,1.34v3.929H287.15Z" transform="translate(-111.153 -76.846)" fill="#fff"/>
      <path id="Path_609" data-name="Path 609" d="M299.437,80.12a3.912,3.912,0,0,1,1.9.453,3.194,3.194,0,0,1,1.289,1.32,4.788,4.788,0,0,1,0,4.11,3.194,3.194,0,0,1-1.289,1.32,4.225,4.225,0,0,1-3.808,0,3.217,3.217,0,0,1-1.3-1.32,4.7,4.7,0,0,1,0-4.11,3.217,3.217,0,0,1,1.3-1.32A3.911,3.911,0,0,1,299.437,80.12Zm0,1.239a2.029,2.029,0,0,0-1.128.3,1.945,1.945,0,0,0-.715.876,4.1,4.1,0,0,0,0,2.831,1.921,1.921,0,0,0,.715.886,2.029,2.029,0,0,0,1.128.3,1.971,1.971,0,0,0,1.118-.3,1.9,1.9,0,0,0,.705-.886,3.677,3.677,0,0,0,.252-1.41,3.513,3.513,0,0,0-.252-1.42,1.993,1.993,0,0,0-.705-.876A1.972,1.972,0,0,0,299.437,81.359Z" transform="translate(-111.09 -76.846)" fill="#fff"/>
      <path id="Path_610" data-name="Path 610" d="M305.02,87.645V80.271h1.4l.071,1.239a2.4,2.4,0,0,1,1.027-1.048,2.937,2.937,0,0,1,1.37-.342,3.058,3.058,0,0,1,1.471.363,2.3,2.3,0,0,1,1.007,1.088,2.348,2.348,0,0,1,.655-.816,2.86,2.86,0,0,1,.917-.484,3.408,3.408,0,0,1,.987-.151,3.128,3.128,0,0,1,1.33.292,2.393,2.393,0,0,1,1.007.9,2.877,2.877,0,0,1,.383,1.551v4.785h-1.582V83.112a1.723,1.723,0,0,0-.423-1.3,1.542,1.542,0,0,0-1.088-.4,1.837,1.837,0,0,0-1.662,1,2.507,2.507,0,0,0-.262,1.219v4.009h-1.582V83.1a1.723,1.723,0,0,0-.423-1.3,1.542,1.542,0,0,0-1.088-.4,1.94,1.94,0,0,0-.886.232,1.842,1.842,0,0,0-.735.735,2.552,2.552,0,0,0-.292,1.33v3.929H305.04Z" transform="translate(-111.022 -76.846)" fill="#fff"/>
      <path id="Path_611" data-name="Path 611" d="M322.167,87.8a4.016,4.016,0,0,1-1.944-.453,3.18,3.18,0,0,1-1.309-1.32,4.788,4.788,0,0,1,0-4.11,3.193,3.193,0,0,1,1.289-1.32,3.848,3.848,0,0,1,1.874-.453,3.66,3.66,0,0,1,1.833.443,2.888,2.888,0,0,1,1.148,1.209,3.766,3.766,0,0,1,.4,1.743c0,.181,0,.342-.01.5a4.091,4.091,0,0,1-.04.413h-5.933V83.243h5.238l-.786.232a2.2,2.2,0,0,0-.5-1.541,1.776,1.776,0,0,0-1.37-.544,2.089,2.089,0,0,0-1.108.292,1.911,1.911,0,0,0-.725.876,3.547,3.547,0,0,0-.252,1.42,3.405,3.405,0,0,0,.262,1.4,1.881,1.881,0,0,0,.755.866,2.118,2.118,0,0,0,1.148.292,2.248,2.248,0,0,0,1.2-.282,1.96,1.96,0,0,0,.725-.786l1.249.594a3.053,3.053,0,0,1-.715.927,2.988,2.988,0,0,1-1.068.594,4.188,4.188,0,0,1-1.36.2Z" transform="translate(-110.924 -76.846)" fill="#fff"/>
      <path id="Path_612" data-name="Path 612" d="M339.947,87.661h-1.672l-.927-2.548h-4.09l-.927,2.548H330.71l3.677-9.741h1.884l3.677,9.741ZM333.7,83.823h3.2l-1.592-4.543Z" transform="translate(-110.834 -76.862)" fill="#fff"/>
      <path id="Path_613" data-name="Path 613" d="M345.61,80.286v1.239h-5.53V80.286Zm-2.538-2.166v7.333a1.012,1.012,0,0,0,.292.8,1.124,1.124,0,0,0,.776.252,1.861,1.861,0,0,0,.7-.121,2.061,2.061,0,0,0,.544-.342l.353,1.148a2.311,2.311,0,0,1-.836.463,3.439,3.439,0,0,1-1.1.171,3.347,3.347,0,0,1-1.168-.2,1.7,1.7,0,0,1-.826-.675,2.294,2.294,0,0,1-.312-1.219V78.573l1.581-.443Z" transform="translate(-110.766 -76.861)" fill="#fff"/>
      <path id="Path_614" data-name="Path 614" d="M348.651,76.97V85.6a1.118,1.118,0,0,0,.191.755.831.831,0,0,0,.635.212,1.937,1.937,0,0,0,.453-.04,2.53,2.53,0,0,0,.463-.141l-.181,1.179a2.4,2.4,0,0,1-.574.181,3.508,3.508,0,0,1-.645.071,1.87,1.87,0,0,1-1.451-.514,2.271,2.271,0,0,1-.463-1.571V76.97h1.582Z" transform="translate(-110.714 -76.869)" fill="#fff"/>
      <path id="Path_615" data-name="Path 615" d="M355.984,82.91a1.4,1.4,0,0,0-1.521-1.541,1.987,1.987,0,0,0-1.138.312,1.817,1.817,0,0,0-.7,1.007l-1.33-.564a2.7,2.7,0,0,1,1.1-1.451,3.746,3.746,0,0,1,2.115-.544,3.788,3.788,0,0,1,1.561.292,2.391,2.391,0,0,1,1.068.866,2.569,2.569,0,0,1,.393,1.481v3.294a.481.481,0,0,0,.544.544,1.712,1.712,0,0,0,.514-.071l-.091,1.088a1.939,1.939,0,0,1-.856.161,2.08,2.08,0,0,1-.846-.171,1.337,1.337,0,0,1-.594-.514,1.624,1.624,0,0,1-.211-.866v-.1h.322a1.839,1.839,0,0,1-.544.937,2.767,2.767,0,0,1-.957.564,3.5,3.5,0,0,1-1.108.181,3.285,3.285,0,0,1-1.249-.222A1.8,1.8,0,0,1,351.28,85.8a1.814,1.814,0,0,1,.544-1.36,2.948,2.948,0,0,1,1.531-.725l2.861-.564V84.26l-2.1.423a2.32,2.32,0,0,0-.927.342.737.737,0,0,0-.312.645.767.767,0,0,0,.312.655,1.361,1.361,0,0,0,.846.242,2.84,2.84,0,0,0,.715-.091,1.857,1.857,0,0,0,.625-.282,1.347,1.347,0,0,0,.433-.514,1.742,1.742,0,0,0,.151-.755v-2Z" transform="translate(-110.684 -76.846)" fill="#fff"/>
      <path id="Path_616" data-name="Path 616" d="M362.875,87.8a4.8,4.8,0,0,1-2.025-.423,3.49,3.49,0,0,1-1.451-1.209l1.088-.947a2.4,2.4,0,0,0,.937.967,2.843,2.843,0,0,0,1.471.363,2.167,2.167,0,0,0,1.078-.232.746.746,0,0,0,.393-.665.729.729,0,0,0-.181-.494,1.309,1.309,0,0,0-.705-.332l-1.551-.322a3.235,3.235,0,0,1-1.682-.755,1.866,1.866,0,0,1-.5-1.33A1.961,1.961,0,0,1,360.1,81.3a2.5,2.5,0,0,1,1.038-.836,3.883,3.883,0,0,1,1.642-.312,4.132,4.132,0,0,1,1.884.393,2.858,2.858,0,0,1,1.2,1.118l-1.088.917a1.888,1.888,0,0,0-.826-.876,2.422,2.422,0,0,0-1.138-.292,2.486,2.486,0,0,0-.816.121,1.076,1.076,0,0,0-.514.322.722.722,0,0,0-.181.484.672.672,0,0,0,.222.514,1.59,1.59,0,0,0,.8.342l1.682.353a2.649,2.649,0,0,1,1.5.705,1.738,1.738,0,0,1,.433,1.2,2.125,2.125,0,0,1-.373,1.249,2.455,2.455,0,0,1-1.058.836,4.106,4.106,0,0,1-1.652.292Z" transform="translate(-110.624 -76.846)" fill="#fff"/>
    </g>
    <g id="Group_20" data-name="Group 20" transform="translate(115.478 12.712)">
      <path id="Path_617" data-name="Path 617" d="M139.974,13.17h11.987l25.324,58.424H163.7L158.3,58.58H133.315l-5.4,13.014H114.66L139.984,13.17Zm13.679,34.138-7.847-18.817-7.847,18.817h15.7Z" transform="translate(-114.66 -12.596)" fill="#fff"/>
      <path id="Path_618" data-name="Path 618" d="M185.88,13.58h27.006c7.515,0,13.337,2.075,17.215,5.883,3.294,3.233,5.067,7.787,5.067,13.256v.171c0,9.368-5.147,15.251-12.662,17.981l14.435,20.72H221.75L209.088,53.026H198.874V71.591H185.88V13.58Zm26.17,28.174c6.326,0,9.962-3.314,9.962-8.2v-.161c0-5.47-3.878-8.29-10.214-8.29H198.884V41.765H212.05Z" transform="translate(-114.139 -12.593)" fill="#fff"/>
      <path id="Path_619" data-name="Path 619" d="M243.87,42.759V42.6c0-16.49,13.085-30,30.975-30,10.637,0,17.054,2.82,23.208,7.958l-8.189,9.7c-4.553-3.727-8.612-5.883-15.442-5.883-9.459,0-16.963,8.2-16.963,18.061v.171c0,10.607,7.424,18.394,17.89,18.394a20.983,20.983,0,0,0,12.239-3.485v-8.29H274.5V38.206h25.656V63.4a38.743,38.743,0,0,1-25.233,9.2c-18.4,0-31.065-12.682-31.065-29.837Z" transform="translate(-113.715 -12.6)" fill="#fff"/>
      <path id="Path_620" data-name="Path 620" d="M332.464,13.17h11.987l25.324,58.424H356.186l-5.4-13.014H325.805l-5.4,13.014H307.15L332.474,13.17Zm13.669,34.138-7.847-18.817-7.847,18.817h15.7Z" transform="translate(-113.253 -12.596)" fill="#fff"/>
    </g>
    <g id="Group_21" data-name="Group 21">
      <path id="Path_621" data-name="Path 621" d="M54.119.03c.907.413,1.833.786,2.74,1.158q4.5,1.813,9,3.636c.645.262,1.269.594,1.934.907l.232.111a.317.317,0,0,1,.191.081l.6.3c.363.212.766.393,1.138.6.534.312,1.078.614,1.612.927.141.081.272.161.373.222a19.6,19.6,0,0,1,5.329,4.553A8.225,8.225,0,0,1,79.1,17.89a4.566,4.566,0,0,1-2.488,4.16,8.366,8.366,0,0,1-2.831.886,21.693,21.693,0,0,1-6.044-.04c-.473-.06-.927-.141-1.491-.222.907-.373,1.7-.705,2.5-1.017a.83.83,0,0,1,.353-.04c.9.03,1.793.1,2.69.091a9.8,9.8,0,0,0,3.606-.645,3.388,3.388,0,0,0,2.287-3.808,7.509,7.509,0,0,0-1.944-4.321,13,13,0,0,0-2.4-2.246,1.066,1.066,0,0,1-.121-.1,13.183,13.183,0,0,0-1.158-.836h0c-.1-.06-.2-.131-.312-.191-.03-.03-.05-.04-.081-.071-.111-.071-.232-.141-.353-.212-.03,0-.05-.03-.081-.05-.141-.081-.292-.181-.433-.252l-.05-.03c-.06-.04-.131-.081-.191-.121L69.441,8.18c-.806-.423-1.592-.886-2.428-1.259-2.73-1.179-5.48-2.317-8.22-3.475-2.337-.987-4.674-1.964-6.991-3a7.282,7.282,0,0,1-.876-.463A51.9,51.9,0,0,0,16.99,13.458L52.014,48.482l35-35A51.91,51.91,0,0,0,54.119.03Zm13.7,20.448a34.507,34.507,0,0,1-14.384,2.649c-.131,0-.252-.03-.4-.04a21.162,21.162,0,0,1-.181-5.8,9.547,9.547,0,0,1,.836-3.062.613.613,0,0,1,.514-.413c.433-.05.866-.161,1.289-.252.705-.141,1.43-.272,2.186-.423v1.5l3.858-.745v1.2a.347.347,0,0,0,.292.4c.423.121.866.252,1.279.393a.3.3,0,0,0,.423-.161,2.249,2.249,0,0,1,4.14,1.239.367.367,0,0,0,.312.413c.9.252,1.783.524,2.679.806.161.06.393.222.413.363a.647.647,0,0,1-.312.443c-.967.524-1.924,1.058-2.931,1.491ZM40.561,2.488a.743.743,0,0,1,1.068-.131c.554.322,1.1.655,1.662.937A37.381,37.381,0,0,0,55.973,6.769,41,41,0,0,1,65.3,8.784,24.094,24.094,0,0,1,72.725,12.7a8.258,8.258,0,0,1,2.74,3.465,3.218,3.218,0,0,1-1.42,4.18,7.079,7.079,0,0,1-3.868.645c.232-.131.463-.242.685-.373.423-.282.826-.574,1.249-.866a2.183,2.183,0,0,1,.534-.342,1.957,1.957,0,0,0,1.43-2.911,6.669,6.669,0,0,0-1.833-2.357,20.313,20.313,0,0,0-5.52-3.294,36.033,36.033,0,0,0-9.036-2.438c-2-.282-4-.564-6-.866,0,0-.484-.1-1.148-.252,0,.02,0,.03.02.03-.584-.141-1.148-.292-1.722-.443l-.1-.03c-.242-.06-.473-.121-.705-.181h0a11.136,11.136,0,0,1-1.44-.463,26.082,26.082,0,0,1-5.742-2.659.737.737,0,0,1-.3-1.058Zm10.97,20.549h-.322a18.1,18.1,0,0,1-3.747-.484c-.292-.081-.423-.2-.453-.484-.131-.927-.322-1.864-.383-2.8a15.03,15.03,0,0,1,1.158-7c.1-.252.222-.342.494-.262,1.31.373,2.619.735,3.918,1.1a1.581,1.581,0,0,1,.322.151c-1.511,3.153-1.38,6.427-.977,9.781ZM45.5,22.09c-.282,0-.524.02-.755,0a.716.716,0,0,1-.423-.151,19.328,19.328,0,0,1-1.561-2.307,13.993,13.993,0,0,1-1.38-7.152.426.426,0,0,1,.393-.494,13.563,13.563,0,0,1,4.372-.252.755.755,0,0,1,.232.071,17.493,17.493,0,0,0-.876,10.3Zm-1.168,2.548.121-.06c.645.705,1.622.987,2.236,1.843l.141.534a.538.538,0,0,1,.1.383l.06.252c.141.594.282,1.168.413,1.743a.72.72,0,0,1-.5.917.712.712,0,0,1-.876-.6,12.962,12.962,0,0,1-.3-1.38,2.086,2.086,0,0,0-1.158-1.833c-.091-.04-.212-.161-.212-.252-.03-.514,0-1.027,0-1.541Zm1.592-.484a2.507,2.507,0,0,1-.363-.433l.081-.1c.645.151,1.269.342,1.924.433A2.982,2.982,0,0,1,49.4,25.223a2.324,2.324,0,0,1,.494,1c.191.745.292,1.5.423,2.266a.7.7,0,0,1-.544.876.8.8,0,0,1-.846-.655c-.121-.635-.242-1.269-.342-1.914a1.444,1.444,0,0,0-.554-.947c-.705-.544-1.4-1.118-2.1-1.692Zm-11.292-6.91A11.317,11.317,0,0,1,36.6,14.787a11.1,11.1,0,0,1,3.2-2.125c.1,1.189.141,2.357.322,3.516a12.629,12.629,0,0,0,2.73,6.286c.3.353.5.645.171,1.078a.511.511,0,0,0-.06.071,1.613,1.613,0,0,0-.232-.03,13.316,13.316,0,0,1-8.109-5.893.378.378,0,0,1,0-.443ZM33.238,25a10.14,10.14,0,0,1-.071-3.7c.141-.745.342-1.471.544-2.307a14.862,14.862,0,0,0,9.136,6.124,3.246,3.246,0,0,0,0,.443.514.514,0,0,1-.423.645,13.072,13.072,0,0,1-1.7.494,11.866,11.866,0,0,1-7.293-1.37.5.5,0,0,1-.2-.332ZM35.8,31.6a12.36,12.36,0,0,1-.806-1.41c-.463-.987-.876-2-1.31-3.012a1.349,1.349,0,0,1,.121-.06c2.982,1.2,6,1.692,9.126.484a3.285,3.285,0,0,1,.071.574,1.283,1.283,0,0,1-.181.574,3.025,3.025,0,0,1-.534.6,8.881,8.881,0,0,1-6.135,2.458.5.5,0,0,1-.363-.2Zm2.982,3.606a24.513,24.513,0,0,1-1.833-1.853l.05-.1A10.231,10.231,0,0,0,43.331,30.4a7.9,7.9,0,0,1,.252,1.189,3.134,3.134,0,0,1-.141,1.239,5.165,5.165,0,0,1-2.337,2.518,2.015,2.015,0,0,1-2.317-.141Zm17.366,5.429a9.247,9.247,0,0,1-1.481-.161c-.312-.05-.614-.141-1-.232a15.336,15.336,0,0,1,1.219,1.189,6.588,6.588,0,0,1,.947,1.36.864.864,0,0,1-.957,1.239,3.389,3.389,0,0,1-.947-.262c-.947-.423-1.894-.856-2.8-1.35a100.835,100.835,0,0,1-8.673-5.359c-.2-.141-.393-.282-.594-.433A7.5,7.5,0,0,0,44.9,33.2a3.851,3.851,0,0,1,.423.091c1.612.534,3.244,1.038,4.825,1.642a20.245,20.245,0,0,1,5.6,3.072,6.033,6.033,0,0,1,1.168,1.209.894.894,0,0,1-.776,1.43Zm7.061-7.787a.713.713,0,0,1-.745-.766,3.009,3.009,0,0,0-.766-1.783,1.207,1.207,0,0,0-1.32-.494,3.377,3.377,0,0,1-.645.03,11.2,11.2,0,0,1-4.825-.927.84.84,0,0,1-.544-.766c-.03-.423-.111-.836-.161-1.269-.091-.735-.181-1.471-.272-2.277.423,0,.776.02,1.128,0,.222-.02.3.06.322.292.091.816.232,1.632.312,2.458a.523.523,0,0,0,.423.524,10.556,10.556,0,0,0,4.785.473,1.221,1.221,0,0,1,1.048.272c.141.141.312.252.463.393a4.177,4.177,0,0,1,1.461,3c.02.514-.242.826-.655.846Zm3.042-2.972a.68.68,0,0,1-.7-.705,2.92,2.92,0,0,0-.967-2.055.875.875,0,0,0-.876-.312,6.044,6.044,0,0,1-.947.1,26.764,26.764,0,0,1-5.238-.05.835.835,0,0,1-.554-.413c-.222-.594-.363-1.209-.544-1.884.3-.03.534-.05.766-.071.816-.04.645-.191.846.6a.5.5,0,0,0,.544.443,27.176,27.176,0,0,0,5.278-.191,1.592,1.592,0,0,1,1.38.423,4.331,4.331,0,0,1,1.712,3.354.7.7,0,0,1-.705.735Z" transform="translate(0.104 0.02)" fill="#58a39d"/>
      <path id="Path_622" data-name="Path 622" d="M85.076,44.411a1.259,1.259,0,0,1-.373.875,1.218,1.218,0,0,1-.836.342h-.03a1.221,1.221,0,0,1-1.189-1.247,1.214,1.214,0,1,1,2.428.05Zm-2.77,3.831a6.717,6.717,0,0,0-1.753-3.469,2.328,2.328,0,0,0-2.5-.513,2.29,2.29,0,0,0-1.551,1.88,5.353,5.353,0,0,0-.081.885v.211s.04.865.1,1.166a16.793,16.793,0,0,0,.484,2.051,1.91,1.91,0,0,0,2.015,1.569,2.882,2.882,0,0,0,.494-.03,3.324,3.324,0,0,0,2.5-1.207,3.044,3.044,0,0,0,.3-2.544Zm-8.854-2.514h0a1.245,1.245,0,0,0-.876.372,1.174,1.174,0,0,0-.332.855,1.229,1.229,0,0,0,1.229,1.207h0a1.263,1.263,0,0,0,.876-.372,1.153,1.153,0,0,0,.353-.855,1.244,1.244,0,0,0-1.239-1.207ZM69.03,41.063l-.484-.141A14.665,14.665,0,0,0,66.8,40.5l-3.3,3.3a3.281,3.281,0,0,0,.826,1.317,9.076,9.076,0,0,0,3.566,2.011c.091.03.191.05.3.08l.594.131-.111-.422a10.479,10.479,0,0,1,.292-5.6l.06-.251Zm34.823,10.86a51.767,51.767,0,0,1-13.5,34.943l-4.392-4.384c.484-1.357,1.088-3.027,1.1-3.057l.05-.151c.373-1.016.735-2.041,1.1-3.067.292-.814.584-1.609.866-2.423a.272.272,0,0,0,.03-.111c0-.01-.03-.03-.121-.05l-.081-.03c-.272-.09-.625-.2-.735-.483a6.8,6.8,0,0,0-.645-1.146,7.393,7.393,0,0,1-.635-1.1,2.176,2.176,0,0,1,.574-2.353,4.149,4.149,0,0,1,3.918-1.579,1.955,1.955,0,0,0,.081-.221q.786-2.534,1.581-5.048c1.43-4.565,2.9-9.291,4.311-13.937.111-.372.242-.744.363-1.106a13.777,13.777,0,0,0,.886-4.143,1.476,1.476,0,0,0-.423-1.116c-.161-.171-.322-.332-.494-.493a9.1,9.1,0,0,1-1.017-1.126,1.883,1.883,0,0,1-.4-1.428,2.074,2.074,0,0,1,.917-1.327.534.534,0,0,0,.161-.171c.191-1.136.645-1.589,1.723-1.689a8.319,8.319,0,0,1,1.32.03c.131,0,.252.03.383.03l.121-.533a51.837,51.837,0,0,1,2.951,17.265Zm-11.927,17a1.694,1.694,0,0,0-2.015-.392,4.97,4.97,0,0,0-1.43,1.1,1.251,1.251,0,0,0-.191.925c.03.111.091.161.5.141h.181a.534.534,0,0,1,.161.04l.2.08v.231a1.465,1.465,0,0,1-.03.221,1.723,1.723,0,0,0-.081.422c0,.372.05.483.081.5.03,0,.2-.05.3-.07.071-.02.141-.03.2-.05a.38.38,0,0,0,.151-.07,1.2,1.2,0,0,1,.161-.08l.514-.251-.151.543c-.02.06-.03.111-.05.161a.22.22,0,0,1-.03.08c0,.04.02.111.03.181a.864.864,0,0,0,.081.352.839.839,0,0,0,.524,0,4.574,4.574,0,0,0,1.5-2.092,1.792,1.792,0,0,0-.6-1.991Zm3.113-2.3a4.72,4.72,0,0,0-.927-2.966l-.141.452c-.353,1.176-.7,2.343-1.038,3.519A.432.432,0,0,0,93,67.77l.111.161a5.1,5.1,0,0,1,.927,1.87A5.094,5.094,0,0,0,95.038,66.624Zm7.051-25.983a5.466,5.466,0,0,0-1.048-3.348,1.6,1.6,0,0,0-1.793-.674.891.891,0,0,0-.433.2.94.94,0,0,0,.242.362,9.544,9.544,0,0,0,.776.623c.121.08.232.171.353.251l.222.181-.554.593-.181-.08-.292-.161a5.5,5.5,0,0,0-.645-.322c-.423-.181-.776-.131-.947.141-.191.282-.071.463.262.825q.332.347.665.664c.242.231.484.463.705.7a2.115,2.115,0,0,1,.594,2.051c-.03.121-.02.171,0,.181h.04a.532.532,0,0,0,.141-.02,2.711,2.711,0,0,0,1.894-2.162Zm-6.124,9.422c-.02.221-.03.452-.05.674a12.662,12.662,0,0,1-.191,1.619,1.254,1.254,0,0,1-.433.613A1.04,1.04,0,0,0,95,53.29a1.421,1.421,0,0,0-.03.483,1.544,1.544,0,0,1-.05.674,2.024,2.024,0,0,1-1.833,1.207c-.766.1-1.521.171-2.266.2a1.084,1.084,0,0,0-1.007.583,28.506,28.506,0,0,1-4.372,5.51,2.2,2.2,0,0,0-.484.754c-.473,1.317-.927,2.635-1.39,3.952-.363,1.056-.735,2.112-1.108,3.178-.232.664-.484,1.327-.745,1.991l-.252.664a1.982,1.982,0,0,1,.252.131,4.883,4.883,0,0,1,2.418,2.665,1.573,1.573,0,0,1-.766,1.951.626.626,0,0,0-.262.312,1.593,1.593,0,0,1-.977,1.126l-1.662-1.659.282.131c.473.2.755.3.826.261a3.99,3.99,0,0,0-.02-1.086l-.03-.282H82.1a1.192,1.192,0,0,1,.2-.04,1.169,1.169,0,0,0,.363-.121,1.148,1.148,0,0,0-.141-.422A3.625,3.625,0,0,0,80.563,73.8a1.743,1.743,0,0,0-.584-.1,2.184,2.184,0,0,0-1.592.885,1.057,1.057,0,0,0-.141.2l-1.038-1.036a4.193,4.193,0,0,1,.705-.694,7.266,7.266,0,0,1,.927-.553c.05-.03.1-.05.141-.08a27.628,27.628,0,0,0-4.644-3.912l-2-1.327,2.236.865a19.08,19.08,0,0,1,3.092,1.438,20.577,20.577,0,0,1,1.914,1.378c.171.141.353.271.534.412l2.438-6.717c-.2.07-.393.131-.594.2-.816.261-1.581.513-2.387.714a9.762,9.762,0,0,1-6.467-.261,10.034,10.034,0,0,1-1.5-.865c-.091-.06-.191-.121-.282-.181v.04c-.02.362-.04.744-.05,1.126,0,.322-.03.644-.03.975-.03.483-.03.955-.04,1.438L55.32,51.9l6.568-6.556a8.4,8.4,0,0,0,3.586,3.238c.554.211,1.128.4,1.692.593.5.171,1.007.342,1.5.533a2.082,2.082,0,0,1,.876.623,10.228,10.228,0,0,0,10.315,4.143,9.952,9.952,0,0,0,8.189-7c.594-1.77,1.048-3.63,1.491-5.42L89.82,40.9,88.35,43.114l-.121-.633a9.7,9.7,0,0,0-2.79-4.867l-.2-.211.252-.171c.242-.171.473-.342.705-.513a13.747,13.747,0,0,1,1.571-1.046,2.418,2.418,0,0,1,2.115-.231,2.293,2.293,0,0,1,1.1,1.086l.081-.312c.242-.925.484-1.82.735-2.7.06-.231.03-.312-.171-.473a4.778,4.778,0,0,0-5.53-.523,16.732,16.732,0,0,0-2.115,1.448c-.282.221-.574.442-.876.644a.287.287,0,0,1-.121.141.375.375,0,0,1-.363,0,10.57,10.57,0,0,0-12.5,2.765.674.674,0,0,1-.645.261L90.344,16.95a52.271,52.271,0,0,1,5.329,6.989c-.413,1.619-1.108,4.615-1.148,4.756Q92.908,34.818,91.3,40.872c-.423,1.609-.856,3.228-1.279,4.8l-.463,1.75h.564a17.9,17.9,0,0,1,2.075.03,4.876,4.876,0,0,1,2.861,1.176c.353.3.927.885.876,1.418Zm-4.654.533,1.249-.09a3.585,3.585,0,0,1,.463-.03,9.013,9.013,0,0,0,1.048-.1,1.1,1.1,0,0,0,.373-.191,1.529,1.529,0,0,0-.262-.362,5.348,5.348,0,0,0-3.233-.955,2.137,2.137,0,0,0-2.307,1.317,7.676,7.676,0,0,1-2.609,3.238c-.987.664-1.763,1.146-2.5,1.549a10.805,10.805,0,0,1-6.91,1.368,12.115,12.115,0,0,1-2.236-.553A12.288,12.288,0,0,1,71.205,54.1c-.161.422-.3.835-.413,1.227A9.276,9.276,0,0,0,70.41,59,5.375,5.375,0,0,0,73.452,63.5a7.884,7.884,0,0,0,3.526.734,10.443,10.443,0,0,0,6.89-2.775,25.539,25.539,0,0,0,4.815-5.9,2.024,2.024,0,0,1,1.612-1.036l.514-.04c.735-.07,1.491-.141,2.226-.261a1.247,1.247,0,0,0,.473-.251,1.107,1.107,0,0,0-.353-.593,4.585,4.585,0,0,0-.8-.412c-.121-.05-.232-.09-.332-.141l-.927-.432,1.027-.06a3.808,3.808,0,0,0,.473-.02,10.621,10.621,0,0,0,1.269-.1,1.082,1.082,0,0,0,.342-.251.176.176,0,0,0,.04-.05s-.02-.03-.03-.03a.9.9,0,0,0-.272-.322,8.282,8.282,0,0,0-1.027-.372c-.141-.04-.3-.09-.443-.141L91.3,50.626Z" transform="translate(0.384 0.144)" fill="#a2c36e"/>
      <path id="Path_623" data-name="Path 623" d="M32.2,35.643a5.316,5.316,0,0,1,.312,1.619,8.75,8.75,0,0,1-1.44,5.249A4.556,4.556,0,0,1,29.554,44a.371.371,0,0,1-.342.05.41.41,0,0,1-.191-.181,4.871,4.871,0,0,1-.705-2.484,8.62,8.62,0,0,1,1.541-5.349,4.275,4.275,0,0,1,1.41-1.327L13.508,16.98A51.873,51.873,0,0,0,5.59,28.473,3.8,3.8,0,0,1,7.1,29.74a8.357,8.357,0,0,1,1.773,6.4,4.357,4.357,0,0,1-.282.915c-.05.121-.1.251-.141.372a.384.384,0,0,1-.212.251.328.328,0,0,1-.272-.02.087.087,0,0,0-.06-.03l-.332-.191A5.719,5.719,0,0,1,5.631,35.21a8.577,8.577,0,0,1-1.078-4.555,52.9,52.9,0,0,0-2.287,6.114,3.657,3.657,0,0,1,1.39.111,8.433,8.433,0,0,1,5.48,4.465,3.321,3.321,0,0,1,.353,1.569v.1l-.1.03a3.2,3.2,0,0,1-1.511,0,6.13,6.13,0,0,1-1.471-.432,8.952,8.952,0,0,1-4.09-3.69,4.92,4.92,0,0,1-.4-.945A52.022,52.022,0,0,0,13.528,86.855L48.512,51.923Zm-8.623,6.1a3.54,3.54,0,0,1,.524-1.629l.06-.09.1.03a3.911,3.911,0,0,1,1.783,1.257,8.493,8.493,0,0,1,2.105,6.073,4.154,4.154,0,0,1-.423,1.629.339.339,0,0,1-.494.181h-.02a4.088,4.088,0,0,1-1.551-1.187,8.476,8.476,0,0,1-2.075-6.254Zm-1.5,6a3.328,3.328,0,0,1,.222-.764c.03-.1.081-.2.111-.3a.376.376,0,0,1,.2-.251.523.523,0,0,1,.363.03,4.818,4.818,0,0,1,1.954,1.669,8.856,8.856,0,0,1,1.7,5.148,4.359,4.359,0,0,1-.554,2.222l-.05.1-.111-.03a3.053,3.053,0,0,1-.322-.121,3.335,3.335,0,0,1-1.1-.764A8.19,8.19,0,0,1,22.09,47.74Zm-1.622,6.787A3.673,3.673,0,0,1,21,52.747l.06-.09.1.04a4.349,4.349,0,0,1,2.055,1.6,8.691,8.691,0,0,1,1.833,5.349,4.282,4.282,0,0,1-.433,2,.361.361,0,0,1-.514.181h0a4.672,4.672,0,0,1-1.884-1.569,8.53,8.53,0,0,1-1.773-5.711Zm-.987,4.444.111.03a3.266,3.266,0,0,1,1.491.935,8.291,8.291,0,0,1,2.377,6.637,4.017,4.017,0,0,1-.232.925l-.121.362a.416.416,0,0,1-.2.282.391.391,0,0,1-.353-.03h-.03a5.328,5.328,0,0,1-2.266-2.162,8.588,8.588,0,0,1-1.36-5.038,3.993,3.993,0,0,1,.534-1.85l.05-.09Zm-1.2-6.667c.071-.04.141-.08.222-.131l.111-.07.071.111a4.118,4.118,0,0,1,.715,2.152,8.685,8.685,0,0,1-.907,4.485,6.037,6.037,0,0,1-1.914,2.383,4.089,4.089,0,0,1-.413.251,1.29,1.29,0,0,0-.2.111l-.111.06-.081-.1a3.812,3.812,0,0,1-.655-1.73A8.342,8.342,0,0,1,15.7,55.5a6.392,6.392,0,0,1,2.1-2.9,2.71,2.71,0,0,1,.463-.282ZM16.52,46.02l.151-.06.06.091a3.776,3.776,0,0,1,.665,1.89,8.3,8.3,0,0,1-.665,4.274,6.775,6.775,0,0,1-1.622,2.433,5.944,5.944,0,0,1-.594.432c-.1.07-.2.141-.3.2a.34.34,0,0,1-.292.08c-.02,0-.03-.02-.05-.02a.483.483,0,0,1-.2-.2,4.732,4.732,0,0,1-.574-2.2,8.686,8.686,0,0,1,1.7-5.5,4.146,4.146,0,0,1,1.612-1.378.361.361,0,0,1,.111-.04Zm-1.813-6.275.06.08a3.823,3.823,0,0,1,.675,1.941A8.573,8.573,0,0,1,13.76,47.76a4.365,4.365,0,0,1-1.481,1.307.368.368,0,0,1-.584-.161,4.92,4.92,0,0,1-.564-2.564,8.7,8.7,0,0,1,1.9-5.349,3.918,3.918,0,0,1,1.571-1.207Zm-5.54.654a8.552,8.552,0,0,1,1.864-5.561,4.045,4.045,0,0,1,1.612-1.267l.1-.04.071.09a4.564,4.564,0,0,1,.715,2.755,8.5,8.5,0,0,1-1.994,5.48,4.766,4.766,0,0,1-.876.744c-.091.08-.2.141-.292.221a.471.471,0,0,1-.363.111c-.03,0-.04-.02-.071-.03a.533.533,0,0,1-.242-.251,4.613,4.613,0,0,1-.544-2.262ZM3.727,43.627c-.03-.261-.06-.4.03-.513s.242-.131.5-.141a5.206,5.206,0,0,1,2.669.573,8.9,8.9,0,0,1,3.183,2.474,5.362,5.362,0,0,1,1.32,2.805v.4l-.1.03a3.786,3.786,0,0,1-1.914-.07,8.337,8.337,0,0,1-1.1-.382,9.126,9.126,0,0,1-3.284-2.5,5.318,5.318,0,0,1-1.31-2.675Zm1.944,5.742v-.1l.111-.03a4.1,4.1,0,0,1,2.206.161,8.627,8.627,0,0,1,4.8,3.871,4.246,4.246,0,0,1,.6,1.8.359.359,0,0,1-.363.442,5.178,5.178,0,0,1-2.619-.442c-.04-.03-.091-.04-.141-.07a8.8,8.8,0,0,1-3.939-3.429,4.131,4.131,0,0,1-.665-2.212Zm8.371,12.358a5.373,5.373,0,0,1-1.723-.473,8.51,8.51,0,0,1-1.249-.674,8.169,8.169,0,0,1-3.133-3.509,3.655,3.655,0,0,1-.312-1.488v-.1l.1-.03a3.592,3.592,0,0,1,1.944.07,8.632,8.632,0,0,1,4.342,2.856,5.729,5.729,0,0,1,1.269,2.413c.03.151.05.312.071.483,0,.08.02.181.03.282l.02.151h-.151a2.507,2.507,0,0,0-.393.02C14.576,61.727,14.314,61.747,14.042,61.727Zm2.75,13.052a.966.966,0,0,1-.332-.674,13.065,13.065,0,0,1,.071-2.142c.081-.593.2-1.2.322-1.78.081-.442.181-.9.252-1.357a4.227,4.227,0,0,0-.322-2.8A4.6,4.6,0,0,0,15.23,64.5a.958.958,0,0,1-.494-1.076.986.986,0,0,1,.544-.7,1.055,1.055,0,0,1,.947.05c.081.05.171.1.252.161l.1.07a6.822,6.822,0,0,1,1.793,1.81,5.542,5.542,0,0,1,.725,3.781c-.1.714-.242,1.438-.373,2.152-.06.332-.131.664-.191.985a7.481,7.481,0,0,0-.111,2.132A1.019,1.019,0,0,1,17.557,75a.976.976,0,0,1-.534-.07,1.666,1.666,0,0,1-.252-.151Zm5.822,1.166c-.4.523-.856,1.016-1.279,1.488-.353.382-.705.784-1.048,1.2a13.932,13.932,0,0,0-1.148,1.7,1.053,1.053,0,0,1-1.3.493l-.02-.02a.973.973,0,0,1-.5-1.307c.081-.2.191-.392.292-.593.04-.08.091-.161.141-.251h0a12.706,12.706,0,0,1,1.38-1.7c.191-.2.373-.412.554-.613a22.374,22.374,0,0,0,1.581-1.981A3.13,3.13,0,0,0,21.6,71.4c-.111-.3-.232-.593-.353-.885a.97.97,0,0,1,.463-1.287,1,1,0,0,1,.776-.07.884.884,0,0,1,.524.483,11.021,11.021,0,0,1,.7,1.981,4.985,4.985,0,0,1-1.1,4.314ZM30.3,63.677a8.429,8.429,0,0,1-5.238,4.706,3.483,3.483,0,0,1-1.662.131l-.1-.02v-.111a3.057,3.057,0,0,1,.171-1.378,7.694,7.694,0,0,1,2.488-3.479,7.021,7.021,0,0,1,3.3-1.669,5.723,5.723,0,0,1,.826-.07,2.315,2.315,0,0,0,.373-.02H30.6V61.9a3.464,3.464,0,0,1-.312,1.78Zm1.269-5.691a8.718,8.718,0,0,1-4.362,3.881,4.225,4.225,0,0,1-2.256.322l-.1-.02v-.1a2.844,2.844,0,0,1,.131-1.277,7.243,7.243,0,0,1,1.9-3.027,7.974,7.974,0,0,1,3.455-2.132,3.783,3.783,0,0,1,1.723-.131l.111.02v.111a4.164,4.164,0,0,1-.594,2.353Zm1.964-7.29a7.8,7.8,0,0,1-2.619,3.58,6.816,6.816,0,0,1-3.143,1.549,5.618,5.618,0,0,1-.846.08c-.131,0-.252.02-.393.03h-.141V55.8a3.807,3.807,0,0,1,.413-2.041A8.572,8.572,0,0,1,31.629,49.4a3.823,3.823,0,0,1,1.964-.221l.1.02.02.1A3.01,3.01,0,0,1,33.533,50.7Zm.927-5-.081.131a8.412,8.412,0,0,1-4.593,3.58,4.689,4.689,0,0,1-.987.151c-.131,0-.252.02-.383.03a.724.724,0,0,1-.272-.03c-.03-.02-.071-.03-.091-.06a.5.5,0,0,1-.111-.392,4.422,4.422,0,0,1,.584-1.991,8.688,8.688,0,0,1,4.714-4.052,4.029,4.029,0,0,1,1.7-.241c.262,0,.373.141.363.4a4.981,4.981,0,0,1-.645,2.172,2.839,2.839,0,0,1-.181.292Z" transform="translate(-0.02 0.144)" fill="#fec743"/>
      <path id="Path_624" data-name="Path 624" d="M34.537,100.065l-.03.423.413-.1c.131-.03.272-.05.423-.071a1.4,1.4,0,0,0,1.038-.4,18.019,18.019,0,0,0,1.813-3.173c.484-1.1.927-2.226,1.36-3.3.534-1.32,1.068-2.679,1.662-3.989,1.128-2.458,2.287-2.881,4.986-1.793.957.393,1.058.947,1.179,1.994.091.826-.282,1.038-1.007,1.43-4.14,2.236-5.057,4.523-3.667,9.025l.05.181c.05.171.1.332.161.494a3.968,3.968,0,0,1,.212,2.317A52.107,52.107,0,0,1,17.01,90.365L35.988,71.387c.191.212.363.443.554.645a17.328,17.328,0,0,1,1.541,1.894,33.3,33.3,0,0,1,1.743,3.092c.181.342.353.675.534,1.007a14.408,14.408,0,0,0,6.5,6.326c.443.212.705.443.766.685a1.086,1.086,0,0,1-.2.816l-.212-.081c-.312-.131-.6-.242-.917-.353-3.244-1.128-5.268-.332-6.8,2.639-.443.876-.816,1.783-1.168,2.679-.252.594-.484,1.209-.766,1.793-.423.927-.856,1.853-1.289,2.78-.534,1.118-1.048,2.236-1.551,3.364a2.606,2.606,0,0,0-.151,1.007,2.768,2.768,0,0,1-.02.4Zm14.7-5.087-1.38-2.367c-.222.151-.443.312-.655.463a23.047,23.047,0,0,0-1.964,1.451,2.864,2.864,0,0,0-.967,3.082c.03.131.05.252.081.393a3.313,3.313,0,0,0,.212.755A7.262,7.262,0,0,1,45.2,103.4l1.279.151a8.228,8.228,0,0,1,2.74-8.572Zm18.2-24.216s-.04.081-.071.131a9.683,9.683,0,0,1-.776.8,5.11,5.11,0,0,0-.816.876,21.838,21.838,0,0,0-1.41,2.387l-.181.332c-3.244,5.993-3.445,6.235-9,9.67l.2.937.6-.212a18.264,18.264,0,0,1,2-.6,4.157,4.157,0,0,1,5.037,2.176c.735,1.41,1.36,2.9,1.964,4.331.373.917.776,1.853,1.189,2.77.363.766.766,1.551,1.158,2.287.363.705.735,1.42,1.078,2.146a1.859,1.859,0,0,1,.071.967c0,.131-.03.252-.03.363v.363L68.1,100.4c-.121-.03-.252-.03-.393-.05a1.25,1.25,0,0,1-.987-.363,18.524,18.524,0,0,1-1.843-3.133c-.484-1.118-.947-2.277-1.39-3.385-.534-1.34-1.078-2.72-1.682-4.039a3.827,3.827,0,0,0-2.488-2.277,4.023,4.023,0,0,0-3.4,1,1.874,1.874,0,0,0,.212,2.629l.131.081a18.044,18.044,0,0,1,1.924,1.158c2.8,2.025,3.536,4.211,2.367,7.091a6.582,6.582,0,0,0-.433,4.1,52.01,52.01,0,0,0,26.9-12.863ZM54.915,92.671l-1.259,2.176a9.765,9.765,0,0,1,2.6,3.566,7.454,7.454,0,0,1,.242,5.218c.413-.03.826-.081,1.239-.121a5.637,5.637,0,0,1,.181-2.951c.071-.212.131-.423.191-.645.05-.181.111-.363.161-.554,1.108-3.566.171-5.46-3.354-6.7ZM52,55.32,37.549,69.785a5.825,5.825,0,0,1,1.32,1.36c1.068,1.652,2.025,3.4,2.961,5.1l.514.937a13.047,13.047,0,0,0,6.145,5.57l.594-.766c-3.082-3-3.7-6.114-1.833-9.5-2.226-1.592-2.609-3.092-1.461-5.621a19.23,19.23,0,0,1,1.944-3.254,1.42,1.42,0,0,1,1.017-.4,2.719,2.719,0,0,0,.413-.071l.373-.1v.393a2.312,2.312,0,0,0,.02.373,1.933,1.933,0,0,1-.091.987c-.282.574-.594,1.148-.917,1.692-.353.635-.725,1.289-1.027,1.954a1.314,1.314,0,0,0,.363,1.853c.614.4,1.1.312,1.884-.342,1.642-1.39,1.884-1.39,3.566.05,1.148.977,1.612.433,1.773.252a2.143,2.143,0,0,0,.383-1.773A13.573,13.573,0,0,0,54.422,66.3c-.272-.484-.564-.977-.806-1.491a2.044,2.044,0,0,1-.081-1.048c0-.141.03-.272.03-.4v-.423l.393.141a2.618,2.618,0,0,0,.4.1,1.494,1.494,0,0,1,.987.484,20.056,20.056,0,0,1,2.025,3.526c1.007,2.4.584,3.838-1.561,5.238,1.632,4.321,1.179,6.548-1.954,9.6l.524.8a12.322,12.322,0,0,0,5.772-4.795c.534-.9,1.058-1.833,1.551-2.74.645-1.158,1.32-2.377,2.045-3.526a11.885,11.885,0,0,1,2.266-2.468L52.034,55.3Zm11.715,49.318a.856.856,0,0,1-.131.06h.342a.618.618,0,0,0-.081-.05.141.141,0,0,0-.141,0Z" transform="translate(0.104 0.301)" fill="#f47c2e"/>
    </g>
  </g>
</svg>
