<svg width="105" height="105" viewBox="0 0 105 105" fill="none" xmlns="http://www.w3.org/2000/svg">
<path d="M54.223 0.0499297C55.13 0.46293 56.056 0.83593 56.963 1.20793C59.963 2.4166 62.963 3.6286 65.963 4.84393C66.608 5.10593 67.232 5.43793 67.897 5.75093L68.129 5.86193C68.1999 5.86674 68.2672 5.89527 68.32 5.94293L68.92 6.24293C69.283 6.45493 69.686 6.63593 70.058 6.84293C70.592 7.15493 71.136 7.45693 71.67 7.76993C71.811 7.85093 71.942 7.93093 72.043 7.99193C74.0785 9.17707 75.8837 10.7194 77.372 12.5449C78.5992 14.0596 79.2484 15.961 79.204 17.9099C79.2216 18.767 78.9976 19.6117 78.5576 20.3473C78.1176 21.083 77.4794 21.68 76.716 22.0699C75.8326 22.5315 74.8739 22.8316 73.885 22.9559C71.8783 23.2247 69.8439 23.2112 67.841 22.9159C67.368 22.8559 66.914 22.7749 66.35 22.6939C67.257 22.3209 68.05 21.9889 68.85 21.6769C68.9634 21.6383 69.0838 21.6246 69.203 21.6369C70.103 21.6669 70.996 21.7369 71.893 21.7279C73.1249 21.7415 74.3482 21.5227 75.499 21.0829C76.2749 20.8301 76.9335 20.3056 77.3536 19.606C77.7738 18.9064 77.9273 18.0787 77.786 17.2749C77.6213 15.6625 76.9393 14.1467 75.842 12.9539C75.1402 12.1067 74.3338 11.352 73.442 10.7079C73.3993 10.6776 73.3588 10.6442 73.321 10.6079C72.9504 10.3085 72.5638 10.0295 72.163 9.77193C72.063 9.71193 71.963 9.64093 71.851 9.58093C71.821 9.55093 71.801 9.54093 71.77 9.50993C71.659 9.43893 71.538 9.36893 71.417 9.29793C71.387 9.29793 71.367 9.26793 71.336 9.24793C71.195 9.16693 71.044 9.06693 70.903 8.99593L70.853 8.96593C70.793 8.92593 70.722 8.88493 70.662 8.84493L69.545 8.19993C68.739 7.77693 67.953 7.31393 67.117 6.94093C64.387 5.76193 61.637 4.62393 58.897 3.46593C56.56 2.47893 54.223 1.50193 51.906 0.46593C51.6038 0.331664 51.3111 0.176973 51.03 0.00292969C38.4592 0.235779 26.4004 5.024 17.094 13.4779L52.118 48.5019L87.118 13.5019C78.0773 5.28719 66.4292 0.523851 54.223 0.0499297ZM67.923 20.4979C63.3727 22.3986 58.4679 23.3019 53.539 23.1469C53.408 23.1469 53.287 23.1169 53.139 23.1069C52.8126 21.1911 52.7517 19.2394 52.958 17.3069C53.0638 16.2468 53.3464 15.2118 53.794 14.2449C53.8314 14.1343 53.8997 14.0366 53.9907 13.9634C54.0818 13.8903 54.1919 13.8446 54.308 13.8319C54.741 13.7819 55.174 13.6709 55.597 13.5799C56.302 13.4389 57.027 13.3079 57.783 13.1569V14.6569L61.641 13.9119V15.1119C61.6335 15.1574 61.6351 15.204 61.6457 15.2488C61.6564 15.2937 61.6759 15.336 61.7031 15.3732C61.7303 15.4104 61.7646 15.4419 61.8041 15.4657C61.8435 15.4895 61.8874 15.5052 61.933 15.5119C62.356 15.6329 62.799 15.7639 63.212 15.9049C63.2498 15.9252 63.2915 15.937 63.3344 15.9398C63.3772 15.9425 63.4201 15.936 63.4602 15.9207C63.5002 15.9055 63.5366 15.8818 63.5668 15.8513C63.5969 15.8208 63.6202 15.7842 63.635 15.7439C63.8989 15.3339 64.289 15.0207 64.7464 14.8517C65.2038 14.6826 65.7037 14.6668 66.1709 14.8066C66.6381 14.9464 67.0472 15.2343 67.3365 15.6268C67.6258 16.0194 67.7797 16.4953 67.775 16.9829C67.7619 17.079 67.7873 17.1764 67.8458 17.2538C67.9042 17.3312 67.991 17.3823 68.087 17.3959C68.987 17.6479 69.87 17.9199 70.766 18.2019C70.927 18.2619 71.159 18.4239 71.179 18.5649C71.1621 18.6569 71.1255 18.7442 71.0716 18.8207C71.0177 18.8971 70.9479 18.961 70.867 19.0079C69.9 19.5319 68.943 20.0659 67.936 20.4989L67.923 20.4979ZM40.665 2.50793C40.725 2.42717 40.8008 2.35944 40.8878 2.30884C40.9747 2.25825 41.0711 2.22584 41.1709 2.21359C41.2708 2.20134 41.3721 2.2095 41.4687 2.23758C41.5653 2.26566 41.6552 2.31307 41.733 2.37693C42.287 2.69893 42.833 3.03193 43.395 3.31393C47.3838 5.21253 51.6775 6.38906 56.077 6.78893C59.2538 7.09529 62.384 7.77153 65.404 8.80393C68.0891 9.66474 70.6022 10.9902 72.829 12.7199C74.04 13.6047 74.9873 14.8025 75.569 16.1849C75.9099 16.9314 75.9527 17.7798 75.6888 18.5568C75.4248 19.3338 74.874 19.9806 74.149 20.3649C72.9461 20.9399 71.6053 21.1635 70.281 21.0099C70.513 20.8789 70.744 20.7679 70.966 20.6369C71.389 20.3549 71.792 20.0629 72.215 19.7709C72.3754 19.6315 72.5553 19.5163 72.749 19.4289C73.0661 19.385 73.3676 19.264 73.6271 19.0765C73.8866 18.8889 74.0961 18.6406 74.2372 18.3533C74.3784 18.0659 74.4469 17.7483 74.4367 17.4283C74.4266 17.1084 74.3381 16.7958 74.179 16.5179C73.754 15.6038 73.1273 14.798 72.346 14.1609C70.6925 12.7769 68.8292 11.665 66.826 10.8669C63.9328 9.66489 60.8952 8.84531 57.79 8.42893C55.79 8.14693 53.79 7.86493 51.79 7.56293C51.79 7.56293 51.306 7.46293 50.642 7.31093C50.642 7.33093 50.642 7.34093 50.662 7.34093C50.078 7.19993 49.514 7.04893 48.94 6.89793L48.84 6.86793C48.598 6.80793 48.367 6.74693 48.135 6.68693C47.6451 6.56541 47.1639 6.41072 46.695 6.22393C44.6802 5.57392 42.752 4.68102 40.953 3.56493C40.8596 3.51955 40.7769 3.45495 40.7102 3.37536C40.6435 3.29577 40.5944 3.203 40.5661 3.10311C40.5378 3.00322 40.5309 2.89847 40.5458 2.79573C40.5608 2.69299 40.5973 2.59457 40.653 2.50693L40.665 2.50793ZM51.635 23.0569H51.313C50.0505 23.0268 48.7947 22.8645 47.566 22.5729C47.274 22.4919 47.143 22.3729 47.113 22.0889C46.982 21.1619 46.791 20.2249 46.73 19.2889C46.5518 16.8966 46.9489 14.4964 47.888 12.2889C47.988 12.0369 48.11 11.9469 48.382 12.0269C49.692 12.3999 51.001 12.7619 52.3 13.1269C52.4127 13.165 52.5207 13.2156 52.622 13.2779C51.111 16.4309 51.242 19.7049 51.645 23.0589L51.635 23.0569ZM45.604 22.1099C45.322 22.1099 45.08 22.1299 44.849 22.1099C44.6954 22.1063 44.5471 22.0533 44.426 21.9589C43.8509 21.2285 43.3292 20.4575 42.865 19.6519C41.7817 17.4316 41.3056 14.964 41.485 12.4999C41.4754 12.4413 41.4782 12.3812 41.4931 12.3237C41.5081 12.2661 41.535 12.2124 41.572 12.1658C41.609 12.1193 41.6554 12.081 41.7081 12.0535C41.7608 12.026 41.8187 12.0098 41.878 12.0059C43.3121 11.6857 44.7886 11.6005 46.25 11.7539C46.3306 11.7649 46.409 11.7889 46.482 11.8249C45.1591 15.0916 44.8537 18.6817 45.606 22.1249L45.604 22.1099ZM44.436 24.6579L44.557 24.5979C45.202 25.3029 46.179 25.5849 46.793 26.4409L46.934 26.9749C47.0148 27.0852 47.0505 27.2222 47.034 27.3579L47.094 27.6099C47.235 28.2039 47.376 28.7779 47.507 29.3529C47.537 29.4459 47.5478 29.544 47.5387 29.6413C47.5296 29.7386 47.5007 29.833 47.454 29.9188C47.4072 30.0046 47.3434 30.08 47.2666 30.1403C47.1897 30.2007 47.1014 30.2448 47.007 30.2699C46.9097 30.2938 46.8084 30.2969 46.7098 30.279C46.6112 30.2611 46.5174 30.2226 46.4348 30.1659C46.3521 30.1093 46.2823 30.0358 46.2299 29.9504C46.1776 29.8649 46.1439 29.7693 46.131 29.6699C46.006 29.2157 45.9058 28.755 45.831 28.2899C45.8245 27.9076 45.7131 27.5344 45.5088 27.2112C45.3046 26.8879 45.0155 26.627 44.673 26.4569C44.582 26.4169 44.461 26.2959 44.461 26.2049C44.431 25.6909 44.461 25.1779 44.461 24.6639L44.436 24.6579ZM46.028 24.1739C45.8911 24.0437 45.7693 23.8985 45.665 23.7409L45.746 23.6409C46.391 23.7919 47.015 23.9829 47.67 24.0739C48.4067 24.2188 49.0616 24.6363 49.504 25.2429C49.7474 25.5312 49.9169 25.8744 49.998 26.2429C50.189 26.9879 50.29 27.7429 50.421 28.5089C50.4471 28.6023 50.4534 28.7001 50.4398 28.796C50.4261 28.892 50.3926 28.9841 50.3414 29.0664C50.2903 29.1488 50.2226 29.2196 50.1427 29.2745C50.0627 29.3293 49.9722 29.3669 49.877 29.3849C49.68 29.3995 49.4846 29.3406 49.3284 29.2197C49.1722 29.0987 49.0663 28.9243 49.031 28.7299C48.91 28.0949 48.789 27.4609 48.689 26.8159C48.6361 26.4397 48.4371 26.0994 48.135 25.8689C47.43 25.3249 46.735 24.7509 46.035 24.1769L46.028 24.1739ZM34.736 17.2639C35.2743 16.3572 35.9367 15.5302 36.704 14.8069C37.6391 13.918 38.7219 13.1989 39.904 12.6819C40.004 13.8709 40.045 15.0389 40.226 16.1979C40.5392 18.5048 41.484 20.6803 42.956 22.4839C43.256 22.8369 43.456 23.1289 43.127 23.5619C43.1049 23.5837 43.0848 23.6075 43.067 23.6329C42.9905 23.6173 42.913 23.6073 42.835 23.6029C39.4676 22.7698 36.5582 20.6555 34.726 17.7099C34.6794 17.6455 34.6543 17.568 34.6543 17.4884C34.6543 17.4089 34.6794 17.3314 34.726 17.2669L34.736 17.2639ZM33.342 25.0199C33.0916 23.8014 33.0675 22.5472 33.271 21.3199C33.412 20.5749 33.613 19.8489 33.815 19.0129C35.9651 22.1475 39.2346 24.339 42.951 25.1369C42.9409 25.2844 42.9409 25.4324 42.951 25.5799C42.9703 25.6503 42.9745 25.724 42.9631 25.796C42.9518 25.8681 42.9252 25.937 42.8852 25.998C42.8452 26.059 42.7926 26.1108 42.731 26.1499C42.6694 26.189 42.6002 26.2146 42.528 26.2249C41.9731 26.4278 41.4052 26.5929 40.828 26.7189C38.313 27.0537 35.757 26.5735 33.535 25.3489C33.4812 25.3097 33.4359 25.2601 33.4015 25.2031C33.3672 25.1461 33.3446 25.0828 33.335 25.0169L33.342 25.0199ZM35.904 31.6199C35.6047 31.1681 35.3355 30.6971 35.098 30.2099C34.635 29.2229 34.222 28.2099 33.788 27.1979C33.8273 27.1759 33.8677 27.1559 33.909 27.1379C36.891 28.3379 39.909 28.8299 43.035 27.6219C43.0755 27.8108 43.0992 28.0029 43.106 28.1959C43.092 28.3989 43.03 28.5957 42.925 28.7699C42.7745 28.9928 42.5949 29.1946 42.391 29.3699C40.7384 30.948 38.5411 31.8284 36.256 31.8279C36.1847 31.8225 36.1154 31.8018 36.0528 31.7673C35.9902 31.7328 35.9357 31.6853 35.893 31.6279L35.904 31.6199ZM38.886 35.2259C38.2426 34.6412 37.6307 34.0227 37.053 33.3729L37.103 33.2729C39.4818 33.0893 41.7215 32.0801 43.435 30.4199C43.5494 30.8092 43.6337 31.2067 43.687 31.6089C43.7235 32.0272 43.6755 32.4485 43.546 32.8479C43.0771 33.9293 42.2525 34.8178 41.209 35.3659C40.8554 35.5842 40.4429 35.6878 40.0282 35.6626C39.6134 35.6373 39.2165 35.4845 38.892 35.2249L38.886 35.2259ZM56.252 40.6549C55.7548 40.6412 55.2595 40.5873 54.771 40.4939C54.459 40.4439 54.157 40.3529 53.771 40.2619C54.199 40.6354 54.606 41.0323 54.99 41.4509C55.3617 41.8626 55.6798 42.3195 55.937 42.8109C56.0123 42.957 56.0444 43.1215 56.0295 43.2852C56.0146 43.4489 55.9533 43.6049 55.8528 43.735C55.7524 43.8651 55.6169 43.9638 55.4623 44.0196C55.3077 44.0754 55.1404 44.0859 54.98 44.0499C54.6533 44.0091 54.3343 43.9208 54.033 43.7879C53.086 43.3649 52.139 42.9319 51.233 42.4379C48.2535 40.799 45.3588 39.0104 42.56 37.0789C42.36 36.9379 42.167 36.7969 41.966 36.6459C43.311 35.8485 44.3732 34.6507 45.004 33.2199C45.1466 33.2423 45.2878 33.2727 45.427 33.3109C47.039 33.8449 48.671 34.3489 50.252 34.9529C52.2695 35.6742 54.1596 36.7111 55.852 38.0249C56.2958 38.3714 56.689 38.7784 57.02 39.2339C57.1232 39.3709 57.1849 39.5346 57.1976 39.7056C57.2104 39.8767 57.1737 40.0478 57.0919 40.1985C57.0101 40.3492 56.8867 40.4732 56.7363 40.5558C56.586 40.6383 56.4151 40.6758 56.244 40.6639L56.252 40.6549ZM63.313 32.8679C63.2121 32.8728 63.1113 32.8561 63.0173 32.819C62.9233 32.7819 62.8383 32.7253 62.7678 32.6529C62.6974 32.5804 62.6431 32.4939 62.6087 32.3989C62.5742 32.3039 62.5604 32.2027 62.568 32.1019C62.5166 31.4393 62.2472 30.8124 61.802 30.3189C61.6615 30.1087 61.4584 29.9479 61.2216 29.8593C60.9847 29.7706 60.726 29.7586 60.482 29.8249C60.2684 29.8555 60.0525 29.8656 59.837 29.8549C58.1799 29.9069 56.5319 29.5902 55.012 28.9279C54.8553 28.869 54.7198 28.7646 54.6229 28.6281C54.526 28.4916 54.472 28.3293 54.468 28.1619C54.438 27.7389 54.357 27.3259 54.307 26.8929C54.216 26.1579 54.126 25.4219 54.035 24.6159C54.458 24.6159 54.811 24.6359 55.163 24.6159C55.385 24.5959 55.463 24.6759 55.485 24.9079C55.576 25.7239 55.717 26.5399 55.797 27.3659C55.7945 27.4891 55.8355 27.6092 55.9129 27.7051C55.9903 27.8009 56.0991 27.8664 56.22 27.8899C57.7574 28.4136 59.3948 28.5755 61.005 28.3629C61.1888 28.3246 61.379 28.3292 61.5608 28.3764C61.7426 28.4236 61.911 28.5121 62.053 28.6349C62.194 28.7759 62.365 28.8869 62.516 29.0279C62.9526 29.4007 63.3077 29.8595 63.5591 30.3757C63.8104 30.8919 63.9527 31.4543 63.977 32.0279C63.997 32.5419 63.735 32.8539 63.322 32.8739L63.313 32.8679ZM66.355 29.8959C66.2619 29.8987 66.1692 29.8824 66.0827 29.8479C65.9961 29.8134 65.9176 29.7615 65.852 29.6954C65.7863 29.6293 65.735 29.5504 65.7011 29.4636C65.6672 29.3768 65.6515 29.284 65.655 29.1909C65.6392 28.8012 65.5456 28.4185 65.3795 28.0656C65.2134 27.7126 64.9783 27.3965 64.688 27.1359C64.5861 27.0068 64.4498 26.9091 64.2949 26.8539C64.1399 26.7987 63.9726 26.7883 63.812 26.8239C63.4995 26.8821 63.1828 26.9156 62.865 26.9239C61.1216 27.0786 59.3672 27.0618 57.627 26.8739C57.5105 26.8486 57.4008 26.7987 57.3053 26.7274C57.2097 26.6562 57.1305 26.5653 57.073 26.4609C56.851 25.8669 56.71 25.2519 56.529 24.5769C56.829 24.5469 57.063 24.5269 57.295 24.5059C58.111 24.4659 57.94 24.3149 58.141 25.1059C58.1554 25.2364 58.2205 25.356 58.3223 25.4389C58.424 25.5217 58.5543 25.5613 58.685 25.5489C60.4464 25.6568 62.214 25.5928 63.963 25.3579C64.2101 25.3147 64.4639 25.3305 64.7037 25.404C64.9435 25.4776 65.1626 25.6067 65.343 25.7809C65.8624 26.1751 66.2862 26.6814 66.5826 27.2621C66.879 27.8429 67.0405 28.4831 67.055 29.1349C67.0598 29.2302 67.045 29.3254 67.0117 29.4147C66.9783 29.5041 66.9271 29.5857 66.8611 29.6545C66.795 29.7233 66.7157 29.7779 66.6278 29.815C66.5399 29.852 66.4454 29.8707 66.35 29.8699L66.355 29.8959Z" fill="#58A39D"/>
<path d="M85.46 44.5547C85.4549 44.884 85.321 45.1981 85.087 45.4297C84.8625 45.6467 84.5632 45.7691 84.251 45.7717H84.221C83.8982 45.7634 83.5919 45.6274 83.369 45.3937C83.1462 45.16 83.025 44.8476 83.032 44.5247C83.0386 44.2028 83.1729 43.8966 83.4052 43.6736C83.6376 43.4507 83.949 43.3291 84.271 43.3358C84.593 43.3424 84.8991 43.4766 85.1221 43.709C85.3451 43.9414 85.4666 44.2528 85.46 44.5747V44.5547ZM82.69 48.3857C82.4603 47.0819 81.8504 45.8751 80.937 44.9167C80.6155 44.5971 80.2077 44.3783 79.7636 44.2871C79.3194 44.196 78.8584 44.2365 78.437 44.4037C78.0277 44.5393 77.665 44.7877 77.3906 45.1203C77.1162 45.4529 76.9413 45.8562 76.886 46.2837C76.8345 46.576 76.8074 46.872 76.805 47.1688V47.3797C76.805 47.3797 76.845 48.2447 76.905 48.5457C77.0232 49.2389 77.1849 49.9239 77.389 50.5967C77.472 51.0609 77.7237 51.4779 78.0957 51.7675C78.4677 52.0572 78.9337 52.199 79.404 52.1657C79.5692 52.1699 79.7345 52.1599 79.898 52.1357C80.3771 52.1266 80.8485 52.0141 81.28 51.8057C81.7115 51.5974 82.0929 51.2982 82.398 50.9287C82.6299 50.552 82.7768 50.1292 82.8286 49.6898C82.8804 49.2505 82.8359 48.8051 82.698 48.3848L82.69 48.3857ZM73.836 45.8717C73.5063 45.8748 73.1912 46.0086 72.96 46.2437C72.8501 46.3567 72.7641 46.4906 72.707 46.6375C72.65 46.7844 72.6231 46.9412 72.628 47.0988C72.6338 47.4209 72.7658 47.7279 72.9957 47.9536C73.2255 48.1793 73.5348 48.3058 73.857 48.3057C74.1863 48.3007 74.5007 48.1672 74.733 47.9338C74.8477 47.8233 74.9382 47.6904 74.999 47.5432C75.0597 47.3961 75.0894 47.2379 75.086 47.0788C75.0764 46.7561 74.9418 46.4499 74.7106 46.2247C74.4794 45.9995 74.1697 45.8729 73.847 45.8717H73.836ZM69.414 41.2067L68.93 41.0658C68.3572 40.8895 67.7741 40.7486 67.184 40.6437L63.884 43.9437C64.0498 44.4426 64.3331 44.8943 64.71 45.2607C65.73 46.1939 66.9497 46.8818 68.276 47.2717C68.367 47.3017 68.467 47.3217 68.576 47.3517L69.17 47.4827L69.059 47.0607C68.6458 45.2022 68.7467 43.2662 69.351 41.4608L69.411 41.2098L69.414 41.2067ZM104.237 52.0667C104.257 64.9913 99.4413 77.4557 90.737 87.0098L86.345 82.6257C86.829 81.2687 87.433 79.5988 87.445 79.5688L87.495 79.4178C87.868 78.4018 88.23 77.3767 88.595 76.3507C88.887 75.5367 89.179 74.7417 89.461 73.9277C89.4788 73.8933 89.489 73.8555 89.491 73.8167C89.491 73.8067 89.461 73.7868 89.37 73.7668L89.289 73.7368C89.017 73.6468 88.664 73.5367 88.554 73.2537C88.3765 72.8518 88.1605 72.468 87.909 72.1077C87.6662 71.76 87.4537 71.392 87.274 71.0077C87.1258 70.6028 87.1012 70.1629 87.2034 69.744C87.3056 69.3251 87.5299 68.9459 87.848 68.6548C88.2998 68.0648 88.9018 67.6071 89.591 67.3293C90.2802 67.0515 91.0314 66.964 91.766 67.0757C91.7974 67.0038 91.8245 66.93 91.847 66.8547C92.371 65.1654 92.898 63.4827 93.428 61.8067C94.858 57.2417 96.328 52.5158 97.739 47.8698C97.85 47.4978 97.981 47.1257 98.102 46.7637C98.6092 45.4367 98.908 44.0392 98.988 42.6208C98.9991 42.4155 98.9672 42.2103 98.8943 42.0181C98.8215 41.8259 98.7093 41.6511 98.565 41.5047C98.404 41.3337 98.243 41.1727 98.071 41.0117C97.7012 40.6654 97.3611 40.2887 97.054 39.8857C96.8941 39.6872 96.7763 39.4582 96.7075 39.2128C96.6387 38.9673 96.6205 38.7105 96.654 38.4577C96.7105 38.1865 96.8207 37.9294 96.9782 37.7015C97.1357 37.4735 97.3373 37.2795 97.571 37.1307C97.6367 37.0864 97.6917 37.028 97.732 36.9598C97.923 35.8238 98.377 35.3707 99.455 35.2707C99.8951 35.2458 100.336 35.2558 100.775 35.3008C100.906 35.3008 101.027 35.3307 101.158 35.3307L101.279 34.7977C103.235 40.3437 104.233 46.182 104.23 52.0627L104.237 52.0667ZM92.31 69.0667C92.0633 68.7899 91.7326 68.6016 91.3686 68.5308C91.0046 68.46 90.6275 68.5105 90.295 68.6747C89.7552 68.9511 89.2706 69.3239 88.865 69.7747C88.6829 70.0463 88.6143 70.3783 88.674 70.6997C88.704 70.8107 88.765 70.8607 89.174 70.8407H89.355C89.4104 70.8456 89.4647 70.8591 89.516 70.8807L89.716 70.9608V71.1917C89.7116 71.2661 89.7016 71.3399 89.686 71.4127C89.6415 71.5495 89.6143 71.6913 89.605 71.8348C89.605 72.2068 89.655 72.3178 89.686 72.3348C89.716 72.3348 89.886 72.2848 89.986 72.2648C90.057 72.2448 90.127 72.2347 90.186 72.2147C90.2409 72.2029 90.2925 72.179 90.337 72.1447C90.3886 72.1141 90.4424 72.0874 90.498 72.0647L91.012 71.8137L90.861 72.3567C90.841 72.4167 90.831 72.4677 90.811 72.5177C90.8063 72.5461 90.7961 72.5733 90.781 72.5978C90.781 72.6378 90.801 72.7088 90.811 72.7788C90.8129 72.9005 90.8405 73.0204 90.892 73.1307C91.0622 73.1867 91.2458 73.1867 91.416 73.1307C92.106 72.5914 92.6266 71.8653 92.916 71.0387C93.0355 70.6857 93.0419 70.3042 92.9343 69.9473C92.8268 69.5905 92.6106 69.276 92.316 69.0477L92.31 69.0667ZM95.423 66.7668C95.4576 65.7018 95.1309 64.6564 94.496 63.8008L94.355 64.2528C94.002 65.4288 93.655 66.5957 93.317 67.7717C93.3305 67.8228 93.3532 67.8709 93.384 67.9137L93.495 68.0747C93.9296 68.6275 94.2452 69.2642 94.422 69.9448C95.1019 69.0277 95.4541 67.9089 95.422 66.7677L95.423 66.7668ZM102.474 40.7837C102.502 39.5829 102.134 38.4063 101.426 37.4357C101.24 37.145 100.965 36.9223 100.642 36.8008C100.318 36.6793 99.9646 36.6656 99.633 36.7617C99.4732 36.7878 99.3235 36.857 99.2 36.9618C99.2512 37.0997 99.3341 37.2237 99.442 37.3237C99.6897 37.5448 99.9487 37.7527 100.218 37.9468C100.339 38.0268 100.45 38.1178 100.571 38.1978L100.793 38.3787L100.239 38.9717L100.058 38.8918L99.766 38.7308C99.5583 38.6094 99.3428 38.5019 99.121 38.4087C98.698 38.2277 98.345 38.2777 98.174 38.5497C97.983 38.8317 98.103 39.0127 98.436 39.3747C98.6573 39.6061 98.879 39.8274 99.101 40.0387C99.343 40.2697 99.585 40.5018 99.806 40.7388C100.078 40.9972 100.276 41.3234 100.381 41.6838C100.485 42.0442 100.492 42.4259 100.4 42.7897C100.37 42.9107 100.38 42.9607 100.4 42.9707H100.44C100.488 42.9704 100.535 42.9637 100.581 42.9507C101.068 42.8041 101.503 42.5237 101.838 42.1414C102.173 41.7591 102.394 41.2904 102.475 40.7887L102.474 40.7837ZM96.35 50.2057C96.33 50.4267 96.32 50.6577 96.3 50.8797C96.2712 51.423 96.2074 51.9637 96.109 52.4987C96.0306 52.7425 95.8795 52.9564 95.676 53.1117C95.5571 53.1973 95.4576 53.307 95.384 53.4338C95.3465 53.5919 95.3363 53.7552 95.354 53.9167C95.3873 54.1424 95.3702 54.3725 95.304 54.5907C95.1469 54.9469 94.8904 55.2502 94.5653 55.4643C94.2402 55.6783 93.8602 55.7941 93.471 55.7977C92.705 55.8977 91.95 55.9687 91.205 55.9977C90.9991 55.9892 90.795 56.0394 90.6166 56.1427C90.4383 56.2459 90.2931 56.3979 90.198 56.5807C88.9737 58.5909 87.5052 60.4416 85.826 62.0907C85.6147 62.3062 85.4499 62.5629 85.342 62.8447C84.869 64.1617 84.415 65.4797 83.952 66.7967C83.589 67.8527 83.217 68.9088 82.844 69.9748C82.612 70.6388 82.36 71.3017 82.099 71.9657L81.847 72.6297C81.934 72.6673 82.0182 72.7111 82.099 72.7607C83.2149 73.3089 84.0796 74.262 84.517 75.4257C84.6514 75.7882 84.6476 76.1875 84.5063 76.5474C84.365 76.9073 84.0961 77.2025 83.751 77.3768C83.6313 77.4486 83.5391 77.5584 83.489 77.6887C83.4303 77.9419 83.3106 78.1768 83.1403 78.3731C82.9701 78.5694 82.7543 78.721 82.512 78.8147L80.85 77.1558L81.132 77.2867C81.605 77.4867 81.887 77.5867 81.958 77.5477C82.0009 77.1865 81.9941 76.8211 81.938 76.4618L81.908 76.1798H82.484C82.5494 76.1607 82.6163 76.1473 82.684 76.1398C82.8108 76.1196 82.9335 76.0787 83.047 76.0187C83.028 75.8702 82.9801 75.7269 82.906 75.5968C82.4761 74.8256 81.7795 74.2378 80.947 73.9438C80.7595 73.8773 80.5619 73.8435 80.363 73.8437C80.0496 73.868 79.7451 73.9596 79.4703 74.1124C79.1956 74.2651 78.957 74.4754 78.771 74.7287C78.7164 74.7897 78.6691 74.8569 78.63 74.9288L77.592 73.8927C77.7988 73.6344 78.0354 73.4015 78.297 73.1987C78.5919 72.9917 78.9017 72.8068 79.224 72.6457C79.274 72.6157 79.324 72.5957 79.365 72.5657C77.9654 71.0951 76.408 69.7832 74.721 68.6538L72.721 67.3267L74.957 68.1917C76.0285 68.5778 77.0633 69.0591 78.049 69.6297C78.7128 70.0521 79.3519 70.5122 79.963 71.0077C80.134 71.1487 80.316 71.2788 80.497 71.4198L82.935 64.7027C82.735 64.7727 82.542 64.8338 82.341 64.9028C81.525 65.1638 80.76 65.4157 79.954 65.6167C77.8314 66.2677 75.5503 66.1756 73.487 65.3557C72.963 65.1112 72.4611 64.8218 71.987 64.4907C71.896 64.4307 71.796 64.3697 71.705 64.3097V64.3498C71.685 64.7118 71.665 65.0937 71.655 65.4757C71.655 65.7977 71.625 66.1197 71.625 66.4507C71.595 66.9337 71.595 67.4058 71.585 67.8888L55.704 52.0438L62.272 45.4878C63.1244 46.895 64.3713 48.0209 65.858 48.7257C66.412 48.9367 66.986 49.1257 67.55 49.3187C68.05 49.4897 68.557 49.6607 69.05 49.8517C69.3915 49.9792 69.6936 50.194 69.926 50.4748C71.0629 52.0863 72.6414 53.3348 74.4715 54.0699C76.3016 54.8049 78.3052 54.9952 80.241 54.6177C82.1338 54.36 83.9125 53.5629 85.3646 52.3216C86.8167 51.0804 87.8808 49.4474 88.43 47.6177C89.024 45.8477 89.478 43.9878 89.921 42.1978L90.204 41.0438L88.734 43.2577L88.613 42.6247C88.1827 40.763 87.2121 39.0699 85.823 37.7577L85.623 37.5467L85.875 37.3757C86.117 37.2047 86.348 37.0338 86.58 36.8628C87.0791 36.4785 87.604 36.129 88.151 35.8167C88.4626 35.6195 88.8151 35.4962 89.1817 35.4561C89.5483 35.4161 89.9192 35.4604 90.266 35.5858C90.7473 35.8095 91.1361 36.1933 91.366 36.6717L91.447 36.3597C91.689 35.4347 91.931 34.5397 92.182 33.6597C92.242 33.4287 92.212 33.3477 92.011 33.1867C91.2587 32.5341 90.3213 32.1329 89.3298 32.0391C88.3383 31.9453 87.3423 32.1637 86.481 32.6637C85.74 33.0916 85.0329 33.5757 84.366 34.1117C84.084 34.3327 83.792 34.5537 83.49 34.7557C83.4664 34.8149 83.4238 34.8645 83.369 34.8967C83.3134 34.9275 83.251 34.9436 83.1875 34.9436C83.124 34.9436 83.0616 34.9275 83.006 34.8967C80.9068 33.9269 78.5476 33.6721 76.2898 34.1716C74.032 34.671 72.0003 35.897 70.506 37.6618C70.4324 37.7598 70.3334 37.8359 70.2198 37.8819C70.1061 37.9279 69.9821 37.942 69.861 37.9227L90.728 17.0938C92.6974 19.2697 94.48 21.6076 96.057 24.0827C95.644 25.7017 94.949 28.6977 94.909 28.8387C93.831 32.9207 92.756 36.9798 91.684 41.0158C91.261 42.6248 90.828 44.2438 90.405 45.8158L89.942 47.5658H90.506C91.1977 47.5356 91.8905 47.5456 92.581 47.5957C93.637 47.6668 94.6412 48.0796 95.442 48.7717C95.795 49.0717 96.369 49.6568 96.318 50.1898L96.35 50.2057ZM91.696 50.7388L92.945 50.6488C93.0985 50.6288 93.2532 50.6187 93.408 50.6187C93.759 50.6059 94.1089 50.5725 94.456 50.5187C94.5914 50.4796 94.718 50.4147 94.829 50.3277C94.7599 50.1949 94.6716 50.0729 94.567 49.9657C93.6205 49.3072 92.4864 48.9722 91.334 49.0107C90.8573 48.9377 90.3698 49.0281 89.951 49.2672C89.5321 49.5063 89.2065 49.8801 89.027 50.3277C88.4718 51.6266 87.569 52.747 86.418 53.5658C85.431 54.2298 84.655 54.7117 83.918 55.1147C81.8321 56.3298 79.3995 56.8114 77.008 56.4827C76.2468 56.3698 75.4981 56.1847 74.772 55.9297C73.6339 55.5271 72.5614 54.959 71.589 54.2437C71.428 54.6657 71.289 55.0787 71.176 55.4707C70.8038 56.6571 70.6739 57.9062 70.794 59.1437C70.8558 60.0964 71.1701 61.0154 71.7047 61.8063C72.2394 62.5972 72.975 63.2314 73.836 63.6437C74.939 64.1572 76.1458 64.4084 77.362 64.3778C79.9211 64.3284 82.373 63.3409 84.252 61.6027C86.1428 59.8878 87.7659 57.899 89.067 55.7027C89.2292 55.4103 89.4613 55.1627 89.7426 54.9819C90.0239 54.8011 90.3456 54.6928 90.679 54.6667L91.193 54.6268C91.928 54.5568 92.684 54.4857 93.419 54.3657C93.593 54.3173 93.7544 54.2317 93.892 54.1147C93.8405 53.8845 93.7168 53.6768 93.539 53.5217C93.2865 53.3585 93.0185 53.2205 92.739 53.1097C92.618 53.0597 92.507 53.0197 92.407 52.9688L91.48 52.5368L92.507 52.4767C92.6649 52.4799 92.8229 52.4732 92.98 52.4567C93.4046 52.4488 93.8284 52.4154 94.249 52.3568C94.3784 52.2965 94.4947 52.2112 94.591 52.1058C94.6073 52.0917 94.6208 52.0747 94.631 52.0557C94.631 52.0557 94.611 52.0257 94.601 52.0257C94.5371 51.8984 94.4439 51.788 94.329 51.7038C93.9952 51.5573 93.6521 51.433 93.302 51.3317C93.161 51.2917 93.002 51.2418 92.859 51.1908L91.684 50.7697L91.696 50.7388Z" fill="#A2C36E"/>
<path d="M32.18 35.787C32.3676 36.3072 32.4728 36.8534 32.492 37.406C32.5822 39.2643 32.0778 41.1029 31.052 42.655C30.6705 43.2641 30.1504 43.7744 29.534 44.144C29.4853 44.1795 29.4288 44.2026 29.3692 44.2113C29.3096 44.22 29.2488 44.2141 29.192 44.194C29.1102 44.1563 29.043 44.0927 29.001 44.013C28.5468 43.2635 28.3033 42.4054 28.296 41.529C28.204 39.6247 28.7459 37.7435 29.837 36.18C30.1993 35.6357 30.6817 35.1817 31.247 34.853L13.488 17.124C10.343 20.5809 7.67956 24.4468 5.57 28.617C6.17601 28.8992 6.69687 29.3362 7.08 29.884C7.79721 30.773 8.32458 31.7996 8.62952 32.9003C8.93447 34.0011 9.01053 35.1527 8.853 36.284C8.7929 36.5985 8.69833 36.9053 8.571 37.199C8.521 37.32 8.471 37.45 8.43 37.571C8.41543 37.6259 8.38886 37.6769 8.3522 37.7203C8.31554 37.7637 8.2697 37.7985 8.218 37.822C8.17388 37.8384 8.12675 37.8451 8.07982 37.8416C8.03289 37.8382 7.98725 37.8247 7.946 37.802C7.93848 37.7933 7.9293 37.7862 7.919 37.781C7.9087 37.7759 7.89749 37.7728 7.886 37.772L7.554 37.581C6.72239 37.0218 6.05235 36.2538 5.611 35.354C4.83629 33.965 4.46306 32.3879 4.533 30.799C3.64553 32.788 2.88174 34.8299 2.246 36.913C2.71216 36.8605 3.18407 36.8982 3.636 37.024C4.8181 37.3274 5.92028 37.8838 6.8664 38.6546C7.81253 39.4255 8.58006 40.3926 9.116 41.489C9.36043 41.9752 9.48165 42.514 9.469 43.058V43.158L9.369 43.188C8.87255 43.3086 8.35444 43.3086 7.858 43.188C7.35152 43.1061 6.85732 42.961 6.387 42.756C4.66971 41.9865 3.2386 40.6953 2.297 39.066C2.13109 38.7658 1.99703 38.4491 1.897 38.121C-0.451951 46.5859 -0.619062 55.5077 1.41125 64.0545C3.44156 72.6014 7.60316 80.4949 13.508 86.999L48.492 52.067L32.18 35.787ZM23.557 41.887C23.5958 41.3093 23.7757 40.75 24.081 40.258L24.141 40.168L24.241 40.198C24.9425 40.4394 25.5609 40.8754 26.024 41.455C27.4942 43.1254 28.25 45.3061 28.129 47.528C28.1006 48.0942 27.9567 48.6486 27.706 49.157C27.6896 49.2047 27.6628 49.2481 27.6275 49.2841C27.5922 49.3201 27.5494 49.3477 27.5021 49.3651C27.4547 49.3824 27.4042 49.389 27.354 49.3843C27.3038 49.3796 27.2553 49.3638 27.212 49.338H27.192C26.5867 49.0735 26.0545 48.6662 25.641 48.151C24.8951 47.2999 24.3273 46.308 23.9709 45.2339C23.6145 44.1598 23.4768 43.0252 23.566 41.897L23.557 41.887ZM22.057 47.887C22.1002 47.6244 22.1747 47.3679 22.279 47.123C22.309 47.023 22.36 46.923 22.39 46.823C22.4027 46.769 22.4273 46.7185 22.4619 46.6751C22.4964 46.6317 22.5402 46.5965 22.59 46.572C22.7107 46.5382 22.8395 46.5489 22.953 46.602C23.7434 46.9712 24.4188 47.548 24.907 48.271C25.9979 49.7671 26.5924 51.5675 26.607 53.419C26.6237 54.1958 26.4324 54.963 26.053 55.641L26.003 55.741L25.892 55.711C25.7825 55.6768 25.675 55.6364 25.57 55.59C25.1554 55.4124 24.7812 55.1525 24.47 54.826C23.5571 53.9356 22.8648 52.8444 22.4481 51.6392C22.0315 50.434 21.902 49.1481 22.07 47.884L22.057 47.887ZM20.435 54.674C20.4603 54.0427 20.648 53.4286 20.98 52.891L21.04 52.801L21.14 52.841C21.9724 53.1519 22.6895 53.7103 23.195 54.441C24.3851 55.9699 25.0303 57.8526 25.028 59.79C25.0474 60.4819 24.8988 61.1681 24.595 61.79C24.576 61.8381 24.5469 61.8814 24.5097 61.9173C24.4724 61.9531 24.428 61.9805 24.3792 61.9977C24.3305 62.0148 24.2787 62.0213 24.2272 62.0167C24.1758 62.0121 24.1259 61.9965 24.081 61.971C23.3245 61.6251 22.6741 61.0834 22.197 60.402C20.9362 58.7747 20.3065 56.7463 20.424 54.691L20.435 54.674ZM19.448 59.118L19.559 59.148C20.1322 59.3174 20.6479 59.6408 21.05 60.083C21.9096 60.9467 22.5682 61.9892 22.9791 63.1363C23.3899 64.2834 23.5428 65.507 23.427 66.72C23.3867 67.0365 23.3088 67.347 23.195 67.645L23.074 68.007C23.0628 68.0656 23.0392 68.1211 23.0047 68.1698C22.9702 68.2184 22.9256 68.2591 22.874 68.289C22.8169 68.3122 22.7552 68.3215 22.6939 68.3163C22.6326 68.3111 22.5733 68.2915 22.521 68.259H22.491C21.5361 67.7816 20.7467 67.0284 20.225 66.097C19.2601 64.5994 18.7848 62.8388 18.865 61.059C18.8894 60.408 19.0727 59.7729 19.399 59.209L19.449 59.119L19.448 59.118ZM18.248 52.451C18.319 52.411 18.389 52.371 18.47 52.32L18.581 52.25L18.652 52.361C19.087 52.9973 19.3348 53.7429 19.367 54.513C19.471 56.0622 19.1578 57.611 18.46 58.998C18.037 59.9434 17.3778 60.764 16.546 61.381C16.4134 61.4728 16.2755 61.5566 16.133 61.632C16.0632 61.663 15.9962 61.7002 15.933 61.743L15.822 61.803L15.741 61.703C15.3839 61.1889 15.159 60.5947 15.086 59.973C14.8958 58.5029 15.1009 57.0086 15.68 55.644C16.0894 54.497 16.818 53.4909 17.78 52.744C17.9245 52.6348 18.0796 52.5403 18.243 52.462L18.248 52.451ZM16.5 46.164L16.651 46.104L16.711 46.195C17.0988 46.7536 17.3286 47.4066 17.376 48.085C17.536 49.5434 17.3065 51.0182 16.711 52.359C16.3539 53.2784 15.8003 54.1088 15.089 54.792C14.9001 54.9481 14.7017 55.0924 14.495 55.224C14.395 55.294 14.295 55.365 14.195 55.424C14.1558 55.459 14.1091 55.4844 14.0584 55.4983C14.0077 55.5122 13.9545 55.5142 13.903 55.504C13.883 55.504 13.873 55.484 13.853 55.484C13.7679 55.4388 13.6982 55.3692 13.653 55.284C13.2857 54.6082 13.0887 53.8531 13.079 53.084C13.004 51.1107 13.6036 49.1708 14.779 47.584C15.1878 46.9927 15.7433 46.5178 16.391 46.206C16.4256 46.1867 16.4631 46.1732 16.502 46.166L16.5 46.164ZM14.687 39.889L14.747 39.969C15.1449 40.5423 15.3784 41.2135 15.422 41.91C15.6322 44.0482 15.0319 46.1874 13.74 47.904C13.3527 48.4471 12.846 48.8942 12.259 49.211C12.2133 49.2493 12.1591 49.2759 12.1008 49.2886C12.0426 49.3013 11.9822 49.2996 11.9247 49.2838C11.8673 49.268 11.8146 49.2384 11.7711 49.1977C11.7275 49.157 11.6946 49.1063 11.675 49.05C11.2582 48.2622 11.0633 47.376 11.111 46.486C11.1285 44.5407 11.7974 42.6575 13.011 41.137C13.4226 40.6068 13.9636 40.1911 14.582 39.93L14.687 39.889ZM9.147 40.543C9.0934 38.5276 9.75358 36.558 11.011 34.982C11.4306 34.4283 11.9858 33.9919 12.623 33.715L12.723 33.675L12.794 33.765C13.3199 34.5837 13.5704 35.549 13.509 36.52C13.5113 38.5247 12.8051 40.4656 11.515 42C11.2541 42.2825 10.9599 42.5323 10.639 42.744C10.548 42.824 10.439 42.885 10.347 42.965C10.2975 43.0077 10.2397 43.0396 10.1772 43.0587C10.1147 43.0778 10.0489 43.0837 9.984 43.076C9.954 43.076 9.944 43.056 9.913 43.046C9.80647 42.9919 9.72124 42.9035 9.671 42.795C9.29938 42.0999 9.1121 41.3211 9.127 40.533L9.147 40.543ZM3.707 43.771C3.677 43.51 3.647 43.371 3.737 43.258C3.827 43.145 3.979 43.127 4.237 43.117C5.16179 43.0672 6.08314 43.265 6.906 43.69C8.14226 44.2604 9.23119 45.1068 10.089 46.164C10.7956 46.9487 11.2548 47.9245 11.409 48.969V49.369L11.309 49.399C10.6755 49.5401 10.0165 49.516 9.395 49.329C9.01987 49.2275 8.65231 49.0998 8.295 48.947C7.02378 48.3754 5.90039 47.5202 5.011 46.447C4.32844 45.6983 3.87395 44.7703 3.701 43.772L3.707 43.771ZM5.651 49.513V49.413L5.762 49.383C6.49819 49.2336 7.2613 49.2893 7.968 49.544C9.99026 50.1989 11.6995 51.5774 12.768 53.415C13.1012 53.9621 13.3063 54.5774 13.368 55.215C13.3808 55.2689 13.381 55.325 13.3686 55.379C13.3561 55.433 13.3314 55.4833 13.2962 55.5261C13.2611 55.5689 13.2165 55.603 13.166 55.6257C13.1154 55.6484 13.0603 55.6592 13.005 55.657C12.1084 55.7399 11.2057 55.5876 10.386 55.215C10.346 55.185 10.295 55.175 10.245 55.145C8.61527 54.4269 7.24177 53.2313 6.306 51.716C5.87851 51.0569 5.64782 50.2896 5.641 49.504L5.651 49.513ZM14.022 61.871C13.4253 61.8106 12.8429 61.6508 12.299 61.398C11.8646 61.2085 11.4468 60.9831 11.05 60.724C9.68419 59.8869 8.59468 58.6666 7.917 57.215C7.70985 56.7464 7.60355 56.2394 7.605 55.727V55.627L7.705 55.597C8.3471 55.4411 9.01977 55.4653 9.649 55.667C11.3554 56.1504 12.8714 57.1476 13.991 58.523C14.602 59.2135 15.0373 60.0413 15.26 60.936C15.29 61.087 15.31 61.248 15.331 61.419C15.331 61.499 15.351 61.6 15.361 61.701L15.381 61.852H15.23C15.0987 61.8484 14.9673 61.8551 14.837 61.872C14.556 61.871 14.294 61.891 14.022 61.871ZM16.772 74.923C16.6744 74.8385 16.5948 74.7354 16.5378 74.6196C16.4808 74.5039 16.4475 74.3779 16.44 74.249C16.405 73.5343 16.4287 72.8179 16.511 72.107C16.592 71.514 16.711 70.907 16.833 70.327C16.914 69.885 17.014 69.427 17.085 68.97C17.3011 68.0273 17.1875 67.039 16.763 66.17C16.3749 65.5444 15.8423 65.0211 15.21 64.644C15.019 64.546 14.8665 64.3866 14.7769 64.1915C14.6873 63.9963 14.6659 63.7768 14.716 63.568C14.7457 63.417 14.8104 63.275 14.9049 63.1534C14.9994 63.0319 15.121 62.9341 15.26 62.868C15.4108 62.8019 15.575 62.7719 15.7394 62.7806C15.9039 62.7893 16.064 62.8364 16.207 62.918C16.288 62.968 16.378 63.018 16.459 63.079L16.559 63.149C17.265 63.6344 17.8733 64.2485 18.352 64.959C19.0377 66.0922 19.2949 67.4335 19.077 68.74C18.977 69.454 18.835 70.178 18.704 70.892C18.644 71.224 18.573 71.556 18.513 71.877C18.3743 72.5787 18.3369 73.2967 18.402 74.009C18.4351 74.2738 18.3631 74.541 18.2013 74.7532C18.0396 74.9654 17.8011 75.1058 17.537 75.144C17.356 75.1712 17.1709 75.147 17.003 75.074C16.9147 75.0312 16.8304 74.9807 16.751 74.923H16.772ZM22.594 76.089C22.194 76.612 21.738 77.105 21.315 77.577C20.962 77.959 20.61 78.361 20.267 78.777C19.8431 79.3147 19.4594 79.8829 19.119 80.477C18.9992 80.7031 18.8012 80.8778 18.5619 80.9686C18.3227 81.0593 18.0586 81.0598 17.819 80.97L17.799 80.95C17.6789 80.8988 17.5703 80.824 17.4797 80.7299C17.3891 80.6359 17.3184 80.5246 17.2717 80.4026C17.2251 80.2806 17.2034 80.1505 17.2081 80.02C17.2128 79.8895 17.2437 79.7613 17.299 79.643C17.38 79.443 17.49 79.251 17.591 79.05C17.631 78.97 17.682 78.889 17.732 78.799C18.1422 78.1937 18.6039 77.6249 19.112 77.099C19.303 76.899 19.485 76.687 19.666 76.486C20.23 75.8561 20.7579 75.1947 21.247 74.505C21.5442 74.078 21.7303 73.5837 21.7884 73.0667C21.8466 72.5497 21.7749 72.0264 21.58 71.544C21.469 71.244 21.348 70.951 21.227 70.659C21.1185 70.4268 21.1063 70.1612 21.1931 69.92C21.2798 69.6789 21.4585 69.4819 21.69 69.372C21.8081 69.309 21.9376 69.2704 22.0709 69.2583C22.2042 69.2463 22.3385 69.2612 22.466 69.302C22.5821 69.3418 22.6886 69.4052 22.7788 69.4884C22.869 69.5715 22.941 69.6726 22.99 69.785C23.2859 70.4216 23.5203 71.0849 23.69 71.766C23.8535 72.5212 23.8392 73.304 23.6483 74.0526C23.4574 74.8013 23.0951 75.4954 22.59 76.08L22.594 76.089ZM30.28 63.821C29.7978 64.9367 29.0801 65.9349 28.176 66.7472C27.2718 67.5595 26.2028 68.1666 25.042 68.527C24.5068 68.7046 23.9364 68.7495 23.38 68.658L23.28 68.638V68.527C23.2305 68.0607 23.289 67.5892 23.451 67.149C23.9349 65.7775 24.7975 64.5712 25.939 63.67C26.8701 62.8288 28.0096 62.2525 29.239 62.001C29.5123 61.9578 29.7883 61.9344 30.065 61.931C30.1897 61.9344 30.3144 61.9277 30.438 61.911H30.58V62.044C30.6353 62.6545 30.5277 63.2687 30.268 63.824L30.28 63.821ZM31.549 58.13C30.5843 59.8866 29.0438 61.2572 27.187 62.011C26.4787 62.323 25.6983 62.4343 24.931 62.333L24.831 62.313V62.213C24.7768 61.7829 24.8216 61.3461 24.962 60.936C25.3325 59.7842 25.9858 58.7435 26.862 57.909C27.8104 56.9122 29.0007 56.1777 30.317 55.777C30.8735 55.601 31.4632 55.5562 32.04 55.646L32.151 55.666V55.777C32.191 56.6029 31.9842 57.4221 31.557 58.13H31.549ZM33.513 50.84C33.0049 52.2617 32.0951 53.5053 30.894 54.42C29.9992 55.2014 28.9157 55.7354 27.751 55.969C27.4714 56.017 27.1886 56.0438 26.905 56.049C26.774 56.049 26.653 56.069 26.512 56.079H26.371V55.944C26.3163 55.2385 26.4593 54.5318 26.784 53.903C27.7574 51.8727 29.4906 50.3069 31.609 49.544C32.233 49.2995 32.9103 49.2233 33.573 49.323L33.673 49.343L33.693 49.443C33.745 49.9177 33.6833 50.3979 33.513 50.844V50.84ZM34.44 45.84L34.359 45.971C33.3031 47.6731 31.6744 48.9426 29.766 49.551C29.4433 49.6363 29.1124 49.687 28.779 49.702C28.648 49.702 28.527 49.722 28.396 49.732C28.3042 49.7394 28.2119 49.7292 28.124 49.702C28.094 49.682 28.053 49.672 28.033 49.642C27.988 49.5881 27.9549 49.5254 27.9358 49.4578C27.9166 49.3903 27.9119 49.3195 27.922 49.25C27.956 48.5494 28.1562 47.867 28.506 47.259C29.5238 45.3732 31.2027 43.9301 33.22 43.207C33.7628 43.0055 34.3426 42.9233 34.92 42.966C35.182 42.966 35.293 43.107 35.283 43.366C35.2377 44.13 35.017 44.8732 34.638 45.538C34.5836 45.6389 34.5232 45.7364 34.457 45.83L34.44 45.84Z" fill="#FEC743"/>
<path d="M34.641 100.366L34.611 100.789L35.024 100.689C35.155 100.659 35.296 100.639 35.447 100.618C35.6382 100.626 35.8289 100.594 36.0074 100.526C36.186 100.457 36.3485 100.352 36.485 100.218C37.1953 99.2246 37.8028 98.1615 38.298 97.0451C38.782 95.9451 39.225 94.8191 39.658 93.7451C40.192 92.4251 40.726 91.0661 41.32 89.7561C42.448 87.2981 43.607 86.8751 46.306 87.9631C47.263 88.3561 47.364 88.9101 47.485 89.9571C47.576 90.7831 47.203 90.9951 46.478 91.3871C42.338 93.6231 41.421 95.9101 42.811 100.412L42.861 100.593C42.911 100.764 42.961 100.925 43.022 101.087C43.3226 101.821 43.3964 102.628 43.234 103.404C33.4955 101.721 24.4365 97.3032 17.114 90.6661L36.092 71.6881C36.283 71.9001 36.455 72.1311 36.646 72.3331C37.2036 72.9274 37.7185 73.5603 38.187 74.2271C38.8226 75.226 39.4044 76.2582 39.93 77.3191C40.111 77.6611 40.283 77.9941 40.464 78.3261C41.8931 81.0795 44.1728 83.2982 46.964 84.6521C47.407 84.8641 47.669 85.0951 47.73 85.3371C47.7525 85.4796 47.7464 85.6251 47.7121 85.7652C47.6778 85.9053 47.6159 86.0372 47.53 86.1531L47.318 86.0721C47.006 85.9411 46.718 85.8301 46.401 85.7191C43.157 84.5911 41.133 85.3871 39.601 88.3581C39.158 89.2341 38.785 90.1411 38.433 91.0371C38.181 91.6311 37.949 92.2461 37.667 92.8301C37.244 93.7571 36.811 94.6831 36.378 95.6101C35.844 96.7281 35.33 97.8461 34.827 98.9741C34.7109 99.2965 34.6596 99.6387 34.676 99.9811C34.679 100.115 34.6723 100.248 34.656 100.381L34.641 100.366ZM49.341 95.2791L47.961 92.9121C47.739 93.0631 47.518 93.2241 47.306 93.3751C46.6262 93.8237 45.9706 94.308 45.342 94.8261C44.8895 95.1829 44.5551 95.6679 44.3825 96.2177C44.21 96.7676 44.2074 97.3567 44.375 97.9081C44.405 98.0391 44.425 98.1601 44.456 98.3011C44.4965 98.5602 44.5677 98.8137 44.668 99.0561C45.3877 100.492 45.6114 102.125 45.304 103.701L46.583 103.852C46.1579 102.312 46.1906 100.681 46.6772 99.1583C47.1638 97.636 48.0832 96.2884 49.323 95.2801L49.341 95.2791ZM67.541 71.0631C67.541 71.0631 67.501 71.1441 67.47 71.1941C67.2269 71.4754 66.9678 71.7425 66.694 71.9941C66.3886 72.2531 66.1147 72.5471 65.878 72.8701C65.3579 73.6351 64.887 74.4323 64.468 75.2571L64.287 75.5891C61.043 81.5821 60.842 81.8241 55.287 85.2591L55.487 86.1961L56.087 85.9841C56.7417 85.7461 57.4094 85.5458 58.087 85.3841C59.0476 85.0732 60.0886 85.1226 61.0155 85.523C61.9424 85.9234 62.6919 86.6475 63.124 87.5601C63.859 88.9701 64.484 90.4601 65.088 91.8911C65.461 92.8081 65.864 93.7441 66.277 94.6611C66.64 95.4271 67.043 96.2121 67.435 96.9481C67.798 97.6531 68.17 98.3681 68.513 99.0941C68.6218 99.4045 68.6463 99.7381 68.584 100.061C68.584 100.192 68.554 100.313 68.554 100.424V100.787L68.204 100.701C68.083 100.671 67.952 100.671 67.811 100.651C67.63 100.666 67.4479 100.641 67.2775 100.578C67.107 100.516 66.9523 100.417 66.824 100.288C66.1084 99.3067 65.4911 98.2573 64.981 97.1551C64.497 96.0371 64.034 94.8781 63.591 93.7701C63.057 92.4301 62.513 91.0501 61.909 89.7311C61.6958 89.1867 61.3606 88.6984 60.9294 88.3037C60.4981 87.909 59.9821 87.6184 59.421 87.4541C58.8155 87.3501 58.1943 87.3862 57.6049 87.5595C57.0156 87.7328 56.4738 88.0389 56.021 88.4541C55.7028 88.8318 55.5465 89.3199 55.5862 89.8122C55.6259 90.3045 55.8583 90.7612 56.233 91.0831L56.364 91.1641C57.0288 91.5098 57.6713 91.8965 58.288 92.3221C61.088 94.3471 61.824 96.5331 60.655 99.4131C60.0753 100.698 59.9235 102.135 60.222 103.513C70.2519 101.943 79.6029 97.4712 87.122 90.6501L67.541 71.0631ZM55.019 92.9721L53.76 95.1481C54.8874 96.1228 55.7768 97.3426 56.36 98.7141C57.0674 100.367 57.1534 102.22 56.602 103.932C57.015 103.902 57.428 103.851 57.841 103.811C57.6377 102.829 57.7002 101.81 58.022 100.86C58.093 100.648 58.153 100.437 58.213 100.215C58.263 100.034 58.324 99.8521 58.374 99.6611C59.482 96.0951 58.545 94.2011 55.02 92.9611L55.019 92.9721ZM52.104 55.6211L37.653 70.0861C38.1643 70.4643 38.6102 70.9237 38.973 71.4461C40.041 73.0981 40.998 74.8461 41.934 76.5461L42.448 77.4831C43.836 79.9587 45.9934 81.9142 48.593 83.0531L49.187 82.2871C46.105 79.2871 45.487 76.1731 47.354 72.7871C45.128 71.1951 44.745 69.6951 45.893 67.1661C46.4323 66.02 47.0834 64.9301 47.837 63.9121C47.9717 63.7815 48.1309 63.679 48.3055 63.6103C48.48 63.5417 48.6665 63.5083 48.854 63.5121C48.9933 63.4991 49.1314 63.4753 49.267 63.4411L49.64 63.3411V63.7341C49.6366 63.8587 49.6433 63.9835 49.66 64.1071C49.716 64.4384 49.6846 64.7786 49.569 65.0941C49.287 65.6681 48.975 66.2421 48.652 66.7861C48.299 67.4211 47.927 68.0751 47.625 68.7401C47.5243 68.8846 47.4538 69.048 47.4175 69.2203C47.3813 69.3927 47.38 69.5706 47.4139 69.7435C47.4477 69.9164 47.516 70.0806 47.6146 70.2266C47.7133 70.3725 47.8402 70.4972 47.988 70.5931C48.602 70.9931 49.088 70.9051 49.872 70.2511C51.514 68.8611 51.756 68.8611 53.438 70.3011C54.586 71.2781 55.05 70.7341 55.211 70.5531C55.4006 70.3035 55.5332 70.0154 55.5993 69.7091C55.6655 69.4028 55.6637 69.0856 55.594 68.7801C55.3038 68.0233 54.9463 67.2941 54.526 66.6011C54.254 66.1171 53.962 65.6241 53.72 65.1101C53.6021 64.7738 53.5742 64.4125 53.639 64.0621C53.639 63.9211 53.669 63.7901 53.669 63.6621V63.2391L54.062 63.3801C54.1925 63.4239 54.3262 63.4573 54.462 63.4801C54.8406 63.5101 55.1935 63.6832 55.449 63.9641C56.2417 65.0678 56.9202 66.2492 57.474 67.4901C58.481 69.8901 58.058 71.3281 55.913 72.7281C57.545 77.0491 57.092 79.2761 53.959 82.3281L54.483 83.1281C56.8587 82.1687 58.8763 80.4926 60.255 78.3331C60.789 77.4331 61.313 76.5001 61.806 75.5931C62.451 74.4351 63.126 73.2161 63.851 72.0671C64.486 71.1415 65.2489 70.3106 66.117 69.5991L52.138 55.6011L52.104 55.6211ZM63.819 104.939C63.7771 104.963 63.7333 104.983 63.688 104.999H64.03C64.0043 104.98 63.9772 104.964 63.949 104.949C63.9276 104.937 63.9033 104.93 63.8785 104.93C63.8538 104.93 63.8294 104.937 63.808 104.949L63.819 104.939Z" fill="#F47C2E"/>
</svg>
