<?xml version="1.0" encoding="UTF-8" standalone="no"?>
<!DOCTYPE svg PUBLIC "-//W3C//DTD SVG 1.1//EN" "http://www.w3.org/Graphics/SVG/1.1/DTD/svg11.dtd">
<svg xmlns="http://www.w3.org/2000/svg" version="1.1" viewBox="0.00 0.00 1024.00 371.00">
<g stroke-width="2.00" fill="none" stroke-linecap="butt">
<path stroke="#90ab4d" vector-effect="non-scaling-stroke" d="
  M 228.10 106.63
  L 195.25 106.64
  A 1.70 1.68 -74.8 0 0 193.79 107.49
  Q 180.29 130.90 166.88 154.10
  Q 166.56 154.67 165.46 155.82"
/>
<path stroke="#c1a443" vector-effect="non-scaling-stroke" d="
  M 165.46 155.82
  L 109.39 156.15
  A 1.38 1.37 14.6 0 0 108.22 156.83
  L 91.72 185.44"
/>
<path stroke="#578178" vector-effect="non-scaling-stroke" d="
  M 166.15 156.48
  Q 165.26 156.94 165.05 157.30
  Q 157.06 171.14 149.09 185.07
  A 0.89 0.89 0.0 0 0 149.09 185.95
  L 165.62 214.57"
/>
<path stroke="#be5873" vector-effect="non-scaling-stroke" d="
  M 165.62 214.57
  L 109.33 214.63
  A 1.33 1.32 -14.8 0 1 108.18 213.97
  L 91.71 185.89"
/>
<path stroke="#43bd97" vector-effect="non-scaling-stroke" d="
  M 228.72 106.70
  Q 228.58 106.91 228.55 107.16
  Q 228.53 107.38 228.66 107.61
  Q 236.82 121.58 244.77 135.42
  A 1.08 1.08 0.0 0 1 244.76 136.49
  L 216.54 185.34"
/>
<path stroke="#268981" vector-effect="non-scaling-stroke" d="
  M 216.54 185.34
  L 199.93 156.59
  A 1.09 1.08 74.6 0 0 198.97 156.04
  L 166.15 156.48"
/>
<path stroke="#5db073" vector-effect="non-scaling-stroke" d="
  M 166.15 156.48
  Q 165.67 156.14 165.46 155.82"
/>
<path stroke="#693c8a" vector-effect="non-scaling-stroke" d="
  M 216.63 185.62
  L 200.50 213.15
  A 3.16 3.15 15.1 0 1 197.80 214.70
  L 166.75 214.72"
/>
<path stroke="#873181" vector-effect="non-scaling-stroke" d="
  M 166.75 214.72
  Q 165.81 214.94 165.62 214.57"
/>
<path stroke="#86719f" vector-effect="non-scaling-stroke" d="
  M 228.58 264.07
  Q 228.56 263.77 228.56 263.54
  Q 228.57 263.31 228.71 263.06
  Q 236.80 249.20 244.72 235.43
  A 1.16 1.15 45.4 0 0 244.72 234.28
  L 216.63 185.62"
/>
<path stroke="#3d8f9c" vector-effect="non-scaling-stroke" d="
  M 216.63 185.62
  Q 216.55 185.83 216.54 185.34"
/>
<path stroke="#d01385" vector-effect="non-scaling-stroke" d="
  M 228.02 264.26
  L 195.66 264.16
  A 2.30 2.28 75.0 0 1 193.70 263.02
  Q 180.66 240.55 167.71 217.81
  Q 166.93 216.45 166.75 214.72"
/>
</g>
<path fill="#f49f1d" d="
  M 228.10 106.63
  L 195.25 106.64
  A 1.70 1.68 -74.8 0 0 193.79 107.49
  Q 180.29 130.90 166.88 154.10
  Q 166.56 154.67 165.46 155.82
  L 109.39 156.15
  A 1.38 1.37 14.6 0 0 108.22 156.83
  L 91.72 185.44
  L 63.37 136.39
  Q 63.12 135.96 63.37 135.53
  L 108.26 57.78
  A 1.13 1.10 14.7 0 1 109.23 57.23
  L 198.55 57.25
  Q 199.59 57.25 200.11 58.15
  L 228.10 106.63
  Z"
/>
<rect fill="#ffffff" x="642.77" y="104.40" width="5.60" height="74.14" rx="0.61"/>
<path fill="#2cb77c" d="
  M 228.72 106.70
  Q 228.58 106.91 228.55 107.16
  Q 228.53 107.38 228.66 107.61
  Q 236.82 121.58 244.77 135.42
  A 1.08 1.08 0.0 0 1 244.76 136.49
  L 216.54 185.34
  L 199.93 156.59
  A 1.09 1.08 74.6 0 0 198.97 156.04
  L 166.15 156.48
  Q 165.67 156.14 165.46 155.82
  Q 166.56 154.67 166.88 154.10
  Q 180.29 130.90 193.79 107.49
  A 1.70 1.68 -74.8 0 1 195.25 106.64
  L 228.10 106.63
  Q 228.20 106.58 228.72 106.70
  Z"
/>
<path fill="#5ac3b1" d="
  M 228.58 264.07
  Q 228.56 263.77 228.56 263.54
  Q 228.57 263.31 228.71 263.06
  Q 236.80 249.20 244.72 235.43
  A 1.16 1.15 45.4 0 0 244.72 234.28
  L 216.63 185.62
  Q 216.55 185.83 216.54 185.34
  L 244.76 136.49
  A 1.08 1.08 0.0 0 0 244.77 135.42
  Q 236.82 121.58 228.66 107.61
  Q 228.53 107.38 228.55 107.16
  Q 228.58 106.91 228.72 106.70
  L 284.79 106.70
  Q 285.31 106.70 285.57 107.15
  L 330.46 184.94
  A 0.91 0.91 0.0 0 1 330.46 185.86
  L 285.57 263.60
  Q 285.31 264.06 284.79 264.06
  L 228.58 264.07
  Z"
/>
<path fill="#ffffff" d="
  M 397.82 159.67
  Q 389.28 159.68 380.71 159.69
  Q 380.13 159.69 379.93 160.22
  L 373.15 177.66
  Q 372.78 178.62 371.71 178.61
  L 367.24 178.56
  Q 366.39 178.56 366.70 177.77
  L 394.39 107.67
  A 1.18 1.18 0.0 0 1 395.55 106.94
  Q 396.47 107.00 397.76 107.00
  Q 399.05 107.00 399.97 106.94
  A 1.18 1.18 0.0 0 1 401.13 107.66
  L 428.98 177.70
  Q 429.29 178.49 428.44 178.49
  L 423.97 178.55
  Q 422.90 178.56 422.53 177.60
  L 415.71 160.18
  Q 415.51 159.65 414.93 159.65
  Q 406.36 159.66 397.82 159.67
  Z
  M 382.43 153.75
  A 0.32 0.32 0.0 0 0 382.73 154.18
  L 412.94 154.08
  A 0.32 0.32 0.0 0 0 413.24 153.64
  L 398.00 114.88
  A 0.32 0.32 0.0 0 0 397.40 114.88
  L 382.43 153.75
  Z"
/>
<circle fill="#ffffff" cx="663.98" cy="114.93" r="4.56"/>
<path fill="#ffffff" d="
  M 532.30 134.64
  Q 531.99 134.64 531.99 134.95
  Q 532.11 139.89 532.05 164.04
  C 532.04 168.05 532.52 173.20 537.51 173.67
  Q 542.73 174.16 548.53 171.07
  A 0.24 0.24 0.0 0 1 548.87 171.23
  L 549.95 175.75
  A 0.32 0.31 70.6 0 1 549.79 176.10
  C 543.20 179.55 531.97 181.43 527.88 173.37
  Q 526.63 170.91 526.52 165.93
  Q 526.21 152.95 526.49 135.23
  Q 526.50 134.65 525.92 134.65
  L 520.48 134.68
  Q 519.78 134.69 519.78 133.99
  L 519.79 130.20
  Q 519.79 129.50 520.54 129.51
  L 525.89 129.62
  A 0.50 0.50 0.0 0 0 526.40 129.12
  L 526.40 113.31
  Q 526.40 112.52 527.17 112.42
  L 531.32 111.92
  Q 532.07 111.83 532.07 112.57
  L 532.07 128.94
  Q 532.07 129.55 532.69 129.55
  L 549.74 129.54
  Q 550.19 129.54 550.19 130.00
  L 550.17 134.12
  Q 550.17 134.68 549.62 134.68
  L 532.30 134.64
  Z"
/>
<path fill="#ffffff" d="
  M 562.51 137.53
  Q 562.50 139.30 563.50 137.84
  Q 570.01 128.36 582.07 129.14
  A 0.57 0.54 -88.4 0 1 582.58 129.71
  L 582.56 134.72
  A 0.39 0.38 2.7 0 1 582.13 135.10
  Q 568.84 133.89 563.99 146.26
  Q 563.50 147.51 562.93 150.91
  Q 562.54 153.28 562.54 155.66
  Q 562.54 166.93 562.56 177.74
  Q 562.57 178.58 561.73 178.58
  L 557.96 178.54
  Q 557.10 178.53 557.10 177.70
  L 557.09 130.21
  Q 557.09 129.52 557.79 129.52
  L 561.81 129.55
  Q 562.57 129.56 562.56 130.31
  L 562.51 137.53
  Z"
/>
<path fill="#ffffff" d="
  M 625.89 170.72
  Q 625.91 169.44 625.09 170.43
  Q 616.64 180.61 603.03 178.68
  Q 588.57 176.64 583.26 162.74
  Q 582.37 160.42 582.33 156.28
  Q 582.27 150.96 582.48 149.64
  Q 583.39 144.05 586.19 139.88
  Q 589.21 135.38 593.43 132.73
  C 603.17 126.62 617.97 128.03 624.86 138.23
  Q 625.74 139.53 625.74 137.94
  L 625.78 129.99
  Q 625.78 129.50 626.26 129.50
  L 630.74 129.55
  A 0.68 0.65 -90.0 0 1 631.39 130.23
  L 631.39 178.00
  Q 631.39 178.64 630.75 178.63
  L 626.41 178.53
  Q 625.77 178.51 625.78 177.90
  L 625.89 170.72
  Z
  M 606.7064 174.0192
  A 19.89 19.17 90.5 0 0 626.0493 154.2973
  A 19.89 19.17 90.5 0 0 607.0536 134.2408
  A 19.89 19.17 90.5 0 0 587.7107 153.9627
  A 19.89 19.17 90.5 0 0 606.7064 174.0192
  Z"
/>
<path fill="#ffffff" d="
  M 719.20 170.22
  Q 719.20 169.27 718.63 170.01
  Q 710.56 180.35 697.47 178.78
  Q 680.11 176.70 676.21 160.58
  Q 674.16 152.13 677.50 143.78
  Q 680.38 136.59 687.04 132.54
  C 696.82 126.60 711.51 128.19 718.17 138.30
  Q 719.08 139.69 719.10 138.02
  L 719.17 129.77
  A 0.30 0.30 0.0 0 1 719.48 129.47
  L 724.38 129.60
  A 0.29 0.27 -0.0 0 1 724.67 129.87
  L 724.67 177.70
  Q 724.67 178.61 723.76 178.59
  L 720.08 178.53
  Q 719.17 178.51 719.17 177.60
  L 719.20 170.22
  Z
  M 699.4802 174.0091
  A 19.90 19.15 91.9 0 0 719.2795 154.7549
  A 19.90 19.15 91.9 0 0 700.7998 134.2309
  A 19.90 19.15 91.9 0 0 681.0005 153.4851
  A 19.90 19.15 91.9 0 0 699.4802 174.0091
  Z"
/>
<path fill="#ffffff" d="
  M 741.63 138.26
  Q 749.17 128.82 760.97 129.10
  C 773.27 129.39 777.64 137.95 777.67 149.52
  Q 777.71 165.81 777.65 178.10
  Q 777.65 178.51 777.24 178.51
  L 772.50 178.50
  A 0.42 0.42 0.0 0 1 772.08 178.08
  Q 772.07 152.55 772.06 148.81
  C 772.06 146.70 771.48 144.01 771.13 142.79
  Q 768.48 133.68 758.34 134.24
  C 750.17 134.70 744.45 139.44 741.99 147.08
  Q 741.10 149.84 741.02 154.98
  Q 740.85 165.84 741.05 177.64
  A 0.87 0.87 0.0 0 1 740.19 178.53
  L 736.33 178.56
  Q 735.34 178.57 735.33 177.58
  L 735.31 130.31
  Q 735.31 129.45 736.19 129.47
  L 740.21 129.56
  Q 741.07 129.58 741.06 130.46
  L 740.99 138.04
  Q 740.98 139.09 741.63 138.26
  Z"
/>
<path fill="#ffffff" d="
  M 488.94 140.03
  Q 488.69 140.69 488.96 142.92
  Q 489.14 144.42 490.04 145.53
  Q 491.71 147.58 494.69 148.67
  Q 504.58 152.30 509.46 154.23
  Q 513.84 155.96 516.15 159.71
  Q 517.08 161.22 517.15 164.03
  C 517.17 165.27 517.44 168.44 516.67 170.09
  Q 514.61 174.47 511.43 176.22
  C 502.06 181.39 489.09 179.05 481.08 172.44
  Q 480.69 172.12 480.98 171.70
  L 483.52 168.05
  Q 483.78 167.67 484.12 167.98
  Q 491.47 174.74 502.26 173.75
  Q 504.47 173.54 506.75 172.52
  Q 512.22 170.04 511.54 164.02
  C 511.17 160.70 506.01 158.64 502.88 157.63
  Q 494.46 154.91 490.55 152.99
  Q 486.97 151.25 484.90 148.20
  Q 482.92 145.29 483.06 141.36
  Q 483.30 134.67 489.59 131.30
  C 497.31 127.17 508.44 129.17 515.02 134.74
  Q 515.54 135.18 515.15 135.73
  L 512.82 138.94
  A 0.61 0.58 -53.3 0 1 511.98 139.09
  Q 504.19 132.97 495.19 134.63
  Q 490.64 135.47 488.94 140.03
  Z"
/>
<path fill="#ffffff" d="
  M 468.26 170.25
  Q 462.61 177.48 454.58 178.71
  C 445.63 180.07 437.56 176.79 434.24 167.99
  Q 433.07 164.88 433.07 157.87
  Q 433.08 154.10 433.10 130.14
  Q 433.10 129.51 433.76 129.52
  L 437.98 129.56
  Q 438.66 129.57 438.66 130.22
  Q 438.41 152.40 438.88 161.79
  Q 439.13 166.68 442.31 170.22
  C 445.82 174.13 452.88 174.64 457.50 172.75
  Q 463.28 170.37 466.18 164.94
  C 468.11 161.34 469.06 157.05 469.04 152.88
  Q 469.01 142.80 469.03 129.75
  Q 469.03 129.50 469.29 129.50
  L 474.32 129.47
  Q 474.69 129.47 474.69 129.84
  L 474.70 177.90
  Q 474.70 178.57 474.04 178.56
  L 469.64 178.52
  Q 469.01 178.51 469.01 177.89
  L 469.02 170.52
  Q 469.02 169.27 468.26 170.25
  Z"
/>
<rect fill="#ffffff" x="660.95" y="129.53" width="5.70" height="48.98" rx="0.73"/>
<path fill="#8ea869" d="
  M 165.46 155.82
  Q 165.67 156.14 166.15 156.48
  Q 165.26 156.94 165.05 157.30
  Q 157.06 171.14 149.09 185.07
  A 0.89 0.89 0.0 0 0 149.09 185.95
  L 165.62 214.57
  L 109.33 214.63
  A 1.33 1.32 -14.8 0 1 108.18 213.97
  L 91.71 185.89
  Q 91.86 185.61 91.72 185.44
  L 108.22 156.83
  A 1.38 1.37 14.6 0 1 109.39 156.15
  L 165.46 155.82
  Z"
/>
<path fill="#205a86" d="
  M 216.54 185.34
  Q 216.55 185.83 216.63 185.62
  L 200.50 213.15
  A 3.16 3.15 15.1 0 1 197.80 214.70
  L 166.75 214.72
  Q 165.81 214.94 165.62 214.57
  L 149.09 185.95
  A 0.89 0.89 0.0 0 1 149.09 185.07
  Q 157.06 171.14 165.05 157.30
  Q 165.26 156.94 166.15 156.48
  L 198.97 156.04
  A 1.09 1.08 74.6 0 1 199.93 156.59
  L 216.54 185.34
  Z"
/>
<path fill="#b21e8d" d="
  M 216.63 185.62
  L 244.72 234.28
  A 1.16 1.15 45.4 0 1 244.72 235.43
  Q 236.80 249.20 228.71 263.06
  Q 228.57 263.31 228.56 263.54
  Q 228.56 263.77 228.58 264.07
  Q 228.26 264.10 228.02 264.26
  L 195.66 264.16
  A 2.30 2.28 75.0 0 1 193.70 263.02
  Q 180.66 240.55 167.71 217.81
  Q 166.93 216.45 166.75 214.72
  L 197.80 214.70
  A 3.16 3.15 15.1 0 0 200.50 213.15
  L 216.63 185.62
  Z"
/>
<path fill="#ed087c" d="
  M 91.71 185.89
  L 108.18 213.97
  A 1.33 1.32 -14.8 0 0 109.33 214.63
  L 165.62 214.57
  Q 165.81 214.94 166.75 214.72
  Q 166.93 216.45 167.71 217.81
  Q 180.66 240.55 193.70 263.02
  A 2.30 2.28 75.0 0 0 195.66 264.16
  L 228.02 264.26
  L 199.89 313.03
  A 1.04 1.04 0.0 0 1 198.99 313.55
  L 109.98 313.55
  A 2.42 2.39 -14.8 0 1 107.89 312.35
  L 63.37 235.27
  A 0.88 0.86 45.6 0 1 63.37 234.40
  L 91.71 185.89
  Z"
/>
<path fill="#ffffff" d="
  M 525.69 226.15
  Q 525.69 229.63 525.99 231.01
  Q 529.09 245.24 541.96 248.40
  C 549.34 250.22 556.69 248.48 562.49 243.73
  Q 563.89 242.58 566.02 240.58
  A 0.68 0.66 -46.3 0 1 566.91 240.55
  L 576.83 248.85
  A 0.36 0.34 40.3 0 1 576.88 249.34
  C 566.86 260.90 552.69 264.71 537.90 261.63
  C 523.85 258.70 513.75 248.35 510.99 234.14
  Q 510.64 232.32 510.61 230.16
  Q 510.59 228.86 510.60 226.13
  Q 510.60 223.39 510.62 222.09
  Q 510.66 219.93 511.01 218.11
  C 513.81 203.91 523.94 193.59 538.00 190.70
  C 552.80 187.66 566.96 191.51 576.94 203.10
  A 0.36 0.34 -40.2 0 1 576.89 203.59
  L 566.95 211.86
  A 0.68 0.66 46.5 0 1 566.06 211.83
  Q 563.94 209.82 562.54 208.67
  C 556.75 203.90 549.41 202.14 542.02 203.94
  Q 529.14 207.06 526.00 221.29
  Q 525.70 222.66 525.69 226.15
  Z"
/>
<ellipse fill="#ffffff" cx="0.00" cy="0.00" transform="translate(439.61,197.93) rotate(0.9)" rx="8.49" ry="8.08"/>
<path fill="#ffffff" d="
  M 411.92 224.37
  C 413.45 224.85 414.53 225.08 415.90 225.78
  Q 424.41 230.07 425.50 239.26
  Q 426.85 250.73 418.77 257.27
  C 414.22 260.94 407.48 261.85 400.50 261.87
  Q 383.90 261.92 372.15 261.82
  A 0.58 0.57 -0.0 0 1 371.57 261.25
  L 371.57 191.02
  Q 371.57 190.51 372.08 190.51
  Q 389.95 190.34 400.26 190.54
  Q 405.27 190.64 409.57 191.96
  Q 420.78 195.38 421.86 205.68
  Q 422.48 211.56 420.07 216.13
  Q 417.67 220.71 411.87 223.82
  Q 411.24 224.16 411.92 224.37
  Z
  M 385.89 203.39
  L 385.91 219.45
  A 0.24 0.24 0.0 0 0 386.15 219.69
  L 396.91 219.67
  A 10.06 7.28 -0.1 0 0 406.96 212.37
  L 406.96 210.39
  A 10.06 7.28 -0.1 0 0 396.89 203.13
  L 386.13 203.15
  A 0.24 0.24 0.0 0 0 385.89 203.39
  Z
  M 385.88 231.61
  L 385.94 248.93
  A 0.41 0.41 0.0 0 0 386.35 249.34
  L 399.21 249.30
  A 11.29 8.67 -0.2 0 0 410.47 240.59
  L 410.47 239.79
  A 11.29 8.67 -0.2 0 0 399.15 231.16
  L 386.29 231.20
  A 0.41 0.41 0.0 0 0 385.88 231.61
  Z"
/>
<path fill="#ffffff" d="
  M 480.10 211.96
  C 495.18 212.24 506.78 222.08 506.49 237.83
  C 506.21 253.59 494.26 263.00 479.19 262.74
  C 464.11 262.46 452.51 252.62 452.80 236.86
  C 453.08 221.11 465.03 211.69 480.10 211.96
  Z
  M 479.7454 250.8790
  A 13.54 13.21 89.3 0 0 492.7890 237.1786
  A 13.54 13.21 89.3 0 0 479.4146 223.8010
  A 13.54 13.21 89.3 0 0 466.3710 237.5014
  A 13.54 13.21 89.3 0 0 479.7454 250.8790
  Z"
/>
<path fill="#ffffff" d="
  M 605.50 211.96
  Q 607.52 211.96 609.51 212.22
  Q 628.25 214.64 632.15 232.99
  Q 632.41 234.21 632.41 237.34
  Q 632.41 240.48 632.15 241.70
  Q 628.26 260.05 609.52 262.48
  Q 607.53 262.74 605.52 262.74
  Q 603.50 262.74 601.51 262.48
  Q 582.77 260.06 578.87 241.71
  Q 578.61 240.49 578.61 237.36
  Q 578.61 234.22 578.87 233.00
  Q 582.76 214.65 601.50 212.22
  Q 603.49 211.96 605.50 211.96
  Z
  M 605.5885 250.9195
  A 13.58 13.11 89.5 0 0 618.5795 237.2256
  A 13.58 13.11 89.5 0 0 605.3515 223.7605
  A 13.58 13.11 89.5 0 0 592.3605 237.4544
  A 13.58 13.11 89.5 0 0 605.5885 250.9195
  Z"
/>
<path fill="#ffffff" d="
  M 651.52 218.51
  A 0.29 0.29 0.0 0 0 652.03 218.71
  Q 658.20 211.86 667.50 211.94
  Q 676.66 212.03 681.52 219.19
  Q 681.86 219.70 682.28 219.24
  Q 688.22 212.65 697.54 212.00
  C 711.74 211.01 717.26 220.27 717.32 232.99
  Q 717.37 244.96 717.30 261.45
  A 0.55 0.55 0.0 0 1 716.75 262.00
  L 704.13 261.92
  A 0.46 0.46 0.0 0 1 703.67 261.46
  Q 703.68 244.28 703.61 234.75
  Q 703.59 233.07 702.64 229.68
  Q 701.79 226.66 699.88 225.44
  C 694.72 222.12 688.55 224.47 686.20 229.73
  Q 684.78 232.91 684.69 236.26
  Q 684.51 243.22 684.63 261.44
  A 0.56 0.54 0.0 0 1 684.07 261.98
  L 671.85 261.99
  Q 671.08 262.00 671.08 261.17
  Q 671.03 250.35 671.06 235.33
  C 671.07 233.32 670.35 229.67 669.49 228.26
  Q 666.37 223.12 661.29 223.94
  C 652.64 225.33 651.51 232.28 651.50 240.08
  Q 651.49 246.62 651.54 261.41
  A 0.48 0.48 0.0 0 1 651.06 261.89
  L 638.74 261.83
  A 0.71 0.69 90.0 0 1 638.05 261.12
  L 638.05 213.37
  Q 638.05 212.65 638.75 212.65
  L 650.62 212.73
  A 0.88 0.88 0.0 0 1 651.50 213.61
  L 651.52 218.51
  Z"
/>
<path fill="#ffffff" d="
  M 739.19 218.42
  Q 745.58 211.94 754.26 211.93
  Q 763.54 211.92 768.46 219.22
  Q 768.75 219.65 769.12 219.28
  Q 777.79 210.46 789.82 212.19
  C 797.73 213.33 801.78 218.15 803.56 225.66
  Q 804.17 228.21 804.20 230.91
  Q 804.36 243.96 804.24 261.54
  Q 804.24 262.02 803.77 262.02
  L 791.23 261.95
  Q 790.76 261.95 790.76 261.48
  Q 790.74 245.02 790.72 234.77
  Q 790.71 233.66 789.84 230.21
  C 787.73 221.90 777.59 222.15 773.75 228.75
  Q 771.81 232.10 771.72 236.02
  Q 771.59 242.31 771.66 261.14
  Q 771.66 262.00 770.81 262.00
  L 758.49 261.95
  A 0.51 0.51 0.0 0 1 757.98 261.44
  Q 757.96 257.63 757.94 233.07
  Q 757.94 231.47 756.61 228.59
  C 753.40 221.65 744.17 222.91 740.69 228.71
  Q 738.74 231.97 738.66 236.08
  Q 738.60 239.44 738.62 261.29
  Q 738.63 261.90 738.03 261.90
  L 725.32 261.85
  A 0.41 0.40 -0.0 0 1 724.91 261.45
  L 724.91 213.28
  Q 724.91 212.71 725.46 212.71
  L 738.01 212.71
  Q 738.57 212.71 738.58 213.26
  L 738.64 218.21
  Q 738.65 218.97 739.19 218.42
  Z"
/>
<path fill="#ffffff" d="
  M 836.26 211.96
  C 851.44 212.07 863.11 221.93 863.01 237.53
  C 862.91 253.13 851.11 262.84 835.92 262.74
  C 820.74 262.64 809.07 252.78 809.17 237.18
  C 809.28 221.57 821.07 211.87 836.26 211.96
  Z
  M 836.1683 250.8895
  A 13.56 13.15 89.5 0 0 849.1995 237.2152
  A 13.56 13.15 89.5 0 0 835.9317 223.7705
  A 13.56 13.15 89.5 0 0 822.9005 237.4448
  A 13.56 13.15 89.5 0 0 836.1683 250.8895
  Z"
/>
<path fill="#ffffff" d="
  M 883.05 218.12
  Q 891.76 210.18 903.32 212.40
  Q 907.99 213.29 910.96 215.91
  C 914.99 219.46 916.77 225.37 916.79 230.34
  Q 916.84 245.03 916.81 261.23
  A 0.74 0.73 90.0 0 1 916.08 261.97
  L 903.96 261.98
  A 0.73 0.73 0.0 0 1 903.23 261.25
  Q 903.24 242.50 903.19 235.23
  C 903.17 231.37 902.36 226.43 898.24 224.77
  C 893.60 222.90 888.15 223.91 884.86 227.91
  Q 882.36 230.94 882.34 235.08
  L 882.25 261.31
  Q 882.24 261.89 881.75 261.89
  L 869.38 261.81
  Q 868.46 261.81 868.46 260.88
  L 868.48 213.25
  A 0.53 0.53 0.0 0 1 869.01 212.72
  L 881.75 212.72
  A 0.53 0.53 0.0 0 1 882.28 213.26
  L 882.21 217.77
  A 0.50 0.49 -21.3 0 0 883.05 218.12
  Z"
/>
<path fill="#ffffff" d="
  M 935.99 227.40
  Q 937.18 229.07 939.53 230.00
  Q 944.67 232.05 948.52 233.49
  C 953.70 235.44 959.25 238.32 960.25 244.21
  C 962.08 255.02 955.19 261.38 944.94 262.53
  Q 931.61 264.02 920.95 256.18
  A 0.89 0.89 0.0 0 1 920.75 254.95
  L 926.56 246.87
  Q 926.91 246.37 927.40 246.73
  Q 930.07 248.64 930.76 249.06
  Q 937.28 253.07 943.80 251.64
  Q 946.88 250.96 947.15 247.81
  A 1.16 1.14 -65.2 0 0 946.83 246.92
  Q 945.09 245.13 943.43 244.57
  C 934.39 241.55 922.80 238.76 922.39 227.47
  C 922.08 218.81 928.70 213.32 936.97 212.20
  Q 948.85 210.59 959.12 217.97
  A 0.21 0.21 0.0 0 1 959.16 218.26
  L 952.99 227.30
  Q 952.70 227.72 952.28 227.43
  C 948.05 224.52 940.70 220.10 936.24 224.46
  A 2.27 2.27 0.0 0 0 935.99 227.40
  Z"
/>
<rect fill="#ffffff" x="432.89" y="212.71" width="13.50" height="49.14" rx="0.52"/>
</svg>
