<svg id="Group_100" data-name="Group 100" xmlns="http://www.w3.org/2000/svg" xmlns:xlink="http://www.w3.org/1999/xlink" width="354.72" height="100" viewBox="0 0 354.72 100">
  <defs>
    <clipPath id="clip-path">
      <rect id="Rectangle_491" data-name="Rectangle 491" width="354.72" height="100" fill="none"/>
    </clipPath>
  </defs>
  <path id="Path_714" data-name="Path 714" d="M301.916,108.223l-6.591,18.767h3.441l1.218-3.6h7.465l1.217,3.6h3.574l-6.591-18.767Zm-.874,12.1,2.673-7.914,2.673,7.914Z" transform="translate(-166.196 -60.68)" fill="#32aa71"/>
  <g id="Group_99" data-name="Group 99">
    <g id="Group_98" data-name="Group 98" clip-path="url(#clip-path)">
      <path id="Path_715" data-name="Path 715" d="M354.742,120.036a5.206,5.206,0,0,1-1,3.381,4.361,4.361,0,0,1-6.083,0,5.206,5.206,0,0,1-1-3.381V108.223h-3.5v11.868a7.95,7.95,0,0,0,1.955,5.635,8.488,8.488,0,0,0,11.188,0,7.95,7.95,0,0,0,1.955-5.635V108.223h-3.5Z" transform="translate(-193.302 -60.964)" fill="#32aa71"/>
      <path id="Path_716" data-name="Path 716" d="M399.091,115.726q-.463-.054-1.983-.217t-2.2-.272a2,2,0,0,1-1.955-2.091,2.332,2.332,0,0,1,.652-1.629,4.177,4.177,0,0,1,3.123-1.059,5.017,5.017,0,0,1,1.643.285,3.327,3.327,0,0,1,1.29.747,2.945,2.945,0,0,1,.842,1.9h3.584a5.62,5.62,0,0,0-1.955-4.1,7.57,7.57,0,0,0-5.377-1.874,9.221,9.221,0,0,0-3.177.543,6.841,6.841,0,0,0-2.471,1.494,5.246,5.246,0,0,0-1.684,3.8,4.935,4.935,0,0,0,1.371,3.652,6.258,6.258,0,0,0,3.517,1.724q.6.109,2.091.245t2.172.272q2.281.407,2.281,2.281a2.633,2.633,0,0,1-.761,1.847,4.523,4.523,0,0,1-3.34,1.032,4.409,4.409,0,0,1-3.231-1.032,3.232,3.232,0,0,1-1-2.362h-3.585a5.807,5.807,0,0,0,2.01,4.481,8.209,8.209,0,0,0,5.757,1.982q4.019,0,6.083-2.064a5.45,5.45,0,0,0,1.6-4.019,5.041,5.041,0,0,0-1.493-3.8,6.658,6.658,0,0,0-3.8-1.765" transform="translate(-219.095 -60.51)" fill="#32aa71"/>
      <path id="Path_717" data-name="Path 717" d="M433,111.482h5.7v15.995h3.5V111.482h5.7v-3.259H433Z" transform="translate(-243.918 -60.965)" fill="#32aa71"/>
      <path id="Path_718" data-name="Path 718" d="M491.921,117.552a5.928,5.928,0,0,0,.964-3.354,5.8,5.8,0,0,0-1.711-4.25,6.7,6.7,0,0,0-4.969-1.724h-8.12v19.254h3.53V120.2h4.264l3.2,7.278h3.8l-3.53-7.875a5.192,5.192,0,0,0,2.566-2.05m-3.354-1.249a3.293,3.293,0,0,1-2.309.747h-4.67v-5.757h4.617a3.181,3.181,0,0,1,2.308.842,2.765,2.765,0,0,1,.869,2.064,2.712,2.712,0,0,1-.815,2.1" transform="translate(-269.316 -60.965)" fill="#32aa71"/>
      <path id="Path_719" data-name="Path 719" d="M527.975,108.223l-6.762,19.254h3.53l1.249-3.693h7.658l1.249,3.693h3.666L531.8,108.223Zm-.9,12.41,2.742-8.12,2.743,8.12Z" transform="translate(-293.611 -60.964)" fill="#32aa71"/>
      <path id="Path_720" data-name="Path 720" d="M575.249,108.224h-3.5v19.254h12.437v-3.313h-8.934Z" transform="translate(-322.077 -60.965)" fill="#32aa71"/>
      <rect id="Rectangle_489" data-name="Rectangle 489" width="3.558" height="19.254" transform="translate(266.923 47.259)" fill="#32aa71"/>
      <path id="Path_721" data-name="Path 721" d="M640.792,108.223h-3.829L630.2,127.477h3.53l1.249-3.693h7.658l1.249,3.693h3.666Zm-4.725,12.41,2.742-8.12,2.743,8.12Z" transform="translate(-355.006 -60.964)" fill="#32aa71"/>
      <path id="Path_722" data-name="Path 722" d="M312.462,55.35a3.57,3.57,0,0,0,1.765-1.656,5.157,5.157,0,0,0,.013-4.793,4.65,4.65,0,0,0-1.643-1.806,8.108,8.108,0,0,0-4.454-1.059h-7.658V65.317h7.658a8.407,8.407,0,0,0,5.132-1.3,5.1,5.1,0,0,0,1.955-4.318,4.777,4.777,0,0,0-.72-2.552,4.68,4.68,0,0,0-2.05-1.793m-8.5-6.3h4.318a3.736,3.736,0,0,1,2.159.57,2.111,2.111,0,0,1,.828,1.874q0,2.39-2.905,2.39h-4.4Zm6.721,12.519a4.576,4.576,0,0,1-2.4.6h-4.318v-5.35h4.427q3.285,0,3.286,2.8a2.106,2.106,0,0,1-.991,1.955" transform="translate(-169.271 -25.933)" fill="#fff"/>
      <rect id="Rectangle_490" data-name="Rectangle 490" width="3.557" height="19.254" transform="translate(151.541 20.103)" fill="#fff"/>
      <path id="Path_723" data-name="Path 723" d="M381.7,47.4a8.149,8.149,0,0,0-11.079,0,7.306,7.306,0,0,0-1.941,3.286,17.513,17.513,0,0,0-.5,4.535,17.381,17.381,0,0,0,.5,4.508,7.3,7.3,0,0,0,1.941,3.286,8.15,8.15,0,0,0,11.079,0,7.313,7.313,0,0,0,1.942-3.286,17.4,17.4,0,0,0,.5-4.508,17.535,17.535,0,0,0-.5-4.535A7.318,7.318,0,0,0,381.7,47.4m-1.168,9.776a8.39,8.39,0,0,1-.38,1.847,4.225,4.225,0,0,1-.951,1.711,4.262,4.262,0,0,1-6.083,0,4.22,4.22,0,0,1-.951-1.711,8.367,8.367,0,0,1-.38-1.847q-.055-.787-.055-1.955,0-4.1,1.385-5.54a4.262,4.262,0,0,1,6.083,0q1.385,1.44,1.385,5.54,0,1.167-.054,1.955" transform="translate(-207.402 -25.478)" fill="#fff"/>
      <path id="Path_724" data-name="Path 724" d="M425.22,46.036h-7.549V65.29h3.476v-6.9h4.073a6.993,6.993,0,0,0,5.024-1.684,5.937,5.937,0,0,0,1.765-4.508,5.9,5.9,0,0,0-1.765-4.494,7.029,7.029,0,0,0-5.024-1.67m2.4,8.459a3.513,3.513,0,0,1-2.539.828h-3.937V49.1h3.938a3.478,3.478,0,0,1,2.539.842,3.055,3.055,0,0,1,.855,2.281,3.009,3.009,0,0,1-.855,2.268" transform="translate(-235.284 -25.933)" fill="#fff"/>
      <path id="Path_725" data-name="Path 725" d="M465.159,46.036h-3.5V65.29h12.437V61.976h-8.934Z" transform="translate(-260.061 -25.933)" fill="#fff"/>
      <path id="Path_726" data-name="Path 726" d="M505.482,46.036,498.72,65.29h3.53L503.5,61.6h7.658l1.249,3.693h3.666l-6.762-19.254Zm-.9,12.41,2.743-8.12,2.743,8.12Z" transform="translate(-280.94 -25.933)" fill="#fff"/>
      <path id="Path_727" data-name="Path 727" d="M540.409,49.295h5.7v16h3.5v-16h5.7V46.036H540.409Z" transform="translate(-304.425 -25.933)" fill="#fff"/>
      <path id="Path_728" data-name="Path 728" d="M585.495,65.29H589V57.551h8.744V54.373H589V49.214h9.8V46.036H585.495Z" transform="translate(-329.822 -25.933)" fill="#fff"/>
      <path id="Path_729" data-name="Path 729" d="M638.246,47.4a8.15,8.15,0,0,0-11.08,0,7.309,7.309,0,0,0-1.941,3.286,17.51,17.51,0,0,0-.5,4.535,17.378,17.378,0,0,0,.5,4.508,7.3,7.3,0,0,0,1.941,3.286,8.151,8.151,0,0,0,11.08,0,7.312,7.312,0,0,0,1.942-3.286,17.4,17.4,0,0,0,.5-4.508,17.532,17.532,0,0,0-.5-4.535,7.317,7.317,0,0,0-1.942-3.286m-1.168,9.776a8.387,8.387,0,0,1-.38,1.847,4.212,4.212,0,0,1-.951,1.711,4.262,4.262,0,0,1-6.083,0,4.219,4.219,0,0,1-.95-1.711,8.337,8.337,0,0,1-.38-1.847q-.055-.787-.055-1.955,0-4.1,1.385-5.54a4.262,4.262,0,0,1,6.083,0q1.385,1.44,1.385,5.54,0,1.167-.054,1.955" transform="translate(-351.92 -25.478)" fill="#fff"/>
      <path id="Path_730" data-name="Path 730" d="M688.053,55.364a5.93,5.93,0,0,0,.964-3.354,5.8,5.8,0,0,0-1.711-4.25,6.7,6.7,0,0,0-4.969-1.724h-8.12V65.29h3.531V58.012h4.263l3.2,7.278h3.8l-3.531-7.875a5.192,5.192,0,0,0,2.567-2.05M684.7,54.115a3.29,3.29,0,0,1-2.308.747H677.72V49.1h4.616a3.18,3.18,0,0,1,2.309.842,2.764,2.764,0,0,1,.868,2.063,2.71,2.71,0,0,1-.815,2.1" transform="translate(-379.802 -25.933)" fill="#fff"/>
      <path id="Path_731" data-name="Path 731" d="M730.236,59.75l-5.051-13.714h-4.725V65.29h3.395v-13.9l4.969,13.632h2.58l5-13.469V65.29h3.394V46.036h-4.481Z" transform="translate(-405.851 -25.933)" fill="#fff"/>
      <path id="Path_732" data-name="Path 732" d="M790.89,55.3a6.663,6.663,0,0,0-3.8-1.765q-.462-.054-1.983-.217t-2.2-.272a2,2,0,0,1-1.955-2.091,2.331,2.331,0,0,1,.651-1.629,4.177,4.177,0,0,1,3.123-1.059,5.017,5.017,0,0,1,1.643.285,3.328,3.328,0,0,1,1.29.747,2.942,2.942,0,0,1,.841,1.9h3.585a5.619,5.619,0,0,0-1.955-4.1,7.569,7.569,0,0,0-5.377-1.874,9.225,9.225,0,0,0-3.177.543,6.85,6.85,0,0,0-2.471,1.493,5.249,5.249,0,0,0-1.684,3.8,4.938,4.938,0,0,0,1.372,3.653,6.259,6.259,0,0,0,3.517,1.724q.6.109,2.091.245t2.172.272q2.281.407,2.281,2.281a2.636,2.636,0,0,1-.76,1.847,4.524,4.524,0,0,1-3.34,1.032,4.41,4.41,0,0,1-3.232-1.032,3.232,3.232,0,0,1-1-2.362h-3.585a5.807,5.807,0,0,0,2.01,4.481,8.21,8.21,0,0,0,5.757,1.982q4.018,0,6.082-2.064a5.45,5.45,0,0,0,1.6-4.019,5.04,5.04,0,0,0-1.493-3.8" transform="translate(-437.663 -25.478)" fill="#fff"/>
      <path id="Path_733" data-name="Path 733" d="M109.24,49a4.985,4.985,0,0,0-4.416-4.945,6.718,6.718,0,0,0-8.4-9.452A10.486,10.486,0,0,0,86.16,22.009h-.041A7.955,7.955,0,0,0,83.27,10.152a4.933,4.933,0,1,0-6.535-.279,7.992,7.992,0,0,0-5.02,7.271,18.113,18.113,0,0,0-12.191-4.7c-.315,0-.629.009-.941.024A7.719,7.719,0,1,0,44.792,7.246a9.848,9.848,0,0,0-15.971,7.383,5.12,5.12,0,0,0-6.689,7.4A22.992,22.992,0,0,0,6.589,61.12a5.457,5.457,0,1,0,6.183,4.5,22.983,22.983,0,0,0,29.9-8.648,7.821,7.821,0,0,0,10.878,4.876c-.005.1-.016.2-.016.307A6.076,6.076,0,0,0,64.253,66.08a20.535,20.535,0,1,0,39.091-12.192,4.925,4.925,0,0,0,.917.088A4.984,4.984,0,0,0,109.24,49m-1.965,0a3.014,3.014,0,1,1-3.014-3.014A3.018,3.018,0,0,1,107.275,49m-3.6-8.152a4.762,4.762,0,1,1-4.762-4.762,4.767,4.767,0,0,1,4.762,4.762m-42.045,7.9a3.787,3.787,0,1,1-3.788,3.805,3.624,3.624,0,0,1,3.788-3.805M31.022,21.176A9.838,9.838,0,0,0,42.59,24.009a18.084,18.084,0,0,0-1.252,6.617c0,.174.008.346.013.519A23.09,23.09,0,0,0,29.666,23a5.155,5.155,0,0,0,1.355-1.821M45.9,42.654a18.281,18.281,0,0,0,5.9,4.432,7.83,7.83,0,0,0-6.013,1.19,22.912,22.912,0,0,0,.113-5.622M54.151,48a18.124,18.124,0,0,0,3.21.678,5.714,5.714,0,0,0-.918,1.359A7.888,7.888,0,0,0,54.151,48M66.97,50.43a5.739,5.739,0,0,0-1.324-2,5.894,5.894,0,0,0-.57-.483,18.273,18.273,0,0,0,11.546-11.12A10.544,10.544,0,0,0,80.494,41.3,20.581,20.581,0,0,0,66.97,50.43M77.319,26.873a18.044,18.044,0,0,0-.61-2.187,7.908,7.908,0,0,0,1.938.508,10.487,10.487,0,0,0-1.328,1.679M92.2,41.05a6.683,6.683,0,0,0,.241,1.6q-.878-.383-1.8-.683A10.427,10.427,0,0,0,92.2,41.05m2.48-8.561a8.515,8.515,0,1,1-8.516-8.515,8.525,8.525,0,0,1,8.516,8.515M80.158,3.366a2.965,2.965,0,1,1-2.965,2.965,2.969,2.969,0,0,1,2.965-2.965m-.463,7.9a6.022,6.022,0,1,1-6.022,6.021,6.028,6.028,0,0,1,6.022-6.021m-3.95,19.363A16.221,16.221,0,1,1,59.524,14.4a16.239,16.239,0,0,1,16.22,16.221m-27.3-14.408a9.953,9.953,0,0,0,.082-1.252c0-.213-.009-.424-.022-.634a7.669,7.669,0,0,0,1.6.74,18.334,18.334,0,0,0-1.662,1.146M52.494,1.965a5.761,5.761,0,1,1-5.761,5.761,5.768,5.768,0,0,1,5.761-5.761M38.671,7.072a7.894,7.894,0,1,1-7.893,7.894,7.913,7.913,0,0,1,7.893-7.894M26.335,15.948a3.167,3.167,0,0,1,3.161,3.16,3.011,3.011,0,0,1-3.151,3.122,3.028,3.028,0,0,1-3.17-3.122,3.164,3.164,0,0,1,3.161-3.16M7.42,69.937a3.461,3.461,0,1,1,3.461-3.461A3.464,3.464,0,0,1,7.42,69.937m15.591-3.868a21.046,21.046,0,1,1,0-42.093c16.47,0,21.046,15.156,21.046,21.047A21.1,21.1,0,0,1,23.012,66.069m21.3-11.3a5.882,5.882,0,1,1,5.882,5.882,5.9,5.9,0,0,1-5.882-5.882m15.3,11.51A4.121,4.121,0,0,1,55.5,62.158a3.921,3.921,0,0,1,4.09-4.092,3.966,3.966,0,0,1,4.142,4.092,4.121,4.121,0,0,1-4.116,4.117M84.267,80.058a18.574,18.574,0,1,1,18.574-18.574A18.595,18.595,0,0,1,84.267,80.058" fill="#fff"/>
      <path id="Path_734" data-name="Path 734" d="M196.052,196.707a7.051,7.051,0,1,0,7.051,7.051,7.059,7.059,0,0,0-7.051-7.051m0,12.137a5.086,5.086,0,1,1,5.086-5.086,5.092,5.092,0,0,1-5.086,5.086" transform="translate(-106.469 -110.809)" fill="#fff"/>
    </g>
  </g>
</svg>
