<?xml version="1.0" encoding="UTF-8"?> <svg xmlns="http://www.w3.org/2000/svg" xmlns:xlink="http://www.w3.org/1999/xlink" id="Layer_2" viewBox="0 0 2009.37 294.25"><defs><clipPath id="clippath"><rect width="2009.37" height="294.25" style="fill:none;"></rect></clipPath></defs><g id="Layer_1-2"><g style="clip-path:url(#clippath);"><g><g><rect x="1938.97" y="-126.07" width="45.48" height="591.37" style="fill:#203644;"></rect><rect x="1867.16" y="-631.75" width="45.48" height="1097.05" style="fill:#203644;"></rect><rect x="1795.34" y="-270.71" width="45.48" height="736.01" style="fill:#203644;"></rect><rect x="1651.72" y="-683.19" width="45.48" height="1148.48" style="fill:#203644;"></rect><rect x="1579.9" y="8.19" width="45.48" height="457.1" style="fill:#203644;"></rect><rect x="1436.27" y="176.57" width="45.48" height="288.72" style="fill:#203644;"></rect><rect x="1364.46" y="-660.68" width="45.48" height="1125.98" style="fill:#203644;"></rect><rect x="1220.83" y="-102.6" width="45.48" height="567.9" style="fill:#203644;"></rect><rect x="1149.02" y="-717.74" width="45.48" height="1183.03" style="fill:#203644;"></rect><rect x="1077.21" y="-555.62" width="45.48" height="1020.91" style="fill:#203644;"></rect><rect x="861.76" y="-705.88" width="45.48" height="1171.17" style="fill:#203644;"></rect><rect x="789.95" y="-134.8" width="45.48" height="600.1" style="fill:#203644;"></rect><rect x="718.14" y="-617.84" width="45.48" height="1083.13" style="fill:#203644;"></rect><rect x="646.32" y="-664.5" width="45.48" height="1129.8" style="fill:#203644;"></rect><rect x="574.51" y="-101.78" width="45.48" height="567.08" style="fill:#203644;"></rect><rect x="502.7" y="-646.22" width="45.48" height="1111.52" style="fill:#203644;"></rect><rect x="430.88" y="-519.59" width="45.48" height="984.89" style="fill:#203644;"></rect><rect x="287.25" y="-304.82" width="45.48" height="770.12" style="fill:#203644;"></rect><rect x="143.63" y="-579.77" width="45.48" height="1045.06" style="fill:#203644;"></rect><rect x="71.81" y="-714.17" width="45.48" height="1179.46" style="fill:#203644;"></rect><rect x="1292.65" y="-550.16" width="45.48" height="1015.45" style="fill:#203644;"></rect><rect x="933.58" y="75.87" width="45.48" height="389.42" style="fill:#203644;"></rect><rect x="359.07" y="-686.06" width="45.48" height="1151.36" style="fill:#203644;"></rect><rect x="0" y="129.09" width="45.48" height="336.21" style="fill:#203644;"></rect></g><g><rect x="1579.9" y="1.94" width="45.48" height="1.91" style="fill:#fff;"></rect><rect x="1436.27" y="170.32" width="45.48" height="1.89" style="fill:#fff;"></rect><rect x="933.58" y="69.62" width="45.48" height="1.9" style="fill:#fff;"></rect><rect x="0" y="122.83" width="45.48" height="1.9" style="fill:#fff;"></rect></g><g><g><rect x="1938.97" y="211.23" width="45.48" height="6.27" style="fill:#f7a069;"></rect><rect x="1938.97" y="251.62" width="45.48" height="6.27" style="fill:#a3c36e;"></rect><rect x="1938.97" y="26.21" width="45.48" height="6.27" style="fill:#a3c36e;"></rect><rect x="1938.97" y="143.55" width="45.48" height="6.27" style="fill:#f47b2e;"></rect><rect x="1938.97" y="34.39" width="45.48" height="6.27" style="fill:#f7a069;"></rect><rect x="1938.97" y="206.05" width="45.48" height="6.27" style="fill:#a8c777;"></rect><rect x="1938.97" y="165.38" width="45.48" height="6.27" style="fill:#ffc843;"></rect><rect x="1938.97" y="65.23" width="45.48" height="6.27" style="fill:#57a39d;"></rect><rect x="1938.97" y="249.71" width="45.48" height="6.27" style="fill:#ffc843;"></rect><rect x="1938.97" y="280.28" width="45.48" height="6.27" style="fill:#b8d190;"></rect><rect x="1938.97" y="24.3" width="45.48" height="6.27" style="fill:#a3c36e;"></rect><rect x="1938.97" y="43.13" width="45.48" height="6.27" style="fill:#57a39d;"></rect><rect x="1938.97" y="151.19" width="45.48" height="6.27" style="fill:#57a39d;"></rect><rect x="1938.97" y="227.06" width="45.48" height="6.27" style="fill:#f47b2e;"></rect><rect x="1938.97" y="137.82" width="45.48" height="6.27" style="fill:#203644;"></rect><rect x="1938.97" y="209.59" width="45.48" height="6.27" style="fill:#fbc9a9;"></rect><rect x="1938.97" y="284.64" width="45.48" height="6.27" style="fill:#a3c36e;"></rect><rect x="1938.97" y="88.97" width="45.48" height="6.27" style="fill:#57a39d;"></rect><rect x="1938.97" y="105.89" width="45.48" height="6.27" style="fill:#ffc843;"></rect></g><g><rect x="1867.16" y="242.34" width="45.48" height="6.27" style="fill:#dde9c9;"></rect><rect x="1867.16" y="63.32" width="45.48" height="6.27" style="fill:#a3c36e;"></rect><rect x="1867.16" y="16.65" width="45.48" height="6.27" style="fill:#88969e;"></rect><rect x="1867.16" y="141.64" width="45.48" height="6.27" style="fill:#57a39d;"></rect><rect x="1867.16" y="159.38" width="45.48" height="6.27" style="fill:#88969e;"></rect><rect x="1867.16" y="99.62" width="45.48" height="6.27" style="fill:#57a39d;"></rect><rect x="1867.16" y="188.04" width="45.48" height="6.27" style="fill:#c3dedc;"></rect><rect x="1867.16" y=".55" width="45.48" height="6.27" style="fill:#f47b2e;"></rect><rect x="1867.16" y="239.89" width="45.48" height="6.27" style="fill:#c3dedc;"></rect><rect x="1867.16" y="163.47" width="45.48" height="6.27" style="fill:#c3dedc;"></rect><rect x="1867.16" y="252.44" width="45.48" height="6.27" style="fill:#c3dedc;"></rect><rect x="1867.16" y="64.41" width="45.48" height="6.27" style="fill:#f47b2e;"></rect><rect x="1867.16" y="57.59" width="45.48" height="6.27" style="fill:#57a39d;"></rect><rect x="1867.16" y="149.83" width="45.48" height="6.27" style="fill:#57a39d;"></rect><rect x="1867.16" y="173.84" width="45.48" height="6.27" style="fill:#f47b2e;"></rect><rect x="1867.16" y="112.99" width="45.48" height="6.27" style="fill:#f7a069;"></rect><rect x="1867.16" y="230.06" width="45.48" height="6.27" style="fill:#c3dedc;"></rect><rect x="1867.16" y="7.1" width="45.48" height="6.27" style="fill:#a3c36e;"></rect><rect x="1867.16" y="249.44" width="45.48" height="6.27" style="fill:#fac5a3;"></rect><rect x="1867.16" y="270.45" width="45.48" height="6.27" style="fill:#fff1ce;"></rect><rect x="1867.16" y="115.72" width="45.48" height="6.27" style="fill:#f7a069;"></rect></g><g><rect x="1795.34" y="142.19" width="45.48" height="6.27" style="fill:#dde9c9;"></rect><rect x="1795.34" y="-1.63" width="45.48" height="6.27" style="fill:#ffc843;"></rect><rect x="1795.34" y="10.65" width="45.48" height="6.27" style="fill:#f47b2e;"></rect><rect x="1795.34" y="179.85" width="45.48" height="6.27" style="fill:#ffc843;"></rect><rect x="1795.34" y="93.61" width="45.48" height="6.27" style="fill:#fff1ce;"></rect><rect x="1795.34" y="150.38" width="45.48" height="6.27" style="fill:#a3c36e;"></rect><rect x="1795.34" y="76.42" width="45.48" height="6.27" style="fill:#b8d190;"></rect><rect x="1795.34" y="249.16" width="45.48" height="6.27" style="fill:#f7a069;"></rect><rect x="1795.34" y="8.74" width="45.48" height="6.27" style="fill:#a3c36e;"></rect><rect x="1795.34" y="221.33" width="45.48" height="6.27" style="fill:#88beb9;"></rect><rect x="1795.34" y="96.89" width="45.48" height="6.27" style="fill:#57a39d;"></rect><rect x="1795.34" y="266.63" width="45.48" height="6.27" style="fill:#f47b2e;"></rect><rect x="1795.34" y="215.05" width="45.48" height="6.27" style="fill:#a3c36e;"></rect><rect x="1795.34" y="119.81" width="45.48" height="6.27" style="fill:#a8c777;"></rect><rect x="1795.34" y="204.68" width="45.48" height="6.27" style="fill:#88beb9;"></rect><rect x="1795.34" y="100.98" width="45.48" height="6.27" style="fill:#bad293;"></rect><rect x="1795.34" y="149.56" width="45.48" height="6.27" style="fill:#57a39d;"></rect><rect x="1795.34" y="271.27" width="45.48" height="6.27" style="fill:#57a39d;"></rect><rect x="1795.34" y="34.67" width="45.48" height="6.27" style="fill:#57a39d;"></rect><rect x="1795.34" y="260.08" width="45.48" height="6.27" style="fill:#ffc843;"></rect><rect x="1795.34" y="82.69" width="45.48" height="6.27" style="fill:#f7a069;"></rect></g><g><rect x="1651.72" y="245.07" width="45.48" height="6.27" style="fill:#f47b2e;"></rect><rect x="1651.72" y="131" width="45.48" height="6.27" style="fill:#ffc843;"></rect><rect x="1651.72" y="22.93" width="45.48" height="6.27" style="fill:#f47b2e;"></rect><rect x="1651.72" y="170.02" width="45.48" height="6.27" style="fill:#a8c777;"></rect><rect x="1651.72" y="48.58" width="45.48" height="6.27" style="fill:#f7a069;"></rect><rect x="1651.72" y="214.51" width="45.48" height="6.27" style="fill:#a3c36e;"></rect><rect x="1651.72" y="236.61" width="45.48" height="6.27" style="fill:#fbc9a9;"></rect><rect x="1651.72" y="44.22" width="45.48" height="6.27" style="fill:#57a39d;"></rect><rect x="1651.72" y="183.12" width="45.48" height="6.27" style="fill:#f47b2e;"></rect><rect x="1651.72" y="278.09" width="45.48" height="6.27" style="fill:#a3c36e;"></rect><rect x="1651.72" y="137" width="45.48" height="6.27" style="fill:#203644;"></rect><rect x="1651.72" y="25.93" width="45.48" height="6.27" style="fill:#57a39d;"></rect><rect x="1651.72" y="186.94" width="45.48" height="6.27" style="fill:#f47b2e;"></rect><rect x="1651.72" y="152.83" width="45.48" height="6.27" style="fill:#f7a069;"></rect><rect x="1651.72" y="81.6" width="45.48" height="6.27" style="fill:#57a39d;"></rect><rect x="1651.72" y="271.54" width="45.48" height="6.27" style="fill:#f47b2e;"></rect><rect x="1651.72" y="64.14" width="45.48" height="6.27" style="fill:#fbc9a9;"></rect></g><g><rect x="1579.9" y="181.21" width="45.48" height="6.27" style="fill:#dde9c9;"></rect><rect x="1579.9" y="274.82" width="45.48" height="6.27" style="fill:#ffc843;"></rect><rect x="1579.9" y="48.86" width="45.48" height="6.27" style="fill:#b8d190;"></rect><rect x="1579.9" y="210.14" width="45.48" height="6.27" style="fill:#fff1ce;"></rect><rect x="1579.9" y="144.64" width="45.48" height="6.27" style="fill:#a3c36e;"></rect><rect x="1579.9" y="128.54" width="45.48" height="6.27" style="fill:#57a39d;"></rect><rect x="1579.9" y="239.34" width="45.48" height="6.27" style="fill:#ffc843;"></rect><rect x="1579.9" y="82.15" width="45.48" height="6.27" style="fill:#57a39d;"></rect><rect x="1579.9" y="49.68" width="45.48" height="6.27" style="fill:#f47b2e;"></rect><rect x="1579.9" y="272.63" width="45.48" height="6.27" style="fill:#ffc843;"></rect><rect x="1579.9" y="186.12" width="45.48" height="6.27" style="fill:#fff1ce;"></rect><rect x="1579.9" y="161.56" width="45.48" height="6.27" style="fill:#dde9c9;"></rect><rect x="1579.9" y="57.04" width="45.48" height="6.27" style="fill:#f7a069;"></rect><rect x="1579.9" y="40.12" width="45.48" height="6.27" style="fill:#a3c36e;"></rect><rect x="1579.9" y="236.88" width="45.48" height="6.27" style="fill:#57a39d;"></rect><rect x="1579.9" y="158.56" width="45.48" height="6.27" style="fill:#88beb9;"></rect><rect x="1579.9" y="145.74" width="45.48" height="6.27" style="fill:#7eb8b3;"></rect><rect x="1579.9" y="265.81" width="45.48" height="6.27" style="fill:#bad293;"></rect><rect x="1579.9" y="100.16" width="45.48" height="6.27" style="fill:#a8c777;"></rect><rect x="1579.9" y="59.5" width="45.48" height="6.27" style="fill:#a8c777;"></rect><rect x="1579.9" y="281.37" width="45.48" height="6.27" style="fill:#dde9c9;"></rect><rect x="1579.9" y="206.59" width="45.48" height="6.27" style="fill:#a3c36e;"></rect><rect x="1579.9" y="8.19" width="45.48" height="6.27" style="fill:#ffc843;"></rect></g><g><rect x="1436.27" y="176.57" width="45.48" height="6.27" style="fill:#b8d190;"></rect><rect x="1436.27" y="177.39" width="45.48" height="6.27" style="fill:#57a39d;"></rect><rect x="1436.27" y="264.99" width="45.48" height="6.27" style="fill:#f7a069;"></rect><rect x="1436.27" y="216.14" width="45.48" height="6.27" style="fill:#f47b2e;"></rect><rect x="1436.27" y="291.19" width="45.48" height="6.27" style="fill:#57a39d;"></rect><rect x="1436.27" y="204.96" width="45.48" height="6.27" style="fill:#f47b2e;"></rect><rect x="1436.27" y="225.7" width="45.48" height="6.27" style="fill:#ffc843;"></rect><rect x="1436.27" y="241.25" width="45.48" height="6.27" style="fill:#ffc843;"></rect><rect x="1436.27" y="237.16" width="45.48" height="6.27" style="fill:#f47b2e;"></rect></g><g><rect x="1364.46" y="85.43" width="45.48" height="6.27" style="fill:#a3c36e;"></rect><rect x="1364.46" y="95.8" width="45.48" height="6.27" style="fill:#bad293;"></rect><rect x="1364.46" y="4.92" width="45.48" height="6.27" style="fill:#ffc843;"></rect><rect x="1364.46" y="2.19" width="45.48" height="6.27" style="fill:#88beb9;"></rect><rect x="1364.46" y="148.74" width="45.48" height="6.27" style="fill:#57a39d;"></rect><rect x="1364.46" y="33.03" width="45.48" height="6.27" style="fill:#fbc9a9;"></rect><rect x="1364.46" y="207.14" width="45.48" height="6.27" style="fill:#fbc9a9;"></rect><rect x="1364.46" y="293.65" width="45.48" height="6.27" style="fill:#bad293;"></rect><rect x="1364.46" y="241.52" width="45.48" height="6.27" style="fill:#57a39d;"></rect><rect x="1364.46" y="67.96" width="45.48" height="6.27" style="fill:#88beb9;"></rect><rect x="1364.46" y="262.81" width="45.48" height="6.27" style="fill:#a3c36e;"></rect><rect x="1364.46" y="189.95" width="45.48" height="6.27" style="fill:#b8d190;"></rect><rect x="1364.46" y="95.52" width="45.48" height="6.27" style="fill:#ffc843;"></rect><rect x="1364.46" y="9.56" width="45.48" height="6.27" style="fill:#57a39d;"></rect><rect x="1364.46" y="32.21" width="45.48" height="6.27" style="fill:#f47b2e;"></rect><rect x="1364.46" y="196.22" width="45.48" height="6.27" style="fill:#57a39d;"></rect><rect x="1364.46" y="144.37" width="45.48" height="6.27" style="fill:#a3c36e;"></rect><rect x="1364.46" y="250.53" width="45.48" height="6.27" style="fill:#fac5a3;"></rect><rect x="1364.46" y="57.86" width="45.48" height="6.27" style="fill:#f47b2e;"></rect><rect x="1364.46" y="263.9" width="45.48" height="6.27" style="fill:#f7a069;"></rect></g><g><rect x="1220.83" y="279.73" width="45.48" height="6.27" style="fill:#57a39d;"></rect><rect x="1220.83" y="137.55" width="45.48" height="6.27" style="fill:#88beb9;"></rect><rect x="1220.83" y="283.28" width="45.48" height="6.27" style="fill:#57a39d;"></rect><rect x="1220.83" y="220.51" width="45.48" height="6.27" style="fill:#a3c36e;"></rect><rect x="1220.83" y="18.29" width="45.48" height="6.27" style="fill:#a3c36e;"></rect><rect x="1220.83" y="81.33" width="45.48" height="6.27" style="fill:#fbc9a9;"></rect><rect x="1220.83" y="254.9" width="45.48" height="6.27" style="fill:#ffc843;"></rect><rect x="1220.83" y="103.16" width="45.48" height="6.27" style="fill:#f47b2e;"></rect><rect x="1220.83" y="183.4" width="45.48" height="6.27" style="fill:#f47b2e;"></rect><rect x="1220.83" y="51.31" width="45.48" height="6.27" style="fill:#b8d190;"></rect><rect x="1220.83" y="180.39" width="45.48" height="6.27" style="fill:#f7a069;"></rect><rect x="1220.83" y="68.23" width="45.48" height="6.27" style="fill:#a3c36e;"></rect><rect x="1220.83" y="169.48" width="45.48" height="6.27" style="fill:#a3c36e;"></rect><rect x="1220.83" y="259.26" width="45.48" height="6.27" style="fill:#a3c36e;"></rect><rect x="1220.83" y="222.69" width="45.48" height="6.27" style="fill:#57a39d;"></rect><rect x="1220.83" y="14.47" width="45.48" height="6.27" style="fill:#a3c36e;"></rect><rect x="1220.83" y="103.44" width="45.48" height="6.27" style="fill:#a3c36e;"></rect><rect x="1220.83" y="268.54" width="45.48" height="6.27" style="fill:#ffc843;"></rect><rect x="1220.83" y="150.1" width="45.48" height="6.27" style="fill:#57a39d;"></rect><rect x="1220.83" y="196.77" width="45.48" height="6.27" style="fill:#203644;"></rect><rect x="1220.83" y="67.14" width="45.48" height="6.27" style="fill:#f47b2e;"></rect><rect x="1220.83" y="194.86" width="45.48" height="6.27" style="fill:#a3c36e;"></rect><rect x="1220.83" y="56.22" width="45.48" height="6.27" style="fill:#b8d190;"></rect></g><g><rect x="1149.02" y="13.11" width="45.48" height="6.27" style="fill:#dde9c9;"></rect><rect x="1149.02" y="213.42" width="45.48" height="6.27" style="fill:#57a39d;"></rect><rect x="1149.02" y="194.04" width="45.48" height="6.27" style="fill:#203644;"></rect><rect x="1149.02" y="156.65" width="45.48" height="6.27" style="fill:#a3c36e;"></rect><rect x="1149.02" y="36.58" width="45.48" height="6.27" style="fill:#a3c36e;"></rect><rect x="1149.02" y="14.2" width="45.48" height="6.27" style="fill:#88beb9;"></rect><rect x="1149.02" y="258.72" width="45.48" height="6.27" style="fill:#a3c36e;"></rect><rect x="1149.02" y="80.24" width="45.48" height="6.27" style="fill:#203644;"></rect><rect x="1149.02" y="211.5" width="45.48" height="6.27" style="fill:#bad293;"></rect><rect x="1149.02" y="75.6" width="45.48" height="6.27" style="fill:#ffc843;"></rect><rect x="1149.02" y="278.37" width="45.48" height="6.27" style="fill:#57a39d;"></rect></g><g><rect x="1077.21" y="255.44" width="45.48" height="6.27" style="fill:#88969e;"></rect><rect x="1077.21" y="157.2" width="45.48" height="6.27" style="fill:#a3c36e;"></rect><rect x="1077.21" y="267.45" width="45.48" height="6.27" style="fill:#f47b2e;"></rect><rect x="1077.21" y="53.77" width="45.48" height="6.27" style="fill:#ffc843;"></rect><rect x="1077.21" y="97.16" width="45.48" height="6.27" style="fill:#9ea9b0;"></rect><rect x="1077.21" y="71.23" width="45.48" height="6.27" style="fill:#bad293;"></rect><rect x="1077.21" y="174.94" width="45.48" height="6.27" style="fill:#c6e0de;"></rect><rect x="1077.21" y="0" width="45.48" height="6.27" style="fill:#88969e;"></rect><rect x="1077.21" y="217.78" width="45.48" height="6.27" style="fill:#f47b2e;"></rect><rect x="1077.21" y="204.14" width="45.48" height="6.27" style="fill:#b8d190;"></rect><rect x="1077.21" y="127.18" width="45.48" height="6.27" style="fill:#a3c36e;"></rect><rect x="1077.21" y="278.91" width="45.48" height="6.27" style="fill:#ffcd52;"></rect><rect x="1077.21" y="284.1" width="45.48" height="6.27" style="fill:#88969e;"></rect><rect x="1077.21" y="59.77" width="45.48" height="6.27" style="fill:#a3c36e;"></rect><rect x="1077.21" y="121.72" width="45.48" height="6.27" style="fill:#a3c36e;"></rect><rect x="1077.21" y="83.24" width="45.48" height="6.27" style="fill:#fff1ce;"></rect><rect x="1077.21" y="200.32" width="45.48" height="6.27" style="fill:#f47b2e;"></rect><rect x="1077.21" y="258.17" width="45.48" height="6.27" style="fill:#57a39d;"></rect><rect x="1077.21" y="189.67" width="45.48" height="6.27" style="fill:#f7a069;"></rect><rect x="1077.21" y="125.54" width="45.48" height="6.27" style="fill:#88969e;"></rect></g><g><rect x="861.76" y="214.78" width="45.48" height="6.27" style="fill:#57a39d;"></rect><rect x="861.76" y="99.07" width="45.48" height="6.27" style="fill:#57a39d;"></rect><rect x="861.76" y="160.75" width="45.48" height="6.27" style="fill:#f47b2e;"></rect><rect x="861.76" y="167.84" width="45.48" height="6.27" style="fill:#fff1ce;"></rect><rect x="861.76" y="135.91" width="45.48" height="6.27" style="fill:#ffc843;"></rect><rect x="861.76" y="110.26" width="45.48" height="6.27" style="fill:#a3c36e;"></rect><rect x="861.76" y="192.13" width="45.48" height="6.27" style="fill:#7eb8b3;"></rect><rect x="861.76" y="15.84" width="45.48" height="6.27" style="fill:#57a39d;"></rect><rect x="861.76" y="40.4" width="45.48" height="6.27" style="fill:#57a39d;"></rect><rect x="861.76" y="159.11" width="45.48" height="6.27" style="fill:#57a39d;"></rect><rect x="861.76" y="195.4" width="45.48" height="6.27" style="fill:#57a39d;"></rect><rect x="861.76" y="135.09" width="45.48" height="6.27" style="fill:#ffc843;"></rect><rect x="861.76" y="205.77" width="45.48" height="6.27" style="fill:#ffc843;"></rect><rect x="861.76" y="45.04" width="45.48" height="6.27" style="fill:#fbc9a9;"></rect><rect x="861.76" y="60.86" width="45.48" height="6.27" style="fill:#203644;"></rect><rect x="861.76" y="27.57" width="45.48" height="6.27" style="fill:#57a39d;"></rect></g><g><rect x="789.95" y="245.62" width="45.48" height="6.27" style="fill:#f47b2e;"></rect><rect x="789.95" y="37.94" width="45.48" height="6.27" style="fill:#fff;"></rect><rect x="789.95" y="206.87" width="45.48" height="6.27" style="fill:#a3c36e;"></rect><rect x="789.95" y="251.35" width="45.48" height="6.27" style="fill:#a3c36e;"></rect><rect x="789.95" y="203.59" width="45.48" height="6.27" style="fill:#a8c777;"></rect><rect x="789.95" y="261.99" width="45.48" height="6.27" style="fill:#f7a069;"></rect><rect x="789.95" y="46.4" width="45.48" height="6.27" style="fill:#ffe5a5;"></rect><rect x="789.95" y="11.2" width="45.48" height="6.27" style="fill:#f7a069;"></rect><rect x="789.95" y="250.26" width="45.48" height="6.27" style="fill:#57a39d;"></rect></g><g><rect x="718.14" y="272.09" width="45.48" height="6.27" style="fill:#ffc843;"></rect><rect x="718.14" y="221.87" width="45.48" height="6.27" style="fill:#a3c36e;"></rect><rect x="718.14" y="274" width="45.48" height="6.27" style="fill:#f47b2e;"></rect><rect x="718.14" y="129.63" width="45.48" height="6.27" style="fill:#f47b2e;"></rect><rect x="718.14" y="106.71" width="45.48" height="6.27" style="fill:#dde9c9;"></rect><rect x="718.14" y="187.76" width="45.48" height="6.27" style="fill:#88beb9;"></rect><rect x="718.14" y="236.34" width="45.48" height="6.27" style="fill:#a3c36e;"></rect><rect x="718.14" y="85.15" width="45.48" height="6.27" style="fill:#57a39d;"></rect><rect x="718.14" y="257.35" width="45.48" height="6.27" style="fill:#7eb8b3;"></rect><rect x="718.14" y="156.38" width="45.48" height="6.27" style="fill:#f47b2e;"></rect><rect x="718.14" y="20.48" width="45.48" height="6.27" style="fill:#dde9c9;"></rect><rect x="718.14" y="208.78" width="45.48" height="6.27" style="fill:#f47b2e;"></rect><rect x="718.14" y="290.92" width="45.48" height="6.27" style="fill:#57a39d;"></rect><rect x="718.14" y="143.83" width="45.48" height="6.27" style="fill:#fff1ce;"></rect><rect x="718.14" y="123.9" width="45.48" height="6.27" style="fill:#57a39d;"></rect><rect x="718.14" y="68.78" width="45.48" height="6.27" style="fill:#a3c36e;"></rect><rect x="718.14" y="257.08" width="45.48" height="6.27" style="fill:#fbc9a9;"></rect><rect x="718.14" y="94.7" width="45.48" height="6.27" style="fill:#dde9c9;"></rect><rect x="718.14" y="34.12" width="45.48" height="6.27" style="fill:#b8d190;"></rect><rect x="718.14" y="263.63" width="45.48" height="6.27" style="fill:#7eb8b3;"></rect><rect x="718.14" y="167.3" width="45.48" height="6.27" style="fill:#a3c36e;"></rect><rect x="718.14" y="25.11" width="45.48" height="6.27" style="fill:#f47b2e;"></rect></g><g><rect x="646.32" y="265.27" width="45.48" height="6.27" style="fill:#7eb8b3;"></rect><rect x="646.32" y="230.88" width="45.48" height="6.27" style="fill:#a3c36e;"></rect><rect x="646.32" y="104.53" width="45.48" height="6.27" style="fill:#fff1ce;"></rect><rect x="646.32" y="138.91" width="45.48" height="6.27" style="fill:#7eb8b3;"></rect><rect x="646.32" y="270.72" width="45.48" height="6.27" style="fill:#ffc843;"></rect><rect x="646.32" y="49.95" width="45.48" height="6.27" style="fill:#a3c36e;"></rect><rect x="646.32" y="283.55" width="45.48" height="6.27" style="fill:#f47b2e;"></rect><rect x="646.32" y="183.67" width="45.48" height="6.27" style="fill:#57a39d;"></rect></g><g><rect x="574.51" y="236.07" width="45.48" height="6.27" style="fill:#b8d190;"></rect><rect x="574.51" y="172.75" width="45.48" height="6.27" style="fill:#b8d190;"></rect><rect x="574.51" y="287.64" width="45.48" height="6.27" style="fill:#a3c36e;"></rect><rect x="574.51" y="107.8" width="45.48" height="6.27" style="fill:#ffc843;"></rect><rect x="574.51" y="176.03" width="45.48" height="6.27" style="fill:#fac5a3;"></rect><rect x="574.51" y="125.27" width="45.48" height="6.27" style="fill:#a3c36e;"></rect><rect x="574.51" y="187.22" width="45.48" height="6.27" style="fill:#f47b2e;"></rect><rect x="574.51" y="222.97" width="45.48" height="6.27" style="fill:#57a39d;"></rect><rect x="574.51" y="128" width="45.48" height="6.27" style="fill:#f47b2e;"></rect><rect x="574.51" y="248.62" width="45.48" height="6.27" style="fill:#a3c36e;"></rect><rect x="574.51" y="165.11" width="45.48" height="6.27" style="fill:#ffc843;"></rect><rect x="574.51" y="267.18" width="45.48" height="6.27" style="fill:#57a39d;"></rect><rect x="574.51" y="102.62" width="45.48" height="6.27" style="fill:#ffc843;"></rect><rect x="574.51" y="204.41" width="45.48" height="6.27" style="fill:#f7a069;"></rect><rect x="574.51" y="148.19" width="45.48" height="6.27" style="fill:#f7a069;"></rect><rect x="574.51" y="210.41" width="45.48" height="6.27" style="fill:#a3c36e;"></rect><rect x="574.51" y="217.24" width="45.48" height="6.27" style="fill:#a3c36e;"></rect><rect x="574.51" y="173.03" width="45.48" height="6.27" style="fill:#57a39d;"></rect></g><g><rect x="502.7" y="255.17" width="45.48" height="6.27" style="fill:#fac5a3;"></rect><rect x="502.7" y="276.18" width="45.48" height="6.27" style="fill:#f47b2e;"></rect><rect x="502.7" y="90.88" width="45.48" height="6.27" style="fill:#aecb80;"></rect><rect x="502.7" y="41.76" width="45.48" height="6.27" style="fill:#88969e;"></rect><rect x="502.7" y="136.73" width="45.48" height="6.27" style="fill:#57a39d;"></rect><rect x="502.7" y="177.67" width="45.48" height="6.27" style="fill:#b8d190;"></rect><rect x="502.7" y="31.94" width="45.48" height="6.27" style="fill:#ffe5a5;"></rect><rect x="502.7" y="203.04" width="45.48" height="6.27" style="fill:#a3c36e;"></rect><rect x="502.7" y="92.52" width="45.48" height="6.27" style="fill:#57a39d;"></rect><rect x="502.7" y="242.89" width="45.48" height="6.27" style="fill:#a3c36e;"></rect><rect x="502.7" y="76.97" width="45.48" height="6.27" style="fill:#57a39d;"></rect><rect x="502.7" y="157.74" width="45.48" height="6.27" style="fill:#f7a069;"></rect><rect x="502.7" y="267.99" width="45.48" height="6.27" style="fill:#57a39d;"></rect><rect x="502.7" y="105.62" width="45.48" height="6.27" style="fill:#57a39d;"></rect><rect x="502.7" y="36.3" width="45.48" height="6.27" style="fill:#ffc843;"></rect><rect x="502.7" y="140.28" width="45.48" height="6.27" style="fill:#fcd6be;"></rect><rect x="502.7" y="179.03" width="45.48" height="6.27" style="fill:#ffcd52;"></rect><rect x="502.7" y="29.21" width="45.48" height="6.27" style="fill:#203644;"></rect><rect x="502.7" y="231.15" width="45.48" height="6.27" style="fill:#a3c36e;"></rect><rect x="502.7" y="90.06" width="45.48" height="6.27" style="fill:#dde9c9;"></rect><rect x="502.7" y="228.42" width="45.48" height="6.27" style="fill:#fff1ce;"></rect><rect x="502.7" y="50.49" width="45.48" height="6.27" style="fill:#57a39d;"></rect><rect x="502.7" y="156.11" width="45.48" height="6.27" style="fill:#a3c36e;"></rect><rect x="502.7" y="3.56" width="45.48" height="6.27" style="fill:#a8c777;"></rect></g><g><rect x="430.88" y="187.17" width="45.48" height="6.27" style="fill:#ffc843;"></rect><rect x="430.88" y="220.75" width="45.48" height="6.27" style="fill:#bad293;"></rect><rect x="430.88" y="164.75" width="45.48" height="6.27" style="fill:#a8c777;"></rect><rect x="430.88" y="216.02" width="45.48" height="6.27" style="fill:#7eb8b3;"></rect><rect x="430.88" y="226.18" width="45.48" height="6.27" style="fill:#bad293;"></rect><rect x="430.88" y="220.05" width="45.48" height="6.27" style="fill:#b8d190;"></rect><rect x="430.88" y="152.48" width="45.48" height="6.27" style="fill:#f7a069;"></rect><rect x="430.88" y="23.75" width="45.48" height="6.27" style="fill:#f47b2e;"></rect></g><g><rect x="287.25" y="244.8" width="45.48" height="6.27" style="fill:#66aba6;"></rect><rect x="287.25" y="125" width="45.48" height="6.27" style="fill:#fff1ce;"></rect><rect x="287.25" y="289.28" width="45.48" height="6.27" style="fill:#57a39d;"></rect><rect x="287.25" y="110.53" width="45.48" height="6.27" style="fill:#57a39d;"></rect><rect x="287.25" y="28.39" width="45.48" height="6.27" style="fill:#a3c36e;"></rect><rect x="287.25" y="151.74" width="45.48" height="6.27" style="fill:#57a39d;"></rect><rect x="287.25" y="191.58" width="45.48" height="6.27" style="fill:#a3c36e;"></rect><rect x="287.25" y="292.83" width="45.48" height="6.27" style="fill:#88beb9;"></rect><rect x="287.25" y="210.96" width="45.48" height="6.27" style="fill:#a3c36e;"></rect><rect x="287.25" y="37.39" width="45.48" height="6.27" style="fill:#a8c777;"></rect><rect x="287.25" y="210.69" width="45.48" height="6.27" style="fill:#a3c36e;"></rect><rect x="287.25" y="57.32" width="45.48" height="6.27" style="fill:#57a39d;"></rect><rect x="287.25" y="21.02" width="45.48" height="6.27" style="fill:#57a39d;"></rect><rect x="287.25" y="275.91" width="45.48" height="6.27" style="fill:#a3c36e;"></rect><rect x="287.25" y="152.01" width="45.48" height="6.27" style="fill:#b8d190;"></rect><rect x="287.25" y="289.55" width="45.48" height="6.27" style="fill:#f7a069;"></rect><rect x="287.25" y="92.79" width="45.48" height="6.27" style="fill:#57a39d;"></rect><rect x="287.25" y="53.5" width="45.48" height="6.27" style="fill:#f47b2e;"></rect><rect x="287.25" y="169.75" width="45.48" height="6.27" style="fill:#a8c777;"></rect><rect x="287.25" y="169.21" width="45.48" height="6.27" style="fill:#7eb8b3;"></rect><rect x="287.25" y="4.1" width="45.48" height="6.27" style="fill:#a3c36e;"></rect><rect x="287.25" y="228.97" width="45.48" height="6.27" style="fill:#a3c36e;"></rect><rect x="287.25" y="82.97" width="45.48" height="6.27" style="fill:#57a39d;"></rect><rect x="287.25" y="237.7" width="45.48" height="6.27" style="fill:#dde9c9;"></rect><rect x="287.25" y="101.53" width="45.48" height="6.27" style="fill:#f47b2e;"></rect><rect x="287.25" y="30.57" width="45.48" height="6.27" style="fill:#a3c36e;"></rect></g><g><rect x="143.63" y="191.31" width="45.48" height="6.27" style="fill:#7eb8b3;"></rect><rect x="143.63" y="259.54" width="45.48" height="6.27" style="fill:#a3c36e;"></rect><rect x="143.63" y="123.36" width="45.48" height="6.27" style="fill:#dde9c9;"></rect><rect x="143.63" y="240.98" width="45.48" height="6.27" style="fill:#203644;"></rect><rect x="143.63" y="152.29" width="45.48" height="6.27" style="fill:#fff1ce;"></rect><rect x="143.63" y="286.28" width="45.48" height="6.27" style="fill:#a3c36e;"></rect><rect x="143.63" y="198.68" width="45.48" height="6.27" style="fill:#f47b2e;"></rect><rect x="143.63" y="240.43" width="45.48" height="6.27" style="fill:#a3c36e;"></rect><rect x="143.63" y="115.17" width="45.48" height="6.27" style="fill:#b8d190;"></rect><rect x="143.63" y="176.3" width="45.48" height="6.27" style="fill:#a8c777;"></rect><rect x="143.63" y="232.79" width="45.48" height="6.27" style="fill:#b8d190;"></rect><rect x="143.63" y="182.85" width="45.48" height="6.27" style="fill:#57a39d;"></rect><rect x="143.63" y="277.55" width="45.48" height="6.27" style="fill:#f7a069;"></rect></g><g><rect x="71.81" y="260.35" width="45.48" height="6.27" style="fill:#57a39d;"></rect><rect x="71.81" y="187.49" width="45.48" height="6.27" style="fill:#dde9c9;"></rect><rect x="71.81" y="24.57" width="45.48" height="6.27" style="fill:#fbc9a9;"></rect><rect x="71.81" y="71.51" width="45.48" height="6.27" style="fill:#a3c36e;"></rect><rect x="71.81" y="209.87" width="45.48" height="6.27" style="fill:#88beb9;"></rect><rect x="71.81" y="219.69" width="45.48" height="6.27" style="fill:#a3c36e;"></rect><rect x="71.81" y="118.17" width="45.48" height="6.27" style="fill:#f7a069;"></rect><rect x="71.81" y="85.97" width="45.48" height="6.27" style="fill:#ffc843;"></rect><rect x="71.81" y="-.27" width="45.48" height="6.27" style="fill:#203644;"></rect><rect x="71.81" y="238.25" width="45.48" height="6.27" style="fill:#f47b2e;"></rect><rect x="71.81" y="153.92" width="45.48" height="6.27" style="fill:#dde9c9;"></rect><rect x="71.81" y="281.09" width="45.48" height="6.27" style="fill:#57a39d;"></rect><rect x="71.81" y="168.11" width="45.48" height="6.27" style="fill:#ffc843;"></rect><rect x="71.81" y="64.68" width="45.48" height="6.27" style="fill:#f47b2e;"></rect><rect x="71.81" y="119.26" width="45.48" height="6.27" style="fill:#ffc843;"></rect><rect x="71.81" y="229.24" width="45.48" height="6.27" style="fill:#57a39d;"></rect><rect x="71.81" y="215.87" width="45.48" height="6.27" style="fill:#a3c36e;"></rect><rect x="71.81" y="155.29" width="45.48" height="6.27" style="fill:#f47b2e;"></rect><rect x="71.81" y="62.23" width="45.48" height="6.27" style="fill:#fbc9a9;"></rect><rect x="71.81" y="9.29" width="45.48" height="6.27" style="fill:#fac5a3;"></rect><rect x="71.81" y="285.46" width="45.48" height="6.27" style="fill:#dde9c9;"></rect><rect x="71.81" y="140" width="45.48" height="6.27" style="fill:#a3c36e;"></rect><rect x="71.81" y="17.2" width="45.48" height="6.27" style="fill:#f47b2e;"></rect></g><g><rect x="1292.65" y="248.35" width="45.48" height="6.27" style="fill:#f7a069;"></rect><rect x="1292.65" y="268.81" width="45.48" height="6.27" style="fill:#a3c36e;"></rect><rect x="1292.65" y="170.3" width="45.48" height="6.27" style="fill:#a3c36e;"></rect><rect x="1292.65" y="202.23" width="45.48" height="6.27" style="fill:#ffc843;"></rect><rect x="1292.65" y="266.08" width="45.48" height="6.27" style="fill:#a3c36e;"></rect><rect x="1292.65" y="240.16" width="45.48" height="6.27" style="fill:#57a39d;"></rect><rect x="1292.65" y="279.46" width="45.48" height="6.27" style="fill:#ffc843;"></rect><rect x="1292.65" y="235.79" width="45.48" height="6.27" style="fill:#fff1ce;"></rect><rect x="1292.65" y="197.31" width="45.48" height="6.27" style="fill:#f7a069;"></rect><rect x="1292.65" y="268.27" width="45.48" height="6.27" style="fill:#57a39d;"></rect></g><g><rect x="933.58" y="203.86" width="45.48" height="6.27" style="fill:#f7a069;"></rect><rect x="933.58" y="75.87" width="45.48" height="6.27" style="fill:#a3c36e;"></rect><rect x="933.58" y="164.02" width="45.48" height="6.27" style="fill:#ffc843;"></rect><rect x="933.58" y="97.98" width="45.48" height="6.27" style="fill:#a3c36e;"></rect><rect x="933.58" y="247.25" width="45.48" height="6.27" style="fill:#57a39d;"></rect><rect x="933.58" y="134.27" width="45.48" height="6.27" style="fill:#ffc843;"></rect><rect x="933.58" y="240.7" width="45.48" height="6.27" style="fill:#a3c36e;"></rect><rect x="933.58" y="194.31" width="45.48" height="6.27" style="fill:#f47b2e;"></rect><rect x="933.58" y="86.79" width="45.48" height="6.27" style="fill:#7eb8b3;"></rect><rect x="933.58" y="111.62" width="45.48" height="6.27" style="fill:#f47b2e;"></rect><rect x="933.58" y="186.67" width="45.48" height="6.27" style="fill:#f7a069;"></rect><rect x="933.58" y="149.01" width="45.48" height="6.27" style="fill:#203644;"></rect><rect x="933.58" y="224.6" width="45.48" height="6.27" style="fill:#f7a069;"></rect><rect x="933.58" y="275.64" width="45.48" height="6.27" style="fill:#fff1ce;"></rect><rect x="933.58" y="170.57" width="45.48" height="6.27" style="fill:#ffc843;"></rect></g><g><rect x="359.07" y="273.73" width="45.48" height="6.27" style="fill:#fff1ce;"></rect><rect x="359.07" y="171.39" width="45.48" height="6.27" style="fill:#a3c36e;"></rect><rect x="359.07" y="247.53" width="45.48" height="6.27" style="fill:#57a39d;"></rect><rect x="359.07" y="270.18" width="45.48" height="6.27" style="fill:#a3c36e;"></rect><rect x="359.07" y="1.64" width="45.48" height="6.27" style="fill:#f47b2e;"></rect><rect x="359.07" y="5.47" width="45.48" height="6.27" style="fill:#f47b2e;"></rect><rect x="359.07" y="97.71" width="45.48" height="6.27" style="fill:#a3c36e;"></rect><rect x="359.07" y="33.3" width="45.48" height="6.27" style="fill:#fbc9a9;"></rect><rect x="359.07" y="73.14" width="45.48" height="6.27" style="fill:#203644;"></rect><rect x="359.07" y="126.63" width="45.48" height="6.27" style="fill:#dde9c9;"></rect><rect x="359.07" y="179.58" width="45.48" height="6.27" style="fill:#ffc843;"></rect><rect x="359.07" y="194.59" width="45.48" height="6.27" style="fill:#ffc843;"></rect><rect x="359.07" y="127.72" width="45.48" height="6.27" style="fill:#ffc843;"></rect><rect x="359.07" y="287.37" width="45.48" height="6.27" style="fill:#57a39d;"></rect><rect x="359.07" y="197.04" width="45.48" height="6.27" style="fill:#7eb8b3;"></rect><rect x="359.07" y="247.8" width="45.48" height="6.27" style="fill:#ffc843;"></rect><rect x="359.07" y="290.1" width="45.48" height="6.27" style="fill:#e9f1dc;"></rect><rect x="359.07" y="-1.36" width="45.48" height="6.27" style="fill:#dde9c9;"></rect><rect x="359.07" y="51.86" width="45.48" height="6.27" style="fill:#57a39d;"></rect><rect x="359.07" y="124.18" width="45.48" height="6.27" style="fill:#fff1ce;"></rect><rect x="359.07" y="66.59" width="45.48" height="6.27" style="fill:#a3c36e;"></rect><rect x="359.07" y="90.61" width="45.48" height="6.27" style="fill:#203644;"></rect><rect x="359.07" y="172.21" width="45.48" height="6.27" style="fill:#fbc9a9;"></rect><rect x="359.07" y="164.84" width="45.48" height="6.27" style="fill:#57a39d;"></rect><rect x="359.07" y="213.96" width="45.48" height="6.27" style="fill:#7eb8b3;"></rect><rect x="359.07" y="130.45" width="45.48" height="6.27" style="fill:#57a39d;"></rect></g><g><rect y="229.52" width="45.48" height="6.27" style="fill:#a3c36e;"></rect><rect y="168.93" width="45.48" height="6.27" style="fill:#a3c36e;"></rect><rect y="291.46" width="45.48" height="6.27" style="fill:#57a39d;"></rect><rect y="164.57" width="45.48" height="6.27" style="fill:#f47b2e;"></rect><rect x="0" y="129.09" width="45.48" height="6.27" style="fill:#57a39d;"></rect><rect y="144.92" width="45.48" height="6.27" style="fill:#f47b2e;"></rect><rect y="238.79" width="45.48" height="6.27" style="fill:#f47b2e;"></rect><rect y="271" width="45.48" height="6.27" style="fill:#f47b2e;"></rect><rect y="206.32" width="45.48" height="6.27" style="fill:#f47b2e;"></rect><rect y="207.68" width="45.48" height="6.27" style="fill:#7eb8b3;"></rect><rect y="288.46" width="45.48" height="6.27" style="fill:#dde9c9;"></rect><rect y="162.93" width="45.48" height="6.27" style="fill:#e9f1dc;"></rect><rect y="136.18" width="45.48" height="6.27" style="fill:#fff1ce;"></rect><rect y="176.85" width="45.48" height="6.27" style="fill:#ffc843;"></rect><rect y="251.89" width="45.48" height="6.27" style="fill:#e9f1dc;"></rect></g></g></g></g></g></svg> 