<?xml version="1.0" encoding="UTF-8" standalone="no"?>
<!-- Created with Inkscape (http://www.inkscape.org/) -->

<svg
   width="197.03203mm"
   height="304.42712mm"
   viewBox="0 0 197.03203 304.42712"
   version="1.1"
   id="svg5"
   xml:space="preserve"
   xmlns:inkscape="http://www.inkscape.org/namespaces/inkscape"
   xmlns:sodipodi="http://sodipodi.sourceforge.net/DTD/sodipodi-0.dtd"
   xmlns="http://www.w3.org/2000/svg"
   xmlns:svg="http://www.w3.org/2000/svg"><sodipodi:namedview
     id="namedview7"
     pagecolor="#ffffff"
     bordercolor="#000000"
     borderopacity="0.25"
     inkscape:showpageshadow="2"
     inkscape:pageopacity="0.0"
     inkscape:pagecheckerboard="0"
     inkscape:deskcolor="#d1d1d1"
     inkscape:document-units="mm"
     showgrid="false" /><defs
     id="defs2" /><g
     inkscape:label="Layer 1"
     inkscape:groupmode="layer"
     id="layer1"
     transform="translate(337.95033,-0.86045072)"><path
       style="fill:#000000;stroke-width:0.254"
       d="m -239.69606,305.0966 c -0.14097,-0.18055 -0.80325,-1.35697 -1.47173,-2.61427 -0.66848,-1.2573 -2.26921,-4.1148 -3.55718,-6.35 -2.14311,-3.71925 -6.43423,-11.31781 -9.61054,-17.018 -0.70061,-1.2573 -2.32923,-4.1148 -3.61916,-6.35 -2.29303,-3.9734 -5.11323,-8.95602 -10.13547,-17.907 -1.3717,-2.44475 -3.68875,-6.55955 -5.14899,-9.144 -1.46024,-2.58445 -3.03064,-5.3848 -3.48979,-6.223 -0.45914,-0.8382 -1.94784,-3.4671 -3.30821,-5.842 -1.36038,-2.3749 -3.21516,-5.63245 -4.12174,-7.239 -3.29363,-5.83665 -3.84216,-6.80517 -6.32963,-11.176 -1.39133,-2.44475 -3.02599,-5.3594 -3.63258,-6.477 -0.6066,-1.1176 -2.11402,-3.76232 -3.34982,-5.87716 -1.23581,-2.11484 -2.24692,-3.89852 -2.24692,-3.96373 0,-0.095 -4.22401,-7.59318 -6.18946,-10.98711 -0.2427,-0.4191 -1.50241,-2.64795 -2.79934,-4.953 -1.29694,-2.30505 -3.53021,-6.2484 -4.96282,-8.763 -8.86944,-15.56812 -8.92097,-15.66411 -12.22205,-22.76797 -5.51378,-11.86553 -8.62859,-21.50494 -10.78167,-33.36603 -1.91311,-10.53914 -1.66579,-23.398138 0.66684,-34.670998 2.09417,-10.120411 3.87812,-15.597093 8.14959,-25.018999 2.50838,-5.532922 7.43138,-13.643424 11.25482,-18.541999 9.61612,-12.320115 20.02994,-21.144109 32.97641,-27.942057 12.00538,-6.3037961 22.73614,-9.3694521 37.37468,-10.6775181 2.2352,-0.199733 5.21142,-0.36456201 6.61383,-0.36628701 4.3625,-0.0054 14.81013,1.02106401 18.15117,1.78326901 9.80931,2.237836 14.06736,3.577761 20.32,6.394297 9.96933,4.4907401 17.64726,9.4619641 25.85383,16.7395521 11.6589,10.339107 20.2709,22.679745 26.87545,38.511424 3.27901,7.860071 5.99848,18.997127 6.96919,28.541027 1.78389,17.538859 -0.71561,32.853649 -8.43204,51.664289 -2.05854,5.01819 -6.55653,14.24012 -9.47746,19.431 -1.21844,2.16535 -2.56593,4.56565 -2.9944,5.334 -0.96012,1.72172 -4.0848,7.18738 -6.53444,11.43 -1.00826,1.74625 -2.4335,4.26085 -3.16719,5.588 -0.73369,1.32715 -2.21886,3.95605 -3.30038,5.842 -1.08152,1.88595 -2.75021,4.87513 -3.70821,6.64263 -0.958,1.76749 -2.4132,4.33924 -3.23379,5.715 -0.82059,1.37575 -2.04251,3.53007 -2.71538,4.78737 -1.61012,3.00859 -5.4235,9.73567 -5.97538,10.541 -0.23934,0.34925 -1.01375,1.72085 -1.72092,3.048 -0.70716,1.32715 -1.91402,3.49885 -2.68192,4.826 -1.1553,1.99671 -3.71462,6.50731 -7.31065,12.88446 -0.33292,0.5904 -1.57069,2.7621 -2.75059,4.826 -1.17991,2.06389 -2.54037,4.49549 -3.02325,5.40354 -0.48287,0.90805 -1.79124,3.2512 -2.90747,5.207 -1.11623,1.9558 -3.08754,5.44195 -4.38069,7.747 -1.29316,2.30505 -2.75332,4.8768 -3.24481,5.715 -0.49149,0.8382 -1.88894,3.29565 -3.10545,5.461 -1.21652,2.16535 -2.81028,4.9657 -3.54169,6.223 -1.57458,2.7067 -5.08961,8.92667 -6.96171,12.319 -0.7324,1.32715 -1.73492,3.0988 -2.22782,3.937 -0.49289,0.8382 -1.64131,2.8956 -2.55205,4.572 -1.91166,3.51884 -1.94052,3.55833 -2.28102,3.12227 z m 10.88908,-130.21469 c 7.67987,-1.31795 12.08582,-2.73611 18.82984,-6.06086 11.77385,-5.80442 22.32082,-15.69301 29.06186,-27.24772 3.96009,-6.78794 5.842,-11.34797 7.93366,-19.22401 1.59124,-5.99174 2.69851,-15.4683 2.42811,-20.78099 -0.22561,-4.432801 -1.32842,-11.927835 -2.33582,-15.874998 -3.35952,-13.163151 -9.16115,-23.628108 -18.33324,-33.06943 -7.36921,-7.585516 -15.16824,-12.789585 -24.28248,-16.202994 -5.22478,-1.95675 -8.70553,-2.884706 -14.48977,-3.862916 -2.75845,-0.466499 -4.30548,-0.55925 -9.398,-0.563451 -5.50727,-0.0045 -6.48849,0.06237 -10.16,0.692854 -16.63705,2.856961 -29.79966,10.286857 -41.26193,23.291116 -3.433,3.89482 -7.884,10.73331 -10.2273,15.713125 -1.185,2.518293 -4.01339,10.12905 -4.4011,11.842696 -0.0948,0.4191 -0.33233,1.254765 -0.5278,1.857035 -0.19546,0.602269 -0.6399,2.831119 -0.98763,4.953 -0.34773,2.12188 -0.74199,4.486615 -0.87615,5.254965 -0.64921,3.718212 -0.52155,13.696108 0.22669,17.717148 0.12341,0.66322 0.29981,1.9488 0.39199,2.85685 0.20678,2.03684 2.3626,10.29544 3.52773,13.51416 1.9166,5.29467 6.08028,13.10279 9.28396,17.41013 6.93573,9.32507 16.21709,17.26858 25.29354,21.64763 7.16934,3.45895 12.17233,5.04338 19.60853,6.20994 5.57896,0.87521 5.45873,0.86681 11.12547,0.77739 4.25133,-0.0671 5.8124,-0.20585 9.56984,-0.85067 z"
       id="path748"
       inkscape:export-filename="pin.svg"
       inkscape:export-xdpi="5.3400002"
       inkscape:export-ydpi="5.3400002" /></g></svg>
