<svg xmlns="http://www.w3.org/2000/svg" xmlns:xlink="http://www.w3.org/1999/xlink" width="500" zoomAndPan="magnify" viewBox="0 0 375 374.999991" height="500" preserveAspectRatio="xMidYMid meet" version="1.0"><defs><g/><clipPath id="b45bcfc72f"><path d="M 37.5 37.5 L 337.5 37.5 L 337.5 97.480469 L 37.5 97.480469 Z M 37.5 37.5 " clip-rule="nonzero"/></clipPath><clipPath id="b5f67ee72d"><path d="M 54.75 37.5 L 320.25 37.5 C 324.824219 37.5 329.210938 39.316406 332.449219 42.550781 C 335.683594 45.789062 337.5 50.175781 337.5 54.75 L 337.5 80.230469 C 337.5 84.808594 335.683594 89.195312 332.449219 92.429688 C 329.210938 95.664062 324.824219 97.480469 320.25 97.480469 L 54.75 97.480469 C 50.175781 97.480469 45.789062 95.664062 42.550781 92.429688 C 39.316406 89.195312 37.5 84.808594 37.5 80.230469 L 37.5 54.75 C 37.5 50.175781 39.316406 45.789062 42.550781 42.550781 C 45.789062 39.316406 50.175781 37.5 54.75 37.5 Z M 54.75 37.5 " clip-rule="nonzero"/></clipPath><clipPath id="658bdee04a"><path d="M 63 49.195312 L 88 49.195312 L 88 80 L 63 80 Z M 63 49.195312 " clip-rule="nonzero"/></clipPath><clipPath id="6ee1894add"><path d="M 56.734375 55 L 60 55 L 60 74 L 56.734375 74 Z M 56.734375 55 " clip-rule="nonzero"/></clipPath><clipPath id="72a34ada52"><path d="M 91.839844 55.226562 L 94.234375 55.226562 L 94.234375 73.402344 L 91.839844 73.402344 Z M 91.839844 55.226562 " clip-rule="nonzero"/></clipPath><clipPath id="887b6c6537"><path d="M 76.195312 80.246094 L 81.628906 80.246094 L 81.628906 90.441406 L 76.195312 90.441406 Z M 76.195312 80.246094 " clip-rule="nonzero"/></clipPath></defs><g clip-path="url(#b45bcfc72f)"><g clip-path="url(#b5f67ee72d)"><path fill="#58a39d" d="M 37.5 37.5 L 337.5 37.5 L 337.5 97.480469 L 37.5 97.480469 Z M 37.5 37.5 " fill-opacity="1" fill-rule="nonzero"/></g></g><g fill="#ffffff" fill-opacity="1"><g transform="translate(113.432803, 77.990971)"><g><path d="M 6.359375 -21.28125 L 6.359375 -16.9375 C 6.359375 -16.1875 6.332031 -15.46875 6.28125 -14.78125 C 6.226562 -14.09375 6.191406 -13.609375 6.171875 -13.328125 L 6.390625 -13.328125 C 6.710938 -13.859375 7.097656 -14.285156 7.546875 -14.609375 C 8.003906 -14.941406 8.503906 -15.1875 9.046875 -15.34375 C 9.597656 -15.5 10.1875 -15.578125 10.8125 -15.578125 C 11.914062 -15.578125 12.878906 -15.378906 13.703125 -14.984375 C 14.523438 -14.597656 15.160156 -13.992188 15.609375 -13.171875 C 16.066406 -12.347656 16.296875 -11.28125 16.296875 -9.96875 L 16.296875 0 L 12.125 0 L 12.125 -8.921875 C 12.125 -10.015625 11.921875 -10.835938 11.515625 -11.390625 C 11.117188 -11.953125 10.503906 -12.234375 9.671875 -12.234375 C 8.828125 -12.234375 8.160156 -12.039062 7.671875 -11.65625 C 7.191406 -11.269531 6.851562 -10.695312 6.65625 -9.9375 C 6.457031 -9.1875 6.359375 -8.269531 6.359375 -7.1875 L 6.359375 0 L 2.1875 0 L 2.1875 -21.28125 Z M 6.359375 -21.28125 "/></g></g></g><g fill="#ffffff" fill-opacity="1"><g transform="translate(131.832578, 77.990971)"><g><path d="M 6.359375 -15.28125 L 6.359375 0 L 2.1875 0 L 2.1875 -15.28125 Z M 4.28125 -21.28125 C 4.894531 -21.28125 5.425781 -21.132812 5.875 -20.84375 C 6.320312 -20.550781 6.546875 -20.015625 6.546875 -19.234375 C 6.546875 -18.460938 6.320312 -17.925781 5.875 -17.625 C 5.425781 -17.332031 4.894531 -17.1875 4.28125 -17.1875 C 3.65625 -17.1875 3.117188 -17.332031 2.671875 -17.625 C 2.234375 -17.925781 2.015625 -18.460938 2.015625 -19.234375 C 2.015625 -20.015625 2.234375 -20.550781 2.671875 -20.84375 C 3.117188 -21.132812 3.65625 -21.28125 4.28125 -21.28125 Z M 4.28125 -21.28125 "/></g></g></g><g fill="#ffffff" fill-opacity="1"><g transform="translate(140.376313, 77.990971)"><g><path d="M 6.65625 6.734375 C 4.519531 6.734375 2.890625 6.359375 1.765625 5.609375 C 0.640625 4.867188 0.078125 3.828125 0.078125 2.484375 C 0.078125 1.566406 0.363281 0.796875 0.9375 0.171875 C 1.519531 -0.441406 2.363281 -0.882812 3.46875 -1.15625 C 3.039062 -1.332031 2.664062 -1.628906 2.34375 -2.046875 C 2.03125 -2.460938 1.875 -2.898438 1.875 -3.359375 C 1.875 -3.941406 2.039062 -4.425781 2.375 -4.8125 C 2.71875 -5.207031 3.207031 -5.59375 3.84375 -5.96875 C 3.039062 -6.3125 2.40625 -6.863281 1.9375 -7.625 C 1.46875 -8.394531 1.234375 -9.300781 1.234375 -10.34375 C 1.234375 -11.445312 1.472656 -12.390625 1.953125 -13.171875 C 2.441406 -13.953125 3.15625 -14.546875 4.09375 -14.953125 C 5.03125 -15.367188 6.164062 -15.578125 7.5 -15.578125 C 7.789062 -15.578125 8.117188 -15.554688 8.484375 -15.515625 C 8.859375 -15.484375 9.203125 -15.441406 9.515625 -15.390625 C 9.835938 -15.347656 10.050781 -15.3125 10.15625 -15.28125 L 15.484375 -15.28125 L 15.484375 -13.171875 L 13.09375 -12.546875 C 13.3125 -12.210938 13.472656 -11.851562 13.578125 -11.46875 C 13.691406 -11.082031 13.75 -10.675781 13.75 -10.25 C 13.75 -8.613281 13.175781 -7.335938 12.03125 -6.421875 C 10.894531 -5.503906 9.3125 -5.046875 7.28125 -5.046875 C 6.789062 -5.078125 6.332031 -5.113281 5.90625 -5.15625 C 5.695312 -4.988281 5.535156 -4.8125 5.421875 -4.625 C 5.316406 -4.445312 5.265625 -4.257812 5.265625 -4.0625 C 5.265625 -3.863281 5.347656 -3.695312 5.515625 -3.5625 C 5.679688 -3.425781 5.9375 -3.320312 6.28125 -3.25 C 6.625 -3.1875 7.050781 -3.15625 7.5625 -3.15625 L 10.15625 -3.15625 C 11.832031 -3.15625 13.109375 -2.796875 13.984375 -2.078125 C 14.867188 -1.359375 15.3125 -0.300781 15.3125 1.09375 C 15.3125 2.882812 14.566406 4.269531 13.078125 5.25 C 11.585938 6.238281 9.445312 6.734375 6.65625 6.734375 Z M 6.84375 4 C 7.832031 4 8.679688 3.90625 9.390625 3.71875 C 10.109375 3.539062 10.660156 3.28125 11.046875 2.9375 C 11.429688 2.59375 11.625 2.179688 11.625 1.703125 C 11.625 1.328125 11.507812 1.023438 11.28125 0.796875 C 11.0625 0.578125 10.722656 0.421875 10.265625 0.328125 C 9.816406 0.234375 9.242188 0.1875 8.546875 0.1875 L 6.390625 0.1875 C 5.878906 0.1875 5.421875 0.269531 5.015625 0.4375 C 4.609375 0.601562 4.285156 0.832031 4.046875 1.125 C 3.804688 1.425781 3.6875 1.769531 3.6875 2.15625 C 3.6875 2.726562 3.960938 3.175781 4.515625 3.5 C 5.066406 3.832031 5.84375 4 6.84375 4 Z M 7.5 -7.59375 C 8.289062 -7.59375 8.867188 -7.832031 9.234375 -8.3125 C 9.597656 -8.789062 9.78125 -9.445312 9.78125 -10.28125 C 9.78125 -11.195312 9.585938 -11.882812 9.203125 -12.34375 C 8.828125 -12.8125 8.257812 -13.046875 7.5 -13.046875 C 6.738281 -13.046875 6.164062 -12.8125 5.78125 -12.34375 C 5.394531 -11.882812 5.203125 -11.195312 5.203125 -10.28125 C 5.203125 -9.445312 5.390625 -8.789062 5.765625 -8.3125 C 6.148438 -7.832031 6.726562 -7.59375 7.5 -7.59375 Z M 7.5 -7.59375 "/></g></g></g><g fill="#ffffff" fill-opacity="1"><g transform="translate(156.19247, 77.990971)"><g><path d="M 6.359375 -21.28125 L 6.359375 -16.9375 C 6.359375 -16.1875 6.332031 -15.46875 6.28125 -14.78125 C 6.226562 -14.09375 6.191406 -13.609375 6.171875 -13.328125 L 6.390625 -13.328125 C 6.710938 -13.859375 7.097656 -14.285156 7.546875 -14.609375 C 8.003906 -14.941406 8.503906 -15.1875 9.046875 -15.34375 C 9.597656 -15.5 10.1875 -15.578125 10.8125 -15.578125 C 11.914062 -15.578125 12.878906 -15.378906 13.703125 -14.984375 C 14.523438 -14.597656 15.160156 -13.992188 15.609375 -13.171875 C 16.066406 -12.347656 16.296875 -11.28125 16.296875 -9.96875 L 16.296875 0 L 12.125 0 L 12.125 -8.921875 C 12.125 -10.015625 11.921875 -10.835938 11.515625 -11.390625 C 11.117188 -11.953125 10.503906 -12.234375 9.671875 -12.234375 C 8.828125 -12.234375 8.160156 -12.039062 7.671875 -11.65625 C 7.191406 -11.269531 6.851562 -10.695312 6.65625 -9.9375 C 6.457031 -9.1875 6.359375 -8.269531 6.359375 -7.1875 L 6.359375 0 L 2.1875 0 L 2.1875 -21.28125 Z M 6.359375 -21.28125 "/></g></g></g><g fill="#ffffff" fill-opacity="1"><g transform="translate(174.592245, 77.990971)"><g><path d="M 8.484375 -15.578125 C 9.898438 -15.578125 11.117188 -15.304688 12.140625 -14.765625 C 13.160156 -14.222656 13.945312 -13.4375 14.5 -12.40625 C 15.0625 -11.375 15.34375 -10.113281 15.34375 -8.625 L 15.34375 -6.609375 L 5.484375 -6.609375 C 5.523438 -5.429688 5.875 -4.503906 6.53125 -3.828125 C 7.195312 -3.160156 8.117188 -2.828125 9.296875 -2.828125 C 10.273438 -2.828125 11.164062 -2.925781 11.96875 -3.125 C 12.78125 -3.332031 13.617188 -3.632812 14.484375 -4.03125 L 14.484375 -0.8125 C 13.722656 -0.4375 12.929688 -0.160156 12.109375 0.015625 C 11.285156 0.191406 10.285156 0.28125 9.109375 0.28125 C 7.578125 0.28125 6.21875 0 5.03125 -0.5625 C 3.851562 -1.132812 2.929688 -2 2.265625 -3.15625 C 1.597656 -4.3125 1.265625 -5.769531 1.265625 -7.53125 C 1.265625 -9.320312 1.566406 -10.8125 2.171875 -12 C 2.773438 -13.1875 3.617188 -14.078125 4.703125 -14.671875 C 5.785156 -15.273438 7.046875 -15.578125 8.484375 -15.578125 Z M 8.515625 -12.609375 C 7.703125 -12.609375 7.03125 -12.347656 6.5 -11.828125 C 5.96875 -11.304688 5.660156 -10.488281 5.578125 -9.375 L 11.4375 -9.375 C 11.425781 -10 11.3125 -10.550781 11.09375 -11.03125 C 10.882812 -11.519531 10.566406 -11.90625 10.140625 -12.1875 C 9.710938 -12.46875 9.171875 -12.609375 8.515625 -12.609375 Z M 8.515625 -12.609375 "/></g></g></g><g fill="#ffffff" fill-opacity="1"><g transform="translate(191.132904, 77.990971)"><g><path d="M 10.71875 -15.578125 C 10.925781 -15.578125 11.171875 -15.5625 11.453125 -15.53125 C 11.734375 -15.507812 11.957031 -15.484375 12.125 -15.453125 L 11.8125 -11.546875 C 11.675781 -11.585938 11.484375 -11.617188 11.234375 -11.640625 C 10.984375 -11.660156 10.765625 -11.671875 10.578125 -11.671875 C 10.046875 -11.671875 9.523438 -11.601562 9.015625 -11.46875 C 8.515625 -11.332031 8.0625 -11.109375 7.65625 -10.796875 C 7.257812 -10.492188 6.941406 -10.09375 6.703125 -9.59375 C 6.472656 -9.101562 6.359375 -8.5 6.359375 -7.78125 L 6.359375 0 L 2.1875 0 L 2.1875 -15.28125 L 5.34375 -15.28125 L 5.96875 -12.71875 L 6.171875 -12.71875 C 6.472656 -13.238281 6.847656 -13.710938 7.296875 -14.140625 C 7.742188 -14.578125 8.253906 -14.925781 8.828125 -15.1875 C 9.410156 -15.445312 10.039062 -15.578125 10.71875 -15.578125 Z M 10.71875 -15.578125 "/></g></g></g><g fill="#ffffff" fill-opacity="1"><g transform="translate(203.845973, 77.990971)"><g/></g></g><g fill="#ffffff" fill-opacity="1"><g transform="translate(211.118396, 77.990971)"><g><path d="M 8.625 -3.046875 C 9.082031 -3.046875 9.523438 -3.09375 9.953125 -3.1875 C 10.390625 -3.28125 10.820312 -3.394531 11.25 -3.53125 L 11.25 -0.421875 C 10.800781 -0.222656 10.242188 -0.0546875 9.578125 0.078125 C 8.921875 0.210938 8.203125 0.28125 7.421875 0.28125 C 6.515625 0.28125 5.695312 0.132812 4.96875 -0.15625 C 4.25 -0.457031 3.679688 -0.972656 3.265625 -1.703125 C 2.847656 -2.441406 2.640625 -3.46875 2.640625 -4.78125 L 2.640625 -12.15625 L 0.640625 -12.15625 L 0.640625 -13.921875 L 2.9375 -15.3125 L 4.140625 -18.546875 L 6.8125 -18.546875 L 6.8125 -15.28125 L 11.09375 -15.28125 L 11.09375 -12.15625 L 6.8125 -12.15625 L 6.8125 -4.78125 C 6.8125 -4.195312 6.976562 -3.757812 7.3125 -3.46875 C 7.644531 -3.1875 8.082031 -3.046875 8.625 -3.046875 Z M 8.625 -3.046875 "/></g></g></g><g fill="#ffffff" fill-opacity="1"><g transform="translate(223.271002, 77.990971)"><g><path d="M 8.453125 -15.59375 C 10.503906 -15.59375 12.078125 -15.144531 13.171875 -14.25 C 14.265625 -13.363281 14.8125 -12.007812 14.8125 -10.1875 L 14.8125 0 L 11.890625 0 L 11.09375 -2.078125 L 10.984375 -2.078125 C 10.546875 -1.535156 10.097656 -1.085938 9.640625 -0.734375 C 9.179688 -0.390625 8.65625 -0.132812 8.0625 0.03125 C 7.46875 0.195312 6.75 0.28125 5.90625 0.28125 C 5 0.28125 4.1875 0.109375 3.46875 -0.234375 C 2.757812 -0.585938 2.195312 -1.117188 1.78125 -1.828125 C 1.375 -2.546875 1.171875 -3.457031 1.171875 -4.5625 C 1.171875 -6.1875 1.738281 -7.382812 2.875 -8.15625 C 4.019531 -8.925781 5.734375 -9.351562 8.015625 -9.4375 L 10.671875 -9.515625 L 10.671875 -10.1875 C 10.671875 -10.988281 10.457031 -11.578125 10.03125 -11.953125 C 9.613281 -12.328125 9.03125 -12.515625 8.28125 -12.515625 C 7.539062 -12.515625 6.816406 -12.40625 6.109375 -12.1875 C 5.398438 -11.976562 4.691406 -11.71875 3.984375 -11.40625 L 2.59375 -14.21875 C 3.40625 -14.644531 4.316406 -14.976562 5.328125 -15.21875 C 6.335938 -15.46875 7.378906 -15.59375 8.453125 -15.59375 Z M 10.671875 -7.078125 L 9.046875 -7.03125 C 7.703125 -6.988281 6.765625 -6.742188 6.234375 -6.296875 C 5.710938 -5.859375 5.453125 -5.273438 5.453125 -4.546875 C 5.453125 -3.898438 5.640625 -3.441406 6.015625 -3.171875 C 6.390625 -2.910156 6.878906 -2.78125 7.484375 -2.78125 C 8.367188 -2.78125 9.117188 -3.039062 9.734375 -3.5625 C 10.359375 -4.09375 10.671875 -4.847656 10.671875 -5.828125 Z M 10.671875 -7.078125 "/></g></g></g><g fill="#ffffff" fill-opacity="1"><g transform="translate(240.180757, 77.990971)"><g><path d="M 5.3125 -7.8125 L 0.390625 -15.28125 L 5.125 -15.28125 L 8.09375 -10.421875 L 11.09375 -15.28125 L 15.8125 -15.28125 L 10.84375 -7.8125 L 16.046875 0 L 11.3125 0 L 8.09375 -5.234375 L 4.875 0 L 0.140625 0 Z M 5.3125 -7.8125 "/></g></g></g><g fill="#ffffff" fill-opacity="1"><g transform="translate(256.365997, 77.990971)"><g><path d="M 16.078125 -7.671875 C 16.078125 -6.390625 15.90625 -5.253906 15.5625 -4.265625 C 15.21875 -3.285156 14.71875 -2.457031 14.0625 -1.78125 C 13.414062 -1.101562 12.632812 -0.585938 11.71875 -0.234375 C 10.800781 0.109375 9.769531 0.28125 8.625 0.28125 C 7.550781 0.28125 6.566406 0.109375 5.671875 -0.234375 C 4.773438 -0.585938 3.992188 -1.101562 3.328125 -1.78125 C 2.671875 -2.457031 2.160156 -3.285156 1.796875 -4.265625 C 1.441406 -5.253906 1.265625 -6.390625 1.265625 -7.671875 C 1.265625 -9.367188 1.5625 -10.800781 2.15625 -11.96875 C 2.757812 -13.144531 3.617188 -14.039062 4.734375 -14.65625 C 5.847656 -15.269531 7.171875 -15.578125 8.703125 -15.578125 C 10.140625 -15.578125 11.410156 -15.269531 12.515625 -14.65625 C 13.617188 -14.039062 14.488281 -13.144531 15.125 -11.96875 C 15.757812 -10.800781 16.078125 -9.367188 16.078125 -7.671875 Z M 5.515625 -7.671875 C 5.515625 -6.671875 5.625 -5.828125 5.84375 -5.140625 C 6.0625 -4.453125 6.398438 -3.9375 6.859375 -3.59375 C 7.328125 -3.25 7.9375 -3.078125 8.6875 -3.078125 C 9.425781 -3.078125 10.023438 -3.25 10.484375 -3.59375 C 10.941406 -3.9375 11.273438 -4.453125 11.484375 -5.140625 C 11.703125 -5.828125 11.8125 -6.671875 11.8125 -7.671875 C 11.8125 -8.679688 11.703125 -9.519531 11.484375 -10.1875 C 11.273438 -10.863281 10.9375 -11.367188 10.46875 -11.703125 C 10.007812 -12.035156 9.40625 -12.203125 8.65625 -12.203125 C 7.550781 -12.203125 6.75 -11.820312 6.25 -11.0625 C 5.757812 -10.3125 5.515625 -9.179688 5.515625 -7.671875 Z M 5.515625 -7.671875 "/></g></g></g><g fill="#ffffff" fill-opacity="1"><g transform="translate(273.699515, 77.990971)"><g><path d="M 10.875 -15.578125 C 12.5 -15.578125 13.804688 -15.128906 14.796875 -14.234375 C 15.796875 -13.347656 16.296875 -11.925781 16.296875 -9.96875 L 16.296875 0 L 12.125 0 L 12.125 -8.921875 C 12.125 -10.015625 11.925781 -10.835938 11.53125 -11.390625 C 11.132812 -11.953125 10.515625 -12.234375 9.671875 -12.234375 C 8.390625 -12.234375 7.515625 -11.800781 7.046875 -10.9375 C 6.585938 -10.070312 6.359375 -8.820312 6.359375 -7.1875 L 6.359375 0 L 2.1875 0 L 2.1875 -15.28125 L 5.375 -15.28125 L 5.9375 -13.328125 L 6.171875 -13.328125 C 6.492188 -13.859375 6.898438 -14.285156 7.390625 -14.609375 C 7.878906 -14.941406 8.421875 -15.1875 9.015625 -15.34375 C 9.609375 -15.5 10.226562 -15.578125 10.875 -15.578125 Z M 10.875 -15.578125 "/></g></g></g><g clip-path="url(#658bdee04a)"><path fill="#ffffff" d="M 87.242188 79.425781 L 80.589844 79.425781 L 80.589844 78.304688 L 86.125 78.304688 L 86.125 50.316406 L 64.84375 50.316406 L 64.84375 78.304688 L 77.25 78.304688 L 77.25 79.425781 L 63.730469 79.425781 L 63.730469 49.195312 L 87.242188 49.195312 L 87.242188 79.425781 " fill-opacity="1" fill-rule="nonzero"/></g><path fill="#ffffff" d="M 62.613281 76.757812 L 60.230469 76.757812 L 60.230469 51.863281 L 62.613281 51.863281 L 62.613281 52.984375 L 61.347656 52.984375 L 61.347656 75.640625 L 62.613281 75.640625 L 62.613281 76.757812 " fill-opacity="1" fill-rule="nonzero"/><path fill="#ffffff" d="M 90.738281 76.757812 L 88.355469 76.757812 L 88.355469 75.640625 L 89.621094 75.640625 L 89.621094 52.984375 L 88.355469 52.984375 L 88.355469 51.863281 L 90.738281 51.863281 L 90.738281 76.757812 " fill-opacity="1" fill-rule="nonzero"/><g clip-path="url(#6ee1894add)"><path fill="#ffffff" d="M 59.117188 55.234375 L 59.117188 56.351562 L 57.851562 56.351562 L 57.851562 72.269531 L 59.117188 72.269531 L 59.117188 73.390625 L 56.734375 73.390625 L 56.734375 55.234375 L 59.117188 55.234375 " fill-opacity="1" fill-rule="nonzero"/></g><g clip-path="url(#72a34ada52)"><path fill="#ffffff" d="M 91.855469 73.390625 L 91.855469 72.269531 L 93.117188 72.269531 L 93.117188 56.351562 L 91.855469 56.351562 L 91.855469 55.234375 L 94.234375 55.234375 L 94.234375 73.390625 L 91.855469 73.390625 " fill-opacity="1" fill-rule="nonzero"/></g><path fill="#ffffff" d="M 78.863281 55.480469 L 72.105469 55.480469 L 72.105469 54.359375 L 78.863281 54.359375 L 78.863281 55.480469 " fill-opacity="1" fill-rule="nonzero"/><path fill="#ffffff" d="M 82.816406 60.34375 L 68.152344 60.34375 L 68.152344 59.222656 L 82.816406 59.222656 L 82.816406 60.34375 " fill-opacity="1" fill-rule="nonzero"/><path fill="#ffffff" d="M 77.183594 65.207031 L 68.152344 65.207031 L 68.152344 64.085938 L 77.183594 64.085938 L 77.183594 65.207031 " fill-opacity="1" fill-rule="nonzero"/><path fill="#ffffff" d="M 82.816406 65.207031 L 78.5625 65.207031 L 78.5625 64.085938 L 82.816406 64.085938 L 82.816406 65.207031 " fill-opacity="1" fill-rule="nonzero"/><path fill="#ffffff" d="M 72.175781 70.070312 L 68.152344 70.070312 L 68.152344 68.949219 L 72.175781 68.949219 L 72.175781 70.070312 " fill-opacity="1" fill-rule="nonzero"/><path fill="#ffffff" d="M 72.175781 74.933594 L 68.152344 74.933594 L 68.152344 73.8125 L 72.175781 73.8125 L 72.175781 74.933594 " fill-opacity="1" fill-rule="nonzero"/><path fill="#ffffff" d="M 78.476562 73.789062 L 76.554688 71.859375 L 77.34375 71.070312 L 79.265625 72.996094 L 78.476562 73.789062 " fill-opacity="1" fill-rule="nonzero"/><path fill="#ffffff" d="M 77.683594 72.996094 L 80.582031 70.09375 L 81.371094 70.882812 L 78.476562 73.789062 L 77.683594 72.996094 " fill-opacity="1" fill-rule="nonzero"/><path fill="#ffffff" d="M 78.921875 67.730469 C 76.609375 67.730469 74.726562 69.617188 74.726562 71.941406 C 74.726562 74.261719 76.609375 76.148438 78.921875 76.148438 C 81.234375 76.148438 83.117188 74.261719 83.117188 71.941406 C 83.117188 69.617188 81.234375 67.730469 78.921875 67.730469 Z M 78.921875 77.269531 C 75.992188 77.269531 73.609375 74.878906 73.609375 71.941406 C 73.609375 69 75.992188 66.609375 78.921875 66.609375 C 81.851562 66.609375 84.234375 69 84.234375 71.941406 C 84.234375 74.878906 81.851562 77.269531 78.921875 77.269531 " fill-opacity="1" fill-rule="nonzero"/><path fill="#ffffff" d="M 79.480469 80.898438 L 78.363281 80.898438 L 78.363281 76.867188 L 79.480469 76.867188 L 79.480469 80.898438 " fill-opacity="1" fill-rule="nonzero"/><g clip-path="url(#887b6c6537)"><path fill="#ffffff" d="M 78.921875 81.371094 C 78.304688 81.371094 77.78125 81.855469 77.734375 82.472656 L 77.347656 87.621094 C 77.316406 88.066406 77.460938 88.488281 77.765625 88.816406 C 78.066406 89.144531 78.476562 89.324219 78.921875 89.324219 C 79.367188 89.324219 79.777344 89.144531 80.078125 88.816406 C 80.378906 88.488281 80.527344 88.066406 80.496094 87.621094 L 80.109375 82.472656 C 80.0625 81.855469 79.539062 81.371094 78.921875 81.371094 Z M 78.921875 90.441406 C 78.175781 90.441406 77.453125 90.128906 76.945312 89.578125 C 76.4375 89.027344 76.179688 88.285156 76.234375 87.535156 L 76.621094 82.390625 C 76.714844 81.191406 77.722656 80.25 78.921875 80.25 C 80.121094 80.25 81.128906 81.191406 81.222656 82.390625 L 81.609375 87.535156 C 81.664062 88.285156 81.40625 89.027344 80.898438 89.578125 C 80.390625 90.128906 79.667969 90.441406 78.921875 90.441406 " fill-opacity="1" fill-rule="nonzero"/></g></svg>