<svg xmlns="http://www.w3.org/2000/svg" xmlns:xlink="http://www.w3.org/1999/xlink" width="500" zoomAndPan="magnify" viewBox="0 0 375 374.999991" height="500" preserveAspectRatio="xMidYMid meet" version="1.0"><defs><g/><clipPath id="e27b96c753"><path d="M 37.5 37.5 L 337.5 37.5 L 337.5 97.480469 L 37.5 97.480469 Z M 37.5 37.5 " clip-rule="nonzero"/></clipPath><clipPath id="bb7a99a628"><path d="M 54.75 37.5 L 320.25 37.5 C 324.824219 37.5 329.210938 39.316406 332.449219 42.550781 C 335.683594 45.789062 337.5 50.175781 337.5 54.75 L 337.5 80.230469 C 337.5 84.808594 335.683594 89.195312 332.449219 92.429688 C 329.210938 95.664062 324.824219 97.480469 320.25 97.480469 L 54.75 97.480469 C 50.175781 97.480469 45.789062 95.664062 42.550781 92.429688 C 39.316406 89.195312 37.5 84.808594 37.5 80.230469 L 37.5 54.75 C 37.5 50.175781 39.316406 45.789062 42.550781 42.550781 C 45.789062 39.316406 50.175781 37.5 54.75 37.5 Z M 54.75 37.5 " clip-rule="nonzero"/></clipPath><clipPath id="1d74dfe381"><path d="M 51 45 L 113 45 L 113 89 L 51 89 Z M 51 45 " clip-rule="nonzero"/></clipPath><clipPath id="0a29d78f0e"><path d="M 69.03125 105.359375 L 43.40625 54.441406 L 92.984375 29.492188 L 118.605469 80.410156 Z M 69.03125 105.359375 " clip-rule="nonzero"/></clipPath><clipPath id="b3fd691392"><path d="M 69.03125 105.359375 L 43.40625 54.441406 L 92.984375 29.492188 L 118.605469 80.410156 Z M 69.03125 105.359375 " clip-rule="nonzero"/></clipPath></defs><g clip-path="url(#e27b96c753)"><g clip-path="url(#bb7a99a628)"><path fill="#fec743" d="M 37.5 37.5 L 337.5 37.5 L 337.5 97.480469 L 37.5 97.480469 Z M 37.5 37.5 " fill-opacity="1" fill-rule="nonzero"/></g></g><g fill="#ffffff" fill-opacity="1"><g transform="translate(126.408863, 77.991146)"><g><path d="M 20.140625 -15.578125 C 21.867188 -15.578125 23.175781 -15.128906 24.0625 -14.234375 C 24.957031 -13.347656 25.40625 -11.925781 25.40625 -9.96875 L 25.40625 0 L 21.21875 0 L 21.21875 -8.921875 C 21.21875 -10.015625 21.03125 -10.835938 20.65625 -11.390625 C 20.28125 -11.953125 19.703125 -12.234375 18.921875 -12.234375 C 17.816406 -12.234375 17.03125 -11.835938 16.5625 -11.046875 C 16.101562 -10.265625 15.875 -9.140625 15.875 -7.671875 L 15.875 0 L 11.703125 0 L 11.703125 -8.921875 C 11.703125 -9.648438 11.617188 -10.257812 11.453125 -10.75 C 11.296875 -11.25 11.046875 -11.617188 10.703125 -11.859375 C 10.367188 -12.109375 9.9375 -12.234375 9.40625 -12.234375 C 8.632812 -12.234375 8.023438 -12.039062 7.578125 -11.65625 C 7.140625 -11.269531 6.828125 -10.695312 6.640625 -9.9375 C 6.453125 -9.1875 6.359375 -8.269531 6.359375 -7.1875 L 6.359375 0 L 2.1875 0 L 2.1875 -15.28125 L 5.375 -15.28125 L 5.9375 -13.328125 L 6.171875 -13.328125 C 6.472656 -13.859375 6.859375 -14.285156 7.328125 -14.609375 C 7.804688 -14.941406 8.328125 -15.1875 8.890625 -15.34375 C 9.453125 -15.5 10.023438 -15.578125 10.609375 -15.578125 C 11.734375 -15.578125 12.679688 -15.394531 13.453125 -15.03125 C 14.234375 -14.664062 14.835938 -14.097656 15.265625 -13.328125 L 15.625 -13.328125 C 16.082031 -14.109375 16.726562 -14.675781 17.5625 -15.03125 C 18.394531 -15.394531 19.253906 -15.578125 20.140625 -15.578125 Z M 20.140625 -15.578125 "/></g></g></g><g fill="#ffffff" fill-opacity="1"><g transform="translate(153.899172, 77.991146)"><g><path d="M 6.359375 -15.28125 L 6.359375 0 L 2.1875 0 L 2.1875 -15.28125 Z M 4.28125 -21.28125 C 4.894531 -21.28125 5.425781 -21.132812 5.875 -20.84375 C 6.320312 -20.550781 6.546875 -20.015625 6.546875 -19.234375 C 6.546875 -18.460938 6.320312 -17.925781 5.875 -17.625 C 5.425781 -17.332031 4.894531 -17.1875 4.28125 -17.1875 C 3.65625 -17.1875 3.117188 -17.332031 2.671875 -17.625 C 2.234375 -17.925781 2.015625 -18.460938 2.015625 -19.234375 C 2.015625 -20.015625 2.234375 -20.550781 2.671875 -20.84375 C 3.117188 -21.132812 3.65625 -21.28125 4.28125 -21.28125 Z M 4.28125 -21.28125 "/></g></g></g><g fill="#ffffff" fill-opacity="1"><g transform="translate(162.442907, 77.991146)"><g><path d="M 8.625 -3.046875 C 9.082031 -3.046875 9.523438 -3.09375 9.953125 -3.1875 C 10.390625 -3.28125 10.820312 -3.394531 11.25 -3.53125 L 11.25 -0.421875 C 10.800781 -0.222656 10.242188 -0.0546875 9.578125 0.078125 C 8.921875 0.210938 8.203125 0.28125 7.421875 0.28125 C 6.515625 0.28125 5.695312 0.132812 4.96875 -0.15625 C 4.25 -0.457031 3.679688 -0.972656 3.265625 -1.703125 C 2.847656 -2.441406 2.640625 -3.46875 2.640625 -4.78125 L 2.640625 -12.15625 L 0.640625 -12.15625 L 0.640625 -13.921875 L 2.9375 -15.3125 L 4.140625 -18.546875 L 6.8125 -18.546875 L 6.8125 -15.28125 L 11.09375 -15.28125 L 11.09375 -12.15625 L 6.8125 -12.15625 L 6.8125 -4.78125 C 6.8125 -4.195312 6.976562 -3.757812 7.3125 -3.46875 C 7.644531 -3.1875 8.082031 -3.046875 8.625 -3.046875 Z M 8.625 -3.046875 "/></g></g></g><g fill="#ffffff" fill-opacity="1"><g transform="translate(174.595513, 77.991146)"><g><path d="M 16.078125 -7.671875 C 16.078125 -6.390625 15.90625 -5.253906 15.5625 -4.265625 C 15.21875 -3.285156 14.71875 -2.457031 14.0625 -1.78125 C 13.414062 -1.101562 12.632812 -0.585938 11.71875 -0.234375 C 10.800781 0.109375 9.769531 0.28125 8.625 0.28125 C 7.550781 0.28125 6.566406 0.109375 5.671875 -0.234375 C 4.773438 -0.585938 3.992188 -1.101562 3.328125 -1.78125 C 2.671875 -2.457031 2.160156 -3.285156 1.796875 -4.265625 C 1.441406 -5.253906 1.265625 -6.390625 1.265625 -7.671875 C 1.265625 -9.367188 1.5625 -10.800781 2.15625 -11.96875 C 2.757812 -13.144531 3.617188 -14.039062 4.734375 -14.65625 C 5.847656 -15.269531 7.171875 -15.578125 8.703125 -15.578125 C 10.140625 -15.578125 11.410156 -15.269531 12.515625 -14.65625 C 13.617188 -14.039062 14.488281 -13.144531 15.125 -11.96875 C 15.757812 -10.800781 16.078125 -9.367188 16.078125 -7.671875 Z M 5.515625 -7.671875 C 5.515625 -6.671875 5.625 -5.828125 5.84375 -5.140625 C 6.0625 -4.453125 6.398438 -3.9375 6.859375 -3.59375 C 7.328125 -3.25 7.9375 -3.078125 8.6875 -3.078125 C 9.425781 -3.078125 10.023438 -3.25 10.484375 -3.59375 C 10.941406 -3.9375 11.273438 -4.453125 11.484375 -5.140625 C 11.703125 -5.828125 11.8125 -6.671875 11.8125 -7.671875 C 11.8125 -8.679688 11.703125 -9.519531 11.484375 -10.1875 C 11.273438 -10.863281 10.9375 -11.367188 10.46875 -11.703125 C 10.007812 -12.035156 9.40625 -12.203125 8.65625 -12.203125 C 7.550781 -12.203125 6.75 -11.820312 6.25 -11.0625 C 5.757812 -10.3125 5.515625 -9.179688 5.515625 -7.671875 Z M 5.515625 -7.671875 "/></g></g></g><g fill="#ffffff" fill-opacity="1"><g transform="translate(191.929031, 77.991146)"><g><path d="M 6.65625 6.734375 C 4.519531 6.734375 2.890625 6.359375 1.765625 5.609375 C 0.640625 4.867188 0.078125 3.828125 0.078125 2.484375 C 0.078125 1.566406 0.363281 0.796875 0.9375 0.171875 C 1.519531 -0.441406 2.363281 -0.882812 3.46875 -1.15625 C 3.039062 -1.332031 2.664062 -1.628906 2.34375 -2.046875 C 2.03125 -2.460938 1.875 -2.898438 1.875 -3.359375 C 1.875 -3.941406 2.039062 -4.425781 2.375 -4.8125 C 2.71875 -5.207031 3.207031 -5.59375 3.84375 -5.96875 C 3.039062 -6.3125 2.40625 -6.863281 1.9375 -7.625 C 1.46875 -8.394531 1.234375 -9.300781 1.234375 -10.34375 C 1.234375 -11.445312 1.472656 -12.390625 1.953125 -13.171875 C 2.441406 -13.953125 3.15625 -14.546875 4.09375 -14.953125 C 5.03125 -15.367188 6.164062 -15.578125 7.5 -15.578125 C 7.789062 -15.578125 8.117188 -15.554688 8.484375 -15.515625 C 8.859375 -15.484375 9.203125 -15.441406 9.515625 -15.390625 C 9.835938 -15.347656 10.050781 -15.3125 10.15625 -15.28125 L 15.484375 -15.28125 L 15.484375 -13.171875 L 13.09375 -12.546875 C 13.3125 -12.210938 13.472656 -11.851562 13.578125 -11.46875 C 13.691406 -11.082031 13.75 -10.675781 13.75 -10.25 C 13.75 -8.613281 13.175781 -7.335938 12.03125 -6.421875 C 10.894531 -5.503906 9.3125 -5.046875 7.28125 -5.046875 C 6.789062 -5.078125 6.332031 -5.113281 5.90625 -5.15625 C 5.695312 -4.988281 5.535156 -4.8125 5.421875 -4.625 C 5.316406 -4.445312 5.265625 -4.257812 5.265625 -4.0625 C 5.265625 -3.863281 5.347656 -3.695312 5.515625 -3.5625 C 5.679688 -3.425781 5.9375 -3.320312 6.28125 -3.25 C 6.625 -3.1875 7.050781 -3.15625 7.5625 -3.15625 L 10.15625 -3.15625 C 11.832031 -3.15625 13.109375 -2.796875 13.984375 -2.078125 C 14.867188 -1.359375 15.3125 -0.300781 15.3125 1.09375 C 15.3125 2.882812 14.566406 4.269531 13.078125 5.25 C 11.585938 6.238281 9.445312 6.734375 6.65625 6.734375 Z M 6.84375 4 C 7.832031 4 8.679688 3.90625 9.390625 3.71875 C 10.109375 3.539062 10.660156 3.28125 11.046875 2.9375 C 11.429688 2.59375 11.625 2.179688 11.625 1.703125 C 11.625 1.328125 11.507812 1.023438 11.28125 0.796875 C 11.0625 0.578125 10.722656 0.421875 10.265625 0.328125 C 9.816406 0.234375 9.242188 0.1875 8.546875 0.1875 L 6.390625 0.1875 C 5.878906 0.1875 5.421875 0.269531 5.015625 0.4375 C 4.609375 0.601562 4.285156 0.832031 4.046875 1.125 C 3.804688 1.425781 3.6875 1.769531 3.6875 2.15625 C 3.6875 2.726562 3.960938 3.175781 4.515625 3.5 C 5.066406 3.832031 5.84375 4 6.84375 4 Z M 7.5 -7.59375 C 8.289062 -7.59375 8.867188 -7.832031 9.234375 -8.3125 C 9.597656 -8.789062 9.78125 -9.445312 9.78125 -10.28125 C 9.78125 -11.195312 9.585938 -11.882812 9.203125 -12.34375 C 8.828125 -12.8125 8.257812 -13.046875 7.5 -13.046875 C 6.738281 -13.046875 6.164062 -12.8125 5.78125 -12.34375 C 5.394531 -11.882812 5.203125 -11.195312 5.203125 -10.28125 C 5.203125 -9.445312 5.390625 -8.789062 5.765625 -8.3125 C 6.148438 -7.832031 6.726562 -7.59375 7.5 -7.59375 Z M 7.5 -7.59375 "/></g></g></g><g fill="#ffffff" fill-opacity="1"><g transform="translate(207.745188, 77.991146)"><g><path d="M 8.484375 -15.578125 C 9.898438 -15.578125 11.117188 -15.304688 12.140625 -14.765625 C 13.160156 -14.222656 13.945312 -13.4375 14.5 -12.40625 C 15.0625 -11.375 15.34375 -10.113281 15.34375 -8.625 L 15.34375 -6.609375 L 5.484375 -6.609375 C 5.523438 -5.429688 5.875 -4.503906 6.53125 -3.828125 C 7.195312 -3.160156 8.117188 -2.828125 9.296875 -2.828125 C 10.273438 -2.828125 11.164062 -2.925781 11.96875 -3.125 C 12.78125 -3.332031 13.617188 -3.632812 14.484375 -4.03125 L 14.484375 -0.8125 C 13.722656 -0.4375 12.929688 -0.160156 12.109375 0.015625 C 11.285156 0.191406 10.285156 0.28125 9.109375 0.28125 C 7.578125 0.28125 6.21875 0 5.03125 -0.5625 C 3.851562 -1.132812 2.929688 -2 2.265625 -3.15625 C 1.597656 -4.3125 1.265625 -5.769531 1.265625 -7.53125 C 1.265625 -9.320312 1.566406 -10.8125 2.171875 -12 C 2.773438 -13.1875 3.617188 -14.078125 4.703125 -14.671875 C 5.785156 -15.273438 7.046875 -15.578125 8.484375 -15.578125 Z M 8.515625 -12.609375 C 7.703125 -12.609375 7.03125 -12.347656 6.5 -11.828125 C 5.96875 -11.304688 5.660156 -10.488281 5.578125 -9.375 L 11.4375 -9.375 C 11.425781 -10 11.3125 -10.550781 11.09375 -11.03125 C 10.882812 -11.519531 10.566406 -11.90625 10.140625 -12.1875 C 9.710938 -12.46875 9.171875 -12.609375 8.515625 -12.609375 Z M 8.515625 -12.609375 "/></g></g></g><g fill="#ffffff" fill-opacity="1"><g transform="translate(224.285848, 77.991146)"><g><path d="M 10.875 -15.578125 C 12.5 -15.578125 13.804688 -15.128906 14.796875 -14.234375 C 15.796875 -13.347656 16.296875 -11.925781 16.296875 -9.96875 L 16.296875 0 L 12.125 0 L 12.125 -8.921875 C 12.125 -10.015625 11.925781 -10.835938 11.53125 -11.390625 C 11.132812 -11.953125 10.515625 -12.234375 9.671875 -12.234375 C 8.390625 -12.234375 7.515625 -11.800781 7.046875 -10.9375 C 6.585938 -10.070312 6.359375 -8.820312 6.359375 -7.1875 L 6.359375 0 L 2.1875 0 L 2.1875 -15.28125 L 5.375 -15.28125 L 5.9375 -13.328125 L 6.171875 -13.328125 C 6.492188 -13.859375 6.898438 -14.285156 7.390625 -14.609375 C 7.878906 -14.941406 8.421875 -15.1875 9.015625 -15.34375 C 9.609375 -15.5 10.226562 -15.578125 10.875 -15.578125 Z M 10.875 -15.578125 "/></g></g></g><g fill="#ffffff" fill-opacity="1"><g transform="translate(242.685623, 77.991146)"><g><path d="M 16.078125 -7.671875 C 16.078125 -6.390625 15.90625 -5.253906 15.5625 -4.265625 C 15.21875 -3.285156 14.71875 -2.457031 14.0625 -1.78125 C 13.414062 -1.101562 12.632812 -0.585938 11.71875 -0.234375 C 10.800781 0.109375 9.769531 0.28125 8.625 0.28125 C 7.550781 0.28125 6.566406 0.109375 5.671875 -0.234375 C 4.773438 -0.585938 3.992188 -1.101562 3.328125 -1.78125 C 2.671875 -2.457031 2.160156 -3.285156 1.796875 -4.265625 C 1.441406 -5.253906 1.265625 -6.390625 1.265625 -7.671875 C 1.265625 -9.367188 1.5625 -10.800781 2.15625 -11.96875 C 2.757812 -13.144531 3.617188 -14.039062 4.734375 -14.65625 C 5.847656 -15.269531 7.171875 -15.578125 8.703125 -15.578125 C 10.140625 -15.578125 11.410156 -15.269531 12.515625 -14.65625 C 13.617188 -14.039062 14.488281 -13.144531 15.125 -11.96875 C 15.757812 -10.800781 16.078125 -9.367188 16.078125 -7.671875 Z M 5.515625 -7.671875 C 5.515625 -6.671875 5.625 -5.828125 5.84375 -5.140625 C 6.0625 -4.453125 6.398438 -3.9375 6.859375 -3.59375 C 7.328125 -3.25 7.9375 -3.078125 8.6875 -3.078125 C 9.425781 -3.078125 10.023438 -3.25 10.484375 -3.59375 C 10.941406 -3.9375 11.273438 -4.453125 11.484375 -5.140625 C 11.703125 -5.828125 11.8125 -6.671875 11.8125 -7.671875 C 11.8125 -8.679688 11.703125 -9.519531 11.484375 -10.1875 C 11.273438 -10.863281 10.9375 -11.367188 10.46875 -11.703125 C 10.007812 -12.035156 9.40625 -12.203125 8.65625 -12.203125 C 7.550781 -12.203125 6.75 -11.820312 6.25 -11.0625 C 5.757812 -10.3125 5.515625 -9.179688 5.515625 -7.671875 Z M 5.515625 -7.671875 "/></g></g></g><g fill="#ffffff" fill-opacity="1"><g transform="translate(260.019141, 77.991146)"><g><path d="M 20.140625 -15.578125 C 21.867188 -15.578125 23.175781 -15.128906 24.0625 -14.234375 C 24.957031 -13.347656 25.40625 -11.925781 25.40625 -9.96875 L 25.40625 0 L 21.21875 0 L 21.21875 -8.921875 C 21.21875 -10.015625 21.03125 -10.835938 20.65625 -11.390625 C 20.28125 -11.953125 19.703125 -12.234375 18.921875 -12.234375 C 17.816406 -12.234375 17.03125 -11.835938 16.5625 -11.046875 C 16.101562 -10.265625 15.875 -9.140625 15.875 -7.671875 L 15.875 0 L 11.703125 0 L 11.703125 -8.921875 C 11.703125 -9.648438 11.617188 -10.257812 11.453125 -10.75 C 11.296875 -11.25 11.046875 -11.617188 10.703125 -11.859375 C 10.367188 -12.109375 9.9375 -12.234375 9.40625 -12.234375 C 8.632812 -12.234375 8.023438 -12.039062 7.578125 -11.65625 C 7.140625 -11.269531 6.828125 -10.695312 6.640625 -9.9375 C 6.453125 -9.1875 6.359375 -8.269531 6.359375 -7.1875 L 6.359375 0 L 2.1875 0 L 2.1875 -15.28125 L 5.375 -15.28125 L 5.9375 -13.328125 L 6.171875 -13.328125 C 6.472656 -13.859375 6.859375 -14.285156 7.328125 -14.609375 C 7.804688 -14.941406 8.328125 -15.1875 8.890625 -15.34375 C 9.453125 -15.5 10.023438 -15.578125 10.609375 -15.578125 C 11.734375 -15.578125 12.679688 -15.394531 13.453125 -15.03125 C 14.234375 -14.664062 14.835938 -14.097656 15.265625 -13.328125 L 15.625 -13.328125 C 16.082031 -14.109375 16.726562 -14.675781 17.5625 -15.03125 C 18.394531 -15.394531 19.253906 -15.578125 20.140625 -15.578125 Z M 20.140625 -15.578125 "/></g></g></g><g fill="#ffffff" fill-opacity="1"><g transform="translate(287.50945, 77.991146)"><g><path d="M 8.484375 -15.578125 C 9.898438 -15.578125 11.117188 -15.304688 12.140625 -14.765625 C 13.160156 -14.222656 13.945312 -13.4375 14.5 -12.40625 C 15.0625 -11.375 15.34375 -10.113281 15.34375 -8.625 L 15.34375 -6.609375 L 5.484375 -6.609375 C 5.523438 -5.429688 5.875 -4.503906 6.53125 -3.828125 C 7.195312 -3.160156 8.117188 -2.828125 9.296875 -2.828125 C 10.273438 -2.828125 11.164062 -2.925781 11.96875 -3.125 C 12.78125 -3.332031 13.617188 -3.632812 14.484375 -4.03125 L 14.484375 -0.8125 C 13.722656 -0.4375 12.929688 -0.160156 12.109375 0.015625 C 11.285156 0.191406 10.285156 0.28125 9.109375 0.28125 C 7.578125 0.28125 6.21875 0 5.03125 -0.5625 C 3.851562 -1.132812 2.929688 -2 2.265625 -3.15625 C 1.597656 -4.3125 1.265625 -5.769531 1.265625 -7.53125 C 1.265625 -9.320312 1.566406 -10.8125 2.171875 -12 C 2.773438 -13.1875 3.617188 -14.078125 4.703125 -14.671875 C 5.785156 -15.273438 7.046875 -15.578125 8.484375 -15.578125 Z M 8.515625 -12.609375 C 7.703125 -12.609375 7.03125 -12.347656 6.5 -11.828125 C 5.96875 -11.304688 5.660156 -10.488281 5.578125 -9.375 L 11.4375 -9.375 C 11.425781 -10 11.3125 -10.550781 11.09375 -11.03125 C 10.882812 -11.519531 10.566406 -11.90625 10.140625 -12.1875 C 9.710938 -12.46875 9.171875 -12.609375 8.515625 -12.609375 Z M 8.515625 -12.609375 "/></g></g></g><g clip-path="url(#1d74dfe381)"><g clip-path="url(#0a29d78f0e)"><g clip-path="url(#b3fd691392)"><path fill="#ffffff" d="M 52.355469 57.378906 C 49.398438 66.28125 54.246094 75.910156 63.15625 78.84375 L 89.640625 87.550781 C 98.550781 90.480469 108.203125 85.625 111.160156 76.71875 C 112.636719 72.265625 112.164062 67.636719 110.210938 63.75 C 108.253906 59.867188 104.816406 56.726562 100.359375 55.261719 L 73.875 46.546875 C 64.964844 43.617188 55.308594 48.472656 52.355469 57.378906 Z M 73.285156 48.304688 L 99.769531 57.019531 C 107.710938 59.632812 112.03125 68.210938 109.398438 76.144531 C 106.765625 84.082031 98.160156 88.410156 90.222656 85.796875 L 63.734375 77.082031 C 59.765625 75.777344 56.703125 72.976562 54.960938 69.511719 C 53.21875 66.050781 52.792969 61.921875 54.109375 57.957031 C 56.742188 50.019531 65.34375 45.691406 73.285156 48.304688 Z M 56.679688 58.007812 C 54.882812 62.527344 55.777344 67.589844 59.019531 71.199219 C 59.488281 71.71875 60.1875 71.949219 60.878906 71.796875 C 61.582031 71.648438 62.152344 71.132812 62.386719 70.457031 L 64.597656 63.792969 C 64.8125 63.144531 65.476562 62.730469 66.066406 62.875 C 66.433594 62.960938 66.71875 63.179688 66.882812 63.523438 C 67.019531 63.796875 67.050781 64.132812 66.949219 64.441406 L 64.246094 72.585938 C 63.898438 73.632812 64.46875 74.765625 65.515625 75.109375 L 79.777344 79.800781 C 80.289062 79.96875 80.828125 79.925781 81.308594 79.683594 C 81.789062 79.441406 82.144531 79.035156 82.316406 78.527344 L 84.980469 70.492188 C 85.195312 69.84375 85.859375 69.429688 86.449219 69.574219 C 86.816406 69.660156 87.085938 69.910156 87.265625 70.222656 C 87.394531 70.480469 87.4375 70.832031 87.332031 71.140625 L 84.628906 79.289062 C 84.292969 80.308594 84.882812 81.480469 85.898438 81.808594 L 90.65625 83.382812 C 97.242188 85.546875 104.335938 82.351562 106.820312 76.105469 C 108.191406 72.660156 107.996094 68.90625 106.390625 65.714844 C 105.890625 64.722656 105.25 63.78125 104.484375 62.914062 C 104.011719 62.394531 103.316406 62.164062 102.625 62.316406 C 101.917969 62.464844 101.347656 62.980469 101.117188 63.65625 L 98.527344 71.453125 C 98.425781 71.765625 98.214844 72.003906 97.910156 72.160156 C 97.585938 72.320312 97.230469 72.335938 96.882812 72.1875 C 96.316406 71.945312 96.035156 71.226562 96.25 70.578125 L 99.25 61.539062 C 99.597656 60.492188 99.027344 59.363281 97.984375 59.019531 L 83.71875 54.324219 C 83.207031 54.15625 82.671875 54.199219 82.1875 54.441406 C 81.707031 54.683594 81.351562 55.089844 81.183594 55.601562 L 78.480469 63.746094 C 78.378906 64.058594 78.167969 64.296875 77.859375 64.453125 C 77.542969 64.609375 77.179688 64.628906 76.835938 64.480469 C 76.265625 64.238281 75.988281 63.519531 76.203125 62.871094 L 78.867188 54.839844 C 79.199219 53.824219 78.609375 52.648438 77.601562 52.316406 L 72.839844 50.746094 C 66.257812 48.578125 59.164062 51.777344 56.675781 58.019531 Z M 72.261719 52.488281 L 77.03125 54.054688 C 77.09375 54.074219 77.140625 54.175781 77.121094 54.238281 L 74.457031 62.269531 C 73.9375 63.835938 74.660156 65.542969 76.117188 66.167969 C 76.964844 66.53125 77.914062 66.496094 78.703125 66.089844 C 79.445312 65.726562 79.992188 65.097656 80.261719 64.3125 L 82.964844 56.164062 C 82.984375 56.101562 83.082031 56.054688 83.144531 56.074219 L 97.410156 60.765625 C 97.484375 60.792969 97.527344 60.875 97.5 60.949219 L 94.5 69.988281 C 93.980469 71.554688 94.703125 73.265625 96.160156 73.886719 C 97.007812 74.25 97.957031 74.21875 98.75 73.808594 C 99.488281 73.445312 100.035156 72.816406 100.304688 72.03125 L 102.890625 64.234375 C 102.917969 64.160156 102.988281 64.132812 103.015625 64.128906 C 103.082031 64.117188 103.109375 64.144531 103.113281 64.152344 C 105.882812 67.246094 106.652344 71.558594 105.109375 75.425781 C 102.984375 80.761719 96.898438 83.484375 91.246094 81.625 L 86.480469 80.054688 C 86.480469 80.054688 86.417969 80.015625 86.402344 79.980469 C 86.382812 79.949219 86.371094 79.902344 86.386719 79.875 L 89.09375 71.726562 C 89.351562 70.945312 89.273438 70.105469 88.917969 69.402344 C 88.539062 68.609375 87.777344 67.996094 86.878906 67.785156 C 85.34375 67.417969 83.734375 68.363281 83.214844 69.929688 L 80.546875 77.964844 C 80.527344 78.027344 80.425781 78.078125 80.363281 78.058594 L 66.101562 73.363281 C 66.027344 73.339844 65.984375 73.257812 66.007812 73.183594 L 68.710938 65.035156 C 68.972656 64.253906 68.886719 63.40625 68.539062 62.710938 C 68.117188 61.875 67.398438 61.304688 66.5 61.09375 C 64.964844 60.726562 63.355469 61.671875 62.835938 63.238281 L 60.621094 69.90625 C 60.597656 69.980469 60.527344 70.003906 60.496094 70.007812 C 60.429688 70.023438 60.40625 69.992188 60.402344 69.984375 C 57.632812 66.894531 56.863281 62.578125 58.40625 58.714844 C 60.53125 53.378906 66.617188 50.65625 72.265625 52.515625 Z M 73.617188 71.144531 C 73.429688 71.707031 72.824219 72.011719 72.257812 71.832031 C 71.6875 71.648438 71.394531 71.042969 71.574219 70.472656 C 71.761719 69.914062 72.363281 69.609375 72.933594 69.789062 C 73.492188 69.976562 73.796875 70.578125 73.617188 71.144531 Z M 71.558594 56.921875 C 71.742188 56.363281 72.347656 56.058594 72.917969 56.238281 C 73.476562 56.421875 73.78125 57.027344 73.597656 57.59375 C 73.414062 58.15625 72.808594 58.460938 72.238281 58.277344 C 71.671875 58.097656 71.375 57.492188 71.558594 56.921875 Z M 64.085938 55.597656 C 64.648438 55.78125 64.949219 56.382812 64.769531 56.953125 C 64.582031 57.511719 63.976562 57.816406 63.410156 57.636719 C 62.851562 57.453125 62.546875 56.847656 62.726562 56.28125 C 62.914062 55.722656 63.519531 55.417969 64.085938 55.597656 Z M 78.367188 70.453125 C 78.550781 69.894531 79.15625 69.589844 79.726562 69.769531 C 80.292969 69.949219 80.589844 70.558594 80.40625 71.125 C 80.222656 71.683594 79.617188 71.988281 79.046875 71.808594 C 78.488281 71.625 78.183594 71.023438 78.367188 70.453125 Z M 85.480469 62.636719 C 85.667969 62.078125 86.273438 61.773438 86.839844 61.953125 C 87.410156 62.132812 87.703125 62.738281 87.523438 63.308594 C 87.335938 63.867188 86.734375 64.171875 86.164062 63.992188 C 85.605469 63.808594 85.300781 63.203125 85.480469 62.636719 Z M 91.933594 63.628906 C 92.117188 63.066406 92.722656 62.761719 93.289062 62.941406 C 93.851562 63.128906 94.15625 63.730469 93.972656 64.296875 C 93.792969 64.867188 93.183594 65.164062 92.613281 64.984375 C 92.046875 64.800781 91.75 64.195312 91.933594 63.628906 Z M 100.4375 75.453125 C 100.625 74.894531 101.230469 74.589844 101.796875 74.769531 C 102.359375 74.953125 102.660156 75.558594 102.480469 76.125 C 102.296875 76.695312 101.6875 76.988281 101.121094 76.808594 C 100.550781 76.628906 100.257812 76.023438 100.4375 75.453125 Z M 91.957031 77.175781 C 92.144531 76.613281 92.75 76.308594 93.316406 76.488281 C 93.875 76.675781 94.179688 77.277344 94 77.847656 C 93.816406 78.414062 93.207031 78.710938 92.640625 78.53125 C 92.070312 78.347656 91.777344 77.742188 91.957031 77.175781 Z M 91.957031 77.175781 " fill-opacity="1" fill-rule="nonzero"/></g></g></g></svg>