<svg xmlns="http://www.w3.org/2000/svg" xmlns:xlink="http://www.w3.org/1999/xlink" width="500" zoomAndPan="magnify" viewBox="0 0 375 374.999991" height="500" preserveAspectRatio="xMidYMid meet" version="1.0"><defs><g/><clipPath id="b359e5251c"><path d="M 37.5 37.5 L 337.5 37.5 L 337.5 97.480469 L 37.5 97.480469 Z M 37.5 37.5 " clip-rule="nonzero"/></clipPath><clipPath id="0a18b8032d"><path d="M 54.75 37.5 L 320.25 37.5 C 324.824219 37.5 329.210938 39.316406 332.449219 42.550781 C 335.683594 45.789062 337.5 50.175781 337.5 54.75 L 337.5 80.230469 C 337.5 84.808594 335.683594 89.195312 332.449219 92.429688 C 329.210938 95.664062 324.824219 97.480469 320.25 97.480469 L 54.75 97.480469 C 50.175781 97.480469 45.789062 95.664062 42.550781 92.429688 C 39.316406 89.195312 37.5 84.808594 37.5 80.230469 L 37.5 54.75 C 37.5 50.175781 39.316406 45.789062 42.550781 42.550781 C 45.789062 39.316406 50.175781 37.5 54.75 37.5 Z M 54.75 37.5 " clip-rule="nonzero"/></clipPath><clipPath id="6611d2f02c"><path d="M 59 56 L 75 56 L 75 74 L 59 74 Z M 59 56 " clip-rule="nonzero"/></clipPath><clipPath id="6b97c96726"><path d="M 45.613281 83.917969 L 57.832031 41.390625 L 90.992188 50.917969 L 78.769531 93.445312 Z M 45.613281 83.917969 " clip-rule="nonzero"/></clipPath><clipPath id="9a5d2f0a2d"><path d="M 45.613281 83.917969 L 57.832031 41.390625 L 90.992188 50.917969 L 78.769531 93.445312 Z M 45.613281 83.917969 " clip-rule="nonzero"/></clipPath><clipPath id="039df759e5"><path d="M 66 69 L 82 69 L 82 87 L 66 87 Z M 66 69 " clip-rule="nonzero"/></clipPath><clipPath id="2c2be20bd3"><path d="M 45.613281 83.917969 L 57.832031 41.390625 L 90.992188 50.917969 L 78.769531 93.445312 Z M 45.613281 83.917969 " clip-rule="nonzero"/></clipPath><clipPath id="652e6dd688"><path d="M 45.613281 83.917969 L 57.832031 41.390625 L 90.992188 50.917969 L 78.769531 93.445312 Z M 45.613281 83.917969 " clip-rule="nonzero"/></clipPath><clipPath id="7a77f22499"><path d="M 80 70 L 84 70 L 84 76 L 80 76 Z M 80 70 " clip-rule="nonzero"/></clipPath><clipPath id="ea6446113e"><path d="M 45.613281 83.917969 L 57.832031 41.390625 L 90.992188 50.917969 L 78.769531 93.445312 Z M 45.613281 83.917969 " clip-rule="nonzero"/></clipPath><clipPath id="7a4657b34b"><path d="M 45.613281 83.917969 L 57.832031 41.390625 L 90.992188 50.917969 L 78.769531 93.445312 Z M 45.613281 83.917969 " clip-rule="nonzero"/></clipPath><clipPath id="c18153ae7b"><path d="M 60 72 L 64 72 L 64 78 L 60 78 Z M 60 72 " clip-rule="nonzero"/></clipPath><clipPath id="b519d0a7ff"><path d="M 45.613281 83.917969 L 57.832031 41.390625 L 90.992188 50.917969 L 78.769531 93.445312 Z M 45.613281 83.917969 " clip-rule="nonzero"/></clipPath><clipPath id="ce5a035ba1"><path d="M 45.613281 83.917969 L 57.832031 41.390625 L 90.992188 50.917969 L 78.769531 93.445312 Z M 45.613281 83.917969 " clip-rule="nonzero"/></clipPath><clipPath id="e89fbaf695"><path d="M 73 57 L 77 57 L 77 62 L 73 62 Z M 73 57 " clip-rule="nonzero"/></clipPath><clipPath id="e992ede370"><path d="M 45.613281 83.917969 L 57.832031 41.390625 L 90.992188 50.917969 L 78.769531 93.445312 Z M 45.613281 83.917969 " clip-rule="nonzero"/></clipPath><clipPath id="8e8ad6378a"><path d="M 45.613281 83.917969 L 57.832031 41.390625 L 90.992188 50.917969 L 78.769531 93.445312 Z M 45.613281 83.917969 " clip-rule="nonzero"/></clipPath><clipPath id="3dc491538b"><path d="M 52 59 L 57 59 L 57 65 L 52 65 Z M 52 59 " clip-rule="nonzero"/></clipPath><clipPath id="0a9e9af676"><path d="M 45.613281 83.917969 L 57.832031 41.390625 L 90.992188 50.917969 L 78.769531 93.445312 Z M 45.613281 83.917969 " clip-rule="nonzero"/></clipPath><clipPath id="c901a58835"><path d="M 45.613281 83.917969 L 57.832031 41.390625 L 90.992188 50.917969 L 78.769531 93.445312 Z M 45.613281 83.917969 " clip-rule="nonzero"/></clipPath><clipPath id="5bafeeb07f"><path d="M 52 43 L 69 43 L 69 61 L 52 61 Z M 52 43 " clip-rule="nonzero"/></clipPath><clipPath id="f887e7f395"><path d="M 45.613281 83.917969 L 57.832031 41.390625 L 90.992188 50.917969 L 78.769531 93.445312 Z M 45.613281 83.917969 " clip-rule="nonzero"/></clipPath><clipPath id="1d0732ead0"><path d="M 45.613281 83.917969 L 57.832031 41.390625 L 90.992188 50.917969 L 78.769531 93.445312 Z M 45.613281 83.917969 " clip-rule="nonzero"/></clipPath><clipPath id="9176c0dd66"><path d="M 62 61 L 78 61 L 78 79 L 62 79 Z M 62 61 " clip-rule="nonzero"/></clipPath><clipPath id="cccdfe7a57"><path d="M 45.613281 83.917969 L 57.832031 41.390625 L 90.992188 50.917969 L 78.769531 93.445312 Z M 45.613281 83.917969 " clip-rule="nonzero"/></clipPath><clipPath id="e91cd8986f"><path d="M 45.613281 83.917969 L 57.832031 41.390625 L 90.992188 50.917969 L 78.769531 93.445312 Z M 45.613281 83.917969 " clip-rule="nonzero"/></clipPath><clipPath id="873f8d366b"><path d="M 67 74 L 84 74 L 84 91 L 67 91 Z M 67 74 " clip-rule="nonzero"/></clipPath><clipPath id="0fb6ebdb8a"><path d="M 45.613281 83.917969 L 57.832031 41.390625 L 90.992188 50.917969 L 78.769531 93.445312 Z M 45.613281 83.917969 " clip-rule="nonzero"/></clipPath><clipPath id="b20ecd752d"><path d="M 45.613281 83.917969 L 57.832031 41.390625 L 90.992188 50.917969 L 78.769531 93.445312 Z M 45.613281 83.917969 " clip-rule="nonzero"/></clipPath><clipPath id="94c0be199e"><path d="M 55 47 L 71 47 L 71 66 L 55 66 Z M 55 47 " clip-rule="nonzero"/></clipPath><clipPath id="6d08c24c17"><path d="M 45.613281 83.917969 L 57.832031 41.390625 L 90.992188 50.917969 L 78.769531 93.445312 Z M 45.613281 83.917969 " clip-rule="nonzero"/></clipPath><clipPath id="e3a9f0a725"><path d="M 45.613281 83.917969 L 57.832031 41.390625 L 90.992188 50.917969 L 78.769531 93.445312 Z M 45.613281 83.917969 " clip-rule="nonzero"/></clipPath></defs><g clip-path="url(#b359e5251c)"><g clip-path="url(#0a18b8032d)"><path fill="#fec743" d="M 37.5 37.5 L 337.5 37.5 L 337.5 97.480469 L 37.5 97.480469 Z M 37.5 37.5 " fill-opacity="1" fill-rule="nonzero"/></g></g><g fill="#ffffff" fill-opacity="1"><g transform="translate(113.432803, 77.991146)"><g><path d="M 10.6875 -15.578125 C 12.414062 -15.578125 13.8125 -14.90625 14.875 -13.5625 C 15.9375 -12.21875 16.46875 -10.253906 16.46875 -7.671875 C 16.46875 -5.941406 16.210938 -4.484375 15.703125 -3.296875 C 15.203125 -2.117188 14.507812 -1.226562 13.625 -0.625 C 12.75 -0.0195312 11.734375 0.28125 10.578125 0.28125 C 9.835938 0.28125 9.203125 0.1875 8.671875 0 C 8.148438 -0.1875 7.703125 -0.425781 7.328125 -0.71875 C 6.953125 -1.019531 6.628906 -1.34375 6.359375 -1.6875 L 6.140625 -1.6875 C 6.210938 -1.320312 6.265625 -0.945312 6.296875 -0.5625 C 6.335938 -0.175781 6.359375 0.195312 6.359375 0.5625 L 6.359375 6.734375 L 2.1875 6.734375 L 2.1875 -15.28125 L 5.578125 -15.28125 L 6.171875 -13.296875 L 6.359375 -13.296875 C 6.628906 -13.710938 6.957031 -14.09375 7.34375 -14.4375 C 7.738281 -14.78125 8.210938 -15.054688 8.765625 -15.265625 C 9.316406 -15.472656 9.957031 -15.578125 10.6875 -15.578125 Z M 9.359375 -12.234375 C 8.628906 -12.234375 8.046875 -12.082031 7.609375 -11.78125 C 7.179688 -11.476562 6.867188 -11.023438 6.671875 -10.421875 C 6.484375 -9.828125 6.378906 -9.070312 6.359375 -8.15625 L 6.359375 -7.703125 C 6.359375 -6.710938 6.453125 -5.875 6.640625 -5.1875 C 6.828125 -4.507812 7.140625 -3.992188 7.578125 -3.640625 C 8.023438 -3.285156 8.632812 -3.109375 9.40625 -3.109375 C 10.039062 -3.109375 10.5625 -3.285156 10.96875 -3.640625 C 11.382812 -3.992188 11.691406 -4.515625 11.890625 -5.203125 C 12.097656 -5.890625 12.203125 -6.726562 12.203125 -7.71875 C 12.203125 -9.21875 11.96875 -10.34375 11.5 -11.09375 C 11.039062 -11.851562 10.328125 -12.234375 9.359375 -12.234375 Z M 9.359375 -12.234375 "/></g></g></g><g fill="#ffffff" fill-opacity="1"><g transform="translate(131.149079, 77.991146)"><g><path d="M 10.71875 -15.578125 C 10.925781 -15.578125 11.171875 -15.5625 11.453125 -15.53125 C 11.734375 -15.507812 11.957031 -15.484375 12.125 -15.453125 L 11.8125 -11.546875 C 11.675781 -11.585938 11.484375 -11.617188 11.234375 -11.640625 C 10.984375 -11.660156 10.765625 -11.671875 10.578125 -11.671875 C 10.046875 -11.671875 9.523438 -11.601562 9.015625 -11.46875 C 8.515625 -11.332031 8.0625 -11.109375 7.65625 -10.796875 C 7.257812 -10.492188 6.941406 -10.09375 6.703125 -9.59375 C 6.472656 -9.101562 6.359375 -8.5 6.359375 -7.78125 L 6.359375 0 L 2.1875 0 L 2.1875 -15.28125 L 5.34375 -15.28125 L 5.96875 -12.71875 L 6.171875 -12.71875 C 6.472656 -13.238281 6.847656 -13.710938 7.296875 -14.140625 C 7.742188 -14.578125 8.253906 -14.925781 8.828125 -15.1875 C 9.410156 -15.445312 10.039062 -15.578125 10.71875 -15.578125 Z M 10.71875 -15.578125 "/></g></g></g><g fill="#ffffff" fill-opacity="1"><g transform="translate(143.862149, 77.991146)"><g><path d="M 16.078125 -7.671875 C 16.078125 -6.390625 15.90625 -5.253906 15.5625 -4.265625 C 15.21875 -3.285156 14.71875 -2.457031 14.0625 -1.78125 C 13.414062 -1.101562 12.632812 -0.585938 11.71875 -0.234375 C 10.800781 0.109375 9.769531 0.28125 8.625 0.28125 C 7.550781 0.28125 6.566406 0.109375 5.671875 -0.234375 C 4.773438 -0.585938 3.992188 -1.101562 3.328125 -1.78125 C 2.671875 -2.457031 2.160156 -3.285156 1.796875 -4.265625 C 1.441406 -5.253906 1.265625 -6.390625 1.265625 -7.671875 C 1.265625 -9.367188 1.5625 -10.800781 2.15625 -11.96875 C 2.757812 -13.144531 3.617188 -14.039062 4.734375 -14.65625 C 5.847656 -15.269531 7.171875 -15.578125 8.703125 -15.578125 C 10.140625 -15.578125 11.410156 -15.269531 12.515625 -14.65625 C 13.617188 -14.039062 14.488281 -13.144531 15.125 -11.96875 C 15.757812 -10.800781 16.078125 -9.367188 16.078125 -7.671875 Z M 5.515625 -7.671875 C 5.515625 -6.671875 5.625 -5.828125 5.84375 -5.140625 C 6.0625 -4.453125 6.398438 -3.9375 6.859375 -3.59375 C 7.328125 -3.25 7.9375 -3.078125 8.6875 -3.078125 C 9.425781 -3.078125 10.023438 -3.25 10.484375 -3.59375 C 10.941406 -3.9375 11.273438 -4.453125 11.484375 -5.140625 C 11.703125 -5.828125 11.8125 -6.671875 11.8125 -7.671875 C 11.8125 -8.679688 11.703125 -9.519531 11.484375 -10.1875 C 11.273438 -10.863281 10.9375 -11.367188 10.46875 -11.703125 C 10.007812 -12.035156 9.40625 -12.203125 8.65625 -12.203125 C 7.550781 -12.203125 6.75 -11.820312 6.25 -11.0625 C 5.757812 -10.3125 5.515625 -9.179688 5.515625 -7.671875 Z M 5.515625 -7.671875 "/></g></g></g><g fill="#ffffff" fill-opacity="1"><g transform="translate(161.195667, 77.991146)"><g><path d="M 8.625 -3.046875 C 9.082031 -3.046875 9.523438 -3.09375 9.953125 -3.1875 C 10.390625 -3.28125 10.820312 -3.394531 11.25 -3.53125 L 11.25 -0.421875 C 10.800781 -0.222656 10.242188 -0.0546875 9.578125 0.078125 C 8.921875 0.210938 8.203125 0.28125 7.421875 0.28125 C 6.515625 0.28125 5.695312 0.132812 4.96875 -0.15625 C 4.25 -0.457031 3.679688 -0.972656 3.265625 -1.703125 C 2.847656 -2.441406 2.640625 -3.46875 2.640625 -4.78125 L 2.640625 -12.15625 L 0.640625 -12.15625 L 0.640625 -13.921875 L 2.9375 -15.3125 L 4.140625 -18.546875 L 6.8125 -18.546875 L 6.8125 -15.28125 L 11.09375 -15.28125 L 11.09375 -12.15625 L 6.8125 -12.15625 L 6.8125 -4.78125 C 6.8125 -4.195312 6.976562 -3.757812 7.3125 -3.46875 C 7.644531 -3.1875 8.082031 -3.046875 8.625 -3.046875 Z M 8.625 -3.046875 "/></g></g></g><g fill="#ffffff" fill-opacity="1"><g transform="translate(173.348273, 77.991146)"><g><path d="M 8.484375 -15.578125 C 9.898438 -15.578125 11.117188 -15.304688 12.140625 -14.765625 C 13.160156 -14.222656 13.945312 -13.4375 14.5 -12.40625 C 15.0625 -11.375 15.34375 -10.113281 15.34375 -8.625 L 15.34375 -6.609375 L 5.484375 -6.609375 C 5.523438 -5.429688 5.875 -4.503906 6.53125 -3.828125 C 7.195312 -3.160156 8.117188 -2.828125 9.296875 -2.828125 C 10.273438 -2.828125 11.164062 -2.925781 11.96875 -3.125 C 12.78125 -3.332031 13.617188 -3.632812 14.484375 -4.03125 L 14.484375 -0.8125 C 13.722656 -0.4375 12.929688 -0.160156 12.109375 0.015625 C 11.285156 0.191406 10.285156 0.28125 9.109375 0.28125 C 7.578125 0.28125 6.21875 0 5.03125 -0.5625 C 3.851562 -1.132812 2.929688 -2 2.265625 -3.15625 C 1.597656 -4.3125 1.265625 -5.769531 1.265625 -7.53125 C 1.265625 -9.320312 1.566406 -10.8125 2.171875 -12 C 2.773438 -13.1875 3.617188 -14.078125 4.703125 -14.671875 C 5.785156 -15.273438 7.046875 -15.578125 8.484375 -15.578125 Z M 8.515625 -12.609375 C 7.703125 -12.609375 7.03125 -12.347656 6.5 -11.828125 C 5.96875 -11.304688 5.660156 -10.488281 5.578125 -9.375 L 11.4375 -9.375 C 11.425781 -10 11.3125 -10.550781 11.09375 -11.03125 C 10.882812 -11.519531 10.566406 -11.90625 10.140625 -12.1875 C 9.710938 -12.46875 9.171875 -12.609375 8.515625 -12.609375 Z M 8.515625 -12.609375 "/></g></g></g><g fill="#ffffff" fill-opacity="1"><g transform="translate(189.888932, 77.991146)"><g><path d="M 6.359375 -15.28125 L 6.359375 0 L 2.1875 0 L 2.1875 -15.28125 Z M 4.28125 -21.28125 C 4.894531 -21.28125 5.425781 -21.132812 5.875 -20.84375 C 6.320312 -20.550781 6.546875 -20.015625 6.546875 -19.234375 C 6.546875 -18.460938 6.320312 -17.925781 5.875 -17.625 C 5.425781 -17.332031 4.894531 -17.1875 4.28125 -17.1875 C 3.65625 -17.1875 3.117188 -17.332031 2.671875 -17.625 C 2.234375 -17.925781 2.015625 -18.460938 2.015625 -19.234375 C 2.015625 -20.015625 2.234375 -20.550781 2.671875 -20.84375 C 3.117188 -21.132812 3.65625 -21.28125 4.28125 -21.28125 Z M 4.28125 -21.28125 "/></g></g></g><g fill="#ffffff" fill-opacity="1"><g transform="translate(198.432667, 77.991146)"><g><path d="M 10.875 -15.578125 C 12.5 -15.578125 13.804688 -15.128906 14.796875 -14.234375 C 15.796875 -13.347656 16.296875 -11.925781 16.296875 -9.96875 L 16.296875 0 L 12.125 0 L 12.125 -8.921875 C 12.125 -10.015625 11.925781 -10.835938 11.53125 -11.390625 C 11.132812 -11.953125 10.515625 -12.234375 9.671875 -12.234375 C 8.390625 -12.234375 7.515625 -11.800781 7.046875 -10.9375 C 6.585938 -10.070312 6.359375 -8.820312 6.359375 -7.1875 L 6.359375 0 L 2.1875 0 L 2.1875 -15.28125 L 5.375 -15.28125 L 5.9375 -13.328125 L 6.171875 -13.328125 C 6.492188 -13.859375 6.898438 -14.285156 7.390625 -14.609375 C 7.878906 -14.941406 8.421875 -15.1875 9.015625 -15.34375 C 9.609375 -15.5 10.226562 -15.578125 10.875 -15.578125 Z M 10.875 -15.578125 "/></g></g></g><g clip-path="url(#6611d2f02c)"><g clip-path="url(#6b97c96726)"><g clip-path="url(#9a5d2f0a2d)"><path fill="#ffffff" d="M 74.015625 58.972656 C 73.851562 59.546875 73.539062 60.179688 73.089844 60.835938 C 72.257812 62.054688 70.585938 63.882812 67.355469 65.664062 C 63.425781 67.832031 61.539062 70.289062 61.085938 71.867188 C 61.085938 71.867188 61.085938 71.867188 61.082031 71.867188 C 60.945312 72.34375 60.941406 72.75 61.070312 72.984375 C 61.179688 73.179688 61.109375 73.421875 60.914062 73.53125 C 60.722656 73.640625 60.476562 73.566406 60.371094 73.375 C 60.132812 72.945312 60.113281 72.351562 60.3125 71.648438 C 60.3125 71.644531 60.3125 71.644531 60.3125 71.644531 C 60.554688 70.804688 61.75 67.835938 66.972656 64.964844 C 70.0625 63.257812 71.648438 61.53125 72.429688 60.386719 C 73.328125 59.074219 73.488281 58.0625 73.253906 57.640625 C 72.789062 56.800781 69.25 55.984375 63.679688 59.054688 C 62.273438 59.828125 60.886719 60.421875 59.554688 60.808594 C 59.339844 60.867188 59.117188 60.746094 59.058594 60.53125 C 59 60.320312 59.117188 60.097656 59.332031 60.035156 C 60.605469 59.664062 61.9375 59.097656 63.292969 58.351562 C 68.921875 55.25 73.101562 55.71875 73.953125 57.25 C 74.199219 57.6875 74.214844 58.285156 74.015625 58.972656 " fill-opacity="1" fill-rule="nonzero"/></g></g></g><g clip-path="url(#039df759e5)"><g clip-path="url(#2c2be20bd3)"><g clip-path="url(#652e6dd688)"><path fill="#ffffff" d="M 81.371094 72.191406 C 81.207031 72.765625 80.894531 73.398438 80.441406 74.054688 C 79.609375 75.277344 77.941406 77.105469 74.710938 78.882812 C 70.777344 81.050781 68.890625 83.507812 68.4375 85.085938 C 68.4375 85.085938 68.4375 85.085938 68.4375 85.089844 C 68.300781 85.566406 68.292969 85.972656 68.421875 86.203125 C 68.53125 86.398438 68.460938 86.644531 68.269531 86.75 C 68.074219 86.859375 67.832031 86.789062 67.722656 86.59375 C 67.484375 86.167969 67.464844 85.566406 67.667969 84.867188 C 67.667969 84.863281 67.667969 84.863281 67.667969 84.863281 C 67.910156 84.023438 69.101562 81.054688 74.324219 78.179688 C 77.417969 76.476562 78.996094 74.75 79.78125 73.601562 C 80.679688 72.292969 80.84375 71.28125 80.605469 70.863281 C 80.136719 70.019531 76.605469 69.203125 71.035156 72.273438 C 69.511719 73.113281 68.015625 73.734375 66.59375 74.113281 C 66.378906 74.171875 66.160156 74.046875 66.105469 73.828125 C 66.042969 73.617188 66.171875 73.394531 66.382812 73.339844 C 67.746094 72.972656 69.179688 72.378906 70.648438 71.570312 C 76.203125 68.507812 80.476562 68.972656 81.308594 70.46875 C 81.550781 70.90625 81.566406 71.507812 81.371094 72.191406 " fill-opacity="1" fill-rule="nonzero"/></g></g></g><g clip-path="url(#7a77f22499)"><g clip-path="url(#ea6446113e)"><g clip-path="url(#7a4657b34b)"><path fill="#ffffff" d="M 83.640625 74.90625 C 83.613281 75.007812 83.546875 75.089844 83.453125 75.144531 C 83.257812 75.253906 83.011719 75.1875 82.90625 74.992188 L 80.605469 70.863281 C 80.5 70.667969 80.570312 70.421875 80.761719 70.3125 C 80.957031 70.207031 81.199219 70.277344 81.308594 70.46875 L 83.605469 74.597656 C 83.660156 74.695312 83.667969 74.808594 83.640625 74.90625 " fill-opacity="1" fill-rule="nonzero"/></g></g></g><g clip-path="url(#c18153ae7b)"><g clip-path="url(#b519d0a7ff)"><g clip-path="url(#ce5a035ba1)"><path fill="#ffffff" d="M 63.40625 77.421875 C 63.375 77.519531 63.3125 77.609375 63.214844 77.660156 C 63.019531 77.773438 62.777344 77.703125 62.671875 77.507812 L 60.371094 73.375 C 60.261719 73.183594 60.332031 72.9375 60.527344 72.832031 C 60.722656 72.71875 60.964844 72.789062 61.070312 72.984375 L 63.371094 77.113281 C 63.421875 77.214844 63.433594 77.320312 63.40625 77.421875 " fill-opacity="1" fill-rule="nonzero"/></g></g></g><g clip-path="url(#e89fbaf695)"><g clip-path="url(#e992ede370)"><g clip-path="url(#8e8ad6378a)"><path fill="#ffffff" d="M 76.289062 61.6875 C 76.257812 61.785156 76.195312 61.875 76.097656 61.925781 C 75.902344 62.035156 75.660156 61.964844 75.554688 61.773438 L 73.253906 57.640625 C 73.148438 57.449219 73.21875 57.203125 73.410156 57.097656 C 73.605469 56.984375 73.847656 57.054688 73.953125 57.25 L 76.253906 61.382812 C 76.308594 61.480469 76.316406 61.585938 76.289062 61.6875 " fill-opacity="1" fill-rule="nonzero"/></g></g></g><g clip-path="url(#3dc491538b)"><g clip-path="url(#0a9e9af676)"><g clip-path="url(#c901a58835)"><path fill="#ffffff" d="M 56.050781 64.203125 C 56.023438 64.300781 55.957031 64.386719 55.859375 64.445312 C 55.667969 64.550781 55.421875 64.480469 55.316406 64.289062 L 53.019531 60.15625 C 52.914062 59.964844 52.980469 59.71875 53.171875 59.609375 C 53.367188 59.503906 53.609375 59.570312 53.71875 59.765625 L 56.019531 63.894531 C 56.070312 63.992188 56.078125 64.101562 56.050781 64.203125 " fill-opacity="1" fill-rule="nonzero"/></g></g></g><g clip-path="url(#5bafeeb07f)"><g clip-path="url(#f887e7f395)"><g clip-path="url(#1d0732ead0)"><path fill="#ffffff" d="M 68.9375 48.46875 C 68.910156 48.566406 68.839844 48.652344 68.746094 48.710938 C 68.554688 48.816406 68.308594 48.746094 68.203125 48.554688 L 66.65625 45.773438 C 66.40625 46.636719 65.195312 49.585938 60.003906 52.445312 C 56.070312 54.609375 54.1875 57.070312 53.734375 58.648438 C 53.597656 59.125 53.589844 59.53125 53.71875 59.765625 C 53.828125 59.960938 53.757812 60.203125 53.566406 60.3125 C 53.371094 60.417969 53.125 60.351562 53.019531 60.15625 C 52.78125 59.726562 52.761719 59.128906 52.960938 58.429688 C 53.203125 57.585938 54.398438 54.617188 59.617188 51.742188 C 63.550781 49.578125 65.4375 47.117188 65.890625 45.539062 C 66.027344 45.0625 66.03125 44.652344 65.90625 44.421875 C 65.796875 44.230469 65.863281 43.984375 66.058594 43.875 C 66.253906 43.769531 66.496094 43.835938 66.605469 44.03125 L 68.902344 48.160156 C 68.953125 48.257812 68.964844 48.367188 68.9375 48.46875 " fill-opacity="1" fill-rule="nonzero"/></g></g></g><g clip-path="url(#9176c0dd66)"><g clip-path="url(#cccdfe7a57)"><g clip-path="url(#e91cd8986f)"><path fill="#ffffff" d="M 77.402344 74.496094 C 77.367188 74.621094 77.269531 74.726562 77.132812 74.769531 C 75.910156 75.136719 74.632812 75.6875 73.332031 76.40625 C 67.777344 79.46875 63.5 79 62.671875 77.507812 C 62.222656 76.703125 62.542969 75.363281 63.535156 73.921875 C 64.367188 72.699219 66.035156 70.871094 69.269531 69.09375 C 73.199219 66.925781 75.085938 64.46875 75.539062 62.890625 C 75.539062 62.886719 75.539062 62.886719 75.539062 62.886719 C 75.675781 62.410156 75.679688 62.003906 75.554688 61.773438 C 75.445312 61.578125 75.515625 61.335938 75.710938 61.226562 C 75.902344 61.117188 76.148438 61.1875 76.253906 61.382812 C 76.492188 61.808594 76.511719 62.40625 76.308594 63.109375 C 76.308594 63.109375 76.308594 63.109375 76.308594 63.113281 C 76.066406 63.949219 74.871094 66.917969 69.652344 69.792969 C 66.5625 71.5 64.976562 73.226562 64.195312 74.371094 C 63.300781 75.679688 63.136719 76.695312 63.371094 77.113281 C 63.835938 77.957031 67.371094 78.773438 72.945312 75.699219 C 74.292969 74.957031 75.628906 74.386719 76.90625 74 C 77.113281 73.933594 77.335938 74.054688 77.402344 74.269531 C 77.421875 74.34375 77.425781 74.421875 77.402344 74.496094 " fill-opacity="1" fill-rule="nonzero"/></g></g></g><g clip-path="url(#873f8d366b)"><g clip-path="url(#0fb6ebdb8a)"><g clip-path="url(#b20ecd752d)"><path fill="#ffffff" d="M 83.660156 76.328125 C 83.421875 77.171875 82.226562 80.140625 77.007812 83.015625 C 73.074219 85.179688 71.1875 87.640625 70.734375 89.21875 C 70.597656 89.699219 70.59375 90.105469 70.722656 90.335938 C 70.828125 90.527344 70.757812 90.773438 70.566406 90.878906 C 70.371094 90.988281 70.128906 90.921875 70.019531 90.726562 L 67.722656 86.59375 C 67.617188 86.402344 67.683594 86.15625 67.878906 86.046875 C 68.070312 85.941406 68.316406 86.011719 68.421875 86.203125 L 69.96875 88.980469 C 70.222656 88.121094 71.429688 85.171875 76.621094 82.3125 C 80.554688 80.144531 82.4375 77.6875 82.890625 76.109375 C 83.027344 75.632812 83.035156 75.222656 82.90625 74.992188 C 82.800781 74.796875 82.867188 74.554688 83.058594 74.445312 C 83.253906 74.339844 83.5 74.40625 83.605469 74.597656 C 83.84375 75.03125 83.863281 75.625 83.660156 76.328125 " fill-opacity="1" fill-rule="nonzero"/></g></g></g><g clip-path="url(#94c0be199e)"><g clip-path="url(#6d08c24c17)"><g clip-path="url(#e3a9f0a725)"><path fill="#ffffff" d="M 70.519531 61.140625 C 70.480469 61.269531 70.378906 61.382812 70.234375 61.417969 C 68.871094 61.785156 67.441406 62.382812 65.976562 63.1875 C 60.347656 66.289062 56.167969 65.820312 55.316406 64.289062 C 54.871094 63.484375 55.195312 62.144531 56.183594 60.703125 C 57.011719 59.480469 58.683594 57.652344 61.914062 55.871094 C 65.847656 53.707031 67.734375 51.25 68.1875 49.671875 C 68.1875 49.671875 68.1875 49.667969 68.1875 49.667969 C 68.324219 49.191406 68.332031 48.785156 68.203125 48.554688 C 68.09375 48.359375 68.164062 48.113281 68.355469 48.007812 C 68.550781 47.898438 68.792969 47.96875 68.902344 48.160156 C 69.140625 48.589844 69.160156 49.191406 68.957031 49.890625 C 68.714844 50.734375 67.519531 53.699219 62.300781 56.578125 C 59.207031 58.28125 57.628906 60.007812 56.84375 61.15625 C 55.945312 62.460938 55.78125 63.472656 56.019531 63.898438 C 56.488281 64.738281 60.019531 65.550781 65.59375 62.484375 C 67.109375 61.648438 68.601562 61.027344 70.03125 60.640625 C 70.246094 60.585938 70.464844 60.710938 70.519531 60.925781 C 70.539062 61 70.539062 61.070312 70.519531 61.140625 " fill-opacity="1" fill-rule="nonzero"/></g></g></g></svg>