<svg xmlns="http://www.w3.org/2000/svg" xmlns:xlink="http://www.w3.org/1999/xlink" width="500" zoomAndPan="magnify" viewBox="0 0 375 374.999991" height="500" preserveAspectRatio="xMidYMid meet" version="1.0"><defs><g/><clipPath id="32b08cb8f8"><path d="M 37.5 37.5 L 337.5 37.5 L 337.5 97.480469 L 37.5 97.480469 Z M 37.5 37.5 " clip-rule="nonzero"/></clipPath><clipPath id="b98852ecb9"><path d="M 54.75 37.5 L 320.25 37.5 C 324.824219 37.5 329.210938 39.316406 332.449219 42.550781 C 335.683594 45.789062 337.5 50.175781 337.5 54.75 L 337.5 80.230469 C 337.5 84.808594 335.683594 89.195312 332.449219 92.429688 C 329.210938 95.664062 324.824219 97.480469 320.25 97.480469 L 54.75 97.480469 C 50.175781 97.480469 45.789062 95.664062 42.550781 92.429688 C 39.316406 89.195312 37.5 84.808594 37.5 80.230469 L 37.5 54.75 C 37.5 50.175781 39.316406 45.789062 42.550781 42.550781 C 45.789062 39.316406 50.175781 37.5 54.75 37.5 Z M 54.75 37.5 " clip-rule="nonzero"/></clipPath><clipPath id="cd0d232429"><path d="M 54.066406 46.683594 L 95.316406 46.683594 L 95.316406 87.933594 L 54.066406 87.933594 Z M 54.066406 46.683594 " clip-rule="nonzero"/></clipPath></defs><g clip-path="url(#32b08cb8f8)"><g clip-path="url(#b98852ecb9)"><path fill="#58a39d" d="M 37.5 37.5 L 337.5 37.5 L 337.5 97.480469 L 37.5 97.480469 Z M 37.5 37.5 " fill-opacity="1" fill-rule="nonzero"/></g></g><g fill="#ffffff" fill-opacity="1"><g transform="translate(113.432803, 77.991144)"><g><path d="M 20.140625 -15.578125 C 21.867188 -15.578125 23.175781 -15.128906 24.0625 -14.234375 C 24.957031 -13.347656 25.40625 -11.925781 25.40625 -9.96875 L 25.40625 0 L 21.21875 0 L 21.21875 -8.921875 C 21.21875 -10.015625 21.03125 -10.835938 20.65625 -11.390625 C 20.28125 -11.953125 19.703125 -12.234375 18.921875 -12.234375 C 17.816406 -12.234375 17.03125 -11.835938 16.5625 -11.046875 C 16.101562 -10.265625 15.875 -9.140625 15.875 -7.671875 L 15.875 0 L 11.703125 0 L 11.703125 -8.921875 C 11.703125 -9.648438 11.617188 -10.257812 11.453125 -10.75 C 11.296875 -11.25 11.046875 -11.617188 10.703125 -11.859375 C 10.367188 -12.109375 9.9375 -12.234375 9.40625 -12.234375 C 8.632812 -12.234375 8.023438 -12.039062 7.578125 -11.65625 C 7.140625 -11.269531 6.828125 -10.695312 6.640625 -9.9375 C 6.453125 -9.1875 6.359375 -8.269531 6.359375 -7.1875 L 6.359375 0 L 2.1875 0 L 2.1875 -15.28125 L 5.375 -15.28125 L 5.9375 -13.328125 L 6.171875 -13.328125 C 6.472656 -13.859375 6.859375 -14.285156 7.328125 -14.609375 C 7.804688 -14.941406 8.328125 -15.1875 8.890625 -15.34375 C 9.453125 -15.5 10.023438 -15.578125 10.609375 -15.578125 C 11.734375 -15.578125 12.679688 -15.394531 13.453125 -15.03125 C 14.234375 -14.664062 14.835938 -14.097656 15.265625 -13.328125 L 15.625 -13.328125 C 16.082031 -14.109375 16.726562 -14.675781 17.5625 -15.03125 C 18.394531 -15.394531 19.253906 -15.578125 20.140625 -15.578125 Z M 20.140625 -15.578125 "/></g></g></g><g fill="#ffffff" fill-opacity="1"><g transform="translate(140.923112, 77.991144)"><g><path d="M 6.359375 -15.28125 L 6.359375 0 L 2.1875 0 L 2.1875 -15.28125 Z M 4.28125 -21.28125 C 4.894531 -21.28125 5.425781 -21.132812 5.875 -20.84375 C 6.320312 -20.550781 6.546875 -20.015625 6.546875 -19.234375 C 6.546875 -18.460938 6.320312 -17.925781 5.875 -17.625 C 5.425781 -17.332031 4.894531 -17.1875 4.28125 -17.1875 C 3.65625 -17.1875 3.117188 -17.332031 2.671875 -17.625 C 2.234375 -17.925781 2.015625 -18.460938 2.015625 -19.234375 C 2.015625 -20.015625 2.234375 -20.550781 2.671875 -20.84375 C 3.117188 -21.132812 3.65625 -21.28125 4.28125 -21.28125 Z M 4.28125 -21.28125 "/></g></g></g><g fill="#ffffff" fill-opacity="1"><g transform="translate(149.466847, 77.991144)"><g><path d="M 8.390625 0.28125 C 6.878906 0.28125 5.585938 0.00390625 4.515625 -0.546875 C 3.453125 -1.097656 2.644531 -1.953125 2.09375 -3.109375 C 1.539062 -4.273438 1.265625 -5.757812 1.265625 -7.5625 C 1.265625 -9.425781 1.578125 -10.945312 2.203125 -12.125 C 2.835938 -13.3125 3.71875 -14.179688 4.84375 -14.734375 C 5.96875 -15.296875 7.273438 -15.578125 8.765625 -15.578125 C 9.816406 -15.578125 10.726562 -15.472656 11.5 -15.265625 C 12.269531 -15.054688 12.941406 -14.8125 13.515625 -14.53125 L 12.296875 -11.3125 C 11.640625 -11.570312 11.023438 -11.785156 10.453125 -11.953125 C 9.890625 -12.117188 9.328125 -12.203125 8.765625 -12.203125 C 8.035156 -12.203125 7.425781 -12.03125 6.9375 -11.6875 C 6.457031 -11.351562 6.097656 -10.84375 5.859375 -10.15625 C 5.628906 -9.476562 5.515625 -8.625 5.515625 -7.59375 C 5.515625 -6.582031 5.640625 -5.742188 5.890625 -5.078125 C 6.148438 -4.410156 6.519531 -3.914062 7 -3.59375 C 7.476562 -3.269531 8.066406 -3.109375 8.765625 -3.109375 C 9.628906 -3.109375 10.398438 -3.222656 11.078125 -3.453125 C 11.753906 -3.679688 12.410156 -4.007812 13.046875 -4.4375 L 13.046875 -0.859375 C 12.410156 -0.460938 11.742188 -0.175781 11.046875 0 C 10.347656 0.1875 9.460938 0.28125 8.390625 0.28125 Z M 8.390625 0.28125 "/></g></g></g><g fill="#ffffff" fill-opacity="1"><g transform="translate(163.861327, 77.991144)"><g><path d="M 10.71875 -15.578125 C 10.925781 -15.578125 11.171875 -15.5625 11.453125 -15.53125 C 11.734375 -15.507812 11.957031 -15.484375 12.125 -15.453125 L 11.8125 -11.546875 C 11.675781 -11.585938 11.484375 -11.617188 11.234375 -11.640625 C 10.984375 -11.660156 10.765625 -11.671875 10.578125 -11.671875 C 10.046875 -11.671875 9.523438 -11.601562 9.015625 -11.46875 C 8.515625 -11.332031 8.0625 -11.109375 7.65625 -10.796875 C 7.257812 -10.492188 6.941406 -10.09375 6.703125 -9.59375 C 6.472656 -9.101562 6.359375 -8.5 6.359375 -7.78125 L 6.359375 0 L 2.1875 0 L 2.1875 -15.28125 L 5.34375 -15.28125 L 5.96875 -12.71875 L 6.171875 -12.71875 C 6.472656 -13.238281 6.847656 -13.710938 7.296875 -14.140625 C 7.742188 -14.578125 8.253906 -14.925781 8.828125 -15.1875 C 9.410156 -15.445312 10.039062 -15.578125 10.71875 -15.578125 Z M 10.71875 -15.578125 "/></g></g></g><g fill="#ffffff" fill-opacity="1"><g transform="translate(176.574396, 77.991144)"><g><path d="M 16.078125 -7.671875 C 16.078125 -6.390625 15.90625 -5.253906 15.5625 -4.265625 C 15.21875 -3.285156 14.71875 -2.457031 14.0625 -1.78125 C 13.414062 -1.101562 12.632812 -0.585938 11.71875 -0.234375 C 10.800781 0.109375 9.769531 0.28125 8.625 0.28125 C 7.550781 0.28125 6.566406 0.109375 5.671875 -0.234375 C 4.773438 -0.585938 3.992188 -1.101562 3.328125 -1.78125 C 2.671875 -2.457031 2.160156 -3.285156 1.796875 -4.265625 C 1.441406 -5.253906 1.265625 -6.390625 1.265625 -7.671875 C 1.265625 -9.367188 1.5625 -10.800781 2.15625 -11.96875 C 2.757812 -13.144531 3.617188 -14.039062 4.734375 -14.65625 C 5.847656 -15.269531 7.171875 -15.578125 8.703125 -15.578125 C 10.140625 -15.578125 11.410156 -15.269531 12.515625 -14.65625 C 13.617188 -14.039062 14.488281 -13.144531 15.125 -11.96875 C 15.757812 -10.800781 16.078125 -9.367188 16.078125 -7.671875 Z M 5.515625 -7.671875 C 5.515625 -6.671875 5.625 -5.828125 5.84375 -5.140625 C 6.0625 -4.453125 6.398438 -3.9375 6.859375 -3.59375 C 7.328125 -3.25 7.9375 -3.078125 8.6875 -3.078125 C 9.425781 -3.078125 10.023438 -3.25 10.484375 -3.59375 C 10.941406 -3.9375 11.273438 -4.453125 11.484375 -5.140625 C 11.703125 -5.828125 11.8125 -6.671875 11.8125 -7.671875 C 11.8125 -8.679688 11.703125 -9.519531 11.484375 -10.1875 C 11.273438 -10.863281 10.9375 -11.367188 10.46875 -11.703125 C 10.007812 -12.035156 9.40625 -12.203125 8.65625 -12.203125 C 7.550781 -12.203125 6.75 -11.820312 6.25 -11.0625 C 5.757812 -10.3125 5.515625 -9.179688 5.515625 -7.671875 Z M 5.515625 -7.671875 "/></g></g></g><g fill="#ffffff" fill-opacity="1"><g transform="translate(193.907915, 77.991144)"><g><path d="M 12.859375 -4.546875 C 12.859375 -3.503906 12.613281 -2.625 12.125 -1.90625 C 11.632812 -1.1875 10.90625 -0.640625 9.9375 -0.265625 C 8.96875 0.0976562 7.765625 0.28125 6.328125 0.28125 C 5.265625 0.28125 4.351562 0.207031 3.59375 0.0625 C 2.832031 -0.0703125 2.0625 -0.296875 1.28125 -0.609375 L 1.28125 -4.0625 C 2.113281 -3.6875 3.003906 -3.378906 3.953125 -3.140625 C 4.910156 -2.898438 5.75 -2.78125 6.46875 -2.78125 C 7.28125 -2.78125 7.859375 -2.898438 8.203125 -3.140625 C 8.554688 -3.378906 8.734375 -3.695312 8.734375 -4.09375 C 8.734375 -4.34375 8.660156 -4.570312 8.515625 -4.78125 C 8.378906 -4.988281 8.078125 -5.21875 7.609375 -5.46875 C 7.148438 -5.726562 6.421875 -6.070312 5.421875 -6.5 C 4.472656 -6.894531 3.6875 -7.296875 3.0625 -7.703125 C 2.445312 -8.117188 1.992188 -8.609375 1.703125 -9.171875 C 1.410156 -9.734375 1.265625 -10.445312 1.265625 -11.3125 C 1.265625 -12.71875 1.8125 -13.78125 2.90625 -14.5 C 4 -15.21875 5.46875 -15.578125 7.3125 -15.578125 C 8.257812 -15.578125 9.164062 -15.476562 10.03125 -15.28125 C 10.894531 -15.09375 11.78125 -14.789062 12.6875 -14.375 L 11.4375 -11.359375 C 10.675781 -11.691406 9.957031 -11.960938 9.28125 -12.171875 C 8.613281 -12.378906 7.9375 -12.484375 7.25 -12.484375 C 6.632812 -12.484375 6.171875 -12.398438 5.859375 -12.234375 C 5.554688 -12.066406 5.40625 -11.816406 5.40625 -11.484375 C 5.40625 -11.234375 5.484375 -11.015625 5.640625 -10.828125 C 5.796875 -10.640625 6.101562 -10.425781 6.5625 -10.1875 C 7.03125 -9.957031 7.707031 -9.660156 8.59375 -9.296875 C 9.46875 -8.941406 10.222656 -8.570312 10.859375 -8.1875 C 11.492188 -7.800781 11.984375 -7.320312 12.328125 -6.75 C 12.679688 -6.175781 12.859375 -5.441406 12.859375 -4.546875 Z M 12.859375 -4.546875 "/></g></g></g><g fill="#ffffff" fill-opacity="1"><g transform="translate(207.823941, 77.991144)"><g><path d="M 8.453125 -15.59375 C 10.503906 -15.59375 12.078125 -15.144531 13.171875 -14.25 C 14.265625 -13.363281 14.8125 -12.007812 14.8125 -10.1875 L 14.8125 0 L 11.890625 0 L 11.09375 -2.078125 L 10.984375 -2.078125 C 10.546875 -1.535156 10.097656 -1.085938 9.640625 -0.734375 C 9.179688 -0.390625 8.65625 -0.132812 8.0625 0.03125 C 7.46875 0.195312 6.75 0.28125 5.90625 0.28125 C 5 0.28125 4.1875 0.109375 3.46875 -0.234375 C 2.757812 -0.585938 2.195312 -1.117188 1.78125 -1.828125 C 1.375 -2.546875 1.171875 -3.457031 1.171875 -4.5625 C 1.171875 -6.1875 1.738281 -7.382812 2.875 -8.15625 C 4.019531 -8.925781 5.734375 -9.351562 8.015625 -9.4375 L 10.671875 -9.515625 L 10.671875 -10.1875 C 10.671875 -10.988281 10.457031 -11.578125 10.03125 -11.953125 C 9.613281 -12.328125 9.03125 -12.515625 8.28125 -12.515625 C 7.539062 -12.515625 6.816406 -12.40625 6.109375 -12.1875 C 5.398438 -11.976562 4.691406 -11.71875 3.984375 -11.40625 L 2.59375 -14.21875 C 3.40625 -14.644531 4.316406 -14.976562 5.328125 -15.21875 C 6.335938 -15.46875 7.378906 -15.59375 8.453125 -15.59375 Z M 10.671875 -7.078125 L 9.046875 -7.03125 C 7.703125 -6.988281 6.765625 -6.742188 6.234375 -6.296875 C 5.710938 -5.859375 5.453125 -5.273438 5.453125 -4.546875 C 5.453125 -3.898438 5.640625 -3.441406 6.015625 -3.171875 C 6.390625 -2.910156 6.878906 -2.78125 7.484375 -2.78125 C 8.367188 -2.78125 9.117188 -3.039062 9.734375 -3.5625 C 10.359375 -4.09375 10.671875 -4.847656 10.671875 -5.828125 Z M 10.671875 -7.078125 "/></g></g></g><g fill="#ffffff" fill-opacity="1"><g transform="translate(224.733696, 77.991144)"><g><path d="M 8.625 -3.046875 C 9.082031 -3.046875 9.523438 -3.09375 9.953125 -3.1875 C 10.390625 -3.28125 10.820312 -3.394531 11.25 -3.53125 L 11.25 -0.421875 C 10.800781 -0.222656 10.242188 -0.0546875 9.578125 0.078125 C 8.921875 0.210938 8.203125 0.28125 7.421875 0.28125 C 6.515625 0.28125 5.695312 0.132812 4.96875 -0.15625 C 4.25 -0.457031 3.679688 -0.972656 3.265625 -1.703125 C 2.847656 -2.441406 2.640625 -3.46875 2.640625 -4.78125 L 2.640625 -12.15625 L 0.640625 -12.15625 L 0.640625 -13.921875 L 2.9375 -15.3125 L 4.140625 -18.546875 L 6.8125 -18.546875 L 6.8125 -15.28125 L 11.09375 -15.28125 L 11.09375 -12.15625 L 6.8125 -12.15625 L 6.8125 -4.78125 C 6.8125 -4.195312 6.976562 -3.757812 7.3125 -3.46875 C 7.644531 -3.1875 8.082031 -3.046875 8.625 -3.046875 Z M 8.625 -3.046875 "/></g></g></g><g fill="#ffffff" fill-opacity="1"><g transform="translate(236.886302, 77.991144)"><g><path d="M 8.484375 -15.578125 C 9.898438 -15.578125 11.117188 -15.304688 12.140625 -14.765625 C 13.160156 -14.222656 13.945312 -13.4375 14.5 -12.40625 C 15.0625 -11.375 15.34375 -10.113281 15.34375 -8.625 L 15.34375 -6.609375 L 5.484375 -6.609375 C 5.523438 -5.429688 5.875 -4.503906 6.53125 -3.828125 C 7.195312 -3.160156 8.117188 -2.828125 9.296875 -2.828125 C 10.273438 -2.828125 11.164062 -2.925781 11.96875 -3.125 C 12.78125 -3.332031 13.617188 -3.632812 14.484375 -4.03125 L 14.484375 -0.8125 C 13.722656 -0.4375 12.929688 -0.160156 12.109375 0.015625 C 11.285156 0.191406 10.285156 0.28125 9.109375 0.28125 C 7.578125 0.28125 6.21875 0 5.03125 -0.5625 C 3.851562 -1.132812 2.929688 -2 2.265625 -3.15625 C 1.597656 -4.3125 1.265625 -5.769531 1.265625 -7.53125 C 1.265625 -9.320312 1.566406 -10.8125 2.171875 -12 C 2.773438 -13.1875 3.617188 -14.078125 4.703125 -14.671875 C 5.785156 -15.273438 7.046875 -15.578125 8.484375 -15.578125 Z M 8.515625 -12.609375 C 7.703125 -12.609375 7.03125 -12.347656 6.5 -11.828125 C 5.96875 -11.304688 5.660156 -10.488281 5.578125 -9.375 L 11.4375 -9.375 C 11.425781 -10 11.3125 -10.550781 11.09375 -11.03125 C 10.882812 -11.519531 10.566406 -11.90625 10.140625 -12.1875 C 9.710938 -12.46875 9.171875 -12.609375 8.515625 -12.609375 Z M 8.515625 -12.609375 "/></g></g></g><g fill="#ffffff" fill-opacity="1"><g transform="translate(253.426961, 77.991144)"><g><path d="M 6.359375 0 L 2.1875 0 L 2.1875 -21.28125 L 6.359375 -21.28125 Z M 6.359375 0 "/></g></g></g><g fill="#ffffff" fill-opacity="1"><g transform="translate(261.970696, 77.991144)"><g><path d="M 6.359375 0 L 2.1875 0 L 2.1875 -21.28125 L 6.359375 -21.28125 Z M 6.359375 0 "/></g></g></g><g fill="#ffffff" fill-opacity="1"><g transform="translate(270.514431, 77.991144)"><g><path d="M 6.359375 -15.28125 L 6.359375 0 L 2.1875 0 L 2.1875 -15.28125 Z M 4.28125 -21.28125 C 4.894531 -21.28125 5.425781 -21.132812 5.875 -20.84375 C 6.320312 -20.550781 6.546875 -20.015625 6.546875 -19.234375 C 6.546875 -18.460938 6.320312 -17.925781 5.875 -17.625 C 5.425781 -17.332031 4.894531 -17.1875 4.28125 -17.1875 C 3.65625 -17.1875 3.117188 -17.332031 2.671875 -17.625 C 2.234375 -17.925781 2.015625 -18.460938 2.015625 -19.234375 C 2.015625 -20.015625 2.234375 -20.550781 2.671875 -20.84375 C 3.117188 -21.132812 3.65625 -21.28125 4.28125 -21.28125 Z M 4.28125 -21.28125 "/></g></g></g><g fill="#ffffff" fill-opacity="1"><g transform="translate(279.058166, 77.991144)"><g><path d="M 8.625 -3.046875 C 9.082031 -3.046875 9.523438 -3.09375 9.953125 -3.1875 C 10.390625 -3.28125 10.820312 -3.394531 11.25 -3.53125 L 11.25 -0.421875 C 10.800781 -0.222656 10.242188 -0.0546875 9.578125 0.078125 C 8.921875 0.210938 8.203125 0.28125 7.421875 0.28125 C 6.515625 0.28125 5.695312 0.132812 4.96875 -0.15625 C 4.25 -0.457031 3.679688 -0.972656 3.265625 -1.703125 C 2.847656 -2.441406 2.640625 -3.46875 2.640625 -4.78125 L 2.640625 -12.15625 L 0.640625 -12.15625 L 0.640625 -13.921875 L 2.9375 -15.3125 L 4.140625 -18.546875 L 6.8125 -18.546875 L 6.8125 -15.28125 L 11.09375 -15.28125 L 11.09375 -12.15625 L 6.8125 -12.15625 L 6.8125 -4.78125 C 6.8125 -4.195312 6.976562 -3.757812 7.3125 -3.46875 C 7.644531 -3.1875 8.082031 -3.046875 8.625 -3.046875 Z M 8.625 -3.046875 "/></g></g></g><g fill="#ffffff" fill-opacity="1"><g transform="translate(291.210772, 77.991144)"><g><path d="M 8.484375 -15.578125 C 9.898438 -15.578125 11.117188 -15.304688 12.140625 -14.765625 C 13.160156 -14.222656 13.945312 -13.4375 14.5 -12.40625 C 15.0625 -11.375 15.34375 -10.113281 15.34375 -8.625 L 15.34375 -6.609375 L 5.484375 -6.609375 C 5.523438 -5.429688 5.875 -4.503906 6.53125 -3.828125 C 7.195312 -3.160156 8.117188 -2.828125 9.296875 -2.828125 C 10.273438 -2.828125 11.164062 -2.925781 11.96875 -3.125 C 12.78125 -3.332031 13.617188 -3.632812 14.484375 -4.03125 L 14.484375 -0.8125 C 13.722656 -0.4375 12.929688 -0.160156 12.109375 0.015625 C 11.285156 0.191406 10.285156 0.28125 9.109375 0.28125 C 7.578125 0.28125 6.21875 0 5.03125 -0.5625 C 3.851562 -1.132812 2.929688 -2 2.265625 -3.15625 C 1.597656 -4.3125 1.265625 -5.769531 1.265625 -7.53125 C 1.265625 -9.320312 1.566406 -10.8125 2.171875 -12 C 2.773438 -13.1875 3.617188 -14.078125 4.703125 -14.671875 C 5.785156 -15.273438 7.046875 -15.578125 8.484375 -15.578125 Z M 8.515625 -12.609375 C 7.703125 -12.609375 7.03125 -12.347656 6.5 -11.828125 C 5.96875 -11.304688 5.660156 -10.488281 5.578125 -9.375 L 11.4375 -9.375 C 11.425781 -10 11.3125 -10.550781 11.09375 -11.03125 C 10.882812 -11.519531 10.566406 -11.90625 10.140625 -12.1875 C 9.710938 -12.46875 9.171875 -12.609375 8.515625 -12.609375 Z M 8.515625 -12.609375 "/></g></g></g><g fill="#ffffff" fill-opacity="1"><g transform="translate(307.751432, 77.991144)"><g><path d="M 12.859375 -4.546875 C 12.859375 -3.503906 12.613281 -2.625 12.125 -1.90625 C 11.632812 -1.1875 10.90625 -0.640625 9.9375 -0.265625 C 8.96875 0.0976562 7.765625 0.28125 6.328125 0.28125 C 5.265625 0.28125 4.351562 0.207031 3.59375 0.0625 C 2.832031 -0.0703125 2.0625 -0.296875 1.28125 -0.609375 L 1.28125 -4.0625 C 2.113281 -3.6875 3.003906 -3.378906 3.953125 -3.140625 C 4.910156 -2.898438 5.75 -2.78125 6.46875 -2.78125 C 7.28125 -2.78125 7.859375 -2.898438 8.203125 -3.140625 C 8.554688 -3.378906 8.734375 -3.695312 8.734375 -4.09375 C 8.734375 -4.34375 8.660156 -4.570312 8.515625 -4.78125 C 8.378906 -4.988281 8.078125 -5.21875 7.609375 -5.46875 C 7.148438 -5.726562 6.421875 -6.070312 5.421875 -6.5 C 4.472656 -6.894531 3.6875 -7.296875 3.0625 -7.703125 C 2.445312 -8.117188 1.992188 -8.609375 1.703125 -9.171875 C 1.410156 -9.734375 1.265625 -10.445312 1.265625 -11.3125 C 1.265625 -12.71875 1.8125 -13.78125 2.90625 -14.5 C 4 -15.21875 5.46875 -15.578125 7.3125 -15.578125 C 8.257812 -15.578125 9.164062 -15.476562 10.03125 -15.28125 C 10.894531 -15.09375 11.78125 -14.789062 12.6875 -14.375 L 11.4375 -11.359375 C 10.675781 -11.691406 9.957031 -11.960938 9.28125 -12.171875 C 8.613281 -12.378906 7.9375 -12.484375 7.25 -12.484375 C 6.632812 -12.484375 6.171875 -12.398438 5.859375 -12.234375 C 5.554688 -12.066406 5.40625 -11.816406 5.40625 -11.484375 C 5.40625 -11.234375 5.484375 -11.015625 5.640625 -10.828125 C 5.796875 -10.640625 6.101562 -10.425781 6.5625 -10.1875 C 7.03125 -9.957031 7.707031 -9.660156 8.59375 -9.296875 C 9.46875 -8.941406 10.222656 -8.570312 10.859375 -8.1875 C 11.492188 -7.800781 11.984375 -7.320312 12.328125 -6.75 C 12.679688 -6.175781 12.859375 -5.441406 12.859375 -4.546875 Z M 12.859375 -4.546875 "/></g></g></g><g clip-path="url(#cd0d232429)"><path fill="#ffffff" d="M 78.054688 60.800781 L 77.167969 61.6875 C 76.335938 61.289062 75.308594 61.433594 74.617188 62.125 L 74.183594 62.558594 L 73.09375 61.472656 L 73.113281 61.457031 C 73.988281 60.582031 73.988281 59.160156 73.113281 58.285156 L 62.402344 47.574219 C 61.527344 46.699219 60.109375 46.699219 59.230469 47.574219 L 54.933594 51.871094 C 54.058594 52.75 54.058594 54.167969 54.933594 55.042969 C 57.34375 57.457031 63.230469 63.34375 65.644531 65.753906 C 66.519531 66.628906 67.9375 66.628906 68.816406 65.753906 L 68.832031 65.738281 L 69.917969 66.824219 L 69.085938 67.652344 C 68.796875 67.945312 68.796875 68.417969 69.085938 68.710938 C 69.378906 69.003906 69.851562 69.003906 70.144531 68.710938 L 70.976562 67.878906 L 74.136719 71.039062 L 71.019531 74.15625 L 67.859375 70.996094 C 67.859375 70.996094 68.402344 70.453125 68.402344 70.453125 C 68.695312 70.160156 68.695312 69.6875 68.402344 69.394531 C 68.109375 69.105469 67.636719 69.105469 67.347656 69.394531 L 66.800781 69.941406 L 66.109375 69.246094 C 65.6875 68.824219 65.117188 68.589844 64.523438 68.589844 C 63.929688 68.589844 63.359375 68.824219 62.9375 69.246094 L 61.882812 70.300781 C 61.460938 70.722656 61.222656 71.292969 61.222656 71.886719 C 61.222656 72.441406 61.429688 72.972656 61.792969 73.382812 C 60.15625 75.289062 60.238281 78.171875 62.046875 79.980469 C 63.863281 81.792969 66.761719 81.871094 68.667969 80.210938 C 69.042969 80.46875 69.484375 80.609375 69.945312 80.609375 C 70.539062 80.609375 71.109375 80.375 71.53125 79.953125 L 72.589844 78.894531 C 73.007812 78.476562 73.246094 77.90625 73.246094 77.3125 C 73.246094 76.714844 73.007812 76.144531 72.589844 75.726562 L 72.078125 75.214844 L 75.191406 72.097656 L 76.289062 73.195312 L 76.273438 73.210938 C 75.394531 74.085938 75.394531 75.507812 76.273438 76.382812 C 78.683594 78.792969 84.570312 84.679688 86.980469 87.09375 C 87.859375 87.96875 89.277344 87.96875 90.152344 87.09375 L 94.453125 82.792969 C 95.328125 81.917969 95.328125 80.5 94.453125 79.625 L 83.742188 68.914062 C 82.863281 68.035156 81.445312 68.035156 80.570312 68.914062 L 80.550781 68.929688 L 79.457031 67.835938 L 79.890625 67.398438 C 80.585938 66.703125 80.730469 65.667969 80.320312 64.832031 L 81.222656 63.933594 L 81.542969 64.128906 C 85.40625 66.488281 90.378906 66.332031 94.105469 63.671875 C 94.105469 63.671875 94.109375 63.671875 94.109375 63.667969 C 94.640625 63.28125 94.976562 62.683594 95.027344 62.03125 C 95.078125 61.375 94.839844 60.734375 94.375 60.269531 C 93.078125 58.972656 90.835938 56.730469 88.523438 54.417969 L 89.246094 53.695312 C 90.15625 54.164062 91.300781 54.015625 92.0625 53.253906 C 93.007812 52.304688 93.007812 50.769531 92.0625 49.824219 C 91.117188 48.878906 89.578125 48.878906 88.632812 49.824219 C 87.871094 50.585938 87.722656 51.730469 88.1875 52.640625 L 87.464844 53.363281 C 85.152344 51.050781 82.902344 48.808594 81.601562 47.519531 C 81.144531 47.058594 80.503906 46.824219 79.855469 46.875 C 79.207031 46.925781 78.613281 47.257812 78.230469 47.78125 C 78.230469 47.785156 78.230469 47.785156 78.226562 47.785156 C 75.464844 51.628906 75.390625 56.808594 78 60.722656 Z M 90.71875 84.414062 L 89.097656 86.035156 C 88.804688 86.328125 88.332031 86.328125 88.039062 86.035156 L 86.089844 84.085938 L 88.238281 81.9375 Z M 91.445312 78.730469 L 93.394531 80.679688 C 93.6875 80.972656 93.6875 81.445312 93.394531 81.738281 L 91.773438 83.359375 L 89.296875 80.878906 Z M 80.257812 78.253906 L 85.03125 83.03125 L 87.183594 80.878906 L 82.40625 76.105469 Z M 62.851562 74.445312 C 61.796875 75.765625 61.878906 77.699219 63.101562 78.921875 C 64.328125 80.144531 66.261719 80.230469 67.578125 79.171875 Z M 83.464844 75.046875 L 88.238281 79.824219 L 90.386719 77.675781 L 85.613281 72.898438 Z M 71.53125 76.78125 L 65.050781 70.300781 C 64.910156 70.164062 64.722656 70.082031 64.523438 70.082031 C 64.324219 70.082031 64.136719 70.164062 63.996094 70.300781 C 63.996094 70.300781 62.9375 71.359375 62.9375 71.359375 C 62.796875 71.5 62.71875 71.6875 62.71875 71.886719 C 62.71875 72.085938 62.796875 72.277344 62.9375 72.417969 L 69.417969 78.894531 C 69.558594 79.035156 69.746094 79.113281 69.945312 79.113281 C 70.144531 79.113281 70.335938 79.035156 70.476562 78.894531 L 71.53125 77.839844 C 71.671875 77.699219 71.75 77.507812 71.75 77.3125 C 71.75 77.113281 71.671875 76.921875 71.53125 76.78125 Z M 78.949219 72.648438 L 81.351562 75.046875 L 79.199219 77.199219 L 77.328125 75.324219 C 77.035156 75.03125 77.035156 74.558594 77.328125 74.269531 Z M 84.554688 71.84375 L 82.40625 73.992188 L 80.003906 71.589844 L 81.628906 69.96875 C 81.917969 69.675781 82.390625 69.675781 82.683594 69.96875 Z M 77.347656 72.136719 L 79.496094 69.988281 L 78.398438 68.890625 L 76.25 71.039062 Z M 75.191406 69.984375 L 78.835938 66.34375 C 79.125 66.050781 79.125 65.578125 78.835938 65.285156 C 78.191406 64.644531 77.375 63.824219 76.730469 63.179688 C 76.4375 62.890625 75.964844 62.890625 75.671875 63.179688 L 72.03125 66.824219 Z M 72.039062 62.53125 L 69.890625 64.679688 L 70.976562 65.765625 L 73.125 63.617188 Z M 69.378906 63.078125 L 67.757812 64.699219 C 67.464844 64.988281 66.992188 64.988281 66.699219 64.699219 L 64.546875 62.542969 L 66.695312 60.394531 Z M 82.308594 62.84375 L 82.324219 62.851562 C 85.679688 64.902344 89.996094 64.765625 93.234375 62.457031 C 93.410156 62.328125 93.519531 62.128906 93.535156 61.914062 C 93.554688 61.695312 93.472656 61.480469 93.320312 61.328125 C 90.53125 58.539062 83.351562 51.359375 80.550781 48.578125 C 80.550781 48.578125 80.546875 48.578125 80.546875 48.578125 C 80.398438 48.425781 80.1875 48.347656 79.972656 48.363281 C 79.761719 48.382812 79.566406 48.488281 79.4375 48.660156 C 77.082031 51.941406 76.980469 56.34375 79.132812 59.722656 L 81.21875 57.636719 C 81.5 57.355469 81.878906 57.199219 82.273438 57.199219 C 82.671875 57.199219 83.050781 57.355469 83.332031 57.636719 L 84.367188 58.671875 C 84.648438 58.953125 84.804688 59.332031 84.804688 59.730469 C 84.804688 60.125 84.648438 60.503906 84.367188 60.785156 Z M 82.273438 58.695312 C 82.273438 58.695312 83.3125 59.730469 83.3125 59.730469 C 83.3125 59.730469 79.398438 63.640625 79.398438 63.640625 C 79.398438 63.640625 78.363281 62.605469 78.363281 62.605469 Z M 69.902344 57.1875 L 72.058594 59.34375 C 72.347656 59.632812 72.347656 60.105469 72.058594 60.398438 L 70.4375 62.019531 L 67.75 59.335938 Z M 59.691406 57.6875 L 63.488281 61.484375 L 65.636719 59.335938 L 61.839844 55.539062 Z M 62.898438 54.480469 L 66.695312 58.28125 L 68.84375 56.128906 L 65.046875 52.332031 Z M 57.609375 51.308594 L 60.78125 54.480469 L 58.632812 56.628906 L 55.992188 53.988281 C 55.699219 53.695312 55.699219 53.222656 55.992188 52.929688 Z M 63.988281 51.273438 L 61.839844 53.425781 L 58.667969 50.253906 L 60.289062 48.632812 C 60.582031 48.339844 61.054688 48.339844 61.34375 48.632812 Z M 91.003906 50.878906 C 91.367188 51.242188 91.367188 51.832031 91.003906 52.195312 C 90.644531 52.558594 90.054688 52.558594 89.691406 52.195312 C 89.328125 51.832031 89.328125 51.242188 89.691406 50.878906 C 90.054688 50.515625 90.644531 50.515625 91.003906 50.878906 Z M 91.003906 50.878906 " fill-opacity="1" fill-rule="evenodd"/></g></svg>