<svg xmlns="http://www.w3.org/2000/svg" xmlns:xlink="http://www.w3.org/1999/xlink" width="500" zoomAndPan="magnify" viewBox="0 0 375 374.999991" height="500" preserveAspectRatio="xMidYMid meet" version="1.0"><defs><g/><clipPath id="b43e6a6bf4"><path d="M 37.5 37.5 L 337.5 37.5 L 337.5 97.480469 L 37.5 97.480469 Z M 37.5 37.5 " clip-rule="nonzero"/></clipPath><clipPath id="84b95a4cce"><path d="M 54.75 37.5 L 320.25 37.5 C 324.824219 37.5 329.210938 39.316406 332.449219 42.550781 C 335.683594 45.789062 337.5 50.175781 337.5 54.75 L 337.5 80.230469 C 337.5 84.808594 335.683594 89.195312 332.449219 92.429688 C 329.210938 95.664062 324.824219 97.480469 320.25 97.480469 L 54.75 97.480469 C 50.175781 97.480469 45.789062 95.664062 42.550781 92.429688 C 39.316406 89.195312 37.5 84.808594 37.5 80.230469 L 37.5 54.75 C 37.5 50.175781 39.316406 45.789062 42.550781 42.550781 C 45.789062 39.316406 50.175781 37.5 54.75 37.5 Z M 54.75 37.5 " clip-rule="nonzero"/></clipPath><clipPath id="18b9d1f7b8"><path d="M 55.03125 45.03125 L 80.355469 45.03125 L 80.355469 90.03125 L 55.03125 90.03125 Z M 55.03125 45.03125 " clip-rule="nonzero"/></clipPath></defs><g clip-path="url(#b43e6a6bf4)"><g clip-path="url(#84b95a4cce)"><path fill="#f47c2e" d="M 37.5 37.5 L 337.5 37.5 L 337.5 97.480469 L 37.5 97.480469 Z M 37.5 37.5 " fill-opacity="1" fill-rule="nonzero"/></g></g><g fill="#ffffff" fill-opacity="1"><g transform="translate(113.432803, 77.991206)"><g><path d="M 12.859375 -4.546875 C 12.859375 -3.503906 12.613281 -2.625 12.125 -1.90625 C 11.632812 -1.1875 10.90625 -0.640625 9.9375 -0.265625 C 8.96875 0.0976562 7.765625 0.28125 6.328125 0.28125 C 5.265625 0.28125 4.351562 0.207031 3.59375 0.0625 C 2.832031 -0.0703125 2.0625 -0.296875 1.28125 -0.609375 L 1.28125 -4.0625 C 2.113281 -3.6875 3.003906 -3.378906 3.953125 -3.140625 C 4.910156 -2.898438 5.75 -2.78125 6.46875 -2.78125 C 7.28125 -2.78125 7.859375 -2.898438 8.203125 -3.140625 C 8.554688 -3.378906 8.734375 -3.695312 8.734375 -4.09375 C 8.734375 -4.34375 8.660156 -4.570312 8.515625 -4.78125 C 8.378906 -4.988281 8.078125 -5.21875 7.609375 -5.46875 C 7.148438 -5.726562 6.421875 -6.070312 5.421875 -6.5 C 4.472656 -6.894531 3.6875 -7.296875 3.0625 -7.703125 C 2.445312 -8.117188 1.992188 -8.609375 1.703125 -9.171875 C 1.410156 -9.734375 1.265625 -10.445312 1.265625 -11.3125 C 1.265625 -12.71875 1.8125 -13.78125 2.90625 -14.5 C 4 -15.21875 5.46875 -15.578125 7.3125 -15.578125 C 8.257812 -15.578125 9.164062 -15.476562 10.03125 -15.28125 C 10.894531 -15.09375 11.78125 -14.789062 12.6875 -14.375 L 11.4375 -11.359375 C 10.675781 -11.691406 9.957031 -11.960938 9.28125 -12.171875 C 8.613281 -12.378906 7.9375 -12.484375 7.25 -12.484375 C 6.632812 -12.484375 6.171875 -12.398438 5.859375 -12.234375 C 5.554688 -12.066406 5.40625 -11.816406 5.40625 -11.484375 C 5.40625 -11.234375 5.484375 -11.015625 5.640625 -10.828125 C 5.796875 -10.640625 6.101562 -10.425781 6.5625 -10.1875 C 7.03125 -9.957031 7.707031 -9.660156 8.59375 -9.296875 C 9.46875 -8.941406 10.222656 -8.570312 10.859375 -8.1875 C 11.492188 -7.800781 11.984375 -7.320312 12.328125 -6.75 C 12.679688 -6.175781 12.859375 -5.441406 12.859375 -4.546875 Z M 12.859375 -4.546875 "/></g></g></g><g fill="#ffffff" fill-opacity="1"><g transform="translate(127.348829, 77.991206)"><g><path d="M 10.6875 -15.578125 C 12.414062 -15.578125 13.8125 -14.90625 14.875 -13.5625 C 15.9375 -12.21875 16.46875 -10.253906 16.46875 -7.671875 C 16.46875 -5.941406 16.210938 -4.484375 15.703125 -3.296875 C 15.203125 -2.117188 14.507812 -1.226562 13.625 -0.625 C 12.75 -0.0195312 11.734375 0.28125 10.578125 0.28125 C 9.835938 0.28125 9.203125 0.1875 8.671875 0 C 8.148438 -0.1875 7.703125 -0.425781 7.328125 -0.71875 C 6.953125 -1.019531 6.628906 -1.34375 6.359375 -1.6875 L 6.140625 -1.6875 C 6.210938 -1.320312 6.265625 -0.945312 6.296875 -0.5625 C 6.335938 -0.175781 6.359375 0.195312 6.359375 0.5625 L 6.359375 6.734375 L 2.1875 6.734375 L 2.1875 -15.28125 L 5.578125 -15.28125 L 6.171875 -13.296875 L 6.359375 -13.296875 C 6.628906 -13.710938 6.957031 -14.09375 7.34375 -14.4375 C 7.738281 -14.78125 8.210938 -15.054688 8.765625 -15.265625 C 9.316406 -15.472656 9.957031 -15.578125 10.6875 -15.578125 Z M 9.359375 -12.234375 C 8.628906 -12.234375 8.046875 -12.082031 7.609375 -11.78125 C 7.179688 -11.476562 6.867188 -11.023438 6.671875 -10.421875 C 6.484375 -9.828125 6.378906 -9.070312 6.359375 -8.15625 L 6.359375 -7.703125 C 6.359375 -6.710938 6.453125 -5.875 6.640625 -5.1875 C 6.828125 -4.507812 7.140625 -3.992188 7.578125 -3.640625 C 8.023438 -3.285156 8.632812 -3.109375 9.40625 -3.109375 C 10.039062 -3.109375 10.5625 -3.285156 10.96875 -3.640625 C 11.382812 -3.992188 11.691406 -4.515625 11.890625 -5.203125 C 12.097656 -5.890625 12.203125 -6.726562 12.203125 -7.71875 C 12.203125 -9.21875 11.96875 -10.34375 11.5 -11.09375 C 11.039062 -11.851562 10.328125 -12.234375 9.359375 -12.234375 Z M 9.359375 -12.234375 "/></g></g></g><g fill="#ffffff" fill-opacity="1"><g transform="translate(145.065106, 77.991206)"><g><path d="M 8.484375 -15.578125 C 9.898438 -15.578125 11.117188 -15.304688 12.140625 -14.765625 C 13.160156 -14.222656 13.945312 -13.4375 14.5 -12.40625 C 15.0625 -11.375 15.34375 -10.113281 15.34375 -8.625 L 15.34375 -6.609375 L 5.484375 -6.609375 C 5.523438 -5.429688 5.875 -4.503906 6.53125 -3.828125 C 7.195312 -3.160156 8.117188 -2.828125 9.296875 -2.828125 C 10.273438 -2.828125 11.164062 -2.925781 11.96875 -3.125 C 12.78125 -3.332031 13.617188 -3.632812 14.484375 -4.03125 L 14.484375 -0.8125 C 13.722656 -0.4375 12.929688 -0.160156 12.109375 0.015625 C 11.285156 0.191406 10.285156 0.28125 9.109375 0.28125 C 7.578125 0.28125 6.21875 0 5.03125 -0.5625 C 3.851562 -1.132812 2.929688 -2 2.265625 -3.15625 C 1.597656 -4.3125 1.265625 -5.769531 1.265625 -7.53125 C 1.265625 -9.320312 1.566406 -10.8125 2.171875 -12 C 2.773438 -13.1875 3.617188 -14.078125 4.703125 -14.671875 C 5.785156 -15.273438 7.046875 -15.578125 8.484375 -15.578125 Z M 8.515625 -12.609375 C 7.703125 -12.609375 7.03125 -12.347656 6.5 -11.828125 C 5.96875 -11.304688 5.660156 -10.488281 5.578125 -9.375 L 11.4375 -9.375 C 11.425781 -10 11.3125 -10.550781 11.09375 -11.03125 C 10.882812 -11.519531 10.566406 -11.90625 10.140625 -12.1875 C 9.710938 -12.46875 9.171875 -12.609375 8.515625 -12.609375 Z M 8.515625 -12.609375 "/></g></g></g><g fill="#ffffff" fill-opacity="1"><g transform="translate(161.605765, 77.991206)"><g><path d="M 8.390625 0.28125 C 6.878906 0.28125 5.585938 0.00390625 4.515625 -0.546875 C 3.453125 -1.097656 2.644531 -1.953125 2.09375 -3.109375 C 1.539062 -4.273438 1.265625 -5.757812 1.265625 -7.5625 C 1.265625 -9.425781 1.578125 -10.945312 2.203125 -12.125 C 2.835938 -13.3125 3.71875 -14.179688 4.84375 -14.734375 C 5.96875 -15.296875 7.273438 -15.578125 8.765625 -15.578125 C 9.816406 -15.578125 10.726562 -15.472656 11.5 -15.265625 C 12.269531 -15.054688 12.941406 -14.8125 13.515625 -14.53125 L 12.296875 -11.3125 C 11.640625 -11.570312 11.023438 -11.785156 10.453125 -11.953125 C 9.890625 -12.117188 9.328125 -12.203125 8.765625 -12.203125 C 8.035156 -12.203125 7.425781 -12.03125 6.9375 -11.6875 C 6.457031 -11.351562 6.097656 -10.84375 5.859375 -10.15625 C 5.628906 -9.476562 5.515625 -8.625 5.515625 -7.59375 C 5.515625 -6.582031 5.640625 -5.742188 5.890625 -5.078125 C 6.148438 -4.410156 6.519531 -3.914062 7 -3.59375 C 7.476562 -3.269531 8.066406 -3.109375 8.765625 -3.109375 C 9.628906 -3.109375 10.398438 -3.222656 11.078125 -3.453125 C 11.753906 -3.679688 12.410156 -4.007812 13.046875 -4.4375 L 13.046875 -0.859375 C 12.410156 -0.460938 11.742188 -0.175781 11.046875 0 C 10.347656 0.1875 9.460938 0.28125 8.390625 0.28125 Z M 8.390625 0.28125 "/></g></g></g><g fill="#ffffff" fill-opacity="1"><g transform="translate(176.000246, 77.991206)"><g><path d="M 6.359375 -15.28125 L 6.359375 0 L 2.1875 0 L 2.1875 -15.28125 Z M 4.28125 -21.28125 C 4.894531 -21.28125 5.425781 -21.132812 5.875 -20.84375 C 6.320312 -20.550781 6.546875 -20.015625 6.546875 -19.234375 C 6.546875 -18.460938 6.320312 -17.925781 5.875 -17.625 C 5.425781 -17.332031 4.894531 -17.1875 4.28125 -17.1875 C 3.65625 -17.1875 3.117188 -17.332031 2.671875 -17.625 C 2.234375 -17.925781 2.015625 -18.460938 2.015625 -19.234375 C 2.015625 -20.015625 2.234375 -20.550781 2.671875 -20.84375 C 3.117188 -21.132812 3.65625 -21.28125 4.28125 -21.28125 Z M 4.28125 -21.28125 "/></g></g></g><g fill="#ffffff" fill-opacity="1"><g transform="translate(184.543981, 77.991206)"><g><path d="M 20.140625 -15.578125 C 21.867188 -15.578125 23.175781 -15.128906 24.0625 -14.234375 C 24.957031 -13.347656 25.40625 -11.925781 25.40625 -9.96875 L 25.40625 0 L 21.21875 0 L 21.21875 -8.921875 C 21.21875 -10.015625 21.03125 -10.835938 20.65625 -11.390625 C 20.28125 -11.953125 19.703125 -12.234375 18.921875 -12.234375 C 17.816406 -12.234375 17.03125 -11.835938 16.5625 -11.046875 C 16.101562 -10.265625 15.875 -9.140625 15.875 -7.671875 L 15.875 0 L 11.703125 0 L 11.703125 -8.921875 C 11.703125 -9.648438 11.617188 -10.257812 11.453125 -10.75 C 11.296875 -11.25 11.046875 -11.617188 10.703125 -11.859375 C 10.367188 -12.109375 9.9375 -12.234375 9.40625 -12.234375 C 8.632812 -12.234375 8.023438 -12.039062 7.578125 -11.65625 C 7.140625 -11.269531 6.828125 -10.695312 6.640625 -9.9375 C 6.453125 -9.1875 6.359375 -8.269531 6.359375 -7.1875 L 6.359375 0 L 2.1875 0 L 2.1875 -15.28125 L 5.375 -15.28125 L 5.9375 -13.328125 L 6.171875 -13.328125 C 6.472656 -13.859375 6.859375 -14.285156 7.328125 -14.609375 C 7.804688 -14.941406 8.328125 -15.1875 8.890625 -15.34375 C 9.453125 -15.5 10.023438 -15.578125 10.609375 -15.578125 C 11.734375 -15.578125 12.679688 -15.394531 13.453125 -15.03125 C 14.234375 -14.664062 14.835938 -14.097656 15.265625 -13.328125 L 15.625 -13.328125 C 16.082031 -14.109375 16.726562 -14.675781 17.5625 -15.03125 C 18.394531 -15.394531 19.253906 -15.578125 20.140625 -15.578125 Z M 20.140625 -15.578125 "/></g></g></g><g fill="#ffffff" fill-opacity="1"><g transform="translate(212.03429, 77.991206)"><g><path d="M 8.484375 -15.578125 C 9.898438 -15.578125 11.117188 -15.304688 12.140625 -14.765625 C 13.160156 -14.222656 13.945312 -13.4375 14.5 -12.40625 C 15.0625 -11.375 15.34375 -10.113281 15.34375 -8.625 L 15.34375 -6.609375 L 5.484375 -6.609375 C 5.523438 -5.429688 5.875 -4.503906 6.53125 -3.828125 C 7.195312 -3.160156 8.117188 -2.828125 9.296875 -2.828125 C 10.273438 -2.828125 11.164062 -2.925781 11.96875 -3.125 C 12.78125 -3.332031 13.617188 -3.632812 14.484375 -4.03125 L 14.484375 -0.8125 C 13.722656 -0.4375 12.929688 -0.160156 12.109375 0.015625 C 11.285156 0.191406 10.285156 0.28125 9.109375 0.28125 C 7.578125 0.28125 6.21875 0 5.03125 -0.5625 C 3.851562 -1.132812 2.929688 -2 2.265625 -3.15625 C 1.597656 -4.3125 1.265625 -5.769531 1.265625 -7.53125 C 1.265625 -9.320312 1.566406 -10.8125 2.171875 -12 C 2.773438 -13.1875 3.617188 -14.078125 4.703125 -14.671875 C 5.785156 -15.273438 7.046875 -15.578125 8.484375 -15.578125 Z M 8.515625 -12.609375 C 7.703125 -12.609375 7.03125 -12.347656 6.5 -11.828125 C 5.96875 -11.304688 5.660156 -10.488281 5.578125 -9.375 L 11.4375 -9.375 C 11.425781 -10 11.3125 -10.550781 11.09375 -11.03125 C 10.882812 -11.519531 10.566406 -11.90625 10.140625 -12.1875 C 9.710938 -12.46875 9.171875 -12.609375 8.515625 -12.609375 Z M 8.515625 -12.609375 "/></g></g></g><g fill="#ffffff" fill-opacity="1"><g transform="translate(228.574949, 77.991206)"><g><path d="M 10.875 -15.578125 C 12.5 -15.578125 13.804688 -15.128906 14.796875 -14.234375 C 15.796875 -13.347656 16.296875 -11.925781 16.296875 -9.96875 L 16.296875 0 L 12.125 0 L 12.125 -8.921875 C 12.125 -10.015625 11.925781 -10.835938 11.53125 -11.390625 C 11.132812 -11.953125 10.515625 -12.234375 9.671875 -12.234375 C 8.390625 -12.234375 7.515625 -11.800781 7.046875 -10.9375 C 6.585938 -10.070312 6.359375 -8.820312 6.359375 -7.1875 L 6.359375 0 L 2.1875 0 L 2.1875 -15.28125 L 5.375 -15.28125 L 5.9375 -13.328125 L 6.171875 -13.328125 C 6.492188 -13.859375 6.898438 -14.285156 7.390625 -14.609375 C 7.878906 -14.941406 8.421875 -15.1875 9.015625 -15.34375 C 9.609375 -15.5 10.226562 -15.578125 10.875 -15.578125 Z M 10.875 -15.578125 "/></g></g></g><g clip-path="url(#18b9d1f7b8)"><path fill="#ffffff" d="M 56.660156 86.492188 L 57.726562 86.492188 L 57.726562 81.210938 C 57.726562 79.96875 58.746094 78.960938 60 78.960938 L 72.132812 78.960938 C 71.835938 78.609375 71.59375 78.21875 71.414062 77.792969 L 56.660156 77.792969 C 55.671875 77.792969 54.871094 76.996094 54.871094 76.023438 C 54.871094 75.046875 55.671875 74.253906 56.660156 74.253906 L 71.414062 74.253906 C 71.660156 73.667969 72.027344 73.148438 72.480469 72.714844 L 72.480469 63.199219 L 68.820312 63.199219 L 65.246094 68.496094 C 65.222656 68.53125 65.195312 68.558594 65.160156 68.582031 C 65.15625 68.585938 65.15625 68.589844 65.152344 68.59375 L 62.765625 70.214844 C 62.703125 70.257812 62.632812 70.277344 62.5625 70.277344 C 62.492188 70.277344 62.425781 70.257812 62.363281 70.21875 L 57.886719 67.265625 C 57.765625 67.183594 57.707031 67.039062 57.734375 66.894531 L 58.332031 64.089844 C 58.335938 64.070312 58.347656 64.054688 58.355469 64.039062 C 58.363281 64.015625 58.371094 63.988281 58.386719 63.964844 L 68.828125 48.472656 C 68.9375 48.308594 69.160156 48.265625 69.324219 48.371094 L 71.265625 49.652344 L 72.0625 48.472656 L 70.570312 47.492188 C 70.492188 47.4375 70.4375 47.355469 70.417969 47.265625 C 70.398438 47.171875 70.417969 47.074219 70.472656 46.996094 L 71.664062 45.226562 C 71.773438 45.0625 71.996094 45.015625 72.160156 45.125 L 77.53125 48.667969 C 77.613281 48.71875 77.667969 48.800781 77.683594 48.894531 C 77.703125 48.988281 77.683594 49.085938 77.632812 49.164062 L 76.4375 50.933594 C 76.367188 51.039062 76.253906 51.09375 76.140625 51.09375 C 76.070312 51.09375 76.003906 51.074219 75.941406 51.03125 L 74.449219 50.046875 L 73.65625 51.226562 L 75.59375 52.503906 C 75.671875 52.558594 75.726562 52.636719 75.746094 52.730469 C 75.765625 52.824219 75.746094 52.921875 75.691406 53 L 73.09375 56.855469 C 76.332031 57.050781 78.910156 59.710938 78.910156 62.964844 L 78.910156 72.714844 C 79.789062 73.550781 80.339844 74.722656 80.339844 76.023438 C 80.339844 77.320312 79.789062 78.492188 78.910156 79.328125 L 78.910156 86.527344 C 79.722656 86.691406 80.339844 87.40625 80.339844 88.261719 C 80.339844 89.238281 79.535156 90.03125 78.550781 90.03125 L 56.660156 90.03125 C 55.671875 90.03125 54.871094 89.238281 54.871094 88.261719 C 54.871094 87.285156 55.671875 86.492188 56.660156 86.492188 Z M 56.660156 74.964844 C 56.070312 74.964844 55.589844 75.441406 55.589844 76.023438 C 55.589844 76.605469 56.070312 77.078125 56.660156 77.078125 L 71.183594 77.078125 C 71.101562 76.738281 71.054688 76.386719 71.054688 76.023438 C 71.054688 75.65625 71.101562 75.304688 71.183594 74.964844 Z M 62.558594 69.492188 L 64.308594 68.300781 L 58.925781 64.753906 L 58.488281 66.804688 Z M 64.851562 67.804688 L 73.703125 54.671875 L 68.035156 50.933594 L 59.183594 64.066406 Z M 76.039062 50.242188 L 76.835938 49.0625 L 72.0625 45.917969 L 71.265625 47.09375 L 74.550781 49.257812 Z M 73.851562 49.65625 L 72.660156 48.867188 L 71.863281 50.046875 L 73.058594 50.832031 Z M 72.957031 51.621094 L 71.167969 50.441406 C 71.167969 50.441406 71.164062 50.441406 71.164062 50.441406 L 69.226562 49.164062 L 68.433594 50.339844 L 74.101562 54.078125 L 74.894531 52.902344 Z M 78.191406 62.964844 C 78.191406 59.980469 75.734375 57.550781 72.714844 57.550781 L 72.625 57.550781 L 69.300781 62.484375 L 72.714844 62.484375 C 72.980469 62.484375 73.199219 62.699219 73.199219 62.964844 L 73.199219 72.15625 C 73.921875 71.699219 74.777344 71.429688 75.695312 71.429688 C 76.617188 71.429688 77.472656 71.699219 78.191406 72.15625 Z M 79.621094 76.023438 C 79.621094 73.882812 77.859375 72.140625 75.695312 72.140625 C 73.53125 72.140625 71.773438 73.882812 71.773438 76.023438 C 71.773438 78.160156 73.53125 79.902344 75.695312 79.902344 C 77.859375 79.902344 79.621094 78.160156 79.621094 76.023438 Z M 75.695312 80.617188 C 74.640625 80.617188 73.671875 80.261719 72.890625 79.675781 L 60 79.675781 C 59.140625 79.675781 58.445312 80.363281 58.445312 81.210938 L 58.445312 86.492188 L 78.191406 86.492188 L 78.191406 79.886719 C 77.472656 80.347656 76.617188 80.617188 75.695312 80.617188 Z M 56.660156 89.316406 L 78.550781 89.316406 C 79.140625 89.316406 79.621094 88.84375 79.621094 88.261719 C 79.621094 87.679688 79.140625 87.207031 78.550781 87.207031 L 56.660156 87.207031 C 56.070312 87.207031 55.589844 87.679688 55.589844 88.261719 C 55.589844 88.84375 56.070312 89.316406 56.660156 89.316406 Z M 56.660156 89.316406 " fill-opacity="1" fill-rule="nonzero"/></g><path fill="#ffffff" d="M 75.695312 78.261719 C 74.449219 78.261719 73.433594 77.257812 73.433594 76.023438 C 73.433594 74.785156 74.449219 73.78125 75.695312 73.78125 C 76.945312 73.78125 77.957031 74.785156 77.957031 76.023438 C 77.957031 77.257812 76.945312 78.261719 75.695312 78.261719 Z M 75.695312 74.496094 C 74.84375 74.496094 74.152344 75.179688 74.152344 76.023438 C 74.152344 76.863281 74.84375 77.546875 75.695312 77.546875 C 76.546875 77.546875 77.242188 76.863281 77.242188 76.023438 C 77.242188 75.179688 76.546875 74.496094 75.695312 74.496094 Z M 75.695312 74.496094 " fill-opacity="1" fill-rule="nonzero"/><path fill="#ffffff" d="M 72.839844 85.324219 C 71.855469 85.324219 71.054688 84.53125 71.054688 83.554688 C 71.054688 82.578125 71.855469 81.785156 72.839844 81.785156 C 73.824219 81.785156 74.628906 82.578125 74.628906 83.554688 C 74.628906 84.53125 73.824219 85.324219 72.839844 85.324219 Z M 72.839844 82.5 C 72.25 82.5 71.769531 82.972656 71.769531 83.554688 C 71.769531 84.136719 72.25 84.609375 72.839844 84.609375 C 73.429688 84.609375 73.910156 84.136719 73.910156 83.554688 C 73.910156 82.972656 73.429688 82.5 72.839844 82.5 Z M 72.839844 82.5 " fill-opacity="1" fill-rule="nonzero"/><path fill="#ffffff" d="M 68.53125 56.589844 C 68.804688 56.183594 69.363281 56.070312 69.773438 56.34375 L 70.222656 56.636719 C 70.421875 56.769531 70.558594 56.96875 70.605469 57.203125 C 70.652344 57.4375 70.601562 57.671875 70.46875 57.871094 L 68.082031 61.414062 C 67.910156 61.667969 67.625 61.808594 67.335938 61.808594 C 67.164062 61.808594 66.992188 61.757812 66.839844 61.660156 L 66.390625 61.363281 C 66.191406 61.230469 66.058594 61.03125 66.007812 60.796875 C 65.964844 60.566406 66.011719 60.328125 66.144531 60.128906 Z M 66.714844 60.65625 C 66.71875 60.683594 66.734375 60.734375 66.789062 60.769531 L 67.238281 61.0625 C 67.320312 61.117188 67.429688 61.097656 67.488281 61.015625 L 69.875 57.472656 C 69.910156 57.421875 69.90625 57.367188 69.902344 57.34375 C 69.890625 57.296875 69.863281 57.257812 69.824219 57.230469 L 69.378906 56.9375 C 69.347656 56.914062 69.3125 56.90625 69.277344 56.90625 C 69.21875 56.90625 69.160156 56.933594 69.128906 56.984375 L 66.738281 60.527344 C 66.703125 60.582031 66.707031 60.632812 66.714844 60.65625 Z M 66.714844 60.65625 " fill-opacity="1" fill-rule="nonzero"/></svg>