<svg id="Line" viewBox="0 0 32 32" xmlns="http://www.w3.org/2000/svg"><title></title><path d="M21,31V28a5,5,0,0,0-5-5h0a5,5,0,0,1-5-5V14a5,5,0,0,1,5-5h0a5,5,0,0,0,5-5V1" style="fill:none;stroke:#000;stroke-linecap:round;stroke-linejoin:round;stroke-width:2px"></path><path d="M11,31V28a5,5,0,0,1,5-5h0a5,5,0,0,0,5-5V14a5,5,0,0,0-5-5h0a5,5,0,0,1-5-5V1" style="fill:none;stroke:#000;stroke-linecap:round;stroke-linejoin:round;stroke-width:2px"></path><line style="fill:none;stroke:#000;stroke-linecap:round;stroke-linejoin:round;stroke-width:2px" x1="11" x2="21" y1="13.667" y2="13.667"></line><line style="fill:none;stroke:#000;stroke-linecap:round;stroke-linejoin:round;stroke-width:2px" x1="11" x2="21" y1="18.333" y2="18.333"></line><line style="fill:none;stroke:#000;stroke-linecap:round;stroke-linejoin:round;stroke-width:2px" x1="11" x2="21" y1="4" y2="4"></line><line style="fill:none;stroke:#000;stroke-linecap:round;stroke-linejoin:round;stroke-width:2px" x1="11" x2="21" y1="28" y2="28"></line><circle cx="4" cy="4" r="2" style="fill:none;stroke:#000;stroke-linecap:round;stroke-linejoin:round;stroke-width:2px"></circle><line style="fill:none;stroke:#000;stroke-linecap:round;stroke-linejoin:round;stroke-width:2px" x1="6" x2="11" y1="4" y2="4"></line><circle cx="4" cy="28" r="2" style="fill:none;stroke:#000;stroke-linecap:round;stroke-linejoin:round;stroke-width:2px"></circle><line style="fill:none;stroke:#000;stroke-linecap:round;stroke-linejoin:round;stroke-width:2px" x1="6" x2="11" y1="28" y2="28"></line><circle cx="4" cy="16" r="2" style="fill:none;stroke:#000;stroke-linecap:round;stroke-linejoin:round;stroke-width:2px"></circle><line style="fill:none;stroke:#000;stroke-linecap:round;stroke-linejoin:round;stroke-width:2px" x1="6" x2="11" y1="16" y2="16"></line><circle cx="28" cy="4" r="2" style="fill:none;stroke:#000;stroke-linecap:round;stroke-linejoin:round;stroke-width:2px"></circle><line style="fill:none;stroke:#000;stroke-linecap:round;stroke-linejoin:round;stroke-width:2px" x1="26" x2="21" y1="4" y2="4"></line><circle cx="28" cy="28" r="2" style="fill:none;stroke:#000;stroke-linecap:round;stroke-linejoin:round;stroke-width:2px"></circle><line style="fill:none;stroke:#000;stroke-linecap:round;stroke-linejoin:round;stroke-width:2px" x1="26" x2="21" y1="28" y2="28"></line><circle cx="28" cy="16" r="2" style="fill:none;stroke:#000;stroke-linecap:round;stroke-linejoin:round;stroke-width:2px"></circle><line style="fill:none;stroke:#000;stroke-linecap:round;stroke-linejoin:round;stroke-width:2px" x1="26" x2="21" y1="16" y2="16"></line></svg>