<svg xmlns="http://www.w3.org/2000/svg" xmlns:xlink="http://www.w3.org/1999/xlink" width="500" zoomAndPan="magnify" viewBox="0 0 375 374.999991" height="500" preserveAspectRatio="xMidYMid meet" version="1.0"><defs><clipPath id="0f201b05f5"><path d="M 187.5 0 C 83.945312 0 0 83.945312 0 187.5 C 0 291.054688 83.945312 375 187.5 375 C 291.054688 375 375 291.054688 375 187.5 C 375 83.945312 291.054688 0 187.5 0 Z M 187.5 0 " clip-rule="nonzero"/></clipPath><clipPath id="b52d16aba3"><path d="M 130 143 L 311.800781 143 L 311.800781 232 L 130 232 Z M 130 143 " clip-rule="nonzero"/></clipPath><clipPath id="5b8001a7ea"><path d="M 63.550781 193 L 121 193 L 121 232 L 63.550781 232 Z M 63.550781 193 " clip-rule="nonzero"/></clipPath><clipPath id="2ba9aeb699"><path d="M 254 143 L 311.800781 143 L 311.800781 210 L 254 210 Z M 254 143 " clip-rule="nonzero"/></clipPath><clipPath id="6edf579ae0"><path d="M 63.550781 143 L 245 143 L 245 232 L 63.550781 232 Z M 63.550781 143 " clip-rule="nonzero"/></clipPath><clipPath id="ac0fd26017"><path d="M 211 63.550781 L 284 63.550781 L 284 128 L 211 128 Z M 211 63.550781 " clip-rule="nonzero"/></clipPath><clipPath id="498652ddba"><path d="M 91 247 L 164 247 L 164 311.800781 L 91 311.800781 Z M 91 247 " clip-rule="nonzero"/></clipPath></defs><g clip-path="url(#0f201b05f5)"><rect x="-37.5" width="450" fill="#233c4b" y="-37.499999" height="449.999989" fill-opacity="1"/></g><g clip-path="url(#b52d16aba3)"><path fill="#ffffff" d="M 252.636719 185.046875 C 236.8125 164.632812 220.445312 143.515625 187.5 143.515625 C 160.210938 143.515625 144.316406 158.007812 130.65625 174.582031 C 132.125 176.449219 133.578125 178.3125 135.003906 180.148438 L 135.699219 181.046875 C 148.761719 164.929688 162.90625 151.515625 187.5 151.515625 C 216.527344 151.515625 230.992188 170.183594 246.3125 189.949219 C 262.136719 210.367188 278.5 231.480469 311.449219 231.480469 L 311.449219 223.484375 C 282.421875 223.484375 267.953125 204.816406 252.636719 185.046875 Z M 252.636719 185.046875 " fill-opacity="1" fill-rule="nonzero"/></g><g clip-path="url(#5b8001a7ea)"><path fill="#ffffff" d="M 120.394531 200.417969 C 118.921875 198.550781 117.472656 196.6875 116.042969 194.847656 L 115.347656 193.953125 C 102.28125 210.070312 88.144531 223.484375 63.550781 223.484375 L 63.550781 231.480469 C 90.839844 231.480469 106.730469 216.992188 120.394531 200.417969 Z M 120.394531 200.417969 " fill-opacity="1" fill-rule="nonzero"/></g><g clip-path="url(#2ba9aeb699)"><path fill="#ffffff" d="M 254.605469 174.582031 C 256.074219 176.449219 257.527344 178.3125 258.953125 180.148438 L 259.648438 181.046875 C 265.347656 173.601562 271.953125 167.074219 279.460938 161.460938 L 279.460938 203.375 C 281.953125 205.542969 284.621094 207.472656 287.457031 209.167969 L 287.457031 156.730469 C 291.207031 154.957031 295.105469 153.632812 299.15625 152.75 C 303.207031 151.871094 307.304688 151.457031 311.449219 151.515625 L 311.449219 143.515625 C 284.160156 143.515625 268.265625 158.007812 254.605469 174.582031 Z M 254.605469 174.582031 " fill-opacity="1" fill-rule="nonzero"/></g><g clip-path="url(#6edf579ae0)"><path fill="#ffffff" d="M 155.511719 171.578125 L 155.511719 213.539062 C 145.160156 206.261719 137.039062 195.832031 128.6875 185.046875 C 112.863281 164.632812 96.496094 143.515625 63.550781 143.515625 L 63.550781 151.515625 C 67.695312 151.460938 71.792969 151.875 75.84375 152.757812 C 79.894531 153.640625 83.792969 154.96875 87.539062 156.742188 L 87.539062 209.234375 C 90.378906 207.535156 93.046875 205.597656 95.535156 203.421875 L 95.535156 161.457031 C 105.886719 168.734375 114.007812 179.167969 122.363281 189.949219 C 138.1875 210.367188 154.550781 231.480469 187.5 231.480469 C 214.789062 231.480469 230.679688 216.992188 244.34375 200.417969 C 242.871094 198.550781 241.421875 196.6875 239.992188 194.847656 L 239.296875 193.953125 C 233.597656 201.394531 226.996094 207.925781 219.484375 213.535156 L 219.484375 171.621094 C 216.992188 169.453125 214.328125 167.523438 211.488281 165.832031 L 211.488281 218.285156 C 205.160156 221.296875 198.496094 222.992188 191.496094 223.367188 L 191.496094 159.675781 C 190.195312 159.578125 188.875 159.511719 187.5 159.511719 C 186.125 159.511719 184.800781 159.566406 183.5 159.65625 L 183.5 223.320312 C 176.503906 222.949219 169.839844 221.257812 163.507812 218.253906 L 163.507812 165.765625 C 160.667969 167.460938 158.003906 169.402344 155.511719 171.578125 Z M 155.511719 171.578125 " fill-opacity="1" fill-rule="nonzero"/></g><path fill="#ffffff" d="M 172.15625 99.535156 C 172.316406 100.066406 172.503906 100.585938 172.726562 101.097656 C 172.945312 101.605469 173.195312 102.101562 173.476562 102.578125 C 173.753906 103.058594 174.0625 103.519531 174.394531 103.964844 C 174.730469 104.40625 175.089844 104.828125 175.472656 105.230469 C 175.859375 105.628906 176.265625 106.003906 176.695312 106.355469 C 177.121094 106.710938 177.570312 107.035156 178.039062 107.332031 C 178.507812 107.632812 178.992188 107.902344 179.492188 108.140625 C 179.992188 108.382812 180.503906 108.59375 181.027344 108.773438 C 181.554688 108.953125 182.085938 109.101562 182.628906 109.21875 C 183.171875 109.335938 183.71875 109.417969 184.273438 109.472656 C 184.824219 109.523438 185.378906 109.539062 185.933594 109.527344 C 186.488281 109.511719 187.039062 109.464844 187.589844 109.382812 C 188.136719 109.304688 188.679688 109.191406 189.214844 109.046875 C 189.75 108.902344 190.277344 108.726562 190.792969 108.519531 C 191.308594 108.3125 191.808594 108.074219 192.292969 107.808594 C 192.78125 107.542969 193.25 107.246094 193.703125 106.925781 C 194.152344 106.601562 194.585938 106.253906 194.996094 105.878906 C 195.40625 105.507812 195.789062 105.109375 196.152344 104.691406 C 196.515625 104.269531 196.855469 103.832031 197.164062 103.371094 C 197.476562 102.910156 197.757812 102.433594 198.011719 101.941406 C 198.265625 101.449219 198.488281 100.941406 198.683594 100.421875 C 198.875 99.902344 199.039062 99.371094 199.167969 98.832031 C 199.300781 98.292969 199.398438 97.746094 199.464844 97.195312 C 199.53125 96.644531 199.5625 96.089844 199.5625 95.535156 C 199.5625 94.980469 199.53125 94.429688 199.464844 93.878906 C 199.398438 93.328125 199.300781 92.78125 199.167969 92.242188 C 199.039062 91.703125 198.875 91.171875 198.683594 90.652344 C 198.488281 90.132812 198.265625 89.625 198.011719 89.132812 C 197.757812 88.640625 197.476562 88.164062 197.164062 87.703125 C 196.855469 87.242188 196.515625 86.804688 196.152344 86.382812 C 195.789062 85.964844 195.40625 85.566406 194.996094 85.191406 C 194.585938 84.820312 194.152344 84.472656 193.703125 84.148438 C 193.25 83.824219 192.78125 83.53125 192.292969 83.265625 C 191.808594 83 191.308594 82.761719 190.792969 82.554688 C 190.277344 82.347656 189.75 82.171875 189.214844 82.027344 C 188.679688 81.882812 188.136719 81.769531 187.589844 81.6875 C 187.039062 81.609375 186.488281 81.5625 185.933594 81.546875 C 185.378906 81.53125 184.824219 81.550781 184.273438 81.601562 C 183.71875 81.652344 183.171875 81.738281 182.628906 81.855469 C 182.085938 81.972656 181.554688 82.121094 181.027344 82.300781 C 180.503906 82.480469 179.992188 82.691406 179.492188 82.929688 C 178.992188 83.171875 178.507812 83.441406 178.039062 83.742188 C 177.570312 84.039062 177.121094 84.363281 176.695312 84.714844 C 176.265625 85.066406 175.859375 85.445312 175.472656 85.84375 C 175.089844 86.246094 174.730469 86.667969 174.394531 87.109375 C 174.0625 87.554688 173.753906 88.015625 173.476562 88.492188 C 173.195312 88.972656 172.945312 89.46875 172.726562 89.976562 C 172.503906 90.484375 172.316406 91.007812 172.15625 91.539062 L 135.519531 91.539062 C 134.820312 91.539062 134.164062 91.710938 133.550781 92.058594 C 132.941406 92.402344 132.457031 92.875 132.09375 93.476562 L 108.105469 133.460938 L 114.957031 137.578125 L 137.785156 99.535156 Z M 185.5 89.539062 C 185.894531 89.539062 186.285156 89.578125 186.671875 89.65625 C 187.054688 89.730469 187.429688 89.84375 187.796875 89.996094 C 188.160156 90.144531 188.503906 90.332031 188.832031 90.550781 C 189.160156 90.769531 189.460938 91.015625 189.742188 91.296875 C 190.019531 91.574219 190.269531 91.878906 190.488281 92.203125 C 190.707031 92.53125 190.890625 92.878906 191.039062 93.242188 C 191.191406 93.605469 191.304688 93.980469 191.382812 94.367188 C 191.460938 94.753906 191.496094 95.144531 191.496094 95.535156 C 191.496094 95.929688 191.460938 96.320312 191.382812 96.707031 C 191.304688 97.09375 191.191406 97.46875 191.039062 97.832031 C 190.890625 98.195312 190.707031 98.542969 190.488281 98.867188 C 190.269531 99.195312 190.019531 99.5 189.742188 99.777344 C 189.460938 100.054688 189.160156 100.304688 188.832031 100.523438 C 188.503906 100.742188 188.160156 100.925781 187.796875 101.078125 C 187.429688 101.226562 187.054688 101.34375 186.671875 101.417969 C 186.285156 101.496094 185.894531 101.535156 185.5 101.535156 C 185.105469 101.535156 184.714844 101.496094 184.328125 101.417969 C 183.945312 101.34375 183.570312 101.226562 183.203125 101.078125 C 182.839844 100.925781 182.496094 100.742188 182.167969 100.523438 C 181.839844 100.304688 181.539062 100.054688 181.257812 99.777344 C 180.980469 99.5 180.730469 99.195312 180.511719 98.867188 C 180.292969 98.542969 180.109375 98.195312 179.957031 97.832031 C 179.808594 97.46875 179.695312 97.09375 179.617188 96.707031 C 179.539062 96.320312 179.503906 95.929688 179.503906 95.535156 C 179.503906 95.144531 179.539062 94.753906 179.617188 94.367188 C 179.695312 93.980469 179.808594 93.605469 179.957031 93.242188 C 180.109375 92.878906 180.292969 92.53125 180.511719 92.203125 C 180.730469 91.878906 180.980469 91.574219 181.257812 91.296875 C 181.539062 91.015625 181.839844 90.769531 182.167969 90.550781 C 182.496094 90.332031 182.839844 90.148438 183.203125 89.996094 C 183.570312 89.84375 183.945312 89.730469 184.328125 89.65625 C 184.714844 89.578125 185.105469 89.539062 185.5 89.539062 Z M 185.5 89.539062 " fill-opacity="1" fill-rule="nonzero"/><g clip-path="url(#ac0fd26017)"><path fill="#ffffff" d="M 279.460938 127.523438 C 279.722656 127.523438 279.984375 127.5 280.242188 127.445312 C 280.5 127.394531 280.75 127.320312 280.992188 127.21875 C 281.234375 127.117188 281.464844 126.996094 281.683594 126.851562 C 281.902344 126.703125 282.101562 126.539062 282.289062 126.351562 C 282.472656 126.167969 282.640625 125.964844 282.785156 125.746094 C 282.933594 125.527344 283.054688 125.296875 283.15625 125.054688 C 283.257812 124.8125 283.332031 124.5625 283.382812 124.304688 C 283.433594 124.046875 283.460938 123.789062 283.460938 123.523438 L 283.460938 67.546875 C 283.460938 67.285156 283.433594 67.027344 283.382812 66.769531 C 283.332031 66.511719 283.257812 66.261719 283.15625 66.019531 C 283.054688 65.777344 282.933594 65.546875 282.785156 65.328125 C 282.640625 65.109375 282.472656 64.90625 282.289062 64.722656 C 282.101562 64.535156 281.902344 64.371094 281.683594 64.222656 C 281.464844 64.078125 281.234375 63.953125 280.992188 63.855469 C 280.75 63.753906 280.5 63.679688 280.242188 63.625 C 279.984375 63.574219 279.722656 63.550781 279.460938 63.550781 L 215.488281 63.550781 C 215.226562 63.550781 214.964844 63.574219 214.707031 63.625 C 214.449219 63.679688 214.199219 63.753906 213.957031 63.855469 C 213.714844 63.953125 213.484375 64.078125 213.265625 64.222656 C 213.046875 64.371094 212.847656 64.535156 212.660156 64.722656 C 212.476562 64.90625 212.308594 65.109375 212.164062 65.328125 C 212.015625 65.546875 211.894531 65.777344 211.792969 66.019531 C 211.691406 66.261719 211.617188 66.511719 211.566406 66.769531 C 211.515625 67.027344 211.488281 67.285156 211.488281 67.546875 L 211.488281 123.523438 C 211.488281 123.789062 211.515625 124.046875 211.566406 124.304688 C 211.617188 124.5625 211.691406 124.8125 211.792969 125.054688 C 211.894531 125.296875 212.015625 125.527344 212.164062 125.746094 C 212.308594 125.964844 212.476562 126.167969 212.660156 126.351562 C 212.847656 126.539062 213.046875 126.703125 213.265625 126.851562 C 213.484375 126.996094 213.714844 127.117188 213.957031 127.21875 C 214.199219 127.320312 214.449219 127.394531 214.707031 127.445312 C 214.964844 127.5 215.226562 127.523438 215.488281 127.523438 Z M 219.484375 71.546875 L 275.464844 71.546875 L 275.464844 119.527344 L 219.484375 119.527344 Z M 219.484375 71.546875 " fill-opacity="1" fill-rule="nonzero"/></g><path fill="#ffffff" d="M 227.484375 79.542969 L 267.464844 79.542969 L 267.464844 87.539062 L 227.484375 87.539062 Z M 227.484375 79.542969 " fill-opacity="1" fill-rule="nonzero"/><path fill="#ffffff" d="M 227.484375 99.535156 L 239.476562 99.535156 L 239.476562 107.53125 L 227.484375 107.53125 Z M 227.484375 99.535156 " fill-opacity="1" fill-rule="nonzero"/><path fill="#ffffff" d="M 247.472656 99.535156 L 267.464844 99.535156 L 267.464844 107.53125 L 247.472656 107.53125 Z M 247.472656 99.535156 " fill-opacity="1" fill-rule="nonzero"/><path fill="#ffffff" d="M 237.214844 275.464844 L 202.828125 275.464844 C 202.671875 274.929688 202.480469 274.410156 202.261719 273.902344 C 202.039062 273.390625 201.789062 272.898438 201.511719 272.417969 C 201.230469 271.9375 200.925781 271.476562 200.589844 271.035156 C 200.257812 270.589844 199.898438 270.167969 199.511719 269.769531 C 199.128906 269.367188 198.722656 268.992188 198.292969 268.640625 C 197.863281 268.289062 197.414062 267.964844 196.945312 267.664062 C 196.480469 267.367188 195.996094 267.097656 195.496094 266.855469 C 194.996094 266.613281 194.484375 266.402344 193.957031 266.222656 C 193.433594 266.042969 192.898438 265.894531 192.355469 265.777344 C 191.816406 265.664062 191.265625 265.578125 190.714844 265.527344 C 190.160156 265.476562 189.609375 265.457031 189.054688 265.472656 C 188.5 265.488281 187.945312 265.535156 187.398438 265.613281 C 186.847656 265.695312 186.304688 265.804688 185.769531 265.949219 C 185.234375 266.09375 184.710938 266.269531 184.195312 266.480469 C 183.679688 266.6875 183.179688 266.921875 182.691406 267.1875 C 182.207031 267.457031 181.734375 267.75 181.285156 268.074219 C 180.832031 268.394531 180.402344 268.742188 179.992188 269.117188 C 179.582031 269.492188 179.195312 269.886719 178.832031 270.308594 C 178.46875 270.726562 178.132812 271.167969 177.820312 271.628906 C 177.511719 272.085938 177.230469 272.5625 176.976562 273.058594 C 176.722656 273.550781 176.496094 274.058594 176.304688 274.578125 C 176.109375 275.097656 175.949219 275.628906 175.816406 276.167969 C 175.6875 276.707031 175.589844 277.25 175.523438 277.800781 C 175.457031 278.351562 175.421875 278.90625 175.421875 279.460938 C 175.421875 280.015625 175.457031 280.570312 175.523438 281.121094 C 175.589844 281.671875 175.6875 282.214844 175.816406 282.757812 C 175.949219 283.296875 176.109375 283.824219 176.304688 284.34375 C 176.496094 284.863281 176.722656 285.371094 176.976562 285.867188 C 177.230469 286.359375 177.511719 286.835938 177.820312 287.296875 C 178.132812 287.753906 178.46875 288.195312 178.832031 288.613281 C 179.195312 289.035156 179.582031 289.429688 179.992188 289.804688 C 180.402344 290.179688 180.832031 290.527344 181.285156 290.847656 C 181.734375 291.171875 182.207031 291.464844 182.691406 291.734375 C 183.179688 292 183.679688 292.238281 184.195312 292.445312 C 184.710938 292.652344 185.234375 292.828125 185.769531 292.972656 C 186.304688 293.117188 186.847656 293.230469 187.398438 293.308594 C 187.945312 293.390625 188.5 293.4375 189.054688 293.449219 C 189.609375 293.464844 190.160156 293.445312 190.714844 293.394531 C 191.265625 293.34375 191.816406 293.261719 192.355469 293.144531 C 192.898438 293.027344 193.433594 292.878906 193.957031 292.699219 C 194.484375 292.519531 194.996094 292.308594 195.496094 292.066406 C 195.996094 291.824219 196.480469 291.554688 196.945312 291.257812 C 197.414062 290.960938 197.863281 290.632812 198.292969 290.28125 C 198.722656 289.929688 199.128906 289.554688 199.511719 289.152344 C 199.898438 288.753906 200.257812 288.332031 200.589844 287.886719 C 200.925781 287.445312 201.230469 286.984375 201.511719 286.503906 C 201.789062 286.023438 202.039062 285.53125 202.261719 285.019531 C 202.480469 284.511719 202.671875 283.992188 202.828125 283.460938 L 239.476562 283.460938 C 240.179688 283.460938 240.835938 283.285156 241.445312 282.941406 C 242.058594 282.59375 242.542969 282.121094 242.90625 281.519531 L 266.894531 241.535156 L 260.042969 237.417969 Z M 189.5 285.457031 C 189.105469 285.457031 188.714844 285.421875 188.328125 285.34375 C 187.941406 285.265625 187.566406 285.152344 187.203125 285.003906 C 186.839844 284.851562 186.492188 284.667969 186.167969 284.449219 C 185.839844 284.230469 185.535156 283.980469 185.257812 283.703125 C 184.980469 283.425781 184.730469 283.121094 184.511719 282.792969 C 184.292969 282.464844 184.109375 282.121094 183.957031 281.757812 C 183.804688 281.394531 183.691406 281.019531 183.617188 280.632812 C 183.539062 280.246094 183.5 279.855469 183.5 279.460938 C 183.5 279.066406 183.539062 278.675781 183.617188 278.292969 C 183.691406 277.90625 183.804688 277.53125 183.957031 277.167969 C 184.109375 276.800781 184.292969 276.457031 184.511719 276.128906 C 184.730469 275.800781 184.980469 275.5 185.257812 275.21875 C 185.535156 274.941406 185.839844 274.695312 186.167969 274.476562 C 186.492188 274.253906 186.839844 274.070312 187.203125 273.921875 C 187.566406 273.769531 187.941406 273.65625 188.328125 273.578125 C 188.714844 273.503906 189.105469 273.464844 189.5 273.464844 C 189.890625 273.464844 190.28125 273.503906 190.667969 273.578125 C 191.054688 273.65625 191.429688 273.769531 191.792969 273.921875 C 192.15625 274.070312 192.503906 274.253906 192.832031 274.476562 C 193.15625 274.695312 193.460938 274.941406 193.738281 275.21875 C 194.019531 275.5 194.265625 275.800781 194.484375 276.128906 C 194.703125 276.457031 194.886719 276.800781 195.039062 277.167969 C 195.191406 277.53125 195.304688 277.90625 195.378906 278.292969 C 195.457031 278.675781 195.496094 279.066406 195.496094 279.460938 C 195.496094 279.855469 195.457031 280.246094 195.378906 280.632812 C 195.304688 281.019531 195.191406 281.394531 195.039062 281.757812 C 194.886719 282.121094 194.703125 282.464844 194.484375 282.792969 C 194.265625 283.121094 194.019531 283.425781 193.738281 283.703125 C 193.460938 283.980469 193.15625 284.230469 192.832031 284.449219 C 192.503906 284.667969 192.15625 284.851562 191.792969 285.003906 C 191.429688 285.152344 191.054688 285.265625 190.667969 285.34375 C 190.28125 285.421875 189.890625 285.457031 189.5 285.457031 Z M 189.5 285.457031 " fill-opacity="1" fill-rule="nonzero"/><g clip-path="url(#498652ddba)"><path fill="#ffffff" d="M 159.511719 247.472656 L 95.535156 247.472656 C 95.273438 247.472656 95.015625 247.5 94.757812 247.550781 C 94.5 247.601562 94.25 247.679688 94.007812 247.777344 C 93.765625 247.878906 93.535156 248.003906 93.316406 248.148438 C 93.097656 248.292969 92.894531 248.460938 92.710938 248.644531 C 92.523438 248.832031 92.359375 249.035156 92.210938 249.25 C 92.066406 249.46875 91.941406 249.699219 91.84375 249.941406 C 91.742188 250.183594 91.667969 250.433594 91.617188 250.691406 C 91.5625 250.949219 91.539062 251.210938 91.539062 251.472656 L 91.539062 307.449219 C 91.539062 307.710938 91.5625 307.972656 91.617188 308.230469 C 91.667969 308.488281 91.742188 308.738281 91.84375 308.980469 C 91.941406 309.222656 92.066406 309.453125 92.210938 309.671875 C 92.359375 309.890625 92.523438 310.089844 92.710938 310.277344 C 92.894531 310.460938 93.097656 310.628906 93.316406 310.773438 C 93.535156 310.921875 93.765625 311.042969 94.007812 311.144531 C 94.25 311.246094 94.5 311.320312 94.757812 311.371094 C 95.015625 311.421875 95.273438 311.449219 95.535156 311.449219 L 159.511719 311.449219 C 159.773438 311.449219 160.03125 311.421875 160.289062 311.371094 C 160.546875 311.320312 160.796875 311.246094 161.039062 311.144531 C 161.285156 311.042969 161.511719 310.921875 161.730469 310.773438 C 161.949219 310.628906 162.152344 310.460938 162.335938 310.277344 C 162.523438 310.089844 162.6875 309.890625 162.835938 309.671875 C 162.980469 309.453125 163.105469 309.222656 163.203125 308.980469 C 163.304688 308.738281 163.382812 308.488281 163.433594 308.230469 C 163.484375 307.972656 163.507812 307.710938 163.507812 307.449219 L 163.507812 251.472656 C 163.507812 251.210938 163.484375 250.949219 163.433594 250.691406 C 163.382812 250.433594 163.304688 250.183594 163.203125 249.941406 C 163.105469 249.699219 162.980469 249.46875 162.835938 249.25 C 162.6875 249.035156 162.523438 248.832031 162.335938 248.644531 C 162.152344 248.460938 161.949219 248.292969 161.730469 248.148438 C 161.511719 248.003906 161.285156 247.878906 161.039062 247.777344 C 160.796875 247.679688 160.546875 247.601562 160.289062 247.550781 C 160.03125 247.5 159.773438 247.472656 159.511719 247.472656 Z M 155.511719 303.453125 L 99.535156 303.453125 L 99.535156 255.472656 L 155.511719 255.472656 Z M 155.511719 303.453125 " fill-opacity="1" fill-rule="nonzero"/></g><path fill="#ffffff" d="M 107.53125 287.457031 L 147.515625 287.457031 L 147.515625 295.453125 L 107.53125 295.453125 Z M 107.53125 287.457031 " fill-opacity="1" fill-rule="nonzero"/><path fill="#ffffff" d="M 135.519531 267.464844 L 147.515625 267.464844 L 147.515625 275.464844 L 135.519531 275.464844 Z M 135.519531 267.464844 " fill-opacity="1" fill-rule="nonzero"/><path fill="#ffffff" d="M 107.53125 267.464844 L 127.523438 267.464844 L 127.523438 275.464844 L 107.53125 275.464844 Z M 107.53125 267.464844 " fill-opacity="1" fill-rule="nonzero"/></svg>