<svg xmlns="http://www.w3.org/2000/svg" xmlns:xlink="http://www.w3.org/1999/xlink" width="500" zoomAndPan="magnify" viewBox="0 0 375 374.999991" height="500" preserveAspectRatio="xMidYMid meet" version="1.0"><defs><clipPath id="54ac02bcf4"><path d="M 0 347.921875 L 27.078125 347.921875 L 27.078125 375 L 0 375 Z M 0 347.921875 " clip-rule="nonzero"/></clipPath><clipPath id="c570f7a8d6"><path d="M 13.539062 347.921875 C 6.0625 347.921875 0 353.984375 0 361.460938 C 0 368.9375 6.0625 375 13.539062 375 C 21.015625 375 27.078125 368.9375 27.078125 361.460938 C 27.078125 353.984375 21.015625 347.921875 13.539062 347.921875 Z M 13.539062 347.921875 " clip-rule="nonzero"/></clipPath><clipPath id="9a0f8302c3"><path d="M 0 304.433594 L 27.078125 304.433594 L 27.078125 331.507812 L 0 331.507812 Z M 0 304.433594 " clip-rule="nonzero"/></clipPath><clipPath id="da766edca1"><path d="M 13.539062 304.433594 C 6.0625 304.433594 0 310.496094 0 317.972656 C 0 325.449219 6.0625 331.507812 13.539062 331.507812 C 21.015625 331.507812 27.078125 325.449219 27.078125 317.972656 C 27.078125 310.496094 21.015625 304.433594 13.539062 304.433594 Z M 13.539062 304.433594 " clip-rule="nonzero"/></clipPath><clipPath id="beddffc694"><path d="M 0 0 L 27.078125 0 L 27.078125 27.078125 L 0 27.078125 Z M 0 0 " clip-rule="nonzero"/></clipPath><clipPath id="f1795e7da3"><path d="M 13.539062 0 C 6.0625 0 0 6.0625 0 13.539062 C 0 21.015625 6.0625 27.078125 13.539062 27.078125 C 21.015625 27.078125 27.078125 21.015625 27.078125 13.539062 C 27.078125 6.0625 21.015625 0 13.539062 0 Z M 13.539062 0 " clip-rule="nonzero"/></clipPath><clipPath id="0e60d3ad99"><path d="M 0 43.492188 L 27.078125 43.492188 L 27.078125 70.566406 L 0 70.566406 Z M 0 43.492188 " clip-rule="nonzero"/></clipPath><clipPath id="ddf18a6c2b"><path d="M 13.539062 43.492188 C 6.0625 43.492188 0 49.550781 0 57.027344 C 0 64.503906 6.0625 70.566406 13.539062 70.566406 C 21.015625 70.566406 27.078125 64.503906 27.078125 57.027344 C 27.078125 49.550781 21.015625 43.492188 13.539062 43.492188 Z M 13.539062 43.492188 " clip-rule="nonzero"/></clipPath><clipPath id="19259436f1"><path d="M 0 86.980469 L 27.078125 86.980469 L 27.078125 114.058594 L 0 114.058594 Z M 0 86.980469 " clip-rule="nonzero"/></clipPath><clipPath id="44274ff211"><path d="M 13.539062 86.980469 C 6.0625 86.980469 0 93.042969 0 100.519531 C 0 107.996094 6.0625 114.058594 13.539062 114.058594 C 21.015625 114.058594 27.078125 107.996094 27.078125 100.519531 C 27.078125 93.042969 21.015625 86.980469 13.539062 86.980469 Z M 13.539062 86.980469 " clip-rule="nonzero"/></clipPath><clipPath id="be56cae701"><path d="M 0 130.472656 L 27.078125 130.472656 L 27.078125 157.546875 L 0 157.546875 Z M 0 130.472656 " clip-rule="nonzero"/></clipPath><clipPath id="18a881c6b4"><path d="M 13.539062 130.472656 C 6.0625 130.472656 0 136.53125 0 144.007812 C 0 151.488281 6.0625 157.546875 13.539062 157.546875 C 21.015625 157.546875 27.078125 151.488281 27.078125 144.007812 C 27.078125 136.53125 21.015625 130.472656 13.539062 130.472656 Z M 13.539062 130.472656 " clip-rule="nonzero"/></clipPath><clipPath id="1bfb4428d6"><path d="M 0 173.960938 L 27.078125 173.960938 L 27.078125 201.039062 L 0 201.039062 Z M 0 173.960938 " clip-rule="nonzero"/></clipPath><clipPath id="2092ae4c42"><path d="M 13.539062 173.960938 C 6.0625 173.960938 0 180.023438 0 187.5 C 0 194.976562 6.0625 201.039062 13.539062 201.039062 C 21.015625 201.039062 27.078125 194.976562 27.078125 187.5 C 27.078125 180.023438 21.015625 173.960938 13.539062 173.960938 Z M 13.539062 173.960938 " clip-rule="nonzero"/></clipPath><clipPath id="14760d21ec"><path d="M 0 217.453125 L 27.078125 217.453125 L 27.078125 244.527344 L 0 244.527344 Z M 0 217.453125 " clip-rule="nonzero"/></clipPath><clipPath id="989e7dfbb7"><path d="M 13.539062 217.453125 C 6.0625 217.453125 0 223.511719 0 230.992188 C 0 238.46875 6.0625 244.527344 13.539062 244.527344 C 21.015625 244.527344 27.078125 238.46875 27.078125 230.992188 C 27.078125 223.511719 21.015625 217.453125 13.539062 217.453125 Z M 13.539062 217.453125 " clip-rule="nonzero"/></clipPath><clipPath id="4386b3e72f"><path d="M 0 260.941406 L 27.078125 260.941406 L 27.078125 288.019531 L 0 288.019531 Z M 0 260.941406 " clip-rule="nonzero"/></clipPath><clipPath id="be6575f9e3"><path d="M 13.539062 260.941406 C 6.0625 260.941406 0 267.003906 0 274.480469 C 0 281.957031 6.0625 288.019531 13.539062 288.019531 C 21.015625 288.019531 27.078125 281.957031 27.078125 274.480469 C 27.078125 267.003906 21.015625 260.941406 13.539062 260.941406 Z M 13.539062 260.941406 " clip-rule="nonzero"/></clipPath><clipPath id="17b0a8baae"><path d="M 7.691406 5.257812 L 18.941406 5.257812 L 18.941406 21 L 7.691406 21 Z M 7.691406 5.257812 " clip-rule="nonzero"/></clipPath><clipPath id="dce7fbf46f"><path d="M 5 48 L 23 48 L 23 66.539062 L 5 66.539062 Z M 5 48 " clip-rule="nonzero"/></clipPath><clipPath id="d3c225561f"><path d="M 9.1875 135 L 18 135 L 18 153 L 9.1875 153 Z M 9.1875 135 " clip-rule="nonzero"/></clipPath><clipPath id="cff7d9b179"><path d="M 8 90.71875 L 19.058594 90.71875 L 19.058594 108.71875 L 8 108.71875 Z M 8 90.71875 " clip-rule="nonzero"/></clipPath><clipPath id="02f0396083"><path d="M 8 178.949219 L 10 178.949219 L 10 182 L 8 182 Z M 8 178.949219 " clip-rule="nonzero"/></clipPath><clipPath id="dfe602707f"><path d="M 10 178.949219 L 12 178.949219 L 12 182 L 10 182 Z M 10 178.949219 " clip-rule="nonzero"/></clipPath><clipPath id="2154aafa7b"><path d="M 12 178.949219 L 14 178.949219 L 14 182 L 12 182 Z M 12 178.949219 " clip-rule="nonzero"/></clipPath><clipPath id="45be332a8e"><path d="M 6.839844 178.949219 L 15 178.949219 L 15 182 L 6.839844 182 Z M 6.839844 178.949219 " clip-rule="nonzero"/></clipPath><clipPath id="8ebaee2e07"><path d="M 11 185 L 21.839844 185 L 21.839844 195.449219 L 11 195.449219 Z M 11 185 " clip-rule="nonzero"/></clipPath><clipPath id="c9566e3360"><path d="M 7 181 L 14 181 L 14 195.449219 L 7 195.449219 Z M 7 181 " clip-rule="nonzero"/></clipPath><clipPath id="9916a9bf60"><path d="M 7 188 L 14 188 L 14 195.449219 L 7 195.449219 Z M 7 188 " clip-rule="nonzero"/></clipPath><clipPath id="cf5f3da638"><path d="M 6.96875 354.414062 L 23.46875 354.414062 L 23.46875 370.914062 L 6.96875 370.914062 Z M 6.96875 354.414062 " clip-rule="nonzero"/></clipPath><clipPath id="db325ba9c2"><path d="M 10 271 L 22.492188 271 L 22.492188 278 L 10 278 Z M 10 271 " clip-rule="nonzero"/></clipPath><clipPath id="c6c0155945"><path d="M 5.992188 274 L 10 274 L 10 278 L 5.992188 278 Z M 5.992188 274 " clip-rule="nonzero"/></clipPath><clipPath id="64a8a821a4"><path d="M 18 271 L 22.492188 271 L 22.492188 276 L 18 276 Z M 18 271 " clip-rule="nonzero"/></clipPath><clipPath id="4847b3a827"><path d="M 5.992188 271 L 18 271 L 18 278 L 5.992188 278 Z M 5.992188 271 " clip-rule="nonzero"/></clipPath><clipPath id="6c30a1fdac"><path d="M 15 265.984375 L 21 265.984375 L 21 271 L 15 271 Z M 15 265.984375 " clip-rule="nonzero"/></clipPath><clipPath id="d5bb7a5fc8"><path d="M 7 278 L 13 278 L 13 282.484375 L 7 282.484375 Z M 7 278 " clip-rule="nonzero"/></clipPath><clipPath id="bc6b4fe7e0"><path d="M 13 313 L 22.308594 313 L 22.308594 325.515625 L 13 325.515625 Z M 13 313 " clip-rule="nonzero"/></clipPath><clipPath id="ed6b556bf3"><path d="M 6.558594 309.765625 L 13 309.765625 L 13 325.515625 L 6.558594 325.515625 Z M 6.558594 309.765625 " clip-rule="nonzero"/></clipPath><clipPath id="69053dbb73"><path d="M 5.863281 223.121094 L 20.863281 223.121094 L 20.863281 238.121094 L 5.863281 238.121094 Z M 5.863281 223.121094 " clip-rule="nonzero"/></clipPath></defs><g clip-path="url(#54ac02bcf4)"><g clip-path="url(#c570f7a8d6)"><path fill="#233c4b" d="M 0 347.921875 L 27.078125 347.921875 L 27.078125 375 L 0 375 Z M 0 347.921875 " fill-opacity="1" fill-rule="nonzero"/></g></g><g clip-path="url(#9a0f8302c3)"><g clip-path="url(#da766edca1)"><path fill="#233c4b" d="M 0 304.433594 L 27.078125 304.433594 L 27.078125 331.507812 L 0 331.507812 Z M 0 304.433594 " fill-opacity="1" fill-rule="nonzero"/></g></g><g clip-path="url(#beddffc694)"><g clip-path="url(#f1795e7da3)"><path fill="#233c4b" d="M 0 0 L 27.078125 0 L 27.078125 27.078125 L 0 27.078125 Z M 0 0 " fill-opacity="1" fill-rule="nonzero"/></g></g><g clip-path="url(#0e60d3ad99)"><g clip-path="url(#ddf18a6c2b)"><path fill="#233c4b" d="M 0 43.492188 L 27.078125 43.492188 L 27.078125 70.566406 L 0 70.566406 Z M 0 43.492188 " fill-opacity="1" fill-rule="nonzero"/></g></g><g clip-path="url(#19259436f1)"><g clip-path="url(#44274ff211)"><path fill="#233c4b" d="M 0 86.980469 L 27.078125 86.980469 L 27.078125 114.058594 L 0 114.058594 Z M 0 86.980469 " fill-opacity="1" fill-rule="nonzero"/></g></g><g clip-path="url(#be56cae701)"><g clip-path="url(#18a881c6b4)"><path fill="#233c4b" d="M 0 130.472656 L 27.078125 130.472656 L 27.078125 157.546875 L 0 157.546875 Z M 0 130.472656 " fill-opacity="1" fill-rule="nonzero"/></g></g><g clip-path="url(#1bfb4428d6)"><g clip-path="url(#2092ae4c42)"><path fill="#233c4b" d="M 0 173.960938 L 27.078125 173.960938 L 27.078125 201.039062 L 0 201.039062 Z M 0 173.960938 " fill-opacity="1" fill-rule="nonzero"/></g></g><g clip-path="url(#14760d21ec)"><g clip-path="url(#989e7dfbb7)"><path fill="#233c4b" d="M 0 217.453125 L 27.078125 217.453125 L 27.078125 244.527344 L 0 244.527344 Z M 0 217.453125 " fill-opacity="1" fill-rule="nonzero"/></g></g><g clip-path="url(#4386b3e72f)"><g clip-path="url(#be6575f9e3)"><path fill="#233c4b" d="M 0 260.941406 L 27.078125 260.941406 L 27.078125 288.019531 L 0 288.019531 Z M 0 260.941406 " fill-opacity="1" fill-rule="nonzero"/></g></g><g clip-path="url(#17b0a8baae)"><path fill="#ffffff" d="M 19.273438 9.855469 C 19.269531 9.460938 19.175781 9.089844 18.988281 8.738281 C 18.800781 8.390625 18.542969 8.105469 18.214844 7.882812 C 18.214844 7.722656 18.214844 6.539062 18.214844 6.324219 C 18.324219 6.34375 18.425781 6.328125 18.519531 6.269531 C 18.613281 6.214844 18.679688 6.136719 18.714844 6.03125 C 18.722656 5.90625 18.726562 5.78125 18.722656 5.652344 C 18.714844 5.539062 18.671875 5.445312 18.589844 5.367188 C 18.503906 5.289062 18.40625 5.253906 18.292969 5.257812 C 15.203125 5.257812 12.109375 5.261719 9.019531 5.257812 C 8.890625 5.253906 8.761719 5.257812 8.628906 5.265625 C 8.402344 5.296875 8.285156 5.429688 8.277344 5.65625 C 8.269531 5.785156 8.273438 5.914062 8.289062 6.042969 C 8.320312 6.140625 8.382812 6.214844 8.46875 6.269531 C 8.558594 6.320312 8.652344 6.339844 8.753906 6.324219 C 8.757812 6.535156 8.757812 7.734375 8.75 7.898438 C 8.414062 8.125 8.15625 8.417969 7.96875 8.777344 C 7.78125 9.136719 7.691406 9.519531 7.695312 9.925781 C 7.695312 12.671875 7.695312 15.417969 7.695312 18.164062 C 7.6875 18.398438 7.695312 18.632812 7.726562 18.867188 C 7.8125 19.371094 8.03125 19.8125 8.382812 20.1875 C 8.738281 20.558594 9.164062 20.800781 9.667969 20.914062 C 9.984375 20.96875 10.304688 20.988281 10.625 20.972656 C 10.742188 20.972656 10.855469 20.972656 10.96875 20.972656 C 11.402344 20.972656 11.832031 20.972656 12.261719 20.972656 C 12.746094 20.972656 13.226562 20.972656 13.710938 20.972656 L 14.972656 20.972656 C 15.558594 20.972656 16.144531 20.972656 16.730469 20.972656 C 17.242188 20.976562 17.714844 20.839844 18.144531 20.566406 C 18.496094 20.339844 18.769531 20.042969 18.96875 19.679688 C 19.167969 19.316406 19.269531 18.925781 19.273438 18.507812 C 19.277344 15.625 19.277344 12.738281 19.273438 9.855469 Z M 18.355469 17.875 C 18.234375 17.691406 18.09375 17.523438 17.933594 17.371094 C 17.28125 16.746094 16.441406 16.371094 15.78125 15.753906 C 15.292969 15.308594 14.921875 14.78125 14.667969 14.171875 C 14.433594 13.628906 14.296875 13.054688 14.082031 12.503906 C 14.011719 12.300781 13.90625 12.109375 13.773438 11.9375 C 13.710938 11.859375 13.628906 11.824219 13.53125 11.828125 C 13.375 11.902344 13.261719 12.019531 13.195312 12.175781 C 12.644531 13.25 12.433594 14.503906 11.667969 15.464844 C 10.984375 16.328125 9.941406 16.769531 9.109375 17.460938 C 8.914062 17.621094 8.742188 17.800781 8.597656 18.007812 C 8.59375 15.3125 8.59375 12.617188 8.59375 9.925781 C 8.59375 9.59375 8.691406 9.296875 8.898438 9.035156 C 9.105469 8.777344 9.371094 8.609375 9.695312 8.535156 C 9.769531 8.527344 9.839844 8.527344 9.914062 8.527344 C 12.285156 8.519531 14.65625 8.523438 17.03125 8.523438 C 17.753906 8.507812 18.351562 9.203125 18.355469 9.902344 C 18.355469 12.558594 18.355469 15.21875 18.355469 17.875 Z M 18.355469 17.875 " fill-opacity="1" fill-rule="nonzero"/></g><path stroke-linecap="butt" transform="matrix(0, -0.75, 0.75, 0, 12.407494, 350.029196)" fill="none" stroke-linejoin="miter" d="M 0.00246995 1.498342 L 438.02854 1.498342 " stroke="#233c4b" stroke-width="3" stroke-opacity="1" stroke-miterlimit="4"/><g clip-path="url(#dce7fbf46f)"><path fill="#fdfdfe" d="M 22.472656 57.851562 L 13.839844 49.21875 C 13.5625 48.941406 13.175781 48.796875 12.785156 48.824219 L 7.183594 49.195312 C 6.5 49.242188 5.957031 49.785156 5.910156 50.46875 L 5.539062 56.070312 C 5.511719 56.460938 5.65625 56.847656 5.933594 57.125 L 14.566406 65.757812 C 15.101562 66.289062 15.964844 66.289062 16.496094 65.757812 L 22.472656 59.78125 C 23.003906 59.25 23.003906 58.386719 22.472656 57.851562 Z M 12.964844 50.09375 L 21.597656 58.726562 C 21.644531 58.777344 21.644531 58.859375 21.597656 58.90625 C 21.597656 58.90625 15.621094 64.882812 15.621094 64.882812 C 15.574219 64.929688 15.492188 64.929688 15.441406 64.882812 C 15.441406 64.882812 6.808594 56.25 6.808594 56.25 C 6.785156 56.222656 6.769531 56.1875 6.773438 56.152344 L 7.148438 50.550781 C 7.152344 50.488281 7.203125 50.4375 7.265625 50.433594 L 12.867188 50.058594 C 12.902344 50.054688 12.9375 50.070312 12.964844 50.09375 Z M 12.964844 50.09375 " fill-opacity="1" fill-rule="evenodd"/></g><path fill="#fdfdfe" d="M 9.558594 51.296875 C 8.707031 51.296875 8.011719 51.992188 8.011719 52.84375 C 8.011719 53.699219 8.707031 54.394531 9.558594 54.394531 C 10.414062 54.394531 11.109375 53.699219 11.109375 52.84375 C 11.109375 51.992188 10.414062 51.296875 9.558594 51.296875 Z M 9.558594 52.535156 C 9.730469 52.535156 9.871094 52.675781 9.871094 52.84375 C 9.871094 53.015625 9.730469 53.15625 9.558594 53.15625 C 9.390625 53.15625 9.25 53.015625 9.25 52.84375 C 9.25 52.675781 9.390625 52.535156 9.558594 52.535156 Z M 9.558594 52.535156 " fill-opacity="1" fill-rule="evenodd"/><g clip-path="url(#d3c225561f)"><path fill="#fdfdfe" d="M 16.078125 137.664062 L 15.835938 137.664062 C 15.625 137.664062 15.457031 137.832031 15.457031 138.042969 L 15.457031 149.570312 C 15.457031 150.695312 14.542969 151.609375 13.417969 151.609375 C 12.292969 151.609375 11.378906 150.695312 11.378906 149.570312 L 11.378906 138.042969 C 11.378906 137.832031 11.207031 137.664062 11 137.664062 L 10.714844 137.664062 C 10.296875 137.664062 9.957031 137.324219 9.957031 136.902344 C 9.957031 136.484375 10.296875 136.144531 10.714844 136.144531 L 16.078125 136.144531 C 16.5 136.144531 16.839844 136.484375 16.839844 136.902344 C 16.839844 137.324219 16.5 137.664062 16.078125 137.664062 Z M 16.078125 135.386719 L 10.714844 135.386719 C 9.878906 135.386719 9.199219 136.066406 9.199219 136.902344 C 9.199219 137.707031 9.828125 138.367188 10.621094 138.417969 L 10.621094 149.570312 C 10.621094 151.109375 11.875 152.367188 13.417969 152.367188 C 14.957031 152.367188 16.214844 151.109375 16.214844 149.570312 L 16.214844 138.414062 C 16.988281 138.347656 17.597656 137.695312 17.597656 136.902344 C 17.597656 136.066406 16.917969 135.386719 16.078125 135.386719 " fill-opacity="1" fill-rule="nonzero"/></g><path fill="#fdfdfe" d="M 13.941406 149.570312 C 13.941406 149.859375 13.707031 150.09375 13.417969 150.09375 C 13.128906 150.09375 12.890625 149.859375 12.890625 149.570312 L 12.890625 141.605469 L 13.941406 141.605469 Z M 14.320312 140.851562 L 12.511719 140.851562 C 12.304688 140.851562 12.132812 141.019531 12.132812 141.226562 L 12.132812 149.570312 C 12.132812 150.277344 12.710938 150.851562 13.417969 150.851562 C 14.125 150.851562 14.699219 150.277344 14.699219 149.570312 L 14.699219 141.226562 C 14.699219 141.019531 14.53125 140.851562 14.320312 140.851562 " fill-opacity="1" fill-rule="nonzero"/><g clip-path="url(#cff7d9b179)"><path fill="#fdfdfe" d="M 11.902344 97.601562 C 11.902344 97.265625 12.171875 96.992188 12.507812 96.992188 C 12.84375 96.992188 13.113281 97.265625 13.113281 97.601562 C 13.113281 97.9375 12.84375 98.207031 12.507812 98.207031 C 12.171875 98.207031 11.902344 97.9375 11.902344 97.601562 Z M 13.605469 108.25 C 10.929688 108.25 8.753906 106.074219 8.753906 103.398438 C 8.753906 101.453125 9.910156 99.699219 11.699219 98.933594 C 11.804688 98.886719 11.867188 98.789062 11.882812 98.675781 C 12.066406 98.785156 12.277344 98.851562 12.507812 98.851562 C 13.195312 98.851562 13.757812 98.289062 13.757812 97.601562 C 13.757812 96.914062 13.195312 96.351562 12.507812 96.351562 C 12.28125 96.351562 12.074219 96.414062 11.894531 96.519531 L 11.894531 96.125 C 11.894531 95.949219 11.75 95.804688 11.570312 95.804688 L 11.332031 95.804688 C 10.976562 95.804688 10.6875 95.515625 10.6875 95.160156 C 10.6875 94.804688 10.976562 94.515625 11.332031 94.515625 L 15.882812 94.515625 C 16.238281 94.515625 16.527344 94.804688 16.527344 95.160156 C 16.527344 95.515625 16.238281 95.804688 15.882812 95.804688 L 15.675781 95.804688 C 15.496094 95.804688 15.355469 95.949219 15.355469 96.125 L 15.355469 98.652344 C 15.355469 98.78125 15.429688 98.894531 15.546875 98.949219 C 17.316406 99.722656 18.460938 101.46875 18.460938 103.398438 C 18.460938 106.074219 16.285156 108.25 13.605469 108.25 Z M 13.03125 92.617188 C 13.03125 91.921875 13.59375 91.359375 14.285156 91.359375 C 14.980469 91.359375 15.542969 91.921875 15.542969 92.617188 C 15.542969 93.308594 14.980469 93.871094 14.285156 93.871094 C 13.59375 93.871094 13.03125 93.308594 13.03125 92.617188 Z M 15.996094 98.449219 L 15.996094 96.441406 C 16.652344 96.386719 17.171875 95.832031 17.171875 95.160156 C 17.171875 94.449219 16.59375 93.871094 15.882812 93.871094 L 15.699219 93.871094 C 15.996094 93.535156 16.183594 93.097656 16.183594 92.617188 C 16.183594 91.570312 15.332031 90.71875 14.285156 90.71875 C 13.238281 90.71875 12.386719 91.570312 12.386719 92.617188 C 12.386719 93.097656 12.574219 93.535156 12.875 93.871094 L 11.332031 93.871094 C 10.621094 93.871094 10.042969 94.449219 10.042969 95.160156 C 10.042969 95.84375 10.578125 96.402344 11.25 96.445312 L 11.25 98.429688 C 9.335938 99.339844 8.109375 101.265625 8.109375 103.398438 C 8.109375 106.429688 10.574219 108.894531 13.605469 108.894531 C 16.636719 108.894531 19.105469 106.429688 19.105469 103.398438 C 19.105469 101.28125 17.890625 99.363281 15.996094 98.449219 " fill-opacity="1" fill-rule="nonzero"/></g><path fill="#fdfdfe" d="M 13.796875 100.445312 C 14.21875 100.445312 14.5625 100.789062 14.5625 101.210938 C 14.5625 101.632812 14.21875 101.976562 13.796875 101.976562 C 13.375 101.976562 13.03125 101.632812 13.03125 101.210938 C 13.03125 100.789062 13.375 100.445312 13.796875 100.445312 Z M 13.796875 102.621094 C 14.574219 102.621094 15.207031 101.988281 15.207031 101.210938 C 15.207031 100.433594 14.574219 99.804688 13.796875 99.804688 C 13.019531 99.804688 12.386719 100.433594 12.386719 101.210938 C 12.386719 101.988281 13.019531 102.621094 13.796875 102.621094 " fill-opacity="1" fill-rule="nonzero"/><path fill="#fdfdfe" d="M 13.605469 106.257812 C 12.109375 106.257812 10.875 105.097656 10.757812 103.628906 L 16.457031 103.628906 C 16.339844 105.097656 15.105469 106.257812 13.605469 106.257812 Z M 16.78125 102.988281 L 10.433594 102.988281 C 10.261719 102.988281 10.121094 103.128906 10.113281 103.300781 C 10.109375 103.316406 10.105469 103.382812 10.105469 103.398438 C 10.105469 105.328125 11.675781 106.898438 13.605469 106.898438 C 15.539062 106.898438 17.109375 105.328125 17.109375 103.398438 C 17.109375 103.363281 17.105469 103.335938 17.101562 103.296875 C 17.09375 103.125 16.953125 102.988281 16.78125 102.988281 " fill-opacity="1" fill-rule="nonzero"/><g clip-path="url(#02f0396083)"><path fill="#ffffff" d="M 8.957031 181.871094 C 8.777344 181.871094 8.632812 181.726562 8.632812 181.546875 L 8.632812 179.273438 C 8.632812 179.09375 8.777344 178.949219 8.957031 178.949219 C 9.136719 178.949219 9.28125 179.09375 9.28125 179.273438 L 9.28125 181.546875 C 9.28125 181.726562 9.136719 181.871094 8.957031 181.871094 Z M 8.957031 181.871094 " fill-opacity="1" fill-rule="nonzero"/></g><g clip-path="url(#dfe602707f)"><path fill="#ffffff" d="M 10.902344 181.871094 C 10.726562 181.871094 10.578125 181.726562 10.578125 181.546875 L 10.578125 179.273438 C 10.578125 179.09375 10.726562 178.949219 10.902344 178.949219 C 11.082031 178.949219 11.230469 179.09375 11.230469 179.273438 L 11.230469 181.546875 C 11.230469 181.726562 11.082031 181.871094 10.902344 181.871094 Z M 10.902344 181.871094 " fill-opacity="1" fill-rule="nonzero"/></g><g clip-path="url(#2154aafa7b)"><path fill="#ffffff" d="M 12.851562 181.871094 C 12.671875 181.871094 12.527344 181.726562 12.527344 181.546875 L 12.527344 179.273438 C 12.527344 179.09375 12.671875 178.949219 12.851562 178.949219 C 13.03125 178.949219 13.175781 179.09375 13.175781 179.273438 L 13.175781 181.546875 C 13.175781 181.726562 13.03125 181.871094 12.851562 181.871094 Z M 12.851562 181.871094 " fill-opacity="1" fill-rule="nonzero"/></g><g clip-path="url(#45be332a8e)"><path fill="#ffffff" d="M 14.636719 181.871094 L 7.171875 181.871094 C 6.992188 181.871094 6.847656 181.726562 6.847656 181.546875 L 6.847656 179.273438 C 6.847656 179.09375 6.992188 178.949219 7.171875 178.949219 L 14.636719 178.949219 C 14.816406 178.949219 14.960938 179.09375 14.960938 179.273438 L 14.960938 181.546875 C 14.960938 181.726562 14.816406 181.871094 14.636719 181.871094 Z M 7.496094 181.222656 L 14.3125 181.222656 L 14.3125 179.597656 L 7.496094 179.597656 Z M 7.496094 181.222656 " fill-opacity="1" fill-rule="nonzero"/></g><path fill="#ffffff" d="M 10.417969 183.492188 L 8.144531 183.492188 C 7.96875 183.492188 7.820312 183.347656 7.820312 183.167969 C 7.820312 182.988281 7.96875 182.84375 8.144531 182.84375 L 10.417969 182.84375 C 10.597656 182.84375 10.742188 182.988281 10.742188 183.167969 C 10.742188 183.347656 10.597656 183.492188 10.417969 183.492188 Z M 10.417969 183.492188 " fill-opacity="1" fill-rule="nonzero"/><path fill="#ffffff" d="M 9.445312 184.789062 L 8.144531 184.789062 C 7.96875 184.789062 7.820312 184.644531 7.820312 184.464844 C 7.820312 184.285156 7.96875 184.140625 8.144531 184.140625 L 9.445312 184.140625 C 9.625 184.140625 9.769531 184.285156 9.769531 184.464844 C 9.769531 184.644531 9.625 184.789062 9.445312 184.789062 Z M 9.445312 184.789062 " fill-opacity="1" fill-rule="nonzero"/><path fill="#ffffff" d="M 10.417969 186.089844 L 8.144531 186.089844 C 7.96875 186.089844 7.820312 185.941406 7.820312 185.761719 C 7.820312 185.585938 7.96875 185.4375 8.144531 185.4375 L 10.417969 185.4375 C 10.597656 185.4375 10.742188 185.585938 10.742188 185.761719 C 10.742188 185.941406 10.597656 186.089844 10.417969 186.089844 Z M 10.417969 186.089844 " fill-opacity="1" fill-rule="nonzero"/><path fill="#ffffff" d="M 9.445312 187.386719 L 8.144531 187.386719 C 7.96875 187.386719 7.820312 187.242188 7.820312 187.0625 C 7.820312 186.882812 7.96875 186.738281 8.144531 186.738281 L 9.445312 186.738281 C 9.625 186.738281 9.769531 186.882812 9.769531 187.0625 C 9.769531 187.242188 9.625 187.386719 9.445312 187.386719 Z M 9.445312 187.386719 " fill-opacity="1" fill-rule="nonzero"/><g clip-path="url(#8ebaee2e07)"><path fill="#ffffff" d="M 16.582031 195.496094 C 13.71875 195.496094 11.390625 193.167969 11.390625 190.304688 C 11.390625 187.445312 13.71875 185.113281 16.582031 185.113281 C 19.445312 185.113281 21.773438 187.445312 21.773438 190.304688 C 21.773438 193.167969 19.445312 195.496094 16.582031 195.496094 Z M 16.582031 185.761719 C 14.078125 185.761719 12.039062 187.800781 12.039062 190.304688 C 12.039062 192.808594 14.078125 194.847656 16.582031 194.847656 C 19.085938 194.847656 21.125 192.808594 21.125 190.304688 C 21.125 187.800781 19.085938 185.761719 16.582031 185.761719 Z M 16.582031 185.761719 " fill-opacity="1" fill-rule="nonzero"/></g><g clip-path="url(#c9566e3360)"><path fill="#ffffff" d="M 10.902344 195.496094 C 9.203125 195.496094 7.820312 194.113281 7.820312 192.414062 L 7.820312 181.546875 C 7.820312 181.367188 7.96875 181.222656 8.144531 181.222656 L 13.660156 181.222656 C 13.839844 181.222656 13.988281 181.367188 13.988281 181.546875 L 13.988281 186.414062 C 13.988281 186.589844 13.839844 186.738281 13.660156 186.738281 C 13.484375 186.738281 13.335938 186.589844 13.335938 186.414062 L 13.335938 181.871094 L 8.472656 181.871094 L 8.472656 192.414062 C 8.472656 193.753906 9.5625 194.847656 10.902344 194.847656 C 11.84375 194.792969 12.507812 194.417969 12.953125 193.730469 C 12.960938 193.714844 12.960938 193.71875 12.972656 193.695312 C 13.0625 193.539062 13.261719 193.488281 13.417969 193.578125 C 13.570312 193.671875 13.625 193.867188 13.53125 194.023438 C 13.457031 194.152344 13.304688 194.359375 13.175781 194.496094 C 12.574219 195.15625 11.726562 195.492188 10.992188 195.496094 C 10.902344 195.496094 10.910156 195.496094 10.902344 195.496094 Z M 10.902344 195.496094 " fill-opacity="1" fill-rule="nonzero"/></g><g clip-path="url(#9916a9bf60)"><path fill="#ffffff" d="M 10.902344 195.496094 C 9.203125 195.496094 7.820312 194.113281 7.820312 192.414062 L 7.820312 188.683594 C 7.820312 188.503906 7.96875 188.359375 8.144531 188.359375 L 9.109375 188.359375 C 10.03125 188.359375 10.890625 188.855469 11.347656 189.660156 C 11.488281 189.902344 11.675781 190.109375 11.910156 190.273438 C 12.054688 190.378906 12.089844 190.582031 11.984375 190.726562 C 11.882812 190.875 11.679688 190.90625 11.535156 190.804688 C 11.222656 190.585938 10.972656 190.308594 10.785156 189.980469 C 10.441406 189.378906 9.800781 189.007812 9.109375 189.007812 L 8.472656 189.007812 L 8.472656 192.414062 C 8.472656 193.757812 9.5625 194.847656 10.902344 194.847656 C 11.753906 194.847656 12.53125 194.414062 12.976562 193.6875 C 13.070312 193.535156 13.273438 193.488281 13.425781 193.582031 C 13.578125 193.675781 13.625 193.875 13.53125 194.027344 C 12.964844 194.949219 11.984375 195.496094 10.902344 195.496094 Z M 10.902344 195.496094 " fill-opacity="1" fill-rule="nonzero"/></g><path fill="#ffffff" d="M 16.582031 189.332031 C 15.6875 189.332031 14.960938 188.605469 14.960938 187.710938 L 14.960938 187.0625 C 14.960938 186.882812 15.105469 186.738281 15.285156 186.738281 C 15.464844 186.738281 15.609375 186.882812 15.609375 187.0625 L 15.609375 187.710938 C 15.609375 188.246094 16.046875 188.683594 16.582031 188.683594 C 17.117188 188.683594 17.554688 188.246094 17.554688 187.710938 L 17.554688 187.0625 C 17.554688 186.882812 17.699219 186.738281 17.878906 186.738281 C 18.058594 186.738281 18.203125 186.882812 18.203125 187.0625 L 18.203125 187.710938 C 18.203125 188.605469 17.476562 189.332031 16.582031 189.332031 Z M 16.582031 189.332031 " fill-opacity="1" fill-rule="nonzero"/><path fill="#ffffff" d="M 17.878906 188.035156 L 15.285156 188.035156 C 15.105469 188.035156 14.960938 187.890625 14.960938 187.710938 C 14.960938 187.53125 15.105469 187.386719 15.285156 187.386719 L 17.878906 187.386719 C 18.058594 187.386719 18.203125 187.53125 18.203125 187.710938 C 18.203125 187.890625 18.058594 188.035156 17.878906 188.035156 Z M 17.878906 188.035156 " fill-opacity="1" fill-rule="nonzero"/><path fill="#ffffff" d="M 17.878906 193.875 C 17.699219 193.875 17.554688 193.730469 17.554688 193.550781 L 17.554688 192.902344 C 17.554688 192.363281 17.117188 191.929688 16.582031 191.929688 C 16.046875 191.929688 15.609375 192.363281 15.609375 192.902344 L 15.609375 193.550781 C 15.609375 193.730469 15.464844 193.875 15.285156 193.875 C 15.105469 193.875 14.960938 193.730469 14.960938 193.550781 L 14.960938 192.902344 C 14.960938 192.007812 15.6875 191.277344 16.582031 191.277344 C 17.476562 191.277344 18.203125 192.007812 18.203125 192.902344 L 18.203125 193.550781 C 18.203125 193.730469 18.058594 193.875 17.878906 193.875 Z M 17.878906 193.875 " fill-opacity="1" fill-rule="nonzero"/><path fill="#ffffff" d="M 17.878906 193.226562 L 15.285156 193.226562 C 15.105469 193.226562 14.960938 193.082031 14.960938 192.902344 C 14.960938 192.722656 15.105469 192.578125 15.285156 192.578125 L 17.878906 192.578125 C 18.058594 192.578125 18.203125 192.722656 18.203125 192.902344 C 18.203125 193.082031 18.058594 193.226562 17.878906 193.226562 Z M 17.878906 193.226562 " fill-opacity="1" fill-rule="nonzero"/><path fill="#ffffff" d="M 16.535156 191.914062 C 15.820312 191.808594 15.285156 191.117188 15.285156 190.304688 C 15.285156 189.492188 15.820312 188.800781 16.535156 188.699219 C 16.566406 188.691406 16.597656 188.691406 16.628906 188.699219 C 17.34375 188.800781 17.878906 189.492188 17.878906 190.304688 C 17.878906 191.117188 17.34375 191.808594 16.628906 191.914062 C 16.597656 191.917969 16.566406 191.917969 16.535156 191.914062 Z M 16.582031 189.347656 C 16.210938 189.429688 15.933594 189.832031 15.933594 190.304688 C 15.933594 190.78125 16.210938 191.179688 16.582031 191.261719 C 16.957031 191.179688 17.230469 190.78125 17.230469 190.304688 C 17.230469 189.832031 16.957031 189.429688 16.582031 189.347656 Z M 16.582031 189.347656 " fill-opacity="1" fill-rule="nonzero"/><path fill="#ffffff" d="M 17.554688 190.628906 L 15.609375 190.628906 C 15.429688 190.628906 15.285156 190.484375 15.285156 190.304688 C 15.285156 190.125 15.429688 189.980469 15.609375 189.980469 L 17.554688 189.980469 C 17.734375 189.980469 17.878906 190.125 17.878906 190.304688 C 17.878906 190.484375 17.734375 190.628906 17.554688 190.628906 Z M 17.554688 190.628906 " fill-opacity="1" fill-rule="nonzero"/><g clip-path="url(#cf5f3da638)"><path fill="#ffffff" d="M 18.765625 370.328125 C 16.496094 370.328125 14.652344 368.484375 14.652344 366.214844 C 14.652344 363.941406 16.496094 362.097656 18.765625 362.097656 C 21.039062 362.097656 22.882812 363.941406 22.882812 366.214844 C 22.882812 368.484375 21.039062 370.328125 18.765625 370.328125 Z M 7.515625 365.664062 L 7.515625 363.742188 L 14.816406 363.742188 C 14.414062 364.386719 14.164062 365.136719 14.117188 365.9375 L 7.789062 365.9375 C 7.640625 365.9375 7.515625 365.816406 7.515625 365.664062 Z M 7.789062 354.960938 L 13.554688 354.960938 L 13.554688 356.609375 C 13.554688 356.910156 13.800781 357.15625 14.101562 357.15625 L 15.75 357.15625 L 15.75 362.664062 C 15.554688 362.828125 15.378906 363.003906 15.214844 363.195312 L 7.515625 363.195312 L 7.515625 355.238281 C 7.515625 355.085938 7.640625 354.960938 7.789062 354.960938 Z M 15.359375 356.609375 L 14.101562 356.609375 L 14.101562 355.351562 Z M 18.765625 361.546875 C 17.859375 361.546875 17.015625 361.8125 16.296875 362.261719 L 16.296875 357.113281 C 16.296875 356.890625 16.210938 356.683594 16.054688 356.527344 L 14.183594 354.65625 C 14.027344 354.5 13.820312 354.414062 13.597656 354.414062 L 7.789062 354.414062 C 7.335938 354.414062 6.96875 354.78125 6.96875 355.238281 L 6.96875 365.664062 C 6.96875 366.121094 7.335938 366.488281 7.789062 366.488281 L 14.117188 366.488281 C 14.257812 368.933594 16.289062 370.878906 18.765625 370.878906 C 21.339844 370.878906 23.433594 368.785156 23.433594 366.214844 C 23.433594 363.640625 21.339844 361.546875 18.765625 361.546875 " fill-opacity="1" fill-rule="nonzero"/></g><path fill="#ffffff" d="M 18.011719 363.742188 L 19.519531 363.742188 C 19.371094 364.0625 19.011719 364.359375 18.765625 364.519531 C 18.523438 364.359375 18.164062 364.0625 18.011719 363.742188 Z M 18.011719 365.9375 C 18.164062 365.617188 18.523438 365.324219 18.765625 365.164062 C 19.011719 365.324219 19.371094 365.617188 19.519531 365.9375 Z M 18.011719 366.488281 L 19.519531 366.488281 C 19.371094 366.808594 19.011719 367.101562 18.765625 367.265625 C 18.523438 367.101562 18.164062 366.808594 18.011719 366.488281 Z M 19.519531 368.683594 L 18.011719 368.683594 C 18.164062 368.363281 18.523438 368.070312 18.765625 367.90625 C 19.011719 368.070312 19.371094 368.363281 19.519531 368.683594 Z M 19.863281 362.921875 C 19.714844 362.921875 19.589844 363.042969 19.589844 363.195312 L 17.945312 363.195312 C 17.945312 363.042969 17.820312 362.921875 17.667969 362.921875 C 17.519531 362.921875 17.394531 363.042969 17.394531 363.195312 L 17.394531 363.46875 C 17.394531 364.074219 17.902344 364.5625 18.273438 364.839844 C 17.902344 365.117188 17.394531 365.609375 17.394531 366.214844 C 17.394531 366.816406 17.902344 367.308594 18.273438 367.585938 C 17.902344 367.863281 17.394531 368.355469 17.394531 368.957031 L 17.394531 369.230469 C 17.394531 369.382812 17.519531 369.507812 17.667969 369.507812 C 17.820312 369.507812 17.945312 369.382812 17.945312 369.230469 L 19.589844 369.230469 C 19.589844 369.382812 19.714844 369.507812 19.863281 369.507812 C 20.015625 369.507812 20.140625 369.382812 20.140625 369.230469 L 20.140625 368.957031 C 20.140625 368.355469 19.632812 367.863281 19.261719 367.585938 C 19.632812 367.308594 20.140625 366.816406 20.140625 366.214844 C 20.140625 365.609375 19.632812 365.117188 19.261719 364.839844 C 19.632812 364.5625 20.140625 364.074219 20.140625 363.46875 L 20.140625 363.195312 C 20.140625 363.042969 20.015625 362.921875 19.863281 362.921875 " fill-opacity="1" fill-rule="nonzero"/><g clip-path="url(#db325ba9c2)"><path fill="#ffffff" d="M 18.460938 273.996094 C 17.417969 272.648438 16.335938 271.257812 14.164062 271.257812 C 12.367188 271.257812 11.316406 272.210938 10.417969 273.304688 C 10.511719 273.429688 10.609375 273.550781 10.703125 273.671875 L 10.75 273.730469 C 11.609375 272.667969 12.542969 271.785156 14.164062 271.785156 C 16.078125 271.785156 17.03125 273.015625 18.042969 274.320312 C 19.085938 275.664062 20.167969 277.058594 22.339844 277.058594 L 22.339844 276.53125 C 20.425781 276.53125 19.46875 275.300781 18.460938 273.996094 Z M 18.460938 273.996094 " fill-opacity="1" fill-rule="nonzero"/></g><g clip-path="url(#c6c0155945)"><path fill="#ffffff" d="M 9.738281 275.007812 C 9.644531 274.886719 9.546875 274.761719 9.453125 274.640625 L 9.40625 274.582031 C 8.546875 275.644531 7.613281 276.53125 5.992188 276.53125 L 5.992188 277.058594 C 7.789062 277.058594 8.839844 276.101562 9.738281 275.007812 Z M 9.738281 275.007812 " fill-opacity="1" fill-rule="nonzero"/></g><g clip-path="url(#64a8a821a4)"><path fill="#ffffff" d="M 18.589844 273.304688 C 18.6875 273.429688 18.78125 273.550781 18.878906 273.671875 L 18.921875 273.730469 C 19.296875 273.242188 19.734375 272.808594 20.230469 272.441406 L 20.230469 275.203125 C 20.394531 275.347656 20.570312 275.472656 20.757812 275.585938 L 20.757812 272.128906 C 21.257812 271.890625 21.785156 271.777344 22.339844 271.785156 L 22.339844 271.257812 C 20.539062 271.257812 19.492188 272.210938 18.589844 273.304688 Z M 18.589844 273.304688 " fill-opacity="1" fill-rule="nonzero"/></g><g clip-path="url(#4847b3a827)"><path fill="#ffffff" d="M 12.054688 273.105469 L 12.054688 275.875 C 11.371094 275.394531 10.835938 274.707031 10.285156 273.996094 C 9.242188 272.648438 8.164062 271.257812 5.992188 271.257812 L 5.992188 271.785156 C 6.546875 271.777344 7.074219 271.890625 7.574219 272.128906 L 7.574219 275.589844 C 7.761719 275.476562 7.9375 275.351562 8.101562 275.207031 L 8.101562 272.441406 C 8.78125 272.917969 9.320312 273.609375 9.871094 274.320312 C 10.914062 275.664062 11.992188 277.058594 14.164062 277.058594 C 15.964844 277.058594 17.011719 276.101562 17.914062 275.007812 C 17.816406 274.886719 17.722656 274.761719 17.625 274.640625 L 17.582031 274.582031 C 17.203125 275.074219 16.769531 275.503906 16.273438 275.875 L 16.273438 273.109375 C 16.109375 272.96875 15.933594 272.839844 15.746094 272.726562 L 15.746094 276.1875 C 15.328125 276.386719 14.890625 276.496094 14.429688 276.523438 L 14.429688 272.324219 C 14.34375 272.316406 14.253906 272.3125 14.164062 272.3125 C 14.074219 272.3125 13.988281 272.316406 13.902344 272.320312 L 13.902344 276.519531 C 13.441406 276.496094 13 276.382812 12.582031 276.183594 L 12.582031 272.722656 C 12.394531 272.835938 12.21875 272.964844 12.054688 273.105469 Z M 12.054688 273.105469 " fill-opacity="1" fill-rule="nonzero"/></g><path fill="#ffffff" d="M 13.152344 268.355469 C 13.195312 268.5 13.269531 268.625 13.371094 268.730469 C 13.476562 268.839844 13.597656 268.917969 13.738281 268.964844 C 13.878906 269.015625 14.023438 269.027344 14.171875 269.007812 C 14.316406 268.984375 14.453125 268.929688 14.574219 268.84375 C 14.695312 268.757812 14.789062 268.648438 14.859375 268.515625 C 14.925781 268.382812 14.960938 268.242188 14.960938 268.09375 C 14.960938 267.945312 14.925781 267.804688 14.859375 267.671875 C 14.789062 267.539062 14.695312 267.429688 14.574219 267.339844 C 14.453125 267.253906 14.316406 267.199219 14.171875 267.179688 C 14.023438 267.15625 13.878906 267.171875 13.738281 267.21875 C 13.597656 267.269531 13.476562 267.347656 13.371094 267.453125 C 13.269531 267.5625 13.195312 267.6875 13.152344 267.828125 L 10.738281 267.828125 C 10.636719 267.828125 10.5625 267.871094 10.511719 267.957031 L 8.929688 270.59375 L 9.382812 270.867188 L 10.886719 268.355469 Z M 14.03125 267.695312 C 14.140625 267.695312 14.234375 267.734375 14.3125 267.8125 C 14.390625 267.890625 14.429688 267.984375 14.429688 268.09375 C 14.429688 268.203125 14.390625 268.296875 14.3125 268.371094 C 14.234375 268.449219 14.140625 268.488281 14.03125 268.488281 C 13.921875 268.488281 13.832031 268.449219 13.753906 268.371094 C 13.675781 268.296875 13.636719 268.203125 13.636719 268.09375 C 13.636719 267.984375 13.675781 267.890625 13.753906 267.8125 C 13.832031 267.734375 13.921875 267.695312 14.03125 267.695312 Z M 14.03125 267.695312 " fill-opacity="1" fill-rule="nonzero"/><g clip-path="url(#6c30a1fdac)"><path fill="#ffffff" d="M 20.230469 270.203125 C 20.300781 270.203125 20.363281 270.175781 20.414062 270.125 C 20.46875 270.074219 20.492188 270.011719 20.492188 269.9375 L 20.492188 266.246094 C 20.492188 266.175781 20.46875 266.113281 20.414062 266.0625 C 20.363281 266.007812 20.300781 265.984375 20.230469 265.984375 L 16.011719 265.984375 C 15.9375 265.984375 15.875 266.007812 15.824219 266.0625 C 15.773438 266.113281 15.746094 266.175781 15.746094 266.246094 L 15.746094 269.9375 C 15.746094 270.011719 15.773438 270.074219 15.824219 270.125 C 15.875 270.175781 15.9375 270.203125 16.011719 270.203125 Z M 16.273438 266.511719 L 19.964844 266.511719 L 19.964844 269.675781 L 16.273438 269.675781 Z M 16.273438 266.511719 " fill-opacity="1" fill-rule="nonzero"/></g><path fill="#ffffff" d="M 16.800781 267.039062 L 19.4375 267.039062 L 19.4375 267.566406 L 16.800781 267.566406 Z M 16.800781 267.039062 " fill-opacity="1" fill-rule="nonzero"/><path fill="#ffffff" d="M 16.800781 268.355469 L 17.59375 268.355469 L 17.59375 268.882812 L 16.800781 268.882812 Z M 16.800781 268.355469 " fill-opacity="1" fill-rule="nonzero"/><path fill="#ffffff" d="M 18.121094 268.355469 L 19.4375 268.355469 L 19.4375 268.882812 L 18.121094 268.882812 Z M 18.121094 268.355469 " fill-opacity="1" fill-rule="nonzero"/><path fill="#ffffff" d="M 17.445312 279.957031 L 15.175781 279.957031 C 15.132812 279.816406 15.058594 279.691406 14.957031 279.582031 C 14.855469 279.476562 14.730469 279.398438 14.589844 279.347656 C 14.449219 279.300781 14.304688 279.285156 14.15625 279.308594 C 14.011719 279.328125 13.875 279.382812 13.753906 279.46875 C 13.632812 279.558594 13.539062 279.667969 13.472656 279.800781 C 13.402344 279.933594 13.367188 280.074219 13.367188 280.222656 C 13.367188 280.371094 13.402344 280.511719 13.472656 280.644531 C 13.539062 280.777344 13.632812 280.886719 13.753906 280.972656 C 13.875 281.058594 14.011719 281.113281 14.15625 281.136719 C 14.304688 281.15625 14.449219 281.144531 14.589844 281.09375 C 14.730469 281.046875 14.855469 280.96875 14.957031 280.859375 C 15.058594 280.753906 15.132812 280.628906 15.175781 280.484375 L 17.59375 280.484375 C 17.691406 280.484375 17.765625 280.441406 17.820312 280.359375 L 19.402344 277.722656 L 18.949219 277.449219 Z M 14.296875 280.617188 C 14.1875 280.617188 14.09375 280.578125 14.015625 280.5 C 13.941406 280.425781 13.902344 280.332031 13.902344 280.222656 C 13.902344 280.113281 13.941406 280.019531 14.015625 279.941406 C 14.09375 279.863281 14.1875 279.824219 14.296875 279.824219 C 14.40625 279.824219 14.5 279.863281 14.578125 279.941406 C 14.652344 280.019531 14.691406 280.113281 14.691406 280.222656 C 14.691406 280.332031 14.652344 280.425781 14.578125 280.5 C 14.5 280.578125 14.40625 280.617188 14.296875 280.617188 Z M 14.296875 280.617188 " fill-opacity="1" fill-rule="nonzero"/><g clip-path="url(#d5bb7a5fc8)"><path fill="#ffffff" d="M 12.320312 278.113281 L 8.101562 278.113281 C 8.027344 278.113281 7.964844 278.136719 7.914062 278.191406 C 7.863281 278.242188 7.835938 278.304688 7.835938 278.375 L 7.835938 282.066406 C 7.835938 282.140625 7.863281 282.203125 7.914062 282.253906 C 7.964844 282.304688 8.027344 282.332031 8.101562 282.332031 L 12.320312 282.332031 C 12.390625 282.332031 12.453125 282.304688 12.503906 282.253906 C 12.558594 282.203125 12.582031 282.140625 12.582031 282.066406 L 12.582031 278.375 C 12.582031 278.304688 12.558594 278.242188 12.503906 278.191406 C 12.453125 278.136719 12.390625 278.113281 12.320312 278.113281 Z M 12.054688 281.804688 L 8.363281 281.804688 L 8.363281 278.640625 L 12.054688 278.640625 Z M 12.054688 281.804688 " fill-opacity="1" fill-rule="nonzero"/></g><path fill="#ffffff" d="M 8.890625 280.75 L 11.527344 280.75 L 11.527344 281.277344 L 8.890625 281.277344 Z M 8.890625 280.75 " fill-opacity="1" fill-rule="nonzero"/><path fill="#ffffff" d="M 10.738281 279.429688 L 11.527344 279.429688 L 11.527344 279.957031 L 10.738281 279.957031 Z M 10.738281 279.429688 " fill-opacity="1" fill-rule="nonzero"/><path fill="#ffffff" d="M 8.890625 279.429688 L 10.210938 279.429688 L 10.210938 279.957031 L 8.890625 279.957031 Z M 8.890625 279.429688 " fill-opacity="1" fill-rule="nonzero"/><g clip-path="url(#bc6b4fe7e0)"><path fill="#ffffff" d="M 18.132812 324.753906 C 16.171875 324.753906 14.515625 323.886719 14.515625 322.855469 L 14.515625 321.753906 C 15.21875 322.46875 16.570312 322.945312 18.132812 322.945312 C 19.695312 322.945312 21.046875 322.46875 21.75 321.757812 L 21.75 322.855469 C 21.75 323.886719 20.09375 324.753906 18.132812 324.753906 Z M 18.132812 313.902344 C 20.09375 313.902344 21.75 314.730469 21.75 315.710938 C 21.75 315.71875 21.75 315.730469 21.75 315.742188 C 21.75 315.746094 21.746094 315.753906 21.746094 315.761719 C 21.746094 315.769531 21.746094 315.773438 21.746094 315.78125 C 21.671875 316.738281 20.050781 317.519531 18.132812 317.519531 C 16.214844 317.519531 14.59375 316.738281 14.519531 315.78125 C 14.519531 315.773438 14.515625 315.769531 14.515625 315.765625 C 14.515625 315.753906 14.515625 315.75 14.515625 315.742188 C 14.511719 315.730469 14.515625 315.71875 14.515625 315.710938 C 14.515625 314.730469 16.171875 313.902344 18.132812 313.902344 Z M 21.75 318.035156 C 21.75 318.046875 21.75 318.054688 21.746094 318.085938 C 21.695312 319.039062 20.039062 319.84375 18.132812 319.84375 C 16.222656 319.84375 14.566406 319.039062 14.515625 318.066406 C 14.511719 318.054688 14.515625 318.046875 14.515625 318.035156 L 14.515625 316.839844 C 15.21875 317.554688 16.574219 318.035156 18.132812 318.035156 C 19.691406 318.035156 21.046875 317.554688 21.75 316.839844 Z M 21.75 320.621094 C 21.75 320.628906 21.75 320.640625 21.746094 320.667969 C 21.695312 321.621094 20.039062 322.429688 18.132812 322.429688 C 16.222656 322.429688 14.566406 321.621094 14.515625 320.648438 C 14.511719 320.640625 14.515625 320.628906 14.515625 320.621094 L 14.515625 319.167969 C 15.21875 319.882812 16.570312 320.363281 18.132812 320.363281 C 19.695312 320.363281 21.046875 319.882812 21.75 319.175781 Z M 22.265625 315.710938 C 22.265625 314.40625 20.449219 313.382812 18.132812 313.382812 C 15.8125 313.382812 13.996094 314.40625 13.996094 315.710938 C 13.996094 315.734375 14 315.761719 14 315.785156 C 14 315.785156 14 315.785156 14 315.789062 C 14 315.792969 13.996094 315.796875 13.996094 315.800781 L 13.996094 322.855469 C 13.996094 324.210938 15.8125 325.269531 18.132812 325.269531 C 20.449219 325.269531 22.265625 324.210938 22.265625 322.855469 L 22.265625 315.800781 C 22.265625 315.796875 22.265625 315.792969 22.261719 315.789062 C 22.261719 315.785156 22.261719 315.785156 22.261719 315.785156 C 22.265625 315.761719 22.265625 315.734375 22.265625 315.710938 " fill-opacity="1" fill-rule="nonzero"/></g><path fill="#ffffff" d="M 16.582031 315.140625 C 16.605469 315.140625 16.628906 315.136719 16.652344 315.128906 C 17.097656 315 17.597656 314.933594 18.132812 314.933594 C 18.570312 314.933594 18.984375 314.980469 19.367188 315.066406 C 19.503906 315.097656 19.644531 315.011719 19.675781 314.871094 C 19.707031 314.734375 19.621094 314.59375 19.480469 314.5625 C 19.0625 314.464844 18.609375 314.417969 18.132812 314.417969 C 17.546875 314.417969 17 314.492188 16.511719 314.632812 C 16.371094 314.671875 16.292969 314.816406 16.332031 314.953125 C 16.367188 315.066406 16.46875 315.140625 16.582031 315.140625 " fill-opacity="1" fill-rule="nonzero"/><path fill="#ffffff" d="M 15.191406 315.941406 C 15.222656 315.953125 15.257812 315.960938 15.289062 315.960938 C 15.390625 315.960938 15.484375 315.902344 15.527344 315.804688 C 15.546875 315.761719 15.589844 315.683594 15.632812 315.640625 C 15.738281 315.542969 15.746094 315.378906 15.648438 315.273438 C 15.550781 315.171875 15.382812 315.167969 15.28125 315.265625 C 15.140625 315.394531 15.058594 315.582031 15.050781 315.605469 C 14.996094 315.734375 15.058594 315.886719 15.191406 315.941406 " fill-opacity="1" fill-rule="nonzero"/><g clip-path="url(#ed6b556bf3)"><path fill="#ffffff" d="M 9.863281 314.171875 C 10.914062 314.425781 11.671875 315.042969 12.113281 316 C 12.558594 316.964844 12.558594 318.070312 12.113281 319.039062 C 11.671875 319.996094 10.914062 320.609375 9.863281 320.867188 C 8.8125 320.609375 8.054688 319.996094 7.609375 319.039062 C 7.167969 318.070312 7.167969 316.964844 7.609375 316 C 8.054688 315.042969 8.8125 314.425781 9.863281 314.171875 Z M 7.140625 315.785156 C 6.632812 316.886719 6.632812 318.152344 7.140625 319.253906 C 7.546875 320.128906 8.203125 320.765625 9.054688 321.136719 C 6.761719 322.179688 6.761719 324.984375 6.761719 325.015625 C 6.765625 325.15625 6.878906 325.269531 7.019531 325.269531 C 7.023438 325.269531 7.023438 325.269531 7.023438 325.269531 C 7.167969 325.269531 7.28125 325.152344 7.277344 325.011719 C 7.277344 324.886719 7.289062 322.050781 9.863281 321.402344 C 12.4375 322.050781 12.449219 324.886719 12.445312 325.011719 C 12.445312 325.152344 12.5625 325.269531 12.703125 325.269531 C 12.703125 325.269531 12.703125 325.269531 12.707031 325.269531 C 12.847656 325.269531 12.960938 325.15625 12.964844 325.015625 C 12.964844 324.984375 12.960938 322.179688 10.667969 321.136719 C 11.523438 320.765625 12.179688 320.128906 12.585938 319.253906 C 13.09375 318.152344 13.09375 316.886719 12.585938 315.785156 C 12.179688 314.910156 11.523438 314.273438 10.667969 313.898438 C 12.960938 312.859375 12.964844 310.054688 12.964844 310.023438 C 12.960938 309.882812 12.847656 309.765625 12.707031 309.765625 C 12.703125 309.765625 12.703125 309.765625 12.703125 309.765625 C 12.5625 309.769531 12.445312 309.886719 12.445312 310.027344 C 12.449219 310.148438 12.4375 312.988281 9.863281 313.632812 C 7.289062 312.984375 7.277344 310.148438 7.277344 310.027344 C 7.28125 309.886719 7.167969 309.769531 7.023438 309.765625 C 7.023438 309.765625 7.023438 309.765625 7.019531 309.765625 C 6.878906 309.765625 6.765625 309.882812 6.761719 310.023438 C 6.761719 310.054688 6.761719 312.859375 9.054688 313.898438 C 8.203125 314.273438 7.546875 314.910156 7.140625 315.785156 " fill-opacity="1" fill-rule="nonzero"/></g><path fill="#ffffff" d="M 10.636719 319.585938 L 9.089844 319.585938 C 8.945312 319.585938 8.828125 319.703125 8.828125 319.84375 C 8.828125 319.988281 8.945312 320.101562 9.089844 320.101562 L 10.636719 320.101562 C 10.78125 320.101562 10.898438 319.988281 10.898438 319.84375 C 10.898438 319.703125 10.78125 319.585938 10.636719 319.585938 " fill-opacity="1" fill-rule="nonzero"/><path fill="#ffffff" d="M 8.570312 318.550781 L 11.15625 318.550781 C 11.296875 318.550781 11.414062 318.4375 11.414062 318.292969 C 11.414062 318.152344 11.296875 318.035156 11.15625 318.035156 L 8.570312 318.035156 C 8.429688 318.035156 8.3125 318.152344 8.3125 318.292969 C 8.3125 318.4375 8.429688 318.550781 8.570312 318.550781 " fill-opacity="1" fill-rule="nonzero"/><path fill="#ffffff" d="M 9.089844 312.09375 C 8.945312 312.09375 8.828125 312.207031 8.828125 312.351562 C 8.828125 312.492188 8.945312 312.609375 9.089844 312.609375 L 10.636719 312.609375 C 10.78125 312.609375 10.898438 312.492188 10.898438 312.351562 C 10.898438 312.207031 10.78125 312.09375 10.636719 312.09375 L 9.089844 312.09375 " fill-opacity="1" fill-rule="nonzero"/><path fill="#ffffff" d="M 8.570312 311.058594 L 11.15625 311.058594 C 11.296875 311.058594 11.414062 310.941406 11.414062 310.800781 C 11.414062 310.660156 11.296875 310.542969 11.15625 310.542969 L 8.570312 310.542969 C 8.429688 310.542969 8.3125 310.660156 8.3125 310.800781 C 8.3125 310.941406 8.429688 311.058594 8.570312 311.058594 " fill-opacity="1" fill-rule="nonzero"/><path fill="#ffffff" d="M 8.570312 317.003906 L 11.15625 317.003906 C 11.296875 317.003906 11.414062 316.886719 11.414062 316.742188 C 11.414062 316.601562 11.296875 316.484375 11.15625 316.484375 L 8.570312 316.484375 C 8.429688 316.484375 8.3125 316.601562 8.3125 316.742188 C 8.3125 316.886719 8.429688 317.003906 8.570312 317.003906 " fill-opacity="1" fill-rule="nonzero"/><path fill="#ffffff" d="M 9.089844 315.453125 L 10.636719 315.453125 C 10.78125 315.453125 10.898438 315.335938 10.898438 315.195312 C 10.898438 315.050781 10.78125 314.933594 10.636719 314.933594 L 9.089844 314.933594 C 8.945312 314.933594 8.828125 315.050781 8.828125 315.195312 C 8.828125 315.335938 8.945312 315.453125 9.089844 315.453125 " fill-opacity="1" fill-rule="nonzero"/><path fill="#ffffff" d="M 8.3125 324.238281 C 8.3125 324.378906 8.429688 324.496094 8.570312 324.496094 L 11.15625 324.496094 C 11.296875 324.496094 11.414062 324.378906 11.414062 324.238281 C 11.414062 324.09375 11.296875 323.980469 11.15625 323.980469 L 8.570312 323.980469 C 8.429688 323.980469 8.3125 324.09375 8.3125 324.238281 " fill-opacity="1" fill-rule="nonzero"/><path fill="#ffffff" d="M 10.636719 322.945312 C 10.78125 322.945312 10.898438 322.828125 10.898438 322.6875 C 10.898438 322.542969 10.78125 322.429688 10.636719 322.429688 L 9.089844 322.429688 C 8.945312 322.429688 8.828125 322.542969 8.828125 322.6875 C 8.828125 322.828125 8.945312 322.945312 9.089844 322.945312 L 10.636719 322.945312 " fill-opacity="1" fill-rule="nonzero"/><g clip-path="url(#69053dbb73)"><path fill="#ffffff" d="M 20.089844 234.808594 L 6.878906 234.808594 C 6.597656 234.808594 6.371094 234.582031 6.371094 234.300781 L 6.371094 233.285156 L 20.601562 233.285156 L 20.601562 234.300781 C 20.601562 234.582031 20.371094 234.808594 20.089844 234.808594 Z M 16.027344 235.828125 L 10.945312 235.828125 L 10.945312 235.320312 L 16.027344 235.320312 Z M 9.867188 236.84375 L 10.757812 236.335938 L 16.210938 236.335938 L 17.101562 236.84375 Z M 9.164062 237.859375 L 9.164062 237.351562 L 17.804688 237.351562 L 17.804688 237.859375 Z M 6.878906 223.628906 L 20.089844 223.628906 C 20.371094 223.628906 20.601562 223.859375 20.601562 224.136719 L 20.601562 232.777344 L 6.371094 232.777344 L 6.371094 224.136719 C 6.371094 223.859375 6.597656 223.628906 6.878906 223.628906 Z M 20.089844 223.121094 L 6.878906 223.121094 C 6.316406 223.121094 5.863281 223.578125 5.863281 224.136719 L 5.863281 234.300781 C 5.863281 234.863281 6.316406 235.320312 6.878906 235.320312 L 10.4375 235.320312 L 10.4375 235.933594 L 8.785156 236.878906 C 8.773438 236.882812 8.761719 236.894531 8.75 236.902344 C 8.742188 236.910156 8.734375 236.917969 8.726562 236.925781 C 8.707031 236.945312 8.691406 236.96875 8.679688 236.992188 C 8.679688 236.996094 8.679688 236.996094 8.675781 237 C 8.664062 237.027344 8.660156 237.058594 8.660156 237.089844 C 8.660156 237.09375 8.65625 237.09375 8.65625 237.097656 L 8.65625 237.859375 C 8.65625 238.140625 8.886719 238.367188 9.164062 238.367188 L 17.804688 238.367188 C 18.085938 238.367188 18.3125 238.140625 18.3125 237.859375 L 18.3125 237.097656 C 18.3125 237.09375 18.3125 237.09375 18.3125 237.089844 C 18.308594 237.058594 18.304688 237.027344 18.292969 237 C 18.292969 236.996094 18.289062 236.996094 18.289062 236.992188 C 18.277344 236.96875 18.261719 236.945312 18.242188 236.925781 C 18.234375 236.917969 18.226562 236.910156 18.21875 236.902344 C 18.207031 236.894531 18.199219 236.882812 18.183594 236.878906 L 16.535156 235.933594 L 16.535156 235.320312 L 20.089844 235.320312 C 20.652344 235.320312 21.109375 234.863281 21.109375 234.300781 L 21.109375 224.136719 C 21.109375 223.578125 20.652344 223.121094 20.089844 223.121094 " fill-opacity="1" fill-rule="nonzero"/></g><path fill="#ffffff" d="M 13.992188 233.792969 L 12.976562 233.792969 C 12.835938 233.792969 12.722656 233.910156 12.722656 234.046875 C 12.722656 234.1875 12.835938 234.300781 12.976562 234.300781 L 13.992188 234.300781 C 14.132812 234.300781 14.246094 234.1875 14.246094 234.046875 C 14.246094 233.910156 14.132812 233.792969 13.992188 233.792969 " fill-opacity="1" fill-rule="nonzero"/><path fill="#ffffff" d="M 11.960938 229.21875 C 12.101562 229.21875 12.214844 229.105469 12.214844 228.964844 L 12.214844 227.949219 C 12.214844 227.808594 12.101562 227.695312 11.960938 227.695312 C 11.820312 227.695312 11.707031 227.808594 11.707031 227.949219 L 11.707031 228.964844 C 11.707031 229.105469 11.820312 229.21875 11.960938 229.21875 " fill-opacity="1" fill-rule="nonzero"/><path fill="#ffffff" d="M 12.976562 229.984375 C 13.117188 229.984375 13.230469 229.867188 13.230469 229.726562 L 13.230469 227.1875 C 13.230469 227.046875 13.117188 226.933594 12.976562 226.933594 C 12.835938 226.933594 12.722656 227.046875 12.722656 227.1875 L 12.722656 229.726562 C 12.722656 229.867188 12.835938 229.984375 12.976562 229.984375 " fill-opacity="1" fill-rule="nonzero"/><path fill="#ffffff" d="M 9.417969 228.964844 L 9.417969 227.949219 C 9.417969 227.808594 9.304688 227.695312 9.164062 227.695312 C 9.023438 227.695312 8.910156 227.808594 8.910156 227.949219 L 8.910156 228.964844 C 8.910156 229.105469 9.023438 229.21875 9.164062 229.21875 C 9.304688 229.21875 9.417969 229.105469 9.417969 228.964844 " fill-opacity="1" fill-rule="nonzero"/><path fill="#ffffff" d="M 8.402344 229.726562 L 8.402344 227.1875 C 8.402344 227.046875 8.289062 226.933594 8.148438 226.933594 C 8.007812 226.933594 7.894531 227.046875 7.894531 227.1875 L 7.894531 229.726562 C 7.894531 229.867188 8.007812 229.984375 8.148438 229.984375 C 8.289062 229.984375 8.402344 229.867188 8.402344 229.726562 " fill-opacity="1" fill-rule="nonzero"/><path fill="#ffffff" d="M 17.550781 227.949219 L 17.550781 228.964844 C 17.550781 229.105469 17.664062 229.21875 17.804688 229.21875 C 17.945312 229.21875 18.058594 229.105469 18.058594 228.964844 L 18.058594 227.949219 C 18.058594 227.808594 17.945312 227.695312 17.804688 227.695312 C 17.664062 227.695312 17.550781 227.808594 17.550781 227.949219 " fill-opacity="1" fill-rule="nonzero"/><path fill="#ffffff" d="M 18.566406 227.1875 L 18.566406 229.726562 C 18.566406 229.867188 18.679688 229.984375 18.820312 229.984375 C 18.960938 229.984375 19.074219 229.867188 19.074219 229.726562 L 19.074219 227.1875 C 19.074219 227.046875 18.960938 226.933594 18.820312 226.933594 C 18.679688 226.933594 18.566406 227.046875 18.566406 227.1875 " fill-opacity="1" fill-rule="nonzero"/><path fill="#ffffff" d="M 15.007812 229.21875 C 15.148438 229.21875 15.261719 229.105469 15.261719 228.964844 L 15.261719 227.949219 C 15.261719 227.808594 15.148438 227.695312 15.007812 227.695312 C 14.871094 227.695312 14.753906 227.808594 14.753906 227.949219 L 14.753906 228.964844 C 14.753906 229.105469 14.871094 229.21875 15.007812 229.21875 " fill-opacity="1" fill-rule="nonzero"/><path fill="#ffffff" d="M 13.992188 229.984375 C 14.132812 229.984375 14.246094 229.867188 14.246094 229.726562 L 14.246094 227.1875 C 14.246094 227.046875 14.132812 226.933594 13.992188 226.933594 C 13.851562 226.933594 13.738281 227.046875 13.738281 227.1875 L 13.738281 229.726562 C 13.738281 229.867188 13.851562 229.984375 13.992188 229.984375 " fill-opacity="1" fill-rule="nonzero"/><path fill="#ffffff" d="M 11.0625 227.519531 C 11.339844 227.0625 11.726562 226.707031 12.226562 226.464844 C 13.027344 226.070312 13.945312 226.070312 14.742188 226.464844 C 15.542969 226.855469 16.058594 227.527344 16.273438 228.457031 C 16.058594 229.390625 15.542969 230.0625 14.742188 230.453125 C 13.945312 230.84375 13.027344 230.84375 12.226562 230.453125 C 11.425781 230.0625 10.914062 229.390625 10.695312 228.457031 C 10.777344 228.109375 10.898438 227.796875 11.0625 227.519531 Z M 7.132812 231 C 7.132812 231.140625 7.246094 231.253906 7.386719 231.253906 C 7.898438 231.253906 8.410156 231.132812 8.867188 230.910156 C 9.582031 230.558594 10.113281 230.003906 10.4375 229.277344 C 10.492188 229.402344 10.550781 229.519531 10.617188 229.632812 C 10.941406 230.1875 11.410156 230.617188 12.003906 230.910156 C 12.472656 231.140625 12.980469 231.253906 13.484375 231.253906 C 13.988281 231.253906 14.496094 231.140625 14.96875 230.910156 C 15.679688 230.558594 16.210938 230.003906 16.535156 229.277344 C 16.855469 230.003906 17.386719 230.558594 18.101562 230.910156 C 18.5625 231.132812 19.074219 231.253906 19.582031 231.253906 C 19.722656 231.253906 19.835938 231.140625 19.835938 231 C 19.835938 230.859375 19.722656 230.746094 19.582031 230.746094 C 19.152344 230.746094 18.714844 230.644531 18.324219 230.453125 C 17.523438 230.0625 17.011719 229.390625 16.792969 228.457031 C 17.011719 227.527344 17.523438 226.855469 18.324219 226.464844 C 18.714844 226.273438 19.152344 226.171875 19.582031 226.171875 C 19.722656 226.171875 19.835938 226.058594 19.835938 225.917969 C 19.835938 225.777344 19.722656 225.664062 19.582031 225.664062 C 19.074219 225.664062 18.5625 225.78125 18.101562 226.007812 C 17.386719 226.355469 16.855469 226.914062 16.535156 227.636719 C 16.210938 226.914062 15.679688 226.355469 14.96875 226.007812 C 14.023438 225.546875 12.945312 225.542969 12.003906 226.007812 C 11.289062 226.355469 10.757812 226.914062 10.4375 227.636719 C 10.113281 226.914062 9.582031 226.355469 8.867188 226.007812 C 8.410156 225.78125 7.898438 225.664062 7.386719 225.664062 C 7.246094 225.664062 7.132812 225.777344 7.132812 225.917969 C 7.132812 226.058594 7.246094 226.171875 7.386719 226.171875 C 7.820312 226.171875 8.253906 226.273438 8.644531 226.464844 C 9.445312 226.855469 9.960938 227.527344 10.175781 228.457031 C 9.960938 229.390625 9.445312 230.0625 8.644531 230.453125 C 8.253906 230.644531 7.820312 230.746094 7.386719 230.746094 C 7.246094 230.746094 7.132812 230.859375 7.132812 231 " fill-opacity="1" fill-rule="nonzero"/></svg>