<svg xmlns="http://www.w3.org/2000/svg" xmlns:xlink="http://www.w3.org/1999/xlink" width="500" zoomAndPan="magnify" viewBox="0 0 375 374.999991" height="500" preserveAspectRatio="xMidYMid meet" version="1.0"><defs><clipPath id="6f80b5bfb0"><path d="M 187.5 0 C 83.945312 0 0 83.945312 0 187.5 C 0 291.054688 83.945312 375 187.5 375 C 291.054688 375 375 291.054688 375 187.5 C 375 83.945312 291.054688 0 187.5 0 Z M 187.5 0 " clip-rule="nonzero"/></clipPath><clipPath id="17087a9f08"><path d="M 95.890625 64.742188 L 278.890625 64.742188 L 278.890625 309.992188 L 95.890625 309.992188 Z M 95.890625 64.742188 " clip-rule="nonzero"/></clipPath></defs><g clip-path="url(#6f80b5bfb0)"><rect x="-37.5" width="450" fill="#233c4b" y="-37.499999" height="449.999989" fill-opacity="1"/></g><path fill="#ffffff" d="M 128.640625 232.976562 C 128.640625 235.375 130.476562 237.210938 132.875 237.210938 C 135.277344 237.210938 137.109375 235.375 137.109375 232.976562 C 137.039062 228.601562 138.097656 224.226562 140.144531 220.34375 L 179.664062 220.34375 C 181.710938 224.226562 182.769531 228.53125 182.699219 232.976562 C 182.699219 235.375 184.53125 237.210938 186.933594 237.210938 C 189.332031 237.210938 191.164062 235.375 191.164062 232.976562 C 191.164062 215.050781 179.382812 204.890625 167.382812 196.492188 C 179.382812 188.09375 191.164062 177.933594 191.164062 160.007812 C 191.164062 142.082031 179.382812 131.921875 167.382812 123.523438 C 179.382812 115.125 191.164062 104.964844 191.164062 87.039062 C 191.164062 84.640625 189.332031 82.804688 186.933594 82.804688 C 184.53125 82.804688 182.699219 84.640625 182.699219 87.039062 C 182.699219 90.710938 181.992188 94.238281 180.652344 97.554688 L 139.226562 97.554688 C 137.886719 94.238281 137.109375 90.640625 137.179688 87.039062 C 137.179688 84.640625 135.347656 82.804688 132.945312 82.804688 C 130.546875 82.804688 128.710938 84.640625 128.710938 87.039062 C 128.710938 104.964844 140.496094 115.125 152.496094 123.523438 C 140.496094 131.921875 128.710938 142.082031 128.710938 160.007812 C 128.710938 177.933594 140.496094 188.09375 152.496094 196.492188 C 140.425781 204.890625 128.640625 215.050781 128.640625 232.976562 Z M 146.707031 211.945312 C 150.519531 208.207031 155.175781 204.890625 159.976562 201.714844 C 164.773438 205.03125 169.429688 208.207031 173.242188 211.945312 Z M 137.109375 160.007812 C 137.109375 157.113281 137.535156 154.222656 138.378906 151.539062 L 181.5 151.539062 C 183.332031 157.398438 183.191406 163.75 181.144531 169.464844 L 138.804688 169.464844 C 137.746094 166.429688 137.109375 163.253906 137.109375 160.007812 Z M 144.730469 106.09375 L 175.289062 106.09375 C 171.195312 110.609375 165.761719 114.5625 160.117188 118.445312 C 154.257812 114.5625 148.824219 110.609375 144.730469 106.09375 Z M 159.976562 128.605469 C 166.46875 132.980469 172.675781 137.496094 176.980469 143.070312 L 142.96875 143.070312 C 147.273438 137.496094 153.480469 133.050781 159.976562 128.605469 Z M 143.816406 178.074219 L 176.0625 178.074219 C 171.832031 183.15625 166.042969 187.316406 159.902344 191.480469 C 153.90625 187.175781 148.046875 183.011719 143.816406 178.074219 Z M 143.816406 178.074219 " fill-opacity="1" fill-rule="nonzero"/><g clip-path="url(#17087a9f08)"><path fill="#ffffff" d="M 236.753906 66.082031 C 235.976562 65.234375 234.917969 64.742188 233.71875 64.742188 L 99.992188 64.742188 C 97.59375 64.742188 95.898438 66.789062 95.898438 69.117188 L 95.898438 305.875 C 95.898438 308.273438 97.59375 310.25 99.992188 310.25 L 275 310.25 C 277.402344 310.25 279.09375 308.203125 279.09375 305.875 L 279.09375 112.164062 C 279.09375 111.035156 278.742188 110.046875 277.964844 109.199219 Z M 237.8125 79.628906 L 265.050781 108.070312 L 237.8125 108.070312 Z M 104.4375 301.851562 L 104.4375 73.207031 L 229.34375 73.207031 L 229.34375 112.164062 C 229.414062 114.5625 231.320312 116.46875 233.71875 116.539062 L 270.625 116.539062 L 270.625 301.851562 Z M 104.4375 301.851562 " fill-opacity="1" fill-rule="nonzero"/></g><path fill="#ffffff" d="M 242.964844 274.328125 L 128.855469 274.328125 C 126.453125 274.328125 124.621094 276.164062 124.621094 278.5625 C 124.621094 280.960938 126.453125 282.796875 128.855469 282.796875 L 242.894531 282.796875 C 245.292969 282.796875 247.125 280.960938 247.125 278.5625 C 247.199219 276.164062 245.292969 274.328125 242.964844 274.328125 Z M 242.964844 274.328125 " fill-opacity="1" fill-rule="nonzero"/><path fill="#ffffff" d="M 128.855469 260.003906 L 194.976562 260.003906 C 197.375 260.003906 199.210938 258.167969 199.210938 255.769531 C 199.210938 253.371094 197.375 251.535156 194.976562 251.535156 L 128.855469 251.535156 C 126.453125 251.535156 124.621094 253.371094 124.621094 255.769531 C 124.621094 258.167969 126.523438 260.003906 128.855469 260.003906 Z M 128.855469 260.003906 " fill-opacity="1" fill-rule="nonzero"/></svg>