<svg xmlns="http://www.w3.org/2000/svg" xmlns:xlink="http://www.w3.org/1999/xlink" width="500" zoomAndPan="magnify" viewBox="0 0 375 374.999991" height="500" preserveAspectRatio="xMidYMid meet" version="1.0"><defs><clipPath id="8b3c0df07c"><path d="M 187.5 0 C 83.945312 0 0 83.945312 0 187.5 C 0 291.054688 83.945312 375 187.5 375 C 291.054688 375 375 291.054688 375 187.5 C 375 83.945312 291.054688 0 187.5 0 Z M 187.5 0 " clip-rule="nonzero"/></clipPath><clipPath id="e2c9611b36"><path d="M 64.628906 84.132812 L 310.628906 84.132812 L 310.628906 291 L 64.628906 291 Z M 64.628906 84.132812 " clip-rule="nonzero"/></clipPath></defs><g clip-path="url(#8b3c0df07c)"><rect x="-37.5" width="450" fill="#233c4b" y="-37.499999" height="449.999989" fill-opacity="1"/></g><path fill="#ffffff" d="M 112.578125 152.898438 C 112.578125 151.820312 111.703125 150.949219 110.628906 150.949219 L 91.378906 150.949219 C 90.300781 150.949219 89.429688 151.820312 89.429688 152.898438 C 89.429688 153.976562 90.300781 154.847656 91.378906 154.847656 L 110.628906 154.847656 C 111.703125 154.847656 112.578125 153.976562 112.578125 152.898438 Z M 112.578125 152.898438 " fill-opacity="1" fill-rule="nonzero"/><path fill="#ffffff" d="M 139.996094 92.765625 L 129.199219 92.765625 C 128.121094 92.765625 127.25 93.636719 127.25 94.714844 L 127.25 105.503906 C 127.25 106.582031 128.121094 107.453125 129.199219 107.453125 L 139.996094 107.453125 C 141.074219 107.453125 141.945312 106.582031 141.945312 105.503906 L 141.945312 94.714844 C 141.945312 93.636719 141.074219 92.765625 139.996094 92.765625 Z M 138.046875 103.554688 L 131.148438 103.554688 L 131.148438 96.664062 L 138.046875 96.664062 Z M 138.046875 103.554688 " fill-opacity="1" fill-rule="nonzero"/><path fill="#ffffff" d="M 139.996094 112.183594 L 129.199219 112.183594 C 128.121094 112.183594 127.25 113.058594 127.25 114.136719 L 127.25 124.925781 C 127.25 126 128.121094 126.875 129.199219 126.875 L 139.996094 126.875 C 141.074219 126.875 141.945312 126 141.945312 124.925781 L 141.945312 114.136719 C 141.945312 113.058594 141.074219 112.183594 139.996094 112.183594 Z M 138.046875 122.972656 L 131.148438 122.972656 L 131.148438 116.085938 L 138.046875 116.085938 Z M 138.046875 122.972656 " fill-opacity="1" fill-rule="nonzero"/><path fill="#ffffff" d="M 159.429688 92.765625 L 148.632812 92.765625 C 147.554688 92.765625 146.683594 93.636719 146.683594 94.714844 L 146.683594 105.503906 C 146.683594 106.582031 147.554688 107.453125 148.632812 107.453125 L 159.429688 107.453125 C 160.507812 107.453125 161.378906 106.582031 161.378906 105.503906 L 161.378906 94.714844 C 161.378906 93.636719 160.507812 92.765625 159.429688 92.765625 Z M 157.480469 103.554688 L 150.582031 103.554688 L 150.582031 96.664062 L 157.480469 96.664062 Z M 157.480469 103.554688 " fill-opacity="1" fill-rule="nonzero"/><path fill="#ffffff" d="M 159.429688 112.183594 L 148.632812 112.183594 C 147.554688 112.183594 146.683594 113.058594 146.683594 114.136719 L 146.683594 124.925781 C 146.683594 126 147.554688 126.875 148.632812 126.875 L 159.429688 126.875 C 160.507812 126.875 161.378906 126 161.378906 124.925781 L 161.378906 114.136719 C 161.378906 113.058594 160.507812 112.183594 159.429688 112.183594 Z M 157.480469 122.972656 L 150.582031 122.972656 L 150.582031 116.085938 L 157.480469 116.085938 Z M 157.480469 122.972656 " fill-opacity="1" fill-rule="nonzero"/><path fill="#ffffff" d="M 178.863281 112.183594 L 168.066406 112.183594 C 166.988281 112.183594 166.117188 113.058594 166.117188 114.136719 L 166.117188 124.925781 C 166.117188 126 166.988281 126.875 168.066406 126.875 L 178.863281 126.875 C 179.941406 126.875 180.8125 126 180.8125 124.925781 L 180.8125 114.136719 C 180.8125 113.058594 179.941406 112.183594 178.863281 112.183594 Z M 176.914062 122.972656 L 170.015625 122.972656 L 170.015625 116.085938 L 176.914062 116.085938 Z M 176.914062 122.972656 " fill-opacity="1" fill-rule="nonzero"/><g clip-path="url(#e2c9611b36)"><path fill="#ffffff" d="M 277.792969 173.925781 C 285.816406 172.480469 292.300781 166.554688 294.535156 158.832031 C 297.644531 158.265625 304.855469 156.289062 307.566406 149.921875 C 307.878906 149.183594 308.835938 146.9375 308.503906 144.097656 C 307.925781 139.097656 303.761719 136.683594 300.089844 134.554688 C 297.101562 132.820312 294.277344 131.1875 292.890625 128.375 C 291.046875 124.636719 292.761719 120.777344 294.578125 116.691406 C 296.28125 112.863281 298.039062 108.90625 296.265625 105.203125 C 293.050781 98.476562 280.355469 97.144531 256.386719 101.042969 L 256.386719 86.085938 C 256.386719 85.007812 255.511719 84.132812 254.4375 84.132812 L 120.5625 84.132812 C 119.484375 84.132812 118.613281 85.007812 118.613281 86.085938 L 118.613281 101.042969 C 94.644531 97.144531 81.949219 98.476562 78.730469 105.203125 C 76.957031 108.90625 78.71875 112.867188 80.421875 116.695312 C 82.238281 120.777344 83.953125 124.636719 82.105469 128.375 C 80.71875 131.1875 77.898438 132.824219 74.910156 134.554688 C 71.238281 136.683594 67.074219 139.097656 66.492188 144.097656 C 66.164062 146.9375 67.117188 149.183594 67.433594 149.921875 C 70.140625 156.289062 77.355469 158.265625 80.460938 158.832031 C 82.699219 166.550781 89.179688 172.480469 97.207031 173.925781 L 64.632812 273.808594 L 64.632812 288.914062 C 64.632812 289.992188 65.503906 290.863281 66.582031 290.863281 L 308.417969 290.863281 C 309.496094 290.863281 310.367188 289.992188 310.367188 288.914062 L 310.367188 273.808594 Z M 305.726562 271.859375 L 300.53125 271.859375 L 268.355469 173.507812 C 270.089844 173.984375 271.914062 174.246094 273.796875 174.261719 Z M 261.332031 172.1875 L 257.78125 176.917969 L 117.21875 176.917969 L 113.667969 172.1875 Z M 115.816406 168.289062 C 117.261719 166.894531 118.511719 165.304688 119.523438 163.558594 L 255.476562 163.558594 C 256.488281 165.304688 257.738281 166.894531 259.183594 168.289062 Z M 114.074219 179.226562 L 83.769531 271.859375 L 78.574219 271.859375 L 110.457031 174.402344 Z M 117.660156 180.820312 L 257.339844 180.820312 L 287.125 271.859375 L 87.875 271.859375 Z M 260.925781 179.226562 L 264.542969 174.40625 L 296.425781 271.859375 L 291.226562 271.859375 Z M 274 170.367188 C 264.359375 170.367188 256.515625 162.53125 256.515625 152.898438 C 256.515625 143.265625 264.359375 135.429688 274 135.429688 C 283.636719 135.429688 291.480469 143.265625 291.480469 152.898438 C 291.480469 162.53125 283.640625 170.367188 274 170.367188 Z M 122.511719 88.035156 L 252.484375 88.035156 L 252.484375 131.605469 L 122.511719 131.605469 Z M 79.695312 154.667969 C 76.925781 153.949219 72.660156 152.246094 71.023438 148.390625 C 70.785156 147.835938 70.15625 146.363281 70.367188 144.546875 C 70.707031 141.636719 73.058594 140.136719 76.867188 137.929688 C 80.066406 136.074219 83.695312 133.96875 85.605469 130.101562 C 88.261719 124.722656 85.890625 119.390625 83.984375 115.109375 C 82.519531 111.8125 81.253906 108.96875 82.25 106.886719 C 83.566406 104.132812 90.070312 100.289062 118.613281 104.996094 L 118.613281 133.554688 C 118.613281 134.632812 119.484375 135.503906 120.5625 135.503906 L 254.4375 135.503906 C 255.511719 135.503906 256.386719 134.632812 256.386719 133.554688 L 256.386719 104.996094 C 284.929688 100.289062 291.433594 104.132812 292.75 106.886719 C 293.746094 108.96875 292.480469 111.8125 291.015625 115.109375 C 289.109375 119.390625 286.738281 124.722656 289.394531 130.105469 C 291.304688 133.96875 294.933594 136.074219 298.132812 137.929688 C 301.941406 140.136719 304.292969 141.636719 304.628906 144.546875 C 304.84375 146.363281 304.214844 147.835938 303.976562 148.394531 C 302.335938 152.246094 298.074219 153.949219 295.300781 154.667969 C 295.351562 154.082031 295.382812 153.496094 295.382812 152.898438 C 295.382812 141.113281 285.789062 131.527344 274 131.527344 C 262.207031 131.527344 252.617188 141.113281 252.617188 152.898438 C 252.617188 155.261719 253.007812 157.53125 253.71875 159.65625 L 121.28125 159.65625 C 121.992188 157.53125 122.382812 155.257812 122.382812 152.898438 C 122.382812 141.113281 112.789062 131.527344 101 131.527344 C 89.210938 131.527344 79.617188 141.113281 79.617188 152.898438 C 79.617188 153.496094 79.648438 154.085938 79.695312 154.667969 Z M 83.515625 152.898438 C 83.515625 143.265625 91.359375 135.429688 101 135.429688 C 110.640625 135.429688 118.484375 143.265625 118.484375 152.898438 C 118.484375 162.53125 110.640625 170.367188 101 170.367188 C 91.359375 170.367188 83.515625 162.53125 83.515625 152.898438 Z M 101.199219 174.261719 C 103.082031 174.246094 104.90625 173.984375 106.644531 173.507812 L 74.46875 271.859375 L 69.273438 271.859375 Z M 306.46875 286.964844 L 68.53125 286.964844 L 68.53125 275.761719 L 306.46875 275.761719 Z M 306.46875 286.964844 " fill-opacity="1" fill-rule="nonzero"/></g><path fill="#ffffff" d="M 283.621094 150.949219 L 275.945312 150.949219 L 275.945312 143.28125 C 275.945312 142.203125 275.074219 141.328125 273.996094 141.328125 C 272.917969 141.328125 272.046875 142.203125 272.046875 143.28125 L 272.046875 150.949219 L 264.371094 150.949219 C 263.292969 150.949219 262.421875 151.820312 262.421875 152.898438 C 262.421875 153.976562 263.292969 154.847656 264.371094 154.847656 L 272.046875 154.847656 L 272.046875 162.515625 C 272.046875 163.59375 272.917969 164.464844 273.996094 164.464844 C 275.074219 164.464844 275.945312 163.59375 275.945312 162.515625 L 275.945312 154.847656 L 283.621094 154.847656 C 284.699219 154.847656 285.570312 153.976562 285.570312 152.898438 C 285.570312 151.820312 284.699219 150.949219 283.621094 150.949219 Z M 283.621094 150.949219 " fill-opacity="1" fill-rule="nonzero"/><path fill="#ffffff" d="M 245.800781 92.765625 L 204.773438 92.765625 C 203.695312 92.765625 202.824219 93.636719 202.824219 94.714844 L 202.824219 124.925781 C 202.824219 126 203.695312 126.875 204.773438 126.875 L 245.800781 126.875 C 246.875 126.875 247.75 126 247.75 124.925781 L 247.75 94.714844 C 247.75 93.636719 246.875 92.765625 245.800781 92.765625 Z M 243.847656 122.972656 L 206.722656 122.972656 L 206.722656 96.664062 L 243.847656 96.664062 Z M 243.847656 122.972656 " fill-opacity="1" fill-rule="nonzero"/><path fill="#ffffff" d="M 135.003906 188.394531 C 134.726562 187.957031 134.289062 187.644531 133.785156 187.53125 L 125.363281 185.613281 C 124.316406 185.371094 123.269531 186.027344 123.03125 187.078125 L 118.996094 204.75 C 117.359375 205.90625 116.121094 207.636719 115.640625 209.738281 C 115.171875 211.78125 115.484375 213.875 116.496094 215.695312 L 112.269531 234.199219 C 110.632812 235.355469 109.394531 237.089844 108.914062 239.191406 C 108.449219 241.234375 108.757812 243.328125 109.769531 245.144531 L 105.734375 262.8125 C 105.621094 263.316406 105.710938 263.84375 105.984375 264.285156 C 106.261719 264.722656 106.699219 265.03125 107.203125 265.148438 L 115.625 267.066406 C 115.769531 267.101562 115.914062 267.117188 116.058594 267.117188 C 116.949219 267.117188 117.753906 266.503906 117.960938 265.601562 L 121.992188 247.933594 C 123.632812 246.777344 124.867188 245.042969 125.347656 242.9375 C 125.816406 240.894531 125.503906 238.800781 124.492188 236.984375 L 128.71875 218.480469 C 130.355469 217.324219 131.59375 215.589844 132.074219 213.488281 C 132.539062 211.445312 132.230469 209.351562 131.21875 207.535156 L 135.253906 189.867188 C 135.367188 189.363281 135.277344 188.832031 135.003906 188.394531 Z M 114.589844 262.832031 L 109.972656 261.777344 L 113.023438 248.417969 C 114.453125 249.113281 116 249.4375 117.640625 249.46875 Z M 121.546875 242.070312 C 120.992188 244.503906 118.558594 246.03125 116.125 245.472656 C 114.945312 245.207031 113.941406 244.492188 113.296875 243.472656 C 112.65625 242.449219 112.449219 241.234375 112.71875 240.058594 C 113.660156 237.332031 115.507812 236.273438 118.140625 236.65625 C 119.320312 236.921875 120.320312 237.636719 120.964844 238.660156 C 121.609375 239.683594 121.8125 240.894531 121.546875 242.070312 Z M 121.238281 233.710938 C 120.546875 233.324219 119.800781 233.035156 119.007812 232.851562 C 118.203125 232.667969 117.402344 232.613281 116.621094 232.660156 L 119.746094 218.96875 C 121.230469 219.5625 122.773438 219.894531 124.367188 220.015625 Z M 128.269531 212.621094 C 127.714844 215.050781 125.285156 216.582031 122.847656 216.023438 C 121.671875 215.753906 120.667969 215.042969 120.023438 214.019531 C 119.378906 212.996094 119.175781 211.785156 119.441406 210.609375 C 120.246094 208.027344 122.023438 206.847656 124.863281 207.203125 C 126.042969 207.472656 127.046875 208.183594 127.691406 209.207031 C 128.332031 210.230469 128.539062 211.441406 128.269531 212.621094 Z M 127.964844 204.257812 C 127.273438 203.875 126.527344 203.582031 125.734375 203.402344 C 124.929688 203.21875 124.128906 203.164062 123.347656 203.210938 L 126.398438 189.847656 L 131.015625 190.902344 Z M 127.964844 204.257812 " fill-opacity="1" fill-rule="nonzero"/><path fill="#ffffff" d="M 193.976562 208.871094 C 195.054688 208.871094 195.925781 207.996094 195.925781 206.917969 L 195.925781 191.816406 C 195.925781 190.738281 195.054688 189.863281 193.976562 189.863281 C 192.898438 189.863281 192.027344 190.738281 192.027344 191.816406 L 192.027344 206.917969 C 192.027344 207.996094 192.898438 208.871094 193.976562 208.871094 Z M 193.976562 208.871094 " fill-opacity="1" fill-rule="nonzero"/><path fill="#ffffff" d="M 204.773438 208.871094 C 205.851562 208.871094 206.722656 207.996094 206.722656 206.917969 L 206.722656 191.816406 C 206.722656 190.738281 205.851562 189.863281 204.773438 189.863281 C 203.695312 189.863281 202.824219 190.738281 202.824219 191.816406 L 202.824219 206.917969 C 202.824219 207.996094 203.695312 208.871094 204.773438 208.871094 Z M 204.773438 208.871094 " fill-opacity="1" fill-rule="nonzero"/><path fill="#ffffff" d="M 146.472656 189.863281 C 145.398438 189.863281 144.523438 190.738281 144.523438 191.816406 L 144.523438 206.917969 C 144.523438 207.996094 145.398438 208.871094 146.472656 208.871094 C 147.550781 208.871094 148.425781 207.996094 148.425781 206.917969 L 148.425781 191.816406 C 148.425781 190.738281 147.550781 189.863281 146.472656 189.863281 Z M 146.472656 189.863281 " fill-opacity="1" fill-rule="nonzero"/><path fill="#ffffff" d="M 157.269531 189.863281 C 156.191406 189.863281 155.320312 190.738281 155.320312 191.816406 L 155.320312 206.917969 C 155.320312 207.996094 156.191406 208.871094 157.269531 208.871094 C 158.347656 208.871094 159.21875 207.996094 159.21875 206.917969 L 159.21875 191.816406 C 159.21875 190.738281 158.347656 189.863281 157.269531 189.863281 Z M 157.269531 189.863281 " fill-opacity="1" fill-rule="nonzero"/><path fill="#ffffff" d="M 157.269531 215.757812 C 156.191406 215.757812 155.320312 216.632812 155.320312 217.707031 L 155.320312 232.8125 C 155.320312 233.890625 156.191406 234.761719 157.269531 234.761719 C 158.347656 234.761719 159.21875 233.890625 159.21875 232.8125 L 159.21875 217.707031 C 159.21875 216.632812 158.347656 215.757812 157.269531 215.757812 Z M 157.269531 215.757812 " fill-opacity="1" fill-rule="nonzero"/><path fill="#ffffff" d="M 183.179688 215.757812 C 182.105469 215.757812 181.230469 216.632812 181.230469 217.707031 L 181.230469 232.8125 C 181.230469 233.890625 182.105469 234.761719 183.179688 234.761719 C 184.257812 234.761719 185.132812 233.890625 185.132812 232.8125 L 185.132812 217.707031 C 185.132812 216.632812 184.257812 215.757812 183.179688 215.757812 Z M 183.179688 215.757812 " fill-opacity="1" fill-rule="nonzero"/><path fill="#ffffff" d="M 204.773438 234.761719 C 205.851562 234.761719 206.722656 233.890625 206.722656 232.8125 L 206.722656 217.707031 C 206.722656 216.632812 205.851562 215.757812 204.773438 215.757812 C 203.695312 215.757812 202.824219 216.632812 202.824219 217.707031 L 202.824219 232.8125 C 202.824219 233.890625 203.695312 234.761719 204.773438 234.761719 Z M 204.773438 234.761719 " fill-opacity="1" fill-rule="nonzero"/><path fill="#ffffff" d="M 183.179688 241.652344 C 182.105469 241.652344 181.230469 242.523438 181.230469 243.601562 L 181.230469 258.707031 C 181.230469 259.78125 182.105469 260.65625 183.179688 260.65625 C 184.257812 260.65625 185.132812 259.78125 185.132812 258.707031 L 185.132812 243.601562 C 185.132812 242.523438 184.257812 241.652344 183.179688 241.652344 Z M 183.179688 241.652344 " fill-opacity="1" fill-rule="nonzero"/><path fill="#ffffff" d="M 204.773438 260.65625 C 205.851562 260.65625 206.722656 259.78125 206.722656 258.707031 L 206.722656 243.601562 C 206.722656 242.523438 205.851562 241.652344 204.773438 241.652344 C 203.695312 241.652344 202.824219 242.523438 202.824219 243.601562 L 202.824219 258.707031 C 202.824219 259.78125 203.695312 260.65625 204.773438 260.65625 Z M 204.773438 260.65625 " fill-opacity="1" fill-rule="nonzero"/><path fill="#ffffff" d="M 237.164062 234.761719 C 238.238281 234.761719 239.113281 233.890625 239.113281 232.8125 L 239.113281 217.707031 C 239.113281 216.632812 238.238281 215.757812 237.164062 215.757812 C 236.085938 215.757812 235.210938 216.632812 235.210938 217.707031 L 235.210938 232.8125 C 235.210938 233.890625 236.085938 234.761719 237.164062 234.761719 Z M 237.164062 234.761719 " fill-opacity="1" fill-rule="nonzero"/><path fill="#ffffff" d="M 230.683594 260.65625 C 231.761719 260.65625 232.632812 259.78125 232.632812 258.707031 L 232.632812 243.601562 C 232.632812 242.523438 231.761719 241.652344 230.683594 241.652344 C 229.605469 241.652344 228.734375 242.523438 228.734375 243.601562 L 228.734375 258.707031 C 228.734375 259.78125 229.605469 260.65625 230.683594 260.65625 Z M 230.683594 260.65625 " fill-opacity="1" fill-rule="nonzero"/><path fill="#ffffff" d="M 256.59375 260.65625 C 257.671875 260.65625 258.546875 259.78125 258.546875 258.707031 L 258.546875 243.601562 C 258.546875 242.523438 257.671875 241.652344 256.59375 241.652344 C 255.519531 241.652344 254.644531 242.523438 254.644531 243.601562 L 254.644531 258.707031 C 254.644531 259.78125 255.519531 260.65625 256.59375 260.65625 Z M 256.59375 260.65625 " fill-opacity="1" fill-rule="nonzero"/><path fill="#ffffff" d="M 267.390625 260.65625 C 268.46875 260.65625 269.34375 259.78125 269.34375 258.707031 L 269.34375 243.601562 C 269.34375 242.523438 268.46875 241.652344 267.390625 241.652344 C 266.316406 241.652344 265.441406 242.523438 265.441406 243.601562 L 265.441406 258.707031 C 265.441406 259.78125 266.316406 260.65625 267.390625 260.65625 Z M 267.390625 260.65625 " fill-opacity="1" fill-rule="nonzero"/><path fill="#ffffff" d="M 168.066406 189.863281 C 166.988281 189.863281 166.117188 190.738281 166.117188 191.816406 L 166.117188 206.917969 C 166.117188 207.996094 166.988281 208.871094 168.066406 208.871094 C 169.144531 208.871094 170.015625 207.996094 170.015625 206.917969 L 170.015625 191.816406 C 170.015625 190.738281 169.144531 189.863281 168.066406 189.863281 Z M 168.066406 189.863281 " fill-opacity="1" fill-rule="nonzero"/><path fill="#ffffff" d="M 146.472656 241.652344 C 145.398438 241.652344 144.523438 242.523438 144.523438 243.601562 L 144.523438 258.707031 C 144.523438 259.78125 145.398438 260.65625 146.472656 260.65625 C 147.550781 260.65625 148.425781 259.78125 148.425781 258.707031 L 148.425781 243.601562 C 148.425781 242.523438 147.550781 241.652344 146.472656 241.652344 Z M 146.472656 241.652344 " fill-opacity="1" fill-rule="nonzero"/><path fill="#ffffff" d="M 157.269531 241.652344 C 156.191406 241.652344 155.320312 242.523438 155.320312 243.601562 L 155.320312 258.707031 C 155.320312 259.78125 156.191406 260.65625 157.269531 260.65625 C 158.347656 260.65625 159.21875 259.78125 159.21875 258.707031 L 159.21875 243.601562 C 159.21875 242.523438 158.347656 241.652344 157.269531 241.652344 Z M 157.269531 241.652344 " fill-opacity="1" fill-rule="nonzero"/><path fill="#ffffff" d="M 168.066406 241.652344 C 166.988281 241.652344 166.117188 242.523438 166.117188 243.601562 L 166.117188 258.707031 C 166.117188 259.78125 166.988281 260.65625 168.066406 260.65625 C 169.144531 260.65625 170.015625 259.78125 170.015625 258.707031 L 170.015625 243.601562 C 170.015625 242.523438 169.144531 241.652344 168.066406 241.652344 Z M 168.066406 241.652344 " fill-opacity="1" fill-rule="nonzero"/><path fill="#ffffff" d="M 226.367188 208.871094 C 227.441406 208.871094 228.316406 207.996094 228.316406 206.917969 L 228.316406 191.816406 C 228.316406 190.738281 227.441406 189.863281 226.367188 189.863281 C 225.289062 189.863281 224.414062 190.738281 224.414062 191.816406 L 224.414062 206.917969 C 224.414062 207.996094 225.289062 208.871094 226.367188 208.871094 Z M 226.367188 208.871094 " fill-opacity="1" fill-rule="nonzero"/></svg>