<svg xmlns="http://www.w3.org/2000/svg" xmlns:xlink="http://www.w3.org/1999/xlink" width="500" zoomAndPan="magnify" viewBox="0 0 375 374.999991" height="500" preserveAspectRatio="xMidYMid meet" version="1.0"><defs><clipPath id="2247e1961b"><path d="M 187.5 0 C 83.945312 0 0 83.945312 0 187.5 C 0 291.054688 83.945312 375 187.5 375 C 291.054688 375 375 291.054688 375 187.5 C 375 83.945312 291.054688 0 187.5 0 Z M 187.5 0 " clip-rule="nonzero"/></clipPath><clipPath id="d34f80a11b"><path d="M 76.683594 66.277344 L 298.683594 66.277344 L 298.683594 308.527344 L 76.683594 308.527344 Z M 76.683594 66.277344 " clip-rule="nonzero"/></clipPath></defs><g clip-path="url(#2247e1961b)"><rect x="-37.5" width="450" fill="#233c4b" y="-37.499999" height="449.999989" fill-opacity="1"/></g><g clip-path="url(#d34f80a11b)"><path fill="#ffffff" d="M 135.625 207.488281 C 126.0625 201.617188 117.058594 193.5625 117.003906 183.386719 C 116.949219 179.136719 123.433594 179.136719 123.433594 183.386719 C 123.433594 184.503906 123.660156 185.625 124.050781 186.796875 L 160.175781 186.796875 C 161.015625 184.226562 160.175781 180.144531 163.980469 180.144531 C 169.402344 180.199219 166.609375 188.921875 165.097656 191.664062 C 162.359375 197.144531 156.820312 202.457031 148.601562 207.488281 C 157.605469 213.027344 167.613281 221.414062 167.222656 232.375 C 166.777344 242.832031 156.820312 250.886719 149.046875 255.472656 C 168.675781 267.160156 170.242188 282.652344 163.980469 282.59375 C 160.175781 282.59375 161.015625 278.457031 160.234375 275.996094 L 123.992188 275.996094 C 123.210938 278.511719 124.050781 282.59375 120.246094 282.59375 C 113.984375 282.59375 115.492188 267.105469 135.179688 255.472656 C 127.347656 250.886719 117.394531 242.832031 117.003906 232.375 C 116.554688 221.414062 126.621094 213.027344 135.625 207.488281 Z M 104.03125 130.984375 L 104.03125 69.527344 C 104.03125 67.734375 105.484375 66.28125 107.273438 66.28125 L 267.71875 66.28125 C 269.507812 66.28125 270.960938 67.734375 270.960938 69.527344 L 270.960938 154.082031 L 295.0625 154.082031 C 296.855469 154.082031 298.308594 155.480469 298.308594 157.269531 L 298.308594 305.46875 C 298.308594 307.257812 296.855469 308.710938 295.0625 308.710938 L 79.925781 308.710938 C 78.136719 308.710938 76.683594 307.257812 76.683594 305.46875 L 76.683594 134.230469 C 76.683594 132.441406 78.136719 130.984375 79.925781 130.984375 Z M 194.121094 154.082031 L 264.472656 154.082031 L 264.472656 72.714844 L 110.515625 72.714844 L 110.515625 130.984375 L 167.054688 130.984375 C 167.839844 130.984375 168.621094 131.265625 169.234375 131.824219 Z M 280.414062 293.722656 L 94.578125 293.722656 C 92.789062 293.722656 91.335938 292.269531 91.335938 290.480469 L 91.335938 172.3125 C 91.335938 170.523438 92.789062 169.070312 94.578125 169.070312 L 280.414062 169.070312 C 282.203125 169.070312 283.65625 170.523438 283.65625 172.3125 L 283.65625 290.480469 C 283.65625 292.269531 282.203125 293.722656 280.414062 293.722656 Z M 97.820312 287.234375 L 277.167969 287.234375 L 277.167969 175.5 L 97.820312 175.5 Z M 83.167969 302.28125 L 291.820312 302.28125 L 291.820312 160.511719 L 192.890625 160.511719 C 192.109375 160.511719 191.324219 160.234375 190.710938 159.675781 L 165.824219 137.417969 L 83.167969 137.417969 Z M 245.738281 97.097656 L 129.25 97.097656 C 125 97.097656 125 90.609375 129.25 90.609375 L 245.738281 90.609375 C 249.988281 90.609375 249.988281 97.097656 245.738281 97.097656 Z M 245.738281 116.613281 L 129.25 116.613281 C 125 116.613281 125 110.183594 129.25 110.183594 L 245.738281 110.183594 C 249.988281 110.183594 249.988281 116.613281 245.738281 116.613281 Z M 245.738281 136.1875 L 192.5 136.1875 C 188.25 136.1875 188.25 129.699219 192.5 129.699219 L 245.738281 129.699219 C 249.988281 129.699219 249.988281 136.1875 245.738281 136.1875 Z M 254.800781 190.824219 L 195.351562 190.824219 C 191.101562 190.824219 191.101562 184.394531 195.351562 184.394531 L 254.800781 184.394531 C 258.992188 184.394531 258.992188 190.824219 254.800781 190.824219 Z M 254.800781 212.746094 L 195.351562 212.746094 C 191.101562 212.746094 191.101562 206.257812 195.351562 206.257812 L 254.800781 206.257812 C 258.992188 206.257812 258.992188 212.746094 254.800781 212.746094 Z M 254.800781 234.613281 L 195.351562 234.613281 C 191.101562 234.613281 191.101562 228.179688 195.351562 228.179688 L 254.800781 228.179688 C 258.992188 228.179688 258.992188 234.613281 254.800781 234.613281 Z M 254.800781 256.476562 L 195.351562 256.476562 C 191.101562 256.476562 191.101562 250.046875 195.351562 250.046875 L 254.800781 250.046875 C 258.992188 250.046875 258.992188 256.476562 254.800781 256.476562 Z M 254.800781 278.398438 L 195.351562 278.398438 C 191.101562 278.398438 191.101562 271.914062 195.351562 271.914062 L 254.800781 271.914062 C 258.992188 271.914062 258.992188 278.398438 254.800781 278.398438 Z M 156.429688 269.5625 C 152.234375 264.699219 145.972656 260.953125 142.113281 259.050781 C 138.253906 260.953125 131.992188 264.753906 127.796875 269.5625 Z M 127.964844 193.230469 C 131.097656 196.75 135.851562 200.332031 142.113281 203.796875 C 148.375 200.332031 153.074219 196.75 156.261719 193.230469 Z M 151.230469 246.246094 L 132.941406 246.246094 C 136.242188 248.761719 139.652344 250.71875 142.113281 251.949219 C 144.574219 250.71875 147.984375 248.761719 151.230469 246.246094 Z M 126.453125 239.757812 L 157.714844 239.757812 C 158.945312 238.136719 159.839844 236.402344 160.34375 234.613281 L 123.828125 234.613281 C 124.328125 236.402344 125.28125 238.136719 126.453125 239.757812 Z M 124.050781 228.179688 L 160.175781 228.179688 C 159.617188 226.449219 158.609375 224.714844 157.269531 222.980469 L 126.957031 222.980469 C 125.558594 224.714844 124.609375 226.449219 124.050781 228.179688 Z M 133.726562 216.550781 L 150.445312 216.550781 C 148.042969 214.757812 145.300781 212.96875 142.113281 211.179688 C 138.925781 212.96875 136.128906 214.757812 133.726562 216.550781 Z M 133.726562 216.550781 " fill-opacity="1" fill-rule="evenodd"/></g></svg>