<svg xmlns="http://www.w3.org/2000/svg" xmlns:xlink="http://www.w3.org/1999/xlink" width="500" zoomAndPan="magnify" viewBox="0 0 375 374.999991" height="500" preserveAspectRatio="xMidYMid meet" version="1.0"><defs><clipPath id="8ba64249fc"><path d="M 187.5 0 C 83.945312 0 0 83.945312 0 187.5 C 0 291.054688 83.945312 375 187.5 375 C 291.054688 375 375 291.054688 375 187.5 C 375 83.945312 291.054688 0 187.5 0 Z M 187.5 0 " clip-rule="nonzero"/></clipPath><clipPath id="361d8ac1d3"><path d="M 61.96875 72.296875 L 313.21875 72.296875 L 313.21875 323.546875 L 61.96875 323.546875 Z M 61.96875 72.296875 " clip-rule="nonzero"/></clipPath></defs><g clip-path="url(#8ba64249fc)"><rect x="-37.5" width="450" fill="#233c4b" y="-37.499999" height="449.999989" fill-opacity="1"/></g><g clip-path="url(#361d8ac1d3)"><path fill="#ffffff" d="M 296.292969 264.777344 L 78.703125 264.777344 C 74.097656 264.777344 70.335938 261.019531 70.335938 256.410156 L 70.335938 239.671875 L 304.660156 239.671875 L 304.660156 256.410156 C 304.660156 261.019531 300.902344 264.777344 296.292969 264.777344 Z M 229.34375 281.515625 L 145.65625 281.515625 L 145.65625 273.148438 L 229.34375 273.148438 Z M 127.9375 298.253906 L 142.582031 289.882812 L 232.414062 289.882812 L 247.0625 298.253906 Z M 116.363281 314.992188 L 116.363281 306.621094 L 258.632812 306.621094 L 258.648438 314.992188 Z M 78.703125 80.664062 L 296.292969 80.664062 C 300.902344 80.664062 304.660156 84.425781 304.660156 89.035156 L 304.660156 231.304688 L 70.335938 231.304688 L 70.335938 89.035156 C 70.335938 84.425781 74.097656 80.664062 78.703125 80.664062 Z M 296.292969 72.296875 L 78.703125 72.296875 C 69.46875 72.296875 61.96875 79.800781 61.96875 89.035156 L 61.96875 256.410156 C 61.96875 265.644531 69.46875 273.148438 78.703125 273.148438 L 137.285156 273.148438 L 137.285156 283.265625 L 110.105469 298.808594 C 109.890625 298.921875 109.726562 299.101562 109.546875 299.25 C 109.417969 299.363281 109.269531 299.460938 109.15625 299.59375 C 108.828125 299.921875 108.566406 300.296875 108.386719 300.722656 C 108.371094 300.753906 108.339844 300.785156 108.324219 300.820312 C 108.125 301.292969 108.042969 301.785156 108.027344 302.304688 C 108.027344 302.355469 107.996094 302.386719 107.996094 302.4375 L 107.996094 314.992188 C 107.996094 319.601562 111.753906 323.359375 116.363281 323.359375 L 258.632812 323.359375 C 263.242188 323.359375 267 319.601562 267 314.992188 L 267 302.4375 C 267 302.386719 266.96875 302.355469 266.96875 302.304688 C 266.953125 301.785156 266.871094 301.292969 266.675781 300.820312 C 266.660156 300.785156 266.625 300.753906 266.609375 300.703125 C 266.414062 300.296875 266.167969 299.921875 265.839844 299.59375 C 265.726562 299.460938 265.578125 299.363281 265.449219 299.25 C 265.253906 299.101562 265.105469 298.921875 264.894531 298.808594 L 237.710938 283.265625 L 237.710938 273.148438 L 296.292969 273.148438 C 305.527344 273.148438 313.03125 265.644531 313.03125 256.410156 L 313.03125 89.035156 C 313.03125 79.800781 305.527344 72.296875 296.292969 72.296875 " fill-opacity="1" fill-rule="nonzero"/></g><path fill="#ffffff" d="M 195.867188 248.039062 L 179.128906 248.039062 C 176.824219 248.039062 174.945312 249.921875 174.945312 252.226562 C 174.945312 254.53125 176.824219 256.410156 179.128906 256.410156 L 195.867188 256.410156 C 198.171875 256.410156 200.050781 254.53125 200.050781 252.226562 C 200.050781 249.921875 198.171875 248.039062 195.867188 248.039062 " fill-opacity="1" fill-rule="nonzero"/><path fill="#ffffff" d="M 162.390625 172.722656 C 164.695312 172.722656 166.578125 170.84375 166.578125 168.539062 L 166.578125 151.800781 C 166.578125 149.496094 164.695312 147.617188 162.390625 147.617188 C 160.085938 147.617188 158.207031 149.496094 158.207031 151.800781 L 158.207031 168.539062 C 158.207031 170.84375 160.085938 172.722656 162.390625 172.722656 " fill-opacity="1" fill-rule="nonzero"/><path fill="#ffffff" d="M 179.128906 185.273438 C 181.433594 185.273438 183.3125 183.394531 183.3125 181.089844 L 183.3125 139.246094 C 183.3125 136.941406 181.433594 135.0625 179.128906 135.0625 C 176.824219 135.0625 174.945312 136.941406 174.945312 139.246094 L 174.945312 181.089844 C 174.945312 183.394531 176.824219 185.273438 179.128906 185.273438 " fill-opacity="1" fill-rule="nonzero"/><path fill="#ffffff" d="M 120.546875 168.539062 L 120.546875 151.800781 C 120.546875 149.496094 118.667969 147.617188 116.363281 147.617188 C 114.058594 147.617188 112.179688 149.496094 112.179688 151.800781 L 112.179688 168.539062 C 112.179688 170.84375 114.058594 172.722656 116.363281 172.722656 C 118.667969 172.722656 120.546875 170.84375 120.546875 168.539062 " fill-opacity="1" fill-rule="nonzero"/><path fill="#ffffff" d="M 103.8125 181.089844 L 103.8125 139.246094 C 103.8125 136.941406 101.929688 135.0625 99.625 135.0625 C 97.320312 135.0625 95.441406 136.941406 95.441406 139.246094 L 95.441406 181.089844 C 95.441406 183.394531 97.320312 185.273438 99.625 185.273438 C 101.929688 185.273438 103.8125 183.394531 103.8125 181.089844 " fill-opacity="1" fill-rule="nonzero"/><path fill="#ffffff" d="M 254.449219 151.800781 L 254.449219 168.539062 C 254.449219 170.84375 256.328125 172.722656 258.632812 172.722656 C 260.9375 172.722656 262.816406 170.84375 262.816406 168.539062 L 262.816406 151.800781 C 262.816406 149.496094 260.9375 147.617188 258.632812 147.617188 C 256.328125 147.617188 254.449219 149.496094 254.449219 151.800781 " fill-opacity="1" fill-rule="nonzero"/><path fill="#ffffff" d="M 271.1875 139.246094 L 271.1875 181.089844 C 271.1875 183.394531 273.066406 185.273438 275.371094 185.273438 C 277.675781 185.273438 279.554688 183.394531 279.554688 181.089844 L 279.554688 139.246094 C 279.554688 136.941406 277.675781 135.0625 275.371094 135.0625 C 273.066406 135.0625 271.1875 136.941406 271.1875 139.246094 " fill-opacity="1" fill-rule="nonzero"/><path fill="#ffffff" d="M 212.605469 172.722656 C 214.910156 172.722656 216.789062 170.84375 216.789062 168.539062 L 216.789062 151.800781 C 216.789062 149.496094 214.910156 147.617188 212.605469 147.617188 C 210.300781 147.617188 208.421875 149.496094 208.421875 151.800781 L 208.421875 168.539062 C 208.421875 170.84375 210.300781 172.722656 212.605469 172.722656 " fill-opacity="1" fill-rule="nonzero"/><path fill="#ffffff" d="M 195.867188 185.273438 C 198.171875 185.273438 200.050781 183.394531 200.050781 181.089844 L 200.050781 139.246094 C 200.050781 136.941406 198.171875 135.0625 195.867188 135.0625 C 193.5625 135.0625 191.683594 136.941406 191.683594 139.246094 L 191.683594 181.089844 C 191.683594 183.394531 193.5625 185.273438 195.867188 185.273438 " fill-opacity="1" fill-rule="nonzero"/><path fill="#ffffff" d="M 147.632812 144.722656 C 152.144531 137.1875 158.535156 131.351562 166.773438 127.332031 C 179.949219 120.875 195.050781 120.875 208.222656 127.332031 C 221.398438 133.769531 229.867188 144.820312 233.429688 160.167969 C 229.867188 175.515625 221.398438 186.566406 208.222656 193.007812 C 195.050781 199.460938 179.949219 199.460938 166.773438 193.007812 C 153.597656 186.566406 145.132812 175.515625 141.570312 160.167969 C 142.910156 154.414062 144.9375 149.265625 147.632812 144.722656 Z M 82.890625 202.011719 C 82.890625 204.316406 84.769531 206.195312 87.074219 206.195312 C 95.476562 206.195312 103.910156 204.234375 111.476562 200.523438 C 123.230469 194.789062 131.992188 185.617188 137.285156 173.6875 C 138.183594 175.710938 139.183594 177.65625 140.277344 179.519531 C 145.640625 188.625 153.335938 195.753906 163.09375 200.523438 C 170.84375 204.316406 179.179688 206.230469 187.5 206.230469 C 195.820312 206.230469 204.15625 204.316406 211.902344 200.523438 C 223.65625 194.789062 232.414062 185.617188 237.710938 173.6875 C 243.007812 185.617188 251.769531 194.789062 263.519531 200.523438 C 271.089844 204.234375 279.523438 206.195312 287.921875 206.195312 C 290.226562 206.195312 292.109375 204.316406 292.109375 202.011719 C 292.109375 199.707031 290.226562 197.828125 287.921875 197.828125 C 280.796875 197.828125 273.636719 196.160156 267.199219 193.007812 C 254.023438 186.566406 245.558594 175.515625 241.992188 160.167969 C 245.558594 144.820312 254.023438 133.769531 267.199219 127.332031 C 273.636719 124.175781 280.796875 122.507812 287.921875 122.507812 C 290.226562 122.507812 292.109375 120.628906 292.109375 118.324219 C 292.109375 116.019531 290.226562 114.140625 287.921875 114.140625 C 279.523438 114.140625 271.089844 116.101562 263.519531 119.8125 C 251.769531 125.550781 243.007812 134.71875 237.710938 146.652344 C 232.414062 134.71875 223.65625 125.550781 211.917969 119.8125 C 196.390625 112.210938 178.605469 112.195312 163.09375 119.8125 C 151.34375 125.550781 142.582031 134.71875 137.285156 146.652344 C 131.992188 134.71875 123.230469 125.550781 111.476562 119.8125 C 103.910156 116.101562 95.476562 114.140625 87.074219 114.140625 C 84.769531 114.140625 82.890625 116.019531 82.890625 118.324219 C 82.890625 120.628906 84.769531 122.507812 87.074219 122.507812 C 94.199219 122.507812 101.375 124.175781 107.800781 127.332031 C 120.972656 133.769531 129.441406 144.820312 133.003906 160.167969 C 129.441406 175.515625 120.972656 186.566406 107.800781 193.007812 C 101.375 196.160156 94.199219 197.828125 87.074219 197.828125 C 84.769531 197.828125 82.890625 199.707031 82.890625 202.011719 " fill-opacity="1" fill-rule="nonzero"/></svg>