<svg xmlns="http://www.w3.org/2000/svg" xmlns:xlink="http://www.w3.org/1999/xlink" width="500" zoomAndPan="magnify" viewBox="0 0 375 374.999991" height="500" preserveAspectRatio="xMidYMid meet" version="1.0"><defs><clipPath id="66006a8543"><path d="M 187.5 0 C 83.945312 0 0 83.945312 0 187.5 C 0 291.054688 83.945312 375 187.5 375 C 291.054688 375 375 291.054688 375 187.5 C 375 83.945312 291.054688 0 187.5 0 Z M 187.5 0 " clip-rule="nonzero"/></clipPath><clipPath id="3f47bdd715"><path d="M 82 86 L 169 86 L 169 201 L 82 201 Z M 82 86 " clip-rule="nonzero"/></clipPath><clipPath id="8bb0a4e85b"><path d="M 113.402344 23.851562 L 344.695312 125.757812 L 250.046875 340.582031 L 18.75 238.671875 Z M 113.402344 23.851562 " clip-rule="nonzero"/></clipPath><clipPath id="22797f53cd"><path d="M 113.402344 23.851562 L 344.695312 125.757812 L 250.046875 340.582031 L 18.75 238.671875 Z M 113.402344 23.851562 " clip-rule="nonzero"/></clipPath><clipPath id="a9e852a219"><path d="M 140 78 L 318 78 L 318 301 L 140 301 Z M 140 78 " clip-rule="nonzero"/></clipPath><clipPath id="989fc9f176"><path d="M 113.402344 23.851562 L 344.695312 125.757812 L 250.046875 340.582031 L 18.75 238.671875 Z M 113.402344 23.851562 " clip-rule="nonzero"/></clipPath><clipPath id="d3021894b5"><path d="M 113.402344 23.851562 L 344.695312 125.757812 L 250.046875 340.582031 L 18.75 238.671875 Z M 113.402344 23.851562 " clip-rule="nonzero"/></clipPath></defs><g clip-path="url(#66006a8543)"><rect x="-37.5" width="450" fill="#233c4b" y="-37.499999" height="449.999989" fill-opacity="1"/></g><g clip-path="url(#3f47bdd715)"><g clip-path="url(#8bb0a4e85b)"><g clip-path="url(#22797f53cd)"><path fill="#ffffff" d="M 144.289062 188.289062 C 139.59375 191.796875 133.175781 191.574219 128.691406 187.742188 L 108.65625 170.648438 L 105.558594 151.355469 C 114.171875 152.519531 128.375 153.644531 144.097656 151.65625 C 145.242188 151.515625 146.332031 151.328125 147.367188 151.105469 C 151.722656 155.585938 157.207031 163.222656 155.660156 172.21875 C 154.667969 177.984375 150.84375 183.390625 144.289062 188.289062 Z M 122.378906 106.40625 C 133.996094 96.234375 144.070312 92.917969 152.316406 96.550781 C 156.855469 98.550781 159.316406 100.996094 159.832031 104.015625 C 160.925781 110.402344 153.699219 118.808594 150.832031 121.503906 C 149.308594 122.925781 149.070312 125.257812 150.261719 126.960938 C 151.453125 128.671875 154.570312 134.402344 153.253906 138.164062 C 152.585938 140.078125 150.625 141.527344 147.421875 142.480469 C 146.15625 142.859375 144.683594 143.15625 143.046875 143.363281 C 126.417969 145.460938 111.273438 143.789062 104.167969 142.703125 L 102.066406 129.632812 C 108.863281 120.070312 115.691406 112.257812 122.378906 106.40625 Z M 155.671875 147.804688 C 158.867188 145.648438 160.417969 143.023438 161.15625 140.886719 C 163.191406 135.011719 160.804688 128.769531 158.902344 125.152344 C 160.0625 123.855469 161.507812 122.113281 162.902344 120.082031 C 167.230469 113.777344 168.96875 107.90625 168.078125 102.628906 C 167.070312 96.699219 162.902344 92.082031 155.6875 88.902344 C 135.386719 79.957031 113.96875 100.5 100.21875 118.121094 L 99.289062 112.347656 C 100.460938 102.460938 108.457031 99.050781 108.863281 98.886719 C 111 98.042969 112.054688 95.628906 111.21875 93.488281 C 110.382812 91.335938 107.964844 90.269531 105.8125 91.105469 C 105.347656 91.28125 96.058594 95.015625 92.320312 105.5625 C 91.742188 104.871094 91.351562 104.132812 91.148438 103.347656 C 90.289062 100.03125 92.660156 95.933594 93.652344 94.632812 C 95.054688 92.808594 94.722656 90.195312 92.902344 88.78125 C 91.078125 87.363281 88.449219 87.695312 87.035156 89.519531 C 86.417969 90.316406 81.050781 97.535156 83.039062 105.375 C 84.078125 109.488281 86.847656 112.792969 91.285156 115.230469 L 96.3125 146.527344 L 96.390625 146.992188 C 96.390625 147 96.390625 147.003906 96.390625 147.007812 L 104.371094 196.671875 C 104.605469 198.128906 105.5625 199.28125 106.816406 199.835938 C 107.527344 200.148438 108.335938 200.269531 109.164062 200.136719 C 111.441406 199.769531 112.992188 197.625 112.625 195.34375 L 110.707031 183.386719 L 123.261719 194.101562 C 124.871094 195.476562 126.628906 196.570312 128.480469 197.382812 C 135.214844 200.351562 143.136719 199.585938 149.292969 194.984375 C 157.503906 188.851562 162.554688 181.464844 163.898438 173.632812 C 164.8125 168.335938 164.726562 158.460938 155.671875 147.804688 " fill-opacity="1" fill-rule="nonzero"/></g></g></g><g clip-path="url(#a9e852a219)"><g clip-path="url(#989fc9f176)"><g clip-path="url(#d3021894b5)"><path fill="#ffffff" d="M 266.269531 217.863281 L 257.808594 204.671875 L 271.777344 200.171875 L 282.15625 217.105469 C 276.46875 218.640625 270.867188 218.523438 266.269531 217.863281 Z M 251.234375 215.480469 C 247.382812 218.394531 243.371094 220.789062 239.207031 222.664062 L 233.023438 212.65625 L 249.574219 207.324219 L 254.289062 214.671875 C 253.21875 214.535156 252.117188 214.808594 251.234375 215.480469 Z M 158.039062 290.917969 L 150.386719 287.546875 L 177.351562 226.34375 L 181.179688 228.03125 C 181.417969 228.136719 181.664062 228.214844 181.910156 228.273438 C 182.550781 228.597656 183.472656 229.042969 184.636719 229.558594 C 184.757812 229.609375 184.882812 229.664062 185.003906 229.714844 Z M 228.636719 89.210938 C 229.566406 87.105469 232.03125 86.148438 234.136719 87.074219 L 237.96875 88.765625 L 180.722656 218.695312 L 176.890625 217.003906 C 174.785156 216.078125 173.828125 213.609375 174.753906 211.507812 Z M 262.078125 102.378906 L 251.8125 105.753906 L 244.757812 94.097656 L 245.671875 92.015625 C 249.324219 93.65625 255.371094 96.8125 261.527344 101.914062 C 261.714844 102.066406 261.894531 102.222656 262.078125 102.378906 Z M 283.046875 141.046875 L 274.820312 143.773438 L 267.976562 132.46875 L 280.226562 128.519531 C 281.578125 132.492188 282.519531 136.671875 283.046875 141.046875 Z M 308.910156 179.425781 L 298.4375 182.800781 L 291.253906 170.925781 L 306.1875 166.113281 C 307.914062 169.953125 308.988281 174.382812 308.910156 179.425781 Z M 302.890625 190.148438 L 307.5625 188.644531 C 307.050781 190.539062 306.382812 192.5 305.542969 194.535156 Z M 268.203125 178.351562 L 283.074219 173.558594 L 290.261719 185.433594 L 275.46875 190.199219 Z M 245.59375 185.632812 L 260.015625 180.988281 L 267.28125 192.835938 L 253.140625 197.390625 Z M 221.175781 193.496094 L 237.363281 188.28125 L 244.90625 200.042969 L 228.492188 205.332031 Z M 204.847656 212.949219 L 197.574219 201.179688 L 197.617188 201.085938 L 212.980469 196.136719 L 220.296875 207.972656 Z M 209.375 220.273438 L 224.824219 215.296875 L 231.183594 225.585938 C 225.667969 227.132812 219.921875 227.839844 213.964844 227.699219 Z M 201.175781 222.914062 L 203.457031 226.605469 C 200.582031 226.078125 197.949219 225.40625 195.628906 224.703125 Z M 217.144531 156.765625 L 220.398438 161.839844 L 213.96875 163.972656 Z M 237.550781 110.445312 L 240.640625 103.441406 L 243.664062 108.4375 Z M 251.710938 151.445312 L 244.679688 139.972656 L 259.800781 135.101562 L 266.683594 146.476562 Z M 221.214844 147.53125 L 236.492188 142.609375 L 243.566406 154.148438 L 228.589844 159.121094 L 221.1875 147.585938 Z M 228.863281 130.167969 L 231.996094 135.273438 L 225.722656 137.296875 Z M 233.246094 166.382812 L 248.050781 161.46875 L 255.519531 173.652344 L 240.925781 178.351562 Z M 209.375 174.402344 L 209.425781 174.289062 L 225.058594 169.097656 L 232.695312 181.003906 L 216.648438 186.171875 Z M 205.285156 183.6875 L 208.449219 188.8125 L 202.125 190.851562 Z M 193.484375 210.464844 L 196.652344 215.589844 L 190.332031 217.625 Z M 278.628906 166.207031 L 263.707031 171.015625 L 256.199219 158.765625 L 271.125 153.8125 Z M 288.871094 147.921875 C 292.15625 149.828125 297.382812 153.398438 301.679688 158.785156 L 286.804688 163.574219 L 279.261719 151.109375 Z M 256.253906 113.09375 L 268.820312 108.957031 C 272.058594 112.621094 274.769531 116.574219 276.945312 120.796875 L 263.527344 125.117188 Z M 255.351562 127.75 L 240.183594 132.636719 L 232.964844 120.859375 L 233.015625 120.742188 L 248.105469 115.777344 Z M 279.964844 197.535156 L 294.710938 192.785156 L 300.984375 203.152344 C 297.695312 208.066406 293.910156 211.496094 289.953125 213.828125 Z M 314.695312 164.714844 C 309.15625 150.480469 296.472656 142.492188 291.308594 139.726562 C 289.09375 122.078125 280.582031 106.742188 266.597656 95.257812 C 256.355469 86.847656 246.585938 83.269531 244.992188 82.722656 L 237.507812 79.425781 C 231.183594 76.640625 223.773438 79.515625 220.988281 85.839844 L 167.105469 208.136719 C 164.910156 213.121094 166.234375 218.777344 169.992188 222.320312 L 141.050781 288.003906 C 140.121094 290.117188 141.078125 292.582031 143.191406 293.511719 L 158.492188 300.253906 C 160.605469 301.1875 163.070312 300.226562 164.003906 298.113281 L 192.867188 232.605469 C 196.304688 233.664062 200.367188 234.660156 204.894531 235.308594 C 222.8125 237.878906 239.875 233.808594 254.398438 223.523438 C 258.152344 224.824219 266.066406 227.042969 275.222656 226.578125 C 287.054688 225.980469 303.164062 220.71875 312.710938 199.042969 C 318.117188 186.769531 318.785156 175.222656 314.695312 164.714844 " fill-opacity="1" fill-rule="nonzero"/></g></g></g></svg>