<svg xmlns="http://www.w3.org/2000/svg" xmlns:xlink="http://www.w3.org/1999/xlink" width="500" zoomAndPan="magnify" viewBox="0 0 375 374.999991" height="500" preserveAspectRatio="xMidYMid meet" version="1.0"><defs><g/><clipPath id="a77c9f4a03"><path d="M 37.5 37.5 L 337.5 37.5 L 337.5 97.480469 L 37.5 97.480469 Z M 37.5 37.5 " clip-rule="nonzero"/></clipPath><clipPath id="e6e88c63af"><path d="M 54.75 37.5 L 320.25 37.5 C 324.824219 37.5 329.210938 39.316406 332.449219 42.550781 C 335.683594 45.789062 337.5 50.175781 337.5 54.75 L 337.5 80.230469 C 337.5 84.808594 335.683594 89.195312 332.449219 92.429688 C 329.210938 95.664062 324.824219 97.480469 320.25 97.480469 L 54.75 97.480469 C 50.175781 97.480469 45.789062 95.664062 42.550781 92.429688 C 39.316406 89.195312 37.5 84.808594 37.5 80.230469 L 37.5 54.75 C 37.5 50.175781 39.316406 45.789062 42.550781 42.550781 C 45.789062 39.316406 50.175781 37.5 54.75 37.5 Z M 54.75 37.5 " clip-rule="nonzero"/></clipPath><clipPath id="889607d516"><path d="M 56.078125 44.070312 L 102.578125 44.070312 L 102.578125 90.570312 L 56.078125 90.570312 Z M 56.078125 44.070312 " clip-rule="nonzero"/></clipPath></defs><g clip-path="url(#a77c9f4a03)"><g clip-path="url(#e6e88c63af)"><path fill="#58a39d" d="M 37.5 37.5 L 337.5 37.5 L 337.5 97.480469 L 37.5 97.480469 Z M 37.5 37.5 " fill-opacity="1" fill-rule="nonzero"/></g></g><g fill="#ffffff" fill-opacity="1"><g transform="translate(135.632808, 77.991206)"><g><path d="M 20.140625 -15.578125 C 21.867188 -15.578125 23.175781 -15.128906 24.0625 -14.234375 C 24.957031 -13.347656 25.40625 -11.925781 25.40625 -9.96875 L 25.40625 0 L 21.21875 0 L 21.21875 -8.921875 C 21.21875 -10.015625 21.03125 -10.835938 20.65625 -11.390625 C 20.28125 -11.953125 19.703125 -12.234375 18.921875 -12.234375 C 17.816406 -12.234375 17.03125 -11.835938 16.5625 -11.046875 C 16.101562 -10.265625 15.875 -9.140625 15.875 -7.671875 L 15.875 0 L 11.703125 0 L 11.703125 -8.921875 C 11.703125 -9.648438 11.617188 -10.257812 11.453125 -10.75 C 11.296875 -11.25 11.046875 -11.617188 10.703125 -11.859375 C 10.367188 -12.109375 9.9375 -12.234375 9.40625 -12.234375 C 8.632812 -12.234375 8.023438 -12.039062 7.578125 -11.65625 C 7.140625 -11.269531 6.828125 -10.695312 6.640625 -9.9375 C 6.453125 -9.1875 6.359375 -8.269531 6.359375 -7.1875 L 6.359375 0 L 2.1875 0 L 2.1875 -15.28125 L 5.375 -15.28125 L 5.9375 -13.328125 L 6.171875 -13.328125 C 6.472656 -13.859375 6.859375 -14.285156 7.328125 -14.609375 C 7.804688 -14.941406 8.328125 -15.1875 8.890625 -15.34375 C 9.453125 -15.5 10.023438 -15.578125 10.609375 -15.578125 C 11.734375 -15.578125 12.679688 -15.394531 13.453125 -15.03125 C 14.234375 -14.664062 14.835938 -14.097656 15.265625 -13.328125 L 15.625 -13.328125 C 16.082031 -14.109375 16.726562 -14.675781 17.5625 -15.03125 C 18.394531 -15.394531 19.253906 -15.578125 20.140625 -15.578125 Z M 20.140625 -15.578125 "/></g></g></g><g fill="#ffffff" fill-opacity="1"><g transform="translate(163.123118, 77.991206)"><g><path d="M 8.453125 -15.59375 C 10.503906 -15.59375 12.078125 -15.144531 13.171875 -14.25 C 14.265625 -13.363281 14.8125 -12.007812 14.8125 -10.1875 L 14.8125 0 L 11.890625 0 L 11.09375 -2.078125 L 10.984375 -2.078125 C 10.546875 -1.535156 10.097656 -1.085938 9.640625 -0.734375 C 9.179688 -0.390625 8.65625 -0.132812 8.0625 0.03125 C 7.46875 0.195312 6.75 0.28125 5.90625 0.28125 C 5 0.28125 4.1875 0.109375 3.46875 -0.234375 C 2.757812 -0.585938 2.195312 -1.117188 1.78125 -1.828125 C 1.375 -2.546875 1.171875 -3.457031 1.171875 -4.5625 C 1.171875 -6.1875 1.738281 -7.382812 2.875 -8.15625 C 4.019531 -8.925781 5.734375 -9.351562 8.015625 -9.4375 L 10.671875 -9.515625 L 10.671875 -10.1875 C 10.671875 -10.988281 10.457031 -11.578125 10.03125 -11.953125 C 9.613281 -12.328125 9.03125 -12.515625 8.28125 -12.515625 C 7.539062 -12.515625 6.816406 -12.40625 6.109375 -12.1875 C 5.398438 -11.976562 4.691406 -11.71875 3.984375 -11.40625 L 2.59375 -14.21875 C 3.40625 -14.644531 4.316406 -14.976562 5.328125 -15.21875 C 6.335938 -15.46875 7.378906 -15.59375 8.453125 -15.59375 Z M 10.671875 -7.078125 L 9.046875 -7.03125 C 7.703125 -6.988281 6.765625 -6.742188 6.234375 -6.296875 C 5.710938 -5.859375 5.453125 -5.273438 5.453125 -4.546875 C 5.453125 -3.898438 5.640625 -3.441406 6.015625 -3.171875 C 6.390625 -2.910156 6.878906 -2.78125 7.484375 -2.78125 C 8.367188 -2.78125 9.117188 -3.039062 9.734375 -3.5625 C 10.359375 -4.09375 10.671875 -4.847656 10.671875 -5.828125 Z M 10.671875 -7.078125 "/></g></g></g><g fill="#ffffff" fill-opacity="1"><g transform="translate(180.032872, 77.991206)"><g><path d="M 10.71875 -15.578125 C 10.925781 -15.578125 11.171875 -15.5625 11.453125 -15.53125 C 11.734375 -15.507812 11.957031 -15.484375 12.125 -15.453125 L 11.8125 -11.546875 C 11.675781 -11.585938 11.484375 -11.617188 11.234375 -11.640625 C 10.984375 -11.660156 10.765625 -11.671875 10.578125 -11.671875 C 10.046875 -11.671875 9.523438 -11.601562 9.015625 -11.46875 C 8.515625 -11.332031 8.0625 -11.109375 7.65625 -10.796875 C 7.257812 -10.492188 6.941406 -10.09375 6.703125 -9.59375 C 6.472656 -9.101562 6.359375 -8.5 6.359375 -7.78125 L 6.359375 0 L 2.1875 0 L 2.1875 -15.28125 L 5.34375 -15.28125 L 5.96875 -12.71875 L 6.171875 -12.71875 C 6.472656 -13.238281 6.847656 -13.710938 7.296875 -14.140625 C 7.742188 -14.578125 8.253906 -14.925781 8.828125 -15.1875 C 9.410156 -15.445312 10.039062 -15.578125 10.71875 -15.578125 Z M 10.71875 -15.578125 "/></g></g></g><g fill="#ffffff" fill-opacity="1"><g transform="translate(192.745941, 77.991206)"><g><path d="M 6.359375 -21.28125 L 6.359375 -11.765625 C 6.359375 -11.179688 6.332031 -10.601562 6.28125 -10.03125 C 6.238281 -9.457031 6.191406 -8.882812 6.140625 -8.3125 L 6.1875 -8.3125 C 6.476562 -8.71875 6.769531 -9.113281 7.0625 -9.5 C 7.351562 -9.894531 7.671875 -10.273438 8.015625 -10.640625 L 12.296875 -15.28125 L 17 -15.28125 L 10.921875 -8.65625 L 17.359375 0 L 12.546875 0 L 8.15625 -6.1875 L 6.359375 -4.765625 L 6.359375 0 L 2.1875 0 L 2.1875 -21.28125 Z M 6.359375 -21.28125 "/></g></g></g><g fill="#ffffff" fill-opacity="1"><g transform="translate(210.106799, 77.991206)"><g><path d="M 8.484375 -15.578125 C 9.898438 -15.578125 11.117188 -15.304688 12.140625 -14.765625 C 13.160156 -14.222656 13.945312 -13.4375 14.5 -12.40625 C 15.0625 -11.375 15.34375 -10.113281 15.34375 -8.625 L 15.34375 -6.609375 L 5.484375 -6.609375 C 5.523438 -5.429688 5.875 -4.503906 6.53125 -3.828125 C 7.195312 -3.160156 8.117188 -2.828125 9.296875 -2.828125 C 10.273438 -2.828125 11.164062 -2.925781 11.96875 -3.125 C 12.78125 -3.332031 13.617188 -3.632812 14.484375 -4.03125 L 14.484375 -0.8125 C 13.722656 -0.4375 12.929688 -0.160156 12.109375 0.015625 C 11.285156 0.191406 10.285156 0.28125 9.109375 0.28125 C 7.578125 0.28125 6.21875 0 5.03125 -0.5625 C 3.851562 -1.132812 2.929688 -2 2.265625 -3.15625 C 1.597656 -4.3125 1.265625 -5.769531 1.265625 -7.53125 C 1.265625 -9.320312 1.566406 -10.8125 2.171875 -12 C 2.773438 -13.1875 3.617188 -14.078125 4.703125 -14.671875 C 5.785156 -15.273438 7.046875 -15.578125 8.484375 -15.578125 Z M 8.515625 -12.609375 C 7.703125 -12.609375 7.03125 -12.347656 6.5 -11.828125 C 5.96875 -11.304688 5.660156 -10.488281 5.578125 -9.375 L 11.4375 -9.375 C 11.425781 -10 11.3125 -10.550781 11.09375 -11.03125 C 10.882812 -11.519531 10.566406 -11.90625 10.140625 -12.1875 C 9.710938 -12.46875 9.171875 -12.609375 8.515625 -12.609375 Z M 8.515625 -12.609375 "/></g></g></g><g fill="#ffffff" fill-opacity="1"><g transform="translate(226.647459, 77.991206)"><g><path d="M 10.71875 -15.578125 C 10.925781 -15.578125 11.171875 -15.5625 11.453125 -15.53125 C 11.734375 -15.507812 11.957031 -15.484375 12.125 -15.453125 L 11.8125 -11.546875 C 11.675781 -11.585938 11.484375 -11.617188 11.234375 -11.640625 C 10.984375 -11.660156 10.765625 -11.671875 10.578125 -11.671875 C 10.046875 -11.671875 9.523438 -11.601562 9.015625 -11.46875 C 8.515625 -11.332031 8.0625 -11.109375 7.65625 -10.796875 C 7.257812 -10.492188 6.941406 -10.09375 6.703125 -9.59375 C 6.472656 -9.101562 6.359375 -8.5 6.359375 -7.78125 L 6.359375 0 L 2.1875 0 L 2.1875 -15.28125 L 5.34375 -15.28125 L 5.96875 -12.71875 L 6.171875 -12.71875 C 6.472656 -13.238281 6.847656 -13.710938 7.296875 -14.140625 C 7.742188 -14.578125 8.253906 -14.925781 8.828125 -15.1875 C 9.410156 -15.445312 10.039062 -15.578125 10.71875 -15.578125 Z M 10.71875 -15.578125 "/></g></g></g><g clip-path="url(#889607d516)"><path fill="#ffffff" d="M 92.519531 54.128906 C 92.082031 50.871094 91.871094 48.027344 94.378906 45.515625 L 92.941406 44.070312 C 89.933594 47.078125 90.007812 50.585938 90.421875 53.835938 C 88.167969 53.546875 85.878906 53.425781 83.675781 54.320312 L 83.648438 54.296875 L 82.988281 54.636719 C 81.222656 55.566406 79.875 56.910156 78.941406 58.667969 L 78.601562 59.332031 L 78.628906 59.359375 C 77.722656 61.566406 77.847656 63.859375 78.136719 66.121094 C 75.863281 65.828125 73.5625 65.707031 71.34375 66.632812 L 71.316406 66.605469 L 70.648438 66.949219 C 69.800781 67.398438 69.042969 67.964844 68.367188 68.644531 C 68.097656 68.910156 67.839844 69.195312 67.601562 69.488281 C 67.222656 69.964844 66.894531 70.476562 66.617188 71.019531 L 66.292969 71.671875 L 66.316406 71.699219 C 65.433594 73.894531 65.550781 76.167969 65.84375 78.410156 C 62.597656 78 59.089844 77.921875 56.078125 80.933594 L 57.523438 82.371094 C 60.039062 79.855469 62.886719 80.054688 66.136719 80.503906 C 66.585938 83.761719 66.789062 86.601562 64.269531 89.121094 L 65.714844 90.5625 C 68.726562 87.550781 68.644531 84.042969 68.234375 80.800781 C 70.476562 81.09375 72.753906 81.210938 74.949219 80.328125 L 74.972656 80.355469 L 75.632812 80.023438 C 75.777344 79.949219 75.917969 79.871094 76.054688 79.789062 C 76.769531 79.375 77.417969 78.871094 78 78.285156 C 78.679688 77.609375 79.246094 76.851562 79.691406 76.003906 L 80.042969 75.339844 L 80.015625 75.3125 C 80.933594 73.09375 80.8125 70.785156 80.523438 68.515625 C 82.785156 68.804688 85.078125 68.925781 87.285156 68.023438 L 87.316406 68.050781 L 87.980469 67.710938 C 88.835938 67.253906 89.601562 66.683594 90.28125 65.996094 C 90.976562 65.308594 91.550781 64.53125 92.003906 63.664062 L 92.34375 63 L 92.339844 62.964844 C 93.234375 60.765625 93.105469 58.476562 92.824219 56.222656 C 96.070312 56.632812 99.578125 56.714844 102.589844 53.699219 L 101.148438 52.253906 C 98.621094 54.777344 95.78125 54.578125 92.519531 54.128906 Z M 82.488281 57.445312 L 82.582031 57.363281 C 82.714844 57.253906 82.839844 57.144531 82.976562 57.046875 C 83.078125 56.972656 83.183594 56.902344 83.289062 56.835938 L 89.820312 63.367188 C 89.75 63.46875 89.683594 63.574219 89.609375 63.675781 C 89.511719 63.808594 89.402344 63.933594 89.292969 64.066406 L 89.210938 64.167969 C 89.09375 64.296875 88.976562 64.421875 88.851562 64.554688 C 88.726562 64.683594 88.59375 64.808594 88.46875 64.90625 L 88.371094 64.992188 C 88.242188 65.101562 88.117188 65.210938 87.976562 65.308594 C 87.878906 65.378906 87.78125 65.445312 87.679688 65.511719 L 81.132812 58.980469 C 81.199219 58.878906 81.265625 58.777344 81.339844 58.675781 C 81.4375 58.542969 81.546875 58.410156 81.660156 58.277344 L 81.742188 58.183594 C 81.855469 58.058594 81.96875 57.929688 82.09375 57.804688 C 82.222656 57.679688 82.355469 57.554688 82.488281 57.4375 Z M 70.1875 69.738281 L 70.28125 69.65625 C 70.40625 69.546875 70.535156 69.441406 70.664062 69.347656 L 70.6875 69.328125 C 70.777344 69.265625 70.871094 69.203125 70.960938 69.140625 L 77.503906 75.6875 C 77.441406 75.777344 77.382812 75.871094 77.316406 75.960938 L 77.316406 75.980469 C 77.21875 76.109375 77.113281 76.234375 77.003906 76.367188 L 76.921875 76.460938 C 76.808594 76.589844 76.695312 76.714844 76.570312 76.839844 C 76.445312 76.964844 76.3125 77.09375 76.183594 77.199219 L 76.085938 77.285156 C 75.960938 77.390625 75.828125 77.496094 75.703125 77.589844 L 75.679688 77.609375 C 75.574219 77.6875 75.464844 77.757812 75.355469 77.828125 L 68.816406 71.308594 C 68.890625 71.199219 68.957031 71.089844 69.035156 70.984375 L 69.050781 70.964844 C 69.148438 70.835938 69.25 70.710938 69.359375 70.578125 L 69.445312 70.480469 C 69.5625 70.351562 69.679688 70.226562 69.8125 70.089844 C 69.941406 69.953125 70.0625 69.859375 70.1875 69.738281 Z M 67.945312 78.703125 C 67.6875 76.808594 67.503906 74.996094 67.945312 73.3125 L 73.34375 78.710938 C 71.652344 79.144531 69.839844 78.964844 67.945312 78.703125 Z M 72.945312 68.234375 C 74.652344 67.773438 76.496094 67.953125 78.421875 68.234375 C 78.679688 70.164062 78.875 72.007812 78.410156 73.710938 Z M 80.230469 66.414062 C 79.976562 64.496094 79.789062 62.664062 80.230469 60.96875 L 85.671875 66.410156 C 83.980469 66.859375 82.148438 66.679688 80.230469 66.414062 Z M 85.289062 55.941406 C 86.976562 55.5 88.800781 55.6875 90.710938 55.941406 C 90.964844 57.851562 91.15625 59.675781 90.710938 61.367188 Z M 85.289062 55.941406 " fill-opacity="1" fill-rule="nonzero"/></g></svg>