<svg xmlns="http://www.w3.org/2000/svg" xmlns:xlink="http://www.w3.org/1999/xlink" width="500" zoomAndPan="magnify" viewBox="0 0 375 374.999991" height="500" preserveAspectRatio="xMidYMid meet" version="1.0"><defs><g/><clipPath id="197dbb3465"><path d="M 37.5 37.5 L 337.5 37.5 L 337.5 97.480469 L 37.5 97.480469 Z M 37.5 37.5 " clip-rule="nonzero"/></clipPath><clipPath id="d1947ee766"><path d="M 54.75 37.5 L 320.25 37.5 C 324.824219 37.5 329.210938 39.316406 332.449219 42.550781 C 335.683594 45.789062 337.5 50.175781 337.5 54.75 L 337.5 80.230469 C 337.5 84.808594 335.683594 89.195312 332.449219 92.429688 C 329.210938 95.664062 324.824219 97.480469 320.25 97.480469 L 54.75 97.480469 C 50.175781 97.480469 45.789062 95.664062 42.550781 92.429688 C 39.316406 89.195312 37.5 84.808594 37.5 80.230469 L 37.5 54.75 C 37.5 50.175781 39.316406 45.789062 42.550781 42.550781 C 45.789062 39.316406 50.175781 37.5 54.75 37.5 Z M 54.75 37.5 " clip-rule="nonzero"/></clipPath><clipPath id="9b6d71d4e1"><path d="M 46.136719 38.28125 L 104.636719 38.28125 L 104.636719 96.78125 L 46.136719 96.78125 Z M 46.136719 38.28125 " clip-rule="nonzero"/></clipPath></defs><g clip-path="url(#197dbb3465)"><g clip-path="url(#d1947ee766)"><path fill="#f47c2e" d="M 37.5 37.5 L 337.5 37.5 L 337.5 97.480469 L 37.5 97.480469 Z M 37.5 37.5 " fill-opacity="1" fill-rule="nonzero"/></g></g><g clip-path="url(#9b6d71d4e1)"><path fill="#f47c2e" d="M 75.386719 38.28125 C 91.539062 38.28125 104.636719 51.375 104.636719 67.53125 C 104.636719 83.6875 91.542969 96.78125 75.386719 96.78125 C 59.230469 96.78125 46.136719 83.683594 46.136719 67.53125 C 46.136719 51.378906 59.230469 38.28125 75.386719 38.28125 Z M 75.386719 38.28125 " fill-opacity="1" fill-rule="nonzero"/></g><path fill="#f47c2e" d="M 75.386719 42.050781 C 89.460938 42.050781 100.871094 53.457031 100.871094 67.53125 C 100.871094 81.605469 89.460938 93.015625 75.386719 93.015625 C 61.3125 93.015625 49.90625 81.605469 49.90625 67.53125 C 49.90625 53.457031 61.3125 42.050781 75.386719 42.050781 Z M 75.386719 42.050781 " fill-opacity="1" fill-rule="nonzero"/><path fill="#ffffff" d="M 52.75 62.378906 C 52.875 61.839844 53.019531 61.296875 53.179688 60.765625 C 53.253906 60.523438 53.507812 60.390625 53.75 60.460938 C 53.988281 60.535156 54.125 60.789062 54.050781 61.03125 C 53.894531 61.535156 53.757812 62.058594 53.636719 62.582031 C 53.589844 62.792969 53.398438 62.933594 53.191406 62.933594 C 53.160156 62.933594 53.121094 62.929688 53.089844 62.921875 C 52.851562 62.867188 52.695312 62.625 52.75 62.378906 Z M 54.652344 58.15625 C 54.714844 58.1875 54.78125 58.203125 54.847656 58.203125 C 55.019531 58.203125 55.179688 58.105469 55.257812 57.941406 C 55.738281 56.949219 56.292969 55.984375 56.914062 55.070312 C 57.054688 54.863281 57 54.578125 56.792969 54.4375 C 56.585938 54.296875 56.300781 54.351562 56.160156 54.558594 C 55.511719 55.507812 54.933594 56.511719 54.4375 57.546875 C 54.328125 57.78125 54.425781 58.046875 54.652344 58.15625 Z M 91.472656 52.421875 C 91.566406 52.515625 91.683594 52.566406 91.808594 52.566406 C 91.921875 52.566406 92.03125 52.527344 92.117188 52.441406 C 92.300781 52.273438 92.3125 51.984375 92.140625 51.796875 C 91.355469 50.957031 90.503906 50.171875 89.605469 49.457031 C 89.410156 49.300781 89.121094 49.332031 88.964844 49.53125 C 88.808594 49.726562 88.839844 50.015625 89.039062 50.171875 C 89.90625 50.859375 90.722656 51.617188 91.472656 52.421875 Z M 70.28125 45.921875 C 71.351562 45.679688 72.453125 45.511719 73.554688 45.429688 C 73.808594 45.410156 73.992188 45.191406 73.976562 44.941406 C 73.957031 44.6875 73.746094 44.503906 73.488281 44.519531 C 72.339844 44.609375 71.195312 44.785156 70.074219 45.039062 C 69.832031 45.09375 69.679688 45.335938 69.734375 45.585938 C 69.78125 45.796875 69.96875 45.9375 70.179688 45.9375 C 70.210938 45.933594 70.242188 45.929688 70.28125 45.921875 Z M 64.136719 48.347656 C 65.089844 47.792969 66.09375 47.304688 67.117188 46.902344 C 67.347656 46.8125 67.464844 46.546875 67.371094 46.3125 C 67.28125 46.078125 67.015625 45.964844 66.78125 46.058594 C 65.714844 46.480469 64.671875 46.984375 63.675781 47.5625 C 63.457031 47.6875 63.386719 47.964844 63.511719 48.183594 C 63.597656 48.328125 63.75 48.410156 63.90625 48.410156 C 63.980469 48.410156 64.0625 48.390625 64.136719 48.347656 Z M 58.976562 52.480469 C 59.726562 51.671875 60.542969 50.910156 61.402344 50.222656 C 61.597656 50.066406 61.628906 49.777344 61.46875 49.582031 C 61.308594 49.386719 61.027344 49.355469 60.828125 49.511719 C 59.933594 50.230469 59.085938 51.019531 58.308594 51.863281 C 58.136719 52.050781 58.148438 52.335938 58.332031 52.507812 C 58.417969 52.589844 58.527344 52.628906 58.640625 52.628906 C 58.765625 52.628906 58.886719 52.578125 58.976562 52.480469 Z M 83.316406 46.871094 C 84.34375 47.273438 85.347656 47.757812 86.304688 48.308594 C 86.378906 48.347656 86.453125 48.371094 86.53125 48.371094 C 86.6875 48.371094 86.839844 48.289062 86.921875 48.140625 C 87.046875 47.921875 86.972656 47.644531 86.753906 47.515625 C 85.761719 46.945312 84.714844 46.445312 83.648438 46.023438 C 83.414062 45.933594 83.148438 46.050781 83.058594 46.285156 C 82.964844 46.519531 83.078125 46.78125 83.316406 46.871094 Z M 80.144531 45.90625 C 80.179688 45.910156 80.210938 45.914062 80.246094 45.914062 C 80.453125 45.914062 80.644531 45.769531 80.691406 45.558594 C 80.746094 45.316406 80.59375 45.070312 80.34375 45.015625 C 79.226562 44.765625 78.082031 44.59375 76.933594 44.515625 C 76.683594 44.492188 76.464844 44.683594 76.445312 44.9375 C 76.429688 45.1875 76.617188 45.40625 76.867188 45.425781 C 77.972656 45.5 79.074219 45.664062 80.144531 45.90625 Z M 95.621094 58.128906 C 95.683594 58.128906 95.753906 58.113281 95.816406 58.082031 C 96.042969 57.972656 96.136719 57.699219 96.027344 57.472656 C 95.527344 56.445312 94.945312 55.4375 94.296875 54.492188 C 94.152344 54.285156 93.867188 54.230469 93.660156 54.375 C 93.453125 54.519531 93.402344 54.800781 93.546875 55.007812 C 94.171875 55.917969 94.730469 56.882812 95.207031 57.875 C 95.289062 58.035156 95.453125 58.128906 95.621094 58.128906 Z M 96.855469 62.527344 C 96.902344 62.738281 97.089844 62.878906 97.296875 62.878906 C 97.332031 62.878906 97.367188 62.875 97.398438 62.867188 C 97.644531 62.808594 97.796875 62.566406 97.742188 62.324219 C 97.617188 61.78125 97.46875 61.238281 97.308594 60.710938 C 97.234375 60.46875 96.980469 60.335938 96.742188 60.40625 C 96.5 60.480469 96.367188 60.734375 96.4375 60.976562 C 96.59375 61.484375 96.734375 62.003906 96.855469 62.527344 Z M 97.449219 71.933594 C 97.203125 71.878906 96.964844 72.035156 96.910156 72.28125 C 96.796875 72.804688 96.660156 73.328125 96.507812 73.835938 C 96.433594 74.078125 96.574219 74.332031 96.8125 74.402344 C 96.859375 74.414062 96.902344 74.417969 96.945312 74.417969 C 97.140625 74.417969 97.324219 74.292969 97.382812 74.089844 C 97.539062 73.558594 97.679688 73.015625 97.796875 72.472656 C 97.855469 72.230469 97.699219 71.988281 97.449219 71.933594 Z M 73.894531 89.65625 C 72.792969 89.59375 71.691406 89.441406 70.617188 89.214844 C 70.375 89.164062 70.128906 89.320312 70.078125 89.5625 C 70.027344 89.808594 70.183594 90.050781 70.429688 90.101562 C 71.546875 90.339844 72.691406 90.496094 73.839844 90.5625 C 73.851562 90.5625 73.859375 90.5625 73.867188 90.5625 C 74.109375 90.5625 74.308594 90.378906 74.324219 90.136719 C 74.335938 89.890625 74.144531 89.671875 73.894531 89.65625 Z M 67.445312 88.285156 C 66.417969 87.898438 65.40625 87.429688 64.445312 86.890625 C 64.226562 86.765625 63.949219 86.847656 63.824219 87.066406 C 63.703125 87.285156 63.78125 87.5625 64 87.683594 C 65 88.246094 66.054688 88.734375 67.125 89.136719 C 67.179688 89.15625 67.230469 89.167969 67.285156 89.167969 C 67.464844 89.167969 67.640625 89.054688 67.710938 88.871094 C 67.796875 88.636719 67.675781 88.371094 67.445312 88.285156 Z M 95.941406 76.710938 C 95.714844 76.605469 95.441406 76.703125 95.335938 76.925781 C 94.871094 77.925781 94.324219 78.894531 93.710938 79.808594 C 93.574219 80.015625 93.628906 80.296875 93.839844 80.4375 C 93.917969 80.488281 94.003906 80.511719 94.089844 80.511719 C 94.238281 80.511719 94.382812 80.441406 94.46875 80.308594 C 95.105469 79.355469 95.675781 78.347656 96.160156 77.308594 C 96.269531 77.085938 96.167969 76.816406 95.941406 76.710938 Z M 91.675781 82.417969 C 90.9375 83.234375 90.128906 84 89.277344 84.695312 C 89.085938 84.855469 89.054688 85.140625 89.214844 85.335938 C 89.304688 85.445312 89.433594 85.503906 89.566406 85.503906 C 89.667969 85.503906 89.769531 85.472656 89.855469 85.402344 C 90.738281 84.679688 91.578125 83.878906 92.347656 83.03125 C 92.515625 82.847656 92.503906 82.558594 92.316406 82.386719 C 92.136719 82.21875 91.847656 82.230469 91.675781 82.417969 Z M 59.226562 82.851562 C 59.054688 82.667969 58.765625 82.660156 58.582031 82.835938 C 58.402344 83.011719 58.394531 83.296875 58.570312 83.480469 C 59.359375 84.304688 60.222656 85.082031 61.128906 85.785156 C 61.210938 85.851562 61.308594 85.878906 61.40625 85.878906 C 61.539062 85.878906 61.675781 85.816406 61.765625 85.703125 C 61.917969 85.503906 61.882812 85.21875 61.683594 85.066406 C 60.816406 84.390625 59.988281 83.648438 59.226562 82.851562 Z M 80.464844 89.082031 C 79.398438 89.339844 78.300781 89.519531 77.199219 89.613281 C 76.949219 89.636719 76.761719 89.859375 76.785156 90.105469 C 76.808594 90.34375 77.003906 90.519531 77.238281 90.519531 C 77.25 90.519531 77.261719 90.519531 77.277344 90.519531 C 78.417969 90.421875 79.5625 90.234375 80.671875 89.96875 C 80.917969 89.910156 81.066406 89.660156 81.007812 89.417969 C 80.957031 89.171875 80.710938 89.019531 80.464844 89.082031 Z M 55.425781 77.460938 C 55.3125 77.234375 55.042969 77.140625 54.816406 77.253906 C 54.589844 77.367188 54.5 77.640625 54.613281 77.867188 C 55.125 78.890625 55.722656 79.882812 56.382812 80.820312 C 56.46875 80.941406 56.609375 81.011719 56.753906 81.011719 C 56.84375 81.011719 56.933594 80.988281 57.015625 80.929688 C 57.21875 80.78125 57.269531 80.5 57.125 80.292969 C 56.492188 79.394531 55.917969 78.441406 55.425781 77.460938 Z M 86.574219 86.597656 C 85.628906 87.160156 84.628906 87.65625 83.613281 88.070312 C 83.382812 88.164062 83.269531 88.429688 83.363281 88.664062 C 83.4375 88.84375 83.605469 88.949219 83.785156 88.949219 C 83.84375 88.949219 83.902344 88.9375 83.957031 88.914062 C 85.015625 88.480469 86.054688 87.964844 87.039062 87.378906 C 87.253906 87.25 87.328125 86.972656 87.195312 86.757812 C 87.066406 86.542969 86.789062 86.464844 86.574219 86.597656 Z M 53.722656 72.835938 C 53.664062 72.59375 53.417969 72.441406 53.175781 72.5 C 52.929688 72.558594 52.78125 72.808594 52.839844 73.050781 C 52.96875 73.585938 53.121094 74.128906 53.296875 74.660156 C 53.359375 74.851562 53.539062 74.972656 53.730469 74.972656 C 53.777344 74.972656 53.824219 74.964844 53.871094 74.949219 C 54.113281 74.875 54.242188 74.617188 54.164062 74.375 C 53.996094 73.871094 53.847656 73.347656 53.722656 72.835938 Z M 95.355469 73.234375 C 95.796875 72.839844 96.203125 72.429688 96.546875 72.015625 C 96.707031 71.824219 96.683594 71.535156 96.488281 71.375 C 96.296875 71.214844 96.007812 71.242188 95.847656 71.433594 C 95.53125 71.8125 95.160156 72.191406 94.753906 72.554688 C 94.5625 72.722656 94.546875 73.011719 94.714844 73.195312 C 94.804688 73.296875 94.929688 73.347656 95.054688 73.347656 C 95.160156 73.347656 95.265625 73.308594 95.355469 73.234375 Z M 77.398438 78.101562 C 77.148438 78.109375 76.957031 78.324219 76.96875 78.578125 C 76.976562 78.820312 77.179688 79.011719 77.421875 79.011719 C 77.429688 79.011719 77.4375 79.011719 77.445312 79.011719 C 78.507812 78.957031 79.566406 78.871094 80.605469 78.75 C 80.855469 78.722656 81.035156 78.496094 81.003906 78.246094 C 80.976562 77.996094 80.746094 77.816406 80.5 77.84375 C 79.484375 77.96875 78.441406 78.050781 77.398438 78.101562 Z M 83.652344 78.269531 C 83.679688 78.269531 83.707031 78.265625 83.738281 78.261719 C 84.800781 78.054688 85.839844 77.804688 86.828125 77.519531 C 87.070312 77.453125 87.210938 77.199219 87.140625 76.957031 C 87.074219 76.710938 86.816406 76.574219 86.578125 76.644531 C 85.617188 76.921875 84.601562 77.164062 83.5625 77.367188 C 83.316406 77.414062 83.15625 77.65625 83.203125 77.902344 C 83.246094 78.121094 83.441406 78.269531 83.652344 78.269531 Z M 92.265625 74.304688 C 91.429688 74.785156 90.5 75.238281 89.5 75.640625 C 89.269531 75.738281 89.15625 76.003906 89.25 76.234375 C 89.320312 76.414062 89.492188 76.519531 89.671875 76.519531 C 89.730469 76.519531 89.789062 76.507812 89.84375 76.488281 C 90.878906 76.066406 91.847656 75.597656 92.722656 75.097656 C 92.941406 74.972656 93.011719 74.691406 92.890625 74.472656 C 92.761719 74.253906 92.484375 74.183594 92.265625 74.304688 Z M 62.113281 76.066406 C 61.105469 75.703125 60.148438 75.300781 59.277344 74.863281 C 59.054688 74.75 58.78125 74.839844 58.667969 75.066406 C 58.554688 75.292969 58.644531 75.566406 58.871094 75.679688 C 59.777344 76.132812 60.765625 76.550781 61.8125 76.925781 C 61.863281 76.941406 61.914062 76.949219 61.964844 76.949219 C 62.152344 76.949219 62.328125 76.832031 62.394531 76.648438 C 62.476562 76.410156 62.351562 76.148438 62.113281 76.066406 Z M 74.296875 78.140625 C 73.253906 78.117188 72.210938 78.058594 71.195312 77.96875 C 70.9375 77.949219 70.722656 78.132812 70.699219 78.378906 C 70.675781 78.632812 70.863281 78.851562 71.109375 78.875 C 72.148438 78.964844 73.214844 79.027344 74.273438 79.050781 C 74.277344 79.050781 74.28125 79.050781 74.285156 79.050781 C 74.53125 79.050781 74.730469 78.851562 74.738281 78.605469 C 74.746094 78.355469 74.546875 78.148438 74.296875 78.140625 Z M 68.113281 77.582031 C 67.074219 77.410156 66.054688 77.199219 65.078125 76.957031 C 64.835938 76.898438 64.585938 77.042969 64.523438 77.289062 C 64.460938 77.53125 64.613281 77.78125 64.855469 77.839844 C 65.851562 78.09375 66.902344 78.308594 67.964844 78.480469 C 67.988281 78.484375 68.015625 78.488281 68.039062 78.488281 C 68.257812 78.488281 68.453125 78.332031 68.488281 78.105469 C 68.527344 77.855469 68.359375 77.621094 68.113281 77.582031 Z M 54.796875 72.28125 C 54.621094 72.464844 54.628906 72.753906 54.816406 72.925781 C 55.207031 73.296875 55.644531 73.664062 56.113281 74.011719 C 56.195312 74.074219 56.289062 74.097656 56.382812 74.097656 C 56.523438 74.097656 56.660156 74.035156 56.753906 73.914062 C 56.902344 73.714844 56.859375 73.425781 56.65625 73.277344 C 56.21875 72.953125 55.808594 72.609375 55.445312 72.265625 C 55.257812 72.09375 54.972656 72.101562 54.796875 72.28125 Z M 55.910156 61.203125 C 55.445312 61.5625 55.015625 61.933594 54.628906 62.316406 C 54.453125 62.492188 54.453125 62.78125 54.625 62.960938 C 54.714844 63.050781 54.832031 63.09375 54.949219 63.09375 C 55.066406 63.09375 55.183594 63.050781 55.269531 62.964844 C 55.628906 62.609375 56.027344 62.265625 56.460938 61.929688 C 56.660156 61.777344 56.699219 61.492188 56.542969 61.292969 C 56.398438 61.089844 56.113281 61.050781 55.910156 61.203125 Z M 70.484375 56.703125 C 70.503906 56.9375 70.707031 57.113281 70.933594 57.113281 C 70.949219 57.113281 70.964844 57.113281 70.980469 57.109375 C 71.996094 57.011719 73.042969 56.949219 74.085938 56.925781 C 74.339844 56.917969 74.539062 56.710938 74.53125 56.457031 C 74.523438 56.207031 74.3125 56.011719 74.066406 56.015625 C 73.003906 56.039062 71.9375 56.105469 70.894531 56.203125 C 70.644531 56.230469 70.457031 56.449219 70.484375 56.703125 Z M 64.300781 57.835938 C 64.355469 58.039062 64.539062 58.175781 64.742188 58.175781 C 64.777344 58.175781 64.820312 58.171875 64.855469 58.160156 C 65.832031 57.910156 66.855469 57.691406 67.894531 57.515625 C 68.144531 57.472656 68.308594 57.242188 68.265625 56.992188 C 68.222656 56.746094 67.988281 56.582031 67.742188 56.621094 C 66.675781 56.804688 65.628906 57.027344 64.628906 57.285156 C 64.386719 57.34375 64.238281 57.589844 64.300781 57.835938 Z M 86.402344 58.367188 C 86.441406 58.375 86.488281 58.382812 86.527344 58.382812 C 86.722656 58.382812 86.910156 58.253906 86.964844 58.050781 C 87.03125 57.8125 86.890625 57.5625 86.648438 57.492188 C 85.660156 57.210938 84.617188 56.96875 83.550781 56.765625 C 83.304688 56.714844 83.066406 56.878906 83.019531 57.125 C 82.972656 57.371094 83.136719 57.609375 83.382812 57.65625 C 84.417969 57.855469 85.4375 58.09375 86.402344 58.367188 Z M 77.199219 56.953125 C 78.246094 56.996094 79.285156 57.078125 80.304688 57.191406 C 80.324219 57.195312 80.339844 57.195312 80.355469 57.195312 C 80.585938 57.195312 80.78125 57.027344 80.808594 56.792969 C 80.835938 56.542969 80.65625 56.320312 80.40625 56.289062 C 79.371094 56.175781 78.304688 56.089844 77.238281 56.046875 C 76.96875 56.042969 76.777344 56.230469 76.765625 56.484375 C 76.753906 56.734375 76.949219 56.941406 77.199219 56.953125 Z M 58.855469 60.355469 C 58.925781 60.355469 59 60.34375 59.0625 60.304688 C 59.933594 59.859375 60.882812 59.445312 61.894531 59.074219 C 62.132812 58.988281 62.253906 58.730469 62.167969 58.492188 C 62.082031 58.257812 61.824219 58.136719 61.585938 58.21875 C 60.542969 58.601562 59.554688 59.03125 58.652344 59.492188 C 58.429688 59.609375 58.339844 59.882812 58.457031 60.105469 C 58.527344 60.265625 58.6875 60.355469 58.855469 60.355469 Z M 89.339844 59.351562 C 90.339844 59.75 91.28125 60.191406 92.125 60.667969 C 92.195312 60.710938 92.273438 60.726562 92.347656 60.726562 C 92.507812 60.726562 92.660156 60.644531 92.746094 60.496094 C 92.867188 60.277344 92.792969 60 92.574219 59.875 C 91.691406 59.378906 90.714844 58.917969 89.675781 58.503906 C 89.441406 58.414062 89.175781 58.527344 89.085938 58.757812 C 88.992188 58.996094 89.109375 59.261719 89.339844 59.351562 Z M 95.234375 61.722656 C 95.042969 61.558594 94.757812 61.578125 94.59375 61.769531 C 94.429688 61.957031 94.453125 62.246094 94.640625 62.410156 C 95.054688 62.765625 95.429688 63.136719 95.753906 63.515625 C 95.847656 63.621094 95.972656 63.671875 96.101562 63.671875 C 96.207031 63.671875 96.3125 63.636719 96.398438 63.5625 C 96.589844 63.398438 96.609375 63.113281 96.445312 62.921875 C 96.085938 62.511719 95.683594 62.109375 95.234375 61.722656 Z M 100.042969 67.078125 L 98.589844 67.078125 L 99.617188 66.050781 C 99.796875 65.871094 99.796875 65.585938 99.617188 65.40625 C 99.4375 65.226562 99.152344 65.226562 98.972656 65.40625 L 97.945312 66.433594 L 97.945312 64.980469 C 97.945312 64.730469 97.742188 64.523438 97.492188 64.523438 C 97.238281 64.523438 97.035156 64.730469 97.035156 64.980469 L 97.035156 66.433594 L 96.007812 65.40625 C 95.832031 65.226562 95.542969 65.226562 95.363281 65.40625 C 95.1875 65.585938 95.1875 65.871094 95.363281 66.050781 L 96.390625 67.078125 L 94.9375 67.078125 C 94.6875 67.078125 94.484375 67.28125 94.484375 67.53125 C 94.484375 67.78125 94.6875 67.988281 94.9375 67.988281 L 96.390625 67.988281 L 95.363281 69.011719 C 95.1875 69.191406 95.1875 69.480469 95.363281 69.65625 C 95.453125 69.746094 95.570312 69.792969 95.683594 69.792969 C 95.800781 69.792969 95.917969 69.75 96.007812 69.65625 L 97.03125 68.632812 L 97.03125 70.082031 C 97.03125 70.335938 97.234375 70.539062 97.488281 70.539062 C 97.738281 70.539062 97.941406 70.335938 97.941406 70.082031 L 97.941406 68.632812 L 98.96875 69.65625 C 99.054688 69.746094 99.171875 69.792969 99.289062 69.792969 C 99.40625 69.792969 99.523438 69.75 99.609375 69.65625 C 99.789062 69.480469 99.789062 69.191406 99.609375 69.011719 L 98.582031 67.988281 L 100.035156 67.988281 C 100.285156 67.988281 100.492188 67.78125 100.492188 67.53125 C 100.492188 67.28125 100.292969 67.078125 100.042969 67.078125 Z M 53.28125 70.722656 C 53.53125 70.722656 53.734375 70.519531 53.734375 70.269531 L 53.734375 68.816406 L 54.761719 69.84375 C 54.847656 69.929688 54.964844 69.976562 55.082031 69.976562 C 55.199219 69.976562 55.3125 69.933594 55.402344 69.84375 C 55.582031 69.664062 55.582031 69.378906 55.402344 69.199219 L 54.375 68.171875 L 55.828125 68.171875 C 56.078125 68.171875 56.28125 67.96875 56.28125 67.71875 C 56.28125 67.464844 56.078125 67.261719 55.828125 67.261719 L 54.375 67.261719 L 55.402344 66.234375 C 55.582031 66.058594 55.582031 65.769531 55.402344 65.589844 C 55.222656 65.414062 54.9375 65.414062 54.757812 65.589844 L 53.730469 66.617188 L 53.730469 65.164062 C 53.730469 64.914062 53.527344 64.710938 53.277344 64.710938 C 53.023438 64.710938 52.820312 64.914062 52.820312 65.164062 L 52.820312 66.617188 L 51.792969 65.589844 C 51.617188 65.414062 51.328125 65.414062 51.148438 65.589844 C 50.972656 65.769531 50.972656 66.058594 51.148438 66.234375 L 52.175781 67.261719 L 50.722656 67.261719 C 50.472656 67.261719 50.269531 67.464844 50.269531 67.71875 C 50.269531 67.96875 50.472656 68.171875 50.722656 68.171875 L 52.175781 68.171875 L 51.148438 69.199219 C 50.972656 69.378906 50.972656 69.664062 51.148438 69.84375 C 51.238281 69.929688 51.355469 69.976562 51.46875 69.976562 C 51.585938 69.976562 51.703125 69.933594 51.789062 69.84375 L 52.816406 68.816406 L 52.816406 70.269531 C 52.824219 70.519531 53.027344 70.722656 53.28125 70.722656 Z M 53.28125 70.722656 " fill-opacity="1" fill-rule="nonzero"/><path fill="#ffffff" d="M 77.21875 78.214844 C 77.269531 78.378906 77.300781 78.550781 77.296875 78.734375 C 77.292969 78.859375 77.273438 78.984375 77.242188 79.105469 C 78.992188 80.945312 80.066406 83.429688 80.179688 85.96875 C 80.203125 86.582031 80.171875 87.226562 79.867188 87.761719 C 79.566406 88.296875 78.929688 88.683594 78.335938 88.515625 C 77.898438 88.390625 77.582031 88 77.421875 87.578125 C 77.261719 87.15625 77.234375 86.699219 77.1875 86.246094 C 77.003906 84.21875 76.542969 82.21875 75.839844 80.3125 C 75.769531 80.320312 75.699219 80.332031 75.632812 80.328125 C 75.554688 80.328125 75.484375 80.3125 75.414062 80.300781 C 74.617188 82.175781 74.074219 84.152344 73.800781 86.171875 C 73.738281 86.617188 73.691406 87.078125 73.507812 87.492188 C 73.332031 87.90625 72.996094 88.28125 72.554688 88.386719 C 71.957031 88.527344 71.335938 88.113281 71.058594 87.566406 C 70.78125 87.019531 70.773438 86.375 70.828125 85.761719 C 71.054688 83.226562 72.238281 80.789062 74.074219 79.023438 C 74.046875 78.90625 74.03125 78.785156 74.035156 78.660156 C 74.039062 78.480469 74.082031 78.316406 74.136719 78.15625 C 72.355469 76.308594 71.261719 73.804688 71.148438 71.238281 C 71.125 70.625 71.15625 69.980469 71.460938 69.445312 C 71.761719 68.910156 72.398438 68.527344 72.992188 68.691406 C 73.429688 68.816406 73.746094 69.207031 73.90625 69.628906 C 74.066406 70.050781 74.09375 70.507812 74.136719 70.960938 C 74.328125 73.050781 74.8125 75.113281 75.558594 77.078125 C 75.609375 77.074219 75.65625 77.066406 75.707031 77.066406 C 75.753906 77.066406 75.796875 77.078125 75.84375 77.085938 C 76.675781 75.160156 77.246094 73.121094 77.53125 71.042969 C 77.59375 70.59375 77.640625 70.132812 77.824219 69.71875 C 78 69.304688 78.335938 68.929688 78.777344 68.824219 C 79.375 68.6875 79.996094 69.097656 80.273438 69.648438 C 80.550781 70.191406 80.554688 70.835938 80.5 71.449219 C 80.269531 73.996094 79.074219 76.445312 77.21875 78.214844 Z M 77.21875 78.214844 " fill-opacity="1" fill-rule="nonzero"/><path fill="#ffffff" d="M 80.121094 65.421875 C 79.855469 65.972656 79.25 66.40625 78.648438 66.285156 C 78.203125 66.195312 77.859375 65.832031 77.664062 65.421875 C 77.472656 65.007812 77.410156 64.554688 77.339844 64.109375 C 77.003906 62.105469 76.398438 60.140625 75.550781 58.292969 C 75.480469 58.304688 75.417969 58.320312 75.34375 58.324219 C 75.265625 58.328125 75.195312 58.320312 75.121094 58.316406 C 74.46875 60.242188 74.074219 62.257812 73.949219 64.289062 C 73.921875 64.738281 73.90625 65.199219 73.761719 65.628906 C 73.609375 66.054688 73.304688 66.453125 72.875 66.589844 C 72.289062 66.769531 71.640625 66.40625 71.320312 65.882812 C 71 65.359375 70.949219 64.71875 70.960938 64.101562 C 70.996094 61.554688 71.996094 59.039062 73.695312 57.140625 C 73.660156 57.027344 73.636719 56.90625 73.632812 56.78125 C 73.621094 56.605469 73.652344 56.4375 73.695312 56.273438 C 71.78125 54.5625 70.507812 52.144531 70.203125 49.59375 C 70.128906 48.984375 70.117188 48.339844 70.378906 47.785156 C 70.640625 47.234375 71.25 46.800781 71.847656 46.921875 C 72.292969 47.011719 72.636719 47.375 72.832031 47.785156 C 73.023438 48.199219 73.085938 48.652344 73.160156 49.097656 C 73.503906 51.167969 74.136719 53.1875 75.03125 55.089844 C 75.078125 55.082031 75.125 55.070312 75.175781 55.066406 C 75.222656 55.0625 75.265625 55.070312 75.3125 55.074219 C 76 53.089844 76.417969 51.015625 76.542969 48.921875 C 76.574219 48.472656 76.589844 48.011719 76.734375 47.582031 C 76.882812 47.15625 77.1875 46.757812 77.617188 46.621094 C 78.203125 46.441406 78.851562 46.804688 79.171875 47.328125 C 79.488281 47.851562 79.542969 48.492188 79.535156 49.109375 C 79.496094 51.671875 78.484375 54.203125 76.765625 56.105469 C 76.828125 56.265625 76.875 56.433594 76.882812 56.613281 C 76.890625 56.742188 76.875 56.871094 76.855469 56.988281 C 78.734375 58.695312 79.984375 61.09375 80.285156 63.617188 C 80.363281 64.222656 80.378906 64.863281 80.121094 65.421875 Z M 80.121094 65.421875 " fill-opacity="1" fill-rule="nonzero"/><g fill="#ffffff" fill-opacity="1"><g transform="translate(113.140317, 77.991144)"><g><path d="M 14.75 0 L 13.578125 -5.34375 C 13.515625 -5.664062 13.410156 -6.140625 13.265625 -6.765625 C 13.117188 -7.390625 12.957031 -8.054688 12.78125 -8.765625 C 12.613281 -9.484375 12.457031 -10.144531 12.3125 -10.75 C 12.175781 -11.363281 12.078125 -11.8125 12.015625 -12.09375 L 11.890625 -12.09375 C 11.828125 -11.8125 11.726562 -11.363281 11.59375 -10.75 C 11.457031 -10.144531 11.304688 -9.484375 11.140625 -8.765625 C 10.972656 -8.046875 10.816406 -7.367188 10.671875 -6.734375 C 10.523438 -6.097656 10.414062 -5.617188 10.34375 -5.296875 L 9.109375 0 L 4.625 0 L 0.28125 -15.28125 L 4.4375 -15.28125 L 6.1875 -8.515625 C 6.3125 -8.046875 6.425781 -7.484375 6.53125 -6.828125 C 6.644531 -6.179688 6.742188 -5.550781 6.828125 -4.9375 C 6.910156 -4.332031 6.976562 -3.851562 7.03125 -3.5 L 7.140625 -3.5 C 7.160156 -3.757812 7.195312 -4.109375 7.25 -4.546875 C 7.3125 -4.984375 7.378906 -5.4375 7.453125 -5.90625 C 7.535156 -6.382812 7.609375 -6.8125 7.671875 -7.1875 C 7.742188 -7.5625 7.796875 -7.816406 7.828125 -7.953125 L 9.71875 -15.28125 L 14.3125 -15.28125 L 16.109375 -7.953125 C 16.171875 -7.691406 16.253906 -7.273438 16.359375 -6.703125 C 16.460938 -6.128906 16.554688 -5.535156 16.640625 -4.921875 C 16.722656 -4.316406 16.769531 -3.84375 16.78125 -3.5 L 16.890625 -3.5 C 16.921875 -3.8125 16.984375 -4.269531 17.078125 -4.875 C 17.171875 -5.488281 17.273438 -6.128906 17.390625 -6.796875 C 17.515625 -7.472656 17.644531 -8.046875 17.78125 -8.515625 L 19.609375 -15.28125 L 23.6875 -15.28125 L 19.296875 0 Z M 14.75 0 "/></g></g></g><g fill="#ffffff" fill-opacity="1"><g transform="translate(137.103775, 77.991144)"><g><path d="M 6.359375 -21.28125 L 6.359375 -16.9375 C 6.359375 -16.1875 6.332031 -15.46875 6.28125 -14.78125 C 6.226562 -14.09375 6.191406 -13.609375 6.171875 -13.328125 L 6.390625 -13.328125 C 6.710938 -13.859375 7.097656 -14.285156 7.546875 -14.609375 C 8.003906 -14.941406 8.503906 -15.1875 9.046875 -15.34375 C 9.597656 -15.5 10.1875 -15.578125 10.8125 -15.578125 C 11.914062 -15.578125 12.878906 -15.378906 13.703125 -14.984375 C 14.523438 -14.597656 15.160156 -13.992188 15.609375 -13.171875 C 16.066406 -12.347656 16.296875 -11.28125 16.296875 -9.96875 L 16.296875 0 L 12.125 0 L 12.125 -8.921875 C 12.125 -10.015625 11.921875 -10.835938 11.515625 -11.390625 C 11.117188 -11.953125 10.503906 -12.234375 9.671875 -12.234375 C 8.828125 -12.234375 8.160156 -12.039062 7.671875 -11.65625 C 7.191406 -11.269531 6.851562 -10.695312 6.65625 -9.9375 C 6.457031 -9.1875 6.359375 -8.269531 6.359375 -7.1875 L 6.359375 0 L 2.1875 0 L 2.1875 -21.28125 Z M 6.359375 -21.28125 "/></g></g></g><g fill="#ffffff" fill-opacity="1"><g transform="translate(155.50355, 77.991144)"><g><path d="M 16.078125 -7.671875 C 16.078125 -6.390625 15.90625 -5.253906 15.5625 -4.265625 C 15.21875 -3.285156 14.71875 -2.457031 14.0625 -1.78125 C 13.414062 -1.101562 12.632812 -0.585938 11.71875 -0.234375 C 10.800781 0.109375 9.769531 0.28125 8.625 0.28125 C 7.550781 0.28125 6.566406 0.109375 5.671875 -0.234375 C 4.773438 -0.585938 3.992188 -1.101562 3.328125 -1.78125 C 2.671875 -2.457031 2.160156 -3.285156 1.796875 -4.265625 C 1.441406 -5.253906 1.265625 -6.390625 1.265625 -7.671875 C 1.265625 -9.367188 1.5625 -10.800781 2.15625 -11.96875 C 2.757812 -13.144531 3.617188 -14.039062 4.734375 -14.65625 C 5.847656 -15.269531 7.171875 -15.578125 8.703125 -15.578125 C 10.140625 -15.578125 11.410156 -15.269531 12.515625 -14.65625 C 13.617188 -14.039062 14.488281 -13.144531 15.125 -11.96875 C 15.757812 -10.800781 16.078125 -9.367188 16.078125 -7.671875 Z M 5.515625 -7.671875 C 5.515625 -6.671875 5.625 -5.828125 5.84375 -5.140625 C 6.0625 -4.453125 6.398438 -3.9375 6.859375 -3.59375 C 7.328125 -3.25 7.9375 -3.078125 8.6875 -3.078125 C 9.425781 -3.078125 10.023438 -3.25 10.484375 -3.59375 C 10.941406 -3.9375 11.273438 -4.453125 11.484375 -5.140625 C 11.703125 -5.828125 11.8125 -6.671875 11.8125 -7.671875 C 11.8125 -8.679688 11.703125 -9.519531 11.484375 -10.1875 C 11.273438 -10.863281 10.9375 -11.367188 10.46875 -11.703125 C 10.007812 -12.035156 9.40625 -12.203125 8.65625 -12.203125 C 7.550781 -12.203125 6.75 -11.820312 6.25 -11.0625 C 5.757812 -10.3125 5.515625 -9.179688 5.515625 -7.671875 Z M 5.515625 -7.671875 "/></g></g></g><g fill="#ffffff" fill-opacity="1"><g transform="translate(172.837068, 77.991144)"><g><path d="M 6.359375 0 L 2.1875 0 L 2.1875 -21.28125 L 6.359375 -21.28125 Z M 6.359375 0 "/></g></g></g><g fill="#ffffff" fill-opacity="1"><g transform="translate(181.380803, 77.991144)"><g><path d="M 8.484375 -15.578125 C 9.898438 -15.578125 11.117188 -15.304688 12.140625 -14.765625 C 13.160156 -14.222656 13.945312 -13.4375 14.5 -12.40625 C 15.0625 -11.375 15.34375 -10.113281 15.34375 -8.625 L 15.34375 -6.609375 L 5.484375 -6.609375 C 5.523438 -5.429688 5.875 -4.503906 6.53125 -3.828125 C 7.195312 -3.160156 8.117188 -2.828125 9.296875 -2.828125 C 10.273438 -2.828125 11.164062 -2.925781 11.96875 -3.125 C 12.78125 -3.332031 13.617188 -3.632812 14.484375 -4.03125 L 14.484375 -0.8125 C 13.722656 -0.4375 12.929688 -0.160156 12.109375 0.015625 C 11.285156 0.191406 10.285156 0.28125 9.109375 0.28125 C 7.578125 0.28125 6.21875 0 5.03125 -0.5625 C 3.851562 -1.132812 2.929688 -2 2.265625 -3.15625 C 1.597656 -4.3125 1.265625 -5.769531 1.265625 -7.53125 C 1.265625 -9.320312 1.566406 -10.8125 2.171875 -12 C 2.773438 -13.1875 3.617188 -14.078125 4.703125 -14.671875 C 5.785156 -15.273438 7.046875 -15.578125 8.484375 -15.578125 Z M 8.515625 -12.609375 C 7.703125 -12.609375 7.03125 -12.347656 6.5 -11.828125 C 5.96875 -11.304688 5.660156 -10.488281 5.578125 -9.375 L 11.4375 -9.375 C 11.425781 -10 11.3125 -10.550781 11.09375 -11.03125 C 10.882812 -11.519531 10.566406 -11.90625 10.140625 -12.1875 C 9.710938 -12.46875 9.171875 -12.609375 8.515625 -12.609375 Z M 8.515625 -12.609375 "/></g></g></g><g fill="#ffffff" fill-opacity="1"><g transform="translate(197.921462, 77.991144)"><g/></g></g><g fill="#ffffff" fill-opacity="1"><g transform="translate(205.193885, 77.991144)"><g><path d="M 6.65625 6.734375 C 4.519531 6.734375 2.890625 6.359375 1.765625 5.609375 C 0.640625 4.867188 0.078125 3.828125 0.078125 2.484375 C 0.078125 1.566406 0.363281 0.796875 0.9375 0.171875 C 1.519531 -0.441406 2.363281 -0.882812 3.46875 -1.15625 C 3.039062 -1.332031 2.664062 -1.628906 2.34375 -2.046875 C 2.03125 -2.460938 1.875 -2.898438 1.875 -3.359375 C 1.875 -3.941406 2.039062 -4.425781 2.375 -4.8125 C 2.71875 -5.207031 3.207031 -5.59375 3.84375 -5.96875 C 3.039062 -6.3125 2.40625 -6.863281 1.9375 -7.625 C 1.46875 -8.394531 1.234375 -9.300781 1.234375 -10.34375 C 1.234375 -11.445312 1.472656 -12.390625 1.953125 -13.171875 C 2.441406 -13.953125 3.15625 -14.546875 4.09375 -14.953125 C 5.03125 -15.367188 6.164062 -15.578125 7.5 -15.578125 C 7.789062 -15.578125 8.117188 -15.554688 8.484375 -15.515625 C 8.859375 -15.484375 9.203125 -15.441406 9.515625 -15.390625 C 9.835938 -15.347656 10.050781 -15.3125 10.15625 -15.28125 L 15.484375 -15.28125 L 15.484375 -13.171875 L 13.09375 -12.546875 C 13.3125 -12.210938 13.472656 -11.851562 13.578125 -11.46875 C 13.691406 -11.082031 13.75 -10.675781 13.75 -10.25 C 13.75 -8.613281 13.175781 -7.335938 12.03125 -6.421875 C 10.894531 -5.503906 9.3125 -5.046875 7.28125 -5.046875 C 6.789062 -5.078125 6.332031 -5.113281 5.90625 -5.15625 C 5.695312 -4.988281 5.535156 -4.8125 5.421875 -4.625 C 5.316406 -4.445312 5.265625 -4.257812 5.265625 -4.0625 C 5.265625 -3.863281 5.347656 -3.695312 5.515625 -3.5625 C 5.679688 -3.425781 5.9375 -3.320312 6.28125 -3.25 C 6.625 -3.1875 7.050781 -3.15625 7.5625 -3.15625 L 10.15625 -3.15625 C 11.832031 -3.15625 13.109375 -2.796875 13.984375 -2.078125 C 14.867188 -1.359375 15.3125 -0.300781 15.3125 1.09375 C 15.3125 2.882812 14.566406 4.269531 13.078125 5.25 C 11.585938 6.238281 9.445312 6.734375 6.65625 6.734375 Z M 6.84375 4 C 7.832031 4 8.679688 3.90625 9.390625 3.71875 C 10.109375 3.539062 10.660156 3.28125 11.046875 2.9375 C 11.429688 2.59375 11.625 2.179688 11.625 1.703125 C 11.625 1.328125 11.507812 1.023438 11.28125 0.796875 C 11.0625 0.578125 10.722656 0.421875 10.265625 0.328125 C 9.816406 0.234375 9.242188 0.1875 8.546875 0.1875 L 6.390625 0.1875 C 5.878906 0.1875 5.421875 0.269531 5.015625 0.4375 C 4.609375 0.601562 4.285156 0.832031 4.046875 1.125 C 3.804688 1.425781 3.6875 1.769531 3.6875 2.15625 C 3.6875 2.726562 3.960938 3.175781 4.515625 3.5 C 5.066406 3.832031 5.84375 4 6.84375 4 Z M 7.5 -7.59375 C 8.289062 -7.59375 8.867188 -7.832031 9.234375 -8.3125 C 9.597656 -8.789062 9.78125 -9.445312 9.78125 -10.28125 C 9.78125 -11.195312 9.585938 -11.882812 9.203125 -12.34375 C 8.828125 -12.8125 8.257812 -13.046875 7.5 -13.046875 C 6.738281 -13.046875 6.164062 -12.8125 5.78125 -12.34375 C 5.394531 -11.882812 5.203125 -11.195312 5.203125 -10.28125 C 5.203125 -9.445312 5.390625 -8.789062 5.765625 -8.3125 C 6.148438 -7.832031 6.726562 -7.59375 7.5 -7.59375 Z M 7.5 -7.59375 "/></g></g></g><g fill="#ffffff" fill-opacity="1"><g transform="translate(221.010042, 77.991144)"><g><path d="M 8.484375 -15.578125 C 9.898438 -15.578125 11.117188 -15.304688 12.140625 -14.765625 C 13.160156 -14.222656 13.945312 -13.4375 14.5 -12.40625 C 15.0625 -11.375 15.34375 -10.113281 15.34375 -8.625 L 15.34375 -6.609375 L 5.484375 -6.609375 C 5.523438 -5.429688 5.875 -4.503906 6.53125 -3.828125 C 7.195312 -3.160156 8.117188 -2.828125 9.296875 -2.828125 C 10.273438 -2.828125 11.164062 -2.925781 11.96875 -3.125 C 12.78125 -3.332031 13.617188 -3.632812 14.484375 -4.03125 L 14.484375 -0.8125 C 13.722656 -0.4375 12.929688 -0.160156 12.109375 0.015625 C 11.285156 0.191406 10.285156 0.28125 9.109375 0.28125 C 7.578125 0.28125 6.21875 0 5.03125 -0.5625 C 3.851562 -1.132812 2.929688 -2 2.265625 -3.15625 C 1.597656 -4.3125 1.265625 -5.769531 1.265625 -7.53125 C 1.265625 -9.320312 1.566406 -10.8125 2.171875 -12 C 2.773438 -13.1875 3.617188 -14.078125 4.703125 -14.671875 C 5.785156 -15.273438 7.046875 -15.578125 8.484375 -15.578125 Z M 8.515625 -12.609375 C 7.703125 -12.609375 7.03125 -12.347656 6.5 -11.828125 C 5.96875 -11.304688 5.660156 -10.488281 5.578125 -9.375 L 11.4375 -9.375 C 11.425781 -10 11.3125 -10.550781 11.09375 -11.03125 C 10.882812 -11.519531 10.566406 -11.90625 10.140625 -12.1875 C 9.710938 -12.46875 9.171875 -12.609375 8.515625 -12.609375 Z M 8.515625 -12.609375 "/></g></g></g><g fill="#ffffff" fill-opacity="1"><g transform="translate(237.550701, 77.991144)"><g><path d="M 10.875 -15.578125 C 12.5 -15.578125 13.804688 -15.128906 14.796875 -14.234375 C 15.796875 -13.347656 16.296875 -11.925781 16.296875 -9.96875 L 16.296875 0 L 12.125 0 L 12.125 -8.921875 C 12.125 -10.015625 11.925781 -10.835938 11.53125 -11.390625 C 11.132812 -11.953125 10.515625 -12.234375 9.671875 -12.234375 C 8.390625 -12.234375 7.515625 -11.800781 7.046875 -10.9375 C 6.585938 -10.070312 6.359375 -8.820312 6.359375 -7.1875 L 6.359375 0 L 2.1875 0 L 2.1875 -15.28125 L 5.375 -15.28125 L 5.9375 -13.328125 L 6.171875 -13.328125 C 6.492188 -13.859375 6.898438 -14.285156 7.390625 -14.609375 C 7.878906 -14.941406 8.421875 -15.1875 9.015625 -15.34375 C 9.609375 -15.5 10.226562 -15.578125 10.875 -15.578125 Z M 10.875 -15.578125 "/></g></g></g><g fill="#ffffff" fill-opacity="1"><g transform="translate(255.950476, 77.991144)"><g><path d="M 16.078125 -7.671875 C 16.078125 -6.390625 15.90625 -5.253906 15.5625 -4.265625 C 15.21875 -3.285156 14.71875 -2.457031 14.0625 -1.78125 C 13.414062 -1.101562 12.632812 -0.585938 11.71875 -0.234375 C 10.800781 0.109375 9.769531 0.28125 8.625 0.28125 C 7.550781 0.28125 6.566406 0.109375 5.671875 -0.234375 C 4.773438 -0.585938 3.992188 -1.101562 3.328125 -1.78125 C 2.671875 -2.457031 2.160156 -3.285156 1.796875 -4.265625 C 1.441406 -5.253906 1.265625 -6.390625 1.265625 -7.671875 C 1.265625 -9.367188 1.5625 -10.800781 2.15625 -11.96875 C 2.757812 -13.144531 3.617188 -14.039062 4.734375 -14.65625 C 5.847656 -15.269531 7.171875 -15.578125 8.703125 -15.578125 C 10.140625 -15.578125 11.410156 -15.269531 12.515625 -14.65625 C 13.617188 -14.039062 14.488281 -13.144531 15.125 -11.96875 C 15.757812 -10.800781 16.078125 -9.367188 16.078125 -7.671875 Z M 5.515625 -7.671875 C 5.515625 -6.671875 5.625 -5.828125 5.84375 -5.140625 C 6.0625 -4.453125 6.398438 -3.9375 6.859375 -3.59375 C 7.328125 -3.25 7.9375 -3.078125 8.6875 -3.078125 C 9.425781 -3.078125 10.023438 -3.25 10.484375 -3.59375 C 10.941406 -3.9375 11.273438 -4.453125 11.484375 -5.140625 C 11.703125 -5.828125 11.8125 -6.671875 11.8125 -7.671875 C 11.8125 -8.679688 11.703125 -9.519531 11.484375 -10.1875 C 11.273438 -10.863281 10.9375 -11.367188 10.46875 -11.703125 C 10.007812 -12.035156 9.40625 -12.203125 8.65625 -12.203125 C 7.550781 -12.203125 6.75 -11.820312 6.25 -11.0625 C 5.757812 -10.3125 5.515625 -9.179688 5.515625 -7.671875 Z M 5.515625 -7.671875 "/></g></g></g><g fill="#ffffff" fill-opacity="1"><g transform="translate(273.283994, 77.991144)"><g><path d="M 20.140625 -15.578125 C 21.867188 -15.578125 23.175781 -15.128906 24.0625 -14.234375 C 24.957031 -13.347656 25.40625 -11.925781 25.40625 -9.96875 L 25.40625 0 L 21.21875 0 L 21.21875 -8.921875 C 21.21875 -10.015625 21.03125 -10.835938 20.65625 -11.390625 C 20.28125 -11.953125 19.703125 -12.234375 18.921875 -12.234375 C 17.816406 -12.234375 17.03125 -11.835938 16.5625 -11.046875 C 16.101562 -10.265625 15.875 -9.140625 15.875 -7.671875 L 15.875 0 L 11.703125 0 L 11.703125 -8.921875 C 11.703125 -9.648438 11.617188 -10.257812 11.453125 -10.75 C 11.296875 -11.25 11.046875 -11.617188 10.703125 -11.859375 C 10.367188 -12.109375 9.9375 -12.234375 9.40625 -12.234375 C 8.632812 -12.234375 8.023438 -12.039062 7.578125 -11.65625 C 7.140625 -11.269531 6.828125 -10.695312 6.640625 -9.9375 C 6.453125 -9.1875 6.359375 -8.269531 6.359375 -7.1875 L 6.359375 0 L 2.1875 0 L 2.1875 -15.28125 L 5.375 -15.28125 L 5.9375 -13.328125 L 6.171875 -13.328125 C 6.472656 -13.859375 6.859375 -14.285156 7.328125 -14.609375 C 7.804688 -14.941406 8.328125 -15.1875 8.890625 -15.34375 C 9.453125 -15.5 10.023438 -15.578125 10.609375 -15.578125 C 11.734375 -15.578125 12.679688 -15.394531 13.453125 -15.03125 C 14.234375 -14.664062 14.835938 -14.097656 15.265625 -13.328125 L 15.625 -13.328125 C 16.082031 -14.109375 16.726562 -14.675781 17.5625 -15.03125 C 18.394531 -15.394531 19.253906 -15.578125 20.140625 -15.578125 Z M 20.140625 -15.578125 "/></g></g></g><g fill="#ffffff" fill-opacity="1"><g transform="translate(300.774303, 77.991144)"><g><path d="M 8.484375 -15.578125 C 9.898438 -15.578125 11.117188 -15.304688 12.140625 -14.765625 C 13.160156 -14.222656 13.945312 -13.4375 14.5 -12.40625 C 15.0625 -11.375 15.34375 -10.113281 15.34375 -8.625 L 15.34375 -6.609375 L 5.484375 -6.609375 C 5.523438 -5.429688 5.875 -4.503906 6.53125 -3.828125 C 7.195312 -3.160156 8.117188 -2.828125 9.296875 -2.828125 C 10.273438 -2.828125 11.164062 -2.925781 11.96875 -3.125 C 12.78125 -3.332031 13.617188 -3.632812 14.484375 -4.03125 L 14.484375 -0.8125 C 13.722656 -0.4375 12.929688 -0.160156 12.109375 0.015625 C 11.285156 0.191406 10.285156 0.28125 9.109375 0.28125 C 7.578125 0.28125 6.21875 0 5.03125 -0.5625 C 3.851562 -1.132812 2.929688 -2 2.265625 -3.15625 C 1.597656 -4.3125 1.265625 -5.769531 1.265625 -7.53125 C 1.265625 -9.320312 1.566406 -10.8125 2.171875 -12 C 2.773438 -13.1875 3.617188 -14.078125 4.703125 -14.671875 C 5.785156 -15.273438 7.046875 -15.578125 8.484375 -15.578125 Z M 8.515625 -12.609375 C 7.703125 -12.609375 7.03125 -12.347656 6.5 -11.828125 C 5.96875 -11.304688 5.660156 -10.488281 5.578125 -9.375 L 11.4375 -9.375 C 11.425781 -10 11.3125 -10.550781 11.09375 -11.03125 C 10.882812 -11.519531 10.566406 -11.90625 10.140625 -12.1875 C 9.710938 -12.46875 9.171875 -12.609375 8.515625 -12.609375 Z M 8.515625 -12.609375 "/></g></g></g></svg>