<svg xmlns="http://www.w3.org/2000/svg" xmlns:xlink="http://www.w3.org/1999/xlink" width="500" zoomAndPan="magnify" viewBox="0 0 375 374.999991" height="500" preserveAspectRatio="xMidYMid meet" version="1.0"><defs><g/><clipPath id="ec22354273"><path d="M 37.5 37.5 L 337.5 37.5 L 337.5 97.480469 L 37.5 97.480469 Z M 37.5 37.5 " clip-rule="nonzero"/></clipPath><clipPath id="ef533ac5c7"><path d="M 54.75 37.5 L 320.25 37.5 C 324.824219 37.5 329.210938 39.316406 332.449219 42.550781 C 335.683594 45.789062 337.5 50.175781 337.5 54.75 L 337.5 80.230469 C 337.5 84.808594 335.683594 89.195312 332.449219 92.429688 C 329.210938 95.664062 324.824219 97.480469 320.25 97.480469 L 54.75 97.480469 C 50.175781 97.480469 45.789062 95.664062 42.550781 92.429688 C 39.316406 89.195312 37.5 84.808594 37.5 80.230469 L 37.5 54.75 C 37.5 50.175781 39.316406 45.789062 42.550781 42.550781 C 45.789062 39.316406 50.175781 37.5 54.75 37.5 Z M 54.75 37.5 " clip-rule="nonzero"/></clipPath></defs><g clip-path="url(#ec22354273)"><g clip-path="url(#ef533ac5c7)"><path fill="#a2c36e" d="M 37.5 37.5 L 337.5 37.5 L 337.5 97.480469 L 37.5 97.480469 Z M 37.5 37.5 " fill-opacity="1" fill-rule="nonzero"/></g></g><g fill="#ffffff" fill-opacity="1"><g transform="translate(131.928394, 77.991206)"><g><path d="M 10.6875 -15.578125 C 12.414062 -15.578125 13.8125 -14.90625 14.875 -13.5625 C 15.9375 -12.21875 16.46875 -10.253906 16.46875 -7.671875 C 16.46875 -5.941406 16.210938 -4.484375 15.703125 -3.296875 C 15.203125 -2.117188 14.507812 -1.226562 13.625 -0.625 C 12.75 -0.0195312 11.734375 0.28125 10.578125 0.28125 C 9.835938 0.28125 9.203125 0.1875 8.671875 0 C 8.148438 -0.1875 7.703125 -0.425781 7.328125 -0.71875 C 6.953125 -1.019531 6.628906 -1.34375 6.359375 -1.6875 L 6.140625 -1.6875 C 6.210938 -1.320312 6.265625 -0.945312 6.296875 -0.5625 C 6.335938 -0.175781 6.359375 0.195312 6.359375 0.5625 L 6.359375 6.734375 L 2.1875 6.734375 L 2.1875 -15.28125 L 5.578125 -15.28125 L 6.171875 -13.296875 L 6.359375 -13.296875 C 6.628906 -13.710938 6.957031 -14.09375 7.34375 -14.4375 C 7.738281 -14.78125 8.210938 -15.054688 8.765625 -15.265625 C 9.316406 -15.472656 9.957031 -15.578125 10.6875 -15.578125 Z M 9.359375 -12.234375 C 8.628906 -12.234375 8.046875 -12.082031 7.609375 -11.78125 C 7.179688 -11.476562 6.867188 -11.023438 6.671875 -10.421875 C 6.484375 -9.828125 6.378906 -9.070312 6.359375 -8.15625 L 6.359375 -7.703125 C 6.359375 -6.710938 6.453125 -5.875 6.640625 -5.1875 C 6.828125 -4.507812 7.140625 -3.992188 7.578125 -3.640625 C 8.023438 -3.285156 8.632812 -3.109375 9.40625 -3.109375 C 10.039062 -3.109375 10.5625 -3.285156 10.96875 -3.640625 C 11.382812 -3.992188 11.691406 -4.515625 11.890625 -5.203125 C 12.097656 -5.890625 12.203125 -6.726562 12.203125 -7.71875 C 12.203125 -9.21875 11.96875 -10.34375 11.5 -11.09375 C 11.039062 -11.851562 10.328125 -12.234375 9.359375 -12.234375 Z M 9.359375 -12.234375 "/></g></g></g><g fill="#ffffff" fill-opacity="1"><g transform="translate(149.644671, 77.991206)"><g><path d="M 6.359375 0 L 2.1875 0 L 2.1875 -21.28125 L 6.359375 -21.28125 Z M 6.359375 0 "/></g></g></g><g fill="#ffffff" fill-opacity="1"><g transform="translate(158.188406, 77.991206)"><g><path d="M 8.453125 -15.59375 C 10.503906 -15.59375 12.078125 -15.144531 13.171875 -14.25 C 14.265625 -13.363281 14.8125 -12.007812 14.8125 -10.1875 L 14.8125 0 L 11.890625 0 L 11.09375 -2.078125 L 10.984375 -2.078125 C 10.546875 -1.535156 10.097656 -1.085938 9.640625 -0.734375 C 9.179688 -0.390625 8.65625 -0.132812 8.0625 0.03125 C 7.46875 0.195312 6.75 0.28125 5.90625 0.28125 C 5 0.28125 4.1875 0.109375 3.46875 -0.234375 C 2.757812 -0.585938 2.195312 -1.117188 1.78125 -1.828125 C 1.375 -2.546875 1.171875 -3.457031 1.171875 -4.5625 C 1.171875 -6.1875 1.738281 -7.382812 2.875 -8.15625 C 4.019531 -8.925781 5.734375 -9.351562 8.015625 -9.4375 L 10.671875 -9.515625 L 10.671875 -10.1875 C 10.671875 -10.988281 10.457031 -11.578125 10.03125 -11.953125 C 9.613281 -12.328125 9.03125 -12.515625 8.28125 -12.515625 C 7.539062 -12.515625 6.816406 -12.40625 6.109375 -12.1875 C 5.398438 -11.976562 4.691406 -11.71875 3.984375 -11.40625 L 2.59375 -14.21875 C 3.40625 -14.644531 4.316406 -14.976562 5.328125 -15.21875 C 6.335938 -15.46875 7.378906 -15.59375 8.453125 -15.59375 Z M 10.671875 -7.078125 L 9.046875 -7.03125 C 7.703125 -6.988281 6.765625 -6.742188 6.234375 -6.296875 C 5.710938 -5.859375 5.453125 -5.273438 5.453125 -4.546875 C 5.453125 -3.898438 5.640625 -3.441406 6.015625 -3.171875 C 6.390625 -2.910156 6.878906 -2.78125 7.484375 -2.78125 C 8.367188 -2.78125 9.117188 -3.039062 9.734375 -3.5625 C 10.359375 -4.09375 10.671875 -4.847656 10.671875 -5.828125 Z M 10.671875 -7.078125 "/></g></g></g><g fill="#ffffff" fill-opacity="1"><g transform="translate(175.098161, 77.991206)"><g><path d="M 12.859375 -4.546875 C 12.859375 -3.503906 12.613281 -2.625 12.125 -1.90625 C 11.632812 -1.1875 10.90625 -0.640625 9.9375 -0.265625 C 8.96875 0.0976562 7.765625 0.28125 6.328125 0.28125 C 5.265625 0.28125 4.351562 0.207031 3.59375 0.0625 C 2.832031 -0.0703125 2.0625 -0.296875 1.28125 -0.609375 L 1.28125 -4.0625 C 2.113281 -3.6875 3.003906 -3.378906 3.953125 -3.140625 C 4.910156 -2.898438 5.75 -2.78125 6.46875 -2.78125 C 7.28125 -2.78125 7.859375 -2.898438 8.203125 -3.140625 C 8.554688 -3.378906 8.734375 -3.695312 8.734375 -4.09375 C 8.734375 -4.34375 8.660156 -4.570312 8.515625 -4.78125 C 8.378906 -4.988281 8.078125 -5.21875 7.609375 -5.46875 C 7.148438 -5.726562 6.421875 -6.070312 5.421875 -6.5 C 4.472656 -6.894531 3.6875 -7.296875 3.0625 -7.703125 C 2.445312 -8.117188 1.992188 -8.609375 1.703125 -9.171875 C 1.410156 -9.734375 1.265625 -10.445312 1.265625 -11.3125 C 1.265625 -12.71875 1.8125 -13.78125 2.90625 -14.5 C 4 -15.21875 5.46875 -15.578125 7.3125 -15.578125 C 8.257812 -15.578125 9.164062 -15.476562 10.03125 -15.28125 C 10.894531 -15.09375 11.78125 -14.789062 12.6875 -14.375 L 11.4375 -11.359375 C 10.675781 -11.691406 9.957031 -11.960938 9.28125 -12.171875 C 8.613281 -12.378906 7.9375 -12.484375 7.25 -12.484375 C 6.632812 -12.484375 6.171875 -12.398438 5.859375 -12.234375 C 5.554688 -12.066406 5.40625 -11.816406 5.40625 -11.484375 C 5.40625 -11.234375 5.484375 -11.015625 5.640625 -10.828125 C 5.796875 -10.640625 6.101562 -10.425781 6.5625 -10.1875 C 7.03125 -9.957031 7.707031 -9.660156 8.59375 -9.296875 C 9.46875 -8.941406 10.222656 -8.570312 10.859375 -8.1875 C 11.492188 -7.800781 11.984375 -7.320312 12.328125 -6.75 C 12.679688 -6.175781 12.859375 -5.441406 12.859375 -4.546875 Z M 12.859375 -4.546875 "/></g></g></g><g fill="#ffffff" fill-opacity="1"><g transform="translate(189.014187, 77.991206)"><g><path d="M 8.625 -3.046875 C 9.082031 -3.046875 9.523438 -3.09375 9.953125 -3.1875 C 10.390625 -3.28125 10.820312 -3.394531 11.25 -3.53125 L 11.25 -0.421875 C 10.800781 -0.222656 10.242188 -0.0546875 9.578125 0.078125 C 8.921875 0.210938 8.203125 0.28125 7.421875 0.28125 C 6.515625 0.28125 5.695312 0.132812 4.96875 -0.15625 C 4.25 -0.457031 3.679688 -0.972656 3.265625 -1.703125 C 2.847656 -2.441406 2.640625 -3.46875 2.640625 -4.78125 L 2.640625 -12.15625 L 0.640625 -12.15625 L 0.640625 -13.921875 L 2.9375 -15.3125 L 4.140625 -18.546875 L 6.8125 -18.546875 L 6.8125 -15.28125 L 11.09375 -15.28125 L 11.09375 -12.15625 L 6.8125 -12.15625 L 6.8125 -4.78125 C 6.8125 -4.195312 6.976562 -3.757812 7.3125 -3.46875 C 7.644531 -3.1875 8.082031 -3.046875 8.625 -3.046875 Z M 8.625 -3.046875 "/></g></g></g><g fill="#ffffff" fill-opacity="1"><g transform="translate(201.166793, 77.991206)"><g><path d="M 16.078125 -7.671875 C 16.078125 -6.390625 15.90625 -5.253906 15.5625 -4.265625 C 15.21875 -3.285156 14.71875 -2.457031 14.0625 -1.78125 C 13.414062 -1.101562 12.632812 -0.585938 11.71875 -0.234375 C 10.800781 0.109375 9.769531 0.28125 8.625 0.28125 C 7.550781 0.28125 6.566406 0.109375 5.671875 -0.234375 C 4.773438 -0.585938 3.992188 -1.101562 3.328125 -1.78125 C 2.671875 -2.457031 2.160156 -3.285156 1.796875 -4.265625 C 1.441406 -5.253906 1.265625 -6.390625 1.265625 -7.671875 C 1.265625 -9.367188 1.5625 -10.800781 2.15625 -11.96875 C 2.757812 -13.144531 3.617188 -14.039062 4.734375 -14.65625 C 5.847656 -15.269531 7.171875 -15.578125 8.703125 -15.578125 C 10.140625 -15.578125 11.410156 -15.269531 12.515625 -14.65625 C 13.617188 -14.039062 14.488281 -13.144531 15.125 -11.96875 C 15.757812 -10.800781 16.078125 -9.367188 16.078125 -7.671875 Z M 5.515625 -7.671875 C 5.515625 -6.671875 5.625 -5.828125 5.84375 -5.140625 C 6.0625 -4.453125 6.398438 -3.9375 6.859375 -3.59375 C 7.328125 -3.25 7.9375 -3.078125 8.6875 -3.078125 C 9.425781 -3.078125 10.023438 -3.25 10.484375 -3.59375 C 10.941406 -3.9375 11.273438 -4.453125 11.484375 -5.140625 C 11.703125 -5.828125 11.8125 -6.671875 11.8125 -7.671875 C 11.8125 -8.679688 11.703125 -9.519531 11.484375 -10.1875 C 11.273438 -10.863281 10.9375 -11.367188 10.46875 -11.703125 C 10.007812 -12.035156 9.40625 -12.203125 8.65625 -12.203125 C 7.550781 -12.203125 6.75 -11.820312 6.25 -11.0625 C 5.757812 -10.3125 5.515625 -9.179688 5.515625 -7.671875 Z M 5.515625 -7.671875 "/></g></g></g><g fill="#ffffff" fill-opacity="1"><g transform="translate(218.500311, 77.991206)"><g><path d="M 20.140625 -15.578125 C 21.867188 -15.578125 23.175781 -15.128906 24.0625 -14.234375 C 24.957031 -13.347656 25.40625 -11.925781 25.40625 -9.96875 L 25.40625 0 L 21.21875 0 L 21.21875 -8.921875 C 21.21875 -10.015625 21.03125 -10.835938 20.65625 -11.390625 C 20.28125 -11.953125 19.703125 -12.234375 18.921875 -12.234375 C 17.816406 -12.234375 17.03125 -11.835938 16.5625 -11.046875 C 16.101562 -10.265625 15.875 -9.140625 15.875 -7.671875 L 15.875 0 L 11.703125 0 L 11.703125 -8.921875 C 11.703125 -9.648438 11.617188 -10.257812 11.453125 -10.75 C 11.296875 -11.25 11.046875 -11.617188 10.703125 -11.859375 C 10.367188 -12.109375 9.9375 -12.234375 9.40625 -12.234375 C 8.632812 -12.234375 8.023438 -12.039062 7.578125 -11.65625 C 7.140625 -11.269531 6.828125 -10.695312 6.640625 -9.9375 C 6.453125 -9.1875 6.359375 -8.269531 6.359375 -7.1875 L 6.359375 0 L 2.1875 0 L 2.1875 -15.28125 L 5.375 -15.28125 L 5.9375 -13.328125 L 6.171875 -13.328125 C 6.472656 -13.859375 6.859375 -14.285156 7.328125 -14.609375 C 7.804688 -14.941406 8.328125 -15.1875 8.890625 -15.34375 C 9.453125 -15.5 10.023438 -15.578125 10.609375 -15.578125 C 11.734375 -15.578125 12.679688 -15.394531 13.453125 -15.03125 C 14.234375 -14.664062 14.835938 -14.097656 15.265625 -13.328125 L 15.625 -13.328125 C 16.082031 -14.109375 16.726562 -14.675781 17.5625 -15.03125 C 18.394531 -15.394531 19.253906 -15.578125 20.140625 -15.578125 Z M 20.140625 -15.578125 "/></g></g></g><g fill="#ffffff" fill-opacity="1"><g transform="translate(245.99062, 77.991206)"><g><path d="M 8.484375 -15.578125 C 9.898438 -15.578125 11.117188 -15.304688 12.140625 -14.765625 C 13.160156 -14.222656 13.945312 -13.4375 14.5 -12.40625 C 15.0625 -11.375 15.34375 -10.113281 15.34375 -8.625 L 15.34375 -6.609375 L 5.484375 -6.609375 C 5.523438 -5.429688 5.875 -4.503906 6.53125 -3.828125 C 7.195312 -3.160156 8.117188 -2.828125 9.296875 -2.828125 C 10.273438 -2.828125 11.164062 -2.925781 11.96875 -3.125 C 12.78125 -3.332031 13.617188 -3.632812 14.484375 -4.03125 L 14.484375 -0.8125 C 13.722656 -0.4375 12.929688 -0.160156 12.109375 0.015625 C 11.285156 0.191406 10.285156 0.28125 9.109375 0.28125 C 7.578125 0.28125 6.21875 0 5.03125 -0.5625 C 3.851562 -1.132812 2.929688 -2 2.265625 -3.15625 C 1.597656 -4.3125 1.265625 -5.769531 1.265625 -7.53125 C 1.265625 -9.320312 1.566406 -10.8125 2.171875 -12 C 2.773438 -13.1875 3.617188 -14.078125 4.703125 -14.671875 C 5.785156 -15.273438 7.046875 -15.578125 8.484375 -15.578125 Z M 8.515625 -12.609375 C 7.703125 -12.609375 7.03125 -12.347656 6.5 -11.828125 C 5.96875 -11.304688 5.660156 -10.488281 5.578125 -9.375 L 11.4375 -9.375 C 11.425781 -10 11.3125 -10.550781 11.09375 -11.03125 C 10.882812 -11.519531 10.566406 -11.90625 10.140625 -12.1875 C 9.710938 -12.46875 9.171875 -12.609375 8.515625 -12.609375 Z M 8.515625 -12.609375 "/></g></g></g><path fill="#a2c36e" d="M 85.273438 84.808594 C 83.023438 83.980469 80.585938 84.097656 78.355469 84.867188 C 55.148438 92.863281 45.519531 60.582031 66.175781 51.910156 C 76.253906 47.683594 87.648438 47.414062 97.882812 51.039062 C 120.457031 59.027344 108.027344 93.164062 85.273438 84.808594 Z M 85.273438 84.808594 " fill-opacity="1" fill-rule="nonzero"/><path fill="#ffffff" d="M 71.296875 86.558594 C 63.429688 86.558594 57.9375 81.527344 55.652344 75.4375 C 54.03125 71.117188 54.003906 66.230469 55.578125 62.023438 C 57.359375 57.269531 60.96875 53.636719 66.015625 51.519531 C 71.0625 49.398438 76.429688 48.25 81.960938 48.105469 C 87.460938 47.957031 92.863281 48.808594 98.023438 50.636719 C 104.566406 52.953125 108.800781 57.667969 109.941406 63.914062 C 110.542969 67.203125 110.230469 70.699219 109.035156 74.027344 C 107.84375 77.355469 105.859375 80.265625 103.292969 82.449219 C 98.308594 86.699219 91.855469 87.679688 85.128906 85.207031 C 83.085938 84.457031 80.792969 84.480469 78.492188 85.269531 C 75.917969 86.15625 73.515625 86.558594 71.296875 86.558594 Z M 83.132812 48.921875 C 77.410156 48.921875 71.707031 50.050781 66.339844 52.304688 C 55.863281 56.699219 53.429688 67.117188 56.441406 75.136719 C 59.226562 82.554688 67.042969 88.316406 78.21875 84.464844 C 80.703125 83.609375 83.191406 83.589844 85.417969 84.40625 C 91.847656 86.769531 98.003906 85.84375 102.75 81.800781 C 107.71875 77.566406 110.273438 70.4375 109.109375 64.066406 C 108.027344 58.136719 103.992188 53.652344 97.742188 51.441406 C 92.996094 49.757812 88.054688 48.921875 83.132812 48.921875 Z M 83.132812 48.921875 " fill-opacity="1" fill-rule="nonzero"/><path fill="#a2c36e" d="M 84.714844 80.945312 C 82.890625 80.304688 80.914062 80.359375 79.105469 80.953125 C 60.292969 87.148438 52.488281 62.132812 69.234375 55.417969 C 77.402344 52.140625 86.640625 51.933594 94.9375 54.742188 C 113.238281 60.933594 103.160156 87.421875 84.714844 80.945312 Z M 84.714844 80.945312 " fill-opacity="1" fill-rule="nonzero"/><path fill="#ffffff" d="M 90.347656 82.382812 C 88.472656 82.382812 86.542969 82.039062 84.578125 81.347656 C 82.921875 80.765625 81.027344 80.769531 79.238281 81.359375 C 74.800781 82.820312 70.617188 82.671875 67.136719 80.929688 C 64.058594 79.390625 61.695312 76.671875 60.476562 73.28125 C 59.257812 69.890625 59.320312 66.242188 60.652344 63.003906 C 62.132812 59.398438 65.046875 56.636719 69.078125 55.019531 C 73.179688 53.375 77.535156 52.484375 82.027344 52.371094 C 86.492188 52.257812 90.882812 52.917969 95.070312 54.335938 C 100.375 56.132812 103.820312 59.785156 104.773438 64.625 C 105.777344 69.71875 103.8125 75.304688 99.765625 78.851562 C 97.867188 80.515625 95.570312 81.648438 93.128906 82.121094 C 92.21875 82.296875 91.289062 82.382812 90.347656 82.382812 Z M 84.855469 80.542969 C 90.242188 82.433594 95.339844 81.605469 99.210938 78.207031 C 103.035156 74.859375 104.890625 69.589844 103.945312 64.792969 C 103.054688 60.265625 99.808594 56.835938 94.800781 55.144531 C 86.496094 52.335938 77.472656 52.570312 69.390625 55.8125 C 61.191406 59.101562 59.101562 66.945312 61.269531 72.992188 C 63.410156 78.953125 69.714844 83.601562 78.976562 80.550781 C 80.9375 79.90625 83.027344 79.902344 84.855469 80.542969 Z M 84.855469 80.542969 " fill-opacity="1" fill-rule="nonzero"/><path fill="#a2c36e" d="M 76.703125 67.847656 C 76.703125 68.25 76.664062 68.652344 76.585938 69.050781 C 76.507812 69.445312 76.394531 69.832031 76.238281 70.207031 C 76.085938 70.578125 75.898438 70.933594 75.675781 71.269531 C 75.449219 71.609375 75.199219 71.917969 74.914062 72.207031 C 74.628906 72.492188 74.320312 72.746094 73.988281 72.972656 C 73.652344 73.195312 73.300781 73.386719 72.929688 73.542969 C 72.558594 73.695312 72.175781 73.8125 71.78125 73.894531 C 71.390625 73.972656 70.992188 74.011719 70.589844 74.011719 C 70.1875 74.011719 69.789062 73.972656 69.398438 73.894531 C 69.003906 73.8125 68.621094 73.695312 68.25 73.542969 C 67.878906 73.386719 67.527344 73.195312 67.191406 72.972656 C 66.859375 72.746094 66.550781 72.492188 66.265625 72.207031 C 65.984375 71.917969 65.730469 71.609375 65.507812 71.269531 C 65.28125 70.933594 65.09375 70.578125 64.941406 70.207031 C 64.789062 69.832031 64.671875 69.445312 64.59375 69.050781 C 64.515625 68.652344 64.476562 68.25 64.476562 67.847656 C 64.476562 67.441406 64.515625 67.039062 64.59375 66.644531 C 64.671875 66.246094 64.789062 65.863281 64.941406 65.488281 C 65.09375 65.113281 65.28125 64.757812 65.507812 64.421875 C 65.730469 64.085938 65.984375 63.773438 66.265625 63.488281 C 66.550781 63.203125 66.859375 62.945312 67.191406 62.722656 C 67.527344 62.496094 67.878906 62.304688 68.25 62.152344 C 68.621094 61.996094 69.003906 61.878906 69.398438 61.800781 C 69.789062 61.722656 70.1875 61.683594 70.589844 61.683594 C 70.992188 61.683594 71.390625 61.722656 71.78125 61.800781 C 72.175781 61.878906 72.558594 61.996094 72.929688 62.152344 C 73.300781 62.304688 73.652344 62.496094 73.988281 62.722656 C 74.320312 62.945312 74.628906 63.203125 74.914062 63.488281 C 75.199219 63.773438 75.449219 64.085938 75.675781 64.421875 C 75.898438 64.757812 76.085938 65.113281 76.238281 65.488281 C 76.394531 65.863281 76.507812 66.246094 76.585938 66.644531 C 76.664062 67.039062 76.703125 67.441406 76.703125 67.847656 Z M 76.703125 67.847656 " fill-opacity="1" fill-rule="nonzero"/><path fill="#ffffff" d="M 70.589844 74.4375 C 66.984375 74.4375 64.054688 71.480469 64.054688 67.847656 C 64.054688 64.210938 66.984375 61.257812 70.589844 61.257812 C 74.195312 61.257812 77.125 64.210938 77.125 67.847656 C 77.125 71.480469 74.195312 74.4375 70.589844 74.4375 Z M 70.589844 62.109375 C 67.449219 62.109375 64.898438 64.683594 64.898438 67.847656 C 64.898438 71.011719 67.449219 73.585938 70.589844 73.585938 C 73.730469 73.585938 76.28125 71.011719 76.28125 67.847656 C 76.28125 64.683594 73.730469 62.109375 70.589844 62.109375 Z M 70.589844 62.109375 " fill-opacity="1" fill-rule="nonzero"/><path fill="#a2c36e" d="M 81.292969 71.21875 C 81.292969 71.625 81.253906 72.023438 81.175781 72.421875 C 81.097656 72.820312 80.980469 73.203125 80.828125 73.578125 C 80.671875 73.953125 80.484375 74.308594 80.261719 74.644531 C 80.039062 74.980469 79.785156 75.292969 79.5 75.578125 C 79.21875 75.863281 78.910156 76.121094 78.574219 76.34375 C 78.242188 76.570312 77.886719 76.757812 77.515625 76.914062 C 77.144531 77.070312 76.765625 77.1875 76.371094 77.265625 C 75.976562 77.34375 75.578125 77.382812 75.175781 77.382812 C 74.777344 77.382812 74.378906 77.34375 73.984375 77.265625 C 73.589844 77.1875 73.207031 77.070312 72.835938 76.914062 C 72.464844 76.757812 72.113281 76.570312 71.78125 76.34375 C 71.445312 76.121094 71.136719 75.863281 70.855469 75.578125 C 70.570312 75.292969 70.316406 74.980469 70.09375 74.644531 C 69.871094 74.308594 69.683594 73.953125 69.527344 73.578125 C 69.375 73.203125 69.257812 72.820312 69.179688 72.421875 C 69.101562 72.023438 69.0625 71.625 69.0625 71.21875 C 69.0625 70.816406 69.101562 70.414062 69.179688 70.015625 C 69.257812 69.621094 69.375 69.234375 69.527344 68.859375 C 69.683594 68.484375 69.871094 68.132812 70.09375 67.792969 C 70.316406 67.457031 70.570312 67.148438 70.855469 66.859375 C 71.136719 66.574219 71.445312 66.320312 71.78125 66.09375 C 72.113281 65.867188 72.464844 65.679688 72.835938 65.523438 C 73.207031 65.371094 73.589844 65.253906 73.984375 65.171875 C 74.378906 65.09375 74.777344 65.054688 75.175781 65.054688 C 75.578125 65.054688 75.976562 65.09375 76.371094 65.171875 C 76.765625 65.253906 77.144531 65.371094 77.515625 65.523438 C 77.886719 65.679688 78.242188 65.867188 78.574219 66.09375 C 78.910156 66.320312 79.21875 66.574219 79.5 66.859375 C 79.785156 67.148438 80.039062 67.457031 80.261719 67.792969 C 80.484375 68.132812 80.671875 68.484375 80.828125 68.859375 C 80.980469 69.234375 81.097656 69.621094 81.175781 70.015625 C 81.253906 70.414062 81.292969 70.816406 81.292969 71.21875 Z M 81.292969 71.21875 " fill-opacity="1" fill-rule="nonzero"/><path fill="#ffffff" d="M 75.175781 77.808594 C 71.574219 77.808594 68.640625 74.851562 68.640625 71.21875 C 68.640625 67.585938 71.574219 64.628906 75.175781 64.628906 C 78.78125 64.628906 81.714844 67.585938 81.714844 71.21875 C 81.714844 74.851562 78.78125 77.808594 75.175781 77.808594 Z M 75.175781 65.480469 C 72.039062 65.480469 69.484375 68.054688 69.484375 71.21875 C 69.484375 74.382812 72.039062 76.957031 75.175781 76.957031 C 78.316406 76.957031 80.871094 74.382812 80.871094 71.21875 C 80.871094 68.054688 78.316406 65.480469 75.175781 65.480469 Z M 75.175781 65.480469 " fill-opacity="1" fill-rule="nonzero"/><path fill="#a2c36e" d="M 81.292969 63.976562 C 81.292969 64.382812 81.253906 64.78125 81.175781 65.179688 C 81.097656 65.574219 80.980469 65.960938 80.828125 66.335938 C 80.671875 66.710938 80.484375 67.066406 80.261719 67.402344 C 80.039062 67.738281 79.785156 68.050781 79.5 68.335938 C 79.21875 68.621094 78.910156 68.878906 78.574219 69.101562 C 78.242188 69.328125 77.886719 69.515625 77.515625 69.671875 C 77.144531 69.828125 76.765625 69.945312 76.371094 70.023438 C 75.976562 70.101562 75.578125 70.140625 75.175781 70.140625 C 74.777344 70.140625 74.378906 70.101562 73.984375 70.023438 C 73.589844 69.945312 73.207031 69.828125 72.835938 69.671875 C 72.464844 69.515625 72.113281 69.328125 71.78125 69.101562 C 71.445312 68.878906 71.136719 68.621094 70.855469 68.335938 C 70.570312 68.050781 70.316406 67.738281 70.09375 67.402344 C 69.871094 67.066406 69.683594 66.710938 69.527344 66.335938 C 69.375 65.960938 69.257812 65.574219 69.179688 65.179688 C 69.101562 64.78125 69.0625 64.382812 69.0625 63.976562 C 69.0625 63.570312 69.101562 63.171875 69.179688 62.773438 C 69.257812 62.375 69.375 61.992188 69.527344 61.617188 C 69.683594 61.242188 69.871094 60.886719 70.09375 60.550781 C 70.316406 60.214844 70.570312 59.902344 70.855469 59.617188 C 71.136719 59.332031 71.445312 59.074219 71.78125 58.851562 C 72.113281 58.625 72.464844 58.4375 72.835938 58.28125 C 73.207031 58.125 73.589844 58.007812 73.984375 57.929688 C 74.378906 57.851562 74.777344 57.8125 75.175781 57.8125 C 75.578125 57.8125 75.976562 57.851562 76.371094 57.929688 C 76.765625 58.007812 77.144531 58.125 77.515625 58.28125 C 77.886719 58.4375 78.242188 58.625 78.574219 58.851562 C 78.910156 59.074219 79.21875 59.332031 79.5 59.617188 C 79.785156 59.902344 80.039062 60.214844 80.261719 60.550781 C 80.484375 60.886719 80.671875 61.242188 80.828125 61.617188 C 80.980469 61.992188 81.097656 62.375 81.175781 62.773438 C 81.253906 63.171875 81.292969 63.570312 81.292969 63.976562 Z M 81.292969 63.976562 " fill-opacity="1" fill-rule="nonzero"/><path fill="#ffffff" d="M 75.175781 70.566406 C 71.574219 70.566406 68.640625 67.609375 68.640625 63.976562 C 68.640625 60.34375 71.574219 57.386719 75.175781 57.386719 C 78.78125 57.386719 81.714844 60.34375 81.714844 63.976562 C 81.714844 67.609375 78.78125 70.566406 75.175781 70.566406 Z M 75.175781 58.238281 C 72.039062 58.238281 69.484375 60.8125 69.484375 63.976562 C 69.484375 67.140625 72.039062 69.714844 75.175781 69.714844 C 78.316406 69.714844 80.871094 67.140625 80.871094 63.976562 C 80.871094 60.8125 78.316406 58.238281 75.175781 58.238281 Z M 75.175781 58.238281 " fill-opacity="1" fill-rule="nonzero"/><path fill="#a2c36e" d="M 100.167969 67.847656 C 100.167969 68.25 100.128906 68.652344 100.050781 69.050781 C 99.972656 69.445312 99.855469 69.832031 99.703125 70.207031 C 99.550781 70.578125 99.363281 70.933594 99.136719 71.269531 C 98.914062 71.609375 98.660156 71.917969 98.378906 72.207031 C 98.09375 72.492188 97.785156 72.746094 97.453125 72.972656 C 97.117188 73.195312 96.765625 73.386719 96.394531 73.542969 C 96.023438 73.695312 95.640625 73.8125 95.246094 73.894531 C 94.855469 73.972656 94.457031 74.011719 94.054688 74.011719 C 93.652344 74.011719 93.253906 73.972656 92.863281 73.894531 C 92.46875 73.8125 92.085938 73.695312 91.714844 73.542969 C 91.34375 73.386719 90.992188 73.195312 90.65625 72.972656 C 90.324219 72.746094 90.015625 72.492188 89.730469 72.207031 C 89.445312 71.917969 89.195312 71.609375 88.96875 71.269531 C 88.746094 70.933594 88.558594 70.578125 88.40625 70.207031 C 88.25 69.832031 88.136719 69.445312 88.058594 69.050781 C 87.980469 68.652344 87.941406 68.25 87.941406 67.847656 C 87.941406 67.441406 87.980469 67.039062 88.058594 66.644531 C 88.136719 66.246094 88.25 65.863281 88.40625 65.488281 C 88.558594 65.113281 88.746094 64.757812 88.96875 64.421875 C 89.195312 64.085938 89.445312 63.773438 89.730469 63.488281 C 90.015625 63.203125 90.324219 62.945312 90.65625 62.722656 C 90.992188 62.496094 91.34375 62.304688 91.714844 62.152344 C 92.085938 61.996094 92.46875 61.878906 92.863281 61.800781 C 93.253906 61.722656 93.652344 61.683594 94.054688 61.683594 C 94.457031 61.683594 94.855469 61.722656 95.246094 61.800781 C 95.640625 61.878906 96.023438 61.996094 96.394531 62.152344 C 96.765625 62.304688 97.117188 62.496094 97.453125 62.722656 C 97.785156 62.945312 98.09375 63.203125 98.378906 63.488281 C 98.660156 63.773438 98.914062 64.085938 99.136719 64.421875 C 99.363281 64.757812 99.550781 65.113281 99.703125 65.488281 C 99.855469 65.863281 99.972656 66.246094 100.050781 66.644531 C 100.128906 67.039062 100.167969 67.441406 100.167969 67.847656 Z M 100.167969 67.847656 " fill-opacity="1" fill-rule="nonzero"/><path fill="#ffffff" d="M 94.054688 74.4375 C 90.449219 74.4375 87.515625 71.480469 87.515625 67.847656 C 87.515625 64.210938 90.449219 61.257812 94.054688 61.257812 C 97.660156 61.257812 100.589844 64.210938 100.589844 67.847656 C 100.589844 71.480469 97.660156 74.4375 94.054688 74.4375 Z M 94.054688 62.109375 C 90.914062 62.109375 88.363281 64.683594 88.363281 67.847656 C 88.363281 71.011719 90.914062 73.585938 94.054688 73.585938 C 97.195312 73.585938 99.746094 71.011719 99.746094 67.847656 C 99.746094 64.683594 97.195312 62.109375 94.054688 62.109375 Z M 94.054688 62.109375 " fill-opacity="1" fill-rule="nonzero"/><path fill="#a2c36e" d="M 95.582031 71.21875 C 95.582031 71.625 95.542969 72.023438 95.464844 72.421875 C 95.386719 72.820312 95.269531 73.203125 95.117188 73.578125 C 94.960938 73.953125 94.773438 74.308594 94.550781 74.644531 C 94.328125 74.980469 94.074219 75.292969 93.789062 75.578125 C 93.507812 75.863281 93.199219 76.121094 92.863281 76.34375 C 92.53125 76.570312 92.179688 76.757812 91.808594 76.914062 C 91.4375 77.070312 91.054688 77.1875 90.660156 77.265625 C 90.265625 77.34375 89.867188 77.382812 89.46875 77.382812 C 89.066406 77.382812 88.667969 77.34375 88.273438 77.265625 C 87.878906 77.1875 87.496094 77.070312 87.128906 76.914062 C 86.757812 76.757812 86.402344 76.570312 86.070312 76.34375 C 85.734375 76.121094 85.425781 75.863281 85.144531 75.578125 C 84.859375 75.292969 84.605469 74.980469 84.382812 74.644531 C 84.160156 74.308594 83.972656 73.953125 83.816406 73.578125 C 83.664062 73.203125 83.546875 72.820312 83.46875 72.421875 C 83.390625 72.023438 83.351562 71.625 83.351562 71.21875 C 83.351562 70.816406 83.390625 70.414062 83.46875 70.015625 C 83.546875 69.621094 83.664062 69.234375 83.816406 68.859375 C 83.972656 68.484375 84.160156 68.132812 84.382812 67.792969 C 84.605469 67.457031 84.859375 67.148438 85.144531 66.859375 C 85.425781 66.574219 85.734375 66.320312 86.070312 66.09375 C 86.402344 65.867188 86.757812 65.679688 87.128906 65.523438 C 87.496094 65.371094 87.878906 65.253906 88.273438 65.171875 C 88.667969 65.09375 89.066406 65.054688 89.46875 65.054688 C 89.867188 65.054688 90.265625 65.09375 90.660156 65.171875 C 91.054688 65.253906 91.4375 65.371094 91.808594 65.523438 C 92.179688 65.679688 92.53125 65.867188 92.863281 66.09375 C 93.199219 66.320312 93.507812 66.574219 93.789062 66.859375 C 94.074219 67.148438 94.328125 67.457031 94.550781 67.792969 C 94.773438 68.132812 94.960938 68.484375 95.117188 68.859375 C 95.269531 69.234375 95.386719 69.621094 95.464844 70.015625 C 95.542969 70.414062 95.582031 70.816406 95.582031 71.21875 Z M 95.582031 71.21875 " fill-opacity="1" fill-rule="nonzero"/><path fill="#ffffff" d="M 89.46875 77.808594 C 85.863281 77.808594 82.929688 74.851562 82.929688 71.21875 C 82.929688 67.585938 85.863281 64.628906 89.46875 64.628906 C 93.070312 64.628906 96.003906 67.585938 96.003906 71.21875 C 96.003906 74.851562 93.070312 77.808594 89.46875 77.808594 Z M 89.46875 65.480469 C 86.328125 65.480469 83.773438 68.054688 83.773438 71.21875 C 83.773438 74.382812 86.328125 76.957031 89.46875 76.957031 C 92.605469 76.957031 95.160156 74.382812 95.160156 71.21875 C 95.160156 68.054688 92.605469 65.480469 89.46875 65.480469 Z M 89.46875 65.480469 " fill-opacity="1" fill-rule="nonzero"/><path fill="#a2c36e" d="M 95.582031 63.976562 C 95.582031 64.382812 95.542969 64.78125 95.464844 65.179688 C 95.386719 65.574219 95.269531 65.960938 95.117188 66.335938 C 94.960938 66.710938 94.773438 67.066406 94.550781 67.402344 C 94.328125 67.738281 94.074219 68.050781 93.789062 68.335938 C 93.507812 68.621094 93.199219 68.878906 92.863281 69.101562 C 92.53125 69.328125 92.179688 69.515625 91.808594 69.671875 C 91.4375 69.828125 91.054688 69.945312 90.660156 70.023438 C 90.265625 70.101562 89.867188 70.140625 89.46875 70.140625 C 89.066406 70.140625 88.667969 70.101562 88.273438 70.023438 C 87.878906 69.945312 87.496094 69.828125 87.128906 69.671875 C 86.757812 69.515625 86.402344 69.328125 86.070312 69.101562 C 85.734375 68.878906 85.425781 68.621094 85.144531 68.335938 C 84.859375 68.050781 84.605469 67.738281 84.382812 67.402344 C 84.160156 67.066406 83.972656 66.710938 83.816406 66.335938 C 83.664062 65.960938 83.546875 65.574219 83.46875 65.179688 C 83.390625 64.78125 83.351562 64.382812 83.351562 63.976562 C 83.351562 63.570312 83.390625 63.171875 83.46875 62.773438 C 83.546875 62.375 83.664062 61.992188 83.816406 61.617188 C 83.972656 61.242188 84.160156 60.886719 84.382812 60.550781 C 84.605469 60.214844 84.859375 59.902344 85.144531 59.617188 C 85.425781 59.332031 85.734375 59.074219 86.070312 58.851562 C 86.402344 58.625 86.757812 58.4375 87.128906 58.28125 C 87.496094 58.125 87.878906 58.007812 88.273438 57.929688 C 88.667969 57.851562 89.066406 57.8125 89.46875 57.8125 C 89.867188 57.8125 90.265625 57.851562 90.660156 57.929688 C 91.054688 58.007812 91.4375 58.125 91.808594 58.28125 C 92.179688 58.4375 92.53125 58.625 92.863281 58.851562 C 93.199219 59.074219 93.507812 59.332031 93.789062 59.617188 C 94.074219 59.902344 94.328125 60.214844 94.550781 60.550781 C 94.773438 60.886719 94.960938 61.242188 95.117188 61.617188 C 95.269531 61.992188 95.386719 62.375 95.464844 62.773438 C 95.542969 63.171875 95.582031 63.570312 95.582031 63.976562 Z M 95.582031 63.976562 " fill-opacity="1" fill-rule="nonzero"/><path fill="#ffffff" d="M 89.46875 70.566406 C 85.863281 70.566406 82.929688 67.609375 82.929688 63.976562 C 82.929688 60.34375 85.863281 57.386719 89.46875 57.386719 C 93.070312 57.386719 96.003906 60.34375 96.003906 63.976562 C 96.003906 67.609375 93.070312 70.566406 89.46875 70.566406 Z M 89.46875 58.238281 C 86.328125 58.238281 83.773438 60.8125 83.773438 63.976562 C 83.773438 67.140625 86.328125 69.714844 89.46875 69.714844 C 92.605469 69.714844 95.160156 67.140625 95.160156 63.976562 C 95.160156 60.8125 92.605469 58.238281 89.46875 58.238281 Z M 89.46875 58.238281 " fill-opacity="1" fill-rule="nonzero"/><path fill="#a2c36e" d="M 88.4375 71.21875 C 88.4375 71.625 88.398438 72.023438 88.320312 72.421875 C 88.242188 72.820312 88.125 73.203125 87.972656 73.578125 C 87.816406 73.953125 87.628906 74.308594 87.40625 74.644531 C 87.183594 74.980469 86.929688 75.292969 86.644531 75.578125 C 86.363281 75.863281 86.054688 76.121094 85.71875 76.34375 C 85.386719 76.570312 85.035156 76.757812 84.664062 76.914062 C 84.292969 77.070312 83.910156 77.1875 83.515625 77.265625 C 83.121094 77.34375 82.722656 77.382812 82.324219 77.382812 C 81.921875 77.382812 81.523438 77.34375 81.128906 77.265625 C 80.734375 77.1875 80.351562 77.070312 79.984375 76.914062 C 79.613281 76.757812 79.257812 76.570312 78.925781 76.34375 C 78.589844 76.121094 78.28125 75.863281 78 75.578125 C 77.714844 75.292969 77.460938 74.980469 77.238281 74.644531 C 77.015625 74.308594 76.828125 73.953125 76.671875 73.578125 C 76.519531 73.203125 76.402344 72.820312 76.324219 72.421875 C 76.246094 72.023438 76.207031 71.625 76.207031 71.21875 C 76.207031 70.816406 76.246094 70.414062 76.324219 70.015625 C 76.402344 69.621094 76.519531 69.234375 76.671875 68.859375 C 76.828125 68.484375 77.015625 68.132812 77.238281 67.792969 C 77.460938 67.457031 77.714844 67.148438 78 66.859375 C 78.28125 66.574219 78.589844 66.320312 78.925781 66.09375 C 79.257812 65.867188 79.613281 65.679688 79.984375 65.523438 C 80.351562 65.371094 80.734375 65.253906 81.128906 65.171875 C 81.523438 65.09375 81.921875 65.054688 82.324219 65.054688 C 82.722656 65.054688 83.121094 65.09375 83.515625 65.171875 C 83.910156 65.253906 84.292969 65.371094 84.664062 65.523438 C 85.035156 65.679688 85.386719 65.867188 85.71875 66.09375 C 86.054688 66.320312 86.363281 66.574219 86.644531 66.859375 C 86.929688 67.148438 87.183594 67.457031 87.40625 67.792969 C 87.628906 68.132812 87.816406 68.484375 87.972656 68.859375 C 88.125 69.234375 88.242188 69.621094 88.320312 70.015625 C 88.398438 70.414062 88.4375 70.816406 88.4375 71.21875 Z M 88.4375 71.21875 " fill-opacity="1" fill-rule="nonzero"/><path fill="#ffffff" d="M 82.320312 77.808594 C 78.71875 77.808594 75.785156 74.851562 75.785156 71.21875 C 75.785156 67.585938 78.71875 64.628906 82.320312 64.628906 C 85.925781 64.628906 88.859375 67.585938 88.859375 71.21875 C 88.859375 74.851562 85.925781 77.808594 82.320312 77.808594 Z M 82.320312 65.480469 C 79.183594 65.480469 76.628906 68.054688 76.628906 71.21875 C 76.628906 74.382812 79.183594 76.957031 82.320312 76.957031 C 85.460938 76.957031 88.015625 74.382812 88.015625 71.21875 C 88.015625 68.054688 85.460938 65.480469 82.320312 65.480469 Z M 82.320312 65.480469 " fill-opacity="1" fill-rule="nonzero"/><path fill="#a2c36e" d="M 88.4375 63.019531 C 88.4375 63.425781 88.398438 63.824219 88.320312 64.222656 C 88.242188 64.621094 88.125 65.003906 87.972656 65.378906 C 87.816406 65.753906 87.628906 66.109375 87.40625 66.445312 C 87.183594 66.78125 86.929688 67.09375 86.644531 67.378906 C 86.363281 67.664062 86.054688 67.921875 85.71875 68.144531 C 85.386719 68.371094 85.035156 68.558594 84.664062 68.714844 C 84.292969 68.871094 83.910156 68.988281 83.515625 69.066406 C 83.121094 69.144531 82.722656 69.183594 82.324219 69.183594 C 81.921875 69.183594 81.523438 69.144531 81.128906 69.066406 C 80.734375 68.988281 80.351562 68.871094 79.984375 68.714844 C 79.613281 68.558594 79.257812 68.371094 78.925781 68.144531 C 78.589844 67.921875 78.28125 67.664062 78 67.378906 C 77.714844 67.09375 77.460938 66.78125 77.238281 66.445312 C 77.015625 66.109375 76.828125 65.753906 76.671875 65.378906 C 76.519531 65.003906 76.402344 64.621094 76.324219 64.222656 C 76.246094 63.824219 76.207031 63.425781 76.207031 63.019531 C 76.207031 62.613281 76.246094 62.214844 76.324219 61.816406 C 76.402344 61.417969 76.519531 61.035156 76.671875 60.660156 C 76.828125 60.285156 77.015625 59.929688 77.238281 59.59375 C 77.460938 59.257812 77.714844 58.945312 78 58.660156 C 78.28125 58.375 78.589844 58.117188 78.925781 57.894531 C 79.257812 57.667969 79.613281 57.480469 79.984375 57.324219 C 80.351562 57.167969 80.734375 57.050781 81.128906 56.972656 C 81.523438 56.894531 81.921875 56.855469 82.324219 56.855469 C 82.722656 56.855469 83.121094 56.894531 83.515625 56.972656 C 83.910156 57.050781 84.292969 57.167969 84.664062 57.324219 C 85.035156 57.480469 85.386719 57.667969 85.71875 57.894531 C 86.054688 58.117188 86.363281 58.375 86.644531 58.660156 C 86.929688 58.945312 87.183594 59.257812 87.40625 59.59375 C 87.628906 59.929688 87.816406 60.285156 87.972656 60.660156 C 88.125 61.035156 88.242188 61.417969 88.320312 61.816406 C 88.398438 62.214844 88.4375 62.613281 88.4375 63.019531 Z M 88.4375 63.019531 " fill-opacity="1" fill-rule="nonzero"/><path fill="#ffffff" d="M 82.320312 69.609375 C 78.71875 69.609375 75.785156 66.652344 75.785156 63.019531 C 75.785156 59.386719 78.71875 56.429688 82.320312 56.429688 C 85.925781 56.429688 88.859375 59.386719 88.859375 63.019531 C 88.859375 66.652344 85.925781 69.609375 82.320312 69.609375 Z M 82.320312 57.28125 C 79.183594 57.28125 76.628906 59.855469 76.628906 63.019531 C 76.628906 66.183594 79.183594 68.757812 82.320312 68.757812 C 85.460938 68.757812 88.015625 66.183594 88.015625 63.019531 C 88.015625 59.855469 85.460938 57.28125 82.320312 57.28125 Z M 82.320312 57.28125 " fill-opacity="1" fill-rule="nonzero"/></svg>