<svg xmlns="http://www.w3.org/2000/svg" xmlns:xlink="http://www.w3.org/1999/xlink" width="500" zoomAndPan="magnify" viewBox="0 0 375 374.999991" height="500" preserveAspectRatio="xMidYMid meet" version="1.0"><defs><g/><clipPath id="5270a41c26"><path d="M 37.5 37.5 L 337.5 37.5 L 337.5 97.480469 L 37.5 97.480469 Z M 37.5 37.5 " clip-rule="nonzero"/></clipPath><clipPath id="b5cd225d18"><path d="M 54.75 37.5 L 320.25 37.5 C 324.824219 37.5 329.210938 39.316406 332.449219 42.550781 C 335.683594 45.789062 337.5 50.175781 337.5 54.75 L 337.5 80.230469 C 337.5 84.808594 335.683594 89.195312 332.449219 92.429688 C 329.210938 95.664062 324.824219 97.480469 320.25 97.480469 L 54.75 97.480469 C 50.175781 97.480469 45.789062 95.664062 42.550781 92.429688 C 39.316406 89.195312 37.5 84.808594 37.5 80.230469 L 37.5 54.75 C 37.5 50.175781 39.316406 45.789062 42.550781 42.550781 C 45.789062 39.316406 50.175781 37.5 54.75 37.5 Z M 54.75 37.5 " clip-rule="nonzero"/></clipPath><clipPath id="7137504e03"><path d="M 89.019531 80.066406 L 98.972656 80.066406 L 98.972656 89.902344 L 89.019531 89.902344 Z M 89.019531 80.066406 " clip-rule="nonzero"/></clipPath><clipPath id="fda465b8d9"><path d="M 58 44.902344 L 60 44.902344 L 60 50 L 58 50 Z M 58 44.902344 " clip-rule="nonzero"/></clipPath><clipPath id="91db653c7d"><path d="M 53.234375 45 L 58 45 L 58 50 L 53.234375 50 Z M 53.234375 45 " clip-rule="nonzero"/></clipPath><clipPath id="43d2526839"><path d="M 53.234375 49 L 58 49 L 58 51 L 53.234375 51 Z M 53.234375 49 " clip-rule="nonzero"/></clipPath></defs><g clip-path="url(#5270a41c26)"><g clip-path="url(#b5cd225d18)"><path fill="#a2c36e" d="M 37.5 37.5 L 337.5 37.5 L 337.5 97.480469 L 37.5 97.480469 Z M 37.5 37.5 " fill-opacity="1" fill-rule="nonzero"/></g></g><g fill="#ffffff" fill-opacity="1"><g transform="translate(113.432803, 77.991206)"><g><path d="M 12.859375 -4.546875 C 12.859375 -3.503906 12.613281 -2.625 12.125 -1.90625 C 11.632812 -1.1875 10.90625 -0.640625 9.9375 -0.265625 C 8.96875 0.0976562 7.765625 0.28125 6.328125 0.28125 C 5.265625 0.28125 4.351562 0.207031 3.59375 0.0625 C 2.832031 -0.0703125 2.0625 -0.296875 1.28125 -0.609375 L 1.28125 -4.0625 C 2.113281 -3.6875 3.003906 -3.378906 3.953125 -3.140625 C 4.910156 -2.898438 5.75 -2.78125 6.46875 -2.78125 C 7.28125 -2.78125 7.859375 -2.898438 8.203125 -3.140625 C 8.554688 -3.378906 8.734375 -3.695312 8.734375 -4.09375 C 8.734375 -4.34375 8.660156 -4.570312 8.515625 -4.78125 C 8.378906 -4.988281 8.078125 -5.21875 7.609375 -5.46875 C 7.148438 -5.726562 6.421875 -6.070312 5.421875 -6.5 C 4.472656 -6.894531 3.6875 -7.296875 3.0625 -7.703125 C 2.445312 -8.117188 1.992188 -8.609375 1.703125 -9.171875 C 1.410156 -9.734375 1.265625 -10.445312 1.265625 -11.3125 C 1.265625 -12.71875 1.8125 -13.78125 2.90625 -14.5 C 4 -15.21875 5.46875 -15.578125 7.3125 -15.578125 C 8.257812 -15.578125 9.164062 -15.476562 10.03125 -15.28125 C 10.894531 -15.09375 11.78125 -14.789062 12.6875 -14.375 L 11.4375 -11.359375 C 10.675781 -11.691406 9.957031 -11.960938 9.28125 -12.171875 C 8.613281 -12.378906 7.9375 -12.484375 7.25 -12.484375 C 6.632812 -12.484375 6.171875 -12.398438 5.859375 -12.234375 C 5.554688 -12.066406 5.40625 -11.816406 5.40625 -11.484375 C 5.40625 -11.234375 5.484375 -11.015625 5.640625 -10.828125 C 5.796875 -10.640625 6.101562 -10.425781 6.5625 -10.1875 C 7.03125 -9.957031 7.707031 -9.660156 8.59375 -9.296875 C 9.46875 -8.941406 10.222656 -8.570312 10.859375 -8.1875 C 11.492188 -7.800781 11.984375 -7.320312 12.328125 -6.75 C 12.679688 -6.175781 12.859375 -5.441406 12.859375 -4.546875 Z M 12.859375 -4.546875 "/></g></g></g><g fill="#ffffff" fill-opacity="1"><g transform="translate(127.348829, 77.991206)"><g><path d="M 10.6875 -15.578125 C 12.414062 -15.578125 13.8125 -14.90625 14.875 -13.5625 C 15.9375 -12.21875 16.46875 -10.253906 16.46875 -7.671875 C 16.46875 -5.941406 16.210938 -4.484375 15.703125 -3.296875 C 15.203125 -2.117188 14.507812 -1.226562 13.625 -0.625 C 12.75 -0.0195312 11.734375 0.28125 10.578125 0.28125 C 9.835938 0.28125 9.203125 0.1875 8.671875 0 C 8.148438 -0.1875 7.703125 -0.425781 7.328125 -0.71875 C 6.953125 -1.019531 6.628906 -1.34375 6.359375 -1.6875 L 6.140625 -1.6875 C 6.210938 -1.320312 6.265625 -0.945312 6.296875 -0.5625 C 6.335938 -0.175781 6.359375 0.195312 6.359375 0.5625 L 6.359375 6.734375 L 2.1875 6.734375 L 2.1875 -15.28125 L 5.578125 -15.28125 L 6.171875 -13.296875 L 6.359375 -13.296875 C 6.628906 -13.710938 6.957031 -14.09375 7.34375 -14.4375 C 7.738281 -14.78125 8.210938 -15.054688 8.765625 -15.265625 C 9.316406 -15.472656 9.957031 -15.578125 10.6875 -15.578125 Z M 9.359375 -12.234375 C 8.628906 -12.234375 8.046875 -12.082031 7.609375 -11.78125 C 7.179688 -11.476562 6.867188 -11.023438 6.671875 -10.421875 C 6.484375 -9.828125 6.378906 -9.070312 6.359375 -8.15625 L 6.359375 -7.703125 C 6.359375 -6.710938 6.453125 -5.875 6.640625 -5.1875 C 6.828125 -4.507812 7.140625 -3.992188 7.578125 -3.640625 C 8.023438 -3.285156 8.632812 -3.109375 9.40625 -3.109375 C 10.039062 -3.109375 10.5625 -3.285156 10.96875 -3.640625 C 11.382812 -3.992188 11.691406 -4.515625 11.890625 -5.203125 C 12.097656 -5.890625 12.203125 -6.726562 12.203125 -7.71875 C 12.203125 -9.21875 11.96875 -10.34375 11.5 -11.09375 C 11.039062 -11.851562 10.328125 -12.234375 9.359375 -12.234375 Z M 9.359375 -12.234375 "/></g></g></g><g fill="#ffffff" fill-opacity="1"><g transform="translate(145.065106, 77.991206)"><g><path d="M 8.484375 -15.578125 C 9.898438 -15.578125 11.117188 -15.304688 12.140625 -14.765625 C 13.160156 -14.222656 13.945312 -13.4375 14.5 -12.40625 C 15.0625 -11.375 15.34375 -10.113281 15.34375 -8.625 L 15.34375 -6.609375 L 5.484375 -6.609375 C 5.523438 -5.429688 5.875 -4.503906 6.53125 -3.828125 C 7.195312 -3.160156 8.117188 -2.828125 9.296875 -2.828125 C 10.273438 -2.828125 11.164062 -2.925781 11.96875 -3.125 C 12.78125 -3.332031 13.617188 -3.632812 14.484375 -4.03125 L 14.484375 -0.8125 C 13.722656 -0.4375 12.929688 -0.160156 12.109375 0.015625 C 11.285156 0.191406 10.285156 0.28125 9.109375 0.28125 C 7.578125 0.28125 6.21875 0 5.03125 -0.5625 C 3.851562 -1.132812 2.929688 -2 2.265625 -3.15625 C 1.597656 -4.3125 1.265625 -5.769531 1.265625 -7.53125 C 1.265625 -9.320312 1.566406 -10.8125 2.171875 -12 C 2.773438 -13.1875 3.617188 -14.078125 4.703125 -14.671875 C 5.785156 -15.273438 7.046875 -15.578125 8.484375 -15.578125 Z M 8.515625 -12.609375 C 7.703125 -12.609375 7.03125 -12.347656 6.5 -11.828125 C 5.96875 -11.304688 5.660156 -10.488281 5.578125 -9.375 L 11.4375 -9.375 C 11.425781 -10 11.3125 -10.550781 11.09375 -11.03125 C 10.882812 -11.519531 10.566406 -11.90625 10.140625 -12.1875 C 9.710938 -12.46875 9.171875 -12.609375 8.515625 -12.609375 Z M 8.515625 -12.609375 "/></g></g></g><g fill="#ffffff" fill-opacity="1"><g transform="translate(161.605765, 77.991206)"><g><path d="M 8.390625 0.28125 C 6.878906 0.28125 5.585938 0.00390625 4.515625 -0.546875 C 3.453125 -1.097656 2.644531 -1.953125 2.09375 -3.109375 C 1.539062 -4.273438 1.265625 -5.757812 1.265625 -7.5625 C 1.265625 -9.425781 1.578125 -10.945312 2.203125 -12.125 C 2.835938 -13.3125 3.71875 -14.179688 4.84375 -14.734375 C 5.96875 -15.296875 7.273438 -15.578125 8.765625 -15.578125 C 9.816406 -15.578125 10.726562 -15.472656 11.5 -15.265625 C 12.269531 -15.054688 12.941406 -14.8125 13.515625 -14.53125 L 12.296875 -11.3125 C 11.640625 -11.570312 11.023438 -11.785156 10.453125 -11.953125 C 9.890625 -12.117188 9.328125 -12.203125 8.765625 -12.203125 C 8.035156 -12.203125 7.425781 -12.03125 6.9375 -11.6875 C 6.457031 -11.351562 6.097656 -10.84375 5.859375 -10.15625 C 5.628906 -9.476562 5.515625 -8.625 5.515625 -7.59375 C 5.515625 -6.582031 5.640625 -5.742188 5.890625 -5.078125 C 6.148438 -4.410156 6.519531 -3.914062 7 -3.59375 C 7.476562 -3.269531 8.066406 -3.109375 8.765625 -3.109375 C 9.628906 -3.109375 10.398438 -3.222656 11.078125 -3.453125 C 11.753906 -3.679688 12.410156 -4.007812 13.046875 -4.4375 L 13.046875 -0.859375 C 12.410156 -0.460938 11.742188 -0.175781 11.046875 0 C 10.347656 0.1875 9.460938 0.28125 8.390625 0.28125 Z M 8.390625 0.28125 "/></g></g></g><g fill="#ffffff" fill-opacity="1"><g transform="translate(176.000246, 77.991206)"><g><path d="M 6.359375 -15.28125 L 6.359375 0 L 2.1875 0 L 2.1875 -15.28125 Z M 4.28125 -21.28125 C 4.894531 -21.28125 5.425781 -21.132812 5.875 -20.84375 C 6.320312 -20.550781 6.546875 -20.015625 6.546875 -19.234375 C 6.546875 -18.460938 6.320312 -17.925781 5.875 -17.625 C 5.425781 -17.332031 4.894531 -17.1875 4.28125 -17.1875 C 3.65625 -17.1875 3.117188 -17.332031 2.671875 -17.625 C 2.234375 -17.925781 2.015625 -18.460938 2.015625 -19.234375 C 2.015625 -20.015625 2.234375 -20.550781 2.671875 -20.84375 C 3.117188 -21.132812 3.65625 -21.28125 4.28125 -21.28125 Z M 4.28125 -21.28125 "/></g></g></g><g fill="#ffffff" fill-opacity="1"><g transform="translate(184.543981, 77.991206)"><g><path d="M 8.484375 -15.578125 C 9.898438 -15.578125 11.117188 -15.304688 12.140625 -14.765625 C 13.160156 -14.222656 13.945312 -13.4375 14.5 -12.40625 C 15.0625 -11.375 15.34375 -10.113281 15.34375 -8.625 L 15.34375 -6.609375 L 5.484375 -6.609375 C 5.523438 -5.429688 5.875 -4.503906 6.53125 -3.828125 C 7.195312 -3.160156 8.117188 -2.828125 9.296875 -2.828125 C 10.273438 -2.828125 11.164062 -2.925781 11.96875 -3.125 C 12.78125 -3.332031 13.617188 -3.632812 14.484375 -4.03125 L 14.484375 -0.8125 C 13.722656 -0.4375 12.929688 -0.160156 12.109375 0.015625 C 11.285156 0.191406 10.285156 0.28125 9.109375 0.28125 C 7.578125 0.28125 6.21875 0 5.03125 -0.5625 C 3.851562 -1.132812 2.929688 -2 2.265625 -3.15625 C 1.597656 -4.3125 1.265625 -5.769531 1.265625 -7.53125 C 1.265625 -9.320312 1.566406 -10.8125 2.171875 -12 C 2.773438 -13.1875 3.617188 -14.078125 4.703125 -14.671875 C 5.785156 -15.273438 7.046875 -15.578125 8.484375 -15.578125 Z M 8.515625 -12.609375 C 7.703125 -12.609375 7.03125 -12.347656 6.5 -11.828125 C 5.96875 -11.304688 5.660156 -10.488281 5.578125 -9.375 L 11.4375 -9.375 C 11.425781 -10 11.3125 -10.550781 11.09375 -11.03125 C 10.882812 -11.519531 10.566406 -11.90625 10.140625 -12.1875 C 9.710938 -12.46875 9.171875 -12.609375 8.515625 -12.609375 Z M 8.515625 -12.609375 "/></g></g></g><g fill="#ffffff" fill-opacity="1"><g transform="translate(201.08464, 77.991206)"><g><path d="M 12.859375 -4.546875 C 12.859375 -3.503906 12.613281 -2.625 12.125 -1.90625 C 11.632812 -1.1875 10.90625 -0.640625 9.9375 -0.265625 C 8.96875 0.0976562 7.765625 0.28125 6.328125 0.28125 C 5.265625 0.28125 4.351562 0.207031 3.59375 0.0625 C 2.832031 -0.0703125 2.0625 -0.296875 1.28125 -0.609375 L 1.28125 -4.0625 C 2.113281 -3.6875 3.003906 -3.378906 3.953125 -3.140625 C 4.910156 -2.898438 5.75 -2.78125 6.46875 -2.78125 C 7.28125 -2.78125 7.859375 -2.898438 8.203125 -3.140625 C 8.554688 -3.378906 8.734375 -3.695312 8.734375 -4.09375 C 8.734375 -4.34375 8.660156 -4.570312 8.515625 -4.78125 C 8.378906 -4.988281 8.078125 -5.21875 7.609375 -5.46875 C 7.148438 -5.726562 6.421875 -6.070312 5.421875 -6.5 C 4.472656 -6.894531 3.6875 -7.296875 3.0625 -7.703125 C 2.445312 -8.117188 1.992188 -8.609375 1.703125 -9.171875 C 1.410156 -9.734375 1.265625 -10.445312 1.265625 -11.3125 C 1.265625 -12.71875 1.8125 -13.78125 2.90625 -14.5 C 4 -15.21875 5.46875 -15.578125 7.3125 -15.578125 C 8.257812 -15.578125 9.164062 -15.476562 10.03125 -15.28125 C 10.894531 -15.09375 11.78125 -14.789062 12.6875 -14.375 L 11.4375 -11.359375 C 10.675781 -11.691406 9.957031 -11.960938 9.28125 -12.171875 C 8.613281 -12.378906 7.9375 -12.484375 7.25 -12.484375 C 6.632812 -12.484375 6.171875 -12.398438 5.859375 -12.234375 C 5.554688 -12.066406 5.40625 -11.816406 5.40625 -11.484375 C 5.40625 -11.234375 5.484375 -11.015625 5.640625 -10.828125 C 5.796875 -10.640625 6.101562 -10.425781 6.5625 -10.1875 C 7.03125 -9.957031 7.707031 -9.660156 8.59375 -9.296875 C 9.46875 -8.941406 10.222656 -8.570312 10.859375 -8.1875 C 11.492188 -7.800781 11.984375 -7.320312 12.328125 -6.75 C 12.679688 -6.175781 12.859375 -5.441406 12.859375 -4.546875 Z M 12.859375 -4.546875 "/></g></g></g><path fill="#ffffff" d="M 60.019531 83.222656 L 61.765625 83.222656 L 61.765625 51.609375 L 60.019531 51.609375 Z M 62.632812 84.082031 L 59.148438 84.082031 L 59.148438 50.75 L 62.632812 50.75 L 62.632812 84.082031 " fill-opacity="1" fill-rule="nonzero"/><path fill="#ffffff" d="M 89.570312 50.75 L 89.570312 70.253906 C 89.90625 70.640625 90.195312 71.058594 90.441406 71.5 L 90.441406 51.613281 L 92.1875 51.613281 L 92.1875 79.515625 C 92.390625 79.617188 92.582031 79.742188 92.757812 79.894531 L 93.054688 80.152344 L 93.054688 50.75 L 89.570312 50.75 " fill-opacity="1" fill-rule="nonzero"/><path fill="#ffffff" d="M 78.089844 54.757812 L 69.242188 54.757812 L 69.242188 53.894531 L 78.089844 53.894531 L 78.089844 54.757812 " fill-opacity="1" fill-rule="nonzero"/><path fill="#ffffff" d="M 78.089844 54.757812 L 69.242188 54.757812 L 69.242188 53.894531 L 78.089844 53.894531 L 78.089844 54.757812 " fill-opacity="1" fill-rule="nonzero"/><path fill="#ffffff" d="M 76.558594 75.664062 L 67.136719 75.664062 L 67.136719 74.804688 L 76.535156 74.804688 C 76.53125 74.875 76.53125 74.945312 76.53125 75.019531 C 76.53125 75.234375 76.539062 75.449219 76.558594 75.664062 " fill-opacity="1" fill-rule="nonzero"/><path fill="#ffffff" d="M 71.617188 70.296875 L 71.617188 66.171875 L 72.488281 66.171875 L 72.488281 70.296875 L 71.617188 70.296875 " fill-opacity="1" fill-rule="nonzero"/><path fill="#ffffff" d="M 76.964844 66.171875 L 76.964844 70.296875 L 76.09375 70.296875 L 76.09375 66.171875 L 76.964844 66.171875 " fill-opacity="1" fill-rule="nonzero"/><path fill="#ffffff" d="M 81.441406 66.171875 L 81.441406 68.109375 C 81.144531 68.214844 80.855469 68.339844 80.574219 68.480469 L 80.574219 66.171875 L 81.441406 66.171875 " fill-opacity="1" fill-rule="nonzero"/><path fill="#ffffff" d="M 78.503906 80.003906 L 67.136719 80.003906 L 67.136719 79.140625 L 77.8125 79.140625 C 78.019531 79.445312 78.25 79.730469 78.503906 80.003906 " fill-opacity="1" fill-rule="nonzero"/><path fill="#ffffff" d="M 82.960938 54.757812 L 79.480469 54.757812 L 79.480469 53.894531 L 82.960938 53.894531 L 82.960938 54.757812 " fill-opacity="1" fill-rule="nonzero"/><path fill="#ffffff" d="M 82.960938 54.757812 L 79.480469 54.757812 L 79.480469 53.894531 L 82.960938 53.894531 L 82.960938 54.757812 " fill-opacity="1" fill-rule="nonzero"/><path fill="#ffffff" d="M 68.007812 62.105469 L 85.050781 62.105469 L 85.050781 58.941406 L 68.007812 58.941406 Z M 85.921875 62.964844 L 67.136719 62.964844 L 67.136719 58.078125 L 85.921875 58.078125 L 85.921875 62.964844 " fill-opacity="1" fill-rule="nonzero"/><path fill="#ffffff" d="M 67.136719 65.792969 L 67.136719 70.675781 L 77.964844 70.675781 C 78.1875 70.382812 78.433594 70.097656 78.699219 69.832031 C 78.707031 69.828125 78.710938 69.820312 78.71875 69.816406 L 68.007812 69.816406 L 68.007812 66.652344 L 85.050781 66.652344 L 85.050781 67.765625 C 85.347656 67.8125 85.636719 67.871094 85.921875 67.949219 L 85.921875 65.792969 L 67.136719 65.792969 " fill-opacity="1" fill-rule="nonzero"/><path fill="#ffffff" d="M 87.945312 78.984375 C 86.875 80.046875 85.453125 80.628906 83.9375 80.628906 C 82.421875 80.628906 81 80.046875 79.929688 78.984375 C 78.859375 77.925781 78.269531 76.515625 78.269531 75.019531 C 78.269531 73.519531 78.859375 72.109375 79.929688 71.050781 C 81 69.992188 82.421875 69.40625 83.9375 69.40625 C 84.695312 69.40625 85.429688 69.554688 86.109375 69.832031 C 86.785156 70.109375 87.410156 70.519531 87.945312 71.050781 C 89.015625 72.109375 89.605469 73.519531 89.605469 75.019531 C 89.605469 76.515625 89.015625 77.925781 87.945312 78.984375 Z M 89.980469 72.539062 C 89.65625 71.765625 89.179688 71.054688 88.5625 70.441406 C 87.324219 69.21875 85.683594 68.546875 83.9375 68.546875 C 82.191406 68.546875 80.550781 69.21875 79.316406 70.441406 C 78.082031 71.664062 77.398438 73.289062 77.398438 75.019531 C 77.398438 76.746094 78.082031 78.371094 79.316406 79.59375 C 80.550781 80.816406 82.191406 81.492188 83.9375 81.492188 C 85.539062 81.492188 87.050781 80.925781 88.242188 79.890625 C 88.351562 79.796875 88.457031 79.695312 88.5625 79.59375 C 88.664062 79.492188 88.761719 79.386719 88.859375 79.28125 C 89.90625 78.101562 90.476562 76.601562 90.476562 75.019531 C 90.476562 74.152344 90.304688 73.316406 89.980469 72.539062 " fill-opacity="1" fill-rule="nonzero"/><path fill="#ffffff" d="M 86.558594 77.613281 C 85.859375 78.304688 84.929688 78.6875 83.9375 78.6875 C 82.949219 78.6875 82.015625 78.304688 81.316406 77.613281 C 79.871094 76.183594 79.871094 73.855469 81.316406 72.421875 C 82.039062 71.707031 82.988281 71.351562 83.9375 71.351562 C 84.886719 71.351562 85.835938 71.707031 86.558594 72.421875 C 87.257812 73.117188 87.644531 74.039062 87.644531 75.019531 C 87.644531 76 87.257812 76.917969 86.558594 77.613281 Z M 87.171875 71.816406 C 85.390625 70.046875 82.484375 70.046875 80.703125 71.816406 C 78.917969 73.582031 78.917969 76.457031 80.703125 78.222656 C 81.566406 79.078125 82.714844 79.546875 83.9375 79.546875 C 85.160156 79.546875 86.308594 79.078125 87.171875 78.222656 C 88.039062 77.367188 88.511719 76.226562 88.511719 75.019531 C 88.511719 73.808594 88.039062 72.671875 87.171875 71.816406 " fill-opacity="1" fill-rule="nonzero"/><path fill="#ffffff" d="M 90.222656 80.632812 L 89.609375 81.242188 L 87.945312 79.59375 L 88.5625 78.984375 L 88.859375 79.28125 L 90.222656 80.632812 " fill-opacity="1" fill-rule="nonzero"/><g clip-path="url(#7137504e03)"><path fill="#ffffff" d="M 97.648438 88.589844 C 97.335938 88.894531 96.925781 89.058594 96.488281 89.042969 C 96.046875 89.027344 95.648438 88.839844 95.359375 88.511719 L 90.175781 82.617188 C 89.824219 82.21875 89.84375 81.613281 90.222656 81.242188 C 90.421875 81.042969 90.683594 80.945312 90.945312 80.945312 C 91.183594 80.945312 91.421875 81.027344 91.617188 81.191406 L 97.566406 86.328125 C 97.898438 86.613281 98.089844 87.007812 98.105469 87.441406 C 98.117188 87.875 97.957031 88.28125 97.648438 88.589844 Z M 98.972656 87.410156 C 98.949219 86.746094 98.644531 86.113281 98.140625 85.679688 L 92.1875 80.542969 C 91.554688 79.996094 90.640625 79.941406 89.953125 80.363281 C 89.828125 80.4375 89.714844 80.527344 89.609375 80.632812 C 89.503906 80.734375 89.410156 80.851562 89.335938 80.972656 C 88.910156 81.65625 88.96875 82.558594 89.519531 83.183594 L 94.707031 89.078125 C 95.148438 89.578125 95.785156 89.878906 96.457031 89.902344 C 96.484375 89.902344 96.511719 89.90625 96.539062 89.90625 C 97.183594 89.90625 97.804688 89.648438 98.261719 89.199219 C 98.738281 88.726562 98.996094 88.078125 98.972656 87.410156 " fill-opacity="1" fill-rule="nonzero"/></g><path fill="#ffffff" d="M 84.148438 75.964844 L 86.054688 74.074219 L 85.441406 73.464844 L 83.53125 75.355469 L 82.605469 74.4375 L 81.992188 75.046875 L 83.53125 76.574219 L 84.148438 75.964844 " fill-opacity="1" fill-rule="nonzero"/><g clip-path="url(#fda465b8d9)"><path fill="#ffffff" d="M 58.28125 49.027344 L 58.28125 44.902344 L 59.148438 44.902344 L 59.148438 49.027344 L 58.28125 49.027344 " fill-opacity="1" fill-rule="nonzero"/></g><g clip-path="url(#91db653c7d)"><path fill="#ffffff" d="M 56.796875 49.027344 L 53.847656 46.109375 L 54.464844 45.503906 L 57.410156 48.417969 L 56.796875 49.027344 " fill-opacity="1" fill-rule="nonzero"/></g><g clip-path="url(#43d2526839)"><path fill="#ffffff" d="M 53.242188 49.890625 L 57.410156 49.890625 L 57.410156 50.75 L 53.242188 50.75 L 53.242188 49.890625 " fill-opacity="1" fill-rule="nonzero"/></g><path fill="#ffffff" d="M 90.441406 71.5 L 90.441406 47.691406 L 61.765625 47.691406 L 61.765625 87.144531 L 90.441406 87.144531 L 90.441406 85.484375 L 89.570312 84.554688 L 89.570312 86.28125 L 62.632812 86.28125 L 62.632812 48.550781 L 89.570312 48.550781 L 89.570312 70.253906 C 89.90625 70.640625 90.195312 71.058594 90.441406 71.5 " fill-opacity="1" fill-rule="nonzero"/></svg>