<svg xmlns="http://www.w3.org/2000/svg" xmlns:xlink="http://www.w3.org/1999/xlink" width="500" zoomAndPan="magnify" viewBox="0 0 375 374.999991" height="500" preserveAspectRatio="xMidYMid meet" version="1.0"><defs><clipPath id="5d9b191620"><path d="M 187.5 0 C 83.945312 0 0 83.945312 0 187.5 C 0 291.054688 83.945312 375 187.5 375 C 291.054688 375 375 291.054688 375 187.5 C 375 83.945312 291.054688 0 187.5 0 Z M 187.5 0 " clip-rule="nonzero"/></clipPath><clipPath id="b751d5f1f8"><path d="M 190 198 L 210 198 L 210 311.785156 L 190 311.785156 Z M 190 198 " clip-rule="nonzero"/></clipPath><clipPath id="60a31466ae"><path d="M 256 133 L 298 133 L 298 311.785156 L 256 311.785156 Z M 256 133 " clip-rule="nonzero"/></clipPath><clipPath id="ea36a0425a"><path d="M 165 200 L 185 200 L 185 311.785156 L 165 311.785156 Z M 165 200 " clip-rule="nonzero"/></clipPath><clipPath id="3fd9a78615"><path d="M 77 133 L 122 133 L 122 311.785156 L 77 311.785156 Z M 77 133 " clip-rule="nonzero"/></clipPath><clipPath id="515a68a18c"><path d="M 117 63.535156 L 258 63.535156 L 258 204 L 117 204 Z M 117 63.535156 " clip-rule="nonzero"/></clipPath></defs><g clip-path="url(#5d9b191620)"><rect x="-37.5" width="450" fill="#fec743" y="-37.499999" height="449.999989" fill-opacity="1"/></g><path fill="#ffffff" d="M 214.09375 205.707031 C 212.851562 205.707031 211.84375 204.699219 211.84375 203.453125 L 211.84375 196.675781 C 211.84375 195.429688 212.851562 194.421875 214.09375 194.421875 C 215.339844 194.421875 216.347656 195.429688 216.347656 196.675781 L 216.347656 203.453125 C 216.359375 204.699219 215.339844 205.707031 214.09375 205.707031 Z M 214.09375 205.707031 " fill-opacity="1" fill-rule="nonzero"/><path fill="#ffffff" d="M 250.152344 205.707031 C 248.90625 205.707031 247.902344 204.699219 247.902344 203.453125 L 247.902344 160.570312 C 247.902344 159.320312 248.90625 158.316406 250.152344 158.316406 C 251.398438 158.316406 252.402344 159.320312 252.402344 160.570312 L 252.402344 203.453125 C 252.402344 204.699219 251.398438 205.707031 250.152344 205.707031 Z M 250.152344 205.707031 " fill-opacity="1" fill-rule="nonzero"/><path fill="#ffffff" d="M 232.125 203.453125 C 230.878906 203.453125 229.875 202.445312 229.875 201.199219 L 229.875 185.40625 C 229.875 184.15625 230.878906 183.152344 232.125 183.152344 C 233.371094 183.152344 234.375 184.15625 234.375 185.40625 L 234.375 201.199219 C 234.375 202.445312 233.371094 203.453125 232.125 203.453125 Z M 232.125 203.453125 " fill-opacity="1" fill-rule="nonzero"/><g clip-path="url(#b751d5f1f8)"><path fill="#ffffff" d="M 207.34375 311.785156 C 206.097656 311.785156 205.09375 310.777344 205.09375 309.53125 L 205.09375 282.492188 C 200.363281 278.695312 196.539062 273.21875 194.25 266.964844 C 190.929688 257.886719 190.703125 248.105469 190.753906 239.636719 C 190.816406 228.859375 191.695312 218.109375 192.546875 207.707031 C 192.722656 205.476562 192.914062 203.25 193.09375 201.019531 C 193.195312 199.769531 194.300781 198.855469 195.519531 198.945312 C 196.765625 199.046875 197.683594 200.128906 197.59375 201.375 C 197.414062 203.617188 197.238281 205.847656 197.046875 208.089844 C 196.195312 218.402344 195.332031 229.0625 195.265625 239.671875 C 195.214844 247.734375 195.433594 257.046875 198.496094 265.425781 C 200.632812 271.269531 204.253906 276.289062 208.691406 279.574219 L 209.609375 280.25 L 209.609375 309.53125 C 209.59375 310.777344 208.589844 311.785156 207.34375 311.785156 Z M 207.34375 311.785156 " fill-opacity="1" fill-rule="nonzero"/></g><g clip-path="url(#60a31466ae)"><path fill="#ffffff" d="M 270.429688 311.785156 C 269.183594 311.785156 268.179688 310.777344 268.179688 309.53125 L 268.179688 283.089844 L 269.667969 282.554688 C 271.472656 281.894531 273.203125 281.066406 274.792969 280.085938 C 280.117188 276.796875 284.65625 271.667969 287.570312 265.640625 C 293.925781 252.523438 293.558594 237.140625 292.640625 222.519531 C 292.324219 217.539062 292.070312 212.570312 291.816406 207.589844 C 291.664062 204.75 291.523438 201.921875 291.371094 199.082031 C 291.320312 198.101562 291.332031 196.777344 291.355469 195.261719 C 291.433594 191.074219 291.585938 182.359375 288.675781 181.085938 C 287.542969 180.589844 286.539062 180.617188 285.523438 181.164062 C 281.808594 183.136719 278.746094 191.277344 277.84375 196.15625 C 277.144531 199.910156 277.410156 204.992188 277.675781 209.921875 C 277.878906 213.78125 278.085938 217.765625 277.867188 221.359375 C 277.625 225.230469 274.371094 228.273438 270.441406 228.273438 L 268.535156 228.273438 L 268.21875 226.390625 C 266.488281 216.136719 266.210938 201.375 265.992188 190.601562 L 265.929688 187.699219 C 265.828125 182.691406 266.09375 177.699219 266.347656 172.871094 C 266.71875 165.984375 267.0625 159.476562 266.449219 152.777344 L 266.3125 151.210938 C 265.957031 146.941406 265.597656 142.523438 262.890625 139.859375 C 261.503906 138.5 260.105469 137.898438 258.785156 138.039062 C 257.539062 138.179688 256.433594 137.277344 256.304688 136.039062 C 256.179688 134.804688 257.066406 133.683594 258.300781 133.558594 C 260.195312 133.351562 263.070312 133.722656 266.058594 136.652344 C 269.960938 140.5 270.429688 146.242188 270.8125 150.851562 L 270.9375 152.378906 C 271.585938 159.410156 271.21875 166.390625 270.851562 173.140625 C 270.59375 177.878906 270.339844 182.78125 270.429688 187.632812 L 270.480469 190.550781 C 270.671875 200.320312 270.925781 213.398438 272.261719 223.167969 C 272.882812 222.683594 273.304688 221.945312 273.34375 221.117188 C 273.546875 217.78125 273.34375 213.921875 273.152344 210.1875 C 272.882812 205.007812 272.605469 199.65625 273.394531 195.378906 C 273.417969 195.238281 276.101562 181.085938 283.386719 177.214844 C 285.625 176.019531 288.078125 175.941406 290.453125 176.988281 C 296.125 179.46875 295.960938 188.664062 295.84375 195.378906 C 295.820312 196.765625 295.792969 197.976562 295.84375 198.867188 C 295.996094 201.707031 296.148438 204.546875 296.289062 207.386719 C 296.542969 212.355469 296.796875 217.308594 297.117188 222.261719 C 298.070312 237.484375 298.4375 253.53125 291.597656 267.640625 C 288.320312 274.417969 283.183594 280.210938 277.128906 283.945312 C 275.71875 284.808594 274.21875 285.585938 272.667969 286.234375 L 272.667969 309.542969 C 272.679688 310.777344 271.664062 311.785156 270.429688 311.785156 Z M 270.429688 311.785156 " fill-opacity="1" fill-rule="nonzero"/></g><path fill="#ffffff" d="M 256.367188 278.480469 C 256.164062 278.480469 255.960938 278.453125 255.757812 278.390625 C 247.53125 276.097656 240.730469 269.257812 238.011719 260.535156 C 233.738281 246.882812 240.402344 232.59375 252.847656 228.683594 C 254.042969 228.300781 255.300781 228.976562 255.667969 230.160156 C 256.039062 231.34375 255.378906 232.617188 254.195312 232.988281 C 244.113281 236.144531 238.785156 247.902344 242.308594 259.183594 C 244.582031 266.457031 250.203125 272.148438 256.964844 274.035156 C 258.160156 274.367188 258.859375 275.613281 258.53125 276.8125 C 258.25 277.832031 257.347656 278.480469 256.367188 278.480469 Z M 256.367188 278.480469 " fill-opacity="1" fill-rule="nonzero"/><path fill="#ffffff" d="M 160.800781 205.707031 C 159.554688 205.707031 158.550781 204.699219 158.550781 203.453125 L 158.550781 196.675781 C 158.550781 195.429688 159.554688 194.421875 160.800781 194.421875 C 162.046875 194.421875 163.050781 195.429688 163.050781 196.675781 L 163.050781 203.453125 C 163.0625 204.699219 162.046875 205.707031 160.800781 205.707031 Z M 160.800781 205.707031 " fill-opacity="1" fill-rule="nonzero"/><path fill="#ffffff" d="M 124.753906 205.707031 C 123.511719 205.707031 122.503906 204.699219 122.503906 203.453125 L 122.503906 160.570312 C 122.503906 159.320312 123.511719 158.316406 124.753906 158.316406 C 126 158.316406 127.007812 159.320312 127.007812 160.570312 L 127.007812 203.453125 C 127.007812 204.699219 126 205.707031 124.753906 205.707031 Z M 124.753906 205.707031 " fill-opacity="1" fill-rule="nonzero"/><path fill="#ffffff" d="M 142.785156 203.453125 C 141.539062 203.453125 140.535156 202.445312 140.535156 201.199219 L 140.535156 185.40625 C 140.535156 184.15625 141.539062 183.152344 142.785156 183.152344 C 144.03125 183.152344 145.035156 184.15625 145.035156 185.40625 L 145.035156 201.199219 C 145.035156 202.445312 144.03125 203.453125 142.785156 203.453125 Z M 142.785156 203.453125 " fill-opacity="1" fill-rule="nonzero"/><g clip-path="url(#ea36a0425a)"><path fill="#ffffff" d="M 167.5625 311.785156 C 166.316406 311.785156 165.3125 310.777344 165.3125 309.53125 L 165.3125 280.25 L 166.226562 279.574219 C 170.679688 276.289062 174.289062 271.257812 176.425781 265.425781 C 179.488281 257.058594 179.691406 247.746094 179.652344 239.671875 C 179.601562 229.0625 178.726562 218.402344 177.875 208.089844 L 177.429688 202.574219 C 177.328125 201.339844 178.253906 200.242188 179.5 200.140625 C 180.722656 200.0625 181.828125 200.96875 181.929688 202.214844 L 182.375 207.71875 C 183.226562 218.109375 184.105469 228.859375 184.167969 239.648438 C 184.21875 248.117188 183.988281 257.898438 180.671875 266.980469 C 178.382812 273.246094 174.554688 278.710938 169.828125 282.503906 L 169.828125 309.542969 C 169.8125 310.777344 168.808594 311.785156 167.5625 311.785156 Z M 167.5625 311.785156 " fill-opacity="1" fill-rule="nonzero"/></g><g clip-path="url(#3fd9a78615)"><path fill="#ffffff" d="M 104.476562 311.785156 C 103.230469 311.785156 102.226562 310.777344 102.226562 309.53125 L 102.226562 286.222656 C 100.675781 285.574219 99.175781 284.808594 97.765625 283.929688 C 91.726562 280.199219 86.589844 274.40625 83.296875 267.628906 C 76.457031 253.515625 76.824219 237.46875 77.777344 222.25 C 78.082031 217.347656 78.335938 212.429688 78.59375 207.515625 C 78.746094 204.625 78.898438 201.734375 79.050781 198.839844 C 79.101562 197.949219 79.074219 196.742188 79.050781 195.351562 C 78.921875 188.640625 78.769531 179.433594 84.425781 176.960938 C 86.816406 175.917969 89.257812 175.992188 91.496094 177.191406 C 98.78125 181.0625 101.464844 195.210938 101.488281 195.351562 C 102.277344 199.632812 102 204.980469 101.730469 210.164062 C 101.539062 213.894531 101.335938 217.753906 101.539062 221.089844 C 101.589844 221.917969 102.011719 222.644531 102.621094 223.140625 C 103.957031 213.386719 104.210938 200.292969 104.402344 190.523438 L 104.453125 187.609375 C 104.554688 182.757812 104.285156 177.851562 104.03125 173.101562 C 103.675781 166.351562 103.296875 159.386719 103.945312 152.355469 L 104.070312 150.8125 C 104.453125 146.203125 104.921875 140.472656 108.824219 136.625 C 112.167969 133.339844 116.199219 132.589844 119.875 134.574219 C 120.96875 135.175781 121.375 136.539062 120.789062 137.632812 C 120.203125 138.726562 118.832031 139.148438 117.738281 138.550781 C 115.816406 137.503906 113.9375 137.9375 111.992188 139.847656 C 109.28125 142.511719 108.914062 146.917969 108.570312 151.183594 L 108.429688 152.761719 C 107.808594 159.460938 108.164062 165.957031 108.53125 172.847656 C 108.789062 177.675781 109.054688 182.679688 108.953125 187.699219 L 108.890625 190.601562 C 108.671875 201.375 108.394531 216.136719 106.664062 226.390625 L 106.347656 228.273438 L 104.4375 228.273438 C 100.511719 228.273438 97.257812 225.242188 97.015625 221.359375 C 96.796875 217.765625 97 213.769531 97.203125 209.910156 C 97.460938 204.992188 97.726562 199.910156 97.039062 196.15625 C 96.136719 191.277344 93.074219 183.136719 89.359375 181.164062 C 88.332031 180.617188 87.328125 180.589844 86.207031 181.085938 C 83.296875 182.363281 83.449219 191.074219 83.523438 195.261719 C 83.550781 196.777344 83.574219 198.101562 83.511719 199.082031 C 83.359375 201.976562 83.207031 204.851562 83.054688 207.746094 C 82.800781 212.671875 82.546875 217.601562 82.242188 222.53125 C 81.324219 237.152344 80.957031 252.523438 87.3125 265.65625 C 90.226562 271.679688 94.765625 276.796875 100.089844 280.085938 C 101.679688 281.078125 103.410156 281.90625 105.214844 282.554688 L 106.703125 283.089844 L 106.703125 309.53125 C 106.726562 310.777344 105.722656 311.785156 104.476562 311.785156 Z M 104.476562 311.785156 " fill-opacity="1" fill-rule="nonzero"/></g><path fill="#ffffff" d="M 118.539062 278.480469 C 117.546875 278.480469 116.644531 277.832031 116.378906 276.824219 C 116.046875 275.628906 116.746094 274.378906 117.941406 274.046875 C 124.703125 272.148438 130.324219 266.46875 132.601562 259.199219 C 136.121094 247.914062 130.792969 236.171875 120.710938 233 C 119.53125 232.628906 118.871094 231.355469 119.238281 230.171875 C 119.605469 228.988281 120.867188 228.3125 122.058594 228.695312 C 134.507812 232.59375 141.167969 246.882812 136.898438 260.546875 C 134.175781 269.257812 127.375 276.097656 119.148438 278.402344 C 118.945312 278.453125 118.742188 278.480469 118.539062 278.480469 Z M 118.539062 278.480469 " fill-opacity="1" fill-rule="nonzero"/><g clip-path="url(#515a68a18c)"><path fill="#ffffff" d="M 187.449219 203.453125 C 148.9375 203.453125 117.609375 172.070312 117.609375 133.492188 C 117.609375 94.914062 148.9375 63.535156 187.449219 63.535156 C 225.957031 63.535156 257.285156 94.914062 257.285156 133.492188 C 257.285156 172.070312 225.96875 203.453125 187.449219 203.453125 Z M 187.449219 68.042969 C 151.417969 68.042969 122.113281 97.398438 122.113281 133.492188 C 122.113281 169.585938 151.417969 198.945312 187.449219 198.945312 C 223.476562 198.945312 252.785156 169.585938 252.785156 133.492188 C 252.785156 97.398438 223.476562 68.042969 187.449219 68.042969 Z M 187.449219 68.042969 " fill-opacity="1" fill-rule="nonzero"/></g><path fill="#ffffff" d="M 187.449219 192.167969 C 155.140625 192.167969 128.875 165.84375 128.875 133.492188 C 128.875 101.144531 155.15625 74.820312 187.449219 74.820312 C 219.742188 74.820312 246.019531 101.144531 246.019531 133.492188 C 246.019531 165.84375 219.753906 192.167969 187.449219 192.167969 Z M 187.449219 79.328125 C 157.632812 79.328125 133.375 103.628906 133.375 133.492188 C 133.375 163.359375 157.632812 187.660156 187.449219 187.660156 C 217.261719 187.660156 241.519531 163.359375 241.519531 133.492188 C 241.519531 103.628906 217.261719 79.328125 187.449219 79.328125 Z M 187.449219 79.328125 " fill-opacity="1" fill-rule="nonzero"/><path fill="#ffffff" d="M 167.652344 163.664062 C 165.605469 163.664062 163.621094 163.039062 161.90625 161.855469 C 152.34375 155.222656 147.132812 144.101562 148.300781 132.832031 C 149.472656 121.546875 156.84375 111.738281 167.5625 107.207031 C 169.128906 106.542969 170.855469 106.277344 172.546875 106.453125 C 176.234375 106.835938 179.414062 109.191406 180.847656 112.605469 C 181.90625 115.101562 181.917969 117.867188 180.898438 120.375 C 179.882812 122.882812 177.9375 124.859375 175.445312 125.914062 C 171.554688 127.558594 168.871094 131.011719 168.480469 134.90625 C 168.070312 138.804688 169.980469 142.738281 173.460938 145.148438 C 175.6875 146.6875 177.1875 149.019531 177.671875 151.679688 C 178.152344 154.355469 177.570312 157.042969 176.03125 159.285156 C 174.492188 161.511719 172.164062 163.015625 169.507812 163.5 C 168.871094 163.613281 168.261719 163.664062 167.652344 163.664062 Z M 171.492188 110.925781 C 170.742188 110.925781 169.992188 111.078125 169.304688 111.371094 C 160.101562 115.253906 153.769531 123.660156 152.777344 133.300781 C 151.785156 142.945312 156.261719 152.457031 164.460938 158.148438 C 165.695312 159.003906 167.207031 159.335938 168.667969 159.066406 C 170.144531 158.800781 171.441406 157.960938 172.292969 156.722656 C 173.144531 155.488281 173.476562 153.984375 173.207031 152.507812 C 172.941406 151.03125 172.101562 149.730469 170.867188 148.878906 C 166.039062 145.527344 163.394531 140 163.964844 134.460938 C 164.539062 128.921875 168.261719 124.054688 173.664062 121.777344 C 175.050781 121.191406 176.132812 120.09375 176.691406 118.707031 C 177.25 117.304688 177.25 115.777344 176.667969 114.390625 C 175.867188 112.492188 174.097656 111.179688 172.050781 110.964844 C 171.875 110.925781 171.683594 110.925781 171.492188 110.925781 Z M 171.492188 110.925781 " fill-opacity="1" fill-rule="nonzero"/><path fill="#ffffff" d="M 163.902344 219.257812 L 121.09375 219.257812 C 119.847656 219.257812 118.84375 218.25 118.84375 217.003906 C 118.84375 215.753906 119.847656 214.75 121.09375 214.75 L 163.902344 214.75 C 165.148438 214.75 166.152344 215.753906 166.152344 217.003906 C 166.152344 218.25 165.148438 219.257812 163.902344 219.257812 Z M 163.902344 219.257812 " fill-opacity="1" fill-rule="nonzero"/><path fill="#ffffff" d="M 254.015625 219.257812 L 211.210938 219.257812 C 209.964844 219.257812 208.960938 218.25 208.960938 217.003906 C 208.960938 215.753906 209.964844 214.75 211.210938 214.75 L 254.015625 214.75 C 255.261719 214.75 256.265625 215.753906 256.265625 217.003906 C 256.265625 218.25 255.261719 219.257812 254.015625 219.257812 Z M 254.015625 219.257812 " fill-opacity="1" fill-rule="nonzero"/><path fill="#ffffff" d="M 212.835938 124.960938 C 211.042969 124.960938 209.289062 124.488281 207.6875 123.585938 C 205.273438 122.210938 203.542969 119.96875 202.804688 117.28125 C 202.070312 114.59375 202.425781 111.777344 203.808594 109.359375 C 205.195312 106.9375 207.421875 105.207031 210.101562 104.46875 C 212.785156 103.742188 215.597656 104.085938 218.011719 105.472656 C 220.425781 106.863281 222.15625 109.089844 222.894531 111.777344 C 224.40625 117.332031 221.125 123.074219 215.597656 124.589844 C 214.679688 124.832031 213.753906 124.960938 212.835938 124.960938 Z M 215 122.414062 L 215.023438 122.414062 Z M 212.851562 108.605469 C 212.339844 108.605469 211.808594 108.671875 211.296875 108.824219 C 209.773438 109.242188 208.515625 110.226562 207.726562 111.601562 C 206.9375 112.976562 206.746094 114.566406 207.152344 116.097656 C 207.574219 117.625 208.550781 118.886719 209.925781 119.675781 C 211.285156 120.453125 212.886719 120.65625 214.414062 120.246094 C 217.554688 119.394531 219.410156 116.132812 218.558594 112.988281 C 217.832031 110.339844 215.441406 108.605469 212.851562 108.605469 Z M 212.851562 108.605469 " fill-opacity="1" fill-rule="nonzero"/><path fill="#ffffff" d="M 212.835938 124.960938 C 211.042969 124.960938 209.289062 124.488281 207.6875 123.585938 C 205.273438 122.210938 203.542969 119.96875 202.804688 117.28125 C 202.070312 114.59375 202.425781 111.777344 203.808594 109.359375 C 205.195312 106.9375 207.421875 105.207031 210.101562 104.46875 C 212.785156 103.742188 215.597656 104.085938 218.011719 105.472656 C 220.425781 106.863281 222.15625 109.089844 222.894531 111.777344 C 224.40625 117.332031 221.125 123.074219 215.597656 124.589844 C 214.679688 124.832031 213.753906 124.960938 212.835938 124.960938 Z M 215 122.414062 L 215.023438 122.414062 Z M 212.851562 108.605469 C 212.339844 108.605469 211.808594 108.671875 211.296875 108.824219 C 209.773438 109.242188 208.515625 110.226562 207.726562 111.601562 C 206.9375 112.976562 206.746094 114.566406 207.152344 116.097656 C 207.574219 117.625 208.550781 118.886719 209.925781 119.675781 C 211.285156 120.453125 212.886719 120.65625 214.414062 120.246094 C 217.554688 119.394531 219.410156 116.132812 218.558594 112.988281 C 217.832031 110.339844 215.441406 108.605469 212.851562 108.605469 Z M 212.851562 108.605469 " fill-opacity="1" fill-rule="nonzero"/><path fill="#ffffff" d="M 203.3125 110.632812 C 198.738281 110.632812 194.527344 107.574219 193.269531 102.953125 C 192.53125 100.265625 192.890625 97.449219 194.273438 95.03125 C 195.660156 92.609375 197.886719 90.878906 200.566406 90.140625 C 206.097656 88.625 211.84375 91.898438 213.359375 97.449219 C 214.871094 103.003906 211.589844 108.746094 206.058594 110.261719 C 205.132812 110.503906 204.21875 110.632812 203.3125 110.632812 Z M 205.464844 108.070312 L 205.488281 108.070312 Z M 203.300781 94.277344 C 202.792969 94.277344 202.257812 94.34375 201.75 94.496094 C 198.609375 95.347656 196.753906 98.609375 197.605469 101.753906 C 198.457031 104.902344 201.710938 106.761719 204.851562 105.90625 C 207.992188 105.054688 209.847656 101.792969 208.996094 98.636719 C 208.285156 96.011719 205.894531 94.277344 203.300781 94.277344 Z M 203.300781 94.277344 " fill-opacity="1" fill-rule="nonzero"/><path fill="#ffffff" d="M 203.3125 110.632812 C 198.738281 110.632812 194.527344 107.574219 193.269531 102.953125 C 192.53125 100.265625 192.890625 97.449219 194.273438 95.03125 C 195.660156 92.609375 197.886719 90.878906 200.566406 90.140625 C 206.097656 88.625 211.84375 91.898438 213.359375 97.449219 C 214.871094 103.003906 211.589844 108.746094 206.058594 110.261719 C 205.132812 110.503906 204.21875 110.632812 203.3125 110.632812 Z M 205.464844 108.070312 L 205.488281 108.070312 Z M 203.300781 94.277344 C 202.792969 94.277344 202.257812 94.34375 201.75 94.496094 C 198.609375 95.347656 196.753906 98.609375 197.605469 101.753906 C 198.457031 104.902344 201.710938 106.761719 204.851562 105.90625 C 207.992188 105.054688 209.847656 101.792969 208.996094 98.636719 C 208.285156 96.011719 205.894531 94.277344 203.300781 94.277344 Z M 203.300781 94.277344 " fill-opacity="1" fill-rule="nonzero"/><path fill="#ffffff" d="M 211.882812 142.152344 C 210.089844 142.152344 208.335938 141.683594 206.734375 140.777344 C 204.320312 139.390625 202.589844 137.160156 201.851562 134.472656 C 201.113281 131.785156 201.472656 128.972656 202.855469 126.550781 C 204.242188 124.132812 206.46875 122.398438 209.148438 121.660156 C 214.679688 120.160156 220.425781 123.417969 221.941406 128.972656 C 223.453125 134.523438 220.171875 140.269531 214.640625 141.785156 C 213.738281 142.039062 212.8125 142.152344 211.882812 142.152344 Z M 211.910156 125.8125 C 211.398438 125.8125 210.867188 125.878906 210.359375 126.03125 C 207.21875 126.882812 205.359375 130.144531 206.214844 133.289062 C 206.632812 134.816406 207.613281 136.078125 208.984375 136.867188 C 210.359375 137.65625 211.945312 137.863281 213.472656 137.441406 C 216.613281 136.589844 218.46875 133.328125 217.617188 130.167969 C 216.878906 127.546875 214.503906 125.8125 211.910156 125.8125 Z M 211.910156 125.8125 " fill-opacity="1" fill-rule="nonzero"/><path fill="#ffffff" d="M 211.882812 142.152344 C 210.089844 142.152344 208.335938 141.683594 206.734375 140.777344 C 204.320312 139.390625 202.589844 137.160156 201.851562 134.472656 C 201.113281 131.785156 201.472656 128.972656 202.855469 126.550781 C 204.242188 124.132812 206.46875 122.398438 209.148438 121.660156 C 214.679688 120.160156 220.425781 123.417969 221.941406 128.972656 C 223.453125 134.523438 220.171875 140.269531 214.640625 141.785156 C 213.738281 142.039062 212.8125 142.152344 211.882812 142.152344 Z M 211.910156 125.8125 C 211.398438 125.8125 210.867188 125.878906 210.359375 126.03125 C 207.21875 126.882812 205.359375 130.144531 206.214844 133.289062 C 206.632812 134.816406 207.613281 136.078125 208.984375 136.867188 C 210.359375 137.65625 211.945312 137.863281 213.472656 137.441406 C 216.613281 136.589844 218.46875 133.328125 217.617188 130.167969 C 216.878906 127.546875 214.503906 125.8125 211.910156 125.8125 Z M 211.910156 125.8125 " fill-opacity="1" fill-rule="nonzero"/><path fill="#ffffff" d="M 205.003906 158.164062 C 200.429688 158.164062 196.21875 155.105469 194.960938 150.484375 C 193.449219 144.929688 196.714844 139.1875 202.257812 137.671875 C 207.789062 136.167969 213.535156 139.429688 215.050781 144.980469 C 216.5625 150.535156 213.28125 156.277344 207.75 157.792969 C 206.824219 158.046875 205.90625 158.164062 205.003906 158.164062 Z M 207.152344 155.617188 L 207.179688 155.617188 Z M 204.992188 141.824219 C 204.484375 141.824219 203.949219 141.886719 203.441406 142.039062 C 200.300781 142.890625 198.445312 146.152344 199.296875 149.296875 C 200.148438 152.445312 203.402344 154.304688 206.542969 153.449219 C 209.683594 152.597656 211.539062 149.335938 210.6875 146.191406 C 209.976562 143.554688 207.585938 141.824219 204.992188 141.824219 Z M 204.992188 141.824219 " fill-opacity="1" fill-rule="nonzero"/><path fill="#ffffff" d="M 205.003906 158.164062 C 200.429688 158.164062 196.21875 155.105469 194.960938 150.484375 C 193.449219 144.929688 196.714844 139.1875 202.257812 137.671875 C 207.789062 136.167969 213.535156 139.429688 215.050781 144.980469 C 216.5625 150.535156 213.28125 156.277344 207.75 157.792969 C 206.824219 158.046875 205.90625 158.164062 205.003906 158.164062 Z M 207.152344 155.617188 L 207.179688 155.617188 Z M 204.992188 141.824219 C 204.484375 141.824219 203.949219 141.886719 203.441406 142.039062 C 200.300781 142.890625 198.445312 146.152344 199.296875 149.296875 C 200.148438 152.445312 203.402344 154.304688 206.542969 153.449219 C 209.683594 152.597656 211.539062 149.335938 210.6875 146.191406 C 209.976562 143.554688 207.585938 141.824219 204.992188 141.824219 Z M 204.992188 141.824219 " fill-opacity="1" fill-rule="nonzero"/><path fill="#ffffff" d="M 206.683594 174.644531 C 202.105469 174.644531 197.898438 171.585938 196.640625 166.964844 C 195.902344 164.277344 196.257812 161.460938 197.644531 159.042969 C 199.03125 156.621094 201.253906 154.890625 203.9375 154.152344 C 209.46875 152.648438 215.214844 155.910156 216.726562 161.460938 C 217.464844 164.148438 217.109375 166.964844 215.722656 169.382812 C 214.335938 171.804688 212.113281 173.535156 209.429688 174.273438 C 208.5 174.527344 207.585938 174.644531 206.683594 174.644531 Z M 208.820312 172.109375 L 208.84375 172.109375 Z M 206.671875 158.304688 C 206.164062 158.304688 205.628906 158.367188 205.121094 158.507812 C 203.59375 158.925781 202.335938 159.90625 201.546875 161.285156 C 200.757812 162.660156 200.566406 164.25 200.976562 165.777344 C 201.828125 168.925781 205.09375 170.785156 208.222656 169.929688 C 211.363281 169.078125 213.21875 165.816406 212.367188 162.671875 C 211.65625 160.035156 209.265625 158.304688 206.671875 158.304688 Z M 206.671875 158.304688 " fill-opacity="1" fill-rule="nonzero"/><path fill="#ffffff" d="M 206.683594 174.644531 C 202.105469 174.644531 197.898438 171.585938 196.640625 166.964844 C 195.902344 164.277344 196.257812 161.460938 197.644531 159.042969 C 199.03125 156.621094 201.253906 154.890625 203.9375 154.152344 C 209.46875 152.648438 215.214844 155.910156 216.726562 161.460938 C 217.464844 164.148438 217.109375 166.964844 215.722656 169.382812 C 214.335938 171.804688 212.113281 173.535156 209.429688 174.273438 C 208.5 174.527344 207.585938 174.644531 206.683594 174.644531 Z M 208.820312 172.109375 L 208.84375 172.109375 Z M 206.671875 158.304688 C 206.164062 158.304688 205.628906 158.367188 205.121094 158.507812 C 203.59375 158.925781 202.335938 159.90625 201.546875 161.285156 C 200.757812 162.660156 200.566406 164.25 200.976562 165.777344 C 201.828125 168.925781 205.09375 170.785156 208.222656 169.929688 C 211.363281 169.078125 213.21875 165.816406 212.367188 162.671875 C 211.65625 160.035156 209.265625 158.304688 206.671875 158.304688 Z M 206.671875 158.304688 " fill-opacity="1" fill-rule="nonzero"/></svg>