<svg xmlns="http://www.w3.org/2000/svg" xmlns:xlink="http://www.w3.org/1999/xlink" width="500" zoomAndPan="magnify" viewBox="0 0 375 374.999991" height="500" preserveAspectRatio="xMidYMid meet" version="1.0"><defs><clipPath id="3ed9fdc169"><path d="M 187.5 0 C 83.945312 0 0 83.945312 0 187.5 C 0 291.054688 83.945312 375 187.5 375 C 291.054688 375 375 291.054688 375 187.5 C 375 83.945312 291.054688 0 187.5 0 Z M 187.5 0 " clip-rule="nonzero"/></clipPath><clipPath id="1c349174f9"><path d="M 95.917969 61.003906 L 290.523438 61.003906 L 290.523438 323.503906 L 95.917969 323.503906 Z M 95.917969 61.003906 " clip-rule="nonzero"/></clipPath></defs><g clip-path="url(#3ed9fdc169)"><rect x="-37.5" width="450" fill="#fec743" y="-37.499999" height="449.999989" fill-opacity="1"/></g><g clip-path="url(#1c349174f9)"><path fill="#ffffff" d="M 127.507812 205.375 C 127.460938 210.199219 126.996094 214.976562 126.0625 219.707031 C 125.851562 220.964844 125.945312 222.269531 126.296875 223.503906 C 126.714844 225.019531 127.300781 226.464844 128.046875 227.816406 C 123.84375 234.808594 122 242.964844 122.792969 251.074219 C 123.261719 253.101562 124.195312 254.988281 125.5 256.597656 L 125.316406 256.597656 C 126.503906 258.089844 128.628906 258.4375 130.265625 257.4375 C 134.652344 254.734375 138.949219 251.914062 143.175781 248.976562 C 133.578125 274.519531 119.945312 298.359375 102.761719 319.589844 C 102.433594 319.960938 101.875 320.03125 101.476562 319.707031 C 101.359375 319.589844 101.265625 319.472656 101.21875 319.332031 C 98.90625 312.714844 98.976562 305.511719 101.429688 298.964844 C 105.585938 283.722656 110.113281 268.574219 115.019531 253.566406 C 119.734375 238.886719 121.578125 223.4375 120.457031 208.078125 C 122.652344 206.796875 125.035156 205.886719 127.507812 205.375 Z M 211.398438 176.476562 C 202.828125 193.582031 190.128906 208.265625 174.460938 219.242188 C 160.242188 232.476562 144.738281 244.292969 128.1875 254.523438 C 127.207031 253.359375 126.503906 251.984375 126.132812 250.492188 C 125.5 243.664062 126.949219 236.8125 130.265625 230.800781 C 133.019531 233.015625 136.824219 233.292969 139.882812 231.523438 C 150.601562 225.277344 161.082031 218.636719 171.308594 211.597656 C 186.230469 201.785156 199.703125 189.949219 211.398438 176.476562 Z M 210.253906 115.558594 C 214.292969 115.558594 218.078125 117.632812 220.199219 121.082031 C 229.121094 135.4375 227.089844 154.035156 215.273438 166.152344 C 202.386719 182.746094 186.882812 197.078125 169.324219 208.660156 C 159.167969 215.628906 148.734375 222.246094 138.085938 228.445312 L 138.015625 228.445312 C 135.726562 229.773438 132.785156 229.074219 131.363281 226.863281 C 130.519531 225.554688 129.867188 224.113281 129.46875 222.597656 C 129.285156 221.875 129.285156 221.105469 129.46875 220.382812 C 131.175781 211.457031 131.410156 202.296875 130.125 193.28125 C 126.808594 182.464844 129.726562 170.722656 137.710938 162.703125 C 148.476562 152.496094 159.097656 142.195312 169.628906 131.78125 C 180.601562 121.386719 195.125 115.582031 210.253906 115.558594 Z M 164.027344 112.273438 C 170.121094 112.226562 175.816406 115.234375 179.226562 120.265625 C 174.859375 122.761719 170.796875 125.765625 167.152344 129.238281 C 156.625 139.632812 145.976562 149.957031 135.238281 160.140625 C 126.363281 169.019531 123.074219 182.046875 126.644531 194.050781 C 126.996094 196.613281 127.230469 199.175781 127.324219 201.761719 C 124.730469 202.230469 122.234375 203.066406 119.898438 204.257812 C 119.429688 201.902344 118.589844 199.664062 117.398438 197.589844 C 116.980469 196.867188 116.769531 196.078125 116.746094 195.261719 C 116.464844 182.886719 119.058594 170.652344 124.355469 159.488281 C 133.394531 143.640625 143.757812 128.632812 155.339844 114.558594 C 158 113.089844 160.992188 112.296875 164.027344 112.273438 Z M 234 98.851562 C 249.644531 102.671875 265.496094 105.65625 281.464844 107.753906 C 271.542969 107.308594 261.597656 107.425781 251.675781 108.125 C 249.875 108.242188 248.101562 108.683594 246.445312 109.429688 C 241.703125 106.65625 237.476562 103.070312 234 98.851562 Z M 252.863281 89.132812 C 258.957031 94.867188 265.964844 99.574219 273.574219 103.046875 C 260.710938 101.109375 247.960938 98.59375 235.332031 95.519531 C 241.121094 93.234375 246.957031 91.089844 252.863281 89.132812 Z M 209.625 64.546875 C 225.992188 64.40625 241.308594 72.585938 250.296875 86.242188 C 244.15625 88.316406 238.085938 90.578125 232.085938 92.976562 C 229.796875 93.910156 228.675781 96.496094 229.609375 98.78125 C 229.75 99.175781 229.960938 99.527344 230.21875 99.851562 C 233.789062 104.46875 238.132812 108.429688 243.058594 111.550781 C 239.789062 114.230469 237.78125 118.148438 237.523438 122.363281 C 236.730469 135.066406 235.445312 147.742188 233.648438 160.351562 C 231.316406 174.589844 226.316406 188.246094 218.894531 200.621094 C 211.960938 211.851562 201.546875 220.546875 189.242188 225.371094 C 183.125 226.929688 176.820312 227.699219 170.492188 227.652344 C 172.59375 225.8125 174.648438 223.925781 176.703125 222.015625 C 196.222656 208.3125 211.117188 189.0625 219.523438 166.78125 C 231.011719 153.429688 232.503906 134.15625 223.210938 119.195312 C 220.433594 114.722656 215.53125 111.996094 210.253906 111.996094 C 200.589844 112.019531 191.039062 114.277344 182.402344 118.589844 C 177.355469 110.851562 167.972656 107.125 158.980469 109.335938 C 163.699219 101.203125 167.808594 92.746094 171.261719 84.027344 C 171.472656 83.515625 171.753906 83.050781 172.105469 82.632812 C 180.625 72.703125 192.582031 66.316406 205.585938 64.78125 C 206.9375 64.640625 208.292969 64.570312 209.648438 64.546875 Z M 210.394531 61.003906 C 208.644531 60.980469 206.914062 61.074219 205.1875 61.238281 C 191.273438 62.890625 178.5 69.695312 169.371094 80.324219 C 168.789062 81.023438 168.296875 81.839844 167.949219 82.722656 C 164.164062 92.207031 159.613281 101.390625 154.359375 110.152344 C 141.867188 125.019531 130.777344 140.984375 121.160156 157.832031 C 115.601562 169.554688 112.871094 182.375 113.171875 195.332031 C 113.21875 196.753906 113.59375 198.128906 114.292969 199.363281 C 115.414062 201.320312 116.183594 203.464844 116.558594 205.679688 C 118.054688 221.453125 116.347656 237.371094 111.492188 252.472656 C 106.589844 267.480469 102.035156 282.628906 97.902344 297.894531 C 95.265625 305.210938 95.265625 313.203125 97.902344 320.523438 C 98.722656 322.851562 101.289062 324.0625 103.625 323.25 C 104.394531 322.96875 105.09375 322.480469 105.609375 321.828125 C 124.125 298.964844 138.578125 273.097656 148.335938 245.363281 C 154.59375 240.84375 160.6875 236.089844 166.570312 231.101562 C 169.886719 231.289062 173.226562 231.265625 176.539062 231.03125 L 176.539062 239.726562 C 176.539062 244.410156 180.347656 248.230469 185.039062 248.230469 L 196.898438 248.230469 C 197.878906 248.183594 198.652344 247.347656 198.605469 246.367188 C 198.582031 245.433594 197.832031 244.6875 196.898438 244.664062 L 185.039062 244.664062 C 182.332031 244.664062 180.113281 242.476562 180.089844 239.75 C 180.089844 239.726562 180.089844 239.726562 180.089844 239.726562 L 180.089844 230.707031 C 183.566406 230.289062 187.023438 229.632812 190.410156 228.773438 C 203.53125 223.667969 214.597656 214.441406 221.976562 202.460938 C 229.65625 189.691406 234.816406 175.59375 237.222656 160.886719 C 239.042969 148.1875 240.351562 135.390625 241.144531 122.574219 L 241.074219 122.574219 C 241.449219 116.75 246.09375 112.085938 251.929688 111.667969 C 262.085938 110.96875 272.289062 110.875 282.445312 111.363281 C 285.132812 111.433594 287.746094 110.480469 289.753906 108.683594 C 290.757812 107.777344 290.828125 106.238281 289.941406 105.234375 C 289.589844 104.863281 289.148438 104.605469 288.679688 104.492188 C 275.417969 101.367188 263.300781 94.585938 253.707031 84.960938 C 244.296875 70.140625 227.976562 61.121094 210.394531 61.003906 " fill-opacity="1" fill-rule="nonzero"/></g><path fill="#ffffff" d="M 226.203125 86.546875 C 226.226562 83.9375 224.148438 81.816406 221.53125 81.769531 C 218.917969 81.746094 216.792969 83.84375 216.746094 86.453125 C 216.746094 86.476562 216.746094 86.523438 216.746094 86.546875 C 216.722656 89.15625 218.824219 91.277344 221.4375 91.324219 C 224.03125 91.347656 226.179688 89.25 226.203125 86.640625 C 226.203125 86.617188 226.203125 86.570312 226.203125 86.546875 " fill-opacity="1" fill-rule="nonzero"/></svg>