<svg xmlns="http://www.w3.org/2000/svg" xmlns:xlink="http://www.w3.org/1999/xlink" width="500" zoomAndPan="magnify" viewBox="0 0 375 374.999991" height="500" preserveAspectRatio="xMidYMid meet" version="1.0"><defs><clipPath id="3218b483d2"><path d="M 187.5 0 C 83.945312 0 0 83.945312 0 187.5 C 0 291.054688 83.945312 375 187.5 375 C 291.054688 375 375 291.054688 375 187.5 C 375 83.945312 291.054688 0 187.5 0 Z M 187.5 0 " clip-rule="nonzero"/></clipPath><clipPath id="87c99205d8"><path d="M 71 61.691406 L 313 61.691406 L 313 306.941406 L 71 306.941406 Z M 71 61.691406 " clip-rule="nonzero"/></clipPath></defs><g clip-path="url(#3218b483d2)"><rect x="-37.5" width="450" fill="#fec743" y="-37.499999" height="449.999989" fill-opacity="1"/></g><g clip-path="url(#87c99205d8)"><path fill="#ffffff" d="M 311.117188 289.792969 C 309.328125 286.164062 306.371094 283.179688 303.703125 280.179688 C 299.15625 275.070312 294.53125 270.035156 289.886719 265.015625 C 285.339844 260.09375 280.769531 255.195312 276.179688 250.3125 C 273.550781 247.515625 270.921875 244.722656 268.285156 241.9375 L 268.222656 241.871094 C 276.148438 231.175781 282.242188 219.519531 286.5 206.90625 C 290.789062 194.371094 292.863281 181.476562 292.71875 168.230469 C 292.492188 154.097656 289.242188 140.171875 283.789062 127.164062 C 280.015625 118.160156 275.390625 109.46875 269.003906 102.035156 C 260.570312 92.222656 249.9375 84.261719 238.769531 77.820312 C 227.910156 71.558594 216.074219 66.433594 203.765625 63.863281 C 197.46875 62.550781 190.988281 62.074219 184.570312 61.894531 C 178.0625 61.691406 171.574219 61.980469 165.109375 62.75 C 154.09375 64.035156 143.527344 66.945312 133.402344 71.476562 C 125.140625 75.242188 117.535156 80.046875 110.585938 85.890625 C 105.011719 90.582031 99.960938 95.78125 95.429688 101.480469 C 92.1875 105.539062 89.234375 109.796875 86.375 114.128906 C 84.101562 117.484375 82.117188 121.003906 80.414062 124.679688 C 77.9375 130.277344 76.015625 136.058594 74.648438 142.023438 C 71.542969 155.492188 70.542969 169.117188 71.644531 182.894531 C 72.6875 196.886719 76.101562 210.269531 81.890625 223.046875 C 87.78125 236.03125 95.796875 248.546875 106.347656 258.246094 C 110.007812 261.515625 113.847656 264.558594 117.863281 267.375 C 121.578125 270.074219 125.445312 272.523438 129.472656 274.722656 C 139.652344 280.144531 150.449219 283.644531 161.871094 285.234375 C 169.101562 286.257812 176.367188 286.730469 183.671875 286.648438 C 196.613281 286.523438 209.621094 284.308594 221.621094 279.363281 C 228.082031 276.625 234.195312 273.253906 239.953125 269.246094 C 244.625 266.0625 249.03125 262.546875 253.171875 258.699219 C 254.148438 259.773438 255.125 260.84375 256.101562 261.917969 C 259.066406 265.175781 262.039062 268.429688 265.019531 271.675781 C 268.761719 275.753906 272.515625 279.820312 276.28125 283.871094 C 279.839844 287.699219 283.421875 291.5 287.027344 295.28125 C 289.429688 297.789062 291.820312 300.332031 294.394531 302.667969 C 295.863281 304.03125 297.558594 304.996094 299.480469 305.5625 C 303.335938 306.683594 307.722656 305.726562 310.371094 302.589844 C 313.453125 298.9375 313.132812 293.875 311.117188 289.792969 Z M 230.5 271.816406 C 222.335938 276.480469 213.644531 279.742188 204.429688 281.605469 C 197.582031 283.007812 190.664062 283.730469 183.671875 283.769531 C 170.292969 283.859375 156.824219 282.410156 144.121094 278.039062 C 135.097656 274.933594 126.769531 270.285156 119.054688 264.699219 C 115.140625 261.945312 111.417969 258.960938 107.878906 255.742188 C 102.78125 250.894531 98.292969 245.539062 94.414062 239.671875 C 86.730469 228.234375 80.789062 215.378906 77.519531 201.976562 C 74.265625 188.644531 73.460938 174.71875 74.582031 161.0625 C 75.585938 148.804688 78.128906 136.296875 83.371094 125.105469 C 85.898438 119.707031 89.308594 114.722656 92.730469 109.851562 C 96.222656 104.835938 100.078125 100.121094 104.300781 95.703125 C 109.820312 89.925781 115.945312 84.878906 122.671875 80.5625 C 130.859375 75.355469 139.628906 71.449219 148.976562 68.847656 C 160.542969 65.609375 172.582031 64.429688 184.570312 64.773438 C 190.832031 64.949219 197.140625 65.394531 203.277344 66.699219 C 209.097656 67.972656 214.765625 69.734375 220.28125 71.984375 C 232.347656 76.808594 243.464844 83.269531 253.632812 91.359375 C 262.097656 98.128906 269.546875 106 274.902344 115.46875 C 280.660156 125.632812 284.832031 136.410156 287.40625 147.804688 C 288.859375 154.382812 289.664062 161.039062 289.824219 167.773438 C 289.980469 174.507812 289.492188 181.191406 288.351562 187.832031 C 287.246094 194.214844 285.644531 200.472656 283.546875 206.605469 C 281.453125 212.734375 278.890625 218.664062 275.859375 224.390625 C 272.824219 230.117188 269.363281 235.570312 265.46875 240.746094 C 261.574219 245.925781 257.300781 250.769531 252.640625 255.269531 C 245.921875 261.671875 238.539062 267.1875 230.5 271.820312 Z M 307.992188 300.9375 C 306.828125 302.175781 305.402344 302.898438 303.714844 303.101562 C 302.011719 303.28125 300.386719 303 298.839844 302.265625 C 298.28125 301.980469 297.738281 301.664062 297.21875 301.316406 C 297.167969 301.277344 297.121094 301.238281 297.074219 301.199219 C 294.8125 299.203125 292.664062 297.09375 290.625 294.871094 C 287.199219 291.332031 283.824219 287.742188 280.460938 284.140625 C 276.703125 280.117188 272.964844 276.078125 269.238281 272.019531 C 266.066406 268.570312 262.902344 265.117188 259.746094 261.652344 C 258.25 260.011719 256.753906 258.363281 255.257812 256.714844 C 259.277344 252.796875 263.011719 248.621094 266.457031 244.1875 C 268.066406 245.886719 269.675781 247.59375 271.28125 249.296875 C 275.472656 253.75 279.648438 258.210938 283.808594 262.683594 C 288.550781 267.78125 293.261719 272.910156 297.945312 278.0625 C 299.972656 280.308594 301.988281 282.566406 303.988281 284.839844 C 306.761719 288.003906 309.789062 291.609375 309.8125 296.007812 C 309.84375 296.917969 309.699219 297.796875 309.386719 298.652344 C 309.070312 299.507812 308.605469 300.269531 307.992188 300.941406 Z M 307.992188 300.9375 " fill-opacity="1" fill-rule="nonzero"/></g><path fill="#ffffff" d="M 274.0625 203.015625 C 277.839844 191.976562 279.664062 180.625 279.539062 168.957031 C 279.339844 156.515625 276.480469 144.253906 271.679688 132.796875 C 268.351562 124.847656 264.273438 117.1875 258.632812 110.625 C 251.207031 101.984375 241.84375 94.972656 232.011719 89.300781 C 222.449219 83.789062 212.019531 79.273438 201.1875 77.007812 C 195.632812 75.847656 189.921875 75.429688 184.257812 75.269531 C 178.535156 75.09375 172.832031 75.34375 167.148438 76.023438 C 157.429688 77.15625 148.105469 79.722656 139.175781 83.71875 C 131.898438 87.039062 125.199219 91.273438 119.074219 96.425781 C 114.175781 100.550781 109.734375 105.121094 105.75 110.132812 C 102.886719 113.714844 100.285156 117.46875 97.757812 121.289062 C 95.761719 124.242188 94.011719 127.335938 92.519531 130.570312 C 90.332031 135.503906 88.632812 140.601562 87.429688 145.863281 C 84.695312 157.722656 83.8125 169.722656 84.78125 181.855469 C 85.699219 194.1875 88.710938 205.984375 93.816406 217.25 C 99.003906 228.679688 106.0625 239.699219 115.351562 248.238281 C 118.578125 251.121094 121.96875 253.804688 125.515625 256.289062 C 128.777344 258.664062 132.183594 260.820312 135.726562 262.753906 C 144.6875 267.527344 154.199219 270.613281 164.253906 272.011719 C 170.628906 272.914062 177.035156 273.332031 183.472656 273.261719 C 194.871094 273.152344 206.328125 271.199219 216.894531 266.847656 C 222.589844 264.4375 227.976562 261.46875 233.054688 257.9375 C 242.691406 251.3125 250.976562 243.292969 257.917969 233.882812 C 264.921875 224.445312 270.304688 214.15625 274.0625 203.015625 Z M 243.996094 245.375 C 238.097656 250.992188 231.621094 255.835938 224.5625 259.902344 C 217.394531 263.996094 209.765625 266.859375 201.675781 268.492188 C 195.667969 269.722656 189.601562 270.355469 183.46875 270.390625 C 171.714844 270.46875 159.890625 269.195312 148.734375 265.355469 C 140.8125 262.628906 133.5 258.546875 126.730469 253.644531 C 123.300781 251.230469 120.039062 248.613281 116.9375 245.792969 C 112.464844 241.542969 108.527344 236.84375 105.125 231.695312 C 98.226562 221.53125 93.28125 210.496094 90.285156 198.585938 C 87.429688 186.878906 86.722656 174.648438 87.707031 162.65625 C 88.589844 151.90625 90.820312 140.933594 95.414062 131.121094 C 97.636719 126.371094 100.632812 121.992188 103.644531 117.707031 C 106.703125 113.304688 110.085938 109.171875 113.792969 105.300781 C 118.636719 100.226562 124.011719 95.796875 129.914062 92.011719 C 137.101562 87.441406 144.796875 84.011719 153.003906 81.726562 C 163.160156 78.882812 173.730469 77.847656 184.257812 78.144531 C 189.75 78.300781 195.28125 78.691406 200.660156 79.832031 C 205.78125 80.953125 210.765625 82.503906 215.617188 84.484375 C 226.199219 88.71875 235.949219 94.382812 244.867188 101.480469 C 252.304688 107.421875 258.847656 114.332031 263.546875 122.644531 C 268.605469 131.570312 272.261719 141.035156 274.527344 151.039062 C 275.796875 156.808594 276.503906 162.644531 276.644531 168.550781 C 276.78125 174.457031 276.351562 180.324219 275.355469 186.144531 C 274.382812 191.753906 272.976562 197.25 271.140625 202.632812 C 269.300781 208.019531 267.046875 213.226562 264.386719 218.253906 C 261.722656 223.285156 258.683594 228.070312 255.261719 232.621094 C 251.84375 237.167969 248.085938 241.417969 243.996094 245.375 Z M 243.996094 245.375 " fill-opacity="1" fill-rule="nonzero"/><path fill="#ffffff" d="M 182.578125 222.484375 C 180.421875 222.269531 178.261719 222.191406 176.09375 222.25 C 175.246094 222.25 174.390625 222.28125 173.542969 222.21875 C 171.671875 222.078125 169.90625 221.152344 168.226562 220.398438 C 167.699219 220.160156 166.890625 220.09375 166.480469 220.621094 C 165.515625 221.867188 164.546875 223.113281 163.585938 224.359375 C 162.710938 225.410156 162.035156 226.578125 161.566406 227.863281 C 161.191406 229.027344 161.152344 230.539062 161.855469 231.59375 C 162.367188 232.25 163.011719 232.730469 163.789062 233.039062 C 165.441406 233.816406 167.167969 234.378906 168.964844 234.71875 C 170.511719 235.007812 172.105469 234.886719 173.671875 234.867188 C 175.429688 234.917969 177.1875 234.851562 178.9375 234.664062 C 180.023438 234.496094 180.964844 234.035156 181.765625 233.28125 C 182.441406 232.644531 183.078125 231.964844 183.671875 231.246094 C 184.972656 229.699219 186.683594 227.671875 186.75 225.53125 C 186.820312 223.179688 184.410156 222.710938 182.578125 222.484375 Z M 183.878906 225.484375 L 183.878906 225.488281 Z M 183.875 225.507812 C 183.863281 225.550781 183.855469 225.589844 183.84375 225.628906 C 183.847656 225.605469 183.859375 225.5625 183.875 225.503906 Z M 183.871094 225.457031 C 183.816406 225.28125 183.851562 225.332031 183.871094 225.457031 Z M 164.160156 229.902344 C 164.183594 229.933594 164.207031 229.960938 164.238281 229.988281 C 164.226562 229.980469 164.214844 229.972656 164.203125 229.964844 C 164.1875 229.945312 164.171875 229.925781 164.160156 229.902344 Z M 164.277344 230.046875 C 164.277344 230.039062 164.277344 230.035156 164.273438 230.03125 C 164.25 230.015625 164.230469 229.996094 164.210938 229.972656 C 164.230469 229.988281 164.246094 230 164.257812 230.011719 L 164.269531 230.019531 C 164.289062 230.039062 164.296875 230.046875 164.289062 230.046875 C 164.3125 230.066406 164.316406 230.074219 164.277344 230.046875 Z M 165.628906 230.730469 Z M 183.675781 226.175781 C 183.804688 225.800781 183.640625 226.25 183.601562 226.328125 C 183.40625 226.722656 183.183594 227.105469 182.941406 227.472656 C 182.800781 227.691406 182.652344 227.902344 182.503906 228.113281 C 182.4375 228.203125 182.375 228.289062 182.308594 228.378906 L 182.144531 228.59375 C 181.511719 229.394531 180.839844 230.15625 180.117188 230.878906 C 179.898438 231.097656 179.660156 231.296875 179.4375 231.511719 C 179.421875 231.523438 179.40625 231.535156 179.390625 231.542969 C 179.070312 231.683594 178.742188 231.785156 178.398438 231.847656 C 178.285156 231.859375 178.050781 231.886719 177.960938 231.890625 C 177.65625 231.90625 177.347656 231.917969 177.042969 231.925781 C 176.242188 231.953125 175.441406 231.964844 174.644531 231.976562 C 173.191406 232 171.707031 232.09375 170.253906 232.019531 C 170.136719 232.011719 169.757812 231.933594 170.183594 232.019531 C 170.054688 231.996094 169.917969 231.980469 169.785156 231.953125 C 169.429688 231.890625 169.078125 231.8125 168.730469 231.722656 C 167.917969 231.523438 167.113281 231.277344 166.324219 230.996094 C 166.148438 230.933594 165.976562 230.867188 165.804688 230.800781 C 165.726562 230.769531 165.652344 230.738281 165.578125 230.710938 L 165.527344 230.691406 C 165.1875 230.542969 164.855469 230.375 164.535156 230.1875 C 164.441406 230.132812 164.355469 230.070312 164.265625 230.011719 C 164.199219 229.800781 164.171875 229.585938 164.183594 229.367188 C 164.253906 228.199219 165.128906 227.058594 165.820312 226.140625 C 166.515625 225.222656 167.222656 224.316406 167.929688 223.410156 C 169.132812 223.988281 170.375 224.453125 171.660156 224.800781 C 172.628906 225.023438 173.613281 225.132812 174.605469 225.128906 C 176.550781 225.140625 178.496094 225.101562 180.441406 225.191406 C 180.914062 225.214844 181.386719 225.242188 181.859375 225.285156 C 182.066406 225.304688 182.273438 225.328125 182.480469 225.351562 C 182.390625 225.34375 182.867188 225.40625 182.957031 225.425781 C 183.257812 225.480469 183.550781 225.554688 183.84375 225.640625 C 183.824219 225.726562 183.804688 225.808594 183.777344 225.890625 C 183.746094 225.984375 183.710938 226.074219 183.675781 226.171875 Z M 183.84375 225.644531 L 183.855469 225.644531 C 183.847656 225.664062 183.839844 225.664062 183.84375 225.640625 Z M 184.035156 225.730469 C 184.011719 225.714844 183.976562 225.695312 183.933594 225.667969 L 183.945312 225.671875 C 183.957031 225.675781 183.96875 225.679688 183.976562 225.683594 C 183.996094 225.691406 184.011719 225.703125 184.03125 225.710938 L 184.03125 225.707031 L 184.035156 225.710938 L 184.039062 225.71875 C 184.050781 225.722656 184.058594 225.726562 184.070312 225.734375 L 184.09375 225.75 C 184.09375 225.753906 184.078125 225.75 184.046875 225.734375 C 184.054688 225.75 184.050781 225.753906 184.035156 225.726562 Z M 184.035156 225.730469 " fill-opacity="1" fill-rule="nonzero"/><path fill="#ffffff" d="M 271.542969 166.78125 C 271.539062 166.589844 271.5 166.410156 271.425781 166.234375 C 271.351562 166.058594 271.246094 165.90625 271.113281 165.769531 C 270.980469 165.636719 270.824219 165.53125 270.652344 165.457031 C 270.476562 165.382812 270.292969 165.34375 270.105469 165.34375 L 222.976562 165.34375 C 218.628906 163.144531 214.308594 159.75 209.214844 159.890625 C 207.769531 159.929688 206.351562 160.269531 204.910156 160.351562 C 203.507812 160.394531 202.148438 160.167969 200.835938 159.664062 C 198.507812 158.828125 196.242188 157.855469 194.03125 156.75 C 190.667969 155.140625 187.207031 153.433594 183.5625 152.554688 C 183.652344 147.175781 183.8125 141.738281 185.109375 136.496094 C 185.730469 133.867188 186.703125 131.378906 188.03125 129.027344 C 188.230469 129.148438 188.449219 129.199219 188.683594 129.175781 C 193.902344 128.496094 199.132812 126.910156 203.445312 123.804688 C 205.640625 122.246094 207.496094 120.359375 209.011719 118.136719 C 210.542969 115.777344 211.683594 113.242188 212.433594 110.53125 C 213.265625 107.460938 213.902344 104.347656 214.339844 101.195312 C 214.5 100.1875 213.714844 99.058594 212.570312 99.425781 L 211.898438 99.640625 L 203.101562 102.46875 C 200.417969 103.332031 197.667969 104.097656 195.066406 105.199219 C 192.636719 106.226562 190.445312 107.699219 189.003906 109.957031 C 187.453125 112.390625 186.824219 115.363281 186.511719 118.191406 C 186.234375 120.703125 186.320312 123.203125 186.761719 125.691406 C 186.566406 125.96875 186.375 126.246094 186.1875 126.53125 C 182.957031 131.527344 181.675781 137.457031 181.121094 143.300781 C 181.105469 143.441406 181.101562 143.578125 181.089844 143.714844 C 179.984375 140.867188 178.65625 138.128906 177.101562 135.503906 C 179.78125 127.742188 178.894531 119.0625 175.433594 111.691406 C 171.910156 104.171875 165.480469 98.265625 158.070312 94.660156 C 153.863281 92.613281 149.445312 91.265625 144.8125 90.621094 C 143.707031 90.46875 142.8125 91.226562 143.046875 92.390625 C 143.070312 92.523438 143.097656 92.65625 143.125 92.789062 C 144.945312 102.441406 142.710938 112.527344 145.945312 121.972656 C 146.613281 124.046875 147.582031 125.96875 148.855469 127.738281 C 150.445312 129.773438 152.296875 131.535156 154.40625 133.027344 C 157.839844 135.558594 161.671875 137.085938 165.902344 137.613281 C 168.921875 137.988281 171.894531 137.667969 174.898438 137.34375 C 176.105469 139.40625 177.164062 141.542969 178.074219 143.757812 C 179.171875 146.429688 179.976562 149.1875 180.488281 152.035156 C 180.15625 152.003906 179.824219 151.980469 179.492188 151.96875 C 174.695312 151.785156 169.894531 153.734375 165.765625 156.003906 C 161.292969 158.402344 157.339844 161.472656 153.90625 165.210938 C 153.871094 165.253906 153.839844 165.296875 153.808594 165.34375 L 101.09375 165.34375 C 98.8125 165.34375 96.523438 165.300781 94.242188 165.34375 C 94.140625 165.34375 94.042969 165.34375 93.941406 165.34375 C 93.753906 165.347656 93.570312 165.386719 93.398438 165.460938 C 93.222656 165.535156 93.066406 165.640625 92.933594 165.773438 C 92.800781 165.90625 92.695312 166.0625 92.621094 166.238281 C 92.546875 166.410156 92.507812 166.59375 92.503906 166.78125 C 91.898438 176.5 92.605469 186.125 94.617188 195.652344 C 96.503906 204.085938 99.476562 212.113281 103.539062 219.738281 C 107.34375 227.167969 112.101562 233.929688 117.804688 240.023438 C 121.953125 244.363281 126.804688 248.066406 131.734375 251.476562 C 136.070312 254.46875 140.65625 257.003906 145.5 259.082031 C 150.339844 261.15625 155.339844 262.734375 160.496094 263.8125 C 160.582031 263.847656 160.667969 263.875 160.757812 263.890625 C 161.8125 264.105469 162.867188 264.296875 163.929688 264.472656 L 164.109375 264.503906 C 165.683594 264.761719 167.257812 264.980469 168.84375 265.164062 C 169.183594 265.203125 169.523438 265.242188 169.867188 265.28125 L 170.117188 265.308594 C 184.644531 266.859375 199.710938 265.746094 213.332031 260.308594 C 213.507812 260.242188 213.675781 260.164062 213.851562 260.09375 C 214.625 259.78125 215.398438 259.457031 216.164062 259.117188 C 217.667969 258.445312 219.144531 257.71875 220.597656 256.9375 C 220.921875 256.765625 221.246094 256.589844 221.570312 256.410156 C 221.617188 256.386719 221.660156 256.363281 221.703125 256.339844 C 228.800781 252.394531 235.261719 247.585938 241.085938 241.925781 C 242.664062 240.398438 244.191406 238.824219 245.660156 237.191406 C 252.433594 229.664062 257.972656 221.320312 262.273438 212.152344 C 266.566406 203.070312 269.410156 193.550781 270.808594 183.601562 C 271.582031 178.019531 271.828125 172.410156 271.542969 166.78125 Z M 189.285156 119.308594 C 189.453125 116.851562 189.933594 114.203125 191.128906 112.023438 C 192.226562 110.015625 194.027344 108.769531 196.089844 107.871094 C 198.371094 106.875 200.824219 106.226562 203.191406 105.464844 L 211.171875 102.898438 C 210.445312 107.257812 209.507812 111.667969 207.277344 115.503906 C 204.878906 119.625 200.953125 122.5625 196.554688 124.289062 C 194.453125 125.105469 192.289062 125.707031 190.066406 126.089844 C 191.058594 124.859375 192.140625 123.714844 193.308594 122.652344 C 195.714844 120.539062 198.261719 118.609375 200.945312 116.863281 C 201.105469 116.765625 201.242188 116.636719 201.355469 116.484375 C 201.46875 116.335938 201.550781 116.167969 201.597656 115.984375 C 201.644531 115.800781 201.65625 115.613281 201.632812 115.425781 C 201.609375 115.238281 201.554688 115.0625 201.460938 114.894531 C 201.363281 114.734375 201.238281 114.59375 201.085938 114.480469 C 200.933594 114.363281 200.765625 114.285156 200.582031 114.234375 C 200.398438 114.1875 200.214844 114.175781 200.023438 114.199219 C 199.835938 114.226562 199.660156 114.285156 199.492188 114.378906 C 195.882812 116.824219 192.265625 119.417969 189.285156 122.605469 C 189.210938 121.507812 189.210938 120.40625 189.285156 119.308594 Z M 167.425781 134.875 C 167.035156 134.851562 166.644531 134.816406 166.253906 134.773438 C 166.132812 134.761719 166.019531 134.746094 165.898438 134.734375 C 165.964844 134.742188 166.152344 134.769531 165.855469 134.726562 C 165.617188 134.691406 165.378906 134.652344 165.136719 134.609375 C 164.285156 134.460938 163.445312 134.261719 162.617188 134.007812 C 160.734375 133.433594 158.96875 132.613281 157.316406 131.539062 C 155.285156 130.25 153.464844 128.707031 151.859375 126.914062 C 150.628906 125.457031 149.679688 123.832031 149.019531 122.042969 C 147.574219 118.257812 147.054688 114.394531 146.910156 110.417969 C 146.710938 104.855469 146.976562 99.269531 146.175781 93.75 C 153.03125 95.042969 159.625 97.960938 164.894531 102.566406 C 170.75 107.675781 174.753906 114.792969 175.613281 122.546875 C 175.992188 125.808594 175.808594 129.039062 175.058594 132.238281 C 172.3125 128.160156 169.324219 124.265625 166.101562 120.550781 C 163.824219 117.867188 161.484375 115.234375 159.167969 112.585938 C 159.03125 112.453125 158.878906 112.351562 158.703125 112.277344 C 158.527344 112.207031 158.34375 112.171875 158.152344 112.171875 C 157.964844 112.171875 157.78125 112.210938 157.605469 112.28125 C 157.429688 112.355469 157.277344 112.460938 157.140625 112.59375 C 157.007812 112.726562 156.90625 112.882812 156.832031 113.058594 C 156.757812 113.234375 156.722656 113.414062 156.722656 113.605469 C 156.71875 113.792969 156.753906 113.976562 156.828125 114.152344 C 156.898438 114.328125 157 114.484375 157.132812 114.621094 C 161.140625 119.203125 165.234375 123.726562 168.9375 128.570312 C 170.441406 130.53125 171.890625 132.554688 173.238281 134.644531 C 171.308594 134.878906 169.371094 134.957031 167.429688 134.875 Z M 165.722656 159.34375 C 167.675781 158.148438 169.726562 157.136719 171.867188 156.316406 C 173.855469 155.523438 175.917969 155.035156 178.050781 154.851562 C 182.828125 154.585938 187.351562 156.738281 191.5625 158.742188 C 193.867188 159.839844 196.164062 160.960938 198.546875 161.882812 C 199.78125 162.398438 201.050781 162.792969 202.363281 163.0625 C 203.878906 163.285156 205.394531 163.265625 206.90625 163.003906 C 208.203125 162.757812 209.5 162.710938 210.808594 162.863281 C 212.066406 163.09375 213.277344 163.484375 214.433594 164.027344 C 215.308594 164.429688 216.160156 164.875 217 165.339844 L 157.785156 165.339844 C 160.203125 163.042969 162.851562 161.042969 165.722656 159.34375 Z M 98.683594 168.21875 L 156.875 168.21875 C 158.757812 171.011719 160.246094 174.148438 160.175781 177.585938 C 160.15625 178.617188 159.972656 179.640625 159.984375 180.671875 C 160 181.664062 160.210938 182.613281 160.617188 183.519531 C 161.214844 184.882812 162.214844 186 163.082031 187.191406 C 163.292969 187.488281 163.5 187.785156 163.691406 188.097656 C 163.78125 188.25 163.871094 188.402344 163.953125 188.558594 C 164.042969 188.734375 164.117188 188.894531 164.117188 188.894531 C 164.226562 189.179688 164.308594 189.472656 164.355469 189.769531 C 164.351562 189.789062 164.367188 190.066406 164.367188 190.117188 C 164.367188 190.195312 164.363281 190.273438 164.359375 190.355469 L 164.347656 190.449219 C 164.347656 190.4375 164.34375 190.457031 164.335938 190.515625 C 164.214844 191.089844 163.960938 191.589844 163.566406 192.023438 C 163.097656 192.542969 162.566406 192.984375 161.964844 193.351562 C 160.402344 194.257812 158.777344 195.046875 157.097656 195.71875 L 151.046875 198.40625 C 145.507812 200.871094 136.445312 204.191406 137.71875 211.886719 C 138.210938 214.871094 140.414062 217.15625 142.015625 219.59375 C 142.410156 220.183594 142.757812 220.800781 143.058594 221.441406 C 143.09375 221.515625 143.101562 221.539062 143.105469 221.542969 C 143.109375 221.542969 143.113281 221.566406 143.144531 221.644531 C 143.203125 221.804688 143.257812 221.96875 143.308594 222.132812 C 143.359375 222.296875 143.40625 222.460938 143.441406 222.628906 C 143.457031 222.695312 143.503906 222.988281 143.511719 223.015625 C 143.675781 224.542969 143.078125 225.9375 142.433594 227.328125 C 141.65625 229.003906 140.867188 230.683594 140.777344 232.558594 C 140.75 234.140625 141.117188 235.621094 141.878906 237.003906 C 143.230469 239.625 145.476562 241.664062 146.792969 244.3125 C 146.871094 244.46875 146.941406 244.632812 147.011719 244.808594 C 146.960938 244.808594 146.910156 244.808594 146.859375 244.804688 C 146.324219 244.722656 145.824219 244.550781 145.351562 244.292969 C 144.226562 243.640625 143.203125 242.855469 142.28125 241.9375 C 140.21875 240.039062 138.167969 238.132812 136.1875 236.148438 C 132.308594 232.265625 128.679688 228.074219 126.066406 223.21875 C 124.773438 220.753906 123.757812 218.179688 123.019531 215.496094 C 122.214844 212.695312 121.546875 209.851562 120.492188 207.128906 C 119.519531 204.550781 118.148438 202.207031 116.375 200.097656 C 114.707031 198.207031 112.84375 196.535156 110.777344 195.089844 C 106.210938 191.78125 101.058594 189.410156 96.023438 186.917969 C 95.484375 182.636719 95.203125 178.335938 95.183594 174.019531 C 95.171875 172.085938 95.214844 170.152344 95.304688 168.21875 Z M 140.488281 209.949219 C 140.488281 209.960938 140.484375 209.964844 140.488281 209.949219 Z M 215.8125 256.128906 C 215.730469 256.167969 215.652344 256.203125 215.574219 256.238281 C 215.105469 256.457031 214.632812 256.664062 214.15625 256.871094 C 213.648438 257.09375 213.132812 257.308594 212.617188 257.515625 C 212.300781 257.640625 211.984375 257.769531 211.667969 257.890625 C 209.976562 258.535156 208.265625 259.121094 206.535156 259.640625 C 205.988281 259.804688 205.441406 259.960938 204.890625 260.113281 L 204.652344 260.179688 C 204.226562 260.292969 203.800781 260.402344 203.378906 260.511719 C 203.207031 260.554688 203.042969 260.597656 202.871094 260.636719 C 202.546875 260.71875 202.222656 260.792969 201.898438 260.867188 C 201.371094 260.988281 200.84375 261.105469 200.316406 261.214844 L 200.058594 261.269531 C 199.640625 261.355469 199.222656 261.4375 198.804688 261.515625 L 198.742188 261.527344 C 196.992188 261.855469 195.226562 262.128906 193.453125 262.34375 C 193.351562 262.355469 193.25 262.367188 193.148438 262.378906 C 192.769531 262.421875 192.390625 262.464844 192.011719 262.507812 C 191.683594 262.539062 191.359375 262.574219 191.035156 262.601562 C 190.757812 262.628906 190.484375 262.65625 190.207031 262.675781 C 189.75 262.714844 189.289062 262.753906 188.832031 262.785156 L 188.597656 262.800781 C 185.015625 263.035156 181.429688 263.085938 177.84375 262.957031 C 175.9375 262.890625 174.035156 262.777344 172.132812 262.613281 C 171.742188 262.582031 171.355469 262.546875 170.96875 262.507812 C 170.644531 262.472656 170.320312 262.441406 169.996094 262.410156 C 169.058594 262.308594 168.125 262.191406 167.199219 262.0625 C 169.191406 261.367188 171.140625 260.570312 173.046875 259.671875 C 176.710938 257.917969 180.410156 255.5 184.59375 255.351562 C 186.9375 255.269531 189.257812 255.808594 191.605469 255.71875 C 193.808594 255.597656 195.835938 254.933594 197.679688 253.722656 C 199.1875 252.796875 200.691406 251.621094 202.34375 251.117188 C 204.214844 250.546875 206.089844 251.085938 207.835938 251.855469 C 210.175781 252.890625 212.425781 254.039062 214.917969 254.675781 C 215.828125 254.90625 216.746094 255.085938 217.675781 255.214844 C 217.058594 255.527344 216.441406 255.835938 215.8125 256.128906 Z M 224.226562 251.441406 C 223.589844 251.84375 222.953125 252.234375 222.3125 252.621094 C 221.304688 252.558594 220.289062 252.609375 219.28125 252.523438 C 218.207031 252.429688 217.148438 252.257812 216.101562 252.007812 C 213.972656 251.4375 211.921875 250.660156 209.949219 249.675781 C 207.929688 248.738281 205.75 247.832031 203.472656 248.003906 C 201.417969 248.15625 199.617188 249.078125 197.910156 250.164062 C 196.324219 251.171875 194.792969 252.289062 192.960938 252.683594 C 190.738281 253.164062 188.386719 252.625 186.152344 252.5 C 183.878906 252.382812 181.667969 252.710938 179.523438 253.488281 C 177.441406 254.285156 175.417969 255.210938 173.449219 256.265625 C 169.484375 258.203125 165.382812 259.78125 161.140625 261 C 152.277344 259.179688 144.011719 255.875 136.339844 251.082031 C 132.046875 248.378906 127.972656 245.378906 124.125 242.074219 C 118.074219 236.851562 113.128906 230.433594 109.015625 223.609375 C 104.785156 216.65625 101.476562 209.285156 99.09375 201.5 C 97.996094 197.84375 97.144531 194.132812 96.53125 190.367188 C 100.449219 192.289062 104.371094 194.21875 108 196.652344 C 112.15625 199.433594 115.714844 202.890625 117.605469 207.609375 C 118.699219 210.347656 119.382812 213.226562 120.191406 216.0625 C 120.976562 218.925781 122.042969 221.683594 123.398438 224.324219 C 126.070312 229.40625 129.847656 233.84375 133.871094 237.898438 C 136.125 240.171875 138.46875 242.359375 140.832031 244.511719 C 143.113281 246.585938 146.449219 248.820312 149.53125 247.003906 C 149.804688 246.832031 150.003906 246.597656 150.128906 246.300781 C 150.25 246 150.269531 245.691406 150.191406 245.378906 C 149.539062 242.335938 147.382812 240.03125 145.632812 237.578125 C 145.207031 236.992188 144.820312 236.386719 144.472656 235.753906 C 144.15625 235.214844 143.929688 234.644531 143.792969 234.035156 C 143.753906 233.886719 143.722656 233.734375 143.695312 233.585938 C 143.691406 233.542969 143.667969 233.367188 143.664062 233.324219 C 143.636719 232.953125 143.640625 232.582031 143.679688 232.210938 C 143.808594 231.464844 144.027344 230.742188 144.335938 230.050781 C 145.039062 228.394531 145.984375 226.796875 146.285156 225.003906 C 146.558594 223.308594 146.332031 221.683594 145.605469 220.128906 C 144.429688 217.476562 142.242188 215.441406 141 212.824219 L 140.949219 212.722656 C 140.925781 212.664062 140.90625 212.609375 140.882812 212.550781 C 140.824219 212.390625 140.765625 212.226562 140.714844 212.0625 C 140.621094 211.742188 140.542969 211.421875 140.492188 211.09375 C 140.46875 210.796875 140.464844 210.5 140.476562 210.199219 C 140.480469 210.097656 140.488281 209.996094 140.5 209.894531 L 140.5 209.878906 C 140.535156 209.675781 140.578125 209.476562 140.636719 209.277344 C 140.703125 209.027344 140.789062 208.785156 140.890625 208.546875 C 141.0625 208.203125 141.257812 207.871094 141.472656 207.550781 C 141.878906 207.003906 142.335938 206.507812 142.847656 206.058594 C 145.347656 203.820312 148.855469 202.515625 151.960938 201.132812 L 158.015625 198.441406 C 159.742188 197.746094 161.425781 196.949219 163.0625 196.054688 C 164.445312 195.234375 165.828125 194.148438 166.582031 192.695312 C 166.980469 191.925781 167.195312 191.109375 167.222656 190.242188 C 167.25 189.378906 167.089844 188.546875 166.738281 187.753906 C 166.148438 186.359375 165.152344 185.234375 164.269531 184.019531 C 163.269531 182.648438 162.78125 181.640625 162.890625 179.894531 C 162.996094 178.859375 163.050781 177.820312 163.046875 176.777344 C 163.003906 175.78125 162.867188 174.800781 162.640625 173.832031 C 162.167969 171.941406 161.433594 170.15625 160.441406 168.480469 C 160.390625 168.390625 160.332031 168.304688 160.28125 168.21875 L 206.65625 168.21875 C 207.308594 169.289062 208.382812 170.089844 209.300781 170.929688 C 210.347656 171.890625 211.441406 172.9375 212 174.1875 C 212.261719 174.773438 212.367188 175.382812 212.308594 176.023438 C 212.203125 176.796875 212.027344 177.554688 211.785156 178.296875 C 211.339844 180.015625 211.207031 181.828125 212.191406 183.394531 C 213.171875 184.816406 214.480469 185.804688 216.113281 186.355469 C 217.765625 186.992188 219.574219 187.148438 221.195312 187.863281 C 223.597656 188.917969 225.09375 190.921875 226.234375 193.289062 C 227.394531 195.703125 228.105469 198.566406 228.695312 201.277344 C 228.933594 202.164062 229.03125 203.066406 228.988281 203.984375 C 228.886719 204.714844 228.617188 205.371094 228.175781 205.960938 C 227.285156 207.277344 226.050781 208.347656 225.089844 209.621094 C 223.136719 212.203125 222.03125 215.9375 224.003906 218.847656 C 224.496094 219.554688 225.113281 220.128906 225.855469 220.5625 C 226.597656 220.996094 227.398438 221.253906 228.257812 221.335938 C 229.796875 221.539062 231.523438 221.269531 232.957031 221.488281 C 235.507812 221.878906 237.378906 223.691406 238.734375 225.855469 C 240.371094 228.480469 241.105469 231.308594 241.988281 234.285156 C 242.183594 234.941406 242.394531 235.59375 242.613281 236.242188 C 237.144531 242.109375 231.015625 247.175781 224.226562 251.441406 Z M 265.441406 195.40625 C 262.796875 204.875 258.835938 213.753906 253.5625 222.046875 C 250.945312 226.171875 248.039062 230.082031 244.839844 233.773438 C 244.105469 231.34375 243.460938 228.890625 242.386719 226.574219 C 241.183594 223.992188 239.449219 221.511719 236.996094 219.980469 C 235.679688 219.167969 234.253906 218.703125 232.710938 218.585938 C 231.1875 218.449219 229.5625 218.765625 228.09375 218.402344 C 227.476562 218.277344 226.964844 217.972656 226.558594 217.492188 C 226.222656 217.039062 226.003906 216.539062 225.90625 215.980469 C 225.796875 215.378906 225.816406 214.78125 225.957031 214.1875 C 226.144531 213.453125 226.441406 212.765625 226.847656 212.125 C 227.667969 210.78125 228.816406 209.726562 229.808594 208.53125 C 230.996094 207.089844 231.84375 205.523438 231.875 203.613281 C 231.90625 201.859375 231.390625 200.074219 230.96875 198.378906 C 230.632812 196.992188 230.226562 195.625 229.742188 194.28125 C 228.757812 191.597656 227.382812 188.90625 225.167969 187.027344 C 223.953125 185.996094 222.582031 185.242188 221.054688 184.765625 C 219.507812 184.277344 217.730469 184.058594 216.34375 183.328125 C 215.183594 182.71875 214.261719 181.886719 214.296875 180.53125 C 214.335938 178.859375 215.214844 177.320312 215.195312 175.625 C 215.160156 172.457031 212.789062 170.191406 210.578125 168.21875 L 262.953125 168.21875 C 264.871094 168.21875 266.804688 168.285156 268.730469 168.246094 C 269.03125 177.46875 267.933594 186.523438 265.441406 195.40625 Z M 265.441406 195.40625 " fill-opacity="1" fill-rule="nonzero"/></svg>