<svg xmlns="http://www.w3.org/2000/svg" xmlns:xlink="http://www.w3.org/1999/xlink" width="500" zoomAndPan="magnify" viewBox="0 0 375 374.999991" height="500" preserveAspectRatio="xMidYMid meet" version="1.0"><defs><clipPath id="32be74a044"><path d="M 187.5 0 C 83.945312 0 0 83.945312 0 187.5 C 0 291.054688 83.945312 375 187.5 375 C 291.054688 375 375 291.054688 375 187.5 C 375 83.945312 291.054688 0 187.5 0 Z M 187.5 0 " clip-rule="nonzero"/></clipPath><clipPath id="34dfb86249"><path d="M 57.242188 47 L 290 47 L 290 307.886719 L 57.242188 307.886719 Z M 57.242188 47 " clip-rule="nonzero"/></clipPath></defs><g clip-path="url(#32be74a044)"><rect x="-37.5" width="450" fill="#a2c36e" y="-37.499999" height="449.999989" fill-opacity="1"/></g><g clip-path="url(#34dfb86249)"><path fill="#fffff9" d="M 277.042969 82.347656 C 274.769531 86.542969 272.453125 90.832031 269.703125 94.746094 C 267.550781 97.808594 265.414062 100.898438 263.925781 104.355469 C 263.375 105.644531 262.878906 107.015625 262.773438 108.40625 C 262.007812 109.789062 261.316406 111.214844 260.652344 112.648438 C 259.410156 115.316406 258.257812 118.03125 257.199219 120.777344 C 255.074219 126.292969 253.328125 131.953125 251.980469 137.707031 C 251.457031 139.9375 251 142.183594 250.597656 144.4375 C 250.121094 143.671875 249.675781 142.886719 249.386719 141.980469 C 247.566406 136.28125 248.734375 130.300781 250.683594 124.808594 C 253.648438 116.445312 257.226562 110.503906 257.828125 109.507812 C 268.523438 91.839844 278.585938 81.5625 279.894531 67.171875 C 280.085938 65.074219 280.203125 61.691406 279.40625 57.398438 C 279.847656 57.476562 281.609375 57.746094 283.316406 56.664062 C 284.476562 55.929688 285.042969 54.9375 285.273438 54.464844 C 285.007812 55.746094 284.625 57.617188 284.179688 59.898438 C 283.945312 61.105469 283.78125 61.957031 283.753906 62.101562 C 282.417969 69.171875 280.488281 75.992188 277.042969 82.347656 Z M 274 130.75 C 275.292969 135.765625 276.140625 141.230469 275.261719 146.222656 C 274.558594 150.234375 273.347656 154.164062 272.039062 158.015625 C 264.871094 179.089844 254.414062 199.148438 244.183594 218.863281 C 240.535156 225.898438 236.789062 232.882812 233.105469 239.898438 C 231.984375 242.03125 230.960938 244.222656 229.570312 246.199219 C 228.914062 247.132812 228.148438 248.167969 227.207031 248.835938 C 226.121094 249.605469 225.238281 249.027344 223.988281 249.132812 C 222.3125 249.277344 220.988281 250.238281 220.347656 251.800781 C 219.929688 252.804688 219.96875 253.863281 219.511719 254.859375 C 214.023438 266.800781 203.3125 275.636719 191.777344 281.414062 C 189.617188 282.496094 187.617188 283.425781 185.371094 284.207031 C 181.183594 285.664062 177.1875 285.820312 172.824219 286.871094 C 165.472656 288.636719 158.351562 291.035156 151.324219 293.792969 C 147.191406 295.414062 143.03125 297.09375 138.699219 298.117188 C 135.671875 298.835938 132.824219 299.09375 129.707031 299.363281 C 122.503906 299.984375 115.28125 300.371094 108.066406 300.800781 C 98.15625 301.390625 88.238281 302.03125 78.3125 302.441406 C 91.171875 299.785156 104.03125 297.132812 116.886719 294.476562 C 123.824219 293.046875 130.8125 291.683594 137.519531 289.363281 C 143.914062 287.152344 149.855469 283.929688 155.496094 280.21875 C 165.738281 273.480469 175.304688 265.648438 184.085938 257.097656 C 192.753906 248.652344 200.660156 239.425781 207.695312 229.578125 C 214.742188 219.707031 220.90625 209.207031 226.050781 198.226562 C 226.601562 197.050781 227.136719 195.867188 227.664062 194.679688 C 231.503906 194.902344 235.4375 194.054688 238.992188 192.003906 C 238.992188 192.003906 239.378906 191.695312 239.738281 191.320312 C 250.515625 180.171875 253.292969 168.902344 253.292969 168.902344 C 253.292969 168.902344 255.367188 161.347656 254.074219 153.667969 C 253.65625 151.195312 252.992188 148.683594 251.8125 146.457031 C 251.777344 146.386719 251.738281 146.324219 251.703125 146.257812 C 253.542969 135.257812 256.796875 124.492188 261.414062 114.339844 C 261.945312 113.171875 262.484375 112.003906 263.0625 110.851562 C 263.078125 110.898438 263.089844 110.945312 263.109375 110.988281 C 263.765625 112.769531 265.394531 114.152344 266.539062 115.625 C 270.105469 120.195312 272.558594 125.164062 274 130.75 Z M 93.421875 292.21875 C 98.609375 289.582031 103.726562 286.792969 108.902344 284.128906 C 114.761719 281.117188 120.941406 279.195312 126.964844 276.601562 C 128.824219 275.800781 130.808594 274.695312 131.453125 272.625 C 131.808594 271.476562 131.660156 270.355469 131.164062 269.28125 C 130.371094 267.5625 130.3125 266.34375 131.328125 264.644531 C 132.691406 262.359375 135.175781 260.484375 137.121094 258.664062 C 144.65625 251.597656 152.121094 244.4375 159.242188 236.957031 C 162.367188 233.679688 165.542969 230.34375 168.167969 226.644531 C 170.402344 223.492188 171.5 219.449219 172.929688 215.886719 C 174.855469 211.078125 176.8125 206.285156 178.777344 201.492188 C 180.15625 198.125 181.296875 195.355469 183.683594 192.269531 C 188.074219 186.589844 194.183594 182.492188 200.449219 179.128906 C 202.3125 179.234375 204.125 179.03125 206.015625 178.316406 C 209.140625 177.132812 211.96875 175.023438 214.304688 172.472656 C 213.902344 176.121094 212.964844 179.695312 211.625 183.140625 C 211.183594 183.777344 211.085938 184.617188 211.65625 185.476562 C 214.222656 189.367188 217.925781 192.121094 222.0625 193.5625 C 217.15625 205.019531 211.234375 216.046875 204.402344 226.46875 C 201.90625 230.273438 193.550781 242.757812 180.21875 256.910156 C 168.730469 269.097656 160.765625 274.871094 158.839844 276.246094 C 149.742188 282.734375 142.917969 285.730469 141.414062 286.371094 C 134.980469 289.117188 128.125 290.699219 121.300781 292.132812 C 106.992188 295.136719 92.660156 298.046875 78.339844 301 C 76.535156 301.375 74.730469 301.746094 72.929688 302.117188 C 72.875 302.128906 72.753906 302.226562 72.5625 302.320312 C 71.621094 302.785156 70.675781 302.796875 69.976562 302.71875 C 70.257812 302.617188 70.539062 302.515625 70.816406 302.410156 C 78.554688 299.492188 86.054688 295.96875 93.421875 292.21875 Z M 181.476562 178.386719 C 180.097656 178.382812 178.511719 176.644531 177.585938 175.773438 C 176.40625 174.660156 175.304688 173.449219 174.359375 172.128906 C 173.257812 170.589844 172.003906 168.730469 171.507812 166.773438 C 172.691406 167.015625 173.816406 167.347656 174.851562 168.140625 C 176.988281 169.773438 178.902344 171.859375 180.75 173.800781 C 181.535156 174.628906 184.5 178.398438 181.476562 178.386719 Z M 179.765625 154.507812 C 179.792969 154.351562 179.964844 153.378906 180 153.15625 C 180.121094 152.554688 180.261719 151.964844 180.445312 151.378906 C 181.222656 148.914062 182.589844 146.609375 184.148438 144.558594 C 190.410156 136.3125 203.773438 128.617188 214.175781 133.070312 C 218.519531 134.929688 221.4375 138.808594 223.230469 143.066406 C 218.785156 146.535156 215.789062 151.816406 214.546875 157.300781 C 214.003906 159.699219 214.152344 161.988281 214.324219 164.320312 C 211.863281 168.957031 207.292969 174.0625 201.894531 174.539062 C 199.316406 174.769531 196.796875 173.667969 194.183594 173.804688 C 191.753906 173.929688 189.417969 174.542969 187.210938 175.503906 C 186.386719 172.648438 183.742188 170.140625 181.691406 168.113281 C 180.128906 166.5625 178.535156 164.898438 176.667969 163.707031 C 176.367188 163.515625 176.054688 163.347656 175.738281 163.195312 C 176.023438 162.980469 176.304688 162.746094 176.566406 162.496094 C 178.808594 160.339844 179.273438 157.429688 179.765625 154.507812 Z M 171.53125 130.992188 C 174.234375 134.730469 176.445312 138.796875 178.105469 143.113281 C 174.28125 140.105469 171.917969 135.714844 171.53125 130.992188 Z M 180.519531 124.019531 C 181.5625 122.757812 182.128906 121.269531 183.007812 119.910156 C 184.097656 118.214844 185.6875 116.699219 187.273438 115.464844 C 193.316406 110.757812 201.710938 109.09375 209.09375 111.09375 C 212.757812 112.085938 215.8125 114.320312 219.320312 115.707031 C 220.242188 116.074219 221.207031 116.375 222.191406 116.628906 C 222.191406 116.761719 222.199219 116.894531 222.21875 117.035156 C 222.9375 121.613281 221.707031 126.519531 218.863281 130.191406 C 218.835938 130.226562 218.816406 130.261719 218.789062 130.292969 C 216.664062 128.902344 214.246094 127.910156 211.523438 127.476562 C 207.878906 126.894531 197.425781 128.011719 185.40625 136.472656 C 183.695312 137.671875 182.375 138.726562 181.609375 139.359375 C 179.761719 135.089844 177.429688 131.078125 174.640625 127.363281 C 176.878906 126.964844 178.9375 125.941406 180.519531 124.019531 Z M 243.925781 112.152344 C 241.648438 117.625 239.816406 123.386719 238.808594 129.214844 C 238.429688 131.429688 238.050781 134.148438 236.929688 136.136719 C 235.023438 139.519531 230.777344 139.136719 227.585938 140.484375 C 227.46875 140.535156 227.359375 140.59375 227.246094 140.644531 C 225.992188 137.90625 224.359375 135.378906 222.34375 133.273438 C 225.828125 128.660156 227.414062 123.234375 226.9375 117.546875 C 227.671875 117.648438 228.398438 117.734375 229.117188 117.8125 C 234.441406 118.382812 239.589844 115.320312 243.925781 112.152344 Z M 218.710938 186.46875 C 223.417969 186.625 228.011719 187.695312 232.292969 189.65625 C 227.542969 190.738281 222.46875 189.570312 218.710938 186.46875 Z M 223.410156 193.976562 C 224.324219 194.226562 225.253906 194.414062 226.191406 194.539062 C 221.429688 205.144531 215.742188 215.335938 209.207031 224.957031 C 202.425781 234.941406 194.746094 244.308594 186.292969 252.917969 C 184.585938 254.65625 182.839844 256.351562 181.074219 258.027344 C 185.105469 253.8125 188.972656 249.445312 192.648438 244.917969 C 196.769531 239.835938 200.667969 234.566406 204.316406 229.132812 C 207.949219 223.722656 211.335938 218.144531 214.460938 212.425781 C 217.601562 206.675781 220.480469 200.785156 223.074219 194.769531 C 223.1875 194.503906 223.296875 194.242188 223.410156 193.976562 Z M 247.070312 147.65625 C 247.726562 148.675781 249.53125 157.34375 249.746094 162.386719 C 249.898438 166.011719 249.378906 175.53125 237.136719 187.628906 C 234.992188 186.121094 231.554688 184.097656 226.929688 182.847656 C 222.964844 181.777344 219.503906 181.652344 217.078125 181.753906 C 218.8125 177.53125 219.113281 174.183594 219.0625 171.894531 C 219.007812 169.492188 218.53125 166.621094 218.75 161.515625 C 218.792969 160.476562 218.796875 159.953125 218.867188 159.507812 C 219.800781 153.445312 223.675781 147.105469 229.488281 144.726562 C 232.84375 143.347656 236.339844 143.574219 239.109375 140.890625 C 241.734375 138.347656 242.339844 134.886719 243.09375 131.464844 C 243.253906 130.75 243.378906 130.042969 243.480469 129.320312 C 243.363281 130.15625 243.695312 128.226562 243.78125 127.839844 C 244.460938 124.734375 245.453125 121.695312 246.5 118.699219 C 247.910156 114.652344 249.328125 110.671875 251.96875 107.238281 C 252.992188 105.90625 254.140625 104.6875 255.359375 103.546875 C 255.804688 103.21875 256.246094 102.886719 256.695312 102.558594 C 256.148438 103.375 255.613281 104.199219 255.085938 105.03125 C 252.289062 109.480469 250.019531 114.125 247.980469 118.960938 C 245.800781 124.117188 243.945312 129.503906 243.796875 135.152344 C 243.679688 139.632812 244.660156 143.894531 247.070312 147.65625 Z M 282.585938 51.046875 C 282.765625 50.976562 284.558594 50.304688 284.871094 50.789062 C 285.1875 51.285156 283.917969 52.898438 282.339844 53.734375 C 281.136719 54.371094 279.390625 54.746094 279.117188 54.261719 C 278.789062 53.679688 280.535156 51.824219 282.585938 51.046875 Z M 289.566406 49.617188 C 288.996094 48.445312 287.90625 47.902344 287.496094 47.6875 C 284.765625 46.261719 281.605469 47.816406 280.875 48.171875 C 277.269531 49.945312 275.824219 53.539062 275.355469 55.011719 C 274.136719 58.824219 275.710938 60.269531 275.742188 65.054688 C 275.785156 71.320312 273.351562 76.183594 270.296875 82.125 C 269.089844 84.464844 267.292969 87.601562 264.703125 91.074219 C 263.769531 91.730469 262.839844 92.386719 261.910156 93.046875 C 261.898438 93.054688 261.882812 93.0625 261.867188 93.070312 C 258.527344 95.015625 255.285156 97.277344 252.429688 99.917969 C 250.054688 101.671875 247.6875 103.441406 245.339844 105.234375 C 241.316406 108.316406 236.261719 112.847656 230.894531 113.230469 C 228.835938 113.375 226.625 112.777344 224.628906 112.332031 C 223.816406 112.148438 223.011719 111.925781 222.195312 111.734375 C 221.925781 111.667969 221.765625 111.636719 221.683594 111.625 C 221.617188 111.597656 221.527344 111.558594 221.398438 111.507812 C 218 110.1875 215.019531 108.070312 211.539062 106.933594 C 204.425781 104.617188 196.515625 105.386719 189.773438 108.507812 C 185.992188 110.257812 182.578125 112.894531 179.988281 116.160156 C 178.863281 117.574219 178.242188 119.238281 177.195312 120.6875 C 175.582031 122.929688 172.871094 123.214844 170.320312 122.746094 C 170.078125 122.703125 169.851562 122.695312 169.628906 122.710938 C 168.671875 122.675781 167.734375 123.171875 167.4375 124.382812 C 165.21875 133.546875 169.046875 142.699219 176.785156 147.914062 C 175.769531 150.359375 175.394531 152.753906 174.90625 155.355469 C 174.433594 157.851562 173.476562 159.558594 170.960938 160.460938 C 170.015625 160.800781 168.867188 160.992188 168.003906 161.527344 C 167.410156 161.730469 166.9375 162.238281 166.820312 163.109375 C 166.816406 163.125 166.816406 163.140625 166.816406 163.15625 C 166.75 163.433594 166.726562 163.699219 166.742188 163.941406 C 166.386719 169.203125 169.410156 173.914062 172.902344 177.695312 C 175.90625 180.949219 182.632812 186.046875 186.207031 180.992188 C 186.554688 180.984375 186.921875 180.886719 187.296875 180.675781 C 188.683594 179.898438 190.148438 179.285156 191.65625 178.910156 C 187.429688 181.710938 183.519531 184.988281 180.371094 188.957031 C 177.78125 192.222656 176.09375 195.777344 174.527344 199.59375 C 172.503906 204.53125 170.488281 209.472656 168.5 214.425781 C 167.054688 218.027344 165.953125 221.902344 163.582031 225.019531 C 157.035156 233.609375 148.734375 241.09375 140.96875 248.554688 C 138.019531 251.390625 135.046875 254.207031 132.046875 256.996094 C 128.964844 259.867188 125.457031 263.222656 125.785156 267.8125 C 125.847656 268.660156 126.046875 269.472656 126.394531 270.246094 C 126.546875 270.589844 126.914062 271.792969 127.007812 271.140625 C 126.976562 271.363281 127.042969 271.300781 126.820312 271.398438 C 126.425781 271.574219 126.027344 271.898438 125.617188 272.101562 C 122.726562 273.53125 119.492188 274.34375 116.488281 275.519531 C 109.570312 278.226562 103.046875 281.851562 96.496094 285.328125 C 90.835938 288.332031 85.113281 291.21875 79.277344 293.859375 C 73.230469 296.597656 66.992188 298.617188 60.8125 300.988281 C 59.503906 301.488281 57.925781 302.066406 57.519531 303.582031 C 57.199219 304.777344 57.726562 305.933594 58.726562 306.59375 C 59.789062 307.296875 61.253906 307.328125 62.476562 307.402344 C 70.597656 307.894531 78.90625 307.09375 87.007812 306.671875 C 102.25 305.878906 117.609375 305.375 132.789062 303.75 C 141.519531 302.820312 149.207031 299.488281 157.386719 296.453125 C 164.582031 293.785156 172.109375 291.402344 179.710938 290.234375 C 182.277344 289.839844 185.050781 289.339844 187.667969 288.332031 C 197.847656 284.417969 207.582031 278.183594 214.878906 270.039062 C 217.507812 267.105469 219.71875 263.898438 221.714844 260.507812 C 222.492188 259.183594 223.296875 257.855469 223.914062 256.445312 C 224.125 255.953125 224.328125 255.464844 224.449219 254.945312 C 224.691406 253.902344 224.324219 254.003906 225.277344 253.902344 C 226.640625 253.753906 227.636719 253.960938 228.949219 253.253906 C 230.21875 252.574219 231.296875 251.511719 232.210938 250.414062 C 233.550781 248.800781 234.683594 247.027344 235.648438 245.167969 C 238.617188 239.449219 241.660156 233.769531 244.65625 228.066406 C 255.488281 207.457031 266.320312 186.59375 274.566406 164.785156 C 277.519531 156.96875 280.855469 148.324219 280.230469 139.816406 C 279.789062 133.804688 278.460938 127.722656 276.007812 122.199219 C 274.375 118.511719 272.171875 115.222656 269.667969 112.078125 C 269.035156 111.289062 268.316406 110.554688 267.714844 109.746094 C 267.582031 109.566406 267.386719 109.367188 267.417969 108.65625 C 267.527344 106.175781 269.59375 103.367188 270.863281 101.34375 C 271.753906 99.921875 272.722656 98.5625 273.6875 97.191406 C 276.199219 93.628906 278.296875 89.742188 280.410156 85.9375 C 284.171875 79.167969 286.738281 71.898438 288.109375 64.273438 C 288.710938 58.972656 289.230469 55.105469 289.757812 52.730469 C 289.878906 52.179688 290.183594 50.878906 289.566406 49.617188 " fill-opacity="1" fill-rule="nonzero"/></g></svg>