<svg xmlns="http://www.w3.org/2000/svg" xmlns:xlink="http://www.w3.org/1999/xlink" width="500" zoomAndPan="magnify" viewBox="0 0 375 374.999991" height="500" preserveAspectRatio="xMidYMid meet" version="1.0"><defs><clipPath id="9103034992"><path d="M 187.5 0 C 83.945312 0 0 83.945312 0 187.5 C 0 291.054688 83.945312 375 187.5 375 C 291.054688 375 375 291.054688 375 187.5 C 375 83.945312 291.054688 0 187.5 0 Z M 187.5 0 " clip-rule="nonzero"/></clipPath><clipPath id="c7aa00a25d"><path d="M 93 287 L 103 287 L 103 304.789062 L 93 304.789062 Z M 93 287 " clip-rule="nonzero"/></clipPath><clipPath id="a740239b62"><path d="M 68.46875 273 L 87 273 L 87 280 L 68.46875 280 Z M 68.46875 273 " clip-rule="nonzero"/></clipPath><clipPath id="47c8ec2a9a"><path d="M 286 108 L 300.96875 108 L 300.96875 117 L 286 117 Z M 286 108 " clip-rule="nonzero"/></clipPath></defs><g clip-path="url(#9103034992)"><rect x="-37.5" width="450" fill="#a2c36e" y="-37.499999" height="449.999989" fill-opacity="1"/></g><path fill="#ffffff" d="M 99.222656 293.796875 C 98.527344 293.792969 97.832031 293.753906 97.140625 293.675781 C 96.445312 293.597656 95.761719 293.480469 95.082031 293.324219 C 94.402344 293.171875 93.734375 292.976562 93.074219 292.75 C 92.417969 292.519531 91.773438 292.257812 91.144531 291.957031 C 90.515625 291.65625 89.902344 291.320312 89.3125 290.953125 C 88.71875 290.585938 88.148438 290.1875 87.601562 289.753906 C 87.054688 289.324219 86.53125 288.863281 86.035156 288.375 C 85.535156 287.886719 85.066406 287.371094 84.628906 286.832031 C 84.1875 286.289062 83.777344 285.726562 83.402344 285.140625 C 83.023438 284.554688 82.679688 283.949219 82.367188 283.324219 C 82.054688 282.699219 81.78125 282.058594 81.539062 281.40625 C 81.300781 280.75 81.097656 280.082031 80.929688 279.40625 C 80.761719 278.730469 80.632812 278.042969 80.542969 277.351562 C 80.453125 276.660156 80.398438 275.964844 80.386719 275.269531 C 80.371094 274.570312 80.394531 273.875 80.457031 273.179688 C 80.523438 272.484375 80.621094 271.796875 80.761719 271.113281 L 91.800781 216.90625 C 93.011719 210.949219 94.75 205.148438 97.019531 199.503906 C 99.285156 193.863281 102.039062 188.46875 105.289062 183.332031 C 108.535156 178.191406 112.21875 173.386719 116.339844 168.917969 C 120.460938 164.453125 124.949219 160.394531 129.808594 156.742188 L 181.953125 117.554688 L 216.640625 85.648438 C 217.683594 84.683594 218.773438 83.769531 219.90625 82.90625 C 221.039062 82.046875 222.210938 81.238281 223.417969 80.488281 C 224.628906 79.738281 225.871094 79.042969 227.144531 78.410156 C 228.417969 77.773438 229.71875 77.203125 231.042969 76.691406 C 232.371094 76.179688 233.722656 75.730469 235.089844 75.347656 C 236.460938 74.960938 237.84375 74.640625 239.246094 74.386719 C 240.644531 74.132812 242.054688 73.945312 243.472656 73.824219 C 244.886719 73.703125 246.308594 73.652344 247.730469 73.664062 C 249.152344 73.675781 250.570312 73.757812 251.988281 73.902344 C 253.402344 74.050781 254.808594 74.261719 256.203125 74.542969 C 257.597656 74.820312 258.976562 75.164062 260.339844 75.574219 C 261.699219 75.984375 263.042969 76.457031 264.359375 76.992188 C 265.675781 77.527344 266.96875 78.121094 268.230469 78.78125 C 269.492188 79.4375 270.71875 80.152344 271.914062 80.925781 C 273.109375 81.699219 274.265625 82.527344 275.382812 83.40625 C 276.5 84.289062 277.574219 85.222656 278.601562 86.207031 C 279.632812 87.1875 280.613281 88.21875 281.542969 89.292969 C 282.476562 90.371094 283.355469 91.488281 284.183594 92.644531 C 285.011719 93.804688 285.78125 95 286.496094 96.230469 C 287.210938 97.464844 287.867188 98.726562 288.464844 100.019531 C 289.058594 101.3125 289.59375 102.628906 290.066406 103.972656 C 290.539062 105.316406 290.945312 106.679688 291.289062 108.0625 C 291.632812 109.445312 291.914062 110.839844 292.125 112.25 C 292.339844 113.65625 292.484375 115.070312 292.5625 116.496094 C 292.644531 117.917969 292.65625 119.339844 292.601562 120.761719 C 292.546875 122.1875 292.425781 123.601562 292.238281 125.015625 C 292.050781 126.425781 291.796875 127.828125 291.480469 129.214844 C 291.160156 130.601562 290.777344 131.972656 290.328125 133.324219 C 289.878906 134.675781 289.371094 136.003906 288.796875 137.308594 C 288.222656 138.613281 287.589844 139.886719 286.898438 141.128906 C 286.203125 142.375 285.453125 143.582031 284.648438 144.757812 C 283.839844 145.929688 282.980469 147.0625 282.070312 148.15625 L 265.097656 168.492188 L 211.265625 242.746094 C 207.777344 247.550781 203.898438 252.011719 199.621094 256.125 C 195.347656 260.242188 190.742188 263.945312 185.808594 267.242188 C 180.878906 270.539062 175.695312 273.375 170.257812 275.75 C 164.824219 278.125 159.222656 280 153.453125 281.378906 L 103.636719 293.273438 C 102.1875 293.621094 100.714844 293.792969 99.222656 293.796875 Z M 247.304688 79.515625 C 244.851562 79.511719 242.417969 79.738281 240.007812 80.1875 C 237.597656 80.640625 235.246094 81.3125 232.960938 82.207031 C 230.675781 83.097656 228.488281 84.191406 226.410156 85.492188 C 224.328125 86.792969 222.382812 88.277344 220.578125 89.941406 L 185.785156 121.945312 C 185.714844 122.011719 185.640625 122.074219 185.5625 122.128906 L 133.304688 161.40625 C 128.726562 164.84375 124.5 168.664062 120.617188 172.875 C 116.734375 177.082031 113.265625 181.605469 110.207031 186.445312 C 107.148438 191.289062 104.554688 196.367188 102.417969 201.679688 C 100.285156 206.996094 98.644531 212.457031 97.503906 218.070312 L 86.464844 272.277344 C 86.355469 272.8125 86.28125 273.351562 86.242188 273.898438 C 86.199219 274.445312 86.191406 274.988281 86.21875 275.535156 C 86.246094 276.082031 86.308594 276.625 86.402344 277.164062 C 86.496094 277.703125 86.625 278.234375 86.789062 278.753906 C 86.949219 279.277344 87.144531 279.789062 87.367188 280.285156 C 87.59375 280.785156 87.851562 281.265625 88.136719 281.734375 C 88.421875 282.199219 88.738281 282.644531 89.078125 283.070312 C 89.421875 283.5 89.789062 283.902344 90.179688 284.28125 C 90.574219 284.664062 90.988281 285.015625 91.425781 285.34375 C 91.863281 285.671875 92.320312 285.972656 92.792969 286.246094 C 93.269531 286.515625 93.757812 286.753906 94.261719 286.964844 C 94.765625 287.175781 95.28125 287.351562 95.808594 287.496094 C 96.335938 287.640625 96.871094 287.75 97.410156 287.828125 C 97.953125 287.90625 98.496094 287.949219 99.042969 287.957031 C 99.589844 287.96875 100.132812 287.941406 100.675781 287.882812 C 101.21875 287.824219 101.757812 287.730469 102.289062 287.605469 L 152.101562 275.710938 C 157.535156 274.410156 162.8125 272.644531 167.929688 270.40625 C 173.050781 268.167969 177.933594 265.5 182.578125 262.394531 C 187.226562 259.289062 191.5625 255.800781 195.589844 251.925781 C 199.617188 248.050781 203.269531 243.847656 206.550781 239.324219 L 236.996094 197.332031 L 260.445312 164.988281 C 260.484375 164.933594 260.523438 164.882812 260.566406 164.832031 L 277.601562 144.417969 C 278.800781 142.980469 279.890625 141.46875 280.875 139.878906 C 281.855469 138.289062 282.722656 136.636719 283.472656 134.921875 C 284.222656 133.210938 284.847656 131.453125 285.347656 129.648438 C 285.847656 127.847656 286.21875 126.019531 286.460938 124.164062 C 286.703125 122.308594 286.808594 120.445312 286.789062 118.574219 C 286.765625 116.707031 286.609375 114.847656 286.324219 112.996094 C 286.039062 111.148438 285.621094 109.332031 285.078125 107.539062 C 284.535156 105.75 283.867188 104.007812 283.074219 102.316406 C 282.285156 100.621094 281.378906 98.988281 280.355469 97.425781 C 279.332031 95.859375 278.207031 94.371094 276.972656 92.96875 C 275.742188 91.5625 274.414062 90.25 272.996094 89.03125 C 271.578125 87.816406 270.082031 86.703125 268.503906 85.699219 C 266.929688 84.695312 265.289062 83.808594 263.589844 83.035156 C 261.886719 82.265625 260.140625 81.617188 258.347656 81.09375 C 256.550781 80.570312 254.730469 80.175781 252.882812 79.914062 C 251.03125 79.648438 249.171875 79.515625 247.304688 79.515625 Z M 247.304688 79.515625 " fill-opacity="1" fill-rule="nonzero"/><path fill="#ffffff" d="M 208.644531 209.664062 C 207.820312 209.664062 207.003906 209.589844 206.191406 209.441406 C 205.378906 209.289062 204.585938 209.070312 203.816406 208.777344 C 203.042969 208.484375 202.304688 208.125 201.597656 207.695312 C 200.890625 207.269531 200.226562 206.785156 199.609375 206.238281 C 198.988281 205.691406 198.425781 205.09375 197.914062 204.445312 C 197.402344 203.796875 196.953125 203.105469 196.566406 202.375 C 196.179688 201.648438 195.859375 200.886719 195.609375 200.101562 C 195.359375 199.3125 195.183594 198.507812 195.078125 197.691406 C 194.972656 196.871094 194.941406 196.046875 194.984375 195.222656 C 195.03125 194.398438 195.144531 193.582031 195.335938 192.777344 C 195.527344 191.972656 195.789062 191.195312 196.121094 190.4375 C 196.449219 189.679688 196.847656 188.960938 197.308594 188.273438 C 197.769531 187.589844 198.289062 186.949219 198.867188 186.359375 C 199.441406 185.769531 200.066406 185.234375 200.742188 184.753906 C 201.414062 184.277344 202.125 183.863281 202.871094 183.511719 C 203.621094 183.164062 204.390625 182.882812 205.191406 182.675781 L 258.621094 168.625 C 259.214844 168.46875 259.800781 168.496094 260.378906 168.710938 C 260.953125 168.925781 261.417969 169.289062 261.761719 169.796875 C 262.109375 170.304688 262.28125 170.867188 262.269531 171.484375 C 262.261719 172.101562 262.078125 172.65625 261.714844 173.15625 L 241.710938 200.753906 C 241.300781 201.316406 240.761719 201.683594 240.09375 201.859375 L 212.152344 209.210938 C 211.003906 209.511719 209.835938 209.664062 208.644531 209.664062 Z M 252.21875 176.335938 L 206.671875 188.3125 C 206.171875 188.445312 205.6875 188.625 205.222656 188.851562 C 204.757812 189.078125 204.320312 189.347656 203.90625 189.660156 C 203.496094 189.972656 203.117188 190.324219 202.773438 190.710938 C 202.429688 191.101562 202.128906 191.515625 201.867188 191.964844 C 201.605469 192.410156 201.390625 192.878906 201.222656 193.371094 C 201.054688 193.859375 200.9375 194.359375 200.867188 194.875 C 200.796875 195.386719 200.777344 195.902344 200.808594 196.417969 C 200.839844 196.9375 200.917969 197.445312 201.050781 197.945312 C 201.183594 198.445312 201.363281 198.929688 201.589844 199.394531 C 201.8125 199.863281 202.085938 200.300781 202.398438 200.714844 C 202.710938 201.125 203.058594 201.503906 203.445312 201.847656 C 203.835938 202.191406 204.25 202.492188 204.699219 202.753906 C 205.144531 203.015625 205.613281 203.230469 206.101562 203.398438 C 206.589844 203.570312 207.089844 203.6875 207.605469 203.757812 C 208.117188 203.828125 208.628906 203.847656 209.148438 203.816406 C 209.664062 203.785156 210.171875 203.703125 210.671875 203.574219 L 237.609375 196.488281 Z M 252.21875 176.335938 " fill-opacity="1" fill-rule="nonzero"/><path fill="#ffffff" d="M 191.511719 172.683594 C 190.617188 172.683594 189.730469 172.59375 188.851562 172.421875 C 187.976562 172.246094 187.121094 171.988281 186.296875 171.644531 C 185.46875 171.300781 184.683594 170.878906 183.941406 170.382812 C 183.195312 169.882812 182.507812 169.320312 181.875 168.683594 C 181.242188 168.050781 180.675781 167.363281 180.179688 166.617188 C 179.683594 165.871094 179.261719 165.085938 178.921875 164.257812 C 178.578125 163.429688 178.320312 162.578125 178.144531 161.699219 C 177.96875 160.820312 177.882812 159.933594 177.882812 159.035156 C 177.882812 158.140625 177.96875 157.253906 178.144531 156.375 C 178.320312 155.496094 178.578125 154.640625 178.921875 153.8125 C 179.261719 152.984375 179.683594 152.199219 180.179688 151.453125 C 180.675781 150.710938 181.242188 150.019531 181.875 149.386719 C 182.507812 148.753906 183.195312 148.1875 183.941406 147.6875 C 184.683594 147.191406 185.46875 146.769531 186.296875 146.429688 C 187.121094 146.085938 187.976562 145.828125 188.851562 145.652344 C 189.730469 145.476562 190.617188 145.390625 191.511719 145.390625 C 192.40625 145.390625 193.292969 145.476562 194.171875 145.652344 C 195.046875 145.828125 195.902344 146.085938 196.726562 146.429688 C 197.554688 146.769531 198.339844 147.191406 199.082031 147.6875 C 199.828125 148.1875 200.515625 148.753906 201.148438 149.386719 C 201.78125 150.019531 202.347656 150.710938 202.84375 151.453125 C 203.339844 152.199219 203.761719 152.984375 204.101562 153.8125 C 204.445312 154.640625 204.703125 155.496094 204.878906 156.375 C 205.054688 157.253906 205.140625 158.140625 205.140625 159.035156 C 205.140625 159.933594 205.050781 160.820312 204.875 161.695312 C 204.699219 162.574219 204.441406 163.429688 204.097656 164.253906 C 203.757812 165.082031 203.335938 165.871094 202.839844 166.613281 C 202.339844 167.359375 201.777344 168.046875 201.144531 168.679688 C 200.511719 169.3125 199.824219 169.878906 199.078125 170.378906 C 198.335938 170.875 197.550781 171.296875 196.726562 171.640625 C 195.898438 171.984375 195.046875 172.242188 194.167969 172.417969 C 193.292969 172.59375 192.40625 172.679688 191.511719 172.683594 Z M 191.511719 151.21875 C 191 151.21875 190.492188 151.269531 189.988281 151.367188 C 189.484375 151.46875 188.996094 151.617188 188.523438 151.8125 C 188.050781 152.011719 187.601562 152.25 187.175781 152.535156 C 186.746094 152.820312 186.355469 153.144531 185.992188 153.507812 C 185.628906 153.871094 185.304688 154.265625 185.019531 154.691406 C 184.734375 155.121094 184.496094 155.570312 184.296875 156.042969 C 184.101562 156.519531 183.953125 157.007812 183.855469 157.511719 C 183.753906 158.015625 183.703125 158.523438 183.703125 159.035156 C 183.703125 159.550781 183.753906 160.058594 183.855469 160.5625 C 183.953125 161.0625 184.101562 161.554688 184.296875 162.027344 C 184.496094 162.5 184.734375 162.953125 185.019531 163.378906 C 185.304688 163.804688 185.628906 164.199219 185.992188 164.5625 C 186.355469 164.925781 186.746094 165.25 187.175781 165.535156 C 187.601562 165.820312 188.050781 166.0625 188.523438 166.257812 C 188.996094 166.453125 189.484375 166.601562 189.988281 166.703125 C 190.492188 166.804688 191 166.851562 191.511719 166.851562 C 192.023438 166.851562 192.53125 166.804688 193.035156 166.703125 C 193.539062 166.601562 194.027344 166.453125 194.5 166.257812 C 194.972656 166.0625 195.421875 165.820312 195.847656 165.535156 C 196.273438 165.25 196.667969 164.925781 197.03125 164.5625 C 197.394531 164.199219 197.71875 163.804688 198.003906 163.378906 C 198.289062 162.953125 198.527344 162.5 198.722656 162.027344 C 198.921875 161.554688 199.070312 161.0625 199.167969 160.5625 C 199.269531 160.058594 199.320312 159.550781 199.320312 159.035156 C 199.316406 158.523438 199.269531 158.015625 199.167969 157.511719 C 199.066406 157.007812 198.917969 156.519531 198.722656 156.046875 C 198.527344 155.570312 198.285156 155.121094 198 154.695312 C 197.714844 154.269531 197.390625 153.875 197.03125 153.511719 C 196.667969 153.148438 196.273438 152.824219 195.847656 152.539062 C 195.421875 152.253906 194.972656 152.011719 194.496094 151.816406 C 194.023438 151.621094 193.535156 151.472656 193.035156 151.371094 C 192.53125 151.269531 192.023438 151.21875 191.511719 151.21875 Z M 191.511719 151.21875 " fill-opacity="1" fill-rule="nonzero"/><path fill="#ffffff" d="M 162.800781 187.246094 C 162.132812 187.246094 161.472656 187.183594 160.816406 187.050781 C 160.160156 186.921875 159.523438 186.726562 158.90625 186.472656 C 158.289062 186.214844 157.699219 185.902344 157.144531 185.527344 C 156.589844 185.15625 156.074219 184.734375 155.601562 184.261719 C 155.128906 183.785156 154.707031 183.273438 154.335938 182.714844 C 153.964844 182.160156 153.648438 181.570312 153.394531 180.953125 C 153.136719 180.332031 152.945312 179.695312 152.8125 179.039062 C 152.683594 178.382812 152.617188 177.71875 152.617188 177.050781 C 152.617188 176.378906 152.683594 175.71875 152.8125 175.0625 C 152.945312 174.402344 153.136719 173.765625 153.394531 173.148438 C 153.648438 172.527344 153.964844 171.941406 154.335938 171.386719 C 154.707031 170.828125 155.128906 170.3125 155.601562 169.839844 C 156.074219 169.367188 156.589844 168.945312 157.144531 168.570312 C 157.699219 168.199219 158.289062 167.886719 158.90625 167.628906 C 159.523438 167.375 160.160156 167.179688 160.816406 167.050781 C 161.472656 166.917969 162.132812 166.851562 162.800781 166.851562 C 163.472656 166.851562 164.132812 166.917969 164.789062 167.050781 C 165.445312 167.179688 166.082031 167.375 166.699219 167.628906 C 167.316406 167.886719 167.90625 168.199219 168.460938 168.570312 C 169.015625 168.945312 169.53125 169.367188 170.003906 169.839844 C 170.476562 170.3125 170.898438 170.828125 171.269531 171.386719 C 171.640625 171.941406 171.957031 172.53125 172.210938 173.148438 C 172.46875 173.765625 172.660156 174.402344 172.789062 175.0625 C 172.921875 175.71875 172.984375 176.378906 172.984375 177.050781 C 172.984375 177.71875 172.917969 178.382812 172.789062 179.039062 C 172.65625 179.695312 172.464844 180.332031 172.207031 180.949219 C 171.953125 181.570312 171.636719 182.15625 171.265625 182.710938 C 170.894531 183.269531 170.472656 183.785156 170 184.257812 C 169.527344 184.730469 169.011719 185.152344 168.457031 185.523438 C 167.902344 185.898438 167.316406 186.210938 166.699219 186.46875 C 166.082031 186.722656 165.445312 186.917969 164.789062 187.050781 C 164.132812 187.179688 163.472656 187.246094 162.800781 187.246094 Z M 162.800781 172.683594 C 162.515625 172.683594 162.230469 172.710938 161.953125 172.765625 C 161.671875 172.820312 161.398438 172.90625 161.132812 173.015625 C 160.867188 173.125 160.617188 173.257812 160.378906 173.417969 C 160.140625 173.578125 159.921875 173.757812 159.71875 173.960938 C 159.515625 174.164062 159.335938 174.386719 159.175781 174.625 C 159.015625 174.863281 158.882812 175.113281 158.773438 175.378906 C 158.664062 175.644531 158.582031 175.917969 158.523438 176.199219 C 158.46875 176.480469 158.441406 176.761719 158.441406 177.050781 C 158.441406 177.335938 158.46875 177.621094 158.523438 177.902344 C 158.578125 178.183594 158.664062 178.457031 158.773438 178.722656 C 158.882812 178.988281 159.015625 179.238281 159.175781 179.476562 C 159.335938 179.714844 159.515625 179.9375 159.71875 180.136719 C 159.921875 180.339844 160.140625 180.523438 160.378906 180.679688 C 160.617188 180.839844 160.867188 180.976562 161.132812 181.085938 C 161.398438 181.195312 161.671875 181.277344 161.953125 181.332031 C 162.230469 181.390625 162.515625 181.417969 162.800781 181.417969 C 163.089844 181.417969 163.371094 181.390625 163.652344 181.332031 C 163.933594 181.277344 164.207031 181.195312 164.472656 181.085938 C 164.734375 180.976562 164.988281 180.839844 165.226562 180.683594 C 165.464844 180.523438 165.683594 180.339844 165.886719 180.136719 C 166.089844 179.9375 166.269531 179.714844 166.429688 179.476562 C 166.589844 179.238281 166.722656 178.988281 166.832031 178.722656 C 166.941406 178.457031 167.023438 178.183594 167.082031 177.902344 C 167.136719 177.621094 167.164062 177.335938 167.164062 177.050781 C 167.164062 176.761719 167.136719 176.480469 167.078125 176.199219 C 167.023438 175.917969 166.941406 175.644531 166.832031 175.378906 C 166.722656 175.113281 166.585938 174.863281 166.429688 174.625 C 166.269531 174.386719 166.089844 174.164062 165.886719 173.964844 C 165.683594 173.761719 165.460938 173.578125 165.226562 173.421875 C 164.988281 173.261719 164.734375 173.125 164.472656 173.015625 C 164.207031 172.90625 163.933594 172.824219 163.652344 172.765625 C 163.371094 172.710938 163.089844 172.683594 162.800781 172.683594 Z M 162.800781 172.683594 " fill-opacity="1" fill-rule="nonzero"/><path fill="#ffffff" d="M 116.175781 225.769531 L 109.109375 225.769531 C 108.722656 225.769531 108.351562 225.695312 107.996094 225.546875 C 107.640625 225.398438 107.324219 225.1875 107.050781 224.914062 C 106.777344 224.640625 106.566406 224.324219 106.421875 223.96875 C 106.273438 223.613281 106.199219 223.238281 106.199219 222.851562 C 106.199219 222.464844 106.273438 222.09375 106.421875 221.738281 C 106.566406 221.378906 106.777344 221.066406 107.050781 220.792969 C 107.324219 220.519531 107.640625 220.308594 107.996094 220.160156 C 108.351562 220.011719 108.722656 219.9375 109.109375 219.9375 L 116.175781 219.9375 C 116.558594 219.9375 116.933594 220.011719 117.289062 220.160156 C 117.644531 220.308594 117.960938 220.519531 118.234375 220.792969 C 118.503906 221.066406 118.714844 221.378906 118.863281 221.738281 C 119.011719 222.09375 119.085938 222.464844 119.085938 222.851562 C 119.085938 223.238281 119.011719 223.613281 118.863281 223.96875 C 118.714844 224.324219 118.503906 224.640625 118.234375 224.914062 C 117.960938 225.1875 117.644531 225.398438 117.289062 225.546875 C 116.933594 225.695312 116.558594 225.769531 116.175781 225.769531 Z M 116.175781 225.769531 " fill-opacity="1" fill-rule="nonzero"/><path fill="#ffffff" d="M 157.339844 225.769531 L 150.273438 225.769531 C 149.886719 225.769531 149.515625 225.695312 149.160156 225.546875 C 148.800781 225.398438 148.488281 225.1875 148.214844 224.914062 C 147.941406 224.640625 147.730469 224.324219 147.582031 223.96875 C 147.4375 223.613281 147.363281 223.238281 147.363281 222.851562 C 147.363281 222.464844 147.4375 222.09375 147.582031 221.738281 C 147.730469 221.378906 147.941406 221.066406 148.214844 220.792969 C 148.488281 220.519531 148.800781 220.308594 149.160156 220.160156 C 149.515625 220.011719 149.886719 219.9375 150.273438 219.9375 L 157.339844 219.9375 C 157.726562 219.9375 158.097656 220.011719 158.453125 220.160156 C 158.8125 220.308594 159.125 220.519531 159.398438 220.792969 C 159.671875 221.066406 159.882812 221.378906 160.03125 221.738281 C 160.179688 222.09375 160.25 222.464844 160.25 222.851562 C 160.25 223.238281 160.179688 223.613281 160.03125 223.96875 C 159.882812 224.324219 159.671875 224.640625 159.398438 224.914062 C 159.125 225.1875 158.8125 225.398438 158.453125 225.546875 C 158.097656 225.695312 157.726562 225.769531 157.339844 225.769531 Z M 157.339844 225.769531 " fill-opacity="1" fill-rule="nonzero"/><path fill="#ffffff" d="M 133.226562 208.5 C 132.839844 208.5 132.46875 208.429688 132.109375 208.28125 C 131.753906 208.132812 131.441406 207.921875 131.167969 207.648438 C 130.894531 207.375 130.683594 207.058594 130.535156 206.703125 C 130.386719 206.34375 130.3125 205.972656 130.3125 205.585938 L 130.3125 198.707031 C 130.3125 198.320312 130.386719 197.949219 130.535156 197.589844 C 130.683594 197.234375 130.894531 196.917969 131.167969 196.644531 C 131.441406 196.371094 131.753906 196.160156 132.109375 196.015625 C 132.46875 195.867188 132.839844 195.792969 133.226562 195.792969 C 133.609375 195.792969 133.984375 195.867188 134.339844 196.015625 C 134.695312 196.160156 135.011719 196.371094 135.285156 196.644531 C 135.554688 196.917969 135.765625 197.234375 135.914062 197.589844 C 136.0625 197.949219 136.136719 198.320312 136.136719 198.707031 L 136.136719 205.585938 C 136.136719 205.972656 136.0625 206.34375 135.914062 206.703125 C 135.765625 207.058594 135.554688 207.375 135.285156 207.648438 C 135.011719 207.921875 134.695312 208.132812 134.339844 208.28125 C 133.984375 208.429688 133.609375 208.5 133.226562 208.5 Z M 133.226562 208.5 " fill-opacity="1" fill-rule="nonzero"/><path fill="#ffffff" d="M 133.226562 249.914062 C 132.839844 249.914062 132.46875 249.839844 132.109375 249.691406 C 131.753906 249.546875 131.441406 249.335938 131.167969 249.0625 C 130.894531 248.789062 130.683594 248.472656 130.535156 248.117188 C 130.386719 247.757812 130.3125 247.386719 130.3125 247 L 130.3125 239.734375 C 130.3125 239.347656 130.386719 238.976562 130.535156 238.621094 C 130.683594 238.261719 130.894531 237.945312 131.167969 237.671875 C 131.441406 237.398438 131.753906 237.191406 132.109375 237.042969 C 132.46875 236.894531 132.839844 236.820312 133.226562 236.820312 C 133.609375 236.820312 133.984375 236.894531 134.339844 237.042969 C 134.695312 237.191406 135.011719 237.398438 135.285156 237.671875 C 135.554688 237.945312 135.765625 238.261719 135.914062 238.621094 C 136.0625 238.976562 136.136719 239.347656 136.136719 239.734375 L 136.136719 247 C 136.136719 247.386719 136.0625 247.757812 135.914062 248.113281 C 135.765625 248.472656 135.558594 248.789062 135.285156 249.0625 C 135.011719 249.335938 134.695312 249.546875 134.339844 249.691406 C 133.984375 249.839844 133.609375 249.914062 133.226562 249.914062 Z M 133.226562 249.914062 " fill-opacity="1" fill-rule="nonzero"/><path fill="#ffffff" d="M 145.378906 213.597656 C 144.789062 213.597656 144.25 213.433594 143.761719 213.105469 C 143.273438 212.777344 142.914062 212.339844 142.6875 211.796875 C 142.464844 211.253906 142.410156 210.691406 142.523438 210.113281 C 142.636719 209.535156 142.902344 209.039062 143.320312 208.621094 L 148.21875 203.71875 C 148.492188 203.445312 148.804688 203.234375 149.160156 203.085938 C 149.519531 202.9375 149.890625 202.863281 150.277344 202.863281 C 150.660156 202.863281 151.03125 202.9375 151.390625 203.085938 C 151.746094 203.234375 152.0625 203.445312 152.335938 203.71875 C 152.605469 203.992188 152.816406 204.304688 152.964844 204.664062 C 153.113281 205.019531 153.1875 205.390625 153.1875 205.777344 C 153.1875 206.164062 153.113281 206.535156 152.964844 206.894531 C 152.816406 207.25 152.605469 207.566406 152.335938 207.839844 L 147.4375 212.742188 C 146.871094 213.3125 146.183594 213.597656 145.378906 213.597656 Z M 145.378906 213.597656 " fill-opacity="1" fill-rule="nonzero"/><path fill="#ffffff" d="M 116.171875 242.839844 C 115.582031 242.839844 115.042969 242.675781 114.554688 242.351562 C 114.066406 242.023438 113.707031 241.585938 113.480469 241.042969 C 113.257812 240.496094 113.203125 239.9375 113.316406 239.359375 C 113.429688 238.78125 113.695312 238.28125 114.113281 237.863281 L 119.203125 232.769531 C 119.476562 232.496094 119.792969 232.285156 120.148438 232.136719 C 120.503906 231.988281 120.875 231.914062 121.261719 231.914062 C 121.648438 231.914062 122.019531 231.988281 122.375 232.136719 C 122.730469 232.285156 123.046875 232.496094 123.320312 232.769531 C 123.59375 233.042969 123.800781 233.359375 123.949219 233.714844 C 124.097656 234.070312 124.171875 234.441406 124.171875 234.828125 C 124.171875 235.214844 124.097656 235.585938 123.949219 235.945312 C 123.804688 236.300781 123.59375 236.617188 123.320312 236.890625 L 118.230469 241.988281 C 117.660156 242.558594 116.976562 242.839844 116.171875 242.839844 Z M 116.171875 242.839844 " fill-opacity="1" fill-rule="nonzero"/><path fill="#ffffff" d="M 133.222656 233.050781 C 132.550781 233.050781 131.882812 232.984375 131.21875 232.851562 C 130.558594 232.722656 129.914062 232.527344 129.289062 232.273438 C 128.664062 232.015625 128.070312 231.703125 127.507812 231.328125 C 126.945312 230.957031 126.421875 230.535156 125.941406 230.058594 C 125.460938 229.585938 125.03125 229.070312 124.652344 228.511719 C 124.269531 227.953125 123.949219 227.363281 123.683594 226.742188 C 123.417969 226.121094 123.214844 225.480469 123.074219 224.816406 C 122.9375 224.15625 122.859375 223.488281 122.851562 222.8125 C 122.847656 222.761719 122.847656 222.714844 122.847656 222.660156 C 122.84375 221.976562 122.902344 221.296875 123.03125 220.621094 C 123.160156 219.945312 123.351562 219.292969 123.609375 218.65625 C 123.867188 218.019531 124.1875 217.417969 124.5625 216.84375 C 124.941406 216.269531 125.371094 215.742188 125.851562 215.253906 C 126.335938 214.765625 126.859375 214.328125 127.429688 213.945312 C 127.996094 213.5625 128.597656 213.238281 129.230469 212.976562 C 129.863281 212.710938 130.515625 212.511719 131.1875 212.378906 C 131.859375 212.242188 132.539062 212.175781 133.222656 212.175781 C 133.910156 212.175781 134.585938 212.242188 135.257812 212.378906 C 135.929688 212.511719 136.582031 212.710938 137.214844 212.976562 C 137.847656 213.238281 138.449219 213.5625 139.019531 213.945312 C 139.585938 214.328125 140.113281 214.765625 140.59375 215.253906 C 141.078125 215.742188 141.507812 216.269531 141.882812 216.84375 C 142.261719 217.417969 142.578125 218.019531 142.835938 218.65625 C 143.09375 219.292969 143.285156 219.945312 143.414062 220.621094 C 143.542969 221.296875 143.605469 221.976562 143.597656 222.660156 C 143.597656 222.714844 143.597656 222.761719 143.597656 222.8125 C 143.585938 223.488281 143.511719 224.15625 143.371094 224.816406 C 143.230469 225.480469 143.027344 226.121094 142.761719 226.742188 C 142.496094 227.363281 142.175781 227.953125 141.796875 228.511719 C 141.414062 229.070312 140.984375 229.585938 140.503906 230.058594 C 140.023438 230.535156 139.503906 230.957031 138.9375 231.328125 C 138.375 231.703125 137.78125 232.015625 137.15625 232.273438 C 136.535156 232.527344 135.890625 232.722656 135.230469 232.851562 C 134.566406 232.984375 133.898438 233.050781 133.222656 233.050781 Z M 128.671875 222.660156 C 128.671875 222.679688 128.671875 222.695312 128.671875 222.714844 C 128.675781 223.011719 128.707031 223.304688 128.769531 223.59375 C 128.828125 223.886719 128.917969 224.167969 129.03125 224.441406 C 129.148438 224.714844 129.289062 224.972656 129.457031 225.21875 C 129.625 225.464844 129.8125 225.691406 130.023438 225.902344 C 130.234375 226.109375 130.464844 226.296875 130.710938 226.460938 C 130.957031 226.625 131.21875 226.761719 131.492188 226.875 C 131.769531 226.988281 132.050781 227.070312 132.339844 227.128906 C 132.632812 227.1875 132.925781 227.214844 133.222656 227.214844 C 133.519531 227.214844 133.8125 227.1875 134.105469 227.128906 C 134.394531 227.070312 134.675781 226.988281 134.953125 226.875 C 135.226562 226.761719 135.488281 226.625 135.734375 226.460938 C 135.980469 226.296875 136.210938 226.109375 136.421875 225.902344 C 136.632812 225.691406 136.820312 225.464844 136.988281 225.21875 C 137.15625 224.972656 137.296875 224.714844 137.410156 224.441406 C 137.527344 224.167969 137.617188 223.886719 137.675781 223.59375 C 137.738281 223.304688 137.769531 223.011719 137.773438 222.714844 C 137.773438 222.695312 137.773438 222.679688 137.773438 222.660156 C 137.777344 222.359375 137.753906 222.058594 137.699219 221.761719 C 137.644531 221.464844 137.558594 221.175781 137.445312 220.894531 C 137.335938 220.613281 137.195312 220.347656 137.03125 220.097656 C 136.863281 219.84375 136.675781 219.609375 136.464844 219.394531 C 136.253906 219.179688 136.023438 218.988281 135.773438 218.816406 C 135.523438 218.648438 135.257812 218.503906 134.980469 218.390625 C 134.699219 218.273438 134.414062 218.183594 134.117188 218.125 C 133.820312 218.066406 133.523438 218.035156 133.222656 218.035156 C 132.921875 218.035156 132.621094 218.066406 132.324219 218.125 C 132.03125 218.183594 131.742188 218.273438 131.464844 218.390625 C 131.1875 218.503906 130.921875 218.648438 130.671875 218.816406 C 130.421875 218.988281 130.191406 219.179688 129.980469 219.394531 C 129.765625 219.609375 129.578125 219.84375 129.414062 220.097656 C 129.246094 220.347656 129.109375 220.613281 128.996094 220.894531 C 128.882812 221.175781 128.800781 221.464844 128.746094 221.761719 C 128.691406 222.058594 128.664062 222.359375 128.667969 222.660156 Z M 128.671875 222.660156 " fill-opacity="1" fill-rule="nonzero"/><path fill="#ffffff" d="M 150.277344 242.839844 C 149.472656 242.839844 148.785156 242.558594 148.21875 241.988281 L 143.125 236.890625 C 142.855469 236.617188 142.644531 236.300781 142.496094 235.945312 C 142.351562 235.585938 142.277344 235.214844 142.277344 234.828125 C 142.277344 234.445312 142.351562 234.074219 142.5 233.714844 C 142.648438 233.359375 142.859375 233.042969 143.128906 232.773438 C 143.402344 232.5 143.71875 232.289062 144.074219 232.140625 C 144.429688 231.992188 144.800781 231.917969 145.1875 231.917969 C 145.570312 231.917969 145.941406 231.992188 146.300781 232.136719 C 146.65625 232.285156 146.96875 232.496094 147.242188 232.769531 L 152.335938 237.867188 C 152.75 238.28125 153.015625 238.78125 153.128906 239.359375 C 153.246094 239.9375 153.191406 240.496094 152.964844 241.042969 C 152.738281 241.585938 152.382812 242.023438 151.894531 242.351562 C 151.402344 242.675781 150.863281 242.839844 150.277344 242.839844 Z M 150.277344 242.839844 " fill-opacity="1" fill-rule="nonzero"/><path fill="#ffffff" d="M 121.070312 213.597656 C 120.265625 213.597656 119.578125 213.3125 119.011719 212.742188 L 114.113281 207.839844 C 113.839844 207.566406 113.628906 207.25 113.484375 206.894531 C 113.335938 206.535156 113.261719 206.164062 113.261719 205.777344 C 113.261719 205.390625 113.335938 205.019531 113.484375 204.664062 C 113.628906 204.304688 113.839844 203.992188 114.113281 203.71875 C 114.386719 203.445312 114.703125 203.234375 115.058594 203.085938 C 115.414062 202.9375 115.785156 202.863281 116.171875 202.863281 C 116.558594 202.863281 116.929688 202.9375 117.285156 203.085938 C 117.644531 203.234375 117.957031 203.445312 118.230469 203.71875 L 123.128906 208.621094 C 123.542969 209.039062 123.808594 209.535156 123.925781 210.113281 C 124.039062 210.691406 123.984375 211.253906 123.757812 211.796875 C 123.535156 212.339844 123.175781 212.777344 122.6875 213.105469 C 122.199219 213.433594 121.660156 213.597656 121.070312 213.597656 Z M 121.070312 213.597656 " fill-opacity="1" fill-rule="nonzero"/><path fill="#ffffff" d="M 223.269531 127.070312 L 216.207031 127.070312 C 215.820312 127.070312 215.449219 126.996094 215.089844 126.851562 C 214.734375 126.703125 214.417969 126.492188 214.148438 126.21875 C 213.875 125.945312 213.664062 125.628906 213.515625 125.273438 C 213.367188 124.914062 213.292969 124.542969 213.292969 124.15625 C 213.292969 123.769531 213.367188 123.398438 213.515625 123.042969 C 213.664062 122.683594 213.875 122.371094 214.148438 122.097656 C 214.417969 121.824219 214.734375 121.613281 215.089844 121.464844 C 215.449219 121.316406 215.820312 121.242188 216.207031 121.242188 L 223.269531 121.242188 C 223.65625 121.242188 224.027344 121.316406 224.382812 121.464844 C 224.742188 121.613281 225.054688 121.824219 225.328125 122.097656 C 225.601562 122.371094 225.8125 122.683594 225.960938 123.042969 C 226.105469 123.398438 226.179688 123.769531 226.179688 124.15625 C 226.179688 124.542969 226.105469 124.914062 225.960938 125.273438 C 225.8125 125.628906 225.601562 125.945312 225.328125 126.21875 C 225.054688 126.492188 224.742188 126.703125 224.382812 126.851562 C 224.027344 126.996094 223.65625 127.070312 223.269531 127.070312 Z M 223.269531 127.070312 " fill-opacity="1" fill-rule="nonzero"/><path fill="#ffffff" d="M 264.4375 127.070312 L 257.367188 127.070312 C 256.980469 127.070312 256.609375 126.996094 256.253906 126.851562 C 255.898438 126.703125 255.582031 126.492188 255.308594 126.21875 C 255.035156 125.945312 254.828125 125.628906 254.679688 125.273438 C 254.53125 124.914062 254.457031 124.542969 254.457031 124.15625 C 254.457031 123.769531 254.53125 123.398438 254.679688 123.042969 C 254.828125 122.683594 255.035156 122.371094 255.308594 122.097656 C 255.582031 121.824219 255.898438 121.613281 256.253906 121.464844 C 256.609375 121.316406 256.980469 121.242188 257.367188 121.242188 L 264.4375 121.242188 C 264.824219 121.242188 265.195312 121.316406 265.550781 121.464844 C 265.90625 121.613281 266.222656 121.824219 266.496094 122.097656 C 266.765625 122.371094 266.976562 122.683594 267.125 123.042969 C 267.273438 123.398438 267.347656 123.769531 267.347656 124.15625 C 267.347656 124.542969 267.273438 124.914062 267.125 125.273438 C 266.976562 125.628906 266.765625 125.945312 266.496094 126.21875 C 266.222656 126.492188 265.90625 126.703125 265.550781 126.851562 C 265.195312 126.996094 264.824219 127.070312 264.4375 127.070312 Z M 264.4375 127.070312 " fill-opacity="1" fill-rule="nonzero"/><path fill="#ffffff" d="M 240.320312 109.804688 C 239.933594 109.804688 239.5625 109.730469 239.207031 109.582031 C 238.851562 109.4375 238.535156 109.226562 238.261719 108.953125 C 237.988281 108.679688 237.777344 108.363281 237.632812 108.007812 C 237.484375 107.648438 237.410156 107.277344 237.410156 106.890625 L 237.410156 100.011719 C 237.410156 99.625 237.484375 99.253906 237.632812 98.894531 C 237.777344 98.539062 237.988281 98.222656 238.261719 97.949219 C 238.535156 97.675781 238.851562 97.464844 239.207031 97.316406 C 239.5625 97.171875 239.933594 97.097656 240.320312 97.097656 C 240.707031 97.097656 241.078125 97.171875 241.433594 97.316406 C 241.792969 97.464844 242.105469 97.675781 242.378906 97.949219 C 242.652344 98.222656 242.863281 98.539062 243.011719 98.894531 C 243.15625 99.253906 243.230469 99.625 243.230469 100.011719 L 243.230469 106.890625 C 243.230469 107.277344 243.15625 107.648438 243.011719 108.007812 C 242.863281 108.363281 242.652344 108.679688 242.378906 108.953125 C 242.105469 109.226562 241.792969 109.4375 241.433594 109.582031 C 241.078125 109.730469 240.707031 109.804688 240.320312 109.804688 Z M 240.320312 109.804688 " fill-opacity="1" fill-rule="nonzero"/><path fill="#ffffff" d="M 240.320312 151.21875 C 239.933594 151.21875 239.5625 151.144531 239.207031 150.996094 C 238.851562 150.847656 238.535156 150.636719 238.261719 150.363281 C 237.988281 150.089844 237.777344 149.777344 237.632812 149.417969 C 237.484375 149.0625 237.410156 148.691406 237.410156 148.304688 L 237.410156 141.039062 C 237.410156 140.652344 237.484375 140.28125 237.632812 139.925781 C 237.777344 139.566406 237.988281 139.25 238.261719 138.976562 C 238.535156 138.707031 238.851562 138.496094 239.207031 138.347656 C 239.5625 138.199219 239.933594 138.125 240.320312 138.125 C 240.707031 138.125 241.078125 138.199219 241.433594 138.347656 C 241.792969 138.496094 242.105469 138.707031 242.378906 138.976562 C 242.652344 139.25 242.863281 139.566406 243.011719 139.925781 C 243.15625 140.28125 243.230469 140.652344 243.230469 141.039062 L 243.230469 148.304688 C 243.230469 148.691406 243.15625 149.0625 243.011719 149.417969 C 242.863281 149.777344 242.652344 150.089844 242.378906 150.363281 C 242.105469 150.636719 241.792969 150.847656 241.433594 150.996094 C 241.078125 151.144531 240.707031 151.21875 240.320312 151.21875 Z M 240.320312 151.21875 " fill-opacity="1" fill-rule="nonzero"/><path fill="#ffffff" d="M 252.472656 114.898438 C 251.886719 114.898438 251.347656 114.738281 250.855469 114.410156 C 250.367188 114.082031 250.011719 113.644531 249.785156 113.101562 C 249.558594 112.554688 249.503906 111.996094 249.617188 111.417969 C 249.734375 110.839844 250 110.339844 250.414062 109.925781 L 255.3125 105.019531 C 255.585938 104.746094 255.902344 104.535156 256.257812 104.382812 C 256.613281 104.234375 256.988281 104.160156 257.375 104.160156 C 257.761719 104.15625 258.132812 104.230469 258.492188 104.378906 C 258.847656 104.527344 259.164062 104.738281 259.4375 105.011719 C 259.710938 105.285156 259.921875 105.601562 260.070312 105.960938 C 260.21875 106.320312 260.292969 106.691406 260.292969 107.078125 C 260.289062 107.46875 260.214844 107.839844 260.066406 108.195312 C 259.917969 108.554688 259.703125 108.871094 259.429688 109.144531 L 254.53125 114.046875 C 253.964844 114.617188 253.277344 114.902344 252.472656 114.898438 Z M 252.472656 114.898438 " fill-opacity="1" fill-rule="nonzero"/><path fill="#ffffff" d="M 223.265625 144.144531 C 222.679688 144.144531 222.140625 143.980469 221.648438 143.652344 C 221.160156 143.324219 220.804688 142.890625 220.578125 142.34375 C 220.351562 141.800781 220.296875 141.238281 220.410156 140.660156 C 220.527344 140.082031 220.792969 139.585938 221.207031 139.167969 L 226.300781 134.070312 C 226.570312 133.792969 226.886719 133.582031 227.246094 133.429688 C 227.601562 133.277344 227.976562 133.203125 228.363281 133.199219 C 228.75 133.199219 229.125 133.269531 229.484375 133.417969 C 229.84375 133.566406 230.160156 133.777344 230.433594 134.054688 C 230.707031 134.328125 230.921875 134.644531 231.066406 135.003906 C 231.214844 135.363281 231.289062 135.738281 231.285156 136.128906 C 231.285156 136.515625 231.207031 136.890625 231.058594 137.246094 C 230.90625 137.605469 230.691406 137.921875 230.417969 138.191406 L 225.324219 143.292969 C 224.757812 143.859375 224.070312 144.144531 223.265625 144.144531 Z M 223.265625 144.144531 " fill-opacity="1" fill-rule="nonzero"/><path fill="#ffffff" d="M 240.320312 134.351562 C 239.644531 134.351562 238.976562 134.289062 238.316406 134.15625 C 237.652344 134.027344 237.007812 133.832031 236.386719 133.578125 C 235.761719 133.320312 235.167969 133.007812 234.605469 132.632812 C 234.039062 132.261719 233.519531 131.839844 233.039062 131.363281 C 232.558594 130.890625 232.128906 130.375 231.746094 129.816406 C 231.367188 129.257812 231.042969 128.667969 230.78125 128.046875 C 230.515625 127.425781 230.3125 126.785156 230.171875 126.125 C 230.03125 125.460938 229.957031 124.792969 229.945312 124.117188 C 229.945312 124.066406 229.945312 124.015625 229.945312 123.964844 C 229.9375 123.277344 230 122.597656 230.125 121.921875 C 230.253906 121.25 230.449219 120.59375 230.707031 119.957031 C 230.964844 119.324219 231.28125 118.71875 231.660156 118.144531 C 232.035156 117.574219 232.464844 117.042969 232.949219 116.554688 C 233.429688 116.066406 233.957031 115.632812 234.523438 115.25 C 235.09375 114.863281 235.691406 114.542969 236.324219 114.277344 C 236.957031 114.011719 237.609375 113.8125 238.28125 113.679688 C 238.953125 113.542969 239.632812 113.476562 240.320312 113.476562 C 241.003906 113.476562 241.683594 113.542969 242.355469 113.679688 C 243.027344 113.8125 243.679688 114.011719 244.3125 114.277344 C 244.945312 114.542969 245.546875 114.863281 246.113281 115.25 C 246.683594 115.632812 247.207031 116.066406 247.691406 116.554688 C 248.171875 117.042969 248.601562 117.574219 248.980469 118.144531 C 249.355469 118.71875 249.675781 119.324219 249.933594 119.957031 C 250.191406 120.59375 250.382812 121.25 250.511719 121.921875 C 250.640625 122.597656 250.699219 123.277344 250.691406 123.964844 C 250.691406 124.015625 250.691406 124.066406 250.691406 124.117188 C 250.679688 124.792969 250.605469 125.460938 250.464844 126.125 C 250.324219 126.785156 250.121094 127.425781 249.859375 128.046875 C 249.59375 128.667969 249.269531 129.257812 248.890625 129.816406 C 248.511719 130.375 248.078125 130.890625 247.597656 131.363281 C 247.117188 131.839844 246.597656 132.261719 246.035156 132.632812 C 245.472656 133.007812 244.878906 133.320312 244.253906 133.578125 C 243.628906 133.832031 242.984375 134.027344 242.324219 134.15625 C 241.660156 134.289062 240.992188 134.351562 240.320312 134.351562 Z M 235.765625 123.960938 C 235.765625 123.980469 235.765625 124 235.765625 124.019531 C 235.769531 124.316406 235.800781 124.609375 235.863281 124.898438 C 235.925781 125.191406 236.011719 125.472656 236.128906 125.746094 C 236.246094 126.019531 236.386719 126.277344 236.550781 126.523438 C 236.71875 126.769531 236.90625 126.996094 237.121094 127.203125 C 237.332031 127.414062 237.558594 127.597656 237.804688 127.761719 C 238.054688 127.925781 238.316406 128.066406 238.589844 128.179688 C 238.863281 128.289062 239.144531 128.375 239.4375 128.433594 C 239.726562 128.492188 240.023438 128.519531 240.316406 128.519531 C 240.613281 128.519531 240.910156 128.492188 241.199219 128.433594 C 241.488281 128.375 241.773438 128.289062 242.046875 128.179688 C 242.320312 128.066406 242.582031 127.925781 242.828125 127.761719 C 243.078125 127.597656 243.304688 127.414062 243.515625 127.203125 C 243.726562 126.996094 243.917969 126.769531 244.082031 126.523438 C 244.25 126.277344 244.390625 126.019531 244.507812 125.746094 C 244.625 125.472656 244.710938 125.191406 244.773438 124.898438 C 244.832031 124.609375 244.867188 124.316406 244.871094 124.019531 C 244.871094 124 244.871094 123.980469 244.871094 123.960938 C 244.867188 123.664062 244.832031 123.371094 244.773438 123.078125 C 244.710938 122.789062 244.621094 122.507812 244.507812 122.234375 C 244.390625 121.960938 244.25 121.703125 244.082031 121.457031 C 243.914062 121.214844 243.726562 120.988281 243.515625 120.777344 C 243.304688 120.570312 243.074219 120.382812 242.828125 120.21875 C 242.582031 120.058594 242.320312 119.917969 242.046875 119.804688 C 241.773438 119.695312 241.488281 119.609375 241.199219 119.550781 C 240.90625 119.496094 240.613281 119.464844 240.320312 119.464844 C 240.023438 119.464844 239.730469 119.496094 239.4375 119.550781 C 239.148438 119.609375 238.863281 119.695312 238.589844 119.804688 C 238.316406 119.917969 238.054688 120.058594 237.808594 120.21875 C 237.5625 120.382812 237.332031 120.570312 237.121094 120.777344 C 236.910156 120.988281 236.722656 121.214844 236.554688 121.457031 C 236.386719 121.703125 236.246094 121.960938 236.128906 122.234375 C 236.015625 122.507812 235.925781 122.789062 235.863281 123.078125 C 235.804688 123.371094 235.769531 123.664062 235.765625 123.960938 Z M 235.765625 123.910156 L 235.765625 123.933594 Z M 244.875 123.914062 Z M 244.875 123.910156 Z M 244.875 123.910156 " fill-opacity="1" fill-rule="nonzero"/><path fill="#ffffff" d="M 257.371094 144.144531 C 256.566406 144.144531 255.882812 143.859375 255.3125 143.292969 L 250.222656 138.191406 C 249.945312 137.921875 249.734375 137.605469 249.585938 137.246094 C 249.4375 136.890625 249.359375 136.515625 249.359375 136.128906 C 249.359375 135.742188 249.433594 135.367188 249.582031 135.011719 C 249.726562 134.652344 249.9375 134.335938 250.210938 134.0625 C 250.484375 133.789062 250.800781 133.578125 251.160156 133.429688 C 251.519531 133.28125 251.890625 133.207031 252.277344 133.207031 C 252.664062 133.210938 253.035156 133.285156 253.394531 133.433594 C 253.75 133.582031 254.066406 133.796875 254.339844 134.070312 L 259.429688 139.167969 C 259.847656 139.585938 260.113281 140.082031 260.226562 140.660156 C 260.339844 141.238281 260.285156 141.800781 260.0625 142.34375 C 259.835938 142.890625 259.476562 143.324219 258.988281 143.652344 C 258.5 143.980469 257.960938 144.144531 257.371094 144.144531 Z M 257.371094 144.144531 " fill-opacity="1" fill-rule="nonzero"/><path fill="#ffffff" d="M 228.164062 114.898438 C 227.359375 114.902344 226.675781 114.617188 226.105469 114.046875 L 221.207031 109.144531 C 220.9375 108.871094 220.726562 108.554688 220.578125 108.199219 C 220.429688 107.839844 220.355469 107.46875 220.355469 107.082031 C 220.355469 106.695312 220.429688 106.324219 220.578125 105.964844 C 220.726562 105.609375 220.9375 105.292969 221.207031 105.019531 C 221.480469 104.746094 221.796875 104.535156 222.152344 104.390625 C 222.507812 104.242188 222.882812 104.167969 223.265625 104.167969 C 223.652344 104.167969 224.023438 104.242188 224.382812 104.390625 C 224.738281 104.535156 225.050781 104.746094 225.324219 105.019531 L 230.222656 109.925781 C 230.640625 110.339844 230.90625 110.839844 231.019531 111.417969 C 231.132812 111.996094 231.078125 112.554688 230.855469 113.101562 C 230.628906 113.644531 230.269531 114.082031 229.78125 114.410156 C 229.292969 114.738281 228.753906 114.898438 228.164062 114.898438 Z M 228.164062 114.898438 " fill-opacity="1" fill-rule="nonzero"/><path fill="#ffffff" d="M 105.957031 279.042969 L 99.640625 279.042969 C 99.257812 279.042969 98.886719 278.96875 98.527344 278.820312 C 98.171875 278.671875 97.855469 278.460938 97.585938 278.1875 C 97.3125 277.914062 97.101562 277.601562 96.953125 277.242188 C 96.804688 276.886719 96.730469 276.515625 96.730469 276.128906 C 96.730469 275.742188 96.804688 275.371094 96.953125 275.011719 C 97.101562 274.65625 97.3125 274.339844 97.585938 274.066406 C 97.855469 273.792969 98.171875 273.582031 98.527344 273.4375 C 98.886719 273.289062 99.257812 273.214844 99.640625 273.214844 L 105.957031 273.214844 C 106.34375 273.214844 106.714844 273.289062 107.070312 273.4375 C 107.429688 273.582031 107.742188 273.792969 108.015625 274.066406 C 108.289062 274.339844 108.5 274.65625 108.648438 275.011719 C 108.796875 275.371094 108.871094 275.742188 108.871094 276.128906 C 108.871094 276.515625 108.796875 276.886719 108.648438 277.242188 C 108.5 277.601562 108.289062 277.914062 108.015625 278.1875 C 107.742188 278.460938 107.429688 278.671875 107.070312 278.820312 C 106.714844 278.96875 106.34375 279.042969 105.957031 279.042969 Z M 105.957031 279.042969 " fill-opacity="1" fill-rule="nonzero"/><path fill="#ffffff" d="M 111.597656 259.96875 C 110.792969 259.96875 110.105469 259.683594 109.539062 259.113281 L 103.898438 253.46875 C 103.632812 253.195312 103.425781 252.878906 103.28125 252.523438 C 103.136719 252.167969 103.0625 251.796875 103.066406 251.414062 C 103.066406 251.027344 103.140625 250.660156 103.289062 250.304688 C 103.4375 249.949219 103.644531 249.636719 103.917969 249.363281 C 104.1875 249.09375 104.503906 248.882812 104.855469 248.734375 C 105.210938 248.585938 105.578125 248.511719 105.964844 248.511719 C 106.347656 248.507812 106.71875 248.582031 107.074219 248.726562 C 107.429688 248.871094 107.742188 249.078125 108.015625 249.347656 L 113.65625 254.992188 C 114.070312 255.410156 114.335938 255.90625 114.453125 256.484375 C 114.566406 257.0625 114.511719 257.625 114.285156 258.167969 C 114.0625 258.710938 113.703125 259.148438 113.214844 259.476562 C 112.722656 259.804688 112.183594 259.96875 111.597656 259.96875 Z M 111.597656 259.96875 " fill-opacity="1" fill-rule="nonzero"/><path fill="#ffffff" d="M 135.625 267.355469 C 135.265625 267.355469 134.917969 267.292969 134.585938 267.164062 C 134.25 267.035156 133.949219 266.851562 133.679688 266.613281 C 133.414062 266.371094 133.199219 266.09375 133.035156 265.773438 C 132.871094 265.453125 132.769531 265.113281 132.730469 264.757812 C 132.691406 264.398438 132.71875 264.046875 132.808594 263.699219 C 132.902344 263.351562 133.050781 263.03125 133.261719 262.742188 C 133.472656 262.449219 133.726562 262.203125 134.027344 262.007812 C 134.324219 261.808594 134.648438 261.671875 135 261.59375 L 144.558594 259.484375 C 144.9375 259.398438 145.316406 259.386719 145.699219 259.453125 C 146.082031 259.519531 146.4375 259.65625 146.761719 259.863281 C 147.089844 260.070312 147.367188 260.332031 147.589844 260.652344 C 147.8125 260.96875 147.964844 261.316406 148.046875 261.699219 C 148.132812 262.078125 148.140625 262.457031 148.070312 262.839844 C 148.003906 263.222656 147.863281 263.578125 147.652344 263.902344 C 147.445312 264.230469 147.179688 264.503906 146.859375 264.722656 C 146.539062 264.945312 146.191406 265.09375 145.8125 265.175781 L 136.253906 267.289062 C 136.046875 267.332031 135.835938 267.355469 135.625 267.355469 Z M 135.625 267.355469 " fill-opacity="1" fill-rule="nonzero"/><path fill="#ffffff" d="M 186.492188 242.839844 C 185.90625 242.839844 185.367188 242.679688 184.878906 242.351562 C 184.390625 242.027344 184.035156 241.59375 183.808594 241.050781 C 183.582031 240.507812 183.523438 239.949219 183.636719 239.371094 C 183.746094 238.796875 184.007812 238.296875 184.421875 237.878906 L 189.4375 232.78125 C 189.710938 232.511719 190.023438 232.304688 190.378906 232.160156 C 190.730469 232.015625 191.101562 231.941406 191.484375 231.941406 C 191.863281 231.941406 192.234375 232.015625 192.585938 232.160156 C 192.941406 232.304688 193.253906 232.511719 193.527344 232.78125 C 193.800781 233.050781 194.011719 233.363281 194.160156 233.714844 C 194.308594 234.066406 194.386719 234.433594 194.394531 234.816406 C 194.398438 235.199219 194.332031 235.570312 194.191406 235.925781 C 194.050781 236.28125 193.847656 236.597656 193.585938 236.875 L 188.566406 241.972656 C 187.996094 242.550781 187.304688 242.839844 186.492188 242.839844 Z M 186.492188 242.839844 " fill-opacity="1" fill-rule="nonzero"/><path fill="#ffffff" d="M 180.796875 211.144531 C 180.664062 211.144531 180.527344 211.136719 180.394531 211.117188 L 169.675781 209.636719 C 169.292969 209.582031 168.9375 209.457031 168.605469 209.261719 C 168.269531 209.066406 167.988281 208.816406 167.753906 208.507812 C 167.523438 208.199219 167.355469 207.859375 167.257812 207.484375 C 167.160156 207.109375 167.140625 206.730469 167.191406 206.347656 C 167.246094 205.964844 167.367188 205.609375 167.5625 205.273438 C 167.757812 204.941406 168.011719 204.65625 168.316406 204.425781 C 168.625 204.191406 168.964844 204.027344 169.339844 203.929688 C 169.714844 203.832031 170.089844 203.808594 170.472656 203.859375 L 181.191406 205.34375 C 181.558594 205.394531 181.902344 205.507812 182.222656 205.6875 C 182.542969 205.871094 182.820312 206.105469 183.054688 206.390625 C 183.289062 206.675781 183.460938 206.996094 183.570312 207.347656 C 183.683594 207.699219 183.726562 208.058594 183.703125 208.429688 C 183.675781 208.796875 183.585938 209.148438 183.425781 209.484375 C 183.269531 209.816406 183.054688 210.109375 182.785156 210.359375 C 182.515625 210.613281 182.207031 210.808594 181.863281 210.941406 C 181.519531 211.078125 181.164062 211.144531 180.796875 211.144531 Z M 180.796875 211.144531 " fill-opacity="1" fill-rule="nonzero"/><path fill="#ffffff" d="M 232.855469 170.003906 C 232.519531 170.003906 232.191406 169.949219 231.875 169.835938 C 231.558594 169.722656 231.265625 169.558594 231.007812 169.34375 C 230.746094 169.128906 230.527344 168.875 230.355469 168.585938 C 230.183594 168.296875 230.0625 167.984375 230 167.65625 C 229.933594 167.324219 229.925781 166.992188 229.976562 166.65625 C 230.027344 166.324219 230.128906 166.007812 230.289062 165.710938 C 230.449219 165.414062 230.65625 165.152344 230.90625 164.925781 C 231.15625 164.699219 231.4375 164.519531 231.75 164.394531 L 239.214844 161.324219 C 239.570312 161.175781 239.941406 161.105469 240.328125 161.105469 C 240.710938 161.109375 241.082031 161.183594 241.4375 161.332031 C 241.792969 161.480469 242.109375 161.691406 242.378906 161.964844 C 242.652344 162.242188 242.859375 162.554688 243.007812 162.914062 C 243.152344 163.269531 243.226562 163.640625 243.226562 164.027344 C 243.226562 164.414062 243.148438 164.785156 243 165.140625 C 242.851562 165.496094 242.644531 165.8125 242.371094 166.085938 C 242.097656 166.359375 241.78125 166.566406 241.425781 166.714844 L 233.960938 169.785156 C 233.609375 169.929688 233.238281 170.003906 232.855469 170.003906 Z M 232.855469 170.003906 " fill-opacity="1" fill-rule="nonzero"/><path fill="#ffffff" d="M 193.804688 130.140625 C 193.554688 130.136719 193.304688 130.105469 193.058594 130.039062 C 192.816406 129.976562 192.585938 129.878906 192.363281 129.753906 C 192.144531 129.628906 191.945312 129.476562 191.765625 129.300781 C 191.585938 129.121094 191.429688 128.925781 191.300781 128.707031 C 191.175781 128.488281 191.074219 128.257812 191.007812 128.015625 C 190.9375 127.773438 190.902344 127.523438 190.898438 127.269531 C 190.894531 127.015625 190.921875 126.769531 190.984375 126.523438 C 191.042969 126.277344 191.136719 126.042969 191.257812 125.820312 L 195.324219 118.398438 C 195.511719 118.058594 195.757812 117.773438 196.058594 117.53125 C 196.359375 117.292969 196.695312 117.117188 197.0625 117.011719 C 197.433594 116.902344 197.808594 116.871094 198.191406 116.914062 C 198.574219 116.957031 198.933594 117.070312 199.273438 117.253906 C 199.609375 117.441406 199.898438 117.683594 200.140625 117.984375 C 200.382812 118.285156 200.554688 118.621094 200.664062 118.988281 C 200.773438 119.359375 200.808594 119.734375 200.765625 120.121094 C 200.726562 120.503906 200.613281 120.863281 200.429688 121.203125 L 196.359375 128.625 C 196.105469 129.09375 195.746094 129.460938 195.289062 129.734375 C 194.832031 130.003906 194.335938 130.140625 193.804688 130.140625 Z M 193.804688 130.140625 " fill-opacity="1" fill-rule="nonzero"/><g clip-path="url(#c7aa00a25d)"><path fill="#ffffff" d="M 96.253906 304.792969 C 96.027344 304.792969 95.804688 304.765625 95.585938 304.714844 C 95.367188 304.660156 95.15625 304.585938 94.957031 304.484375 C 94.753906 304.386719 94.566406 304.261719 94.394531 304.117188 C 94.21875 303.976562 94.066406 303.8125 93.929688 303.632812 C 93.792969 303.453125 93.679688 303.261719 93.589844 303.054688 C 93.5 302.847656 93.433594 302.632812 93.390625 302.414062 C 93.351562 302.191406 93.335938 301.96875 93.34375 301.742188 C 93.355469 301.515625 93.390625 301.296875 93.453125 301.078125 L 96.570312 290.089844 C 96.675781 289.714844 96.847656 289.378906 97.085938 289.078125 C 97.328125 288.773438 97.613281 288.527344 97.953125 288.339844 C 98.289062 288.152344 98.648438 288.035156 99.03125 287.992188 C 99.414062 287.945312 99.792969 287.976562 100.164062 288.082031 C 100.535156 288.1875 100.871094 288.359375 101.175781 288.601562 C 101.476562 288.839844 101.722656 289.128906 101.910156 289.464844 C 102.097656 289.804688 102.214844 290.164062 102.261719 290.546875 C 102.304688 290.929688 102.273438 291.308594 102.167969 291.679688 L 99.050781 302.671875 C 98.964844 302.976562 98.832031 303.261719 98.652344 303.523438 C 98.476562 303.785156 98.257812 304.011719 98.007812 304.199219 C 97.753906 304.390625 97.476562 304.539062 97.179688 304.640625 C 96.878906 304.742188 96.570312 304.789062 96.253906 304.792969 Z M 96.253906 304.792969 " fill-opacity="1" fill-rule="nonzero"/></g><g clip-path="url(#a740239b62)"><path fill="#ffffff" d="M 83.28125 279.042969 L 71.523438 279.042969 C 71.136719 279.042969 70.765625 278.96875 70.410156 278.820312 C 70.054688 278.671875 69.738281 278.460938 69.464844 278.1875 C 69.191406 277.914062 68.980469 277.601562 68.835938 277.242188 C 68.6875 276.886719 68.613281 276.515625 68.613281 276.128906 C 68.613281 275.742188 68.6875 275.371094 68.835938 275.011719 C 68.980469 274.65625 69.191406 274.339844 69.464844 274.066406 C 69.738281 273.792969 70.054688 273.582031 70.410156 273.4375 C 70.765625 273.289062 71.136719 273.214844 71.523438 273.214844 L 83.28125 273.214844 C 83.667969 273.214844 84.039062 273.289062 84.394531 273.4375 C 84.753906 273.582031 85.066406 273.792969 85.339844 274.066406 C 85.613281 274.339844 85.824219 274.65625 85.972656 275.011719 C 86.121094 275.371094 86.191406 275.742188 86.191406 276.128906 C 86.191406 276.515625 86.121094 276.886719 85.972656 277.242188 C 85.824219 277.601562 85.613281 277.914062 85.339844 278.1875 C 85.066406 278.460938 84.753906 278.671875 84.394531 278.820312 C 84.039062 278.96875 83.667969 279.042969 83.28125 279.042969 Z M 83.28125 279.042969 " fill-opacity="1" fill-rule="nonzero"/></g><path fill="#ffffff" d="M 86.597656 259.96875 L 73.902344 259.96875 C 73.515625 259.96875 73.144531 259.894531 72.789062 259.746094 C 72.429688 259.597656 72.117188 259.386719 71.84375 259.113281 C 71.570312 258.839844 71.359375 258.523438 71.210938 258.167969 C 71.0625 257.8125 70.992188 257.4375 70.992188 257.050781 C 70.992188 256.664062 71.0625 256.292969 71.210938 255.9375 C 71.359375 255.578125 71.570312 255.265625 71.84375 254.992188 C 72.117188 254.71875 72.429688 254.507812 72.789062 254.359375 C 73.144531 254.210938 73.515625 254.136719 73.902344 254.136719 L 86.597656 254.136719 C 86.980469 254.136719 87.351562 254.210938 87.710938 254.359375 C 88.066406 254.507812 88.382812 254.71875 88.652344 254.992188 C 88.925781 255.265625 89.136719 255.578125 89.285156 255.9375 C 89.433594 256.292969 89.507812 256.664062 89.507812 257.050781 C 89.507812 257.4375 89.433594 257.8125 89.285156 258.167969 C 89.136719 258.523438 88.925781 258.839844 88.652344 259.113281 C 88.382812 259.386719 88.066406 259.597656 87.710938 259.746094 C 87.351562 259.894531 86.980469 259.96875 86.597656 259.96875 Z M 86.597656 259.96875 " fill-opacity="1" fill-rule="nonzero"/><path fill="#ffffff" d="M 89.386719 246.28125 C 89.246094 246.28125 89.101562 246.273438 88.964844 246.253906 L 76.984375 244.503906 C 76.597656 244.453125 76.238281 244.328125 75.902344 244.128906 C 75.566406 243.933594 75.28125 243.679688 75.046875 243.371094 C 74.8125 243.058594 74.648438 242.714844 74.550781 242.339844 C 74.457031 241.960938 74.433594 241.582031 74.492188 241.195312 C 74.546875 240.808594 74.675781 240.449219 74.875 240.117188 C 75.074219 239.78125 75.332031 239.5 75.644531 239.269531 C 75.957031 239.039062 76.300781 238.875 76.679688 238.785156 C 77.058594 238.691406 77.4375 238.675781 77.820312 238.734375 L 89.800781 240.484375 C 90.164062 240.535156 90.507812 240.65625 90.828125 240.835938 C 91.144531 241.019531 91.421875 241.253906 91.652344 241.542969 C 91.882812 241.828125 92.054688 242.148438 92.164062 242.5 C 92.273438 242.851562 92.3125 243.210938 92.289062 243.578125 C 92.261719 243.945312 92.167969 244.292969 92.011719 244.625 C 91.851562 244.957031 91.636719 245.25 91.367188 245.5 C 91.097656 245.753906 90.792969 245.945312 90.449219 246.082031 C 90.109375 246.214844 89.753906 246.28125 89.386719 246.28125 Z M 89.386719 246.28125 " fill-opacity="1" fill-rule="nonzero"/><path fill="#ffffff" d="M 93.5625 225.769531 L 80.25 225.769531 C 79.863281 225.769531 79.492188 225.695312 79.132812 225.546875 C 78.777344 225.398438 78.464844 225.1875 78.191406 224.914062 C 77.917969 224.640625 77.707031 224.324219 77.558594 223.96875 C 77.410156 223.613281 77.335938 223.238281 77.335938 222.851562 C 77.335938 222.464844 77.410156 222.09375 77.558594 221.738281 C 77.707031 221.378906 77.917969 221.066406 78.191406 220.792969 C 78.464844 220.519531 78.777344 220.308594 79.132812 220.160156 C 79.492188 220.011719 79.863281 219.9375 80.25 219.9375 L 93.5625 219.9375 C 93.945312 219.9375 94.316406 220.011719 94.675781 220.160156 C 95.03125 220.308594 95.347656 220.519531 95.621094 220.792969 C 95.890625 221.066406 96.101562 221.378906 96.25 221.738281 C 96.398438 222.09375 96.472656 222.464844 96.472656 222.851562 C 96.472656 223.238281 96.398438 223.613281 96.25 223.96875 C 96.101562 224.324219 95.890625 224.640625 95.621094 224.914062 C 95.347656 225.1875 95.03125 225.398438 94.675781 225.546875 C 94.316406 225.695312 93.945312 225.769531 93.5625 225.769531 Z M 93.5625 225.769531 " fill-opacity="1" fill-rule="nonzero"/><path fill="#ffffff" d="M 83.390625 213.597656 C 83.027344 213.597656 82.675781 213.53125 82.335938 213.398438 C 81.996094 213.265625 81.691406 213.078125 81.425781 212.832031 C 81.15625 212.585938 80.941406 212.300781 80.78125 211.972656 C 80.617188 211.648438 80.523438 211.300781 80.488281 210.9375 C 80.457031 210.578125 80.492188 210.21875 80.59375 209.871094 C 80.695312 209.519531 80.855469 209.199219 81.078125 208.910156 C 81.296875 208.621094 81.5625 208.382812 81.875 208.191406 C 82.183594 208.003906 82.519531 207.875 82.878906 207.8125 L 96.503906 205.359375 C 96.882812 205.289062 97.265625 205.292969 97.644531 205.375 C 98.023438 205.453125 98.371094 205.605469 98.691406 205.824219 C 99.011719 206.046875 99.277344 206.320312 99.488281 206.644531 C 99.695312 206.972656 99.835938 207.328125 99.90625 207.710938 C 99.972656 208.09375 99.964844 208.472656 99.882812 208.851562 C 99.800781 209.230469 99.644531 209.582031 99.421875 209.898438 C 99.199219 210.21875 98.925781 210.480469 98.597656 210.6875 C 98.269531 210.894531 97.914062 211.03125 97.53125 211.097656 L 83.90625 213.550781 C 83.734375 213.582031 83.5625 213.597656 83.390625 213.597656 Z M 83.390625 213.597656 " fill-opacity="1" fill-rule="nonzero"/><path fill="#ffffff" d="M 92.207031 197.898438 C 91.835938 197.898438 91.476562 197.832031 91.132812 197.695312 C 90.785156 197.558594 90.480469 197.359375 90.207031 197.105469 C 89.9375 196.851562 89.726562 196.554688 89.570312 196.21875 C 89.410156 195.882812 89.320312 195.527344 89.300781 195.15625 C 89.277344 194.785156 89.324219 194.425781 89.441406 194.070312 C 89.558594 193.71875 89.734375 193.398438 89.972656 193.113281 C 90.210938 192.828125 90.496094 192.597656 90.820312 192.421875 C 91.148438 192.246094 91.496094 192.136719 91.863281 192.089844 L 102.453125 190.824219 C 102.839844 190.777344 103.214844 190.808594 103.585938 190.910156 C 103.960938 191.015625 104.296875 191.1875 104.601562 191.425781 C 104.902344 191.664062 105.148438 191.953125 105.339844 192.289062 C 105.527344 192.628906 105.644531 192.988281 105.691406 193.371094 C 105.738281 193.753906 105.707031 194.132812 105.601562 194.503906 C 105.5 194.878906 105.328125 195.214844 105.089844 195.519531 C 104.851562 195.824219 104.5625 196.070312 104.226562 196.257812 C 103.890625 196.449219 103.527344 196.566406 103.144531 196.613281 L 92.554688 197.878906 C 92.4375 197.894531 92.320312 197.898438 92.207031 197.898438 Z M 92.207031 197.898438 " fill-opacity="1" fill-rule="nonzero"/><path fill="#ffffff" d="M 111.597656 182.171875 L 97.503906 182.171875 C 97.117188 182.171875 96.746094 182.097656 96.390625 181.949219 C 96.035156 181.800781 95.71875 181.589844 95.445312 181.316406 C 95.171875 181.042969 94.964844 180.726562 94.816406 180.371094 C 94.667969 180.015625 94.59375 179.640625 94.59375 179.253906 C 94.59375 178.867188 94.667969 178.496094 94.816406 178.140625 C 94.964844 177.78125 95.171875 177.46875 95.445312 177.195312 C 95.71875 176.921875 96.035156 176.710938 96.390625 176.5625 C 96.746094 176.414062 97.117188 176.339844 97.503906 176.339844 L 111.597656 176.339844 C 111.984375 176.339844 112.355469 176.414062 112.710938 176.5625 C 113.066406 176.710938 113.382812 176.921875 113.65625 177.195312 C 113.929688 177.46875 114.136719 177.78125 114.285156 178.140625 C 114.433594 178.496094 114.507812 178.867188 114.507812 179.253906 C 114.507812 179.640625 114.433594 180.015625 114.285156 180.371094 C 114.136719 180.726562 113.929688 181.042969 113.65625 181.316406 C 113.382812 181.589844 113.066406 181.800781 112.710938 181.949219 C 112.355469 182.097656 111.984375 182.171875 111.597656 182.171875 Z M 111.597656 182.171875 " fill-opacity="1" fill-rule="nonzero"/><path fill="#ffffff" d="M 126.480469 166.078125 L 112.640625 166.078125 C 112.257812 166.078125 111.882812 166.003906 111.527344 165.855469 C 111.171875 165.710938 110.855469 165.5 110.582031 165.226562 C 110.3125 164.953125 110.101562 164.636719 109.953125 164.28125 C 109.804688 163.921875 109.730469 163.550781 109.730469 163.164062 C 109.730469 162.777344 109.804688 162.40625 109.953125 162.046875 C 110.101562 161.691406 110.3125 161.375 110.582031 161.101562 C 110.855469 160.828125 111.171875 160.621094 111.527344 160.472656 C 111.882812 160.324219 112.257812 160.25 112.640625 160.25 L 126.480469 160.25 C 126.867188 160.25 127.238281 160.324219 127.59375 160.472656 C 127.949219 160.621094 128.265625 160.828125 128.539062 161.101562 C 128.8125 161.375 129.019531 161.691406 129.167969 162.046875 C 129.316406 162.40625 129.390625 162.777344 129.390625 163.164062 C 129.390625 163.550781 129.316406 163.921875 129.167969 164.28125 C 129.019531 164.636719 128.8125 164.953125 128.539062 165.226562 C 128.265625 165.5 127.949219 165.710938 127.59375 165.855469 C 127.238281 166.003906 126.867188 166.078125 126.480469 166.078125 Z M 126.480469 166.078125 " fill-opacity="1" fill-rule="nonzero"/><path fill="#ffffff" d="M 140.691406 155.128906 C 140.554688 155.128906 140.421875 155.117188 140.285156 155.097656 L 126.078125 153.117188 C 125.691406 153.066406 125.332031 152.945312 124.992188 152.75 C 124.65625 152.554688 124.371094 152.304688 124.132812 151.996094 C 123.898438 151.6875 123.730469 151.34375 123.632812 150.964844 C 123.535156 150.589844 123.511719 150.207031 123.566406 149.824219 C 123.617188 149.4375 123.742188 149.078125 123.941406 148.742188 C 124.140625 148.40625 124.394531 148.125 124.707031 147.890625 C 125.015625 147.65625 125.363281 147.492188 125.738281 147.398438 C 126.117188 147.304688 126.496094 147.285156 126.882812 147.34375 L 141.089844 149.324219 C 141.453125 149.375 141.796875 149.492188 142.117188 149.671875 C 142.4375 149.855469 142.714844 150.089844 142.949219 150.375 C 143.179688 150.660156 143.351562 150.980469 143.464844 151.332031 C 143.574219 151.683594 143.617188 152.042969 143.59375 152.414062 C 143.566406 152.78125 143.476562 153.132812 143.316406 153.464844 C 143.160156 153.796875 142.945312 154.089844 142.675781 154.34375 C 142.40625 154.59375 142.101562 154.789062 141.757812 154.921875 C 141.414062 155.058594 141.058594 155.125 140.691406 155.128906 Z M 140.691406 155.128906 " fill-opacity="1" fill-rule="nonzero"/><path fill="#ffffff" d="M 157.34375 142.613281 C 157.183594 142.613281 157.023438 142.597656 156.867188 142.570312 L 142.851562 140.25 C 142.472656 140.183594 142.121094 140.050781 141.796875 139.84375 C 141.46875 139.640625 141.195312 139.378906 140.972656 139.066406 C 140.75 138.753906 140.59375 138.40625 140.507812 138.03125 C 140.421875 137.65625 140.410156 137.28125 140.472656 136.902344 C 140.535156 136.519531 140.667969 136.167969 140.871094 135.839844 C 141.074219 135.515625 141.332031 135.238281 141.644531 135.011719 C 141.953125 134.789062 142.296875 134.628906 142.671875 134.542969 C 143.046875 134.453125 143.421875 134.4375 143.800781 134.5 L 157.816406 136.820312 C 158.175781 136.878906 158.515625 137.003906 158.828125 137.191406 C 159.144531 137.378906 159.414062 137.613281 159.636719 137.902344 C 159.863281 138.191406 160.027344 138.511719 160.132812 138.859375 C 160.238281 139.210938 160.273438 139.570312 160.246094 139.933594 C 160.214844 140.296875 160.121094 140.644531 159.960938 140.972656 C 159.800781 141.304688 159.585938 141.589844 159.316406 141.839844 C 159.046875 142.085938 158.742188 142.277344 158.402344 142.410156 C 158.0625 142.542969 157.710938 142.613281 157.34375 142.613281 Z M 157.34375 142.613281 " fill-opacity="1" fill-rule="nonzero"/><path fill="#ffffff" d="M 172.347656 131.335938 C 172.253906 131.335938 172.160156 131.332031 172.0625 131.320312 L 159.691406 130.125 C 159.304688 130.085938 158.945312 129.976562 158.601562 129.792969 C 158.261719 129.613281 157.96875 129.375 157.726562 129.074219 C 157.480469 128.777344 157.300781 128.441406 157.1875 128.074219 C 157.078125 127.703125 157.039062 127.328125 157.074219 126.941406 C 157.113281 126.558594 157.222656 126.195312 157.402344 125.855469 C 157.582031 125.515625 157.824219 125.222656 158.121094 124.976562 C 158.417969 124.730469 158.75 124.550781 159.121094 124.4375 C 159.488281 124.324219 159.863281 124.285156 160.25 124.320312 L 172.621094 125.519531 C 172.996094 125.554688 173.347656 125.65625 173.679688 125.828125 C 174.011719 126 174.300781 126.230469 174.546875 126.511719 C 174.789062 126.792969 174.972656 127.113281 175.09375 127.46875 C 175.21875 127.820312 175.269531 128.183594 175.253906 128.558594 C 175.234375 128.933594 175.148438 129.289062 174.992188 129.628906 C 174.835938 129.972656 174.625 130.269531 174.355469 130.527344 C 174.082031 130.789062 173.773438 130.984375 173.425781 131.125 C 173.082031 131.265625 172.71875 131.335938 172.347656 131.335938 Z M 172.347656 131.335938 " fill-opacity="1" fill-rule="nonzero"/><path fill="#ffffff" d="M 189.003906 117.941406 L 175.433594 117.941406 C 175.046875 117.941406 174.675781 117.867188 174.320312 117.722656 C 173.964844 117.574219 173.648438 117.363281 173.375 117.089844 C 173.101562 116.816406 172.894531 116.5 172.746094 116.144531 C 172.597656 115.785156 172.523438 115.414062 172.523438 115.027344 C 172.523438 114.640625 172.597656 114.269531 172.746094 113.914062 C 172.894531 113.554688 173.101562 113.242188 173.375 112.96875 C 173.648438 112.695312 173.964844 112.484375 174.320312 112.335938 C 174.675781 112.1875 175.046875 112.113281 175.433594 112.113281 L 189.003906 112.113281 C 189.386719 112.113281 189.757812 112.1875 190.117188 112.335938 C 190.472656 112.484375 190.789062 112.695312 191.0625 112.96875 C 191.332031 113.242188 191.542969 113.554688 191.691406 113.914062 C 191.839844 114.269531 191.914062 114.640625 191.914062 115.027344 C 191.914062 115.414062 191.839844 115.785156 191.691406 116.144531 C 191.542969 116.5 191.332031 116.816406 191.0625 117.089844 C 190.789062 117.363281 190.472656 117.574219 190.117188 117.722656 C 189.757812 117.867188 189.386719 117.941406 189.003906 117.941406 Z M 189.003906 117.941406 " fill-opacity="1" fill-rule="nonzero"/><path fill="#ffffff" d="M 203.367188 104.734375 C 203.234375 104.734375 203.101562 104.722656 202.96875 104.707031 L 189.769531 102.898438 C 189.386719 102.847656 189.027344 102.726562 188.691406 102.53125 C 188.355469 102.339844 188.066406 102.085938 187.832031 101.777344 C 187.597656 101.472656 187.429688 101.128906 187.332031 100.753906 C 187.230469 100.378906 187.207031 99.996094 187.261719 99.613281 C 187.3125 99.226562 187.4375 98.867188 187.632812 98.535156 C 187.828125 98.199219 188.082031 97.914062 188.390625 97.679688 C 188.703125 97.445312 189.042969 97.28125 189.421875 97.183594 C 189.796875 97.089844 190.175781 97.066406 190.558594 97.125 L 203.757812 98.929688 C 204.125 98.980469 204.46875 99.09375 204.789062 99.273438 C 205.109375 99.457031 205.390625 99.6875 205.621094 99.976562 C 205.855469 100.261719 206.027344 100.582031 206.140625 100.933594 C 206.253906 101.285156 206.296875 101.644531 206.269531 102.015625 C 206.246094 102.382812 206.15625 102.734375 205.996094 103.066406 C 205.839844 103.402344 205.625 103.695312 205.355469 103.949219 C 205.085938 104.199219 204.777344 104.394531 204.433594 104.53125 C 204.09375 104.664062 203.734375 104.734375 203.367188 104.734375 Z M 203.367188 104.734375 " fill-opacity="1" fill-rule="nonzero"/><path fill="#ffffff" d="M 216.207031 91.960938 L 203.363281 91.960938 C 202.976562 91.960938 202.605469 91.886719 202.25 91.738281 C 201.890625 91.59375 201.578125 91.382812 201.304688 91.109375 C 201.03125 90.835938 200.820312 90.519531 200.671875 90.164062 C 200.527344 89.804688 200.453125 89.433594 200.453125 89.046875 C 200.453125 88.660156 200.527344 88.289062 200.671875 87.933594 C 200.820312 87.574219 201.03125 87.257812 201.304688 86.984375 C 201.578125 86.710938 201.890625 86.503906 202.25 86.355469 C 202.605469 86.207031 202.976562 86.132812 203.363281 86.132812 L 216.207031 86.132812 C 216.589844 86.132812 216.960938 86.207031 217.320312 86.355469 C 217.675781 86.503906 217.992188 86.710938 218.261719 86.984375 C 218.535156 87.257812 218.746094 87.574219 218.894531 87.933594 C 219.042969 88.289062 219.117188 88.660156 219.117188 89.046875 C 219.117188 89.433594 219.042969 89.804688 218.894531 90.164062 C 218.746094 90.519531 218.535156 90.835938 218.261719 91.109375 C 217.992188 91.382812 217.675781 91.59375 217.320312 91.738281 C 216.960938 91.886719 216.589844 91.960938 216.207031 91.960938 Z M 216.207031 91.960938 " fill-opacity="1" fill-rule="nonzero"/><path fill="#ffffff" d="M 232.855469 82.050781 C 232.414062 82.050781 231.992188 81.957031 231.597656 81.765625 L 222.007812 77.152344 C 221.65625 76.984375 221.351562 76.757812 221.09375 76.472656 C 220.835938 76.183594 220.640625 75.855469 220.511719 75.492188 C 220.382812 75.125 220.328125 74.75 220.347656 74.363281 C 220.371094 73.976562 220.464844 73.605469 220.632812 73.257812 C 220.800781 72.90625 221.027344 72.601562 221.316406 72.34375 C 221.605469 72.085938 221.933594 71.894531 222.296875 71.765625 C 222.664062 71.640625 223.039062 71.585938 223.425781 71.609375 C 223.8125 71.632812 224.179688 71.726562 224.527344 71.898438 L 234.117188 76.507812 C 234.414062 76.652344 234.679688 76.839844 234.914062 77.074219 C 235.148438 77.308594 235.335938 77.574219 235.480469 77.871094 C 235.621094 78.167969 235.714844 78.480469 235.75 78.808594 C 235.789062 79.136719 235.769531 79.464844 235.695312 79.785156 C 235.621094 80.109375 235.496094 80.410156 235.320312 80.6875 C 235.148438 80.96875 234.929688 81.210938 234.671875 81.417969 C 234.414062 81.621094 234.128906 81.78125 233.816406 81.890625 C 233.503906 81.996094 233.183594 82.050781 232.855469 82.050781 Z M 232.855469 82.050781 " fill-opacity="1" fill-rule="nonzero"/><path fill="#ffffff" d="M 247.308594 79.515625 C 246.75 79.515625 246.234375 79.367188 245.761719 79.070312 C 245.289062 78.773438 244.929688 78.375 244.6875 77.871094 L 240.566406 69.371094 C 240.398438 69.023438 240.300781 68.65625 240.277344 68.269531 C 240.253906 67.882812 240.308594 67.507812 240.433594 67.144531 C 240.558594 66.777344 240.75 66.449219 241.007812 66.160156 C 241.265625 65.871094 241.566406 65.644531 241.914062 65.476562 C 242.261719 65.304688 242.625 65.210938 243.011719 65.1875 C 243.398438 65.164062 243.773438 65.21875 244.136719 65.34375 C 244.503906 65.46875 244.828125 65.660156 245.117188 65.917969 C 245.40625 66.175781 245.632812 66.476562 245.804688 66.824219 L 249.921875 75.328125 C 250.03125 75.550781 250.109375 75.78125 250.160156 76.023438 C 250.207031 76.265625 250.226562 76.511719 250.210938 76.757812 C 250.199219 77.003906 250.15625 77.242188 250.082031 77.480469 C 250.007812 77.714844 249.902344 77.9375 249.773438 78.148438 C 249.640625 78.355469 249.488281 78.546875 249.308594 78.714844 C 249.128906 78.886719 248.933594 79.03125 248.714844 79.148438 C 248.5 79.269531 248.273438 79.359375 248.035156 79.421875 C 247.796875 79.484375 247.554688 79.515625 247.308594 79.515625 Z M 247.308594 79.515625 " fill-opacity="1" fill-rule="nonzero"/><path fill="#ffffff" d="M 261.742188 82.050781 C 261.511719 82.050781 261.285156 82.023438 261.0625 81.96875 C 260.835938 81.917969 260.621094 81.835938 260.417969 81.730469 C 260.214844 81.628906 260.023438 81.5 259.847656 81.347656 C 259.671875 81.199219 259.519531 81.03125 259.382812 80.84375 C 259.25 80.65625 259.136719 80.457031 259.050781 80.246094 C 258.960938 80.03125 258.902344 79.8125 258.867188 79.582031 C 258.832031 79.355469 258.820312 79.125 258.839844 78.898438 C 258.859375 78.667969 258.90625 78.441406 258.976562 78.222656 L 261.671875 70.042969 C 261.792969 69.671875 261.976562 69.339844 262.230469 69.046875 C 262.480469 68.753906 262.777344 68.515625 263.125 68.34375 C 263.46875 68.167969 263.835938 68.066406 264.222656 68.035156 C 264.609375 68.007812 264.984375 68.050781 265.351562 68.171875 C 265.71875 68.296875 266.050781 68.484375 266.34375 68.734375 C 266.636719 68.988281 266.871094 69.289062 267.042969 69.636719 C 267.214844 69.980469 267.316406 70.347656 267.34375 70.734375 C 267.371094 71.121094 267.324219 71.5 267.199219 71.867188 L 264.507812 80.050781 C 264.410156 80.339844 264.273438 80.609375 264.089844 80.855469 C 263.910156 81.105469 263.695312 81.320312 263.449219 81.5 C 263.199219 81.679688 262.929688 81.816406 262.636719 81.910156 C 262.347656 82.003906 262.046875 82.050781 261.742188 82.050781 Z M 261.742188 82.050781 " fill-opacity="1" fill-rule="nonzero"/><path fill="#ffffff" d="M 273.621094 88.683594 C 273.292969 88.683594 272.976562 88.628906 272.667969 88.523438 C 272.359375 88.417969 272.078125 88.261719 271.820312 88.0625 C 271.5625 87.859375 271.347656 87.621094 271.171875 87.347656 C 270.996094 87.074219 270.867188 86.777344 270.789062 86.460938 C 270.710938 86.140625 270.6875 85.820312 270.71875 85.496094 C 270.75 85.171875 270.832031 84.859375 270.96875 84.5625 C 271.101562 84.265625 271.285156 83.996094 271.507812 83.761719 C 271.734375 83.523438 271.988281 83.332031 272.28125 83.179688 L 282.027344 78.128906 C 282.371094 77.945312 282.738281 77.835938 283.125 77.800781 C 283.511719 77.761719 283.890625 77.804688 284.261719 77.917969 C 284.632812 78.035156 284.964844 78.21875 285.265625 78.46875 C 285.5625 78.71875 285.800781 79.015625 285.976562 79.363281 C 286.15625 79.707031 286.261719 80.074219 286.292969 80.460938 C 286.328125 80.847656 286.28125 81.226562 286.164062 81.597656 C 286.042969 81.96875 285.855469 82.300781 285.605469 82.597656 C 285.351562 82.894531 285.050781 83.128906 284.703125 83.304688 L 274.957031 88.355469 C 274.539062 88.574219 274.09375 88.683594 273.621094 88.683594 Z M 273.621094 88.683594 " fill-opacity="1" fill-rule="nonzero"/><path fill="#ffffff" d="M 294.539062 99.625 L 283.367188 99.625 C 282.980469 99.625 282.609375 99.550781 282.253906 99.402344 C 281.894531 99.257812 281.582031 99.046875 281.308594 98.773438 C 281.035156 98.5 280.824219 98.183594 280.675781 97.828125 C 280.527344 97.46875 280.457031 97.097656 280.457031 96.710938 C 280.457031 96.324219 280.527344 95.953125 280.675781 95.597656 C 280.824219 95.238281 281.035156 94.921875 281.308594 94.648438 C 281.582031 94.378906 281.894531 94.167969 282.253906 94.019531 C 282.609375 93.871094 282.980469 93.796875 283.367188 93.796875 L 294.539062 93.796875 C 294.925781 93.796875 295.296875 93.871094 295.65625 94.019531 C 296.011719 94.167969 296.324219 94.378906 296.597656 94.648438 C 296.871094 94.921875 297.082031 95.238281 297.230469 95.597656 C 297.378906 95.953125 297.453125 96.324219 297.453125 96.710938 C 297.453125 97.097656 297.378906 97.46875 297.230469 97.828125 C 297.082031 98.183594 296.871094 98.5 296.597656 98.773438 C 296.324219 99.046875 296.011719 99.257812 295.65625 99.402344 C 295.296875 99.550781 294.925781 99.625 294.539062 99.625 Z M 294.539062 99.625 " fill-opacity="1" fill-rule="nonzero"/><g clip-path="url(#47c8ec2a9a)"><path fill="#ffffff" d="M 297.871094 116.957031 C 297.5625 116.957031 297.261719 116.910156 296.96875 116.8125 L 288.050781 113.898438 C 287.683594 113.777344 287.355469 113.59375 287.066406 113.339844 C 286.773438 113.089844 286.539062 112.792969 286.367188 112.449219 C 286.191406 112.101562 286.089844 111.738281 286.0625 111.355469 C 286.03125 110.96875 286.078125 110.59375 286.195312 110.226562 C 286.316406 109.863281 286.5 109.53125 286.75 109.238281 C 287 108.945312 287.296875 108.710938 287.640625 108.535156 C 287.984375 108.359375 288.347656 108.257812 288.730469 108.226562 C 289.117188 108.195312 289.492188 108.238281 289.855469 108.359375 L 298.773438 111.273438 C 299.101562 111.378906 299.402344 111.542969 299.675781 111.757812 C 299.949219 111.972656 300.175781 112.226562 300.355469 112.523438 C 300.535156 112.820312 300.660156 113.136719 300.726562 113.476562 C 300.792969 113.816406 300.800781 114.160156 300.746094 114.5 C 300.691406 114.84375 300.582031 115.167969 300.410156 115.46875 C 300.242188 115.773438 300.023438 116.035156 299.761719 116.261719 C 299.496094 116.488281 299.203125 116.660156 298.878906 116.78125 C 298.554688 116.898438 298.21875 116.960938 297.871094 116.957031 Z M 297.871094 116.957031 " fill-opacity="1" fill-rule="nonzero"/></g><path fill="#ffffff" d="M 295.730469 140.289062 C 295.285156 140.289062 294.863281 140.191406 294.460938 139.996094 C 294.058594 139.804688 293.722656 139.53125 293.445312 139.179688 L 286.386719 130.226562 C 286.148438 129.921875 285.976562 129.585938 285.871094 129.210938 C 285.765625 128.839844 285.734375 128.464844 285.78125 128.078125 C 285.824219 127.695312 285.941406 127.335938 286.132812 126.996094 C 286.320312 126.660156 286.566406 126.371094 286.867188 126.132812 C 287.171875 125.894531 287.507812 125.71875 287.878906 125.613281 C 288.25 125.511719 288.628906 125.480469 289.011719 125.523438 C 289.394531 125.570312 289.753906 125.6875 290.09375 125.875 C 290.429688 126.066406 290.71875 126.3125 290.957031 126.613281 L 298.015625 135.566406 C 298.359375 136.003906 298.5625 136.503906 298.625 137.058594 C 298.683594 137.613281 298.59375 138.140625 298.351562 138.644531 C 298.105469 139.144531 297.75 139.546875 297.277344 139.84375 C 296.804688 140.140625 296.289062 140.289062 295.730469 140.289062 Z M 295.730469 140.289062 " fill-opacity="1" fill-rule="nonzero"/><path fill="#ffffff" d="M 285.265625 161.953125 C 284.953125 161.949219 284.644531 161.902344 284.34375 161.800781 C 284.046875 161.699219 283.769531 161.554688 283.519531 161.367188 C 283.265625 161.175781 283.050781 160.949219 282.871094 160.691406 C 282.691406 160.429688 282.558594 160.148438 282.472656 159.847656 L 278.320312 145.480469 C 278.210938 145.109375 278.175781 144.730469 278.214844 144.34375 C 278.253906 143.957031 278.367188 143.589844 278.554688 143.25 C 278.738281 142.90625 278.984375 142.613281 279.285156 142.371094 C 279.589844 142.128906 279.925781 141.953125 280.300781 141.84375 C 280.675781 141.734375 281.054688 141.703125 281.441406 141.746094 C 281.824219 141.792969 282.1875 141.910156 282.527344 142.097656 C 282.867188 142.289062 283.15625 142.535156 283.398438 142.839844 C 283.636719 143.148438 283.808594 143.488281 283.914062 143.863281 L 288.066406 158.226562 C 288.128906 158.441406 288.164062 158.664062 288.175781 158.890625 C 288.1875 159.117188 288.171875 159.339844 288.128906 159.5625 C 288.089844 159.785156 288.023438 160 287.933594 160.207031 C 287.84375 160.414062 287.730469 160.605469 287.59375 160.789062 C 287.457031 160.96875 287.304688 161.128906 287.128906 161.277344 C 286.957031 161.421875 286.769531 161.542969 286.566406 161.644531 C 286.367188 161.746094 286.15625 161.820312 285.933594 161.875 C 285.714844 161.925781 285.492188 161.953125 285.265625 161.953125 Z M 285.265625 161.953125 " fill-opacity="1" fill-rule="nonzero"/><path fill="#ffffff" d="M 271.539062 174.359375 C 271.207031 174.359375 270.886719 174.304688 270.574219 174.191406 C 270.261719 174.082031 269.976562 173.921875 269.71875 173.714844 C 269.460938 173.507812 269.246094 173.261719 269.070312 172.980469 C 268.894531 172.699219 268.773438 172.398438 268.699219 172.074219 L 266.039062 160.039062 C 265.957031 159.664062 265.949219 159.285156 266.019531 158.90625 C 266.085938 158.523438 266.222656 158.171875 266.433594 157.847656 C 266.640625 157.523438 266.902344 157.25 267.21875 157.027344 C 267.53125 156.808594 267.878906 156.65625 268.253906 156.570312 C 268.632812 156.488281 269.011719 156.480469 269.390625 156.546875 C 269.769531 156.613281 270.121094 156.75 270.445312 156.957031 C 270.773438 157.164062 271.046875 157.425781 271.265625 157.742188 C 271.488281 158.058594 271.640625 158.40625 271.726562 158.78125 L 274.382812 170.816406 C 274.429688 171.027344 274.453125 171.242188 274.453125 171.460938 C 274.449219 171.679688 274.425781 171.894531 274.375 172.105469 C 274.324219 172.320312 274.253906 172.523438 274.15625 172.71875 C 274.0625 172.914062 273.945312 173.097656 273.808594 173.269531 C 273.671875 173.4375 273.519531 173.59375 273.347656 173.726562 C 273.179688 173.863281 272.996094 173.976562 272.796875 174.070312 C 272.601562 174.167969 272.398438 174.238281 272.183594 174.285156 C 271.972656 174.335938 271.757812 174.359375 271.539062 174.359375 Z M 271.539062 174.359375 " fill-opacity="1" fill-rule="nonzero"/><path fill="#ffffff" d="M 257.367188 193.617188 C 257.027344 193.613281 256.699219 193.558594 256.378906 193.441406 C 256.0625 193.324219 255.773438 193.160156 255.511719 192.941406 C 255.25 192.722656 255.035156 192.46875 254.863281 192.175781 C 254.691406 191.882812 254.574219 191.570312 254.511719 191.234375 L 252.0625 178.101562 C 251.988281 177.71875 251.992188 177.339844 252.070312 176.960938 C 252.148438 176.578125 252.296875 176.230469 252.515625 175.90625 C 252.730469 175.585938 253.003906 175.320312 253.328125 175.109375 C 253.652344 174.894531 254.003906 174.753906 254.386719 174.683594 C 254.765625 174.613281 255.148438 174.617188 255.527344 174.699219 C 255.90625 174.777344 256.253906 174.929688 256.574219 175.148438 C 256.890625 175.371094 257.15625 175.644531 257.367188 175.96875 C 257.578125 176.296875 257.714844 176.648438 257.785156 177.03125 L 260.234375 190.164062 C 260.273438 190.375 260.289062 190.589844 260.28125 190.800781 C 260.273438 191.015625 260.242188 191.226562 260.1875 191.433594 C 260.136719 191.640625 260.058594 191.839844 259.960938 192.03125 C 259.863281 192.222656 259.746094 192.398438 259.609375 192.5625 C 259.472656 192.730469 259.320312 192.875 259.152344 193.007812 C 258.980469 193.140625 258.800781 193.25 258.605469 193.339844 C 258.414062 193.429688 258.210938 193.5 258.003906 193.546875 C 257.792969 193.59375 257.582031 193.617188 257.367188 193.617188 Z M 257.367188 193.617188 " fill-opacity="1" fill-rule="nonzero"/><path fill="#ffffff" d="M 242.230469 215.039062 C 241.859375 215.039062 241.503906 214.972656 241.160156 214.835938 C 240.816406 214.699219 240.507812 214.503906 240.238281 214.25 C 239.96875 213.996094 239.753906 213.699219 239.597656 213.363281 C 239.441406 213.027344 239.351562 212.675781 239.328125 212.304688 L 238.363281 196.582031 C 238.339844 196.195312 238.390625 195.820312 238.515625 195.453125 C 238.640625 195.089844 238.832031 194.761719 239.085938 194.472656 C 239.34375 194.183594 239.644531 193.953125 239.988281 193.785156 C 240.335938 193.613281 240.703125 193.515625 241.089844 193.492188 C 241.472656 193.46875 241.847656 193.519531 242.214844 193.644531 C 242.578125 193.773438 242.90625 193.960938 243.195312 194.21875 C 243.484375 194.476562 243.714844 194.777344 243.882812 195.125 C 244.050781 195.472656 244.148438 195.835938 244.171875 196.222656 L 245.140625 211.945312 C 245.164062 212.332031 245.113281 212.707031 244.988281 213.074219 C 244.859375 213.4375 244.671875 213.765625 244.414062 214.054688 C 244.160156 214.347656 243.859375 214.574219 243.511719 214.746094 C 243.164062 214.914062 242.796875 215.011719 242.414062 215.035156 C 242.351562 215.039062 242.292969 215.039062 242.230469 215.039062 Z M 242.230469 215.039062 " fill-opacity="1" fill-rule="nonzero"/><path fill="#ffffff" d="M 227.25 235.753906 C 226.890625 235.75 226.539062 235.6875 226.203125 235.554688 C 225.867188 235.425781 225.5625 235.238281 225.296875 234.992188 C 225.027344 234.75 224.8125 234.464844 224.652344 234.140625 C 224.488281 233.816406 224.390625 233.476562 224.359375 233.113281 L 222.914062 217.996094 C 222.878906 217.613281 222.917969 217.234375 223.03125 216.867188 C 223.144531 216.496094 223.324219 216.164062 223.570312 215.867188 C 223.816406 215.570312 224.109375 215.332031 224.449219 215.148438 C 224.789062 214.96875 225.152344 214.859375 225.535156 214.824219 C 225.917969 214.785156 226.296875 214.824219 226.664062 214.9375 C 227.03125 215.050781 227.367188 215.230469 227.664062 215.476562 C 227.960938 215.722656 228.199219 216.015625 228.382812 216.355469 C 228.5625 216.695312 228.671875 217.058594 228.710938 217.441406 L 230.152344 232.558594 C 230.1875 232.945312 230.148438 233.320312 230.039062 233.691406 C 229.925781 234.0625 229.746094 234.394531 229.5 234.691406 C 229.253906 234.992188 228.960938 235.230469 228.617188 235.410156 C 228.277344 235.59375 227.914062 235.703125 227.53125 235.738281 C 227.4375 235.746094 227.34375 235.753906 227.25 235.753906 Z M 227.25 235.753906 " fill-opacity="1" fill-rule="nonzero"/><path fill="#ffffff" d="M 210.5625 255.988281 C 210.175781 255.988281 209.804688 255.914062 209.449219 255.765625 C 209.09375 255.617188 208.777344 255.40625 208.503906 255.132812 C 208.230469 254.859375 208.023438 254.546875 207.875 254.1875 C 207.726562 253.832031 207.652344 253.460938 207.652344 253.074219 L 207.652344 238.753906 C 207.652344 238.367188 207.726562 237.996094 207.875 237.636719 C 208.023438 237.28125 208.230469 236.964844 208.503906 236.691406 C 208.777344 236.417969 209.09375 236.207031 209.449219 236.0625 C 209.804688 235.914062 210.175781 235.839844 210.5625 235.839844 C 210.949219 235.839844 211.320312 235.914062 211.675781 236.0625 C 212.035156 236.207031 212.347656 236.417969 212.621094 236.691406 C 212.894531 236.964844 213.105469 237.28125 213.253906 237.636719 C 213.398438 237.996094 213.472656 238.367188 213.472656 238.753906 L 213.472656 253.074219 C 213.472656 253.460938 213.398438 253.832031 213.253906 254.1875 C 213.105469 254.546875 212.894531 254.859375 212.621094 255.132812 C 212.347656 255.40625 212.035156 255.617188 211.675781 255.765625 C 211.320312 255.914062 210.949219 255.988281 210.5625 255.988281 Z M 210.5625 255.988281 " fill-opacity="1" fill-rule="nonzero"/><path fill="#ffffff" d="M 193.023438 277.414062 C 192.8125 277.414062 192.609375 277.394531 192.40625 277.347656 C 192.203125 277.304688 192.007812 277.242188 191.820312 277.15625 C 191.628906 277.070312 191.453125 276.964844 191.285156 276.839844 C 191.121094 276.71875 190.96875 276.578125 190.832031 276.421875 C 190.695312 276.265625 190.574219 276.097656 190.472656 275.914062 C 190.375 275.734375 190.292969 275.542969 190.234375 275.34375 C 190.171875 275.144531 190.132812 274.941406 190.117188 274.734375 C 190.101562 274.527344 190.105469 274.324219 190.132812 274.117188 L 192.578125 255.648438 C 192.625 255.261719 192.746094 254.902344 192.941406 254.566406 C 193.132812 254.230469 193.382812 253.941406 193.6875 253.707031 C 193.996094 253.46875 194.335938 253.300781 194.710938 253.199219 C 195.085938 253.101562 195.464844 253.074219 195.847656 253.125 C 196.230469 253.175781 196.589844 253.300781 196.925781 253.496094 C 197.261719 253.6875 197.546875 253.941406 197.78125 254.25 C 198.015625 254.558594 198.179688 254.898438 198.28125 255.273438 C 198.378906 255.648438 198.402344 256.027344 198.347656 256.414062 L 195.902344 274.882812 C 195.855469 275.234375 195.75 275.5625 195.585938 275.875 C 195.417969 276.1875 195.203125 276.457031 194.9375 276.691406 C 194.671875 276.921875 194.375 277.101562 194.046875 277.226562 C 193.714844 277.351562 193.375 277.414062 193.023438 277.414062 Z M 193.023438 277.414062 " fill-opacity="1" fill-rule="nonzero"/><path fill="#ffffff" d="M 170.90625 285.746094 C 170.667969 285.746094 170.429688 285.714844 170.199219 285.660156 C 169.96875 285.601562 169.746094 285.515625 169.535156 285.402344 C 169.324219 285.289062 169.132812 285.152344 168.953125 284.992188 C 168.777344 284.832031 168.621094 284.652344 168.488281 284.453125 C 168.355469 284.253906 168.25 284.042969 168.167969 283.820312 C 168.085938 283.59375 168.035156 283.363281 168.011719 283.125 C 167.988281 282.886719 167.992188 282.648438 168.027344 282.414062 C 168.058594 282.175781 168.121094 281.949219 168.214844 281.726562 L 173.644531 268.445312 C 173.789062 268.085938 174 267.765625 174.269531 267.492188 C 174.542969 267.214844 174.855469 267 175.214844 266.847656 C 175.570312 266.699219 175.941406 266.621094 176.332031 266.617188 C 176.71875 266.617188 177.089844 266.6875 177.449219 266.835938 C 177.808594 266.984375 178.125 267.195312 178.398438 267.46875 C 178.675781 267.742188 178.886719 268.058594 179.035156 268.417969 C 179.183594 268.773438 179.257812 269.148438 179.257812 269.535156 C 179.257812 269.925781 179.183594 270.296875 179.03125 270.65625 L 173.601562 283.933594 C 173.375 284.484375 173.019531 284.921875 172.527344 285.25 C 172.039062 285.582031 171.496094 285.746094 170.90625 285.746094 Z M 170.90625 285.746094 " fill-opacity="1" fill-rule="nonzero"/><path fill="#ffffff" d="M 150.21875 292.410156 C 149.972656 292.410156 149.730469 292.378906 149.488281 292.316406 C 149.25 292.253906 149.023438 292.164062 148.808594 292.042969 C 148.589844 291.921875 148.394531 291.777344 148.214844 291.609375 C 148.035156 291.4375 147.882812 291.246094 147.75 291.035156 C 147.621094 290.828125 147.519531 290.601562 147.445312 290.367188 C 147.371094 290.132812 147.328125 289.890625 147.316406 289.640625 C 147.300781 289.394531 147.320312 289.152344 147.371094 288.910156 C 147.421875 288.664062 147.5 288.433594 147.609375 288.210938 L 153.386719 276.429688 C 153.558594 276.085938 153.789062 275.789062 154.078125 275.535156 C 154.371094 275.28125 154.695312 275.09375 155.0625 274.972656 C 155.425781 274.847656 155.796875 274.800781 156.183594 274.824219 C 156.566406 274.851562 156.929688 274.949219 157.273438 275.117188 C 157.621094 275.285156 157.917969 275.515625 158.171875 275.804688 C 158.429688 276.09375 158.617188 276.417969 158.742188 276.78125 C 158.867188 277.148438 158.917969 277.519531 158.898438 277.90625 C 158.875 278.289062 158.78125 278.65625 158.613281 279 L 152.835938 290.78125 C 152.589844 291.28125 152.230469 291.675781 151.761719 291.972656 C 151.289062 292.265625 150.773438 292.414062 150.21875 292.410156 Z M 150.21875 292.410156 " fill-opacity="1" fill-rule="nonzero"/><path fill="#ffffff" d="M 130.011719 299.296875 C 129.777344 299.296875 129.550781 299.269531 129.324219 299.210938 C 129.097656 299.15625 128.878906 299.074219 128.671875 298.96875 C 128.464844 298.859375 128.273438 298.730469 128.097656 298.578125 C 127.921875 298.425781 127.769531 298.25 127.632812 298.0625 C 127.5 297.871094 127.390625 297.667969 127.304688 297.449219 C 127.21875 297.230469 127.160156 297.007812 127.128906 296.777344 C 127.097656 296.546875 127.09375 296.3125 127.117188 296.082031 C 127.140625 295.847656 127.191406 295.625 127.269531 295.402344 L 132.082031 281.855469 C 132.214844 281.492188 132.40625 281.164062 132.667969 280.878906 C 132.925781 280.59375 133.230469 280.367188 133.578125 280.203125 C 133.925781 280.035156 134.292969 279.945312 134.675781 279.925781 C 135.0625 279.90625 135.4375 279.960938 135.800781 280.089844 C 136.164062 280.21875 136.488281 280.414062 136.773438 280.671875 C 137.058594 280.929688 137.285156 281.234375 137.453125 281.582031 C 137.617188 281.929688 137.710938 282.296875 137.730469 282.683594 C 137.75 283.070312 137.695312 283.445312 137.570312 283.808594 L 132.753906 297.355469 C 132.546875 297.9375 132.195312 298.40625 131.691406 298.761719 C 131.1875 299.117188 130.628906 299.296875 130.011719 299.296875 Z M 130.011719 299.296875 " fill-opacity="1" fill-rule="nonzero"/><path fill="#ffffff" d="M 111.597656 302.410156 C 111.371094 302.410156 111.144531 302.382812 110.921875 302.332031 C 110.703125 302.277344 110.488281 302.199219 110.285156 302.097656 C 110.082031 301.992188 109.894531 301.867188 109.71875 301.722656 C 109.542969 301.574219 109.390625 301.410156 109.253906 301.222656 C 109.121094 301.039062 109.007812 300.84375 108.917969 300.632812 C 108.828125 300.421875 108.765625 300.207031 108.726562 299.980469 C 108.6875 299.757812 108.675781 299.53125 108.691406 299.300781 C 108.707031 299.074219 108.75 298.851562 108.816406 298.632812 L 112.523438 286.628906 C 112.636719 286.261719 112.816406 285.925781 113.0625 285.628906 C 113.308594 285.332031 113.605469 285.089844 113.945312 284.910156 C 114.285156 284.730469 114.648438 284.621094 115.035156 284.585938 C 115.417969 284.550781 115.796875 284.589844 116.164062 284.703125 C 116.535156 284.816406 116.867188 285 117.164062 285.246094 C 117.460938 285.492188 117.699219 285.785156 117.878906 286.128906 C 118.058594 286.472656 118.167969 286.835938 118.203125 287.21875 C 118.238281 287.605469 118.199219 287.984375 118.085938 288.351562 L 114.378906 300.355469 C 114.285156 300.652344 114.148438 300.929688 113.96875 301.183594 C 113.789062 301.4375 113.574219 301.65625 113.324219 301.839844 C 113.074219 302.023438 112.800781 302.167969 112.507812 302.261719 C 112.210938 302.359375 111.910156 302.410156 111.597656 302.410156 Z M 111.597656 302.410156 " fill-opacity="1" fill-rule="nonzero"/></svg>