<svg xmlns="http://www.w3.org/2000/svg" xmlns:xlink="http://www.w3.org/1999/xlink" width="500" zoomAndPan="magnify" viewBox="0 0 375 374.999991" height="500" preserveAspectRatio="xMidYMid meet" version="1.0"><defs><clipPath id="3a7c2c5be3"><path d="M 187.5 0 C 83.945312 0 0 83.945312 0 187.5 C 0 291.054688 83.945312 375 187.5 375 C 291.054688 375 375 291.054688 375 187.5 C 375 83.945312 291.054688 0 187.5 0 Z M 187.5 0 " clip-rule="nonzero"/></clipPath><clipPath id="6b32fb042e"><path d="M 78.261719 69 L 316.644531 69 L 316.644531 295.351562 L 78.261719 295.351562 Z M 78.261719 69 " clip-rule="nonzero"/></clipPath></defs><rect x="-37.5" width="450" fill="#ffffff" y="-37.499999" height="449.999989" fill-opacity="1"/><rect x="-37.5" width="450" fill="#ffffff" y="-37.499999" height="449.999989" fill-opacity="1"/><g clip-path="url(#3a7c2c5be3)"><rect x="-37.5" width="450" fill="#fec743" y="-37.499999" height="449.999989" fill-opacity="1"/></g><path fill="#ffffff" d="M 103.476562 128.523438 C 104.449219 127.546875 105.910156 127.0625 108.34375 126.816406 C 108.34375 126.816406 108.34375 126.816406 108.585938 126.816406 C 111.019531 127.0625 112.480469 127.546875 113.453125 128.523438 C 113.9375 129.007812 113.9375 129.496094 114.183594 129.984375 C 114.183594 130.714844 114.183594 132.175781 111.992188 133.636719 C 110.289062 134.855469 109.558594 135.097656 109.558594 135.097656 L 109.316406 135.339844 C 109.074219 135.339844 108.828125 135.585938 108.828125 135.585938 C 108.828125 135.585938 108.585938 135.585938 108.585938 135.585938 C 108.34375 135.585938 108.097656 135.585938 107.855469 135.339844 L 104.9375 133.394531 C 104.207031 133.148438 102.988281 131.929688 103.234375 129.984375 C 102.988281 129.738281 102.988281 129.253906 103.476562 128.523438 Z M 105.910156 130.714844 C 105.910156 130.957031 106.152344 130.957031 105.910156 130.714844 L 108.585938 132.417969 C 109.074219 132.175781 109.558594 131.6875 110.53125 131.199219 C 111.019531 130.957031 111.261719 130.714844 111.261719 130.46875 C 111.019531 130.226562 110.289062 129.984375 108.585938 129.984375 C 106.882812 129.984375 106.152344 130.46875 105.910156 130.46875 C 105.910156 130.714844 105.910156 130.714844 105.910156 130.714844 Z M 105.910156 130.714844 " fill-opacity="1" fill-rule="nonzero"/><path fill="#ffffff" d="M 120.023438 115.855469 C 120.023438 116.246094 120.097656 116.617188 120.242188 116.976562 C 120.390625 117.332031 120.601562 117.648438 120.878906 117.925781 C 121.152344 118.199219 121.464844 118.410156 121.824219 118.558594 C 122.183594 118.707031 122.554688 118.78125 122.941406 118.78125 C 123.328125 118.78125 123.703125 118.707031 124.058594 118.558594 C 124.417969 118.410156 124.730469 118.199219 125.007812 117.925781 C 125.28125 117.648438 125.492188 117.332031 125.640625 116.976562 C 125.789062 116.617188 125.863281 116.246094 125.863281 115.855469 C 125.863281 115.46875 125.789062 115.097656 125.640625 114.738281 C 125.492188 114.382812 125.28125 114.066406 125.007812 113.789062 C 124.730469 113.515625 124.417969 113.304688 124.058594 113.15625 C 123.703125 113.007812 123.328125 112.933594 122.941406 112.933594 C 122.554688 112.933594 122.183594 113.007812 121.824219 113.15625 C 121.464844 113.304688 121.152344 113.515625 120.878906 113.789062 C 120.601562 114.066406 120.390625 114.382812 120.242188 114.738281 C 120.097656 115.097656 120.023438 115.46875 120.023438 115.855469 Z M 120.023438 115.855469 " fill-opacity="1" fill-rule="nonzero"/><path fill="#ffffff" d="M 102.261719 112.691406 C 103.964844 112.691406 104.691406 113.910156 104.691406 115.613281 C 104.691406 117.320312 103.71875 118.535156 102.261719 118.535156 C 100.554688 118.535156 99.339844 117.320312 99.339844 115.613281 C 99.339844 114.152344 100.800781 112.691406 102.261719 112.691406 Z M 102.261719 112.691406 " fill-opacity="1" fill-rule="nonzero"/><g clip-path="url(#6b32fb042e)"><path fill="#ffffff" d="M 78.660156 69.828125 C 79.144531 69.339844 79.632812 69.339844 80.363281 69.339844 C 82.308594 68.851562 85.957031 69.828125 94.472656 75.671875 C 103.476562 82.003906 107.613281 88.578125 109.558594 92.71875 C 111.261719 92.234375 113.207031 91.988281 114.914062 91.988281 C 116.859375 91.988281 118.5625 92.234375 120.265625 92.71875 C 120.996094 91.257812 121.726562 89.554688 122.210938 87.847656 C 123.671875 81.515625 133.648438 69.339844 142.894531 69.339844 C 143.378906 69.339844 143.867188 69.582031 144.351562 70.070312 C 144.597656 70.558594 149.707031 81.03125 142.40625 95.644531 C 141.433594 97.589844 139.972656 99.539062 138.027344 101 C 136.808594 101.976562 135.351562 103.4375 134.132812 104.898438 C 136.082031 108.0625 138.515625 113.421875 138.757812 122.191406 C 139 124.136719 139.242188 125.84375 139.488281 127.546875 C 140.21875 134.609375 141.675781 135.828125 144.351562 136.800781 C 144.597656 137.046875 146.542969 137.289062 147.757812 137.777344 C 149.707031 138.265625 151.652344 138.75 153.113281 139.238281 C 154.574219 139.726562 157.25 140.210938 160.65625 140.941406 C 173.308594 143.136719 196.910156 147.273438 215.402344 161.402344 C 226.835938 170.167969 234.378906 183.078125 236.8125 197.691406 C 241.921875 229.351562 247.519531 251.269531 252.140625 257.601562 C 257.007812 264.421875 273.066406 266.855469 288.394531 269.050781 C 296.183594 270.265625 303.726562 271.242188 309.808594 272.945312 C 309.808594 272.945312 309.808594 272.945312 310.050781 272.945312 C 311.023438 273.433594 315.890625 275.382812 316.378906 278.792969 C 316.621094 280.738281 315.648438 282.199219 313.699219 283.417969 C 311.996094 284.394531 310.050781 284.148438 306.402344 283.664062 C 302.507812 283.175781 295.9375 282.445312 284.988281 282.445312 L 282.3125 282.445312 C 262.359375 282.445312 246.546875 282.445312 239.003906 277.574219 C 228.539062 272.460938 223.429688 260.039062 219.292969 250.050781 C 217.835938 246.398438 216.375 242.988281 214.914062 240.3125 C 212.726562 236.65625 211.75 235.195312 209.320312 234.710938 C 207.859375 234.464844 206.15625 234.464844 203.480469 234.464844 C 201.777344 234.464844 199.585938 234.222656 197.640625 233.976562 C 194.234375 247.128906 192.53125 271.972656 193.988281 281.714844 C 194.476562 286.339844 193.503906 289.75 191.070312 292.1875 C 188.394531 294.867188 184.5 295.351562 181.824219 295.351562 C 180.363281 295.351562 179.148438 295.109375 178.902344 295.109375 L 119.535156 295.109375 C 117.832031 295.109375 116.128906 294.136719 115.398438 292.429688 C 114.667969 290.96875 114.667969 289.019531 115.886719 287.558594 C 117.34375 285.609375 123.183594 284.394531 142.648438 282.199219 C 147.757812 281.957031 156.519531 281.226562 163.332031 279.277344 L 109.316406 279.277344 C 107.613281 279.277344 105.910156 278.304688 105.179688 276.597656 C 104.449219 275.136719 104.449219 273.191406 105.667969 271.726562 C 107.371094 269.535156 115.398438 268.320312 132.429688 265.882812 C 140.21875 264.910156 148.488281 263.691406 150.679688 262.71875 C 151.652344 262.472656 152.625 261.742188 153.597656 261.253906 C 157.734375 258.332031 160.167969 253.460938 160.167969 248.105469 C 160.167969 242.746094 159.4375 233.246094 156.277344 218.390625 C 151.894531 215.710938 147.757812 213.035156 144.109375 210.109375 C 141.433594 207.917969 138.757812 205.96875 136.082031 203.535156 L 133.648438 202.074219 C 132.675781 204.996094 131.945312 207.1875 131.699219 208.164062 C 133.160156 212.789062 135.105469 220.582031 132.917969 222.773438 C 132.429688 223.261719 131.457031 223.75 129.753906 223.261719 C 129.511719 223.503906 129.023438 223.503906 128.78125 223.503906 C 127.566406 223.503906 125.375 223.75 124.402344 221.070312 C 124.15625 221.070312 123.914062 221.070312 123.671875 221.070312 C 122.210938 220.582031 120.996094 218.636719 120.75 218.148438 C 120.75 217.902344 120.507812 217.660156 120.507812 217.417969 L 120.507812 212.300781 C 120.265625 207.1875 120.996094 202.316406 123.183594 196.226562 C 123.429688 195.742188 123.429688 195.011719 123.671875 193.550781 C 118.320312 189.894531 115.15625 184.78125 113.207031 180.886719 C 112.480469 184.539062 111.503906 188.433594 111.261719 189.652344 C 111.75 190.871094 112.964844 193.304688 114.183594 198.421875 C 115.398438 204.023438 117.589844 205.238281 117.589844 205.238281 C 118.074219 205.484375 118.320312 205.96875 118.320312 206.457031 C 118.320312 206.945312 118.074219 207.429688 117.832031 207.675781 C 116.859375 208.40625 115.886719 208.894531 114.914062 208.894531 C 115.398438 209.136719 115.886719 209.867188 115.640625 210.597656 C 115.398438 211.328125 114.914062 211.816406 114.183594 211.816406 C 111.75 211.816406 108.585938 211.570312 106.152344 209.136719 C 104.207031 207.1875 103.476562 204.265625 103.476562 199.882812 C 103.71875 191.84375 102.503906 182.101562 102.257812 181.128906 C 98.851562 170.414062 102.015625 160.425781 104.207031 153.121094 C 104.449219 152.390625 104.691406 151.902344 104.691406 151.171875 C 104.449219 149.46875 103.964844 147.761719 103.71875 145.8125 C 92.039062 136.558594 90.335938 120.242188 95.445312 109.523438 C 95.445312 109.523438 95.445312 109.28125 95.691406 109.28125 C 95.933594 107.089844 96.664062 105.140625 97.636719 103.191406 C 87.902344 100.515625 84.496094 88.824219 82.066406 81.03125 C 81.335938 78.59375 80.605469 76.160156 79.875 75.429688 C 78.902344 73.96875 78.65625 72.75 78.902344 71.53125 C 78.171875 70.800781 78.171875 70.3125 78.660156 69.828125 Z M 92.769531 78.351562 C 89.121094 75.914062 86.6875 74.453125 84.984375 73.480469 C 87.902344 76.402344 92.039062 80.054688 94.230469 82.246094 C 97.148438 85.171875 101.042969 92.964844 102.746094 96.375 C 104.207031 95.398438 105.667969 94.425781 106.882812 93.9375 C 104.9375 90.285156 100.800781 84.195312 92.769531 78.351562 Z M 136.324219 99.050781 C 137.785156 97.835938 139 96.128906 139.972656 94.667969 C 145.570312 83.710938 143.136719 75.429688 142.164062 72.75 C 134.863281 73.722656 126.589844 83.710938 125.132812 89.066406 C 124.644531 91.015625 123.914062 92.71875 123.183594 94.179688 C 124.644531 94.914062 126.105469 95.886719 127.566406 97.105469 C 128.050781 93.207031 129.023438 87.117188 131.457031 84.195312 C 134.621094 80.542969 136.324219 77.621094 136.324219 77.621094 C 136.808594 76.890625 137.785156 76.644531 138.269531 77.132812 C 139 77.621094 139.242188 78.59375 138.757812 79.082031 C 138.757812 79.324219 136.808594 82.246094 133.648438 85.902344 C 131.457031 88.578125 130.484375 96.128906 130.242188 99.539062 C 131.214844 100.757812 131.945312 101.730469 132.675781 102.707031 C 133.890625 101.246094 135.351562 99.785156 136.324219 99.050781 Z M 154.328125 263.691406 C 153.113281 264.421875 152.140625 265.152344 150.921875 265.640625 C 148.246094 266.613281 140.703125 267.832031 131.945312 268.804688 C 122.699219 270.023438 108.828125 271.972656 107.125 273.433594 C 106.640625 274.164062 106.882812 274.894531 107.125 275.136719 C 107.371094 275.867188 108.097656 276.113281 108.585938 276.113281 L 169.65625 276.113281 C 174.28125 272.460938 174.28125 260.039062 174.523438 249.320312 C 174.523438 245.914062 174.523438 242.746094 174.769531 239.578125 C 175.011719 234.710938 174.039062 230.570312 173.066406 227.644531 L 158.953125 220.097656 C 161.628906 233.734375 162.359375 242.746094 162.359375 248.105469 C 162.117188 254.4375 159.195312 260.28125 154.328125 263.691406 Z M 104.449219 180.398438 C 104.449219 181.128906 105.910156 191.113281 105.667969 200.125 C 105.667969 203.535156 106.152344 205.96875 107.371094 207.1875 C 107.855469 207.675781 108.34375 208.164062 109.316406 208.40625 C 108.828125 207.675781 108.585938 206.699219 108.097656 205.726562 C 107.855469 204.996094 108.097656 204.265625 108.828125 204.023438 C 109.558594 203.777344 110.289062 204.023438 110.777344 204.507812 C 110.777344 204.507812 111.75 205.96875 113.210938 206.214844 C 113.210938 206.214844 113.453125 206.214844 113.453125 206.214844 C 112.480469 204.996094 111.261719 202.804688 110.53125 199.152344 C 109.316406 193.0625 107.855469 190.871094 107.855469 190.871094 C 107.371094 190.140625 107.371094 189.652344 107.371094 189.410156 C 107.371094 189.410156 108.34375 185.753906 109.074219 181.859375 C 108.828125 181.617188 108.828125 181.128906 109.074219 180.886719 L 110.53125 175.769531 C 108.585938 169.679688 106.640625 162.132812 105.421875 157.015625 C 103.476562 163.835938 101.773438 171.875 104.449219 180.398438 Z M 103.234375 141.917969 C 109.074219 146.058594 112.480469 144.109375 117.589844 141.1875 C 119.046875 140.457031 120.507812 139.480469 122.210938 138.75 C 129.269531 135.339844 129.996094 131.199219 129.996094 130.957031 C 129.996094 130.226562 130.726562 129.496094 131.699219 129.738281 C 132.429688 129.738281 133.160156 130.46875 133.160156 131.445312 C 133.160156 131.6875 132.675781 137.289062 123.671875 141.671875 C 121.96875 142.402344 120.75 143.136719 119.292969 144.109375 C 116.128906 145.8125 113.207031 147.519531 109.800781 147.519531 C 108.828125 147.519531 107.613281 147.273438 106.640625 147.03125 C 106.882812 148.25 107.125 149.710938 107.371094 150.929688 C 107.613281 152.144531 110.289062 165.542969 113.453125 174.796875 C 113.453125 175.039062 113.695312 175.039062 113.695312 175.285156 C 114.667969 178.207031 117.34375 185.023438 123.671875 189.894531 L 124.402344 184.78125 C 124.402344 184.78125 124.402344 184.539062 124.402344 184.539062 L 124.402344 183.5625 C 123.914062 182.101562 120.996094 176.746094 118.5625 172.359375 C 118.074219 171.628906 118.320312 170.65625 119.046875 170.414062 C 119.777344 169.925781 120.75 170.167969 120.996094 170.898438 C 127.808594 182.589844 127.320312 183.5625 127.078125 184.292969 L 126.835938 185.023438 L 125.863281 192.574219 C 125.617188 194.523438 125.375 195.984375 125.132812 196.960938 C 123.183594 202.5625 122.210938 206.945312 122.699219 211.816406 L 122.699219 216.6875 C 122.941406 216.929688 123.183594 217.417969 123.429688 217.660156 C 123.671875 217.417969 123.914062 217.417969 124.15625 217.417969 C 124.644531 217.417969 125.132812 217.417969 125.375 217.660156 C 125.617188 217.902344 125.863281 218.148438 125.863281 218.390625 C 126.105469 218.878906 126.105469 219.367188 126.347656 219.609375 C 126.589844 220.097656 126.589844 220.339844 127.320312 220.339844 C 127.566406 220.097656 127.566406 220.097656 127.808594 219.851562 C 128.292969 219.609375 128.78125 219.609375 129.269531 219.851562 C 129.511719 220.097656 129.753906 220.097656 130.242188 220.339844 C 130.242188 220.339844 130.242188 220.339844 130.484375 220.339844 C 130.972656 218.878906 129.996094 213.765625 128.292969 208.648438 C 128.292969 208.40625 128.292969 208.164062 128.292969 207.917969 C 128.292969 207.675781 129.269531 204.265625 130.972656 199.882812 C 130.972656 199.636719 130.972656 199.636719 131.214844 199.394531 L 131.457031 198.664062 C 131.457031 198.421875 131.699219 198.175781 131.945312 198.175781 C 136.082031 191.113281 140.460938 182.101562 140.703125 178.207031 C 141.191406 172.847656 137.785156 160.183594 137.785156 159.941406 C 137.539062 159.210938 138.027344 158.234375 138.757812 157.992188 C 139.488281 157.746094 140.460938 158.234375 140.703125 158.964844 C 140.945312 159.453125 144.351562 172.359375 143.867188 178.207031 C 143.378906 183.5625 137.054688 195.011719 134.863281 199.152344 L 137.785156 200.855469 C 137.785156 200.855469 137.785156 200.855469 138.027344 201.097656 C 140.703125 203.292969 143.136719 205.484375 146.054688 207.429688 C 149.949219 210.355469 154.085938 213.035156 158.464844 215.710938 L 170.632812 223.019531 C 169.414062 221.3125 168.441406 220.339844 168.441406 220.339844 C 168.441406 220.339844 168.199219 220.097656 168.199219 220.097656 C 150.921875 193.304688 174.039062 171.144531 174.28125 170.898438 C 174.769531 170.414062 175.742188 170.414062 176.472656 170.898438 C 176.957031 171.386719 176.957031 172.359375 176.472656 173.089844 C 176.226562 173.335938 154.816406 193.792969 170.632812 218.390625 C 171.847656 219.609375 178.417969 226.429688 177.6875 239.824219 C 177.445312 242.746094 177.445312 245.914062 177.445312 249.320312 C 177.199219 261.742188 177.199219 274.652344 171.117188 278.792969 C 163.820312 283.664062 144.351562 284.636719 142.40625 284.878906 C 134.863281 285.855469 119.535156 287.800781 117.832031 289.265625 C 117.34375 289.996094 117.589844 290.726562 117.832031 290.96875 C 118.074219 291.699219 118.804688 291.941406 119.292969 291.941406 L 178.660156 291.941406 C 178.660156 291.941406 178.902344 291.941406 178.902344 291.941406 C 178.902344 291.941406 185.472656 293.160156 188.636719 289.75 C 190.339844 288.046875 191.070312 285.367188 190.582031 281.957031 C 189.125 271.484375 191.070312 244.695312 194.71875 231.785156 C 194.960938 231.054688 195.449219 230.8125 196.179688 230.8125 C 196.179688 230.8125 196.421875 230.8125 196.421875 230.8125 C 198.855469 231.054688 201.289062 231.300781 203.234375 231.300781 C 205.667969 231.300781 207.613281 231.300781 209.320312 231.542969 C 221.242188 232.273438 229.269531 217.171875 229.269531 216.929688 C 229.757812 216.199219 230.488281 215.957031 231.214844 216.199219 C 231.945312 216.6875 232.191406 217.417969 231.945312 218.148438 C 231.703125 218.878906 225.132812 231.300781 214.183594 233.976562 C 215.15625 234.953125 216.132812 236.414062 217.347656 238.605469 C 218.808594 241.285156 220.269531 244.9375 221.972656 248.589844 C 225.863281 258.089844 230.730469 270.023438 240.21875 274.652344 C 240.21875 274.652344 240.460938 274.652344 240.460938 274.652344 C 247.03125 279.035156 263.335938 279.035156 282.3125 279.035156 L 284.988281 279.035156 C 296.183594 279.035156 302.75 279.765625 306.886719 280.253906 C 309.808594 280.496094 311.511719 280.738281 312.242188 280.253906 C 313.214844 279.765625 313.699219 279.035156 313.699219 278.792969 C 313.699219 277.816406 311.511719 276.355469 309.320312 275.625 C 303.480469 273.921875 296.183594 272.945312 288.394531 271.726562 C 272.335938 269.292969 255.792969 266.855469 250.195312 259.0625 C 243.625 249.808594 237.542969 216.929688 234.378906 197.933594 C 232.191406 184.050781 224.890625 171.875 213.941406 163.59375 C 195.9375 149.953125 172.820312 145.8125 160.65625 143.621094 C 157.003906 142.890625 154.328125 142.402344 152.625 141.917969 C 151.410156 141.429688 149.464844 140.941406 147.515625 140.457031 C 145.328125 139.96875 144.109375 139.480469 143.625 139.480469 C 139.972656 138.019531 137.785156 135.585938 137.054688 127.792969 C 136.808594 126.085938 136.566406 124.382812 136.324219 122.433594 C 136.324219 122.433594 136.324219 122.191406 136.324219 122.191406 C 136.082031 113.421875 133.648438 108.308594 131.699219 105.628906 C 130.242188 103.191406 125.375 96.617188 120.996094 95.886719 C 120.996094 95.886719 120.996094 95.886719 120.75 95.886719 C 119.046875 95.398438 117.101562 94.914062 115.15625 94.914062 C 113.207031 94.914062 111.261719 95.15625 109.316406 95.886719 C 107.371094 96.859375 102.015625 99.539062 100.554688 102.460938 C 99.339844 104.410156 98.367188 106.847656 98.125 109.523438 C 98.125 109.769531 98.125 109.769531 97.878906 110.011719 L 97.878906 110.253906 C 97.878906 110.253906 97.878906 110.253906 97.878906 110.5 C 93.257812 119.996094 94.230469 133.394531 103.234375 141.917969 Z M 98.367188 100.515625 C 98.851562 99.785156 99.582031 99.050781 100.3125 98.320312 C 99.097656 95.398438 94.960938 87.363281 92.039062 84.441406 C 89.851562 82.246094 85.957031 78.59375 82.792969 75.671875 C 83.28125 76.890625 83.769531 78.351562 84.253906 80.054688 C 86.445312 87.605469 89.851562 98.566406 98.367188 100.515625 Z M 98.367188 100.515625 " fill-opacity="1" fill-rule="nonzero"/></g></svg>