<svg xmlns="http://www.w3.org/2000/svg" xmlns:xlink="http://www.w3.org/1999/xlink" width="500" zoomAndPan="magnify" viewBox="0 0 375 374.999991" height="500" preserveAspectRatio="xMidYMid meet" version="1.0"><defs><clipPath id="b2d73588cb"><path d="M 187.5 0 C 83.945312 0 0 83.945312 0 187.5 C 0 291.054688 83.945312 375 187.5 375 C 291.054688 375 375 291.054688 375 187.5 C 375 83.945312 291.054688 0 187.5 0 Z M 187.5 0 " clip-rule="nonzero"/></clipPath><clipPath id="6797b54c0e"><path d="M 45.5 45.5 L 329.5 45.5 L 329.5 329.5 L 45.5 329.5 Z M 45.5 45.5 " clip-rule="nonzero"/></clipPath><clipPath id="695e3c3659"><path d="M 187.5 45.5 C 109.074219 45.5 45.5 109.074219 45.5 187.5 C 45.5 265.925781 109.074219 329.5 187.5 329.5 C 265.925781 329.5 329.5 265.925781 329.5 187.5 C 329.5 109.074219 265.925781 45.5 187.5 45.5 Z M 187.5 45.5 " clip-rule="nonzero"/></clipPath></defs><g clip-path="url(#b2d73588cb)"><rect x="-37.5" width="450" fill="#233c4b" y="-37.499999" height="449.999989" fill-opacity="1"/></g><g clip-path="url(#6797b54c0e)"><g clip-path="url(#695e3c3659)"><path fill="#ffffff" d="M 45.5 45.5 L 329.5 45.5 L 329.5 329.5 L 45.5 329.5 Z M 45.5 45.5 " fill-opacity="1" fill-rule="nonzero"/></g></g><path fill="#233c4b" d="M 261.511719 190.0625 L 260.191406 190.0625 C 251.277344 190.0625 243.820312 196.269531 241.5 204.875 C 235.132812 228.46875 213.765625 245.847656 188.25 245.847656 C 179.6875 245.847656 171.554688 243.84375 164.359375 240.351562 L 164.316406 240.351562 L 164.308594 240.359375 L 180.996094 229.066406 C 185.835938 224.226562 182.441406 215.945312 175.585938 215.925781 L 118.523438 215.925781 C 116.382812 215.949219 114.445312 216.777344 113.046875 218.175781 C 111.667969 219.554688 110.839844 221.488281 110.820312 223.632812 L 110.820312 280.695312 C 110.84375 287.550781 119.121094 290.949219 123.957031 286.109375 L 135.121094 269.617188 C 150.320312 279.835938 168.585938 285.796875 188.253906 285.796875 C 232.414062 285.796875 269.59375 255.753906 280.414062 214.976562 C 283.738281 202.417969 274.5 190.0625 261.511719 190.0625 Z M 261.511719 190.0625 " fill-opacity="1" fill-rule="nonzero"/><path fill="#233c4b" d="M 114.785156 184.925781 C 123.699219 184.925781 131.15625 178.722656 133.476562 170.113281 C 139.84375 146.519531 161.210938 129.144531 186.730469 129.144531 C 195.289062 129.144531 203.421875 131.144531 210.617188 134.636719 L 210.664062 134.636719 L 210.667969 134.632812 L 193.980469 145.925781 C 189.140625 150.765625 192.535156 159.042969 199.390625 159.0625 L 256.453125 159.0625 C 258.597656 159.039062 260.53125 158.210938 261.929688 156.8125 C 263.308594 155.433594 264.140625 153.5 264.15625 151.355469 L 264.15625 94.296875 C 264.132812 87.441406 255.859375 84.046875 251.019531 88.886719 L 239.855469 105.375 C 224.65625 95.160156 206.390625 89.199219 186.722656 89.199219 C 142.5625 89.199219 105.386719 119.238281 94.5625 160.015625 C 91.234375 172.570312 100.472656 184.925781 113.460938 184.925781 Z M 114.785156 184.925781 " fill-opacity="1" fill-rule="nonzero"/></svg>