<svg xmlns="http://www.w3.org/2000/svg" xmlns:xlink="http://www.w3.org/1999/xlink" width="500" zoomAndPan="magnify" viewBox="0 0 375 374.999991" height="500" preserveAspectRatio="xMidYMid meet" version="1.0"><defs><clipPath id="2a86e81f19"><path d="M 187.5 0 C 83.945312 0 0 83.945312 0 187.5 C 0 291.054688 83.945312 375 187.5 375 C 291.054688 375 375 291.054688 375 187.5 C 375 83.945312 291.054688 0 187.5 0 Z M 187.5 0 " clip-rule="nonzero"/></clipPath><clipPath id="53a3645b68"><path d="M 45.5 45.5 L 329.5 45.5 L 329.5 329.5 L 45.5 329.5 Z M 45.5 45.5 " clip-rule="nonzero"/></clipPath><clipPath id="6d9ebf9152"><path d="M 187.5 45.5 C 109.074219 45.5 45.5 109.074219 45.5 187.5 C 45.5 265.925781 109.074219 329.5 187.5 329.5 C 265.925781 329.5 329.5 265.925781 329.5 187.5 C 329.5 109.074219 265.925781 45.5 187.5 45.5 Z M 187.5 45.5 " clip-rule="nonzero"/></clipPath><clipPath id="87b0dc89c7"><path d="M 191 109 L 288.863281 109 L 288.863281 266 L 191 266 Z M 191 109 " clip-rule="nonzero"/></clipPath><clipPath id="365078b485"><path d="M 86.363281 109 L 184 109 L 184 266 L 86.363281 266 Z M 86.363281 109 " clip-rule="nonzero"/></clipPath></defs><g clip-path="url(#2a86e81f19)"><rect x="-37.5" width="450" fill="#233c4b" y="-37.499999" height="449.999989" fill-opacity="1"/></g><g clip-path="url(#53a3645b68)"><g clip-path="url(#6d9ebf9152)"><path fill="#ffffff" d="M 45.5 45.5 L 329.5 45.5 L 329.5 329.5 L 45.5 329.5 Z M 45.5 45.5 " fill-opacity="1" fill-rule="nonzero"/></g></g><g clip-path="url(#87b0dc89c7)"><path fill="#233c4b" d="M 274.738281 123.996094 C 266.136719 115.058594 255.398438 110.3125 242.566406 109.675781 C 240.195312 109.277344 237.777344 109.019531 235.292969 109.019531 C 221.429688 109.019531 209.117188 115.523438 201.152344 125.625 C 196.800781 130.722656 194.046875 136.414062 192.957031 142.71875 C 192.234375 145.863281 191.816406 149.128906 191.816406 152.496094 C 191.816406 176.511719 211.285156 195.972656 235.292969 195.972656 C 245.082031 195.972656 254.066406 192.695312 261.339844 187.253906 C 261.355469 187.800781 261.433594 188.304688 261.433594 188.875 C 261.433594 211.925781 243.863281 234.957031 208.734375 258 L 213.828125 265.933594 C 263.695312 234.960938 288.628906 200.964844 288.628906 163.933594 C 288.628906 146.945312 283.988281 133.632812 274.738281 123.996094 Z M 274.738281 123.996094 " fill-opacity="1" fill-rule="nonzero"/></g><g clip-path="url(#365078b485)"><path fill="#233c4b" d="M 136.863281 109.640625 C 134.574219 109.269531 132.238281 109.019531 129.839844 109.019531 C 105.828125 109.019531 86.363281 128.484375 86.363281 152.496094 C 86.363281 176.5 105.828125 195.972656 129.839844 195.972656 C 139.882812 195.972656 149.109375 192.53125 156.480469 186.800781 C 156.515625 187.492188 156.601562 188.140625 156.601562 188.875 C 156.601562 211.925781 139.039062 234.957031 103.902344 258 L 109 265.933594 C 158.863281 234.960938 183.796875 200.964844 183.796875 163.933594 C 183.796875 146.9375 179.164062 133.617188 169.914062 123.988281 C 161.121094 114.847656 150.085938 110.097656 136.863281 109.640625 Z M 136.863281 109.640625 " fill-opacity="1" fill-rule="nonzero"/></g></svg>