<svg xmlns="http://www.w3.org/2000/svg" xmlns:xlink="http://www.w3.org/1999/xlink" width="500" zoomAndPan="magnify" viewBox="0 0 375 374.999991" height="500" preserveAspectRatio="xMidYMid meet" version="1.0"><defs><clipPath id="79bfb066db"><path d="M 187.5 0 C 83.945312 0 0 83.945312 0 187.5 C 0 291.054688 83.945312 375 187.5 375 C 291.054688 375 375 291.054688 375 187.5 C 375 83.945312 291.054688 0 187.5 0 Z M 187.5 0 " clip-rule="nonzero"/></clipPath><clipPath id="79bb1656c9"><path d="M 45.5 45.5 L 329.5 45.5 L 329.5 329.5 L 45.5 329.5 Z M 45.5 45.5 " clip-rule="nonzero"/></clipPath><clipPath id="86dda88030"><path d="M 187.5 45.5 C 109.074219 45.5 45.5 109.074219 45.5 187.5 C 45.5 265.925781 109.074219 329.5 187.5 329.5 C 265.925781 329.5 329.5 265.925781 329.5 187.5 C 329.5 109.074219 265.925781 45.5 187.5 45.5 Z M 187.5 45.5 " clip-rule="nonzero"/></clipPath><clipPath id="2c2467c7a0"><path d="M 115.5625 93.617188 L 259.5625 93.617188 L 259.5625 281.117188 L 115.5625 281.117188 Z M 115.5625 93.617188 " clip-rule="nonzero"/></clipPath></defs><g clip-path="url(#79bfb066db)"><rect x="-37.5" width="450" fill="#233c4b" y="-37.499999" height="449.999989" fill-opacity="1"/></g><g clip-path="url(#79bb1656c9)"><g clip-path="url(#86dda88030)"><path fill="#ffffff" d="M 45.5 45.5 L 329.5 45.5 L 329.5 329.5 L 45.5 329.5 Z M 45.5 45.5 " fill-opacity="1" fill-rule="nonzero"/></g></g><g clip-path="url(#2c2467c7a0)"><path fill="#233c4b" d="M 259.304688 142.558594 C 259.304688 143.457031 259.121094 144.3125 258.75 145.132812 C 258.378906 145.949219 257.855469 146.652344 257.179688 147.246094 L 208.925781 189.613281 C 208.453125 190.027344 207.929688 190.363281 207.355469 190.621094 C 206.78125 190.875 206.179688 191.042969 205.558594 191.117188 C 204.933594 191.191406 204.3125 191.175781 203.691406 191.0625 C 203.074219 190.949219 202.484375 190.746094 201.929688 190.457031 C 201.371094 190.167969 200.867188 189.800781 200.421875 189.359375 C 199.972656 188.914062 199.601562 188.417969 199.304688 187.863281 C 199.011719 187.308594 198.800781 186.722656 198.683594 186.105469 C 198.566406 185.484375 198.539062 184.863281 198.609375 184.238281 L 200.972656 162.808594 L 178.128906 162.839844 C 177.414062 162.84375 176.703125 162.878906 175.992188 162.949219 C 175.28125 163.019531 174.574219 163.128906 173.875 163.265625 C 173.171875 163.40625 172.480469 163.582031 171.796875 163.789062 C 171.113281 164 170.441406 164.238281 169.78125 164.515625 C 169.121094 164.789062 168.476562 165.09375 167.847656 165.429688 C 167.21875 165.769531 166.605469 166.136719 166.011719 166.535156 C 165.417969 166.929688 164.84375 167.355469 164.292969 167.808594 C 163.742188 168.261719 163.210938 168.742188 162.707031 169.25 C 162.203125 169.753906 161.722656 170.28125 161.269531 170.835938 C 160.816406 171.386719 160.390625 171.960938 159.992188 172.554688 C 159.597656 173.148438 159.230469 173.761719 158.894531 174.390625 C 158.554688 175.019531 158.25 175.664062 157.976562 176.324219 C 157.703125 176.984375 157.460938 177.65625 157.253906 178.339844 C 157.046875 179.023438 156.871094 179.71875 156.730469 180.417969 C 156.59375 181.117188 156.488281 181.824219 156.417969 182.535156 C 156.34375 183.246094 156.308594 183.960938 156.308594 184.671875 L 156.308594 275.136719 C 156.308594 275.546875 156.269531 275.953125 156.1875 276.351562 C 156.109375 276.753906 155.988281 277.144531 155.832031 277.523438 C 155.675781 277.902344 155.484375 278.261719 155.253906 278.601562 C 155.027344 278.941406 154.769531 279.257812 154.480469 279.546875 C 154.191406 279.835938 153.875 280.09375 153.535156 280.320312 C 153.195312 280.550781 152.835938 280.742188 152.457031 280.898438 C 152.078125 281.054688 151.6875 281.171875 151.289062 281.253906 C 150.886719 281.332031 150.480469 281.375 150.070312 281.375 L 122 281.375 C 121.589844 281.375 121.1875 281.332031 120.785156 281.253906 C 120.382812 281.171875 119.992188 281.054688 119.613281 280.898438 C 119.238281 280.742188 118.878906 280.550781 118.535156 280.320312 C 118.195312 280.09375 117.882812 279.835938 117.59375 279.546875 C 117.300781 279.257812 117.042969 278.941406 116.816406 278.601562 C 116.589844 278.261719 116.398438 277.902344 116.238281 277.523438 C 116.082031 277.144531 115.964844 276.753906 115.882812 276.351562 C 115.804688 275.953125 115.761719 275.546875 115.761719 275.136719 L 115.761719 172.214844 C 115.765625 170.578125 115.847656 168.949219 116.007812 167.324219 C 116.171875 165.699219 116.410156 164.082031 116.730469 162.480469 C 117.050781 160.878906 117.449219 159.296875 117.925781 157.734375 C 118.398438 156.171875 118.949219 154.632812 119.578125 153.125 C 120.203125 151.617188 120.902344 150.140625 121.671875 148.699219 C 122.441406 147.261719 123.28125 145.859375 124.191406 144.503906 C 125.097656 143.144531 126.070312 141.832031 127.109375 140.570312 C 128.144531 139.308594 129.242188 138.097656 130.394531 136.945312 C 131.550781 135.789062 132.761719 134.691406 134.023438 133.65625 C 135.285156 132.617188 136.597656 131.648438 137.953125 130.738281 C 139.3125 129.832031 140.710938 128.992188 142.152344 128.21875 C 143.59375 127.449219 145.066406 126.75 146.578125 126.125 C 148.085938 125.5 149.621094 124.949219 151.1875 124.472656 C 152.75 123.996094 154.332031 123.597656 155.933594 123.277344 C 157.535156 122.960938 159.148438 122.71875 160.777344 122.554688 C 162.402344 122.394531 164.03125 122.3125 165.664062 122.3125 L 200.972656 122.3125 L 198.609375 100.871094 C 198.539062 100.246094 198.566406 99.625 198.683594 99.007812 C 198.800781 98.390625 199.011719 97.804688 199.304688 97.25 C 199.601562 96.695312 199.972656 96.199219 200.421875 95.753906 C 200.867188 95.3125 201.371094 94.945312 201.929688 94.65625 C 202.488281 94.367188 203.074219 94.164062 203.691406 94.050781 C 204.3125 93.941406 204.933594 93.921875 205.558594 93.996094 C 206.183594 94.074219 206.78125 94.238281 207.355469 94.496094 C 207.929688 94.753906 208.453125 95.089844 208.925781 95.503906 L 257.183594 137.871094 C 257.855469 138.460938 258.378906 139.167969 258.75 139.984375 C 259.121094 140.800781 259.304688 141.660156 259.304688 142.558594 Z M 259.304688 142.558594 " fill-opacity="1" fill-rule="nonzero"/></g></svg>