<?xml version="1.0" encoding="UTF-8"?>
<svg width="143px" height="143px" viewBox="0 0 143 143" version="1.1" xmlns="http://www.w3.org/2000/svg" xmlns:xlink="http://www.w3.org/1999/xlink">
    <title>browse/agricultural</title>
    <defs>
        <circle id="path-1" cx="71.5" cy="71.5" r="71.5"></circle>
    </defs>
    <g id="Symbols" stroke="none" stroke-width="1" fill="none" fill-rule="evenodd">
        <g id="Browse-data-card" transform="translate(-20.000000, -20.000000)">
            <g id="browse/agricultural" transform="translate(20.000000, 20.000000)">
                <mask id="mask-2" fill="white">
                    <use xlink:href="#path-1"></use>
                </mask>
                <use id="Mask" fill="#D8D8D8" xlink:href="#path-1"></use>
                <g id="WHEAT" mask="url(#mask-2)" fill="#FEC743">
                    <g transform="translate(-4.000000, 0.000000)" id="Rectangle">
                        <rect x="0" y="0" width="163.428571" height="143.160377"></rect>
                    </g>
                </g>
                <g id="icons/agricultural" mask="url(#mask-2)">
                    <g transform="translate(25.040000, 17.000000)">
                        <path d="M0,108.9 L92.95,108.9 L0,108.9 Z" id="Fill-1" stroke="none" fill="#FEFEFE" fill-rule="evenodd"></path>
                        <line x1="0" y1="108.9" x2="92.95" y2="108.9" id="Stroke-2" stroke="#FFFFFF" stroke-width="2" fill="none" stroke-linecap="round" stroke-linejoin="round"></line>
                        <path d="M55.55,108.9 L55.55,54.45 L55.55,108.9 Z" id="Fill-4" stroke="none" fill="#FEFEFE" fill-rule="evenodd"></path>
                        <line x1="55.55" y1="108.9" x2="55.55" y2="54.45" id="Stroke-5" stroke="#FFFFFF" stroke-width="2" fill="none" stroke-linecap="round" stroke-linejoin="round"></line>
                        <path d="M37.95,108.9 L37.95,7.10542736e-15 L37.95,108.9 Z" id="Fill-7" stroke="none" fill="#FEFEFE" fill-rule="evenodd"></path>
                        <line x1="38.3749007" y1="7.10542736e-15" x2="38.3749007" y2="108.9" id="Stroke-8" stroke="#FFFFFF" stroke-width="2" fill="none" stroke-linecap="round" stroke-linejoin="round"></line>
                        <path d="M55.7334078,1.25881199 C55.7334078,1.25881199 54.5448974,22.5592006 38.9289431,18.101188 C34.4809653,2.4500037 55.7334078,1.25881199 55.7334078,1.25881199" id="Fill-10" stroke="none" fill="#FEFEFE" fill-rule="evenodd"></path>
                        <path d="M55.7334078,1.25881199 C55.7334078,1.25881199 54.5448974,22.5592006 38.9289431,18.101188 C34.4809653,2.4500037 55.7334078,1.25881199 55.7334078,1.25881199 Z" id="Stroke-12" stroke="#FFFFFF" stroke-width="2" fill="#FFFFFF" fill-rule="evenodd" stroke-linecap="round" stroke-linejoin="round"></path>
                        <path d="M73.15,56.6738564 C73.15,56.6738564 71.9614896,77.974245 56.3455353,73.5162324 C51.8975575,57.8650481 73.15,56.6738564 73.15,56.6738564" id="Fill-14" stroke="none" fill="#FEFEFE" fill-rule="evenodd"></path>
                        <path d="M73.15,56.6738564 C73.15,56.6738564 71.9614896,77.974245 56.3455353,73.5162324 C51.8975575,57.8650481 73.15,56.6738564 73.15,56.6738564 Z" id="Stroke-16" stroke="#FFFFFF" stroke-width="2" fill="#FFFFFF" fill-rule="evenodd" stroke-linecap="round" stroke-linejoin="round"></path>
                        <path d="M20.9,25.2718486 C20.9,25.2718486 42.1524425,26.4630403 37.7044647,42.1142246 C22.0885104,46.5722372 20.9,25.2718486 20.9,25.2718486" id="Fill-18" stroke="none" fill="#FEFEFE" fill-rule="evenodd"></path>
                        <path d="M20.9,25.2718486 C20.9,25.2718486 42.1524425,26.4630403 37.7044647,42.1142246 C22.0885104,46.5722372 20.9,25.2718486 20.9,25.2718486 Z" id="Stroke-20" stroke="#FFFFFF" stroke-width="2" fill="#FFFFFF" fill-rule="evenodd" stroke-linecap="round" stroke-linejoin="round"></path>
                    </g>
                </g>
            </g>
        </g>
    </g>
</svg>