<svg xmlns="http://www.w3.org/2000/svg" xmlns:xlink="http://www.w3.org/1999/xlink" width="500" zoomAndPan="magnify" viewBox="0 0 375 374.999991" height="500" preserveAspectRatio="xMidYMid meet" version="1.0"><defs><clipPath id="f3b1e285e9"><path d="M 187.5 0 C 83.945312 0 0 83.945312 0 187.5 C 0 291.054688 83.945312 375 187.5 375 C 291.054688 375 375 291.054688 375 187.5 C 375 83.945312 291.054688 0 187.5 0 Z M 187.5 0 " clip-rule="nonzero"/></clipPath><clipPath id="df9a1c4673"><path d="M 132 119 L 223 119 L 223 224 L 132 224 Z M 132 119 " clip-rule="nonzero"/></clipPath><clipPath id="faea68fba7"><path d="M 52.8125 285.191406 L 125.300781 32.902344 L 322.089844 89.445312 L 249.597656 341.734375 Z M 52.8125 285.191406 " clip-rule="nonzero"/></clipPath><clipPath id="bd1f679eda"><path d="M 52.8125 285.191406 L 125.300781 32.902344 L 322.089844 89.445312 L 249.597656 341.734375 Z M 52.8125 285.191406 " clip-rule="nonzero"/></clipPath><clipPath id="4ff0a5de29"><path d="M 174 198 L 266 198 L 266 303 L 174 303 Z M 174 198 " clip-rule="nonzero"/></clipPath><clipPath id="c4e9cf3791"><path d="M 52.8125 285.191406 L 125.300781 32.902344 L 322.089844 89.445312 L 249.597656 341.734375 Z M 52.8125 285.191406 " clip-rule="nonzero"/></clipPath><clipPath id="f103206814"><path d="M 52.8125 285.191406 L 125.300781 32.902344 L 322.089844 89.445312 L 249.597656 341.734375 Z M 52.8125 285.191406 " clip-rule="nonzero"/></clipPath><clipPath id="037df69785"><path d="M 260 204 L 279 204 L 279 234 L 260 234 Z M 260 204 " clip-rule="nonzero"/></clipPath><clipPath id="a938b05cff"><path d="M 52.8125 285.191406 L 125.300781 32.902344 L 322.089844 89.445312 L 249.597656 341.734375 Z M 52.8125 285.191406 " clip-rule="nonzero"/></clipPath><clipPath id="abc63f4d19"><path d="M 52.8125 285.191406 L 125.300781 32.902344 L 322.089844 89.445312 L 249.597656 341.734375 Z M 52.8125 285.191406 " clip-rule="nonzero"/></clipPath><clipPath id="768b6428b6"><path d="M 140 219 L 159 219 L 159 249 L 140 249 Z M 140 219 " clip-rule="nonzero"/></clipPath><clipPath id="012ce33a96"><path d="M 52.8125 285.191406 L 125.300781 32.902344 L 322.089844 89.445312 L 249.597656 341.734375 Z M 52.8125 285.191406 " clip-rule="nonzero"/></clipPath><clipPath id="b934276412"><path d="M 52.8125 285.191406 L 125.300781 32.902344 L 322.089844 89.445312 L 249.597656 341.734375 Z M 52.8125 285.191406 " clip-rule="nonzero"/></clipPath><clipPath id="de125cae23"><path d="M 216 125 L 235 125 L 235 156 L 216 156 Z M 216 125 " clip-rule="nonzero"/></clipPath><clipPath id="c53048a86b"><path d="M 52.8125 285.191406 L 125.300781 32.902344 L 322.089844 89.445312 L 249.597656 341.734375 Z M 52.8125 285.191406 " clip-rule="nonzero"/></clipPath><clipPath id="fd364c1fea"><path d="M 52.8125 285.191406 L 125.300781 32.902344 L 322.089844 89.445312 L 249.597656 341.734375 Z M 52.8125 285.191406 " clip-rule="nonzero"/></clipPath><clipPath id="fd2c92c791"><path d="M 96 140 L 115 140 L 115 170 L 96 170 Z M 96 140 " clip-rule="nonzero"/></clipPath><clipPath id="910fe4cdb8"><path d="M 52.8125 285.191406 L 125.300781 32.902344 L 322.089844 89.445312 L 249.597656 341.734375 Z M 52.8125 285.191406 " clip-rule="nonzero"/></clipPath><clipPath id="a6ad0e2c5a"><path d="M 52.8125 285.191406 L 125.300781 32.902344 L 322.089844 89.445312 L 249.597656 341.734375 Z M 52.8125 285.191406 " clip-rule="nonzero"/></clipPath><clipPath id="d3ca034186"><path d="M 95 47 L 192 47 L 192 146 L 95 146 Z M 95 47 " clip-rule="nonzero"/></clipPath><clipPath id="dbd0e34bb7"><path d="M 52.8125 285.191406 L 125.300781 32.902344 L 322.089844 89.445312 L 249.597656 341.734375 Z M 52.8125 285.191406 " clip-rule="nonzero"/></clipPath><clipPath id="831dc315a1"><path d="M 52.8125 285.191406 L 125.300781 32.902344 L 322.089844 89.445312 L 249.597656 341.734375 Z M 52.8125 285.191406 " clip-rule="nonzero"/></clipPath><clipPath id="f6b77145ce"><path d="M 152 150 L 242 150 L 242 255 L 152 255 Z M 152 150 " clip-rule="nonzero"/></clipPath><clipPath id="419cab62e8"><path d="M 52.8125 285.191406 L 125.300781 32.902344 L 322.089844 89.445312 L 249.597656 341.734375 Z M 52.8125 285.191406 " clip-rule="nonzero"/></clipPath><clipPath id="dfb27beac1"><path d="M 52.8125 285.191406 L 125.300781 32.902344 L 322.089844 89.445312 L 249.597656 341.734375 Z M 52.8125 285.191406 " clip-rule="nonzero"/></clipPath><clipPath id="bba44ff666"><path d="M 183 228 L 280 228 L 280 327 L 183 327 Z M 183 228 " clip-rule="nonzero"/></clipPath><clipPath id="f9516db756"><path d="M 52.8125 285.191406 L 125.300781 32.902344 L 322.089844 89.445312 L 249.597656 341.734375 Z M 52.8125 285.191406 " clip-rule="nonzero"/></clipPath><clipPath id="65fb21b7fe"><path d="M 52.8125 285.191406 L 125.300781 32.902344 L 322.089844 89.445312 L 249.597656 341.734375 Z M 52.8125 285.191406 " clip-rule="nonzero"/></clipPath><clipPath id="f0f04d462c"><path d="M 109 71 L 201 71 L 201 176 L 109 176 Z M 109 71 " clip-rule="nonzero"/></clipPath><clipPath id="2c138ab30f"><path d="M 52.8125 285.191406 L 125.300781 32.902344 L 322.089844 89.445312 L 249.597656 341.734375 Z M 52.8125 285.191406 " clip-rule="nonzero"/></clipPath><clipPath id="c0a5623ff9"><path d="M 52.8125 285.191406 L 125.300781 32.902344 L 322.089844 89.445312 L 249.597656 341.734375 Z M 52.8125 285.191406 " clip-rule="nonzero"/></clipPath></defs><rect x="-37.5" width="450" fill="#ffffff" y="-37.499999" height="449.999989" fill-opacity="1"/><rect x="-37.5" width="450" fill="#ffffff" y="-37.499999" height="449.999989" fill-opacity="1"/><g clip-path="url(#f3b1e285e9)"><rect x="-37.5" width="450" fill="#fec743" y="-37.499999" height="449.999989" fill-opacity="1"/></g><g clip-path="url(#df9a1c4673)"><g clip-path="url(#faea68fba7)"><g clip-path="url(#bd1f679eda)"><path fill="#ffffff" d="M 221.355469 137.234375 C 220.378906 140.632812 218.523438 144.398438 215.863281 148.28125 C 210.925781 155.515625 201.007812 166.355469 181.839844 176.917969 C 158.515625 189.773438 147.3125 204.351562 144.625 213.703125 C 144.625 213.703125 144.625 213.703125 144.621094 213.722656 C 143.808594 216.546875 143.792969 218.964844 144.554688 220.34375 C 145.191406 221.496094 144.773438 222.945312 143.625 223.582031 C 142.492188 224.222656 141.027344 223.804688 140.394531 222.652344 C 138.976562 220.117188 138.855469 216.578125 140.050781 212.410156 C 140.058594 212.390625 140.058594 212.390625 140.058594 212.390625 C 141.492188 207.402344 148.578125 189.804688 179.558594 172.757812 C 197.902344 162.636719 207.296875 152.402344 211.9375 145.601562 C 217.265625 137.820312 218.234375 131.824219 216.84375 129.335938 C 214.070312 124.335938 193.082031 119.507812 160.027344 137.714844 C 151.675781 142.304688 143.441406 145.808594 135.535156 148.105469 C 134.273438 148.460938 132.957031 147.734375 132.605469 146.46875 C 132.253906 145.207031 132.957031 143.898438 134.222656 143.527344 C 141.773438 141.320312 149.695312 137.960938 157.730469 133.53125 C 191.132812 115.132812 215.929688 117.917969 220.992188 127.003906 C 222.445312 129.609375 222.527344 133.15625 221.355469 137.234375 " fill-opacity="1" fill-rule="nonzero"/></g></g></g><g clip-path="url(#4ff0a5de29)"><g clip-path="url(#c4e9cf3791)"><g clip-path="url(#f103206814)"><path fill="#ffffff" d="M 265.003906 215.644531 C 264.027344 219.042969 262.171875 222.808594 259.488281 226.707031 C 254.566406 233.945312 244.648438 244.785156 225.480469 255.351562 C 202.140625 268.199219 190.957031 282.78125 188.265625 292.132812 C 188.265625 292.132812 188.265625 292.132812 188.261719 292.152344 C 187.449219 294.976562 187.414062 297.386719 188.175781 298.769531 C 188.832031 299.925781 188.414062 301.375 187.265625 302.011719 C 186.117188 302.648438 184.667969 302.234375 184.035156 301.082031 C 182.617188 298.546875 182.5 294.988281 183.691406 290.839844 C 183.699219 290.820312 183.699219 290.820312 183.699219 290.820312 C 185.132812 285.832031 192.21875 268.234375 223.1875 251.167969 C 241.546875 241.066406 250.921875 230.828125 255.582031 224.015625 C 260.90625 216.25 261.875 210.257812 260.46875 207.761719 C 257.691406 202.761719 236.726562 197.917969 203.671875 216.128906 C 194.625 221.121094 185.765625 224.789062 177.3125 227.046875 C 176.050781 227.398438 174.742188 226.636719 174.414062 225.359375 C 174.0625 224.097656 174.824219 222.789062 176.082031 222.453125 C 184.164062 220.28125 192.675781 216.746094 201.371094 211.960938 C 234.335938 193.804688 259.703125 196.5625 264.632812 205.433594 C 266.070312 208.035156 266.167969 211.585938 265.003906 215.644531 " fill-opacity="1" fill-rule="nonzero"/></g></g></g><g clip-path="url(#037df69785)"><g clip-path="url(#a938b05cff)"><g clip-path="url(#abc63f4d19)"><path fill="#ffffff" d="M 278.476562 231.753906 C 278.308594 232.347656 277.910156 232.851562 277.355469 233.175781 C 276.207031 233.8125 274.753906 233.414062 274.121094 232.265625 L 260.46875 207.761719 C 259.832031 206.609375 260.246094 205.160156 261.402344 204.503906 C 262.550781 203.867188 263.996094 204.28125 264.632812 205.433594 L 278.265625 229.933594 C 278.585938 230.507812 278.648438 231.164062 278.476562 231.753906 " fill-opacity="1" fill-rule="nonzero"/></g></g></g><g clip-path="url(#768b6428b6)"><g clip-path="url(#012ce33a96)"><g clip-path="url(#b934276412)"><path fill="#ffffff" d="M 158.398438 246.667969 C 158.230469 247.257812 157.847656 247.785156 157.277344 248.085938 C 156.121094 248.742188 154.675781 248.328125 154.039062 247.175781 L 140.394531 222.652344 C 139.753906 221.519531 140.167969 220.070312 141.320312 219.433594 C 142.472656 218.777344 143.917969 219.191406 144.554688 220.34375 L 158.1875 244.84375 C 158.5 245.4375 158.570312 246.078125 158.398438 246.667969 " fill-opacity="1" fill-rule="nonzero"/></g></g></g><g clip-path="url(#de125cae23)"><g clip-path="url(#c53048a86b)"><g clip-path="url(#fd364c1fea)"><path fill="#ffffff" d="M 234.835938 153.324219 C 234.667969 153.914062 234.285156 154.445312 233.714844 154.746094 C 232.558594 155.402344 231.113281 154.984375 230.476562 153.835938 L 216.84375 129.335938 C 216.207031 128.183594 216.625 126.734375 217.757812 126.09375 C 218.910156 125.4375 220.355469 125.851562 220.992188 127.003906 L 234.640625 151.527344 C 234.957031 152.101562 235.007812 152.734375 234.835938 153.324219 " fill-opacity="1" fill-rule="nonzero"/></g></g></g><g clip-path="url(#fd2c92c791)"><g clip-path="url(#910fe4cdb8)"><g clip-path="url(#a6ad0e2c5a)"><path fill="#ffffff" d="M 114.757812 168.234375 C 114.589844 168.828125 114.210938 169.335938 113.628906 169.675781 C 112.480469 170.3125 111.035156 169.898438 110.398438 168.746094 L 96.765625 144.246094 C 96.128906 143.09375 96.546875 141.644531 97.679688 141.003906 C 98.828125 140.367188 100.277344 140.761719 100.914062 141.914062 L 114.566406 166.417969 C 114.882812 166.996094 114.929688 167.644531 114.757812 168.234375 " fill-opacity="1" fill-rule="nonzero"/></g></g></g><g clip-path="url(#d3ca034186)"><g clip-path="url(#dbd0e34bb7)"><g clip-path="url(#831dc315a1)"><path fill="#ffffff" d="M 191.214844 74.898438 C 191.042969 75.492188 190.648438 75.996094 190.085938 76.339844 C 188.9375 76.976562 187.492188 76.558594 186.855469 75.410156 L 177.679688 58.929688 C 176.191406 64.039062 169.003906 81.53125 138.21875 98.496094 C 114.875 111.34375 103.691406 125.925781 101 135.296875 C 100.1875 138.121094 100.152344 140.53125 100.914062 141.914062 C 101.566406 143.070312 101.152344 144.519531 100 145.15625 C 98.851562 145.792969 97.402344 145.398438 96.765625 144.246094 C 95.355469 141.691406 95.230469 138.152344 96.429688 133.984375 C 97.863281 128.992188 104.953125 111.378906 135.917969 94.328125 C 159.257812 81.480469 170.449219 66.882812 173.136719 57.527344 C 173.949219 54.699219 173.972656 52.265625 173.222656 50.910156 C 172.585938 49.757812 172.984375 48.304688 174.132812 47.667969 C 175.28125 47.03125 176.734375 47.425781 177.367188 48.578125 L 191.003906 73.078125 C 191.316406 73.671875 191.382812 74.308594 191.214844 74.898438 " fill-opacity="1" fill-rule="nonzero"/></g></g></g><g clip-path="url(#f6b77145ce)"><g clip-path="url(#419cab62e8)"><g clip-path="url(#dfb27beac1)"><path fill="#ffffff" d="M 241.464844 229.3125 C 241.25 230.0625 240.664062 230.6875 239.855469 230.941406 C 232.605469 233.117188 225.015625 236.394531 217.300781 240.644531 C 184.339844 258.804688 158.957031 256.023438 154.039062 247.175781 C 151.375 242.402344 153.292969 234.453125 159.167969 225.898438 C 164.109375 218.664062 174.007812 207.816406 193.191406 197.257812 C 216.515625 184.40625 227.699219 169.824219 230.386719 160.46875 C 230.394531 160.453125 230.394531 160.453125 230.394531 160.453125 C 231.207031 157.625 231.242188 155.214844 230.476562 153.835938 C 229.84375 152.683594 230.257812 151.234375 231.410156 150.597656 C 232.558594 149.960938 234.003906 150.375 234.640625 151.527344 C 236.054688 154.0625 236.160156 157.597656 234.960938 161.765625 C 234.960938 161.765625 234.960938 161.765625 234.957031 161.78125 C 233.527344 166.753906 226.4375 184.371094 195.476562 201.417969 C 177.128906 211.542969 167.734375 221.777344 163.09375 228.574219 C 157.773438 236.339844 156.796875 242.351562 158.1875 244.84375 C 160.964844 249.84375 181.945312 254.691406 215.007812 236.464844 C 223.019531 232.046875 230.925781 228.664062 238.503906 226.367188 C 239.75 225.992188 241.074219 226.699219 241.460938 227.972656 C 241.585938 228.417969 241.589844 228.882812 241.464844 229.3125 " fill-opacity="1" fill-rule="nonzero"/></g></g></g><g clip-path="url(#bba44ff666)"><g clip-path="url(#f9516db756)"><g clip-path="url(#65fb21b7fe)"><path fill="#ffffff" d="M 278.601562 240.195312 C 277.167969 245.183594 270.078125 262.800781 239.117188 279.851562 C 215.773438 292.699219 204.585938 307.296875 201.898438 316.652344 C 201.078125 319.496094 201.0625 321.910156 201.828125 323.273438 C 202.464844 324.425781 202.046875 325.875 200.898438 326.511719 C 199.75 327.148438 198.300781 326.753906 197.664062 325.601562 L 184.035156 301.082031 C 183.394531 299.949219 183.792969 298.496094 184.945312 297.839844 C 186.097656 297.203125 187.542969 297.617188 188.175781 298.769531 L 197.351562 315.25 C 198.859375 310.144531 206.03125 292.648438 236.816406 275.683594 C 260.15625 262.835938 271.339844 248.253906 274.035156 238.882812 C 274.847656 236.054688 274.886719 233.628906 274.121094 232.265625 C 273.484375 231.113281 273.882812 229.660156 275.03125 229.023438 C 276.179688 228.386719 277.632812 228.78125 278.265625 229.933594 C 279.679688 232.488281 279.800781 236.027344 278.601562 240.195312 " fill-opacity="1" fill-rule="nonzero"/></g></g></g><g clip-path="url(#f0f04d462c)"><g clip-path="url(#2c138ab30f)"><g clip-path="url(#c0a5623ff9)"><path fill="#ffffff" d="M 200.601562 150.089844 C 200.378906 150.859375 199.765625 151.515625 198.929688 151.742188 C 190.828125 153.90625 182.335938 157.449219 173.660156 162.214844 C 140.261719 180.617188 115.460938 177.828125 110.398438 168.746094 C 107.75 163.976562 109.667969 156.027344 115.546875 147.472656 C 120.46875 140.230469 130.382812 129.390625 149.550781 118.828125 C 172.894531 105.980469 184.078125 91.398438 186.765625 82.042969 C 186.765625 82.042969 186.769531 82.027344 186.769531 82.027344 C 187.582031 79.199219 187.617188 76.789062 186.855469 75.410156 C 186.21875 74.257812 186.617188 72.804688 187.769531 72.167969 C 188.917969 71.53125 190.363281 71.945312 191.003906 73.078125 C 192.414062 75.632812 192.53125 79.191406 191.339844 83.339844 C 191.339844 83.339844 191.335938 83.355469 191.335938 83.355469 C 189.902344 88.347656 182.816406 105.945312 151.847656 123.011719 C 133.488281 133.109375 124.113281 143.351562 119.449219 150.164062 C 114.132812 157.910156 113.15625 163.921875 114.5625 166.4375 C 117.339844 171.417969 138.308594 176.242188 171.378906 158.054688 C 180.378906 153.089844 189.238281 149.421875 197.703125 147.128906 C 198.976562 146.796875 200.289062 147.542969 200.617188 148.816406 C 200.726562 149.253906 200.71875 149.679688 200.601562 150.089844 " fill-opacity="1" fill-rule="nonzero"/></g></g></g></svg>