<svg xmlns="http://www.w3.org/2000/svg" xmlns:xlink="http://www.w3.org/1999/xlink" width="500" zoomAndPan="magnify" viewBox="0 0 375 374.999991" height="500" preserveAspectRatio="xMidYMid meet" version="1.0"><defs><clipPath id="d9f228c450"><path d="M 187.5 0 C 83.945312 0 0 83.945312 0 187.5 C 0 291.054688 83.945312 375 187.5 375 C 291.054688 375 375 291.054688 375 187.5 C 375 83.945312 291.054688 0 187.5 0 Z M 187.5 0 " clip-rule="nonzero"/></clipPath><clipPath id="abea92dc07"><path d="M 67.476562 67.476562 L 307.476562 67.476562 L 307.476562 307.476562 L 67.476562 307.476562 Z M 67.476562 67.476562 " clip-rule="nonzero"/></clipPath></defs><rect x="-37.5" width="450" fill="#ffffff" y="-37.499999" height="449.999989" fill-opacity="1"/><rect x="-37.5" width="450" fill="#ffffff" y="-37.499999" height="449.999989" fill-opacity="1"/><g clip-path="url(#d9f228c450)"><rect x="-37.5" width="450" fill="#58a39d" y="-37.499999" height="449.999989" fill-opacity="1"/></g><g clip-path="url(#abea92dc07)"><path fill="#ffffff" d="M 255.5625 119.390625 C 253.308594 102.589844 252.214844 87.917969 265.171875 74.9375 L 257.75 67.476562 C 242.210938 83.015625 242.609375 101.113281 244.730469 117.890625 C 233.105469 116.398438 221.296875 115.765625 209.921875 120.394531 L 209.777344 120.261719 L 206.363281 122.015625 C 201.917969 124.359375 197.917969 127.304688 194.359375 130.855469 C 190.800781 134.40625 187.84375 138.398438 185.488281 142.839844 L 183.722656 146.25 L 183.867188 146.398438 C 179.199219 157.796875 179.832031 169.632812 181.324219 181.296875 C 169.605469 179.792969 157.71875 179.160156 146.265625 183.933594 L 146.121094 183.789062 L 142.679688 185.578125 C 138.3125 187.894531 134.390625 190.808594 130.910156 194.316406 C 129.515625 195.699219 128.195312 197.15625 126.957031 198.679688 C 124.992188 201.140625 123.300781 203.777344 121.882812 206.589844 L 120.195312 209.949219 L 120.328125 210.09375 C 115.765625 221.414062 116.375 233.15625 117.890625 244.730469 C 101.136719 242.609375 83.03125 242.199219 67.476562 257.75 L 74.9375 265.171875 C 87.917969 252.1875 102.613281 253.21875 119.390625 255.535156 C 121.710938 272.339844 122.753906 287.007812 109.757812 300.003906 L 117.21875 307.453125 C 132.769531 291.898438 132.347656 273.789062 130.226562 257.050781 C 141.796875 258.582031 153.539062 259.1875 164.875 254.628906 L 165.007812 254.773438 L 168.40625 253.046875 C 169.144531 252.664062 169.882812 252.269531 170.59375 251.847656 C 174.28125 249.699219 177.625 247.109375 180.625 244.070312 C 184.140625 240.59375 187.050781 236.671875 189.363281 232.300781 L 191.167969 228.875 L 191.023438 228.730469 C 195.765625 217.277344 195.136719 205.375 193.660156 193.660156 C 205.324219 195.148438 217.15625 195.78125 228.558594 191.113281 L 228.714844 191.261719 L 232.144531 189.492188 C 236.546875 187.152344 240.503906 184.203125 244.003906 180.652344 C 247.597656 177.105469 250.5625 173.09375 252.902344 168.617188 L 254.652344 165.191406 L 254.628906 165.007812 C 259.253906 153.660156 258.582031 141.851562 257.132812 130.199219 C 273.882812 132.320312 291.992188 132.742188 307.542969 117.191406 L 300.097656 109.730469 C 287.050781 122.738281 272.394531 121.710938 255.5625 119.390625 Z M 203.78125 136.523438 L 204.28125 136.089844 C 204.953125 135.523438 205.597656 134.96875 206.3125 134.457031 C 206.839844 134.074219 207.378906 133.71875 207.917969 133.375 L 241.632812 167.089844 C 241.277344 167.617188 240.933594 168.15625 240.539062 168.683594 C 240.039062 169.367188 239.484375 170 238.917969 170.699219 L 238.484375 171.214844 C 237.890625 171.886719 237.269531 172.53125 236.625 173.203125 C 235.976562 173.875 235.304688 174.523438 234.660156 175.035156 L 234.160156 175.472656 C 233.488281 176.039062 232.839844 176.589844 232.117188 177.105469 C 231.617188 177.472656 231.101562 177.816406 230.589844 178.144531 L 196.796875 144.433594 C 197.136719 143.917969 197.480469 143.390625 197.863281 142.878906 C 198.378906 142.179688 198.929688 141.492188 199.511719 140.820312 L 199.933594 140.335938 C 200.523438 139.675781 201.117188 139.015625 201.765625 138.371094 C 202.410156 137.726562 203.109375 137.078125 203.78125 136.484375 Z M 140.292969 199.972656 L 140.78125 199.535156 C 141.441406 198.984375 142.101562 198.441406 142.773438 197.941406 L 142.890625 197.851562 C 143.351562 197.519531 143.828125 197.203125 144.300781 196.886719 L 178.066406 230.667969 C 177.75 231.140625 177.433594 231.617188 177.09375 232.089844 L 177.09375 232.183594 C 176.589844 232.855469 176.050781 233.5 175.484375 234.171875 L 175.0625 234.660156 C 174.484375 235.320312 173.890625 235.976562 173.242188 236.609375 C 172.597656 237.269531 171.925781 237.929688 171.253906 238.46875 L 170.738281 238.917969 C 170.09375 239.472656 169.421875 240.011719 168.761719 240.5 L 168.65625 240.589844 C 168.105469 240.988281 167.535156 241.355469 166.96875 241.726562 L 133.230469 208.078125 C 133.597656 207.511719 133.957031 206.945312 134.363281 206.402344 L 134.441406 206.296875 C 134.945312 205.625 135.472656 204.980469 136.023438 204.308594 L 136.472656 203.792969 C 137.078125 203.121094 137.683594 202.476562 138.355469 201.777344 C 139.03125 201.078125 139.648438 200.589844 140.292969 199.972656 Z M 128.722656 246.230469 C 127.40625 236.453125 126.441406 227.09375 128.722656 218.421875 L 156.585938 246.285156 C 147.871094 248.511719 138.503906 247.589844 128.722656 246.230469 Z M 154.527344 192.195312 C 163.347656 189.824219 172.863281 190.757812 182.8125 192.195312 C 184.128906 202.160156 185.132812 211.675781 182.746094 220.480469 Z M 192.144531 182.800781 C 190.824219 172.914062 189.851562 163.453125 192.144531 154.699219 L 220.214844 182.785156 C 211.492188 185.105469 202.027344 184.183594 192.144531 182.8125 Z M 218.238281 128.761719 C 226.949219 126.484375 236.375 127.445312 246.230469 128.761719 C 247.550781 138.621094 248.527344 148.03125 246.230469 156.757812 Z M 218.238281 128.761719 " fill-opacity="1" fill-rule="nonzero"/></g></svg>