<svg xmlns="http://www.w3.org/2000/svg" xmlns:xlink="http://www.w3.org/1999/xlink" width="500" zoomAndPan="magnify" viewBox="0 0 375 374.999991" height="500" preserveAspectRatio="xMidYMid meet" version="1.0"><defs><clipPath id="4c8b2649af"><path d="M 187.5 0 C 83.945312 0 0 83.945312 0 187.5 C 0 291.054688 83.945312 375 187.5 375 C 291.054688 375 375 291.054688 375 187.5 C 375 83.945312 291.054688 0 187.5 0 Z M 187.5 0 " clip-rule="nonzero"/></clipPath></defs><rect x="-37.5" width="450" fill="#ffffff" y="-37.499999" height="449.999989" fill-opacity="1"/><rect x="-37.5" width="450" fill="#ffffff" y="-37.499999" height="449.999989" fill-opacity="1"/><g clip-path="url(#4c8b2649af)"><rect x="-37.5" width="450" fill="#f47c2e" y="-37.499999" height="449.999989" fill-opacity="1"/></g><path fill="#f47c2e" d="M 187.5 0 C 291.039062 0 375 83.9375 375 187.5 C 375 291.0625 291.0625 375 187.5 375 C 83.9375 375 0 291.039062 0 187.5 C 0 83.960938 83.9375 0 187.5 0 Z M 187.5 0 " fill-opacity="1" fill-rule="nonzero"/><path fill="#f47c2e" d="M 187.5 24.152344 C 277.714844 24.152344 350.847656 97.285156 350.847656 187.5 C 350.847656 277.714844 277.714844 350.847656 187.5 350.847656 C 97.285156 350.847656 24.152344 277.714844 24.152344 187.5 C 24.152344 97.285156 97.285156 24.152344 187.5 24.152344 Z M 187.5 24.152344 " fill-opacity="1" fill-rule="nonzero"/><path fill="#ffffff" d="M 42.402344 154.480469 C 43.195312 151.003906 44.128906 147.527344 45.152344 144.121094 C 45.621094 142.578125 47.253906 141.714844 48.792969 142.183594 C 50.335938 142.648438 51.199219 144.28125 50.730469 145.824219 C 49.726562 149.066406 48.839844 152.425781 48.070312 155.765625 C 47.769531 157.117188 46.554688 158.027344 45.222656 158.027344 C 45.015625 158.027344 44.78125 158.003906 44.570312 157.957031 C 43.03125 157.605469 42.050781 156.042969 42.402344 154.480469 Z M 54.582031 127.410156 C 54.976562 127.597656 55.421875 127.691406 55.839844 127.691406 C 56.9375 127.691406 57.964844 127.085938 58.480469 126.035156 C 61.535156 119.664062 65.105469 113.480469 69.074219 107.621094 C 69.984375 106.292969 69.632812 104.472656 68.304688 103.5625 C 66.972656 102.652344 65.152344 103.003906 64.242188 104.332031 C 60.089844 110.421875 56.378906 116.863281 53.203125 123.492188 C 52.503906 124.984375 53.132812 126.710938 54.582031 127.410156 Z M 290.621094 90.632812 C 291.203125 91.242188 291.972656 91.566406 292.765625 91.566406 C 293.488281 91.566406 294.191406 91.3125 294.75 90.773438 C 295.917969 89.679688 295.984375 87.835938 294.890625 86.644531 C 289.871094 81.253906 284.410156 76.214844 278.648438 71.640625 C 277.386719 70.636719 275.542969 70.847656 274.542969 72.105469 C 273.539062 73.367188 273.746094 75.210938 275.007812 76.214844 C 280.5625 80.625 285.8125 85.476562 290.621094 90.632812 Z M 154.761719 48.980469 C 161.621094 47.417969 168.691406 46.34375 175.761719 45.808594 C 177.371094 45.691406 178.5625 44.289062 178.445312 42.679688 C 178.328125 41.070312 176.976562 39.878906 175.320312 39.996094 C 167.96875 40.558594 160.617188 41.675781 153.453125 43.308594 C 151.890625 43.660156 150.910156 45.222656 151.261719 46.8125 C 151.5625 48.164062 152.777344 49.074219 154.105469 49.074219 C 154.316406 49.050781 154.527344 49.027344 154.761719 48.980469 Z M 115.371094 64.523438 C 121.484375 60.976562 127.925781 57.847656 134.480469 55.257812 C 135.976562 54.675781 136.722656 52.972656 136.117188 51.476562 C 135.53125 49.984375 133.828125 49.238281 132.335938 49.84375 C 125.496094 52.550781 118.800781 55.796875 112.429688 59.480469 C 111.03125 60.296875 110.5625 62.070312 111.378906 63.472656 C 111.917969 64.40625 112.898438 64.917969 113.898438 64.917969 C 114.390625 64.917969 114.902344 64.800781 115.371094 64.523438 Z M 82.304688 91.007812 C 87.109375 85.828125 92.339844 80.949219 97.84375 76.539062 C 99.105469 75.535156 99.316406 73.691406 98.289062 72.433594 C 97.261719 71.171875 95.441406 70.984375 94.183594 71.988281 C 88.441406 76.585938 83.003906 81.652344 78.011719 87.0625 C 76.914062 88.253906 76.984375 90.097656 78.171875 91.195312 C 78.734375 91.707031 79.433594 91.964844 80.15625 91.964844 C 80.949219 91.964844 81.71875 91.636719 82.304688 91.007812 Z M 238.324219 55.070312 C 244.90625 57.636719 251.34375 60.742188 257.484375 64.265625 C 257.949219 64.523438 258.441406 64.664062 258.929688 64.664062 C 259.933594 64.664062 260.914062 64.148438 261.449219 63.191406 C 262.242188 61.792969 261.777344 60.019531 260.375 59.203125 C 254.007812 55.539062 247.285156 52.316406 240.449219 49.632812 C 238.953125 49.050781 237.25 49.796875 236.667969 51.292969 C 236.085938 52.808594 236.808594 54.488281 238.324219 55.070312 Z M 218 48.863281 C 218.210938 48.910156 218.417969 48.933594 218.652344 48.933594 C 219.984375 48.933594 221.195312 48 221.5 46.648438 C 221.851562 45.085938 220.871094 43.519531 219.28125 43.171875 C 212.117188 41.558594 204.769531 40.464844 197.417969 39.949219 C 195.808594 39.808594 194.40625 41.046875 194.289062 42.65625 C 194.175781 44.265625 195.386719 45.667969 196.996094 45.785156 C 204.066406 46.273438 211.140625 47.324219 218 48.863281 Z M 317.199219 127.226562 C 317.617188 127.226562 318.0625 127.132812 318.457031 126.921875 C 319.90625 126.222656 320.511719 124.472656 319.8125 123.023438 C 316.613281 116.421875 312.882812 109.980469 308.703125 103.914062 C 307.792969 102.582031 305.972656 102.230469 304.644531 103.164062 C 303.3125 104.074219 302.988281 105.894531 303.898438 107.226562 C 307.910156 113.058594 311.503906 119.242188 314.5625 125.589844 C 315.074219 126.617188 316.125 127.226562 317.199219 127.226562 Z M 325.109375 155.414062 C 325.414062 156.765625 326.625 157.675781 327.957031 157.675781 C 328.164062 157.675781 328.398438 157.652344 328.609375 157.605469 C 330.171875 157.234375 331.152344 155.671875 330.804688 154.105469 C 330.007812 150.628906 329.050781 147.152344 328.027344 143.769531 C 327.558594 142.230469 325.925781 141.367188 324.386719 141.832031 C 322.84375 142.300781 321.980469 143.933594 322.449219 145.472656 C 323.429688 148.738281 324.339844 152.078125 325.109375 155.414062 Z M 328.9375 215.710938 C 327.347656 215.363281 325.808594 216.367188 325.457031 217.953125 C 324.734375 221.289062 323.871094 224.648438 322.890625 227.917969 C 322.425781 229.457031 323.3125 231.089844 324.851562 231.535156 C 325.132812 231.628906 325.414062 231.652344 325.691406 231.652344 C 326.953125 231.652344 328.117188 230.832031 328.492188 229.550781 C 329.496094 226.144531 330.40625 222.644531 331.152344 219.167969 C 331.527344 217.625 330.523438 216.0625 328.9375 215.710938 Z M 177.933594 329.332031 C 170.863281 328.914062 163.816406 327.957031 156.929688 326.484375 C 155.367188 326.160156 153.804688 327.164062 153.476562 328.726562 C 153.148438 330.289062 154.152344 331.851562 155.71875 332.179688 C 162.882812 333.695312 170.230469 334.699219 177.582031 335.144531 C 177.652344 335.144531 177.699219 335.144531 177.769531 335.144531 C 179.308594 335.144531 180.59375 333.953125 180.6875 332.414062 C 180.757812 330.824219 179.542969 329.425781 177.933594 329.332031 Z M 136.582031 320.535156 C 130 318.0625 123.515625 315.050781 117.355469 311.597656 C 115.953125 310.804688 114.179688 311.316406 113.386719 312.71875 C 112.59375 314.117188 113.105469 315.890625 114.507812 316.683594 C 120.925781 320.277344 127.667969 323.40625 134.527344 325.996094 C 134.878906 326.113281 135.207031 326.183594 135.554688 326.183594 C 136.722656 326.183594 137.84375 325.457031 138.285156 324.292969 C 138.84375 322.773438 138.074219 321.09375 136.582031 320.535156 Z M 319.25 246.328125 C 317.804688 245.652344 316.054688 246.28125 315.378906 247.730469 C 312.390625 254.121094 308.890625 260.328125 304.96875 266.1875 C 304.082031 267.515625 304.433594 269.335938 305.789062 270.222656 C 306.277344 270.550781 306.835938 270.714844 307.398438 270.714844 C 308.332031 270.714844 309.265625 270.246094 309.824219 269.40625 C 313.90625 263.292969 317.546875 256.828125 320.652344 250.179688 C 321.351562 248.753906 320.722656 247.003906 319.25 246.328125 Z M 291.925781 282.917969 C 287.1875 288.144531 282.007812 293.070312 276.546875 297.527344 C 275.3125 298.554688 275.125 300.375 276.128906 301.632812 C 276.710938 302.332031 277.550781 302.707031 278.390625 302.707031 C 279.042969 302.707031 279.699219 302.496094 280.234375 302.054688 C 285.90625 297.410156 291.296875 292.300781 296.21875 286.863281 C 297.292969 285.671875 297.222656 283.828125 296.007812 282.730469 C 294.867188 281.636719 293.023438 281.726562 291.925781 282.917969 Z M 83.914062 285.695312 C 82.792969 284.527344 80.949219 284.480469 79.785156 285.601562 C 78.617188 286.722656 78.570312 288.566406 79.691406 289.730469 C 84.753906 295.03125 90.285156 300 96.09375 304.503906 C 96.632812 304.921875 97.261719 305.109375 97.867188 305.109375 C 98.730469 305.109375 99.59375 304.714844 100.179688 303.992188 C 101.160156 302.707031 100.925781 300.886719 99.664062 299.90625 C 94.089844 295.566406 88.792969 290.804688 83.914062 285.695312 Z M 220.054688 325.644531 C 213.214844 327.300781 206.167969 328.445312 199.121094 329.050781 C 197.511719 329.191406 196.320312 330.617188 196.460938 332.203125 C 196.601562 333.71875 197.859375 334.863281 199.355469 334.863281 C 199.449219 334.863281 199.519531 334.863281 199.609375 334.863281 C 206.9375 334.234375 214.265625 333.019531 221.382812 331.316406 C 222.945312 330.941406 223.902344 329.355469 223.53125 327.792969 C 223.203125 326.230469 221.640625 325.25 220.054688 325.644531 Z M 59.550781 251.136719 C 58.828125 249.6875 57.078125 249.105469 55.632812 249.828125 C 54.183594 250.550781 53.601562 252.300781 54.324219 253.75 C 57.613281 260.304688 61.441406 266.675781 65.664062 272.675781 C 66.226562 273.46875 67.136719 273.910156 68.046875 273.910156 C 68.628906 273.910156 69.210938 273.746094 69.726562 273.375 C 71.03125 272.441406 71.359375 270.621094 70.425781 269.3125 C 66.390625 263.550781 62.703125 257.4375 59.550781 251.136719 Z M 259.210938 309.707031 C 253.140625 313.324219 246.75 316.5 240.238281 319.160156 C 238.746094 319.765625 238.019531 321.46875 238.628906 322.960938 C 239.09375 324.105469 240.191406 324.78125 241.335938 324.78125 C 241.707031 324.78125 242.082031 324.710938 242.429688 324.570312 C 249.222656 321.796875 255.871094 318.480469 262.195312 314.726562 C 263.574219 313.90625 264.039062 312.109375 263.199219 310.734375 C 262.359375 309.359375 260.585938 308.867188 259.210938 309.707031 Z M 48.632812 221.5 C 48.257812 219.9375 46.671875 218.980469 45.105469 219.351562 C 43.542969 219.726562 42.585938 221.3125 42.960938 222.875 C 43.800781 226.308594 44.78125 229.785156 45.902344 233.191406 C 46.296875 234.425781 47.441406 235.199219 48.675781 235.199219 C 48.980469 235.199219 49.285156 235.152344 49.585938 235.058594 C 51.128906 234.566406 51.96875 232.910156 51.453125 231.371094 C 50.382812 228.125 49.425781 224.789062 48.632812 221.5 Z M 315.496094 224.042969 C 318.339844 221.523438 320.933594 218.886719 323.148438 216.25 C 324.175781 215.011719 324.011719 213.167969 322.773438 212.140625 C 321.539062 211.117188 319.695312 211.277344 318.667969 212.515625 C 316.636719 214.941406 314.257812 217.371094 311.644531 219.703125 C 310.429688 220.777344 310.3125 222.621094 311.386719 223.808594 C 311.972656 224.464844 312.765625 224.789062 313.582031 224.789062 C 314.257812 224.789062 314.933594 224.535156 315.496094 224.042969 Z M 200.40625 255.242188 C 198.792969 255.3125 197.558594 256.691406 197.628906 258.300781 C 197.699219 259.863281 198.980469 261.078125 200.542969 261.078125 C 200.589844 261.078125 200.636719 261.078125 200.683594 261.078125 C 207.5 260.75 214.289062 260.191406 220.941406 259.417969 C 222.550781 259.234375 223.691406 257.785156 223.507812 256.175781 C 223.320312 254.566406 221.851562 253.421875 220.261719 253.609375 C 213.753906 254.402344 207.078125 254.9375 200.40625 255.242188 Z M 240.472656 256.339844 C 240.65625 256.339844 240.84375 256.316406 241.03125 256.292969 C 247.84375 254.960938 254.496094 253.351562 260.84375 251.53125 C 262.382812 251.089844 263.292969 249.480469 262.851562 247.914062 C 262.40625 246.351562 260.773438 245.464844 259.234375 245.910156 C 253.074219 247.683594 246.5625 249.246094 239.910156 250.550781 C 238.324219 250.855469 237.296875 252.394531 237.601562 253.984375 C 237.882812 255.382812 239.117188 256.339844 240.472656 256.339844 Z M 295.707031 230.925781 C 290.339844 234.007812 284.367188 236.902344 277.972656 239.492188 C 276.476562 240.097656 275.753906 241.800781 276.359375 243.296875 C 276.828125 244.4375 277.925781 245.113281 279.066406 245.113281 C 279.441406 245.113281 279.816406 245.046875 280.164062 244.90625 C 286.816406 242.199219 293.023438 239.210938 298.625 235.992188 C 300.023438 235.199219 300.488281 233.402344 299.695312 232 C 298.878906 230.601562 297.105469 230.132812 295.707031 230.925781 Z M 102.417969 242.199219 C 95.957031 239.886719 89.816406 237.296875 84.242188 234.496094 C 82.792969 233.773438 81.042969 234.359375 80.320312 235.804688 C 79.597656 237.25 80.179688 239 81.628906 239.726562 C 87.4375 242.640625 93.785156 245.324219 100.480469 247.707031 C 100.808594 247.820312 101.136719 247.867188 101.460938 247.867188 C 102.652344 247.867188 103.796875 247.121094 104.214844 245.933594 C 104.730469 244.414062 103.9375 242.734375 102.417969 242.199219 Z M 180.5 255.5 C 173.824219 255.359375 167.152344 254.984375 160.617188 254.402344 C 158.984375 254.285156 157.605469 255.453125 157.445312 257.039062 C 157.304688 258.648438 158.492188 260.050781 160.082031 260.214844 C 166.730469 260.796875 173.570312 261.191406 180.359375 261.332031 C 180.382812 261.332031 180.40625 261.332031 180.429688 261.332031 C 182.015625 261.332031 183.300781 260.074219 183.347656 258.484375 C 183.394531 256.875 182.109375 255.546875 180.5 255.5 Z M 140.875 251.929688 C 134.203125 250.832031 127.667969 249.480469 121.414062 247.914062 C 119.875 247.542969 118.265625 248.476562 117.867188 250.039062 C 117.46875 251.601562 118.425781 253.1875 119.992188 253.585938 C 126.382812 255.195312 133.105469 256.574219 139.917969 257.691406 C 140.082031 257.714844 140.246094 257.738281 140.410156 257.738281 C 141.808594 257.738281 143.046875 256.734375 143.28125 255.289062 C 143.535156 253.679688 142.460938 252.1875 140.875 251.929688 Z M 55.515625 217.953125 C 54.394531 219.121094 54.441406 220.964844 55.632812 222.082031 C 58.152344 224.464844 60.953125 226.796875 63.960938 229.035156 C 64.476562 229.433594 65.082031 229.597656 65.6875 229.597656 C 66.574219 229.597656 67.460938 229.175781 68.046875 228.40625 C 69.003906 227.125 68.722656 225.28125 67.4375 224.324219 C 64.617188 222.246094 62.003906 220.054688 59.667969 217.835938 C 58.480469 216.738281 56.636719 216.785156 55.515625 217.953125 Z M 62.65625 146.941406 C 59.667969 149.230469 56.914062 151.609375 54.441406 154.058594 C 53.296875 155.203125 53.296875 157.046875 54.417969 158.191406 C 54.976562 158.773438 55.75 159.054688 56.496094 159.054688 C 57.242188 159.054688 57.988281 158.773438 58.546875 158.214844 C 60.835938 155.949219 63.402344 153.734375 66.179688 151.585938 C 67.460938 150.605469 67.695312 148.785156 66.714844 147.503906 C 65.78125 146.195312 63.9375 145.964844 62.65625 146.941406 Z M 156.066406 118.078125 C 156.207031 119.59375 157.492188 120.714844 158.960938 120.714844 C 159.054688 120.714844 159.148438 120.714844 159.242188 120.691406 C 165.773438 120.0625 172.472656 119.664062 179.167969 119.5 C 180.78125 119.453125 182.0625 118.125 182.015625 116.515625 C 181.96875 114.902344 180.617188 113.644531 179.027344 113.667969 C 172.214844 113.832031 165.378906 114.25 158.703125 114.878906 C 157.09375 115.042969 155.902344 116.46875 156.066406 118.078125 Z M 116.445312 125.335938 C 116.792969 126.640625 117.960938 127.527344 119.265625 127.527344 C 119.5 127.527344 119.757812 127.503906 119.992188 127.433594 C 126.246094 125.824219 132.800781 124.425781 139.476562 123.304688 C 141.0625 123.023438 142.136719 121.53125 141.855469 119.945312 C 141.574219 118.355469 140.082031 117.308594 138.496094 117.5625 C 131.660156 118.730469 124.9375 120.152344 118.542969 121.8125 C 116.980469 122.183594 116.023438 123.769531 116.445312 125.335938 Z M 258.113281 128.742188 C 258.371094 128.8125 258.648438 128.859375 258.90625 128.859375 C 260.167969 128.859375 261.355469 128.019531 261.707031 126.734375 C 262.148438 125.195312 261.238281 123.585938 259.699219 123.140625 C 253.351562 121.34375 246.65625 119.78125 239.839844 118.472656 C 238.253906 118.171875 236.738281 119.21875 236.433594 120.785156 C 236.132812 122.371094 237.179688 123.886719 238.746094 124.191406 C 245.394531 125.472656 251.929688 126.992188 258.113281 128.742188 Z M 199.121094 119.6875 C 205.816406 119.96875 212.492188 120.480469 219.027344 121.226562 C 219.144531 121.25 219.257812 121.25 219.351562 121.25 C 220.824219 121.25 222.082031 120.152344 222.246094 118.660156 C 222.433594 117.050781 221.265625 115.625 219.679688 115.441406 C 213.027344 114.695312 206.191406 114.15625 199.378906 113.875 C 197.652344 113.851562 196.414062 115.066406 196.34375 116.675781 C 196.273438 118.289062 197.511719 119.617188 199.121094 119.6875 Z M 81.535156 141.507812 C 81.976562 141.507812 82.445312 141.414062 82.863281 141.179688 C 88.441406 138.308594 94.53125 135.671875 101.019531 133.292969 C 102.535156 132.730469 103.304688 131.074219 102.769531 129.558594 C 102.210938 128.042969 100.550781 127.269531 99.035156 127.808594 C 92.339844 130.257812 86.015625 133.011719 80.226562 135.976562 C 78.804688 136.722656 78.21875 138.472656 78.96875 139.894531 C 79.433594 140.921875 80.460938 141.507812 81.535156 141.507812 Z M 276.945312 135.066406 C 283.363281 137.609375 289.382812 140.457031 294.796875 143.511719 C 295.238281 143.769531 295.753906 143.886719 296.21875 143.886719 C 297.246094 143.886719 298.226562 143.347656 298.761719 142.394531 C 299.554688 140.992188 299.066406 139.21875 297.667969 138.425781 C 292.019531 135.230469 285.765625 132.289062 279.089844 129.628906 C 277.597656 129.042969 275.894531 129.769531 275.3125 131.261719 C 274.703125 132.777344 275.449219 134.480469 276.945312 135.066406 Z M 314.726562 150.257812 C 313.511719 149.207031 311.667969 149.347656 310.617188 150.558594 C 309.566406 151.773438 309.707031 153.617188 310.921875 154.667969 C 313.582031 156.953125 315.984375 159.335938 318.0625 161.761719 C 318.644531 162.4375 319.460938 162.765625 320.277344 162.765625 C 320.957031 162.765625 321.632812 162.53125 322.191406 162.0625 C 323.40625 161.015625 323.546875 159.171875 322.496094 157.957031 C 320.183594 155.320312 317.59375 152.730469 314.726562 150.257812 Z M 345.550781 184.582031 L 336.238281 184.582031 L 342.820312 178.003906 C 343.964844 176.859375 343.964844 175.015625 342.820312 173.871094 C 341.675781 172.730469 339.832031 172.730469 338.691406 173.871094 L 332.109375 180.453125 L 332.109375 171.140625 C 332.109375 169.53125 330.800781 168.226562 329.191406 168.226562 C 327.582031 168.226562 326.277344 169.53125 326.277344 171.140625 L 326.277344 180.453125 L 319.695312 173.871094 C 318.550781 172.730469 316.707031 172.730469 315.566406 173.871094 C 314.421875 175.015625 314.421875 176.859375 315.566406 178.003906 L 322.144531 184.582031 L 312.835938 184.582031 C 311.222656 184.582031 309.917969 185.890625 309.917969 187.5 C 309.917969 189.109375 311.222656 190.417969 312.835938 190.417969 L 322.144531 190.417969 L 315.566406 196.996094 C 314.421875 198.140625 314.421875 199.984375 315.566406 201.128906 C 316.125 201.6875 316.871094 201.992188 317.617188 201.992188 C 318.363281 201.992188 319.113281 201.710938 319.671875 201.128906 L 326.253906 194.546875 L 326.253906 203.859375 C 326.253906 205.46875 327.558594 206.773438 329.167969 206.773438 C 330.78125 206.773438 332.085938 205.46875 332.085938 203.859375 L 332.085938 194.546875 L 338.667969 201.128906 C 339.226562 201.6875 339.972656 201.992188 340.71875 201.992188 C 341.46875 201.992188 342.214844 201.710938 342.773438 201.128906 C 343.917969 199.984375 343.917969 198.140625 342.773438 196.996094 L 336.191406 190.417969 L 345.503906 190.417969 C 347.113281 190.417969 348.421875 189.109375 348.421875 187.5 C 348.421875 185.890625 347.160156 184.582031 345.550781 184.582031 Z M 45.785156 207.964844 C 47.394531 207.964844 48.699219 206.660156 48.699219 205.046875 L 48.699219 195.738281 L 55.28125 202.316406 C 55.839844 202.878906 56.589844 203.179688 57.335938 203.179688 C 58.082031 203.179688 58.828125 202.902344 59.386719 202.316406 C 60.53125 201.175781 60.53125 199.332031 59.386719 198.1875 L 52.808594 191.605469 L 62.117188 191.605469 C 63.730469 191.605469 65.035156 190.300781 65.035156 188.691406 C 65.035156 187.078125 63.730469 185.773438 62.117188 185.773438 L 52.808594 185.773438 L 59.386719 179.191406 C 60.53125 178.050781 60.53125 176.207031 59.386719 175.0625 C 58.246094 173.917969 56.402344 173.917969 55.257812 175.0625 L 48.675781 181.644531 L 48.675781 172.332031 C 48.675781 170.722656 47.371094 169.414062 45.761719 169.414062 C 44.152344 169.414062 42.84375 170.722656 42.84375 172.332031 L 42.84375 181.644531 L 36.261719 175.0625 C 35.121094 173.917969 33.277344 173.917969 32.132812 175.0625 C 30.988281 176.207031 30.988281 178.050781 32.132812 179.191406 L 38.714844 185.773438 L 29.402344 185.773438 C 27.792969 185.773438 26.484375 187.078125 26.484375 188.691406 C 26.484375 190.300781 27.792969 191.605469 29.402344 191.605469 L 38.714844 191.605469 L 32.132812 198.1875 C 30.988281 199.332031 30.988281 201.175781 32.132812 202.316406 C 32.691406 202.878906 33.441406 203.179688 34.1875 203.179688 C 34.933594 203.179688 35.679688 202.902344 36.238281 202.316406 L 42.820312 195.738281 L 42.820312 205.046875 C 42.867188 206.660156 44.175781 207.964844 45.785156 207.964844 Z M 45.785156 207.964844 " fill-opacity="1" fill-rule="nonzero"/><path fill="#ffffff" d="M 199.238281 255.988281 C 199.5625 257.039062 199.773438 258.136719 199.75 259.304688 C 199.726562 260.121094 199.585938 260.914062 199.402344 261.683594 C 210.601562 273.492188 217.484375 289.40625 218.210938 305.695312 C 218.371094 309.613281 218.164062 313.746094 216.226562 317.175781 C 214.289062 320.605469 210.207031 323.078125 206.402344 322.003906 C 203.601562 321.210938 201.570312 318.714844 200.542969 316.007812 C 199.519531 313.300781 199.332031 310.359375 199.050781 307.46875 C 197.859375 294.46875 194.921875 281.660156 190.394531 269.429688 C 189.949219 269.476562 189.507812 269.546875 189.0625 269.523438 C 188.574219 269.523438 188.128906 269.429688 187.664062 269.359375 C 182.578125 281.378906 179.074219 294.050781 177.324219 306.976562 C 176.929688 309.847656 176.625 312.789062 175.457031 315.449219 C 174.316406 318.109375 172.167969 320.511719 169.34375 321.1875 C 165.519531 322.074219 161.527344 319.4375 159.753906 315.914062 C 157.980469 312.414062 157.933594 308.285156 158.285156 304.363281 C 159.730469 288.097656 167.316406 272.488281 179.074219 261.167969 C 178.914062 260.421875 178.820312 259.628906 178.84375 258.835938 C 178.867188 257.691406 179.121094 256.621094 179.472656 255.617188 C 168.0625 243.761719 161.0625 227.707031 160.335938 211.253906 C 160.175781 207.335938 160.382812 203.203125 162.320312 199.773438 C 164.257812 196.34375 168.339844 193.871094 172.144531 194.945312 C 174.945312 195.738281 176.976562 198.234375 178.003906 200.941406 C 179.027344 203.648438 179.214844 206.589844 179.496094 209.480469 C 180.710938 222.875 183.8125 236.109375 188.597656 248.683594 C 188.921875 248.660156 189.226562 248.617188 189.554688 248.617188 C 189.855469 248.617188 190.136719 248.683594 190.417969 248.730469 C 195.761719 236.386719 199.425781 223.320312 201.246094 209.996094 C 201.640625 207.125 201.945312 204.183594 203.113281 201.523438 C 204.253906 198.863281 206.402344 196.460938 209.226562 195.785156 C 213.050781 194.898438 217.042969 197.535156 218.816406 201.058594 C 220.589844 204.558594 220.636719 208.6875 220.285156 212.609375 C 218.792969 228.945312 211.140625 244.648438 199.238281 255.988281 Z M 199.238281 255.988281 " fill-opacity="1" fill-rule="nonzero"/><path fill="#ffffff" d="M 217.835938 173.964844 C 216.15625 177.511719 212.257812 180.289062 208.410156 179.519531 C 205.5625 178.9375 203.34375 176.601562 202.109375 173.964844 C 200.871094 171.328125 200.472656 168.410156 200.007812 165.566406 C 197.859375 152.707031 193.988281 140.128906 188.550781 128.273438 C 188.105469 128.34375 187.6875 128.460938 187.21875 128.484375 C 186.730469 128.507812 186.261719 128.460938 185.796875 128.414062 C 181.621094 140.78125 179.074219 153.6875 178.28125 166.707031 C 178.097656 169.601562 178.003906 172.542969 177.070312 175.296875 C 176.113281 178.027344 174.152344 180.59375 171.398438 181.457031 C 167.640625 182.621094 163.488281 180.289062 161.433594 176.929688 C 159.378906 173.570312 159.054688 169.460938 159.125 165.519531 C 159.359375 149.183594 165.773438 133.058594 176.648438 120.902344 C 176.4375 120.152344 176.277344 119.382812 176.253906 118.589844 C 176.183594 117.445312 176.367188 116.375 176.648438 115.324219 C 164.398438 104.355469 156.230469 88.859375 154.269531 72.503906 C 153.804688 68.605469 153.710938 64.476562 155.390625 60.929688 C 157.070312 57.382812 160.96875 54.605469 164.816406 55.375 C 167.664062 55.957031 169.882812 58.292969 171.117188 60.929688 C 172.355469 63.566406 172.753906 66.484375 173.21875 69.328125 C 175.4375 82.605469 179.496094 95.558594 185.214844 107.738281 C 185.515625 107.691406 185.820312 107.621094 186.148438 107.597656 C 186.449219 107.578125 186.730469 107.621094 187.011719 107.644531 C 191.421875 94.929688 194.105469 81.628906 194.921875 68.210938 C 195.105469 65.316406 195.199219 62.375 196.132812 59.621094 C 197.089844 56.890625 199.050781 54.324219 201.804688 53.460938 C 205.5625 52.292969 209.714844 54.628906 211.769531 57.988281 C 213.800781 61.347656 214.148438 65.457031 214.078125 69.398438 C 213.84375 85.828125 207.359375 102.070312 196.34375 114.25 C 196.742188 115.277344 197.042969 116.351562 197.089844 117.515625 C 197.136719 118.332031 197.042969 119.152344 196.902344 119.921875 C 208.96875 130.863281 216.972656 146.21875 218.910156 162.414062 C 219.398438 166.289062 219.492188 170.394531 217.835938 173.964844 Z M 217.835938 173.964844 " fill-opacity="1" fill-rule="nonzero"/></svg>