<svg xmlns="http://www.w3.org/2000/svg" xmlns:xlink="http://www.w3.org/1999/xlink" width="500" zoomAndPan="magnify" viewBox="0 0 375 374.999991" height="500" preserveAspectRatio="xMidYMid meet" version="1.0"><defs><clipPath id="c7b1f26689"><path d="M 187.5 0 C 83.945312 0 0 83.945312 0 187.5 C 0 291.054688 83.945312 375 187.5 375 C 291.054688 375 375 291.054688 375 187.5 C 375 83.945312 291.054688 0 187.5 0 Z M 187.5 0 " clip-rule="nonzero"/></clipPath><clipPath id="9babe7105e"><path d="M 113 73.859375 L 263 73.859375 L 263 265 L 113 265 Z M 113 73.859375 " clip-rule="nonzero"/></clipPath><clipPath id="ee2b9f61c8"><path d="M 68.734375 111 L 84 111 L 84 227 L 68.734375 227 Z M 68.734375 111 " clip-rule="nonzero"/></clipPath><clipPath id="515bb72723"><path d="M 291.3125 111.9375 L 306.484375 111.9375 L 306.484375 226.585938 L 291.3125 226.585938 Z M 291.3125 111.9375 " clip-rule="nonzero"/></clipPath><clipPath id="493254ce73"><path d="M 192.117188 269.761719 L 226.566406 269.761719 L 226.566406 334.09375 L 192.117188 334.09375 Z M 192.117188 269.761719 " clip-rule="nonzero"/></clipPath></defs><rect x="-37.5" width="450" fill="#ffffff" y="-37.499999" height="449.999989" fill-opacity="1"/><rect x="-37.5" width="450" fill="#ffffff" y="-37.499999" height="449.999989" fill-opacity="1"/><g clip-path="url(#c7b1f26689)"><rect x="-37.5" width="450" fill="#58a39d" y="-37.499999" height="449.999989" fill-opacity="1"/></g><g clip-path="url(#9babe7105e)"><path fill="#ffffff" d="M 262.144531 264.589844 L 219.96875 264.589844 L 219.96875 257.527344 L 255.066406 257.527344 L 255.066406 80.953125 L 120.15625 80.953125 L 120.15625 257.527344 L 198.796875 257.527344 L 198.796875 264.589844 L 113.078125 264.589844 L 113.078125 73.886719 L 262.144531 73.886719 L 262.144531 264.589844 " fill-opacity="1" fill-rule="nonzero"/></g><path fill="#ffffff" d="M 106.003906 247.769531 L 90.90625 247.769531 L 90.90625 90.707031 L 106.003906 90.707031 L 106.003906 97.773438 L 97.984375 97.773438 L 97.984375 240.703125 L 106.003906 240.703125 L 106.003906 247.769531 " fill-opacity="1" fill-rule="nonzero"/><path fill="#ffffff" d="M 284.316406 247.769531 L 269.222656 247.769531 L 269.222656 240.703125 L 277.238281 240.703125 L 277.238281 97.773438 L 269.222656 97.773438 L 269.222656 90.707031 L 284.316406 90.707031 L 284.316406 247.769531 " fill-opacity="1" fill-rule="nonzero"/><g clip-path="url(#ee2b9f61c8)"><path fill="#ffffff" d="M 83.828125 111.96875 L 83.828125 119.035156 L 75.8125 119.035156 L 75.8125 219.441406 L 83.828125 219.441406 L 83.828125 226.507812 L 68.734375 226.507812 L 68.734375 111.96875 L 83.828125 111.96875 " fill-opacity="1" fill-rule="nonzero"/></g><g clip-path="url(#515bb72723)"><path fill="#ffffff" d="M 291.394531 226.507812 L 291.394531 219.441406 L 299.410156 219.441406 L 299.410156 119.035156 L 291.394531 119.035156 L 291.394531 111.96875 L 306.488281 111.96875 L 306.488281 226.507812 L 291.394531 226.507812 " fill-opacity="1" fill-rule="nonzero"/></g><path fill="#ffffff" d="M 209.039062 113.519531 L 166.183594 113.519531 L 166.183594 106.453125 L 209.039062 106.453125 L 209.039062 113.519531 " fill-opacity="1" fill-rule="nonzero"/><path fill="#ffffff" d="M 234.105469 144.199219 L 141.121094 144.199219 L 141.121094 137.132812 L 234.105469 137.132812 L 234.105469 144.199219 " fill-opacity="1" fill-rule="nonzero"/><path fill="#ffffff" d="M 198.390625 174.878906 L 141.121094 174.878906 L 141.121094 167.8125 L 198.390625 167.8125 L 198.390625 174.878906 " fill-opacity="1" fill-rule="nonzero"/><path fill="#ffffff" d="M 234.105469 174.878906 L 207.136719 174.878906 L 207.136719 167.8125 L 234.105469 167.8125 L 234.105469 174.878906 " fill-opacity="1" fill-rule="nonzero"/><path fill="#ffffff" d="M 166.621094 205.558594 L 141.121094 205.558594 L 141.121094 198.492188 L 166.621094 198.492188 L 166.621094 205.558594 " fill-opacity="1" fill-rule="nonzero"/><path fill="#ffffff" d="M 166.621094 236.238281 L 141.121094 236.238281 L 141.121094 229.171875 L 166.621094 229.171875 L 166.621094 236.238281 " fill-opacity="1" fill-rule="nonzero"/><path fill="#ffffff" d="M 206.570312 229.027344 L 194.390625 216.867188 L 199.390625 211.867188 L 211.574219 224.03125 L 206.570312 229.027344 " fill-opacity="1" fill-rule="nonzero"/><path fill="#ffffff" d="M 201.5625 224.03125 L 219.917969 205.707031 L 224.921875 210.703125 L 206.570312 229.027344 L 201.5625 224.03125 " fill-opacity="1" fill-rule="nonzero"/><path fill="#ffffff" d="M 209.402344 190.808594 C 194.734375 190.808594 182.800781 202.722656 182.800781 217.367188 C 182.800781 232.011719 194.734375 243.921875 209.402344 243.921875 C 224.070312 243.921875 236 232.011719 236 217.367188 C 236 202.722656 224.070312 190.808594 209.402344 190.808594 Z M 209.402344 250.988281 C 190.832031 250.988281 175.726562 235.90625 175.726562 217.367188 C 175.726562 198.828125 190.832031 183.742188 209.402344 183.742188 C 227.972656 183.742188 243.078125 198.828125 243.078125 217.367188 C 243.078125 235.90625 227.972656 250.988281 209.402344 250.988281 " fill-opacity="1" fill-rule="nonzero"/><path fill="#ffffff" d="M 212.941406 273.890625 L 205.863281 273.890625 L 205.863281 248.449219 L 212.941406 248.449219 L 212.941406 273.890625 " fill-opacity="1" fill-rule="nonzero"/><g clip-path="url(#493254ce73)"><path fill="#ffffff" d="M 209.402344 276.863281 C 205.480469 276.863281 202.175781 279.917969 201.882812 283.824219 L 199.425781 316.285156 C 199.214844 319.089844 200.152344 321.769531 202.066406 323.832031 C 203.980469 325.890625 206.585938 327.027344 209.402344 327.027344 C 212.21875 327.027344 214.824219 325.890625 216.738281 323.832031 C 218.652344 321.769531 219.589844 319.089844 219.378906 316.285156 L 216.921875 283.824219 C 216.625 279.917969 213.324219 276.863281 209.402344 276.863281 Z M 209.402344 334.09375 C 204.664062 334.09375 200.101562 332.105469 196.878906 328.636719 C 193.65625 325.167969 192.011719 320.472656 192.371094 315.753906 L 194.824219 283.292969 C 195.398438 275.722656 201.800781 269.796875 209.402344 269.796875 C 217.003906 269.796875 223.40625 275.722656 223.980469 283.292969 L 226.433594 315.753906 C 226.792969 320.472656 225.148438 325.167969 221.925781 328.636719 C 218.707031 332.105469 214.140625 334.09375 209.402344 334.09375 " fill-opacity="1" fill-rule="nonzero"/></g></svg>