<svg xmlns="http://www.w3.org/2000/svg" xmlns:xlink="http://www.w3.org/1999/xlink" width="500" zoomAndPan="magnify" viewBox="0 0 375 374.999991" height="500" preserveAspectRatio="xMidYMid meet" version="1.0"><defs><clipPath id="f019db36e7"><path d="M 187.5 0 C 83.945312 0 0 83.945312 0 187.5 C 0 291.054688 83.945312 375 187.5 375 C 291.054688 375 375 291.054688 375 187.5 C 375 83.945312 291.054688 0 187.5 0 Z M 187.5 0 " clip-rule="nonzero"/></clipPath><clipPath id="e38e148aec"><path d="M 59 49 L 335 49 L 335 302 L 59 302 Z M 59 49 " clip-rule="nonzero"/></clipPath><clipPath id="e597efb8b6"><path d="M 237.847656 40.894531 L 342.832031 188.03125 L 116.324219 349.644531 L 11.34375 202.507812 Z M 237.847656 40.894531 " clip-rule="nonzero"/></clipPath><clipPath id="796e109fc2"><path d="M 237.847656 40.894531 L 342.832031 188.03125 L 116.324219 349.644531 L 11.34375 202.507812 Z M 237.847656 40.894531 " clip-rule="nonzero"/></clipPath><clipPath id="946bccaf4d"><path d="M 67 275 L 75 275 L 75 282 L 67 282 Z M 67 275 " clip-rule="nonzero"/></clipPath><clipPath id="743b8369e4"><path d="M 237.847656 40.894531 L 342.832031 188.03125 L 116.324219 349.644531 L 11.34375 202.507812 Z M 237.847656 40.894531 " clip-rule="nonzero"/></clipPath><clipPath id="f796bad3a3"><path d="M 237.847656 40.894531 L 342.832031 188.03125 L 116.324219 349.644531 L 11.34375 202.507812 Z M 237.847656 40.894531 " clip-rule="nonzero"/></clipPath></defs><rect x="-37.5" width="450" fill="#ffffff" y="-37.499999" height="449.999989" fill-opacity="1"/><rect x="-37.5" width="450" fill="#ffffff" y="-37.499999" height="449.999989" fill-opacity="1"/><g clip-path="url(#f019db36e7)"><rect x="-37.5" width="450" fill="#a2c36e" y="-37.499999" height="449.999989" fill-opacity="1"/></g><g clip-path="url(#e38e148aec)"><g clip-path="url(#e597efb8b6)"><g clip-path="url(#796e109fc2)"><path fill="#ffffff" d="M 70.804688 275.933594 C 70.421875 276.039062 70.03125 276.144531 68.785156 276.484375 C 70.15625 274.617188 71.058594 273.394531 72.125 271.945312 C 70.191406 271.554688 68.507812 271.214844 66.476562 270.804688 C 67.25 270.253906 67.914062 269.796875 68.554688 269.316406 C 69.144531 268.875 69.714844 268.402344 70.289062 267.945312 C 70.144531 267.703125 70 267.457031 69.855469 267.210938 C 68.238281 268.074219 66.625 268.9375 65.007812 269.796875 C 64.894531 269.597656 64.78125 269.398438 64.667969 269.195312 L 68.832031 266.222656 C 67.050781 266.4375 65.8125 266.589844 64.570312 266.742188 C 64.515625 266.484375 64.460938 266.222656 64.402344 265.964844 C 64.980469 265.765625 65.542969 265.519531 66.132812 265.375 C 67.714844 264.992188 69.0625 264.648438 69.246094 262.476562 C 69.324219 261.558594 70.757812 260.730469 71.621094 259.910156 C 72.378906 259.191406 73.199219 258.542969 73.617188 258.1875 C 72.890625 256.636719 71.835938 255.417969 72.109375 254.710938 C 72.585938 253.484375 73.839844 253.34375 75.257812 254.117188 C 75.929688 254.484375 77.160156 253.839844 78.136719 253.65625 C 78.113281 253.242188 78.085938 252.828125 78.0625 252.414062 C 76.472656 252.394531 74.882812 252.371094 72.589844 252.347656 C 76.054688 250.390625 79.265625 248.617188 78.453125 244.214844 C 79.875 243.550781 81.285156 242.894531 83.207031 241.996094 C 82.050781 241.5625 81.449219 241.335938 80.394531 240.9375 C 83.5625 239.304688 86.371094 237.851562 89.183594 236.402344 C 89.082031 236.164062 88.984375 235.921875 88.886719 235.679688 C 88.183594 235.707031 87.476562 235.738281 85.953125 235.796875 C 89.144531 232.832031 91.726562 230.328125 94.425781 227.953125 C 96.960938 225.726562 99.617188 223.632812 102.527344 221.230469 C 101.578125 221.265625 100.980469 221.289062 100.0625 221.320312 L 116.777344 209.394531 C 116.417969 209.074219 115.949219 208.660156 115.898438 208.613281 C 122.023438 204.300781 127.871094 199.660156 134.238281 195.90625 C 137.796875 193.808594 137.328125 191.886719 135.964844 189.109375 C 134.625 186.394531 133.46875 183.589844 132.042969 180.925781 C 130.90625 178.804688 129.652344 178.839844 128.210938 180.832031 C 121.523438 190.078125 114.835938 199.316406 108.1875 208.585938 C 106.992188 210.25 106.078125 212.113281 104.847656 213.746094 C 103.789062 215.15625 102.679688 216.730469 101.21875 217.59375 C 96.171875 220.589844 91.035156 223.351562 84.984375 224.042969 C 78.8125 224.746094 72.683594 225.859375 66.550781 226.902344 C 65.253906 227.121094 63.578125 227.125 63.40625 229.191406 C 63.386719 229.441406 62.207031 229.910156 61.726562 229.757812 C 59.402344 229.035156 58.6875 225.617188 60.472656 224.023438 C 60.789062 223.742188 61.273438 223.386719 61.617188 223.445312 C 65.835938 224.140625 69.824219 222.964844 73.878906 222.128906 C 76.660156 221.550781 79.625 221.671875 82.304688 220.835938 C 86.703125 219.464844 90.949219 217.578125 95.242188 215.871094 C 95.535156 215.757812 95.746094 215.390625 95.953125 215.113281 C 99.015625 211.027344 102.074219 206.941406 105.125 202.847656 C 105.871094 201.84375 106.507812 200.753906 107.3125 199.804688 C 114.382812 191.46875 121.402344 183.085938 128.605469 174.867188 C 131.15625 171.957031 133.363281 172.195312 136.617188 174.4375 C 140.914062 177.394531 143.605469 181.667969 146.605469 185.726562 C 147.050781 186.335938 148.03125 187.042969 148.617188 186.933594 C 149.300781 186.804688 150.324219 185.820312 150.324219 185.210938 C 150.324219 182.429688 152.285156 181.003906 154.089844 179.6875 C 163.5625 172.769531 173.109375 165.96875 182.679688 159.191406 C 184.335938 158.023438 185.453125 156.792969 185.289062 154.621094 C 185.089844 151.96875 185.035156 149.300781 184.90625 146.425781 C 180.917969 146.945312 178.265625 149.246094 175.476562 151.238281 C 170.125 155.066406 164.8125 158.953125 159.476562 162.804688 C 157.425781 164.285156 155.359375 165.746094 153.289062 167.195312 C 151.5625 168.398438 149.753906 168.871094 147.753906 167.820312 C 147.292969 167.574219 146.753906 167.394531 146.234375 167.335938 C 140.402344 166.648438 134.546875 166.152344 128.753906 165.253906 C 126.183594 164.851562 123.742188 163.632812 121.234375 162.824219 C 119.789062 162.363281 118.339844 161.894531 116.855469 161.609375 C 116.421875 161.527344 115.5625 161.972656 115.421875 162.363281 C 114.726562 164.304688 113.480469 163.671875 112.433594 163.003906 C 110.769531 161.933594 110.164062 160.261719 111.449219 158.671875 C 111.980469 158.015625 113.546875 157.738281 114.484375 157.957031 C 117.214844 158.582031 119.816406 159.777344 122.550781 160.324219 C 127.261719 161.269531 132.011719 162.085938 136.785156 162.59375 C 140.292969 162.96875 143.863281 162.882812 147.394531 162.75 C 148.332031 162.710938 149.234375 161.742188 150.148438 161.1875 C 159.988281 155.234375 169.792969 149.234375 179.679688 143.363281 C 181.957031 142.011719 184.519531 141.160156 186.921875 140.019531 C 189.300781 138.886719 190.863281 140.019531 191.648438 142.035156 C 192.675781 144.675781 193.476562 147.445312 194.035156 150.230469 C 194.703125 153.550781 194.820312 153.722656 198.140625 153.359375 C 199.570312 153.199219 201.042969 153.4375 202.496094 153.496094 C 202.503906 153.828125 202.511719 154.15625 202.515625 154.488281 C 202.078125 154.621094 201.648438 154.859375 201.207031 154.878906 C 197.089844 155.046875 193.28125 155.976562 189.378906 157.605469 C 184.144531 159.789062 179.882812 163.183594 175.40625 166.382812 C 168.875 171.050781 162.351562 175.746094 155.824219 180.425781 C 151.738281 183.355469 151.238281 184.582031 153.5 188.625 C 156.265625 193.578125 159.875 197.820312 164.945312 200.675781 C 166.503906 201.554688 167.597656 201.464844 169.046875 200.414062 C 176.648438 194.890625 184.21875 189.320312 192.039062 184.117188 C 195.109375 182.078125 196.164062 179.089844 197.554688 176.144531 C 198.886719 173.3125 200.09375 170.421875 201.320312 167.542969 C 201.566406 166.972656 201.851562 166.320312 201.789062 165.742188 C 201.074219 158.566406 204.917969 153.0625 208.554688 147.542969 C 209.507812 146.09375 209.558594 145.101562 208.667969 143.707031 C 206.917969 140.96875 207.285156 139.617188 209.6875 137.355469 C 210.632812 136.460938 211.203125 135.167969 211.929688 134.050781 C 216.128906 127.5625 220.34375 121.078125 224.519531 114.578125 C 226.636719 111.28125 228.644531 107.914062 230.8125 104.65625 C 231.359375 103.839844 232.339844 103.316406 233.378906 102.441406 C 232.753906 100.890625 231.964844 98.925781 231.039062 96.621094 C 231.886719 96.527344 232.578125 96.457031 233.277344 96.378906 C 233.277344 96.253906 233.355469 96.007812 233.273438 95.925781 C 230.695312 93.398438 231.964844 90.394531 232.078125 87.464844 C 232.210938 84.082031 232.992188 80.636719 230.929688 77.339844 C 230.402344 76.496094 231.203125 73.800781 232.097656 73.359375 C 233.09375 72.863281 234.902344 73.898438 236.304688 74.414062 C 236.511719 74.492188 236.632812 75.71875 236.4375 75.839844 C 232.9375 78.019531 235.933594 81.046875 234.988281 83.800781 C 236.171875 83.722656 236.972656 83.671875 238.160156 83.597656 C 237.519531 85.421875 236.976562 86.96875 236.378906 88.660156 C 237.136719 88.21875 237.769531 87.851562 238.40625 87.480469 C 238.59375 87.585938 238.78125 87.691406 238.96875 87.796875 C 238.527344 89.015625 238.09375 90.234375 237.617188 91.570312 C 241.625 95.628906 239.105469 99.804688 237.6875 104.234375 C 239.40625 103.363281 241.128906 102.488281 242.847656 101.617188 C 243.011719 101.863281 243.171875 102.109375 243.335938 102.355469 C 242.800781 103.113281 242.429688 104.175781 241.699219 104.578125 C 237.582031 106.847656 236.742188 111.355469 234.425781 114.847656 C 233.34375 116.480469 232.261719 118.136719 230.984375 119.617188 C 227.097656 124.136719 223.132812 128.589844 219.160156 133.035156 C 217.90625 134.429688 216.363281 135.589844 215.289062 137.097656 C 214.792969 137.800781 215.105469 139.078125 215.054688 140.09375 C 215.898438 140.066406 216.855469 140.289062 217.574219 139.972656 C 220.996094 138.46875 224.351562 136.820312 227.726562 135.21875 C 229.46875 134.394531 230.609375 134.949219 231.390625 136.65625 C 231.707031 137.335938 232.257812 137.90625 232.664062 138.476562 C 235.980469 136.875 237.476562 134.203125 238.800781 131.089844 C 240.503906 127.082031 242.65625 122.957031 246.917969 121.210938 C 249.671875 120.085938 252.90625 120.152344 256.195312 119.636719 C 256.171875 119.214844 256.308594 118.472656 256.074219 117.878906 C 254.875 114.859375 253.863281 111.714844 252.253906 108.921875 C 250 105.023438 250.644531 100.78125 250.285156 96.6875 C 250.015625 93.703125 250.832031 90.628906 250.714844 87.609375 C 250.605469 84.855469 250.027344 82.089844 249.414062 79.382812 C 248.691406 76.195312 247.734375 73.050781 246.820312 69.90625 C 246.667969 69.382812 246.234375 68.917969 245.859375 68.488281 C 245.34375 67.894531 244.496094 67.453125 244.246094 66.777344 C 242.429688 61.871094 238.21875 60.300781 233.742188 59.179688 C 231.726562 58.671875 229.605469 58.570312 227.542969 58.214844 C 226.753906 58.085938 225.898438 57.921875 225.25 57.5 C 223.597656 56.414062 222.042969 55.171875 220.445312 53.996094 C 221.785156 52.910156 222.980469 51.496094 224.5 50.820312 C 226.714844 49.84375 229.144531 49.09375 231.40625 51.109375 C 231.933594 51.582031 232.863281 51.761719 233.617188 51.785156 C 235.769531 51.851562 237.636719 52.277344 239.023438 54.175781 C 239.457031 54.769531 240.527344 55.132812 241.332031 55.179688 C 244.113281 55.339844 245.289062 57.15625 246.316406 59.382812 C 246.714844 60.246094 247.527344 61.214844 248.371094 61.511719 C 249.898438 62.042969 250.359375 62.832031 250.523438 64.414062 C 250.664062 65.765625 251.367188 67.1875 252.195312 68.304688 C 253.421875 69.96875 253.203125 73.769531 251.726562 75.132812 C 251.105469 75.710938 250.925781 76.773438 250.542969 77.613281 C 250.835938 77.773438 251.132812 77.9375 251.429688 78.09375 C 252.023438 77.265625 252.613281 76.4375 253.253906 75.535156 C 253.453125 75.664062 253.828125 75.792969 253.824219 75.921875 C 253.804688 79.996094 255.90625 83.773438 255.175781 88.003906 C 254.539062 91.675781 254.53125 95.453125 254.265625 99.1875 C 253.949219 103.636719 254.632812 107.6875 257.71875 111.300781 C 258.9375 112.726562 259.109375 115.070312 259.660156 117.027344 C 259.890625 117.851562 259.863281 118.753906 259.96875 119.75 C 260.546875 119.675781 260.996094 119.753906 261.195312 119.570312 C 261.917969 118.890625 262.546875 117.523438 263.242188 117.5 C 265.515625 117.433594 267.945312 117.445312 270.050781 118.183594 C 272.53125 119.054688 274.734375 120.714844 277.058594 122.03125 C 277.289062 122.164062 277.625 122.230469 277.746094 122.429688 C 278.476562 123.621094 279.15625 124.847656 279.855469 126.058594 C 278.914062 126.546875 277.96875 127.035156 277.292969 127.382812 C 277.199219 129.644531 277.488281 131.957031 276.921875 134.035156 C 276.359375 136.101562 274.945312 137.933594 273.671875 140.296875 C 275.75 140.441406 276.964844 140.585938 278.179688 140.601562 C 283.195312 140.664062 286.199219 144.488281 289.894531 146.945312 C 293.074219 149.054688 295.75 151.988281 299.050781 153.835938 C 302.136719 155.558594 305.855469 156.113281 309.117188 157.585938 C 312.730469 159.214844 317.003906 159.425781 319.882812 162.792969 C 321.082031 164.199219 322.9375 165.125 324.628906 166.019531 C 328.644531 168.148438 330.429688 172.230469 332.453125 175.761719 C 334.222656 178.851562 334.929688 182.875 334.976562 186.5 C 335 188.503906 334.21875 190.917969 333.632812 192.976562 C 333.070312 194.964844 330.433594 196.398438 328.605469 197.949219 C 328.433594 198.09375 327.117188 197.453125 326.976562 196.984375 C 326.140625 194.15625 325.300781 191.273438 327.226562 188.496094 C 329.242188 185.585938 328.863281 182.808594 327.679688 179.5 C 326 174.796875 323.042969 171.101562 319.273438 168.457031 C 316.449219 166.476562 314.234375 163.121094 310.03125 163.074219 C 308.628906 163.0625 307.28125 161.476562 305.839844 160.746094 C 302.890625 159.253906 299.886719 157.871094 296.921875 156.402344 C 295.984375 155.941406 295.03125 155.445312 294.222656 154.792969 C 291.351562 152.480469 288.769531 149.710938 285.648438 147.839844 C 282.320312 145.84375 278.539062 144.566406 274.859375 143.242188 C 274.273438 143.035156 272.835938 144.058594 272.398438 144.847656 C 271.628906 146.230469 271.394531 147.890625 270.824219 149.394531 C 269.402344 153.113281 265.886719 154.972656 261.898438 155.421875 C 257.671875 155.902344 253.386719 156.800781 249.566406 159.101562 C 251.933594 162.816406 251.960938 162.914062 249.207031 166.1875 C 247.382812 168.359375 245.476562 170.464844 243.542969 172.539062 C 242.734375 173.410156 241 174.144531 242.40625 175.429688 C 243.230469 176.183594 245.035156 176.507812 246.140625 176.175781 C 248.566406 175.445312 250.882812 174.277344 253.148438 173.097656 C 259.035156 170.023438 265.542969 169.261719 271.925781 168.246094 C 277.511719 167.359375 283.230469 167.246094 287.453125 162.683594 C 287.605469 162.519531 287.9375 162.53125 288.566406 162.351562 C 288.765625 165.257812 286.292969 166.613281 285.078125 168.953125 C 288.578125 169.339844 291.859375 169.703125 295.140625 170.066406 C 295.140625 170.367188 295.140625 170.671875 295.140625 170.972656 C 294.523438 171.304688 293.902344 171.640625 292.894531 172.179688 C 294.632812 172.261719 295.964844 172.25 297.28125 172.410156 C 298.734375 172.582031 299.933594 173.039062 298.878906 174.195312 C 300.132812 175.382812 301.195312 176.4375 302.3125 177.429688 C 302.617188 177.695312 303.117188 177.726562 303.464844 177.957031 C 304.117188 178.390625 304.726562 178.894531 305.351562 179.367188 C 304.5625 179.617188 303.769531 179.871094 302.96875 180.113281 C 302.726562 180.1875 302.472656 180.21875 301.511719 180.414062 C 303.621094 181.925781 305.28125 183.160156 307.003906 184.308594 C 307.265625 184.480469 308.035156 184.390625 308.183594 184.167969 C 309.058594 182.84375 310.289062 183.03125 310.679688 184.121094 C 311.097656 185.289062 310.804688 186.792969 310.476562 188.066406 C 310.421875 188.289062 308.417969 188.460938 307.769531 188.003906 C 305.242188 186.226562 302.902344 184.191406 300.445312 182.210938 C 300.15625 182.855469 299.851562 183.519531 299.183594 185 C 298.46875 182.964844 298.003906 181.636719 297.496094 180.195312 C 297.183594 180.863281 296.910156 181.445312 296.347656 182.640625 C 294.015625 180.117188 291.957031 177.882812 290.019531 175.785156 C 290.027344 175.753906 289.902344 176.402344 289.777344 177.046875 C 289.554688 177.152344 289.332031 177.253906 289.109375 177.355469 C 288.613281 176.589844 288.226562 175.707031 287.59375 175.082031 C 287 174.5 286.09375 173.742188 285.417969 173.824219 C 281.457031 174.289062 277.496094 174.828125 273.59375 175.621094 C 266.425781 177.070312 259.339844 178.933594 252.148438 180.191406 C 248.136719 180.894531 244.226562 182.972656 239.976562 181.675781 C 239.144531 181.421875 238.097656 181.128906 237.652344 180.5 C 236.136719 178.347656 234.558594 179.269531 232.515625 179.628906 C 226.855469 180.625 226.714844 185.503906 225.046875 189.316406 C 224.90625 189.628906 225.835938 190.65625 226.464844 191.011719 C 228.945312 192.417969 231.609375 193.527344 234.015625 195.050781 C 237.320312 197.140625 237.3125 198.894531 235.519531 202.324219 C 231.769531 209.464844 225.128906 213.636719 219.417969 218.785156 C 215.125 222.652344 211.011719 226.734375 206.578125 230.429688 C 204.28125 232.339844 203.757812 234.582031 203.226562 237.296875 C 202.675781 240.105469 200.5625 242.617188 200.035156 245.421875 C 198.953125 251.234375 198.097656 257.144531 197.933594 263.035156 C 197.871094 265.234375 198.425781 267.070312 195.914062 267.640625 C 194.992188 267.851562 193.574219 267.160156 192.84375 266.421875 C 192.417969 265.996094 192.777344 264.628906 193.015625 263.746094 C 193.421875 262.234375 194.640625 260.65625 194.394531 259.308594 C 193.554688 254.644531 195.308594 250.476562 196.304688 246.171875 C 197.351562 241.632812 198.609375 237.140625 199.773438 232.628906 C 199.816406 232.460938 199.917969 232.25 199.863281 232.109375 C 198.128906 227.5625 201.671875 226.070312 204.414062 223.953125 C 210.425781 219.316406 216.378906 214.59375 222.226562 209.753906 C 225.472656 207.066406 228.460938 204.066406 231.871094 200.929688 C 227.761719 199.796875 224.214844 198.675781 220.59375 197.90625 C 219.597656 197.695312 218.023438 198.203125 217.320312 198.949219 C 212.882812 203.671875 207.652344 207.371094 202.457031 211.164062 C 196.96875 215.171875 191.660156 219.421875 186.171875 223.421875 C 185.03125 224.257812 183.332031 225.074219 182.074219 224.855469 C 179.488281 224.40625 178.757812 226.164062 177.8125 227.675781 C 177.574219 228.058594 178.046875 229.105469 178.453125 229.652344 C 181.605469 233.808594 185.152344 237.710938 187.910156 242.113281 C 190.382812 246.054688 190.355469 249.15625 185.515625 252.0625 C 179.363281 255.757812 172.691406 257.90625 165.953125 260.074219 C 161.5625 261.484375 157.316406 263.359375 152.984375 264.964844 C 148.976562 266.453125 144.914062 267.804688 140.925781 269.34375 C 140.007812 269.699219 138.894531 270.417969 138.554688 271.246094 C 137.765625 273.160156 137.496094 275.277344 136.839844 277.253906 C 135.503906 281.285156 133.90625 285.238281 132.695312 289.3125 C 131.976562 291.742188 131.753906 294.328125 131.375 296.855469 C 131.25 297.679688 131.34375 298.539062 131.328125 300.128906 C 130.386719 301.019531 129.039062 302.652344 126.585938 300.734375 C 124.042969 298.746094 124.246094 297.980469 126.605469 295.667969 C 128.152344 294.148438 129.695312 291.753906 129.734375 289.722656 C 129.867188 282.527344 133.097656 276.199219 134.546875 269.433594 C 135.855469 263.328125 140.253906 262.277344 144.707031 260.671875 C 146.875 259.890625 149.195312 259.554688 151.378906 258.820312 C 156.558594 257.074219 161.671875 255.148438 166.851562 253.417969 C 171.152344 251.980469 175.523438 250.746094 179.839844 249.339844 C 180.617188 249.085938 181.261719 248.429688 181.964844 247.957031 C 181.476562 247.28125 181.117188 246.441406 180.480469 245.953125 C 177.367188 243.554688 174.21875 241.191406 170.988281 238.949219 C 170.171875 238.378906 168.757812 237.734375 168.082031 238.070312 C 165.425781 239.390625 162.757812 240.835938 160.464844 242.695312 C 157.292969 245.265625 154.878906 249.339844 151.347656 250.726562 C 148.175781 251.972656 146.882812 255 143.691406 256.023438 C 140.644531 257 138.078125 259.425781 135.246094 261.125 C 130.226562 264.128906 125.136719 267.007812 120.152344 270.066406 C 118.910156 270.828125 117.964844 272.074219 116.546875 273.414062 C 116.40625 272.453125 116.328125 271.933594 116.246094 271.402344 C 112.460938 271.632812 112.460938 271.632812 108.1875 276.992188 C 107.871094 276.484375 107.601562 276.050781 107.175781 275.367188 C 104.660156 277.878906 100.714844 278.316406 98.632812 281.550781 C 98.277344 282.105469 97.511719 282.394531 97.007812 282.753906 C 96.554688 281.722656 96.25 281.027344 95.714844 279.804688 C 96.597656 279.621094 97.824219 279.363281 99.046875 279.113281 C 96.535156 276.59375 95.933594 276.726562 93.671875 279.265625 C 92.378906 280.714844 90.621094 281.742188 89.070312 282.964844 C 88.882812 282.785156 88.695312 282.605469 88.511719 282.429688 C 88.835938 281.675781 89.15625 280.925781 89.617188 279.863281 C 85.042969 278.539062 86.222656 284.558594 82.304688 284.621094 C 82.683594 283.988281 83.03125 283.421875 83.429688 282.761719 C 79.722656 283.785156 79.585938 279.808594 77.257812 279.023438 C 76.046875 280.226562 74.683594 281.582031 73.320312 282.9375 C 73.097656 282.726562 72.875 282.515625 72.660156 282.300781 C 73.105469 281.710938 73.519531 281.097656 74.003906 280.535156 C 76.796875 277.308594 76.78125 277.207031 72.878906 275.097656 C 72.1875 275.378906 71.496094 275.65625 70.804688 275.933594 Z M 161.0625 201.628906 L 159.953125 200.074219 C 158.859375 201.941406 157.914062 202.234375 157.042969 200.152344 C 156.734375 199.421875 156.394531 198.6875 155.949219 198.035156 C 155.488281 197.359375 154.878906 196.785156 154.335938 196.160156 C 154.160156 196.328125 153.984375 196.492188 153.8125 196.65625 C 155.335938 200.503906 157.816406 203.710938 160.6875 206.671875 C 161.414062 207.421875 162.476562 208.207031 162.621094 209.097656 C 163.328125 213.402344 166.109375 216.25 169.078125 219.015625 C 170.441406 220.28125 171.816406 221.535156 173.183594 222.800781 C 172.929688 218.578125 167.800781 217.179688 168.300781 213.214844 C 167.265625 212.546875 166.140625 212.140625 165.503906 211.347656 C 163.5625 208.917969 161.78125 206.363281 160 203.8125 C 159.121094 202.558594 159.617188 201.824219 161.066406 201.621094 C 163.085938 204.761719 165.101562 207.894531 167.121094 211.035156 C 167.375 210.855469 167.628906 210.679688 167.882812 210.503906 C 166.464844 206.921875 165.496094 203.019531 161.0625 201.628906 Z M 232.867188 143.152344 C 233 143.050781 233.128906 142.953125 233.257812 142.851562 C 232.117188 141.253906 231.0625 139.582031 229.792969 138.09375 C 229.316406 137.535156 228.101562 136.914062 227.625 137.148438 C 223.351562 139.238281 218.9375 141.164062 215.027344 143.820312 C 210.78125 146.707031 208.195312 151.144531 205.777344 155.6875 C 201.566406 163.597656 205.5 175.257812 213.730469 178.734375 C 221.164062 181.878906 228.007812 179.832031 234.75 176.609375 C 239.84375 174.175781 243.761719 170.398438 247.066406 165.867188 C 249.152344 163.007812 249.066406 161.617188 246.222656 159.441406 C 245.660156 159.007812 245.105469 158.53125 244.667969 157.980469 C 240.71875 153.046875 236.796875 148.09375 232.867188 143.152344 Z M 225.121094 184.746094 C 221.09375 183.855469 217.816406 183.042969 214.5 182.429688 C 212.265625 182.015625 209.984375 181.742188 207.71875 181.683594 C 206.453125 181.652344 205.144531 182.101562 203.902344 182.5 C 199.894531 183.777344 195.363281 183.101562 191.726562 185.800781 C 185.078125 190.738281 178.34375 195.570312 171.75 200.578125 C 167.96875 203.453125 168.117188 203.78125 169.527344 208.34375 C 171.117188 213.488281 173.988281 217.585938 178.292969 220.820312 C 181.917969 223.542969 182.347656 223.851562 185.996094 221.15625 C 194.105469 215.167969 202.179688 209.128906 210.03125 202.8125 C 213.6875 199.871094 217.007812 196.433594 220.070312 192.863281 C 222.140625 190.453125 223.492188 187.425781 225.121094 184.746094 Z M 255.195312 122.351562 C 254.902344 123.015625 254.761719 123.246094 254.699219 123.5 C 253.152344 130.054688 249.796875 132.15625 243.210938 130.804688 C 242.578125 130.671875 241.660156 130.96875 241.148438 131.394531 C 238.597656 133.503906 237.96875 137.988281 240.234375 141.113281 C 243.140625 145.128906 246.585938 148.753906 249.648438 152.664062 C 251.695312 155.285156 254.214844 155.347656 257.105469 154.738281 C 258.617188 154.417969 259.320312 153.75 259.09375 152.1875 C 258.660156 149.175781 259.738281 146.507812 262.03125 144.824219 C 264.101562 143.308594 266.742188 142.566406 268.851562 141.609375 C 269.929688 140.230469 270.996094 138.9375 271.972656 137.585938 C 272.519531 136.828125 273.378906 135.921875 273.3125 135.15625 C 272.855469 130.210938 270.542969 123.535156 264.121094 122.089844 C 262.949219 121.824219 261.179688 121.925781 260.410156 122.636719 C 258.535156 124.382812 257.019531 124.261719 255.195312 122.351562 Z M 93.589844 237.128906 C 96.625 240.453125 99.695312 243.21875 102.039062 246.503906 C 106.066406 252.15625 109.667969 258.117188 113.394531 263.980469 C 114.671875 265.992188 116.3125 266.515625 117.929688 265.257812 C 121.09375 262.796875 124.21875 260.269531 127.460938 257.90625 C 129.054688 256.75 129.550781 255.546875 128.460938 253.859375 C 126.871094 251.394531 125.0625 249.046875 123.683594 246.464844 C 119.625 238.867188 113.652344 232.9375 107.382812 227.234375 C 105.984375 225.960938 104.699219 225.882812 103.40625 227.175781 C 100.152344 230.429688 96.945312 233.722656 93.589844 237.128906 Z M 88.480469 240.09375 C 88.632812 240.25 88.785156 240.40625 88.941406 240.558594 C 88.566406 241.085938 88.265625 241.6875 87.808594 242.128906 C 86.585938 243.296875 85.296875 244.402344 84.035156 245.53125 C 80.808594 248.410156 79.351562 251.6875 81.730469 255.804688 C 83.128906 258.234375 84.25 260.902344 86.035156 263.003906 C 89.519531 267.105469 93.375 270.890625 97.09375 274.792969 C 98.320312 276.082031 99.574219 275.835938 100.902344 274.847656 C 104.054688 272.507812 107.199219 270.148438 110.453125 267.957031 C 112.0625 266.871094 112.242188 265.890625 111.359375 264.191406 C 107.316406 256.375 102.265625 249.265625 96.394531 242.761719 C 94.664062 240.839844 93.128906 237.992188 89.164062 239.625 C 89.816406 238.390625 90.167969 237.730469 90.515625 237.070312 C 90.453125 237.015625 90.394531 236.957031 90.332031 236.894531 C 88.820312 238.382812 87.304688 239.867188 85.792969 241.351562 C 85.914062 241.484375 86.027344 241.625 86.144531 241.757812 Z M 107.859375 224.296875 C 111.164062 227.796875 114.199219 231.210938 117.453125 234.398438 C 122.746094 239.578125 125.863281 246.222656 129.757812 252.335938 C 131.277344 254.722656 131.796875 255.265625 134.230469 253.558594 C 137.136719 251.519531 139.796875 249.132812 142.675781 247.050781 C 144.320312 245.859375 144.601562 244.671875 143.507812 243.011719 C 140.691406 238.71875 138.222656 234.148438 135.027344 230.164062 C 131.023438 225.183594 126.480469 220.632812 122.066406 215.996094 C 120.917969 214.785156 119.320312 213.535156 117.617188 215.066406 C 114.253906 218.085938 111.039062 221.269531 107.859375 224.296875 Z M 125.328125 210.277344 C 125.304688 210.242188 125.277344 210.210938 125.246094 210.175781 C 124.738281 210.539062 124.242188 210.921875 123.71875 211.261719 C 122.164062 212.261719 121.9375 213.175781 123.457031 214.578125 C 130.089844 220.707031 135.976562 227.488281 140.828125 235.132812 C 142.347656 237.53125 143.828125 239.953125 145.316406 242.371094 C 146.46875 244.246094 147.847656 244.84375 149.644531 243.171875 C 151.597656 241.363281 153.386719 239.332031 155.535156 237.792969 C 157.671875 236.257812 157.160156 234.804688 156.214844 233.011719 C 152.582031 226.085938 148.832031 219.25 143.074219 213.773438 C 140.144531 210.988281 137.140625 208.265625 134.378906 205.320312 C 133.003906 203.855469 132.050781 204.488281 130.988281 205.371094 C 129.070312 206.964844 127.210938 208.636719 125.328125 210.277344 Z M 143.683594 196.398438 C 143.640625 196.34375 143.597656 196.289062 143.554688 196.230469 C 141.332031 198.023438 139.027344 199.726562 136.957031 201.675781 C 136.496094 202.109375 136.480469 203.75 136.921875 204.277344 C 139.132812 206.921875 141.601562 209.34375 143.90625 211.914062 C 149.535156 218.179688 154.679688 224.777344 157.738281 232.753906 C 158.519531 234.789062 159.621094 235.117188 161.339844 233.707031 C 164.238281 231.335938 167.21875 229.0625 170.125 226.695312 C 172.316406 224.914062 172.191406 224.351562 170.1875 222.3125 C 167.523438 219.589844 164.53125 216.992188 162.617188 213.78125 C 160.867188 210.84375 159.203125 207.96875 157.058594 205.253906 C 154.601562 202.136719 152.867188 198.445312 150.824219 195.003906 C 149.851562 193.363281 148.71875 192.589844 146.949219 194.050781 C 145.914062 194.898438 144.777344 195.617188 143.683594 196.398438 Z M 91.570312 275.710938 C 87.234375 269.632812 83.308594 264.183594 79.453125 258.6875 C 78.519531 257.351562 77.511719 256.949219 76.5 258.300781 C 75.238281 259.988281 73.949219 261.757812 73.230469 263.703125 C 72.746094 265.015625 72.917969 266.773438 73.328125 268.175781 C 73.910156 270.179688 74.628906 272.34375 75.941406 273.886719 C 77.523438 275.753906 79.761719 278.253906 81.769531 278.296875 C 85.015625 278.371094 88.308594 276.664062 91.570312 275.710938 Z M 245.390625 178.695312 C 245.496094 179.042969 245.597656 179.394531 245.699219 179.742188 C 247.574219 179.386719 249.457031 179.09375 251.308594 178.667969 C 256.589844 177.460938 261.820312 176.03125 267.132812 175.007812 C 272.179688 174.035156 277.3125 173.539062 282.378906 172.644531 C 283.0625 172.523438 284.15625 171.09375 284 170.652344 C 283.691406 169.78125 282.550781 168.507812 281.890625 168.585938 C 277.285156 169.125 272.671875 169.777344 268.144531 170.773438 C 263.722656 171.742188 259.335938 172.980469 255.054688 174.449219 C 251.738281 175.585938 248.605469 177.261719 245.390625 178.695312 Z M 214.40625 133.574219 C 214.695312 133.808594 214.984375 134.039062 215.273438 134.269531 C 215.882812 133.71875 216.546875 133.21875 217.085938 132.605469 C 219.539062 129.785156 222.046875 126.996094 224.375 124.070312 C 228.117188 119.375 231.804688 114.632812 235.3125 109.769531 C 235.726562 109.191406 235.191406 107.222656 234.511719 106.761719 C 233.882812 106.335938 232.074219 106.710938 231.484375 107.363281 C 230.3125 108.65625 229.71875 110.445312 228.71875 111.917969 C 224.867188 117.566406 220.921875 123.152344 217.078125 128.808594 C 216.058594 130.308594 215.289062 131.980469 214.40625 133.574219 Z M 186.675781 248.613281 C 186.511719 248.484375 186.34375 248.359375 186.179688 248.230469 C 181.582031 250.074219 177.027344 252.046875 172.367188 253.722656 C 168.03125 255.285156 163.574219 256.519531 159.179688 257.921875 C 153.519531 259.730469 147.851562 261.53125 142.21875 263.429688 C 140.910156 263.871094 139.730469 264.699219 138.496094 265.347656 C 138.59375 265.71875 138.691406 266.089844 138.785156 266.464844 C 140.386719 266.46875 142.082031 266.8125 143.574219 266.40625 C 146.476562 265.609375 149.277344 264.410156 152.101562 263.339844 C 158.585938 260.890625 165.074219 258.457031 171.53125 255.933594 C 175.824219 254.253906 180.089844 252.488281 184.308594 250.632812 C 185.21875 250.234375 185.894531 249.300781 186.675781 248.613281 Z M 187.972656 245.273438 C 185.355469 241.46875 183.136719 237.652344 180.324219 234.332031 C 177.410156 230.882812 175.949219 231.238281 172.988281 234.707031 C 171.636719 236.292969 171.894531 237.363281 173.410156 238.457031 C 175.800781 240.179688 178.472656 241.625 180.5 243.699219 C 182.535156 245.777344 184.578125 246.234375 187.972656 245.273438 Z M 126.617188 179.628906 C 126.527344 179.546875 126.441406 179.464844 126.351562 179.382812 C 125.390625 180.378906 124.335938 181.300781 123.492188 182.386719 C 119.382812 187.648438 115.394531 193.003906 111.238281 198.226562 C 107.488281 202.9375 103.648438 207.574219 99.710938 212.128906 C 98.285156 213.773438 98.355469 215.15625 99.769531 217.414062 C 101.613281 215.007812 103.289062 212.980469 104.796875 210.832031 C 109.457031 204.195312 114.042969 197.507812 118.679688 190.855469 C 121.300781 187.097656 123.972656 183.371094 126.617188 179.628906 Z M 143.492188 184.160156 C 141.25 181.746094 139.078125 179.253906 136.703125 176.972656 C 136.117188 176.410156 134.867188 176.542969 133.917969 176.351562 C 133.867188 177.421875 133.453125 178.640625 133.828125 179.527344 C 135.222656 182.875 137.039062 186.050781 138.378906 189.414062 C 139.503906 192.25 139.546875 192.40625 142.160156 190.648438 C 145.898438 188.128906 145.898438 188.128906 143.492188 184.160156 Z M 239.347656 148.378906 C 239.242188 148.453125 239.136719 148.53125 239.03125 148.609375 C 241.363281 151.308594 243.582031 154.121094 246.101562 156.632812 C 246.789062 157.320312 248.78125 157.671875 249.472656 157.183594 C 250.902344 156.175781 249.597656 155.15625 248.796875 154.148438 C 245.152344 149.554688 241.589844 144.894531 238.035156 140.234375 C 237.402344 139.40625 237.390625 137.644531 235.667969 138.679688 C 234.335938 139.480469 233.882812 140.679688 234.867188 142.085938 C 236.339844 144.195312 237.851562 146.28125 239.347656 148.378906 Z M 149.742188 165.78125 C 149.996094 165.976562 150.25 166.171875 150.503906 166.367188 C 151.542969 165.796875 152.640625 165.324219 153.597656 164.648438 C 160.898438 159.480469 168.207031 154.316406 175.4375 149.054688 C 178.503906 146.820312 181.59375 144.765625 185.445312 144.15625 C 185.859375 144.089844 186.210938 143.640625 186.589844 143.371094 C 186.480469 143.136719 186.371094 142.910156 186.261719 142.679688 C 183.152344 144.0625 179.964844 145.296875 176.949219 146.871094 C 173.867188 148.476562 170.9375 150.371094 167.984375 152.214844 C 162.195312 155.828125 156.40625 159.445312 150.707031 163.191406 C 150.089844 163.601562 150.050781 164.898438 149.742188 165.78125 Z M 196.726562 181.519531 C 196.972656 181.730469 197.214844 181.945312 197.460938 182.152344 C 200.164062 181.652344 202.890625 181.242188 205.566406 180.613281 C 207.851562 180.082031 208 179.167969 206.503906 177.347656 C 205.613281 176.265625 205.011719 174.953125 204.210938 173.792969 C 203.59375 172.902344 202.871094 172.089844 201.769531 170.703125 C 199.898438 174.722656 198.3125 178.117188 196.726562 181.519531 Z M 228.074219 208.449219 C 227.792969 208.136719 227.515625 207.828125 227.238281 207.515625 C 218.582031 214.539062 209.925781 221.5625 201.269531 228.585938 C 201.503906 228.910156 201.734375 229.234375 201.96875 229.554688 C 204.507812 229.359375 206.117188 227.433594 207.894531 225.859375 C 210.863281 223.234375 213.753906 220.515625 216.761719 217.925781 C 220.488281 214.71875 224.296875 211.605469 228.074219 208.449219 Z M 190.152344 142.691406 C 185.261719 146.832031 187.835938 151.359375 187.015625 155.800781 C 188.542969 155.550781 189.667969 155.589844 190.558594 155.152344 C 191.429688 154.722656 192.789062 153.679688 192.691406 153.132812 C 192.070312 149.734375 191.097656 146.398438 190.152344 142.691406 Z M 264.289062 145.019531 C 263.140625 146.773438 261.90625 148.191406 261.257812 149.84375 C 260.933594 150.664062 261.351562 152.339844 262.019531 152.835938 C 262.714844 153.34375 264.371094 153.28125 265.15625 152.769531 C 266.515625 151.882812 267.941406 150.644531 268.566406 149.214844 C 269.175781 147.828125 268.8125 146.019531 268.871094 144.394531 C 267.390625 144.597656 265.910156 144.796875 264.289062 145.019531 Z M 249.734375 128.433594 C 250.445312 127.617188 251.421875 126.914062 251.769531 125.980469 C 252.136719 125 252.351562 123.394531 251.8125 122.800781 C 251.25 122.171875 249.644531 122.109375 248.625 122.351562 C 247.363281 122.652344 246.167969 123.417969 245.070312 124.171875 C 243.574219 125.203125 242.398438 126.863281 243.457031 128.449219 C 243.996094 129.257812 246.0625 129.171875 247.449219 129.230469 C 248.1875 129.257812 248.945312 128.726562 249.734375 128.433594 Z M 147.921875 247.507812 C 147.691406 247.308594 147.464844 247.109375 147.230469 246.910156 L 134.699219 255.851562 C 134.644531 256.132812 134.59375 256.414062 134.535156 256.699219 C 135.65625 256.988281 137.191406 257.898438 137.824219 257.46875 C 140.722656 255.515625 143.371094 253.183594 146.253906 250.867188 C 145.488281 250.710938 144.894531 250.59375 144.304688 250.472656 C 144.308594 250.1875 144.316406 249.902344 144.316406 249.617188 C 145.351562 249.5625 146.386719 249.507812 147.675781 249.4375 C 147.730469 248.984375 147.824219 248.246094 147.921875 247.507812 Z M 176.859375 223.84375 C 175.84375 224.304688 175.484375 224.382812 175.238281 224.59375 C 171.304688 227.894531 167.34375 231.164062 163.527344 234.59375 C 163.074219 235.003906 163.429688 236.316406 163.40625 237.246094 C 169.085938 233.742188 174.566406 230.804688 176.859375 223.84375 Z M 233 197.664062 C 233.113281 197.226562 233.222656 196.789062 233.332031 196.351562 C 231.277344 195.453125 229.042969 194.820312 227.203125 193.601562 C 224.035156 191.5 223.074219 193.710938 221.507812 196.347656 C 225.617188 196.460938 228.949219 200.058594 233 197.664062 Z M 151.089844 188.453125 C 147.859375 189.675781 144.976562 190.09375 143.042969 192.949219 C 142.140625 194.277344 140.085938 194.835938 138.535156 195.714844 C 137.414062 196.347656 136.140625 196.789062 135.175781 197.597656 C 134.785156 197.925781 135.035156 199.007812 134.996094 199.746094 C 135.699219 199.625 136.550781 199.710938 137.082031 199.335938 C 138.742188 198.164062 140.183594 196.667969 141.882812 195.566406 C 144.640625 193.785156 147.09375 191.257812 150.894531 191.378906 C 150.941406 190.667969 150.992188 189.894531 151.089844 188.453125 Z M 117.753906 267.953125 C 117.902344 268.171875 118.046875 268.386719 118.195312 268.605469 C 120 267.675781 121.894531 266.886719 123.578125 265.777344 C 125.386719 264.597656 126.847656 262.839844 128.730469 261.839844 C 130.78125 260.746094 132.597656 259.1875 132.449219 257.546875 C 126.449219 259.636719 122.28125 264.03125 117.753906 267.953125 Z M 161.363281 238.300781 C 161.054688 237.957031 160.738281 237.613281 160.429688 237.269531 C 157.636719 239.261719 154.96875 241.476562 152.011719 243.179688 C 149.542969 244.601562 149.046875 246.039062 150.652344 248.1875 C 152.433594 246.628906 154.25 245.113281 155.988281 243.511719 C 157.820312 241.816406 159.574219 240.039062 161.363281 238.300781 Z M 132.730469 201.835938 C 132.5625 201.597656 132.398438 201.355469 132.234375 201.113281 C 131.683594 201.300781 131.105469 201.425781 130.597656 201.6875 C 128.511719 202.777344 126.464844 203.949219 124.363281 205.011719 C 122.078125 206.171875 120.835938 208.433594 121.445312 210.847656 C 124.9375 207.425781 129.75 205.707031 132.730469 201.835938 Z M 118.300781 212.425781 C 118.167969 212.199219 118.03125 211.972656 117.898438 211.746094 C 117.402344 211.839844 116.796875 211.78125 116.433594 212.046875 C 113.257812 214.421875 110.085938 216.808594 107.03125 219.328125 C 106.632812 219.65625 106.902344 220.789062 106.859375 221.554688 C 107.128906 221.628906 107.398438 221.703125 107.667969 221.777344 C 111.214844 218.660156 114.757812 215.542969 118.300781 212.425781 Z M 277.761719 125.125 C 274.769531 121.492188 269.957031 119.355469 267.378906 120.347656 C 268.234375 122.382812 272.816406 120.960938 271.464844 124.875 C 273.5 124.957031 275.398438 125.03125 277.761719 125.125 Z M 224.070312 53.507812 C 224 53.898438 223.933594 54.289062 223.867188 54.679688 C 225.542969 55.066406 227.210938 55.648438 228.902344 55.726562 C 229.480469 55.753906 230.117188 54.515625 230.726562 53.855469 C 230.039062 53.394531 229.324219 52.527344 228.660156 52.5625 C 227.117188 52.644531 225.597656 53.164062 224.070312 53.507812 Z M 328.101562 194.394531 C 328.597656 194.554688 329.101562 194.714844 329.597656 194.875 C 330.257812 193.460938 331.136719 192.089844 331.464844 190.597656 C 331.574219 190.082031 330.332031 189.265625 329.707031 188.589844 C 329.417969 188.703125 329.128906 188.816406 328.839844 188.929688 C 328.59375 190.75 328.347656 192.574219 328.101562 194.394531 Z M 93.496094 234.371094 C 95.34375 232.460938 97.195312 230.546875 99.496094 228.164062 C 95.640625 228.4375 94.113281 230.023438 93.496094 234.371094 Z M 236.808594 57.242188 C 236.636719 54.816406 235.835938 53.640625 234.121094 54.289062 C 233.546875 54.503906 233.320312 55.648438 232.929688 56.367188 C 234.222656 56.660156 235.515625 56.949219 236.808594 57.242188 Z M 104.847656 224.019531 C 104.675781 223.765625 104.5 223.511719 104.324219 223.257812 C 103.09375 223.855469 101.824219 224.394531 100.648438 225.089844 C 100.347656 225.265625 100.335938 225.941406 100.195312 226.390625 C 100.707031 226.472656 101.390625 226.808594 101.703125 226.59375 C 102.820312 225.835938 103.8125 224.894531 104.847656 224.019531 Z M 241.351562 57.269531 C 241.054688 57.320312 240.761719 57.371094 240.46875 57.421875 C 240.421875 58.09375 240.082031 59.074219 240.394531 59.375 C 241.21875 60.167969 242.332031 60.664062 243.328125 61.273438 C 243.585938 60.953125 243.839844 60.628906 244.09375 60.308594 C 243.179688 59.292969 242.265625 58.285156 241.351562 57.269531 Z M 210.316406 143.75 C 211.453125 143.578125 212.285156 143.695312 212.6875 143.332031 C 213.152344 142.910156 213.238281 142.070312 213.492188 141.410156 C 212.605469 141.3125 211.6875 141.042969 210.859375 141.210938 C 210.59375 141.261719 210.566406 142.480469 210.316406 143.75 Z M 245.535156 66.296875 C 246.582031 66.292969 247.519531 66.414062 247.5625 66.273438 C 247.800781 65.457031 247.957031 64.5625 247.84375 63.738281 C 247.8125 63.519531 246.726562 63.453125 246.125 63.3125 C 245.957031 64.171875 245.789062 65.023438 245.535156 66.296875 Z M 333.183594 186.960938 C 332.957031 185.375 332.988281 184.445312 332.648438 183.683594 C 332.476562 183.3125 331.609375 183.257812 331.058594 183.058594 C 330.984375 183.949219 330.726562 184.882812 330.914062 185.710938 C 331 186.105469 331.9375 186.308594 333.183594 186.960938 Z M 329.457031 176.265625 C 329.191406 176.578125 328.929688 176.894531 328.671875 177.214844 C 329.273438 177.890625 329.875 178.570312 330.480469 179.25 C 330.851562 178.714844 331.222656 178.183594 331.59375 177.648438 C 330.882812 177.1875 330.167969 176.726562 329.457031 176.265625 Z M 96.273438 218.230469 C 96.136719 217.976562 96 217.722656 95.859375 217.472656 C 94.269531 218.214844 92.671875 218.960938 91.078125 219.707031 C 91.214844 219.984375 91.351562 220.261719 91.492188 220.535156 C 93.085938 219.765625 94.679688 219 96.273438 218.230469 Z M 96.273438 218.230469 " fill-opacity="1" fill-rule="evenodd"/></g></g></g><g clip-path="url(#946bccaf4d)"><g clip-path="url(#743b8369e4)"><g clip-path="url(#f796bad3a3)"><path fill="#ffffff" d="M 70.804688 275.933594 C 71.496094 275.65625 72.1875 275.378906 72.878906 275.101562 C 72.628906 275.917969 72.378906 276.734375 72.125 277.558594 C 72.648438 277.589844 73.199219 277.617188 74.089844 277.664062 C 73.011719 279.195312 72.34375 280.710938 70.480469 279.105469 C 69.707031 279.9375 68.960938 280.742188 68.21875 281.546875 C 67.941406 281.367188 67.660156 281.183594 67.378906 281.003906 C 67.933594 280.105469 68.464844 279.1875 69.054688 278.316406 C 69.605469 277.496094 70.21875 276.726562 70.804688 275.933594 Z M 70.804688 275.933594 " fill-opacity="1" fill-rule="evenodd"/></g></g></g></svg>