<svg xmlns="http://www.w3.org/2000/svg" xmlns:xlink="http://www.w3.org/1999/xlink" width="500" zoomAndPan="magnify" viewBox="0 0 375 374.999991" height="500" preserveAspectRatio="xMidYMid meet" version="1.0"><defs><clipPath id="ed5d82bd5e"><path d="M 187.5 0 C 83.945312 0 0 83.945312 0 187.5 C 0 291.054688 83.945312 375 187.5 375 C 291.054688 375 375 291.054688 375 187.5 C 375 83.945312 291.054688 0 187.5 0 Z M 187.5 0 " clip-rule="nonzero"/></clipPath><clipPath id="7a35cc65ad"><path d="M 43.414062 73 L 331 73 L 331 306 L 43.414062 306 Z M 43.414062 73 " clip-rule="nonzero"/></clipPath></defs><rect x="-37.5" width="450" fill="#ffffff" y="-37.499999" height="449.999989" fill-opacity="1"/><rect x="-37.5" width="450" fill="#ffffff" y="-37.499999" height="449.999989" fill-opacity="1"/><g clip-path="url(#ed5d82bd5e)"><rect x="-37.5" width="450" fill="#58a39d" y="-37.499999" height="449.999989" fill-opacity="1"/></g><path fill="#ffffff" d="M 67.75 269.976562 C 67.75 269.976562 67.96875 271.0625 70.085938 274.117188 C 72.347656 277.378906 73.390625 277.847656 73.390625 277.847656 C 73.390625 277.847656 73.175781 276.761719 70.902344 273.488281 C 68.625 270.214844 67.75 269.976562 67.75 269.976562 " fill-opacity="1" fill-rule="nonzero"/><path fill="#ffffff" d="M 69.042969 260.265625 C 67.582031 263.21875 67.847656 263.992188 67.847656 263.992188 C 67.847656 263.992188 68.621094 263.429688 69.984375 260.675781 C 71.445312 257.734375 71.273438 256.746094 71.273438 256.746094 C 71.273438 256.746094 70.503906 257.304688 69.042969 260.265625 " fill-opacity="1" fill-rule="nonzero"/><path fill="#ffffff" d="M 252.621094 279.152344 C 252.621094 279.152344 252.792969 278.90625 253.03125 278.121094 C 253.269531 277.335938 253.601562 276 253.683594 273.816406 C 253.753906 271.640625 253.488281 270.367188 253.285156 269.65625 C 253.078125 268.941406 252.90625 268.777344 252.90625 268.777344 C 252.90625 268.777344 252.832031 269.0625 252.789062 269.835938 C 252.738281 270.609375 252.726562 271.867188 252.65625 273.835938 C 252.570312 275.933594 252.5 277.25 252.519531 278.054688 C 252.535156 278.859375 252.621094 279.152344 252.621094 279.152344 " fill-opacity="1" fill-rule="nonzero"/><path fill="#ffffff" d="M 246.492188 289.332031 C 245.902344 290.109375 245.003906 291.453125 243.226562 293.269531 C 241.429688 295.066406 240.21875 295.960938 239.5625 296.546875 C 238.890625 297.117188 238.753906 297.347656 238.753906 297.347656 C 238.753906 297.347656 238.839844 297.335938 239.03125 297.273438 C 239.226562 297.210938 239.535156 297.105469 239.96875 296.898438 C 240.824219 296.488281 242.246094 295.722656 244.003906 293.949219 C 245.859375 292.03125 246.578125 290.480469 246.949219 289.566406 C 247.132812 289.105469 247.210938 288.78125 247.253906 288.574219 C 247.296875 288.367188 247.300781 288.28125 247.300781 288.28125 C 247.300781 288.28125 247.238281 288.34375 247.109375 288.507812 C 246.972656 288.6875 246.777344 288.953125 246.492188 289.332031 " fill-opacity="1" fill-rule="nonzero"/><path fill="#ffffff" d="M 243.234375 297.125 C 243.234375 297.125 243.917969 297.082031 245.277344 295.789062 C 246.730469 294.40625 246.675781 293.648438 246.675781 293.648438 C 246.675781 293.648438 245.988281 293.691406 244.535156 295.082031 C 243.074219 296.46875 243.234375 297.125 243.234375 297.125 " fill-opacity="1" fill-rule="nonzero"/><path fill="#ffffff" d="M 290.753906 247.308594 C 291.335938 247.828125 292.328125 248.621094 293.710938 250.027344 C 295.171875 251.542969 295.972656 252.59375 296.519531 253.191406 C 297.054688 253.804688 297.300781 253.980469 297.300781 253.980469 C 297.125 251.25 291.746094 246.277344 289.972656 246.570312 C 289.972656 246.570312 290.164062 246.796875 290.753906 247.308594 " fill-opacity="1" fill-rule="nonzero"/><path fill="#ffffff" d="M 297.585938 250.226562 C 297.289062 248.683594 293.058594 245.644531 291.921875 246.140625 C 292.28125 246.683594 296.757812 250.105469 297.585938 250.226562 " fill-opacity="1" fill-rule="nonzero"/><path fill="#ffffff" d="M 250.425781 104.472656 C 252.394531 106.742188 253.808594 108.734375 254.894531 110.382812 C 255.96875 112.035156 256.757812 113.328125 257.320312 114.316406 C 257.894531 115.285156 258.285156 115.949219 258.535156 116.367188 C 258.785156 116.777344 258.90625 116.9375 258.90625 116.9375 C 258.90625 116.9375 258.871094 116.742188 258.742188 116.273438 C 258.613281 115.800781 258.398438 115.050781 257.96875 113.96875 C 257.550781 112.878906 256.90625 111.457031 255.902344 109.675781 C 254.894531 107.902344 253.496094 105.777344 251.445312 103.429688 C 247.296875 98.753906 244.039062 96.867188 242.222656 95.855469 C 241.308594 95.347656 240.675781 95.125 240.300781 94.976562 C 239.925781 94.835938 239.785156 94.808594 239.785156 94.808594 C 239.785156 94.808594 239.929688 94.945312 240.300781 95.242188 C 240.675781 95.535156 241.269531 95.996094 242.128906 96.667969 C 243.832031 98.042969 246.714844 100.242188 250.425781 104.472656 " fill-opacity="1" fill-rule="nonzero"/><path fill="#ffffff" d="M 271.828125 238.925781 C 272.777344 238.972656 274.339844 238.992188 276.679688 239.535156 C 279.179688 240.148438 280.628906 240.886719 281.539062 241.257812 C 281.992188 241.457031 282.296875 241.589844 282.5 241.664062 C 282.695312 241.738281 282.785156 241.761719 282.785156 241.761719 C 280.4375 238.519531 272.300781 237.164062 270.527344 238.855469 C 270.527344 238.855469 270.617188 238.871094 270.824219 238.886719 C 271.042969 238.894531 271.371094 238.90625 271.828125 238.925781 " fill-opacity="1" fill-rule="nonzero"/><path fill="#ffffff" d="M 304.125 199.058594 C 302.113281 200.835938 300.921875 201.875 300.273438 202.535156 C 299.621094 203.1875 299.503906 203.4375 299.503906 203.4375 C 299.503906 203.4375 299.855469 203.335938 300.710938 202.847656 C 301.5625 202.355469 302.941406 201.480469 304.851562 199.789062 C 306.886719 197.96875 307.933594 196.609375 308.515625 195.769531 C 309.097656 194.921875 309.199219 194.566406 309.199219 194.566406 C 309.199219 194.566406 308.894531 194.761719 308.125 195.433594 C 307.332031 196.152344 306.089844 197.28125 304.125 199.058594 " fill-opacity="1" fill-rule="nonzero"/><path fill="#ffffff" d="M 322.113281 173.015625 C 321.625 174.015625 320.890625 175.691406 319.441406 178.140625 C 317.871094 180.746094 316.691406 182.25 316.039062 183.203125 C 315.707031 183.679688 315.484375 184 315.355469 184.210938 C 315.226562 184.417969 315.1875 184.511719 315.1875 184.511719 C 315.1875 184.511719 315.273438 184.464844 315.472656 184.320312 C 315.675781 184.171875 315.996094 183.933594 316.433594 183.535156 C 317.292969 182.734375 318.730469 181.328125 320.355469 178.609375 C 321.957031 175.875 322.429688 174.039062 322.660156 173.003906 C 322.867188 171.957031 322.800781 171.65625 322.800781 171.65625 C 322.800781 171.65625 322.589844 172.007812 322.113281 173.015625 " fill-opacity="1" fill-rule="nonzero"/><path fill="#ffffff" d="M 318.4375 176.890625 C 319.515625 174.957031 319.808594 173.664062 319.925781 172.925781 C 320.027344 172.183594 319.941406 171.960938 319.941406 171.960938 C 319.941406 171.960938 319.761719 172.195312 319.394531 172.882812 C 319.023438 173.570312 318.488281 174.714844 317.515625 176.429688 C 316.46875 178.25 315.734375 179.351562 315.347656 180.054688 C 314.941406 180.757812 314.863281 181.054688 314.863281 181.054688 C 314.863281 181.054688 315.136719 180.929688 315.753906 180.375 C 316.355469 179.808594 317.339844 178.808594 318.4375 176.890625 " fill-opacity="1" fill-rule="nonzero"/><path fill="#ffffff" d="M 303.222656 199.152344 C 304.238281 197.949219 304.59375 197.066406 304.742188 196.550781 C 304.886719 196.027344 304.816406 195.84375 304.816406 195.84375 C 304.816406 195.84375 304.628906 195.964844 304.25 196.371094 C 303.871094 196.777344 303.308594 197.46875 302.414062 198.519531 C 301.449219 199.636719 300.835938 200.332031 300.503906 200.804688 C 300.164062 201.273438 300.097656 201.5 300.097656 201.5 C 300.097656 201.5 300.324219 201.476562 300.84375 201.1875 C 301.359375 200.898438 302.199219 200.347656 303.222656 199.152344 " fill-opacity="1" fill-rule="nonzero"/><path fill="#ffffff" d="M 284.441406 148.308594 C 284.882812 147.292969 285.570312 145.570312 286.242188 142.695312 C 286.902344 139.820312 287 138.074219 287.003906 137.074219 C 286.996094 136.070312 286.878906 135.800781 286.878906 135.800781 C 286.878906 135.800781 286.730469 136.15625 286.46875 137.179688 C 286.203125 138.203125 285.839844 139.886719 285.226562 142.523438 C 284.566406 145.332031 284.136719 147.089844 283.941406 148.167969 C 283.738281 149.246094 283.75 149.632812 283.75 149.632812 C 283.75 149.632812 283.984375 149.324219 284.441406 148.308594 " fill-opacity="1" fill-rule="nonzero"/><path fill="#ffffff" d="M 287.238281 206.175781 C 287.238281 206.175781 287.324219 206.378906 287.625 206.820312 C 287.925781 207.265625 288.457031 207.9375 289.144531 209.058594 C 289.859375 210.269531 290.226562 211.074219 290.515625 211.550781 C 290.792969 212.035156 290.964844 212.191406 290.964844 212.191406 C 290.964844 212.191406 291.050781 211.984375 291.007812 211.402344 C 290.957031 210.828125 290.804688 209.832031 289.996094 208.488281 C 289.167969 207.160156 288.367188 206.625 287.90625 206.378906 C 287.429688 206.136719 287.238281 206.175781 287.238281 206.175781 " fill-opacity="1" fill-rule="nonzero"/><path fill="#ffffff" d="M 100.433594 118.828125 C 101.085938 116.675781 102.140625 107.316406 109.769531 97.476562 C 111.085938 95.804688 112.152344 94.566406 112.992188 93.671875 C 113.820312 92.777344 114.382812 92.171875 114.738281 91.785156 C 115.089844 91.398438 115.214844 91.226562 115.214844 91.226562 C 106.265625 96.113281 98.757812 111.8125 100.433594 118.828125 " fill-opacity="1" fill-rule="nonzero"/><path fill="#ffffff" d="M 144.238281 106.535156 C 145.140625 105.992188 145.742188 105.621094 146.113281 105.375 C 146.484375 105.128906 146.628906 105.015625 146.628906 105.015625 C 146.628906 105.015625 146.449219 105.058594 146.023438 105.199219 C 136.472656 108.328125 125.367188 117.617188 124.023438 120.449219 C 124.023438 120.449219 130.554688 114.9375 144.238281 106.535156 " fill-opacity="1" fill-rule="nonzero"/><path fill="#ffffff" d="M 128.972656 112.496094 C 130.414062 112.304688 135.796875 108.375 136.207031 106.84375 C 136.207031 106.84375 135.109375 106.992188 132.085938 109.265625 C 129.066406 111.535156 128.972656 112.496094 128.972656 112.496094 " fill-opacity="1" fill-rule="nonzero"/><path fill="#ffffff" d="M 226.515625 115.972656 C 227.132812 117.042969 231.835938 119.285156 233.117188 118.800781 C 232.53125 117.785156 227.5625 115.367188 226.515625 115.972656 " fill-opacity="1" fill-rule="nonzero"/><path fill="#ffffff" d="M 68.117188 134.625 C 68.160156 134.890625 68.503906 136.082031 68.578125 136.347656 C 68.933594 137.601562 69.582031 139.648438 70.230469 142.933594 C 70.671875 145.265625 71.496094 151.816406 71.5 151.835938 C 72.820312 146.878906 70.144531 136.367188 68.117188 134.625 " fill-opacity="1" fill-rule="nonzero"/><path fill="#ffffff" d="M 47.042969 165.40625 C 46.917969 168.058594 50.207031 176.410156 52.015625 177.890625 C 51.867188 177.054688 47.738281 166.085938 47.042969 165.40625 " fill-opacity="1" fill-rule="nonzero"/><path fill="#ffffff" d="M 221.605469 108.339844 C 222.167969 108.011719 222.871094 107.464844 223.566406 106.5625 C 224.246094 105.660156 224.921875 104.398438 225.273438 102.71875 C 225.632812 100.929688 225.535156 99.457031 225.410156 98.304688 C 225.269531 97.148438 225.066406 96.289062 224.902344 95.652344 C 224.558594 94.382812 224.335938 93.976562 224.335938 93.976562 C 224.335938 93.976562 224.308594 94.433594 224.398438 95.753906 C 224.433594 96.410156 224.507812 97.28125 224.546875 98.410156 C 224.574219 99.539062 224.59375 100.941406 224.253906 102.578125 C 223.902344 104.207031 223.285156 105.402344 222.710938 106.265625 C 222.132812 107.128906 221.570312 107.664062 221.140625 108.042969 C 220.707031 108.414062 220.402344 108.628906 220.21875 108.761719 C 220.039062 108.894531 219.976562 108.957031 219.976562 108.957031 C 220.542969 108.878906 221.117188 108.625 221.605469 108.339844 " fill-opacity="1" fill-rule="nonzero"/><path fill="#ffffff" d="M 130.144531 99.667969 C 130.726562 101.546875 131.894531 103.023438 133.839844 103.449219 C 135.722656 103.820312 136.777344 103.46875 138.625 103.683594 C 138.929688 103.71875 139.078125 103.738281 139.078125 103.738281 C 138.558594 103.398438 137.679688 103.191406 137.070312 103.097656 C 135.257812 102.757812 133.617188 102.945312 132.304688 101.539062 C 130.574219 99.652344 130.660156 96.261719 130.277344 94.453125 C 130.011719 92.976562 129.484375 91.425781 128.320312 90.480469 C 128.097656 90.320312 128.011719 90.28125 128.011719 90.28125 C 127.976562 90.296875 128.414062 90.675781 128.914062 92.019531 C 129.75 94.375 129.300781 96.902344 130.144531 99.667969 " fill-opacity="1" fill-rule="nonzero"/><path fill="#ffffff" d="M 130.585938 105.300781 C 130.585938 105.300781 130.503906 105.089844 130.191406 104.617188 C 129.886719 104.132812 129.328125 103.398438 128.652344 102.128906 C 127.996094 100.851562 127.6875 100.058594 127.433594 99.605469 C 127.195312 99.152344 127.035156 99.039062 127.035156 99.039062 C 126.269531 100.773438 128.867188 105.28125 130.585938 105.300781 " fill-opacity="1" fill-rule="nonzero"/><path fill="#ffffff" d="M 225.269531 105.582031 C 225.140625 105.933594 225.039062 106.175781 224.992188 106.332031 C 224.941406 106.492188 224.929688 106.566406 224.929688 106.566406 C 224.929688 106.566406 224.992188 106.53125 225.121094 106.425781 C 225.253906 106.324219 225.460938 106.148438 225.714844 105.839844 C 226.203125 105.234375 227.046875 104.078125 227.339844 101.921875 C 227.589844 99.761719 227.058594 98.507812 226.738281 97.878906 C 226.386719 97.242188 226.175781 97.144531 226.175781 97.144531 C 226.175781 97.144531 226.171875 97.214844 226.1875 97.375 C 226.207031 97.550781 226.242188 97.804688 226.28125 98.148438 C 226.359375 98.867188 226.542969 100.039062 226.316406 101.839844 C 226.042969 103.757812 225.523438 104.875 225.269531 105.582031 " fill-opacity="1" fill-rule="nonzero"/><path fill="#ffffff" d="M 102.917969 123.878906 C 102.675781 123.78125 101.808594 123.355469 101.578125 123.308594 C 105.101562 127.597656 114.171875 127.292969 117 123.78125 C 117 123.78125 116.894531 123.8125 116.644531 123.917969 C 115.246094 124.507812 114.589844 124.785156 112.996094 125.144531 C 109.289062 125.953125 106.191406 125.230469 102.917969 123.878906 " fill-opacity="1" fill-rule="nonzero"/><path fill="#ffffff" d="M 252.96875 126.78125 C 254.484375 125.914062 255.5625 124.964844 256.335938 124.125 C 257.105469 123.28125 257.605469 122.566406 257.921875 122 C 258.25 121.4375 258.40625 121.035156 258.5 120.777344 C 258.59375 120.527344 258.621094 120.417969 258.621094 120.417969 C 258.621094 120.417969 258.535156 120.496094 258.359375 120.699219 C 258.183594 120.90625 257.917969 121.238281 257.492188 121.710938 C 257.078125 122.1875 256.5 122.800781 255.695312 123.535156 C 254.890625 124.269531 253.832031 125.113281 252.394531 125.929688 C 249.359375 127.617188 245.0625 128.621094 245.0625 128.621094 C 246.757812 128.949219 249.878906 128.535156 252.96875 126.78125 " fill-opacity="1" fill-rule="nonzero"/><path fill="#ffffff" d="M 108.914062 270.34375 C 108.914062 270.34375 108.492188 271.246094 108.550781 274.503906 C 108.617188 277.980469 109.222656 278.832031 109.222656 278.832031 C 109.222656 278.832031 109.644531 277.929688 109.578125 274.433594 C 109.507812 270.9375 108.914062 270.34375 108.914062 270.34375 " fill-opacity="1" fill-rule="nonzero"/><path fill="#ffffff" d="M 250.167969 265.292969 C 250.167969 265.292969 250.167969 265.394531 250.179688 265.628906 C 250.203125 265.875 250.242188 266.246094 250.292969 266.769531 C 250.398438 267.84375 250.636719 269.601562 250.625 272.359375 C 250.582031 275.308594 250.289062 277.136719 250.183594 278.253906 C 250.128906 278.8125 250.09375 279.191406 250.078125 279.429688 C 250.070312 279.671875 250.078125 279.769531 250.078125 279.769531 C 250.078125 279.769531 250.128906 279.6875 250.234375 279.46875 C 250.339844 279.25 250.503906 278.902344 250.6875 278.351562 C 251.046875 277.269531 251.617188 275.390625 251.652344 272.304688 C 251.652344 269.222656 251.097656 267.449219 250.753906 266.480469 C 250.386719 265.503906 250.167969 265.292969 250.167969 265.292969 " fill-opacity="1" fill-rule="nonzero"/><path fill="#ffffff" d="M 86.566406 244.316406 C 88.527344 243.476562 88.773438 242.730469 88.773438 242.730469 C 88.773438 242.730469 88.085938 242.542969 86.117188 243.390625 C 84.148438 244.234375 84.046875 244.914062 84.046875 244.914062 C 84.046875 244.914062 84.726562 245.097656 86.566406 244.316406 " fill-opacity="1" fill-rule="nonzero"/><path fill="#ffffff" d="M 111.074219 272.71875 C 111.683594 279.160156 112.421875 280.710938 112.421875 280.710938 C 112.421875 280.710938 112.707031 279.023438 112.089844 272.550781 C 111.476562 266.082031 110.785156 264.996094 110.785156 264.996094 C 110.785156 264.996094 110.503906 266.683594 111.074219 272.71875 " fill-opacity="1" fill-rule="nonzero"/><path fill="#ffffff" d="M 261.53125 238.800781 C 262.238281 238.398438 262.824219 237.613281 262.753906 236.84375 C 262.734375 236.589844 262.667969 236.503906 262.679688 236.503906 C 262.679688 236.503906 262.621094 237.167969 261.976562 237.726562 C 260.566406 238.933594 258.535156 238.097656 256.480469 237.691406 C 250.5625 236.449219 249.40625 236.796875 249.40625 236.796875 C 249.40625 236.796875 250.820312 237.546875 256.332031 238.710938 C 257.964844 239.03125 260.113281 239.648438 261.53125 238.800781 " fill-opacity="1" fill-rule="nonzero"/><path fill="#ffffff" d="M 258.894531 236.390625 C 258.894531 236.390625 258.71875 236.339844 258.289062 236.320312 C 257.855469 236.292969 257.171875 236.316406 256.132812 236.160156 C 255.09375 235.984375 254.496094 235.808594 254.101562 235.765625 C 253.710938 235.710938 253.546875 235.773438 253.546875 235.773438 C 254.015625 237.34375 258.320312 237.761719 258.894531 236.390625 " fill-opacity="1" fill-rule="nonzero"/><path fill="#ffffff" d="M 278.199219 173.488281 C 278.105469 173.730469 278.082031 173.839844 278.082031 173.839844 C 278.082031 173.839844 278.164062 173.765625 278.335938 173.570312 C 278.511719 173.371094 278.785156 173.054688 279.144531 172.542969 C 279.84375 171.515625 281.007812 169.726562 281.96875 166.515625 C 282.890625 163.292969 282.84375 161.277344 282.777344 160.164062 C 282.6875 159.035156 282.535156 158.746094 282.535156 158.746094 C 282.535156 158.746094 282.503906 158.851562 282.457031 159.105469 C 282.410156 159.367188 282.347656 159.765625 282.253906 160.332031 C 282.058594 161.488281 281.804688 163.40625 280.964844 166.289062 C 280.035156 169.359375 279.152344 171.175781 278.6875 172.300781 C 278.449219 172.867188 278.289062 173.246094 278.199219 173.488281 " fill-opacity="1" fill-rule="nonzero"/><path fill="#ffffff" d="M 279.238281 166.128906 C 279.8125 163.421875 279.339844 162.835938 279.339844 162.835938 C 279.339844 162.835938 278.761719 163.4375 278.222656 165.960938 C 277.644531 168.652344 278.082031 169.4375 278.082031 169.4375 C 278.082031 169.4375 278.660156 168.835938 279.238281 166.128906 " fill-opacity="1" fill-rule="nonzero"/><path fill="#ffffff" d="M 239.472656 253.605469 C 240.285156 254.515625 241.351562 255.625 242.9375 256.648438 C 244.652344 257.742188 246.304688 258.175781 247.628906 258.285156 C 248.960938 258.402344 249.984375 258.1875 250.699219 257.945312 C 252.128906 257.414062 252.414062 256.921875 252.429688 256.957031 C 252.429688 256.957031 252.304688 256.992188 252.015625 257.09375 C 251.726562 257.191406 251.257812 257.335938 250.554688 257.449219 C 249.855469 257.550781 248.902344 257.625 247.6875 257.417969 C 246.480469 257.214844 245 256.757812 243.429688 255.742188 C 241.851562 254.71875 240.769531 253.648438 239.910156 252.800781 C 239.070312 251.949219 238.445312 251.3125 237.972656 250.832031 C 237.035156 249.890625 236.714844 249.707031 236.714844 249.707031 C 236.714844 249.707031 236.925781 250.167969 237.71875 251.335938 C 238.121094 251.917969 238.667969 252.675781 239.472656 253.605469 " fill-opacity="1" fill-rule="nonzero"/><path fill="#ffffff" d="M 173.308594 204.78125 C 173.089844 204.363281 174.117188 209.21875 174.292969 209.675781 C 177.617188 218.320312 178.734375 236.761719 169.957031 239.714844 C 163.292969 241.949219 157.207031 234.839844 152.804688 230.957031 C 148.585938 227.226562 144.253906 223.820312 139.785156 220.421875 C 139.675781 220.339844 139.550781 220.515625 139.640625 220.609375 C 145.339844 226.640625 151.171875 232.734375 157.699219 237.917969 C 161.851562 241.214844 167.933594 243.875 172.8125 240.410156 C 180.710938 234.796875 178.160156 214.097656 173.308594 204.78125 " fill-opacity="1" fill-rule="nonzero"/><path fill="#ffffff" d="M 206.070312 239.242188 C 197.582031 239.683594 189.976562 239.949219 186.613281 230.441406 C 183.988281 223.023438 183.75 214.617188 184.390625 206.84375 C 184.394531 206.820312 184.347656 206.808594 184.34375 206.839844 C 182.550781 215.695312 181.847656 226.472656 186.507812 234.652344 C 190.507812 241.664062 199.136719 242.257812 206.167969 239.957031 C 206.539062 239.835938 206.5 239.21875 206.070312 239.242188 " fill-opacity="1" fill-rule="nonzero"/><path fill="#ffffff" d="M 169.144531 195.117188 C 169.507812 195.308594 169.921875 194.832031 169.597656 194.527344 C 166.664062 191.777344 164.039062 189.3125 162.792969 185.3125 C 161.488281 181.113281 162.074219 176.832031 162.667969 172.578125 C 162.679688 172.507812 162.59375 172.464844 162.554688 172.527344 C 157.742188 179.765625 161.609375 191.167969 169.144531 195.117188 " fill-opacity="1" fill-rule="nonzero"/><path fill="#ffffff" d="M 191.683594 193.121094 C 201.285156 183.308594 194.023438 171.316406 194.277344 173.125 C 194.726562 176.335938 195.128906 179.589844 194.90625 182.832031 C 194.640625 186.722656 193.253906 189.527344 191.273438 192.804688 C 191.117188 193.0625 191.476562 193.335938 191.683594 193.121094 " fill-opacity="1" fill-rule="nonzero"/><path fill="#ffffff" d="M 177.753906 195.214844 C 177.753906 195.214844 177.875 194.542969 177.960938 192.5625 C 178.054688 190.585938 178.09375 187.304688 178.113281 182.078125 C 178.140625 176.847656 178.074219 173.769531 177.9375 171.992188 C 177.808594 170.21875 177.632812 169.746094 177.632812 169.746094 C 177.632812 169.746094 177.4375 170.402344 177.199219 172.285156 C 176.964844 174.164062 176.679688 177.277344 176.652344 182.175781 C 176.632812 187.414062 176.957031 190.675781 177.230469 192.625 C 177.511719 194.574219 177.753906 195.214844 177.753906 195.214844 " fill-opacity="1" fill-rule="nonzero"/><path fill="#ffffff" d="M 243.695312 206.894531 C 241.375 211.007812 238.347656 215.15625 234.75 218.785156 C 232.132812 221.421875 229.820312 223.265625 227.949219 224.664062 C 227.480469 225.007812 227.035156 225.332031 226.625 225.632812 C 226.203125 225.917969 225.808594 226.183594 225.441406 226.433594 C 224.722656 226.941406 224.078125 227.332031 223.550781 227.679688 C 222.496094 228.390625 221.796875 228.78125 221.402344 229.074219 C 220.996094 229.351562 220.867188 229.472656 220.867188 229.472656 C 220.867188 229.472656 221.097656 229.402344 221.644531 229.207031 C 222.195312 229.007812 223.066406 228.699219 224.296875 228.101562 C 226.734375 226.910156 230.847656 224.777344 235.894531 219.703125 C 240.367188 215.160156 243.90625 209.472656 245.347656 204.386719 C 245.511719 203.820312 245.554688 203.585938 245.554688 203.585938 C 245.554688 203.585938 245.425781 203.789062 245.132812 204.3125 C 244.84375 204.832031 244.410156 205.671875 243.695312 206.894531 " fill-opacity="1" fill-rule="nonzero"/><path fill="#ffffff" d="M 234.3125 215.886719 C 231.875 218.640625 232.078125 219.660156 232.078125 219.660156 C 232.078125 219.660156 233.171875 219.367188 235.449219 216.800781 C 237.875 214.058594 237.84375 212.835938 237.84375 212.835938 C 237.84375 212.835938 236.746094 213.128906 234.3125 215.886719 " fill-opacity="1" fill-rule="nonzero"/><path fill="#ffffff" d="M 141.289062 229.648438 C 139.558594 228.039062 136.597656 225.460938 132.128906 221.089844 C 127.6875 216.703125 125.175781 214.015625 123.640625 212.539062 C 122.125 211.046875 121.625 210.738281 121.625 210.738281 C 121.625 210.738281 121.992188 211.464844 123.332031 213.296875 C 124.683594 215.121094 126.996094 218.085938 131.195312 222.21875 C 135.699219 226.617188 138.910156 228.925781 140.859375 230.246094 C 142.828125 231.550781 143.582031 231.847656 143.582031 231.847656 C 143.582031 231.847656 143.445312 231.695312 143.09375 231.347656 C 142.738281 230.996094 142.160156 230.453125 141.289062 229.648438 " fill-opacity="1" fill-rule="nonzero"/><path fill="#ffffff" d="M 130.507812 215.394531 C 130.507812 215.394531 130.632812 216.539062 132.84375 219.257812 C 135.203125 222.164062 136.433594 222.347656 136.433594 222.347656 C 136.433594 222.347656 136.308594 221.203125 133.933594 218.289062 C 131.554688 215.371094 130.507812 215.394531 130.507812 215.394531 " fill-opacity="1" fill-rule="nonzero"/><path fill="#ffffff" d="M 171.390625 215.839844 C 171.851562 217.542969 172.699219 220.363281 172.765625 224.890625 C 172.785156 227.300781 172.535156 229.253906 172.253906 230.8125 C 171.960938 232.371094 171.679688 233.5625 171.433594 234.445312 C 171.199219 235.320312 171.035156 235.921875 170.933594 236.3125 C 170.839844 236.695312 170.820312 236.859375 170.820312 236.859375 C 170.820312 236.859375 170.921875 236.734375 171.144531 236.402344 C 171.367188 236.074219 171.71875 235.539062 172.128906 234.679688 C 172.558594 233.824219 173.03125 232.636719 173.46875 231.019531 C 173.898438 229.402344 174.253906 227.335938 174.222656 224.773438 C 174.183594 222.214844 173.777344 220.199219 173.328125 218.664062 C 173.105469 217.894531 172.867188 217.238281 172.625 216.683594 C 172.40625 216.121094 172.160156 215.671875 171.957031 215.292969 C 171.566406 214.527344 171.207031 214.105469 171.011719 213.839844 C 170.808594 213.582031 170.714844 213.507812 170.714844 213.507812 C 170.714844 213.507812 170.75 213.667969 170.855469 214.039062 C 170.960938 214.410156 171.160156 214.984375 171.390625 215.839844 " fill-opacity="1" fill-rule="nonzero"/><path fill="#ffffff" d="M 190.398438 230.648438 C 190.910156 231.207031 191.308594 231.527344 191.558594 231.722656 C 191.8125 231.914062 191.929688 231.972656 191.929688 231.972656 C 191.929688 231.972656 191.882812 231.851562 191.730469 231.570312 C 191.578125 231.285156 191.335938 230.84375 190.980469 230.203125 C 190.304688 228.902344 189.042969 226.78125 188.023438 223.074219 C 187.066406 219.359375 187.039062 217.066406 186.894531 215.75 C 186.820312 215.085938 186.796875 214.664062 186.738281 214.398438 C 186.695312 214.140625 186.652344 214.046875 186.652344 214.046875 C 186.652344 214.046875 186.597656 214.164062 186.503906 214.460938 C 186.410156 214.753906 186.261719 215.230469 186.148438 215.949219 C 185.925781 217.367188 185.664062 219.84375 186.636719 223.539062 C 187.738281 227.476562 189.40625 229.535156 190.398438 230.648438 " fill-opacity="1" fill-rule="nonzero"/><path fill="#ffffff" d="M 213.257812 113.910156 C 213.261719 113.910156 238.929688 124.835938 238.929688 124.835938 C 233.84375 120.351562 216.898438 113.703125 213.257812 113.910156 " fill-opacity="1" fill-rule="nonzero"/><path fill="#ffffff" d="M 76.839844 168.554688 C 75.9375 165.941406 74.835938 160.953125 74.835938 160.953125 C 73.863281 165.527344 77.242188 173.953125 80.542969 176.0625 C 80.542969 176.0625 80.496094 175.960938 80.367188 175.722656 C 78.960938 173.296875 77.929688 171.570312 76.839844 168.554688 " fill-opacity="1" fill-rule="nonzero"/><path fill="#ffffff" d="M 53.78125 187.070312 C 54.574219 190.265625 60.734375 198.667969 63.238281 199.960938 C 62.972656 199.460938 54.410156 187.503906 53.78125 187.070312 " fill-opacity="1" fill-rule="nonzero"/><path fill="#ffffff" d="M 98.8125 134.046875 C 98.652344 132.703125 98.523438 132.34375 98.523438 132.34375 C 97.46875 136.925781 99.515625 147.660156 102.539062 151.226562 C 101.972656 148.449219 100.804688 148.488281 98.8125 134.046875 " fill-opacity="1" fill-rule="nonzero"/><path fill="#ffffff" d="M 100.960938 137.691406 C 100.214844 139.960938 101.964844 147.074219 103.550781 148.367188 C 103.535156 147.984375 101.339844 138.160156 100.960938 137.691406 " fill-opacity="1" fill-rule="nonzero"/><path fill="#ffffff" d="M 85.816406 246.074219 C 83.488281 247.308594 82.058594 247.929688 81.257812 248.363281 C 80.449219 248.78125 80.257812 248.984375 80.257812 248.984375 C 80.257812 248.984375 80.617188 249.003906 81.578125 248.796875 C 82.53125 248.582031 84.109375 248.148438 86.359375 246.953125 C 88.75 245.652344 90.007812 244.464844 90.710938 243.734375 C 91.410156 242.988281 91.554688 242.652344 91.554688 242.652344 C 91.554688 242.652344 91.226562 242.800781 90.375 243.34375 C 89.511719 243.871094 88.140625 244.816406 85.816406 246.074219 " fill-opacity="1" fill-rule="nonzero"/><path fill="#ffffff" d="M 257.867188 150.382812 C 257.550781 151.136719 257.328125 151.65625 257.1875 151.996094 C 257.050781 152.324219 257.011719 152.460938 257.011719 152.460938 C 257.011719 152.460938 257.109375 152.355469 257.328125 152.070312 C 257.546875 151.789062 257.898438 151.332031 258.339844 150.59375 C 258.796875 149.867188 259.335938 148.855469 259.917969 147.46875 C 260.492188 146.078125 261.085938 144.296875 261.46875 142.035156 C 262.210938 137.488281 261.683594 134.75 261.375 133.261719 C 261.222656 132.503906 261.03125 132.046875 260.9375 131.769531 C 260.832031 131.492188 260.78125 131.402344 260.78125 131.402344 C 260.78125 131.402344 260.785156 131.554688 260.796875 131.894531 C 260.816406 132.253906 260.851562 132.800781 260.898438 133.597656 C 260.960938 135.199219 261.136719 137.867188 260.441406 141.945312 C 259.648438 146.289062 258.484375 148.835938 257.867188 150.382812 " fill-opacity="1" fill-rule="nonzero"/><path fill="#ffffff" d="M 258.882812 142.109375 C 259.355469 139.722656 259.277344 138.273438 259.179688 137.460938 C 259.074219 136.640625 258.929688 136.429688 258.929688 136.429688 C 258.929688 136.429688 258.820312 136.738281 258.660156 137.578125 C 258.496094 138.425781 258.300781 139.8125 257.863281 141.957031 C 257.382812 144.238281 257 145.652344 256.835938 146.53125 C 256.660156 147.410156 256.671875 147.738281 256.671875 147.738281 C 256.671875 147.738281 256.898438 147.507812 257.324219 146.695312 C 257.738281 145.886719 258.386719 144.488281 258.882812 142.109375 " fill-opacity="1" fill-rule="nonzero"/><path fill="#ffffff" d="M 86.5 183.328125 C 87.203125 184.648438 92.804688 189.335938 94.378906 189.597656 C 93.726562 188.375 87.808594 183.339844 86.5 183.328125 " fill-opacity="1" fill-rule="nonzero"/><path fill="#ffffff" d="M 81.1875 214.363281 C 80.261719 214.101562 78.6875 213.761719 76.449219 212.625 C 74.234375 211.453125 73.101562 210.476562 72.386719 209.984375 C 71.691406 209.464844 71.433594 209.371094 71.433594 209.371094 C 71.433594 209.371094 71.46875 209.453125 71.570312 209.625 C 71.671875 209.804688 71.835938 210.085938 72.136719 210.457031 C 72.722656 211.191406 73.808594 212.40625 76.035156 213.566406 C 78.425781 214.765625 80.160156 214.871094 81.136719 214.875 C 81.632812 214.875 81.964844 214.820312 82.167969 214.78125 C 82.375 214.742188 82.457031 214.714844 82.457031 214.714844 C 82.457031 214.714844 82.375 214.675781 82.175781 214.621094 C 81.964844 214.566406 81.640625 214.480469 81.1875 214.363281 " fill-opacity="1" fill-rule="nonzero"/><path fill="#ffffff" d="M 198.34375 243.925781 C 197.125 244.300781 195.480469 244.746094 193.3125 245.222656 C 191.140625 245.691406 188.425781 246.15625 185.058594 246.371094 C 178.316406 246.742188 174.355469 246.078125 172.082031 245.824219 C 170.9375 245.691406 170.226562 245.554688 169.785156 245.519531 C 169.347656 245.472656 169.191406 245.472656 169.191406 245.472656 C 169.191406 245.472656 169.402344 245.542969 169.894531 245.710938 C 170.394531 245.871094 171.183594 246.128906 172.386719 246.402344 C 174.777344 246.941406 178.835938 247.773438 185.253906 247.382812 C 188.671875 247.160156 191.417969 246.621094 193.589844 246.050781 C 195.757812 245.46875 197.375 244.902344 198.550781 244.402344 C 199.742188 243.921875 200.496094 243.523438 200.96875 243.273438 C 201.4375 243.023438 201.621094 242.914062 201.621094 242.914062 C 201.621094 242.914062 201.40625 242.976562 200.894531 243.132812 C 200.382812 243.292969 199.574219 243.570312 198.34375 243.925781 " fill-opacity="1" fill-rule="nonzero"/><path fill="#ffffff" d="M 115.460938 153.375 C 114.339844 153.429688 109.382812 156.386719 109.179688 157.476562 C 110.375 157.414062 115.019531 154.585938 115.460938 153.375 " fill-opacity="1" fill-rule="nonzero"/><path fill="#ffffff" d="M 116.109375 155.917969 C 115.277344 155.84375 112.5 157.859375 112.652344 158.746094 C 113.515625 158.828125 116.125 156.902344 116.109375 155.917969 " fill-opacity="1" fill-rule="nonzero"/><path fill="#ffffff" d="M 248.269531 153.871094 C 250.667969 156.117188 251.664062 156.238281 251.664062 156.238281 C 251.664062 156.238281 251.347656 155.339844 248.933594 153.085938 C 246.523438 150.835938 245.707031 150.867188 245.707031 150.867188 C 245.707031 150.867188 246.019531 151.769531 248.269531 153.871094 " fill-opacity="1" fill-rule="nonzero"/><path fill="#ffffff" d="M 246.003906 153.40625 C 246.003906 153.40625 245.996094 154.007812 247.042969 155.015625 C 248.164062 156.09375 248.832031 155.917969 248.832031 155.917969 C 248.832031 155.917969 248.84375 155.316406 247.71875 154.238281 C 246.589844 153.164062 246.003906 153.40625 246.003906 153.40625 " fill-opacity="1" fill-rule="nonzero"/><path fill="#ffffff" d="M 272.648438 180.183594 C 273.550781 180.832031 274.03125 181.347656 274.378906 181.636719 C 274.722656 181.9375 274.910156 182.023438 274.910156 182.023438 C 274.910156 182.023438 274.960938 181.832031 274.8125 181.359375 C 274.664062 180.90625 274.296875 180.089844 273.199219 179.316406 C 272.082031 178.566406 271.222656 178.550781 270.789062 178.605469 C 270.335938 178.671875 270.222656 178.8125 270.222656 178.8125 C 270.222656 178.8125 270.378906 178.929688 270.773438 179.125 C 271.160156 179.324219 271.792969 179.589844 272.648438 180.183594 " fill-opacity="1" fill-rule="nonzero"/><path fill="#ffffff" d="M 79.859375 160.414062 C 79.875 160.488281 80.027344 161.152344 80.058594 161.21875 C 80.355469 160.875 80.554688 159.972656 80.242188 159.019531 C 79.375 156.375 75.894531 156.121094 75.003906 157.691406 C 74.945312 157.796875 74.9375 157.84375 74.9375 157.84375 C 74.9375 157.84375 74.996094 157.835938 75.121094 157.804688 C 77.527344 157.1875 79.207031 158.105469 79.859375 160.414062 " fill-opacity="1" fill-rule="nonzero"/><path fill="#ffffff" d="M 88.628906 178.464844 C 87.871094 178.972656 87.863281 179.285156 87.847656 179.265625 C 87.847656 179.265625 91.191406 177.1875 95.023438 181.761719 C 95.335938 182.15625 96.617188 183.820312 97.019531 184.117188 C 97.019531 184.117188 96.96875 183.789062 96.605469 182.929688 C 94.363281 177.769531 90.441406 177.375 88.628906 178.464844 " fill-opacity="1" fill-rule="nonzero"/><path fill="#ffffff" d="M 120.371094 255.402344 C 119.835938 255.773438 119.09375 256.230469 118.089844 256.746094 C 117.082031 257.25 115.789062 257.785156 114.125 258.15625 C 110.777344 258.863281 108.730469 258.550781 107.570312 258.472656 C 106.980469 258.433594 106.609375 258.359375 106.375 258.359375 C 106.144531 258.347656 106.058594 258.359375 106.058594 258.359375 C 106.058594 258.359375 106.15625 258.417969 106.40625 258.535156 C 106.652344 258.648438 107.046875 258.839844 107.671875 259.019531 C 108.886719 259.367188 111.089844 259.875 114.421875 259.144531 C 116.191406 258.742188 117.539062 258.105469 118.546875 257.484375 C 119.554688 256.851562 120.25 256.273438 120.714844 255.785156 C 121.191406 255.3125 121.453125 254.941406 121.613281 254.707031 C 121.773438 254.480469 121.824219 254.378906 121.824219 254.378906 C 121.824219 254.378906 121.722656 254.4375 121.492188 254.597656 C 121.265625 254.761719 120.917969 255.039062 120.371094 255.402344 " fill-opacity="1" fill-rule="nonzero"/><path fill="#ffffff" d="M 104.679688 237.578125 C 103.804688 237.785156 102.699219 238.019531 101.382812 237.933594 C 100.082031 237.832031 99.097656 237.394531 98.40625 236.972656 C 97.710938 236.542969 97.289062 236.097656 97.003906 235.75 C 96.460938 235.03125 96.335938 234.761719 96.3125 234.777344 C 96.347656 234.765625 96.199219 235.171875 96.65625 236.164062 C 96.894531 236.648438 97.328125 237.253906 98.09375 237.808594 C 98.855469 238.355469 99.945312 238.863281 101.375 238.960938 C 102.886719 239.046875 104.070312 238.710938 104.964844 238.402344 C 105.863281 238.078125 106.5 237.746094 106.964844 237.480469 C 107.894531 236.945312 108.15625 236.671875 108.15625 236.671875 C 108.15625 236.671875 107.78125 236.714844 106.753906 237.011719 C 106.238281 237.15625 105.5625 237.367188 104.679688 237.578125 " fill-opacity="1" fill-rule="nonzero"/><path fill="#ffffff" d="M 127.894531 196.472656 C 128.054688 195.941406 128.269531 195.097656 128.675781 193.878906 C 129.480469 191.464844 130.746094 187.382812 134.324219 181.851562 C 136.246094 178.914062 138.125 176.746094 139.71875 175.082031 C 141.328125 173.433594 142.625 172.226562 143.636719 171.371094 C 144.632812 170.484375 145.332031 169.929688 145.757812 169.566406 C 146.183594 169.199219 146.34375 169.03125 146.34375 169.03125 C 146.34375 169.03125 146.132812 169.121094 145.625 169.378906 C 145.117188 169.636719 144.300781 170.050781 143.164062 170.808594 C 142.015625 171.546875 140.550781 172.644531 138.792969 174.265625 C 137.039062 175.898438 135.015625 178.101562 133.027344 181.167969 C 131.042969 184.238281 129.886719 186.921875 129.132812 189.082031 C 128.953125 189.628906 128.792969 190.136719 128.636719 190.617188 C 128.515625 191.097656 128.398438 191.546875 128.292969 191.964844 C 128.070312 192.800781 127.960938 193.523438 127.863281 194.128906 C 127.648438 195.335938 127.667969 196.125 127.640625 196.589844 C 127.632812 197.054688 127.652344 197.21875 127.652344 197.21875 C 127.652344 197.21875 127.734375 197 127.894531 196.472656 " fill-opacity="1" fill-rule="nonzero"/><path fill="#ffffff" d="M 143.859375 177.613281 C 144.4375 177.066406 144.832031 176.707031 145.074219 176.460938 C 145.3125 176.21875 145.398438 176.101562 145.398438 176.101562 C 145.398438 176.101562 145.265625 176.140625 144.945312 176.273438 C 144.625 176.402344 144.117188 176.621094 143.410156 177.039062 C 142.691406 177.445312 141.777344 178.054688 140.671875 178.980469 C 139.570312 179.914062 138.285156 181.183594 136.988281 182.964844 C 134.414062 186.5625 133.777344 189.179688 133.484375 190.609375 C 133.328125 191.332031 133.335938 191.8125 133.320312 192.097656 C 133.320312 192.382812 133.347656 192.488281 133.347656 192.488281 C 133.347656 192.488281 133.421875 192.367188 133.566406 192.066406 C 133.710938 191.757812 133.933594 191.28125 134.253906 190.59375 C 134.917969 189.21875 135.925781 186.90625 138.21875 183.753906 C 140.710938 180.417969 142.722656 178.71875 143.859375 177.613281 " fill-opacity="1" fill-rule="nonzero"/><path fill="#ffffff" d="M 139.484375 191.507812 C 140.003906 190.699219 140.796875 189.453125 142.03125 187.519531 C 143.402344 185.464844 144.308594 184.203125 144.792969 183.371094 C 145.285156 182.546875 145.371094 182.179688 145.371094 182.179688 C 145.371094 182.179688 145.023438 182.289062 144.238281 182.886719 C 143.472656 183.492188 142.222656 184.589844 140.773438 186.777344 C 139.351562 188.976562 138.921875 190.492188 138.753906 191.363281 C 138.59375 192.246094 138.710938 192.527344 138.710938 192.527344 C 138.710938 192.527344 138.972656 192.273438 139.484375 191.507812 " fill-opacity="1" fill-rule="nonzero"/><path fill="#ffffff" d="M 144.355469 190.539062 C 142.996094 192.75 142.816406 194.332031 142.792969 195.191406 C 142.789062 196.066406 142.96875 196.308594 142.96875 196.308594 C 142.96875 196.308594 143.023438 196.238281 143.121094 196.066406 C 143.214844 195.890625 143.347656 195.617188 143.535156 195.21875 C 143.921875 194.425781 144.460938 193.109375 145.625 191.257812 C 146.886719 189.304688 147.890625 188.21875 148.433594 187.488281 C 148.714844 187.121094 148.898438 186.867188 149.007812 186.695312 C 149.117188 186.519531 149.148438 186.433594 149.148438 186.433594 C 149.148438 186.433594 149.0625 186.445312 148.867188 186.511719 C 148.675781 186.578125 148.371094 186.695312 147.953125 186.933594 C 147.140625 187.417969 145.75 188.355469 144.355469 190.539062 " fill-opacity="1" fill-rule="nonzero"/><path fill="#ffffff" d="M 147.105469 198.070312 C 147.105469 198.070312 148.074219 197.96875 149.957031 196.046875 C 151.96875 193.992188 151.855469 192.914062 151.855469 192.914062 C 151.855469 192.914062 150.882812 193.011719 148.867188 195.078125 C 146.851562 197.148438 147.105469 198.070312 147.105469 198.070312 " fill-opacity="1" fill-rule="nonzero"/><path fill="#ffffff" d="M 229.375 173.472656 C 233.78125 178.175781 236.671875 183.308594 237.90625 189.6875 C 238.550781 193.199219 238.515625 194.761719 238.628906 196.570312 C 238.65625 197.050781 238.691406 197.25 238.691406 197.25 C 238.890625 196.609375 239.140625 195.371094 239.226562 194.183594 C 239.558594 190.8125 238.957031 186.351562 236.980469 182.019531 C 235.5 178.785156 233.964844 176.832031 231.9375 174.664062 C 230.703125 173.484375 230.285156 173.199219 229.574219 172.679688 C 228.738281 172.042969 228.109375 171.78125 227.765625 171.589844 C 227.40625 171.410156 227.269531 171.371094 227.269531 171.371094 C 227.4375 171.566406 228.902344 172.96875 229.375 173.472656 " fill-opacity="1" fill-rule="nonzero"/><path fill="#ffffff" d="M 226.867188 180.503906 C 227.46875 181.347656 228.527344 182.664062 229.683594 184.988281 C 230.890625 187.484375 231.296875 189.191406 231.640625 190.207031 C 231.808594 190.71875 231.921875 191.070312 232.007812 191.289062 C 232.097656 191.511719 232.15625 191.601562 232.15625 191.601562 C 233.707031 187.464844 228.859375 179.394531 226.042969 179.324219 C 226.042969 179.324219 226.09375 179.414062 226.21875 179.605469 C 226.347656 179.796875 226.5625 180.082031 226.867188 180.503906 " fill-opacity="1" fill-rule="nonzero"/><path fill="#ffffff" d="M 225.378906 187.664062 C 226.1875 189.558594 226.578125 190.792969 226.914062 191.539062 C 227.230469 192.285156 227.449219 192.542969 227.449219 192.542969 C 228.742188 190.035156 225.242188 183.058594 223.222656 183.09375 C 223.222656 183.09375 223.296875 183.402344 223.644531 184.105469 C 223.984375 184.808594 224.605469 185.898438 225.378906 187.664062 " fill-opacity="1" fill-rule="nonzero"/><path fill="#ffffff" d="M 221.785156 195.84375 C 222.40625 194.796875 221.609375 189.671875 220.371094 189.242188 C 219.722656 190.34375 220.527344 195.167969 221.785156 195.84375 " fill-opacity="1" fill-rule="nonzero"/><g clip-path="url(#7a35cc65ad)"><path fill="#ffffff" d="M 326.445312 171.242188 C 326.425781 171.300781 326.421875 171.355469 326.421875 171.410156 C 326.242188 169.453125 325.597656 167.65625 324.554688 166.03125 C 324.648438 166.035156 324.742188 166.007812 324.792969 165.902344 C 326.519531 162.515625 328.023438 159.019531 329.273438 155.425781 C 329.695312 161.027344 328.425781 165.851562 326.445312 171.242188 Z M 320.222656 182.167969 C 318.628906 184.527344 316.496094 186.636719 314.867188 188.992188 C 314.78125 188.914062 314.671875 188.851562 314.535156 188.8125 C 313.277344 188.414062 312.089844 187.972656 310.980469 187.234375 C 310.222656 186.730469 309.328125 186.183594 308.566406 185.582031 C 308.570312 185.5 308.558594 185.425781 308.535156 185.351562 C 311.070312 181.007812 312.660156 176.261719 315.636719 172.097656 C 316.613281 170.730469 317.671875 169.417969 318.777344 168.15625 C 319.363281 167.484375 320.6875 165.390625 321.425781 165.21875 C 324.445312 164.539062 325.089844 171.765625 325.035156 173.542969 C 325.03125 173.65625 325.050781 173.753906 325.082031 173.839844 C 323.332031 176.5 322.011719 179.515625 320.222656 182.167969 Z M 304.601562 201.449219 C 301.257812 204.121094 297.625 206.414062 294.296875 209.085938 C 293.445312 206.972656 292.253906 204.574219 290.578125 203.386719 C 293.339844 200.632812 295.847656 197.597656 298.625 194.859375 C 301.609375 191.914062 305.195312 189.402344 308.035156 186.34375 C 308.53125 187.171875 309.046875 187.863281 309.984375 188.535156 C 311.15625 189.375 312.523438 190.046875 313.933594 190.382812 C 313.941406 190.417969 313.9375 190.453125 313.941406 190.488281 C 313.859375 190.636719 313.765625 190.785156 313.6875 190.9375 C 313.605469 191.105469 313.769531 191.269531 313.9375 191.1875 C 313.960938 191.175781 313.984375 191.160156 314.007812 191.144531 C 313.914062 195.015625 307.066406 199.484375 304.601562 201.449219 Z M 293.464844 211.671875 C 286.703125 214.304688 280.257812 215.140625 273.109375 215.695312 C 272.90625 214.503906 272.53125 213.34375 272.050781 212.210938 C 275.527344 211.242188 278.847656 209.078125 282.011719 207.425781 C 283.300781 206.75 286.886719 203.957031 288.363281 204.1875 C 289.664062 204.394531 293.863281 211.515625 293.464844 211.671875 Z M 271.285156 217.101562 C 270.816406 217.613281 269.910156 217.726562 268.972656 217.792969 C 267.355469 217.914062 265.738281 218.042969 264.117188 218.179688 C 260.816406 218.457031 257.519531 218.765625 254.214844 219.039062 C 251.410156 219.273438 248.601562 219.507812 245.796875 219.75 C 244.078125 219.894531 242.542969 219.835938 241.070312 220.320312 C 241.449219 219.9375 241.8125 219.542969 242.175781 219.148438 C 244.976562 218.21875 247.296875 217.988281 249.773438 217.886719 C 247.71875 217.324219 245.882812 217.160156 243.652344 217.460938 C 244.648438 216.257812 245.570312 215.015625 246.367188 213.71875 C 250.984375 213.292969 255.65625 211.785156 260.230469 211.113281 C 262.378906 210.796875 267.433594 209.292969 269.453125 210.730469 C 270.835938 211.710938 271.160156 213.992188 271.523438 215.515625 C 271.703125 216.273438 271.589844 216.773438 271.285156 217.101562 Z M 239.375 218.65625 L 239.515625 218.976562 C 235.152344 223.515625 229.976562 226.992188 224.890625 230.75 C 224.523438 231.019531 224.175781 231.308594 223.8125 231.585938 C 223.742188 231.589844 223.679688 231.589844 223.609375 231.59375 L 223.617188 231.734375 C 220.085938 234.453125 216.773438 237.40625 213.605469 240.550781 C 207.746094 246.359375 197.960938 250.777344 174.808594 249.210938 C 166.335938 248.640625 157.929688 245.230469 150.460938 241.195312 C 143.433594 237.398438 137.714844 231.386719 132.171875 225.667969 C 132.085938 225.460938 131.933594 225.292969 131.71875 225.207031 C 131.453125 224.933594 131.191406 224.660156 130.925781 224.394531 C 124.792969 218.109375 116.699219 211.921875 113.390625 203.613281 C 113.640625 203.679688 114.636719 203.953125 114.878906 203.914062 C 115.4375 204.042969 116.78125 204.460938 117.230469 204.1875 C 117.523438 204.082031 117.753906 203.769531 117.644531 203.445312 C 116.511719 200.105469 115.285156 190.394531 117.96875 188.699219 C 118.691406 189.210938 119.371094 189.78125 120.023438 190.433594 C 120.648438 191.0625 121.730469 190.425781 121.5 189.578125 C 120.628906 186.347656 120.53125 183.4375 121.035156 180.5625 C 121.117188 180.089844 120.980469 178.613281 121.507812 178.441406 C 122.449219 178.128906 125.277344 181.5625 126.335938 179.683594 C 126.867188 178.734375 127.847656 165.78125 130.675781 169.652344 C 131.527344 170.8125 132.792969 170.742188 133.742188 169.597656 C 134.605469 168.554688 134.90625 167.160156 135.476562 165.960938 C 136.328125 164.171875 140.550781 159.03125 142.421875 159.097656 C 144.140625 159.164062 146.605469 165.589844 148.1875 162.519531 C 148.902344 161.144531 150.402344 158.273438 151.492188 157.179688 C 152.363281 156.300781 155.542969 161.773438 157.152344 160.792969 C 158.097656 160.21875 158.75 150.425781 162.753906 152.824219 C 164.296875 153.75 166.183594 156.15625 167.152344 157.675781 C 168.40625 159.644531 171.464844 151.035156 174.015625 151.089844 C 175.640625 151.125 177.125 155.425781 178.066406 156.234375 C 179.25 157.242188 179.214844 154.773438 183.574219 151.410156 C 186.628906 155.664062 187.421875 158.691406 188.285156 157.269531 C 192.648438 150.109375 193.308594 150.695312 196.59375 157.996094 C 198.277344 161.738281 198.71875 149.078125 202.980469 152.285156 C 206.117188 154.644531 205.433594 161.105469 207.351562 157.714844 C 207.613281 157.25 210.128906 150.269531 211.273438 151.335938 C 212.886719 152.847656 215.667969 155.636719 216.609375 157.640625 C 216.96875 158.402344 217.089844 159.136719 217.769531 159.722656 C 217.847656 159.789062 221.140625 157.007812 221.636719 156.996094 C 223.5 156.953125 225.792969 161.804688 226.503906 163.589844 C 226.894531 164.558594 227.21875 166.558594 228.097656 167.195312 C 229.785156 168.425781 231.082031 162.363281 232.320312 163.304688 C 235.625 165.824219 238.097656 177.25 238.753906 177.515625 C 240.320312 178.144531 240.109375 175.558594 241.824219 176.390625 C 242.765625 176.851562 243.492188 178.71875 243.824219 179.648438 C 244.664062 181.996094 244.914062 184.5 244.714844 186.976562 C 244.664062 187.589844 245.476562 187.835938 245.875 187.453125 C 246.167969 187.171875 247.71875 185.1875 248.324219 185.339844 C 248.808594 185.464844 248.867188 189.667969 248.867188 190.152344 C 248.867188 193.464844 247.917969 196.53125 246.375 199.425781 C 246.105469 199.933594 246.65625 200.546875 247.179688 200.234375 C 247.714844 199.910156 248.25 199.589844 248.78125 199.269531 C 248.457031 203.753906 246.457031 208.542969 246.457031 208.542969 C 244.816406 212.105469 242.859375 215.34375 240.0625 218.390625 C 239.832031 218.476562 239.605469 218.554688 239.375 218.65625 Z M 261.875 230.535156 C 265.023438 231.953125 266.308594 234.234375 265.203125 237.664062 C 264.105469 241.082031 262.472656 240.664062 258.820312 240.253906 C 252.773438 239.578125 246.539062 237.613281 241.179688 236.261719 C 236.101562 234.984375 229.5625 233.074219 224.074219 234.085938 C 224.523438 233.710938 224.988281 233.34375 225.449219 232.976562 C 228.046875 232.867188 230.175781 232.914062 231.726562 232.96875 C 233.597656 233.046875 234.648438 233.09375 234.648438 233.09375 C 234.648438 233.09375 233.6875 232.699219 231.816406 232.269531 C 230.636719 232 229.074219 231.726562 227.183594 231.609375 C 227.703125 231.214844 228.222656 230.8125 228.753906 230.425781 C 229.726562 229.722656 230.734375 228.984375 231.761719 228.21875 C 240.167969 228.261719 254.882812 227.398438 261.875 230.535156 Z M 237.671875 244.703125 C 243 247.144531 254.449219 251.613281 254.90625 258.339844 C 247.871094 266.488281 239.46875 255.347656 233.742188 250.871094 C 228.5625 246.828125 221.75 243 215.015625 242.191406 C 215.257812 241.96875 215.496094 241.75 215.738281 241.53125 C 220.808594 243.15625 224.792969 244.714844 227.554688 245.832031 C 230.441406 247.039062 232.027344 247.695312 232.027344 247.695312 C 232.027344 247.695312 230.625 246.71875 227.855469 245.199219 C 225.359375 243.839844 221.714844 242.050781 216.96875 240.398438 C 217.8125 239.621094 218.660156 238.835938 219.507812 238.070312 C 225.367188 240.667969 231.796875 242.007812 237.671875 244.703125 Z M 257.0625 263.558594 C 258.054688 266.253906 258.34375 269.125 258.0625 271.972656 C 257.804688 274.539062 257.273438 277.066406 256.933594 279.621094 C 256.859375 280.164062 256.789062 280.710938 256.734375 281.253906 C 256.730469 281.277344 256.25 285.121094 256.183594 285.03125 C 255.996094 284.765625 255.726562 284.703125 255.492188 284.769531 C 255.464844 284.75 255.441406 284.730469 255.414062 284.710938 C 255.335938 284.507812 255.125 284.417969 254.933594 284.441406 C 254.128906 284.070312 253.253906 284.054688 252.140625 284.070312 C 250.390625 284.097656 248.300781 285 247.890625 281.675781 C 247.753906 280.5625 248.867188 278.585938 249.054688 277.382812 C 249.472656 274.71875 249.019531 272.082031 248.351562 269.5 C 247.976562 268.050781 245.910156 263.886719 248.082031 262.902344 C 248.582031 262.675781 249.472656 262.972656 250.039062 262.976562 C 250.796875 262.984375 251.5625 262.921875 252.300781 262.738281 C 254.4375 262.199219 256.046875 260.808594 257.0625 263.558594 Z M 246.660156 297.691406 C 244.902344 299.28125 240.5625 304.214844 237.707031 302.957031 C 237.605469 302.820312 237.445312 302.71875 237.261719 302.714844 C 236.292969 301.996094 234.683594 299.265625 234.492188 298.097656 C 234.117188 295.796875 240.117188 293.269531 241.96875 291.503906 C 244.019531 289.539062 245.789062 287.230469 246.8125 284.578125 C 246.871094 284.648438 246.929688 284.722656 247 284.792969 C 248.964844 286.761719 252.148438 285.316406 254.609375 286.046875 C 254.375 291.21875 250.328125 294.371094 246.660156 297.691406 Z M 224.746094 303.597656 C 227.65625 302.644531 230.746094 301.503906 233.0625 299.667969 C 233.625 300.925781 234.492188 302.164062 235.316406 303.089844 C 231.703125 303.796875 228.359375 304.164062 224.746094 303.597656 Z M 125.390625 254.578125 C 121.976562 256.625 118.511719 259.148438 114.804688 260.625 C 112.296875 261.625 109.59375 261.238281 107.066406 260.429688 C 101.054688 258.519531 108.03125 254.386719 110.433594 253.128906 C 113.960938 251.273438 117.539062 249.523438 121.15625 247.851562 C 128.386719 244.503906 135.945312 242.023438 143.203125 238.796875 C 143.796875 239.269531 144.402344 239.726562 145.015625 240.171875 C 136.527344 244.765625 131.824219 248.007812 131.824219 248.007812 C 131.824219 248.007812 137.398438 245.828125 146.335938 241.136719 L 146.296875 241.0625 C 146.644531 241.300781 146.984375 241.546875 147.335938 241.773438 C 140.007812 246.015625 132.652344 250.226562 125.390625 254.578125 Z M 114.054688 277.082031 C 114.210938 278.15625 114.667969 279.246094 114.75 280.3125 C 114.96875 283.21875 113.355469 284.582031 110.628906 285.371094 C 107.863281 286.171875 104.546875 285.738281 104.449219 282.339844 C 104.394531 280.386719 104.390625 278.523438 104.082031 276.585938 C 103.683594 274.09375 103.265625 271.613281 103.121094 269.085938 C 103.019531 267.34375 102.550781 262.796875 104.851562 262.085938 C 105.390625 261.921875 106.089844 262.035156 106.632812 262.125 C 107.9375 262.339844 109.210938 262.675781 110.535156 262.828125 C 111.078125 262.894531 111.5625 262.898438 112.027344 262.886719 C 115.191406 266.183594 113.457031 272.941406 114.054688 277.082031 Z M 121.449219 292.472656 C 122.355469 293.296875 123.445312 293.859375 124.449219 294.546875 C 125.277344 295.042969 126.046875 295.617188 126.753906 296.273438 C 128.957031 298.097656 127.566406 301.042969 125.355469 302.246094 C 123.65625 303.167969 121.078125 301.25 119.765625 300.316406 C 117.832031 298.949219 116.175781 297.246094 114.320312 295.777344 C 112.613281 294.421875 105.285156 290.289062 107.464844 287.546875 C 108.546875 287.550781 109.652344 287.355469 110.589844 287.125 C 112.074219 286.761719 113.320312 286.257812 114.285156 285.578125 C 118.074219 285.984375 118.953125 290.210938 121.449219 292.472656 Z M 129.578125 300.792969 C 129.636719 300.640625 129.664062 300.484375 129.707031 300.332031 C 132.679688 302.179688 136.515625 303.511719 139.992188 304.4375 C 135.699219 305.164062 131.488281 304.660156 127.453125 303.003906 C 128.394531 302.65625 129.160156 301.863281 129.578125 300.792969 Z M 115.515625 237.464844 C 109.554688 238.949219 98.179688 243.945312 95.230469 235.625 C 94.972656 234.902344 94.433594 234.207031 94.613281 233.398438 C 94.871094 232.226562 96.261719 231.804688 97.277344 231.570312 C 99.9375 230.957031 102.648438 231.300781 105.339844 231.230469 C 108.527344 231.148438 111.714844 230.875 114.878906 230.46875 C 120.335938 229.769531 125.832031 228.746094 131.078125 227.050781 C 131.785156 227.800781 132.503906 228.546875 133.21875 229.296875 C 123.710938 232.414062 118.308594 234.816406 118.308594 234.816406 C 118.308594 234.816406 124.375 233.597656 134.34375 230.476562 C 134.585938 230.734375 134.824219 230.992188 135.070312 231.242188 C 128.65625 233.65625 122.175781 235.800781 115.515625 237.464844 Z M 95.65625 241.503906 C 95.015625 243.011719 91.535156 245.148438 90.445312 245.90625 C 86.796875 248.441406 82.757812 250.191406 78.464844 251.324219 C 77.222656 249.765625 75.675781 247.957031 74.101562 246.804688 C 76.53125 244.230469 78.828125 241.566406 81.550781 239.269531 C 83.359375 237.738281 85.53125 235.734375 87.707031 234.707031 C 88.960938 234.117188 90.679688 234.09375 91.992188 234.488281 C 93.550781 234.949219 93.492188 236.269531 94.125 237.5 C 94.839844 238.890625 96.433594 239.691406 95.65625 241.503906 Z M 74.679688 257.046875 C 74 257.542969 73.15625 257.808594 72.535156 258.398438 C 71.742188 259.148438 71.320312 259.847656 70.921875 260.859375 C 70.519531 261.871094 70.550781 263.300781 69.917969 264.191406 C 69.054688 265.410156 67.027344 266.027344 65.617188 266.160156 C 63.796875 266.332031 61.308594 266.753906 60.503906 264.6875 C 59.703125 262.617188 61.265625 260.414062 62.539062 258.90625 C 64.101562 257.058594 66.042969 255.5625 67.507812 253.632812 C 68.140625 252.800781 68.449219 251.632812 68.851562 250.675781 C 69.339844 249.511719 69.796875 247.773438 71.285156 247.480469 C 71.929688 247.351562 72.605469 247.632812 73.105469 248.058594 C 73.765625 248.625 74.210938 249.4375 74.777344 250.097656 C 75.371094 250.78125 76.082031 251.425781 76.625 252.140625 C 78.03125 253.996094 76.160156 255.96875 74.679688 257.046875 Z M 72.460938 273.988281 C 74.171875 276.867188 77.460938 280.398438 75.652344 283.808594 C 75.410156 284.265625 75.910156 284.820312 76.382812 284.539062 C 76.644531 284.378906 76.867188 284.203125 77.0625 284.019531 C 77.167969 284.257812 77.273438 284.492188 77.375 284.71875 C 77.726562 285.492188 78.140625 286.230469 78.605469 286.929688 C 77.980469 286.601562 77.371094 286.253906 76.757812 285.90625 C 76.84375 285.585938 76.726562 285.21875 76.335938 285.15625 C 72.222656 284.480469 70.027344 281.484375 67.632812 278.40625 C 66.273438 276.65625 64.703125 275.078125 63.316406 273.347656 C 62.433594 272.246094 60.101562 270.074219 60.714844 268.480469 C 61.179688 267.269531 63.28125 268.175781 64.277344 268.175781 C 65.824219 268.179688 67.410156 267.890625 68.828125 267.265625 C 69.738281 269.636719 71.167969 271.816406 72.460938 273.988281 Z M 107.617188 220.402344 C 105.210938 220.417969 102.816406 220.285156 100.414062 220.433594 C 98.085938 220.570312 94.4375 221.265625 93.066406 218.96875 C 91.746094 216.757812 92.386719 213.773438 95.167969 213.652344 C 97.214844 213.566406 99.347656 214.609375 101.390625 214.777344 C 105.339844 215.101562 115.621094 215.550781 118.390625 214.394531 C 119.160156 215.25 119.964844 216.082031 120.78125 216.890625 C 118.851562 217.269531 117.230469 217.410156 116.019531 217.480469 C 114.460938 217.558594 113.589844 217.554688 113.589844 217.554688 C 113.589844 217.554688 114.394531 217.902344 115.980469 218.183594 C 117.402344 218.425781 119.507812 218.585938 122.046875 218.101562 C 122.40625 218.449219 122.773438 218.808594 123.128906 219.144531 C 117.960938 219.519531 112.839844 220.367188 107.617188 220.402344 Z M 97.261719 193.667969 C 89.914062 189.011719 75.796875 178.894531 84.839844 178.898438 C 86.855469 178.898438 89.703125 177.300781 91.523438 176.421875 C 91.777344 176.300781 92.035156 176.199219 92.28125 176.085938 C 98.503906 181.066406 100.277344 188.550781 114.335938 195.789062 C 114.402344 197.027344 114.566406 198.257812 114.8125 199.472656 C 110.570312 197.902344 107.316406 196.1875 105.058594 194.898438 C 103.601562 194.0625 102.558594 193.402344 101.203125 192.542969 C 102.328125 193.601562 103.121094 194.324219 104.671875 195.488281 C 106.925781 197.167969 110.410156 199.398438 115.214844 201.175781 C 115.300781 201.484375 115.375 201.792969 115.472656 202.101562 C 114.875 201.886719 114.273438 201.773438 113.625 201.792969 C 108.136719 199.089844 102.503906 196.988281 97.261719 193.667969 Z M 73.738281 163.992188 C 72.535156 158.699219 71.011719 156.421875 76.679688 155.078125 C 84.394531 153.257812 78.492188 163.664062 88.484375 172.027344 C 88.855469 172.335938 90.445312 173.25 90.605469 173.570312 C 91.480469 175.34375 89.515625 175.082031 88.199219 175.527344 C 85.945312 176.289062 83.421875 177.570312 81.007812 176.808594 C 76.382812 175.359375 74.640625 167.964844 73.738281 163.992188 Z M 69.761719 146.691406 C 69.445312 143.789062 68.261719 140.773438 67.757812 137.847656 C 67.5 136.339844 65.566406 132.109375 65.910156 130.910156 C 66.320312 129.472656 68.953125 129.894531 70.113281 129.660156 C 71.035156 129.472656 71.824219 128.800781 72.761719 129.414062 C 75.160156 130.96875 74.566406 134.964844 75.0625 137.351562 C 75.75 140.644531 80.195312 151.59375 75.695312 153.191406 C 74.792969 153.511719 72.855469 153.464844 71.953125 153.09375 C 68.542969 151.695312 70.015625 148.984375 69.761719 146.691406 Z M 68.59375 113.335938 C 68.5625 116.558594 68.625 124.707031 70.574219 127.765625 C 68.722656 128.351562 69.78125 128.730469 66.601562 128.328125 C 66.96875 124.65625 65.066406 121.359375 68.59375 113.335938 Z M 104.382812 157.914062 C 106.648438 157.671875 108.734375 155.296875 110.375 153.871094 C 112.402344 152.113281 114.425781 152.734375 116.574219 151.71875 C 117.242188 151.40625 117.714844 150.957031 118.03125 150.410156 C 123.433594 152.1875 122.859375 159.21875 134.039062 164.285156 C 133.71875 164.867188 133.425781 165.460938 133.160156 166.058594 C 132.855469 166.601562 132.566406 167.160156 132.308594 167.734375 C 132.207031 167.570312 132.109375 167.410156 132.003906 167.257812 C 131.667969 166.382812 130.902344 165.773438 129.960938 165.210938 C 129.476562 164.921875 128.804688 165.097656 128.523438 165.589844 C 128.347656 165.898438 128.203125 166.21875 128.039062 166.53125 C 127.914062 166.644531 127.789062 166.765625 127.664062 166.914062 C 126.796875 167.914062 126.1875 169.101562 125.746094 170.355469 C 124.5 169.945312 123.539062 169.355469 122.886719 168.871094 C 122.503906 168.585938 122.21875 168.332031 122.023438 168.160156 C 121.832031 167.988281 121.726562 167.890625 121.726562 167.890625 C 121.726562 167.890625 121.757812 168.023438 121.839844 168.28125 C 121.933594 168.53125 122.082031 168.902344 122.367188 169.34375 C 122.851562 170.101562 123.785156 171.140625 125.328125 171.753906 C 125.3125 171.816406 125.289062 171.882812 125.277344 171.949219 C 125.230469 172.132812 125.1875 172.558594 125.128906 173.074219 C 120.28125 170.984375 116.824219 168.664062 113.128906 165.816406 C 116.222656 169.480469 119.976562 172.417969 124.929688 174.589844 C 124.769531 175.578125 124.53125 176.476562 124.136719 176.582031 C 123.820312 176.667969 123.378906 176.074219 123.160156 175.90625 C 120.460938 173.835938 105.945312 165.8125 104.382812 157.914062 Z M 97.785156 139.304688 C 97.042969 134.410156 96 129.609375 97.042969 124.8125 C 98.898438 127.757812 102.070312 129.703125 105.546875 130.464844 C 105.613281 130.664062 112.050781 130.46875 113.203125 133.367188 C 114.570312 136.8125 111.253906 144.398438 116.464844 148.453125 C 115.527344 150.433594 111.933594 150.210938 110.179688 151.410156 C 108.253906 152.730469 106.957031 154.605469 105.085938 155.625 C 98.984375 156.347656 98.386719 143.269531 97.785156 139.304688 Z M 100.015625 109.046875 C 101.832031 104.554688 104.257812 100.324219 107.453125 96.667969 C 113.378906 89.882812 120.640625 85.171875 129.285156 82.757812 C 134.1875 92.613281 131.78125 91.21875 132.765625 95.839844 C 134.984375 106.25 149.039062 96.046875 153.261719 94.753906 C 158.410156 93.175781 163.242188 93.25 168.359375 93.289062 C 163.910156 97.507812 158.558594 100.144531 153.191406 103.132812 C 133.804688 113.925781 127.617188 121.382812 118.867188 125.964844 C 114.738281 128.125 109.773438 129.300781 105.25 128.3125 C 94.355469 125.929688 96.253906 118.332031 100.015625 109.046875 Z M 174.046875 81.261719 C 162.066406 80.179688 143.304688 86.15625 134.757812 95.070312 C 134.597656 94.335938 134.554688 93.542969 134.519531 92.753906 C 138.125 89.238281 141.703125 87.273438 145.699219 85.601562 C 141.667969 86.265625 137.9375 87.835938 134.402344 90.878906 C 134.347656 90.402344 134.351562 90.222656 134.101562 89.234375 C 135.4375 87.691406 136.375 86.847656 137.8125 85.503906 C 136.84375 85.648438 135.101562 86.417969 133.621094 87.710938 C 132.972656 85.996094 131.996094 84.378906 130.820312 82.984375 C 136.359375 83.394531 154.386719 67.355469 174.046875 81.261719 Z M 165.09375 151.695312 C 165.132812 151.84375 165.183594 151.984375 165.234375 152.128906 C 164.539062 151.480469 164.042969 150.875 163.089844 150.707031 C 162.75 150.648438 161.492188 150.40625 161.453125 151 C 161.53125 149.917969 161.855469 147.488281 163.488281 148.433594 C 164.761719 149.175781 164.746094 150.464844 165.09375 151.695312 Z M 198.8125 150.078125 C 198.855469 150.683594 198.855469 151.355469 198.957031 151.917969 C 198.835938 152.082031 198.734375 152.253906 198.621094 152.417969 C 198.464844 151.332031 197.3125 149.523438 196.425781 150.921875 C 196.554688 146.8125 198.675781 148.0625 198.8125 150.078125 Z M 239.308594 174.960938 C 239.253906 175.066406 239.195312 175.175781 239.140625 175.28125 C 239.132812 175.1875 239.113281 175.078125 239.097656 174.976562 L 239.15625 175.066406 C 239.210938 175.03125 239.253906 174.996094 239.308594 174.960938 Z M 228.339844 161.183594 C 228.867188 160.71875 229.382812 160.242188 229.898438 159.773438 C 232.023438 157.84375 234.128906 155.894531 236.292969 154.011719 C 237.835938 152.671875 239.464844 150.832031 241.203125 149.792969 C 242.621094 148.945312 244.96875 148.382812 246.375 149.140625 C 247.195312 149.585938 248.214844 150.972656 248.847656 151.605469 C 250.164062 152.917969 251.53125 154.191406 252.800781 155.550781 C 255.828125 158.808594 253.777344 161.539062 251.492188 164.359375 C 248.636719 167.886719 245.378906 170.980469 241.808594 173.769531 C 241.691406 173.644531 241.578125 173.519531 241.460938 173.390625 C 243.734375 171.570312 245.316406 169.746094 246.359375 168.351562 C 247.046875 167.433594 247.515625 166.6875 247.820312 166.179688 C 248.113281 165.664062 248.261719 165.394531 248.261719 165.394531 C 248.261719 165.394531 248.050781 165.617188 247.644531 166.046875 C 247.238281 166.472656 246.636719 167.105469 245.832031 167.886719 C 244.292969 169.375 242.003906 171.429688 238.824219 173.515625 C 238.738281 173.132812 238.632812 172.726562 238.507812 172.300781 C 241.125 169.585938 242.230469 167.550781 242.230469 167.550781 C 242.230469 167.550781 240.460938 168.515625 238.023438 170.753906 C 237.605469 169.53125 237.070312 168.230469 236.414062 166.957031 C 231.332031 157.160156 230.214844 163.144531 228.839844 164.953125 C 228.058594 164.378906 228.109375 163.515625 227.828125 162.679688 C 227.539062 161.808594 227.617188 161.824219 228.339844 161.183594 Z M 243.152344 130.078125 C 237.25 127.269531 231.621094 123.636719 225.753906 120.691406 C 211.273438 113.429688 207.144531 116.972656 190.34375 103.605469 C 196.070312 102.757812 201.242188 103.078125 206.882812 104.75 C 210.175781 105.722656 213.59375 106.921875 217.070312 106.933594 C 218.84375 106.941406 221.09375 106.582031 222.011719 104.871094 C 222.984375 103.0625 222.382812 100.835938 222.140625 98.9375 C 221.585938 94.640625 223.125 91.417969 225.441406 87.941406 C 225.488281 87.871094 225.511719 87.800781 225.535156 87.730469 C 236.167969 89.929688 245.488281 93.980469 252.878906 102.261719 C 257.199219 107.09375 262.539062 113.898438 261.601562 120.433594 C 258.460938 126.078125 249.269531 132.992188 243.152344 130.078125 Z M 202.242188 90.886719 C 203.21875 90.828125 204.667969 90.761719 206.519531 90.984375 C 208.359375 91.207031 210.609375 91.691406 213.03125 92.757812 C 215.386719 93.796875 217.921875 95.40625 220.128906 97.789062 C 220.152344 98.246094 220.179688 98.695312 220.238281 99.148438 C 220.238281 99.175781 220.242188 99.203125 220.25 99.234375 C 215.941406 95.621094 209.667969 93.605469 204.492188 92.84375 C 201.28125 92.371094 198.039062 92.332031 194.828125 92.773438 C 190.285156 93.394531 186.324219 95.800781 182.003906 93.683594 C 187.265625 88.753906 193.101562 85.761719 200.429688 85.175781 C 208.191406 84.558594 215.722656 86.453125 223.257812 88.007812 C 222.367188 88.996094 221.699219 90.121094 221.203125 91.320312 C 218.910156 90.523438 217.40625 90.480469 217.40625 90.480469 C 217.40625 90.480469 218.515625 91.542969 220.734375 92.640625 C 220.4375 93.652344 220.246094 94.695312 220.167969 95.757812 C 218.023438 93.789062 215.671875 92.46875 213.488281 91.640625 C 210.871094 90.648438 208.480469 90.332031 206.566406 90.28125 C 204.640625 90.238281 203.179688 90.484375 202.210938 90.671875 C 201.246094 90.898438 200.753906 91.042969 200.753906 91.042969 C 200.753906 91.042969 201.265625 90.988281 202.242188 90.886719 Z M 264.65625 133.425781 C 265.140625 142.703125 262.09375 149.839844 256.207031 157.191406 C 255.355469 155.082031 253.253906 153.246094 251.25 151.175781 C 249.722656 149.597656 248.46875 148.050781 247.183594 147.023438 C 249.105469 140.109375 245.699219 135.851562 247.90625 133.675781 C 248.597656 133 253.007812 131.683594 254.660156 130.75 C 261.207031 127.074219 263.988281 120.628906 264.65625 133.425781 Z M 267.59375 234.15625 C 267.734375 233.140625 268.089844 232.175781 268.84375 231.417969 C 269.988281 230.265625 270.886719 230.8125 272.113281 231.414062 C 273.609375 232.144531 273.777344 232.222656 279.144531 234.839844 C 279.148438 234.839844 287.890625 239.082031 287.890625 239.082031 C 288.492188 240.027344 287.839844 242.207031 287.050781 242.910156 C 286.144531 243.714844 284.808594 243.703125 283.679688 243.542969 C 281.023438 243.175781 278.621094 241.882812 276.171875 240.882812 C 273.957031 239.976562 271.386719 240.542969 269.15625 239.742188 C 267.292969 239.070312 267.171875 237.15625 267.59375 234.15625 Z M 289.464844 239.835938 C 289.523438 239.75 289.582031 239.667969 289.640625 239.597656 C 289.863281 239.515625 290.03125 239.339844 290.121094 239.136719 C 292.117188 237.738281 294.277344 241.070312 298.476562 245.972656 C 299.582031 247.261719 307.601562 255.316406 303.835938 256.917969 C 303.699219 256.980469 303.617188 257.074219 303.558594 257.179688 C 298.953125 258.78125 296.800781 254.277344 293.75 251.597656 C 291.6875 249.792969 291.328125 250.089844 289.554688 249.457031 C 289.226562 249.382812 288.898438 249.3125 288.570312 249.238281 C 286.65625 248.976562 286.304688 247.351562 287.472656 244.394531 C 289.042969 243.296875 289.875 241.652344 289.464844 239.835938 Z M 296.066406 273.386719 C 292.125 272.941406 296.578125 267.039062 297.359375 265.519531 C 298.386719 263.527344 298.054688 260.859375 299.078125 258.933594 C 301.109375 260.082031 303.058594 260.289062 304.566406 258.230469 C 304.976562 258.1875 305.332031 258.117188 305.632812 258.011719 C 306.609375 263.679688 300.171875 273.847656 296.066406 273.386719 Z M 294.425781 276.527344 C 293.613281 277.167969 292.753906 277.734375 291.878906 278.277344 C 292.457031 276.78125 293.042969 275.265625 293.457031 273.71875 C 293.78125 274.242188 294.28125 274.660156 295.019531 274.890625 C 295.359375 275 295.703125 275.050781 296.046875 275.0625 C 295.507812 275.558594 294.992188 276.082031 294.425781 276.527344 Z M 90.484375 217.355469 C 83.476562 215.898438 71.355469 216.160156 68.414062 208.054688 C 69.09375 206.933594 71.242188 204.632812 71.898438 204.101562 C 74.304688 202.15625 77.261719 207.082031 78.835938 208.546875 C 82.207031 211.699219 86.265625 213.75 90.742188 214.785156 C 90.578125 215.570312 90.589844 216.492188 90.753906 217.515625 C 90.683594 217.441406 90.601562 217.378906 90.484375 217.355469 Z M 58.203125 195.46875 C 46.949219 182.464844 52.414062 184.867188 55.34375 183.863281 C 54.054688 184.304688 58.726562 182.796875 57.632812 182.957031 C 62.136719 182.289062 61.664062 186.246094 62.902344 189.4375 C 64.765625 194.238281 67.550781 198.519531 71.015625 202.296875 C 70.886719 202.46875 70.746094 202.644531 70.566406 202.824219 C 70.039062 203.351562 69.253906 203.898438 68.550781 204.488281 C 65.035156 201.472656 61.285156 199.03125 58.203125 195.46875 Z M 46.347656 162.035156 C 47.339844 160.222656 47.691406 159.945312 49.671875 160.476562 C 50.679688 160.746094 51.601562 161.3125 52.335938 162.054688 C 54.503906 164.253906 55.378906 167.84375 56.242188 170.703125 C 56.707031 172.25 59 177.929688 58.179688 180.367188 C 55.371094 181.511719 54.964844 181.3125 52.773438 181.960938 C 49.464844 177.796875 43.863281 166.566406 46.347656 162.035156 Z M 46.917969 149.320312 C 46.917969 149.320312 46.933594 153.863281 49.082031 158.550781 C 47.539062 158.335938 46.230469 158.71875 45.277344 159.570312 C 45.285156 151.898438 46.917969 149.320312 46.917969 149.320312 Z M 259.4375 185.554688 C 261.300781 183.476562 263.472656 181.722656 265.652344 179.988281 C 267.050781 178.867188 268.273438 177.378906 269.972656 176.695312 C 271.960938 175.90625 273.679688 176.796875 275.234375 178.050781 C 276.457031 179.03125 276.628906 179.746094 276.246094 181.296875 C 275.566406 184.054688 272.964844 186.261719 271 188.144531 C 268.921875 190.132812 266.75 192.027344 264.417969 193.714844 C 259.785156 197.0625 254.660156 199.25 249.785156 202.078125 C 249.785156 202.066406 249.785156 202.058594 249.789062 202.046875 C 255.726562 197.210938 258.816406 193.855469 258.816406 193.855469 C 258.816406 193.855469 255.199219 195.957031 249.621094 200.308594 C 249.621094 200.285156 249.621094 200.265625 249.621094 200.246094 C 252.816406 195.589844 255.613281 189.824219 259.4375 185.554688 Z M 271.796875 165.207031 C 272.398438 162.292969 274.023438 160.070312 275.195312 157.484375 C 276.050781 158.023438 276.980469 158.253906 278.128906 158.007812 C 278.804688 157.863281 279.335938 157.578125 279.898438 157.214844 C 281.4375 156.226562 283.773438 152.761719 285.160156 158.6875 C 285.820312 161.527344 283.207031 167.253906 282.113281 169.691406 C 281.214844 171.695312 280.113281 173.65625 279.136719 175.597656 C 278.089844 177.675781 275.9375 176.890625 274.484375 175.78125 C 272.980469 174.632812 271.898438 173.328125 271.675781 171.386719 C 271.4375 169.324219 271.378906 167.25 271.796875 165.207031 Z M 279.410156 152.875 C 280.910156 148.941406 279.996094 144.445312 279.949219 140.359375 C 279.917969 137.621094 280.203125 134.191406 281.976562 132.113281 C 283.550781 130.261719 287.808594 129.292969 289.007812 132.046875 C 290.175781 134.730469 289.367188 137.132812 288.835938 139.824219 C 287.917969 144.515625 286.753906 149.007812 285.105469 153.492188 C 284.800781 153.300781 284.464844 153.136719 284.046875 153.054688 C 281.921875 152.636719 281.039062 154.007812 279.585938 155.140625 C 277.875 156.476562 279.171875 153.503906 279.410156 152.875 Z M 285.40625 116.582031 C 287.238281 118.515625 288.527344 120.828125 289.128906 123.511719 C 289.625 125.726562 289.417969 127.707031 289.113281 129.753906 C 288.707031 129.550781 288.230469 129.386719 287.660156 129.273438 C 286.710938 129.078125 285.816406 129.019531 284.984375 129.082031 C 286.519531 125.550781 286.015625 120.523438 285.40625 116.582031 Z M 329.988281 153.066406 C 329.898438 152.671875 329.277344 152.570312 329.097656 152.949219 C 327.128906 157.019531 325.546875 161.261719 324.28125 165.597656 C 323.714844 164.789062 323.054688 164.015625 322.296875 163.292969 C 322.105469 163.113281 321.726562 163.011719 321.5 163.191406 C 315.359375 167.929688 308.703125 176.804688 307.632812 184.832031 C 307.457031 184.828125 307.289062 185.027344 307.398438 185.21875 C 307.402344 185.226562 307.40625 185.234375 307.414062 185.242188 C 303.777344 187.421875 300.625 190.917969 297.679688 193.914062 C 294.925781 196.710938 292.042969 199.667969 289.84375 202.96875 C 289.285156 202.714844 288.6875 202.585938 288.027344 202.644531 C 285.542969 202.886719 282.621094 205.179688 280.480469 206.328125 C 277.566406 207.890625 274.265625 209.300781 271.707031 211.4375 C 269.949219 207.664062 268.222656 208.347656 264.117188 208.882812 C 260.976562 209.289062 251.136719 210.769531 247.316406 212.046875 C 249.386719 208.066406 249.882812 204.003906 249.675781 203.445312 C 258.078125 201.207031 269.203125 192.496094 273.910156 188.023438 C 279.832031 182.40625 280.433594 181.289062 278.335938 178.992188 C 278.328125 178.984375 281.742188 173.835938 282.023438 173.332031 C 283.132812 171.320312 284.09375 169.230469 284.863281 167.066406 C 285.621094 164.929688 286.191406 162.722656 286.503906 160.476562 C 286.644531 159.453125 286.890625 158.238281 286.71875 157.214844 C 286.546875 156.242188 286.105469 155.339844 286.285156 154.308594 C 286.398438 153.671875 286.914062 152.984375 287.160156 152.375 C 287.824219 150.730469 288.367188 149.039062 288.820312 147.324219 C 289.71875 143.941406 290.285156 140.480469 290.789062 137.023438 C 291.101562 134.867188 291.445312 132.757812 290.675781 131.25 C 292.96875 125.410156 289.363281 117.777344 284.875 114.121094 C 284.304688 113.664062 283.550781 114.097656 283.675781 114.820312 C 284.1875 117.839844 284.324219 120.863281 284.109375 123.917969 C 283.976562 125.78125 283.5 127.53125 283.5625 129.335938 C 281.566406 129.917969 280.097656 131.441406 279.390625 133.929688 C 278.496094 137.070312 278.296875 140.328125 278.351562 143.578125 C 278.414062 147.410156 279.308594 152.683594 276.246094 155.683594 C 275.605469 156.316406 274.773438 156.328125 274.03125 156.828125 C 273.25 157.355469 272.667969 158.160156 272.199219 158.964844 C 271.273438 160.550781 270.691406 162.367188 270.316406 164.160156 C 269.625 167.46875 269.65625 171.203125 271.023438 174.34375 C 270.9375 174.320312 270.847656 174.3125 270.746094 174.347656 C 263.144531 176.925781 252.285156 189.898438 249.832031 197.667969 C 249.363281 197.296875 248.84375 197.804688 248.300781 198.144531 C 251.542969 190.613281 249.507812 182.449219 248.164062 183.617188 C 247.480469 184.210938 246.800781 184.796875 246.128906 185.398438 C 246.144531 181.707031 245.105469 178.179688 242.976562 175.214844 C 246.832031 172.234375 256.503906 164.058594 256.597656 159.242188 C 260.609375 158.054688 273.117188 136.816406 264 122.28125 C 265.898438 116.035156 260.09375 107.425781 256.617188 103.113281 C 249.078125 93.761719 237.679688 86.515625 225.386719 86.378906 C 225.265625 86.265625 225.113281 86.175781 224.90625 86.125 C 209.484375 82.257812 189.457031 80.269531 180.976562 93.683594 C 180.617188 94.246094 182.226562 96.558594 185.433594 96.617188 C 189.453125 96.691406 193.421875 94.5625 197.507812 94.347656 C 201.714844 94.125 205.960938 94.753906 209.941406 96.128906 C 214.085938 97.558594 217.140625 100.027344 220.675781 102.308594 C 220.714844 103.574219 220.300781 104.597656 218.496094 105.070312 C 216.695312 105.542969 214.460938 104.957031 212.714844 104.5625 C 208.652344 103.660156 204.710938 102.246094 200.601562 101.546875 C 198.550781 101.195312 196.453125 101.015625 194.378906 101.226562 C 192.496094 101.410156 190.101562 101.796875 188.527344 102.882812 C 187.09375 103.867188 201.945312 113.859375 206.789062 115.726562 C 211.25 117.445312 215.792969 118.503906 220.164062 120.539062 C 224.265625 122.445312 228.1875 124.707031 232.171875 126.851562 C 236.335938 129.101562 240.363281 132.328125 244.808594 133.144531 C 244.695312 135.351562 245.285156 137.558594 245.429688 139.761719 C 245.566406 141.847656 245.355469 143.921875 245.390625 145.992188 C 240.804688 144.457031 229.617188 157.058594 226.699219 160.589844 C 224.140625 156.515625 220.898438 153.0625 218.179688 156.980469 C 217.082031 154.839844 213.511719 149.925781 211.46875 149.824219 C 209.886719 149.746094 207.253906 153.238281 206.734375 154.824219 C 205.65625 152.71875 203.886719 150.984375 201.945312 149.535156 C 201.351562 149.09375 200.480469 150.152344 199.945312 150.730469 C 200.238281 149.128906 199.839844 147.4375 198.375 146.917969 C 196.835938 146.378906 194.898438 147.726562 195.105469 150.121094 C 195.0625 150.550781 195.0625 150.988281 195.097656 151.421875 C 194.53125 150.753906 193.9375 150.105469 193.253906 149.503906 C 192.105469 148.492188 188.433594 153.605469 187.601562 154.886719 C 186.757812 153.429688 184.15625 150.0625 183.730469 150.066406 C 182 150.066406 179.234375 152.6875 178.285156 154.046875 C 177.402344 152.511719 176.371094 151.050781 175.347656 149.605469 C 175.15625 149.332031 174.78125 149.171875 174.464844 149.371094 C 171.824219 151.082031 169.589844 153.074219 167.53125 155.417969 C 167.425781 155.289062 167.3125 155.171875 167.199219 155.050781 C 166.769531 153.882812 166.695312 152.636719 166.523438 151.34375 C 166.117188 148.289062 164.398438 146.796875 162.972656 146.5625 C 161.773438 146.351562 160.488281 146.945312 159.847656 148.320312 C 159.308594 149.558594 159.5625 150.515625 159.726562 151.097656 C 159.804688 151.324219 159.878906 151.5 159.957031 151.65625 C 158.585938 152.871094 157.597656 154.101562 156.800781 155.914062 C 156.332031 156.96875 155.824219 157.980469 154.761719 157.054688 C 153.59375 156.035156 152.582031 155.042969 151.28125 154.125 C 151.222656 154.078125 151.15625 154.035156 151.082031 154.039062 C 151.007812 154.042969 150.949219 154.089844 150.890625 154.136719 C 148.867188 155.855469 147.480469 158.191406 146.765625 160.722656 C 146.234375 160.160156 145.6875 159.613281 145.132812 159.070312 C 144.425781 157.949219 143.574219 156.925781 142.835938 155.808594 C 142.441406 155.210938 141.6875 155.117188 141.15625 155.589844 C 138.9375 157.566406 136.730469 159.984375 135.007812 162.652344 C 124.035156 157.230469 123.738281 148.804688 118.46875 149.242188 C 118.5 148.625 118.640625 148.082031 118.28125 147.496094 C 117.019531 145.421875 115.113281 145.863281 115.394531 140.09375 C 115.546875 136.976562 116.476562 132.550781 113.4375 130.289062 C 124.203125 127.679688 127.792969 119.78125 151.835938 106.078125 C 152.863281 105.496094 175.480469 92.824219 171.667969 91.699219 C 163.789062 89.367188 153.410156 91.71875 146.15625 95.117188 C 143.84375 96.199219 140.839844 98.621094 138.1875 98.242188 C 135.804688 97.902344 135.746094 96.167969 137.566406 94.976562 C 139.328125 93.816406 141.089844 92.652344 142.890625 91.546875 C 146.503906 89.320312 150.277344 87.332031 154.316406 85.988281 C 161.691406 83.53125 168.804688 83.425781 176.445312 83.097656 C 178.960938 82.988281 172.003906 72.707031 155.609375 73.613281 C 150.136719 73.914062 144.050781 75.675781 136.453125 78.625 C 134.710938 79.300781 133.074219 80.230469 131.332031 80.875 C 129.273438 80.488281 116.4375 83.183594 105.714844 95.839844 C 91.722656 112.339844 96.199219 123.628906 96.199219 123.628906 C 93.332031 123.359375 94.890625 133.230469 94.988281 134.179688 C 96.585938 150.398438 98.503906 157.410156 103.195312 157.882812 C 102.441406 164.605469 114.6875 173.417969 120.214844 176.367188 C 120.09375 176.484375 119.988281 176.621094 119.933594 176.796875 C 118.800781 180.363281 118.566406 183.828125 119.183594 187.367188 C 118.484375 186.847656 117.75 186.375 116.925781 185.925781 C 116.390625 185.636719 115.785156 185.90625 115.597656 186.46875 C 114.820312 188.761719 114.410156 191.144531 114.320312 193.53125 C 109.585938 190.90625 105.28125 187.699219 101.574219 183.691406 C 99.027344 180.9375 96.855469 176.582031 93.21875 175.128906 C 94.195312 172.722656 89.546875 170.535156 88.503906 169.484375 C 86.523438 167.488281 84.988281 165.027344 84.089844 162.355469 C 83.441406 160.433594 83.433594 158.324219 82.679688 156.445312 C 81.976562 154.695312 80.621094 153.265625 78.90625 153.152344 C 82.066406 147.976562 76.273438 140.820312 76.234375 137.195312 C 76.195312 133.882812 77.117188 130.128906 73.601562 128.09375 C 72.820312 127.640625 71.855469 127.71875 71.617188 127.167969 C 69.390625 121.941406 69.347656 116.234375 69.824219 110.65625 C 69.878906 110.027344 69 109.882812 68.703125 110.351562 C 64.410156 117.078125 64.167969 125.457031 65.621094 128.394531 C 63.128906 129.015625 63.398438 130.636719 64.496094 132.828125 C 70.320312 144.421875 65.113281 151.464844 71.347656 154.621094 C 69.539062 156.050781 72.488281 175.125 80.269531 178.621094 C 75.722656 182.234375 99.890625 199.945312 112.738281 203.449219 C 112.9375 206.890625 114.816406 210.128906 117.277344 213.109375 C 117.179688 213.109375 117.101562 213.109375 117.082031 213.105469 C 113.402344 212.519531 109.644531 212.710938 105.929688 212.824219 C 102.304688 212.933594 99.226562 212.152344 95.6875 211.835938 C 93.625 211.652344 92.234375 212.171875 91.4375 213.203125 C 86.554688 212.105469 82.117188 209.789062 78.691406 206.089844 C 77.230469 204.511719 75.261719 200.3125 72.347656 201.25 C 61.417969 189.480469 64.613281 179.152344 59.472656 179.972656 C 60.21875 177.363281 58.355469 172.726562 57.867188 170.804688 C 56.667969 166.097656 55.269531 160.695312 50.710938 158.976562 C 50.710938 158.976562 48.992188 155.550781 48.347656 152.667969 C 47.933594 150.816406 47.96875 148.914062 47.527344 147.074219 C 47.46875 146.839844 47.167969 146.886719 47.09375 147.074219 C 46.042969 149.726562 44.628906 151.5 44.175781 154.425781 C 43.847656 156.515625 43.726562 158.707031 44.339844 160.761719 C 43.816406 161.714844 43.554688 162.9375 43.617188 164.355469 C 43.90625 170.804688 47.074219 177.589844 50.988281 182.699219 C 46.773438 185.320312 59.164062 201.582031 67.558594 205.449219 C 67.433594 205.601562 67.316406 205.757812 67.226562 205.921875 C 62.710938 213.832031 82.746094 220.136719 90.484375 218.46875 C 90.484375 218.46875 90.617188 222.765625 100.980469 222.207031 C 108.753906 221.785156 116.972656 222.542969 124.59375 220.507812 C 125.648438 221.492188 126.644531 222.429688 127.503906 223.308594 C 128.230469 224.050781 128.953125 224.804688 129.667969 225.558594 C 120.660156 227.921875 111.777344 229.496094 102.394531 229.65625 C 99.910156 229.699219 96.484375 229.292969 94.617188 231.394531 C 94.257812 231.796875 94.003906 232.230469 93.835938 232.679688 C 89.246094 227.398438 76.679688 241.441406 73.320312 246.289062 C 71.285156 245.105469 69.289062 245.261719 67.945312 248.714844 C 66.320312 252.898438 63.304688 255.425781 60.757812 258.96875 C 58.992188 261.421875 58.242188 263.933594 58.324219 264.503906 C 58.46875 265.503906 58.96875 266.265625 59.675781 266.839844 C 56.949219 269.386719 63.734375 275.582031 65.160156 277.4375 C 67.8125 280.894531 70.628906 285.667969 75.257812 286.324219 C 76.644531 287.695312 78.617188 288.539062 80.421875 289.09375 C 81.050781 289.285156 81.425781 288.492188 81.03125 288.046875 C 80.027344 286.925781 79.179688 285.699219 78.527344 284.339844 C 78.257812 283.78125 78.089844 283.15625 77.90625 282.535156 C 78.21875 281.207031 77.722656 279.644531 77.070312 278.300781 C 75.261719 274.558594 72.667969 270.015625 69.691406 266.816406 C 70.085938 266.574219 70.449219 266.316406 70.730469 266.023438 C 71.742188 264.972656 71.75 263.761719 72.3125 262.535156 C 73.214844 260.585938 74.285156 259.265625 76.074219 258.222656 C 76.65625 257.882812 77.273438 257.585938 77.785156 257.136719 C 78.910156 256.140625 79.539062 254.941406 79.378906 253.734375 C 79.636719 253.480469 79.722656 253.0625 79.492188 252.671875 C 85.195312 251.074219 90.480469 248.339844 94.914062 244.375 C 95.84375 243.542969 97.339844 242.433594 97.785156 241.070312 C 101.234375 242.9375 106.949219 241.269531 110.246094 240.585938 C 119.167969 238.726562 127.953125 236.070312 136.414062 232.675781 C 136.429688 232.671875 136.4375 232.660156 136.453125 232.652344 C 138.359375 234.5625 140.316406 236.40625 142.386719 238.121094 C 132.519531 240.460938 122.621094 245.171875 113.597656 249.675781 C 111.117188 250.917969 99.335938 255.710938 103.652344 260.492188 C 103.726562 260.582031 103.828125 260.648438 103.914062 260.730469 C 99.007812 266.035156 102.84375 274.367188 102.894531 280.574219 C 102.910156 282.597656 102.453125 285.085938 104.222656 286.554688 C 104.71875 286.96875 105.304688 287.214844 105.929688 287.367188 C 103.246094 291.417969 111.359375 295.414062 113.816406 297.359375 C 116.789062 299.710938 121.527344 305.164062 125.785156 303.757812 C 130.960938 306.03125 136.476562 306.398438 141.933594 304.878906 C 142.257812 304.785156 142.351562 304.296875 142.03125 304.132812 C 138.421875 302.273438 133.925781 300.324219 129.824219 299.695312 C 130.003906 297.839844 128.882812 296.082031 127.515625 294.828125 C 126.28125 293.691406 124.773438 292.9375 123.449219 291.925781 C 121.449219 290.394531 120.648438 288.320312 119.074219 286.453125 C 118.042969 285.234375 116.847656 284.460938 115.492188 284.453125 C 116.4375 283.238281 116.753906 281.625 116.269531 279.492188 C 115.335938 275.386719 115.542969 271.324219 115.238281 267.160156 C 115.109375 265.367188 114.828125 263.828125 113.761719 262.636719 C 115.09375 262.269531 116.269531 261.558594 117.800781 260.613281 C 127.769531 254.460938 138.128906 248.875 148.238281 242.949219 C 148.71875 242.664062 148.152344 242.324219 149.386719 243.027344 C 174.761719 257.457031 203.132812 253.03125 213.132812 243.917969 C 213.484375 243.597656 213.832031 243.28125 214.179688 242.960938 C 219.058594 244.972656 223.941406 246.570312 228.46875 249.441406 C 233.144531 252.40625 236.625 256.507812 240.945312 259.867188 C 242.191406 260.835938 244.066406 261.765625 246.09375 262.355469 C 245.277344 262.800781 245.222656 263.664062 245.316406 264.804688 C 245.488281 266.972656 247.011719 269.035156 247.414062 271.210938 C 247.929688 274.015625 247.699219 276.917969 246.871094 279.632812 C 246.519531 280.777344 246.046875 281.957031 246.160156 283.0625 C 246.09375 283.105469 246.035156 283.164062 245.988281 283.242188 C 243.851562 286.550781 241.867188 289.710938 238.621094 292.085938 C 237.007812 293.277344 233.929688 294.03125 232.824219 295.753906 C 232.257812 296.636719 232.363281 297.828125 232.808594 299.050781 C 229.160156 299.925781 225.585938 301.949219 222.019531 303.109375 C 221.421875 303.304688 221.375 304.199219 222.019531 304.375 C 226.582031 305.609375 231.945312 305.917969 236.457031 304.1875 C 236.464844 304.191406 236.476562 304.203125 236.488281 304.210938 C 240.570312 307.359375 245.128906 301.230469 247.769531 298.804688 C 251.324219 295.542969 256.269531 291.703125 255.800781 286.5625 C 256.914062 286.882812 257.507812 286.371094 257.957031 285.304688 C 258.425781 284.191406 258.132812 282.449219 258.25 281.253906 C 258.476562 278.894531 258.96875 276.566406 259.269531 274.21875 C 259.902344 269.351562 260.054688 263.003906 256.035156 259.511719 C 256.207031 259.046875 256.335938 258.535156 256.40625 257.957031 C 256.410156 257.945312 256.40625 257.933594 256.40625 257.921875 C 257.53125 251.894531 246.96875 247.476562 242.988281 245.394531 C 236.34375 241.914062 228.109375 237.84375 220.390625 237.273438 C 221.128906 236.613281 221.867188 235.960938 222.617188 235.316406 C 227.769531 235.984375 232.875 235.894531 238.035156 237.101562 C 251.015625 240.136719 262.621094 244.394531 266.53125 240.910156 C 266.804688 241.105469 267.113281 241.277344 267.460938 241.410156 C 268.855469 241.949219 270.414062 241.457031 271.84375 241.542969 C 274.691406 241.726562 277.039062 243.390625 279.601562 244.421875 C 281.050781 245.007812 282.664062 245.457031 284.21875 245.417969 C 283.9375 246.0625 283.839844 246.832031 284.023438 247.671875 C 284.625 250.421875 287.375 250.558594 289.574219 251.269531 C 291.488281 251.886719 294.828125 256.054688 298.109375 258.324219 C 297.652344 258.820312 297.351562 259.460938 297.140625 260.316406 C 296.886719 261.363281 296.890625 262.464844 296.570312 263.496094 C 296.121094 264.957031 295.097656 266.058594 294.308594 267.324219 C 293.515625 268.589844 292.742188 270.777344 293.019531 272.511719 C 291.71875 274.746094 290.902344 277.300781 289.925781 279.675781 C 289.742188 280.121094 290.300781 280.6875 290.75 280.5 C 292.308594 279.84375 293.746094 278.957031 295.054688 277.890625 C 296.160156 276.992188 297.421875 275.996094 298.035156 274.679688 C 303.148438 272.667969 309.199219 262.066406 306.988281 256.507812 C 307.574219 252.871094 299.640625 244.789062 298.679688 243.667969 C 296.964844 241.648438 293.304688 235.167969 289.382812 238.019531 C 285.839844 236.144531 282.152344 234.519531 278.53125 232.796875 C 275.859375 231.527344 271.78125 228.535156 268.695312 228.65625 C 266.902344 228.726562 265.8125 229.84375 265.550781 231.160156 C 263.683594 229.316406 260.898438 227.941406 259.054688 227.59375 C 254.734375 226.773438 250.113281 226.878906 245.738281 226.804688 C 241.613281 226.738281 237.382812 226.644531 233.246094 227.089844 C 235.539062 225.335938 237.863281 223.425781 240.027344 221.355469 C 241.933594 222.023438 243.714844 221.644531 245.796875 221.488281 C 246.75 221.417969 266.371094 219.945312 270.105469 219.617188 C 271.050781 219.535156 273.523438 220.164062 273.238281 216.667969 C 279.207031 217.617188 296.902344 216.011719 294.726562 210.199219 C 294.789062 210.191406 294.847656 210.179688 294.90625 210.15625 C 300.445312 207.539062 305.535156 203.238281 310.082031 199.1875 C 312.316406 197.195312 317.351562 193.753906 315.503906 190.210938 C 317.859375 188.484375 319.71875 185.835938 321.363281 183.539062 C 323.558594 180.464844 326.027344 176.820312 326.726562 173.050781 C 326.777344 172.792969 326.648438 172.605469 326.472656 172.519531 C 326.472656 172.167969 326.457031 171.820312 326.425781 171.476562 C 326.492188 171.867188 327.109375 172.011719 327.363281 171.628906 C 330.851562 166.332031 331.363281 159.105469 329.988281 153.066406 " fill-opacity="1" fill-rule="nonzero"/></g></svg>