<svg xmlns="http://www.w3.org/2000/svg" xmlns:xlink="http://www.w3.org/1999/xlink" width="500" zoomAndPan="magnify" viewBox="0 0 375 374.999991" height="500" preserveAspectRatio="xMidYMid meet" version="1.0"><defs><clipPath id="fabac534bf"><path d="M 187.5 0 C 83.945312 0 0 83.945312 0 187.5 C 0 291.054688 83.945312 375 187.5 375 C 291.054688 375 375 291.054688 375 187.5 C 375 83.945312 291.054688 0 187.5 0 Z M 187.5 0 " clip-rule="nonzero"/></clipPath><clipPath id="2323834369"><path d="M 45 103 L 337 103 L 337 273.695312 L 45 273.695312 Z M 45 103 " clip-rule="nonzero"/></clipPath></defs><rect x="-37.5" width="450" fill="#ffffff" y="-37.499999" height="449.999989" fill-opacity="1"/><rect x="-37.5" width="450" fill="#ffffff" y="-37.499999" height="449.999989" fill-opacity="1"/><g clip-path="url(#fabac534bf)"><rect x="-37.5" width="450" fill="#58a39d" y="-37.499999" height="449.999989" fill-opacity="1"/></g><path fill="#ffffff" d="M 316.429688 212.285156 C 317.78125 212.285156 318.871094 211.191406 318.871094 209.84375 C 318.871094 208.492188 317.78125 207.398438 316.429688 207.398438 C 315.078125 207.398438 313.984375 208.492188 313.984375 209.84375 C 313.984375 211.191406 315.078125 212.285156 316.429688 212.285156 " fill-opacity="1" fill-rule="nonzero"/><g clip-path="url(#2323834369)"><path fill="#ffffff" d="M 320.902344 240.832031 C 320.714844 240.832031 320.527344 240.824219 320.339844 240.824219 C 321.324219 238.292969 323.003906 236.351562 324.957031 235.621094 C 326.703125 234.960938 328.539062 235.28125 330.433594 236.566406 C 330.359375 236.722656 330.28125 236.882812 330.199219 237.046875 C 329.726562 237.984375 328.304688 240.832031 320.902344 240.832031 Z M 296.039062 233.414062 C 294.777344 232.636719 293.34375 231.757812 291.660156 231.324219 C 289.664062 230.808594 287.679688 231.007812 285.929688 231.183594 C 285.628906 231.214844 285.328125 231.246094 285.027344 231.273438 C 279.699219 231.742188 274.136719 230.503906 268.929688 227.691406 C 264.054688 225.058594 259.589844 221.136719 256.019531 216.339844 C 254.894531 212.679688 254.007812 209.167969 253.378906 205.851562 C 253.144531 204.621094 251.949219 203.808594 250.71875 204.042969 C 249.484375 204.28125 248.671875 205.46875 248.90625 206.703125 C 249.882812 211.835938 251.429688 217.402344 253.507812 223.234375 C 258.046875 235.992188 264.851562 249.28125 272.175781 259.695312 C 273.730469 261.90625 276.160156 263.257812 278.851562 263.417969 L 285.722656 263.964844 C 287.90625 264.144531 289.621094 266.003906 289.621094 268.191406 C 289.621094 268.6875 289.21875 269.085938 288.726562 269.085938 L 261.050781 269.085938 C 259.453125 269.085938 258.003906 268.203125 257.273438 266.78125 C 252.082031 256.664062 244.398438 246.191406 234.4375 235.65625 C 226.09375 226.832031 216.347656 218.207031 206.246094 210.710938 C 202.859375 208.195312 187.53125 208.535156 179.007812 209.132812 C 170.21875 209.746094 153.925781 211.527344 139.511719 216.597656 C 141.949219 210.09375 144.417969 203.371094 143.941406 196.164062 C 143.855469 194.914062 142.773438 193.964844 141.519531 194.042969 C 140.265625 194.128906 139.316406 195.214844 139.398438 196.464844 C 139.820312 202.824219 137.535156 208.910156 135.117188 215.351562 C 134.59375 216.75 134.050781 218.195312 133.542969 219.628906 C 132.277344 223.203125 130.933594 227.472656 130.539062 232.050781 C 129.703125 241.804688 132.226562 251.6875 137.847656 260.628906 C 138.769531 262.09375 140.351562 263.054688 142.082031 263.195312 L 151.449219 263.964844 C 153.636719 264.144531 155.347656 266.003906 155.347656 268.191406 C 155.347656 268.6875 154.945312 269.085938 154.453125 269.085938 L 127.214844 269.085938 C 125.558594 269.085938 124.046875 268.121094 123.359375 266.625 C 119.785156 258.839844 115.359375 249.816406 109.617188 241.9375 C 106.8125 238.085938 103.875 234.761719 100.777344 231.925781 C 100.773438 231.917969 100.765625 231.914062 100.761719 231.910156 C 96.976562 228.449219 92.949219 225.714844 88.609375 223.667969 C 84.394531 221.679688 79.925781 220.382812 75.605469 219.132812 C 72.734375 218.300781 69.773438 217.445312 66.972656 216.402344 C 65.457031 215.835938 63.8125 215.136719 62.171875 214.28125 C 61.8125 213.851562 61.300781 213.566406 60.738281 213.492188 C 56.839844 211.226562 53.140625 208.039062 51.3125 203.644531 C 50.011719 200.511719 49.617188 196.660156 50.113281 191.871094 C 51.765625 175.871094 58.277344 153.40625 67.085938 143.292969 C 75.089844 134.101562 84.890625 126.542969 96.21875 120.8125 C 106.800781 115.460938 118.730469 111.691406 131.683594 109.613281 C 155.425781 105.800781 182.6875 107.832031 208.449219 115.332031 C 219.921875 118.671875 227.613281 122.753906 235.761719 127.078125 C 242.882812 130.855469 250.230469 134.753906 260.269531 138.117188 C 259.289062 141.21875 258.78125 144.523438 258.78125 147.863281 C 258.78125 149.117188 259.796875 150.136719 261.054688 150.136719 C 262.3125 150.136719 263.332031 149.121094 263.332031 147.863281 C 263.332031 143.949219 264.121094 140.476562 265.289062 137.582031 C 265.292969 137.578125 265.292969 137.578125 265.292969 137.574219 C 266.535156 134.5 268.207031 132.078125 269.824219 130.472656 C 271.324219 128.984375 272.371094 128.609375 272.667969 128.566406 C 273.238281 128.84375 274.765625 130.257812 276.621094 133.15625 C 277.050781 133.828125 277.496094 134.578125 277.953125 135.414062 C 281.191406 141.332031 283.042969 148.097656 283.042969 153.976562 C 283.042969 155.234375 284.058594 156.25 285.316406 156.25 C 286.578125 156.25 287.59375 155.234375 287.59375 153.976562 C 287.597656 144.914062 284.058594 137.089844 281.945312 133.230469 C 281.761719 132.894531 281.496094 132.417969 281.164062 131.863281 C 285.039062 125.953125 287.601562 124.726562 288.445312 124.9375 C 290.589844 125.480469 299.257812 133.710938 299.253906 146.464844 C 299.253906 146.914062 299.382812 147.351562 299.636719 147.726562 C 303.042969 152.832031 306.433594 157.425781 309.714844 161.863281 C 316.207031 170.652344 322.339844 178.953125 327.464844 189.773438 C 329.253906 193.558594 329.789062 203.394531 330.175781 210.574219 C 330.339844 213.605469 330.480469 216.226562 330.691406 218.09375 C 330.957031 220.433594 331.234375 222.355469 331.484375 224.054688 C 332.003906 227.640625 332.324219 229.855469 331.9375 232.15625 C 329.121094 230.601562 326.132812 230.3125 323.355469 231.359375 C 319.796875 232.699219 316.953125 236.117188 315.632812 240.5 C 312.886719 240.15625 310.144531 239.554688 307.433594 238.695312 C 307.421875 238.671875 307.410156 238.648438 307.394531 238.625 C 305.53125 235.929688 303.933594 233.039062 302.644531 230.03125 C 302.148438 228.878906 300.808594 228.339844 299.65625 228.835938 C 298.5 229.332031 297.964844 230.671875 298.460938 231.824219 C 299.042969 233.1875 299.6875 234.523438 300.382812 235.832031 C 299.070312 235.179688 297.769531 234.472656 296.496094 233.695312 Z M 202.59375 247 L 202.25 247.222656 C 197.894531 250.054688 194.132812 252.503906 191.210938 257.480469 C 190.816406 258.160156 190.796875 258.992188 191.15625 259.679688 C 191.519531 260.375 192.210938 260.835938 192.992188 260.902344 L 202.699219 261.695312 C 204.886719 261.875 206.597656 263.730469 206.597656 265.925781 C 206.597656 266.417969 206.191406 266.820312 205.699219 266.820312 L 172.226562 266.820312 C 171.988281 266.820312 171.738281 266.71875 171.523438 266.53125 C 170.078125 265.269531 170.894531 261.886719 171.835938 259.265625 C 173.289062 255.230469 175.917969 250.488281 178.238281 246.304688 C 180.628906 241.988281 182.695312 238.261719 183.261719 235.746094 C 184.59375 229.800781 185.3125 220.667969 183.265625 213.4375 C 195.144531 212.859375 202.34375 213.71875 203.5625 214.386719 C 208.910156 218.355469 213.738281 222.292969 218.101562 226.140625 C 214.992188 236 210.769531 241.671875 202.59375 247 Z M 72.523438 256.34375 C 71.753906 256.898438 71.40625 257.871094 71.652344 258.785156 C 71.898438 259.703125 72.6875 260.367188 73.632812 260.457031 L 86.644531 261.695312 C 88.828125 261.875 90.539062 263.730469 90.539062 265.925781 C 90.539062 266.417969 90.136719 266.820312 89.644531 266.820312 L 59.09375 266.820312 C 58.722656 266.820312 58.390625 266.613281 58.214844 266.289062 C 55.925781 261.917969 57.84375 257.238281 59.535156 253.109375 C 60.058594 251.832031 60.550781 250.628906 60.902344 249.484375 C 63.878906 239.757812 64.714844 229.824219 63.414062 219.882812 C 64.085938 220.164062 64.746094 220.425781 65.382812 220.664062 C 68.34375 221.765625 71.390625 222.648438 74.335938 223.5 C 78.679688 224.761719 82.78125 225.945312 86.667969 227.78125 C 90.1875 229.445312 93.367188 231.558594 96.261719 234 C 89.792969 243.980469 82.820312 248.976562 72.523438 256.34375 Z M 335.988281 223.40625 C 335.742188 221.734375 335.472656 219.847656 335.214844 217.582031 C 335.023438 215.847656 334.882812 213.292969 334.722656 210.328125 C 334.289062 202.351562 333.75 192.421875 331.578125 187.832031 C 326.265625 176.605469 320.003906 168.132812 313.375 159.160156 C 310.25 154.929688 307.019531 150.558594 303.796875 145.761719 C 303.636719 138.089844 300.808594 132.203125 298.425781 128.574219 C 295.6875 124.410156 292.125 121.175781 289.558594 120.527344 C 286.144531 119.667969 282.472656 122.0625 278.394531 127.839844 C 276.988281 126.09375 275.347656 124.542969 273.75 124.136719 C 272.097656 123.71875 270.136719 124.347656 268.082031 125.945312 C 265.757812 127.757812 263.597656 130.566406 261.964844 133.886719 C 252.140625 130.621094 244.90625 126.78125 237.898438 123.058594 C 229.90625 118.816406 221.640625 114.433594 209.722656 110.964844 C 183.328125 103.277344 155.355469 101.199219 130.960938 105.121094 C 117.546875 107.273438 105.164062 111.1875 94.164062 116.75 C 82.308594 122.746094 72.042969 130.667969 63.652344 140.304688 C 53.007812 152.53125 47.015625 177.5625 45.585938 191.40625 C 45.011719 196.964844 45.511719 201.539062 47.109375 205.390625 C 49.382812 210.863281 53.816406 214.71875 58.417969 217.40625 C 60.261719 227.71875 59.640625 238.058594 56.550781 248.152344 C 56.261719 249.097656 55.804688 250.207031 55.324219 251.382812 C 53.460938 255.929688 50.910156 262.152344 54.183594 268.398438 C 55.144531 270.230469 57.027344 271.371094 59.09375 271.371094 L 89.644531 271.371094 C 91.324219 271.371094 92.832031 270.605469 93.832031 269.402344 C 94.089844 269.613281 94.3125 269.867188 94.484375 270.144531 C 94.914062 270.847656 95.664062 271.234375 96.429688 271.234375 C 96.835938 271.234375 97.242188 271.125 97.613281 270.902344 C 98.6875 270.246094 99.023438 268.84375 98.371094 267.773438 C 97.578125 266.480469 96.398438 265.449219 95.019531 264.816406 C 94.5 260.769531 91.171875 257.503906 87.042969 257.164062 L 80.085938 256.503906 C 87.820312 250.839844 93.96875 245.679688 99.648438 237.136719 C 108.296875 245.863281 114.210938 257.601562 119.222656 268.519531 C 120.648438 271.628906 123.785156 273.636719 127.214844 273.636719 L 154.453125 273.636719 C 156.136719 273.636719 157.648438 272.867188 158.648438 271.660156 C 158.863281 271.851562 159.054688 272.074219 159.199219 272.316406 C 159.628906 273.019531 160.378906 273.40625 161.144531 273.40625 C 161.550781 273.40625 161.960938 273.296875 162.328125 273.070312 C 163.402344 272.414062 163.742188 271.015625 163.085938 269.941406 C 162.308594 268.679688 161.160156 267.664062 159.820312 267.03125 C 159.277344 263.007812 155.960938 259.769531 151.824219 259.429688 L 142.457031 258.664062 C 142.144531 258.636719 141.863281 258.464844 141.699219 258.207031 C 136.613281 250.109375 134.320312 241.203125 135.074219 232.441406 C 135.390625 228.773438 136.429688 225.222656 137.488281 222.144531 C 137.667969 222.117188 137.847656 222.074219 138.027344 222.003906 C 152.296875 216.363281 169.496094 214.398438 178.59375 213.726562 C 180.636719 219.820312 180.195312 228.617188 178.820312 234.75 C 178.398438 236.628906 176.386719 240.257812 174.257812 244.097656 C 168.847656 253.855469 162.71875 264.910156 168.539062 269.964844 C 169.582031 270.871094 170.890625 271.371094 172.226562 271.371094 L 205.699219 271.371094 C 207.328125 271.371094 208.789062 270.648438 209.789062 269.511719 C 210.011719 269.710938 210.210938 269.941406 210.367188 270.191406 C 210.792969 270.894531 211.542969 271.285156 212.308594 271.285156 C 212.714844 271.285156 213.125 271.175781 213.496094 270.945312 C 214.566406 270.292969 214.90625 268.894531 214.25 267.820312 C 213.496094 266.585938 212.390625 265.597656 211.089844 264.960938 C 210.632812 260.847656 207.277344 257.507812 203.070312 257.160156 L 197.398438 256.695312 C 199.378906 254.515625 201.765625 252.964844 204.730469 251.035156 L 205.078125 250.808594 C 213.570312 245.277344 218.402344 239.164062 221.789062 229.472656 C 240.722656 247.007812 249.796875 262.175781 253.226562 268.855469 C 254.738281 271.808594 257.738281 273.636719 261.050781 273.636719 L 288.726562 273.636719 C 290.34375 273.636719 291.796875 272.925781 292.796875 271.796875 C 293.101562 272.027344 293.363281 272.300781 293.554688 272.617188 C 293.984375 273.324219 294.730469 273.710938 295.496094 273.710938 C 295.902344 273.710938 296.3125 273.601562 296.679688 273.375 C 297.757812 272.71875 298.09375 271.320312 297.4375 270.246094 C 296.652344 268.964844 295.488281 267.945312 294.125 267.308594 C 293.703125 263.160156 290.328125 259.777344 286.089844 259.429688 L 279.1875 258.878906 C 279.171875 258.878906 279.15625 258.878906 279.136719 258.878906 C 277.832031 258.804688 276.652344 258.148438 275.902344 257.082031 C 269.792969 248.394531 264.058594 237.640625 259.769531 226.917969 C 261.972656 228.765625 264.320312 230.378906 266.765625 231.699219 C 272.757812 234.933594 279.210938 236.351562 285.429688 235.804688 C 285.75 235.777344 286.066406 235.742188 286.386719 235.710938 C 287.890625 235.558594 289.308594 235.414062 290.523438 235.726562 C 291.542969 235.992188 292.566406 236.621094 293.652344 237.289062 L 294.128906 237.582031 C 302.519531 242.6875 311.777344 245.382812 320.902344 245.382812 C 327.679688 245.382812 332.175781 243.261719 334.265625 239.082031 C 337.367188 232.886719 336.875 229.515625 335.988281 223.40625 " fill-opacity="1" fill-rule="nonzero"/></g></svg>