<?xml version="1.0" encoding="UTF-8"?>
<svg width="144px" height="144px" viewBox="0 0 144 144" version="1.1" xmlns="http://www.w3.org/2000/svg" xmlns:xlink="http://www.w3.org/1999/xlink">
    <title>browse/terrestrial</title>
    <defs>
        <circle id="path-1" cx="71.5" cy="71.5" r="71.5"></circle>
    </defs>
    <g id="Symbols" stroke="none" stroke-width="1" fill="none" fill-rule="evenodd">
        <g id="browse/terrestrial">
            <mask id="mask-2" fill="white">
                <use xlink:href="#path-1"></use>
            </mask>
            <use id="Mask" fill="#D8D8D8" xlink:href="#path-1"></use>
            <g id="WHEAT" mask="url(#mask-2)" fill="#A2C36E">
                <g transform="translate(-15.428571, 0.000000)" id="Rectangle">
                    <rect x="0" y="0" width="164.571429" height="144.160377"></rect>
                </g>
            </g>
            <g id="icons/agricultural" mask="url(#mask-2)" stroke="#FFFFFF" stroke-linecap="round" stroke-linejoin="round" stroke-width="2.5">
                <g transform="translate(15.745000, 40.925000)" id="Stroke-1">
                    <path d="M66.634153,4.87490884 C66.634153,4.87490884 64.6147142,1.34031058 62.5946951,4.87490884 C60.574676,8.4095071 57.7138043,17.6670093 58.3869505,20.527881 C59.0600968,23.389333 60.8033136,20.0636422 60.4046485,18.4666607 C60.0054031,16.8702594 57.8101338,16.0717687 55.8139069,16.138503 C53.8182603,16.2052373 52.0889708,17.0698821 52.0222364,18.865906 C51.9555021,20.6625102 54.4739977,23.9887813 56.9733434,24.1216697 C59.4732694,24.2545581 63.6641852,22.9906679 69.6517053,17.2695048 C75.6386451,11.5483418 85.2286584,5.36468079 98.2534585,1.19349506 C111.278259,-2.97711037 114.205284,4.77915958 111.570729,9.16911785 C108.936754,13.5596564 101.472955,13.267186 102.204711,20.2916995 C102.936468,27.316213 103.448291,34.3407265 97.5217021,37.6339206 C91.5945331,40.9265344 75.86206,37.3408699 71.7645722,34.6337773 C67.6670844,31.9261044 68.4719584,28.7797259 74.4722451,31.4137008 C80.4719514,34.0482561 85.8872972,38.8775003 86.10665,47.6585775 C86.3260029,56.4390743 85.5942464,60.9758481 81.2037079,60.61026 C76.8137496,60.2440917 75.2040015,61.5613693 74.9109508,66.3174959 C74.6184803,71.0736226 72.6425639,78.4643044 68.5450761,75.9765647 C64.4475882,73.4882447 58.8860073,43.0486861 58.9597052,31.194348 C58.9597052,31.194348 59.0328228,62.0731926 56.2270795,61.5613693 C53.4213362,61.0489657 53.4944538,31.194348 53.4944538,31.194348 C53.5675714,43.0486861 48.0065707,73.4882447 43.9085026,75.9765647 C39.8110148,78.4643044 37.8350983,71.0736226 37.5426279,66.3174959 C37.2495771,61.5613693 35.639829,60.2440917 31.2498708,60.61026 C26.8593322,60.9758481 26.1275758,56.4390743 26.3469286,47.6585775 C26.5668618,38.8775003 31.9816272,34.0482561 37.9813336,31.4137008 C43.9816202,28.7797259 44.7864942,31.9261044 40.6890064,34.6337773 C36.5915186,37.3408699 20.8590456,40.9265344 14.9318765,37.6339206 C9.0052878,34.3407265 9.51711109,27.316213 10.2488675,20.2916995 C10.9806239,13.267186 3.51740474,13.5596564 0.882849481,9.16911785 C-1.75112548,4.77915958 1.17531993,-2.97711037 14.2001201,1.19349506 C27.2249203,5.36468079 36.8149335,11.5483418 42.8024536,17.2695048 C48.7893934,22.9906679 52.9803093,24.2545581 55.4802353,24.1216697 C57.979581,23.9887813 60.4980765,20.6625102 60.4313422,18.865906 C60.3651882,17.0698821 58.6353183,16.2052373 56.6396717,16.138503 C54.6440251,16.0717687 52.4481755,16.8702594 52.0495105,18.4666607 C51.6502651,20.0636422 53.3934818,23.389333 54.0666281,20.527881 C54.7403547,17.6670093 51.8789027,8.4095071 49.8588836,4.87490884 C47.8394447,1.34031058 45.8194256,4.87490884 45.8194256,4.87490884"></path>
                </g>
            </g>
        </g>
    </g>
</svg>