<svg xmlns="http://www.w3.org/2000/svg" xmlns:xlink="http://www.w3.org/1999/xlink" width="500" zoomAndPan="magnify" viewBox="0 0 375 374.999991" height="500" preserveAspectRatio="xMidYMid meet" version="1.0"><defs><clipPath id="d0551a3913"><path d="M 187.5 0 C 83.945312 0 0 83.945312 0 187.5 C 0 291.054688 83.945312 375 187.5 375 C 291.054688 375 375 291.054688 375 187.5 C 375 83.945312 291.054688 0 187.5 0 Z M 187.5 0 " clip-rule="nonzero"/></clipPath></defs><g clip-path="url(#d0551a3913)"><rect x="-37.5" width="450" fill="#233c4b" y="-37.499999" height="449.999989" fill-opacity="1"/></g><path fill="#fdfdfe" d="M 317.855469 200.574219 L 187.90625 70.628906 C 183.71875 66.441406 177.929688 64.257812 172.023438 64.664062 L 87.707031 70.277344 C 77.4375 70.972656 69.265625 79.140625 68.570312 89.414062 L 62.957031 173.726562 C 62.554688 179.632812 64.734375 185.421875 68.925781 189.609375 L 198.871094 319.558594 C 206.894531 327.582031 219.898438 327.574219 227.910156 319.5625 L 317.855469 229.617188 C 325.871094 221.601562 325.878906 208.601562 317.855469 200.574219 Z M 174.730469 83.804688 L 304.679688 213.75 C 305.417969 214.492188 305.410156 215.699219 304.675781 216.433594 C 304.664062 216.445312 214.738281 306.371094 214.738281 306.371094 C 213.992188 307.117188 212.789062 307.125 212.046875 306.382812 C 212.046875 306.382812 82.097656 176.433594 82.097656 176.433594 C 81.710938 176.046875 81.515625 175.519531 81.554688 174.96875 L 87.175781 90.648438 C 87.242188 89.699219 87.996094 88.945312 88.941406 88.878906 L 173.265625 83.257812 C 173.816406 83.21875 174.34375 83.414062 174.730469 83.804688 Z M 174.730469 83.804688 " fill-opacity="1" fill-rule="evenodd"/><path fill="#fdfdfe" d="M 123.5 101.90625 C 110.636719 101.90625 100.199219 112.339844 100.199219 125.203125 C 100.199219 138.066406 110.636719 148.5 123.5 148.5 C 136.359375 148.5 146.796875 138.066406 146.796875 125.203125 C 146.796875 112.339844 136.359375 101.90625 123.5 101.90625 Z M 123.5 120.539062 C 126.070312 120.539062 128.160156 122.628906 128.160156 125.203125 C 128.160156 127.773438 126.070312 129.867188 123.5 129.867188 C 120.925781 129.867188 118.835938 127.773438 118.835938 125.203125 C 118.835938 122.628906 120.925781 120.539062 123.5 120.539062 Z M 123.5 120.539062 " fill-opacity="1" fill-rule="evenodd"/></svg>