<svg xmlns="http://www.w3.org/2000/svg" xmlns:xlink="http://www.w3.org/1999/xlink" width="500" zoomAndPan="magnify" viewBox="0 0 375 374.999991" height="500" preserveAspectRatio="xMidYMid meet" version="1.0"><defs><clipPath id="3e4fdbc5a9"><path d="M 187.5 0 C 83.945312 0 0 83.945312 0 187.5 C 0 291.054688 83.945312 375 187.5 375 C 291.054688 375 375 291.054688 375 187.5 C 375 83.945312 291.054688 0 187.5 0 Z M 187.5 0 " clip-rule="nonzero"/></clipPath><clipPath id="da1413cdcb"><path d="M 61.96875 72.296875 L 313.21875 72.296875 L 313.21875 323.546875 L 61.96875 323.546875 Z M 61.96875 72.296875 " clip-rule="nonzero"/></clipPath></defs><g clip-path="url(#3e4fdbc5a9)"><rect x="-37.5" width="450" fill="#233c4b" y="-37.499999" height="449.999989" fill-opacity="1"/></g><g clip-path="url(#da1413cdcb)"><path fill="#ffffff" d="M 296.46875 264.921875 L 78.71875 264.921875 C 74.105469 264.921875 70.34375 261.160156 70.34375 256.546875 L 70.34375 239.796875 L 304.84375 239.796875 L 304.84375 256.546875 C 304.84375 261.160156 301.082031 264.921875 296.46875 264.921875 Z M 229.46875 281.671875 L 145.71875 281.671875 L 145.71875 273.296875 L 229.46875 273.296875 Z M 127.984375 298.421875 L 142.640625 290.046875 L 232.542969 290.046875 L 247.199219 298.421875 Z M 116.40625 315.171875 L 116.40625 306.796875 L 258.78125 306.796875 L 258.796875 315.171875 Z M 78.71875 80.671875 L 296.46875 80.671875 C 301.082031 80.671875 304.84375 84.433594 304.84375 89.046875 L 304.84375 231.421875 L 70.34375 231.421875 L 70.34375 89.046875 C 70.34375 84.433594 74.105469 80.671875 78.71875 80.671875 Z M 296.46875 72.296875 L 78.71875 72.296875 C 69.476562 72.296875 61.96875 79.804688 61.96875 89.046875 L 61.96875 256.546875 C 61.96875 265.789062 69.476562 273.296875 78.71875 273.296875 L 137.34375 273.296875 L 137.34375 283.421875 L 110.140625 298.976562 C 109.925781 299.09375 109.765625 299.273438 109.585938 299.417969 C 109.453125 299.535156 109.304688 299.632812 109.191406 299.761719 C 108.863281 300.089844 108.601562 300.464844 108.421875 300.890625 C 108.40625 300.925781 108.375 300.957031 108.355469 300.988281 C 108.160156 301.464844 108.078125 301.953125 108.0625 302.476562 C 108.0625 302.527344 108.03125 302.558594 108.03125 302.609375 L 108.03125 315.171875 C 108.03125 319.785156 111.792969 323.546875 116.40625 323.546875 L 258.78125 323.546875 C 263.394531 323.546875 267.15625 319.785156 267.15625 315.171875 L 267.15625 302.609375 C 267.15625 302.558594 267.121094 302.527344 267.121094 302.476562 C 267.105469 301.953125 267.023438 301.464844 266.828125 300.988281 C 266.8125 300.957031 266.777344 300.925781 266.761719 300.875 C 266.566406 300.464844 266.320312 300.089844 265.992188 299.761719 C 265.878906 299.632812 265.730469 299.535156 265.601562 299.417969 C 265.40625 299.273438 265.257812 299.09375 265.046875 298.976562 L 237.84375 283.421875 L 237.84375 273.296875 L 296.46875 273.296875 C 305.710938 273.296875 313.21875 265.789062 313.21875 256.546875 L 313.21875 89.046875 C 313.21875 79.804688 305.710938 72.296875 296.46875 72.296875 " fill-opacity="1" fill-rule="nonzero"/></g><path fill="#ffffff" d="M 195.96875 248.171875 L 179.21875 248.171875 C 176.910156 248.171875 175.03125 250.054688 175.03125 252.359375 C 175.03125 254.664062 176.910156 256.546875 179.21875 256.546875 L 195.96875 256.546875 C 198.273438 256.546875 200.15625 254.664062 200.15625 252.359375 C 200.15625 250.054688 198.273438 248.171875 195.96875 248.171875 " fill-opacity="1" fill-rule="nonzero"/><path fill="#ffffff" d="M 162.46875 172.796875 C 164.773438 172.796875 166.65625 170.914062 166.65625 168.609375 L 166.65625 151.859375 C 166.65625 149.554688 164.773438 147.671875 162.46875 147.671875 C 160.160156 147.671875 158.28125 149.554688 158.28125 151.859375 L 158.28125 168.609375 C 158.28125 170.914062 160.160156 172.796875 162.46875 172.796875 " fill-opacity="1" fill-rule="nonzero"/><path fill="#ffffff" d="M 179.21875 185.359375 C 181.523438 185.359375 183.40625 183.476562 183.40625 181.171875 L 183.40625 139.296875 C 183.40625 136.992188 181.523438 135.109375 179.21875 135.109375 C 176.910156 135.109375 175.03125 136.992188 175.03125 139.296875 L 175.03125 181.171875 C 175.03125 183.476562 176.910156 185.359375 179.21875 185.359375 " fill-opacity="1" fill-rule="nonzero"/><path fill="#ffffff" d="M 120.59375 168.609375 L 120.59375 151.859375 C 120.59375 149.554688 118.710938 147.671875 116.40625 147.671875 C 114.097656 147.671875 112.21875 149.554688 112.21875 151.859375 L 112.21875 168.609375 C 112.21875 170.914062 114.097656 172.796875 116.40625 172.796875 C 118.710938 172.796875 120.59375 170.914062 120.59375 168.609375 " fill-opacity="1" fill-rule="nonzero"/><path fill="#ffffff" d="M 103.84375 181.171875 L 103.84375 139.296875 C 103.84375 136.992188 101.960938 135.109375 99.65625 135.109375 C 97.347656 135.109375 95.46875 136.992188 95.46875 139.296875 L 95.46875 181.171875 C 95.46875 183.476562 97.347656 185.359375 99.65625 185.359375 C 101.960938 185.359375 103.84375 183.476562 103.84375 181.171875 " fill-opacity="1" fill-rule="nonzero"/><path fill="#ffffff" d="M 254.59375 151.859375 L 254.59375 168.609375 C 254.59375 170.914062 256.472656 172.796875 258.78125 172.796875 C 261.085938 172.796875 262.96875 170.914062 262.96875 168.609375 L 262.96875 151.859375 C 262.96875 149.554688 261.085938 147.671875 258.78125 147.671875 C 256.472656 147.671875 254.59375 149.554688 254.59375 151.859375 " fill-opacity="1" fill-rule="nonzero"/><path fill="#ffffff" d="M 271.34375 139.296875 L 271.34375 181.171875 C 271.34375 183.476562 273.222656 185.359375 275.53125 185.359375 C 277.835938 185.359375 279.71875 183.476562 279.71875 181.171875 L 279.71875 139.296875 C 279.71875 136.992188 277.835938 135.109375 275.53125 135.109375 C 273.222656 135.109375 271.34375 136.992188 271.34375 139.296875 " fill-opacity="1" fill-rule="nonzero"/><path fill="#ffffff" d="M 212.71875 172.796875 C 215.023438 172.796875 216.90625 170.914062 216.90625 168.609375 L 216.90625 151.859375 C 216.90625 149.554688 215.023438 147.671875 212.71875 147.671875 C 210.410156 147.671875 208.53125 149.554688 208.53125 151.859375 L 208.53125 168.609375 C 208.53125 170.914062 210.410156 172.796875 212.71875 172.796875 " fill-opacity="1" fill-rule="nonzero"/><path fill="#ffffff" d="M 195.96875 185.359375 C 198.273438 185.359375 200.15625 183.476562 200.15625 181.171875 L 200.15625 139.296875 C 200.15625 136.992188 198.273438 135.109375 195.96875 135.109375 C 193.660156 135.109375 191.78125 136.992188 191.78125 139.296875 L 191.78125 181.171875 C 191.78125 183.476562 193.660156 185.359375 195.96875 185.359375 " fill-opacity="1" fill-rule="nonzero"/><path fill="#ffffff" d="M 147.695312 144.777344 C 152.210938 137.234375 158.605469 131.394531 166.851562 127.371094 C 180.035156 120.910156 195.148438 120.910156 208.332031 127.371094 C 221.519531 133.816406 229.992188 144.875 233.558594 160.234375 C 229.992188 175.59375 221.519531 186.652344 208.332031 193.097656 C 195.148438 199.558594 180.035156 199.558594 166.851562 193.097656 C 153.667969 186.652344 145.195312 175.59375 141.628906 160.234375 C 142.96875 154.476562 144.996094 149.324219 147.695312 144.777344 Z M 82.90625 202.109375 C 82.90625 204.414062 84.785156 206.296875 87.09375 206.296875 C 95.5 206.296875 103.941406 204.332031 111.515625 200.621094 C 123.273438 194.878906 132.042969 185.703125 137.34375 173.761719 C 138.242188 175.789062 139.238281 177.738281 140.335938 179.601562 C 145.703125 188.710938 153.40625 195.84375 163.171875 200.621094 C 170.925781 204.414062 179.265625 206.328125 187.59375 206.328125 C 195.917969 206.328125 204.261719 204.414062 212.015625 200.621094 C 223.773438 194.878906 232.542969 185.703125 237.84375 173.761719 C 243.140625 185.703125 251.910156 194.878906 263.671875 200.621094 C 271.246094 204.332031 279.683594 206.296875 288.09375 206.296875 C 290.398438 206.296875 292.28125 204.414062 292.28125 202.109375 C 292.28125 199.804688 290.398438 197.921875 288.09375 197.921875 C 280.960938 197.921875 273.796875 196.253906 267.351562 193.097656 C 254.167969 186.652344 245.695312 175.59375 242.128906 160.234375 C 245.695312 144.875 254.167969 133.816406 267.351562 127.371094 C 273.796875 124.214844 280.960938 122.546875 288.09375 122.546875 C 290.398438 122.546875 292.28125 120.664062 292.28125 118.359375 C 292.28125 116.054688 290.398438 114.171875 288.09375 114.171875 C 279.683594 114.171875 271.246094 116.132812 263.671875 119.847656 C 251.910156 125.589844 243.140625 134.765625 237.84375 146.707031 C 232.542969 134.765625 223.773438 125.589844 212.03125 119.847656 C 196.492188 112.242188 178.695312 112.226562 163.171875 119.847656 C 151.410156 125.589844 142.640625 134.765625 137.34375 146.707031 C 132.042969 134.765625 123.273438 125.589844 111.515625 119.847656 C 103.941406 116.132812 95.5 114.171875 87.09375 114.171875 C 84.785156 114.171875 82.90625 116.054688 82.90625 118.359375 C 82.90625 120.664062 84.785156 122.546875 87.09375 122.546875 C 94.222656 122.546875 101.40625 124.214844 107.832031 127.371094 C 121.019531 133.816406 129.492188 144.875 133.058594 160.234375 C 129.492188 175.59375 121.019531 186.652344 107.832031 193.097656 C 101.40625 196.253906 94.222656 197.921875 87.09375 197.921875 C 84.785156 197.921875 82.90625 199.804688 82.90625 202.109375 " fill-opacity="1" fill-rule="nonzero"/></svg>