<svg xmlns="http://www.w3.org/2000/svg" xmlns:xlink="http://www.w3.org/1999/xlink" width="500" zoomAndPan="magnify" viewBox="0 0 375 374.999991" height="500" preserveAspectRatio="xMidYMid meet" version="1.0"><defs><clipPath id="887c2edf03"><path d="M 187.5 0 C 83.945312 0 0 83.945312 0 187.5 C 0 291.054688 83.945312 375 187.5 375 C 291.054688 375 375 291.054688 375 187.5 C 375 83.945312 291.054688 0 187.5 0 Z M 187.5 0 " clip-rule="nonzero"/></clipPath><clipPath id="4828457a42"><path d="M 85.449219 48.890625 L 289.449219 48.890625 L 289.449219 326.390625 L 85.449219 326.390625 Z M 85.449219 48.890625 " clip-rule="nonzero"/></clipPath></defs><g clip-path="url(#887c2edf03)"><rect x="-37.5" width="450" fill="#233c4b" y="-37.499999" height="449.999989" fill-opacity="1"/></g><g clip-path="url(#4828457a42)"><path fill="#ffffff" d="M 289.390625 129.945312 C 289.367188 128.234375 289.246094 126.527344 289.019531 124.828125 C 288.792969 123.132812 288.46875 121.453125 288.042969 119.796875 C 287.613281 118.136719 287.089844 116.511719 286.46875 114.914062 C 285.84375 113.320312 285.128906 111.769531 284.320312 110.257812 C 283.511719 108.75 282.617188 107.292969 281.632812 105.894531 C 280.648438 104.492188 279.582031 103.15625 278.4375 101.882812 C 277.296875 100.609375 276.078125 99.410156 274.789062 98.285156 C 273.5 97.160156 272.148438 96.113281 270.734375 95.152344 C 270.75 92.339844 270.710938 71.457031 270.757812 67.707031 C 271.210938 67.785156 271.671875 67.824219 272.132812 67.824219 C 272.597656 67.820312 273.054688 67.777344 273.511719 67.695312 C 273.964844 67.613281 274.410156 67.492188 274.84375 67.328125 C 275.277344 67.167969 275.691406 66.96875 276.089844 66.730469 C 276.488281 66.496094 276.863281 66.226562 277.214844 65.921875 C 277.5625 65.621094 277.882812 65.289062 278.175781 64.929688 C 278.46875 64.570312 278.726562 64.1875 278.949219 63.78125 C 279.171875 63.378906 279.359375 62.957031 279.507812 62.515625 C 279.667969 60.300781 279.710938 58.085938 279.632812 55.863281 C 279.613281 55.386719 279.546875 54.914062 279.433594 54.453125 C 279.320312 53.988281 279.164062 53.539062 278.964844 53.105469 C 278.765625 52.671875 278.523438 52.261719 278.242188 51.875 C 277.960938 51.488281 277.644531 51.132812 277.296875 50.808594 C 276.945312 50.484375 276.566406 50.199219 276.160156 49.949219 C 275.753906 49.699219 275.324219 49.492188 274.878906 49.324219 C 274.429688 49.160156 273.972656 49.039062 273.5 48.960938 C 273.027344 48.886719 272.554688 48.859375 272.078125 48.875 C 217.667969 48.902344 163.253906 48.910156 108.839844 48.890625 C 106.546875 48.8125 104.257812 48.851562 101.96875 49.007812 C 101.554688 49.070312 101.144531 49.164062 100.746094 49.292969 C 100.34375 49.425781 99.957031 49.589844 99.585938 49.789062 C 99.214844 49.984375 98.863281 50.214844 98.53125 50.472656 C 98.199219 50.730469 97.890625 51.015625 97.609375 51.328125 C 97.324219 51.640625 97.070312 51.976562 96.847656 52.332031 C 96.621094 52.691406 96.429688 53.0625 96.269531 53.453125 C 96.109375 53.84375 95.984375 54.242188 95.894531 54.65625 C 95.804688 55.066406 95.75 55.484375 95.730469 55.90625 C 95.597656 58.183594 95.671875 60.457031 95.949219 62.722656 C 96.089844 63.136719 96.265625 63.535156 96.472656 63.917969 C 96.683594 64.300781 96.925781 64.660156 97.199219 65 C 97.472656 65.339844 97.773438 65.652344 98.105469 65.9375 C 98.433594 66.226562 98.785156 66.480469 99.15625 66.703125 C 99.53125 66.929688 99.921875 67.117188 100.328125 67.273438 C 100.734375 67.429688 101.152344 67.546875 101.582031 67.628906 C 102.011719 67.710938 102.441406 67.753906 102.878906 67.757812 C 103.3125 67.765625 103.746094 67.730469 104.175781 67.660156 C 104.195312 71.421875 104.203125 92.511719 104.078125 95.40625 C 102.636719 96.394531 101.257812 97.46875 99.945312 98.625 C 98.636719 99.785156 97.398438 101.019531 96.242188 102.328125 C 95.082031 103.640625 94.003906 105.015625 93.015625 106.457031 C 92.023438 107.902344 91.125 109.398438 90.320312 110.953125 C 89.511719 112.507812 88.804688 114.105469 88.191406 115.746094 C 87.582031 117.386719 87.074219 119.058594 86.667969 120.761719 C 86.265625 122.464844 85.964844 124.1875 85.769531 125.925781 C 85.578125 127.667969 85.492188 129.414062 85.511719 131.164062 C 85.539062 179.59375 85.542969 228.019531 85.519531 276.445312 C 85.359375 280.582031 85.546875 284.703125 86.082031 288.808594 C 86.441406 290.980469 86.964844 293.113281 87.640625 295.210938 C 88.320312 297.304688 89.148438 299.339844 90.128906 301.3125 C 91.109375 303.285156 92.226562 305.175781 93.488281 306.980469 C 94.746094 308.785156 96.132812 310.488281 97.644531 312.089844 C 99.15625 313.691406 100.777344 315.167969 102.511719 316.527344 C 104.242188 317.886719 106.0625 319.109375 107.976562 320.199219 C 109.890625 321.285156 111.871094 322.226562 113.925781 323.019531 C 115.976562 323.816406 118.074219 324.453125 120.222656 324.933594 C 125.820312 325.898438 131.453125 326.246094 137.125 325.976562 C 139.136719 325.976562 141.152344 325.976562 143.167969 325.972656 C 150.753906 325.96875 158.34375 325.96875 165.933594 325.96875 C 174.429688 325.964844 182.929688 325.964844 191.425781 325.964844 L 213.640625 325.964844 C 223.964844 325.964844 234.289062 325.964844 244.613281 325.960938 C 249.023438 326 253.34375 325.40625 257.582031 324.1875 C 261.820312 322.964844 265.796875 321.164062 269.511719 318.785156 C 271.015625 317.808594 272.457031 316.738281 273.828125 315.582031 C 275.203125 314.421875 276.5 313.1875 277.71875 311.867188 C 278.9375 310.550781 280.074219 309.164062 281.125 307.703125 C 282.171875 306.246094 283.128906 304.730469 283.992188 303.152344 C 284.851562 301.578125 285.613281 299.953125 286.277344 298.285156 C 286.9375 296.613281 287.496094 294.90625 287.949219 293.167969 C 288.398438 291.429688 288.742188 289.667969 288.980469 287.886719 C 289.214844 286.105469 289.339844 284.316406 289.351562 282.519531 C 289.40625 231.664062 289.417969 180.804688 289.390625 129.945312 Z M 273.214844 271.367188 C 271.066406 268.109375 268.589844 265.128906 265.773438 262.429688 C 254.285156 251.46875 239.484375 244.800781 227.878906 233.96875 C 223.640625 230.085938 219.867188 225.789062 216.566406 221.078125 C 213.261719 216.371094 210.503906 211.359375 208.292969 206.050781 C 204.183594 196.496094 201.714844 186.355469 197.980469 176.660156 C 196.710938 173.03125 194.898438 169.699219 192.542969 166.660156 C 192.027344 166.007812 191.386719 165.511719 190.628906 165.175781 C 189.867188 164.839844 189.070312 164.699219 188.242188 164.757812 C 186.921875 165.375 185.753906 166.210938 184.742188 167.261719 C 183.730469 168.3125 182.941406 169.511719 182.375 170.859375 C 172.625 189.808594 168.957031 211.882812 155.441406 228.835938 C 143.441406 244.097656 125.0625 251.851562 110.417969 264.042969 C 106.992188 266.859375 103.976562 270.0625 101.367188 273.652344 C 101.347656 226.15625 101.347656 178.660156 101.363281 131.164062 C 101.347656 129.753906 101.453125 128.351562 101.675781 126.957031 C 101.898438 125.566406 102.238281 124.203125 102.695312 122.867188 C 103.152344 121.53125 103.71875 120.246094 104.390625 119.007812 C 105.066406 117.769531 105.84375 116.597656 106.71875 115.492188 C 107.59375 114.386719 108.554688 113.363281 109.601562 112.421875 C 110.652344 111.480469 111.773438 110.632812 112.96875 109.882812 C 114.160156 109.132812 115.40625 108.492188 116.710938 107.953125 C 118.015625 107.417969 119.351562 106.996094 120.726562 106.6875 C 122.015625 106.550781 123.304688 106.492188 124.597656 106.511719 C 166.347656 106.390625 208.101562 106.46875 249.859375 106.433594 C 262.601562 106.1875 273.113281 118.4375 273.230469 130.753906 C 273.207031 177.625 273.199219 224.496094 273.214844 271.367188 Z M 273.214844 271.367188 " fill-opacity="1" fill-rule="nonzero"/></g></svg>