<svg xmlns="http://www.w3.org/2000/svg" xmlns:xlink="http://www.w3.org/1999/xlink" width="500" zoomAndPan="magnify" viewBox="0 0 375 374.999991" height="500" preserveAspectRatio="xMidYMid meet" version="1.0"><defs><clipPath id="8be2ee5260"><path d="M 187.5 0 C 83.945312 0 0 83.945312 0 187.5 C 0 291.054688 83.945312 375 187.5 375 C 291.054688 375 375 291.054688 375 187.5 C 375 83.945312 291.054688 0 187.5 0 Z M 187.5 0 " clip-rule="nonzero"/></clipPath><clipPath id="c0d8c0c5c3"><path d="M 65.738281 72.578125 L 309.488281 72.578125 L 309.488281 316.328125 L 65.738281 316.328125 Z M 65.738281 72.578125 " clip-rule="nonzero"/></clipPath></defs><g clip-path="url(#8be2ee5260)"><rect x="-37.5" width="450" fill="#233c4b" y="-37.499999" height="449.999989" fill-opacity="1"/></g><g clip-path="url(#c0d8c0c5c3)"><path fill="#ffffff" d="M 240.425781 308.203125 C 206.816406 308.203125 179.488281 280.863281 179.488281 247.265625 C 179.488281 213.65625 206.816406 186.328125 240.425781 186.328125 C 274.035156 186.328125 301.363281 213.65625 301.363281 247.265625 C 301.363281 280.863281 274.035156 308.203125 240.425781 308.203125 Z M 73.863281 239.140625 L 73.863281 210.703125 L 181.949219 210.703125 C 175.964844 220.242188 172.269531 231.320312 171.570312 243.203125 L 77.925781 243.203125 C 75.6875 243.203125 73.863281 241.378906 73.863281 239.140625 Z M 77.925781 80.703125 L 163.238281 80.703125 L 163.238281 105.078125 C 163.238281 109.554688 166.886719 113.203125 171.363281 113.203125 L 195.738281 113.203125 L 195.738281 194.707031 C 192.898438 197.121094 190.277344 199.738281 187.867188 202.578125 L 73.863281 202.578125 L 73.863281 84.765625 C 73.863281 82.53125 75.6875 80.703125 77.925781 80.703125 Z M 189.992188 105.078125 L 171.363281 105.078125 L 171.363281 86.449219 Z M 240.425781 178.203125 C 227 178.203125 214.480469 182.125 203.863281 188.789062 L 203.863281 112.523438 C 203.863281 109.253906 202.59375 106.191406 200.277344 103.875 L 172.570312 76.164062 C 170.253906 73.847656 167.191406 72.578125 163.921875 72.578125 L 77.925781 72.578125 C 71.195312 72.578125 65.738281 78.039062 65.738281 84.765625 L 65.738281 239.140625 C 65.738281 245.871094 71.195312 251.328125 77.925781 251.328125 L 171.570312 251.328125 C 173.695312 287.511719 203.71875 316.328125 240.425781 316.328125 C 278.511719 316.328125 309.488281 285.351562 309.488281 247.265625 C 309.488281 209.179688 278.511719 178.203125 240.425781 178.203125 " fill-opacity="1" fill-rule="nonzero"/></g><path fill="#ffffff" d="M 229.269531 210.703125 L 251.582031 210.703125 C 249.390625 215.449219 244.042969 219.796875 240.425781 222.195312 C 236.808594 219.796875 231.476562 215.449219 229.269531 210.703125 Z M 229.269531 243.203125 C 231.476562 238.460938 236.808594 234.113281 240.425781 231.714844 C 244.042969 234.113281 249.390625 238.460938 251.582031 243.203125 Z M 229.269531 251.328125 L 251.582031 251.328125 C 249.390625 256.074219 244.042969 260.421875 240.425781 262.820312 C 236.808594 260.421875 231.476562 256.074219 229.269531 251.328125 Z M 251.582031 283.828125 L 229.269531 283.828125 C 231.476562 279.085938 236.808594 274.738281 240.425781 272.339844 C 244.042969 274.738281 249.390625 279.085938 251.582031 283.828125 Z M 256.675781 198.515625 C 254.4375 198.515625 252.613281 200.34375 252.613281 202.578125 L 228.238281 202.578125 C 228.238281 200.34375 226.414062 198.515625 224.175781 198.515625 C 221.9375 198.515625 220.113281 200.34375 220.113281 202.578125 L 220.113281 206.640625 C 220.113281 215.59375 227.636719 222.84375 233.09375 226.953125 C 227.636719 231.066406 220.113281 238.316406 220.113281 247.265625 C 220.113281 256.21875 227.636719 263.46875 233.09375 267.578125 C 227.636719 271.691406 220.113281 278.957031 220.113281 287.890625 L 220.113281 291.953125 C 220.113281 294.191406 221.9375 296.015625 224.175781 296.015625 C 226.414062 296.015625 228.238281 294.191406 228.238281 291.953125 L 252.613281 291.953125 C 252.613281 294.191406 254.4375 296.015625 256.675781 296.015625 C 258.914062 296.015625 260.738281 294.191406 260.738281 291.953125 L 260.738281 287.890625 C 260.738281 278.957031 253.214844 271.691406 247.757812 267.578125 C 253.214844 263.46875 260.738281 256.21875 260.738281 247.265625 C 260.738281 238.316406 253.214844 231.066406 247.757812 226.953125 C 253.214844 222.84375 260.738281 215.59375 260.738281 206.640625 L 260.738281 202.578125 C 260.738281 200.34375 258.914062 198.515625 256.675781 198.515625 " fill-opacity="1" fill-rule="nonzero"/></svg>