<svg xmlns="http://www.w3.org/2000/svg" xmlns:xlink="http://www.w3.org/1999/xlink" width="500" zoomAndPan="magnify" viewBox="0 0 375 374.999991" height="500" preserveAspectRatio="xMidYMid meet" version="1.0"><defs><clipPath id="4858ffa657"><path d="M 187.5 0 C 83.945312 0 0 83.945312 0 187.5 C 0 291.054688 83.945312 375 187.5 375 C 291.054688 375 375 291.054688 375 187.5 C 375 83.945312 291.054688 0 187.5 0 Z M 187.5 0 " clip-rule="nonzero"/></clipPath><clipPath id="8dc540970e"><path d="M 114.609375 52 L 256 52 L 256 338 L 114.609375 338 Z M 114.609375 52 " clip-rule="nonzero"/></clipPath></defs><g clip-path="url(#4858ffa657)"><rect x="-37.5" width="450" fill="#233c4b" y="-37.499999" height="449.999989" fill-opacity="1"/></g><g clip-path="url(#8dc540970e)"><path fill="#fdfdfe" d="M 230.023438 90.886719 L 225.910156 90.886719 C 222.402344 90.886719 219.566406 93.726562 219.566406 97.234375 L 219.566406 290.535156 C 219.566406 309.390625 204.242188 324.734375 185.398438 324.734375 C 166.554688 324.734375 151.214844 309.390625 151.214844 290.535156 L 151.214844 97.234375 C 151.214844 93.726562 148.375 90.886719 144.871094 90.886719 L 140.125 90.886719 C 133.101562 90.886719 127.375 85.164062 127.375 78.132812 C 127.375 71.097656 133.101562 65.375 140.125 65.375 L 230.023438 65.375 C 237.050781 65.375 242.773438 71.097656 242.773438 78.132812 C 242.773438 85.164062 237.050781 90.886719 230.023438 90.886719 Z M 230.023438 52.683594 L 140.125 52.683594 C 126.097656 52.683594 114.6875 64.101562 114.6875 78.132812 C 114.6875 91.628906 125.242188 102.699219 138.527344 103.53125 L 138.527344 290.535156 C 138.527344 316.390625 159.550781 337.429688 185.398438 337.429688 C 211.230469 337.429688 232.253906 316.390625 232.253906 290.535156 L 232.253906 103.480469 C 245.238281 102.347656 255.460938 91.414062 255.460938 78.132812 C 255.460938 64.101562 244.050781 52.683594 230.023438 52.683594 " fill-opacity="1" fill-rule="nonzero"/></g><path fill="#fdfdfe" d="M 194.195312 290.535156 C 194.195312 295.394531 190.238281 299.351562 185.398438 299.351562 C 180.539062 299.351562 176.585938 295.394531 176.585938 290.535156 L 176.585938 157.003906 L 194.195312 157.003906 Z M 200.535156 144.308594 L 170.242188 144.308594 C 166.738281 144.308594 163.898438 147.148438 163.898438 150.65625 L 163.898438 290.535156 C 163.898438 302.394531 173.539062 312.042969 185.398438 312.042969 C 197.242188 312.042969 206.878906 302.394531 206.878906 290.535156 L 206.878906 150.65625 C 206.878906 147.148438 204.042969 144.308594 200.535156 144.308594 " fill-opacity="1" fill-rule="nonzero"/></svg>