<svg xmlns="http://www.w3.org/2000/svg" xmlns:xlink="http://www.w3.org/1999/xlink" width="500" zoomAndPan="magnify" viewBox="0 0 375 374.999991" height="500" preserveAspectRatio="xMidYMid meet" version="1.0"><defs><clipPath id="24a3a40ece"><path d="M 187.5 0 C 83.945312 0 0 83.945312 0 187.5 C 0 291.054688 83.945312 375 187.5 375 C 291.054688 375 375 291.054688 375 187.5 C 375 83.945312 291.054688 0 187.5 0 Z M 187.5 0 " clip-rule="nonzero"/></clipPath><clipPath id="a1c5c4ba13"><path d="M 97 64.5 L 108 64.5 L 108 111 L 97 111 Z M 97 64.5 " clip-rule="nonzero"/></clipPath><clipPath id="a992999787"><path d="M 128 64.5 L 139 64.5 L 139 111 L 128 111 Z M 128 64.5 " clip-rule="nonzero"/></clipPath><clipPath id="44a875e696"><path d="M 159 64.5 L 170 64.5 L 170 111 L 159 111 Z M 159 64.5 " clip-rule="nonzero"/></clipPath><clipPath id="2fedefe9f7"><path d="M 69.148438 64.5 L 198 64.5 L 198 111 L 69.148438 111 Z M 69.148438 64.5 " clip-rule="nonzero"/></clipPath><clipPath id="e9d9071397"><path d="M 141 162 L 306.148438 162 L 306.148438 327 L 141 327 Z M 141 162 " clip-rule="nonzero"/></clipPath></defs><g clip-path="url(#24a3a40ece)"><rect x="-37.5" width="450" fill="#233c4b" y="-37.499999" height="449.999989" fill-opacity="1"/></g><g clip-path="url(#a1c5c4ba13)"><path fill="#ffffff" d="M 102.683594 110.824219 C 99.839844 110.824219 97.535156 108.519531 97.535156 105.675781 L 97.535156 69.648438 C 97.535156 66.804688 99.839844 64.5 102.683594 64.5 C 105.527344 64.5 107.832031 66.804688 107.832031 69.648438 L 107.832031 105.675781 C 107.832031 108.519531 105.527344 110.824219 102.683594 110.824219 Z M 102.683594 110.824219 " fill-opacity="1" fill-rule="nonzero"/></g><g clip-path="url(#a992999787)"><path fill="#ffffff" d="M 133.578125 110.824219 C 130.734375 110.824219 128.429688 108.519531 128.429688 105.675781 L 128.429688 69.648438 C 128.429688 66.804688 130.734375 64.5 133.578125 64.5 C 136.421875 64.5 138.726562 66.804688 138.726562 69.648438 L 138.726562 105.675781 C 138.726562 108.519531 136.421875 110.824219 133.578125 110.824219 Z M 133.578125 110.824219 " fill-opacity="1" fill-rule="nonzero"/></g><g clip-path="url(#44a875e696)"><path fill="#ffffff" d="M 164.476562 110.824219 C 161.628906 110.824219 159.324219 108.519531 159.324219 105.675781 L 159.324219 69.648438 C 159.324219 66.804688 161.628906 64.5 164.476562 64.5 C 167.320312 64.5 169.625 66.804688 169.625 69.648438 L 169.625 105.675781 C 169.625 108.519531 167.320312 110.824219 164.476562 110.824219 Z M 164.476562 110.824219 " fill-opacity="1" fill-rule="nonzero"/></g><g clip-path="url(#2fedefe9f7)"><path fill="#ffffff" d="M 192.796875 110.824219 L 74.363281 110.824219 C 71.519531 110.824219 69.210938 108.519531 69.210938 105.675781 L 69.210938 69.648438 C 69.210938 66.804688 71.519531 64.5 74.363281 64.5 L 192.796875 64.5 C 195.640625 64.5 197.945312 66.804688 197.945312 69.648438 L 197.945312 105.675781 C 197.945312 108.519531 195.640625 110.824219 192.796875 110.824219 Z M 79.511719 100.527344 L 187.648438 100.527344 L 187.648438 74.792969 L 79.511719 74.792969 Z M 79.511719 100.527344 " fill-opacity="1" fill-rule="nonzero"/></g><path fill="#ffffff" d="M 125.855469 136.558594 L 89.808594 136.558594 C 86.964844 136.558594 84.660156 134.253906 84.660156 131.410156 C 84.660156 128.570312 86.964844 126.265625 89.808594 126.265625 L 125.855469 126.265625 C 128.699219 126.265625 131.003906 128.570312 131.003906 131.410156 C 131.003906 134.253906 128.699219 136.558594 125.855469 136.558594 Z M 125.855469 136.558594 " fill-opacity="1" fill-rule="nonzero"/><path fill="#ffffff" d="M 110.40625 157.148438 L 89.808594 157.148438 C 86.964844 157.148438 84.660156 154.84375 84.660156 152 C 84.660156 149.15625 86.964844 146.851562 89.808594 146.851562 L 110.40625 146.851562 C 113.25 146.851562 115.554688 149.15625 115.554688 152 C 115.554688 154.84375 113.25 157.148438 110.40625 157.148438 Z M 110.40625 157.148438 " fill-opacity="1" fill-rule="nonzero"/><path fill="#ffffff" d="M 125.855469 177.734375 L 89.808594 177.734375 C 86.964844 177.734375 84.660156 175.429688 84.660156 172.585938 C 84.660156 169.746094 86.964844 167.441406 89.808594 167.441406 L 125.855469 167.441406 C 128.699219 167.441406 131.003906 169.746094 131.003906 172.585938 C 131.003906 175.429688 128.699219 177.734375 125.855469 177.734375 Z M 125.855469 177.734375 " fill-opacity="1" fill-rule="nonzero"/><path fill="#ffffff" d="M 110.40625 198.324219 L 89.808594 198.324219 C 86.964844 198.324219 84.660156 196.019531 84.660156 193.175781 C 84.660156 190.332031 86.964844 188.027344 89.808594 188.027344 L 110.40625 188.027344 C 113.25 188.027344 115.554688 190.332031 115.554688 193.175781 C 115.554688 196.019531 113.25 198.324219 110.40625 198.324219 Z M 110.40625 198.324219 " fill-opacity="1" fill-rule="nonzero"/><g clip-path="url(#e9d9071397)"><path fill="#ffffff" d="M 223.691406 327 C 178.261719 327 141.304688 290.054688 141.304688 244.648438 C 141.304688 199.238281 178.261719 162.292969 223.691406 162.292969 C 269.121094 162.292969 306.082031 199.238281 306.082031 244.648438 C 306.082031 290.054688 269.121094 327 223.691406 327 Z M 223.691406 172.585938 C 183.941406 172.585938 151.601562 204.914062 151.601562 244.648438 C 151.601562 284.378906 183.941406 316.707031 223.691406 316.707031 C 263.441406 316.707031 295.78125 284.378906 295.78125 244.648438 C 295.78125 204.914062 263.441406 172.585938 223.691406 172.585938 Z M 223.691406 172.585938 " fill-opacity="1" fill-rule="nonzero"/></g><path fill="#ffffff" d="M 133.578125 327 C 106.605469 327 84.660156 305.0625 84.660156 278.101562 L 84.660156 105.675781 C 84.660156 102.832031 86.964844 100.527344 89.808594 100.527344 L 177.347656 100.527344 C 180.191406 100.527344 182.496094 102.832031 182.496094 105.675781 L 182.496094 182.882812 C 182.496094 185.726562 180.191406 188.027344 177.347656 188.027344 C 174.503906 188.027344 172.199219 185.726562 172.199219 182.882812 L 172.199219 110.824219 L 94.957031 110.824219 L 94.957031 278.101562 C 94.957031 299.371094 112.257812 316.679688 133.53125 316.707031 C 148.476562 315.847656 159.023438 309.898438 166.074219 298.953125 C 166.226562 298.71875 166.191406 298.796875 166.417969 298.410156 C 167.859375 295.960938 171.015625 295.140625 173.46875 296.578125 C 175.917969 298.015625 176.742188 301.171875 175.300781 303.621094 C 174.085938 305.691406 171.6875 308.960938 169.648438 311.125 C 160.066406 321.582031 146.621094 326.925781 134.984375 326.972656 C 133.554688 327 133.65625 327 133.578125 327 Z M 133.578125 327 " fill-opacity="1" fill-rule="nonzero"/><path fill="#ffffff" d="M 133.578125 327 C 106.605469 327 84.660156 305.0625 84.660156 278.101562 L 84.660156 218.910156 C 84.660156 216.070312 86.964844 213.765625 89.808594 213.765625 L 105.097656 213.765625 C 119.746094 213.765625 133.355469 221.660156 140.625 234.371094 C 142.84375 238.257812 145.835938 241.546875 149.519531 244.152344 C 151.839844 245.792969 152.390625 249.003906 150.746094 251.324219 C 149.101562 253.644531 145.890625 254.195312 143.566406 252.550781 C 138.652344 249.074219 134.652344 244.675781 131.683594 239.480469 C 126.246094 229.96875 116.058594 224.058594 105.097656 224.058594 L 94.957031 224.058594 L 94.957031 278.101562 C 94.957031 299.386719 112.285156 316.707031 133.578125 316.707031 C 147.09375 316.707031 159.398438 309.816406 166.492188 298.28125 C 167.980469 295.859375 171.148438 295.105469 173.574219 296.59375 C 175.996094 298.082031 176.753906 301.25 175.265625 303.671875 C 166.28125 318.277344 150.699219 327 133.578125 327 Z M 133.578125 327 " fill-opacity="1" fill-rule="nonzero"/><path fill="#ffffff" d="M 223.691406 229.207031 C 209.496094 229.207031 197.945312 217.660156 197.945312 203.46875 L 197.945312 193.175781 C 197.945312 190.332031 200.25 188.027344 203.09375 188.027344 C 205.9375 188.027344 208.242188 190.332031 208.242188 193.175781 L 208.242188 203.46875 C 208.242188 211.984375 215.171875 218.910156 223.691406 218.910156 C 232.210938 218.910156 239.140625 211.984375 239.140625 203.46875 L 239.140625 193.175781 C 239.140625 190.332031 241.445312 188.027344 244.289062 188.027344 C 247.132812 188.027344 249.4375 190.332031 249.4375 193.175781 L 249.4375 203.46875 C 249.4375 217.660156 237.886719 229.207031 223.691406 229.207031 Z M 223.691406 229.207031 " fill-opacity="1" fill-rule="nonzero"/><path fill="#ffffff" d="M 244.289062 208.617188 L 203.09375 208.617188 C 200.25 208.617188 197.945312 206.3125 197.945312 203.46875 C 197.945312 200.628906 200.25 198.324219 203.09375 198.324219 L 244.289062 198.324219 C 247.132812 198.324219 249.4375 200.628906 249.4375 203.46875 C 249.4375 206.3125 247.132812 208.617188 244.289062 208.617188 Z M 244.289062 208.617188 " fill-opacity="1" fill-rule="nonzero"/><path fill="#ffffff" d="M 244.289062 301.265625 C 241.445312 301.265625 239.140625 298.960938 239.140625 296.117188 L 239.140625 285.824219 C 239.140625 277.308594 232.210938 270.382812 223.691406 270.382812 C 215.171875 270.382812 208.242188 277.308594 208.242188 285.824219 L 208.242188 296.117188 C 208.242188 298.960938 205.9375 301.265625 203.09375 301.265625 C 200.25 301.265625 197.945312 298.960938 197.945312 296.117188 L 197.945312 285.824219 C 197.945312 271.632812 209.496094 260.085938 223.691406 260.085938 C 237.886719 260.085938 249.4375 271.632812 249.4375 285.824219 L 249.4375 296.117188 C 249.4375 298.960938 247.132812 301.265625 244.289062 301.265625 Z M 244.289062 301.265625 " fill-opacity="1" fill-rule="nonzero"/><path fill="#ffffff" d="M 244.289062 290.96875 L 203.09375 290.96875 C 200.25 290.96875 197.945312 288.664062 197.945312 285.824219 C 197.945312 282.980469 200.25 280.675781 203.09375 280.675781 L 244.289062 280.675781 C 247.132812 280.675781 249.4375 282.980469 249.4375 285.824219 C 249.4375 288.664062 247.132812 290.96875 244.289062 290.96875 Z M 244.289062 290.96875 " fill-opacity="1" fill-rule="nonzero"/><path fill="#ffffff" d="M 222.949219 270.164062 C 211.628906 268.515625 203.09375 257.546875 203.09375 244.648438 C 203.09375 231.746094 211.628906 220.777344 222.949219 219.132812 C 223.441406 219.058594 223.941406 219.058594 224.433594 219.132812 C 235.753906 220.777344 244.289062 231.746094 244.289062 244.648438 C 244.289062 257.546875 235.753906 268.515625 224.433594 270.164062 C 223.941406 270.234375 223.441406 270.234375 222.949219 270.164062 Z M 223.691406 229.453125 C 217.769531 230.757812 213.394531 237.132812 213.394531 244.648438 C 213.394531 252.160156 217.769531 258.535156 223.691406 259.839844 C 229.613281 258.535156 233.992188 252.160156 233.992188 244.648438 C 233.992188 237.132812 229.613281 230.757812 223.691406 229.453125 Z M 223.691406 229.453125 " fill-opacity="1" fill-rule="nonzero"/><path fill="#ffffff" d="M 239.140625 249.792969 L 208.242188 249.792969 C 205.402344 249.792969 203.09375 247.488281 203.09375 244.648438 C 203.09375 241.804688 205.402344 239.5 208.242188 239.5 L 239.140625 239.5 C 241.984375 239.5 244.289062 241.804688 244.289062 244.648438 C 244.289062 247.488281 241.984375 249.792969 239.140625 249.792969 Z M 239.140625 249.792969 " fill-opacity="1" fill-rule="nonzero"/></svg>