<svg xmlns="http://www.w3.org/2000/svg" xmlns:xlink="http://www.w3.org/1999/xlink" width="500" zoomAndPan="magnify" viewBox="0 0 375 374.999991" height="500" preserveAspectRatio="xMidYMid meet" version="1.0"><defs><clipPath id="556ea53b0c"><path d="M 187.5 0 C 83.945312 0 0 83.945312 0 187.5 C 0 291.054688 83.945312 375 187.5 375 C 291.054688 375 375 291.054688 375 187.5 C 375 83.945312 291.054688 0 187.5 0 Z M 187.5 0 " clip-rule="nonzero"/></clipPath><clipPath id="c899d1b0c5"><path d="M 96 34.5 L 281.089844 34.5 L 281.089844 340.5 L 96 340.5 Z M 96 34.5 " clip-rule="nonzero"/></clipPath></defs><g clip-path="url(#556ea53b0c)"><rect x="-37.5" width="450" fill="#233c4b" y="-37.499999" height="449.999989" fill-opacity="1"/></g><g clip-path="url(#c899d1b0c5)"><path fill="#fdfdfe" d="M 160.203125 150.382812 C 160.203125 144.738281 164.789062 140.160156 170.421875 140.160156 C 176.0625 140.160156 180.648438 144.738281 180.648438 150.382812 C 180.648438 156.015625 176.0625 160.597656 170.421875 160.597656 C 164.789062 160.597656 160.203125 156.015625 160.203125 150.382812 Z M 188.9375 329.6875 C 143.867188 329.6875 107.1875 293.023438 107.1875 247.960938 C 107.1875 215.207031 126.65625 185.710938 156.792969 172.804688 C 158.566406 172.042969 159.636719 170.355469 159.878906 168.472656 C 162.988281 170.292969 166.5625 171.410156 170.421875 171.410156 C 182.015625 171.410156 191.464844 161.976562 191.464844 150.382812 C 191.464844 138.78125 182.015625 129.34375 170.421875 129.34375 C 166.640625 129.34375 163.136719 130.425781 160.070312 132.179688 L 160.070312 125.550781 C 160.070312 122.5625 157.652344 120.140625 154.660156 120.140625 L 150.613281 120.140625 C 144.625 120.140625 139.757812 115.269531 139.757812 109.28125 C 139.757812 103.289062 144.625 98.414062 150.613281 98.414062 L 227.269531 98.414062 C 233.257812 98.414062 238.128906 103.289062 238.128906 109.28125 C 238.128906 115.269531 233.257812 120.140625 227.269531 120.140625 L 223.761719 120.140625 C 220.773438 120.140625 218.355469 122.5625 218.355469 125.550781 L 218.355469 168.09375 C 218.355469 170.246094 219.632812 172.1875 221.601562 173.046875 C 251.429688 186.070312 270.695312 215.472656 270.695312 247.960938 C 270.695312 293.023438 234.019531 329.6875 188.9375 329.6875 Z M 179.230469 66.457031 C 179.230469 54.796875 188.726562 45.308594 200.386719 45.308594 C 212.050781 45.308594 221.535156 54.796875 221.535156 66.457031 C 221.535156 78.113281 212.050781 87.601562 200.386719 87.601562 C 188.726562 87.601562 179.230469 78.113281 179.230469 66.457031 Z M 229.171875 164.632812 L 229.171875 130.871094 C 240.242188 129.90625 248.945312 120.59375 248.945312 109.28125 C 248.945312 97.328125 239.21875 87.601562 227.269531 87.601562 L 224.171875 87.601562 C 229.199219 81.953125 232.351562 74.59375 232.351562 66.457031 C 232.351562 48.832031 218.019531 34.496094 200.386719 34.496094 C 182.757812 34.496094 168.414062 48.832031 168.414062 66.457031 C 168.414062 74.59375 171.566406 81.953125 176.597656 87.601562 L 150.613281 87.601562 C 138.667969 87.601562 128.9375 97.328125 128.9375 109.28125 C 128.9375 120.773438 137.929688 130.207031 149.253906 130.914062 L 149.253906 164.347656 C 117.011719 179.640625 96.375 212.078125 96.375 247.960938 C 96.375 298.984375 137.898438 340.503906 188.9375 340.503906 C 239.980469 340.503906 281.511719 298.984375 281.511719 247.960938 C 281.511719 212.367188 261.085938 180.042969 229.171875 164.632812 " fill-opacity="1" fill-rule="nonzero"/></g><path fill="#fdfdfe" d="M 192.136719 198.265625 C 199.25 198.265625 205.035156 204.050781 205.035156 211.171875 C 205.035156 218.28125 199.25 224.070312 192.136719 224.070312 C 185.019531 224.070312 179.230469 218.28125 179.230469 211.171875 C 179.230469 204.050781 185.019531 198.265625 192.136719 198.265625 Z M 192.136719 234.882812 C 205.214844 234.882812 215.851562 224.242188 215.851562 211.171875 C 215.851562 198.089844 205.214844 187.453125 192.136719 187.453125 C 179.058594 187.453125 168.414062 198.089844 168.414062 211.171875 C 168.414062 224.242188 179.058594 234.882812 192.136719 234.882812 " fill-opacity="1" fill-rule="nonzero"/><path fill="#fdfdfe" d="M 188.9375 296.125 C 163.691406 296.125 142.914062 276.609375 140.9375 251.882812 L 236.957031 251.882812 C 234.949219 276.613281 214.179688 296.125 188.9375 296.125 Z M 242.375 241.070312 L 135.507812 241.070312 C 132.617188 241.070312 130.207031 243.441406 130.082031 246.339844 C 130.046875 246.609375 129.945312 247.6875 129.945312 247.960938 C 129.945312 280.480469 156.40625 306.9375 188.9375 306.9375 C 221.472656 306.9375 247.933594 280.480469 247.933594 247.960938 C 247.933594 247.421875 247.878906 246.90625 247.785156 246.25 C 247.65625 243.355469 245.269531 241.070312 242.375 241.070312 " fill-opacity="1" fill-rule="nonzero"/></svg>