<svg xmlns="http://www.w3.org/2000/svg" xmlns:xlink="http://www.w3.org/1999/xlink" width="500" zoomAndPan="magnify" viewBox="0 0 375 374.999991" height="500" preserveAspectRatio="xMidYMid meet" version="1.0"><defs><clipPath id="61b31d2586"><path d="M 187.5 0 C 83.945312 0 0 83.945312 0 187.5 C 0 291.054688 83.945312 375 187.5 375 C 291.054688 375 375 291.054688 375 187.5 C 375 83.945312 291.054688 0 187.5 0 Z M 187.5 0 " clip-rule="nonzero"/></clipPath><clipPath id="f03362d6bb"><path d="M 45.5 45.5 L 329.5 45.5 L 329.5 329.5 L 45.5 329.5 Z M 45.5 45.5 " clip-rule="nonzero"/></clipPath><clipPath id="a32b648d21"><path d="M 187.5 45.5 C 109.074219 45.5 45.5 109.074219 45.5 187.5 C 45.5 265.925781 109.074219 329.5 187.5 329.5 C 265.925781 329.5 329.5 265.925781 329.5 187.5 C 329.5 109.074219 265.925781 45.5 187.5 45.5 Z M 187.5 45.5 " clip-rule="nonzero"/></clipPath><clipPath id="ea2ccf0bc0"><path d="M 104.03125 143.050781 L 267.414062 143.050781 L 267.414062 228.632812 L 104.03125 228.632812 Z M 104.03125 143.050781 " clip-rule="nonzero"/></clipPath></defs><g clip-path="url(#61b31d2586)"><rect x="-37.5" width="450" fill="#233c4b" y="-37.499999" height="449.999989" fill-opacity="1"/></g><g clip-path="url(#f03362d6bb)"><g clip-path="url(#a32b648d21)"><path fill="#ffffff" d="M 45.5 45.5 L 329.5 45.5 L 329.5 329.5 L 45.5 329.5 Z M 45.5 45.5 " fill-opacity="1" fill-rule="nonzero"/></g></g><g clip-path="url(#ea2ccf0bc0)"><path fill="#233c4b" d="M 270.792969 213.402344 C 270.792969 223.601562 262.480469 231.914062 252.28125 231.914062 L 122.6875 231.914062 C 112.484375 231.914062 104.175781 223.601562 104.175781 213.402344 C 104.175781 203.203125 112.484375 194.890625 122.6875 194.890625 L 252.28125 194.890625 C 262.480469 194.890625 270.792969 203.203125 270.792969 213.402344 Z M 122.6875 180.078125 L 252.28125 180.078125 C 262.480469 180.078125 270.792969 171.765625 270.792969 161.566406 C 270.792969 151.363281 262.480469 143.050781 252.28125 143.050781 L 122.6875 143.050781 C 112.484375 143.050781 104.175781 151.363281 104.175781 161.566406 C 104.175781 171.765625 112.484375 180.078125 122.6875 180.078125 Z M 122.6875 180.078125 " fill-opacity="1" fill-rule="nonzero"/></g></svg>