<?xml version="1.0" encoding="UTF-8" standalone="no"?>
<svg
   width="508.97202"
   zoomAndPan="magnify"
   viewBox="0 0 381.72901 121.58729"
   height="162.11639"
   preserveAspectRatio="xMidYMid"
   version="1.0"
   id="svg11"
   xmlns="http://www.w3.org/2000/svg"
   xmlns:svg="http://www.w3.org/2000/svg">
  <defs
     id="defs5">
    <clipPath
       id="344138332c">
      <path
         d="M 306,259 H 689 V 382 H 306 Z m 0,0"
         clip-rule="nonzero"
         id="path2" />
    </clipPath>
    <clipPath
       id="5952f2bb3a">
      <path
         d="M 718.19922,298.85156 499.00391,508.91406 302.42578,303.78906 521.62109,93.726562 Z m 0,0"
         clip-rule="nonzero"
         id="path3" />
    </clipPath>
    <clipPath
       id="2778bfa93b">
      <path
         d="M 718.19922,298.85156 499.00391,508.91406 302.42578,303.78906 521.62109,93.726562 Z m 0,0"
         clip-rule="nonzero"
         id="path4" />
    </clipPath>
    <clipPath
       id="81ccd3393f">
      <path
         d="M 716.92578,300.1875 499.16016,508.87891 302.56641,303.73437 520.32812,95.046875 Z m 0,0"
         clip-rule="nonzero"
         id="path5" />
    </clipPath>
  </defs>
  <g
     clip-path="url(#344138332c)"
     id="g11"
     transform="translate(-306.51172,-259.48859)">
    <g
       clip-path="url(#5952f2bb3a)"
       id="g10">
      <g
         clip-path="url(#2778bfa93b)"
         id="g9">
        <g
           clip-path="url(#81ccd3393f)"
           id="g8">
          <path
             fill="#a7b1b7"
             d="m 457.63672,378.40234 c 52.1875,7.16407 106.33594,-0.13281 156.58984,-21.1289 l 1.21485,-0.5 12.34765,18.50781 c 1.26953,1.88281 3.42969,2.95312 5.6875,2.8125 2.27344,-0.15234 4.28516,-1.50391 5.27735,-3.52734 l 48.83203,-98.95704 c 1.0039,-2.03515 0.84375,-4.4414 -0.41407,-6.33593 -1.26562,-1.88282 -3.42968,-2.95313 -5.69921,-2.80078 l -110.10547,7.17187 c -2.26172,0.16406 -4.26953,1.49219 -5.27344,3.52734 -1.00391,2.03516 -0.85547,4.45313 0.41406,6.33594 l 11.5,17.21875 -1.92578,0.6836 c -78.90625,28.13281 -163.38281,12.72656 -220.44922,-40.22657 -2.46484,-2.28515 -6.27344,-2.2539 -8.70312,0.0586 l -38.45313,36.82812 c -1.25781,1.20703 -1.96875,2.87891 -1.96484,4.60938 0.004,1.75 0.73047,3.41406 2.01172,4.60156 40.70312,38.24609 93.65625,63.49609 149.11328,71.12109 z m 0,0"
             fill-opacity="1"
             fill-rule="nonzero"
             id="path8" />
        </g>
      </g>
    </g>
  </g>
</svg>
