<svg xmlns="http://www.w3.org/2000/svg" xmlns:xlink="http://www.w3.org/1999/xlink" width="500" zoomAndPan="magnify" viewBox="0 0 375 374.999991" height="500" preserveAspectRatio="xMidYMid meet" version="1.0"><defs><filter x="0%" y="0%" width="100%" height="100%" id="658ad27e00"><feColorMatrix values="0 0 0 0 1 0 0 0 0 1 0 0 0 0 1 0 0 0 1 0" color-interpolation-filters="sRGB"/></filter><clipPath id="2fd229a2a1"><path d="M 187.5 0 C 83.945312 0 0 83.945312 0 187.5 C 0 291.054688 83.945312 375 187.5 375 C 291.054688 375 375 291.054688 375 187.5 C 375 83.945312 291.054688 0 187.5 0 Z M 187.5 0 " clip-rule="nonzero"/></clipPath><mask id="7786241916"><g filter="url(#658ad27e00)"><rect x="-37.5" width="450" fill="#000000" y="-37.499999" height="449.999989" fill-opacity="0.95"/></g></mask><clipPath id="8cf2226724"><path d="M 0 0 L 375 0 L 375 375 L 0 375 Z M 0 0 " clip-rule="nonzero"/></clipPath><clipPath id="894d566fdc"><path d="M 187.5 0 C 83.945312 0 0 83.945312 0 187.5 C 0 291.054688 83.945312 375 187.5 375 C 291.054688 375 375 291.054688 375 187.5 C 375 83.945312 291.054688 0 187.5 0 Z M 187.5 0 " clip-rule="nonzero"/></clipPath><clipPath id="1290c4eba1"><rect x="0" width="375" y="0" height="375"/></clipPath><clipPath id="364c2722b5"><path d="M 61.164062 277 L 177 277 L 177 296 L 61.164062 296 Z M 61.164062 277 " clip-rule="nonzero"/></clipPath><clipPath id="5750ee9b57"><path d="M 61.164062 227 L 138 227 L 138 246 L 61.164062 246 Z M 61.164062 227 " clip-rule="nonzero"/></clipPath><clipPath id="93a9d71f80"><path d="M 61.164062 178 L 197 178 L 197 197 L 61.164062 197 Z M 61.164062 178 " clip-rule="nonzero"/></clipPath><clipPath id="76a6264e50"><path d="M 61.164062 129 L 197 129 L 197 148 L 61.164062 148 Z M 61.164062 129 " clip-rule="nonzero"/></clipPath><clipPath id="98fec00b90"><path d="M 61.164062 79 L 197 79 L 197 98 L 61.164062 98 Z M 61.164062 79 " clip-rule="nonzero"/></clipPath><clipPath id="d4dafbcafc"><path d="M 155 225 L 313 225 L 313 313.914062 L 155 313.914062 Z M 155 225 " clip-rule="nonzero"/></clipPath><clipPath id="d63fb88bb7"><path d="M 225 61.164062 L 243 61.164062 L 243 313.914062 L 225 313.914062 Z M 225 61.164062 " clip-rule="nonzero"/></clipPath></defs><g clip-path="url(#2fd229a2a1)"><rect x="-37.5" width="450" fill="#ffffff" y="-37.499999" height="449.999989" fill-opacity="1"/></g><g mask="url(#7786241916)"><g transform="matrix(1, 0, 0, 1, 0, 0)"><g clip-path="url(#1290c4eba1)"><g clip-path="url(#8cf2226724)"><g clip-path="url(#894d566fdc)"><rect x="-82.5" width="540" fill="#233c4b" height="539.999987" y="-82.499998" fill-opacity="1"/></g></g></g></g></g><g clip-path="url(#364c2722b5)"><path fill="#fffff9" d="M 70.15625 295.402344 L 167.378906 295.402344 C 172.347656 295.402344 176.371094 291.378906 176.371094 286.410156 C 176.371094 281.4375 172.347656 277.417969 167.378906 277.417969 L 70.15625 277.417969 C 65.191406 277.417969 61.164062 281.4375 61.164062 286.410156 C 61.164062 291.378906 65.191406 295.402344 70.15625 295.402344 Z M 70.15625 295.402344 " fill-opacity="1" fill-rule="nonzero"/></g><g clip-path="url(#5750ee9b57)"><path fill="#fffff9" d="M 70.15625 245.945312 L 128.605469 245.945312 C 133.570312 245.945312 137.59375 241.925781 137.59375 236.953125 C 137.59375 231.984375 133.570312 227.960938 128.605469 227.960938 L 70.15625 227.960938 C 65.191406 227.960938 61.164062 231.984375 61.164062 236.953125 C 61.164062 241.925781 65.191406 245.945312 70.15625 245.945312 Z M 70.15625 245.945312 " fill-opacity="1" fill-rule="nonzero"/></g><g clip-path="url(#93a9d71f80)"><path fill="#fffff9" d="M 70.15625 196.492188 L 187.050781 196.492188 C 192.015625 196.492188 196.042969 192.46875 196.042969 187.5 C 196.042969 182.53125 192.015625 178.507812 187.050781 178.507812 L 70.15625 178.507812 C 65.191406 178.507812 61.164062 182.53125 61.164062 187.5 C 61.164062 192.46875 65.191406 196.492188 70.15625 196.492188 Z M 70.15625 196.492188 " fill-opacity="1" fill-rule="nonzero"/></g><g clip-path="url(#76a6264e50)"><path fill="#fffff9" d="M 70.15625 147.035156 L 187.050781 147.035156 C 192.015625 147.035156 196.042969 143.015625 196.042969 138.046875 C 196.042969 133.074219 192.015625 129.054688 187.050781 129.054688 L 70.15625 129.054688 C 65.191406 129.054688 61.164062 133.074219 61.164062 138.046875 C 61.164062 143.015625 65.191406 147.035156 70.15625 147.035156 Z M 70.15625 147.035156 " fill-opacity="1" fill-rule="nonzero"/></g><g clip-path="url(#98fec00b90)"><path fill="#fffff9" d="M 70.15625 97.582031 L 187.050781 97.582031 C 192.015625 97.582031 196.042969 93.558594 196.042969 88.589844 C 196.042969 83.621094 192.015625 79.597656 187.050781 79.597656 L 70.15625 79.597656 C 65.191406 79.597656 61.164062 83.621094 61.164062 88.589844 C 61.164062 93.558594 65.191406 97.582031 70.15625 97.582031 Z M 70.15625 97.582031 " fill-opacity="1" fill-rule="nonzero"/></g><g clip-path="url(#d4dafbcafc)"><path fill="#fffff9" d="M 234.003906 313.382812 C 236.386719 313.382812 238.671875 312.4375 240.359375 310.75 L 310.300781 240.808594 C 313.8125 237.296875 313.8125 231.605469 310.300781 228.09375 C 306.789062 224.582031 301.097656 224.582031 297.585938 228.09375 L 234.003906 291.675781 L 170.421875 228.09375 C 166.910156 224.582031 161.222656 224.582031 157.707031 228.09375 C 154.195312 231.605469 154.195312 237.296875 157.707031 240.808594 L 227.644531 310.75 C 229.332031 312.4375 231.617188 313.382812 234.003906 313.382812 Z M 234.003906 313.382812 " fill-opacity="1" fill-rule="nonzero"/></g><g clip-path="url(#d63fb88bb7)"><path fill="#fffff9" d="M 234.003906 313.382812 C 238.96875 313.382812 242.992188 309.363281 242.992188 304.390625 L 242.992188 70.605469 C 242.992188 65.636719 238.96875 61.617188 234.003906 61.617188 C 229.035156 61.617188 225.011719 65.636719 225.011719 70.605469 L 225.011719 304.390625 C 225.011719 309.363281 229.035156 313.382812 234.003906 313.382812 Z M 234.003906 313.382812 " fill-opacity="1" fill-rule="nonzero"/></g></svg>