<svg xmlns="http://www.w3.org/2000/svg" xmlns:xlink="http://www.w3.org/1999/xlink" width="500" zoomAndPan="magnify" viewBox="0 0 375 374.999991" height="500" preserveAspectRatio="xMidYMid meet" version="1.0"><defs><clipPath id="02d68acebe"><path d="M 15.054688 55 L 301 55 L 301 368 L 15.054688 368 Z M 15.054688 55 " clip-rule="nonzero"/></clipPath><clipPath id="d7b87eafe0"><path d="M 62 6.242188 L 360 6.242188 L 360 306 L 62 306 Z M 62 6.242188 " clip-rule="nonzero"/></clipPath></defs><g clip-path="url(#02d68acebe)"><path fill="#000000" d="M 286.417969 366.808594 C 286.289062 366.925781 286.15625 367.03125 286.019531 367.132812 C 285.792969 367.296875 285.554688 367.433594 285.300781 367.546875 C 285.050781 367.664062 284.789062 367.75 284.519531 367.8125 C 284.25 367.878906 283.976562 367.914062 283.699219 367.921875 C 283.421875 367.933594 283.148438 367.914062 282.875 367.871094 C 282.601562 367.824219 282.335938 367.753906 282.074219 367.65625 C 281.816406 367.558594 281.566406 367.4375 281.332031 367.292969 C 281.097656 367.144531 280.878906 366.980469 280.675781 366.789062 C 280.472656 366.601562 280.289062 366.394531 280.128906 366.167969 C 262.824219 342.027344 271.203125 321.207031 280.082031 299.171875 C 286.851562 282.378906 293.84375 265.015625 290.898438 243.8125 C 289.394531 232.992188 285.472656 225.550781 278.917969 221.050781 C 263.421875 210.429688 234.792969 217.1875 207.101562 223.710938 C 200.164062 225.351562 192.984375 227.042969 186.1875 228.371094 C 169.089844 231.808594 155.421875 228.933594 145.589844 219.816406 C 131.421875 206.722656 129.878906 184.609375 131.195312 173.617188 C 131.996094 166.960938 135.03125 159.390625 138.515625 150.601562 C 145.351562 133.519531 153.824219 112.253906 149.578125 88.085938 C 148.121094 79.851562 144.105469 73.886719 137.3125 69.851562 C 119.070312 59.039062 86.445312 65.589844 71.738281 70.5625 C 49.527344 78.074219 20.492188 76.253906 19.292969 76.167969 C 19.019531 76.144531 18.753906 76.097656 18.492188 76.019531 C 18.226562 75.945312 17.976562 75.84375 17.730469 75.71875 C 17.488281 75.59375 17.261719 75.449219 17.046875 75.277344 C 16.832031 75.109375 16.632812 74.921875 16.457031 74.714844 C 16.277344 74.507812 16.121094 74.285156 15.988281 74.046875 C 15.851562 73.808594 15.742188 73.558594 15.65625 73.300781 C 15.566406 73.039062 15.507812 72.773438 15.472656 72.503906 C 15.4375 72.230469 15.429688 71.960938 15.445312 71.6875 C 15.464844 71.414062 15.507812 71.144531 15.578125 70.882812 C 15.648438 70.617188 15.742188 70.363281 15.863281 70.117188 C 15.984375 69.871094 16.125 69.636719 16.289062 69.421875 C 16.453125 69.203125 16.640625 69 16.84375 68.820312 C 17.046875 68.636719 17.265625 68.476562 17.5 68.335938 C 17.734375 68.195312 17.980469 68.082031 18.238281 67.988281 C 18.496094 67.894531 18.761719 67.832031 19.03125 67.789062 C 19.300781 67.75 19.574219 67.734375 19.847656 67.746094 C 20.132812 67.746094 48.464844 69.53125 69.035156 62.5625 C 86.1875 56.761719 120.78125 50.238281 141.613281 62.5625 C 150.53125 67.847656 156.007812 75.9375 157.890625 86.59375 C 162.550781 113.125 153.585938 135.628906 146.355469 153.710938 C 143.0625 161.949219 140.21875 169.058594 139.554688 174.597656 C 138.097656 186.792969 141.144531 204.199219 151.300781 213.585938 C 159.054688 220.757812 170.234375 222.90625 184.53125 220.070312 C 191.1875 218.738281 198.292969 217.054688 205.164062 215.410156 C 234.640625 208.453125 265.113281 201.261719 283.695312 213.992188 C 292.207031 219.824219 297.453125 229.4375 299.269531 242.558594 C 302.523438 265.988281 294.769531 285.242188 287.953125 302.234375 C 279.304688 323.773438 272.429688 340.78125 287.023438 361.148438 C 287.335938 361.574219 287.558594 362.039062 287.695312 362.546875 C 287.832031 363.054688 287.875 363.574219 287.816406 364.097656 C 287.761719 364.621094 287.613281 365.113281 287.371094 365.582031 C 287.128906 366.050781 286.8125 366.460938 286.417969 366.808594 Z M 286.417969 366.808594 " fill-opacity="1" fill-rule="nonzero"/></g><g clip-path="url(#d7b87eafe0)"><path fill="#000000" d="M 357.863281 303.378906 L 357.757812 303.480469 C 357.546875 303.660156 357.320312 303.816406 357.078125 303.953125 C 356.835938 304.089844 356.585938 304.203125 356.320312 304.289062 C 356.058594 304.375 355.789062 304.433594 355.515625 304.46875 C 355.238281 304.5 354.964844 304.507812 354.6875 304.484375 C 354.410156 304.464844 354.140625 304.417969 353.871094 304.34375 C 353.605469 304.269531 353.347656 304.167969 353.101562 304.042969 C 352.855469 303.917969 352.621094 303.769531 352.402344 303.597656 C 352.1875 303.425781 351.988281 303.238281 351.804688 303.027344 C 340.320312 289.671875 310.578125 294.089844 299.894531 296.960938 C 259.695312 310.371094 227.296875 307.914062 211.113281 290.183594 C 198.554688 276.457031 197.214844 255.136719 207.4375 231.695312 C 220.03125 202.808594 224.742188 164.871094 209.375 148.257812 C 200.246094 138.386719 184.945312 137.074219 163.914062 144.371094 C 122.410156 158.757812 90.378906 157.886719 73.714844 141.90625 C 65.136719 133.679688 56.835938 117.433594 66.035156 86.753906 C 82.480469 31.882812 78.839844 11.886719 78.796875 11.695312 C 78.742188 11.425781 78.710938 11.148438 78.707031 10.871094 C 78.707031 10.59375 78.730469 10.320312 78.78125 10.046875 C 78.832031 9.777344 78.90625 9.511719 79.011719 9.253906 C 79.113281 8.996094 79.242188 8.75 79.390625 8.519531 C 79.542969 8.285156 79.714844 8.070312 79.910156 7.875 C 80.101562 7.675781 80.316406 7.496094 80.542969 7.339844 C 80.773438 7.183594 81.011719 7.050781 81.269531 6.941406 C 81.523438 6.832031 81.785156 6.75 82.058594 6.691406 C 82.328125 6.636719 82.601562 6.605469 82.878906 6.601562 C 83.15625 6.597656 83.429688 6.621094 83.703125 6.675781 C 83.976562 6.726562 84.242188 6.800781 84.496094 6.90625 C 84.753906 7.007812 85 7.136719 85.230469 7.285156 C 85.464844 7.4375 85.679688 7.609375 85.878906 7.804688 C 86.074219 7.996094 86.253906 8.207031 86.410156 8.4375 C 86.566406 8.664062 86.699219 8.90625 86.808594 9.160156 C 86.917969 9.417969 87 9.679688 87.058594 9.949219 C 87.246094 10.804688 91.382812 31.582031 74.121094 89.179688 C 67.8125 110.222656 69.6875 126.347656 79.550781 135.78125 C 93.605469 149.257812 123.347656 149.472656 161.152344 136.363281 C 191.652344 125.78125 207.585938 133.859375 215.570312 142.5 C 234.207031 162.667969 228.441406 204.609375 215.179688 235.042969 C 206.347656 255.289062 207.140625 273.300781 217.34375 284.453125 C 231.21875 299.625 260.394531 301.234375 297.386719 288.867188 L 297.617188 288.796875 C 299.375 288.320312 340.910156 277.328125 358.226562 297.453125 C 358.410156 297.660156 358.570312 297.882812 358.707031 298.121094 C 358.84375 298.359375 358.957031 298.609375 359.046875 298.871094 C 359.136719 299.132812 359.199219 299.398438 359.234375 299.671875 C 359.273438 299.945312 359.28125 300.21875 359.265625 300.492188 C 359.25 300.765625 359.203125 301.039062 359.136719 301.304688 C 359.066406 301.570312 358.96875 301.828125 358.847656 302.074219 C 358.730469 302.320312 358.585938 302.554688 358.417969 302.773438 C 358.253906 302.996094 358.066406 303.195312 357.863281 303.378906 Z M 357.863281 303.378906 " fill-opacity="1" fill-rule="nonzero"/></g><path fill="#000000" d="M 121.011719 63.246094 L 69.1875 110.46875 C 68.984375 110.65625 68.761719 110.824219 68.527344 110.964844 C 68.289062 111.109375 68.039062 111.230469 67.78125 111.324219 C 67.519531 111.417969 67.253906 111.484375 66.976562 111.527344 C 66.703125 111.570312 66.429688 111.585938 66.152344 111.574219 C 65.875 111.558594 65.601562 111.519531 65.332031 111.453125 C 65.0625 111.386719 64.804688 111.296875 64.550781 111.179688 C 64.300781 111.0625 64.0625 110.921875 63.839844 110.757812 C 63.617188 110.59375 63.414062 110.410156 63.226562 110.203125 C 63.039062 110 62.871094 109.777344 62.730469 109.542969 C 62.585938 109.304688 62.46875 109.054688 62.371094 108.792969 C 62.277344 108.535156 62.210938 108.265625 62.167969 107.992188 C 62.125 107.71875 62.109375 107.441406 62.125 107.164062 C 62.136719 106.890625 62.175781 106.617188 62.242188 106.347656 C 62.308594 106.078125 62.398438 105.816406 62.515625 105.566406 C 62.632812 105.316406 62.773438 105.078125 62.9375 104.855469 C 63.101562 104.628906 63.285156 104.425781 63.492188 104.238281 L 115.308594 57.042969 C 115.515625 56.855469 115.734375 56.6875 115.972656 56.546875 C 116.207031 56.402344 116.457031 56.28125 116.71875 56.1875 C 116.976562 56.09375 117.246094 56.023438 117.519531 55.984375 C 117.792969 55.941406 118.066406 55.925781 118.34375 55.9375 C 118.621094 55.949219 118.894531 55.988281 119.164062 56.054688 C 119.433594 56.121094 119.691406 56.214844 119.941406 56.328125 C 120.195312 56.445312 120.429688 56.585938 120.65625 56.75 C 120.878906 56.914062 121.082031 57.097656 121.269531 57.304688 C 121.457031 57.507812 121.621094 57.726562 121.765625 57.964844 C 121.910156 58.203125 122.03125 58.449219 122.125 58.710938 C 122.21875 58.972656 122.289062 59.238281 122.328125 59.511719 C 122.371094 59.785156 122.386719 60.0625 122.375 60.339844 C 122.363281 60.613281 122.324219 60.886719 122.257812 61.15625 C 122.195312 61.425781 122.101562 61.6875 121.984375 61.9375 C 121.867188 62.1875 121.726562 62.425781 121.566406 62.648438 C 121.402344 62.875 121.21875 63.078125 121.011719 63.265625 Z M 121.011719 63.246094 " fill-opacity="1" fill-rule="nonzero"/><path fill="#000000" d="M 149.605469 75.351562 L 78.453125 140.894531 C 78.25 141.082031 78.027344 141.25 77.792969 141.394531 C 77.554688 141.539062 77.308594 141.660156 77.046875 141.753906 C 76.785156 141.847656 76.519531 141.917969 76.246094 141.960938 C 75.972656 142.003906 75.695312 142.019531 75.421875 142.007812 C 75.144531 141.996094 74.871094 141.957031 74.601562 141.894531 C 74.332031 141.828125 74.070312 141.738281 73.820312 141.621094 C 73.566406 141.503906 73.332031 141.363281 73.105469 141.199219 C 72.882812 141.039062 72.675781 140.855469 72.488281 140.648438 C 72.300781 140.445312 72.136719 140.226562 71.992188 139.988281 C 71.847656 139.753906 71.726562 139.503906 71.632812 139.242188 C 71.535156 138.984375 71.46875 138.714844 71.425781 138.441406 C 71.382812 138.167969 71.367188 137.894531 71.378906 137.617188 C 71.390625 137.339844 71.425781 137.066406 71.492188 136.796875 C 71.558594 136.527344 71.648438 136.265625 71.765625 136.015625 C 71.882812 135.761719 72.023438 135.527344 72.183594 135.300781 C 72.347656 135.078125 72.53125 134.871094 72.734375 134.683594 L 143.894531 69.136719 C 144.097656 68.949219 144.316406 68.785156 144.554688 68.636719 C 144.792969 68.492188 145.039062 68.375 145.300781 68.277344 C 145.5625 68.179688 145.828125 68.113281 146.101562 68.070312 C 146.375 68.027344 146.652344 68.007812 146.929688 68.019531 C 147.207031 68.03125 147.480469 68.070312 147.75 68.136719 C 148.019531 68.199219 148.28125 68.289062 148.53125 68.40625 C 148.785156 68.523438 149.023438 68.664062 149.246094 68.828125 C 149.46875 68.992188 149.675781 69.175781 149.863281 69.378906 C 150.050781 69.582031 150.21875 69.804688 150.363281 70.039062 C 150.507812 70.277344 150.628906 70.527344 150.722656 70.785156 C 150.820312 71.046875 150.886719 71.3125 150.929688 71.589844 C 150.972656 71.863281 150.988281 72.136719 150.976562 72.414062 C 150.96875 72.691406 150.929688 72.964844 150.863281 73.234375 C 150.796875 73.503906 150.707031 73.765625 150.589844 74.019531 C 150.472656 74.269531 150.332031 74.507812 150.167969 74.730469 C 150.007812 74.957031 149.820312 75.164062 149.617188 75.351562 Z M 149.605469 75.351562 " fill-opacity="1" fill-rule="nonzero"/><path fill="#000000" d="M 105.59375 152.875 C 105.390625 153.0625 105.171875 153.230469 104.933594 153.375 C 104.699219 153.519531 104.449219 153.640625 104.191406 153.738281 C 103.929688 153.835938 103.664062 153.90625 103.390625 153.949219 C 103.117188 153.996094 102.84375 154.011719 102.566406 154 C 102.289062 153.992188 102.015625 153.953125 101.746094 153.890625 C 101.476562 153.828125 101.214844 153.738281 100.960938 153.621094 C 100.710938 153.507812 100.472656 153.367188 100.246094 153.207031 C 100.023438 153.042969 99.816406 152.859375 99.625 152.65625 C 99.4375 152.453125 99.269531 152.234375 99.125 152 C 98.980469 151.761719 98.859375 151.515625 98.761719 151.253906 C 98.664062 150.996094 98.59375 150.726562 98.550781 150.453125 C 98.507812 150.179688 98.488281 149.90625 98.5 149.628906 C 98.507812 149.351562 98.546875 149.078125 98.609375 148.808594 C 98.671875 148.539062 98.761719 148.277344 98.878906 148.023438 C 98.992188 147.773438 99.132812 147.535156 99.296875 147.308594 C 99.457031 147.085938 99.640625 146.878906 99.84375 146.6875 L 152.054688 97.695312 C 152.464844 97.332031 152.929688 97.0625 153.449219 96.882812 C 153.964844 96.703125 154.496094 96.628906 155.042969 96.65625 C 155.589844 96.683594 156.113281 96.8125 156.609375 97.042969 C 157.105469 97.273438 157.542969 97.585938 157.917969 97.988281 C 158.292969 98.386719 158.578125 98.839844 158.773438 99.351562 C 158.972656 99.863281 159.066406 100.394531 159.058594 100.941406 C 159.050781 101.488281 158.941406 102.015625 158.726562 102.519531 C 158.515625 103.023438 158.214844 103.46875 157.832031 103.859375 L 105.621094 152.847656 Z M 105.59375 152.875 " fill-opacity="1" fill-rule="nonzero"/><path fill="#000000" d="M 195.414062 139.539062 L 138.402344 192.054688 C 138.199219 192.242188 137.980469 192.410156 137.742188 192.550781 C 137.507812 192.695312 137.257812 192.816406 136.996094 192.914062 C 136.738281 193.007812 136.472656 193.078125 136.195312 193.121094 C 135.921875 193.164062 135.648438 193.179688 135.371094 193.167969 C 135.09375 193.15625 134.820312 193.117188 134.550781 193.050781 C 134.28125 192.988281 134.023438 192.894531 133.769531 192.777344 C 133.519531 192.664062 133.28125 192.523438 133.058594 192.359375 C 132.835938 192.195312 132.628906 192.011719 132.441406 191.808594 C 132.253906 191.605469 132.085938 191.382812 131.941406 191.148438 C 131.796875 190.910156 131.679688 190.664062 131.582031 190.402344 C 131.488281 190.140625 131.417969 189.875 131.375 189.601562 C 131.332031 189.328125 131.316406 189.050781 131.328125 188.773438 C 131.339844 188.496094 131.378906 188.222656 131.445312 187.953125 C 131.507812 187.683594 131.601562 187.425781 131.714844 187.171875 C 131.832031 186.921875 131.972656 186.683594 132.136719 186.460938 C 132.300781 186.238281 132.484375 186.03125 132.6875 185.84375 L 189.691406 133.320312 C 189.890625 133.125 190.113281 132.949219 190.347656 132.796875 C 190.585938 132.644531 190.835938 132.519531 191.101562 132.417969 C 191.363281 132.316406 191.632812 132.242188 191.910156 132.191406 C 192.1875 132.144531 192.46875 132.125 192.75 132.132812 C 193.03125 132.140625 193.308594 132.175781 193.582031 132.242188 C 193.859375 132.304688 194.125 132.394531 194.378906 132.511719 C 194.636719 132.628906 194.878906 132.769531 195.105469 132.9375 C 195.335938 133.101562 195.542969 133.289062 195.734375 133.496094 C 195.925781 133.703125 196.09375 133.925781 196.242188 134.167969 C 196.386719 134.410156 196.507812 134.664062 196.601562 134.929688 C 196.699219 135.191406 196.765625 135.464844 196.808594 135.746094 C 196.847656 136.023438 196.863281 136.304688 196.847656 136.585938 C 196.832031 136.867188 196.789062 137.144531 196.71875 137.417969 C 196.648438 137.6875 196.550781 137.953125 196.429688 138.207031 C 196.304688 138.460938 196.15625 138.699219 195.988281 138.921875 C 195.816406 139.148438 195.625 139.351562 195.414062 139.539062 Z M 195.414062 139.539062 " fill-opacity="1" fill-rule="nonzero"/><path fill="#000000" d="M 219.691406 154.519531 L 150.0625 218.664062 C 149.859375 218.855469 149.640625 219.019531 149.402344 219.164062 C 149.167969 219.308594 148.917969 219.429688 148.65625 219.527344 C 148.398438 219.621094 148.128906 219.691406 147.855469 219.734375 C 147.582031 219.777344 147.304688 219.792969 147.027344 219.785156 C 146.75 219.773438 146.476562 219.734375 146.207031 219.667969 C 145.9375 219.605469 145.679688 219.511719 145.425781 219.398438 C 145.175781 219.28125 144.9375 219.140625 144.710938 218.976562 C 144.488281 218.8125 144.28125 218.628906 144.09375 218.425781 C 143.90625 218.222656 143.738281 218 143.59375 217.765625 C 143.449219 217.527344 143.332031 217.277344 143.234375 217.019531 C 143.140625 216.757812 143.070312 216.492188 143.027344 216.214844 C 142.984375 215.941406 142.96875 215.667969 142.980469 215.390625 C 142.992188 215.113281 143.03125 214.839844 143.09375 214.566406 C 143.160156 214.296875 143.25 214.039062 143.367188 213.785156 C 143.484375 213.535156 143.625 213.296875 143.789062 213.070312 C 143.953125 212.847656 144.136719 212.640625 144.339844 212.453125 L 213.976562 148.304688 C 214.179688 148.117188 214.398438 147.953125 214.636719 147.808594 C 214.871094 147.664062 215.121094 147.542969 215.378906 147.449219 C 215.640625 147.351562 215.90625 147.285156 216.179688 147.242188 C 216.453125 147.199219 216.730469 147.183594 217.007812 147.195312 C 217.285156 147.207031 217.558594 147.242188 217.828125 147.308594 C 218.097656 147.375 218.355469 147.464844 218.609375 147.582031 C 218.859375 147.699219 219.097656 147.839844 219.320312 148 C 219.542969 148.164062 219.75 148.347656 219.9375 148.550781 C 220.125 148.757812 220.292969 148.976562 220.4375 149.214844 C 220.582031 149.449219 220.699219 149.699219 220.796875 149.957031 C 220.890625 150.21875 220.960938 150.484375 221.003906 150.761719 C 221.046875 151.035156 221.0625 151.308594 221.050781 151.585938 C 221.039062 151.863281 221 152.136719 220.933594 152.40625 C 220.871094 152.675781 220.777344 152.9375 220.664062 153.1875 C 220.546875 153.4375 220.40625 153.675781 220.242188 153.898438 C 220.078125 154.125 219.894531 154.332031 219.691406 154.519531 Z M 219.691406 154.519531 " fill-opacity="1" fill-rule="nonzero"/><path fill="#000000" d="M 226.128906 182.875 L 176.398438 228.679688 C 176.195312 228.867188 175.976562 229.035156 175.738281 229.179688 C 175.5 229.324219 175.253906 229.445312 174.992188 229.539062 C 174.734375 229.636719 174.464844 229.703125 174.191406 229.746094 C 173.917969 229.792969 173.640625 229.808594 173.363281 229.796875 C 173.085938 229.785156 172.8125 229.746094 172.542969 229.679688 C 172.273438 229.617188 172.015625 229.523438 171.761719 229.410156 C 171.511719 229.292969 171.273438 229.152344 171.050781 228.988281 C 170.824219 228.824219 170.617188 228.640625 170.429688 228.4375 C 170.242188 228.234375 170.078125 228.011719 169.933594 227.777344 C 169.789062 227.539062 169.667969 227.289062 169.574219 227.027344 C 169.476562 226.769531 169.410156 226.5 169.367188 226.226562 C 169.324219 225.953125 169.308594 225.675781 169.320312 225.398438 C 169.332031 225.121094 169.371094 224.847656 169.433594 224.578125 C 169.5 224.308594 169.589844 224.050781 169.707031 223.796875 C 169.824219 223.546875 169.964844 223.308594 170.128906 223.085938 C 170.292969 222.859375 170.476562 222.65625 170.683594 222.46875 L 220.429688 176.660156 C 220.632812 176.472656 220.855469 176.308594 221.089844 176.164062 C 221.328125 176.019531 221.578125 175.898438 221.835938 175.804688 C 222.097656 175.707031 222.363281 175.640625 222.640625 175.597656 C 222.914062 175.554688 223.1875 175.539062 223.464844 175.550781 C 223.742188 175.5625 224.015625 175.601562 224.285156 175.664062 C 224.554688 175.730469 224.816406 175.824219 225.066406 175.9375 C 225.316406 176.054688 225.554688 176.195312 225.78125 176.359375 C 226.003906 176.523438 226.210938 176.707031 226.398438 176.910156 C 226.585938 177.117188 226.75 177.335938 226.894531 177.574219 C 227.039062 177.808594 227.160156 178.058594 227.253906 178.320312 C 227.347656 178.578125 227.417969 178.847656 227.460938 179.121094 C 227.503906 179.394531 227.519531 179.671875 227.507812 179.949219 C 227.496094 180.222656 227.457031 180.496094 227.390625 180.765625 C 227.328125 181.035156 227.234375 181.296875 227.117188 181.550781 C 227.003906 181.800781 226.863281 182.039062 226.699219 182.261719 C 226.535156 182.488281 226.351562 182.691406 226.148438 182.878906 Z M 226.128906 182.875 " fill-opacity="1" fill-rule="nonzero"/><path fill="#000000" d="M 264.574219 214.589844 L 208.449219 266.316406 C 208.246094 266.503906 208.027344 266.667969 207.789062 266.8125 C 207.554688 266.957031 207.304688 267.078125 207.046875 267.171875 C 206.785156 267.269531 206.519531 267.335938 206.242188 267.378906 C 205.96875 267.421875 205.695312 267.4375 205.417969 267.425781 C 205.140625 267.417969 204.867188 267.378906 204.597656 267.3125 C 204.328125 267.246094 204.070312 267.15625 203.816406 267.039062 C 203.566406 266.921875 203.328125 266.785156 203.105469 266.621094 C 202.882812 266.457031 202.675781 266.273438 202.488281 266.070312 C 202.300781 265.863281 202.132812 265.644531 201.988281 265.40625 C 201.84375 265.171875 201.726562 264.921875 201.628906 264.664062 C 201.535156 264.402344 201.464844 264.136719 201.421875 263.863281 C 201.378906 263.585938 201.363281 263.3125 201.375 263.035156 C 201.386719 262.757812 201.425781 262.484375 201.492188 262.214844 C 201.554688 261.945312 201.648438 261.6875 201.761719 261.433594 C 201.878906 261.183594 202.019531 260.945312 202.183594 260.722656 C 202.347656 260.496094 202.53125 260.292969 202.734375 260.105469 L 258.871094 208.378906 C 259.074219 208.191406 259.296875 208.027344 259.53125 207.882812 C 259.769531 207.738281 260.015625 207.617188 260.277344 207.523438 C 260.539062 207.425781 260.804688 207.355469 261.078125 207.3125 C 261.351562 207.269531 261.628906 207.253906 261.902344 207.265625 C 262.179688 207.277344 262.453125 207.316406 262.722656 207.382812 C 262.992188 207.449219 263.253906 207.539062 263.503906 207.65625 C 263.753906 207.769531 263.992188 207.910156 264.21875 208.074219 C 264.441406 208.238281 264.648438 208.421875 264.835938 208.625 C 265.023438 208.828125 265.1875 209.050781 265.332031 209.285156 C 265.476562 209.523438 265.597656 209.773438 265.691406 210.03125 C 265.789062 210.292969 265.855469 210.558594 265.898438 210.832031 C 265.941406 211.105469 265.957031 211.382812 265.945312 211.660156 C 265.933594 211.9375 265.898438 212.210938 265.832031 212.480469 C 265.765625 212.75 265.675781 213.007812 265.558594 213.261719 C 265.441406 213.511719 265.300781 213.75 265.140625 213.972656 C 264.976562 214.199219 264.792969 214.402344 264.589844 214.589844 Z M 264.574219 214.589844 " fill-opacity="1" fill-rule="nonzero"/><path fill="#000000" d="M 291.875 228.617188 L 220.875 294.023438 C 220.671875 294.210938 220.453125 294.378906 220.214844 294.523438 C 219.980469 294.667969 219.730469 294.789062 219.46875 294.882812 C 219.210938 294.976562 218.945312 295.046875 218.667969 295.089844 C 218.394531 295.132812 218.121094 295.148438 217.84375 295.136719 C 217.566406 295.125 217.292969 295.085938 217.023438 295.023438 C 216.753906 294.957031 216.496094 294.867188 216.242188 294.75 C 215.992188 294.632812 215.753906 294.492188 215.53125 294.328125 C 215.304688 294.167969 215.101562 293.984375 214.914062 293.777344 C 214.726562 293.574219 214.558594 293.355469 214.414062 293.117188 C 214.269531 292.882812 214.152344 292.632812 214.054688 292.371094 C 213.960938 292.113281 213.890625 291.84375 213.847656 291.570312 C 213.804688 291.296875 213.789062 291.023438 213.800781 290.746094 C 213.8125 290.46875 213.851562 290.195312 213.917969 289.925781 C 213.980469 289.65625 214.074219 289.394531 214.1875 289.144531 C 214.304688 288.894531 214.445312 288.65625 214.609375 288.429688 C 214.773438 288.207031 214.957031 288 215.160156 287.8125 L 286.15625 222.40625 C 286.363281 222.21875 286.582031 222.054688 286.820312 221.910156 C 287.054688 221.765625 287.304688 221.644531 287.5625 221.550781 C 287.824219 221.453125 288.089844 221.386719 288.363281 221.34375 C 288.636719 221.300781 288.914062 221.285156 289.191406 221.296875 C 289.46875 221.304688 289.742188 221.34375 290.011719 221.410156 C 290.277344 221.476562 290.539062 221.566406 290.792969 221.683594 C 291.042969 221.800781 291.28125 221.9375 291.503906 222.101562 C 291.726562 222.265625 291.933594 222.449219 292.121094 222.652344 C 292.308594 222.859375 292.476562 223.078125 292.621094 223.316406 C 292.761719 223.550781 292.882812 223.800781 292.980469 224.058594 C 293.074219 224.320312 293.144531 224.585938 293.1875 224.859375 C 293.230469 225.136719 293.246094 225.410156 293.234375 225.6875 C 293.222656 225.964844 293.183594 226.238281 293.117188 226.507812 C 293.054688 226.777344 292.960938 227.035156 292.84375 227.289062 C 292.730469 227.539062 292.589844 227.777344 292.425781 228 C 292.261719 228.226562 292.078125 228.429688 291.875 228.617188 Z M 291.875 228.617188 " fill-opacity="1" fill-rule="nonzero"/><path fill="#000000" d="M 298.65625 255.835938 L 246.480469 303.90625 C 246.273438 304.09375 246.054688 304.257812 245.816406 304.402344 C 245.582031 304.546875 245.332031 304.664062 245.074219 304.761719 C 244.8125 304.855469 244.546875 304.925781 244.269531 304.96875 C 243.996094 305.011719 243.722656 305.023438 243.445312 305.011719 C 243.167969 305 242.894531 304.964844 242.625 304.898438 C 242.355469 304.832031 242.097656 304.742188 241.84375 304.625 C 241.59375 304.507812 241.355469 304.367188 241.132812 304.203125 C 240.910156 304.039062 240.703125 303.855469 240.515625 303.652344 C 240.328125 303.449219 240.164062 303.226562 240.019531 302.992188 C 239.875 302.753906 239.753906 302.507812 239.660156 302.246094 C 239.5625 301.984375 239.496094 301.71875 239.453125 301.445312 C 239.410156 301.171875 239.394531 300.894531 239.40625 300.617188 C 239.417969 300.34375 239.453125 300.070312 239.519531 299.800781 C 239.585938 299.53125 239.675781 299.269531 239.792969 299.019531 C 239.910156 298.765625 240.046875 298.527344 240.210938 298.304688 C 240.375 298.082031 240.558594 297.875 240.761719 297.6875 L 292.972656 249.625 C 293.175781 249.4375 293.398438 249.269531 293.632812 249.125 C 293.871094 248.980469 294.117188 248.863281 294.378906 248.765625 C 294.640625 248.671875 294.90625 248.601562 295.179688 248.558594 C 295.453125 248.515625 295.730469 248.5 296.003906 248.511719 C 296.28125 248.523438 296.554688 248.5625 296.824219 248.628906 C 297.09375 248.691406 297.355469 248.785156 297.605469 248.898438 C 297.859375 249.015625 298.09375 249.15625 298.320312 249.320312 C 298.542969 249.484375 298.75 249.667969 298.9375 249.871094 C 299.125 250.074219 299.289062 250.296875 299.433594 250.53125 C 299.578125 250.769531 299.699219 251.015625 299.792969 251.277344 C 299.890625 251.539062 299.957031 251.804688 300 252.078125 C 300.042969 252.351562 300.058594 252.628906 300.046875 252.90625 C 300.035156 253.179688 300 253.453125 299.933594 253.722656 C 299.867188 253.992188 299.777344 254.253906 299.660156 254.503906 C 299.542969 254.757812 299.402344 254.996094 299.242188 255.21875 C 299.078125 255.441406 298.894531 255.648438 298.691406 255.835938 Z M 298.65625 255.835938 " fill-opacity="1" fill-rule="nonzero"/></svg>