<svg xmlns="http://www.w3.org/2000/svg" xmlns:xlink="http://www.w3.org/1999/xlink" width="500" zoomAndPan="magnify" viewBox="0 0 375 374.999991" height="500" preserveAspectRatio="xMidYMid meet" version="1.0"><defs><clipPath id="31efa55105"><path d="M 92.234375 123 L 252 123 L 252 282.734375 L 92.234375 282.734375 Z M 92.234375 123 " clip-rule="nonzero"/></clipPath><clipPath id="3adbf3000c"><path d="M 195 92.234375 L 282.734375 92.234375 L 282.734375 180 L 195 180 Z M 195 92.234375 " clip-rule="nonzero"/></clipPath></defs><g clip-path="url(#31efa55105)"><path fill="#233c4b" d="M 217.046875 230.605469 L 251.183594 175.421875 L 225.414062 149.648438 L 199.640625 123.875 L 144.453125 158.015625 C 139.054688 161.386719 135.144531 166.515625 133.523438 172.585938 C 121.246094 218.328125 103.839844 254.761719 93.042969 274.863281 C 92.503906 275.945312 92.234375 277.023438 92.371094 278.101562 L 163.480469 206.996094 C 161.183594 202.675781 161.726562 197.144531 165.367188 193.5 C 169.820312 189.046875 176.972656 189.046875 181.425781 193.5 C 185.878906 197.953125 185.878906 205.105469 181.425781 209.558594 C 177.78125 213.203125 172.25 213.875 167.933594 211.445312 L 96.957031 282.554688 C 98.035156 282.691406 99.117188 282.554688 100.195312 281.882812 C 120.164062 271.085938 156.730469 253.679688 202.472656 241.402344 C 208.546875 239.917969 213.808594 236.003906 217.046875 230.605469 Z M 217.046875 230.605469 " fill-opacity="1" fill-rule="nonzero"/></g><g clip-path="url(#3adbf3000c)"><path fill="#233c4b" d="M 262.652344 177.578125 L 197.480469 112.40625 C 195.1875 110.113281 195.1875 106.335938 197.480469 104.042969 L 206.925781 94.597656 C 209.222656 92.300781 213 92.300781 215.292969 94.597656 L 280.464844 159.769531 C 282.757812 162.0625 282.757812 165.839844 280.464844 168.132812 L 271.019531 177.578125 C 268.726562 179.875 264.949219 179.875 262.652344 177.578125 Z M 262.652344 177.578125 " fill-opacity="1" fill-rule="nonzero"/></g></svg>