<svg width="80" height="80" viewBox="0 0 24 24" fill="none"
	xmlns="http://www.w3.org/2000/svg" transform="rotate(0 0 0)">
	<path fill-rule="evenodd" clip-rule="evenodd" d="M10.9453 20.5C11.3327 21.0667 11.8027 21.5725 12.338 22H6.75C5.50736 22 4.5 20.9926 4.5 19.75V9.62105C4.5 9.02455 4.73686 8.45247 5.15851 8.03055L10.5262 2.65951C10.9482 2.23725 11.5207 2 12.1177 2H17.25C18.4926 2 19.5 3.00736 19.5 4.25V10.3782C19.0266 10.1599 18.5241 9.99391 18 9.88753V4.25C18 3.83579 17.6642 3.5 17.25 3.5H12.248L12.2509 7.4984C12.2518 8.74166 11.2442 9.75 10.0009 9.75H6V19.75C6 20.1642 6.33579 20.5 6.75 20.5H10.9453ZM10.7488 4.55876L7.05986 8.25H10.0009C10.4153 8.25 10.7512 7.91389 10.7509 7.49947L10.7488 4.55876Z" fill="#ffffff"></path>
	<path d="M16.625 12L16.9097 11.3061C16.7273 11.2313 16.5228 11.2313 16.3404 11.3061L16.625 12Z" fill="#ffffff"></path>
	<path fill-rule="evenodd" clip-rule="evenodd" d="M16.625 12C16.3404 11.3061 16.3407 11.306 16.3404 11.3061L16.3391 11.3067L16.3374 11.3073L16.3331 11.3091L16.3203 11.3145C16.31 11.3189 16.2963 11.3249 16.2792 11.3324C16.2451 11.3475 16.1977 11.3691 16.1391 11.3972C16.022 11.4535 15.8591 11.5364 15.6656 11.6473C15.2801 11.8684 14.7649 12.2056 14.2471 12.6717C13.2123 13.603 12.1226 15.0941 12.1226 17.2151C12.1226 19.8052 14.0882 21.999 16.625 21.999C19.1618 21.999 21.1275 19.8052 21.1275 17.2151C21.1275 15.0941 20.0378 13.603 19.003 12.6717C18.4852 12.2056 17.97 11.8684 17.5845 11.6473C17.3909 11.5364 17.228 11.4535 17.1109 11.3972C17.0523 11.3691 17.005 11.3475 16.9709 11.3324C16.9538 11.3249 16.94 11.3189 16.9297 11.3145L16.917 11.3091L16.9126 11.3073L16.911 11.3067C16.9107 11.3065 16.9097 11.3061 16.625 12ZM16.8382 12.9486C16.7597 12.9035 16.688 12.8645 16.625 12.8316C16.562 12.8645 16.4904 12.9035 16.4118 12.9486C16.0937 13.131 15.6708 13.4083 15.2505 13.7866C14.4091 14.5439 13.6226 15.6603 13.6226 17.2151C13.6226 18.7825 14.6068 20.0341 15.875 20.3942V16.5093C15.875 16.0951 16.2108 15.7593 16.625 15.7593C17.0392 15.7593 17.375 16.0951 17.375 16.5093V20.3942C18.6433 20.0341 19.6275 18.7825 19.6275 17.2151C19.6275 15.6603 18.841 14.5439 17.9995 13.7866C17.5792 13.4083 17.1563 13.131 16.8382 12.9486Z" fill="#ffffff"></path>
</svg>