<svg xmlns="http://www.w3.org/2000/svg" xmlns:xlink="http://www.w3.org/1999/xlink" width="500" zoomAndPan="magnify" viewBox="0 0 375 374.999991" height="500" preserveAspectRatio="xMidYMid meet" version="1.2"><defs><clipPath id="f4d6be0330"><path d="M 97 111 L 303.75 111 L 303.75 307 L 97 307 Z M 97 111 "/></clipPath><clipPath id="af9276df49"><path d="M 73.5 202 L 162 202 L 162 215 L 73.5 215 Z M 73.5 202 "/></clipPath><clipPath id="61474be8d1"><path d="M 108 294 L 293 294 L 293 337.5 L 108 337.5 Z M 108 294 "/></clipPath><clipPath id="d9e116e6ca"><path d="M 208 37.5 L 251 37.5 L 251 80 L 208 80 Z M 208 37.5 "/></clipPath></defs><g id="efe70d47b4"><g clip-rule="nonzero" clip-path="url(#f4d6be0330)"><path style=" stroke:none;fill-rule:nonzero;fill:#000000;fill-opacity:1;" d="M 170.300781 294.183594 L 230.867188 294.183594 C 267.164062 281.421875 291.480469 247.117188 291.480469 208.5 C 291.480469 172.992188 270.730469 140.925781 239.046875 126.15625 C 238.386719 131.097656 236.601562 135.792969 233.863281 139.910156 C 259.90625 152.511719 276.875 179.074219 276.875 208.5 C 276.875 250.566406 242.652344 284.789062 200.585938 284.789062 C 160.570312 284.789062 127.652344 253.769531 124.582031 214.503906 L 109.890625 214.503906 C 112.257812 250.632812 135.898438 282.089844 170.300781 294.183594 Z M 231.878906 306.183594 L 169.292969 306.183594 C 168.640625 306.183594 167.984375 306.082031 167.363281 305.867188 C 125.691406 291.714844 97.695312 252.578125 97.695312 208.5 C 97.695312 205.183594 100.378906 202.496094 103.691406 202.496094 L 130.347656 202.496094 C 133.664062 202.496094 136.351562 205.183594 136.351562 208.5 C 136.351562 243.949219 165.167969 272.789062 200.585938 272.789062 C 236.03125 272.789062 264.875 243.949219 264.875 208.5 C 264.875 181.230469 247.574219 156.878906 221.832031 147.890625 C 219.792969 147.183594 218.296875 145.433594 217.90625 143.308594 C 217.519531 141.1875 218.296875 139.019531 219.945312 137.632812 C 224.640625 133.6875 227.332031 127.921875 227.332031 121.816406 C 227.332031 120.59375 227.207031 119.375 227.007812 118.195312 C 226.644531 116.097656 227.417969 113.96875 229.050781 112.59375 C 230.671875 111.214844 232.902344 110.8125 234.914062 111.519531 C 275.925781 125.984375 303.480469 164.957031 303.480469 208.5 C 303.480469 252.578125 275.484375 291.714844 233.808594 305.867188 C 233.183594 306.082031 232.535156 306.183594 231.878906 306.183594 "/></g><g clip-rule="nonzero" clip-path="url(#af9276df49)"><path style=" stroke:none;fill-rule:nonzero;fill:#000000;fill-opacity:1;" d="M 155.742188 214.503906 L 79.773438 214.503906 C 76.460938 214.503906 73.773438 211.820312 73.773438 208.5 C 73.773438 205.183594 76.460938 202.496094 79.773438 202.496094 L 155.742188 202.496094 C 159.058594 202.496094 161.746094 205.183594 161.746094 208.5 C 161.746094 211.820312 159.058594 214.503906 155.742188 214.503906 "/></g><g clip-rule="nonzero" clip-path="url(#61474be8d1)"><path style=" stroke:none;fill-rule:nonzero;fill:#000000;fill-opacity:1;" d="M 120.210938 325.578125 L 280.960938 325.578125 L 280.960938 325.226562 C 280.960938 314.726562 272.441406 306.183594 261.96875 306.183594 L 139.253906 306.183594 C 128.753906 306.183594 120.210938 314.726562 120.210938 325.226562 Z M 286.960938 337.582031 L 114.207031 337.582031 C 110.898438 337.582031 108.210938 334.898438 108.210938 331.578125 L 108.210938 325.226562 C 108.210938 308.109375 122.136719 294.183594 139.253906 294.183594 L 261.96875 294.183594 C 279.058594 294.183594 292.964844 308.109375 292.964844 325.226562 L 292.964844 331.578125 C 292.964844 334.898438 290.277344 337.582031 286.960938 337.582031 "/></g><path style=" stroke:none;fill-rule:nonzero;fill:#000000;fill-opacity:1;" d="M 138.578125 130.433594 L 157.867188 149.617188 L 175.648438 131.722656 C 174.632812 128.570312 174.125 125.253906 174.125 121.816406 C 174.125 103.832031 188.75 89.207031 206.730469 89.207031 C 210.082031 89.207031 213.335938 89.703125 216.441406 90.683594 L 227.554688 79.507812 L 208.3125 60.375 Z M 157.894531 164.101562 C 156.308594 164.101562 154.789062 163.476562 153.664062 162.359375 L 125.859375 134.710938 C 124.726562 133.59375 124.089844 132.0625 124.085938 130.476562 C 124.085938 128.878906 124.710938 127.351562 125.832031 126.226562 L 204.035156 47.652344 C 206.382812 45.3125 210.179688 45.292969 212.523438 47.632812 L 240.269531 75.226562 C 242.621094 77.570312 242.632812 81.363281 240.296875 83.714844 L 222.175781 101.9375 C 220.386719 103.746094 217.648438 104.199219 215.34375 103.125 C 212.675781 101.855469 209.777344 101.207031 206.730469 101.207031 C 195.367188 101.207031 186.125 110.453125 186.125 121.816406 C 186.125 124.9375 186.78125 127.878906 188.078125 130.550781 C 189.183594 132.84375 188.726562 135.585938 186.929688 137.394531 L 162.148438 162.332031 C 161.027344 163.460938 159.558594 163.890625 157.894531 164.101562 "/><path style=" stroke:none;fill-rule:nonzero;fill:#000000;fill-opacity:1;" d="M 115.839844 136.414062 L 152.011719 172.402344 L 157.847656 166.527344 L 121.675781 130.550781 Z M 152.03125 186.886719 C 150.445312 186.886719 148.921875 186.257812 147.800781 185.140625 L 103.121094 140.691406 C 100.773438 138.355469 100.757812 134.558594 103.097656 132.210938 L 117.398438 117.832031 C 119.734375 115.492188 123.539062 115.472656 125.882812 117.8125 L 170.5625 162.25 C 172.914062 164.589844 172.925781 168.386719 170.589844 170.738281 L 156.289062 185.117188 C 155.164062 186.25 153.640625 186.882812 152.046875 186.886719 C 152.042969 186.886719 152.039062 186.886719 152.03125 186.886719 "/><path style=" stroke:none;fill-rule:nonzero;fill:#000000;fill-opacity:1;" d="M 116.066406 166.078125 L 122.351562 172.324219 L 128.601562 166.039062 L 122.320312 159.789062 Z M 122.371094 186.808594 C 120.84375 186.808594 119.3125 186.230469 118.140625 185.0625 L 103.351562 170.355469 C 102.222656 169.234375 101.585938 167.707031 101.582031 166.117188 C 101.574219 164.523438 102.207031 163 103.328125 161.871094 L 118.042969 147.070312 C 119.164062 145.941406 120.691406 145.308594 122.28125 145.300781 C 122.289062 145.300781 122.292969 145.300781 122.296875 145.300781 C 123.882812 145.300781 125.402344 145.929688 126.53125 147.046875 L 141.320312 161.761719 C 143.667969 164.101562 143.683594 167.898438 141.34375 170.25 L 126.628906 185.042969 C 125.457031 186.21875 123.914062 186.808594 122.371094 186.808594 "/><g clip-rule="nonzero" clip-path="url(#d9e116e6ca)"><path style=" stroke:none;fill-rule:nonzero;fill:#000000;fill-opacity:1;" d="M 223.273438 58.296875 L 229.554688 64.554688 L 235.804688 58.265625 L 229.519531 52.015625 Z M 229.574219 79.039062 C 227.992188 79.039062 226.46875 78.414062 225.34375 77.289062 L 210.558594 62.574219 C 208.207031 60.238281 208.191406 56.4375 210.53125 54.089844 L 225.242188 39.300781 C 226.363281 38.167969 227.886719 37.535156 229.480469 37.53125 C 229.484375 37.53125 229.488281 37.53125 229.5 37.53125 C 231.082031 37.53125 232.605469 38.15625 233.730469 39.273438 L 248.523438 53.988281 C 250.871094 56.328125 250.878906 60.125 248.542969 62.476562 L 233.832031 77.269531 C 232.710938 78.398438 231.183594 79.035156 229.59375 79.039062 C 229.589844 79.039062 229.585938 79.039062 229.574219 79.039062 "/></g><path style=" stroke:none;fill-rule:nonzero;fill:#000000;fill-opacity:1;" d="M 206.730469 101.207031 C 195.367188 101.207031 186.125 110.453125 186.125 121.816406 C 186.125 124.9375 186.78125 127.878906 188.078125 130.550781 C 191.539062 137.890625 198.675781 142.417969 206.730469 142.417969 C 211.605469 142.417969 216.1875 140.753906 219.972656 137.605469 C 224.640625 133.6875 227.332031 127.921875 227.332031 121.816406 C 227.332031 120.59375 227.207031 119.382812 227.007812 118.203125 C 225.859375 111.613281 221.523438 105.980469 215.398438 103.148438 C 212.675781 101.855469 209.777344 101.207031 206.730469 101.207031 Z M 206.730469 154.417969 C 194.175781 154.417969 182.601562 147.082031 177.246094 135.726562 C 175.183594 131.457031 174.125 126.761719 174.125 121.816406 C 174.125 103.832031 188.75 89.207031 206.730469 89.207031 C 211.574219 89.207031 216.210938 90.242188 220.507812 92.28125 C 230.140625 96.746094 237.011719 105.675781 238.832031 116.152344 L 238.832031 116.160156 C 239.167969 118.089844 239.332031 119.996094 239.332031 121.816406 C 239.332031 131.480469 235.082031 140.589844 227.664062 146.820312 C 221.757812 151.730469 214.332031 154.417969 206.730469 154.417969 "/></g></svg>