<svg xmlns="http://www.w3.org/2000/svg" xmlns:xlink="http://www.w3.org/1999/xlink" width="500" zoomAndPan="magnify" viewBox="0 0 375 374.999991" height="500" preserveAspectRatio="xMidYMid meet" version="1.0"><defs><clipPath id="750a03630b"><path d="M 143 88 L 246 88 L 246 299 L 143 299 Z M 143 88 " clip-rule="nonzero"/></clipPath><clipPath id="b38224370e"><path d="M 149.960938 74.226562 L 303.078125 182.445312 L 216.070312 305.554688 L 62.953125 197.335938 Z M 149.960938 74.226562 " clip-rule="nonzero"/></clipPath><clipPath id="79963b3e1f"><path d="M 149.960938 74.226562 L 303.078125 182.445312 L 216.070312 305.554688 L 62.953125 197.335938 Z M 149.960938 74.226562 " clip-rule="nonzero"/></clipPath><clipPath id="5e64c5cd0c"><path d="M 140 85 L 249 85 L 249 302 L 140 302 Z M 140 85 " clip-rule="nonzero"/></clipPath><clipPath id="3458e39f29"><path d="M 149.960938 74.226562 L 303.078125 182.445312 L 216.070312 305.554688 L 62.953125 197.335938 Z M 149.960938 74.226562 " clip-rule="nonzero"/></clipPath><clipPath id="f12909f9b5"><path d="M 149.960938 74.226562 L 303.078125 182.445312 L 216.070312 305.554688 L 62.953125 197.335938 Z M 149.960938 74.226562 " clip-rule="nonzero"/></clipPath></defs><g clip-path="url(#750a03630b)"><g clip-path="url(#b38224370e)"><g clip-path="url(#79963b3e1f)"><path fill="#233c4b" d="M 215.917969 296.964844 C 215.773438 297.152344 215.613281 297.324219 215.429688 297.476562 C 215.246094 297.628906 215.046875 297.757812 214.832031 297.863281 C 214.621094 297.96875 214.398438 298.050781 214.167969 298.105469 C 213.933594 298.160156 213.699219 298.1875 213.460938 298.1875 C 213.222656 298.1875 212.988281 298.160156 212.757812 298.109375 C 212.523438 298.054688 212.300781 297.972656 212.089844 297.871094 C 211.875 297.765625 211.675781 297.636719 211.492188 297.484375 C 211.308594 297.335938 211.144531 297.164062 210.996094 296.976562 L 181.742188 258.835938 C 181.539062 258.570312 181.382812 258.28125 181.273438 257.96875 C 181.164062 257.652344 181.105469 257.328125 181.101562 256.996094 C 181.097656 256.660156 181.144531 256.335938 181.246094 256.019531 C 181.347656 255.699219 181.496094 255.40625 181.691406 255.136719 C 181.886719 254.867188 182.117188 254.632812 182.390625 254.441406 C 182.660156 254.246094 182.953125 254.097656 183.269531 253.996094 C 183.589844 253.898438 183.914062 253.851562 184.25 253.855469 C 184.582031 253.863281 184.90625 253.917969 185.21875 254.03125 L 198.410156 258.640625 C 198.644531 258.722656 198.882812 258.777344 199.128906 258.800781 C 199.375 258.824219 199.621094 258.820312 199.867188 258.785156 C 200.113281 258.75 200.347656 258.6875 200.578125 258.59375 C 200.808594 258.503906 201.023438 258.386719 201.226562 258.242188 C 201.429688 258.097656 201.609375 257.933594 201.773438 257.746094 C 201.933594 257.558594 202.070312 257.355469 202.183594 257.136719 C 202.296875 256.917969 202.382812 256.6875 202.441406 256.445312 C 202.5 256.203125 202.527344 255.960938 202.527344 255.714844 L 202.382812 193.410156 C 202.382812 193 202.304688 192.605469 202.144531 192.226562 C 201.988281 191.847656 201.761719 191.511719 201.472656 191.222656 C 201.179688 190.933594 200.84375 190.710938 200.464844 190.554688 C 200.085938 190.398438 199.691406 190.320312 199.28125 190.320312 L 146.652344 190.441406 C 146.238281 190.445312 145.84375 190.367188 145.464844 190.210938 C 145.085938 190.054688 144.75 189.832031 144.460938 189.542969 C 144.167969 189.25 143.945312 188.917969 143.785156 188.539062 C 143.628906 188.160156 143.546875 187.765625 143.546875 187.355469 L 143.324219 91.382812 C 143.324219 90.972656 143.402344 90.578125 143.558594 90.195312 C 143.714844 89.816406 143.9375 89.480469 144.226562 89.191406 C 144.515625 88.898438 144.851562 88.675781 145.230469 88.519531 C 145.609375 88.359375 146.003906 88.28125 146.414062 88.28125 L 161.894531 88.242188 C 162.304688 88.242188 162.699219 88.320312 163.078125 88.476562 C 163.457031 88.632812 163.792969 88.855469 164.085938 89.144531 C 164.375 89.433594 164.601562 89.769531 164.757812 90.148438 C 164.917969 90.527344 164.996094 90.921875 164.996094 91.332031 L 165.167969 165.632812 C 165.167969 166.042969 165.25 166.4375 165.40625 166.816406 C 165.566406 167.195312 165.789062 167.53125 166.082031 167.820312 C 166.371094 168.109375 166.707031 168.332031 167.085938 168.488281 C 167.464844 168.644531 167.859375 168.722656 168.273438 168.722656 L 220.902344 168.601562 C 221.3125 168.597656 221.707031 168.675781 222.085938 168.832031 C 222.464844 168.988281 222.800781 169.210938 223.09375 169.503906 C 223.382812 169.792969 223.609375 170.125 223.765625 170.503906 C 223.925781 170.882812 224.003906 171.277344 224.003906 171.6875 L 224.199219 255.664062 C 224.199219 255.910156 224.230469 256.15625 224.289062 256.394531 C 224.347656 256.636719 224.433594 256.863281 224.546875 257.085938 C 224.664062 257.304688 224.800781 257.507812 224.964844 257.695312 C 225.125 257.878906 225.308594 258.042969 225.511719 258.1875 C 225.714844 258.328125 225.929688 258.445312 226.160156 258.535156 C 226.390625 258.628906 226.628906 258.6875 226.875 258.722656 C 227.121094 258.757812 227.363281 258.761719 227.609375 258.734375 C 227.855469 258.710938 228.097656 258.65625 228.332031 258.574219 L 241.5 253.898438 C 241.8125 253.789062 242.136719 253.726562 242.46875 253.722656 C 242.804688 253.714844 243.128906 253.761719 243.445312 253.859375 C 243.765625 253.957031 244.0625 254.101562 244.332031 254.296875 C 244.601562 254.488281 244.835938 254.722656 245.035156 254.988281 C 245.230469 255.257812 245.378906 255.550781 245.480469 255.871094 C 245.582031 256.1875 245.632812 256.511719 245.628906 256.84375 C 245.628906 257.179688 245.570312 257.503906 245.464844 257.816406 C 245.355469 258.132812 245.199219 258.425781 245 258.6875 Z M 215.917969 296.964844 " fill-opacity="1" fill-rule="nonzero"/></g></g></g><g clip-path="url(#5e64c5cd0c)"><g clip-path="url(#3458e39f29)"><g clip-path="url(#f12909f9b5)"><path fill="#233c4b" d="M 247.535156 253.164062 C 247.144531 252.625 246.675781 252.15625 246.132812 251.769531 C 245.59375 251.378906 245 251.085938 244.363281 250.886719 C 243.726562 250.691406 243.074219 250.601562 242.40625 250.617188 C 241.738281 250.632812 241.089844 250.753906 240.460938 250.980469 L 227.296875 255.65625 L 227.097656 171.683594 C 227.097656 171.277344 227.058594 170.875 226.976562 170.476562 C 226.898438 170.078125 226.777344 169.691406 226.621094 169.316406 C 226.464844 168.941406 226.273438 168.582031 226.046875 168.246094 C 225.820312 167.90625 225.566406 167.597656 225.277344 167.308594 C 224.988281 167.023438 224.675781 166.765625 224.335938 166.539062 C 224 166.316406 223.640625 166.125 223.265625 165.972656 C 222.890625 165.816406 222.503906 165.699219 222.105469 165.621094 C 221.703125 165.542969 221.300781 165.503906 220.894531 165.503906 L 168.265625 165.628906 L 168.09375 91.324219 C 168.089844 90.917969 168.050781 90.515625 167.96875 90.117188 C 167.886719 89.71875 167.769531 89.332031 167.613281 88.957031 C 167.457031 88.585938 167.265625 88.226562 167.035156 87.890625 C 166.808594 87.554688 166.554688 87.242188 166.265625 86.953125 C 165.976562 86.667969 165.664062 86.414062 165.324219 86.1875 C 164.988281 85.960938 164.628906 85.773438 164.253906 85.617188 C 163.878906 85.460938 163.492188 85.34375 163.09375 85.265625 C 162.695312 85.1875 162.292969 85.148438 161.886719 85.148438 L 146.410156 85.183594 C 146.003906 85.1875 145.601562 85.230469 145.203125 85.3125 C 144.804688 85.390625 144.417969 85.511719 144.042969 85.667969 C 143.667969 85.824219 143.3125 86.019531 142.976562 86.246094 C 142.640625 86.472656 142.328125 86.726562 142.042969 87.015625 C 141.753906 87.304688 141.5 87.617188 141.273438 87.953125 C 141.046875 88.292969 140.859375 88.648438 140.703125 89.023438 C 140.546875 89.398438 140.429688 89.785156 140.351562 90.183594 C 140.269531 90.582031 140.230469 90.984375 140.230469 91.390625 L 140.453125 187.359375 C 140.453125 187.769531 140.492188 188.171875 140.574219 188.570312 C 140.65625 188.96875 140.773438 189.355469 140.929688 189.730469 C 141.085938 190.105469 141.277344 190.460938 141.503906 190.796875 C 141.730469 191.136719 141.988281 191.449219 142.277344 191.734375 C 142.5625 192.019531 142.878906 192.277344 143.214844 192.503906 C 143.554688 192.726562 143.910156 192.917969 144.289062 193.074219 C 144.664062 193.226562 145.050781 193.34375 145.449219 193.421875 C 145.847656 193.5 146.25 193.539062 146.65625 193.539062 L 199.285156 193.417969 L 199.429688 255.71875 L 186.246094 251.105469 C 185.613281 250.886719 184.96875 250.769531 184.300781 250.757812 C 183.632812 250.746094 182.980469 250.84375 182.34375 251.042969 C 181.710938 251.242188 181.121094 251.535156 180.578125 251.925781 C 180.039062 252.316406 179.570312 252.78125 179.179688 253.320312 C 178.789062 253.859375 178.496094 254.449219 178.292969 255.085938 C 178.09375 255.71875 177.996094 256.371094 178.003906 257.039062 C 178.015625 257.703125 178.128906 258.351562 178.347656 258.984375 C 178.566406 259.613281 178.878906 260.191406 179.285156 260.722656 L 208.539062 298.855469 C 208.828125 299.234375 209.15625 299.574219 209.527344 299.878906 C 209.894531 300.179688 210.292969 300.4375 210.71875 300.648438 C 211.144531 300.859375 211.589844 301.015625 212.054688 301.125 C 212.519531 301.230469 212.988281 301.285156 213.464844 301.285156 C 213.941406 301.28125 214.414062 301.226562 214.875 301.117188 C 215.339844 301.007812 215.785156 300.847656 216.210938 300.636719 C 216.636719 300.421875 217.035156 300.164062 217.402344 299.859375 C 217.769531 299.558594 218.09375 299.214844 218.382812 298.835938 L 247.464844 260.5625 C 247.871094 260.03125 248.183594 259.453125 248.398438 258.820312 C 248.617188 258.191406 248.730469 257.542969 248.734375 256.875 C 248.742188 256.207031 248.640625 255.558594 248.4375 254.921875 C 248.230469 254.289062 247.929688 253.703125 247.535156 253.164062 Z M 247.535156 253.164062 " fill-opacity="1" fill-rule="nonzero"/></g></g></g></svg>