<svg xmlns="http://www.w3.org/2000/svg" xmlns:xlink="http://www.w3.org/1999/xlink" width="500" zoomAndPan="magnify" viewBox="0 0 375 374.999991" height="500" preserveAspectRatio="xMidYMid meet" version="1.0"><defs><clipPath id="c02076911d"><path d="M 101.003906 141.441406 L 274 141.441406 L 274 233.691406 L 101.003906 233.691406 Z M 101.003906 141.441406 " clip-rule="nonzero"/></clipPath></defs><g clip-path="url(#c02076911d)"><path fill="#233c4b" d="M 273.847656 214.363281 C 273.847656 224.933594 265.230469 233.550781 254.660156 233.550781 L 120.332031 233.550781 C 109.757812 233.550781 101.144531 224.933594 101.144531 214.363281 C 101.144531 203.789062 109.757812 195.171875 120.332031 195.171875 L 254.660156 195.171875 C 265.230469 195.171875 273.847656 203.789062 273.847656 214.363281 Z M 120.332031 179.820312 L 254.660156 179.820312 C 265.230469 179.820312 273.847656 171.203125 273.847656 160.632812 C 273.847656 150.058594 265.230469 141.441406 254.660156 141.441406 L 120.332031 141.441406 C 109.757812 141.441406 101.144531 150.058594 101.144531 160.632812 C 101.144531 171.203125 109.757812 179.820312 120.332031 179.820312 Z M 120.332031 179.820312 " fill-opacity="1" fill-rule="nonzero"/></g></svg>