<svg xmlns="http://www.w3.org/2000/svg" xmlns:xlink="http://www.w3.org/1999/xlink" width="500" zoomAndPan="magnify" viewBox="0 0 375 374.999991" height="500" preserveAspectRatio="xMidYMid meet" version="1.0"><defs><clipPath id="77c8e1b987"><path d="M 45.5 45.5 L 329.5 45.5 L 329.5 329.5 L 45.5 329.5 Z M 45.5 45.5 " clip-rule="nonzero"/></clipPath><clipPath id="1bfcf7fded"><path d="M 187.5 45.5 C 109.074219 45.5 45.5 109.074219 45.5 187.5 C 45.5 265.925781 109.074219 329.5 187.5 329.5 C 265.925781 329.5 329.5 265.925781 329.5 187.5 C 329.5 109.074219 265.925781 45.5 187.5 45.5 Z M 187.5 45.5 " clip-rule="nonzero"/></clipPath><clipPath id="f6725e7bab"><path d="M 83.738281 95.140625 L 271 95.140625 L 271 279.640625 L 83.738281 279.640625 Z M 83.738281 95.140625 " clip-rule="nonzero"/></clipPath></defs><g clip-path="url(#77c8e1b987)"><g clip-path="url(#1bfcf7fded)"><path fill="#ffffff" d="M 45.5 45.5 L 329.5 45.5 L 329.5 329.5 L 45.5 329.5 Z M 45.5 45.5 " fill-opacity="1" fill-rule="nonzero"/></g></g><g clip-path="url(#f6725e7bab)"><path fill="#233c4b" d="M 232.9375 279.023438 C 231.988281 279.027344 231.085938 278.820312 230.234375 278.410156 C 229.378906 277.996094 228.65625 277.417969 228.066406 276.675781 L 196.332031 236.835938 C 195.945312 236.351562 195.636719 235.816406 195.410156 235.238281 C 195.183594 234.660156 195.042969 234.0625 194.996094 233.441406 C 194.945312 232.820312 194.992188 232.207031 195.125 231.601562 C 195.261719 230.992188 195.484375 230.421875 195.789062 229.878906 C 196.097656 229.339844 196.476562 228.855469 196.929688 228.429688 C 197.382812 228 197.886719 227.648438 198.445312 227.375 C 199 227.097656 199.585938 226.910156 200.199219 226.8125 C 200.8125 226.710938 201.429688 226.703125 202.046875 226.785156 L 217.417969 228.878906 C 217.414062 228.03125 217.371094 227.1875 217.289062 226.347656 C 217.203125 225.503906 217.078125 224.667969 216.914062 223.839844 C 216.746094 223.007812 216.539062 222.191406 216.292969 221.378906 C 216.046875 220.570312 215.761719 219.777344 215.4375 218.996094 C 215.109375 218.214844 214.75 217.449219 214.347656 216.703125 C 213.949219 215.957031 213.515625 215.234375 213.042969 214.53125 C 212.570312 213.828125 212.066406 213.148438 211.53125 212.496094 C 210.992188 211.84375 210.425781 211.214844 209.824219 210.617188 C 209.226562 210.019531 208.601562 209.453125 207.945312 208.917969 C 207.292969 208.382812 206.613281 207.878906 205.90625 207.410156 C 205.203125 206.941406 204.480469 206.503906 203.734375 206.105469 C 202.984375 205.707031 202.222656 205.347656 201.441406 205.023438 C 200.65625 204.703125 199.863281 204.417969 199.050781 204.171875 C 198.242188 203.925781 197.421875 203.722656 196.59375 203.558594 C 195.761719 203.390625 194.925781 203.269531 194.085938 203.1875 C 193.242188 203.105469 192.398438 203.0625 191.550781 203.0625 L 89.707031 203.0625 C 89.296875 203.0625 88.894531 203.023438 88.492188 202.941406 C 88.089844 202.863281 87.703125 202.742188 87.324219 202.585938 C 86.945312 202.429688 86.589844 202.238281 86.25 202.011719 C 85.910156 201.785156 85.59375 201.527344 85.304688 201.238281 C 85.015625 200.949219 84.757812 200.632812 84.53125 200.292969 C 84.304688 199.953125 84.109375 199.59375 83.953125 199.21875 C 83.796875 198.839844 83.679688 198.449219 83.597656 198.050781 C 83.519531 197.648438 83.480469 197.246094 83.480469 196.835938 L 83.480469 178.152344 C 83.480469 177.746094 83.519531 177.339844 83.597656 176.9375 C 83.679688 176.539062 83.796875 176.148438 83.953125 175.769531 C 84.113281 175.394531 84.304688 175.035156 84.53125 174.695312 C 84.757812 174.355469 85.015625 174.039062 85.304688 173.75 C 85.59375 173.460938 85.910156 173.203125 86.25 172.976562 C 86.589844 172.75 86.945312 172.558594 87.324219 172.402344 C 87.703125 172.246094 88.089844 172.125 88.492188 172.046875 C 88.894531 171.964844 89.296875 171.925781 89.707031 171.925781 L 191.550781 171.925781 C 192.398438 171.925781 193.242188 171.882812 194.085938 171.800781 C 194.929688 171.71875 195.765625 171.59375 196.597656 171.429688 C 197.429688 171.265625 198.25 171.058594 199.058594 170.8125 C 199.871094 170.570312 200.667969 170.285156 201.449219 169.960938 C 202.230469 169.636719 202.996094 169.273438 203.742188 168.875 C 204.492188 168.476562 205.214844 168.042969 205.921875 167.570312 C 206.625 167.101562 207.304688 166.597656 207.960938 166.058594 C 208.613281 165.523438 209.242188 164.953125 209.839844 164.355469 C 210.4375 163.757812 211.007812 163.128906 211.542969 162.476562 C 212.082031 161.820312 212.585938 161.140625 213.058594 160.4375 C 213.527344 159.734375 213.960938 159.007812 214.363281 158.261719 C 214.761719 157.515625 215.121094 156.75 215.445312 155.964844 C 215.769531 155.183594 216.054688 154.386719 216.300781 153.578125 C 216.546875 152.765625 216.753906 151.945312 216.917969 151.117188 C 217.085938 150.285156 217.207031 149.449219 217.292969 148.605469 C 217.375 147.761719 217.417969 146.917969 217.417969 146.070312 L 202.042969 148.203125 C 201.425781 148.285156 200.8125 148.277344 200.199219 148.175781 C 199.585938 148.078125 199 147.890625 198.441406 147.613281 C 197.886719 147.335938 197.378906 146.984375 196.929688 146.558594 C 196.476562 146.132812 196.097656 145.648438 195.789062 145.109375 C 195.484375 144.566406 195.261719 143.992188 195.125 143.386719 C 194.992188 142.78125 194.949219 142.167969 194.996094 141.546875 C 195.042969 140.925781 195.183594 140.328125 195.410156 139.75 C 195.640625 139.171875 195.945312 138.636719 196.335938 138.152344 L 228.066406 98.3125 C 228.359375 97.945312 228.6875 97.617188 229.054688 97.324219 C 229.417969 97.035156 229.8125 96.785156 230.234375 96.582031 C 230.65625 96.378906 231.09375 96.226562 231.550781 96.121094 C 232.007812 96.015625 232.46875 95.964844 232.9375 95.964844 C 233.402344 95.964844 233.867188 96.015625 234.324219 96.121094 C 234.777344 96.222656 235.21875 96.375 235.640625 96.578125 C 236.0625 96.78125 236.453125 97.027344 236.820312 97.320312 C 237.1875 97.613281 237.515625 97.941406 237.808594 98.304688 L 269.582031 138.144531 C 269.972656 138.632812 270.28125 139.164062 270.507812 139.742188 C 270.738281 140.320312 270.875 140.921875 270.921875 141.542969 C 270.972656 142.160156 270.929688 142.777344 270.792969 143.382812 C 270.660156 143.988281 270.4375 144.5625 270.132812 145.105469 C 269.824219 145.644531 269.445312 146.128906 268.992188 146.558594 C 268.539062 146.984375 268.035156 147.335938 267.476562 147.613281 C 266.917969 147.886719 266.332031 148.078125 265.71875 148.175781 C 265.105469 148.277344 264.492188 148.285156 263.875 148.203125 L 248.507812 146.109375 C 248.511719 149.984375 248.121094 153.820312 247.339844 157.617188 C 246.558594 161.410156 245.402344 165.089844 243.867188 168.648438 C 242.332031 172.207031 240.453125 175.574219 238.230469 178.746094 C 236.007812 181.921875 233.488281 184.835938 230.667969 187.496094 C 233.488281 190.152344 236.007812 193.070312 238.230469 196.242188 C 240.453125 199.417969 242.332031 202.785156 243.867188 206.34375 C 245.402344 209.902344 246.558594 213.578125 247.339844 217.375 C 248.121094 221.171875 248.511719 225.007812 248.507812 228.882812 L 263.875 226.785156 C 264.492188 226.703125 265.105469 226.710938 265.722656 226.8125 C 266.335938 226.914062 266.921875 227.101562 267.476562 227.375 C 268.035156 227.652344 268.539062 228.003906 268.992188 228.429688 C 269.445312 228.859375 269.824219 229.34375 270.132812 229.882812 C 270.4375 230.425781 270.660156 231 270.792969 231.605469 C 270.929688 232.214844 270.972656 232.828125 270.921875 233.445312 C 270.875 234.066406 270.734375 234.667969 270.507812 235.246094 C 270.28125 235.824219 269.972656 236.355469 269.582031 236.84375 L 237.808594 276.683594 C 237.21875 277.425781 236.496094 278.003906 235.640625 278.414062 C 234.785156 278.824219 233.882812 279.027344 232.9375 279.023438 Z M 232.9375 279.023438 " fill-opacity="1" fill-rule="nonzero"/></g></svg>