<svg xmlns="http://www.w3.org/2000/svg" xmlns:xlink="http://www.w3.org/1999/xlink" width="500" zoomAndPan="magnify" viewBox="0 0 375 374.999991" height="500" preserveAspectRatio="xMidYMid meet" version="1.0"><defs><clipPath id="8a8c56aecb"><path d="M 187.5 0 C 83.945312 0 0 83.945312 0 187.5 C 0 291.054688 83.945312 375 187.5 375 C 291.054688 375 375 291.054688 375 187.5 C 375 83.945312 291.054688 0 187.5 0 Z M 187.5 0 " clip-rule="nonzero"/></clipPath><clipPath id="9cd6b73578"><path d="M 0 0 L 375 0 L 375 375 L 0 375 Z M 0 0 " clip-rule="nonzero"/></clipPath><clipPath id="c365f3b011"><path d="M 187.5 0 C 83.945312 0 0 83.945312 0 187.5 C 0 291.054688 83.945312 375 187.5 375 C 291.054688 375 375 291.054688 375 187.5 C 375 83.945312 291.054688 0 187.5 0 Z M 187.5 0 " clip-rule="nonzero"/></clipPath><clipPath id="55687d8c07"><rect x="0" width="375" y="0" height="375"/></clipPath></defs><g clip-path="url(#8a8c56aecb)"><g transform="matrix(1, 0, 0, 1, 0, 0)"><g clip-path="url(#55687d8c07)"><g clip-path="url(#9cd6b73578)"><g clip-path="url(#c365f3b011)"><rect x="-82.5" width="540" fill="#ffffff" height="539.999987" y="-82.499998" fill-opacity="1"/></g></g></g></g></g><path fill="#233c4b" d="M 187.453125 0 C 291.015625 0 374.96875 83.953125 374.96875 187.515625 C 374.96875 291.074219 291.015625 375.007812 187.453125 375.007812 C 83.894531 375.007812 -0.0390625 291.066406 -0.0390625 187.507812 C -0.0390625 83.953125 83.894531 0 187.453125 0 Z M 180.351562 189.1875 C 175.800781 189.1875 175.800781 182.257812 180.351562 182.257812 L 200.550781 182.257812 C 205.101562 182.257812 205.101562 189.1875 200.550781 189.1875 Z M 180.351562 242.574219 C 175.800781 242.574219 175.800781 235.664062 180.351562 235.664062 L 200.550781 235.664062 C 205.101562 235.664062 205.101562 242.574219 200.550781 242.574219 Z M 200.378906 262.425781 C 204.929688 262.425781 204.929688 269.332031 200.378906 269.332031 L 180.523438 269.332031 C 175.972656 269.332031 175.972656 262.425781 180.523438 262.425781 Z M 196.933594 319.425781 C 201.488281 319.425781 201.488281 326.332031 196.933594 326.332031 L 183.5625 326.332031 C 179.011719 326.332031 179.011719 319.425781 183.5625 319.425781 Z M 200.378906 155.511719 C 204.929688 155.511719 204.929688 162.421875 200.378906 162.421875 L 180.523438 162.421875 C 175.972656 162.421875 175.972656 155.511719 180.523438 155.511719 Z M 152.355469 60.816406 C 166.664062 58.265625 177.953125 72.789062 172.101562 85.964844 L 185.773438 95.46875 L 187.003906 61.328125 C 178.648438 59.519531 172.636719 52.011719 172.785156 43.320312 C 172.785156 33.691406 181.078125 25.359375 191.21875 25.546875 C 200.851562 25.546875 209.160156 33.839844 208.996094 43.957031 C 208.996094 52.507812 202.449219 60.074219 193.898438 61.5 L 192.644531 96.34375 L 207.800781 86.761719 C 202.550781 73.386719 214.417969 59.308594 228.636719 62.503906 C 244.328125 66.015625 247.941406 86.851562 234.335938 95.460938 C 226.957031 100.140625 217.371094 98.84375 211.507812 92.585938 L 192.351562 104.707031 L 192.140625 110.386719 C 191.992188 114.9375 185.109375 114.683594 185.257812 110.152344 L 185.488281 103.6875 L 168.1875 91.636719 C 157.898438 101.625 140.339844 96.226562 137.746094 81.855469 C 135.960938 72 142.53125 62.585938 152.355469 60.816406 Z M 176.273438 289.875 C 178.671875 287.476562 181.3125 285.324219 184.164062 283.5 C 180.742188 280.84375 178.402344 277.925781 175.996094 273.53125 C 170.59375 263.648438 169.363281 251.316406 172.019531 240.425781 C 173.976562 232.351562 177.824219 225.628906 184.199219 220.425781 L 176.4375 215.40625 C 165.171875 224.59375 160.726562 236.601562 160.726562 251.78125 C 160.734375 266.167969 165.832031 279.886719 176.273438 289.875 Z M 204.1875 299.355469 C 200.894531 301.566406 198.105469 302.542969 195.554688 304.417969 C 201.613281 311.960938 204.546875 321.871094 204.546875 331.671875 C 204.546875 336.074219 209.902344 338.300781 213.03125 335.183594 C 213.921875 334.289062 214.476562 333.039062 214.476562 331.671875 C 214.476562 320.015625 211.074219 308.542969 204.1875 299.355469 Z M 173.039062 155.046875 C 173.378906 153.644531 175.402344 149.183594 176.121094 148.050781 C 181.351562 139.84375 190.875 134.210938 198.847656 128.152344 L 194.339844 124.941406 C 192 123.390625 188.601562 123.457031 186.285156 125.113281 C 178.71875 130.539062 172.148438 135.324219 167.210938 143.273438 C 162.960938 150.097656 160.726562 158.476562 160.726562 170.015625 C 160.726562 197.339844 173.820312 205.671875 186.195312 213.539062 C 199.523438 222.023438 210.644531 229.589844 210.644531 251.789062 C 210.644531 262.589844 207.03125 273.898438 199.335938 281.640625 C 192.890625 288.105469 189.171875 286.890625 181.453125 294.457031 C 171.652344 304.042969 166.828125 317.925781 166.828125 331.679688 C 166.828125 336.082031 172.207031 338.308594 175.3125 335.191406 C 176.226562 334.296875 176.78125 333.046875 176.78125 331.679688 C 176.78125 317.691406 183.015625 302.46875 195.984375 296.128906 C 212.160156 288.261719 220.582031 269.488281 220.582031 251.78125 C 220.582031 230.203125 211.648438 218.59375 194.476562 208.15625 C 179.339844 198.96875 170.683594 190.019531 170.683594 170.015625 C 170.675781 164.863281 171.464844 159.765625 173.039062 155.046875 Z M 208.074219 154.449219 L 209.289062 158.59375 C 211.09375 165.988281 211.09375 173.960938 209.308594 181.34375 C 207.269531 189.699219 203.484375 196.011719 196.851562 201.539062 L 204.523438 206.535156 C 216.03125 196.882812 220.574219 185.765625 220.574219 170.011719 C 220.574219 152.871094 215.941406 142.164062 204.5625 132.441406 C 202.394531 134.167969 200.101562 135.824219 197.78125 137.484375 C 201.871094 141.90625 205.949219 148.371094 208.074219 154.449219 Z M 263.714844 108.441406 C 272.300781 120.15625 264.203125 136.695312 249.789062 137.203125 L 246.75 156.824219 L 266.585938 157.53125 C 269.796875 143.453125 287.574219 138.628906 297.480469 149.234375 C 308.363281 160.949219 299.730469 180.148438 283.703125 179.675781 C 278.917969 179.675781 274.027344 177.210938 270.96875 173.917969 C 268.566406 171.34375 266.910156 168.050781 266.332031 164.390625 L 243.816406 163.605469 L 234.140625 170.558594 C 232.613281 171.683594 230.46875 171.324219 229.335938 169.769531 C 228.234375 168.238281 228.59375 166.09375 230.121094 164.960938 L 239.566406 158.160156 L 242.984375 136.15625 C 229.402344 131.289062 226.703125 113.070312 238.417969 104.496094 C 246.472656 98.617188 257.820312 100.363281 263.714844 108.441406 Z M 114.40625 121.898438 C 111.9375 105.976562 130.027344 95.023438 143.003906 104.503906 C 154.71875 113.070312 152.015625 131.296875 138.433594 136.164062 L 141.855469 158.191406 L 150.128906 164.308594 C 151.65625 165.433594 151.980469 167.601562 150.832031 169.117188 C 149.707031 170.648438 147.539062 170.96875 146.023438 169.835938 L 137.585938 163.605469 L 115.09375 164.390625 C 112.859375 178.613281 95.488281 184.738281 84.863281 174.832031 C 73.125 163.90625 80.4375 144.066406 96.578125 143.496094 C 105.316406 143.175781 112.925781 149.152344 114.839844 157.53125 L 134.675781 156.824219 L 131.640625 137.203125 C 123.039062 136.914062 115.761719 130.550781 114.40625 121.898438 Z M 295.734375 207.898438 C 301.433594 221.25 289.800781 235.539062 275.664062 232.792969 L 268.28125 251.203125 L 287.414062 256.351562 C 293.683594 243.511719 312.050781 242.574219 319.363281 255.261719 C 327.058594 268.613281 315.5625 285.601562 299.191406 281.835938 C 290.941406 279.945312 285.007812 271.671875 285.621094 263.015625 L 263.835938 257.152344 L 235.199219 268.761719 C 233.414062 269.484375 231.414062 268.636719 230.691406 266.871094 C 229.972656 265.109375 230.820312 263.085938 232.605469 262.363281 L 260.960938 250.859375 L 269.257812 230.21875 C 257.136719 222.441406 258.5625 204.089844 271.957031 198.351562 C 281.144531 194.4375 291.796875 198.710938 295.734375 207.898438 Z M 272.003906 311.601562 C 266.578125 325.101562 248.28125 326.953125 240.195312 315.023438 L 226.996094 320.65625 C 225.253906 321.421875 223.230469 320.585938 222.488281 318.847656 C 221.746094 317.085938 222.554688 315.058594 224.296875 314.316406 L 237.496094 308.683594 C 234.457031 294.628906 248.421875 282.644531 261.921875 288.058594 C 271.214844 291.789062 275.722656 302.308594 272.003906 311.601562 Z M 119.015625 321.511719 C 114.40625 319.550781 111.046875 315.898438 109.320312 311.601562 C 105.601562 302.308594 110.109375 291.789062 119.378906 288.066406 C 132.898438 282.644531 146.863281 294.636719 143.828125 308.691406 L 156.050781 313.898438 C 157.792969 314.640625 158.601562 316.679688 157.859375 318.425781 C 157.117188 320.191406 155.09375 321 153.351562 320.257812 L 141.105469 315.03125 C 136.304688 322.125 127.058594 324.953125 119.015625 321.511719 Z M 62.488281 272.675781 C 56.496094 257.730469 71.65625 243 86.40625 249.292969 C 89.765625 250.738281 92.699219 253.183594 94.703125 256.433594 L 114.179688 251.203125 L 106.800781 232.792969 C 92.640625 235.539062 81.03125 221.25 86.730469 207.898438 C 93.066406 193.101562 114.195312 193.359375 120.195312 208.28125 C 123.449219 216.40625 120.40625 225.585938 113.199219 230.21875 L 121.46875 250.859375 L 147.914062 261.578125 C 149.675781 262.296875 150.53125 264.324219 149.804688 266.085938 C 149.101562 267.847656 147.082031 268.703125 145.320312 267.976562 L 118.597656 257.152344 L 97.171875 262.914062 C 99.546875 276.96875 85.371094 288.234375 72.1875 282.601562 C 67.925781 280.777344 64.359375 277.328125 62.488281 272.675781 Z M 62.488281 272.675781 " fill-opacity="1" fill-rule="evenodd"/></svg>