<svg xmlns="http://www.w3.org/2000/svg" xmlns:xlink="http://www.w3.org/1999/xlink" width="500" zoomAndPan="magnify" viewBox="0 0 375 374.999991" height="500" preserveAspectRatio="xMidYMid meet" version="1.0"><defs><clipPath id="d2e768fe19"><path d="M 187.5 0 C 83.945312 0 0 83.945312 0 187.5 C 0 291.054688 83.945312 375 187.5 375 C 291.054688 375 375 291.054688 375 187.5 C 375 83.945312 291.054688 0 187.5 0 Z M 187.5 0 " clip-rule="nonzero"/></clipPath><clipPath id="f0a9f238fa"><path d="M 0 0 L 375 0 L 375 375 L 0 375 Z M 0 0 " clip-rule="nonzero"/></clipPath><clipPath id="a298e6d72d"><path d="M 187.5 0 C 83.945312 0 0 83.945312 0 187.5 C 0 291.054688 83.945312 375 187.5 375 C 291.054688 375 375 291.054688 375 187.5 C 375 83.945312 291.054688 0 187.5 0 Z M 187.5 0 " clip-rule="nonzero"/></clipPath><clipPath id="0d17d2afa3"><rect x="0" width="375" y="0" height="375"/></clipPath><clipPath id="3693bbdf21"><path d="M 43 73.023438 L 312.300781 73.023438 L 312.300781 310.023438 L 43 310.023438 Z M 43 73.023438 " clip-rule="nonzero"/></clipPath></defs><g clip-path="url(#d2e768fe19)"><g transform="matrix(1, 0, 0, 1, 0, 0)"><g clip-path="url(#0d17d2afa3)"><g clip-path="url(#f0a9f238fa)"><g clip-path="url(#a298e6d72d)"><rect x="-82.5" width="540" fill="#233c4b" height="539.999987" y="-82.499998" fill-opacity="1"/></g></g></g></g></g><g clip-path="url(#3693bbdf21)"><path fill="#ffffff" d="M 73.464844 237.894531 C 70.039062 241.316406 67.71875 243.640625 67.71875 243.636719 C 63.828125 247.542969 57.433594 247.550781 53.527344 243.644531 L 46.210938 236.328125 C 42.304688 232.421875 42.304688 226.042969 46.210938 222.140625 L 70.976562 197.375 L 70.976562 93.757812 C 70.976562 82.363281 80.199219 73.140625 91.59375 73.140625 L 296.433594 73.140625 C 305.351562 73.140625 312.589844 80.375 312.589844 89.296875 L 312.589844 228.070312 C 312.589844 239.449219 303.363281 248.675781 291.984375 248.675781 L 225.410156 248.675781 C 225.707031 260.847656 228.769531 273.722656 232.574219 281.945312 L 246.480469 281.945312 C 254.203125 281.945312 260.523438 288.265625 260.523438 295.988281 C 260.523438 303.710938 254.203125 310.027344 246.480469 310.027344 L 137.097656 310.027344 C 129.375 310.027344 123.054688 303.710938 123.054688 295.988281 C 123.054688 288.265625 129.375 281.945312 137.097656 281.945312 L 150.96875 281.945312 C 154.675781 273.714844 157.46875 260.839844 157.648438 248.675781 L 91.59375 248.675781 C 83.761719 248.675781 76.953125 244.316406 73.464844 237.894531 Z M 78.609375 189.742188 L 79.839844 188.511719 C 82.335938 186.015625 85.847656 185.117188 89.070312 185.808594 L 96.703125 178.175781 C 91.273438 169.933594 88.113281 160.066406 88.113281 149.460938 C 88.113281 120.589844 111.523438 97.179688 140.394531 97.179688 C 162.632812 97.179688 181.632812 111.070312 189.1875 130.644531 C 194.550781 133.945312 199.757812 138.4375 205.890625 144.535156 C 213.558594 136.914062 219.789062 131.796875 226.679688 128.378906 C 238.140625 122.695312 251.507812 121.675781 276.863281 122.277344 C 278.96875 122.328125 280.636719 124.078125 280.589844 126.183594 C 280.539062 128.289062 278.789062 129.957031 276.683594 129.90625 C 274.769531 129.863281 272.933594 129.824219 271.164062 129.796875 L 271.164062 170.117188 C 272.933594 170.085938 274.769531 170.050781 276.683594 170.003906 C 278.789062 169.953125 280.539062 171.625 280.589844 173.730469 C 280.636719 175.835938 278.96875 177.585938 276.863281 177.636719 C 251.507812 178.234375 238.140625 177.214844 226.679688 171.53125 C 219.789062 168.113281 213.558594 163 205.890625 155.378906 C 199.558594 161.671875 194.210938 166.257812 188.65625 169.585938 C 180.773438 188.46875 162.132812 201.738281 140.394531 201.738281 C 129.789062 201.738281 119.917969 198.578125 111.675781 193.152344 L 104.042969 200.785156 C 104.539062 203.078125 104.226562 205.515625 103.105469 207.632812 L 304.957031 207.632812 L 304.957031 89.296875 C 304.957031 84.589844 301.140625 80.773438 296.433594 80.773438 L 91.59375 80.773438 C 84.417969 80.773438 78.609375 86.582031 78.609375 93.757812 Z M 95.59375 190.078125 L 99.777344 194.257812 L 105.578125 188.457031 C 104.105469 187.144531 102.710938 185.746094 101.398438 184.277344 Z M 96.09375 215.265625 C 91.601562 219.757812 84.96875 226.386719 79.246094 232.109375 C 80.945312 237.296875 85.832031 241.042969 91.59375 241.042969 L 161.421875 241.042969 C 161.429688 241.042969 161.441406 241.042969 161.453125 241.042969 L 221.578125 241.042969 C 221.585938 241.042969 221.59375 241.042969 221.601562 241.042969 L 291.984375 241.042969 C 299.148438 241.042969 304.957031 235.234375 304.957031 228.070312 L 304.957031 215.265625 Z M 224.292969 281.945312 C 220.765625 272.957031 218.054688 260.507812 217.777344 248.675781 L 165.277344 248.675781 C 165.105469 260.511719 162.617188 272.960938 159.210938 281.945312 Z M 153.308594 289.578125 L 137.097656 289.578125 C 133.574219 289.578125 130.6875 292.460938 130.6875 295.988281 C 130.6875 299.511719 133.574219 302.398438 137.097656 302.398438 L 246.480469 302.398438 C 250.007812 302.398438 252.890625 299.511719 252.890625 295.988281 C 252.890625 292.460938 250.007812 289.578125 246.480469 289.578125 L 230.253906 289.578125 C 230.226562 289.578125 230.199219 289.578125 230.167969 289.578125 L 153.394531 289.578125 C 153.367188 289.578125 153.339844 289.578125 153.308594 289.578125 Z M 192.179688 142.234375 C 192.503906 144.597656 192.671875 147.007812 192.671875 149.460938 C 192.671875 152.304688 192.445312 155.097656 192.007812 157.820312 C 194.703125 155.585938 197.488281 152.980469 200.523438 149.957031 C 197.550781 146.996094 194.820312 144.4375 192.179688 142.234375 Z M 263.53125 129.738281 C 259.019531 129.753906 255.003906 129.871094 251.371094 130.132812 L 251.371094 169.777344 C 255.003906 170.042969 259.019531 170.15625 263.53125 170.171875 Z M 243.738281 130.996094 C 239.1875 131.738281 235.253906 132.863281 231.582031 134.503906 L 231.582031 165.40625 C 235.253906 167.050781 239.1875 168.171875 243.738281 168.914062 Z M 223.949219 138.886719 C 219.917969 141.714844 215.886719 145.347656 211.261719 149.957031 C 215.886719 154.566406 219.917969 158.195312 223.949219 161.027344 Z M 88.628906 193.90625 L 88.625 193.902344 C 87.695312 192.96875 86.167969 192.976562 85.238281 193.90625 L 51.609375 227.535156 C 50.675781 228.46875 50.675781 229.996094 51.609375 230.929688 L 58.925781 238.246094 C 59.855469 239.179688 61.382812 239.183594 62.316406 238.25 L 95.945312 204.617188 C 96.878906 203.683594 96.878906 202.15625 95.945312 201.222656 Z M 182.546875 231.96875 C 180.4375 231.96875 178.730469 230.261719 178.730469 228.152344 C 178.730469 226.046875 180.4375 224.339844 182.546875 224.339844 L 201.019531 224.339844 C 203.125 224.339844 204.835938 226.046875 204.835938 228.152344 C 204.835938 230.261719 203.125 231.96875 201.019531 231.96875 Z M 140.394531 104.8125 C 115.738281 104.8125 95.746094 124.804688 95.746094 149.460938 C 95.746094 174.117188 115.738281 194.105469 140.394531 194.105469 C 165.050781 194.105469 185.042969 174.117188 185.042969 149.460938 C 185.042969 124.804688 165.050781 104.8125 140.394531 104.8125 Z M 140.394531 188.769531 C 118.734375 188.769531 101.082031 171.117188 101.082031 149.460938 C 101.082031 127.808594 118.734375 110.148438 140.394531 110.148438 C 162.042969 110.148438 179.707031 127.808594 179.707031 149.460938 C 179.707031 171.117188 162.042969 188.769531 140.394531 188.769531 Z M 156.6875 122.3125 C 151.921875 119.4375 146.34375 117.78125 140.394531 117.78125 C 122.941406 117.78125 108.714844 132.011719 108.714844 149.460938 C 108.714844 166.914062 122.941406 181.140625 140.394531 181.140625 C 145.566406 181.140625 150.453125 179.890625 154.773438 177.675781 C 151.660156 177.777344 148.300781 177.808594 144.65625 177.789062 C 144.582031 177.792969 144.507812 177.796875 144.4375 177.796875 C 144.347656 177.796875 144.257812 177.792969 144.167969 177.785156 C 141.277344 177.765625 138.199219 177.710938 134.917969 177.636719 C 132.8125 177.585938 131.144531 175.835938 131.195312 173.730469 C 131.246094 171.625 132.996094 169.953125 135.101562 170.003906 C 137.007812 170.050781 138.847656 170.085938 140.621094 170.113281 L 140.621094 129.796875 C 138.847656 129.824219 137.011719 129.863281 135.101562 129.90625 C 132.996094 129.957031 131.246094 128.289062 131.195312 126.183594 C 131.144531 124.078125 132.8125 122.328125 134.917969 122.277344 C 143.410156 122.074219 150.535156 122.046875 156.6875 122.3125 Z M 168.042969 164.898438 C 170.609375 160.324219 172.074219 155.058594 172.074219 149.460938 C 172.074219 143.863281 170.609375 138.597656 168.042969 134.023438 Z M 148.253906 129.75 L 148.253906 170.160156 C 152.753906 170.136719 156.769531 170.015625 160.410156 169.75 L 160.410156 130.164062 C 156.769531 129.894531 152.753906 129.769531 148.253906 129.75 Z M 148.253906 129.75 " fill-opacity="1" fill-rule="evenodd"/></g></svg>