<svg xmlns="http://www.w3.org/2000/svg" xmlns:xlink="http://www.w3.org/1999/xlink" width="500" zoomAndPan="magnify" viewBox="0 0 375 374.999991" height="500" preserveAspectRatio="xMidYMid meet" version="1.0"><defs><clipPath id="8fca8f67a9"><path d="M 187.5 0 C 83.945312 0 0 83.945312 0 187.5 C 0 291.054688 83.945312 375 187.5 375 C 291.054688 375 375 291.054688 375 187.5 C 375 83.945312 291.054688 0 187.5 0 Z M 187.5 0 " clip-rule="nonzero"/></clipPath><clipPath id="3f8ea8b82d"><path d="M 0 0 L 375 0 L 375 375 L 0 375 Z M 0 0 " clip-rule="nonzero"/></clipPath><clipPath id="56b87340ef"><path d="M 187.5 0 C 83.945312 0 0 83.945312 0 187.5 C 0 291.054688 83.945312 375 187.5 375 C 291.054688 375 375 291.054688 375 187.5 C 375 83.945312 291.054688 0 187.5 0 Z M 187.5 0 " clip-rule="nonzero"/></clipPath><clipPath id="7c38f26a77"><rect x="0" width="375" y="0" height="375"/></clipPath><clipPath id="967be47ca1"><path d="M 47.015625 257 L 328 257 L 328 283.992188 L 47.015625 283.992188 Z M 47.015625 257 " clip-rule="nonzero"/></clipPath><clipPath id="a3ba40f1df"><path d="M 183 73.242188 L 192 73.242188 L 192 91 L 183 91 Z M 183 73.242188 " clip-rule="nonzero"/></clipPath></defs><g clip-path="url(#8fca8f67a9)"><g transform="matrix(1, 0, 0, 1, 0, 0)"><g clip-path="url(#7c38f26a77)"><g clip-path="url(#3f8ea8b82d)"><g clip-path="url(#56b87340ef)"><rect x="-82.5" width="540" fill="#233c4b" height="539.999987" y="-82.499998" fill-opacity="1"/></g></g></g></g></g><g clip-path="url(#967be47ca1)"><path fill="#ffffff" d="M 327.316406 259.90625 C 326.660156 258.375 325.125 257.496094 323.371094 257.496094 L 51.621094 257.496094 C 49.867188 257.496094 48.332031 258.375 47.675781 259.90625 C 47.015625 261.441406 47.015625 263.195312 48.113281 264.507812 L 57.535156 277 C 60.824219 281.382812 66.304688 283.796875 72.21875 283.796875 L 302.773438 283.796875 C 308.90625 283.796875 314.386719 281.164062 317.453125 277 L 326.878906 264.507812 C 327.972656 263.195312 327.972656 261.441406 327.316406 259.90625 Z M 310.441406 271.742188 C 308.90625 273.714844 305.839844 275.027344 302.773438 275.027344 L 72.21875 275.027344 C 68.933594 275.027344 66.082031 273.714844 64.550781 271.742188 L 60.386719 266.261719 L 314.605469 266.261719 Z M 310.441406 271.742188 " fill-opacity="1" fill-rule="nonzero"/></g><path fill="#ffffff" d="M 77.917969 126.003906 C 77.917969 123.59375 79.890625 121.621094 82.300781 121.621094 L 95.449219 121.621094 C 95.667969 118.332031 96.546875 115.484375 98.082031 112.855469 L 82.300781 112.855469 C 75.070312 112.855469 69.152344 118.773438 69.152344 126.003906 L 69.152344 248.730469 L 77.917969 248.730469 Z M 77.917969 126.003906 " fill-opacity="1" fill-rule="nonzero"/><path fill="#ffffff" d="M 292.691406 121.621094 C 295.101562 121.621094 297.074219 123.59375 297.074219 126.003906 L 297.074219 248.730469 L 305.839844 248.730469 L 305.839844 126.003906 C 305.839844 118.773438 299.921875 112.855469 292.691406 112.855469 L 276.910156 112.855469 C 278.445312 115.484375 279.320312 118.332031 279.542969 121.621094 Z M 292.691406 121.621094 " fill-opacity="1" fill-rule="nonzero"/><path fill="#ffffff" d="M 115.175781 103.867188 C 117.585938 103.867188 119.558594 101.898438 119.558594 99.484375 L 119.558594 97.511719 C 129.859375 97.292969 158.566406 98.390625 184.867188 118.550781 C 185.742188 119.210938 186.621094 119.429688 187.496094 119.429688 C 188.371094 119.429688 189.46875 119.210938 190.125 118.550781 C 216.425781 98.390625 245.132812 97.292969 255.433594 97.511719 L 255.433594 99.484375 C 255.433594 101.898438 257.40625 103.867188 259.816406 103.867188 C 262.226562 103.867188 264.199219 101.898438 264.199219 99.484375 L 264.199219 94.445312 C 264.199219 91.597656 261.789062 89.183594 258.941406 88.964844 C 252.367188 88.527344 218.617188 87.214844 187.496094 109.566406 C 156.15625 87.214844 122.625 88.527344 116.050781 88.964844 C 113.203125 89.1875 110.792969 91.597656 110.792969 94.445312 L 110.792969 99.484375 C 110.792969 101.898438 112.765625 103.867188 115.175781 103.867188 Z M 115.175781 103.867188 " fill-opacity="1" fill-rule="nonzero"/><g clip-path="url(#a3ba40f1df)"><path fill="#ffffff" d="M 187.496094 90.9375 C 189.90625 90.9375 191.878906 88.964844 191.878906 86.554688 L 191.878906 77.789062 C 191.878906 75.378906 189.90625 73.40625 187.496094 73.40625 C 185.085938 73.40625 183.113281 75.378906 183.113281 77.789062 L 183.113281 86.554688 C 183.113281 88.964844 185.085938 90.9375 187.496094 90.9375 Z M 187.496094 90.9375 " fill-opacity="1" fill-rule="nonzero"/></g><path fill="#ffffff" d="M 171.277344 89.625 C 173.03125 91.378906 175.878906 91.378906 177.414062 89.625 C 179.167969 87.871094 179.167969 85.242188 177.414062 83.488281 L 173.03125 79.105469 C 171.277344 77.351562 168.648438 77.351562 166.894531 79.105469 C 165.140625 80.859375 165.140625 83.488281 166.894531 85.242188 C 166.894531 85.242188 171.277344 89.625 171.277344 89.625 Z M 171.277344 89.625 " fill-opacity="1" fill-rule="nonzero"/><path fill="#ffffff" d="M 200.644531 90.9375 C 201.742188 90.9375 202.835938 90.5 203.714844 89.625 L 208.097656 85.242188 C 209.851562 83.488281 209.851562 80.859375 208.097656 79.105469 C 206.34375 77.351562 203.714844 77.351562 201.960938 79.105469 C 201.960938 79.105469 197.578125 83.488281 197.578125 83.488281 C 194.945312 86.117188 196.917969 90.9375 200.644531 90.9375 Z M 200.644531 90.9375 " fill-opacity="1" fill-rule="nonzero"/><path fill="#ffffff" d="M 114.296875 226.15625 C 136.652344 224.625 160.757812 228.566406 180.265625 240.402344 C 182.894531 241.9375 185.085938 244.128906 188.152344 243.910156 C 191.441406 243.691406 193.414062 241.277344 196.042969 239.527344 C 214.234375 227.691406 239.65625 224.84375 260.695312 226.15625 C 263.324219 226.375 265.734375 225.28125 267.707031 223.527344 C 269.679688 221.773438 270.773438 219.144531 270.773438 216.515625 L 270.773438 122.496094 C 270.773438 117.238281 266.828125 113.074219 261.570312 112.855469 C 248.203125 112.414062 214.890625 113.949219 187.496094 133.453125 C 160.101562 113.949219 126.789062 112.414062 113.421875 112.855469 C 108.160156 113.074219 104.21875 117.238281 104.21875 122.496094 L 104.21875 216.515625 C 104.21875 219.144531 105.3125 221.773438 107.285156 223.527344 C 109.039062 225.28125 111.667969 226.15625 114.296875 226.15625 Z M 261.351562 121.621094 C 261.789062 121.621094 262.007812 122.058594 262.007812 122.496094 L 262.007812 216.515625 C 262.007812 216.953125 261.789062 217.390625 261.351562 217.390625 C 226.503906 215.199219 203.054688 225.5 191.878906 231.855469 L 191.878906 141.125 C 217.300781 122.714844 248.859375 121.402344 261.351562 121.621094 Z M 112.984375 122.496094 C 112.984375 122.058594 113.203125 121.621094 113.640625 121.621094 C 126.132812 121.402344 157.691406 122.714844 183.113281 141.125 L 183.113281 231.855469 C 173.03125 226.15625 152.871094 217.171875 123.285156 217.171875 C 120.214844 217.171875 117.148438 217.171875 113.859375 217.390625 C 113.421875 217.390625 113.203125 216.953125 113.203125 216.515625 L 113.203125 122.496094 Z M 112.984375 122.496094 " fill-opacity="1" fill-rule="nonzero"/><path fill="#ffffff" d="M 130.296875 150.109375 C 138.84375 150.550781 151.554688 152.300781 163.609375 158.21875 C 165.800781 159.316406 168.429688 158.21875 169.523438 156.246094 C 170.621094 154.054688 169.746094 151.425781 167.554688 150.328125 C 153.964844 143.972656 140.160156 142.003906 130.734375 141.5625 C 128.324219 141.34375 126.351562 143.316406 126.132812 145.726562 C 125.914062 147.917969 127.886719 149.890625 130.296875 150.109375 Z M 130.296875 150.109375 " fill-opacity="1" fill-rule="nonzero"/><path fill="#ffffff" d="M 130.296875 167.644531 C 138.84375 168.082031 151.554688 169.835938 163.609375 175.75 C 165.800781 176.847656 168.429688 175.75 169.523438 173.78125 C 170.621094 171.589844 169.746094 168.957031 167.554688 167.863281 C 153.964844 161.507812 140.160156 159.535156 130.734375 159.097656 C 128.324219 158.875 126.351562 160.847656 126.132812 163.261719 C 125.914062 165.453125 127.886719 167.644531 130.296875 167.644531 Z M 130.296875 167.644531 " fill-opacity="1" fill-rule="nonzero"/><path fill="#ffffff" d="M 130.296875 185.394531 C 138.84375 185.832031 151.554688 187.585938 163.609375 193.503906 C 165.800781 194.597656 168.429688 193.503906 169.523438 191.53125 C 170.621094 189.339844 169.746094 186.710938 167.554688 185.613281 C 153.964844 179.257812 140.160156 177.285156 130.734375 176.847656 C 128.324219 176.410156 126.351562 178.382812 126.132812 180.792969 C 125.914062 183.203125 127.886719 185.175781 130.296875 185.394531 Z M 130.296875 185.394531 " fill-opacity="1" fill-rule="nonzero"/><path fill="#ffffff" d="M 130.296875 202.925781 C 138.84375 203.367188 151.554688 205.117188 163.609375 211.035156 C 165.800781 212.132812 168.429688 211.035156 169.523438 209.0625 C 170.621094 206.871094 169.746094 204.242188 167.554688 203.144531 C 153.964844 196.789062 140.160156 194.816406 130.734375 194.378906 C 128.324219 194.160156 126.351562 196.132812 126.132812 198.542969 C 125.914062 200.734375 127.886719 202.925781 130.296875 202.925781 Z M 130.296875 202.925781 " fill-opacity="1" fill-rule="nonzero"/><path fill="#ffffff" d="M 209.410156 158.4375 C 210.070312 158.4375 210.726562 158.4375 211.382812 158 C 223.65625 152.082031 236.367188 150.328125 244.695312 149.890625 C 247.105469 149.671875 249.078125 147.699219 248.859375 145.289062 C 248.640625 142.878906 246.667969 141.125 244.257812 141.125 C 235.050781 141.5625 221.027344 143.535156 207.4375 149.890625 C 203.496094 152.082031 205.027344 158.4375 209.410156 158.4375 Z M 209.410156 158.4375 " fill-opacity="1" fill-rule="nonzero"/><path fill="#ffffff" d="M 209.410156 176.191406 C 210.070312 176.191406 210.726562 175.972656 211.382812 175.75 C 223.65625 169.835938 236.367188 168.082031 244.695312 167.644531 C 247.105469 167.425781 249.078125 165.453125 248.859375 163.039062 C 248.640625 160.628906 246.667969 158.875 244.257812 158.875 C 235.050781 159.316406 221.027344 161.289062 207.4375 167.644531 C 203.496094 169.835938 204.808594 175.972656 209.410156 176.191406 Z M 209.410156 176.191406 " fill-opacity="1" fill-rule="nonzero"/><path fill="#ffffff" d="M 209.410156 193.722656 C 210.070312 193.722656 210.726562 193.722656 211.382812 193.285156 C 223.65625 187.367188 236.367188 185.613281 244.695312 185.175781 C 247.105469 184.957031 249.078125 182.984375 248.859375 180.574219 C 248.640625 178.164062 246.667969 176.191406 244.257812 176.410156 C 235.050781 176.847656 221.027344 178.820312 207.4375 185.175781 C 205.246094 186.269531 204.371094 188.902344 205.464844 191.09375 C 206.125 192.847656 207.878906 193.722656 209.410156 193.722656 Z M 209.410156 193.722656 " fill-opacity="1" fill-rule="nonzero"/><path fill="#ffffff" d="M 209.410156 211.472656 C 210.070312 211.472656 210.726562 211.253906 211.382812 211.035156 C 223.65625 205.117188 236.367188 203.367188 244.695312 202.925781 C 247.105469 202.707031 249.078125 200.734375 248.859375 198.324219 C 248.640625 195.914062 246.667969 194.160156 244.257812 194.160156 C 235.050781 194.597656 221.027344 196.570312 207.4375 202.925781 C 205.246094 204.023438 204.371094 206.652344 205.464844 208.84375 C 206.125 210.597656 207.878906 211.472656 209.410156 211.472656 Z M 209.410156 211.472656 " fill-opacity="1" fill-rule="nonzero"/></svg>