<svg xmlns="http://www.w3.org/2000/svg" xmlns:xlink="http://www.w3.org/1999/xlink" width="500" zoomAndPan="magnify" viewBox="0 0 375 374.999991" height="500" preserveAspectRatio="xMidYMid meet" version="1.0"><defs><clipPath id="ea79bd2940"><path d="M 187.5 0 C 83.945312 0 0 83.945312 0 187.5 C 0 291.054688 83.945312 375 187.5 375 C 291.054688 375 375 291.054688 375 187.5 C 375 83.945312 291.054688 0 187.5 0 Z M 187.5 0 " clip-rule="nonzero"/></clipPath><clipPath id="788fa97808"><path d="M 0 0 L 375 0 L 375 375 L 0 375 Z M 0 0 " clip-rule="nonzero"/></clipPath><clipPath id="f36cfeaa47"><path d="M 187.5 0 C 83.945312 0 0 83.945312 0 187.5 C 0 291.054688 83.945312 375 187.5 375 C 291.054688 375 375 291.054688 375 187.5 C 375 83.945312 291.054688 0 187.5 0 Z M 187.5 0 " clip-rule="nonzero"/></clipPath><clipPath id="c340679510"><rect x="0" width="375" y="0" height="375"/></clipPath><clipPath id="3bc8181587"><path d="M 60 52 L 315 52 L 315 337.378906 L 60 337.378906 Z M 60 52 " clip-rule="nonzero"/></clipPath></defs><g clip-path="url(#ea79bd2940)"><g transform="matrix(1, 0, 0, 1, 0, 0)"><g clip-path="url(#c340679510)"><g clip-path="url(#788fa97808)"><g clip-path="url(#f36cfeaa47)"><rect x="-82.5" width="540" fill="#233c4b" height="539.999987" y="-82.499998" fill-opacity="1"/></g></g></g></g></g><g clip-path="url(#3bc8181587)"><path fill="#fdfdfe" d="M 294.328125 66.375 L 277.058594 66.375 C 276.796875 65.359375 276.453125 64.367188 276.027344 63.410156 C 275.601562 62.449219 275.097656 61.53125 274.519531 60.652344 C 273.941406 59.777344 273.292969 58.953125 272.578125 58.183594 C 271.863281 57.414062 271.089844 56.707031 270.257812 56.066406 C 269.425781 55.421875 268.546875 54.855469 267.621094 54.359375 C 266.695312 53.863281 265.734375 53.445312 264.738281 53.109375 C 263.742188 52.773438 262.726562 52.519531 261.6875 52.351562 C 260.652344 52.183594 259.609375 52.101562 258.558594 52.105469 L 179.789062 52.105469 C 179.167969 52.074219 178.542969 52.078125 177.921875 52.109375 C 177.296875 52.140625 176.675781 52.203125 176.058594 52.292969 C 175.445312 52.386719 174.832031 52.507812 174.226562 52.664062 C 173.621094 52.816406 173.027344 52.996094 172.441406 53.207031 C 171.851562 53.417969 171.277344 53.660156 170.714844 53.925781 C 170.152344 54.195312 169.601562 54.488281 169.066406 54.808594 C 168.53125 55.132812 168.015625 55.476562 167.515625 55.851562 C 167.015625 56.222656 166.53125 56.621094 166.070312 57.039062 C 165.609375 57.457031 165.167969 57.898438 164.75 58.363281 C 164.332031 58.824219 163.9375 59.308594 163.566406 59.808594 C 163.199219 60.3125 162.851562 60.828125 162.53125 61.367188 C 162.210938 61.902344 161.917969 62.449219 161.652344 63.015625 C 161.386719 63.578125 161.152344 64.15625 160.941406 64.742188 C 160.730469 65.332031 160.550781 65.929688 160.402344 66.535156 C 160.25 67.136719 160.128906 67.75 160.039062 68.367188 C 159.949219 68.984375 159.890625 69.605469 159.859375 70.226562 C 159.828125 70.851562 159.832031 71.472656 159.863281 72.097656 C 159.894531 72.71875 159.957031 73.339844 160.050781 73.957031 C 160.140625 74.574219 160.265625 75.183594 160.417969 75.789062 C 160.570312 76.394531 160.75 76.992188 160.960938 77.578125 C 161.171875 78.164062 161.414062 78.738281 161.679688 79.304688 C 161.949219 79.867188 162.242188 80.414062 162.5625 80.949219 C 162.886719 81.484375 163.234375 82.003906 163.605469 82.503906 C 163.976562 83.003906 164.375 83.484375 164.792969 83.945312 C 165.214844 84.40625 165.652344 84.847656 166.117188 85.265625 C 166.578125 85.683594 167.0625 86.078125 167.5625 86.449219 C 168.066406 86.820312 168.585938 87.164062 169.121094 87.484375 C 169.65625 87.804688 170.207031 88.097656 170.769531 88.363281 C 171.335938 88.628906 171.910156 88.867188 172.496094 89.074219 C 173.085938 89.285156 173.683594 89.464844 174.289062 89.617188 C 174.894531 89.765625 175.503906 89.886719 176.121094 89.976562 C 176.738281 90.066406 177.359375 90.128906 177.980469 90.15625 L 177.980469 107.519531 C 177.011719 107.890625 176.074219 108.332031 175.171875 108.851562 C 174.269531 109.371094 173.414062 109.957031 172.605469 110.613281 C 171.796875 111.265625 171.046875 111.980469 170.351562 112.753906 C 169.65625 113.527344 169.027344 114.351562 168.460938 115.226562 C 167.898438 116.101562 167.40625 117.011719 166.988281 117.964844 C 166.570312 118.917969 166.226562 119.894531 165.964844 120.902344 C 165.699219 121.910156 165.519531 122.929688 165.417969 123.964844 C 165.316406 125 165.296875 126.035156 165.359375 127.074219 C 165.421875 128.113281 165.566406 129.140625 165.792969 130.15625 C 166.019531 131.171875 166.324219 132.160156 166.710938 133.128906 C 167.09375 134.09375 167.550781 135.027344 168.082031 135.917969 C 168.613281 136.8125 169.214844 137.660156 169.878906 138.460938 C 170.546875 139.257812 171.269531 140 172.054688 140.683594 C 172.839844 141.367188 173.671875 141.984375 174.554688 142.535156 C 175.433594 143.085938 176.355469 143.566406 177.3125 143.972656 C 178.269531 144.375 179.253906 144.703125 180.265625 144.953125 L 180.265625 163.980469 C 178.632812 162.65625 176.949219 161.40625 175.210938 160.230469 C 173.472656 159.054688 171.6875 157.953125 169.851562 156.929688 C 168.019531 155.902344 166.148438 154.960938 164.234375 154.09375 C 162.320312 153.230469 160.375 152.449219 158.394531 151.753906 C 156.414062 151.054688 154.40625 150.445312 152.375 149.917969 C 150.339844 149.390625 148.289062 148.953125 146.21875 148.605469 C 144.148438 148.253906 142.066406 147.992188 139.976562 147.820312 C 137.882812 147.648438 135.785156 147.566406 133.6875 147.574219 C 131.585938 147.582031 129.492188 147.679688 127.402344 147.867188 C 125.308594 148.054688 123.230469 148.328125 121.164062 148.695312 C 119.09375 149.058594 117.046875 149.511719 115.019531 150.050781 C 112.988281 150.59375 110.988281 151.21875 109.011719 151.929688 C 107.035156 152.640625 105.09375 153.4375 103.1875 154.3125 C 101.28125 155.191406 99.414062 156.148438 97.589844 157.1875 C 95.761719 158.222656 93.984375 159.335938 92.253906 160.527344 C 90.527344 161.71875 88.847656 162.980469 87.226562 164.3125 L 86.5625 164.882812 C 85.535156 165.738281 84.535156 166.621094 83.558594 167.53125 C 82.578125 168.441406 81.628906 169.378906 80.703125 170.34375 C 79.773438 171.304688 78.875 172.292969 78.003906 173.300781 C 77.128906 174.3125 76.285156 175.347656 75.46875 176.40625 C 74.652344 177.460938 73.863281 178.542969 73.105469 179.640625 C 72.347656 180.742188 71.621094 181.863281 70.925781 183 C 70.226562 184.140625 69.5625 185.296875 68.929688 186.472656 C 68.292969 187.648438 67.691406 188.84375 67.125 190.050781 C 66.554688 191.257812 66.019531 192.484375 65.515625 193.71875 C 65.015625 194.957031 64.546875 196.207031 64.109375 197.472656 C 63.675781 198.734375 63.277344 200.007812 62.910156 201.292969 C 62.546875 202.578125 62.214844 203.871094 61.921875 205.175781 C 61.625 206.480469 61.367188 207.789062 61.144531 209.105469 C 60.917969 210.421875 60.730469 211.746094 60.578125 213.070312 C 60.429688 214.398438 60.3125 215.730469 60.234375 217.0625 C 60.152344 218.398438 60.109375 219.730469 60.105469 221.066406 C 60.097656 222.402344 60.125 223.738281 60.191406 225.074219 C 60.257812 226.40625 60.359375 227.738281 60.5 229.066406 C 60.636719 230.394531 60.8125 231.71875 61.023438 233.039062 C 61.230469 234.359375 61.476562 235.671875 61.757812 236.976562 C 62.042969 238.28125 62.359375 239.578125 62.710938 240.867188 C 63.0625 242.15625 63.449219 243.433594 63.871094 244.703125 C 64.292969 245.96875 64.75 247.222656 65.238281 248.46875 C 65.730469 249.710938 66.253906 250.9375 66.808594 252.152344 C 67.367188 253.367188 67.957031 254.566406 68.578125 255.746094 C 69.199219 256.929688 69.851562 258.09375 70.539062 259.242188 C 71.222656 260.386719 71.941406 261.515625 72.6875 262.621094 C 73.433594 263.730469 74.210938 264.816406 75.015625 265.882812 C 75.820312 266.949219 76.65625 267.992188 77.519531 269.011719 C 78.378906 270.03125 79.269531 271.027344 80.1875 272 C 81.101562 272.96875 82.046875 273.917969 83.011719 274.835938 C 83.980469 275.757812 84.972656 276.652344 85.992188 277.515625 L 86.515625 277.945312 C 88.160156 279.339844 89.863281 280.65625 91.625 281.898438 C 93.386719 283.140625 95.199219 284.304688 97.0625 285.390625 C 98.925781 286.472656 100.835938 287.472656 102.785156 288.390625 C 104.738281 289.304688 106.726562 290.136719 108.75 290.878906 C 110.777344 291.617188 112.828125 292.269531 114.910156 292.832031 C 116.992188 293.394531 119.09375 293.863281 121.21875 294.238281 C 123.339844 294.613281 125.476562 294.898438 127.625 295.085938 C 129.769531 295.277344 131.921875 295.371094 134.078125 295.371094 C 136.234375 295.371094 138.386719 295.277344 140.535156 295.085938 C 142.683594 294.898438 144.816406 294.613281 146.941406 294.238281 C 149.0625 293.863281 151.167969 293.394531 153.25 292.832031 C 155.328125 292.269531 157.382812 291.617188 159.40625 290.878906 C 161.433594 290.136719 163.421875 289.304688 165.371094 288.390625 C 167.324219 287.472656 169.230469 286.472656 171.09375 285.390625 C 172.960938 284.304688 174.773438 283.140625 176.535156 281.898438 C 178.296875 280.65625 180 279.339844 181.644531 277.945312 L 182.023438 277.613281 L 183.117188 276.566406 C 183.59375 278.183594 184.070312 279.800781 184.6875 281.320312 L 201.765625 325.652344 C 202.097656 326.527344 202.496094 327.367188 202.957031 328.179688 C 203.417969 328.992188 203.9375 329.765625 204.515625 330.496094 C 205.09375 331.230469 205.726562 331.914062 206.40625 332.550781 C 207.089844 333.1875 207.816406 333.769531 208.589844 334.296875 C 209.359375 334.824219 210.167969 335.289062 211.007812 335.691406 C 211.851562 336.09375 212.71875 336.429688 213.613281 336.703125 C 214.507812 336.972656 215.414062 337.175781 216.339844 337.308594 C 217.261719 337.441406 218.191406 337.503906 219.125 337.496094 C 220.058594 337.503906 220.988281 337.4375 221.910156 337.304688 C 222.835938 337.167969 223.742188 336.964844 224.636719 336.691406 C 225.527344 336.417969 226.394531 336.078125 227.234375 335.671875 C 228.078125 335.265625 228.882812 334.800781 229.652344 334.273438 C 230.421875 333.742188 231.144531 333.160156 231.824219 332.519531 C 232.507812 331.882812 233.132812 331.195312 233.710938 330.460938 C 234.285156 329.722656 234.800781 328.949219 235.261719 328.136719 C 235.71875 327.324219 236.109375 326.480469 236.441406 325.605469 L 252.851562 282.796875 C 255.628906 275.570312 257.039062 268.085938 257.082031 260.347656 L 258.082031 145.238281 C 258.941406 145.027344 259.785156 144.761719 260.609375 144.4375 C 261.433594 144.113281 262.230469 143.734375 263.003906 143.300781 C 263.773438 142.867188 264.511719 142.382812 265.21875 141.847656 C 265.925781 141.3125 266.589844 140.730469 267.21875 140.105469 C 267.84375 139.476562 268.425781 138.8125 268.960938 138.105469 C 269.496094 137.398438 269.980469 136.660156 270.414062 135.890625 C 270.847656 135.117188 271.226562 134.320312 271.550781 133.496094 C 271.875 132.671875 272.140625 131.828125 272.351562 130.96875 L 294.328125 130.96875 C 295 130.96875 295.675781 130.933594 296.34375 130.871094 C 297.015625 130.804688 297.683594 130.703125 298.34375 130.574219 C 299.007812 130.441406 299.660156 130.277344 300.304688 130.082031 C 300.949219 129.886719 301.585938 129.660156 302.207031 129.402344 C 302.832031 129.144531 303.441406 128.855469 304.035156 128.535156 C 304.628906 128.21875 305.207031 127.871094 305.769531 127.496094 C 306.328125 127.121094 306.871094 126.722656 307.390625 126.292969 C 307.914062 125.867188 308.414062 125.414062 308.890625 124.9375 C 309.367188 124.460938 309.820312 123.960938 310.246094 123.4375 C 310.675781 122.917969 311.078125 122.375 311.453125 121.816406 C 311.824219 121.253906 312.171875 120.675781 312.492188 120.082031 C 312.808594 119.488281 313.097656 118.878906 313.355469 118.253906 C 313.613281 117.632812 313.839844 116.996094 314.035156 116.351562 C 314.230469 115.707031 314.394531 115.050781 314.527344 114.390625 C 314.660156 113.730469 314.757812 113.0625 314.824219 112.390625 C 314.890625 111.71875 314.921875 111.046875 314.921875 110.371094 L 314.921875 87.066406 C 314.925781 86.390625 314.894531 85.714844 314.832031 85.039062 C 314.769531 84.367188 314.671875 83.699219 314.542969 83.035156 C 314.414062 82.371094 314.253906 81.714844 314.058594 81.066406 C 313.863281 80.417969 313.640625 79.78125 313.382812 79.15625 C 313.125 78.527344 312.839844 77.917969 312.523438 77.320312 C 312.203125 76.722656 311.859375 76.140625 311.484375 75.578125 C 311.109375 75.015625 310.710938 74.46875 310.28125 73.945312 C 309.855469 73.421875 309.402344 72.921875 308.925781 72.441406 C 308.445312 71.960938 307.945312 71.507812 307.425781 71.078125 C 306.902344 70.644531 306.359375 70.242188 305.800781 69.867188 C 305.238281 69.488281 304.65625 69.140625 304.0625 68.820312 C 303.464844 68.5 302.855469 68.210938 302.230469 67.953125 C 301.605469 67.691406 300.96875 67.464844 300.324219 67.265625 C 299.675781 67.070312 299.019531 66.90625 298.355469 66.773438 C 297.691406 66.640625 297.023438 66.542969 296.351562 66.476562 C 295.679688 66.40625 295.003906 66.375 294.328125 66.375 Z M 170.132812 71.132812 C 170.132812 70.507812 170.195312 69.886719 170.316406 69.277344 C 170.4375 68.664062 170.617188 68.066406 170.859375 67.492188 C 171.097656 66.914062 171.390625 66.367188 171.738281 65.847656 C 172.085938 65.328125 172.476562 64.847656 172.921875 64.40625 C 173.363281 63.964844 173.84375 63.570312 174.363281 63.222656 C 174.882812 62.875 175.429688 62.582031 176.007812 62.34375 C 176.582031 62.101562 177.179688 61.921875 177.789062 61.800781 C 178.402344 61.679688 179.023438 61.617188 179.648438 61.617188 L 258.558594 61.617188 C 259.191406 61.617188 259.816406 61.679688 260.4375 61.804688 C 261.058594 61.925781 261.660156 62.109375 262.246094 62.351562 C 262.828125 62.59375 263.382812 62.890625 263.910156 63.242188 C 264.4375 63.59375 264.921875 63.992188 265.371094 64.4375 C 265.816406 64.886719 266.21875 65.371094 266.570312 65.898438 C 266.921875 66.425781 267.21875 66.980469 267.460938 67.5625 C 267.703125 68.148438 267.882812 68.75 268.007812 69.371094 C 268.132812 69.992188 268.191406 70.617188 268.191406 71.25 C 268.191406 71.882812 268.132812 72.507812 268.007812 73.128906 C 267.882812 73.75 267.703125 74.351562 267.460938 74.9375 C 267.21875 75.519531 266.921875 76.078125 266.570312 76.601562 C 266.21875 77.128906 265.816406 77.613281 265.371094 78.0625 C 264.921875 78.507812 264.4375 78.910156 263.910156 79.261719 C 263.382812 79.613281 262.828125 79.90625 262.246094 80.148438 C 261.660156 80.390625 261.058594 80.574219 260.4375 80.699219 C 259.816406 80.820312 259.191406 80.882812 258.558594 80.882812 L 179.789062 80.882812 C 179.148438 80.890625 178.511719 80.835938 177.882812 80.71875 C 177.253906 80.601562 176.640625 80.421875 176.050781 80.179688 C 175.457031 79.9375 174.894531 79.636719 174.359375 79.28125 C 173.828125 78.925781 173.335938 78.519531 172.882812 78.0625 C 172.433594 77.609375 172.03125 77.113281 171.683594 76.578125 C 171.332031 76.039062 171.039062 75.472656 170.800781 74.878906 C 170.566406 74.28125 170.390625 73.667969 170.277344 73.039062 C 170.164062 72.40625 170.117188 71.773438 170.132812 71.132812 Z M 250.996094 90.15625 L 250.996094 105.996094 L 187.496094 105.996094 L 187.496094 90.394531 Z M 134.03125 156.75 C 137.371094 156.746094 140.691406 157.007812 143.992188 157.527344 C 147.292969 158.046875 150.53125 158.824219 153.707031 159.851562 C 156.886719 160.882812 159.964844 162.152344 162.941406 163.667969 C 165.917969 165.179688 168.761719 166.917969 171.464844 168.878906 L 96.503906 168.878906 C 99.21875 166.953125 102.070312 165.246094 105.050781 163.769531 C 108.035156 162.289062 111.117188 161.050781 114.292969 160.050781 C 117.46875 159.054688 120.707031 158.3125 124 157.820312 C 127.292969 157.332031 130.605469 157.101562 133.9375 157.128906 Z M 173.226562 178.773438 C 172.691406 183.511719 171.328125 187.996094 169.136719 192.234375 L 98.546875 192.234375 C 96.355469 187.996094 94.992188 183.511719 94.457031 178.773438 Z M 133.9375 212.875 C 131.289062 212.226562 128.609375 211.765625 125.898438 211.496094 C 122.058594 211.128906 118.390625 210.128906 114.898438 208.496094 C 111.40625 206.863281 108.285156 204.691406 105.539062 201.984375 L 162.285156 201.984375 C 160.929688 203.328125 159.46875 204.550781 157.902344 205.644531 C 156.335938 206.738281 154.6875 207.691406 152.957031 208.5 C 151.226562 209.3125 149.4375 209.96875 147.59375 210.472656 C 145.75 210.972656 143.878906 211.316406 141.976562 211.496094 C 139.261719 211.761719 136.582031 212.222656 133.9375 212.875 Z M 163 243.507812 L 105.066406 243.269531 C 106.785156 240.785156 108.707031 238.464844 110.828125 236.3125 C 112.949219 234.160156 115.242188 232.207031 117.703125 230.453125 C 120.164062 228.695312 122.757812 227.164062 125.484375 225.859375 C 128.207031 224.554688 131.027344 223.492188 133.9375 222.675781 C 136.871094 223.496094 139.714844 224.566406 142.464844 225.886719 C 145.210938 227.207031 147.824219 228.753906 150.304688 230.53125 C 152.78125 232.308594 155.085938 234.285156 157.21875 236.464844 C 159.351562 238.644531 161.277344 240.992188 163 243.507812 Z M 85.992188 264.246094 C 84.703125 262.816406 83.484375 261.332031 82.332031 259.789062 C 81.179688 258.25 80.101562 256.660156 79.089844 255.023438 C 78.082031 253.386719 77.148438 251.707031 76.292969 249.984375 C 75.433594 248.261719 74.65625 246.503906 73.957031 244.710938 C 73.257812 242.917969 72.640625 241.101562 72.105469 239.25 C 71.570312 237.402344 71.121094 235.535156 70.753906 233.648438 C 70.386719 231.757812 70.109375 229.859375 69.914062 227.945312 C 69.71875 226.03125 69.609375 224.109375 69.589844 222.1875 C 69.566406 220.265625 69.632812 218.34375 69.785156 216.425781 C 69.933594 214.507812 70.171875 212.601562 70.496094 210.703125 C 70.820312 208.808594 71.226562 206.929688 71.722656 205.070312 C 72.214844 203.210938 72.789062 201.378906 73.449219 199.570312 C 74.105469 197.761719 74.84375 195.988281 75.664062 194.25 C 76.480469 192.507812 77.378906 190.808594 78.347656 189.148438 C 79.320312 187.488281 80.367188 185.875 81.484375 184.308594 C 82.601562 182.742188 83.785156 181.230469 85.039062 179.769531 C 85.519531 184.179688 86.59375 188.445312 88.257812 192.554688 C 89.921875 196.667969 92.113281 200.476562 94.839844 203.980469 C 97.652344 207.675781 100.972656 210.839844 104.789062 213.480469 C 108.609375 216.125 112.746094 218.109375 117.195312 219.441406 C 115.1875 220.65625 113.253906 221.972656 111.382812 223.390625 C 109.515625 224.804688 107.726562 226.316406 106.019531 227.921875 C 104.308594 229.527344 102.6875 231.214844 101.152344 232.988281 C 99.621094 234.765625 98.183594 236.613281 96.84375 238.535156 C 95.503906 240.460938 94.269531 242.449219 93.136719 244.503906 C 92.003906 246.554688 90.984375 248.664062 90.070312 250.824219 C 89.160156 252.984375 88.363281 255.183594 87.679688 257.429688 C 87 259.671875 86.433594 261.945312 85.992188 264.246094 Z M 133.9375 285.839844 C 130.660156 285.839844 127.40625 285.589844 124.167969 285.085938 C 120.933594 284.585938 117.753906 283.84375 114.628906 282.855469 C 111.507812 281.867188 108.480469 280.644531 105.542969 279.191406 C 102.609375 277.738281 99.800781 276.070312 97.121094 274.1875 L 170.847656 274.1875 C 168.160156 276.074219 165.347656 277.746094 162.402344 279.203125 C 159.460938 280.65625 156.421875 281.878906 153.292969 282.867188 C 150.164062 283.855469 146.972656 284.601562 143.730469 285.097656 C 140.484375 285.597656 137.21875 285.84375 133.9375 285.839844 Z M 95.597656 264.675781 C 96.519531 260.566406 97.867188 256.601562 99.640625 252.78125 L 168.46875 253.019531 C 170.148438 256.777344 171.449219 260.664062 172.371094 264.675781 Z M 181.929688 264.246094 C 181.484375 261.945312 180.917969 259.671875 180.234375 257.425781 C 179.546875 255.183594 178.75 252.980469 177.835938 250.820312 C 176.921875 248.660156 175.894531 246.554688 174.761719 244.5 C 173.628906 242.449219 172.390625 240.460938 171.046875 238.535156 C 169.707031 236.609375 168.265625 234.761719 166.734375 232.988281 C 165.199219 231.214844 163.574219 229.527344 161.863281 227.921875 C 160.152344 226.316406 158.363281 224.804688 156.492188 223.386719 C 154.625 221.972656 152.6875 220.65625 150.679688 219.441406 C 155.164062 218.128906 159.332031 216.148438 163.183594 213.507812 C 167.039062 210.867188 170.386719 207.691406 173.226562 203.980469 C 175.886719 200.457031 178.027344 196.640625 179.640625 192.527344 C 181.257812 188.417969 182.289062 184.164062 182.738281 179.769531 C 186.332031 183.960938 189.339844 188.539062 191.757812 193.503906 C 194.175781 198.46875 195.925781 203.65625 197.007812 209.070312 C 197.492188 211.496094 197.835938 213.941406 198.035156 216.40625 C 198.234375 218.875 198.292969 221.34375 198.207031 223.8125 C 198.121094 226.285156 197.890625 228.746094 197.519531 231.191406 C 197.148438 233.636719 196.636719 236.050781 195.984375 238.4375 C 195.332031 240.824219 194.542969 243.164062 193.621094 245.460938 C 192.695312 247.753906 191.644531 249.988281 190.460938 252.160156 C 189.277344 254.332031 187.972656 256.429688 186.546875 258.453125 C 185.121094 260.472656 183.582031 262.402344 181.929688 264.246094 Z M 247.570312 260.011719 C 247.527344 266.574219 246.324219 272.917969 243.953125 279.039062 L 227.546875 322.085938 C 227.238281 322.953125 226.804688 323.753906 226.25 324.488281 C 225.691406 325.222656 225.035156 325.855469 224.28125 326.382812 C 223.523438 326.910156 222.707031 327.3125 221.828125 327.585938 C 220.949219 327.859375 220.046875 327.992188 219.125 327.984375 C 218.214844 327.996094 217.320312 327.871094 216.445312 327.609375 C 215.570312 327.34375 214.757812 326.957031 214.003906 326.441406 C 213.25 325.925781 212.59375 325.308594 212.027344 324.589844 C 211.464844 323.871094 211.027344 323.082031 210.707031 322.226562 L 193.488281 277.898438 C 192.324219 274.804688 191.4375 271.632812 190.824219 268.382812 C 193.550781 265.101562 195.976562 261.609375 198.09375 257.90625 C 200.214844 254.203125 201.996094 250.34375 203.445312 246.328125 C 204.894531 242.316406 205.984375 238.207031 206.714844 234 C 207.445312 229.796875 207.8125 225.5625 207.804688 221.292969 C 207.785156 218.335938 207.59375 215.386719 207.234375 212.449219 C 210.90625 212.222656 214.535156 212.507812 218.128906 213.304688 C 226.457031 215.195312 234.890625 216.148438 243.433594 216.15625 L 248.1875 216.15625 Z M 248.425781 159.414062 L 231.160156 159.414062 C 230.847656 159.414062 230.539062 159.441406 230.230469 159.503906 C 229.925781 159.566406 229.628906 159.65625 229.339844 159.773438 C 229.050781 159.894531 228.777344 160.039062 228.515625 160.214844 C 228.257812 160.386719 228.015625 160.585938 227.796875 160.804688 C 227.574219 161.027344 227.378906 161.265625 227.203125 161.527344 C 227.03125 161.785156 226.886719 162.058594 226.765625 162.347656 C 226.644531 162.636719 226.554688 162.933594 226.496094 163.242188 C 226.433594 163.546875 226.402344 163.855469 226.402344 164.167969 C 226.402344 164.480469 226.433594 164.789062 226.496094 165.097656 C 226.554688 165.402344 226.644531 165.699219 226.765625 165.988281 C 226.886719 166.277344 227.03125 166.550781 227.203125 166.8125 C 227.378906 167.070312 227.574219 167.3125 227.796875 167.53125 C 228.015625 167.753906 228.257812 167.949219 228.515625 168.125 C 228.777344 168.296875 229.050781 168.445312 229.339844 168.5625 C 229.628906 168.683594 229.925781 168.773438 230.230469 168.835938 C 230.539062 168.894531 230.847656 168.925781 231.160156 168.925781 L 248.332031 168.925781 L 248.332031 180.960938 L 231.160156 180.960938 C 230.847656 180.960938 230.539062 180.988281 230.230469 181.050781 C 229.925781 181.113281 229.628906 181.203125 229.339844 181.320312 C 229.050781 181.441406 228.777344 181.585938 228.515625 181.761719 C 228.257812 181.933594 228.015625 182.132812 227.796875 182.351562 C 227.574219 182.574219 227.378906 182.8125 227.203125 183.074219 C 227.03125 183.332031 226.886719 183.605469 226.765625 183.894531 C 226.644531 184.183594 226.554688 184.480469 226.496094 184.789062 C 226.433594 185.09375 226.402344 185.402344 226.402344 185.714844 C 226.402344 186.027344 226.433594 186.335938 226.496094 186.644531 C 226.554688 186.949219 226.644531 187.246094 226.765625 187.535156 C 226.886719 187.824219 227.03125 188.097656 227.203125 188.359375 C 227.378906 188.617188 227.574219 188.859375 227.796875 189.078125 C 228.015625 189.300781 228.257812 189.496094 228.515625 189.671875 C 228.777344 189.84375 229.050781 189.992188 229.339844 190.109375 C 229.628906 190.230469 229.925781 190.320312 230.230469 190.382812 C 230.539062 190.441406 230.847656 190.472656 231.160156 190.472656 L 248.1875 190.472656 L 248.1875 206.691406 C 238.773438 207.144531 229.46875 206.351562 220.265625 204.3125 C 215.378906 203.167969 210.429688 202.820312 205.425781 203.269531 C 204.011719 197.730469 201.976562 192.429688 199.328125 187.371094 C 196.675781 182.308594 193.476562 177.617188 189.730469 173.300781 L 189.730469 145.617188 L 248.570312 145.617188 Z M 253.515625 136.105469 L 184.878906 136.105469 C 184.210938 136.105469 183.546875 136.039062 182.894531 135.910156 C 182.238281 135.78125 181.601562 135.585938 180.984375 135.332031 C 180.367188 135.074219 179.78125 134.761719 179.222656 134.390625 C 178.667969 134.019531 178.152344 133.597656 177.679688 133.125 C 177.207031 132.652344 176.785156 132.136719 176.414062 131.582031 C 176.042969 131.027344 175.730469 130.4375 175.476562 129.820312 C 175.21875 129.203125 175.027344 128.566406 174.894531 127.914062 C 174.765625 127.257812 174.699219 126.59375 174.699219 125.925781 C 174.699219 125.257812 174.765625 124.597656 174.894531 123.941406 C 175.027344 123.285156 175.21875 122.648438 175.476562 122.03125 C 175.730469 121.414062 176.042969 120.828125 176.414062 120.269531 C 176.785156 119.714844 177.207031 119.203125 177.679688 118.730469 C 178.152344 118.257812 178.667969 117.835938 179.222656 117.464844 C 179.78125 117.089844 180.367188 116.777344 180.984375 116.523438 C 181.601562 116.265625 182.238281 116.074219 182.894531 115.941406 C 183.546875 115.8125 184.210938 115.746094 184.878906 115.746094 L 253.515625 115.746094 C 254.183594 115.746094 254.847656 115.8125 255.5 115.941406 C 256.15625 116.074219 256.792969 116.265625 257.410156 116.523438 C 258.027344 116.777344 258.613281 117.089844 259.171875 117.464844 C 259.726562 117.835938 260.242188 118.257812 260.714844 118.730469 C 261.1875 119.203125 261.609375 119.714844 261.980469 120.269531 C 262.351562 120.828125 262.664062 121.414062 262.917969 122.03125 C 263.175781 122.648438 263.367188 123.285156 263.5 123.941406 C 263.628906 124.597656 263.695312 125.257812 263.695312 125.925781 C 263.695312 126.59375 263.628906 127.257812 263.5 127.914062 C 263.367188 128.566406 263.175781 129.203125 262.917969 129.820312 C 262.664062 130.4375 262.351562 131.027344 261.980469 131.582031 C 261.609375 132.136719 261.1875 132.652344 260.714844 133.125 C 260.242188 133.597656 259.726562 134.019531 259.171875 134.390625 C 258.613281 134.761719 258.027344 135.074219 257.410156 135.332031 C 256.792969 135.585938 256.15625 135.78125 255.5 135.910156 C 254.847656 136.039062 254.183594 136.105469 253.515625 136.105469 Z M 305.410156 110.085938 C 305.410156 110.816406 305.339844 111.535156 305.195312 112.25 C 305.054688 112.964844 304.84375 113.65625 304.566406 114.328125 C 304.289062 115 303.945312 115.640625 303.542969 116.246094 C 303.136719 116.851562 302.679688 117.410156 302.164062 117.925781 C 301.648438 118.4375 301.089844 118.898438 300.484375 119.300781 C 299.878906 119.707031 299.238281 120.046875 298.566406 120.328125 C 297.894531 120.605469 297.203125 120.816406 296.488281 120.957031 C 295.773438 121.097656 295.054688 121.171875 294.328125 121.171875 L 272.398438 121.171875 C 272.027344 119.636719 271.472656 118.167969 270.742188 116.769531 C 270.015625 115.367188 269.125 114.074219 268.082031 112.890625 C 267.039062 111.707031 265.867188 110.664062 264.570312 109.761719 C 263.273438 108.863281 261.886719 108.128906 260.414062 107.566406 L 260.414062 90.15625 C 261.382812 90.066406 262.34375 89.898438 263.289062 89.660156 C 264.234375 89.421875 265.15625 89.109375 266.054688 88.730469 C 266.953125 88.347656 267.816406 87.898438 268.644531 87.386719 C 269.472656 86.871094 270.257812 86.296875 271 85.660156 C 271.738281 85.027344 272.425781 84.339844 273.0625 83.597656 C 273.695312 82.859375 274.273438 82.074219 274.785156 81.242188 C 275.300781 80.414062 275.746094 79.550781 276.128906 78.652344 C 276.511719 77.753906 276.820312 76.832031 277.058594 75.886719 L 294.328125 75.886719 C 295.054688 75.886719 295.773438 75.953125 296.484375 76.09375 C 297.199219 76.230469 297.890625 76.4375 298.5625 76.714844 C 299.238281 76.988281 299.875 77.328125 300.480469 77.730469 C 301.085938 78.132812 301.644531 78.589844 302.160156 79.101562 C 302.675781 79.617188 303.136719 80.175781 303.539062 80.777344 C 303.945312 81.378906 304.285156 82.019531 304.566406 82.6875 C 304.84375 83.359375 305.054688 84.050781 305.195312 84.765625 C 305.339844 85.476562 305.410156 86.195312 305.410156 86.921875 Z M 305.410156 110.085938 " fill-opacity="1" fill-rule="nonzero"/></g></svg>