<svg xmlns="http://www.w3.org/2000/svg" xmlns:xlink="http://www.w3.org/1999/xlink" width="500" zoomAndPan="magnify" viewBox="0 0 375 374.999991" height="500" preserveAspectRatio="xMidYMid meet" version="1.0"><defs><clipPath id="afb252af48"><path d="M 187.5 0 C 83.945312 0 0 83.945312 0 187.5 C 0 291.054688 83.945312 375 187.5 375 C 291.054688 375 375 291.054688 375 187.5 C 375 83.945312 291.054688 0 187.5 0 Z M 187.5 0 " clip-rule="nonzero"/></clipPath><clipPath id="bddd7d814f"><path d="M 0 0 L 375 0 L 375 375 L 0 375 Z M 0 0 " clip-rule="nonzero"/></clipPath><clipPath id="199ffa4814"><path d="M 187.5 0 C 83.945312 0 0 83.945312 0 187.5 C 0 291.054688 83.945312 375 187.5 375 C 291.054688 375 375 291.054688 375 187.5 C 375 83.945312 291.054688 0 187.5 0 Z M 187.5 0 " clip-rule="nonzero"/></clipPath><clipPath id="6e5cdcbadf"><rect x="0" width="375" y="0" height="375"/></clipPath><clipPath id="21bda068f5"><path d="M 74.023438 78 L 302 78 L 302 305.683594 L 74.023438 305.683594 Z M 74.023438 78 " clip-rule="nonzero"/></clipPath></defs><g clip-path="url(#afb252af48)"><g transform="matrix(1, 0, 0, 1, 0, 0)"><g clip-path="url(#6e5cdcbadf)"><g clip-path="url(#bddd7d814f)"><g clip-path="url(#199ffa4814)"><rect x="-82.5" width="540" fill="#233c4b" height="539.999987" y="-82.499998" fill-opacity="1"/></g></g></g></g></g><g clip-path="url(#21bda068f5)"><path fill="#fdfdfe" d="M 84.195312 78.058594 C 83.519531 78.070312 82.847656 78.148438 82.183594 78.289062 C 81.523438 78.433594 80.878906 78.636719 80.257812 78.90625 C 79.636719 79.175781 79.046875 79.5 78.488281 79.886719 C 77.929688 80.273438 77.414062 80.707031 76.941406 81.191406 C 76.472656 81.679688 76.050781 82.207031 75.683594 82.777344 C 75.3125 83.34375 75.003906 83.945312 74.753906 84.574219 C 74.503906 85.203125 74.316406 85.851562 74.195312 86.519531 C 74.070312 87.183594 74.015625 87.855469 74.023438 88.535156 L 74.023438 284.863281 C 74.023438 296.160156 83.394531 305.53125 94.691406 305.53125 L 291.019531 305.53125 C 291.707031 305.539062 292.382812 305.484375 293.058594 305.359375 C 293.730469 305.234375 294.382812 305.042969 295.019531 304.785156 C 295.65625 304.53125 296.257812 304.214844 296.832031 303.839844 C 297.40625 303.464844 297.933594 303.039062 298.421875 302.558594 C 298.910156 302.074219 299.34375 301.550781 299.730469 300.984375 C 300.113281 300.417969 300.4375 299.816406 300.699219 299.1875 C 300.964844 298.554688 301.164062 297.902344 301.300781 297.230469 C 301.433594 296.5625 301.5 295.882812 301.5 295.199219 C 301.5 294.511719 301.433594 293.835938 301.300781 293.164062 C 301.164062 292.492188 300.964844 291.839844 300.699219 291.210938 C 300.4375 290.578125 300.113281 289.976562 299.730469 289.410156 C 299.34375 288.84375 298.910156 288.320312 298.421875 287.839844 C 297.933594 287.359375 297.40625 286.929688 296.832031 286.554688 C 296.257812 286.179688 295.65625 285.863281 295.019531 285.609375 C 294.382812 285.355469 293.730469 285.164062 293.058594 285.039062 C 292.382812 284.914062 291.707031 284.855469 291.019531 284.863281 L 94.691406 284.863281 L 94.691406 88.535156 C 94.699219 87.84375 94.640625 87.15625 94.511719 86.476562 C 94.382812 85.800781 94.191406 85.140625 93.929688 84.5 C 93.667969 83.859375 93.347656 83.25 92.964844 82.675781 C 92.582031 82.097656 92.148438 81.566406 91.65625 81.078125 C 91.167969 80.589844 90.636719 80.15625 90.058594 79.773438 C 89.480469 79.390625 88.875 79.070312 88.230469 78.8125 C 87.589844 78.554688 86.929688 78.359375 86.25 78.234375 C 85.570312 78.105469 84.886719 78.050781 84.195312 78.058594 Z M 177.355469 78.199219 C 176.679688 78.199219 176.003906 78.234375 175.328125 78.300781 C 174.65625 78.367188 173.988281 78.464844 173.324219 78.597656 C 172.660156 78.730469 172.003906 78.894531 171.355469 79.089844 C 170.707031 79.289062 170.074219 79.515625 169.445312 79.773438 C 168.820312 80.035156 168.210938 80.324219 167.613281 80.640625 C 167.015625 80.960938 166.4375 81.308594 165.875 81.683594 C 165.3125 82.058594 164.769531 82.460938 164.246094 82.890625 C 163.722656 83.320312 163.222656 83.777344 162.742188 84.253906 C 162.265625 84.734375 161.808594 85.234375 161.378906 85.757812 C 160.949219 86.28125 160.546875 86.824219 160.171875 87.386719 C 159.796875 87.949219 159.449219 88.527344 159.128906 89.125 C 158.808594 89.722656 158.519531 90.332031 158.261719 90.957031 C 158.003906 91.585938 157.777344 92.21875 157.578125 92.867188 C 157.382812 93.515625 157.21875 94.171875 157.085938 94.835938 C 156.953125 95.5 156.855469 96.167969 156.789062 96.839844 C 156.722656 97.515625 156.6875 98.191406 156.6875 98.867188 C 156.6875 99.542969 156.722656 100.21875 156.789062 100.894531 C 156.855469 101.566406 156.953125 102.234375 157.085938 102.898438 C 157.21875 103.5625 157.382812 104.21875 157.578125 104.867188 C 157.777344 105.515625 158.003906 106.152344 158.261719 106.777344 C 158.519531 107.402344 158.808594 108.011719 159.128906 108.609375 C 159.449219 109.207031 159.796875 109.785156 160.171875 110.347656 C 160.546875 110.910156 160.949219 111.453125 161.378906 111.976562 C 161.808594 112.5 162.265625 113.003906 162.742188 113.480469 C 163.222656 113.960938 163.722656 114.414062 164.246094 114.84375 C 164.769531 115.273438 165.3125 115.675781 165.875 116.050781 C 166.4375 116.425781 167.015625 116.773438 167.613281 117.09375 C 168.210938 117.414062 168.820312 117.703125 169.445312 117.960938 C 170.074219 118.21875 170.707031 118.449219 171.355469 118.644531 C 172.003906 118.839844 172.660156 119.003906 173.324219 119.136719 C 173.988281 119.269531 174.65625 119.367188 175.328125 119.433594 C 176.003906 119.5 176.679688 119.535156 177.355469 119.535156 C 178.03125 119.535156 178.707031 119.5 179.382812 119.433594 C 180.054688 119.367188 180.722656 119.269531 181.386719 119.136719 C 182.050781 119.003906 182.707031 118.839844 183.355469 118.644531 C 184.003906 118.449219 184.640625 118.21875 185.265625 117.960938 C 185.890625 117.703125 186.5 117.414062 187.097656 117.09375 C 187.695312 116.773438 188.273438 116.425781 188.835938 116.050781 C 189.398438 115.675781 189.941406 115.273438 190.464844 114.84375 C 190.988281 114.414062 191.492188 113.960938 191.96875 113.480469 C 192.449219 113.003906 192.902344 112.5 193.332031 111.976562 C 193.761719 111.453125 194.164062 110.910156 194.539062 110.347656 C 194.914062 109.785156 195.261719 109.207031 195.582031 108.609375 C 195.902344 108.011719 196.191406 107.402344 196.449219 106.777344 C 196.707031 106.152344 196.9375 105.515625 197.132812 104.867188 C 197.328125 104.21875 197.492188 103.5625 197.625 102.898438 C 197.757812 102.234375 197.855469 101.566406 197.921875 100.894531 C 197.988281 100.21875 198.023438 99.542969 198.023438 98.867188 C 198.023438 98.191406 197.988281 97.515625 197.921875 96.839844 C 197.855469 96.167969 197.757812 95.5 197.625 94.835938 C 197.492188 94.171875 197.328125 93.515625 197.132812 92.867188 C 196.9375 92.21875 196.707031 91.585938 196.449219 90.957031 C 196.191406 90.332031 195.902344 89.722656 195.582031 89.125 C 195.261719 88.527344 194.914062 87.949219 194.539062 87.386719 C 194.164062 86.824219 193.761719 86.28125 193.332031 85.757812 C 192.902344 85.234375 192.449219 84.734375 191.96875 84.253906 C 191.492188 83.777344 190.988281 83.320312 190.464844 82.890625 C 189.941406 82.460938 189.398438 82.058594 188.835938 81.683594 C 188.273438 81.308594 187.695312 80.960938 187.097656 80.640625 C 186.5 80.320312 185.890625 80.035156 185.265625 79.773438 C 184.640625 79.515625 184.003906 79.289062 183.355469 79.089844 C 182.707031 78.894531 182.050781 78.730469 181.386719 78.597656 C 180.722656 78.464844 180.054688 78.367188 179.382812 78.300781 C 178.707031 78.234375 178.03125 78.199219 177.355469 78.199219 Z M 125.691406 88.535156 C 125.011719 88.535156 124.339844 88.601562 123.675781 88.734375 C 123.007812 88.863281 122.363281 89.0625 121.734375 89.320312 C 121.109375 89.582031 120.511719 89.898438 119.949219 90.277344 C 119.386719 90.652344 118.863281 91.082031 118.382812 91.5625 C 117.902344 92.039062 117.476562 92.5625 117.097656 93.125 C 116.722656 93.691406 116.402344 94.285156 116.144531 94.914062 C 115.882812 95.539062 115.6875 96.1875 115.554688 96.851562 C 115.421875 97.515625 115.355469 98.1875 115.355469 98.867188 C 115.355469 99.546875 115.421875 100.21875 115.554688 100.882812 C 115.6875 101.546875 115.882812 102.195312 116.144531 102.820312 C 116.402344 103.449219 116.722656 104.042969 117.097656 104.609375 C 117.476562 105.171875 117.902344 105.695312 118.382812 106.175781 C 118.863281 106.652344 119.386719 107.082031 119.949219 107.460938 C 120.511719 107.835938 121.109375 108.15625 121.734375 108.414062 C 122.363281 108.671875 123.007812 108.871094 123.675781 109.003906 C 124.339844 109.132812 125.011719 109.199219 125.691406 109.199219 C 126.367188 109.199219 127.039062 109.132812 127.707031 109.003906 C 128.371094 108.871094 129.015625 108.671875 129.644531 108.414062 C 130.269531 108.15625 130.867188 107.835938 131.429688 107.460938 C 131.996094 107.082031 132.515625 106.652344 132.996094 106.175781 C 133.476562 105.695312 133.90625 105.171875 134.28125 104.609375 C 134.660156 104.042969 134.976562 103.449219 135.238281 102.820312 C 135.496094 102.195312 135.691406 101.546875 135.824219 100.882812 C 135.957031 100.21875 136.023438 99.546875 136.023438 98.867188 C 136.023438 98.1875 135.957031 97.515625 135.824219 96.851562 C 135.691406 96.1875 135.496094 95.539062 135.238281 94.914062 C 134.976562 94.285156 134.660156 93.691406 134.28125 93.125 C 133.90625 92.5625 133.476562 92.039062 132.996094 91.5625 C 132.515625 91.082031 131.996094 90.652344 131.429688 90.277344 C 130.867188 89.898438 130.269531 89.582031 129.644531 89.320312 C 129.015625 89.0625 128.371094 88.863281 127.707031 88.734375 C 127.039062 88.601562 126.367188 88.535156 125.691406 88.535156 Z M 229.023438 88.535156 C 228.34375 88.535156 227.671875 88.601562 227.003906 88.734375 C 226.339844 88.863281 225.695312 89.0625 225.066406 89.320312 C 224.441406 89.582031 223.84375 89.898438 223.28125 90.277344 C 222.714844 90.652344 222.195312 91.082031 221.714844 91.5625 C 221.234375 92.039062 220.808594 92.5625 220.429688 93.125 C 220.054688 93.691406 219.734375 94.285156 219.476562 94.914062 C 219.214844 95.539062 219.019531 96.1875 218.886719 96.851562 C 218.753906 97.515625 218.6875 98.1875 218.6875 98.867188 C 218.6875 99.546875 218.753906 100.21875 218.886719 100.882812 C 219.019531 101.546875 219.214844 102.195312 219.476562 102.820312 C 219.734375 103.449219 220.054688 104.042969 220.429688 104.609375 C 220.808594 105.171875 221.234375 105.695312 221.714844 106.175781 C 222.195312 106.652344 222.714844 107.082031 223.28125 107.460938 C 223.84375 107.835938 224.441406 108.15625 225.066406 108.414062 C 225.695312 108.671875 226.339844 108.871094 227.003906 109.003906 C 227.671875 109.132812 228.34375 109.199219 229.023438 109.199219 C 229.699219 109.199219 230.371094 109.132812 231.039062 109.003906 C 231.703125 108.871094 232.347656 108.671875 232.976562 108.414062 C 233.601562 108.15625 234.199219 107.835938 234.761719 107.460938 C 235.328125 107.082031 235.847656 106.652344 236.328125 106.175781 C 236.808594 105.695312 237.234375 105.171875 237.613281 104.609375 C 237.988281 104.042969 238.308594 103.449219 238.566406 102.820312 C 238.828125 102.195312 239.023438 101.546875 239.15625 100.882812 C 239.289062 100.21875 239.355469 99.546875 239.355469 98.867188 C 239.355469 98.1875 239.289062 97.515625 239.15625 96.851562 C 239.023438 96.1875 238.828125 95.539062 238.566406 94.914062 C 238.308594 94.285156 237.988281 93.691406 237.613281 93.125 C 237.234375 92.5625 236.808594 92.039062 236.328125 91.5625 C 235.847656 91.082031 235.328125 90.652344 234.761719 90.277344 C 234.199219 89.898438 233.601562 89.582031 232.976562 89.320312 C 232.347656 89.0625 231.703125 88.863281 231.039062 88.734375 C 230.371094 88.601562 229.699219 88.535156 229.023438 88.535156 Z M 270.355469 88.535156 C 269.675781 88.535156 269.003906 88.601562 268.339844 88.734375 C 267.671875 88.863281 267.027344 89.0625 266.398438 89.320312 C 265.773438 89.582031 265.175781 89.898438 264.613281 90.277344 C 264.050781 90.652344 263.527344 91.082031 263.046875 91.5625 C 262.566406 92.039062 262.140625 92.5625 261.761719 93.125 C 261.386719 93.691406 261.066406 94.285156 260.808594 94.914062 C 260.546875 95.539062 260.351562 96.1875 260.21875 96.851562 C 260.085938 97.515625 260.019531 98.1875 260.019531 98.867188 C 260.019531 99.546875 260.085938 100.21875 260.21875 100.882812 C 260.351562 101.546875 260.546875 102.195312 260.808594 102.820312 C 261.066406 103.449219 261.386719 104.042969 261.761719 104.609375 C 262.140625 105.171875 262.566406 105.695312 263.046875 106.175781 C 263.527344 106.652344 264.050781 107.082031 264.613281 107.460938 C 265.175781 107.835938 265.773438 108.15625 266.398438 108.414062 C 267.027344 108.671875 267.671875 108.871094 268.339844 109.003906 C 269.003906 109.132812 269.675781 109.199219 270.355469 109.199219 C 271.03125 109.199219 271.703125 109.132812 272.371094 109.003906 C 273.035156 108.871094 273.683594 108.671875 274.308594 108.414062 C 274.933594 108.15625 275.53125 107.835938 276.09375 107.460938 C 276.660156 107.082031 277.179688 106.652344 277.660156 106.175781 C 278.140625 105.695312 278.570312 105.171875 278.945312 104.609375 C 279.324219 104.042969 279.640625 103.449219 279.902344 102.820312 C 280.160156 102.195312 280.355469 101.546875 280.488281 100.882812 C 280.621094 100.21875 280.6875 99.546875 280.6875 98.867188 C 280.6875 98.1875 280.621094 97.515625 280.488281 96.851562 C 280.355469 96.1875 280.160156 95.539062 279.902344 94.914062 C 279.640625 94.285156 279.324219 93.691406 278.945312 93.125 C 278.570312 92.5625 278.140625 92.039062 277.660156 91.5625 C 277.179688 91.082031 276.660156 90.652344 276.09375 90.277344 C 275.53125 89.898438 274.933594 89.582031 274.308594 89.320312 C 273.683594 89.0625 273.035156 88.863281 272.371094 88.734375 C 271.703125 88.601562 271.03125 88.535156 270.355469 88.535156 Z M 218.6875 150.535156 C 218.011719 150.535156 217.335938 150.566406 216.664062 150.632812 C 215.988281 150.699219 215.320312 150.796875 214.65625 150.929688 C 213.992188 151.0625 213.335938 151.226562 212.6875 151.421875 C 212.042969 151.621094 211.40625 151.847656 210.78125 152.105469 C 210.15625 152.367188 209.542969 152.65625 208.945312 152.972656 C 208.347656 153.292969 207.769531 153.640625 207.207031 154.015625 C 206.644531 154.390625 206.101562 154.796875 205.578125 155.222656 C 205.054688 155.652344 204.554688 156.109375 204.074219 156.585938 C 203.597656 157.066406 203.140625 157.566406 202.714844 158.089844 C 202.285156 158.613281 201.882812 159.15625 201.503906 159.71875 C 201.128906 160.28125 200.78125 160.859375 200.460938 161.457031 C 200.144531 162.054688 199.855469 162.664062 199.59375 163.289062 C 199.335938 163.917969 199.109375 164.554688 198.910156 165.199219 C 198.714844 165.847656 198.550781 166.503906 198.417969 167.167969 C 198.285156 167.832031 198.1875 168.5 198.121094 169.175781 C 198.054688 169.847656 198.023438 170.523438 198.023438 171.199219 C 198.023438 171.875 198.054688 172.550781 198.121094 173.226562 C 198.1875 173.898438 198.285156 174.566406 198.417969 175.230469 C 198.550781 175.894531 198.714844 176.550781 198.910156 177.199219 C 199.109375 177.847656 199.335938 178.484375 199.59375 179.109375 C 199.855469 179.734375 200.144531 180.34375 200.460938 180.941406 C 200.78125 181.539062 201.128906 182.117188 201.503906 182.679688 C 201.882812 183.242188 202.285156 183.785156 202.714844 184.308594 C 203.140625 184.832031 203.597656 185.335938 204.074219 185.8125 C 204.554688 186.292969 205.054688 186.746094 205.578125 187.175781 C 206.101562 187.605469 206.644531 188.007812 207.207031 188.382812 C 207.769531 188.757812 208.347656 189.105469 208.945312 189.425781 C 209.542969 189.746094 210.15625 190.035156 210.78125 190.292969 C 211.40625 190.550781 212.042969 190.78125 212.6875 190.976562 C 213.335938 191.171875 213.992188 191.335938 214.65625 191.46875 C 215.320312 191.601562 215.988281 191.699219 216.664062 191.765625 C 217.335938 191.832031 218.011719 191.867188 218.6875 191.867188 C 219.363281 191.867188 220.039062 191.832031 220.714844 191.765625 C 221.386719 191.699219 222.054688 191.601562 222.71875 191.46875 C 223.382812 191.335938 224.039062 191.171875 224.6875 190.976562 C 225.335938 190.78125 225.972656 190.550781 226.597656 190.292969 C 227.222656 190.035156 227.832031 189.746094 228.429688 189.425781 C 229.027344 189.105469 229.605469 188.757812 230.171875 188.382812 C 230.734375 188.007812 231.277344 187.605469 231.800781 187.175781 C 232.320312 186.746094 232.824219 186.292969 233.300781 185.8125 C 233.78125 185.335938 234.234375 184.832031 234.664062 184.308594 C 235.09375 183.785156 235.496094 183.242188 235.871094 182.679688 C 236.246094 182.117188 236.59375 181.539062 236.914062 180.941406 C 237.234375 180.34375 237.523438 179.734375 237.78125 179.109375 C 238.039062 178.484375 238.269531 177.847656 238.464844 177.199219 C 238.660156 176.550781 238.824219 175.894531 238.957031 175.230469 C 239.089844 174.566406 239.1875 173.898438 239.253906 173.226562 C 239.320312 172.550781 239.355469 171.875 239.355469 171.199219 C 239.355469 170.523438 239.320312 169.847656 239.253906 169.175781 C 239.1875 168.5 239.089844 167.832031 238.957031 167.167969 C 238.824219 166.503906 238.660156 165.847656 238.464844 165.199219 C 238.269531 164.554688 238.039062 163.917969 237.78125 163.289062 C 237.523438 162.664062 237.234375 162.054688 236.914062 161.457031 C 236.59375 160.859375 236.246094 160.28125 235.871094 159.71875 C 235.496094 159.15625 235.09375 158.613281 234.664062 158.089844 C 234.234375 157.566406 233.78125 157.066406 233.300781 156.585938 C 232.824219 156.109375 232.320312 155.652344 231.800781 155.222656 C 231.277344 154.796875 230.734375 154.390625 230.171875 154.015625 C 229.605469 153.640625 229.027344 153.292969 228.429688 152.972656 C 227.832031 152.65625 227.222656 152.367188 226.597656 152.105469 C 225.972656 151.847656 225.335938 151.621094 224.6875 151.421875 C 224.039062 151.226562 223.382812 151.0625 222.71875 150.929688 C 222.054688 150.796875 221.386719 150.699219 220.714844 150.632812 C 220.039062 150.566406 219.363281 150.535156 218.6875 150.535156 Z M 125.691406 160.867188 C 125.011719 160.867188 124.339844 160.933594 123.675781 161.066406 C 123.007812 161.199219 122.363281 161.394531 121.734375 161.652344 C 121.109375 161.914062 120.511719 162.230469 119.949219 162.609375 C 119.386719 162.984375 118.863281 163.414062 118.382812 163.894531 C 117.902344 164.371094 117.476562 164.894531 117.097656 165.457031 C 116.722656 166.023438 116.402344 166.617188 116.144531 167.246094 C 115.882812 167.871094 115.6875 168.519531 115.554688 169.183594 C 115.421875 169.847656 115.355469 170.519531 115.355469 171.199219 C 115.355469 171.878906 115.421875 172.550781 115.554688 173.214844 C 115.6875 173.882812 115.882812 174.527344 116.144531 175.152344 C 116.402344 175.78125 116.722656 176.375 117.097656 176.941406 C 117.476562 177.503906 117.902344 178.027344 118.382812 178.507812 C 118.863281 178.984375 119.386719 179.414062 119.949219 179.792969 C 120.511719 180.167969 121.109375 180.488281 121.734375 180.746094 C 122.363281 181.007812 123.007812 181.203125 123.675781 181.335938 C 124.339844 181.464844 125.011719 181.53125 125.691406 181.53125 C 126.367188 181.53125 127.039062 181.464844 127.707031 181.335938 C 128.371094 181.203125 129.015625 181.007812 129.644531 180.746094 C 130.269531 180.488281 130.867188 180.167969 131.429688 179.792969 C 131.996094 179.414062 132.515625 178.984375 132.996094 178.507812 C 133.476562 178.027344 133.90625 177.503906 134.28125 176.941406 C 134.660156 176.375 134.976562 175.78125 135.238281 175.152344 C 135.496094 174.527344 135.691406 173.882812 135.824219 173.214844 C 135.957031 172.550781 136.023438 171.878906 136.023438 171.199219 C 136.023438 170.519531 135.957031 169.847656 135.824219 169.183594 C 135.691406 168.519531 135.496094 167.871094 135.238281 167.246094 C 134.976562 166.617188 134.660156 166.023438 134.28125 165.457031 C 133.90625 164.894531 133.476562 164.371094 132.996094 163.894531 C 132.515625 163.414062 131.996094 162.984375 131.429688 162.609375 C 130.867188 162.230469 130.269531 161.914062 129.644531 161.652344 C 129.015625 161.394531 128.371094 161.199219 127.707031 161.066406 C 127.039062 160.933594 126.367188 160.867188 125.691406 160.867188 Z M 167.023438 160.867188 C 166.34375 160.867188 165.671875 160.933594 165.007812 161.066406 C 164.339844 161.199219 163.695312 161.394531 163.066406 161.652344 C 162.441406 161.914062 161.847656 162.230469 161.28125 162.609375 C 160.71875 162.984375 160.195312 163.414062 159.714844 163.894531 C 159.234375 164.371094 158.808594 164.894531 158.429688 165.457031 C 158.054688 166.023438 157.734375 166.617188 157.476562 167.246094 C 157.214844 167.871094 157.019531 168.519531 156.886719 169.183594 C 156.753906 169.847656 156.6875 170.519531 156.6875 171.199219 C 156.6875 171.878906 156.753906 172.550781 156.886719 173.214844 C 157.019531 173.882812 157.214844 174.527344 157.476562 175.152344 C 157.734375 175.78125 158.054688 176.375 158.429688 176.941406 C 158.808594 177.503906 159.234375 178.027344 159.714844 178.507812 C 160.195312 178.984375 160.71875 179.414062 161.28125 179.792969 C 161.847656 180.167969 162.441406 180.488281 163.066406 180.746094 C 163.695312 181.007812 164.339844 181.203125 165.007812 181.335938 C 165.671875 181.464844 166.34375 181.53125 167.023438 181.53125 C 167.699219 181.53125 168.371094 181.464844 169.039062 181.335938 C 169.703125 181.203125 170.351562 181.007812 170.976562 180.746094 C 171.605469 180.488281 172.199219 180.167969 172.761719 179.792969 C 173.328125 179.414062 173.847656 178.984375 174.328125 178.507812 C 174.808594 178.027344 175.238281 177.503906 175.613281 176.941406 C 175.992188 176.375 176.308594 175.78125 176.570312 175.152344 C 176.828125 174.527344 177.023438 173.882812 177.15625 173.214844 C 177.289062 172.550781 177.355469 171.878906 177.355469 171.199219 C 177.355469 170.519531 177.289062 169.847656 177.15625 169.183594 C 177.023438 168.519531 176.828125 167.871094 176.570312 167.246094 C 176.308594 166.617188 175.992188 166.023438 175.613281 165.457031 C 175.238281 164.894531 174.808594 164.371094 174.328125 163.894531 C 173.847656 163.414062 173.328125 162.984375 172.761719 162.609375 C 172.199219 162.230469 171.605469 161.914062 170.976562 161.652344 C 170.351562 161.394531 169.703125 161.199219 169.039062 161.066406 C 168.371094 160.933594 167.699219 160.867188 167.023438 160.867188 Z M 270.355469 160.867188 C 269.675781 160.867188 269.003906 160.933594 268.339844 161.066406 C 267.671875 161.199219 267.027344 161.394531 266.398438 161.652344 C 265.773438 161.914062 265.175781 162.230469 264.613281 162.609375 C 264.050781 162.984375 263.527344 163.414062 263.046875 163.894531 C 262.566406 164.371094 262.140625 164.894531 261.761719 165.457031 C 261.386719 166.023438 261.066406 166.617188 260.808594 167.246094 C 260.546875 167.871094 260.351562 168.519531 260.21875 169.183594 C 260.085938 169.847656 260.019531 170.519531 260.019531 171.199219 C 260.019531 171.878906 260.085938 172.550781 260.21875 173.214844 C 260.351562 173.882812 260.546875 174.527344 260.808594 175.152344 C 261.066406 175.78125 261.386719 176.375 261.761719 176.941406 C 262.140625 177.503906 262.566406 178.027344 263.046875 178.507812 C 263.527344 178.984375 264.050781 179.414062 264.613281 179.792969 C 265.175781 180.167969 265.773438 180.488281 266.398438 180.746094 C 267.027344 181.007812 267.671875 181.203125 268.339844 181.335938 C 269.003906 181.464844 269.675781 181.53125 270.355469 181.53125 C 271.03125 181.53125 271.703125 181.464844 272.371094 181.335938 C 273.035156 181.203125 273.683594 181.007812 274.308594 180.746094 C 274.933594 180.488281 275.53125 180.167969 276.09375 179.792969 C 276.660156 179.414062 277.179688 178.984375 277.660156 178.507812 C 278.140625 178.027344 278.570312 177.503906 278.945312 176.941406 C 279.324219 176.375 279.640625 175.78125 279.902344 175.152344 C 280.160156 174.527344 280.355469 173.882812 280.488281 173.214844 C 280.621094 172.550781 280.6875 171.878906 280.6875 171.199219 C 280.6875 170.519531 280.621094 169.847656 280.488281 169.183594 C 280.355469 168.519531 280.160156 167.871094 279.902344 167.246094 C 279.640625 166.617188 279.324219 166.023438 278.945312 165.457031 C 278.570312 164.894531 278.140625 164.371094 277.660156 163.894531 C 277.179688 163.414062 276.660156 162.984375 276.09375 162.609375 C 275.53125 162.230469 274.933594 161.914062 274.308594 161.652344 C 273.683594 161.394531 273.035156 161.199219 272.371094 161.066406 C 271.703125 160.933594 271.03125 160.867188 270.355469 160.867188 Z M 136.023438 222.867188 C 135.347656 222.867188 134.671875 222.898438 133.996094 222.964844 C 133.324219 223.03125 132.65625 223.128906 131.992188 223.261719 C 131.328125 223.394531 130.671875 223.558594 130.023438 223.753906 C 129.375 223.953125 128.738281 224.179688 128.113281 224.4375 C 127.488281 224.699219 126.878906 224.988281 126.28125 225.304688 C 125.683594 225.625 125.105469 225.972656 124.542969 226.347656 C 123.980469 226.722656 123.4375 227.128906 122.914062 227.554688 C 122.390625 227.984375 121.886719 228.441406 121.410156 228.917969 C 120.929688 229.398438 120.476562 229.898438 120.046875 230.421875 C 119.617188 230.945312 119.214844 231.488281 118.839844 232.050781 C 118.464844 232.613281 118.117188 233.191406 117.796875 233.789062 C 117.476562 234.386719 117.1875 234.996094 116.929688 235.625 C 116.671875 236.25 116.441406 236.886719 116.246094 237.53125 C 116.050781 238.179688 115.886719 238.835938 115.753906 239.5 C 115.621094 240.164062 115.523438 240.832031 115.457031 241.507812 C 115.390625 242.179688 115.355469 242.855469 115.355469 243.53125 C 115.355469 244.207031 115.390625 244.882812 115.457031 245.558594 C 115.523438 246.230469 115.621094 246.898438 115.753906 247.5625 C 115.886719 248.226562 116.050781 248.882812 116.246094 249.53125 C 116.441406 250.179688 116.671875 250.816406 116.929688 251.441406 C 117.1875 252.066406 117.476562 252.675781 117.796875 253.273438 C 118.117188 253.871094 118.464844 254.449219 118.839844 255.011719 C 119.214844 255.578125 119.617188 256.121094 120.046875 256.640625 C 120.476562 257.164062 120.929688 257.667969 121.410156 258.144531 C 121.886719 258.625 122.390625 259.078125 122.914062 259.507812 C 123.433594 259.9375 123.980469 260.339844 124.542969 260.714844 C 125.105469 261.089844 125.683594 261.4375 126.28125 261.757812 C 126.878906 262.078125 127.488281 262.367188 128.113281 262.625 C 128.738281 262.882812 129.375 263.113281 130.023438 263.308594 C 130.671875 263.503906 131.328125 263.667969 131.992188 263.800781 C 132.65625 263.933594 133.324219 264.03125 133.996094 264.097656 C 134.671875 264.164062 135.347656 264.199219 136.023438 264.199219 C 136.699219 264.199219 137.375 264.164062 138.046875 264.097656 C 138.722656 264.03125 139.390625 263.933594 140.054688 263.800781 C 140.71875 263.667969 141.375 263.503906 142.023438 263.308594 C 142.667969 263.113281 143.304688 262.882812 143.929688 262.625 C 144.558594 262.367188 145.167969 262.078125 145.765625 261.757812 C 146.363281 261.4375 146.941406 261.089844 147.503906 260.714844 C 148.066406 260.339844 148.609375 259.9375 149.132812 259.507812 C 149.65625 259.078125 150.15625 258.625 150.636719 258.144531 C 151.113281 257.667969 151.570312 257.164062 152 256.640625 C 152.425781 256.121094 152.832031 255.578125 153.207031 255.011719 C 153.582031 254.449219 153.929688 253.871094 154.25 253.273438 C 154.566406 252.675781 154.855469 252.066406 155.117188 251.441406 C 155.375 250.816406 155.601562 250.179688 155.800781 249.53125 C 155.996094 248.882812 156.160156 248.226562 156.292969 247.5625 C 156.425781 246.898438 156.523438 246.230469 156.589844 245.558594 C 156.65625 244.882812 156.6875 244.207031 156.6875 243.53125 C 156.6875 242.855469 156.65625 242.179688 156.589844 241.507812 C 156.523438 240.832031 156.425781 240.164062 156.292969 239.5 C 156.160156 238.835938 155.996094 238.179688 155.800781 237.53125 C 155.601562 236.886719 155.375 236.25 155.117188 235.625 C 154.855469 234.996094 154.566406 234.386719 154.25 233.789062 C 153.929688 233.191406 153.582031 232.613281 153.207031 232.050781 C 152.832031 231.488281 152.425781 230.945312 152 230.421875 C 151.570312 229.898438 151.113281 229.398438 150.636719 228.917969 C 150.15625 228.441406 149.65625 227.984375 149.132812 227.554688 C 148.609375 227.128906 148.066406 226.722656 147.503906 226.347656 C 146.941406 225.972656 146.363281 225.625 145.765625 225.304688 C 145.167969 224.988281 144.558594 224.699219 143.929688 224.4375 C 143.304688 224.179688 142.667969 223.953125 142.023438 223.753906 C 141.375 223.558594 140.71875 223.394531 140.054688 223.261719 C 139.390625 223.128906 138.722656 223.03125 138.046875 222.964844 C 137.375 222.898438 136.699219 222.867188 136.023438 222.867188 Z M 187.6875 233.199219 C 187.011719 233.199219 186.339844 233.265625 185.671875 233.398438 C 185.007812 233.53125 184.363281 233.726562 183.734375 233.984375 C 183.109375 234.246094 182.511719 234.5625 181.949219 234.941406 C 181.382812 235.316406 180.863281 235.746094 180.382812 236.226562 C 179.902344 236.703125 179.472656 237.226562 179.097656 237.792969 C 178.71875 238.355469 178.402344 238.949219 178.140625 239.578125 C 177.882812 240.203125 177.6875 240.851562 177.554688 241.515625 C 177.421875 242.179688 177.355469 242.851562 177.355469 243.53125 C 177.355469 244.210938 177.421875 244.882812 177.554688 245.546875 C 177.6875 246.214844 177.882812 246.859375 178.140625 247.484375 C 178.402344 248.113281 178.71875 248.707031 179.097656 249.273438 C 179.472656 249.835938 179.902344 250.359375 180.382812 250.839844 C 180.863281 251.316406 181.382812 251.746094 181.949219 252.125 C 182.511719 252.5 183.109375 252.820312 183.734375 253.078125 C 184.359375 253.339844 185.007812 253.535156 185.671875 253.667969 C 186.339844 253.800781 187.011719 253.863281 187.6875 253.863281 C 188.367188 253.863281 189.039062 253.800781 189.703125 253.667969 C 190.371094 253.535156 191.015625 253.339844 191.644531 253.078125 C 192.269531 252.820312 192.867188 252.5 193.429688 252.125 C 193.992188 251.746094 194.515625 251.316406 194.996094 250.839844 C 195.476562 250.359375 195.902344 249.835938 196.28125 249.273438 C 196.65625 248.707031 196.976562 248.113281 197.234375 247.484375 C 197.496094 246.859375 197.691406 246.214844 197.824219 245.546875 C 197.957031 244.882812 198.023438 244.210938 198.023438 243.53125 C 198.023438 242.851562 197.957031 242.179688 197.824219 241.515625 C 197.691406 240.851562 197.496094 240.203125 197.234375 239.578125 C 196.976562 238.949219 196.65625 238.355469 196.28125 237.792969 C 195.902344 237.226562 195.476562 236.703125 194.996094 236.226562 C 194.515625 235.746094 193.992188 235.316406 193.429688 234.941406 C 192.867188 234.5625 192.269531 234.246094 191.644531 233.984375 C 191.015625 233.726562 190.371094 233.53125 189.703125 233.398438 C 189.039062 233.265625 188.367188 233.199219 187.6875 233.199219 Z M 229.023438 233.199219 C 228.34375 233.199219 227.671875 233.265625 227.003906 233.398438 C 226.339844 233.53125 225.695312 233.726562 225.066406 233.984375 C 224.441406 234.246094 223.84375 234.5625 223.28125 234.941406 C 222.714844 235.316406 222.195312 235.746094 221.714844 236.226562 C 221.234375 236.703125 220.808594 237.226562 220.429688 237.792969 C 220.054688 238.355469 219.734375 238.949219 219.476562 239.578125 C 219.214844 240.203125 219.019531 240.851562 218.886719 241.515625 C 218.753906 242.179688 218.6875 242.851562 218.6875 243.53125 C 218.6875 244.210938 218.753906 244.882812 218.886719 245.546875 C 219.019531 246.214844 219.214844 246.859375 219.476562 247.484375 C 219.734375 248.113281 220.054688 248.707031 220.429688 249.273438 C 220.808594 249.835938 221.234375 250.359375 221.714844 250.839844 C 222.195312 251.316406 222.714844 251.746094 223.28125 252.125 C 223.84375 252.5 224.441406 252.820312 225.066406 253.078125 C 225.695312 253.339844 226.339844 253.535156 227.003906 253.667969 C 227.671875 253.800781 228.34375 253.863281 229.023438 253.863281 C 229.699219 253.863281 230.371094 253.800781 231.039062 253.667969 C 231.703125 253.535156 232.347656 253.339844 232.976562 253.078125 C 233.601562 252.820312 234.199219 252.5 234.761719 252.125 C 235.328125 251.746094 235.847656 251.316406 236.328125 250.839844 C 236.808594 250.359375 237.234375 249.835938 237.613281 249.273438 C 237.988281 248.707031 238.308594 248.113281 238.566406 247.484375 C 238.828125 246.859375 239.023438 246.214844 239.15625 245.546875 C 239.289062 244.882812 239.355469 244.210938 239.355469 243.53125 C 239.355469 242.851562 239.289062 242.179688 239.15625 241.515625 C 239.023438 240.851562 238.828125 240.203125 238.566406 239.578125 C 238.308594 238.949219 237.988281 238.355469 237.613281 237.792969 C 237.234375 237.226562 236.808594 236.703125 236.328125 236.226562 C 235.847656 235.746094 235.328125 235.316406 234.761719 234.941406 C 234.199219 234.5625 233.601562 234.246094 232.976562 233.984375 C 232.347656 233.726562 231.703125 233.53125 231.039062 233.398438 C 230.371094 233.265625 229.699219 233.199219 229.023438 233.199219 Z M 270.355469 233.199219 C 269.675781 233.199219 269.003906 233.265625 268.339844 233.398438 C 267.671875 233.53125 267.027344 233.726562 266.398438 233.984375 C 265.773438 234.246094 265.175781 234.5625 264.613281 234.941406 C 264.050781 235.316406 263.527344 235.746094 263.046875 236.226562 C 262.566406 236.703125 262.140625 237.226562 261.761719 237.792969 C 261.386719 238.355469 261.066406 238.949219 260.808594 239.578125 C 260.546875 240.203125 260.351562 240.851562 260.21875 241.515625 C 260.085938 242.179688 260.019531 242.851562 260.019531 243.53125 C 260.019531 244.210938 260.085938 244.882812 260.21875 245.546875 C 260.351562 246.214844 260.546875 246.859375 260.808594 247.484375 C 261.066406 248.113281 261.386719 248.707031 261.761719 249.273438 C 262.140625 249.835938 262.566406 250.359375 263.046875 250.839844 C 263.527344 251.316406 264.050781 251.746094 264.613281 252.125 C 265.175781 252.5 265.773438 252.820312 266.398438 253.078125 C 267.027344 253.339844 267.671875 253.535156 268.339844 253.667969 C 269.003906 253.800781 269.675781 253.863281 270.355469 253.863281 C 271.03125 253.863281 271.703125 253.800781 272.371094 253.667969 C 273.035156 253.535156 273.683594 253.339844 274.308594 253.078125 C 274.933594 252.820312 275.53125 252.5 276.09375 252.125 C 276.660156 251.746094 277.179688 251.316406 277.660156 250.839844 C 278.140625 250.359375 278.570312 249.835938 278.945312 249.273438 C 279.324219 248.707031 279.640625 248.113281 279.902344 247.484375 C 280.160156 246.859375 280.355469 246.214844 280.488281 245.546875 C 280.621094 244.882812 280.6875 244.210938 280.6875 243.53125 C 280.6875 242.851562 280.621094 242.179688 280.488281 241.515625 C 280.355469 240.851562 280.160156 240.203125 279.902344 239.578125 C 279.640625 238.949219 279.324219 238.355469 278.945312 237.792969 C 278.570312 237.226562 278.140625 236.703125 277.660156 236.226562 C 277.179688 235.746094 276.660156 235.316406 276.09375 234.941406 C 275.53125 234.5625 274.933594 234.246094 274.308594 233.984375 C 273.683594 233.726562 273.035156 233.53125 272.371094 233.398438 C 271.703125 233.265625 271.03125 233.199219 270.355469 233.199219 Z M 270.355469 233.199219 " fill-opacity="1" fill-rule="nonzero"/></g></svg>