<svg xmlns="http://www.w3.org/2000/svg" xmlns:xlink="http://www.w3.org/1999/xlink" width="500" zoomAndPan="magnify" viewBox="0 0 375 374.999991" height="500" preserveAspectRatio="xMidYMid meet" version="1.2"><defs><clipPath id="1ddec3173d"><path d="M 187.5 0 C 83.945312 0 0 83.945312 0 187.5 C 0 291.054688 83.945312 375 187.5 375 C 291.054688 375 375 291.054688 375 187.5 C 375 83.945312 291.054688 0 187.5 0 Z M 187.5 0 "/></clipPath><clipPath id="374f57ef49"><path d="M 187.5 0 C 83.945312 0 0 83.945312 0 187.5 C 0 291.054688 83.945312 375 187.5 375 C 291.054688 375 375 291.054688 375 187.5 C 375 83.945312 291.054688 0 187.5 0 Z M 187.5 0 "/></clipPath><clipPath id="3772523ea5"><rect x="0" width="375" y="0" height="375"/></clipPath><clipPath id="5d02580dcf"><path d="M 141 78 L 312 78 L 312 308.5 L 141 308.5 Z M 141 78 "/></clipPath></defs><g id="2c0769e5ee"><g clip-rule="nonzero" clip-path="url(#1ddec3173d)"><g transform="matrix(1,0,0,1,0,0)"><g clip-path="url(#3772523ea5)"><g clip-rule="nonzero" clip-path="url(#374f57ef49)"><rect x="0" width="375" height="375" y="0" style="fill:#233c4b;fill-opacity:1;stroke:none;"/></g></g></g></g><g clip-rule="nonzero" clip-path="url(#5d02580dcf)"><path style=" stroke:none;fill-rule:nonzero;fill:#ffffff;fill-opacity:1;" d="M 309.402344 96.441406 C 308.542969 95.910156 287.878906 83.300781 259.417969 79.527344 C 232.855469 76.007812 194.441406 79.832031 162.234375 118.144531 C 139.089844 145.667969 139.417969 171.800781 143.773438 188.867188 C 146.507812 199.601562 151.648438 209.832031 158.636719 218.441406 C 163.804688 224.796875 169.652344 229.863281 175.476562 233.027344 C 169.601562 257.488281 167.753906 282 170.464844 303.878906 C 170.792969 306.613281 173.121094 308.585938 175.78125 308.585938 C 176.007812 308.585938 176.210938 308.5625 176.4375 308.535156 C 179.375 308.183594 181.476562 305.496094 181.125 302.535156 C 178.617188 282.226562 180.261719 259.488281 185.628906 236.671875 C 188.921875 237.382812 193.378906 238.066406 198.644531 238.066406 C 200.847656 238.066406 203.203125 237.9375 205.683594 237.660156 C 219.257812 236.117188 239.035156 229.128906 256.125 204.691406 C 279.800781 170.863281 310.1875 105.988281 311.453125 103.253906 C 312.59375 100.824219 311.730469 97.859375 309.402344 96.441406 Z M 247.3125 198.5625 C 225.15625 230.214844 198.949219 228.621094 188.339844 226.34375 C 191.378906 215.683594 195.203125 205.070312 199.8125 194.792969 C 203.558594 186.382812 207.738281 178.433594 212.167969 171.117188 C 216.21875 173.039062 220.652344 174.027344 225.183594 174.027344 C 228.652344 174.027344 232.222656 173.46875 235.742188 172.304688 C 245.972656 168.964844 255.089844 161.039062 259.492188 151.617188 C 260.761719 148.933594 259.59375 145.71875 256.910156 144.476562 C 254.226562 143.210938 251.011719 144.375 249.769531 147.058594 C 246.628906 153.769531 239.820312 159.671875 232.425781 162.074219 C 228.777344 163.265625 223.539062 164.101562 218.09375 161.972656 C 230.296875 144.300781 244.148438 131.132812 257.773438 124.777344 C 260.457031 123.511719 261.621094 120.320312 260.378906 117.636719 C 259.113281 114.953125 255.921875 113.789062 253.238281 115.027344 C 230.121094 125.789062 207.6875 152.097656 191.328125 187.449219 C 174.082031 161.164062 190.566406 138.25 191.351562 137.183594 C 193.125 134.804688 192.644531 131.460938 190.289062 129.664062 C 187.910156 127.890625 184.542969 128.347656 182.769531 130.726562 C 182.515625 131.082031 176.4375 139.234375 173.882812 151.71875 C 171.527344 163.242188 171.78125 180.761719 186.390625 198.917969 C 183.300781 206.589844 180.617188 214.390625 178.339844 222.238281 C 168.894531 216.035156 158.410156 202.792969 154.179688 186.234375 C 150.457031 171.597656 150.257812 149.109375 170.464844 125.105469 C 193.734375 97.453125 223.054688 85.679688 257.644531 90.164062 C 276.789062 92.644531 292.410156 99.65625 299.550781 103.304688 C 292.109375 118.851562 266.914062 170.558594 247.3125 198.5625 Z M 247.3125 198.5625 "/></g><path style=" stroke:none;fill-rule:nonzero;fill:#ffffff;fill-opacity:1;" d="M 161.398438 230.875 C 158.714844 229.609375 155.496094 230.75 154.230469 233.433594 C 152.941406 236.140625 151.371094 238.597656 149.824219 240.699219 C 147.292969 228.367188 143.875 216.871094 139.597656 206.617188 C 127.949219 178.738281 110.933594 161.0625 90.34375 155.492188 C 87.484375 154.734375 84.519531 156.402344 83.761719 159.265625 C 82.976562 162.125 84.671875 165.089844 87.535156 165.847656 C 112.832031 172.6875 132.023438 203.550781 140.101562 246.523438 C 130.734375 244.953125 112.046875 238.925781 94.648438 216.113281 C 78.875 195.425781 67.53125 162.101562 63.882812 150.605469 C 67.328125 148.910156 73.175781 146.425781 80.875 144.804688 C 97.714844 141.285156 114.957031 143.386719 132.050781 151.035156 C 134.757812 152.25 137.949219 151.035156 139.140625 148.324219 C 140.355469 145.617188 139.140625 142.425781 136.429688 141.234375 C 90.015625 120.472656 55.90625 142.628906 54.464844 143.566406 C 52.515625 144.855469 51.628906 147.261719 52.285156 149.515625 C 52.820312 151.390625 65.632812 195.804688 86.066406 222.644531 C 107.691406 251.054688 131.847656 256.574219 141.847656 257.613281 C 143.699219 271.035156 144.507812 285.417969 144.152344 300.507812 C 144.078125 303.472656 146.433594 305.929688 149.394531 306.003906 C 149.445312 306.003906 149.472656 306.003906 149.523438 306.003906 C 152.433594 306.003906 154.8125 303.675781 154.890625 300.761719 C 155.269531 284.757812 154.308594 269.109375 152.15625 254.347656 C 155.144531 251.359375 160.335938 245.535156 163.878906 238.015625 C 165.222656 235.332031 164.082031 232.140625 161.398438 230.875 Z M 161.398438 230.875 "/></g></svg>