<svg xmlns="http://www.w3.org/2000/svg" xmlns:xlink="http://www.w3.org/1999/xlink" width="500" zoomAndPan="magnify" viewBox="0 0 375 374.999991" height="500" preserveAspectRatio="xMidYMid meet" version="1.0"><defs><clipPath id="4f5c7d6bd5"><path d="M 187.5 0 C 83.945312 0 0 83.945312 0 187.5 C 0 291.054688 83.945312 375 187.5 375 C 291.054688 375 375 291.054688 375 187.5 C 375 83.945312 291.054688 0 187.5 0 Z M 187.5 0 " clip-rule="nonzero"/></clipPath><clipPath id="a87331a2cf"><path d="M 0 0 L 375 0 L 375 375 L 0 375 Z M 0 0 " clip-rule="nonzero"/></clipPath><clipPath id="f3a98957df"><path d="M 187.5 0 C 83.945312 0 0 83.945312 0 187.5 C 0 291.054688 83.945312 375 187.5 375 C 291.054688 375 375 291.054688 375 187.5 C 375 83.945312 291.054688 0 187.5 0 Z M 187.5 0 " clip-rule="nonzero"/></clipPath><clipPath id="45aeac11e3"><rect x="0" width="375" y="0" height="375"/></clipPath><clipPath id="363aca381f"><path d="M 45.011719 71.710938 L 325.511719 71.710938 L 325.511719 291.460938 L 45.011719 291.460938 Z M 45.011719 71.710938 " clip-rule="nonzero"/></clipPath></defs><g clip-path="url(#4f5c7d6bd5)"><g transform="matrix(1, 0, 0, 1, 0, 0)"><g clip-path="url(#45aeac11e3)"><g clip-path="url(#a87331a2cf)"><g clip-path="url(#f3a98957df)"><rect x="-82.5" width="540" fill="#233c4b" height="539.999987" y="-82.499998" fill-opacity="1"/></g></g></g></g></g><g clip-path="url(#363aca381f)"><path fill="#ffffff" d="M 319.855469 191.753906 L 50.300781 191.753906 C 47.335938 191.753906 44.914062 194.179688 44.914062 197.140625 L 44.914062 232.191406 C 44.914062 235.15625 47.335938 237.578125 50.300781 237.578125 L 319.820312 237.578125 C 322.785156 237.578125 325.207031 235.15625 325.207031 232.191406 L 325.207031 197.140625 C 325.242188 194.144531 322.816406 191.753906 319.855469 191.753906 Z M 314.433594 226.769531 L 55.71875 226.769531 L 55.71875 202.496094 L 314.46875 202.496094 L 314.46875 226.769531 Z M 107.738281 253.742188 C 107.738281 256.703125 105.316406 259.128906 102.351562 259.128906 L 97.636719 259.128906 L 97.636719 286.097656 C 97.636719 289.058594 95.214844 291.484375 92.25 291.484375 C 89.289062 291.484375 86.863281 289.058594 86.863281 286.097656 L 86.863281 259.128906 L 82.152344 259.128906 C 79.1875 259.128906 76.761719 256.703125 76.761719 253.742188 C 76.761719 250.777344 79.1875 248.351562 82.152344 248.351562 L 102.351562 248.351562 C 105.316406 248.351562 107.738281 250.777344 107.738281 253.742188 Z M 216.894531 253.742188 C 216.894531 256.703125 214.46875 259.128906 211.507812 259.128906 L 206.792969 259.128906 L 206.792969 286.097656 C 206.792969 289.058594 204.371094 291.484375 201.40625 291.484375 C 198.445312 291.484375 196.019531 289.058594 196.019531 286.097656 L 196.019531 259.128906 L 191.304688 259.128906 C 188.34375 259.128906 185.917969 256.703125 185.917969 253.742188 C 185.917969 250.777344 188.34375 248.351562 191.304688 248.351562 L 211.507812 248.351562 C 214.46875 248.351562 216.894531 250.777344 216.894531 253.742188 Z M 157.46875 261.820312 L 157.46875 277.980469 C 157.46875 279.464844 158.679688 280.675781 160.164062 280.675781 C 161.644531 280.675781 162.855469 279.464844 162.855469 277.980469 C 162.855469 275.019531 165.28125 272.59375 168.242188 272.59375 C 171.207031 272.59375 173.628906 275.019531 173.628906 277.980469 C 173.628906 285.421875 167.570312 291.449219 160.160156 291.449219 C 152.722656 291.449219 146.695312 285.390625 146.695312 277.980469 L 146.695312 261.820312 C 146.695312 254.378906 152.753906 248.351562 160.160156 248.351562 C 167.601562 248.351562 173.628906 254.414062 173.628906 261.820312 C 173.628906 264.785156 171.207031 267.207031 168.242188 267.207031 C 165.28125 267.207031 162.855469 264.785156 162.855469 261.820312 C 162.855469 260.339844 161.644531 259.128906 160.164062 259.128906 C 158.679688 259.128906 157.46875 260.339844 157.46875 261.820312 Z M 259.65625 261.820312 L 259.65625 277.980469 C 259.65625 279.464844 260.867188 280.675781 262.347656 280.675781 C 263.828125 280.675781 265.042969 279.464844 265.042969 277.980469 C 265.042969 275.019531 267.464844 272.59375 270.429688 272.59375 C 273.390625 272.59375 275.816406 275.019531 275.816406 277.980469 C 275.816406 285.421875 269.753906 291.449219 262.347656 291.449219 C 254.90625 291.449219 248.878906 285.390625 248.878906 277.980469 L 248.878906 261.820312 C 248.878906 254.378906 254.941406 248.351562 262.347656 248.351562 C 269.789062 248.351562 275.816406 254.414062 275.816406 261.820312 C 275.816406 264.785156 273.390625 267.207031 270.429688 267.207031 C 267.464844 267.207031 265.042969 264.785156 265.042969 261.820312 C 265.042969 260.339844 263.828125 259.128906 262.347656 259.128906 C 260.867188 259.128906 259.65625 260.339844 259.65625 261.820312 Z M 129.523438 252.125 C 129.488281 251.988281 129.421875 251.886719 129.355469 251.753906 C 129.289062 251.550781 129.21875 251.351562 129.117188 251.179688 C 129.050781 251.046875 128.949219 250.914062 128.851562 250.777344 C 128.75 250.609375 128.648438 250.472656 128.546875 250.339844 C 128.445312 250.238281 128.34375 250.136719 128.242188 250.003906 C 128.109375 249.867188 127.972656 249.699219 127.804688 249.597656 C 127.703125 249.53125 127.605469 249.464844 127.46875 249.363281 C 127.300781 249.230469 127.097656 249.09375 126.898438 248.992188 C 126.761719 248.925781 126.628906 248.890625 126.527344 248.824219 C 126.359375 248.757812 126.191406 248.65625 125.988281 248.589844 C 125.953125 248.589844 125.953125 248.589844 125.921875 248.589844 C 125.785156 248.554688 125.652344 248.523438 125.515625 248.523438 C 125.246094 248.453125 124.945312 248.421875 124.675781 248.386719 C 124.40625 248.351562 124.101562 248.351562 123.832031 248.386719 C 123.800781 248.386719 123.765625 248.386719 123.730469 248.386719 C 123.429688 248.421875 123.09375 248.488281 122.789062 248.589844 C 122.789062 248.589844 122.753906 248.589844 122.753906 248.589844 C 122.621094 248.621094 122.519531 248.691406 122.417969 248.722656 C 122.21875 248.789062 122.015625 248.890625 121.8125 248.992188 C 121.679688 249.058594 121.542969 249.160156 121.410156 249.261719 C 121.242188 249.363281 121.105469 249.464844 120.972656 249.566406 C 120.835938 249.667969 120.734375 249.800781 120.632812 249.902344 C 120.5 250.035156 120.363281 250.171875 120.230469 250.304688 C 120.128906 250.441406 120.0625 250.574219 119.960938 250.675781 C 119.859375 250.84375 119.726562 250.980469 119.65625 251.148438 C 119.558594 251.316406 119.488281 251.519531 119.421875 251.71875 C 119.355469 251.855469 119.289062 251.957031 119.253906 252.089844 L 109.152344 284.445312 C 108.277344 287.273438 109.859375 290.304688 112.6875 291.214844 C 113.226562 291.382812 113.765625 291.449219 114.304688 291.449219 C 116.59375 291.449219 118.714844 289.96875 119.457031 287.679688 L 119.457031 287.644531 L 129.355469 287.644531 L 129.355469 287.679688 C 130.0625 289.96875 132.214844 291.449219 134.507812 291.449219 C 135.042969 291.449219 135.582031 291.382812 136.121094 291.214844 C 138.949219 290.339844 140.53125 287.308594 139.65625 284.445312 Z M 122.789062 276.871094 L 124.371094 271.820312 L 125.953125 276.871094 Z M 237.027344 252.125 C 236.996094 251.988281 236.929688 251.886719 236.859375 251.753906 C 236.792969 251.550781 236.726562 251.351562 236.625 251.179688 C 236.558594 251.046875 236.457031 250.914062 236.355469 250.777344 C 236.253906 250.609375 236.152344 250.472656 236.050781 250.304688 C 235.953125 250.207031 235.851562 250.105469 235.75 249.96875 C 235.613281 249.835938 235.480469 249.667969 235.3125 249.566406 C 235.210938 249.496094 235.109375 249.429688 235.007812 249.328125 C 234.839844 249.195312 234.636719 249.058594 234.4375 248.960938 C 234.300781 248.890625 234.199219 248.859375 234.066406 248.789062 C 233.898438 248.722656 233.730469 248.621094 233.527344 248.554688 C 233.527344 248.554688 233.492188 248.554688 233.460938 248.554688 C 233.324219 248.523438 233.191406 248.488281 233.054688 248.488281 C 232.785156 248.421875 232.484375 248.386719 232.214844 248.351562 C 231.945312 248.320312 231.640625 248.320312 231.371094 248.351562 C 231.339844 248.351562 231.304688 248.351562 231.273438 248.351562 C 230.96875 248.386719 230.632812 248.453125 230.328125 248.554688 C 230.328125 248.554688 230.296875 248.554688 230.296875 248.554688 C 230.160156 248.589844 230.058594 248.65625 229.957031 248.691406 C 229.757812 248.757812 229.554688 248.859375 229.351562 248.960938 C 229.21875 249.027344 229.082031 249.128906 228.949219 249.230469 C 228.78125 249.328125 228.644531 249.429688 228.511719 249.53125 C 228.375 249.632812 228.273438 249.765625 228.175781 249.867188 C 228.039062 250.003906 227.90625 250.136719 227.769531 250.273438 C 227.667969 250.40625 227.601562 250.542969 227.5 250.644531 C 227.398438 250.8125 227.265625 250.945312 227.199219 251.113281 C 227.097656 251.28125 227.027344 251.484375 226.960938 251.6875 C 226.894531 251.820312 226.828125 251.921875 226.792969 252.058594 L 216.691406 284.414062 C 215.816406 287.242188 217.398438 290.269531 220.226562 291.179688 C 220.765625 291.347656 221.304688 291.417969 221.84375 291.417969 C 224.132812 291.417969 226.253906 289.933594 226.996094 287.644531 L 226.996094 287.613281 L 236.894531 287.613281 L 236.894531 287.644531 C 237.601562 289.933594 239.757812 291.417969 242.046875 291.417969 C 242.585938 291.417969 243.125 291.347656 243.660156 291.179688 C 246.488281 290.304688 248.074219 287.273438 247.195312 284.414062 Z M 230.296875 276.871094 L 231.878906 271.820312 L 233.460938 276.871094 Z M 307.332031 273.941406 C 307.332031 275.625 306.523438 277.140625 305.308594 278.117188 L 305.308594 280.003906 C 305.308594 286.332031 300.160156 291.449219 293.863281 291.449219 L 291.84375 291.449219 C 284.402344 291.449219 278.375 285.390625 278.375 277.980469 L 278.375 261.820312 C 278.375 254.378906 284.433594 248.351562 291.84375 248.351562 C 299.285156 248.351562 305.308594 254.414062 305.308594 261.820312 C 305.308594 264.785156 302.886719 267.207031 299.921875 267.207031 C 296.960938 267.207031 294.535156 264.785156 294.535156 261.820312 C 294.535156 260.339844 293.324219 259.128906 291.84375 259.128906 C 290.359375 259.128906 289.148438 260.339844 289.148438 261.820312 L 289.148438 277.980469 C 289.148438 279.464844 290.359375 280.675781 291.84375 280.675781 L 293.863281 280.675781 C 294.234375 280.675781 294.535156 280.371094 294.535156 280.003906 L 294.535156 279.125 C 292.210938 278.519531 290.496094 276.433594 290.496094 273.941406 C 290.496094 270.980469 292.921875 268.554688 295.882812 268.554688 L 301.941406 268.554688 C 304.941406 268.554688 307.332031 270.980469 307.332031 273.941406 Z M 50.300781 187.140625 L 230.96875 187.140625 C 231.070312 187.140625 231.136719 187.175781 231.238281 187.175781 C 231.304688 187.175781 231.40625 187.140625 231.472656 187.140625 L 247.5 187.140625 C 248.878906 187.140625 250.226562 187.007812 251.574219 186.804688 C 252.148438 187.007812 252.785156 187.175781 253.460938 187.175781 L 260.394531 187.175781 C 260.394531 187.175781 260.394531 187.175781 260.429688 187.175781 L 319.820312 187.175781 C 320.191406 187.175781 320.527344 187.144531 320.898438 187.074219 C 321.269531 187.007812 321.605469 186.90625 321.941406 186.738281 C 322.078125 186.671875 322.210938 186.605469 322.3125 186.535156 C 322.480469 186.433594 322.683594 186.367188 322.851562 186.234375 C 323.019531 186.132812 323.15625 185.996094 323.324219 185.863281 C 323.425781 185.761719 323.558594 185.695312 323.660156 185.59375 C 323.792969 185.460938 323.894531 185.324219 323.996094 185.191406 C 324.097656 185.054688 324.230469 184.921875 324.332031 184.785156 C 324.433594 184.652344 324.46875 184.515625 324.570312 184.382812 C 324.671875 184.214844 324.769531 184.046875 324.839844 183.875 C 324.90625 183.707031 324.972656 183.507812 325.007812 183.304688 C 325.039062 183.167969 325.109375 183.035156 325.140625 182.867188 C 325.207031 182.53125 325.242188 182.160156 325.242188 181.789062 C 325.242188 181.722656 325.207031 181.65625 325.207031 181.585938 C 325.207031 181.316406 325.175781 181.015625 325.109375 180.710938 L 304.972656 81.757812 C 303.761719 75.832031 298.878906 71.824219 292.820312 71.792969 C 292.820312 71.792969 292.785156 71.792969 292.785156 71.792969 C 286.824219 71.792969 281.84375 75.867188 280.597656 81.691406 L 276.960938 98.960938 C 274.941406 98.253906 272.71875 97.851562 270.394531 97.851562 C 270.394531 97.851562 270.363281 97.851562 270.363281 97.851562 C 268.644531 97.851562 266.960938 98.054688 265.378906 98.457031 C 258.542969 100.207031 253.324219 105.59375 251.808594 112.9375 C 251.808594 112.9375 251.808594 112.9375 251.808594 112.96875 L 248.644531 128.152344 C 245.953125 122.058594 240.125 118.222656 233.324219 118.1875 C 233.324219 118.1875 233.292969 118.1875 233.292969 118.1875 C 230.027344 118.1875 226.960938 119.0625 224.402344 120.679688 L 220.664062 102.160156 C 219.050781 94.113281 212.417969 88.660156 204.203125 88.660156 C 204.203125 88.660156 204.167969 88.660156 204.167969 88.660156 C 195.953125 88.660156 189.351562 94.046875 187.703125 102.09375 L 177.839844 150.242188 C 173.292969 145.898438 167.199219 143.371094 160.53125 143.371094 C 160.5 143.371094 160.5 143.371094 160.464844 143.371094 C 154.875 143.371094 149.722656 145.125 145.515625 148.222656 L 139.523438 129.367188 C 137.265625 122.261719 130.972656 117.648438 123.53125 117.648438 C 123.53125 117.648438 123.496094 117.648438 123.496094 117.648438 C 118.648438 117.648438 114.304688 119.601562 111.242188 122.902344 L 108.949219 114.351562 C 107.234375 107.886719 101.578125 103.542969 94.878906 103.472656 C 94.84375 103.472656 94.808594 103.472656 94.742188 103.472656 C 88.109375 103.472656 82.453125 107.75 80.636719 114.148438 L 66.394531 164.214844 C 64.375 171.351562 57.738281 176.335938 50.332031 176.335938 C 47.371094 176.335938 44.945312 178.757812 44.945312 181.722656 C 44.914062 184.71875 47.335938 187.140625 50.300781 187.140625 Z M 76.761719 167.144531 L 91.003906 117.078125 C 91.746094 114.417969 94.003906 114.28125 94.777344 114.25 C 95.484375 114.25 97.808594 114.484375 98.515625 117.144531 L 104.339844 138.929688 L 95.953125 164.785156 C 93.699219 171.6875 87.335938 176.335938 80.0625 176.335938 L 79.457031 176.335938 C 79.390625 176.335938 79.320312 176.367188 79.222656 176.367188 L 72.082031 176.367188 C 74.171875 173.675781 75.785156 170.578125 76.761719 167.144531 Z M 117.707031 132.632812 C 118.949219 128.761719 122.417969 128.457031 123.460938 128.457031 C 124.507812 128.457031 127.972656 128.761719 129.21875 132.664062 L 137.402344 158.421875 C 137.367188 158.523438 137.335938 158.589844 137.265625 158.691406 L 134 166.300781 C 132.789062 169.128906 130.835938 171.453125 128.445312 173.167969 C 126.828125 174.316406 125.046875 175.222656 123.125 175.761719 C 121.679688 176.167969 120.195312 176.402344 118.648438 176.402344 L 116.492188 176.402344 C 116.492188 176.402344 116.460938 176.402344 116.460938 176.402344 C 116.390625 176.402344 116.324219 176.4375 116.257812 176.4375 L 101.8125 176.4375 C 103.664062 174.011719 105.179688 171.21875 106.15625 168.1875 L 109.390625 158.1875 L 112.453125 148.757812 L 115.515625 139.332031 Z M 160.464844 154.179688 C 160.464844 154.179688 160.5 154.179688 160.5 154.179688 C 165.113281 154.179688 171.003906 156.503906 173.765625 162.96875 L 174.640625 165.054688 L 176.894531 170.410156 C 177.0625 170.8125 177.265625 171.183594 177.433594 171.585938 C 178.242188 173.304688 179.253906 174.921875 180.363281 176.402344 L 140.433594 176.402344 C 141.238281 175.359375 141.980469 174.246094 142.621094 173.070312 C 143.09375 172.261719 143.496094 171.417969 143.898438 170.542969 L 145.617188 166.535156 L 147.164062 162.96875 C 147.703125 161.722656 148.378906 160.679688 149.117188 159.734375 C 152.214844 155.730469 156.726562 154.179688 160.464844 154.179688 Z M 204.203125 99.46875 C 206.59375 99.46875 209.421875 100.746094 210.128906 104.316406 L 216.054688 133.742188 L 205.886719 164.855469 C 204.300781 169.667969 200.699219 173.40625 196.15625 175.191406 C 192.046875 173.574219 188.644531 170.410156 186.828125 166.199219 L 185.988281 164.179688 L 198.277344 104.28125 C 199.015625 100.714844 201.8125 99.46875 204.203125 99.46875 Z M 227.566406 133.171875 C 228.8125 129.296875 232.28125 128.996094 233.324219 128.996094 C 234.367188 128.996094 237.804688 129.296875 239.082031 133.203125 L 244.300781 149.398438 L 241.472656 163.070312 C 240.632812 167.210938 238.242188 170.710938 235.007812 173.101562 L 227.199219 134.382812 Z M 267.433594 109.132812 C 267.566406 109.097656 267.667969 109.0625 267.800781 109.03125 C 268.679688 108.761719 269.554688 108.625 270.394531 108.625 C 271.808594 108.625 273.359375 108.996094 274.703125 109.769531 L 263.460938 163.371094 C 263.089844 165.089844 262.484375 166.671875 261.640625 168.121094 C 260.5625 169.972656 259.183594 171.585938 257.5 172.867188 C 256.050781 173.976562 254.4375 174.886719 252.683594 175.460938 C 251.035156 176.03125 249.285156 176.335938 247.5 176.335938 L 246.894531 176.335938 C 248.511719 174.246094 249.824219 171.957031 250.765625 169.464844 C 251.304688 168.085938 251.707031 166.671875 252.046875 165.222656 L 253.222656 159.5 L 255.445312 148.792969 L 262.414062 115.125 C 262.550781 114.519531 262.71875 113.980469 262.921875 113.472656 C 262.988281 113.339844 263.054688 113.203125 263.121094 113.070312 C 263.289062 112.734375 263.460938 112.363281 263.628906 112.09375 C 263.898438 111.691406 264.199219 111.285156 264.535156 110.984375 C 264.605469 110.914062 264.671875 110.882812 264.738281 110.8125 C 265.546875 110.007812 266.457031 109.46875 267.433594 109.132812 Z M 292.785156 82.566406 C 293.695312 82.566406 294.234375 83.003906 294.433594 83.914062 L 313.257812 176.402344 L 301.875 176.402344 L 288.980469 113.035156 C 288.507812 110.644531 287.601562 108.492188 286.421875 106.570312 L 291.167969 83.914062 C 291.335938 83.003906 291.875 82.566406 292.785156 82.566406 Z M 211.8125 176.367188 C 213.664062 173.945312 215.144531 171.21875 216.121094 168.21875 L 220.394531 155.191406 L 224.671875 176.367188 Z M 274.03125 165.59375 L 281.472656 130.175781 L 290.867188 176.402344 L 269.082031 176.402344 C 271.4375 173.269531 273.191406 169.601562 274.03125 165.59375 Z M 86.664062 218.386719 L 86.664062 211.285156 C 86.664062 208.320312 89.085938 205.894531 92.050781 205.894531 C 95.011719 205.894531 97.4375 208.320312 97.4375 211.285156 L 97.4375 218.386719 C 97.4375 221.351562 95.011719 223.773438 92.050781 223.773438 C 89.050781 223.773438 86.664062 221.382812 86.664062 218.386719 Z M 119.457031 218.386719 L 119.457031 211.285156 C 119.457031 208.320312 121.878906 205.894531 124.84375 205.894531 C 127.804688 205.894531 130.230469 208.320312 130.230469 211.285156 L 130.230469 218.386719 C 130.230469 221.351562 127.804688 223.773438 124.84375 223.773438 C 121.847656 223.773438 119.457031 221.382812 119.457031 218.386719 Z M 154.945312 218.386719 L 154.945312 211.285156 C 154.945312 208.320312 157.367188 205.894531 160.332031 205.894531 C 163.292969 205.894531 165.71875 208.320312 165.71875 211.285156 L 165.71875 218.386719 C 165.71875 221.351562 163.292969 223.773438 160.332031 223.773438 C 157.332031 223.773438 154.945312 221.382812 154.945312 218.386719 Z M 195.816406 218.386719 L 195.816406 211.285156 C 195.816406 208.320312 198.242188 205.894531 201.203125 205.894531 C 204.167969 205.894531 206.59375 208.320312 206.59375 211.285156 L 206.59375 218.386719 C 206.59375 221.351562 204.167969 223.773438 201.203125 223.773438 C 198.207031 223.773438 195.816406 221.382812 195.816406 218.386719 Z M 225.917969 218.386719 L 225.917969 211.285156 C 225.917969 208.320312 228.34375 205.894531 231.304688 205.894531 C 234.269531 205.894531 236.691406 208.320312 236.691406 211.285156 L 236.691406 218.386719 C 236.691406 221.351562 234.269531 223.773438 231.304688 223.773438 C 228.308594 223.773438 225.917969 221.382812 225.917969 218.386719 Z M 256.019531 218.386719 L 256.019531 211.285156 C 256.019531 208.320312 258.441406 205.894531 261.40625 205.894531 C 264.367188 205.894531 266.792969 208.320312 266.792969 211.285156 L 266.792969 218.386719 C 266.792969 221.351562 264.367188 223.773438 261.40625 223.773438 C 258.410156 223.773438 256.019531 221.382812 256.019531 218.386719 Z M 286.085938 218.386719 L 286.085938 211.285156 C 286.085938 208.320312 288.507812 205.894531 291.472656 205.894531 C 294.433594 205.894531 296.859375 208.320312 296.859375 211.285156 L 296.859375 218.386719 C 296.859375 221.351562 294.433594 223.773438 291.472656 223.773438 C 288.507812 223.773438 286.085938 221.382812 286.085938 218.386719 Z M 286.085938 218.386719 " fill-opacity="1" fill-rule="nonzero"/></g></svg>