<svg xmlns="http://www.w3.org/2000/svg" xmlns:xlink="http://www.w3.org/1999/xlink" width="500" zoomAndPan="magnify" viewBox="0 0 375 374.999991" height="500" preserveAspectRatio="xMidYMid meet" version="1.2"><defs><clipPath id="f527ee7879"><path d="M 187.5 0 C 83.945312 0 0 83.945312 0 187.5 C 0 291.054688 83.945312 375 187.5 375 C 291.054688 375 375 291.054688 375 187.5 C 375 83.945312 291.054688 0 187.5 0 Z M 187.5 0 "/></clipPath><clipPath id="223e0c7435"><path d="M 187.5 0 C 83.945312 0 0 83.945312 0 187.5 C 0 291.054688 83.945312 375 187.5 375 C 291.054688 375 375 291.054688 375 187.5 C 375 83.945312 291.054688 0 187.5 0 Z M 187.5 0 "/></clipPath><clipPath id="ce8d0b3734"><rect x="0" width="375" y="0" height="375"/></clipPath></defs><g id="64c7a96c7c"><g clip-rule="nonzero" clip-path="url(#f527ee7879)"><g transform="matrix(1,0,0,1,0,0)"><g clip-path="url(#ce8d0b3734)"><g clip-rule="nonzero" clip-path="url(#223e0c7435)"><rect x="0" width="375" height="375" y="0" style="fill:#233c4b;fill-opacity:1;stroke:none;"/></g></g></g></g><path style=" stroke:none;fill-rule:nonzero;fill:#ffffff;fill-opacity:1;" d="M 159.878906 163.488281 C 157.816406 161.941406 154.199219 161.941406 152.652344 164.523438 C 151.105469 166.585938 151.105469 170.199219 153.683594 171.75 L 206.855469 213.566406 C 208.921875 215.113281 212.535156 215.113281 214.085938 212.53125 C 215.632812 210.46875 215.632812 206.851562 213.050781 205.304688 Z M 159.878906 163.488281 "/><path style=" stroke:none;fill-rule:nonzero;fill:#ffffff;fill-opacity:1;" d="M 144.394531 183.625 C 142.328125 182.074219 138.714844 182.074219 137.164062 184.65625 C 135.617188 186.71875 135.617188 190.335938 138.199219 191.882812 L 191.371094 233.699219 C 193.433594 235.246094 197.046875 235.246094 198.597656 232.664062 C 200.144531 230.601562 200.144531 226.988281 197.566406 225.4375 Z M 144.394531 183.625 "/><path style=" stroke:none;fill-rule:nonzero;fill:#ffffff;fill-opacity:1;" d="M 128.390625 203.238281 C 126.324219 201.691406 122.710938 201.691406 121.164062 204.273438 C 119.613281 206.335938 119.613281 209.949219 122.195312 211.5 L 175.367188 253.3125 C 177.429688 254.863281 181.046875 254.863281 182.59375 252.28125 C 184.140625 250.21875 184.140625 246.601562 181.5625 245.054688 Z M 128.390625 203.238281 "/><path style=" stroke:none;fill-rule:nonzero;fill:#ffffff;fill-opacity:1;" d="M 112.902344 223.371094 C 110.835938 221.824219 107.222656 221.824219 105.675781 224.40625 C 104.125 226.988281 104.125 230.082031 106.707031 231.632812 L 159.878906 273.449219 C 161.945312 274.996094 165.558594 274.996094 167.105469 272.414062 C 168.65625 270.351562 168.65625 266.738281 166.074219 265.1875 Z M 112.902344 223.371094 "/><path style=" stroke:none;fill-rule:nonzero;fill:#ffffff;fill-opacity:1;" d="M 288.421875 78.3125 C 264.160156 59.210938 229.054688 68.503906 216.664062 94.832031 L 164.007812 101.542969 C 162.460938 101.542969 161.429688 102.574219 160.394531 103.605469 L 66.441406 223.371094 C 63.859375 226.46875 62.828125 230.601562 63.34375 234.730469 C 63.859375 238.859375 65.925781 242.472656 69.023438 245.054688 L 155.234375 312.679688 C 157.816406 314.746094 161.429688 315.777344 164.527344 315.777344 C 169.171875 315.777344 173.816406 313.714844 176.914062 310.101562 L 271.386719 190.335938 C 272.417969 189.300781 272.417969 187.753906 272.417969 186.71875 L 269.320312 161.425781 C 280.160156 159.359375 289.453125 153.164062 296.679688 144.390625 C 312.167969 124.257812 308.554688 94.832031 288.421875 78.3125 Z M 168.65625 303.90625 C 167.625 304.9375 166.074219 305.96875 164.527344 305.96875 C 163.492188 305.96875 162.460938 305.96875 161.429688 304.9375 L 75.21875 236.796875 C 74.183594 235.761719 73.667969 234.730469 73.152344 233.179688 C 73.152344 231.632812 73.152344 230.601562 74.183594 229.566406 L 167.105469 111.351562 L 251.769531 101.542969 L 257.964844 152.132812 C 251.769531 152.132812 246.089844 150.066406 240.929688 146.96875 C 245.574219 138.710938 243.507812 127.871094 235.765625 121.675781 C 226.472656 114.449219 214.085938 117.027344 207.890625 124.773438 C 201.179688 133.546875 202.726562 145.9375 210.988281 152.648438 C 216.664062 157.296875 225.441406 158.84375 233.183594 154.199219 C 240.929688 159.359375 249.703125 161.941406 258.996094 161.941406 L 261.578125 185.171875 Z M 215.117188 132.515625 C 217.179688 137.679688 220.277344 142.839844 223.890625 146.96875 C 216.148438 147.488281 210.988281 139.226562 215.117188 132.515625 Z M 224.925781 128.386719 C 231.636719 129.417969 234.21875 135.613281 232.667969 140.777344 C 229.054688 136.644531 226.472656 132.515625 224.925781 128.386719 Z M 288.421875 138.195312 C 283.257812 144.90625 276.03125 149.035156 268.289062 151.101562 L 261.0625 95.347656 C 260.542969 92.765625 257.964844 90.703125 255.382812 90.703125 L 229.570312 93.796875 C 242.992188 76.246094 266.222656 74.699219 281.710938 86.570312 C 297.714844 98.960938 300.8125 122.191406 288.421875 138.195312 Z M 288.421875 138.195312 "/></g></svg>