<svg xmlns="http://www.w3.org/2000/svg" xmlns:xlink="http://www.w3.org/1999/xlink" width="500" zoomAndPan="magnify" viewBox="0 0 375 374.999991" height="500" preserveAspectRatio="xMidYMid meet" version="1.0"><defs><clipPath id="5444556d9e"><path d="M 187.5 0 C 83.945312 0 0 83.945312 0 187.5 C 0 291.054688 83.945312 375 187.5 375 C 291.054688 375 375 291.054688 375 187.5 C 375 83.945312 291.054688 0 187.5 0 Z M 187.5 0 " clip-rule="nonzero"/></clipPath><clipPath id="873a845f7c"><path d="M 0 0 L 375 0 L 375 375 L 0 375 Z M 0 0 " clip-rule="nonzero"/></clipPath><clipPath id="02f5cf1889"><path d="M 187.5 0 C 83.945312 0 0 83.945312 0 187.5 C 0 291.054688 83.945312 375 187.5 375 C 291.054688 375 375 291.054688 375 187.5 C 375 83.945312 291.054688 0 187.5 0 Z M 187.5 0 " clip-rule="nonzero"/></clipPath><clipPath id="8ef966a048"><rect x="0" width="375" y="0" height="375"/></clipPath><clipPath id="d620b008dd"><path d="M 100.214844 44.996094 L 274.964844 44.996094 L 274.964844 329.996094 L 100.214844 329.996094 Z M 100.214844 44.996094 " clip-rule="nonzero"/></clipPath></defs><g clip-path="url(#5444556d9e)"><g transform="matrix(1, 0, 0, 1, 0, 0)"><g clip-path="url(#8ef966a048)"><g clip-path="url(#873a845f7c)"><g clip-path="url(#02f5cf1889)"><rect x="-82.5" width="540" fill="#233c4b" height="539.999987" y="-82.499998" fill-opacity="1"/></g></g></g></g></g><g clip-path="url(#d620b008dd)"><path fill="#ffffff" d="M 141.488281 122.59375 C 134.65625 118.152344 127.140625 112.464844 120.515625 105.457031 C 109.058594 93.339844 100.265625 77.503906 100.265625 57.703125 C 100.265625 50.6875 105.960938 44.996094 112.976562 44.996094 C 119.992188 44.996094 125.683594 50.6875 125.683594 57.703125 C 125.683594 73.789062 135.304688 85.503906 145.265625 93.898438 C 153.144531 100.542969 161.476562 105.238281 167.183594 108.246094 C 170.5 106.496094 174.703125 104.179688 179.191406 101.238281 L 178.269531 101.238281 C 175.734375 101.238281 173.675781 99.179688 173.675781 96.640625 C 173.675781 94.105469 175.734375 92.042969 178.269531 92.042969 L 191.230469 92.042969 C 196.363281 87.421875 201.21875 81.886719 204.5 75.28125 L 161.773438 75.28125 C 159.234375 75.28125 157.175781 73.21875 157.175781 70.683594 C 157.175781 68.144531 159.234375 66.085938 161.773438 66.085938 L 207.773438 66.085938 C 208.359375 63.433594 208.683594 60.640625 208.683594 57.703125 C 208.683594 50.6875 214.375 44.996094 221.390625 44.996094 C 228.40625 44.996094 234.097656 50.6875 234.097656 57.703125 C 234.097656 60.582031 233.914062 63.375 233.558594 66.085938 L 270.1875 66.085938 C 272.722656 66.085938 274.78125 68.144531 274.78125 70.683594 C 274.78125 73.21875 272.722656 75.28125 270.1875 75.28125 L 231.660156 75.28125 C 229.929688 81.339844 227.363281 86.925781 224.21875 92.042969 L 253.6875 92.042969 C 256.222656 92.042969 258.285156 94.105469 258.285156 96.640625 C 258.285156 99.179688 256.222656 101.238281 253.6875 101.238281 L 217.597656 101.238281 C 216.390625 102.691406 215.136719 104.097656 213.851562 105.457031 C 207.226562 112.464844 199.710938 118.152344 192.878906 122.59375 C 198.980469 126.558594 205.625 131.519531 211.6875 137.527344 C 213.949219 139.542969 216.054688 141.691406 218 143.960938 L 253.6875 143.960938 C 256.222656 143.960938 258.285156 146.019531 258.285156 148.558594 C 258.285156 151.09375 256.222656 153.152344 253.6875 153.152344 L 224.621094 153.152344 C 227.753906 158.386719 230.15625 164.027344 231.757812 169.917969 L 270.1875 169.917969 C 272.722656 169.917969 274.78125 171.976562 274.78125 174.515625 C 274.78125 177.050781 272.722656 179.113281 270.1875 179.113281 L 233.574219 179.113281 C 233.921875 181.875 234.097656 184.671875 234.097656 187.496094 C 234.097656 190.316406 233.921875 193.113281 233.574219 195.875 L 270.1875 195.875 C 272.722656 195.875 274.78125 197.9375 274.78125 200.472656 C 274.78125 203.011719 272.722656 205.070312 270.1875 205.070312 L 231.757812 205.070312 C 230.15625 210.964844 227.753906 216.601562 224.625 221.835938 L 253.6875 221.835938 C 256.222656 221.835938 258.285156 223.894531 258.285156 226.429688 C 258.285156 228.96875 256.222656 231.027344 253.6875 231.027344 L 218.003906 231.027344 C 216.058594 233.292969 213.953125 235.445312 211.695312 237.453125 C 205.628906 243.464844 198.980469 248.429688 192.878906 252.394531 C 199.710938 256.835938 207.226562 262.523438 213.851562 269.53125 C 215.136719 270.890625 216.390625 272.296875 217.597656 273.75 L 253.6875 273.75 C 256.222656 273.75 258.285156 275.8125 258.285156 278.347656 C 258.285156 280.886719 256.222656 282.945312 253.6875 282.945312 L 224.21875 282.945312 C 227.363281 288.066406 229.929688 293.648438 231.660156 299.710938 L 270.1875 299.710938 C 272.722656 299.710938 274.78125 301.769531 274.78125 304.304688 C 274.78125 306.84375 272.722656 308.902344 270.1875 308.902344 L 233.558594 308.902344 C 233.914062 311.613281 234.097656 314.40625 234.097656 317.285156 C 234.097656 324.300781 228.40625 329.996094 221.390625 329.996094 C 214.375 329.996094 208.683594 324.300781 208.683594 317.285156 C 208.683594 314.347656 208.359375 311.554688 207.773438 308.902344 L 161.773438 308.902344 C 159.234375 308.902344 157.175781 306.84375 157.175781 304.304688 C 157.175781 301.769531 159.234375 299.710938 161.773438 299.710938 L 204.5 299.710938 C 201.21875 293.101562 196.363281 287.566406 191.234375 282.945312 L 178.269531 282.945312 C 175.734375 282.945312 173.675781 280.886719 173.675781 278.347656 C 173.675781 275.8125 175.734375 273.75 178.269531 273.75 L 179.191406 273.75 C 174.707031 270.8125 170.5 268.492188 167.183594 266.742188 C 161.476562 269.75 153.144531 274.445312 145.265625 281.089844 C 135.304688 289.484375 125.683594 301.199219 125.683594 317.285156 C 125.683594 324.300781 119.992188 329.996094 112.976562 329.996094 C 105.960938 329.996094 100.265625 324.300781 100.265625 317.285156 C 100.265625 297.484375 109.058594 281.648438 120.515625 269.53125 C 127.140625 262.523438 134.65625 256.835938 141.484375 252.394531 C 135.386719 248.429688 128.742188 243.46875 122.679688 237.460938 C 108.394531 224.730469 100.265625 206.621094 100.265625 187.496094 C 100.265625 168.367188 108.394531 150.257812 122.671875 137.535156 C 128.738281 131.523438 135.386719 126.5625 141.488281 122.59375 Z M 176.902344 113.398438 C 178.835938 114.414062 181.289062 115.703125 184.074219 117.273438 C 191.277344 112.902344 199.824219 106.910156 207.171875 99.140625 C 208.777344 97.441406 210.328125 95.660156 211.796875 93.796875 C 217.210938 86.921875 221.542969 78.910156 223.597656 69.683594 C 224.445312 65.894531 224.90625 61.902344 224.90625 57.703125 C 224.90625 55.761719 223.332031 54.1875 221.390625 54.1875 C 219.449219 54.1875 217.875 55.761719 217.875 57.703125 C 217.875 62.84375 217.078125 67.621094 215.6875 72.058594 C 212.039062 83.671875 204.273438 92.9375 195.976562 100.117188 C 195.660156 100.390625 195.34375 100.660156 195.027344 100.929688 C 188.804688 106.175781 182.324219 110.300781 176.902344 113.398438 Z M 184.074219 247.070312 C 190.679688 243.0625 198.40625 237.695312 205.304688 230.84375 C 205.363281 230.785156 205.425781 230.726562 205.492188 230.667969 C 207.964844 228.472656 210.222656 226.09375 212.253906 223.558594 C 217.886719 216.53125 221.78125 208.300781 223.644531 199.519531 C 224.476562 195.601562 224.90625 191.574219 224.90625 187.496094 C 224.90625 183.414062 224.476562 179.386719 223.644531 175.46875 C 221.78125 166.6875 217.886719 158.460938 212.253906 151.429688 C 210.21875 148.894531 207.960938 146.511719 205.488281 144.316406 C 205.425781 144.261719 205.363281 144.203125 205.300781 144.140625 C 197.597656 136.488281 188.855469 130.6875 181.796875 126.566406 C 175.878906 123.109375 171.097656 120.800781 168.941406 119.554688 C 168.085938 119.0625 166.753906 118.386719 165.070312 117.511719 C 159.054688 114.398438 148.898438 108.984375 139.339844 100.929688 C 127.503906 90.953125 116.492188 76.8125 116.492188 57.703125 C 116.492188 55.761719 114.917969 54.1875 112.976562 54.1875 C 111.035156 54.1875 109.460938 55.761719 109.460938 57.703125 C 109.460938 74.910156 117.238281 88.609375 127.195312 99.140625 C 135.332031 107.746094 144.941406 114.167969 152.570312 118.628906 C 158.488281 122.085938 163.265625 124.398438 165.425781 125.644531 C 166.277344 126.132812 167.609375 126.808594 169.292969 127.675781 C 175.519531 130.894531 186.183594 136.566406 195.992188 145.085938 C 197.523438 146.417969 199.03125 147.816406 200.503906 149.285156 C 200.554688 149.335938 200.609375 149.386719 200.664062 149.4375 C 207.957031 155.859375 213.160156 164.117188 215.828125 173.222656 C 217.175781 177.808594 217.875 182.605469 217.875 187.496094 C 217.875 192.382812 217.175781 197.179688 215.832031 201.765625 C 213.160156 210.871094 207.957031 219.132812 200.664062 225.554688 C 200.609375 225.601562 200.554688 225.652344 200.503906 225.703125 C 199.03125 227.171875 197.523438 228.570312 195.992188 229.902344 C 189.496094 235.546875 182.621094 239.941406 176.914062 243.199219 C 178.847656 244.214844 181.292969 245.5 184.074219 247.070312 Z M 167.183594 238.046875 C 170.507812 236.296875 174.726562 233.976562 179.222656 231.027344 L 178.269531 231.027344 C 175.734375 231.027344 173.675781 228.96875 173.675781 226.429688 C 173.675781 223.894531 175.734375 221.835938 178.269531 221.835938 L 191.234375 221.835938 C 192.171875 220.984375 193.097656 220.109375 194.003906 219.199219 C 194.195312 219.011719 194.390625 218.828125 194.589844 218.652344 C 198.941406 214.820312 202.386719 210.1875 204.78125 205.070312 L 161.773438 205.070312 C 159.234375 205.070312 157.175781 203.011719 157.175781 200.472656 C 157.175781 197.9375 159.234375 195.875 161.773438 195.875 L 207.832031 195.875 C 208.394531 193.144531 208.683594 190.335938 208.683594 187.496094 C 208.683594 184.652344 208.390625 181.84375 207.832031 179.113281 L 161.773438 179.113281 C 159.234375 179.113281 157.175781 177.050781 157.175781 174.515625 C 157.175781 171.976562 159.234375 169.917969 161.773438 169.917969 L 204.78125 169.917969 C 202.386719 164.800781 198.941406 160.167969 194.589844 156.335938 C 194.386719 156.160156 194.191406 155.976562 194.003906 155.789062 C 193.09375 154.878906 192.167969 154.003906 191.234375 153.152344 L 178.269531 153.152344 C 175.734375 153.152344 173.675781 151.09375 173.675781 148.558594 C 173.675781 146.019531 175.734375 143.960938 178.269531 143.960938 L 179.222656 143.960938 C 174.726562 141.011719 170.507812 138.691406 167.183594 136.945312 C 160.261719 140.582031 149.457031 146.699219 140.359375 155.789062 C 140.171875 155.976562 139.976562 156.160156 139.777344 156.335938 C 130.800781 164.242188 125.683594 175.546875 125.683594 187.496094 C 125.683594 199.441406 130.800781 210.746094 139.777344 218.652344 C 139.976562 218.828125 140.171875 219.011719 140.363281 219.199219 C 149.457031 228.289062 160.261719 234.40625 167.183594 238.046875 Z M 157.453125 131.792969 C 155.519531 130.773438 153.074219 129.488281 150.292969 127.921875 C 143.6875 131.925781 135.960938 137.292969 129.0625 144.144531 C 129 144.203125 128.9375 144.265625 128.875 144.320312 C 116.503906 155.300781 109.460938 170.957031 109.460938 187.496094 C 109.460938 204.03125 116.503906 219.683594 128.878906 230.671875 C 128.941406 230.730469 129.003906 230.789062 129.066406 230.847656 C 136.769531 238.503906 145.511719 244.304688 152.570312 248.421875 C 158.488281 251.878906 163.269531 254.1875 165.425781 255.433594 C 165.863281 255.6875 167.226562 256.472656 165.425781 255.433594 C 166.28125 255.929688 167.613281 256.601562 169.296875 257.476562 C 175.3125 260.589844 185.46875 266.003906 195.027344 274.0625 C 195.34375 274.328125 195.660156 274.597656 195.976562 274.871094 C 204.273438 282.050781 212.042969 291.316406 215.6875 302.929688 C 217.078125 307.367188 217.875 312.148438 217.875 317.285156 C 217.875 319.226562 219.449219 320.800781 221.390625 320.800781 C 223.332031 320.800781 224.90625 319.226562 224.90625 317.285156 C 224.90625 313.085938 224.445312 309.09375 223.601562 305.304688 C 221.542969 296.078125 217.210938 288.066406 211.796875 281.191406 C 210.328125 279.328125 208.777344 277.546875 207.171875 275.847656 C 199.03125 267.242188 189.425781 260.820312 181.796875 256.359375 C 175.878906 252.902344 171.097656 250.59375 168.941406 249.347656 C 168.089844 248.855469 166.757812 248.179688 165.074219 247.3125 C 157.875 243.59375 144.757812 236.589844 133.863281 225.703125 C 133.8125 225.652344 133.757812 225.601562 133.703125 225.554688 C 122.738281 215.898438 116.492188 202.085938 116.492188 187.496094 C 116.492188 172.902344 122.734375 159.09375 133.703125 149.4375 C 133.757812 149.386719 133.8125 149.335938 133.863281 149.285156 C 141.578125 141.578125 150.402344 135.820312 157.453125 131.792969 Z M 150.292969 257.714844 C 143.089844 262.085938 134.542969 268.078125 127.195312 275.847656 C 117.238281 286.378906 109.460938 300.078125 109.460938 317.285156 C 109.460938 319.226562 111.035156 320.800781 112.976562 320.800781 C 114.917969 320.800781 116.492188 319.226562 116.492188 317.285156 C 116.492188 298.175781 127.503906 284.035156 139.339844 274.0625 C 145.5625 268.8125 152.042969 264.6875 157.464844 261.589844 C 155.527344 260.574219 153.078125 259.285156 150.292969 257.714844 Z M 150.292969 257.714844 " fill-opacity="1" fill-rule="evenodd"/></g></svg>