<svg xmlns="http://www.w3.org/2000/svg" xmlns:xlink="http://www.w3.org/1999/xlink" width="500" zoomAndPan="magnify" viewBox="0 0 375 374.999991" height="500" preserveAspectRatio="xMidYMid meet" version="1.0"><defs><clipPath id="9e3d275760"><path d="M 187.5 0 C 83.945312 0 0 83.945312 0 187.5 C 0 291.054688 83.945312 375 187.5 375 C 291.054688 375 375 291.054688 375 187.5 C 375 83.945312 291.054688 0 187.5 0 Z M 187.5 0 " clip-rule="nonzero"/></clipPath><clipPath id="412a5dc67a"><path d="M 0 0 L 375 0 L 375 375 L 0 375 Z M 0 0 " clip-rule="nonzero"/></clipPath><clipPath id="edb3fa78ec"><path d="M 187.5 0 C 83.945312 0 0 83.945312 0 187.5 C 0 291.054688 83.945312 375 187.5 375 C 291.054688 375 375 291.054688 375 187.5 C 375 83.945312 291.054688 0 187.5 0 Z M 187.5 0 " clip-rule="nonzero"/></clipPath><clipPath id="3cf4b423e4"><rect x="0" width="375" y="0" height="375"/></clipPath><clipPath id="ecceea217e"><path d="M 194 67.308594 L 230 67.308594 L 230 103 L 194 103 Z M 194 67.308594 " clip-rule="nonzero"/></clipPath><clipPath id="66882f58a7"><path d="M 145 67.308594 L 181 67.308594 L 181 103 L 145 103 Z M 145 67.308594 " clip-rule="nonzero"/></clipPath><clipPath id="5b4ca66dc6"><path d="M 236 67.308594 L 280 67.308594 L 280 143 L 236 143 Z M 236 67.308594 " clip-rule="nonzero"/></clipPath><clipPath id="efdba5503d"><path d="M 95 67.308594 L 139 67.308594 L 139 143 L 95 143 Z M 95 67.308594 " clip-rule="nonzero"/></clipPath><clipPath id="d89c4a0672"><path d="M 245 169 L 316.839844 169 L 316.839844 234 L 245 234 Z M 245 169 " clip-rule="nonzero"/></clipPath><clipPath id="168f4b6f3e"><path d="M 58.089844 169 L 130 169 L 130 234 L 58.089844 234 Z M 58.089844 169 " clip-rule="nonzero"/></clipPath></defs><g clip-path="url(#9e3d275760)"><g transform="matrix(1, 0, 0, 1, 0, 0)"><g clip-path="url(#3cf4b423e4)"><g clip-path="url(#412a5dc67a)"><g clip-path="url(#edb3fa78ec)"><rect x="-82.5" width="540" fill="#233c4b" height="539.999987" y="-82.499998" fill-opacity="1"/></g></g></g></g></g><path fill="#ffffff" d="M 169.386719 113.910156 L 205.613281 113.910156 C 204.171875 104.71875 198.097656 100.066406 187.5 100.066406 C 176.902344 100.066406 170.828125 104.71875 169.386719 113.910156 Z M 210.566406 123.136719 L 164.429688 123.136719 C 161.890625 123.136719 159.816406 121.0625 159.816406 118.523438 C 159.816406 101.183594 170.160156 90.839844 187.5 90.839844 C 204.835938 90.839844 215.183594 101.183594 215.183594 118.523438 C 215.183594 121.0625 213.109375 123.136719 210.566406 123.136719 " fill-opacity="1" fill-rule="nonzero"/><path fill="#ffffff" d="M 238.25 169.273438 L 136.75 169.273438 C 136.425781 169.273438 136.117188 169.238281 135.8125 169.183594 C 131.015625 168.175781 122.90625 164.15625 122.90625 155.433594 C 122.90625 134.832031 147.058594 113.910156 164.429688 113.910156 C 166.972656 113.910156 169.042969 115.980469 169.042969 118.523438 C 169.042969 121.0625 166.972656 123.136719 164.429688 123.136719 C 151.671875 123.136719 132.136719 140.457031 132.136719 155.433594 C 132.136719 158.28125 136.082031 159.667969 137.34375 160.046875 L 237.65625 160.046875 C 238.898438 159.683594 242.863281 158.296875 242.863281 155.433594 C 242.863281 140.457031 223.328125 123.136719 210.566406 123.136719 C 208.027344 123.136719 205.953125 121.0625 205.953125 118.523438 C 205.953125 115.980469 208.027344 113.910156 210.566406 113.910156 C 227.941406 113.910156 252.089844 134.832031 252.089844 155.433594 C 252.089844 164.15625 243.980469 168.175781 239.1875 169.183594 C 238.882812 169.238281 238.574219 169.273438 238.25 169.273438 " fill-opacity="1" fill-rule="nonzero"/><path fill="#ffffff" d="M 187.5 298.457031 C 148.464844 298.457031 109.066406 275.984375 109.066406 225.792969 C 109.066406 188.285156 122.746094 167.886719 127.25 161.179688 L 127.953125 160.117188 C 129.324219 157.957031 132.171875 157.324219 134.316406 158.695312 C 136.476562 160.0625 137.109375 162.910156 135.738281 165.074219 L 134.910156 166.316406 C 130.800781 172.445312 118.292969 191.097656 118.292969 225.792969 C 118.292969 272.613281 155.582031 289.230469 187.5 289.230469 C 219.417969 289.230469 256.707031 272.613281 256.707031 225.792969 C 256.707031 191.097656 244.199219 172.445312 240.089844 166.316406 L 239.261719 165.074219 C 237.890625 162.910156 238.519531 160.0625 240.683594 158.695312 C 242.828125 157.324219 245.675781 157.957031 247.046875 160.117188 L 247.75 161.179688 C 252.253906 167.886719 265.933594 188.285156 265.933594 225.792969 C 265.933594 275.984375 226.535156 298.457031 187.5 298.457031 " fill-opacity="1" fill-rule="nonzero"/><path fill="#ffffff" d="M 187.5 298.457031 C 184.957031 298.457031 182.886719 296.386719 182.886719 293.84375 L 182.886719 164.660156 C 182.886719 162.117188 184.957031 160.046875 187.5 160.046875 C 190.039062 160.046875 192.113281 162.117188 192.113281 164.660156 L 192.113281 293.84375 C 192.113281 296.386719 190.039062 298.457031 187.5 298.457031 " fill-opacity="1" fill-rule="nonzero"/><g clip-path="url(#ecceea217e)"><path fill="#ffffff" d="M 198.945312 102.230469 C 198.421875 102.230469 197.917969 102.140625 197.394531 101.960938 C 194.996094 101.113281 193.734375 98.480469 194.582031 96.066406 L 196.996094 89.289062 C 197.503906 87.847656 198.710938 86.730469 200.222656 86.371094 L 216.210938 82.371094 L 220.03125 70.925781 C 220.839844 68.511719 223.4375 67.195312 225.871094 68.003906 C 228.285156 68.816406 229.582031 71.429688 228.789062 73.84375 L 224.175781 87.6875 C 223.671875 89.183594 222.445312 90.316406 220.914062 90.695312 L 204.875 94.714844 L 203.289062 99.148438 C 202.621094 101.039062 200.835938 102.230469 198.945312 102.230469 " fill-opacity="1" fill-rule="nonzero"/></g><g clip-path="url(#66882f58a7)"><path fill="#ffffff" d="M 176.054688 102.230469 C 174.164062 102.230469 172.378906 101.039062 171.710938 99.148438 L 170.144531 94.714844 L 154.085938 90.695312 C 152.554688 90.316406 151.328125 89.183594 150.824219 87.6875 L 146.210938 73.84375 C 145.398438 71.429688 146.714844 68.816406 149.128906 68.003906 C 151.5625 67.195312 154.160156 68.511719 154.96875 70.925781 L 158.773438 82.371094 L 174.777344 86.371094 C 176.273438 86.730469 177.496094 87.847656 178 89.289062 L 180.417969 96.066406 C 181.265625 98.480469 180.003906 101.113281 177.605469 101.960938 C 177.082031 102.140625 176.578125 102.230469 176.054688 102.230469 " fill-opacity="1" fill-rule="nonzero"/></g><g clip-path="url(#5b4ca66dc6)"><path fill="#ffffff" d="M 241.476562 142.980469 C 240.285156 142.980469 239.117188 142.546875 238.214844 141.644531 C 236.414062 139.84375 236.414062 136.90625 238.214844 135.101562 L 261.320312 112 L 261.320312 81.613281 C 261.320312 80.386719 261.804688 79.214844 262.671875 78.351562 L 271.898438 69.121094 C 273.699219 67.320312 276.621094 67.320312 278.421875 69.121094 C 280.226562 70.925781 280.226562 73.84375 278.421875 75.648438 L 270.546875 83.523438 L 270.546875 113.910156 C 270.546875 115.132812 270.058594 116.304688 269.195312 117.171875 L 244.738281 141.644531 C 243.835938 142.546875 242.648438 142.980469 241.476562 142.980469 " fill-opacity="1" fill-rule="nonzero"/></g><g clip-path="url(#efdba5503d)"><path fill="#ffffff" d="M 133.523438 142.980469 C 132.351562 142.980469 131.160156 142.546875 130.261719 141.644531 L 105.804688 117.171875 C 104.9375 116.304688 104.453125 115.132812 104.453125 113.910156 L 104.453125 83.523438 L 96.578125 75.648438 C 94.773438 73.84375 94.773438 70.925781 96.578125 69.121094 C 98.378906 67.320312 101.296875 67.320312 103.101562 69.121094 L 112.328125 78.351562 C 113.195312 79.214844 113.679688 80.386719 113.679688 81.613281 L 113.679688 112 L 136.785156 135.101562 C 138.585938 136.90625 138.585938 139.84375 136.785156 141.644531 C 135.882812 142.546875 134.710938 142.980469 133.523438 142.980469 " fill-opacity="1" fill-rule="nonzero"/></g><g clip-path="url(#d89c4a0672)"><path fill="#ffffff" d="M 312.070312 233.867188 L 298.230469 233.867188 C 296.589844 233.867188 295.074219 232.980469 294.246094 231.578125 L 263.285156 178.5 L 249.929688 178.5 C 247.371094 178.5 245.316406 176.429688 245.316406 173.886719 C 245.316406 171.347656 247.371094 169.273438 249.929688 169.273438 L 265.933594 169.273438 C 267.574219 169.273438 269.085938 170.136719 269.914062 171.5625 L 300.878906 224.636719 L 312.070312 224.636719 C 314.609375 224.636719 316.683594 226.710938 316.683594 229.25 C 316.683594 231.792969 314.609375 233.867188 312.070312 233.867188 " fill-opacity="1" fill-rule="nonzero"/></g><g clip-path="url(#168f4b6f3e)"><path fill="#ffffff" d="M 76.769531 233.867188 L 62.929688 233.867188 C 60.386719 233.867188 58.316406 231.792969 58.316406 229.25 C 58.316406 226.710938 60.386719 224.636719 62.929688 224.636719 L 74.121094 224.636719 L 105.082031 171.5625 C 105.914062 170.136719 107.425781 169.273438 109.066406 169.273438 L 125.070312 169.273438 C 127.628906 169.273438 129.683594 171.347656 129.683594 173.886719 C 129.683594 176.429688 127.628906 178.5 125.070312 178.5 L 111.714844 178.5 L 80.753906 231.578125 C 79.925781 232.980469 78.410156 233.867188 76.769531 233.867188 " fill-opacity="1" fill-rule="nonzero"/></g><path fill="#ffffff" d="M 298.230469 307.683594 C 297.039062 307.683594 295.867188 307.234375 294.96875 306.332031 L 281.125 292.492188 C 280.261719 291.628906 279.773438 290.457031 279.773438 289.230469 L 279.773438 249.617188 L 258.058594 227.898438 C 256.253906 226.097656 256.253906 223.179688 258.058594 221.375 C 259.859375 219.574219 262.777344 219.574219 264.582031 221.375 L 287.648438 244.445312 C 288.515625 245.308594 289 246.480469 289 247.707031 L 289 287.320312 L 301.492188 299.808594 C 303.292969 301.613281 303.292969 304.53125 301.492188 306.332031 C 300.589844 307.234375 299.417969 307.683594 298.230469 307.683594 " fill-opacity="1" fill-rule="nonzero"/><path fill="#ffffff" d="M 76.769531 307.683594 C 75.582031 307.683594 74.410156 307.234375 73.507812 306.332031 C 71.707031 304.53125 71.707031 301.613281 73.507812 299.808594 L 85.996094 287.320312 L 85.996094 247.707031 C 85.996094 246.480469 86.484375 245.308594 87.347656 244.445312 L 110.417969 221.375 C 112.21875 219.574219 115.140625 219.574219 116.941406 221.375 C 118.746094 223.179688 118.746094 226.097656 116.941406 227.898438 L 95.226562 249.617188 L 95.226562 289.230469 C 95.226562 290.457031 94.738281 291.628906 93.875 292.492188 L 80.03125 306.332031 C 79.132812 307.234375 77.960938 307.683594 76.769531 307.683594 " fill-opacity="1" fill-rule="nonzero"/><path fill="#ffffff" d="M 209.449219 114.558594 C 209.289062 114.558594 209.144531 114.539062 209 114.519531 C 205.304688 114.179688 202.027344 112.179688 199.988281 109.058594 C 197.96875 105.960938 197.464844 102.140625 198.636719 98.609375 C 199.449219 96.191406 202.042969 94.875 204.457031 95.6875 C 206.890625 96.5 208.1875 99.09375 207.394531 101.527344 C 207.125 102.375 207.234375 103.273438 207.71875 104.03125 C 208.207031 104.789062 209 105.257812 209.867188 105.347656 C 212.40625 105.582031 214.261719 107.835938 214.027344 110.375 C 213.8125 112.753906 211.792969 114.558594 209.449219 114.558594 " fill-opacity="1" fill-rule="nonzero"/><path fill="#ffffff" d="M 165.546875 114.558594 C 163.207031 114.558594 161.1875 112.753906 160.96875 110.375 C 160.738281 107.835938 162.59375 105.582031 165.132812 105.347656 C 166 105.257812 166.792969 104.789062 167.277344 104.03125 C 167.765625 103.273438 167.890625 102.375 167.601562 101.527344 C 166.808594 99.09375 168.109375 96.5 170.523438 95.6875 C 172.957031 94.875 175.550781 96.191406 176.363281 98.609375 C 177.535156 102.140625 177.046875 105.960938 175.011719 109.058594 C 172.972656 112.179688 169.695312 114.179688 166 114.519531 C 165.855469 114.539062 165.710938 114.558594 165.546875 114.558594 " fill-opacity="1" fill-rule="nonzero"/><path fill="#ffffff" d="M 209.449219 114.558594 C 209.199219 114.558594 208.945312 114.539062 208.695312 114.484375 C 206.1875 114.089844 204.476562 111.710938 204.890625 109.203125 C 205.234375 107.078125 203.917969 105.078125 201.84375 104.535156 C 199.375 103.886719 197.917969 101.363281 198.566406 98.894531 C 199.195312 96.425781 201.738281 94.949219 204.1875 95.597656 C 210.894531 97.363281 215.09375 103.835938 213.992188 110.664062 C 213.613281 112.933594 211.667969 114.558594 209.449219 114.558594 " fill-opacity="1" fill-rule="nonzero"/><path fill="#ffffff" d="M 165.546875 114.558594 C 163.332031 114.558594 161.367188 112.933594 161.007812 110.664062 C 159.90625 103.835938 164.105469 97.363281 170.8125 95.597656 C 173.261719 94.949219 175.804688 96.425781 176.453125 98.894531 C 177.082031 101.363281 175.621094 103.886719 173.152344 104.535156 C 171.082031 105.078125 169.765625 107.078125 170.109375 109.203125 C 170.523438 111.710938 168.808594 114.089844 166.304688 114.484375 C 166.054688 114.539062 165.800781 114.558594 165.546875 114.558594 " fill-opacity="1" fill-rule="nonzero"/></svg>