<svg xmlns="http://www.w3.org/2000/svg" xmlns:xlink="http://www.w3.org/1999/xlink" width="500" zoomAndPan="magnify" viewBox="0 0 375 374.999991" height="500" preserveAspectRatio="xMidYMid meet" version="1.2"><defs><clipPath id="877b55c819"><path d="M 187.5 0 C 83.945312 0 0 83.945312 0 187.5 C 0 291.054688 83.945312 375 187.5 375 C 291.054688 375 375 291.054688 375 187.5 C 375 83.945312 291.054688 0 187.5 0 Z M 187.5 0 "/></clipPath><clipPath id="ec14093e23"><path d="M 187.5 0 C 83.945312 0 0 83.945312 0 187.5 C 0 291.054688 83.945312 375 187.5 375 C 291.054688 375 375 291.054688 375 187.5 C 375 83.945312 291.054688 0 187.5 0 Z M 187.5 0 "/></clipPath><clipPath id="591bbc3a30"><rect x="0" width="375" y="0" height="375"/></clipPath><clipPath id="6d9b632c8c"><path d="M 71 77.238281 L 201 77.238281 L 201 113 L 71 113 Z M 71 77.238281 "/></clipPath><clipPath id="061f45325b"><path d="M 125 193 L 302 193 L 302 316.488281 L 125 316.488281 Z M 125 193 "/></clipPath></defs><g id="0f0646807a"><g clip-rule="nonzero" clip-path="url(#877b55c819)"><g transform="matrix(1,0,0,1,0,0)"><g clip-path="url(#591bbc3a30)"><g clip-rule="nonzero" clip-path="url(#ec14093e23)"><rect x="0" width="375" height="375" y="0" style="fill:#233c4b;fill-opacity:1;stroke:none;"/></g></g></g></g><path style=" stroke:none;fill-rule:nonzero;fill:#ffffff;fill-opacity:1;" d="M 129.597656 307.828125 C 120.148438 307.828125 111.066406 304.609375 104.511719 298.335938 C 92.230469 286.582031 91.210938 268.671875 91.21875 251.335938 L 91.292969 111.386719 C 91.292969 109.25 93.023438 107.519531 95.160156 107.519531 C 97.296875 107.519531 99.027344 109.25 99.027344 111.386719 L 98.949219 251.335938 C 98.941406 267 99.777344 283.101562 109.859375 292.75 C 118.925781 301.433594 135.082031 302.476562 147.429688 295.199219 C 158.414062 288.710938 166.734375 276.601562 170.847656 261.097656 C 174.632812 246.851562 174.636719 231.65625 174.636719 216.957031 L 174.660156 108.996094 C 174.660156 106.859375 176.390625 105.128906 178.527344 105.128906 C 180.664062 105.128906 182.394531 106.859375 182.394531 108.996094 L 182.371094 216.957031 C 182.367188 232.148438 182.367188 247.863281 178.324219 263.082031 C 173.679688 280.558594 164.105469 294.328125 151.363281 301.855469 C 144.578125 305.863281 136.976562 307.828125 129.597656 307.828125 Z M 129.597656 307.828125 "/><g clip-rule="nonzero" clip-path="url(#6d9b632c8c)"><path style=" stroke:none;fill-rule:nonzero;fill:#ffffff;fill-opacity:1;" d="M 93.503906 112.96875 C 86.359375 112.96875 76.683594 111.921875 72.996094 103.613281 C 71.398438 100.011719 71.464844 95.863281 73.183594 91.925781 C 75.296875 87.074219 79.78125 82.859375 84.609375 81.203125 C 89.535156 79.5 95.460938 79.773438 100.695312 80.007812 C 102.988281 80.109375 105.230469 80.226562 107.207031 80.140625 L 169.074219 77.628906 C 175.753906 77.355469 184.089844 77.019531 191.222656 81.152344 C 195.539062 83.652344 198.988281 88.265625 200.222656 93.179688 C 201.25 97.257812 200.707031 101.296875 198.703125 104.550781 C 193.84375 112.429688 183.496094 112.480469 178.523438 112.503906 L 93.910156 112.96875 C 93.773438 112.96875 93.640625 112.96875 93.503906 112.96875 Z M 94.777344 87.566406 C 91.945312 87.566406 89.277344 87.773438 87.128906 88.511719 C 84.339844 89.46875 81.523438 92.148438 80.269531 95.019531 C 79.40625 97 79.335938 98.835938 80.066406 100.472656 C 81.523438 103.765625 85.714844 105.308594 93.867188 105.234375 L 178.484375 104.769531 C 183.941406 104.746094 189.824219 104.21875 192.121094 100.492188 C 193.273438 98.617188 193.085938 96.507812 192.722656 95.070312 C 191.992188 92.148438 189.878906 89.308594 187.34375 87.839844 C 182.164062 84.835938 175.382812 85.125 169.386719 85.351562 L 107.515625 87.863281 C 105.316406 87.964844 102.871094 87.847656 100.34375 87.734375 C 98.480469 87.652344 96.59375 87.566406 94.777344 87.566406 Z M 94.777344 87.566406 "/></g><path style=" stroke:none;fill-rule:nonzero;fill:#ffffff;fill-opacity:1;" d="M 123.652344 144.179688 L 96.359375 144.179688 C 94.222656 144.179688 92.492188 142.445312 92.492188 140.3125 C 92.492188 138.175781 94.222656 136.445312 96.359375 136.445312 L 123.652344 136.445312 C 125.785156 136.445312 127.519531 138.175781 127.519531 140.3125 C 127.519531 142.445312 125.785156 144.179688 123.652344 144.179688 Z M 123.652344 144.179688 "/><path style=" stroke:none;fill-rule:nonzero;fill:#ffffff;fill-opacity:1;" d="M 123.652344 175.394531 L 96.359375 175.394531 C 94.222656 175.394531 92.492188 173.664062 92.492188 171.527344 C 92.492188 169.394531 94.222656 167.660156 96.359375 167.660156 L 123.652344 167.660156 C 125.785156 167.660156 127.519531 169.394531 127.519531 171.527344 C 127.519531 173.664062 125.785156 175.394531 123.652344 175.394531 Z M 123.652344 175.394531 "/><path style=" stroke:none;fill-rule:nonzero;fill:#ffffff;fill-opacity:1;" d="M 123.652344 206.605469 L 96.359375 206.605469 C 94.222656 206.605469 92.492188 204.875 92.492188 202.738281 C 92.492188 200.605469 94.222656 198.875 96.359375 198.875 L 123.652344 198.875 C 125.785156 198.875 127.519531 200.605469 127.519531 202.738281 C 127.519531 204.875 125.785156 206.605469 123.652344 206.605469 Z M 123.652344 206.605469 "/><path style=" stroke:none;fill-rule:nonzero;fill:#ffffff;fill-opacity:1;" d="M 123.652344 237.816406 L 96.359375 237.816406 C 94.222656 237.816406 92.492188 236.085938 92.492188 233.953125 C 92.492188 231.816406 94.222656 230.085938 96.359375 230.085938 L 123.652344 230.085938 C 125.785156 230.085938 127.519531 231.816406 127.519531 233.953125 C 127.519531 236.085938 125.785156 237.816406 123.652344 237.816406 Z M 123.652344 237.816406 "/><g clip-rule="nonzero" clip-path="url(#061f45325b)"><path style=" stroke:none;fill-rule:nonzero;fill:#ffffff;fill-opacity:1;" d="M 154.691406 316.222656 C 150.398438 316.222656 146.210938 315.707031 142.191406 314.675781 C 136.644531 313.242188 131.257812 310.578125 126.609375 306.972656 C 124.921875 305.664062 124.617188 303.230469 125.925781 301.542969 C 127.234375 299.851562 129.667969 299.5625 131.351562 300.859375 C 135.175781 303.832031 139.589844 306.015625 144.125 307.183594 C 156.480469 310.382812 170.917969 307.683594 184.789062 299.632812 C 197.535156 292.234375 208.285156 281.484375 218.6875 271.09375 L 295.039062 194.769531 C 296.550781 193.257812 298.996094 193.257812 300.507812 194.769531 C 302.019531 196.28125 302.019531 198.726562 300.507812 200.238281 L 224.152344 276.5625 C 213.402344 287.304688 202.285156 298.417969 188.671875 306.316406 C 177.417969 312.851562 165.710938 316.222656 154.691406 316.222656 Z M 154.691406 316.222656 "/></g><path style=" stroke:none;fill-rule:nonzero;fill:#ffffff;fill-opacity:1;" d="M 178.527344 202.660156 C 177.539062 202.660156 176.546875 202.28125 175.789062 201.527344 C 174.28125 200.015625 174.28125 197.5625 175.792969 196.058594 L 234.398438 137.511719 C 235.910156 136.003906 238.359375 136.003906 239.871094 137.511719 C 241.378906 139.023438 241.378906 141.476562 239.867188 142.980469 L 181.261719 201.527344 C 180.507812 202.28125 179.515625 202.660156 178.527344 202.660156 Z M 178.527344 202.660156 "/><path style=" stroke:none;fill-rule:nonzero;fill:#ffffff;fill-opacity:1;" d="M 311.910156 209.011719 C 304.414062 209.011719 298.386719 203.050781 295.292969 199.992188 L 235.132812 140.476562 C 230.03125 135.433594 223.628906 127.726562 226.960938 119.078125 C 228.371094 115.410156 231.347656 112.523438 235.34375 110.953125 C 240.273438 109.015625 246.429688 109.195312 251.015625 111.441406 C 255.699219 113.722656 259.699219 118.101562 263.230469 121.964844 C 264.78125 123.667969 266.277344 125.3125 267.75 126.667969 L 313.269531 168.636719 C 318.191406 173.179688 324.324219 178.824219 326.441406 186.800781 C 327.722656 191.617188 326.902344 197.3125 324.300781 201.664062 C 322.144531 205.265625 318.90625 207.746094 315.1875 208.625 C 314.070312 208.890625 312.972656 209.011719 311.910156 209.011719 Z M 242.648438 117.351562 C 241.09375 117.351562 239.53125 117.613281 238.175781 118.148438 C 236.164062 118.9375 234.820312 120.1875 234.179688 121.859375 C 232.882812 125.21875 234.914062 129.386719 240.570312 134.980469 L 300.730469 194.492188 C 304.800781 198.515625 309.164062 202.09375 313.398438 201.105469 C 315.542969 200.59375 316.902344 198.96875 317.664062 197.691406 C 319.207031 195.113281 319.71875 191.613281 318.96875 188.78125 C 317.539062 183.414062 313.351562 179.230469 308.027344 174.328125 L 262.507812 132.355469 C 260.886719 130.863281 259.226562 129.054688 257.515625 127.179688 C 254.304688 123.667969 250.984375 120.027344 247.628906 118.390625 C 246.207031 117.699219 244.4375 117.351562 242.648438 117.351562 Z M 242.648438 117.351562 "/><path style=" stroke:none;fill-rule:nonzero;fill:#ffffff;fill-opacity:1;" d="M 236.828125 184.714844 C 235.835938 184.714844 234.847656 184.335938 234.09375 183.582031 L 214.792969 164.285156 C 213.285156 162.773438 213.285156 160.324219 214.792969 158.816406 C 216.304688 157.304688 218.75 157.304688 220.261719 158.816406 L 239.558594 178.113281 C 241.070312 179.625 241.070312 182.070312 239.558594 183.582031 C 238.804688 184.335938 237.816406 184.714844 236.828125 184.714844 Z M 236.828125 184.714844 "/><path style=" stroke:none;fill-rule:nonzero;fill:#ffffff;fill-opacity:1;" d="M 214.757812 206.789062 C 213.765625 206.789062 212.777344 206.410156 212.023438 205.65625 L 192.722656 186.355469 C 191.210938 184.847656 191.210938 182.398438 192.722656 180.886719 C 194.234375 179.378906 196.679688 179.378906 198.191406 180.886719 L 217.488281 200.1875 C 219 201.699219 219 204.144531 217.488281 205.65625 C 216.734375 206.410156 215.746094 206.789062 214.757812 206.789062 Z M 214.757812 206.789062 "/></g></svg>