<svg xmlns="http://www.w3.org/2000/svg" xmlns:xlink="http://www.w3.org/1999/xlink" width="500" zoomAndPan="magnify" viewBox="0 0 375 374.999991" height="500" preserveAspectRatio="xMidYMid meet" version="1.0"><defs><clipPath id="b8ef6999cd"><path d="M 187.5 0 C 83.945312 0 0 83.945312 0 187.5 C 0 291.054688 83.945312 375 187.5 375 C 291.054688 375 375 291.054688 375 187.5 C 375 83.945312 291.054688 0 187.5 0 Z M 187.5 0 " clip-rule="nonzero"/></clipPath></defs><rect x="-37.5" width="450" fill="#ffffff" y="-37.499999" height="449.999989" fill-opacity="1"/><rect x="-37.5" width="450" fill="#ffffff" y="-37.499999" height="449.999989" fill-opacity="1"/><g clip-path="url(#b8ef6999cd)"><rect x="-37.5" width="450" fill="#a2c36e" y="-37.499999" height="449.999989" fill-opacity="1"/></g><path fill="#a2c36e" d="M 202.722656 276.234375 C 190.996094 271.964844 178.308594 272.578125 166.683594 276.546875 C 45.78125 317.835938 -4.386719 151.125 103.234375 106.359375 C 155.742188 84.519531 215.089844 83.140625 268.410156 101.847656 C 386.015625 143.113281 321.257812 319.390625 202.726562 276.234375 Z M 202.722656 276.234375 " fill-opacity="1" fill-rule="nonzero"/><path fill="#ffffff" d="M 129.917969 285.265625 C 88.929688 285.265625 60.3125 259.289062 48.40625 227.855469 C 39.957031 205.546875 39.816406 180.296875 48.019531 158.578125 C 57.296875 134.023438 76.097656 115.261719 102.390625 104.328125 C 128.695312 93.386719 156.640625 87.457031 185.460938 86.699219 C 214.117188 85.949219 242.269531 90.347656 269.136719 99.773438 C 303.238281 111.738281 325.289062 136.085938 331.230469 168.332031 C 334.359375 185.324219 332.730469 203.386719 326.511719 220.566406 C 320.296875 237.742188 309.957031 252.78125 296.601562 264.0625 C 270.628906 286.003906 237.019531 291.0625 201.972656 278.300781 C 191.324219 274.425781 179.371094 274.539062 167.398438 278.628906 C 153.988281 283.207031 141.464844 285.265625 129.917969 285.265625 Z M 191.5625 90.917969 C 161.753906 90.917969 132.042969 96.757812 104.082031 108.386719 C 49.507812 131.089844 36.835938 184.886719 52.523438 226.300781 C 67.03125 264.605469 107.738281 294.355469 165.972656 274.464844 C 178.910156 270.050781 191.878906 269.949219 203.476562 274.167969 C 236.980469 286.367188 269.042969 281.585938 293.761719 260.703125 C 319.644531 238.835938 332.964844 202.035156 326.902344 169.128906 C 321.257812 138.5 300.226562 115.34375 267.679688 103.925781 C 242.949219 95.25 217.21875 90.925781 191.566406 90.925781 Z M 191.5625 90.917969 " fill-opacity="1" fill-rule="nonzero"/><path fill="#a2c36e" d="M 199.8125 256.289062 C 190.308594 252.980469 180.019531 253.257812 170.597656 256.335938 C 72.585938 288.328125 31.917969 159.152344 119.160156 124.460938 C 161.726562 107.539062 209.835938 106.472656 253.0625 120.96875 C 348.40625 152.941406 295.90625 289.726562 199.8125 256.289062 Z M 199.8125 256.289062 " fill-opacity="1" fill-rule="nonzero"/><path fill="#ffffff" d="M 229.152344 263.71875 C 219.394531 263.71875 209.335938 261.933594 199.089844 258.363281 C 190.46875 255.363281 180.589844 255.386719 171.28125 258.425781 C 148.160156 265.972656 126.367188 265.207031 108.246094 256.214844 C 92.207031 248.253906 79.882812 234.226562 73.539062 216.714844 C 67.199219 199.207031 67.527344 180.359375 74.457031 163.644531 C 82.179688 145.023438 97.355469 130.765625 118.347656 122.417969 C 139.710938 113.925781 162.40625 109.324219 185.808594 108.734375 C 209.074219 108.152344 231.941406 111.566406 253.761719 118.882812 C 281.394531 128.148438 299.347656 147.019531 304.316406 172.015625 C 309.542969 198.320312 299.300781 227.152344 278.222656 245.472656 C 268.324219 254.078125 256.363281 259.917969 243.636719 262.351562 C 238.894531 263.261719 234.0625 263.714844 229.148438 263.714844 Z M 200.539062 254.214844 C 228.597656 263.976562 255.164062 259.695312 275.339844 242.160156 C 295.246094 224.855469 304.925781 197.660156 300 172.878906 C 295.355469 149.492188 278.433594 131.800781 252.363281 123.058594 C 209.089844 108.546875 162.078125 109.773438 119.976562 126.511719 C 77.269531 143.492188 66.371094 183.992188 77.679688 215.222656 C 88.820312 246 121.660156 270 169.914062 254.25 C 180.136719 250.914062 191.011719 250.902344 200.539062 254.214844 Z M 200.539062 254.214844 " fill-opacity="1" fill-rule="nonzero"/><path fill="#a2c36e" d="M 158.082031 188.648438 C 158.082031 189.691406 158.03125 190.730469 157.925781 191.769531 C 157.824219 192.804688 157.671875 193.835938 157.46875 194.859375 C 157.265625 195.882812 157.011719 196.890625 156.710938 197.890625 C 156.40625 198.886719 156.054688 199.867188 155.65625 200.832031 C 155.257812 201.792969 154.8125 202.734375 154.320312 203.65625 C 153.828125 204.574219 153.292969 205.46875 152.710938 206.335938 C 152.132812 207.203125 151.511719 208.039062 150.851562 208.84375 C 150.1875 209.648438 149.488281 210.421875 148.75 211.160156 C 148.011719 211.894531 147.242188 212.59375 146.433594 213.257812 C 145.628906 213.917969 144.792969 214.539062 143.925781 215.117188 C 143.058594 215.695312 142.164062 216.230469 141.242188 216.722656 C 140.324219 217.214844 139.382812 217.660156 138.417969 218.058594 C 137.453125 218.457031 136.472656 218.808594 135.472656 219.109375 C 134.476562 219.414062 133.464844 219.667969 132.441406 219.871094 C 131.417969 220.074219 130.386719 220.226562 129.347656 220.328125 C 128.3125 220.429688 127.269531 220.480469 126.226562 220.480469 C 125.183594 220.480469 124.144531 220.429688 123.105469 220.328125 C 122.066406 220.226562 121.035156 220.074219 120.011719 219.871094 C 118.988281 219.667969 117.980469 219.414062 116.980469 219.109375 C 115.980469 218.808594 115 218.457031 114.039062 218.058594 C 113.074219 217.660156 112.132812 217.214844 111.210938 216.722656 C 110.292969 216.230469 109.398438 215.695312 108.53125 215.117188 C 107.664062 214.539062 106.824219 213.917969 106.019531 213.257812 C 105.210938 212.59375 104.441406 211.894531 103.703125 211.160156 C 102.964844 210.421875 102.265625 209.648438 101.605469 208.84375 C 100.941406 208.039062 100.320312 207.203125 99.742188 206.335938 C 99.160156 205.46875 98.625 204.574219 98.132812 203.65625 C 97.644531 202.734375 97.199219 201.792969 96.796875 200.832031 C 96.398438 199.867188 96.046875 198.886719 95.746094 197.890625 C 95.441406 196.890625 95.1875 195.882812 94.984375 194.859375 C 94.78125 193.835938 94.628906 192.804688 94.527344 191.769531 C 94.425781 190.730469 94.375 189.691406 94.375 188.648438 C 94.375 187.605469 94.425781 186.566406 94.527344 185.527344 C 94.628906 184.492188 94.78125 183.460938 94.984375 182.4375 C 95.1875 181.414062 95.441406 180.40625 95.746094 179.40625 C 96.046875 178.410156 96.398438 177.429688 96.796875 176.464844 C 97.199219 175.503906 97.644531 174.5625 98.132812 173.640625 C 98.625 172.722656 99.160156 171.828125 99.742188 170.964844 C 100.320312 170.097656 100.941406 169.261719 101.605469 168.453125 C 102.265625 167.648438 102.964844 166.875 103.703125 166.140625 C 104.441406 165.402344 105.210938 164.703125 106.019531 164.042969 C 106.824219 163.378906 107.664062 162.757812 108.53125 162.179688 C 109.398438 161.601562 110.292969 161.066406 111.210938 160.574219 C 112.132812 160.082031 113.074219 159.636719 114.039062 159.238281 C 115 158.839844 115.980469 158.488281 116.980469 158.1875 C 117.980469 157.882812 118.988281 157.628906 120.011719 157.425781 C 121.035156 157.222656 122.066406 157.070312 123.105469 156.96875 C 124.144531 156.867188 125.183594 156.816406 126.226562 156.816406 C 127.269531 156.816406 128.3125 156.867188 129.347656 156.96875 C 130.386719 157.070312 131.417969 157.222656 132.441406 157.425781 C 133.464844 157.628906 134.476562 157.882812 135.472656 158.1875 C 136.472656 158.488281 137.453125 158.839844 138.417969 159.238281 C 139.382812 159.636719 140.324219 160.082031 141.242188 160.574219 C 142.164062 161.066406 143.058594 161.601562 143.925781 162.179688 C 144.792969 162.757812 145.628906 163.378906 146.433594 164.042969 C 147.242188 164.703125 148.011719 165.402344 148.75 166.140625 C 149.488281 166.875 150.1875 167.648438 150.851562 168.453125 C 151.511719 169.261719 152.132812 170.097656 152.710938 170.964844 C 153.292969 171.828125 153.828125 172.722656 154.320312 173.640625 C 154.8125 174.5625 155.257812 175.503906 155.65625 176.464844 C 156.054688 177.429688 156.40625 178.410156 156.710938 179.40625 C 157.011719 180.40625 157.265625 181.414062 157.46875 182.4375 C 157.671875 183.460938 157.824219 184.492188 157.925781 185.527344 C 158.03125 186.566406 158.082031 187.605469 158.082031 188.648438 Z M 158.082031 188.648438 " fill-opacity="1" fill-rule="nonzero"/><path fill="#ffffff" d="M 126.226562 222.679688 C 107.449219 222.679688 92.171875 207.414062 92.171875 188.648438 C 92.171875 169.882812 107.449219 154.617188 126.226562 154.617188 C 145.003906 154.617188 160.28125 169.882812 160.28125 188.648438 C 160.28125 207.414062 145.003906 222.679688 126.226562 222.679688 Z M 126.226562 159.011719 C 109.875 159.011719 96.570312 172.308594 96.570312 188.648438 C 96.570312 204.992188 109.875 218.285156 126.226562 218.285156 C 142.578125 218.285156 155.882812 204.992188 155.882812 188.648438 C 155.882812 172.308594 142.578125 159.011719 126.226562 159.011719 Z M 126.226562 159.011719 " fill-opacity="1" fill-rule="nonzero"/><path fill="#a2c36e" d="M 181.980469 206.066406 C 181.980469 207.109375 181.929688 208.148438 181.828125 209.183594 C 181.722656 210.222656 181.570312 211.253906 181.367188 212.277344 C 181.164062 213.296875 180.910156 214.308594 180.609375 215.304688 C 180.304688 216.304688 179.953125 217.285156 179.554688 218.246094 C 179.15625 219.210938 178.710938 220.152344 178.21875 221.070312 C 177.726562 221.992188 177.191406 222.882812 176.613281 223.75 C 176.03125 224.617188 175.410156 225.453125 174.75 226.261719 C 174.085938 227.066406 173.386719 227.835938 172.648438 228.574219 C 171.914062 229.3125 171.140625 230.011719 170.332031 230.671875 C 169.527344 231.335938 168.691406 231.953125 167.824219 232.535156 C 166.957031 233.113281 166.0625 233.648438 165.140625 234.140625 C 164.222656 234.632812 163.28125 235.078125 162.316406 235.476562 C 161.351562 235.875 160.371094 236.226562 159.371094 236.527344 C 158.375 236.832031 157.363281 237.082031 156.339844 237.285156 C 155.316406 237.492188 154.285156 237.644531 153.25 237.746094 C 152.210938 237.847656 151.167969 237.898438 150.125 237.898438 C 149.082031 237.898438 148.042969 237.847656 147.003906 237.746094 C 145.964844 237.644531 144.933594 237.492188 143.910156 237.285156 C 142.886719 237.082031 141.878906 236.832031 140.878906 236.527344 C 139.882812 236.226562 138.898438 235.875 137.9375 235.476562 C 136.972656 235.078125 136.03125 234.632812 135.109375 234.140625 C 134.191406 233.648438 133.296875 233.113281 132.429688 232.535156 C 131.5625 231.953125 130.722656 231.335938 129.917969 230.671875 C 129.113281 230.011719 128.339844 229.3125 127.601562 228.574219 C 126.863281 227.835938 126.164062 227.066406 125.503906 226.261719 C 124.839844 225.453125 124.21875 224.617188 123.640625 223.75 C 123.0625 222.882812 122.523438 221.992188 122.035156 221.070312 C 121.542969 220.152344 121.097656 219.210938 120.695312 218.246094 C 120.296875 217.285156 119.945312 216.304688 119.644531 215.304688 C 119.339844 214.308594 119.085938 213.296875 118.882812 212.277344 C 118.679688 211.253906 118.527344 210.222656 118.425781 209.183594 C 118.324219 208.148438 118.273438 207.109375 118.273438 206.066406 C 118.273438 205.023438 118.324219 203.984375 118.425781 202.945312 C 118.527344 201.90625 118.679688 200.878906 118.882812 199.855469 C 119.085938 198.832031 119.339844 197.820312 119.644531 196.824219 C 119.945312 195.828125 120.296875 194.847656 120.695312 193.882812 C 121.097656 192.921875 121.542969 191.980469 122.035156 191.058594 C 122.523438 190.140625 123.0625 189.246094 123.640625 188.378906 C 124.21875 187.511719 124.839844 186.675781 125.503906 185.871094 C 126.164062 185.066406 126.863281 184.292969 127.601562 183.554688 C 128.339844 182.820312 129.113281 182.121094 129.917969 181.457031 C 130.722656 180.796875 131.5625 180.175781 132.429688 179.597656 C 133.296875 179.019531 134.191406 178.480469 135.109375 177.992188 C 136.03125 177.5 136.972656 177.054688 137.9375 176.65625 C 138.898438 176.257812 139.882812 175.90625 140.878906 175.601562 C 141.878906 175.300781 142.886719 175.046875 143.910156 174.84375 C 144.933594 174.640625 145.964844 174.488281 147.003906 174.386719 C 148.042969 174.28125 149.082031 174.230469 150.125 174.230469 C 151.167969 174.230469 152.210938 174.28125 153.25 174.386719 C 154.285156 174.488281 155.316406 174.640625 156.339844 174.84375 C 157.363281 175.046875 158.375 175.300781 159.371094 175.601562 C 160.371094 175.90625 161.351562 176.257812 162.316406 176.65625 C 163.28125 177.054688 164.222656 177.5 165.140625 177.992188 C 166.0625 178.480469 166.957031 179.019531 167.824219 179.597656 C 168.691406 180.175781 169.527344 180.796875 170.332031 181.457031 C 171.140625 182.121094 171.914062 182.820312 172.648438 183.554688 C 173.386719 184.292969 174.085938 185.066406 174.75 185.871094 C 175.410156 186.675781 176.03125 187.511719 176.613281 188.378906 C 177.191406 189.246094 177.726562 190.140625 178.21875 191.058594 C 178.710938 191.980469 179.15625 192.921875 179.554688 193.882812 C 179.953125 194.847656 180.304688 195.828125 180.609375 196.824219 C 180.910156 197.820312 181.164062 198.832031 181.367188 199.855469 C 181.570312 200.878906 181.722656 201.90625 181.828125 202.945312 C 181.929688 203.984375 181.980469 205.023438 181.980469 206.066406 Z M 181.980469 206.066406 " fill-opacity="1" fill-rule="nonzero"/><path fill="#ffffff" d="M 150.125 240.097656 C 131.347656 240.097656 116.070312 224.832031 116.070312 206.066406 C 116.070312 187.300781 131.347656 172.03125 150.125 172.03125 C 168.902344 172.03125 184.179688 187.300781 184.179688 206.066406 C 184.179688 224.832031 168.902344 240.097656 150.125 240.097656 Z M 150.125 176.429688 C 133.773438 176.429688 120.472656 189.722656 120.472656 206.066406 C 120.472656 222.40625 133.773438 235.703125 150.125 235.703125 C 166.476562 235.703125 179.78125 222.40625 179.78125 206.066406 C 179.78125 189.722656 166.476562 176.429688 150.125 176.429688 Z M 150.125 176.429688 " fill-opacity="1" fill-rule="nonzero"/><path fill="#a2c36e" d="M 181.980469 168.664062 C 181.980469 169.707031 181.929688 170.746094 181.828125 171.785156 C 181.722656 172.820312 181.570312 173.851562 181.367188 174.875 C 181.164062 175.894531 180.910156 176.90625 180.609375 177.902344 C 180.304688 178.902344 179.953125 179.882812 179.554688 180.84375 C 179.15625 181.808594 178.710938 182.75 178.21875 183.667969 C 177.726562 184.589844 177.191406 185.480469 176.613281 186.347656 C 176.03125 187.214844 175.410156 188.050781 174.75 188.859375 C 174.085938 189.664062 173.386719 190.433594 172.648438 191.171875 C 171.914062 191.910156 171.140625 192.609375 170.332031 193.269531 C 169.527344 193.933594 168.691406 194.550781 167.824219 195.132812 C 166.957031 195.710938 166.0625 196.246094 165.140625 196.738281 C 164.222656 197.230469 163.28125 197.675781 162.316406 198.074219 C 161.351562 198.472656 160.371094 198.824219 159.371094 199.125 C 158.375 199.429688 157.363281 199.679688 156.339844 199.882812 C 155.316406 200.089844 154.285156 200.242188 153.25 200.34375 C 152.210938 200.445312 151.167969 200.496094 150.125 200.496094 C 149.082031 200.496094 148.042969 200.445312 147.003906 200.34375 C 145.964844 200.242188 144.933594 200.089844 143.910156 199.882812 C 142.886719 199.679688 141.878906 199.429688 140.878906 199.125 C 139.882812 198.824219 138.898438 198.472656 137.9375 198.074219 C 136.972656 197.675781 136.03125 197.230469 135.109375 196.738281 C 134.191406 196.246094 133.296875 195.710938 132.429688 195.132812 C 131.5625 194.550781 130.722656 193.933594 129.917969 193.269531 C 129.113281 192.609375 128.339844 191.910156 127.601562 191.171875 C 126.863281 190.433594 126.164062 189.664062 125.503906 188.859375 C 124.839844 188.050781 124.21875 187.214844 123.640625 186.347656 C 123.0625 185.480469 122.523438 184.589844 122.035156 183.667969 C 121.542969 182.75 121.097656 181.808594 120.695312 180.84375 C 120.296875 179.882812 119.945312 178.902344 119.644531 177.902344 C 119.339844 176.90625 119.085938 175.894531 118.882812 174.875 C 118.679688 173.851562 118.527344 172.820312 118.425781 171.785156 C 118.324219 170.746094 118.273438 169.707031 118.273438 168.664062 C 118.273438 167.621094 118.324219 166.582031 118.425781 165.542969 C 118.527344 164.503906 118.679688 163.476562 118.882812 162.453125 C 119.085938 161.429688 119.339844 160.421875 119.644531 159.421875 C 119.945312 158.425781 120.296875 157.445312 120.695312 156.480469 C 121.097656 155.519531 121.542969 154.578125 122.035156 153.65625 C 122.523438 152.738281 123.0625 151.84375 123.640625 150.976562 C 124.21875 150.109375 124.839844 149.273438 125.503906 148.46875 C 126.164062 147.664062 126.863281 146.890625 127.601562 146.152344 C 128.339844 145.417969 129.113281 144.71875 129.917969 144.054688 C 130.722656 143.394531 131.5625 142.773438 132.429688 142.195312 C 133.296875 141.617188 134.191406 141.078125 135.109375 140.589844 C 136.03125 140.097656 136.972656 139.652344 137.9375 139.253906 C 138.898438 138.855469 139.882812 138.503906 140.878906 138.199219 C 141.878906 137.898438 142.886719 137.644531 143.910156 137.441406 C 144.933594 137.238281 145.964844 137.085938 147.003906 136.984375 C 148.042969 136.878906 149.082031 136.828125 150.125 136.828125 C 151.167969 136.828125 152.210938 136.878906 153.25 136.984375 C 154.285156 137.085938 155.316406 137.238281 156.339844 137.441406 C 157.363281 137.644531 158.375 137.898438 159.371094 138.199219 C 160.371094 138.503906 161.351562 138.855469 162.316406 139.253906 C 163.28125 139.652344 164.222656 140.097656 165.140625 140.589844 C 166.0625 141.078125 166.957031 141.617188 167.824219 142.195312 C 168.691406 142.773438 169.527344 143.394531 170.332031 144.054688 C 171.140625 144.71875 171.914062 145.417969 172.648438 146.152344 C 173.386719 146.890625 174.085938 147.664062 174.75 148.46875 C 175.410156 149.273438 176.03125 150.109375 176.613281 150.976562 C 177.191406 151.84375 177.726562 152.738281 178.21875 153.65625 C 178.710938 154.578125 179.15625 155.519531 179.554688 156.480469 C 179.953125 157.445312 180.304688 158.425781 180.609375 159.421875 C 180.910156 160.421875 181.164062 161.429688 181.367188 162.453125 C 181.570312 163.476562 181.722656 164.503906 181.828125 165.542969 C 181.929688 166.582031 181.980469 167.621094 181.980469 168.664062 Z M 181.980469 168.664062 " fill-opacity="1" fill-rule="nonzero"/><path fill="#ffffff" d="M 150.125 202.699219 C 131.347656 202.699219 116.070312 187.429688 116.070312 168.664062 C 116.070312 149.898438 131.347656 134.632812 150.125 134.632812 C 168.902344 134.632812 184.179688 149.898438 184.179688 168.664062 C 184.179688 187.429688 168.902344 202.699219 150.125 202.699219 Z M 150.125 139.027344 C 133.773438 139.027344 120.472656 152.324219 120.472656 168.664062 C 120.472656 185.007812 133.773438 198.300781 150.125 198.300781 C 166.476562 198.300781 179.78125 185.007812 179.78125 168.664062 C 179.78125 152.324219 166.476562 139.027344 150.125 139.027344 Z M 150.125 139.027344 " fill-opacity="1" fill-rule="nonzero"/><path fill="#a2c36e" d="M 280.320312 188.648438 C 280.320312 189.691406 280.269531 190.730469 280.167969 191.769531 C 280.066406 192.804688 279.910156 193.835938 279.707031 194.859375 C 279.503906 195.882812 279.25 196.890625 278.949219 197.890625 C 278.644531 198.886719 278.296875 199.867188 277.894531 200.832031 C 277.496094 201.792969 277.050781 202.734375 276.558594 203.65625 C 276.066406 204.574219 275.53125 205.46875 274.953125 206.335938 C 274.371094 207.203125 273.75 208.039062 273.089844 208.84375 C 272.429688 209.648438 271.726562 210.421875 270.992188 211.160156 C 270.253906 211.894531 269.480469 212.59375 268.675781 213.257812 C 267.867188 213.917969 267.03125 214.539062 266.164062 215.117188 C 265.296875 215.695312 264.402344 216.230469 263.484375 216.722656 C 262.5625 217.214844 261.621094 217.660156 260.65625 218.058594 C 259.691406 218.457031 258.710938 218.808594 257.714844 219.109375 C 256.714844 219.414062 255.703125 219.667969 254.679688 219.871094 C 253.65625 220.074219 252.628906 220.226562 251.589844 220.328125 C 250.550781 220.429688 249.511719 220.480469 248.464844 220.480469 C 247.421875 220.480469 246.382812 220.429688 245.34375 220.328125 C 244.304688 220.226562 243.277344 220.074219 242.253906 219.871094 C 241.230469 219.667969 240.21875 219.414062 239.21875 219.109375 C 238.222656 218.808594 237.242188 218.457031 236.277344 218.058594 C 235.3125 217.660156 234.371094 217.214844 233.449219 216.722656 C 232.53125 216.230469 231.636719 215.695312 230.769531 215.117188 C 229.902344 214.539062 229.066406 213.917969 228.257812 213.257812 C 227.453125 212.59375 226.679688 211.894531 225.941406 211.160156 C 225.203125 210.421875 224.503906 209.648438 223.84375 208.84375 C 223.179688 208.039062 222.5625 207.203125 221.980469 206.335938 C 221.402344 205.46875 220.867188 204.574219 220.375 203.65625 C 219.882812 202.734375 219.4375 201.792969 219.039062 200.832031 C 218.636719 199.867188 218.289062 198.886719 217.984375 197.890625 C 217.683594 196.890625 217.429688 195.882812 217.226562 194.859375 C 217.019531 193.835938 216.867188 192.804688 216.765625 191.769531 C 216.664062 190.730469 216.613281 189.691406 216.613281 188.648438 C 216.613281 187.605469 216.664062 186.566406 216.765625 185.527344 C 216.867188 184.492188 217.019531 183.460938 217.226562 182.4375 C 217.429688 181.414062 217.683594 180.40625 217.984375 179.40625 C 218.289062 178.410156 218.636719 177.429688 219.039062 176.464844 C 219.4375 175.503906 219.882812 174.5625 220.375 173.640625 C 220.867188 172.722656 221.402344 171.828125 221.980469 170.964844 C 222.5625 170.097656 223.179688 169.261719 223.84375 168.453125 C 224.503906 167.648438 225.203125 166.875 225.941406 166.140625 C 226.679688 165.402344 227.453125 164.703125 228.257812 164.042969 C 229.066406 163.378906 229.902344 162.757812 230.769531 162.179688 C 231.636719 161.601562 232.53125 161.066406 233.449219 160.574219 C 234.371094 160.082031 235.3125 159.636719 236.277344 159.238281 C 237.242188 158.839844 238.222656 158.488281 239.21875 158.1875 C 240.21875 157.882812 241.230469 157.628906 242.253906 157.425781 C 243.277344 157.222656 244.304688 157.070312 245.34375 156.96875 C 246.382812 156.867188 247.421875 156.816406 248.464844 156.816406 C 249.511719 156.816406 250.550781 156.867188 251.589844 156.96875 C 252.628906 157.070312 253.65625 157.222656 254.679688 157.425781 C 255.703125 157.628906 256.714844 157.882812 257.714844 158.1875 C 258.710938 158.488281 259.691406 158.839844 260.65625 159.238281 C 261.621094 159.636719 262.5625 160.082031 263.484375 160.574219 C 264.402344 161.066406 265.296875 161.601562 266.164062 162.179688 C 267.03125 162.757812 267.867188 163.378906 268.675781 164.042969 C 269.480469 164.703125 270.253906 165.402344 270.992188 166.140625 C 271.726562 166.875 272.429688 167.648438 273.089844 168.453125 C 273.75 169.261719 274.371094 170.097656 274.953125 170.964844 C 275.53125 171.828125 276.066406 172.722656 276.558594 173.640625 C 277.050781 174.5625 277.496094 175.503906 277.894531 176.464844 C 278.296875 177.429688 278.644531 178.410156 278.949219 179.40625 C 279.25 180.40625 279.503906 181.414062 279.707031 182.4375 C 279.910156 183.460938 280.066406 184.492188 280.167969 185.527344 C 280.269531 186.566406 280.320312 187.605469 280.320312 188.648438 Z M 280.320312 188.648438 " fill-opacity="1" fill-rule="nonzero"/><path fill="#ffffff" d="M 248.464844 222.679688 C 229.6875 222.679688 214.410156 207.414062 214.410156 188.648438 C 214.410156 169.882812 229.6875 154.617188 248.464844 154.617188 C 267.246094 154.617188 282.519531 169.882812 282.519531 188.648438 C 282.519531 207.414062 267.246094 222.679688 248.464844 222.679688 Z M 248.464844 159.011719 C 232.113281 159.011719 218.8125 172.308594 218.8125 188.648438 C 218.8125 204.992188 232.113281 218.285156 248.464844 218.285156 C 264.820312 218.285156 278.121094 204.992188 278.121094 188.648438 C 278.121094 172.308594 264.820312 159.011719 248.464844 159.011719 Z M 248.464844 159.011719 " fill-opacity="1" fill-rule="nonzero"/><path fill="#a2c36e" d="M 256.421875 206.066406 C 256.421875 207.109375 256.371094 208.148438 256.269531 209.183594 C 256.164062 210.222656 256.011719 211.253906 255.808594 212.277344 C 255.605469 213.296875 255.351562 214.308594 255.050781 215.304688 C 254.746094 216.304688 254.394531 217.285156 253.996094 218.246094 C 253.597656 219.210938 253.152344 220.152344 252.660156 221.070312 C 252.167969 221.992188 251.632812 222.882812 251.054688 223.75 C 250.472656 224.617188 249.851562 225.453125 249.191406 226.261719 C 248.53125 227.066406 247.828125 227.835938 247.09375 228.574219 C 246.355469 229.3125 245.582031 230.011719 244.777344 230.671875 C 243.96875 231.335938 243.132812 231.953125 242.265625 232.535156 C 241.398438 233.113281 240.503906 233.648438 239.582031 234.140625 C 238.664062 234.632812 237.722656 235.078125 236.757812 235.476562 C 235.792969 235.875 234.8125 236.226562 233.816406 236.527344 C 232.816406 236.832031 231.804688 237.082031 230.78125 237.285156 C 229.757812 237.492188 228.726562 237.644531 227.691406 237.746094 C 226.652344 237.847656 225.609375 237.898438 224.566406 237.898438 C 223.523438 237.898438 222.484375 237.847656 221.445312 237.746094 C 220.40625 237.644531 219.375 237.492188 218.351562 237.285156 C 217.332031 237.082031 216.320312 236.832031 215.320312 236.527344 C 214.324219 236.226562 213.339844 235.875 212.378906 235.476562 C 211.414062 235.078125 210.472656 234.632812 209.550781 234.140625 C 208.632812 233.648438 207.738281 233.113281 206.871094 232.535156 C 206.003906 231.953125 205.167969 231.335938 204.359375 230.671875 C 203.554688 230.011719 202.78125 229.3125 202.042969 228.574219 C 201.304688 227.835938 200.605469 227.066406 199.945312 226.261719 C 199.28125 225.453125 198.660156 224.617188 198.082031 223.75 C 197.503906 222.882812 196.96875 221.992188 196.476562 221.070312 C 195.984375 220.152344 195.539062 219.210938 195.140625 218.246094 C 194.738281 217.285156 194.386719 216.304688 194.085938 215.304688 C 193.78125 214.308594 193.53125 213.296875 193.324219 212.277344 C 193.121094 211.253906 192.96875 210.222656 192.867188 209.183594 C 192.765625 208.148438 192.714844 207.109375 192.714844 206.066406 C 192.714844 205.023438 192.765625 203.984375 192.867188 202.945312 C 192.96875 201.90625 193.121094 200.878906 193.324219 199.855469 C 193.53125 198.832031 193.78125 197.820312 194.085938 196.824219 C 194.386719 195.828125 194.738281 194.847656 195.140625 193.882812 C 195.539062 192.921875 195.984375 191.980469 196.476562 191.058594 C 196.96875 190.140625 197.503906 189.246094 198.082031 188.378906 C 198.660156 187.511719 199.28125 186.675781 199.945312 185.871094 C 200.605469 185.066406 201.304688 184.292969 202.042969 183.554688 C 202.78125 182.820312 203.554688 182.121094 204.359375 181.457031 C 205.167969 180.796875 206.003906 180.175781 206.871094 179.597656 C 207.738281 179.019531 208.632812 178.480469 209.550781 177.992188 C 210.472656 177.5 211.414062 177.054688 212.378906 176.65625 C 213.339844 176.257812 214.324219 175.90625 215.320312 175.601562 C 216.320312 175.300781 217.332031 175.046875 218.351562 174.84375 C 219.375 174.640625 220.40625 174.488281 221.445312 174.386719 C 222.484375 174.28125 223.523438 174.230469 224.566406 174.230469 C 225.609375 174.230469 226.652344 174.28125 227.691406 174.386719 C 228.726562 174.488281 229.757812 174.640625 230.78125 174.84375 C 231.804688 175.046875 232.816406 175.300781 233.816406 175.601562 C 234.8125 175.90625 235.792969 176.257812 236.757812 176.65625 C 237.722656 177.054688 238.664062 177.5 239.582031 177.992188 C 240.503906 178.480469 241.398438 179.019531 242.265625 179.597656 C 243.132812 180.175781 243.96875 180.796875 244.777344 181.457031 C 245.582031 182.121094 246.355469 182.820312 247.09375 183.554688 C 247.828125 184.292969 248.53125 185.066406 249.191406 185.871094 C 249.851562 186.675781 250.472656 187.511719 251.054688 188.378906 C 251.632812 189.246094 252.167969 190.140625 252.660156 191.058594 C 253.152344 191.980469 253.597656 192.921875 253.996094 193.882812 C 254.394531 194.847656 254.746094 195.828125 255.050781 196.824219 C 255.351562 197.820312 255.605469 198.832031 255.808594 199.855469 C 256.011719 200.878906 256.164062 201.90625 256.269531 202.945312 C 256.371094 203.984375 256.421875 205.023438 256.421875 206.066406 Z M 256.421875 206.066406 " fill-opacity="1" fill-rule="nonzero"/><path fill="#ffffff" d="M 224.566406 240.097656 C 205.789062 240.097656 190.511719 224.832031 190.511719 206.066406 C 190.511719 187.300781 205.789062 172.03125 224.566406 172.03125 C 243.34375 172.03125 258.621094 187.300781 258.621094 206.066406 C 258.621094 224.832031 243.34375 240.097656 224.566406 240.097656 Z M 224.566406 176.429688 C 208.214844 176.429688 194.914062 189.722656 194.914062 206.066406 C 194.914062 222.40625 208.214844 235.703125 224.566406 235.703125 C 240.921875 235.703125 254.222656 222.40625 254.222656 206.066406 C 254.222656 189.722656 240.921875 176.429688 224.566406 176.429688 Z M 224.566406 176.429688 " fill-opacity="1" fill-rule="nonzero"/><path fill="#a2c36e" d="M 256.421875 168.664062 C 256.421875 169.707031 256.371094 170.746094 256.269531 171.785156 C 256.164062 172.820312 256.011719 173.851562 255.808594 174.875 C 255.605469 175.894531 255.351562 176.90625 255.050781 177.902344 C 254.746094 178.902344 254.394531 179.882812 253.996094 180.84375 C 253.597656 181.808594 253.152344 182.75 252.660156 183.667969 C 252.167969 184.589844 251.632812 185.480469 251.054688 186.347656 C 250.472656 187.214844 249.851562 188.050781 249.191406 188.859375 C 248.53125 189.664062 247.828125 190.433594 247.09375 191.171875 C 246.355469 191.910156 245.582031 192.609375 244.777344 193.269531 C 243.96875 193.933594 243.132812 194.550781 242.265625 195.132812 C 241.398438 195.710938 240.503906 196.246094 239.582031 196.738281 C 238.664062 197.230469 237.722656 197.675781 236.757812 198.074219 C 235.792969 198.472656 234.8125 198.824219 233.816406 199.125 C 232.816406 199.429688 231.804688 199.679688 230.78125 199.882812 C 229.757812 200.089844 228.726562 200.242188 227.691406 200.34375 C 226.652344 200.445312 225.609375 200.496094 224.566406 200.496094 C 223.523438 200.496094 222.484375 200.445312 221.445312 200.34375 C 220.40625 200.242188 219.375 200.089844 218.351562 199.882812 C 217.332031 199.679688 216.320312 199.429688 215.320312 199.125 C 214.324219 198.824219 213.339844 198.472656 212.378906 198.074219 C 211.414062 197.675781 210.472656 197.230469 209.550781 196.738281 C 208.632812 196.246094 207.738281 195.710938 206.871094 195.132812 C 206.003906 194.550781 205.167969 193.933594 204.359375 193.269531 C 203.554688 192.609375 202.78125 191.910156 202.042969 191.171875 C 201.304688 190.433594 200.605469 189.664062 199.945312 188.859375 C 199.28125 188.050781 198.660156 187.214844 198.082031 186.347656 C 197.503906 185.480469 196.96875 184.589844 196.476562 183.667969 C 195.984375 182.75 195.539062 181.808594 195.140625 180.84375 C 194.738281 179.882812 194.386719 178.902344 194.085938 177.902344 C 193.78125 176.90625 193.53125 175.894531 193.324219 174.875 C 193.121094 173.851562 192.96875 172.820312 192.867188 171.785156 C 192.765625 170.746094 192.714844 169.707031 192.714844 168.664062 C 192.714844 167.621094 192.765625 166.582031 192.867188 165.542969 C 192.96875 164.503906 193.121094 163.476562 193.324219 162.453125 C 193.53125 161.429688 193.78125 160.421875 194.085938 159.421875 C 194.386719 158.425781 194.738281 157.445312 195.140625 156.480469 C 195.539062 155.519531 195.984375 154.578125 196.476562 153.65625 C 196.96875 152.738281 197.503906 151.84375 198.082031 150.976562 C 198.660156 150.109375 199.28125 149.273438 199.945312 148.46875 C 200.605469 147.664062 201.304688 146.890625 202.042969 146.152344 C 202.78125 145.417969 203.554688 144.71875 204.359375 144.054688 C 205.167969 143.394531 206.003906 142.773438 206.871094 142.195312 C 207.738281 141.617188 208.632812 141.078125 209.550781 140.589844 C 210.472656 140.097656 211.414062 139.652344 212.378906 139.253906 C 213.339844 138.855469 214.324219 138.503906 215.320312 138.199219 C 216.320312 137.898438 217.332031 137.644531 218.351562 137.441406 C 219.375 137.238281 220.40625 137.085938 221.445312 136.984375 C 222.484375 136.878906 223.523438 136.828125 224.566406 136.828125 C 225.609375 136.828125 226.652344 136.878906 227.691406 136.984375 C 228.726562 137.085938 229.757812 137.238281 230.78125 137.441406 C 231.804688 137.644531 232.816406 137.898438 233.816406 138.199219 C 234.8125 138.503906 235.792969 138.855469 236.757812 139.253906 C 237.722656 139.652344 238.664062 140.097656 239.582031 140.589844 C 240.503906 141.078125 241.398438 141.617188 242.265625 142.195312 C 243.132812 142.773438 243.96875 143.394531 244.777344 144.054688 C 245.582031 144.71875 246.355469 145.417969 247.09375 146.152344 C 247.828125 146.890625 248.53125 147.664062 249.191406 148.46875 C 249.851562 149.273438 250.472656 150.109375 251.054688 150.976562 C 251.632812 151.84375 252.167969 152.738281 252.660156 153.65625 C 253.152344 154.578125 253.597656 155.519531 253.996094 156.480469 C 254.394531 157.445312 254.746094 158.425781 255.050781 159.421875 C 255.351562 160.421875 255.605469 161.429688 255.808594 162.453125 C 256.011719 163.476562 256.164062 164.503906 256.269531 165.542969 C 256.371094 166.582031 256.421875 167.621094 256.421875 168.664062 Z M 256.421875 168.664062 " fill-opacity="1" fill-rule="nonzero"/><path fill="#ffffff" d="M 224.566406 202.699219 C 205.789062 202.699219 190.511719 187.429688 190.511719 168.664062 C 190.511719 149.898438 205.789062 134.632812 224.566406 134.632812 C 243.34375 134.632812 258.621094 149.898438 258.621094 168.664062 C 258.621094 187.429688 243.34375 202.699219 224.566406 202.699219 Z M 224.566406 139.027344 C 208.214844 139.027344 194.914062 152.324219 194.914062 168.664062 C 194.914062 185.007812 208.214844 198.300781 224.566406 198.300781 C 240.921875 198.300781 254.222656 185.007812 254.222656 168.664062 C 254.222656 152.324219 240.921875 139.027344 224.566406 139.027344 Z M 224.566406 139.027344 " fill-opacity="1" fill-rule="nonzero"/><path fill="#a2c36e" d="M 219.203125 206.066406 C 219.203125 207.109375 219.152344 208.148438 219.046875 209.183594 C 218.945312 210.222656 218.792969 211.253906 218.589844 212.277344 C 218.386719 213.296875 218.132812 214.308594 217.832031 215.304688 C 217.527344 216.304688 217.175781 217.285156 216.777344 218.246094 C 216.378906 219.210938 215.933594 220.152344 215.441406 221.070312 C 214.949219 221.992188 214.414062 222.882812 213.832031 223.75 C 213.253906 224.617188 212.632812 225.453125 211.972656 226.261719 C 211.308594 227.066406 210.609375 227.835938 209.871094 228.574219 C 209.132812 229.3125 208.363281 230.011719 207.554688 230.671875 C 206.75 231.335938 205.914062 231.953125 205.046875 232.535156 C 204.175781 233.113281 203.285156 233.648438 202.363281 234.140625 C 201.445312 234.632812 200.5 235.078125 199.539062 235.476562 C 198.574219 235.875 197.59375 236.226562 196.59375 236.527344 C 195.597656 236.832031 194.585938 237.082031 193.5625 237.285156 C 192.539062 237.492188 191.507812 237.644531 190.46875 237.746094 C 189.433594 237.847656 188.390625 237.898438 187.347656 237.898438 C 186.304688 237.898438 185.265625 237.847656 184.226562 237.746094 C 183.1875 237.644531 182.15625 237.492188 181.132812 237.285156 C 180.109375 237.082031 179.101562 236.832031 178.101562 236.527344 C 177.101562 236.226562 176.121094 235.875 175.15625 235.476562 C 174.195312 235.078125 173.253906 234.632812 172.332031 234.140625 C 171.414062 233.648438 170.519531 233.113281 169.652344 232.535156 C 168.785156 231.953125 167.945312 231.335938 167.140625 230.671875 C 166.332031 230.011719 165.5625 229.3125 164.824219 228.574219 C 164.085938 227.835938 163.386719 227.066406 162.726562 226.261719 C 162.0625 225.453125 161.441406 224.617188 160.863281 223.75 C 160.28125 222.882812 159.746094 221.992188 159.253906 221.070312 C 158.765625 220.152344 158.316406 219.210938 157.917969 218.246094 C 157.519531 217.285156 157.167969 216.304688 156.867188 215.304688 C 156.5625 214.308594 156.308594 213.296875 156.105469 212.277344 C 155.902344 211.253906 155.75 210.222656 155.648438 209.183594 C 155.546875 208.148438 155.496094 207.109375 155.496094 206.066406 C 155.496094 205.023438 155.546875 203.984375 155.648438 202.945312 C 155.75 201.90625 155.902344 200.878906 156.105469 199.855469 C 156.308594 198.832031 156.5625 197.820312 156.867188 196.824219 C 157.167969 195.828125 157.519531 194.847656 157.917969 193.882812 C 158.316406 192.921875 158.765625 191.980469 159.253906 191.058594 C 159.746094 190.140625 160.28125 189.246094 160.863281 188.378906 C 161.441406 187.511719 162.0625 186.675781 162.726562 185.871094 C 163.386719 185.066406 164.085938 184.292969 164.824219 183.554688 C 165.5625 182.820312 166.332031 182.121094 167.140625 181.457031 C 167.945312 180.796875 168.785156 180.175781 169.652344 179.597656 C 170.519531 179.019531 171.414062 178.480469 172.332031 177.992188 C 173.253906 177.5 174.195312 177.054688 175.15625 176.65625 C 176.121094 176.257812 177.101562 175.90625 178.101562 175.601562 C 179.101562 175.300781 180.109375 175.046875 181.132812 174.84375 C 182.15625 174.640625 183.1875 174.488281 184.226562 174.386719 C 185.265625 174.28125 186.304688 174.230469 187.347656 174.230469 C 188.390625 174.230469 189.433594 174.28125 190.46875 174.386719 C 191.507812 174.488281 192.539062 174.640625 193.5625 174.84375 C 194.585938 175.046875 195.597656 175.300781 196.59375 175.601562 C 197.59375 175.90625 198.574219 176.257812 199.539062 176.65625 C 200.5 177.054688 201.445312 177.5 202.363281 177.992188 C 203.285156 178.480469 204.175781 179.019531 205.046875 179.597656 C 205.914062 180.175781 206.75 180.796875 207.554688 181.457031 C 208.363281 182.121094 209.132812 182.820312 209.871094 183.554688 C 210.609375 184.292969 211.308594 185.066406 211.972656 185.871094 C 212.632812 186.675781 213.253906 187.511719 213.832031 188.378906 C 214.414062 189.246094 214.949219 190.140625 215.441406 191.058594 C 215.933594 191.980469 216.378906 192.921875 216.777344 193.882812 C 217.175781 194.847656 217.527344 195.828125 217.832031 196.824219 C 218.132812 197.820312 218.386719 198.832031 218.589844 199.855469 C 218.792969 200.878906 218.945312 201.90625 219.046875 202.945312 C 219.152344 203.984375 219.203125 205.023438 219.203125 206.066406 Z M 219.203125 206.066406 " fill-opacity="1" fill-rule="nonzero"/><path fill="#ffffff" d="M 187.347656 240.097656 C 168.566406 240.097656 153.292969 224.832031 153.292969 206.066406 C 153.292969 187.300781 168.566406 172.03125 187.347656 172.03125 C 206.125 172.03125 221.402344 187.300781 221.402344 206.066406 C 221.402344 224.832031 206.125 240.097656 187.347656 240.097656 Z M 187.347656 176.429688 C 170.992188 176.429688 157.691406 189.722656 157.691406 206.066406 C 157.691406 222.40625 170.992188 235.703125 187.347656 235.703125 C 203.699219 235.703125 217 222.40625 217 206.066406 C 217 189.722656 203.699219 176.429688 187.347656 176.429688 Z M 187.347656 176.429688 " fill-opacity="1" fill-rule="nonzero"/><path fill="#a2c36e" d="M 219.203125 163.722656 C 219.203125 164.765625 219.152344 165.804688 219.046875 166.84375 C 218.945312 167.878906 218.792969 168.910156 218.589844 169.933594 C 218.386719 170.953125 218.132812 171.964844 217.832031 172.960938 C 217.527344 173.960938 217.175781 174.941406 216.777344 175.902344 C 216.378906 176.867188 215.933594 177.808594 215.441406 178.726562 C 214.949219 179.648438 214.414062 180.539062 213.832031 181.40625 C 213.253906 182.273438 212.632812 183.109375 211.972656 183.917969 C 211.308594 184.722656 210.609375 185.496094 209.871094 186.230469 C 209.132812 186.96875 208.363281 187.667969 207.554688 188.328125 C 206.75 188.992188 205.914062 189.613281 205.046875 190.191406 C 204.175781 190.769531 203.285156 191.304688 202.363281 191.796875 C 201.445312 192.289062 200.5 192.734375 199.539062 193.132812 C 198.574219 193.53125 197.59375 193.882812 196.59375 194.183594 C 195.597656 194.488281 194.585938 194.742188 193.5625 194.945312 C 192.539062 195.148438 191.507812 195.300781 190.46875 195.402344 C 189.433594 195.503906 188.390625 195.554688 187.347656 195.554688 C 186.304688 195.554688 185.265625 195.503906 184.226562 195.402344 C 183.1875 195.300781 182.15625 195.148438 181.132812 194.945312 C 180.109375 194.742188 179.101562 194.488281 178.101562 194.183594 C 177.101562 193.882812 176.121094 193.53125 175.15625 193.132812 C 174.195312 192.734375 173.253906 192.289062 172.332031 191.796875 C 171.414062 191.304688 170.519531 190.769531 169.652344 190.191406 C 168.785156 189.613281 167.945312 188.992188 167.140625 188.328125 C 166.332031 187.667969 165.5625 186.96875 164.824219 186.230469 C 164.085938 185.496094 163.386719 184.722656 162.726562 183.917969 C 162.0625 183.109375 161.441406 182.273438 160.863281 181.40625 C 160.28125 180.539062 159.746094 179.648438 159.253906 178.726562 C 158.765625 177.808594 158.316406 176.867188 157.917969 175.902344 C 157.519531 174.941406 157.167969 173.960938 156.867188 172.960938 C 156.5625 171.964844 156.308594 170.953125 156.105469 169.933594 C 155.902344 168.910156 155.75 167.878906 155.648438 166.84375 C 155.546875 165.804688 155.496094 164.765625 155.496094 163.722656 C 155.496094 162.679688 155.546875 161.640625 155.648438 160.601562 C 155.75 159.5625 155.902344 158.535156 156.105469 157.511719 C 156.308594 156.488281 156.5625 155.480469 156.867188 154.480469 C 157.167969 153.484375 157.519531 152.503906 157.917969 151.539062 C 158.316406 150.578125 158.765625 149.636719 159.253906 148.714844 C 159.746094 147.796875 160.28125 146.902344 160.863281 146.035156 C 161.441406 145.167969 162.0625 144.332031 162.726562 143.527344 C 163.386719 142.722656 164.085938 141.949219 164.824219 141.210938 C 165.5625 140.476562 166.332031 139.777344 167.140625 139.113281 C 167.945312 138.453125 168.785156 137.832031 169.652344 137.253906 C 170.519531 136.675781 171.414062 136.140625 172.332031 135.648438 C 173.253906 135.15625 174.195312 134.710938 175.15625 134.3125 C 176.121094 133.914062 177.101562 133.5625 178.101562 133.257812 C 179.101562 132.957031 180.109375 132.703125 181.132812 132.5 C 182.15625 132.296875 183.1875 132.144531 184.226562 132.042969 C 185.265625 131.941406 186.304688 131.890625 187.347656 131.890625 C 188.390625 131.890625 189.433594 131.941406 190.46875 132.042969 C 191.507812 132.144531 192.539062 132.296875 193.5625 132.5 C 194.585938 132.703125 195.597656 132.957031 196.59375 133.257812 C 197.59375 133.5625 198.574219 133.914062 199.539062 134.3125 C 200.5 134.710938 201.445312 135.15625 202.363281 135.648438 C 203.285156 136.140625 204.175781 136.675781 205.046875 137.253906 C 205.914062 137.832031 206.75 138.453125 207.554688 139.113281 C 208.363281 139.777344 209.132812 140.476562 209.871094 141.210938 C 210.609375 141.949219 211.308594 142.722656 211.972656 143.527344 C 212.632812 144.332031 213.253906 145.167969 213.832031 146.035156 C 214.414062 146.902344 214.949219 147.796875 215.441406 148.714844 C 215.933594 149.636719 216.378906 150.578125 216.777344 151.539062 C 217.175781 152.503906 217.527344 153.484375 217.832031 154.480469 C 218.132812 155.480469 218.386719 156.488281 218.589844 157.511719 C 218.792969 158.535156 218.945312 159.5625 219.046875 160.601562 C 219.152344 161.640625 219.203125 162.679688 219.203125 163.722656 Z M 219.203125 163.722656 " fill-opacity="1" fill-rule="nonzero"/><path fill="#ffffff" d="M 187.347656 197.757812 C 168.566406 197.757812 153.292969 182.488281 153.292969 163.722656 C 153.292969 144.957031 168.566406 129.691406 187.347656 129.691406 C 206.125 129.691406 221.402344 144.957031 221.402344 163.722656 C 221.402344 182.488281 206.125 197.757812 187.347656 197.757812 Z M 187.347656 134.089844 C 170.992188 134.089844 157.691406 147.382812 157.691406 163.722656 C 157.691406 180.066406 170.992188 193.359375 187.347656 193.359375 C 203.699219 193.359375 217 180.066406 217 163.722656 C 217 147.382812 203.699219 134.089844 187.347656 134.089844 Z M 187.347656 134.089844 " fill-opacity="1" fill-rule="nonzero"/></svg>