<svg xmlns="http://www.w3.org/2000/svg" xmlns:xlink="http://www.w3.org/1999/xlink" width="500" zoomAndPan="magnify" viewBox="0 0 375 374.999991" height="500" preserveAspectRatio="xMidYMid meet" version="1.0"><defs><clipPath id="4d387d9aa3"><path d="M 187.5 0 C 83.945312 0 0 83.945312 0 187.5 C 0 291.054688 83.945312 375 187.5 375 C 291.054688 375 375 291.054688 375 187.5 C 375 83.945312 291.054688 0 187.5 0 Z M 187.5 0 " clip-rule="nonzero"/></clipPath><clipPath id="73319ad5e4"><path d="M 176 69.34375 L 294 69.34375 L 294 182 L 176 182 Z M 176 69.34375 " clip-rule="nonzero"/></clipPath><clipPath id="6e16b621c5"><path d="M 67.425781 72 L 154 72 L 154 97 L 67.425781 97 Z M 67.425781 72 " clip-rule="nonzero"/></clipPath><clipPath id="3fed0fa9da"><path d="M 67.425781 103 L 76 103 L 76 112 L 67.425781 112 Z M 67.425781 103 " clip-rule="nonzero"/></clipPath><clipPath id="99cc08801e"><path d="M 67.425781 119 L 154 119 L 154 128 L 67.425781 128 Z M 67.425781 119 " clip-rule="nonzero"/></clipPath><clipPath id="81279b99cc"><path d="M 102 142 L 272 142 L 272 314.59375 L 102 314.59375 Z M 102 142 " clip-rule="nonzero"/></clipPath><clipPath id="074249368c"><path d="M 254 189 L 308.925781 189 L 308.925781 198 L 254 198 Z M 254 189 " clip-rule="nonzero"/></clipPath><clipPath id="42318477cd"><path d="M 254 205 L 308.925781 205 L 308.925781 213 L 254 213 Z M 254 205 " clip-rule="nonzero"/></clipPath></defs><g clip-path="url(#4d387d9aa3)"><rect x="-37.5" width="450" fill="#a2c36e" y="-37.499999" height="449.999989" fill-opacity="1"/></g><g clip-path="url(#73319ad5e4)"><path fill="#fffff9" d="M 203.152344 155.195312 C 195.425781 159.859375 189.8125 167.726562 188.230469 177.210938 L 187.472656 181.738281 L 211.546875 181.738281 C 221.46875 181.738281 230.144531 176.394531 234.917969 168.457031 C 239.6875 176.394531 248.363281 181.738281 258.289062 181.738281 L 282.363281 181.738281 L 281.609375 177.210938 C 280.027344 167.730469 274.40625 159.863281 266.683594 155.195312 C 282.300781 148.800781 293.34375 133.464844 293.34375 115.585938 L 293.34375 110.921875 L 265.070312 116.054688 C 262.6875 116.488281 260.367188 117.128906 258.113281 117.949219 C 258.199219 116.902344 258.289062 115.859375 258.289062 114.808594 C 258.289062 106.859375 255.84375 99.246094 251.226562 92.785156 L 234.917969 69.972656 L 218.613281 92.78125 C 213.988281 99.242188 211.546875 106.859375 211.546875 114.808594 C 211.546875 115.863281 211.636719 116.90625 211.722656 117.949219 C 209.464844 117.132812 207.144531 116.492188 204.765625 116.058594 L 176.488281 110.917969 L 176.488281 115.582031 C 176.488281 133.464844 187.53125 148.800781 203.152344 155.195312 Z M 211.546875 173.957031 L 197.125 173.957031 C 200.589844 164.714844 209.4375 158.390625 219.660156 158.390625 L 230.632812 158.390625 C 228.820312 167.257812 220.953125 173.957031 211.546875 173.957031 Z M 272.707031 173.957031 L 258.289062 173.957031 C 248.878906 173.957031 241.011719 167.257812 239.207031 158.390625 L 250.179688 158.390625 C 260.394531 158.390625 269.246094 164.714844 272.707031 173.957031 Z M 266.460938 123.714844 L 285.234375 120.304688 C 282.921875 137.394531 268.222656 150.609375 250.496094 150.609375 L 238.8125 150.609375 L 238.8125 148.589844 L 244.050781 144.402344 L 244.050781 144.398438 C 249.703125 139.875 253.851562 133.96875 256.164062 127.34375 C 259.398438 125.613281 262.84375 124.371094 266.460938 123.714844 Z M 224.949219 97.304688 L 234.917969 83.363281 L 244.882812 97.304688 C 248.554688 102.441406 250.496094 108.492188 250.496094 114.808594 C 250.496094 124.003906 246.371094 132.574219 239.1875 138.328125 L 234.917969 141.730469 L 230.648438 138.324219 C 223.460938 132.574219 219.335938 124.003906 219.335938 114.808594 C 219.335938 108.492188 221.28125 102.441406 224.949219 97.304688 Z M 203.375 123.71875 C 206.988281 124.375 210.433594 125.613281 213.664062 127.347656 C 215.976562 133.972656 220.125 139.882812 225.78125 144.40625 L 231.019531 148.585938 L 231.019531 150.605469 L 219.335938 150.605469 C 201.609375 150.605469 186.914062 137.386719 184.597656 120.300781 Z M 203.375 123.71875 " fill-opacity="1" fill-rule="nonzero"/></g><g clip-path="url(#6e16b621c5)"><path fill="#fffff9" d="M 153.117188 72.78125 L 67.425781 72.78125 L 67.425781 96.128906 L 153.117188 96.128906 Z M 145.328125 88.34375 L 75.214844 88.34375 L 75.214844 80.5625 L 145.328125 80.5625 Z M 145.328125 88.34375 " fill-opacity="1" fill-rule="nonzero"/></g><g clip-path="url(#3fed0fa9da)"><path fill="#fffff9" d="M 67.425781 103.910156 L 75.214844 103.910156 L 75.214844 111.695312 L 67.425781 111.695312 Z M 67.425781 103.910156 " fill-opacity="1" fill-rule="nonzero"/></g><path fill="#fffff9" d="M 83.003906 103.910156 L 153.117188 103.910156 L 153.117188 111.695312 L 83.003906 111.695312 Z M 83.003906 103.910156 " fill-opacity="1" fill-rule="nonzero"/><g clip-path="url(#99cc08801e)"><path fill="#fffff9" d="M 67.425781 119.476562 L 153.117188 119.476562 L 153.117188 127.257812 L 67.425781 127.257812 Z M 67.425781 119.476562 " fill-opacity="1" fill-rule="nonzero"/></g><g clip-path="url(#81279b99cc)"><path fill="#fffff9" d="M 271.90625 231.8125 L 268.039062 225.058594 L 242.707031 239.519531 L 215.441406 223.953125 L 188.175781 239.519531 L 164.804688 226.179688 L 164.804688 195.046875 L 137.539062 179.480469 L 137.539062 165.457031 C 142.058594 163.847656 145.328125 159.566406 145.328125 154.5 C 145.328125 148.0625 140.085938 142.824219 133.640625 142.824219 C 127.199219 142.824219 121.957031 148.0625 121.957031 154.5 C 121.957031 159.566406 125.226562 163.847656 129.746094 165.457031 L 129.746094 179.480469 L 102.480469 195.046875 L 102.480469 230.691406 L 129.746094 246.257812 L 129.746094 272.875 L 104.445312 287.320312 L 108.308594 294.078125 L 133.640625 279.613281 L 157.011719 292.953125 L 157.011719 314.042969 L 164.804688 314.042969 L 164.804688 292.953125 L 188.175781 279.613281 L 211.546875 292.953125 L 211.546875 314.042969 L 219.335938 314.042969 L 219.335938 292.953125 L 242.707031 279.613281 L 268.039062 294.078125 L 271.90625 287.320312 L 246.601562 272.875 L 246.601562 246.257812 Z M 133.640625 150.609375 C 135.789062 150.609375 137.539062 152.351562 137.539062 154.5 C 137.539062 156.648438 135.789062 158.390625 133.640625 158.390625 C 131.496094 158.390625 129.746094 156.648438 129.746094 154.5 C 129.746094 152.351562 131.496094 150.609375 133.640625 150.609375 Z M 110.269531 199.5625 L 133.640625 186.21875 L 157.011719 199.5625 L 157.011719 226.179688 L 145.328125 232.847656 L 133.640625 239.519531 L 110.269531 226.175781 Z M 137.539062 246.257812 L 149.222656 239.589844 L 160.910156 232.917969 L 184.28125 246.261719 L 184.28125 272.878906 L 160.910156 286.222656 L 137.539062 272.878906 Z M 238.8125 272.875 L 215.441406 286.21875 L 192.070312 272.875 L 192.070312 246.257812 L 215.441406 232.914062 L 238.8125 246.257812 Z M 238.8125 272.875 " fill-opacity="1" fill-rule="nonzero"/></g><g clip-path="url(#074249368c)"><path fill="#fffff9" d="M 254.390625 189.523438 L 308.925781 189.523438 L 308.925781 197.304688 L 254.390625 197.304688 Z M 254.390625 189.523438 " fill-opacity="1" fill-rule="nonzero"/></g><g clip-path="url(#42318477cd)"><path fill="#fffff9" d="M 254.390625 205.085938 L 308.925781 205.085938 L 308.925781 212.871094 L 254.390625 212.871094 Z M 254.390625 205.085938 " fill-opacity="1" fill-rule="nonzero"/></g></svg>