<svg xmlns="http://www.w3.org/2000/svg" xmlns:xlink="http://www.w3.org/1999/xlink" width="500" zoomAndPan="magnify" viewBox="0 0 375 374.999991" height="500" preserveAspectRatio="xMidYMid meet" version="1.0"><defs><clipPath id="264bce23f3"><path d="M 187.5 0 C 83.945312 0 0 83.945312 0 187.5 C 0 291.054688 83.945312 375 187.5 375 C 291.054688 375 375 291.054688 375 187.5 C 375 83.945312 291.054688 0 187.5 0 Z M 187.5 0 " clip-rule="nonzero"/></clipPath><clipPath id="4108a91016"><path d="M 51 54 L 322 54 L 322 323.199219 L 51 323.199219 Z M 51 54 " clip-rule="nonzero"/></clipPath></defs><g clip-path="url(#264bce23f3)"><rect x="-37.5" width="450" fill="#58a39d" y="-37.499999" height="449.999989" fill-opacity="1"/></g><path fill="#ffffff" d="M 195.925781 180.226562 C 195.355469 180.226562 194.785156 180.179688 194.21875 180.085938 C 193.652344 179.996094 193.097656 179.859375 192.550781 179.679688 C 192.007812 179.496094 191.484375 179.273438 190.972656 179.007812 C 190.464844 178.742188 189.984375 178.4375 189.523438 178.09375 C 189.066406 177.75 188.636719 177.371094 188.238281 176.960938 C 187.839844 176.546875 187.476562 176.105469 187.148438 175.632812 C 186.824219 175.164062 186.535156 174.667969 186.289062 174.152344 C 186.039062 173.636719 185.835938 173.101562 185.671875 172.554688 L 176.453125 141.089844 C 176.117188 139.933594 175.574219 138.886719 174.816406 137.949219 C 174.0625 137.007812 173.152344 136.253906 172.09375 135.675781 L 143.109375 119.832031 C 142.542969 119.523438 142.015625 119.167969 141.523438 118.757812 C 141.03125 118.347656 140.585938 117.890625 140.183594 117.394531 C 139.777344 116.894531 139.429688 116.363281 139.132812 115.792969 C 138.832031 115.226562 138.59375 114.636719 138.414062 114.019531 C 138.234375 113.40625 138.113281 112.78125 138.058594 112.140625 C 138 111.503906 138.003906 110.867188 138.074219 110.230469 C 138.144531 109.59375 138.273438 108.96875 138.464844 108.355469 C 138.65625 107.746094 138.90625 107.160156 139.214844 106.597656 C 139.523438 106.035156 139.882812 105.507812 140.292969 105.015625 C 140.707031 104.527344 141.160156 104.078125 141.660156 103.679688 C 142.160156 103.277344 142.695312 102.929688 143.261719 102.632812 C 143.832031 102.335938 144.421875 102.097656 145.039062 101.917969 C 145.65625 101.738281 146.28125 101.621094 146.921875 101.566406 C 147.558594 101.511719 148.195312 101.515625 148.835938 101.585938 C 149.472656 101.65625 150.097656 101.789062 150.707031 101.980469 C 151.320312 102.175781 151.90625 102.425781 152.46875 102.734375 L 178.054688 116.722656 C 178.433594 116.929688 178.835938 117.054688 179.261719 117.097656 C 179.691406 117.144531 180.109375 117.109375 180.523438 116.988281 C 180.933594 116.867188 181.308594 116.671875 181.640625 116.402344 C 181.976562 116.132812 182.246094 115.8125 182.453125 115.433594 L 196.449219 89.867188 C 196.757812 89.304688 197.117188 88.777344 197.527344 88.289062 C 197.9375 87.796875 198.394531 87.351562 198.890625 86.949219 C 199.390625 86.550781 199.925781 86.199219 200.492188 85.902344 C 201.058594 85.609375 201.648438 85.371094 202.265625 85.191406 C 202.878906 85.011719 203.503906 84.890625 204.144531 84.835938 C 204.78125 84.777344 205.417969 84.785156 206.054688 84.855469 C 206.691406 84.921875 207.316406 85.054688 207.925781 85.246094 C 208.535156 85.4375 209.121094 85.6875 209.683594 85.992188 C 210.246094 86.300781 210.773438 86.660156 211.261719 87.070312 C 211.753906 87.480469 212.199219 87.933594 212.601562 88.433594 C 213.003906 88.933594 213.351562 89.464844 213.648438 90.03125 C 213.945312 90.597656 214.183594 91.191406 214.363281 91.804688 C 214.542969 92.417969 214.660156 93.042969 214.71875 93.679688 C 214.773438 94.316406 214.769531 94.953125 214.699219 95.589844 C 214.628906 96.226562 214.5 96.851562 214.308594 97.460938 C 214.117188 98.070312 213.867188 98.65625 213.558594 99.21875 L 197.703125 128.1875 C 197.121094 129.242188 196.765625 130.367188 196.636719 131.566406 C 196.503906 132.765625 196.613281 133.941406 196.953125 135.09375 L 206.171875 166.554688 C 206.289062 166.949219 206.378906 167.351562 206.449219 167.757812 C 206.519531 168.167969 206.566406 168.578125 206.585938 168.988281 C 206.609375 169.402344 206.605469 169.8125 206.578125 170.226562 C 206.554688 170.636719 206.503906 171.046875 206.429688 171.453125 C 206.355469 171.859375 206.261719 172.257812 206.140625 172.65625 C 206.019531 173.050781 205.875 173.4375 205.710938 173.816406 C 205.546875 174.195312 205.359375 174.5625 205.152344 174.917969 C 204.945312 175.273438 204.71875 175.617188 204.46875 175.949219 C 204.222656 176.28125 203.957031 176.59375 203.671875 176.894531 C 203.386719 177.195312 203.085938 177.476562 202.769531 177.742188 C 202.453125 178.007812 202.121094 178.25 201.777344 178.476562 C 201.429688 178.703125 201.074219 178.910156 200.703125 179.09375 C 200.335938 179.28125 199.957031 179.441406 199.566406 179.585938 C 199.179688 179.726562 198.785156 179.84375 198.382812 179.9375 C 197.980469 180.035156 197.574219 180.105469 197.164062 180.152344 C 196.753906 180.203125 196.339844 180.226562 195.925781 180.226562 Z M 147.789062 108.042969 C 147.429688 108.042969 147.078125 108.101562 146.738281 108.21875 C 146.398438 108.335938 146.085938 108.503906 145.800781 108.722656 C 145.519531 108.945312 145.277344 109.207031 145.078125 109.503906 C 144.882812 109.804688 144.738281 110.132812 144.648438 110.480469 C 144.5625 110.828125 144.53125 111.179688 144.558594 111.539062 C 144.585938 111.898438 144.671875 112.242188 144.816406 112.570312 C 144.960938 112.902344 145.152344 113.199219 145.394531 113.464844 C 145.636719 113.730469 145.917969 113.949219 146.234375 114.121094 L 175.21875 129.96875 C 177.039062 130.957031 178.597656 132.253906 179.894531 133.867188 C 181.191406 135.476562 182.128906 137.277344 182.703125 139.261719 L 191.921875 170.722656 C 192 170.988281 192.101562 171.238281 192.226562 171.480469 C 192.355469 171.722656 192.503906 171.953125 192.675781 172.164062 C 192.847656 172.378906 193.039062 172.570312 193.246094 172.746094 C 193.457031 172.921875 193.683594 173.078125 193.921875 173.207031 C 194.164062 173.339844 194.414062 173.445312 194.675781 173.527344 C 194.933594 173.609375 195.203125 173.664062 195.472656 173.695312 C 195.746094 173.722656 196.019531 173.726562 196.289062 173.703125 C 196.5625 173.679688 196.832031 173.628906 197.09375 173.550781 C 197.355469 173.472656 197.609375 173.371094 197.851562 173.246094 C 198.09375 173.121094 198.320312 172.96875 198.535156 172.800781 C 198.75 172.628906 198.941406 172.4375 199.117188 172.226562 C 199.292969 172.019531 199.449219 171.792969 199.578125 171.554688 C 199.710938 171.3125 199.816406 171.0625 199.898438 170.800781 C 199.980469 170.539062 200.035156 170.273438 200.066406 170.003906 C 200.097656 169.730469 200.097656 169.457031 200.074219 169.1875 C 200.050781 168.914062 200 168.644531 199.921875 168.382812 L 190.703125 136.925781 C 190.117188 134.941406 189.9375 132.921875 190.160156 130.867188 C 190.382812 128.808594 190.992188 126.875 191.988281 125.066406 L 207.847656 96.097656 C 208.050781 95.71875 208.171875 95.320312 208.21875 94.894531 C 208.261719 94.46875 208.222656 94.050781 208.101562 93.640625 C 207.980469 93.230469 207.785156 92.859375 207.515625 92.527344 C 207.246094 92.195312 206.925781 91.925781 206.550781 91.722656 C 206.175781 91.515625 205.773438 91.390625 205.347656 91.34375 C 204.925781 91.296875 204.507812 91.332031 204.09375 91.453125 C 203.683594 91.570312 203.3125 91.761719 202.976562 92.027344 C 202.640625 92.296875 202.371094 92.613281 202.164062 92.988281 L 188.167969 118.558594 C 187.859375 119.121094 187.5 119.644531 187.089844 120.136719 C 186.675781 120.625 186.222656 121.070312 185.722656 121.472656 C 185.222656 121.871094 184.691406 122.21875 184.125 122.515625 C 183.554688 122.8125 182.964844 123.050781 182.351562 123.230469 C 181.734375 123.410156 181.109375 123.527344 180.472656 123.585938 C 179.835938 123.640625 179.199219 123.636719 178.5625 123.566406 C 177.925781 123.5 177.300781 123.367188 176.691406 123.175781 C 176.078125 122.984375 175.492188 122.738281 174.929688 122.429688 L 149.34375 108.441406 C 148.859375 108.175781 148.339844 108.042969 147.789062 108.042969 Z M 147.789062 108.042969 " fill-opacity="1" fill-rule="nonzero"/><path fill="#ffffff" d="M 168.957031 216.917969 C 167.140625 216.914062 165.4375 216.476562 163.84375 215.601562 L 135.0625 199.871094 C 134.007812 199.289062 132.878906 198.933594 131.683594 198.804688 C 130.484375 198.675781 129.304688 198.78125 128.148438 199.121094 L 96.441406 208.398438 C 95.824219 208.582031 95.199219 208.703125 94.558594 208.761719 C 93.917969 208.824219 93.277344 208.820312 92.640625 208.753906 C 92 208.6875 91.375 208.558594 90.761719 208.367188 C 90.148438 208.175781 89.558594 207.929688 88.996094 207.621094 C 88.429688 207.316406 87.902344 206.957031 87.410156 206.546875 C 86.914062 206.132812 86.46875 205.679688 86.0625 205.179688 C 85.660156 204.679688 85.308594 204.144531 85.011719 203.578125 C 84.714844 203.007812 84.476562 202.414062 84.292969 201.800781 C 84.113281 201.183594 83.996094 200.554688 83.941406 199.917969 C 83.882812 199.277344 83.890625 198.636719 83.960938 198 C 84.03125 197.363281 84.160156 196.738281 84.355469 196.125 C 84.546875 195.511719 84.800781 194.925781 85.109375 194.363281 C 85.417969 193.800781 85.78125 193.273438 86.195312 192.785156 C 86.609375 192.292969 87.066406 191.847656 87.570312 191.445312 C 88.070312 191.046875 88.609375 190.699219 89.179688 190.40625 C 89.75 190.109375 90.34375 189.875 90.960938 189.695312 L 118.953125 181.507812 C 119.367188 181.386719 119.738281 181.191406 120.074219 180.921875 C 120.40625 180.652344 120.675781 180.328125 120.882812 179.953125 C 121.089844 179.574219 121.214844 179.171875 121.261719 178.746094 C 121.308594 178.320312 121.273438 177.902344 121.152344 177.488281 L 112.953125 149.519531 C 112.683594 148.59375 112.550781 147.648438 112.5625 146.6875 C 112.570312 145.722656 112.71875 144.78125 113.007812 143.863281 C 113.296875 142.941406 113.714844 142.085938 114.257812 141.289062 C 114.800781 140.492188 115.449219 139.792969 116.199219 139.1875 C 116.949219 138.585938 117.773438 138.101562 118.667969 137.742188 C 119.5625 137.382812 120.488281 137.160156 121.449219 137.074219 C 122.410156 136.988281 123.363281 137.042969 124.308594 137.242188 C 125.25 137.4375 126.144531 137.769531 126.992188 138.230469 C 128.128906 138.847656 129.101562 139.660156 129.914062 140.667969 C 130.726562 141.675781 131.308594 142.800781 131.671875 144.042969 L 140.957031 175.730469 C 141.292969 176.886719 141.839844 177.9375 142.59375 178.875 C 143.351562 179.8125 144.257812 180.570312 145.316406 181.144531 L 174.09375 196.875 C 175.023438 197.382812 175.855469 198.011719 176.59375 198.765625 C 177.335938 199.519531 177.949219 200.363281 178.4375 201.300781 C 178.925781 202.234375 179.269531 203.222656 179.464844 204.257812 C 179.660156 205.296875 179.703125 206.339844 179.589844 207.386719 C 179.472656 208.4375 179.210938 209.445312 178.796875 210.417969 C 178.382812 211.390625 177.839844 212.28125 177.160156 213.089844 C 176.480469 213.898438 175.699219 214.589844 174.816406 215.167969 C 173.933594 215.746094 172.984375 216.183594 171.972656 216.480469 C 170.988281 216.769531 169.980469 216.914062 168.957031 216.917969 Z M 130.722656 192.242188 C 133.375 192.246094 135.863281 192.886719 138.1875 194.164062 L 166.96875 209.894531 C 167.210938 210.027344 167.460938 210.132812 167.722656 210.214844 C 167.984375 210.300781 168.25 210.355469 168.523438 210.386719 C 168.796875 210.414062 169.066406 210.417969 169.339844 210.394531 C 169.613281 210.371094 169.882812 210.320312 170.144531 210.242188 C 170.40625 210.167969 170.660156 210.066406 170.902344 209.9375 C 171.148438 209.8125 171.375 209.664062 171.589844 209.492188 C 171.800781 209.320312 171.996094 209.128906 172.171875 208.917969 C 172.347656 208.710938 172.503906 208.484375 172.632812 208.242188 C 172.765625 208.003906 172.871094 207.753906 172.953125 207.492188 C 173.035156 207.230469 173.09375 206.964844 173.121094 206.691406 C 173.152344 206.417969 173.152344 206.148438 173.128906 205.875 C 173.105469 205.601562 173.054688 205.332031 172.976562 205.070312 C 172.898438 204.808594 172.796875 204.554688 172.667969 204.3125 C 172.542969 204.070312 172.394531 203.84375 172.222656 203.628906 C 172.050781 203.417969 171.859375 203.222656 171.648438 203.046875 C 171.4375 202.871094 171.210938 202.71875 170.96875 202.585938 L 142.191406 186.855469 C 140.375 185.867188 138.816406 184.570312 137.519531 182.957031 C 136.222656 181.347656 135.285156 179.546875 134.707031 177.5625 L 125.421875 145.871094 C 125.300781 145.460938 125.105469 145.085938 124.835938 144.75 C 124.566406 144.417969 124.246094 144.148438 123.867188 143.941406 C 123.492188 143.734375 123.089844 143.609375 122.660156 143.5625 C 122.234375 143.515625 121.816406 143.554688 121.402344 143.675781 C 120.988281 143.792969 120.617188 143.988281 120.28125 144.257812 C 119.949219 144.527344 119.675781 144.851562 119.472656 145.226562 C 119.265625 145.605469 119.136719 146.003906 119.09375 146.433594 C 119.046875 146.859375 119.082031 147.277344 119.203125 147.691406 L 127.402344 175.660156 C 127.578125 176.273438 127.699219 176.902344 127.753906 177.539062 C 127.808594 178.175781 127.804688 178.8125 127.734375 179.449219 C 127.664062 180.082031 127.535156 180.707031 127.34375 181.316406 C 127.148438 181.925781 126.898438 182.511719 126.59375 183.074219 C 126.285156 183.636719 125.925781 184.160156 125.515625 184.652344 C 125.105469 185.140625 124.652344 185.589844 124.152344 185.988281 C 123.652344 186.390625 123.121094 186.738281 122.554688 187.035156 C 121.988281 187.332031 121.394531 187.570312 120.78125 187.75 L 92.789062 195.941406 C 92.378906 196.0625 92.003906 196.257812 91.671875 196.527344 C 91.335938 196.792969 91.066406 197.117188 90.859375 197.496094 C 90.652344 197.871094 90.527344 198.273438 90.480469 198.699219 C 90.433594 199.125 90.472656 199.546875 90.59375 199.957031 C 90.714844 200.371094 90.90625 200.742188 91.175781 201.078125 C 91.445312 201.410156 91.769531 201.683594 92.148438 201.886719 C 92.523438 202.09375 92.925781 202.21875 93.351562 202.265625 C 93.78125 202.3125 94.199219 202.273438 94.613281 202.15625 L 126.320312 192.878906 C 127.757812 192.453125 129.226562 192.242188 130.722656 192.242188 Z M 130.722656 192.242188 " fill-opacity="1" fill-rule="nonzero"/><path fill="#ffffff" d="M 131.636719 276.554688 L 121.980469 276.554688 C 121.195312 276.554688 120.417969 276.476562 119.644531 276.324219 C 118.875 276.171875 118.128906 275.941406 117.402344 275.644531 C 116.679688 275.34375 115.988281 274.972656 115.335938 274.539062 C 114.683594 274.101562 114.078125 273.605469 113.523438 273.050781 C 112.96875 272.496094 112.472656 271.890625 112.035156 271.238281 C 111.601562 270.585938 111.230469 269.898438 110.929688 269.175781 C 110.628906 268.449219 110.402344 267.703125 110.25 266.933594 C 110.09375 266.164062 110.015625 265.386719 110.015625 264.601562 L 110.015625 262.464844 C 110.015625 261.679688 110.09375 260.902344 110.25 260.132812 C 110.402344 259.363281 110.628906 258.617188 110.929688 257.894531 C 111.230469 257.167969 111.601562 256.480469 112.035156 255.828125 C 112.472656 255.175781 112.96875 254.570312 113.523438 254.015625 C 114.078125 253.460938 114.683594 252.964844 115.335938 252.53125 C 115.988281 252.09375 116.679688 251.726562 117.402344 251.425781 C 118.128906 251.125 118.875 250.898438 119.644531 250.742188 C 120.417969 250.589844 121.195312 250.511719 121.980469 250.511719 L 131.636719 250.511719 C 132.421875 250.511719 133.199219 250.589844 133.972656 250.742188 C 134.742188 250.898438 135.488281 251.125 136.214844 251.425781 C 136.9375 251.726562 137.628906 252.09375 138.28125 252.53125 C 138.933594 252.964844 139.539062 253.460938 140.09375 254.015625 C 140.648438 254.570312 141.144531 255.175781 141.582031 255.828125 C 142.015625 256.480469 142.386719 257.167969 142.6875 257.894531 C 142.988281 258.617188 143.214844 259.363281 143.367188 260.132812 C 143.523438 260.902344 143.601562 261.679688 143.601562 262.464844 L 143.601562 264.601562 C 143.601562 265.386719 143.523438 266.164062 143.367188 266.933594 C 143.214844 267.703125 142.988281 268.449219 142.6875 269.175781 C 142.386719 269.898438 142.015625 270.585938 141.582031 271.238281 C 141.144531 271.890625 140.648438 272.496094 140.09375 273.050781 C 139.539062 273.605469 138.933594 274.101562 138.28125 274.539062 C 137.628906 274.972656 136.9375 275.34375 136.214844 275.640625 C 135.488281 275.941406 134.742188 276.171875 133.972656 276.324219 C 133.199219 276.476562 132.421875 276.554688 131.636719 276.554688 Z M 121.980469 257.019531 C 121.621094 257.019531 121.265625 257.054688 120.914062 257.125 C 120.566406 257.195312 120.222656 257.296875 119.894531 257.433594 C 119.5625 257.570312 119.25 257.738281 118.953125 257.9375 C 118.65625 258.136719 118.378906 258.363281 118.125 258.613281 C 117.875 258.867188 117.648438 259.144531 117.449219 259.441406 C 117.25 259.738281 117.082031 260.050781 116.945312 260.382812 C 116.808594 260.710938 116.703125 261.050781 116.632812 261.402344 C 116.5625 261.753906 116.527344 262.109375 116.527344 262.464844 L 116.527344 264.601562 C 116.527344 264.960938 116.5625 265.3125 116.632812 265.664062 C 116.703125 266.015625 116.808594 266.355469 116.945312 266.6875 C 117.082031 267.015625 117.25 267.328125 117.449219 267.625 C 117.648438 267.925781 117.875 268.199219 118.125 268.453125 C 118.378906 268.703125 118.65625 268.929688 118.953125 269.128906 C 119.25 269.328125 119.5625 269.496094 119.894531 269.632812 C 120.222656 269.769531 120.566406 269.875 120.914062 269.945312 C 121.265625 270.011719 121.621094 270.050781 121.980469 270.050781 L 131.636719 270.050781 C 131.996094 270.050781 132.351562 270.011719 132.699219 269.945312 C 133.050781 269.875 133.390625 269.769531 133.722656 269.632812 C 134.054688 269.496094 134.367188 269.328125 134.664062 269.128906 C 134.960938 268.929688 135.238281 268.703125 135.492188 268.453125 C 135.742188 268.199219 135.96875 267.925781 136.167969 267.625 C 136.367188 267.328125 136.535156 267.015625 136.671875 266.6875 C 136.808594 266.355469 136.914062 266.015625 136.984375 265.664062 C 137.054688 265.3125 137.089844 264.960938 137.089844 264.601562 L 137.089844 262.464844 C 137.089844 262.109375 137.054688 261.753906 136.984375 261.402344 C 136.914062 261.050781 136.808594 260.710938 136.671875 260.382812 C 136.535156 260.050781 136.367188 259.738281 136.167969 259.441406 C 135.96875 259.144531 135.742188 258.867188 135.492188 258.613281 C 135.238281 258.363281 134.960938 258.136719 134.664062 257.9375 C 134.367188 257.738281 134.054688 257.570312 133.722656 257.433594 C 133.390625 257.296875 133.050781 257.195312 132.699219 257.125 C 132.351562 257.054688 131.996094 257.019531 131.636719 257.019531 Z M 121.980469 257.019531 " fill-opacity="1" fill-rule="nonzero"/><path fill="#ffffff" d="M 158.710938 276.554688 L 149.050781 276.554688 C 148.265625 276.554688 147.488281 276.476562 146.71875 276.324219 C 145.949219 276.171875 145.199219 275.941406 144.476562 275.644531 C 143.75 275.34375 143.0625 274.972656 142.410156 274.539062 C 141.753906 274.101562 141.152344 273.605469 140.597656 273.050781 C 140.042969 272.496094 139.546875 271.890625 139.109375 271.238281 C 138.671875 270.585938 138.304688 269.898438 138.003906 269.175781 C 137.703125 268.449219 137.472656 267.703125 137.320312 266.933594 C 137.167969 266.164062 137.089844 265.386719 137.089844 264.601562 L 137.089844 262.464844 C 137.089844 261.679688 137.167969 260.902344 137.320312 260.132812 C 137.476562 259.363281 137.703125 258.617188 138.003906 257.890625 C 138.304688 257.167969 138.671875 256.480469 139.109375 255.828125 C 139.546875 255.175781 140.042969 254.570312 140.597656 254.015625 C 141.152344 253.460938 141.753906 252.964844 142.410156 252.53125 C 143.0625 252.09375 143.75 251.726562 144.476562 251.425781 C 145.199219 251.125 145.949219 250.898438 146.71875 250.742188 C 147.488281 250.589844 148.265625 250.511719 149.050781 250.511719 L 158.710938 250.511719 C 159.496094 250.511719 160.273438 250.589844 161.042969 250.742188 C 161.8125 250.898438 162.5625 251.125 163.285156 251.425781 C 164.011719 251.726562 164.699219 252.09375 165.351562 252.53125 C 166.007812 252.964844 166.609375 253.460938 167.164062 254.015625 C 167.71875 254.570312 168.214844 255.175781 168.652344 255.828125 C 169.089844 256.480469 169.457031 257.167969 169.757812 257.890625 C 170.058594 258.617188 170.289062 259.363281 170.441406 260.132812 C 170.59375 260.902344 170.671875 261.679688 170.671875 262.464844 L 170.671875 264.601562 C 170.671875 265.386719 170.59375 266.164062 170.441406 266.933594 C 170.289062 267.703125 170.058594 268.449219 169.757812 269.175781 C 169.457031 269.898438 169.089844 270.585938 168.652344 271.238281 C 168.214844 271.890625 167.71875 272.496094 167.164062 273.050781 C 166.609375 273.605469 166.007812 274.101562 165.351562 274.539062 C 164.699219 274.972656 164.011719 275.34375 163.285156 275.640625 C 162.5625 275.941406 161.8125 276.171875 161.042969 276.324219 C 160.273438 276.476562 159.496094 276.554688 158.710938 276.554688 Z M 149.050781 257.019531 C 148.695312 257.019531 148.339844 257.054688 147.988281 257.125 C 147.636719 257.195312 147.296875 257.296875 146.964844 257.433594 C 146.636719 257.570312 146.320312 257.738281 146.023438 257.9375 C 145.726562 258.136719 145.453125 258.363281 145.199219 258.613281 C 144.945312 258.867188 144.71875 259.144531 144.519531 259.441406 C 144.320312 259.738281 144.152344 260.050781 144.015625 260.382812 C 143.878906 260.710938 143.777344 261.050781 143.707031 261.402344 C 143.636719 261.753906 143.601562 262.109375 143.601562 262.464844 L 143.601562 264.601562 C 143.601562 264.960938 143.636719 265.3125 143.707031 265.664062 C 143.777344 266.015625 143.878906 266.355469 144.015625 266.6875 C 144.152344 267.015625 144.320312 267.328125 144.519531 267.625 C 144.71875 267.925781 144.945312 268.199219 145.199219 268.453125 C 145.453125 268.703125 145.726562 268.929688 146.023438 269.128906 C 146.320312 269.328125 146.636719 269.496094 146.964844 269.632812 C 147.296875 269.769531 147.636719 269.875 147.988281 269.945312 C 148.339844 270.011719 148.695312 270.050781 149.050781 270.050781 L 158.710938 270.050781 C 159.066406 270.050781 159.421875 270.011719 159.773438 269.945312 C 160.125 269.875 160.464844 269.769531 160.796875 269.632812 C 161.125 269.496094 161.441406 269.328125 161.738281 269.128906 C 162.035156 268.929688 162.308594 268.703125 162.5625 268.453125 C 162.816406 268.199219 163.042969 267.925781 163.242188 267.625 C 163.441406 267.328125 163.609375 267.015625 163.746094 266.6875 C 163.882812 266.355469 163.984375 266.015625 164.054688 265.664062 C 164.125 265.3125 164.160156 264.960938 164.160156 264.601562 L 164.160156 262.464844 C 164.160156 262.109375 164.125 261.753906 164.054688 261.402344 C 163.984375 261.050781 163.882812 260.710938 163.746094 260.382812 C 163.609375 260.050781 163.441406 259.738281 163.242188 259.441406 C 163.042969 259.144531 162.816406 258.867188 162.5625 258.613281 C 162.308594 258.363281 162.035156 258.136719 161.738281 257.9375 C 161.441406 257.738281 161.125 257.570312 160.796875 257.433594 C 160.464844 257.296875 160.125 257.195312 159.773438 257.125 C 159.421875 257.054688 159.066406 257.019531 158.710938 257.019531 Z M 149.050781 257.019531 " fill-opacity="1" fill-rule="nonzero"/><path fill="#ffffff" d="M 185.785156 276.554688 L 176.125 276.554688 C 175.339844 276.554688 174.5625 276.476562 173.792969 276.324219 C 173.023438 276.171875 172.273438 275.941406 171.546875 275.644531 C 170.824219 275.34375 170.132812 274.972656 169.480469 274.539062 C 168.828125 274.101562 168.226562 273.605469 167.667969 273.050781 C 167.113281 272.496094 166.617188 271.890625 166.183594 271.238281 C 165.746094 270.585938 165.375 269.898438 165.074219 269.175781 C 164.773438 268.449219 164.546875 267.703125 164.394531 266.933594 C 164.238281 266.164062 164.164062 265.386719 164.160156 264.601562 L 164.160156 262.464844 C 164.164062 261.679688 164.238281 260.902344 164.394531 260.132812 C 164.546875 259.363281 164.773438 258.617188 165.074219 257.894531 C 165.375 257.167969 165.746094 256.480469 166.183594 255.828125 C 166.617188 255.175781 167.113281 254.570312 167.667969 254.015625 C 168.226562 253.460938 168.828125 252.964844 169.480469 252.53125 C 170.132812 252.09375 170.824219 251.726562 171.546875 251.425781 C 172.273438 251.125 173.023438 250.898438 173.792969 250.742188 C 174.5625 250.589844 175.339844 250.511719 176.125 250.511719 L 185.785156 250.511719 C 186.570312 250.511719 187.347656 250.589844 188.117188 250.742188 C 188.886719 250.898438 189.632812 251.125 190.359375 251.425781 C 191.085938 251.726562 191.773438 252.09375 192.425781 252.53125 C 193.078125 252.964844 193.683594 253.460938 194.238281 254.015625 C 194.792969 254.570312 195.289062 255.175781 195.726562 255.828125 C 196.164062 256.480469 196.53125 257.167969 196.832031 257.894531 C 197.132812 258.617188 197.359375 259.363281 197.515625 260.132812 C 197.667969 260.902344 197.746094 261.679688 197.746094 262.464844 L 197.746094 264.601562 C 197.746094 265.386719 197.667969 266.164062 197.515625 266.933594 C 197.359375 267.703125 197.132812 268.449219 196.832031 269.175781 C 196.53125 269.898438 196.164062 270.585938 195.726562 271.238281 C 195.289062 271.890625 194.792969 272.496094 194.238281 273.050781 C 193.683594 273.605469 193.078125 274.101562 192.425781 274.539062 C 191.773438 274.972656 191.085938 275.34375 190.359375 275.644531 C 189.632812 275.941406 188.886719 276.171875 188.117188 276.324219 C 187.347656 276.476562 186.570312 276.554688 185.785156 276.554688 Z M 176.125 257.019531 C 175.765625 257.019531 175.414062 257.054688 175.0625 257.125 C 174.710938 257.195312 174.371094 257.296875 174.039062 257.433594 C 173.707031 257.570312 173.394531 257.738281 173.097656 257.9375 C 172.800781 258.136719 172.523438 258.363281 172.273438 258.613281 C 172.019531 258.867188 171.792969 259.144531 171.59375 259.441406 C 171.394531 259.738281 171.226562 260.050781 171.089844 260.382812 C 170.953125 260.710938 170.847656 261.050781 170.777344 261.402344 C 170.710938 261.753906 170.675781 262.109375 170.671875 262.464844 L 170.671875 264.601562 C 170.675781 264.960938 170.710938 265.3125 170.777344 265.664062 C 170.847656 266.015625 170.953125 266.355469 171.089844 266.6875 C 171.226562 267.015625 171.394531 267.328125 171.59375 267.625 C 171.792969 267.925781 172.019531 268.199219 172.273438 268.453125 C 172.523438 268.703125 172.800781 268.929688 173.097656 269.128906 C 173.394531 269.328125 173.707031 269.496094 174.039062 269.632812 C 174.371094 269.769531 174.710938 269.875 175.0625 269.945312 C 175.414062 270.011719 175.765625 270.050781 176.125 270.050781 L 185.785156 270.050781 C 186.140625 270.050781 186.496094 270.011719 186.847656 269.945312 C 187.199219 269.875 187.539062 269.769531 187.867188 269.632812 C 188.199219 269.496094 188.511719 269.328125 188.808594 269.128906 C 189.109375 268.929688 189.382812 268.703125 189.636719 268.453125 C 189.890625 268.199219 190.113281 267.925781 190.3125 267.625 C 190.511719 267.328125 190.679688 267.015625 190.816406 266.6875 C 190.957031 266.355469 191.058594 266.015625 191.128906 265.664062 C 191.199219 265.3125 191.234375 264.960938 191.234375 264.601562 L 191.234375 262.464844 C 191.234375 262.109375 191.199219 261.753906 191.128906 261.402344 C 191.058594 261.050781 190.957031 260.710938 190.816406 260.382812 C 190.679688 260.050781 190.511719 259.738281 190.3125 259.441406 C 190.113281 259.144531 189.890625 258.867188 189.636719 258.613281 C 189.382812 258.363281 189.109375 258.136719 188.808594 257.9375 C 188.511719 257.738281 188.199219 257.570312 187.867188 257.433594 C 187.539062 257.296875 187.199219 257.195312 186.847656 257.125 C 186.496094 257.054688 186.140625 257.019531 185.785156 257.019531 Z M 176.125 257.019531 " fill-opacity="1" fill-rule="nonzero"/><path fill="#ffffff" d="M 212.855469 276.554688 L 203.199219 276.554688 C 202.410156 276.554688 201.632812 276.476562 200.863281 276.324219 C 200.09375 276.171875 199.347656 275.941406 198.621094 275.644531 C 197.894531 275.34375 197.207031 274.972656 196.554688 274.539062 C 195.902344 274.101562 195.296875 273.605469 194.742188 273.050781 C 194.1875 272.496094 193.691406 271.890625 193.253906 271.238281 C 192.820312 270.585938 192.449219 269.898438 192.148438 269.175781 C 191.847656 268.449219 191.621094 267.703125 191.464844 266.933594 C 191.3125 266.164062 191.234375 265.386719 191.234375 264.601562 L 191.234375 262.464844 C 191.234375 261.679688 191.3125 260.902344 191.464844 260.132812 C 191.621094 259.363281 191.847656 258.617188 192.148438 257.894531 C 192.449219 257.167969 192.820312 256.480469 193.253906 255.828125 C 193.691406 255.175781 194.1875 254.570312 194.742188 254.015625 C 195.296875 253.460938 195.902344 252.964844 196.554688 252.53125 C 197.207031 252.09375 197.894531 251.726562 198.621094 251.425781 C 199.347656 251.125 200.09375 250.898438 200.863281 250.742188 C 201.632812 250.589844 202.414062 250.511719 203.199219 250.511719 L 212.855469 250.511719 C 213.640625 250.511719 214.417969 250.589844 215.1875 250.742188 C 215.957031 250.898438 216.707031 251.125 217.433594 251.425781 C 218.15625 251.726562 218.847656 252.09375 219.5 252.53125 C 220.152344 252.964844 220.753906 253.460938 221.3125 254.015625 C 221.867188 254.570312 222.363281 255.175781 222.796875 255.828125 C 223.234375 256.480469 223.605469 257.167969 223.90625 257.890625 C 224.207031 258.617188 224.433594 259.363281 224.585938 260.132812 C 224.742188 260.902344 224.816406 261.679688 224.820312 262.464844 L 224.820312 264.601562 C 224.816406 265.386719 224.742188 266.164062 224.585938 266.933594 C 224.433594 267.703125 224.207031 268.449219 223.90625 269.175781 C 223.605469 269.898438 223.234375 270.585938 222.796875 271.238281 C 222.363281 271.890625 221.867188 272.496094 221.3125 273.050781 C 220.753906 273.605469 220.152344 274.101562 219.5 274.539062 C 218.847656 274.972656 218.15625 275.34375 217.433594 275.644531 C 216.707031 275.941406 215.957031 276.171875 215.1875 276.324219 C 214.417969 276.476562 213.640625 276.554688 212.855469 276.554688 Z M 203.199219 257.019531 C 202.839844 257.019531 202.484375 257.054688 202.132812 257.125 C 201.785156 257.195312 201.441406 257.296875 201.113281 257.433594 C 200.78125 257.570312 200.46875 257.738281 200.171875 257.9375 C 199.871094 258.136719 199.597656 258.363281 199.34375 258.613281 C 199.089844 258.867188 198.867188 259.144531 198.667969 259.441406 C 198.46875 259.738281 198.300781 260.050781 198.164062 260.382812 C 198.027344 260.710938 197.921875 261.050781 197.851562 261.402344 C 197.78125 261.753906 197.746094 262.109375 197.746094 262.464844 L 197.746094 264.601562 C 197.746094 264.960938 197.78125 265.3125 197.851562 265.664062 C 197.921875 266.015625 198.027344 266.355469 198.164062 266.6875 C 198.300781 267.015625 198.46875 267.328125 198.667969 267.625 C 198.867188 267.925781 199.089844 268.199219 199.34375 268.453125 C 199.597656 268.703125 199.871094 268.929688 200.171875 269.128906 C 200.46875 269.328125 200.78125 269.496094 201.113281 269.632812 C 201.441406 269.769531 201.785156 269.875 202.132812 269.945312 C 202.484375 270.011719 202.839844 270.050781 203.199219 270.050781 L 212.855469 270.050781 C 213.214844 270.050781 213.566406 270.015625 213.917969 269.945312 C 214.269531 269.875 214.609375 269.769531 214.941406 269.632812 C 215.273438 269.496094 215.585938 269.328125 215.882812 269.128906 C 216.179688 268.929688 216.457031 268.703125 216.707031 268.453125 C 216.960938 268.199219 217.1875 267.925781 217.386719 267.625 C 217.585938 267.328125 217.753906 267.015625 217.890625 266.6875 C 218.027344 266.355469 218.132812 266.015625 218.203125 265.664062 C 218.273438 265.3125 218.308594 264.960938 218.308594 264.601562 L 218.308594 262.464844 C 218.308594 262.109375 218.273438 261.753906 218.203125 261.402344 C 218.132812 261.050781 218.027344 260.710938 217.890625 260.382812 C 217.753906 260.050781 217.585938 259.738281 217.386719 259.441406 C 217.1875 259.144531 216.960938 258.867188 216.707031 258.613281 C 216.457031 258.363281 216.179688 258.136719 215.882812 257.9375 C 215.585938 257.738281 215.273438 257.570312 214.941406 257.433594 C 214.609375 257.296875 214.269531 257.195312 213.917969 257.125 C 213.566406 257.054688 213.214844 257.019531 212.855469 257.019531 Z M 203.199219 257.019531 " fill-opacity="1" fill-rule="nonzero"/><path fill="#ffffff" d="M 239.929688 276.554688 L 230.269531 276.554688 C 229.484375 276.554688 228.707031 276.476562 227.9375 276.324219 C 227.167969 276.171875 226.417969 275.941406 225.695312 275.644531 C 224.96875 275.34375 224.28125 274.972656 223.628906 274.539062 C 222.972656 274.101562 222.371094 273.605469 221.816406 273.050781 C 221.261719 272.496094 220.765625 271.890625 220.328125 271.238281 C 219.890625 270.589844 219.523438 269.898438 219.222656 269.175781 C 218.921875 268.449219 218.691406 267.703125 218.539062 266.933594 C 218.386719 266.164062 218.308594 265.386719 218.308594 264.601562 L 218.308594 262.464844 C 218.308594 261.679688 218.386719 260.902344 218.539062 260.132812 C 218.691406 259.363281 218.921875 258.617188 219.222656 257.894531 C 219.523438 257.167969 219.890625 256.480469 220.328125 255.828125 C 220.765625 255.175781 221.261719 254.570312 221.816406 254.015625 C 222.371094 253.460938 222.972656 252.964844 223.628906 252.53125 C 224.28125 252.09375 224.96875 251.726562 225.695312 251.425781 C 226.417969 251.125 227.167969 250.898438 227.9375 250.742188 C 228.707031 250.589844 229.484375 250.511719 230.269531 250.511719 L 239.929688 250.511719 C 240.714844 250.511719 241.492188 250.589844 242.261719 250.742188 C 243.03125 250.898438 243.777344 251.125 244.503906 251.425781 C 245.230469 251.726562 245.917969 252.09375 246.570312 252.53125 C 247.222656 252.964844 247.828125 253.460938 248.382812 254.015625 C 248.9375 254.570312 249.433594 255.175781 249.871094 255.828125 C 250.308594 256.480469 250.675781 257.167969 250.976562 257.894531 C 251.277344 258.617188 251.503906 259.363281 251.660156 260.132812 C 251.8125 260.902344 251.890625 261.679688 251.890625 262.464844 L 251.890625 264.601562 C 251.890625 265.386719 251.8125 266.164062 251.660156 266.933594 C 251.503906 267.703125 251.277344 268.449219 250.976562 269.175781 C 250.675781 269.898438 250.308594 270.585938 249.871094 271.238281 C 249.433594 271.890625 248.9375 272.496094 248.382812 273.050781 C 247.828125 273.605469 247.222656 274.101562 246.570312 274.539062 C 245.917969 274.972656 245.230469 275.34375 244.503906 275.640625 C 243.777344 275.941406 243.03125 276.171875 242.261719 276.324219 C 241.492188 276.476562 240.714844 276.554688 239.929688 276.554688 Z M 230.269531 257.019531 C 229.910156 257.019531 229.558594 257.054688 229.207031 257.125 C 228.855469 257.195312 228.515625 257.296875 228.183594 257.433594 C 227.855469 257.570312 227.539062 257.738281 227.242188 257.9375 C 226.945312 258.136719 226.671875 258.363281 226.417969 258.613281 C 226.164062 258.867188 225.9375 259.144531 225.738281 259.441406 C 225.539062 259.738281 225.371094 260.050781 225.234375 260.382812 C 225.097656 260.710938 224.996094 261.050781 224.925781 261.402344 C 224.855469 261.753906 224.820312 262.109375 224.820312 262.464844 L 224.820312 264.601562 C 224.820312 264.960938 224.855469 265.3125 224.925781 265.664062 C 224.996094 266.015625 225.097656 266.355469 225.234375 266.6875 C 225.371094 267.015625 225.539062 267.328125 225.738281 267.625 C 225.9375 267.925781 226.164062 268.199219 226.417969 268.453125 C 226.671875 268.703125 226.945312 268.929688 227.242188 269.128906 C 227.539062 269.328125 227.855469 269.496094 228.183594 269.632812 C 228.515625 269.769531 228.855469 269.875 229.207031 269.945312 C 229.558594 270.015625 229.910156 270.050781 230.269531 270.050781 L 239.929688 270.050781 C 240.285156 270.050781 240.640625 270.011719 240.992188 269.945312 C 241.34375 269.875 241.683594 269.769531 242.011719 269.632812 C 242.34375 269.496094 242.65625 269.328125 242.957031 269.128906 C 243.253906 268.929688 243.527344 268.703125 243.78125 268.453125 C 244.035156 268.199219 244.261719 267.925781 244.457031 267.625 C 244.65625 267.328125 244.824219 267.015625 244.960938 266.6875 C 245.101562 266.355469 245.203125 266.015625 245.273438 265.664062 C 245.34375 265.3125 245.378906 264.960938 245.378906 264.601562 L 245.378906 262.464844 C 245.378906 262.109375 245.34375 261.753906 245.273438 261.402344 C 245.203125 261.050781 245.101562 260.710938 244.960938 260.382812 C 244.824219 260.050781 244.65625 259.738281 244.457031 259.441406 C 244.261719 259.144531 244.035156 258.867188 243.78125 258.613281 C 243.527344 258.363281 243.253906 258.136719 242.957031 257.9375 C 242.65625 257.738281 242.34375 257.570312 242.011719 257.433594 C 241.683594 257.296875 241.34375 257.195312 240.992188 257.125 C 240.640625 257.054688 240.285156 257.019531 239.929688 257.019531 Z M 230.269531 257.019531 " fill-opacity="1" fill-rule="nonzero"/><path fill="#ffffff" d="M 257.066406 179.308594 L 253.898438 179.308594 C 253.371094 179.308594 252.84375 179.28125 252.316406 179.226562 C 251.792969 179.175781 251.269531 179.097656 250.75 178.996094 C 250.230469 178.890625 249.71875 178.761719 249.214844 178.609375 C 248.707031 178.453125 248.210938 178.277344 247.722656 178.074219 C 247.234375 177.871094 246.757812 177.644531 246.289062 177.398438 C 245.824219 177.148438 245.371094 176.875 244.933594 176.582031 C 244.492188 176.289062 244.070312 175.972656 243.660156 175.640625 C 243.25 175.304688 242.859375 174.949219 242.484375 174.574219 C 242.113281 174.203125 241.757812 173.8125 241.421875 173.402344 C 241.085938 172.996094 240.773438 172.570312 240.476562 172.132812 C 240.183594 171.691406 239.914062 171.238281 239.664062 170.773438 C 239.414062 170.308594 239.1875 169.832031 238.984375 169.34375 C 238.78125 168.855469 238.605469 168.359375 238.449219 167.851562 C 238.296875 167.347656 238.167969 166.835938 238.0625 166.316406 C 237.960938 165.800781 237.882812 165.277344 237.832031 164.75 C 237.777344 164.226562 237.75 163.699219 237.75 163.171875 L 237.75 131.449219 C 237.75 130.921875 237.777344 130.394531 237.832031 129.871094 C 237.882812 129.34375 237.960938 128.820312 238.0625 128.304688 C 238.167969 127.785156 238.296875 127.273438 238.449219 126.769531 C 238.605469 126.261719 238.78125 125.765625 238.984375 125.277344 C 239.1875 124.789062 239.414062 124.3125 239.664062 123.847656 C 239.914062 123.382812 240.183594 122.929688 240.476562 122.488281 C 240.773438 122.050781 241.085938 121.625 241.421875 121.21875 C 241.757812 120.808594 242.113281 120.417969 242.484375 120.046875 C 242.859375 119.671875 243.25 119.316406 243.660156 118.980469 C 244.070312 118.644531 244.492188 118.332031 244.933594 118.039062 C 245.371094 117.746094 245.824219 117.472656 246.289062 117.222656 C 246.757812 116.976562 247.234375 116.75 247.722656 116.546875 C 248.210938 116.34375 248.707031 116.164062 249.214844 116.011719 C 249.71875 115.859375 250.230469 115.730469 250.75 115.625 C 251.269531 115.523438 251.792969 115.445312 252.316406 115.390625 C 252.84375 115.339844 253.371094 115.3125 253.898438 115.3125 L 257.066406 115.3125 C 257.59375 115.3125 258.125 115.339844 258.648438 115.390625 C 259.175781 115.445312 259.699219 115.523438 260.214844 115.625 C 260.734375 115.730469 261.246094 115.859375 261.753906 116.011719 C 262.257812 116.164062 262.753906 116.34375 263.242188 116.546875 C 263.734375 116.75 264.210938 116.976562 264.675781 117.222656 C 265.140625 117.472656 265.59375 117.746094 266.035156 118.039062 C 266.472656 118.332031 266.898438 118.644531 267.308594 118.980469 C 267.714844 119.316406 268.105469 119.671875 268.480469 120.046875 C 268.855469 120.417969 269.210938 120.808594 269.542969 121.21875 C 269.878906 121.625 270.195312 122.050781 270.488281 122.488281 C 270.78125 122.929688 271.054688 123.382812 271.304688 123.847656 C 271.554688 124.3125 271.777344 124.789062 271.980469 125.277344 C 272.183594 125.765625 272.363281 126.261719 272.515625 126.769531 C 272.671875 127.273438 272.800781 127.785156 272.902344 128.304688 C 273.007812 128.820312 273.085938 129.34375 273.136719 129.867188 C 273.1875 130.394531 273.214844 130.921875 273.214844 131.449219 L 273.214844 163.171875 C 273.214844 163.699219 273.1875 164.226562 273.136719 164.75 C 273.085938 165.277344 273.007812 165.800781 272.902344 166.316406 C 272.800781 166.835938 272.671875 167.347656 272.515625 167.851562 C 272.363281 168.359375 272.183594 168.855469 271.980469 169.34375 C 271.777344 169.832031 271.554688 170.308594 271.304688 170.773438 C 271.054688 171.238281 270.78125 171.691406 270.488281 172.132812 C 270.195312 172.570312 269.878906 172.996094 269.542969 173.402344 C 269.210938 173.8125 268.855469 174.203125 268.480469 174.574219 C 268.105469 174.949219 267.714844 175.304688 267.308594 175.640625 C 266.898438 175.972656 266.472656 176.289062 266.035156 176.582031 C 265.59375 176.875 265.140625 177.148438 264.675781 177.398438 C 264.210938 177.644531 263.730469 177.871094 263.242188 178.074219 C 262.753906 178.277344 262.257812 178.453125 261.753906 178.609375 C 261.246094 178.761719 260.734375 178.890625 260.214844 178.996094 C 259.699219 179.097656 259.175781 179.175781 258.648438 179.226562 C 258.125 179.28125 257.59375 179.308594 257.066406 179.308594 Z M 253.898438 121.820312 C 253.265625 121.820312 252.640625 121.882812 252.019531 122.007812 C 251.398438 122.128906 250.796875 122.3125 250.214844 122.554688 C 249.628906 122.796875 249.074219 123.09375 248.546875 123.445312 C 248.023438 123.796875 247.535156 124.195312 247.089844 124.644531 C 246.640625 125.089844 246.242188 125.578125 245.890625 126.101562 C 245.539062 126.628906 245.242188 127.183594 245 127.765625 C 244.757812 128.351562 244.574219 128.953125 244.449219 129.570312 C 244.324219 130.191406 244.261719 130.816406 244.261719 131.449219 L 244.261719 163.171875 C 244.261719 163.804688 244.324219 164.429688 244.449219 165.046875 C 244.574219 165.667969 244.757812 166.269531 245 166.855469 C 245.242188 167.4375 245.539062 167.992188 245.890625 168.519531 C 246.242188 169.042969 246.640625 169.53125 247.089844 169.976562 C 247.535156 170.425781 248.023438 170.824219 248.546875 171.175781 C 249.074219 171.527344 249.628906 171.824219 250.214844 172.066406 C 250.796875 172.308594 251.398438 172.488281 252.019531 172.613281 C 252.640625 172.738281 253.265625 172.800781 253.898438 172.800781 L 257.066406 172.800781 C 257.699219 172.800781 258.324219 172.738281 258.945312 172.613281 C 259.566406 172.488281 260.167969 172.308594 260.753906 172.066406 C 261.335938 171.824219 261.894531 171.527344 262.417969 171.175781 C 262.945312 170.824219 263.429688 170.425781 263.878906 169.976562 C 264.324219 169.53125 264.726562 169.042969 265.078125 168.519531 C 265.429688 167.992188 265.726562 167.4375 265.96875 166.855469 C 266.210938 166.269531 266.394531 165.667969 266.515625 165.046875 C 266.640625 164.429688 266.703125 163.804688 266.703125 163.171875 L 266.703125 131.449219 C 266.703125 130.816406 266.640625 130.191406 266.515625 129.570312 C 266.394531 128.953125 266.210938 128.351562 265.96875 127.765625 C 265.726562 127.183594 265.429688 126.628906 265.078125 126.101562 C 264.726562 125.578125 264.324219 125.089844 263.878906 124.644531 C 263.429688 124.195312 262.945312 123.796875 262.417969 123.445312 C 261.894531 123.09375 261.335938 122.796875 260.753906 122.554688 C 260.167969 122.3125 259.566406 122.128906 258.945312 122.007812 C 258.324219 121.882812 257.699219 121.820312 257.066406 121.820312 Z M 253.898438 121.820312 " fill-opacity="1" fill-rule="nonzero"/><path fill="#ffffff" d="M 271.089844 232.507812 C 269.765625 232.511719 268.464844 232.351562 267.179688 232.035156 C 265.894531 231.71875 264.671875 231.25 263.5 230.632812 C 262.332031 230.011719 261.257812 229.261719 260.273438 228.378906 C 259.289062 227.496094 258.425781 226.507812 257.6875 225.414062 L 239.90625 199.136719 C 239.613281 198.699219 239.335938 198.246094 239.085938 197.78125 C 238.832031 197.316406 238.605469 196.839844 238.398438 196.355469 C 238.195312 195.867188 238.015625 195.371094 237.859375 194.867188 C 237.703125 194.359375 237.570312 193.851562 237.464844 193.332031 C 237.359375 192.8125 237.277344 192.292969 237.222656 191.765625 C 237.167969 191.242188 237.140625 190.714844 237.136719 190.1875 C 237.132812 189.65625 237.15625 189.128906 237.207031 188.605469 C 237.253906 188.078125 237.332031 187.554688 237.429688 187.035156 C 237.53125 186.515625 237.65625 186.003906 237.808594 185.496094 C 237.957031 184.992188 238.132812 184.492188 238.332031 184.003906 C 238.53125 183.515625 238.757812 183.035156 239.003906 182.570312 C 239.25 182.101562 239.519531 181.648438 239.8125 181.207031 C 240.101562 180.765625 240.414062 180.339844 240.746094 179.929688 C 241.082031 179.519531 241.433594 179.125 241.804688 178.75 C 242.175781 178.375 242.566406 178.015625 242.972656 177.679688 C 243.382812 177.34375 243.804688 177.027344 244.242188 176.730469 L 246.863281 174.957031 C 247.304688 174.660156 247.753906 174.386719 248.21875 174.136719 C 248.6875 173.886719 249.160156 173.660156 249.648438 173.453125 C 250.136719 173.25 250.632812 173.070312 251.140625 172.914062 C 251.644531 172.757812 252.15625 172.628906 252.671875 172.523438 C 253.191406 172.414062 253.714844 172.335938 254.238281 172.28125 C 254.765625 172.226562 255.292969 172.199219 255.820312 172.195312 C 256.351562 172.191406 256.878906 172.214844 257.40625 172.265625 C 257.929688 172.3125 258.453125 172.390625 258.972656 172.488281 C 259.492188 172.589844 260.003906 172.714844 260.511719 172.867188 C 261.019531 173.015625 261.515625 173.191406 262.007812 173.390625 C 262.496094 173.589844 262.976562 173.8125 263.441406 174.058594 C 263.910156 174.304688 264.363281 174.574219 264.804688 174.863281 C 265.246094 175.15625 265.671875 175.46875 266.085938 175.800781 C 266.496094 176.132812 266.890625 176.484375 267.265625 176.855469 C 267.640625 177.226562 268 177.617188 268.335938 178.023438 C 268.675781 178.429688 268.992188 178.851562 269.289062 179.289062 L 287.066406 205.566406 C 287.363281 206.003906 287.636719 206.457031 287.886719 206.921875 C 288.136719 207.386719 288.367188 207.863281 288.570312 208.347656 C 288.773438 208.835938 288.957031 209.332031 289.109375 209.835938 C 289.265625 210.34375 289.398438 210.855469 289.503906 211.371094 C 289.609375 211.890625 289.6875 212.410156 289.742188 212.9375 C 289.796875 213.460938 289.828125 213.988281 289.828125 214.515625 C 289.832031 215.046875 289.808594 215.574219 289.761719 216.097656 C 289.710938 216.625 289.636719 217.148438 289.535156 217.664062 C 289.433594 218.183594 289.308594 218.695312 289.160156 219.203125 C 289.007812 219.710938 288.832031 220.207031 288.632812 220.695312 C 288.433594 221.1875 288.210938 221.664062 287.964844 222.132812 C 287.71875 222.597656 287.449219 223.054688 287.160156 223.496094 C 286.867188 223.9375 286.554688 224.363281 286.222656 224.773438 C 285.890625 225.183594 285.539062 225.574219 285.164062 225.953125 C 284.792969 226.328125 284.40625 226.683594 284 227.023438 C 283.59375 227.359375 283.167969 227.675781 282.730469 227.972656 L 280.109375 229.746094 C 278.777344 230.644531 277.34375 231.332031 275.804688 231.804688 C 274.269531 232.273438 272.695312 232.507812 271.089844 232.507812 Z M 255.894531 178.699219 C 253.929688 178.695312 252.136719 179.246094 250.511719 180.347656 L 247.886719 182.117188 C 247.363281 182.472656 246.878906 182.875 246.433594 183.324219 C 245.988281 183.773438 245.59375 184.261719 245.242188 184.789062 C 244.894531 185.316406 244.601562 185.875 244.363281 186.460938 C 244.125 187.046875 243.945312 187.648438 243.824219 188.269531 C 243.703125 188.890625 243.644531 189.515625 243.648438 190.148438 C 243.652344 190.78125 243.71875 191.40625 243.84375 192.027344 C 243.972656 192.644531 244.15625 193.246094 244.402344 193.832031 C 244.648438 194.414062 244.949219 194.964844 245.300781 195.492188 L 263.078125 221.769531 C 263.433594 222.292969 263.835938 222.777344 264.289062 223.21875 C 264.738281 223.664062 265.226562 224.058594 265.753906 224.410156 C 266.28125 224.757812 266.839844 225.050781 267.425781 225.289062 C 268.011719 225.527344 268.613281 225.707031 269.234375 225.824219 C 269.855469 225.945312 270.484375 226.003906 271.117188 226 C 271.75 225.996094 272.375 225.933594 272.996094 225.808594 C 273.613281 225.679688 274.214844 225.496094 274.800781 225.25 C 275.382812 225.007812 275.9375 224.707031 276.460938 224.355469 L 279.085938 222.582031 C 279.609375 222.226562 280.09375 221.824219 280.539062 221.375 C 280.980469 220.925781 281.378906 220.4375 281.726562 219.910156 C 282.074219 219.382812 282.367188 218.824219 282.605469 218.238281 C 282.847656 217.652344 283.023438 217.050781 283.144531 216.429688 C 283.265625 215.808594 283.324219 215.183594 283.320312 214.550781 C 283.316406 213.917969 283.253906 213.292969 283.125 212.671875 C 283 212.054688 282.8125 211.453125 282.570312 210.871094 C 282.324219 210.289062 282.023438 209.734375 281.671875 209.210938 L 263.894531 182.929688 C 263.453125 182.277344 262.9375 181.6875 262.351562 181.160156 C 261.761719 180.632812 261.121094 180.1875 260.421875 179.816406 C 259.726562 179.449219 258.992188 179.167969 258.226562 178.980469 C 257.460938 178.789062 256.683594 178.695312 255.894531 178.699219 Z M 255.894531 178.699219 " fill-opacity="1" fill-rule="nonzero"/><path fill="#ffffff" d="M 269.960938 150.5625 L 255.484375 150.5625 C 255.050781 150.5625 254.636719 150.480469 254.238281 150.316406 C 253.839844 150.152344 253.488281 149.914062 253.179688 149.609375 C 252.875 149.304688 252.640625 148.953125 252.476562 148.554688 C 252.308594 148.15625 252.226562 147.742188 252.226562 147.308594 C 252.226562 146.878906 252.308594 146.464844 252.476562 146.066406 C 252.640625 145.667969 252.875 145.316406 253.179688 145.007812 C 253.488281 144.703125 253.839844 144.46875 254.238281 144.304688 C 254.636719 144.140625 255.050781 144.058594 255.484375 144.058594 L 269.960938 144.058594 C 270.390625 144.058594 270.808594 144.140625 271.207031 144.304688 C 271.605469 144.46875 271.957031 144.703125 272.261719 145.007812 C 272.566406 145.316406 272.804688 145.667969 272.96875 146.066406 C 273.132812 146.464844 273.214844 146.878906 273.214844 147.308594 C 273.214844 147.742188 273.132812 148.15625 272.96875 148.554688 C 272.804688 148.953125 272.566406 149.304688 272.261719 149.609375 C 271.957031 149.914062 271.605469 150.152344 271.207031 150.316406 C 270.808594 150.480469 270.390625 150.5625 269.960938 150.5625 Z M 269.960938 150.5625 " fill-opacity="1" fill-rule="nonzero"/><path fill="#ffffff" d="M 267.058594 216.914062 L 253.664062 216.914062 C 253.234375 216.914062 252.816406 216.832031 252.417969 216.664062 C 252.019531 216.5 251.667969 216.265625 251.363281 215.960938 C 251.058594 215.65625 250.820312 215.304688 250.65625 214.90625 C 250.492188 214.507812 250.410156 214.089844 250.410156 213.660156 C 250.410156 213.226562 250.492188 212.8125 250.65625 212.414062 C 250.820312 212.015625 251.058594 211.664062 251.363281 211.359375 C 251.667969 211.054688 252.019531 210.820312 252.417969 210.652344 C 252.816406 210.488281 253.234375 210.40625 253.664062 210.40625 L 267.058594 210.40625 C 267.492188 210.40625 267.90625 210.488281 268.304688 210.652344 C 268.703125 210.820312 269.058594 211.054688 269.363281 211.359375 C 269.667969 211.664062 269.902344 212.015625 270.066406 212.414062 C 270.234375 212.8125 270.316406 213.226562 270.316406 213.660156 C 270.316406 214.089844 270.234375 214.507812 270.066406 214.90625 C 269.902344 215.304688 269.667969 215.65625 269.363281 215.960938 C 269.058594 216.265625 268.703125 216.5 268.304688 216.664062 C 267.90625 216.832031 267.492188 216.914062 267.058594 216.914062 Z M 267.058594 216.914062 " fill-opacity="1" fill-rule="nonzero"/><path fill="#ffffff" d="M 208.027344 216.914062 L 194.492188 216.914062 C 194.058594 216.914062 193.644531 216.832031 193.246094 216.664062 C 192.84375 216.5 192.492188 216.265625 192.1875 215.960938 C 191.882812 215.65625 191.648438 215.304688 191.484375 214.90625 C 191.316406 214.507812 191.234375 214.089844 191.234375 213.660156 C 191.234375 213.226562 191.316406 212.8125 191.484375 212.414062 C 191.648438 212.015625 191.882812 211.664062 192.1875 211.359375 C 192.492188 211.054688 192.84375 210.820312 193.246094 210.652344 C 193.644531 210.488281 194.058594 210.40625 194.492188 210.40625 L 208.027344 210.40625 C 208.457031 210.40625 208.875 210.488281 209.273438 210.652344 C 209.671875 210.820312 210.023438 211.054688 210.328125 211.359375 C 210.632812 211.664062 210.871094 212.015625 211.035156 212.414062 C 211.199219 212.8125 211.28125 213.226562 211.28125 213.660156 C 211.28125 214.089844 211.199219 214.507812 211.035156 214.90625 C 210.871094 215.304688 210.632812 215.65625 210.328125 215.960938 C 210.023438 216.265625 209.671875 216.5 209.273438 216.664062 C 208.875 216.832031 208.457031 216.914062 208.027344 216.914062 Z M 208.027344 216.914062 " fill-opacity="1" fill-rule="nonzero"/><path fill="#ffffff" d="M 118.914062 231.84375 C 118.480469 231.84375 118.066406 231.761719 117.667969 231.597656 C 117.265625 231.429688 116.914062 231.195312 116.609375 230.890625 C 116.304688 230.585938 116.070312 230.234375 115.902344 229.835938 C 115.738281 229.4375 115.65625 229.019531 115.65625 228.589844 L 115.65625 218.070312 C 115.65625 217.636719 115.738281 217.222656 115.90625 216.824219 C 116.070312 216.425781 116.304688 216.074219 116.609375 215.769531 C 116.914062 215.464844 117.265625 215.230469 117.667969 215.0625 C 118.066406 214.898438 118.480469 214.816406 118.914062 214.816406 C 119.34375 214.816406 119.757812 214.898438 120.160156 215.0625 C 120.558594 215.230469 120.910156 215.464844 121.214844 215.769531 C 121.519531 216.074219 121.753906 216.425781 121.921875 216.824219 C 122.085938 217.222656 122.167969 217.636719 122.167969 218.070312 L 122.167969 228.589844 C 122.167969 229.019531 122.085938 229.4375 121.921875 229.835938 C 121.753906 230.234375 121.519531 230.585938 121.214844 230.890625 C 120.910156 231.195312 120.558594 231.429688 120.160156 231.597656 C 119.757812 231.761719 119.34375 231.84375 118.914062 231.84375 Z M 118.914062 231.84375 " fill-opacity="1" fill-rule="nonzero"/><path fill="#ffffff" d="M 273.078125 271.671875 C 272.832031 271.671875 272.585938 271.644531 272.34375 271.589844 C 272.101562 271.53125 271.871094 271.449219 271.644531 271.339844 C 271.421875 271.230469 271.214844 271.097656 271.023438 270.941406 C 270.832031 270.785156 270.65625 270.609375 270.507812 270.414062 C 270.355469 270.21875 270.226562 270.007812 270.121094 269.78125 C 270.015625 269.554688 269.941406 269.320312 269.890625 269.078125 C 269.839844 268.835938 269.816406 268.589844 269.820312 268.34375 C 269.828125 268.09375 269.863281 267.851562 269.921875 267.609375 L 273.683594 252.957031 C 273.789062 252.535156 273.96875 252.152344 274.226562 251.804688 C 274.484375 251.453125 274.800781 251.167969 275.175781 250.949219 C 275.546875 250.726562 275.949219 250.582031 276.375 250.519531 C 276.804688 250.460938 277.230469 250.480469 277.652344 250.589844 C 278.070312 250.695312 278.453125 250.882812 278.800781 251.140625 C 279.148438 251.402344 279.429688 251.71875 279.652344 252.09375 C 279.871094 252.46875 280.007812 252.871094 280.066406 253.300781 C 280.128906 253.730469 280.101562 254.152344 279.992188 254.574219 L 276.230469 269.226562 C 276.140625 269.574219 275.996094 269.902344 275.796875 270.203125 C 275.601562 270.503906 275.359375 270.765625 275.074219 270.988281 C 274.789062 271.210938 274.476562 271.378906 274.132812 271.496094 C 273.792969 271.613281 273.441406 271.671875 273.078125 271.671875 Z M 273.078125 271.671875 " fill-opacity="1" fill-rule="nonzero"/><g clip-path="url(#4108a91016)"><path fill="#ffffff" d="M 186.398438 323.136719 C 183.488281 323.136719 180.582031 323.039062 177.679688 322.851562 C 174.777344 322.660156 171.882812 322.378906 168.996094 322 C 166.113281 321.625 163.242188 321.15625 160.390625 320.59375 C 157.535156 320.03125 154.703125 319.375 151.890625 318.628906 C 149.078125 317.882812 146.292969 317.046875 143.535156 316.121094 C 140.777344 315.195312 138.054688 314.179688 135.363281 313.074219 C 132.671875 311.972656 130.015625 310.785156 127.402344 309.507812 C 124.789062 308.234375 122.21875 306.875 119.691406 305.433594 C 117.164062 303.992188 114.6875 302.472656 112.257812 300.871094 C 109.832031 299.269531 107.457031 297.589844 105.136719 295.835938 C 102.820312 294.078125 100.558594 292.25 98.359375 290.347656 C 96.160156 288.449219 94.023438 286.476562 91.949219 284.4375 C 89.878906 282.394531 87.871094 280.292969 85.9375 278.121094 C 84 275.953125 82.136719 273.722656 80.347656 271.429688 C 78.554688 269.140625 76.839844 266.792969 75.199219 264.390625 C 73.5625 261.988281 72 259.539062 70.519531 257.035156 C 69.039062 254.53125 67.644531 251.984375 66.328125 249.390625 C 65.011719 246.796875 63.785156 244.164062 62.640625 241.492188 C 61.496094 238.820312 60.441406 236.113281 59.472656 233.371094 C 58.503906 230.628906 57.625 227.859375 56.835938 225.0625 C 56.046875 222.261719 55.347656 219.441406 54.742188 216.597656 C 54.136719 213.753906 53.625 210.894531 53.203125 208.019531 C 52.78125 205.140625 52.457031 202.253906 52.222656 199.355469 C 51.988281 196.457031 51.851562 193.554688 51.804688 190.648438 C 51.761719 187.742188 51.808594 184.835938 51.953125 181.933594 C 52.097656 179.03125 52.335938 176.132812 52.667969 173.246094 C 52.996094 170.359375 53.421875 167.484375 53.941406 164.621094 C 54.457031 161.761719 55.066406 158.921875 55.769531 156.101562 C 56.472656 153.277344 57.265625 150.484375 58.148438 147.714844 C 59.03125 144.941406 60.003906 142.203125 61.066406 139.496094 C 62.125 136.792969 63.273438 134.121094 64.507812 131.488281 C 65.742188 128.855469 67.058594 126.265625 68.460938 123.71875 C 69.863281 121.171875 71.347656 118.671875 72.910156 116.222656 C 74.476562 113.769531 76.117188 111.371094 77.839844 109.027344 C 79.558594 106.683594 81.351562 104.394531 83.21875 102.167969 C 85.089844 99.9375 87.027344 97.773438 89.035156 95.667969 C 91.042969 93.566406 93.117188 91.53125 95.257812 89.5625 C 97.398438 87.59375 99.601562 85.695312 101.867188 83.871094 C 104.128906 82.042969 106.449219 80.292969 108.828125 78.617188 C 111.203125 76.941406 113.632812 75.34375 116.113281 73.824219 C 118.59375 72.308594 121.121094 70.871094 123.695312 69.515625 C 126.269531 68.160156 128.886719 66.890625 131.542969 65.707031 C 134.199219 64.519531 136.890625 63.421875 139.617188 62.410156 C 142.347656 61.398438 145.105469 60.476562 147.890625 59.644531 C 150.679688 58.8125 153.492188 58.070312 156.324219 57.421875 C 159.160156 56.769531 162.015625 56.214844 164.886719 55.746094 C 167.757812 55.28125 170.640625 54.910156 173.539062 54.632812 C 176.433594 54.351562 179.335938 54.167969 182.242188 54.078125 C 185.152344 53.984375 188.058594 53.988281 190.96875 54.085938 C 193.875 54.183594 196.777344 54.375 199.671875 54.660156 C 202.566406 54.945312 205.449219 55.324219 208.320312 55.796875 C 211.191406 56.269531 214.042969 56.832031 216.878906 57.492188 C 219.710938 58.148438 222.519531 58.894531 225.304688 59.734375 C 228.09375 60.574219 230.847656 61.5 233.574219 62.519531 C 236.296875 63.535156 238.988281 64.640625 241.640625 65.832031 C 244.296875 67.023438 246.90625 68.300781 249.476562 69.660156 C 252.050781 71.019531 254.574219 72.464844 257.050781 73.988281 C 259.527344 75.511719 261.953125 77.113281 264.328125 78.796875 C 266.699219 80.476562 269.015625 82.234375 271.277344 84.0625 C 273.535156 85.894531 275.734375 87.796875 277.871094 89.769531 C 280.007812 91.746094 282.074219 93.785156 284.078125 95.894531 C 286.082031 98 288.015625 100.171875 289.878906 102.402344 C 291.742188 104.636719 293.53125 106.929688 295.246094 109.277344 C 296.960938 111.625 298.597656 114.027344 300.15625 116.480469 C 301.714844 118.9375 303.191406 121.4375 304.589844 123.988281 C 305.984375 126.539062 307.296875 129.132812 308.523438 131.769531 C 309.753906 134.402344 310.894531 137.078125 311.949219 139.785156 C 313.003906 142.496094 313.96875 145.234375 314.847656 148.007812 C 315.722656 150.78125 316.511719 153.578125 317.207031 156.398438 C 317.902344 159.222656 318.503906 162.066406 319.015625 164.925781 C 319.527344 167.789062 319.945312 170.664062 320.269531 173.554688 C 320.59375 176.441406 320.824219 179.339844 320.960938 182.242188 C 321.101562 185.144531 321.140625 188.050781 321.089844 190.957031 C 321.039062 193.863281 320.894531 196.765625 320.652344 199.664062 C 320.414062 202.5625 320.082031 205.449219 319.652344 208.324219 C 319.226562 211.199219 318.707031 214.058594 318.09375 216.898438 C 317.480469 219.742188 316.777344 222.5625 315.984375 225.359375 C 315.1875 228.152344 314.300781 230.921875 313.328125 233.660156 C 312.351562 236.398438 311.289062 239.105469 310.140625 241.773438 C 308.988281 244.445312 307.753906 247.074219 306.433594 249.664062 C 305.113281 252.257812 303.710938 254.800781 302.222656 257.300781 C 300.738281 259.800781 299.171875 262.25 297.527344 264.648438 C 295.882812 267.042969 294.164062 269.386719 292.367188 271.671875 C 290.570312 273.960938 288.699219 276.1875 286.757812 278.351562 C 284.816406 280.515625 282.808594 282.617188 280.730469 284.652344 C 278.65625 286.6875 276.511719 288.65625 274.308594 290.550781 C 272.105469 292.449219 269.839844 294.269531 267.515625 296.019531 C 265.195312 297.769531 262.816406 299.445312 260.386719 301.039062 C 257.953125 302.636719 255.472656 304.152344 252.941406 305.589844 C 250.414062 307.023438 247.839844 308.375 245.222656 309.644531 C 242.605469 310.914062 239.949219 312.097656 237.253906 313.191406 C 234.558594 314.289062 231.832031 315.296875 229.074219 316.21875 C 226.3125 317.136719 223.527344 317.96875 220.714844 318.707031 C 217.898438 319.449219 215.066406 320.09375 212.210938 320.652344 C 209.355469 321.207031 206.484375 321.671875 203.597656 322.039062 C 200.710938 322.410156 197.816406 322.6875 194.914062 322.871094 C 192.066406 323.046875 189.230469 323.136719 186.398438 323.136719 Z M 186.761719 62.175781 C 184.070312 62.175781 181.367188 62.257812 178.660156 62.425781 C 144.71875 64.542969 113.632812 79.738281 91.128906 105.214844 C 68.628906 130.695312 57.398438 163.402344 59.515625 197.320312 C 61.632812 231.234375 76.839844 262.296875 102.335938 284.785156 C 125.796875 305.476562 155.390625 316.628906 186.410156 316.628906 C 189.101562 316.628906 191.800781 316.542969 194.507812 316.375 C 228.449219 314.261719 259.535156 299.066406 282.039062 273.585938 C 304.542969 248.109375 315.769531 215.398438 313.652344 181.484375 C 311.535156 147.566406 296.328125 116.503906 270.832031 94.019531 C 247.371094 73.328125 217.777344 62.175781 186.761719 62.175781 Z M 186.761719 62.175781 " fill-opacity="1" fill-rule="nonzero"/></g><path fill="#ffffff" d="M 118.914062 106.964844 C 118.578125 106.964844 118.253906 106.914062 117.933594 106.8125 C 117.613281 106.710938 117.320312 106.566406 117.042969 106.375 C 116.769531 106.183594 116.53125 105.953125 116.328125 105.6875 C 116.125 105.425781 115.964844 105.132812 115.851562 104.820312 C 115.738281 104.507812 115.671875 104.183594 115.660156 103.847656 C 115.644531 103.515625 115.679688 103.1875 115.769531 102.863281 C 115.855469 102.539062 115.988281 102.238281 116.167969 101.957031 C 116.347656 101.675781 116.566406 101.429688 116.824219 101.214844 L 124.71875 94.617188 C 125.050781 94.339844 125.421875 94.136719 125.835938 94.007812 C 126.246094 93.878906 126.667969 93.835938 127.097656 93.871094 C 127.527344 93.910156 127.933594 94.03125 128.316406 94.230469 C 128.699219 94.429688 129.03125 94.695312 129.304688 95.027344 C 129.582031 95.359375 129.785156 95.730469 129.914062 96.140625 C 130.042969 96.554688 130.089844 96.972656 130.050781 97.402344 C 130.011719 97.832031 129.894531 98.238281 129.695312 98.621094 C 129.492188 99.003906 129.226562 99.332031 128.898438 99.609375 L 121 106.207031 C 120.394531 106.710938 119.699219 106.964844 118.914062 106.964844 Z M 118.914062 106.964844 " fill-opacity="1" fill-rule="nonzero"/><path fill="#ffffff" d="M 176.394531 300.84375 L 161.398438 300.84375 C 160.964844 300.84375 160.550781 300.761719 160.152344 300.59375 C 159.753906 300.429688 159.402344 300.195312 159.09375 299.890625 C 158.789062 299.585938 158.554688 299.234375 158.390625 298.835938 C 158.222656 298.4375 158.140625 298.019531 158.140625 297.589844 C 158.140625 297.15625 158.222656 296.742188 158.390625 296.34375 C 158.554688 295.945312 158.789062 295.59375 159.09375 295.289062 C 159.402344 294.984375 159.753906 294.75 160.152344 294.582031 C 160.550781 294.417969 160.964844 294.335938 161.398438 294.335938 L 176.398438 294.335938 C 176.828125 294.335938 177.246094 294.417969 177.644531 294.582031 C 178.042969 294.75 178.394531 294.984375 178.699219 295.289062 C 179.003906 295.59375 179.238281 295.945312 179.40625 296.34375 C 179.570312 296.742188 179.652344 297.15625 179.652344 297.589844 C 179.652344 298.019531 179.570312 298.4375 179.40625 298.835938 C 179.238281 299.234375 179.003906 299.585938 178.699219 299.890625 C 178.394531 300.195312 178.042969 300.429688 177.644531 300.59375 C 177.246094 300.761719 176.828125 300.84375 176.398438 300.84375 Z M 176.394531 300.84375 " fill-opacity="1" fill-rule="nonzero"/><path fill="#ffffff" d="M 248.632812 100.367188 C 247.972656 100.367188 247.371094 100.183594 246.824219 99.816406 L 233.285156 90.753906 C 232.925781 90.511719 232.628906 90.214844 232.386719 89.855469 C 232.148438 89.496094 231.984375 89.105469 231.902344 88.679688 C 231.816406 88.257812 231.820312 87.832031 231.902344 87.410156 C 231.988281 86.988281 232.152344 86.59375 232.390625 86.238281 C 232.632812 85.878906 232.929688 85.578125 233.292969 85.339844 C 233.652344 85.101562 234.042969 84.9375 234.464844 84.855469 C 234.890625 84.773438 235.3125 84.773438 235.738281 84.859375 C 236.160156 84.945312 236.550781 85.105469 236.910156 85.347656 L 250.445312 94.410156 C 250.738281 94.605469 250.988281 94.839844 251.203125 95.113281 C 251.417969 95.390625 251.585938 95.691406 251.703125 96.019531 C 251.820312 96.351562 251.882812 96.6875 251.890625 97.039062 C 251.898438 97.386719 251.851562 97.726562 251.75 98.0625 C 251.648438 98.394531 251.496094 98.703125 251.296875 98.988281 C 251.09375 99.273438 250.851562 99.523438 250.570312 99.730469 C 250.292969 99.9375 249.984375 100.09375 249.652344 100.203125 C 249.320312 100.3125 248.980469 100.367188 248.632812 100.367188 Z M 248.632812 100.367188 " fill-opacity="1" fill-rule="nonzero"/></svg>