<svg xmlns="http://www.w3.org/2000/svg" xmlns:xlink="http://www.w3.org/1999/xlink" width="500" zoomAndPan="magnify" viewBox="0 0 375 374.999991" height="500" preserveAspectRatio="xMidYMid meet" version="1.0"><defs><clipPath id="63c3bb4086"><path d="M 187.5 0 C 83.945312 0 0 83.945312 0 187.5 C 0 291.054688 83.945312 375 187.5 375 C 291.054688 375 375 291.054688 375 187.5 C 375 83.945312 291.054688 0 187.5 0 Z M 187.5 0 " clip-rule="nonzero"/></clipPath></defs><g clip-path="url(#63c3bb4086)"><rect x="-37.5" width="450" fill="#58a39d" y="-37.499999" height="449.999989" fill-opacity="1"/></g><path fill="#ffffff" d="M 205.902344 152.078125 L 201.074219 156.902344 C 196.53125 154.730469 190.921875 155.523438 187.15625 159.292969 L 184.785156 161.664062 L 178.855469 155.742188 L 178.953125 155.644531 C 183.730469 150.867188 183.730469 143.125 178.953125 138.347656 L 120.53125 79.925781 C 115.753906 75.148438 108.015625 75.148438 103.238281 79.925781 L 79.792969 103.371094 C 75.015625 108.148438 75.015625 115.890625 79.792969 120.667969 C 92.945312 133.820312 125.054688 165.9375 138.214844 179.089844 C 142.992188 183.867188 150.730469 183.867188 155.507812 179.089844 L 155.605469 178.992188 L 161.53125 184.917969 L 156.996094 189.449219 C 155.40625 191.039062 155.40625 193.625 156.996094 195.214844 C 158.585938 196.808594 161.171875 196.808594 162.761719 195.214844 L 167.292969 190.679688 L 184.535156 207.921875 L 167.535156 224.925781 L 150.292969 207.683594 C 150.292969 207.683594 153.257812 204.714844 153.257812 204.714844 C 154.851562 203.125 154.851562 200.542969 153.257812 198.953125 C 151.667969 197.363281 149.085938 197.363281 147.496094 198.953125 L 144.527344 201.917969 L 140.746094 198.132812 C 138.449219 195.84375 135.339844 194.550781 132.097656 194.550781 C 128.855469 194.550781 125.742188 195.835938 123.449219 198.132812 L 117.6875 203.894531 C 115.390625 206.191406 114.105469 209.300781 114.105469 212.546875 C 114.105469 215.558594 115.21875 218.457031 117.214844 220.695312 C 108.269531 231.097656 108.726562 246.820312 118.589844 256.683594 C 128.488281 266.582031 144.304688 267.003906 154.710938 257.941406 C 156.746094 259.347656 159.167969 260.117188 161.679688 260.117188 C 164.921875 260.117188 168.03125 258.828125 170.324219 256.539062 L 176.089844 250.769531 C 178.382812 248.480469 179.671875 245.371094 179.671875 242.125 C 179.671875 238.882812 178.382812 235.769531 176.089844 233.480469 L 173.296875 230.6875 L 190.296875 213.6875 L 196.277344 219.667969 L 196.179688 219.765625 C 191.402344 224.539062 191.402344 232.28125 196.179688 237.054688 C 209.332031 250.214844 241.449219 282.324219 254.601562 295.480469 C 259.378906 300.253906 267.121094 300.253906 271.898438 295.480469 L 295.34375 272.03125 C 300.121094 267.253906 300.121094 259.515625 295.34375 254.738281 L 236.921875 196.316406 C 232.144531 191.539062 224.402344 191.539062 219.625 196.316406 L 219.527344 196.414062 L 213.550781 190.4375 L 215.925781 188.0625 C 219.714844 184.273438 220.5 178.617188 218.273438 174.054688 L 223.183594 169.148438 L 224.941406 170.21875 C 246.015625 183.085938 273.128906 182.234375 293.453125 167.734375 C 293.464844 167.726562 293.476562 167.722656 293.484375 167.714844 C 296.375 165.605469 298.199219 162.34375 298.476562 158.777344 C 298.757812 155.210938 297.464844 151.707031 294.933594 149.175781 C 287.859375 142.105469 275.621094 129.863281 263.007812 117.261719 L 266.949219 113.320312 C 271.914062 115.859375 278.160156 115.050781 282.316406 110.894531 C 287.476562 105.730469 287.476562 97.355469 282.316406 92.191406 C 277.152344 87.03125 268.769531 87.03125 263.609375 92.191406 C 259.457031 96.347656 258.644531 102.589844 261.183594 107.558594 L 257.238281 111.503906 C 244.617188 98.894531 232.355469 86.664062 225.257812 79.621094 C 222.761719 77.121094 219.277344 75.832031 215.738281 76.109375 C 212.199219 76.382812 208.957031 78.195312 206.867188 81.0625 C 206.863281 81.066406 206.855469 81.074219 206.851562 81.082031 C 191.785156 102.035156 191.375 130.292969 205.617188 151.644531 Z M 274.976562 280.875 L 266.132812 289.714844 C 264.539062 291.308594 261.960938 291.308594 260.371094 289.714844 L 249.734375 279.078125 L 261.457031 267.355469 Z M 278.945312 249.871094 L 289.578125 260.503906 C 291.171875 262.09375 291.171875 264.675781 289.578125 266.269531 L 280.738281 275.109375 L 267.222656 261.59375 Z M 217.925781 247.269531 L 243.96875 273.316406 L 255.695312 261.59375 L 229.648438 235.546875 Z M 122.988281 226.5 C 117.226562 233.695312 117.683594 244.246094 124.351562 250.917969 C 131.023438 257.585938 141.574219 258.042969 148.769531 252.28125 Z M 235.414062 229.785156 L 261.457031 255.828125 L 273.179688 244.105469 L 247.136719 218.0625 Z M 170.324219 239.242188 L 134.976562 203.894531 C 134.214844 203.132812 133.175781 202.703125 132.097656 202.703125 C 131.015625 202.703125 129.980469 203.132812 129.214844 203.894531 C 129.214844 203.894531 123.449219 209.664062 123.449219 209.664062 C 122.683594 210.425781 122.257812 211.460938 122.257812 212.546875 C 122.257812 213.625 122.683594 214.660156 123.449219 215.425781 L 158.792969 250.769531 C 159.5625 251.539062 160.597656 251.964844 161.679688 251.964844 C 162.761719 251.964844 163.796875 251.539062 164.5625 250.769531 L 170.324219 245.007812 C 171.085938 244.246094 171.519531 243.207031 171.519531 242.125 C 171.519531 241.046875 171.085938 240.007812 170.324219 239.242188 Z M 210.785156 216.6875 L 223.886719 229.785156 L 212.160156 241.507812 L 201.945312 231.292969 C 200.355469 229.699219 200.355469 227.117188 201.945312 225.527344 Z M 241.371094 212.296875 L 229.648438 224.019531 L 216.546875 210.917969 L 225.394531 202.078125 C 226.984375 200.488281 229.5625 200.488281 231.15625 202.078125 Z M 202.042969 213.898438 L 213.765625 202.175781 L 207.789062 196.199219 L 196.066406 207.921875 Z M 190.296875 202.160156 L 210.160156 182.296875 C 211.753906 180.707031 211.753906 178.125 210.160156 176.535156 C 206.65625 173.027344 202.191406 168.566406 198.683594 165.054688 C 197.09375 163.464844 194.511719 163.464844 192.917969 165.054688 L 173.0625 184.917969 Z M 173.09375 161.503906 L 161.371094 173.226562 L 167.292969 179.15625 L 179.019531 167.425781 Z M 158.585938 164.484375 L 149.742188 173.324219 C 148.152344 174.917969 145.570312 174.914062 143.976562 173.324219 L 132.222656 161.570312 L 143.945312 149.847656 Z M 229.113281 163.21875 L 229.191406 163.261719 C 247.492188 174.4375 271.042969 173.699219 288.710938 161.101562 C 289.660156 160.398438 290.261719 159.320312 290.351562 158.140625 C 290.445312 156.957031 290.011719 155.785156 289.167969 154.941406 C 273.953125 139.726562 234.789062 100.5625 219.515625 85.40625 C 219.511719 85.40625 219.507812 85.398438 219.503906 85.394531 C 218.679688 84.570312 217.535156 84.148438 216.371094 84.238281 C 215.210938 84.328125 214.148438 84.917969 213.457031 85.855469 C 200.605469 103.746094 200.046875 127.765625 211.789062 146.1875 L 223.164062 134.816406 C 224.691406 133.285156 226.765625 132.425781 228.925781 132.425781 C 231.089844 132.425781 233.164062 133.285156 234.691406 134.816406 L 240.339844 140.460938 C 241.871094 141.988281 242.730469 144.0625 242.730469 146.222656 C 242.730469 148.386719 241.871094 150.457031 240.339844 151.992188 Z M 228.925781 140.578125 C 228.925781 140.578125 234.578125 146.222656 234.578125 146.222656 C 234.578125 146.222656 213.246094 167.554688 213.246094 167.554688 C 213.246094 167.554688 207.597656 161.910156 207.597656 161.910156 Z M 161.4375 132.355469 L 173.191406 144.113281 C 174.78125 145.707031 174.78125 148.285156 173.191406 149.875 L 164.351562 158.722656 L 149.707031 144.078125 Z M 105.734375 135.082031 L 126.457031 155.804688 L 138.179688 144.078125 L 117.460938 123.359375 Z M 123.226562 117.597656 L 143.945312 138.316406 L 155.667969 126.59375 L 134.949219 105.875 Z M 94.394531 100.292969 L 111.695312 117.597656 L 99.972656 129.320312 L 85.554688 114.902344 C 83.960938 113.308594 83.960938 110.730469 85.554688 109.136719 Z M 129.1875 100.105469 L 117.460938 111.832031 L 100.160156 94.53125 L 109 85.691406 C 110.59375 84.097656 113.175781 84.097656 114.765625 85.691406 Z M 276.546875 97.957031 C 278.53125 99.9375 278.53125 103.152344 276.546875 105.128906 C 274.570312 107.109375 271.355469 107.109375 269.378906 105.128906 C 267.398438 103.152344 267.398438 99.9375 269.378906 97.957031 C 271.355469 95.976562 274.570312 95.976562 276.546875 97.957031 Z M 276.546875 97.957031 " fill-opacity="1" fill-rule="evenodd"/></svg>