<svg xmlns="http://www.w3.org/2000/svg" xmlns:xlink="http://www.w3.org/1999/xlink" width="500" zoomAndPan="magnify" viewBox="0 0 375 374.999991" height="500" preserveAspectRatio="xMidYMid meet" version="1.0"><defs><clipPath id="159ad25115"><path d="M 187.5 0 C 83.945312 0 0 83.945312 0 187.5 C 0 291.054688 83.945312 375 187.5 375 C 291.054688 375 375 291.054688 375 187.5 C 375 83.945312 291.054688 0 187.5 0 Z M 187.5 0 " clip-rule="nonzero"/></clipPath><clipPath id="53e1eef31d"><path d="M 122 100 L 205 100 L 205 236 L 122 236 Z M 122 100 " clip-rule="nonzero"/></clipPath><clipPath id="22d7ac7eae"><path d="M 121.28125 340.113281 L 54.867188 65.277344 L 271.386719 12.957031 L 337.800781 287.792969 Z M 121.28125 340.113281 " clip-rule="nonzero"/></clipPath><clipPath id="61aa03351f"><path d="M 121.28125 340.113281 L 54.867188 65.277344 L 271.386719 12.957031 L 337.800781 287.792969 Z M 121.28125 340.113281 " clip-rule="nonzero"/></clipPath><clipPath id="8ac4b749c5"><path d="M 202 149 L 287 149 L 287 286 L 202 286 Z M 202 149 " clip-rule="nonzero"/></clipPath><clipPath id="26837b60ac"><path d="M 121.28125 340.113281 L 54.867188 65.277344 L 271.386719 12.957031 L 337.800781 287.792969 Z M 121.28125 340.113281 " clip-rule="nonzero"/></clipPath><clipPath id="0114b972c4"><path d="M 121.28125 340.113281 L 54.867188 65.277344 L 271.386719 12.957031 L 337.800781 287.792969 Z M 121.28125 340.113281 " clip-rule="nonzero"/></clipPath><clipPath id="2f7bb3b797"><path d="M 273 150 L 304 150 L 304 175 L 273 175 Z M 273 150 " clip-rule="nonzero"/></clipPath><clipPath id="cc6a3321fd"><path d="M 121.28125 340.113281 L 54.867188 65.277344 L 271.386719 12.957031 L 337.800781 287.792969 Z M 121.28125 340.113281 " clip-rule="nonzero"/></clipPath><clipPath id="1d14998407"><path d="M 121.28125 340.113281 L 54.867188 65.277344 L 271.386719 12.957031 L 337.800781 287.792969 Z M 121.28125 340.113281 " clip-rule="nonzero"/></clipPath><clipPath id="54e851be3f"><path d="M 170 227 L 201 227 L 201 252 L 170 252 Z M 170 227 " clip-rule="nonzero"/></clipPath><clipPath id="ae0222488d"><path d="M 121.28125 340.113281 L 54.867188 65.277344 L 271.386719 12.957031 L 337.800781 287.792969 Z M 121.28125 340.113281 " clip-rule="nonzero"/></clipPath><clipPath id="1b67507654"><path d="M 121.28125 340.113281 L 54.867188 65.277344 L 271.386719 12.957031 L 337.800781 287.792969 Z M 121.28125 340.113281 " clip-rule="nonzero"/></clipPath><clipPath id="bf09d46ec0"><path d="M 191 101 L 223 101 L 223 126 L 191 126 Z M 191 101 " clip-rule="nonzero"/></clipPath><clipPath id="8ce90ffd17"><path d="M 121.28125 340.113281 L 54.867188 65.277344 L 271.386719 12.957031 L 337.800781 287.792969 Z M 121.28125 340.113281 " clip-rule="nonzero"/></clipPath><clipPath id="d866c9e577"><path d="M 121.28125 340.113281 L 54.867188 65.277344 L 271.386719 12.957031 L 337.800781 287.792969 Z M 121.28125 340.113281 " clip-rule="nonzero"/></clipPath><clipPath id="6b2686a008"><path d="M 88 178 L 120 178 L 120 203 L 88 203 Z M 88 178 " clip-rule="nonzero"/></clipPath><clipPath id="27b8025185"><path d="M 121.28125 340.113281 L 54.867188 65.277344 L 271.386719 12.957031 L 337.800781 287.792969 Z M 121.28125 340.113281 " clip-rule="nonzero"/></clipPath><clipPath id="45646836f7"><path d="M 121.28125 340.113281 L 54.867188 65.277344 L 271.386719 12.957031 L 337.800781 287.792969 Z M 121.28125 340.113281 " clip-rule="nonzero"/></clipPath><clipPath id="b4e1616fad"><path d="M 81 51 L 142 51 L 142 187 L 81 187 Z M 81 51 " clip-rule="nonzero"/></clipPath><clipPath id="ff8c0dc915"><path d="M 121.28125 340.113281 L 54.867188 65.277344 L 271.386719 12.957031 L 337.800781 287.792969 Z M 121.28125 340.113281 " clip-rule="nonzero"/></clipPath><clipPath id="5ae5480e7e"><path d="M 121.28125 340.113281 L 54.867188 65.277344 L 271.386719 12.957031 L 337.800781 287.792969 Z M 121.28125 340.113281 " clip-rule="nonzero"/></clipPath><clipPath id="d10cee06db"><path d="M 187 117 L 270 117 L 270 254 L 187 254 Z M 187 117 " clip-rule="nonzero"/></clipPath><clipPath id="87aaa4e39e"><path d="M 121.28125 340.113281 L 54.867188 65.277344 L 271.386719 12.957031 L 337.800781 287.792969 Z M 121.28125 340.113281 " clip-rule="nonzero"/></clipPath><clipPath id="be7b6cd480"><path d="M 121.28125 340.113281 L 54.867188 65.277344 L 271.386719 12.957031 L 337.800781 287.792969 Z M 121.28125 340.113281 " clip-rule="nonzero"/></clipPath><clipPath id="d2c5760b74"><path d="M 251 166 L 312 166 L 312 302 L 251 302 Z M 251 166 " clip-rule="nonzero"/></clipPath><clipPath id="6ee87b504e"><path d="M 121.28125 340.113281 L 54.867188 65.277344 L 271.386719 12.957031 L 337.800781 287.792969 Z M 121.28125 340.113281 " clip-rule="nonzero"/></clipPath><clipPath id="828658b700"><path d="M 121.28125 340.113281 L 54.867188 65.277344 L 271.386719 12.957031 L 337.800781 287.792969 Z M 121.28125 340.113281 " clip-rule="nonzero"/></clipPath><clipPath id="575e907a56"><path d="M 106 67 L 191 67 L 191 204 L 106 204 Z M 106 67 " clip-rule="nonzero"/></clipPath><clipPath id="f98d9797b7"><path d="M 121.28125 340.113281 L 54.867188 65.277344 L 271.386719 12.957031 L 337.800781 287.792969 Z M 121.28125 340.113281 " clip-rule="nonzero"/></clipPath><clipPath id="cd539bfbe3"><path d="M 121.28125 340.113281 L 54.867188 65.277344 L 271.386719 12.957031 L 337.800781 287.792969 Z M 121.28125 340.113281 " clip-rule="nonzero"/></clipPath></defs><g clip-path="url(#159ad25115)"><rect x="-37.5" width="450" fill="#fec743" y="-37.499999" height="449.999989" fill-opacity="1"/></g><g clip-path="url(#53e1eef31d)"><g clip-path="url(#22d7ac7eae)"><g clip-path="url(#61aa03351f)"><path fill="#ffffff" d="M 203.90625 112.554688 C 204.847656 116.449219 205.128906 121.132812 204.695312 126.292969 C 203.894531 135.808594 200.339844 151.367188 187.921875 171.492188 C 173.542969 194.820312 170.859375 213.300781 173.152344 222.796875 C 173.152344 222.796875 173.152344 222.796875 173.15625 222.816406 C 173.875 225.777344 174.914062 227.0625 175.414062 227.367188 L 170.179688 235.96875 C 166.953125 234.019531 164.589844 230.285156 163.359375 225.183594 C 163.351562 225.164062 163.351562 225.164062 163.351562 225.164062 C 159.78125 210.296875 165.742188 188.273438 179.355469 166.222656 C 190.71875 147.765625 193.949219 133.882812 194.648438 125.464844 C 195.476562 115.804688 193.121094 111.09375 191.867188 110.347656 C 187.996094 107.988281 167.238281 114.558594 147.296875 146.894531 C 141.917969 155.65625 136.03125 163.328125 129.808594 169.683594 L 122.601562 162.667969 C 128.28125 156.828125 133.703125 149.757812 138.714844 141.652344 C 160.746094 105.898438 186.78125 95.503906 197.097656 101.722656 C 200.347656 103.6875 202.683594 107.492188 203.90625 112.554688 " fill-opacity="1" fill-rule="nonzero"/></g></g></g><g clip-path="url(#8ac4b749c5)"><g clip-path="url(#26837b60ac)"><g clip-path="url(#0114b972c4)"><path fill="#ffffff" d="M 285.15625 161.722656 C 286.097656 165.621094 286.394531 170.28125 285.945312 175.464844 C 285.15625 184.953125 281.605469 200.511719 269.191406 220.65625 C 254.792969 243.992188 252.125 262.46875 254.421875 271.960938 C 255.136719 274.921875 256.179688 276.226562 256.679688 276.53125 L 251.445312 285.136719 C 248.21875 283.183594 245.859375 279.449219 244.621094 274.328125 C 241.03125 259.46875 247.011719 237.441406 260.605469 215.390625 C 271.988281 196.933594 275.191406 183.035156 275.898438 174.636719 C 276.722656 164.972656 274.371094 160.265625 273.113281 159.5 C 269.242188 157.15625 248.503906 163.726562 228.5625 196.0625 C 222.730469 205.539062 216.355469 213.691406 209.59375 220.339844 L 202.511719 213.175781 C 208.699219 207.089844 214.5625 199.566406 219.976562 190.796875 C 242.011719 155.042969 268.042969 144.648438 278.347656 150.894531 C 281.601562 152.878906 283.933594 156.660156 285.15625 161.722656 " fill-opacity="1" fill-rule="nonzero"/></g></g></g><g clip-path="url(#2f7bb3b797)"><g clip-path="url(#cc6a3321fd)"><g clip-path="url(#1d14998407)"><path fill="#ffffff" d="M 303.734375 166.25 L 298.523438 174.871094 L 273.113281 159.5 L 278.347656 150.894531 L 303.734375 166.25 " fill-opacity="1" fill-rule="nonzero"/></g></g></g><g clip-path="url(#54e851be3f)"><g clip-path="url(#ae0222488d)"><g clip-path="url(#1b67507654)"><path fill="#ffffff" d="M 200.804688 242.742188 L 195.570312 251.347656 L 170.179688 235.96875 L 175.414062 227.367188 L 200.804688 242.742188 " fill-opacity="1" fill-rule="nonzero"/></g></g></g><g clip-path="url(#bf09d46ec0)"><g clip-path="url(#8ce90ffd17)"><g clip-path="url(#d866c9e577)"><path fill="#ffffff" d="M 222.484375 117.082031 L 217.253906 125.703125 L 191.867188 110.347656 L 197.097656 101.722656 L 222.484375 117.082031 " fill-opacity="1" fill-rule="nonzero"/></g></g></g><g clip-path="url(#6b2686a008)"><g clip-path="url(#27b8025185)"><g clip-path="url(#45646836f7)"><path fill="#ffffff" d="M 119.554688 193.570312 L 114.320312 202.175781 L 88.933594 186.820312 L 94.164062 178.195312 L 119.554688 193.570312 " fill-opacity="1" fill-rule="nonzero"/></g></g></g><g clip-path="url(#b4e1616fad)"><g clip-path="url(#ff8c0dc915)"><g clip-path="url(#5ae5480e7e)"><path fill="#ffffff" d="M 141.222656 67.933594 L 136.007812 76.535156 L 123.527344 68.996094 C 124.703125 83.492188 118.636719 102.910156 106.675781 122.320312 C 92.277344 145.65625 89.609375 164.132812 91.910156 173.644531 C 92.625 176.605469 93.664062 177.890625 94.164062 178.195312 L 88.933594 186.820312 C 85.707031 184.867188 83.339844 181.113281 82.109375 176.011719 C 78.515625 161.152344 84.496094 139.105469 98.085938 117.035156 C 112.488281 93.722656 115.152344 75.246094 112.855469 65.730469 C 112.136719 62.769531 111.09375 61.464844 110.597656 61.179688 C 108.222656 59.734375 107.472656 56.621094 108.90625 54.25 C 110.355469 51.878906 113.457031 51.128906 115.828125 52.558594 L 141.222656 67.933594 " fill-opacity="1" fill-rule="nonzero"/></g></g></g><g clip-path="url(#d10cee06db)"><g clip-path="url(#87aaa4e39e)"><g clip-path="url(#be7b6cd480)"><path fill="#ffffff" d="M 269.351562 191.140625 C 263.9375 196.816406 258.757812 203.644531 253.957031 211.4375 C 231.917969 247.171875 205.890625 257.585938 195.570312 251.347656 C 189.800781 247.847656 186.953125 238.648438 187.96875 226.757812 C 188.777344 217.28125 192.3125 201.730469 204.746094 181.578125 C 219.125 158.25 221.789062 139.773438 219.496094 130.277344 L 219.492188 130.257812 C 218.773438 127.296875 217.753906 126.007812 217.253906 125.703125 L 222.488281 117.101562 C 225.714844 119.050781 228.058594 122.789062 229.292969 127.890625 C 229.296875 127.910156 229.296875 127.910156 229.296875 127.910156 C 232.882812 142.753906 226.925781 164.796875 213.3125 186.847656 C 201.949219 205.304688 198.722656 219.207031 198.019531 227.605469 C 197.191406 237.265625 199.546875 241.976562 200.804688 242.742188 C 204.671875 245.082031 225.429688 238.511719 245.367188 206.15625 C 250.550781 197.765625 256.164062 190.382812 262.0625 184.207031 L 269.351562 191.140625 " fill-opacity="1" fill-rule="nonzero"/></g></g></g><g clip-path="url(#d2c5760b74)"><g clip-path="url(#6ee87b504e)"><g clip-path="url(#828658b700)"><path fill="#ffffff" d="M 310.558594 177.058594 C 314.148438 191.917969 308.171875 213.964844 294.578125 236.015625 C 280.203125 259.363281 277.515625 277.824219 279.8125 287.339844 C 280.53125 290.300781 281.570312 291.585938 282.066406 291.886719 C 284.445312 293.335938 285.210938 296.425781 283.757812 298.800781 C 282.328125 301.1875 279.210938 301.941406 276.839844 300.511719 L 251.445312 285.136719 L 256.660156 276.535156 L 269.140625 284.074219 C 267.964844 269.578125 274.011719 250.164062 285.992188 230.75 C 300.390625 207.414062 303.058594 188.9375 300.757812 179.425781 C 300.042969 176.464844 299.003906 175.179688 298.503906 174.875 L 303.738281 166.269531 C 306.960938 168.203125 309.320312 171.9375 310.558594 177.058594 " fill-opacity="1" fill-rule="nonzero"/></g></g></g><g clip-path="url(#575e907a56)"><g clip-path="url(#f98d9797b7)"><g clip-path="url(#cd539bfbe3)"><path fill="#ffffff" d="M 190.140625 139.917969 C 183.953125 146.003906 178.09375 153.527344 172.6875 162.273438 C 150.652344 198.007812 124.640625 208.417969 114.320312 202.175781 C 108.535156 198.679688 105.707031 189.496094 106.722656 177.605469 C 107.507812 168.117188 111.070312 152.578125 123.476562 132.414062 C 137.855469 109.085938 140.539062 90.601562 138.246094 81.109375 C 138.246094 81.109375 138.242188 81.089844 138.242188 81.089844 C 137.527344 78.128906 136.488281 76.84375 135.988281 76.539062 L 141.222656 67.933594 C 144.449219 69.882812 146.808594 73.621094 148.042969 78.722656 C 148.046875 78.742188 148.046875 78.742188 148.046875 78.742188 C 151.636719 93.601562 145.65625 115.628906 132.0625 137.679688 C 120.679688 156.136719 117.476562 170.035156 116.769531 178.433594 C 115.945312 188.097656 118.277344 192.808594 119.554688 193.570312 C 123.425781 195.914062 144.164062 189.34375 164.101562 157.007812 C 169.921875 147.554688 176.300781 139.402344 183.054688 132.734375 L 190.140625 139.917969 " fill-opacity="1" fill-rule="nonzero"/></g></g></g></svg>