<svg xmlns="http://www.w3.org/2000/svg" xmlns:xlink="http://www.w3.org/1999/xlink" width="500" zoomAndPan="magnify" viewBox="0 0 375 374.999991" height="500" preserveAspectRatio="xMidYMid meet" version="1.0"><defs><clipPath id="33b9c8a1ff"><path d="M 187.5 0 C 83.945312 0 0 83.945312 0 187.5 C 0 291.054688 83.945312 375 187.5 375 C 291.054688 375 375 291.054688 375 187.5 C 375 83.945312 291.054688 0 187.5 0 Z M 187.5 0 " clip-rule="nonzero"/></clipPath><clipPath id="c6592148ee"><path d="M 114.429688 58 L 260.5625 58 L 260.5625 317.386719 L 114.429688 317.386719 Z M 114.429688 58 " clip-rule="nonzero"/></clipPath></defs><g clip-path="url(#33b9c8a1ff)"><rect x="-37.5" width="450" fill="#f47c2e" y="-37.499999" height="449.999989" fill-opacity="1"/></g><g clip-path="url(#c6592148ee)"><path fill="#ffffff" d="M 124.652344 296.984375 L 130.78125 296.984375 L 130.78125 266.523438 C 130.78125 259.367188 136.628906 253.546875 143.816406 253.546875 L 213.402344 253.546875 C 211.710938 251.53125 210.3125 249.261719 209.277344 246.804688 L 124.652344 246.804688 C 119 246.804688 114.402344 242.230469 114.402344 236.601562 C 114.402344 230.976562 119 226.398438 124.652344 226.398438 L 209.277344 226.398438 C 210.695312 223.03125 212.804688 220.027344 215.410156 217.535156 L 215.410156 162.652344 L 194.402344 162.652344 L 173.914062 193.207031 C 173.78125 193.40625 173.605469 193.566406 173.421875 193.703125 C 173.402344 193.71875 173.390625 193.742188 173.367188 193.757812 L 159.675781 203.117188 C 159.324219 203.359375 158.921875 203.476562 158.515625 203.476562 C 158.121094 203.476562 157.722656 203.363281 157.378906 203.132812 L 131.707031 186.113281 C 131.003906 185.644531 130.65625 184.796875 130.828125 183.96875 L 134.253906 167.800781 C 134.277344 167.691406 134.34375 167.605469 134.382812 167.5 C 134.4375 167.355469 134.472656 167.207031 134.558594 167.082031 L 194.460938 77.726562 C 195.09375 76.789062 196.363281 76.53125 197.308594 77.160156 L 208.441406 84.539062 L 212.996094 77.742188 L 204.449219 72.078125 C 203.992188 71.777344 203.675781 71.304688 203.570312 70.769531 C 203.464844 70.230469 203.570312 69.671875 203.878906 69.21875 L 210.726562 59.007812 C 211.355469 58.066406 212.625 57.8125 213.570312 58.4375 L 244.375 78.863281 C 244.832031 79.164062 245.148438 79.636719 245.257812 80.171875 C 245.363281 80.710938 245.253906 81.265625 244.949219 81.722656 L 238.101562 91.933594 C 237.703125 92.527344 237.054688 92.84375 236.390625 92.84375 C 236 92.84375 235.605469 92.734375 235.257812 92.5 L 226.691406 86.824219 L 222.136719 93.617188 L 233.25 100.984375 C 233.707031 101.289062 234.023438 101.757812 234.128906 102.296875 C 234.234375 102.832031 234.128906 103.390625 233.820312 103.847656 L 218.921875 126.066406 C 237.503906 127.199219 252.28125 142.550781 252.28125 161.3125 L 252.28125 217.535156 C 257.320312 222.359375 260.472656 229.117188 260.472656 236.605469 C 260.472656 244.09375 257.320312 250.851562 252.28125 255.671875 L 252.28125 297.191406 C 256.949219 298.140625 260.472656 302.261719 260.472656 307.1875 C 260.472656 312.8125 255.878906 317.386719 250.226562 317.386719 L 124.652344 317.386719 C 119 317.386719 114.402344 312.8125 114.402344 307.183594 C 114.402344 301.558594 119 296.984375 124.652344 296.984375 Z M 124.652344 230.519531 C 121.269531 230.519531 118.519531 233.25 118.519531 236.605469 C 118.519531 239.960938 121.269531 242.691406 124.652344 242.691406 L 207.957031 242.691406 C 207.492188 240.734375 207.222656 238.703125 207.222656 236.605469 C 207.222656 234.503906 207.492188 232.476562 207.957031 230.519531 Z M 158.496094 198.941406 L 168.523438 192.085938 L 137.648438 171.617188 L 135.140625 183.457031 Z M 171.636719 189.214844 L 222.410156 113.488281 L 189.894531 91.933594 L 139.125 167.660156 Z M 235.824219 87.941406 L 240.378906 81.148438 L 213 62.996094 L 208.445312 69.789062 L 227.269531 82.269531 C 227.269531 82.269531 227.269531 82.269531 227.273438 82.269531 Z M 223.261719 84.550781 L 216.425781 80.019531 L 211.871094 86.8125 L 218.710938 91.347656 Z M 218.132812 95.902344 L 207.863281 89.09375 C 207.863281 89.09375 207.863281 89.09375 207.859375 89.089844 L 196.738281 81.71875 L 192.183594 88.515625 L 224.699219 110.070312 L 229.253906 103.277344 Z M 248.167969 161.316406 C 248.167969 144.089844 234.070312 130.074219 216.742188 130.074219 L 216.242188 130.074219 L 197.160156 158.535156 L 216.742188 158.535156 C 218.277344 158.535156 219.527344 159.78125 219.527344 161.316406 L 219.527344 214.308594 C 223.667969 211.667969 228.574219 210.117188 233.847656 210.117188 C 239.121094 210.117188 244.027344 211.667969 248.167969 214.308594 Z M 256.359375 236.605469 C 256.359375 224.269531 246.257812 214.230469 233.847656 214.230469 C 221.4375 214.230469 211.335938 224.269531 211.335938 236.605469 C 211.335938 248.941406 221.4375 258.980469 233.847656 258.980469 C 246.257812 258.980469 256.359375 248.941406 256.359375 236.605469 Z M 233.847656 263.09375 C 227.800781 263.09375 222.234375 261.054688 217.761719 257.664062 L 143.816406 257.664062 C 138.898438 257.664062 134.898438 261.636719 134.898438 266.523438 L 134.898438 296.984375 L 248.167969 296.984375 L 248.167969 258.898438 C 244.027344 261.542969 239.121094 263.09375 233.847656 263.09375 Z M 124.652344 313.273438 L 250.226562 313.273438 C 253.609375 313.273438 256.359375 310.539062 256.359375 307.1875 C 256.359375 303.832031 253.609375 301.097656 250.226562 301.097656 L 124.652344 301.097656 C 121.269531 301.097656 118.519531 303.828125 118.519531 307.1875 C 118.519531 310.542969 121.269531 313.273438 124.652344 313.273438 Z M 124.652344 313.273438 " fill-opacity="1" fill-rule="nonzero"/></g><path fill="#ffffff" d="M 233.847656 249.523438 C 226.691406 249.523438 220.871094 243.726562 220.871094 236.605469 C 220.871094 229.484375 226.691406 223.691406 233.847656 223.691406 C 241.003906 223.691406 246.824219 229.484375 246.824219 236.605469 C 246.824219 243.726562 241.003906 249.523438 233.847656 249.523438 Z M 233.847656 227.804688 C 228.960938 227.804688 224.984375 231.75 224.984375 236.601562 C 224.984375 241.457031 228.960938 245.40625 233.847656 245.40625 C 238.734375 245.40625 242.710938 241.457031 242.710938 236.601562 C 242.707031 231.753906 238.734375 227.804688 233.847656 227.804688 Z M 233.847656 227.804688 " fill-opacity="1" fill-rule="nonzero"/><path fill="#ffffff" d="M 217.46875 290.242188 C 211.816406 290.242188 207.21875 285.664062 207.21875 280.039062 C 207.21875 274.414062 211.816406 269.835938 217.46875 269.835938 C 223.117188 269.835938 227.714844 274.414062 227.714844 280.039062 C 227.714844 285.664062 223.117188 290.242188 217.46875 290.242188 Z M 217.46875 273.953125 C 214.085938 273.953125 211.335938 276.683594 211.335938 280.039062 C 211.335938 283.398438 214.085938 286.128906 217.46875 286.128906 C 220.847656 286.128906 223.601562 283.398438 223.601562 280.039062 C 223.601562 276.683594 220.847656 273.953125 217.46875 273.953125 Z M 217.46875 273.953125 " fill-opacity="1" fill-rule="nonzero"/><path fill="#ffffff" d="M 192.75 124.535156 C 194.324219 122.191406 197.515625 121.554688 199.875 123.117188 L 202.445312 124.820312 C 203.59375 125.582031 204.371094 126.742188 204.640625 128.085938 C 204.90625 129.425781 204.636719 130.789062 203.871094 131.929688 L 190.175781 152.359375 C 189.1875 153.835938 187.554688 154.632812 185.890625 154.632812 C 184.914062 154.632812 183.925781 154.355469 183.050781 153.777344 L 180.480469 152.074219 C 179.335938 151.3125 178.558594 150.15625 178.289062 148.8125 C 178.019531 147.46875 178.292969 146.101562 179.054688 144.964844 Z M 182.320312 148.003906 C 182.351562 148.15625 182.449219 148.441406 182.753906 148.640625 L 185.324219 150.347656 C 185.800781 150.664062 186.441406 150.535156 186.757812 150.0625 L 200.457031 129.632812 C 200.65625 129.335938 200.632812 129.039062 200.605469 128.890625 C 200.554688 128.625 200.398438 128.398438 200.171875 128.246094 L 197.601562 126.542969 C 197.425781 126.425781 197.222656 126.371094 197.027344 126.371094 C 196.691406 126.371094 196.367188 126.527344 196.167969 126.824219 L 182.46875 147.253906 C 182.269531 147.554688 182.292969 147.851562 182.320312 148.003906 Z M 182.320312 148.003906 " fill-opacity="1" fill-rule="nonzero"/></svg>