<svg xmlns="http://www.w3.org/2000/svg" xmlns:xlink="http://www.w3.org/1999/xlink" width="500" zoomAndPan="magnify" viewBox="0 0 375 374.999991" height="500" preserveAspectRatio="xMidYMid meet" version="1.0"><defs><clipPath id="47f9df92c8"><path d="M 187.5 0 C 83.945312 0 0 83.945312 0 187.5 C 0 291.054688 83.945312 375 187.5 375 C 291.054688 375 375 291.054688 375 187.5 C 375 83.945312 291.054688 0 187.5 0 Z M 187.5 0 " clip-rule="nonzero"/></clipPath><clipPath id="8d08a2db89"><path d="M 258.710938 254 L 313.703125 254 L 313.703125 308.847656 L 258.710938 308.847656 Z M 258.710938 254 " clip-rule="nonzero"/></clipPath><clipPath id="23d0f99fc4"><path d="M 88 57.597656 L 94 57.597656 L 94 81 L 88 81 Z M 88 57.597656 " clip-rule="nonzero"/></clipPath><clipPath id="22923c6e33"><path d="M 61.035156 85 L 85 85 L 85 91 L 61.035156 91 Z M 61.035156 85 " clip-rule="nonzero"/></clipPath></defs><g clip-path="url(#47f9df92c8)"><rect x="-37.5" width="450" fill="#a2c36e" y="-37.499999" height="449.999989" fill-opacity="1"/></g><path fill="#ffffff" d="M 98.542969 271.550781 L 108.179688 271.550781 L 108.179688 95.054688 L 98.542969 95.054688 Z M 112.984375 276.355469 L 93.738281 276.355469 L 93.738281 90.25 L 112.984375 90.25 L 112.984375 276.355469 " fill-opacity="1" fill-rule="nonzero"/><path fill="#ffffff" d="M 261.765625 90.25 L 261.765625 199.152344 C 263.613281 201.308594 265.21875 203.632812 266.570312 206.101562 L 266.570312 95.054688 L 276.207031 95.054688 L 276.207031 250.851562 C 277.339844 251.417969 278.402344 252.128906 279.367188 252.972656 L 281.011719 254.40625 L 281.011719 90.25 L 261.765625 90.25 " fill-opacity="1" fill-rule="nonzero"/><path fill="#ffffff" d="M 198.347656 112.617188 L 149.488281 112.617188 L 149.488281 107.808594 L 198.347656 107.808594 L 198.347656 112.617188 " fill-opacity="1" fill-rule="nonzero"/><path fill="#ffffff" d="M 198.347656 112.617188 L 149.488281 112.617188 L 149.488281 107.808594 L 198.347656 107.808594 L 198.347656 112.617188 " fill-opacity="1" fill-rule="nonzero"/><path fill="#ffffff" d="M 189.894531 229.347656 L 137.863281 229.347656 L 137.863281 224.542969 L 189.753906 224.542969 C 189.742188 224.941406 189.738281 225.34375 189.738281 225.746094 C 189.738281 226.957031 189.789062 228.15625 189.894531 229.347656 " fill-opacity="1" fill-rule="nonzero"/><path fill="#ffffff" d="M 162.605469 199.390625 L 162.605469 176.351562 L 167.410156 176.351562 L 167.410156 199.390625 L 162.605469 199.390625 " fill-opacity="1" fill-rule="nonzero"/><path fill="#ffffff" d="M 192.140625 176.355469 L 192.140625 199.386719 L 187.335938 199.386719 L 187.335938 176.355469 L 192.140625 176.355469 " fill-opacity="1" fill-rule="nonzero"/><path fill="#ffffff" d="M 216.871094 176.355469 L 216.871094 187.171875 C 215.226562 187.757812 213.621094 188.449219 212.066406 189.246094 L 212.066406 176.355469 L 216.871094 176.355469 " fill-opacity="1" fill-rule="nonzero"/><path fill="#ffffff" d="M 200.648438 253.578125 L 137.863281 253.578125 L 137.863281 248.769531 L 196.808594 248.769531 C 197.957031 250.453125 199.238281 252.0625 200.648438 253.578125 " fill-opacity="1" fill-rule="nonzero"/><path fill="#ffffff" d="M 225.261719 112.617188 L 206.03125 112.617188 L 206.03125 107.808594 L 225.261719 107.808594 L 225.261719 112.617188 " fill-opacity="1" fill-rule="nonzero"/><path fill="#ffffff" d="M 225.261719 112.617188 L 206.03125 112.617188 L 206.03125 107.808594 L 225.261719 107.808594 L 225.261719 112.617188 " fill-opacity="1" fill-rule="nonzero"/><path fill="#ffffff" d="M 142.667969 153.640625 L 236.808594 153.640625 L 236.808594 135.980469 L 142.667969 135.980469 Z M 241.613281 158.449219 L 137.863281 158.449219 L 137.863281 131.171875 L 241.613281 131.171875 L 241.613281 158.449219 " fill-opacity="1" fill-rule="nonzero"/><path fill="#ffffff" d="M 137.863281 174.234375 L 137.863281 201.507812 L 197.667969 201.507812 C 198.886719 199.851562 200.242188 198.277344 201.722656 196.792969 C 201.753906 196.765625 201.785156 196.730469 201.816406 196.703125 L 142.667969 196.703125 L 142.667969 179.039062 L 236.808594 179.039062 L 236.808594 185.257812 C 238.433594 185.5 240.039062 185.84375 241.609375 186.277344 L 241.609375 174.234375 L 137.863281 174.234375 " fill-opacity="1" fill-rule="nonzero"/><path fill="#ffffff" d="M 252.789062 247.898438 C 246.875 253.816406 239.015625 257.074219 230.652344 257.074219 C 222.289062 257.074219 214.425781 253.816406 208.515625 247.898438 C 202.601562 241.980469 199.34375 234.113281 199.34375 225.746094 C 199.34375 217.375 202.601562 209.507812 208.515625 203.59375 C 214.425781 197.675781 222.289062 194.414062 230.652344 194.414062 C 234.832031 194.414062 238.890625 195.230469 242.636719 196.785156 C 246.386719 198.335938 249.832031 200.632812 252.789062 203.59375 C 258.703125 209.507812 261.960938 217.375 261.960938 225.746094 C 261.960938 234.113281 258.703125 241.980469 252.789062 247.898438 Z M 264.03125 211.90625 C 262.242188 207.578125 259.597656 203.605469 256.1875 200.191406 C 249.363281 193.367188 240.296875 189.605469 230.652344 189.605469 C 221.007812 189.605469 211.9375 193.367188 205.121094 200.191406 C 198.300781 207.015625 194.542969 216.09375 194.542969 225.746094 C 194.542969 235.398438 198.300781 244.472656 205.121094 251.296875 C 211.9375 258.121094 221.007812 261.878906 230.652344 261.878906 C 239.496094 261.878906 247.847656 258.722656 254.433594 252.941406 C 255.03125 252.417969 255.617188 251.867188 256.1875 251.296875 C 256.753906 250.726562 257.304688 250.144531 257.828125 249.542969 C 263.605469 242.953125 266.761719 234.59375 266.761719 225.746094 C 266.761719 220.917969 265.824219 216.234375 264.03125 211.90625 " fill-opacity="1" fill-rule="nonzero"/><path fill="#ffffff" d="M 245.125 240.230469 C 241.261719 244.101562 236.121094 246.230469 230.652344 246.230469 C 225.183594 246.230469 220.042969 244.101562 216.175781 240.230469 C 208.195312 232.242188 208.195312 219.246094 216.175781 211.257812 C 220.167969 207.261719 225.410156 205.265625 230.652344 205.265625 C 235.894531 205.265625 241.136719 207.265625 245.125 211.257812 C 248.992188 215.128906 251.121094 220.273438 251.121094 225.746094 C 251.121094 231.21875 248.992188 236.363281 245.125 240.230469 Z M 248.523438 207.859375 C 238.667969 197.996094 222.632812 197.996094 212.78125 207.859375 C 202.925781 217.722656 202.925781 233.769531 212.78125 243.628906 C 217.554688 248.40625 223.902344 251.039062 230.652344 251.039062 C 237.402344 251.039062 243.75 248.40625 248.523438 243.628906 C 253.296875 238.851562 255.925781 232.5 255.925781 225.746094 C 255.925781 218.988281 253.296875 212.636719 248.523438 207.859375 " fill-opacity="1" fill-rule="nonzero"/><path fill="#ffffff" d="M 265.367188 257.085938 L 261.972656 260.484375 L 252.789062 251.296875 L 256.1875 247.898438 L 257.828125 249.542969 L 265.367188 257.085938 " fill-opacity="1" fill-rule="nonzero"/><g clip-path="url(#8d08a2db89)"><path fill="#ffffff" d="M 306.371094 301.519531 C 304.660156 303.230469 302.378906 304.132812 299.964844 304.046875 C 297.542969 303.960938 295.335938 302.910156 293.746094 301.085938 L 265.101562 268.179688 C 263.164062 265.957031 263.28125 262.574219 265.367188 260.484375 C 266.460938 259.390625 267.90625 258.839844 269.355469 258.839844 C 270.675781 258.839844 271.996094 259.296875 273.058594 260.21875 L 305.9375 288.886719 C 307.761719 290.476562 308.8125 292.6875 308.894531 295.105469 C 308.980469 297.527344 308.082031 299.804688 306.371094 301.519531 Z M 313.695312 294.941406 C 313.570312 291.230469 311.890625 287.699219 309.089844 285.261719 L 276.210938 256.597656 C 272.714844 253.546875 267.675781 253.242188 263.871094 255.585938 C 263.191406 256.003906 262.554688 256.503906 261.972656 257.085938 C 261.386719 257.671875 260.886719 258.308594 260.46875 258.984375 C 258.125 262.796875 258.433594 267.835938 261.480469 271.339844 L 290.125 304.242188 C 292.5625 307.042969 296.089844 308.722656 299.796875 308.847656 C 299.949219 308.855469 300.101562 308.859375 300.253906 308.859375 C 303.804688 308.859375 307.25 307.4375 309.765625 304.917969 C 312.390625 302.289062 313.824219 298.65625 313.695312 294.941406 " fill-opacity="1" fill-rule="nonzero"/></g><path fill="#ffffff" d="M 231.8125 231.023438 L 242.347656 220.476562 L 238.953125 217.078125 L 228.414062 227.625 L 223.300781 222.507812 L 219.902344 225.90625 L 228.414062 234.421875 L 231.8125 231.023438 " fill-opacity="1" fill-rule="nonzero"/><g clip-path="url(#23d0f99fc4)"><path fill="#ffffff" d="M 88.9375 80.636719 L 88.9375 57.597656 L 93.738281 57.597656 L 93.738281 80.636719 L 88.9375 80.636719 " fill-opacity="1" fill-rule="nonzero"/></g><path fill="#ffffff" d="M 80.738281 80.636719 L 64.460938 64.34375 L 67.859375 60.949219 L 84.132812 77.238281 L 80.738281 80.636719 " fill-opacity="1" fill-rule="nonzero"/><g clip-path="url(#22923c6e33)"><path fill="#ffffff" d="M 61.113281 85.441406 L 84.132812 85.441406 L 84.132812 90.25 L 61.113281 90.25 L 61.113281 85.441406 " fill-opacity="1" fill-rule="nonzero"/></g><path fill="#ffffff" d="M 266.570312 206.101562 L 266.570312 73.164062 L 108.179688 73.164062 L 108.179688 293.441406 L 266.570312 293.441406 L 266.570312 284.175781 L 261.765625 278.984375 L 261.765625 288.632812 L 112.984375 288.632812 L 112.984375 77.96875 L 261.765625 77.96875 L 261.765625 199.152344 C 263.613281 201.308594 265.21875 203.632812 266.570312 206.101562 " fill-opacity="1" fill-rule="nonzero"/></svg>