<svg xmlns="http://www.w3.org/2000/svg" xmlns:xlink="http://www.w3.org/1999/xlink" width="500" zoomAndPan="magnify" viewBox="0 0 375 374.999991" height="500" preserveAspectRatio="xMidYMid meet" version="1.0"><defs><clipPath id="74d5c3ad8d"><path d="M 187.5 0 C 83.945312 0 0 83.945312 0 187.5 C 0 291.054688 83.945312 375 187.5 375 C 291.054688 375 375 291.054688 375 187.5 C 375 83.945312 291.054688 0 187.5 0 Z M 187.5 0 " clip-rule="nonzero"/></clipPath><clipPath id="cad82acf2e"><path d="M 88.449219 84.441406 L 286.449219 84.441406 L 286.449219 322.386719 L 88.449219 322.386719 Z M 88.449219 84.441406 " clip-rule="nonzero"/></clipPath><clipPath id="a59eede80e"><path d="M 120 52.503906 L 252 52.503906 L 252 111 L 120 111 Z M 120 52.503906 " clip-rule="nonzero"/></clipPath></defs><g clip-path="url(#74d5c3ad8d)"><rect x="-37.5" width="450" fill="#a2c36e" y="-37.499999" height="449.999989" fill-opacity="1"/></g><g clip-path="url(#cad82acf2e)"><path fill="#ffffff" d="M 100.949219 90.230469 C 97.238281 90.230469 94.21875 93.25 94.21875 96.960938 L 94.21875 309.886719 C 94.21875 313.597656 97.238281 316.617188 100.949219 316.617188 L 274.039062 316.617188 C 277.753906 316.617188 280.773438 313.597656 280.773438 309.886719 L 280.773438 96.960938 C 280.773438 93.25 277.753906 90.230469 274.039062 90.230469 L 251.808594 90.230469 L 251.808594 99.714844 C 251.808594 105.40625 247.175781 110.039062 241.480469 110.039062 L 131.046875 110.039062 C 125.355469 110.039062 120.71875 105.40625 120.71875 99.710938 L 120.71875 90.230469 Z M 274.039062 322.386719 L 100.949219 322.386719 C 94.054688 322.386719 88.449219 316.777344 88.449219 309.886719 L 88.449219 96.960938 C 88.449219 90.070312 94.054688 84.460938 100.949219 84.460938 L 126.488281 84.460938 L 126.488281 99.710938 C 126.488281 102.226562 128.535156 104.269531 131.046875 104.269531 L 241.480469 104.269531 C 243.992188 104.269531 246.039062 102.226562 246.039062 99.714844 L 246.039062 84.460938 L 274.039062 84.460938 C 280.933594 84.460938 286.542969 90.070312 286.542969 96.960938 L 286.542969 309.886719 C 286.542969 316.777344 280.933594 322.386719 274.039062 322.386719 " fill-opacity="1" fill-rule="nonzero"/></g><g clip-path="url(#a59eede80e)"><path fill="#ffffff" d="M 131.046875 75.421875 C 128.535156 75.421875 126.488281 77.464844 126.488281 79.980469 L 126.488281 99.714844 C 126.488281 102.226562 128.535156 104.269531 131.046875 104.269531 L 241.480469 104.269531 C 243.996094 104.269531 246.039062 102.226562 246.039062 99.710938 L 246.039062 79.980469 C 246.039062 77.464844 243.996094 75.421875 241.480469 75.421875 L 216.597656 75.421875 C 211.988281 75.421875 207.785156 72.722656 205.625 68.378906 C 202.609375 62.304688 195.558594 58.382812 187.667969 58.382812 C 179.777344 58.382812 172.726562 62.304688 169.710938 68.378906 C 167.550781 72.722656 163.347656 75.421875 158.738281 75.421875 Z M 241.480469 110.039062 L 131.046875 110.039062 C 125.351562 110.039062 120.71875 105.40625 120.71875 99.714844 L 120.71875 79.980469 C 120.71875 74.285156 125.351562 69.652344 131.046875 69.652344 L 158.738281 69.652344 C 161.140625 69.652344 163.367188 68.179688 164.542969 65.8125 C 168.527344 57.792969 177.601562 52.613281 187.667969 52.613281 C 197.734375 52.613281 206.808594 57.792969 210.792969 65.8125 C 211.96875 68.179688 214.195312 69.652344 216.597656 69.652344 L 241.480469 69.652344 C 247.175781 69.652344 251.808594 74.285156 251.808594 79.980469 L 251.808594 99.710938 C 251.808594 105.40625 247.175781 110.039062 241.480469 110.039062 " fill-opacity="1" fill-rule="nonzero"/></g><path fill="#ffffff" d="M 192.339844 84.308594 C 192.339844 86.984375 190.171875 89.152344 187.496094 89.152344 C 184.816406 89.152344 182.648438 86.984375 182.648438 84.308594 C 182.648438 81.628906 184.816406 79.460938 187.496094 79.460938 C 190.171875 79.460938 192.339844 81.628906 192.339844 84.308594 " fill-opacity="1" fill-rule="nonzero"/><path fill="#ffffff" d="M 248.652344 157.25 L 198.109375 157.25 C 195.453125 157.25 193.300781 155.097656 193.300781 152.441406 C 193.300781 149.785156 195.453125 147.632812 198.109375 147.632812 L 248.652344 147.632812 C 251.308594 147.632812 253.460938 149.785156 253.460938 152.441406 C 253.460938 155.097656 251.308594 157.25 248.652344 157.25 " fill-opacity="1" fill-rule="nonzero"/><path fill="#ffffff" d="M 248.652344 209.242188 L 198.109375 209.242188 C 195.453125 209.242188 193.300781 207.089844 193.300781 204.433594 C 193.300781 201.777344 195.453125 199.625 198.109375 199.625 L 248.652344 199.625 C 251.308594 199.625 253.460938 201.777344 253.460938 204.433594 C 253.460938 207.089844 251.308594 209.242188 248.652344 209.242188 " fill-opacity="1" fill-rule="nonzero"/><path fill="#ffffff" d="M 135.925781 158.238281 C 136.886719 159.679688 137.921875 161.042969 139.007812 162.355469 C 140.085938 163.675781 141.304688 164.859375 142.585938 165.976562 L 143.148438 166.464844 L 143.390625 166.660156 C 145.253906 168.050781 147.894531 167.667969 149.289062 165.804688 C 151.1875 163.265625 152.886719 160.546875 154.84375 158.0625 C 156.75 155.539062 158.699219 153.046875 160.550781 150.46875 C 162.441406 147.921875 164.285156 145.335938 166.109375 142.730469 C 167.945312 140.136719 169.785156 137.550781 171.554688 134.894531 C 171.664062 134.730469 171.65625 134.511719 171.527344 134.351562 C 171.367188 134.15625 171.078125 134.128906 170.882812 134.289062 C 168.425781 136.320312 166.039062 138.417969 163.648438 140.511719 C 161.246094 142.59375 158.863281 144.695312 156.523438 146.832031 C 154.148438 148.941406 151.871094 151.132812 149.550781 153.292969 C 148.445312 154.367188 147.273438 155.382812 146.097656 156.394531 C 145.894531 156.21875 145.710938 156.027344 145.503906 155.859375 C 144.191406 154.773438 142.828125 153.738281 141.386719 152.777344 C 139.949219 151.816406 138.460938 150.902344 136.863281 150.101562 C 135.289062 149.277344 133.621094 148.546875 131.777344 147.988281 C 131.683594 147.960938 131.582031 147.957031 131.480469 147.988281 C 131.207031 148.070312 131.054688 148.355469 131.136719 148.628906 C 131.695312 150.46875 132.425781 152.140625 133.25 153.714844 C 134.054688 155.3125 134.964844 156.796875 135.925781 158.238281 " fill-opacity="1" fill-rule="nonzero"/><path fill="#ffffff" d="M 170.882812 186.28125 C 168.425781 188.3125 166.039062 190.410156 163.648438 192.503906 C 161.246094 194.585938 158.863281 196.6875 156.523438 198.824219 C 154.148438 200.933594 151.871094 203.125 149.550781 205.285156 C 148.445312 206.359375 147.273438 207.375 146.097656 208.386719 C 145.894531 208.210938 145.710938 208.019531 145.507812 207.851562 C 144.191406 206.765625 142.828125 205.730469 141.386719 204.769531 C 139.949219 203.808594 138.460938 202.898438 136.863281 202.09375 C 135.289062 201.269531 133.621094 200.539062 131.777344 199.980469 C 131.683594 199.953125 131.582031 199.949219 131.480469 199.980469 C 131.207031 200.0625 131.054688 200.347656 131.136719 200.621094 C 131.695312 202.460938 132.425781 204.132812 133.25 205.707031 C 134.054688 207.304688 134.964844 208.792969 135.925781 210.230469 C 136.886719 211.671875 137.921875 213.035156 139.007812 214.347656 C 140.089844 215.667969 141.304688 216.851562 142.585938 217.96875 L 143.148438 218.457031 L 143.390625 218.652344 C 145.253906 220.042969 147.894531 219.660156 149.289062 217.796875 C 151.1875 215.257812 152.886719 212.539062 154.84375 210.058594 C 156.75 207.527344 158.699219 205.039062 160.550781 202.460938 C 162.441406 199.910156 164.285156 197.328125 166.109375 194.722656 C 167.945312 192.128906 169.785156 189.542969 171.554688 186.886719 C 171.664062 186.722656 171.660156 186.503906 171.527344 186.34375 C 171.367188 186.148438 171.078125 186.121094 170.882812 186.28125 " fill-opacity="1" fill-rule="nonzero"/><path fill="#ffffff" d="M 170.882812 238.273438 C 168.425781 240.304688 166.039062 242.402344 163.648438 244.496094 C 161.246094 246.578125 158.863281 248.679688 156.523438 250.816406 C 154.148438 252.925781 151.871094 255.117188 149.550781 257.277344 C 148.445312 258.351562 147.273438 259.367188 146.097656 260.378906 C 145.894531 260.203125 145.710938 260.011719 145.503906 259.84375 C 144.191406 258.757812 142.828125 257.722656 141.386719 256.761719 C 139.949219 255.800781 138.460938 254.890625 136.863281 254.085938 C 135.289062 253.261719 133.621094 252.53125 131.777344 251.972656 C 131.683594 251.945312 131.582031 251.941406 131.480469 251.972656 C 131.207031 252.054688 131.054688 252.34375 131.136719 252.613281 C 131.695312 254.457031 132.425781 256.125 133.25 257.699219 C 134.054688 259.296875 134.964844 260.785156 135.925781 262.222656 C 136.886719 263.664062 137.921875 265.027344 139.007812 266.34375 C 140.085938 267.660156 141.304688 268.84375 142.585938 269.960938 L 143.148438 270.449219 L 143.390625 270.644531 C 145.253906 272.035156 147.894531 271.652344 149.289062 269.789062 C 151.1875 267.25 152.886719 264.535156 154.84375 262.050781 C 156.75 259.523438 158.699219 257.03125 160.550781 254.453125 C 162.441406 251.90625 164.285156 249.320312 166.109375 246.714844 C 167.945312 244.121094 169.785156 241.535156 171.554688 238.882812 C 171.664062 238.71875 171.660156 238.496094 171.527344 238.335938 C 171.367188 238.140625 171.078125 238.113281 170.882812 238.273438 " fill-opacity="1" fill-rule="nonzero"/><path fill="#ffffff" d="M 248.652344 261.234375 L 198.109375 261.234375 C 195.453125 261.234375 193.300781 259.082031 193.300781 256.425781 C 193.300781 253.769531 195.453125 251.617188 198.109375 251.617188 L 248.652344 251.617188 C 251.308594 251.617188 253.460938 253.769531 253.460938 256.425781 C 253.460938 259.082031 251.308594 261.234375 248.652344 261.234375 " fill-opacity="1" fill-rule="nonzero"/></svg>