<svg xmlns="http://www.w3.org/2000/svg" xmlns:xlink="http://www.w3.org/1999/xlink" width="500" zoomAndPan="magnify" viewBox="0 0 375 374.999991" height="500" preserveAspectRatio="xMidYMid meet" version="1.0"><defs><clipPath id="122db2ddcd"><path d="M 187.5 0 C 83.945312 0 0 83.945312 0 187.5 C 0 291.054688 83.945312 375 187.5 375 C 291.054688 375 375 291.054688 375 187.5 C 375 83.945312 291.054688 0 187.5 0 Z M 187.5 0 " clip-rule="nonzero"/></clipPath></defs><g clip-path="url(#122db2ddcd)"><rect x="-37.5" width="450" fill="#58a39d" y="-37.499999" height="449.999989" fill-opacity="1"/></g><path fill="#ffffff" d="M 205.820312 152.027344 L 200.996094 156.851562 C 196.453125 154.679688 190.851562 155.476562 187.085938 159.238281 L 184.714844 161.609375 L 178.792969 155.691406 L 178.890625 155.59375 C 183.664062 150.820312 183.664062 143.082031 178.890625 138.308594 L 120.503906 79.921875 C 115.730469 75.148438 107.992188 75.148438 103.21875 79.921875 L 79.789062 103.355469 C 75.015625 108.128906 75.015625 115.863281 79.789062 120.636719 C 92.933594 133.785156 125.027344 165.878906 138.175781 179.023438 C 142.949219 183.796875 150.683594 183.796875 155.457031 179.023438 L 155.554688 178.925781 L 161.476562 184.847656 L 156.945312 189.378906 C 155.355469 190.96875 155.355469 193.550781 156.945312 195.140625 C 158.535156 196.730469 161.117188 196.730469 162.707031 195.140625 L 167.234375 190.609375 L 184.464844 207.839844 L 167.476562 224.832031 L 150.246094 207.601562 C 150.246094 207.601562 153.210938 204.632812 153.210938 204.632812 C 154.804688 203.046875 154.804688 200.464844 153.210938 198.875 C 151.621094 197.285156 149.039062 197.285156 147.449219 198.875 L 144.484375 201.839844 L 140.703125 198.054688 C 138.410156 195.765625 135.304688 194.476562 132.058594 194.476562 C 128.820312 194.476562 125.710938 195.761719 123.421875 198.054688 L 117.660156 203.816406 C 115.367188 206.109375 114.078125 209.21875 114.078125 212.460938 C 114.078125 215.46875 115.191406 218.367188 117.1875 220.601562 C 108.25 231 108.707031 246.714844 118.5625 256.566406 C 128.457031 266.460938 144.261719 266.882812 154.660156 257.828125 C 156.691406 259.230469 159.117188 260.003906 161.625 260.003906 C 164.863281 260.003906 167.972656 258.714844 170.265625 256.425781 L 176.027344 250.660156 C 178.320312 248.371094 179.605469 245.265625 179.605469 242.023438 C 179.605469 238.777344 178.320312 235.671875 176.027344 233.382812 L 173.234375 230.589844 L 190.226562 213.601562 L 196.203125 219.578125 L 196.105469 219.675781 C 191.332031 224.445312 191.332031 232.183594 196.105469 236.953125 C 209.25 250.101562 241.34375 282.195312 254.492188 295.34375 C 259.265625 300.113281 267 300.113281 271.773438 295.34375 L 295.207031 271.910156 C 299.980469 267.136719 299.980469 259.398438 295.207031 254.625 L 236.820312 196.238281 C 232.046875 191.464844 224.308594 191.464844 219.535156 196.238281 L 219.4375 196.335938 L 213.464844 190.363281 L 215.835938 187.988281 C 219.625 184.207031 220.40625 178.550781 218.183594 173.992188 L 223.09375 169.089844 L 224.847656 170.160156 C 245.90625 183.019531 273.003906 182.167969 293.316406 167.675781 C 293.328125 167.667969 293.339844 167.664062 293.347656 167.65625 C 296.234375 165.550781 298.0625 162.289062 298.339844 158.726562 C 298.621094 155.160156 297.324219 151.65625 294.792969 149.128906 C 287.726562 142.066406 275.492188 129.828125 262.890625 117.238281 L 266.828125 113.296875 C 271.789062 115.835938 278.03125 115.023438 282.1875 110.875 C 287.34375 105.710938 287.34375 97.339844 282.1875 92.179688 C 277.027344 87.023438 268.648438 87.023438 263.492188 92.179688 C 259.34375 96.335938 258.53125 102.570312 261.066406 107.539062 L 257.125 111.480469 C 244.511719 98.882812 232.257812 86.65625 225.164062 79.617188 C 222.667969 77.121094 219.183594 75.832031 215.648438 76.109375 C 212.113281 76.382812 208.875 78.191406 206.785156 81.058594 C 206.78125 81.0625 206.773438 81.070312 206.769531 81.078125 C 191.714844 102.019531 191.300781 130.261719 205.535156 151.597656 Z M 274.851562 280.746094 L 266.015625 289.578125 C 264.421875 291.171875 261.84375 291.171875 260.253906 289.578125 L 249.625 278.953125 L 261.34375 267.238281 Z M 278.816406 249.761719 L 289.445312 260.390625 C 291.039062 261.976562 291.039062 264.554688 289.445312 266.148438 L 280.609375 274.984375 L 267.101562 261.476562 Z M 217.835938 247.164062 L 243.863281 273.191406 L 255.582031 261.476562 L 229.550781 235.445312 Z M 122.960938 226.402344 C 117.199219 233.597656 117.65625 244.140625 124.320312 250.808594 C 130.988281 257.472656 141.53125 257.929688 148.726562 252.167969 Z M 235.3125 229.6875 L 261.34375 255.714844 L 273.058594 244 L 247.027344 217.972656 Z M 170.265625 239.140625 L 134.941406 203.816406 C 134.179688 203.054688 133.140625 202.621094 132.058594 202.621094 C 130.980469 202.621094 129.945312 203.054688 129.179688 203.816406 C 129.179688 203.816406 123.421875 209.578125 123.421875 209.578125 C 122.65625 210.339844 122.226562 211.375 122.226562 212.460938 C 122.226562 213.539062 122.65625 214.574219 123.421875 215.339844 L 158.742188 250.660156 C 159.507812 251.425781 160.542969 251.855469 161.625 251.855469 C 162.707031 251.855469 163.742188 251.425781 164.507812 250.660156 L 170.265625 244.902344 C 171.027344 244.140625 171.460938 243.101562 171.460938 242.019531 C 171.460938 240.941406 171.027344 239.902344 170.265625 239.140625 Z M 210.699219 216.597656 L 223.792969 229.6875 L 212.074219 241.402344 L 201.863281 231.195312 C 200.277344 229.601562 200.277344 227.023438 201.863281 225.433594 Z M 241.269531 212.210938 L 229.550781 223.925781 L 216.460938 210.835938 L 225.300781 202 C 226.886719 200.410156 229.46875 200.410156 231.058594 202 Z M 201.960938 213.8125 L 213.679688 202.097656 L 207.707031 196.125 L 195.992188 207.839844 Z M 190.226562 202.082031 L 210.078125 182.230469 C 211.667969 180.640625 211.667969 178.058594 210.078125 176.46875 C 206.574219 172.96875 202.113281 168.507812 198.605469 165 C 197.015625 163.410156 194.4375 163.410156 192.847656 165 L 173 184.847656 Z M 173.03125 161.449219 L 161.316406 173.167969 L 167.234375 179.089844 L 178.953125 167.371094 Z M 158.535156 164.429688 L 149.695312 173.265625 C 148.105469 174.855469 145.527344 174.851562 143.933594 173.265625 L 132.1875 161.515625 L 143.902344 149.800781 Z M 229.019531 163.160156 L 229.097656 163.207031 C 247.386719 174.375 270.917969 173.640625 288.578125 161.046875 C 289.527344 160.347656 290.125 159.265625 290.214844 158.089844 C 290.308594 156.90625 289.878906 155.734375 289.035156 154.890625 C 273.828125 139.6875 234.6875 100.546875 219.425781 85.398438 C 219.421875 85.398438 219.417969 85.394531 219.414062 85.390625 C 218.589844 84.5625 217.445312 84.144531 216.28125 84.234375 C 215.125 84.324219 214.0625 84.914062 213.371094 85.851562 C 200.527344 103.730469 199.96875 127.734375 211.703125 146.144531 L 223.070312 134.777344 C 224.597656 133.25 226.671875 132.390625 228.832031 132.390625 C 230.992188 132.390625 233.0625 133.25 234.589844 134.777344 L 240.238281 140.417969 C 241.765625 141.945312 242.625 144.019531 242.625 146.179688 C 242.625 148.34375 241.765625 150.410156 240.238281 151.941406 Z M 228.832031 140.539062 C 228.832031 140.539062 234.476562 146.179688 234.476562 146.179688 C 234.476562 146.179688 213.160156 167.496094 213.160156 167.496094 C 213.160156 167.496094 207.515625 161.855469 207.515625 161.855469 Z M 161.382812 132.320312 L 173.128906 144.070312 C 174.71875 145.660156 174.71875 148.242188 173.128906 149.828125 L 164.292969 158.667969 L 149.664062 144.035156 Z M 105.71875 135.046875 L 126.425781 155.757812 L 138.140625 144.035156 L 117.4375 123.332031 Z M 123.195312 117.570312 L 143.902344 138.277344 L 155.617188 126.5625 L 134.910156 105.855469 Z M 94.382812 100.277344 L 111.671875 117.570312 L 99.957031 129.285156 L 85.546875 114.878906 C 83.957031 113.285156 83.957031 110.707031 85.546875 109.113281 Z M 129.152344 100.089844 L 117.4375 111.8125 L 100.144531 94.519531 L 108.980469 85.683594 C 110.574219 84.089844 113.152344 84.089844 114.738281 85.683594 Z M 276.421875 97.945312 C 278.402344 99.921875 278.402344 103.132812 276.421875 105.109375 C 274.445312 107.089844 271.234375 107.089844 269.257812 105.109375 C 267.277344 103.132812 267.277344 99.921875 269.257812 97.945312 C 271.234375 95.964844 274.445312 95.964844 276.421875 97.945312 Z M 276.421875 97.945312 " fill-opacity="1" fill-rule="evenodd"/></svg>