<svg xmlns="http://www.w3.org/2000/svg" xmlns:xlink="http://www.w3.org/1999/xlink" width="500" zoomAndPan="magnify" viewBox="0 0 375 374.999991" height="500" preserveAspectRatio="xMidYMid meet" version="1.0"><defs><clipPath id="e32ba2c004"><path d="M 187.5 0 C 83.945312 0 0 83.945312 0 187.5 C 0 291.054688 83.945312 375 187.5 375 C 291.054688 375 375 291.054688 375 187.5 C 375 83.945312 291.054688 0 187.5 0 Z M 187.5 0 " clip-rule="nonzero"/></clipPath><clipPath id="ae468e5920"><path d="M 51 54 L 322 54 L 322 323.199219 L 51 323.199219 Z M 51 54 " clip-rule="nonzero"/></clipPath></defs><g clip-path="url(#e32ba2c004)"><rect x="-37.5" width="450" fill="#a2c36e" y="-37.499999" height="449.999989" fill-opacity="1"/></g><path fill="#ffffff" d="M 195.871094 180.269531 C 195.296875 180.269531 194.726562 180.222656 194.164062 180.132812 C 193.597656 180.039062 193.042969 179.902344 192.496094 179.722656 C 191.953125 179.539062 191.429688 179.316406 190.921875 179.050781 C 190.414062 178.785156 189.929688 178.480469 189.46875 178.136719 C 189.011719 177.792969 188.582031 177.414062 188.183594 177.003906 C 187.785156 176.589844 187.425781 176.148438 187.097656 175.675781 C 186.769531 175.207031 186.484375 174.710938 186.234375 174.195312 C 185.988281 173.679688 185.78125 173.144531 185.621094 172.59375 L 176.40625 141.121094 C 176.070312 139.964844 175.523438 138.917969 174.769531 137.976562 C 174.011719 137.039062 173.105469 136.28125 172.046875 135.707031 L 143.070312 119.855469 C 142.507812 119.546875 141.980469 119.191406 141.488281 118.78125 C 140.996094 118.371094 140.550781 117.914062 140.148438 117.417969 C 139.746094 116.917969 139.394531 116.382812 139.097656 115.816406 C 138.800781 115.25 138.5625 114.65625 138.378906 114.042969 C 138.199219 113.425781 138.082031 112.800781 138.023438 112.164062 C 137.964844 111.523438 137.972656 110.886719 138.039062 110.25 C 138.109375 109.613281 138.238281 108.988281 138.429688 108.375 C 138.625 107.765625 138.871094 107.179688 139.179688 106.617188 C 139.488281 106.054688 139.847656 105.527344 140.257812 105.035156 C 140.671875 104.542969 141.125 104.097656 141.625 103.695312 C 142.125 103.292969 142.660156 102.945312 143.226562 102.648438 C 143.796875 102.351562 144.386719 102.117188 145.003906 101.9375 C 145.617188 101.757812 146.246094 101.640625 146.882812 101.582031 C 147.523438 101.527344 148.160156 101.535156 148.796875 101.605469 C 149.433594 101.675781 150.058594 101.804688 150.667969 102 C 151.28125 102.191406 151.867188 102.441406 152.429688 102.753906 L 178.007812 116.746094 C 178.382812 116.949219 178.785156 117.074219 179.214844 117.121094 C 179.640625 117.167969 180.058594 117.128906 180.472656 117.011719 C 180.882812 116.890625 181.257812 116.695312 181.589844 116.425781 C 181.925781 116.15625 182.195312 115.832031 182.402344 115.457031 L 196.394531 89.878906 C 196.699219 89.316406 197.058594 88.792969 197.472656 88.300781 C 197.882812 87.808594 198.335938 87.363281 198.835938 86.960938 C 199.332031 86.5625 199.867188 86.210938 200.433594 85.917969 C 201 85.621094 201.59375 85.382812 202.207031 85.203125 C 202.820312 85.023438 203.445312 84.902344 204.082031 84.847656 C 204.722656 84.789062 205.359375 84.796875 205.996094 84.867188 C 206.632812 84.933594 207.253906 85.066406 207.863281 85.257812 C 208.476562 85.449219 209.0625 85.699219 209.625 86.003906 C 210.183594 86.3125 210.710938 86.671875 211.203125 87.082031 C 211.691406 87.492188 212.136719 87.949219 212.539062 88.445312 C 212.941406 88.945312 213.289062 89.476562 213.585938 90.046875 C 213.882812 90.613281 214.121094 91.203125 214.300781 91.816406 C 214.480469 92.433594 214.597656 93.058594 214.65625 93.695312 C 214.710938 94.332031 214.703125 94.96875 214.636719 95.605469 C 214.566406 96.242188 214.4375 96.867188 214.246094 97.476562 C 214.054688 98.085938 213.804688 98.671875 213.496094 99.234375 L 197.644531 128.214844 C 197.0625 129.269531 196.707031 130.394531 196.578125 131.59375 C 196.449219 132.792969 196.554688 133.96875 196.898438 135.125 L 206.113281 166.59375 C 206.226562 166.992188 206.320312 167.390625 206.390625 167.800781 C 206.457031 168.207031 206.503906 168.617188 206.527344 169.027344 C 206.546875 169.441406 206.546875 169.855469 206.519531 170.265625 C 206.492188 170.679688 206.445312 171.085938 206.371094 171.492188 C 206.296875 171.902344 206.199219 172.300781 206.078125 172.695312 C 205.960938 173.089844 205.816406 173.480469 205.652344 173.855469 C 205.488281 174.234375 205.300781 174.605469 205.09375 174.960938 C 204.886719 175.316406 204.65625 175.660156 204.410156 175.992188 C 204.164062 176.324219 203.898438 176.636719 203.613281 176.9375 C 203.328125 177.238281 203.027344 177.519531 202.710938 177.785156 C 202.394531 178.050781 202.0625 178.296875 201.71875 178.523438 C 201.371094 178.75 201.015625 178.953125 200.644531 179.140625 C 200.277344 179.324219 199.898438 179.488281 199.507812 179.628906 C 199.121094 179.769531 198.726562 179.886719 198.324219 179.984375 C 197.921875 180.078125 197.515625 180.148438 197.105469 180.199219 C 196.695312 180.246094 196.285156 180.269531 195.871094 180.269531 Z M 147.75 108.0625 C 147.390625 108.0625 147.042969 108.121094 146.703125 108.238281 C 146.363281 108.355469 146.050781 108.523438 145.765625 108.742188 C 145.480469 108.964844 145.242188 109.226562 145.042969 109.527344 C 144.847656 109.828125 144.703125 110.152344 144.613281 110.5 C 144.523438 110.847656 144.496094 111.203125 144.523438 111.558594 C 144.550781 111.917969 144.636719 112.261719 144.78125 112.59375 C 144.925781 112.921875 145.117188 113.21875 145.359375 113.484375 C 145.601562 113.753906 145.878906 113.972656 146.195312 114.144531 L 175.171875 129.996094 C 176.988281 130.984375 178.546875 132.28125 179.84375 133.894531 C 181.140625 135.507812 182.078125 137.304688 182.652344 139.292969 L 191.867188 170.765625 C 191.945312 171.027344 192.046875 171.28125 192.171875 171.523438 C 192.300781 171.765625 192.449219 171.992188 192.621094 172.207031 C 192.792969 172.417969 192.984375 172.613281 193.191406 172.789062 C 193.402344 172.964844 193.628906 173.117188 193.867188 173.25 C 194.105469 173.382812 194.359375 173.488281 194.617188 173.570312 C 194.878906 173.652344 195.144531 173.707031 195.417969 173.738281 C 195.691406 173.765625 195.960938 173.769531 196.234375 173.746094 C 196.507812 173.71875 196.773438 173.671875 197.039062 173.59375 C 197.300781 173.515625 197.550781 173.414062 197.792969 173.289062 C 198.039062 173.160156 198.265625 173.011719 198.476562 172.839844 C 198.691406 172.667969 198.886719 172.480469 199.0625 172.269531 C 199.238281 172.058594 199.390625 171.835938 199.523438 171.59375 C 199.652344 171.355469 199.757812 171.105469 199.839844 170.84375 C 199.921875 170.582031 199.980469 170.316406 200.007812 170.042969 C 200.039062 169.769531 200.039062 169.5 200.015625 169.226562 C 199.992188 168.953125 199.941406 168.6875 199.867188 168.425781 L 190.652344 136.953125 C 190.0625 134.96875 189.882812 132.949219 190.105469 130.894531 C 190.328125 128.835938 190.9375 126.902344 191.933594 125.089844 L 207.785156 96.113281 C 207.988281 95.734375 208.113281 95.335938 208.15625 94.910156 C 208.199219 94.484375 208.160156 94.066406 208.039062 93.65625 C 207.917969 93.246094 207.722656 92.875 207.453125 92.542969 C 207.1875 92.210938 206.863281 91.941406 206.488281 91.734375 C 206.113281 91.53125 205.714844 91.40625 205.289062 91.359375 C 204.863281 91.3125 204.445312 91.347656 204.035156 91.464844 C 203.625 91.585938 203.253906 91.777344 202.917969 92.042969 C 202.582031 92.308594 202.3125 92.628906 202.105469 93.003906 L 188.113281 118.582031 C 187.804688 119.144531 187.445312 119.667969 187.035156 120.160156 C 186.625 120.648438 186.167969 121.09375 185.671875 121.496094 C 185.171875 121.898438 184.640625 122.246094 184.070312 122.542969 C 183.503906 122.835938 182.914062 123.074219 182.300781 123.253906 C 181.6875 123.433594 181.058594 123.554688 180.421875 123.609375 C 179.785156 123.667969 179.148438 123.660156 178.511719 123.589844 C 177.875 123.523438 177.253906 123.394531 176.640625 123.203125 C 176.03125 123.011719 175.445312 122.761719 174.882812 122.457031 L 149.304688 108.460938 C 148.820312 108.195312 148.304688 108.0625 147.75 108.0625 Z M 147.75 108.0625 " fill-opacity="1" fill-rule="nonzero"/><path fill="#ffffff" d="M 168.910156 216.972656 C 167.09375 216.972656 165.390625 216.535156 163.800781 215.660156 L 135.03125 199.921875 C 133.976562 199.339844 132.847656 198.984375 131.652344 198.855469 C 130.453125 198.726562 129.277344 198.832031 128.121094 199.171875 L 96.421875 208.453125 C 95.808594 208.636719 95.179688 208.757812 94.542969 208.816406 C 93.902344 208.878906 93.261719 208.875 92.625 208.808594 C 91.984375 208.742188 91.359375 208.613281 90.746094 208.421875 C 90.132812 208.230469 89.542969 207.984375 88.980469 207.675781 C 88.417969 207.371094 87.886719 207.011719 87.394531 206.597656 C 86.902344 206.1875 86.453125 205.734375 86.050781 205.234375 C 85.648438 204.734375 85.296875 204.199219 85 203.628906 C 84.703125 203.0625 84.460938 202.46875 84.28125 201.851562 C 84.101562 201.234375 83.984375 200.609375 83.925781 199.96875 C 83.871094 199.328125 83.878906 198.691406 83.945312 198.050781 C 84.015625 197.414062 84.148438 196.789062 84.34375 196.175781 C 84.535156 195.5625 84.789062 194.976562 85.097656 194.414062 C 85.40625 193.851562 85.769531 193.324219 86.183594 192.832031 C 86.59375 192.339844 87.054688 191.894531 87.554688 191.496094 C 88.058594 191.09375 88.59375 190.746094 89.164062 190.453125 C 89.734375 190.15625 90.328125 189.921875 90.945312 189.746094 L 118.925781 181.550781 C 119.339844 181.429688 119.710938 181.234375 120.046875 180.964844 C 120.378906 180.695312 120.652344 180.371094 120.855469 179.996094 C 121.0625 179.621094 121.1875 179.21875 121.234375 178.789062 C 121.28125 178.363281 121.246094 177.945312 121.125 177.53125 L 112.929688 149.554688 C 112.660156 148.628906 112.527344 147.683594 112.539062 146.71875 C 112.546875 145.753906 112.695312 144.8125 112.984375 143.894531 C 113.273438 142.972656 113.6875 142.117188 114.234375 141.320312 C 114.777344 140.523438 115.421875 139.824219 116.175781 139.21875 C 116.925781 138.613281 117.746094 138.132812 118.640625 137.773438 C 119.535156 137.410156 120.464844 137.1875 121.421875 137.105469 C 122.382812 137.019531 123.335938 137.074219 124.277344 137.273438 C 125.222656 137.46875 126.117188 137.800781 126.960938 138.261719 C 128.097656 138.878906 129.074219 139.691406 129.882812 140.699219 C 130.695312 141.707031 131.277344 142.832031 131.640625 144.074219 L 140.921875 175.773438 C 141.257812 176.929688 141.804688 177.980469 142.558594 178.917969 C 143.3125 179.855469 144.222656 180.613281 145.28125 181.1875 L 174.046875 196.925781 C 174.972656 197.433594 175.808594 198.0625 176.546875 198.816406 C 177.285156 199.570312 177.898438 200.414062 178.386719 201.351562 C 178.875 202.289062 179.21875 203.273438 179.414062 204.3125 C 179.609375 205.347656 179.652344 206.390625 179.539062 207.441406 C 179.425781 208.492188 179.160156 209.5 178.746094 210.472656 C 178.335938 211.445312 177.789062 212.335938 177.109375 213.144531 C 176.433594 213.953125 175.652344 214.648438 174.769531 215.226562 C 173.886719 215.804688 172.9375 216.242188 171.925781 216.539062 C 170.941406 216.828125 169.9375 216.972656 168.910156 216.972656 Z M 130.695312 192.292969 C 133.34375 192.292969 135.832031 192.933594 138.15625 194.210938 L 166.925781 209.949219 C 167.164062 210.082031 167.414062 210.1875 167.675781 210.273438 C 167.9375 210.355469 168.203125 210.410156 168.476562 210.441406 C 168.75 210.46875 169.023438 210.472656 169.296875 210.449219 C 169.566406 210.425781 169.835938 210.375 170.097656 210.296875 C 170.363281 210.222656 170.613281 210.121094 170.859375 209.992188 C 171.101562 209.867188 171.328125 209.71875 171.542969 209.546875 C 171.753906 209.375 171.949219 209.183594 172.125 208.972656 C 172.300781 208.765625 172.457031 208.539062 172.585938 208.296875 C 172.71875 208.058594 172.824219 207.808594 172.90625 207.546875 C 172.988281 207.285156 173.042969 207.019531 173.074219 206.746094 C 173.105469 206.472656 173.105469 206.199219 173.082031 205.925781 C 173.058594 205.65625 173.007812 205.386719 172.929688 205.125 C 172.851562 204.863281 172.75 204.609375 172.621094 204.367188 C 172.496094 204.125 172.347656 203.894531 172.175781 203.683594 C 172.003906 203.46875 171.8125 203.273438 171.601562 203.097656 C 171.390625 202.925781 171.164062 202.769531 170.925781 202.640625 L 142.15625 186.902344 C 140.339844 185.914062 138.78125 184.613281 137.484375 183.003906 C 136.1875 181.390625 135.25 179.59375 134.675781 177.605469 L 125.394531 145.902344 C 125.273438 145.492188 125.078125 145.117188 124.808594 144.785156 C 124.539062 144.449219 124.214844 144.179688 123.839844 143.972656 C 123.460938 143.765625 123.0625 143.640625 122.632812 143.59375 C 122.207031 143.546875 121.789062 143.585938 121.375 143.707031 C 120.964844 143.828125 120.589844 144.023438 120.253906 144.289062 C 119.921875 144.558594 119.648438 144.882812 119.445312 145.257812 C 119.238281 145.636719 119.113281 146.039062 119.066406 146.464844 C 119.019531 146.890625 119.058594 147.3125 119.175781 147.722656 L 127.371094 175.703125 C 127.550781 176.320312 127.667969 176.945312 127.722656 177.582031 C 127.78125 178.21875 127.773438 178.855469 127.703125 179.492188 C 127.632812 180.128906 127.503906 180.75 127.3125 181.363281 C 127.121094 181.972656 126.871094 182.558594 126.5625 183.121094 C 126.257812 183.679688 125.898438 184.207031 125.488281 184.699219 C 125.078125 185.1875 124.621094 185.632812 124.125 186.035156 C 123.625 186.4375 123.09375 186.785156 122.527344 187.082031 C 121.960938 187.378906 121.367188 187.617188 120.753906 187.796875 L 92.773438 195.992188 C 92.363281 196.113281 91.988281 196.308594 91.65625 196.574219 C 91.320312 196.84375 91.050781 197.167969 90.84375 197.542969 C 90.636719 197.921875 90.511719 198.324219 90.464844 198.75 C 90.417969 199.175781 90.457031 199.597656 90.578125 200.007812 C 90.699219 200.421875 90.890625 200.792969 91.160156 201.128906 C 91.429688 201.464844 91.753906 201.734375 92.128906 201.941406 C 92.507812 202.144531 92.910156 202.273438 93.335938 202.316406 C 93.761719 202.363281 94.183594 202.328125 94.59375 202.207031 L 126.292969 192.925781 C 127.730469 192.503906 129.195312 192.292969 130.695312 192.289062 Z M 130.695312 192.292969 " fill-opacity="1" fill-rule="nonzero"/><path fill="#ffffff" d="M 131.605469 276.632812 L 121.953125 276.632812 C 121.167969 276.632812 120.390625 276.554688 119.621094 276.402344 C 118.851562 276.25 118.101562 276.019531 117.378906 275.71875 C 116.652344 275.417969 115.964844 275.050781 115.3125 274.613281 C 114.660156 274.179688 114.054688 273.683594 113.5 273.128906 C 112.945312 272.574219 112.449219 271.96875 112.011719 271.316406 C 111.578125 270.664062 111.207031 269.976562 110.90625 269.25 C 110.605469 268.523438 110.378906 267.777344 110.226562 267.007812 C 110.070312 266.238281 109.996094 265.460938 109.992188 264.675781 L 109.992188 262.539062 C 109.996094 261.753906 110.070312 260.976562 110.226562 260.207031 C 110.378906 259.4375 110.605469 258.6875 110.90625 257.964844 C 111.207031 257.238281 111.578125 256.550781 112.011719 255.898438 C 112.449219 255.246094 112.945312 254.640625 113.5 254.085938 C 114.054688 253.53125 114.660156 253.035156 115.3125 252.597656 C 115.964844 252.164062 116.652344 251.792969 117.378906 251.492188 C 118.101562 251.191406 118.851562 250.964844 119.621094 250.8125 C 120.390625 250.65625 121.167969 250.582031 121.953125 250.578125 L 131.605469 250.578125 C 132.390625 250.582031 133.167969 250.65625 133.9375 250.8125 C 134.707031 250.964844 135.457031 251.191406 136.179688 251.492188 C 136.90625 251.792969 137.59375 252.164062 138.246094 252.597656 C 138.898438 253.035156 139.503906 253.53125 140.058594 254.085938 C 140.613281 254.640625 141.109375 255.246094 141.546875 255.898438 C 141.980469 256.550781 142.351562 257.238281 142.652344 257.964844 C 142.953125 258.6875 143.179688 259.4375 143.332031 260.207031 C 143.488281 260.976562 143.5625 261.753906 143.566406 262.539062 L 143.566406 264.675781 C 143.5625 265.460938 143.488281 266.238281 143.332031 267.007812 C 143.179688 267.777344 142.953125 268.523438 142.652344 269.25 C 142.351562 269.976562 141.980469 270.664062 141.546875 271.316406 C 141.109375 271.96875 140.613281 272.574219 140.058594 273.128906 C 139.503906 273.683594 138.898438 274.179688 138.246094 274.613281 C 137.59375 275.050781 136.90625 275.417969 136.179688 275.71875 C 135.457031 276.019531 134.707031 276.25 133.9375 276.402344 C 133.167969 276.554688 132.390625 276.632812 131.605469 276.632812 Z M 121.953125 257.089844 C 121.59375 257.089844 121.238281 257.125 120.890625 257.195312 C 120.539062 257.265625 120.199219 257.367188 119.867188 257.503906 C 119.535156 257.640625 119.222656 257.808594 118.925781 258.007812 C 118.628906 258.207031 118.351562 258.433594 118.101562 258.6875 C 117.847656 258.941406 117.621094 259.214844 117.421875 259.511719 C 117.222656 259.808594 117.054688 260.125 116.917969 260.453125 C 116.78125 260.785156 116.679688 261.125 116.609375 261.476562 C 116.539062 261.824219 116.503906 262.179688 116.503906 262.539062 L 116.503906 264.675781 C 116.503906 265.035156 116.539062 265.386719 116.609375 265.738281 C 116.679688 266.089844 116.78125 266.429688 116.917969 266.761719 C 117.054688 267.089844 117.222656 267.402344 117.421875 267.703125 C 117.621094 268 117.847656 268.273438 118.101562 268.527344 C 118.351562 268.78125 118.628906 269.003906 118.925781 269.203125 C 119.222656 269.402344 119.535156 269.570312 119.867188 269.707031 C 120.199219 269.84375 120.539062 269.949219 120.890625 270.019531 C 121.238281 270.089844 121.59375 270.125 121.953125 270.125 L 131.605469 270.125 C 131.964844 270.125 132.320312 270.089844 132.667969 270.019531 C 133.019531 269.949219 133.359375 269.84375 133.691406 269.707031 C 134.019531 269.570312 134.335938 269.402344 134.632812 269.203125 C 134.929688 269.003906 135.203125 268.78125 135.457031 268.527344 C 135.710938 268.273438 135.9375 268 136.136719 267.703125 C 136.335938 267.402344 136.503906 267.089844 136.640625 266.761719 C 136.777344 266.429688 136.878906 266.089844 136.949219 265.738281 C 137.019531 265.386719 137.054688 265.035156 137.054688 264.675781 L 137.054688 262.539062 C 137.054688 262.179688 137.019531 261.824219 136.949219 261.476562 C 136.878906 261.125 136.777344 260.785156 136.640625 260.453125 C 136.503906 260.125 136.335938 259.808594 136.136719 259.511719 C 135.9375 259.214844 135.710938 258.941406 135.457031 258.6875 C 135.203125 258.433594 134.929688 258.207031 134.632812 258.007812 C 134.335938 257.808594 134.019531 257.640625 133.691406 257.503906 C 133.359375 257.367188 133.019531 257.265625 132.667969 257.195312 C 132.320312 257.125 131.964844 257.089844 131.605469 257.089844 Z M 121.953125 257.089844 " fill-opacity="1" fill-rule="nonzero"/><path fill="#ffffff" d="M 158.667969 276.632812 L 149.015625 276.632812 C 148.230469 276.632812 147.453125 276.554688 146.683594 276.402344 C 145.910156 276.25 145.164062 276.019531 144.441406 275.71875 C 143.714844 275.417969 143.027344 275.050781 142.375 274.613281 C 141.71875 274.179688 141.117188 273.683594 140.5625 273.128906 C 140.007812 272.574219 139.511719 271.96875 139.074219 271.316406 C 138.636719 270.664062 138.269531 269.976562 137.96875 269.25 C 137.667969 268.523438 137.441406 267.777344 137.289062 267.007812 C 137.132812 266.238281 137.054688 265.460938 137.054688 264.675781 L 137.054688 262.539062 C 137.054688 261.753906 137.132812 260.976562 137.289062 260.207031 C 137.441406 259.4375 137.667969 258.6875 137.96875 257.964844 C 138.269531 257.238281 138.636719 256.550781 139.074219 255.898438 C 139.511719 255.246094 140.007812 254.640625 140.5625 254.085938 C 141.117188 253.53125 141.722656 253.035156 142.375 252.597656 C 143.027344 252.164062 143.714844 251.792969 144.441406 251.492188 C 145.164062 251.191406 145.910156 250.964844 146.683594 250.8125 C 147.453125 250.65625 148.230469 250.582031 149.015625 250.578125 L 158.667969 250.578125 C 159.453125 250.582031 160.230469 250.65625 161 250.8125 C 161.769531 250.964844 162.519531 251.191406 163.242188 251.492188 C 163.96875 251.792969 164.65625 252.164062 165.308594 252.597656 C 165.960938 253.035156 166.566406 253.53125 167.121094 254.085938 C 167.675781 254.640625 168.171875 255.246094 168.609375 255.898438 C 169.042969 256.550781 169.414062 257.238281 169.714844 257.964844 C 170.015625 258.6875 170.242188 259.4375 170.394531 260.207031 C 170.546875 260.976562 170.625 261.753906 170.628906 262.539062 L 170.628906 264.675781 C 170.625 265.460938 170.546875 266.238281 170.394531 267.007812 C 170.242188 267.777344 170.015625 268.523438 169.714844 269.25 C 169.414062 269.976562 169.042969 270.664062 168.609375 271.316406 C 168.171875 271.96875 167.675781 272.574219 167.121094 273.128906 C 166.566406 273.683594 165.960938 274.179688 165.308594 274.613281 C 164.65625 275.050781 163.96875 275.417969 163.242188 275.71875 C 162.519531 276.019531 161.769531 276.25 161 276.402344 C 160.230469 276.554688 159.453125 276.632812 158.667969 276.632812 Z M 149.015625 257.089844 C 148.65625 257.089844 148.300781 257.125 147.949219 257.195312 C 147.601562 257.265625 147.261719 257.367188 146.929688 257.503906 C 146.597656 257.640625 146.285156 257.808594 145.988281 258.007812 C 145.691406 258.207031 145.414062 258.433594 145.164062 258.6875 C 144.910156 258.941406 144.683594 259.214844 144.484375 259.511719 C 144.285156 259.808594 144.117188 260.125 143.980469 260.453125 C 143.84375 260.785156 143.742188 261.125 143.671875 261.476562 C 143.601562 261.824219 143.566406 262.179688 143.566406 262.539062 L 143.566406 264.675781 C 143.566406 265.035156 143.601562 265.386719 143.671875 265.738281 C 143.742188 266.089844 143.84375 266.429688 143.980469 266.761719 C 144.117188 267.089844 144.285156 267.402344 144.484375 267.703125 C 144.683594 268 144.910156 268.273438 145.164062 268.527344 C 145.414062 268.78125 145.691406 269.003906 145.988281 269.203125 C 146.285156 269.402344 146.597656 269.570312 146.929688 269.707031 C 147.261719 269.84375 147.601562 269.949219 147.949219 270.019531 C 148.300781 270.089844 148.65625 270.125 149.015625 270.125 L 158.667969 270.125 C 159.027344 270.125 159.378906 270.089844 159.730469 270.019531 C 160.082031 269.949219 160.421875 269.84375 160.753906 269.707031 C 161.082031 269.570312 161.398438 269.402344 161.695312 269.203125 C 161.992188 269.003906 162.265625 268.78125 162.519531 268.527344 C 162.773438 268.273438 163 268 163.199219 267.703125 C 163.394531 267.402344 163.5625 267.089844 163.703125 266.761719 C 163.839844 266.429688 163.941406 266.089844 164.011719 265.738281 C 164.082031 265.386719 164.117188 265.035156 164.117188 264.675781 L 164.117188 262.539062 C 164.117188 262.179688 164.082031 261.824219 164.011719 261.476562 C 163.941406 261.125 163.839844 260.785156 163.703125 260.453125 C 163.5625 260.125 163.394531 259.808594 163.199219 259.511719 C 163 259.214844 162.773438 258.941406 162.519531 258.6875 C 162.265625 258.433594 161.992188 258.207031 161.695312 258.007812 C 161.398438 257.808594 161.082031 257.640625 160.753906 257.503906 C 160.421875 257.367188 160.082031 257.265625 159.730469 257.195312 C 159.378906 257.125 159.027344 257.089844 158.667969 257.089844 Z M 149.015625 257.089844 " fill-opacity="1" fill-rule="nonzero"/><path fill="#ffffff" d="M 185.730469 276.632812 L 176.074219 276.632812 C 175.292969 276.632812 174.515625 276.554688 173.746094 276.402344 C 172.972656 276.25 172.226562 276.019531 171.503906 275.71875 C 170.777344 275.417969 170.089844 275.050781 169.4375 274.613281 C 168.785156 274.179688 168.179688 273.683594 167.625 273.128906 C 167.070312 272.574219 166.574219 271.96875 166.136719 271.316406 C 165.703125 270.664062 165.332031 269.976562 165.03125 269.25 C 164.730469 268.523438 164.503906 267.777344 164.351562 267.007812 C 164.195312 266.238281 164.117188 265.460938 164.117188 264.675781 L 164.117188 262.539062 C 164.117188 261.753906 164.195312 260.976562 164.351562 260.207031 C 164.503906 259.4375 164.730469 258.6875 165.03125 257.964844 C 165.332031 257.238281 165.703125 256.550781 166.136719 255.898438 C 166.574219 255.246094 167.070312 254.640625 167.625 254.085938 C 168.179688 253.53125 168.785156 253.035156 169.4375 252.597656 C 170.089844 252.164062 170.777344 251.792969 171.503906 251.492188 C 172.226562 251.191406 172.972656 250.964844 173.746094 250.8125 C 174.515625 250.65625 175.292969 250.582031 176.074219 250.578125 L 185.730469 250.578125 C 186.515625 250.582031 187.292969 250.65625 188.0625 250.8125 C 188.832031 250.964844 189.582031 251.191406 190.304688 251.492188 C 191.03125 251.792969 191.71875 252.164062 192.371094 252.597656 C 193.023438 253.035156 193.628906 253.53125 194.183594 254.085938 C 194.738281 254.640625 195.234375 255.246094 195.671875 255.898438 C 196.105469 256.550781 196.476562 257.238281 196.777344 257.964844 C 197.078125 258.6875 197.304688 259.4375 197.457031 260.207031 C 197.613281 260.976562 197.6875 261.753906 197.691406 262.539062 L 197.691406 264.675781 C 197.6875 265.460938 197.613281 266.238281 197.457031 267.007812 C 197.304688 267.777344 197.078125 268.523438 196.777344 269.25 C 196.476562 269.976562 196.105469 270.664062 195.671875 271.316406 C 195.234375 271.96875 194.738281 272.574219 194.183594 273.128906 C 193.628906 273.683594 193.023438 274.179688 192.371094 274.613281 C 191.71875 275.050781 191.03125 275.417969 190.304688 275.71875 C 189.582031 276.019531 188.832031 276.25 188.0625 276.402344 C 187.292969 276.554688 186.515625 276.632812 185.730469 276.632812 Z M 176.074219 257.089844 C 175.71875 257.089844 175.363281 257.125 175.011719 257.195312 C 174.664062 257.265625 174.320312 257.367188 173.992188 257.503906 C 173.660156 257.640625 173.347656 257.808594 173.050781 258.007812 C 172.753906 258.207031 172.476562 258.433594 172.226562 258.6875 C 171.972656 258.941406 171.746094 259.214844 171.546875 259.511719 C 171.347656 259.808594 171.179688 260.125 171.042969 260.453125 C 170.90625 260.785156 170.804688 261.125 170.734375 261.476562 C 170.664062 261.824219 170.628906 262.179688 170.628906 262.539062 L 170.628906 264.675781 C 170.628906 265.035156 170.664062 265.386719 170.734375 265.738281 C 170.804688 266.089844 170.90625 266.429688 171.042969 266.761719 C 171.179688 267.089844 171.347656 267.402344 171.546875 267.703125 C 171.746094 268 171.972656 268.273438 172.226562 268.527344 C 172.476562 268.78125 172.753906 269.003906 173.050781 269.203125 C 173.347656 269.402344 173.660156 269.570312 173.992188 269.707031 C 174.320312 269.84375 174.664062 269.949219 175.011719 270.019531 C 175.363281 270.089844 175.71875 270.125 176.074219 270.125 L 185.730469 270.125 C 186.089844 270.125 186.441406 270.089844 186.792969 270.019531 C 187.144531 269.949219 187.484375 269.84375 187.816406 269.707031 C 188.144531 269.570312 188.460938 269.402344 188.757812 269.203125 C 189.054688 269.003906 189.328125 268.78125 189.582031 268.527344 C 189.835938 268.273438 190.0625 268 190.261719 267.703125 C 190.460938 267.402344 190.628906 267.089844 190.765625 266.761719 C 190.902344 266.429688 191.003906 266.089844 191.074219 265.738281 C 191.144531 265.386719 191.179688 265.035156 191.179688 264.675781 L 191.179688 262.539062 C 191.179688 262.179688 191.144531 261.824219 191.074219 261.476562 C 191.003906 261.125 190.902344 260.785156 190.765625 260.453125 C 190.628906 260.125 190.460938 259.808594 190.261719 259.511719 C 190.0625 259.214844 189.835938 258.941406 189.582031 258.6875 C 189.328125 258.433594 189.054688 258.207031 188.757812 258.007812 C 188.460938 257.808594 188.144531 257.640625 187.816406 257.503906 C 187.484375 257.367188 187.144531 257.265625 186.792969 257.195312 C 186.441406 257.125 186.089844 257.089844 185.730469 257.089844 Z M 176.074219 257.089844 " fill-opacity="1" fill-rule="nonzero"/><path fill="#ffffff" d="M 212.792969 276.632812 L 203.136719 276.632812 C 202.355469 276.632812 201.578125 276.554688 200.804688 276.402344 C 200.035156 276.25 199.289062 276.019531 198.566406 275.71875 C 197.839844 275.417969 197.152344 275.050781 196.5 274.613281 C 195.84375 274.179688 195.242188 273.683594 194.6875 273.128906 C 194.132812 272.574219 193.636719 271.96875 193.199219 271.316406 C 192.765625 270.664062 192.394531 269.976562 192.09375 269.25 C 191.792969 268.523438 191.566406 267.777344 191.414062 267.007812 C 191.257812 266.238281 191.179688 265.460938 191.179688 264.675781 L 191.179688 262.539062 C 191.179688 261.753906 191.257812 260.976562 191.414062 260.207031 C 191.566406 259.4375 191.792969 258.6875 192.09375 257.964844 C 192.394531 257.238281 192.765625 256.550781 193.199219 255.898438 C 193.636719 255.246094 194.132812 254.640625 194.6875 254.085938 C 195.242188 253.53125 195.847656 253.035156 196.5 252.597656 C 197.152344 252.164062 197.839844 251.792969 198.566406 251.492188 C 199.289062 251.191406 200.035156 250.964844 200.804688 250.8125 C 201.578125 250.65625 202.355469 250.582031 203.136719 250.578125 L 212.792969 250.578125 C 213.578125 250.582031 214.355469 250.65625 215.125 250.8125 C 215.894531 250.964844 216.644531 251.191406 217.367188 251.492188 C 218.09375 251.792969 218.78125 252.164062 219.433594 252.597656 C 220.085938 253.035156 220.691406 253.53125 221.246094 254.085938 C 221.800781 254.640625 222.296875 255.246094 222.730469 255.898438 C 223.167969 256.550781 223.539062 257.238281 223.839844 257.964844 C 224.140625 258.6875 224.367188 259.4375 224.519531 260.207031 C 224.671875 260.976562 224.75 261.753906 224.75 262.539062 L 224.75 264.675781 C 224.75 265.460938 224.671875 266.238281 224.519531 267.007812 C 224.367188 267.777344 224.140625 268.523438 223.839844 269.25 C 223.539062 269.976562 223.167969 270.664062 222.730469 271.316406 C 222.296875 271.96875 221.800781 272.574219 221.246094 273.128906 C 220.691406 273.683594 220.085938 274.179688 219.433594 274.613281 C 218.78125 275.050781 218.09375 275.417969 217.367188 275.71875 C 216.644531 276.019531 215.894531 276.25 215.125 276.402344 C 214.355469 276.554688 213.578125 276.632812 212.792969 276.632812 Z M 203.136719 257.089844 C 202.78125 257.089844 202.425781 257.125 202.074219 257.195312 C 201.726562 257.265625 201.382812 257.367188 201.054688 257.503906 C 200.722656 257.640625 200.410156 257.808594 200.113281 258.007812 C 199.816406 258.207031 199.539062 258.433594 199.289062 258.6875 C 199.035156 258.941406 198.808594 259.214844 198.609375 259.511719 C 198.410156 259.808594 198.242188 260.125 198.105469 260.453125 C 197.96875 260.785156 197.867188 261.125 197.796875 261.476562 C 197.726562 261.824219 197.691406 262.179688 197.691406 262.539062 L 197.691406 264.675781 C 197.691406 265.035156 197.726562 265.386719 197.796875 265.738281 C 197.867188 266.089844 197.96875 266.429688 198.105469 266.761719 C 198.242188 267.089844 198.410156 267.402344 198.609375 267.703125 C 198.808594 268 199.035156 268.273438 199.289062 268.527344 C 199.539062 268.78125 199.816406 269.003906 200.113281 269.203125 C 200.410156 269.402344 200.722656 269.570312 201.054688 269.707031 C 201.382812 269.84375 201.726562 269.949219 202.074219 270.019531 C 202.425781 270.089844 202.78125 270.125 203.136719 270.125 L 212.792969 270.125 C 213.152344 270.125 213.503906 270.089844 213.855469 270.019531 C 214.207031 269.949219 214.546875 269.84375 214.878906 269.707031 C 215.207031 269.570312 215.523438 269.402344 215.820312 269.203125 C 216.117188 269.003906 216.390625 268.78125 216.644531 268.527344 C 216.898438 268.273438 217.125 268 217.324219 267.703125 C 217.519531 267.402344 217.6875 267.089844 217.828125 266.761719 C 217.964844 266.429688 218.066406 266.089844 218.136719 265.738281 C 218.207031 265.386719 218.242188 265.035156 218.242188 264.675781 L 218.242188 262.539062 C 218.242188 262.179688 218.207031 261.824219 218.136719 261.476562 C 218.066406 261.125 217.964844 260.785156 217.828125 260.453125 C 217.6875 260.125 217.519531 259.808594 217.324219 259.511719 C 217.125 259.214844 216.898438 258.941406 216.644531 258.6875 C 216.390625 258.433594 216.117188 258.207031 215.820312 258.007812 C 215.523438 257.808594 215.207031 257.640625 214.878906 257.503906 C 214.546875 257.367188 214.207031 257.265625 213.855469 257.195312 C 213.503906 257.125 213.152344 257.089844 212.792969 257.089844 Z M 203.136719 257.089844 " fill-opacity="1" fill-rule="nonzero"/><path fill="#ffffff" d="M 239.855469 276.632812 L 230.199219 276.632812 C 229.417969 276.632812 228.640625 276.554688 227.867188 276.402344 C 227.097656 276.25 226.351562 276.019531 225.625 275.71875 C 224.902344 275.417969 224.214844 275.050781 223.558594 274.613281 C 222.90625 274.179688 222.304688 273.683594 221.75 273.128906 C 221.195312 272.574219 220.699219 271.96875 220.261719 271.316406 C 219.824219 270.664062 219.457031 269.976562 219.15625 269.25 C 218.855469 268.523438 218.628906 267.777344 218.476562 267.007812 C 218.320312 266.238281 218.242188 265.460938 218.242188 264.675781 L 218.242188 262.539062 C 218.242188 261.753906 218.320312 260.976562 218.476562 260.207031 C 218.628906 259.4375 218.855469 258.6875 219.15625 257.964844 C 219.457031 257.238281 219.824219 256.550781 220.261719 255.898438 C 220.699219 255.246094 221.195312 254.640625 221.75 254.085938 C 222.304688 253.53125 222.90625 253.035156 223.558594 252.597656 C 224.214844 252.164062 224.902344 251.792969 225.625 251.492188 C 226.351562 251.191406 227.097656 250.964844 227.867188 250.8125 C 228.640625 250.65625 229.417969 250.582031 230.199219 250.578125 L 239.855469 250.578125 C 240.640625 250.582031 241.417969 250.65625 242.1875 250.8125 C 242.957031 250.964844 243.703125 251.191406 244.429688 251.492188 C 245.15625 251.792969 245.84375 252.164062 246.496094 252.597656 C 247.148438 253.035156 247.753906 253.53125 248.308594 254.085938 C 248.863281 254.640625 249.359375 255.246094 249.792969 255.898438 C 250.230469 256.550781 250.597656 257.238281 250.898438 257.964844 C 251.199219 258.6875 251.425781 259.4375 251.582031 260.207031 C 251.734375 260.976562 251.8125 261.753906 251.8125 262.539062 L 251.8125 264.675781 C 251.8125 265.460938 251.734375 266.238281 251.582031 267.007812 C 251.425781 267.777344 251.199219 268.523438 250.898438 269.25 C 250.597656 269.976562 250.230469 270.664062 249.792969 271.316406 C 249.359375 271.96875 248.863281 272.574219 248.308594 273.128906 C 247.753906 273.683594 247.148438 274.179688 246.496094 274.613281 C 245.84375 275.050781 245.15625 275.417969 244.429688 275.71875 C 243.703125 276.019531 242.957031 276.25 242.1875 276.402344 C 241.417969 276.554688 240.640625 276.632812 239.855469 276.632812 Z M 230.199219 257.089844 C 229.84375 257.089844 229.488281 257.125 229.136719 257.195312 C 228.789062 257.265625 228.445312 257.367188 228.117188 257.503906 C 227.785156 257.640625 227.472656 257.808594 227.175781 258.007812 C 226.878906 258.207031 226.601562 258.433594 226.347656 258.6875 C 226.097656 258.941406 225.871094 259.214844 225.671875 259.511719 C 225.472656 259.808594 225.304688 260.125 225.167969 260.453125 C 225.03125 260.785156 224.925781 261.125 224.855469 261.476562 C 224.785156 261.824219 224.75 262.179688 224.75 262.539062 L 224.75 264.675781 C 224.75 265.035156 224.785156 265.386719 224.855469 265.738281 C 224.925781 266.089844 225.03125 266.429688 225.167969 266.761719 C 225.304688 267.089844 225.472656 267.402344 225.671875 267.703125 C 225.871094 268 226.097656 268.273438 226.347656 268.527344 C 226.601562 268.78125 226.878906 269.003906 227.175781 269.203125 C 227.472656 269.402344 227.785156 269.570312 228.117188 269.707031 C 228.445312 269.84375 228.789062 269.949219 229.136719 270.019531 C 229.488281 270.089844 229.84375 270.125 230.199219 270.125 L 239.855469 270.125 C 240.214844 270.125 240.566406 270.089844 240.917969 270.019531 C 241.269531 269.949219 241.609375 269.84375 241.941406 269.707031 C 242.269531 269.570312 242.582031 269.402344 242.882812 269.203125 C 243.179688 269.003906 243.453125 268.78125 243.707031 268.527344 C 243.960938 268.273438 244.183594 268 244.382812 267.703125 C 244.582031 267.402344 244.75 267.089844 244.886719 266.761719 C 245.023438 266.429688 245.128906 266.089844 245.199219 265.738281 C 245.269531 265.386719 245.304688 265.035156 245.304688 264.675781 L 245.304688 262.539062 C 245.304688 262.179688 245.269531 261.824219 245.199219 261.476562 C 245.128906 261.125 245.023438 260.785156 244.886719 260.453125 C 244.75 260.125 244.582031 259.808594 244.382812 259.511719 C 244.183594 259.214844 243.960938 258.941406 243.707031 258.6875 C 243.453125 258.433594 243.179688 258.207031 242.882812 258.007812 C 242.582031 257.808594 242.269531 257.640625 241.941406 257.503906 C 241.609375 257.367188 241.269531 257.265625 240.917969 257.195312 C 240.566406 257.125 240.214844 257.089844 239.855469 257.089844 Z M 230.199219 257.089844 " fill-opacity="1" fill-rule="nonzero"/><path fill="#ffffff" d="M 256.988281 179.351562 L 253.820312 179.351562 C 253.292969 179.351562 252.765625 179.324219 252.238281 179.273438 C 251.714844 179.21875 251.191406 179.140625 250.671875 179.039062 C 250.15625 178.933594 249.644531 178.804688 249.136719 178.652344 C 248.632812 178.5 248.136719 178.320312 247.648438 178.117188 C 247.160156 177.914062 246.679688 177.691406 246.214844 177.441406 C 245.75 177.191406 245.296875 176.917969 244.855469 176.625 C 244.417969 176.332031 243.992188 176.015625 243.585938 175.683594 C 243.175781 175.347656 242.785156 174.992188 242.414062 174.617188 C 242.039062 174.246094 241.683594 173.855469 241.347656 173.445312 C 241.011719 173.035156 240.699219 172.613281 240.40625 172.171875 C 240.109375 171.734375 239.839844 171.28125 239.589844 170.816406 C 239.339844 170.347656 239.113281 169.871094 238.914062 169.382812 C 238.710938 168.894531 238.53125 168.398438 238.378906 167.894531 C 238.222656 167.386719 238.09375 166.875 237.992188 166.355469 C 237.886719 165.839844 237.808594 165.316406 237.757812 164.789062 C 237.707031 164.265625 237.679688 163.738281 237.679688 163.210938 L 237.679688 131.476562 C 237.679688 130.949219 237.707031 130.421875 237.757812 129.894531 C 237.808594 129.371094 237.886719 128.847656 237.992188 128.328125 C 238.09375 127.8125 238.222656 127.300781 238.378906 126.792969 C 238.53125 126.289062 238.710938 125.792969 238.914062 125.304688 C 239.113281 124.816406 239.339844 124.339844 239.589844 123.871094 C 239.839844 123.40625 240.109375 122.953125 240.40625 122.515625 C 240.699219 122.074219 241.011719 121.652344 241.347656 121.242188 C 241.683594 120.832031 242.039062 120.441406 242.414062 120.070312 C 242.785156 119.695312 243.175781 119.339844 243.585938 119.003906 C 243.992188 118.667969 244.417969 118.355469 244.855469 118.0625 C 245.296875 117.769531 245.75 117.496094 246.214844 117.246094 C 246.679688 116.996094 247.160156 116.769531 247.648438 116.570312 C 248.136719 116.367188 248.632812 116.1875 249.136719 116.035156 C 249.644531 115.878906 250.15625 115.753906 250.671875 115.648438 C 251.191406 115.542969 251.714844 115.46875 252.238281 115.414062 C 252.765625 115.363281 253.292969 115.335938 253.820312 115.335938 L 256.988281 115.335938 C 257.515625 115.335938 258.042969 115.363281 258.570312 115.414062 C 259.09375 115.46875 259.617188 115.542969 260.136719 115.648438 C 260.652344 115.753906 261.164062 115.878906 261.671875 116.035156 C 262.175781 116.1875 262.675781 116.367188 263.164062 116.570312 C 263.652344 116.769531 264.128906 116.996094 264.59375 117.246094 C 265.058594 117.496094 265.511719 117.769531 265.953125 118.0625 C 266.390625 118.355469 266.816406 118.667969 267.222656 119.003906 C 267.632812 119.339844 268.023438 119.695312 268.398438 120.070312 C 268.769531 120.441406 269.125 120.832031 269.460938 121.242188 C 269.796875 121.652344 270.109375 122.074219 270.402344 122.515625 C 270.699219 122.953125 270.96875 123.40625 271.21875 123.871094 C 271.46875 124.339844 271.695312 124.816406 271.898438 125.304688 C 272.097656 125.792969 272.277344 126.289062 272.429688 126.792969 C 272.585938 127.300781 272.714844 127.8125 272.816406 128.328125 C 272.921875 128.847656 273 129.371094 273.050781 129.894531 C 273.101562 130.421875 273.128906 130.949219 273.128906 131.476562 L 273.128906 163.210938 C 273.128906 163.738281 273.101562 164.265625 273.050781 164.789062 C 273 165.316406 272.921875 165.839844 272.816406 166.355469 C 272.714844 166.875 272.585938 167.386719 272.429688 167.894531 C 272.277344 168.398438 272.097656 168.894531 271.894531 169.382812 C 271.695312 169.871094 271.46875 170.347656 271.21875 170.816406 C 270.96875 171.28125 270.699219 171.734375 270.402344 172.171875 C 270.109375 172.613281 269.796875 173.035156 269.460938 173.445312 C 269.125 173.855469 268.769531 174.246094 268.398438 174.617188 C 268.023438 174.992188 267.632812 175.347656 267.222656 175.683594 C 266.816406 176.015625 266.390625 176.332031 265.953125 176.625 C 265.511719 176.917969 265.058594 177.191406 264.59375 177.441406 C 264.128906 177.691406 263.648438 177.914062 263.164062 178.117188 C 262.675781 178.320312 262.175781 178.5 261.671875 178.652344 C 261.164062 178.804688 260.652344 178.933594 260.136719 179.039062 C 259.617188 179.140625 259.09375 179.21875 258.570312 179.273438 C 258.042969 179.324219 257.515625 179.351562 256.988281 179.351562 Z M 253.820312 121.84375 C 253.1875 121.84375 252.5625 121.90625 251.941406 122.03125 C 251.324219 122.15625 250.71875 122.339844 250.136719 122.582031 C 249.550781 122.824219 248.996094 123.121094 248.472656 123.472656 C 247.945312 123.824219 247.460938 124.222656 247.011719 124.667969 C 246.566406 125.117188 246.167969 125.601562 245.816406 126.128906 C 245.464844 126.652344 245.167969 127.207031 244.925781 127.792969 C 244.683594 128.378906 244.5 128.980469 244.375 129.597656 C 244.25 130.21875 244.1875 130.84375 244.1875 131.476562 L 244.1875 163.210938 C 244.1875 163.839844 244.25 164.46875 244.375 165.089844 C 244.5 165.707031 244.683594 166.308594 244.925781 166.894531 C 245.167969 167.476562 245.464844 168.03125 245.816406 168.558594 C 246.167969 169.085938 246.566406 169.570312 247.011719 170.019531 C 247.460938 170.464844 247.945312 170.863281 248.472656 171.214844 C 248.996094 171.566406 249.550781 171.863281 250.136719 172.105469 C 250.71875 172.347656 251.324219 172.53125 251.941406 172.65625 C 252.5625 172.78125 253.1875 172.84375 253.820312 172.84375 L 256.988281 172.84375 C 257.621094 172.84375 258.246094 172.78125 258.867188 172.65625 C 259.484375 172.53125 260.089844 172.347656 260.671875 172.105469 C 261.257812 171.863281 261.8125 171.566406 262.335938 171.214844 C 262.863281 170.863281 263.347656 170.464844 263.796875 170.019531 C 264.242188 169.570312 264.640625 169.085938 264.992188 168.558594 C 265.34375 168.03125 265.640625 167.476562 265.882812 166.894531 C 266.128906 166.308594 266.308594 165.707031 266.433594 165.089844 C 266.558594 164.46875 266.621094 163.839844 266.621094 163.210938 L 266.621094 131.476562 C 266.621094 130.84375 266.558594 130.21875 266.433594 129.597656 C 266.308594 128.980469 266.128906 128.378906 265.886719 127.792969 C 265.640625 127.207031 265.34375 126.652344 264.996094 126.128906 C 264.644531 125.601562 264.242188 125.117188 263.796875 124.667969 C 263.347656 124.222656 262.863281 123.824219 262.335938 123.472656 C 261.8125 123.121094 261.257812 122.824219 260.671875 122.582031 C 260.089844 122.339844 259.484375 122.15625 258.867188 122.03125 C 258.246094 121.90625 257.621094 121.84375 256.988281 121.84375 Z M 253.820312 121.84375 " fill-opacity="1" fill-rule="nonzero"/><path fill="#ffffff" d="M 271.003906 232.570312 C 269.683594 232.574219 268.378906 232.414062 267.097656 232.097656 C 265.8125 231.78125 264.585938 231.3125 263.417969 230.691406 C 262.25 230.074219 261.175781 229.324219 260.191406 228.441406 C 259.207031 227.558594 258.347656 226.566406 257.605469 225.472656 L 239.835938 199.1875 C 239.539062 198.75 239.265625 198.296875 239.011719 197.832031 C 238.761719 197.367188 238.53125 196.890625 238.328125 196.40625 C 238.121094 195.917969 237.941406 195.421875 237.785156 194.914062 C 237.628906 194.410156 237.5 193.898438 237.394531 193.382812 C 237.285156 192.863281 237.207031 192.339844 237.152344 191.816406 C 237.097656 191.289062 237.070312 190.761719 237.066406 190.234375 C 237.0625 189.703125 237.085938 189.175781 237.136719 188.652344 C 237.183594 188.125 237.257812 187.601562 237.359375 187.082031 C 237.460938 186.5625 237.585938 186.050781 237.734375 185.542969 C 237.886719 185.039062 238.0625 184.539062 238.261719 184.050781 C 238.460938 183.558594 238.683594 183.082031 238.929688 182.613281 C 239.175781 182.144531 239.445312 181.691406 239.738281 181.25 C 240.027344 180.808594 240.339844 180.382812 240.675781 179.972656 C 241.007812 179.5625 241.359375 179.167969 241.730469 178.792969 C 242.105469 178.417969 242.492188 178.0625 242.898438 177.722656 C 243.308594 177.386719 243.730469 177.070312 244.167969 176.773438 L 246.789062 175 C 247.226562 174.703125 247.679688 174.429688 248.144531 174.179688 C 248.609375 173.929688 249.085938 173.699219 249.574219 173.496094 C 250.058594 173.292969 250.554688 173.113281 251.0625 172.957031 C 251.566406 172.800781 252.078125 172.667969 252.597656 172.5625 C 253.113281 172.457031 253.636719 172.378906 254.160156 172.324219 C 254.6875 172.269531 255.214844 172.242188 255.742188 172.238281 C 256.269531 172.234375 256.796875 172.257812 257.324219 172.308594 C 257.851562 172.355469 258.375 172.429688 258.894531 172.53125 C 259.410156 172.632812 259.925781 172.757812 260.429688 172.90625 C 260.9375 173.058594 261.4375 173.234375 261.925781 173.433594 C 262.414062 173.632812 262.894531 173.855469 263.359375 174.101562 C 263.828125 174.347656 264.28125 174.617188 264.722656 174.90625 C 265.164062 175.199219 265.589844 175.511719 266 175.84375 C 266.414062 176.175781 266.804688 176.527344 267.179688 176.898438 C 267.558594 177.269531 267.914062 177.660156 268.253906 178.066406 C 268.589844 178.472656 268.90625 178.894531 269.203125 179.332031 L 286.976562 205.621094 C 287.269531 206.058594 287.542969 206.511719 287.796875 206.976562 C 288.046875 207.441406 288.273438 207.917969 288.480469 208.402344 C 288.683594 208.890625 288.863281 209.386719 289.019531 209.890625 C 289.175781 210.398438 289.304688 210.910156 289.410156 211.425781 C 289.515625 211.945312 289.597656 212.464844 289.652344 212.992188 C 289.707031 213.519531 289.734375 214.042969 289.738281 214.574219 C 289.738281 215.101562 289.714844 215.628906 289.667969 216.15625 C 289.617188 216.683594 289.542969 217.203125 289.445312 217.722656 C 289.34375 218.242188 289.21875 218.753906 289.066406 219.261719 C 288.917969 219.769531 288.742188 220.265625 288.542969 220.753906 C 288.34375 221.246094 288.121094 221.722656 287.875 222.191406 C 287.628906 222.660156 287.359375 223.113281 287.066406 223.554688 C 286.777344 223.996094 286.464844 224.421875 286.132812 224.832031 C 285.796875 225.242188 285.445312 225.636719 285.074219 226.011719 C 284.703125 226.386719 284.316406 226.746094 283.910156 227.082031 C 283.503906 227.421875 283.082031 227.738281 282.644531 228.035156 L 280.019531 229.804688 C 278.691406 230.707031 277.257812 231.394531 275.71875 231.867188 C 274.183594 232.335938 272.609375 232.570312 271.003906 232.570312 Z M 255.816406 178.742188 C 253.851562 178.738281 252.058594 179.289062 250.433594 180.390625 L 247.8125 182.164062 C 247.289062 182.519531 246.804688 182.921875 246.359375 183.371094 C 245.914062 183.820312 245.519531 184.308594 245.167969 184.835938 C 244.820312 185.363281 244.527344 185.921875 244.289062 186.507812 C 244.050781 187.09375 243.871094 187.695312 243.75 188.316406 C 243.628906 188.9375 243.570312 189.5625 243.574219 190.195312 C 243.578125 190.828125 243.644531 191.457031 243.769531 192.074219 C 243.898438 192.695312 244.082031 193.296875 244.328125 193.878906 C 244.574219 194.460938 244.871094 195.015625 245.226562 195.539062 L 263 221.828125 C 263.351562 222.351562 263.753906 222.835938 264.207031 223.28125 C 264.65625 223.722656 265.144531 224.121094 265.671875 224.46875 C 266.199219 224.816406 266.757812 225.109375 267.34375 225.347656 C 267.929688 225.585938 268.53125 225.765625 269.152344 225.886719 C 269.773438 226.007812 270.398438 226.066406 271.03125 226.0625 C 271.664062 226.058594 272.289062 225.992188 272.910156 225.867188 C 273.527344 225.742188 274.128906 225.554688 274.714844 225.3125 C 275.296875 225.066406 275.851562 224.765625 276.375 224.414062 L 278.996094 222.640625 C 279.519531 222.285156 280.003906 221.882812 280.449219 221.433594 C 280.894531 220.984375 281.289062 220.496094 281.636719 219.96875 C 281.984375 219.4375 282.277344 218.882812 282.519531 218.296875 C 282.757812 217.710938 282.9375 217.109375 283.054688 216.488281 C 283.175781 215.867188 283.234375 215.238281 283.230469 214.605469 C 283.226562 213.976562 283.164062 213.347656 283.035156 212.730469 C 282.910156 212.109375 282.722656 211.507812 282.480469 210.925781 C 282.234375 210.34375 281.9375 209.789062 281.582031 209.265625 L 263.8125 182.976562 C 263.371094 182.324219 262.855469 181.734375 262.269531 181.207031 C 261.679688 180.679688 261.039062 180.230469 260.34375 179.863281 C 259.644531 179.492188 258.914062 179.214844 258.148438 179.023438 C 257.382812 178.835938 256.605469 178.738281 255.816406 178.742188 Z M 255.816406 178.742188 " fill-opacity="1" fill-rule="nonzero"/><path fill="#ffffff" d="M 269.875 150.597656 L 255.40625 150.597656 C 254.972656 150.597656 254.558594 150.515625 254.160156 150.351562 C 253.761719 150.183594 253.410156 149.949219 253.101562 149.644531 C 252.796875 149.339844 252.5625 148.988281 252.398438 148.589844 C 252.230469 148.191406 252.148438 147.773438 252.148438 147.34375 C 252.148438 146.910156 252.230469 146.496094 252.398438 146.097656 C 252.5625 145.699219 252.796875 145.347656 253.101562 145.042969 C 253.410156 144.738281 253.761719 144.5 254.160156 144.335938 C 254.558594 144.171875 254.972656 144.089844 255.40625 144.089844 L 269.875 144.089844 C 270.308594 144.089844 270.722656 144.171875 271.121094 144.335938 C 271.519531 144.5 271.871094 144.738281 272.175781 145.042969 C 272.480469 145.347656 272.71875 145.699219 272.882812 146.097656 C 273.046875 146.496094 273.128906 146.910156 273.128906 147.34375 C 273.128906 147.773438 273.046875 148.191406 272.882812 148.589844 C 272.71875 148.988281 272.480469 149.339844 272.175781 149.644531 C 271.871094 149.949219 271.519531 150.183594 271.121094 150.351562 C 270.722656 150.515625 270.308594 150.597656 269.875 150.597656 Z M 269.875 150.597656 " fill-opacity="1" fill-rule="nonzero"/><path fill="#ffffff" d="M 266.976562 216.96875 L 253.585938 216.96875 C 253.15625 216.96875 252.738281 216.886719 252.339844 216.722656 C 251.941406 216.558594 251.589844 216.320312 251.285156 216.015625 C 250.980469 215.710938 250.746094 215.359375 250.578125 214.960938 C 250.414062 214.5625 250.332031 214.148438 250.332031 213.714844 C 250.332031 213.285156 250.414062 212.867188 250.578125 212.46875 C 250.746094 212.070312 250.980469 211.71875 251.285156 211.414062 C 251.589844 211.109375 251.941406 210.875 252.339844 210.707031 C 252.738281 210.542969 253.15625 210.460938 253.585938 210.460938 L 266.976562 210.460938 C 267.410156 210.460938 267.824219 210.542969 268.222656 210.707031 C 268.621094 210.875 268.972656 211.109375 269.277344 211.414062 C 269.582031 211.71875 269.820312 212.070312 269.984375 212.46875 C 270.148438 212.867188 270.230469 213.285156 270.230469 213.714844 C 270.230469 214.148438 270.148438 214.5625 269.984375 214.960938 C 269.820312 215.359375 269.582031 215.710938 269.277344 216.015625 C 268.972656 216.320312 268.621094 216.558594 268.222656 216.722656 C 267.824219 216.886719 267.410156 216.96875 266.976562 216.96875 Z M 266.976562 216.96875 " fill-opacity="1" fill-rule="nonzero"/><path fill="#ffffff" d="M 207.964844 216.96875 L 194.433594 216.96875 C 194.003906 216.96875 193.589844 216.886719 193.191406 216.722656 C 192.789062 216.558594 192.4375 216.320312 192.132812 216.015625 C 191.828125 215.710938 191.59375 215.359375 191.429688 214.960938 C 191.261719 214.5625 191.179688 214.148438 191.179688 213.714844 C 191.179688 213.285156 191.261719 212.867188 191.429688 212.46875 C 191.59375 212.070312 191.828125 211.71875 192.132812 211.414062 C 192.4375 211.109375 192.789062 210.875 193.191406 210.707031 C 193.589844 210.542969 194.003906 210.460938 194.433594 210.460938 L 207.964844 210.460938 C 208.398438 210.460938 208.8125 210.542969 209.210938 210.707031 C 209.609375 210.875 209.960938 211.109375 210.265625 211.414062 C 210.574219 211.71875 210.808594 212.070312 210.972656 212.46875 C 211.136719 212.867188 211.21875 213.285156 211.21875 213.714844 C 211.21875 214.148438 211.136719 214.5625 210.972656 214.960938 C 210.808594 215.359375 210.574219 215.710938 210.265625 216.015625 C 209.960938 216.320312 209.609375 216.558594 209.210938 216.722656 C 208.8125 216.886719 208.398438 216.96875 207.964844 216.96875 Z M 207.964844 216.96875 " fill-opacity="1" fill-rule="nonzero"/><path fill="#ffffff" d="M 118.886719 231.90625 C 118.453125 231.90625 118.039062 231.824219 117.640625 231.65625 C 117.242188 231.492188 116.890625 231.257812 116.585938 230.953125 C 116.28125 230.648438 116.042969 230.296875 115.878906 229.898438 C 115.714844 229.496094 115.632812 229.082031 115.632812 228.652344 L 115.632812 218.128906 C 115.632812 217.695312 115.714844 217.28125 115.878906 216.882812 C 116.042969 216.484375 116.28125 216.132812 116.585938 215.824219 C 116.890625 215.519531 117.242188 215.285156 117.640625 215.121094 C 118.039062 214.957031 118.453125 214.871094 118.886719 214.871094 C 119.316406 214.871094 119.734375 214.957031 120.132812 215.121094 C 120.53125 215.285156 120.882812 215.519531 121.1875 215.824219 C 121.492188 216.132812 121.726562 216.484375 121.894531 216.882812 C 122.058594 217.28125 122.140625 217.695312 122.140625 218.128906 L 122.140625 228.652344 C 122.140625 229.082031 122.058594 229.496094 121.894531 229.898438 C 121.726562 230.296875 121.492188 230.648438 121.1875 230.953125 C 120.882812 231.257812 120.53125 231.492188 120.132812 231.65625 C 119.734375 231.824219 119.316406 231.90625 118.886719 231.90625 Z M 118.886719 231.90625 " fill-opacity="1" fill-rule="nonzero"/><path fill="#ffffff" d="M 272.992188 271.75 C 272.746094 271.75 272.5 271.71875 272.257812 271.664062 C 272.015625 271.609375 271.785156 271.527344 271.5625 271.417969 C 271.339844 271.308594 271.128906 271.175781 270.9375 271.019531 C 270.746094 270.859375 270.574219 270.683594 270.421875 270.488281 C 270.269531 270.292969 270.140625 270.082031 270.035156 269.855469 C 269.933594 269.632812 269.855469 269.398438 269.804688 269.152344 C 269.753906 268.910156 269.730469 268.664062 269.738281 268.417969 C 269.742188 268.167969 269.777344 267.925781 269.839844 267.683594 L 273.597656 253.027344 C 273.703125 252.605469 273.882812 252.21875 274.140625 251.871094 C 274.398438 251.523438 274.714844 251.238281 275.085938 251.015625 C 275.460938 250.792969 275.859375 250.652344 276.289062 250.589844 C 276.71875 250.527344 277.144531 250.550781 277.5625 250.660156 C 277.984375 250.765625 278.367188 250.949219 278.714844 251.210938 C 279.058594 251.472656 279.34375 251.789062 279.5625 252.164062 C 279.78125 252.539062 279.921875 252.941406 279.980469 253.371094 C 280.039062 253.800781 280.011719 254.222656 279.902344 254.644531 L 276.144531 269.300781 C 276.054688 269.652344 275.910156 269.976562 275.710938 270.277344 C 275.511719 270.582031 275.273438 270.84375 274.988281 271.0625 C 274.703125 271.285156 274.386719 271.453125 274.046875 271.570312 C 273.707031 271.6875 273.355469 271.75 272.992188 271.75 Z M 272.992188 271.75 " fill-opacity="1" fill-rule="nonzero"/><g clip-path="url(#ae468e5920)"><path fill="#ffffff" d="M 186.347656 323.230469 C 183.4375 323.230469 180.53125 323.132812 177.628906 322.945312 C 174.730469 322.753906 171.835938 322.472656 168.953125 322.09375 C 166.070312 321.71875 163.199219 321.246094 160.347656 320.683594 C 157.492188 320.121094 154.660156 319.46875 151.851562 318.722656 C 149.039062 317.976562 146.257812 317.136719 143.5 316.210938 C 140.742188 315.285156 138.019531 314.269531 135.328125 313.167969 C 132.640625 312.0625 129.988281 310.875 127.371094 309.597656 C 124.757812 308.324219 122.191406 306.964844 119.664062 305.523438 C 117.136719 304.082031 114.664062 302.558594 112.234375 300.957031 C 109.808594 299.355469 107.4375 297.675781 105.117188 295.917969 C 102.800781 294.164062 100.539062 292.335938 98.339844 290.433594 C 96.140625 288.53125 94.003906 286.558594 91.933594 284.515625 C 89.863281 282.476562 87.859375 280.371094 85.921875 278.199219 C 83.988281 276.027344 82.125 273.796875 80.335938 271.507812 C 78.542969 269.214844 76.828125 266.867188 75.191406 264.464844 C 73.550781 262.0625 71.992188 259.609375 70.511719 257.105469 C 69.035156 254.601562 67.636719 252.054688 66.324219 249.460938 C 65.007812 246.863281 63.777344 244.230469 62.636719 241.558594 C 61.492188 238.882812 60.4375 236.175781 59.46875 233.433594 C 58.5 230.691406 57.621094 227.917969 56.832031 225.121094 C 56.042969 222.320312 55.347656 219.5 54.742188 216.65625 C 54.136719 213.8125 53.621094 210.949219 53.203125 208.074219 C 52.78125 205.195312 52.457031 202.304688 52.222656 199.40625 C 51.988281 196.507812 51.851562 193.605469 51.804688 190.699219 C 51.761719 187.789062 51.808594 184.882812 51.953125 181.980469 C 52.097656 179.074219 52.335938 176.175781 52.664062 173.289062 C 52.996094 170.398438 53.421875 167.523438 53.9375 164.660156 C 54.457031 161.800781 55.066406 158.957031 55.769531 156.136719 C 56.46875 153.3125 57.261719 150.515625 58.144531 147.746094 C 59.027344 144.976562 60 142.234375 61.0625 139.527344 C 62.121094 136.820312 63.269531 134.148438 64.503906 131.515625 C 65.734375 128.882812 67.054688 126.292969 68.457031 123.742188 C 69.855469 121.195312 71.339844 118.695312 72.902344 116.242188 C 74.46875 113.792969 76.109375 111.394531 77.828125 109.046875 C 79.546875 106.703125 81.339844 104.414062 83.207031 102.183594 C 85.074219 99.957031 87.011719 97.789062 89.019531 95.683594 C 91.027344 93.582031 93.101562 91.542969 95.242188 89.574219 C 97.382812 87.605469 99.582031 85.707031 101.847656 83.882812 C 104.109375 82.054688 106.429688 80.304688 108.804688 78.625 C 111.179688 76.949219 113.609375 75.351562 116.089844 73.832031 C 118.570312 72.3125 121.09375 70.878906 123.667969 69.523438 C 126.242188 68.167969 128.855469 66.894531 131.511719 65.710938 C 134.167969 64.523438 136.859375 63.425781 139.585938 62.414062 C 142.3125 61.402344 145.066406 60.480469 147.855469 59.648438 C 150.640625 58.816406 153.449219 58.074219 156.285156 57.421875 C 159.121094 56.773438 161.972656 56.214844 164.84375 55.75 C 167.714844 55.285156 170.597656 54.910156 173.492188 54.632812 C 176.386719 54.351562 179.285156 54.167969 182.191406 54.078125 C 185.101562 53.988281 188.007812 53.988281 190.914062 54.085938 C 193.820312 54.183594 196.71875 54.375 199.613281 54.664062 C 202.507812 54.949219 205.390625 55.328125 208.257812 55.796875 C 211.128906 56.269531 213.980469 56.835938 216.8125 57.492188 C 219.644531 58.148438 222.453125 58.898438 225.238281 59.738281 C 228.023438 60.578125 230.777344 61.503906 233.503906 62.523438 C 236.226562 63.539062 238.914062 64.644531 241.566406 65.835938 C 244.21875 67.027344 246.832031 68.304688 249.402344 69.667969 C 251.972656 71.027344 254.496094 72.46875 256.972656 73.996094 C 259.449219 75.519531 261.871094 77.121094 264.246094 78.804688 C 266.617188 80.488281 268.933594 82.242188 271.191406 84.074219 C 273.449219 85.90625 275.648438 87.808594 277.78125 89.785156 C 279.917969 91.757812 281.988281 93.800781 283.988281 95.910156 C 285.992188 98.015625 287.925781 100.1875 289.789062 102.421875 C 291.648438 104.65625 293.4375 106.945312 295.152344 109.296875 C 296.867188 111.644531 298.5 114.046875 300.058594 116.503906 C 301.617188 118.960938 303.09375 121.464844 304.492188 124.015625 C 305.886719 126.566406 307.199219 129.160156 308.425781 131.796875 C 309.652344 134.433594 310.792969 137.105469 311.847656 139.816406 C 312.902344 142.527344 313.867188 145.269531 314.746094 148.039062 C 315.621094 150.8125 316.410156 153.613281 317.105469 156.4375 C 317.800781 159.257812 318.402344 162.101562 318.914062 164.964844 C 319.425781 167.828125 319.84375 170.707031 320.167969 173.59375 C 320.492188 176.484375 320.722656 179.382812 320.859375 182.289062 C 320.996094 185.191406 321.039062 188.097656 320.988281 191.007812 C 320.933594 193.914062 320.789062 196.816406 320.550781 199.714844 C 320.308594 202.613281 319.976562 205.5 319.550781 208.378906 C 319.125 211.253906 318.605469 214.113281 317.992188 216.957031 C 317.378906 219.800781 316.675781 222.621094 315.878906 225.417969 C 315.085938 228.214844 314.199219 230.984375 313.226562 233.722656 C 312.253906 236.464844 311.191406 239.167969 310.039062 241.839844 C 308.890625 244.511719 307.65625 247.144531 306.335938 249.734375 C 305.015625 252.324219 303.613281 254.871094 302.125 257.371094 C 300.640625 259.871094 299.078125 262.320312 297.433594 264.71875 C 295.789062 267.117188 294.070312 269.460938 292.273438 271.75 C 290.476562 274.035156 288.609375 276.261719 286.667969 278.429688 C 284.726562 280.597656 282.71875 282.699219 280.644531 284.734375 C 278.566406 286.769531 276.425781 288.734375 274.222656 290.632812 C 272.019531 292.53125 269.753906 294.355469 267.433594 296.105469 C 265.113281 297.855469 262.734375 299.53125 260.304688 301.125 C 257.875 302.722656 255.394531 304.238281 252.863281 305.675781 C 250.335938 307.113281 247.761719 308.464844 245.148438 309.734375 C 242.53125 311.003906 239.875 312.1875 237.183594 313.285156 C 234.488281 314.378906 231.761719 315.390625 229.003906 316.308594 C 226.246094 317.230469 223.460938 318.058594 220.648438 318.800781 C 217.835938 319.539062 215 320.1875 212.148438 320.746094 C 209.292969 321.300781 206.421875 321.765625 203.539062 322.132812 C 200.65625 322.503906 197.761719 322.78125 194.859375 322.964844 C 192.011719 323.140625 189.175781 323.230469 186.347656 323.230469 Z M 186.707031 62.179688 C 184.015625 62.179688 181.320312 62.261719 178.609375 62.429688 C 144.683594 64.546875 113.609375 79.75 91.113281 105.234375 C 68.621094 130.722656 57.398438 163.441406 59.511719 197.371094 C 61.628906 231.296875 76.832031 262.371094 102.316406 284.867188 C 125.769531 305.566406 155.351562 316.71875 186.355469 316.71875 C 189.046875 316.71875 191.746094 316.636719 194.453125 316.46875 C 228.382812 314.351562 259.453125 299.152344 281.949219 273.664062 C 304.445312 248.175781 315.667969 215.457031 313.550781 181.527344 C 311.433594 147.601562 296.234375 116.527344 270.746094 94.03125 C 247.292969 73.335938 217.714844 62.179688 186.707031 62.179688 Z M 186.707031 62.179688 " fill-opacity="1" fill-rule="nonzero"/></g><path fill="#ffffff" d="M 118.886719 106.984375 C 118.554688 106.984375 118.226562 106.933594 117.90625 106.832031 C 117.589844 106.730469 117.292969 106.585938 117.019531 106.394531 C 116.746094 106.203125 116.507812 105.972656 116.304688 105.707031 C 116.101562 105.441406 115.941406 105.152344 115.828125 104.839844 C 115.710938 104.523438 115.648438 104.199219 115.632812 103.867188 C 115.621094 103.53125 115.65625 103.203125 115.742188 102.882812 C 115.832031 102.558594 115.964844 102.257812 116.144531 101.976562 C 116.324219 101.691406 116.542969 101.445312 116.796875 101.230469 L 124.691406 94.632812 C 125.023438 94.355469 125.394531 94.152344 125.804688 94.023438 C 126.21875 93.894531 126.640625 93.847656 127.070312 93.886719 C 127.5 93.925781 127.90625 94.046875 128.289062 94.246094 C 128.667969 94.445312 129 94.710938 129.277344 95.042969 C 129.554688 95.375 129.757812 95.746094 129.886719 96.15625 C 130.015625 96.570312 130.058594 96.988281 130.019531 97.417969 C 129.984375 97.847656 129.863281 98.253906 129.664062 98.636719 C 129.464844 99.019531 129.199219 99.351562 128.867188 99.625 L 120.972656 106.226562 C 120.371094 106.730469 119.675781 106.984375 118.886719 106.984375 Z M 118.886719 106.984375 " fill-opacity="1" fill-rule="nonzero"/><path fill="#ffffff" d="M 176.347656 300.929688 L 161.355469 300.929688 C 160.921875 300.929688 160.507812 300.847656 160.109375 300.679688 C 159.710938 300.515625 159.359375 300.28125 159.054688 299.976562 C 158.75 299.671875 158.511719 299.320312 158.347656 298.917969 C 158.183594 298.519531 158.101562 298.105469 158.101562 297.675781 C 158.101562 297.242188 158.183594 296.828125 158.347656 296.429688 C 158.511719 296.03125 158.75 295.679688 159.054688 295.375 C 159.359375 295.066406 159.710938 294.832031 160.109375 294.667969 C 160.507812 294.503906 160.921875 294.417969 161.355469 294.417969 L 176.347656 294.417969 C 176.78125 294.417969 177.195312 294.503906 177.59375 294.667969 C 177.992188 294.832031 178.34375 295.066406 178.648438 295.375 C 178.957031 295.679688 179.191406 296.03125 179.355469 296.429688 C 179.519531 296.828125 179.601562 297.242188 179.601562 297.675781 C 179.601562 298.105469 179.519531 298.519531 179.355469 298.917969 C 179.191406 299.320312 178.957031 299.671875 178.648438 299.976562 C 178.34375 300.28125 177.992188 300.515625 177.59375 300.679688 C 177.195312 300.847656 176.78125 300.929688 176.347656 300.929688 Z M 176.347656 300.929688 " fill-opacity="1" fill-rule="nonzero"/><path fill="#ffffff" d="M 248.554688 100.382812 C 247.898438 100.382812 247.292969 100.199219 246.746094 99.832031 L 233.214844 90.765625 C 232.855469 90.527344 232.558594 90.226562 232.316406 89.867188 C 232.078125 89.507812 231.917969 89.117188 231.832031 88.691406 C 231.75 88.269531 231.75 87.847656 231.832031 87.421875 C 231.917969 87 232.082031 86.609375 232.320312 86.25 C 232.5625 85.890625 232.863281 85.589844 233.222656 85.351562 C 233.582031 85.113281 233.972656 84.949219 234.394531 84.867188 C 234.820312 84.785156 235.242188 84.785156 235.667969 84.871094 C 236.089844 84.953125 236.480469 85.117188 236.839844 85.359375 L 250.371094 94.425781 C 250.660156 94.621094 250.914062 94.855469 251.128906 95.128906 C 251.339844 95.40625 251.507812 95.707031 251.625 96.035156 C 251.742188 96.367188 251.804688 96.703125 251.8125 97.054688 C 251.820312 97.402344 251.773438 97.742188 251.671875 98.078125 C 251.570312 98.410156 251.417969 98.722656 251.21875 99.007812 C 251.015625 99.292969 250.777344 99.539062 250.496094 99.746094 C 250.214844 99.953125 249.910156 100.113281 249.578125 100.222656 C 249.246094 100.332031 248.90625 100.382812 248.554688 100.382812 Z M 248.554688 100.382812 " fill-opacity="1" fill-rule="nonzero"/></svg>