<svg xmlns="http://www.w3.org/2000/svg" xmlns:xlink="http://www.w3.org/1999/xlink" width="500" zoomAndPan="magnify" viewBox="0 0 375 374.999991" height="500" preserveAspectRatio="xMidYMid meet" version="1.0"><defs><clipPath id="2c1f86e6c5"><path d="M 187.5 0 C 83.945312 0 0 83.945312 0 187.5 C 0 291.054688 83.945312 375 187.5 375 C 291.054688 375 375 291.054688 375 187.5 C 375 83.945312 291.054688 0 187.5 0 Z M 187.5 0 " clip-rule="nonzero"/></clipPath><clipPath id="36ae542e26"><path d="M 121 54.117188 L 250 54.117188 L 250 314.367188 L 121 314.367188 Z M 121 54.117188 " clip-rule="nonzero"/></clipPath></defs><g clip-path="url(#2c1f86e6c5)"><rect x="-37.5" width="450" fill="#fec743" y="-37.499999" height="449.999989" fill-opacity="1"/></g><path fill="#ffffff" d="M 314.199219 122.988281 C 311.863281 120.480469 307.9375 120.335938 305.429688 122.671875 C 300.171875 127.5625 294.019531 130.859375 287.554688 133.019531 L 254.320312 99.789062 C 251.898438 97.363281 247.96875 97.363281 245.546875 99.789062 C 243.125 102.210938 243.125 106.140625 245.546875 108.5625 L 273.082031 136.097656 C 265.617188 136.914062 258.289062 136.691406 251.933594 136.054688 C 248.519531 135.71875 245.484375 138.203125 245.140625 141.613281 C 244.800781 145.023438 247.289062 148.0625 250.699219 148.402344 C 254.542969 148.789062 258.699219 149.035156 263.042969 149.035156 C 279.78125 149.035156 299.253906 145.363281 313.878906 131.757812 C 316.390625 129.421875 316.53125 125.496094 314.199219 122.988281 " fill-opacity="1" fill-rule="nonzero"/><g clip-path="url(#36ae542e26)"><path fill="#ffffff" d="M 239.699219 143.925781 C 239.527344 143.414062 222.410156 92.363281 247.957031 65.246094 C 250.304688 62.75 250.1875 58.824219 247.695312 56.472656 C 245.199219 54.125 241.273438 54.242188 238.925781 56.738281 C 208.539062 88.988281 226.75 144.390625 227.9375 147.875 C 228.535156 149.796875 238.832031 184.109375 218.574219 209.09375 L 161.066406 151.570312 C 166.285156 147.457031 171.882812 144.621094 177.550781 142.726562 L 210.238281 175.429688 C 211.449219 176.640625 213.035156 177.246094 214.625 177.246094 C 216.214844 177.246094 217.800781 176.640625 219.011719 175.429688 C 221.4375 173.011719 221.4375 169.078125 219.015625 166.660156 L 192.113281 139.742188 C 198.824219 139.132812 205.253906 139.488281 210.847656 140.246094 C 214.246094 140.703125 217.367188 138.320312 217.824219 134.925781 C 218.285156 131.53125 215.90625 128.40625 212.507812 127.945312 C 204.191406 126.824219 191.785156 126.25 178.742188 129.542969 C 178.066406 129.605469 177.402344 129.78125 176.769531 130.066406 C 166.828125 132.867188 156.617188 137.996094 147.652344 146.902344 C 147.648438 146.90625 147.644531 146.90625 147.640625 146.910156 C 147.636719 146.910156 147.636719 146.914062 147.636719 146.914062 C 147.632812 146.914062 147.632812 146.917969 147.628906 146.921875 C 134.789062 159.695312 127.875 177.101562 127.636719 197.261719 C 127.46875 211.773438 130.734375 222.847656 131.394531 224.929688 C 131.410156 224.984375 131.425781 225.039062 131.449219 225.089844 C 131.625 225.605469 148.730469 276.65625 123.199219 303.777344 C 120.851562 306.269531 120.96875 310.195312 123.460938 312.546875 C 124.660156 313.675781 126.191406 314.230469 127.714844 314.230469 C 129.367188 314.230469 131.011719 313.578125 132.234375 312.28125 C 162.617188 280.007812 144.375 224.558594 143.207031 221.140625 C 142.59375 219.175781 132.386719 185.292969 152.265625 160.320312 L 209.695312 217.761719 C 204.523438 221.757812 198.992188 224.515625 193.390625 226.363281 L 160.570312 193.539062 C 158.144531 191.117188 154.21875 191.117188 151.792969 193.539062 C 149.375 195.960938 149.375 199.890625 151.792969 202.3125 L 178.78125 229.300781 C 172.164062 229.878906 165.828125 229.519531 160.308594 228.773438 C 156.914062 228.3125 153.789062 230.699219 153.332031 234.09375 C 152.871094 237.488281 155.253906 240.613281 158.648438 241.070312 C 162.308594 241.566406 166.753906 241.953125 171.703125 241.953125 C 186.929688 241.953125 206.871094 238.265625 222.949219 222.65625 C 223.019531 222.589844 223.09375 222.53125 223.164062 222.460938 C 223.195312 222.429688 223.222656 222.394531 223.253906 222.363281 C 223.339844 222.28125 223.421875 222.199219 223.507812 222.117188 C 236.339844 209.367188 243.253906 191.988281 243.511719 171.859375 C 243.695312 157.367188 240.421875 146.207031 239.757812 144.105469 C 239.742188 144.046875 239.722656 143.988281 239.699219 143.925781 " fill-opacity="1" fill-rule="nonzero"/></g><path fill="#ffffff" d="M 120.617188 261.332031 L 92.945312 233.65625 C 102.140625 232.027344 111.410156 232.1875 119.21875 232.964844 C 122.628906 233.3125 125.664062 230.816406 126.003906 227.402344 C 126.347656 223.996094 123.855469 220.953125 120.445312 220.617188 C 93.695312 217.949219 71.847656 223.707031 57.277344 237.261719 C 54.769531 239.597656 54.625 243.523438 56.960938 246.03125 C 58.183594 247.34375 59.839844 248.007812 61.503906 248.007812 C 63.015625 248.007812 64.53125 247.460938 65.726562 246.347656 C 69.816406 242.542969 74.453125 239.707031 79.355469 237.613281 L 111.84375 270.105469 C 113.054688 271.316406 114.640625 271.921875 116.230469 271.921875 C 117.816406 271.921875 119.40625 271.316406 120.617188 270.105469 C 123.039062 267.679688 123.039062 263.75 120.617188 261.332031 " fill-opacity="1" fill-rule="nonzero"/></svg>