<svg xmlns="http://www.w3.org/2000/svg" xmlns:xlink="http://www.w3.org/1999/xlink" width="500" zoomAndPan="magnify" viewBox="0 0 375 374.999991" height="500" preserveAspectRatio="xMidYMid meet" version="1.0"><defs><clipPath id="2921ed1002"><path d="M 187.5 0 C 83.945312 0 0 83.945312 0 187.5 C 0 291.054688 83.945312 375 187.5 375 C 291.054688 375 375 291.054688 375 187.5 C 375 83.945312 291.054688 0 187.5 0 Z M 187.5 0 " clip-rule="nonzero"/></clipPath><clipPath id="5431f75779"><path d="M 67.476562 67.476562 L 307.476562 67.476562 L 307.476562 307.476562 L 67.476562 307.476562 Z M 67.476562 67.476562 " clip-rule="nonzero"/></clipPath></defs><g clip-path="url(#2921ed1002)"><rect x="-37.5" width="450" fill="#fec743" y="-37.499999" height="449.999989" fill-opacity="1"/></g><g clip-path="url(#5431f75779)"><path fill="#ffffff" d="M 255.589844 119.398438 C 253.335938 102.59375 252.242188 87.921875 265.199219 74.9375 L 257.777344 67.476562 C 242.238281 83.019531 242.632812 101.117188 244.753906 117.898438 C 233.128906 116.40625 221.320312 115.773438 209.941406 120.402344 L 209.796875 120.269531 L 206.382812 122.023438 C 201.9375 124.367188 197.9375 127.316406 194.378906 130.863281 C 190.816406 134.414062 187.859375 138.410156 185.503906 142.847656 L 183.738281 146.261719 L 183.882812 146.410156 C 179.21875 157.808594 179.851562 169.648438 181.339844 181.3125 C 169.621094 179.808594 157.730469 179.175781 146.277344 183.949219 L 146.132812 183.804688 L 142.691406 185.597656 C 138.324219 187.914062 134.398438 190.824219 130.921875 194.335938 C 129.523438 195.71875 128.203125 197.171875 126.964844 198.699219 C 125 201.160156 123.308594 203.796875 121.890625 206.609375 L 120.203125 209.96875 L 120.335938 210.113281 C 115.773438 221.4375 116.382812 233.183594 117.898438 244.753906 C 101.144531 242.632812 83.03125 242.226562 67.476562 257.777344 L 74.9375 265.199219 C 87.921875 252.214844 102.621094 253.246094 119.398438 255.566406 C 121.71875 272.371094 122.761719 287.042969 109.765625 300.039062 L 117.222656 307.488281 C 132.777344 291.933594 132.355469 273.820312 130.234375 257.082031 C 141.808594 258.609375 153.554688 259.214844 164.890625 254.65625 L 165.019531 254.800781 L 168.421875 253.074219 C 169.160156 252.691406 169.898438 252.296875 170.609375 251.875 C 174.296875 249.726562 177.640625 247.132812 180.640625 244.097656 C 184.15625 240.621094 187.070312 236.695312 189.378906 232.324219 L 191.1875 228.898438 L 191.042969 228.753906 C 195.785156 217.296875 195.152344 205.394531 193.675781 193.675781 C 205.34375 195.167969 217.179688 195.800781 228.582031 191.132812 L 228.738281 191.277344 L 232.167969 189.511719 C 236.574219 187.167969 240.527344 184.222656 244.03125 180.667969 C 247.625 177.121094 250.589844 173.109375 252.929688 168.632812 L 254.679688 165.207031 L 254.65625 165.019531 C 259.28125 153.671875 258.609375 141.859375 257.160156 130.207031 C 273.914062 132.332031 292.023438 132.753906 307.578125 117.199219 L 300.132812 109.738281 C 287.082031 122.746094 272.421875 121.71875 255.589844 119.398438 Z M 203.800781 136.535156 L 204.300781 136.101562 C 204.972656 135.535156 205.621094 134.980469 206.332031 134.464844 C 206.859375 134.082031 207.398438 133.726562 207.941406 133.386719 L 241.65625 167.101562 C 241.300781 167.628906 240.960938 168.171875 240.5625 168.699219 C 240.0625 169.382812 239.507812 170.015625 238.941406 170.714844 L 238.507812 171.230469 C 237.914062 171.902344 237.292969 172.546875 236.648438 173.21875 C 236.003906 173.890625 235.332031 174.539062 234.683594 175.050781 L 234.183594 175.488281 C 233.511719 176.054688 232.867188 176.605469 232.140625 177.121094 C 231.640625 177.492188 231.125 177.832031 230.613281 178.164062 L 196.816406 144.445312 C 197.15625 143.929688 197.5 143.402344 197.882812 142.890625 C 198.394531 142.191406 198.949219 141.503906 199.53125 140.832031 L 199.953125 140.34375 C 200.542969 139.6875 201.136719 139.027344 201.785156 138.382812 C 202.429688 137.734375 203.128906 137.089844 203.800781 136.496094 Z M 140.304688 199.992188 L 140.792969 199.554688 C 141.453125 199.003906 142.109375 198.460938 142.785156 197.960938 L 142.902344 197.867188 C 143.363281 197.539062 143.839844 197.222656 144.3125 196.90625 L 178.082031 230.691406 C 177.765625 231.164062 177.449219 231.640625 177.109375 232.113281 L 177.109375 232.207031 C 176.605469 232.878906 176.066406 233.523438 175.5 234.199219 L 175.078125 234.683594 C 174.5 235.34375 173.90625 236.003906 173.257812 236.636719 C 172.613281 237.296875 171.941406 237.953125 171.269531 238.496094 L 170.753906 238.941406 C 170.109375 239.496094 169.4375 240.035156 168.777344 240.523438 L 168.671875 240.617188 C 168.117188 241.011719 167.550781 241.382812 166.984375 241.75 L 133.238281 208.097656 C 133.609375 207.53125 133.964844 206.964844 134.375 206.425781 L 134.453125 206.320312 C 134.953125 205.644531 135.480469 205 136.035156 204.328125 L 136.484375 203.8125 C 137.089844 203.140625 137.695312 202.496094 138.367188 201.796875 C 139.039062 201.097656 139.660156 200.609375 140.304688 199.992188 Z M 128.730469 246.257812 C 127.414062 236.476562 126.453125 227.117188 128.730469 218.445312 L 156.597656 246.3125 C 147.886719 248.539062 138.511719 247.617188 128.730469 246.257812 Z M 154.542969 192.214844 C 163.359375 189.839844 172.875 190.777344 182.828125 192.214844 C 184.148438 202.179688 185.148438 211.695312 182.761719 220.5 Z M 192.160156 182.816406 C 190.84375 172.929688 189.867188 163.464844 192.160156 154.710938 L 220.238281 182.800781 C 211.511719 185.121094 202.046875 184.199219 192.160156 182.828125 Z M 218.261719 128.773438 C 226.972656 126.492188 236.398438 127.453125 246.257812 128.773438 C 247.578125 138.632812 248.550781 148.042969 246.257812 156.769531 Z M 218.261719 128.773438 " fill-opacity="1" fill-rule="nonzero"/></g></svg>