<svg xmlns="http://www.w3.org/2000/svg" xmlns:xlink="http://www.w3.org/1999/xlink" width="500" zoomAndPan="magnify" viewBox="0 0 375 374.999991" height="500" preserveAspectRatio="xMidYMid meet" version="1.0"><defs><clipPath id="ae18e54e3a"><path d="M 187.5 0 C 83.945312 0 0 83.945312 0 187.5 C 0 291.054688 83.945312 375 187.5 375 C 291.054688 375 375 291.054688 375 187.5 C 375 83.945312 291.054688 0 187.5 0 Z M 187.5 0 " clip-rule="nonzero"/></clipPath><clipPath id="f6e75bc4bb"><path d="M 62.328125 45.253906 L 312.828125 45.253906 L 312.828125 307.753906 L 62.328125 307.753906 Z M 62.328125 45.253906 " clip-rule="nonzero"/></clipPath></defs><g clip-path="url(#ae18e54e3a)"><rect x="-37.5" width="450" fill="#f47c2e" y="-37.499999" height="449.999989" fill-opacity="1"/></g><g clip-path="url(#f6e75bc4bb)"><path fill="#fffff9" d="M 309.734375 290.898438 L 303.386719 290.898438 L 303.386719 280.367188 C 303.386719 279.21875 302.453125 278.285156 301.304688 278.285156 L 294.957031 278.285156 L 294.957031 269.535156 C 297.996094 268.640625 300.226562 265.828125 300.226562 262.5 C 300.226562 259.171875 297.996094 256.359375 294.957031 255.464844 L 294.957031 153.933594 C 297.996094 153.039062 300.226562 150.226562 300.226562 146.894531 C 300.226562 143.570312 297.996094 140.757812 294.957031 139.863281 L 294.957031 120.605469 L 301.859375 120.605469 C 305.425781 122.328125 309.75 120.910156 311.582031 117.378906 C 312.484375 115.640625 312.65625 113.652344 312.0625 111.785156 C 311.464844 109.914062 310.175781 108.390625 308.429688 107.488281 L 188.453125 45.597656 C 187.855469 45.289062 187.140625 45.289062 186.542969 45.597656 L 66.566406 107.488281 C 64.820312 108.390625 63.53125 109.914062 62.9375 111.785156 C 62.34375 113.652344 62.511719 115.636719 63.414062 117.378906 C 64.71875 119.894531 67.292969 121.339844 69.953125 121.339844 C 71.027344 121.339844 72.109375 121.097656 73.132812 120.605469 L 80.039062 120.605469 L 80.039062 139.863281 C 77 140.757812 74.773438 143.570312 74.773438 146.898438 C 74.773438 150.226562 77 153.039062 80.039062 153.933594 L 80.039062 255.464844 C 77 256.359375 74.773438 259.171875 74.773438 262.503906 C 74.773438 265.828125 77 268.640625 80.039062 269.535156 L 80.039062 278.285156 L 73.691406 278.285156 C 72.542969 278.285156 71.609375 279.214844 71.609375 280.367188 L 71.609375 290.894531 L 65.261719 290.894531 C 64.113281 290.894531 63.179688 291.828125 63.179688 292.976562 L 63.179688 305.589844 C 63.179688 306.738281 64.113281 307.671875 65.261719 307.671875 L 309.734375 307.671875 C 310.882812 307.671875 311.816406 306.738281 311.816406 305.589844 L 311.816406 292.980469 C 311.816406 291.828125 310.882812 290.898438 309.734375 290.898438 Z M 296.0625 262.503906 C 296.0625 264.25 294.640625 265.675781 292.890625 265.675781 L 275.996094 265.675781 C 274.25 265.675781 272.828125 264.253906 272.828125 262.5 C 272.828125 260.75 274.25 259.328125 275.996094 259.328125 L 292.890625 259.328125 C 294.640625 259.328125 296.0625 260.75 296.0625 262.503906 Z M 285.539062 112.195312 L 293.765625 116.441406 L 81.230469 116.441406 L 89.457031 112.195312 Z M 97.53125 108.03125 L 187.5 61.621094 L 277.46875 108.03125 Z M 290.792969 120.605469 L 290.792969 129.050781 L 84.203125 129.050781 L 84.203125 120.605469 Z M 84.203125 133.214844 L 290.792969 133.214844 L 290.792969 139.5625 L 84.203125 139.5625 Z M 269.394531 265.675781 L 247.859375 265.675781 C 248.324219 264.710938 248.589844 263.636719 248.589844 262.5 C 248.589844 259.171875 246.363281 256.359375 243.324219 255.464844 L 243.324219 153.933594 C 246.363281 153.039062 248.589844 150.226562 248.589844 146.894531 C 248.589844 145.757812 248.324219 144.6875 247.859375 143.722656 L 269.394531 143.722656 C 268.929688 144.6875 268.664062 145.761719 268.664062 146.898438 C 268.664062 150.226562 270.890625 153.039062 273.933594 153.933594 L 273.933594 255.464844 C 270.890625 256.359375 268.664062 259.171875 268.664062 262.503906 C 268.664062 263.640625 268.929688 264.710938 269.394531 265.675781 Z M 217.761719 265.675781 L 208.546875 265.675781 L 208.546875 206.800781 C 208.546875 205.652344 207.617188 204.71875 206.464844 204.71875 L 168.53125 204.71875 C 167.382812 204.71875 166.449219 205.652344 166.449219 206.800781 L 166.449219 265.675781 L 157.234375 265.675781 C 157.699219 264.710938 157.96875 263.636719 157.96875 262.5 C 157.96875 259.171875 155.738281 256.359375 152.699219 255.464844 L 152.699219 153.933594 C 155.738281 153.039062 157.96875 150.226562 157.96875 146.894531 C 157.96875 145.757812 157.699219 144.6875 157.238281 143.722656 L 217.761719 143.722656 C 217.296875 144.6875 217.027344 145.761719 217.027344 146.898438 C 217.027344 150.226562 219.257812 153.039062 222.296875 153.933594 L 222.296875 255.464844 C 219.257812 256.359375 217.027344 259.171875 217.027344 262.503906 C 217.03125 263.640625 217.296875 264.710938 217.761719 265.675781 Z M 204.382812 208.882812 L 204.382812 265.675781 L 170.613281 265.675781 L 170.613281 208.882812 Z M 133.742188 150.070312 C 131.992188 150.070312 130.570312 148.648438 130.570312 146.894531 C 130.570312 145.148438 131.992188 143.722656 133.742188 143.722656 L 150.632812 143.722656 C 152.382812 143.722656 153.804688 145.144531 153.804688 146.898438 C 153.804688 148.648438 152.382812 150.070312 150.632812 150.070312 Z M 148.535156 154.234375 L 148.535156 255.164062 L 135.839844 255.164062 L 135.839844 154.234375 Z M 150.632812 259.328125 C 152.382812 259.328125 153.804688 260.75 153.804688 262.503906 C 153.804688 264.25 152.382812 265.675781 150.632812 265.675781 L 133.742188 265.675781 C 131.992188 265.675781 130.570312 264.253906 130.570312 262.5 C 130.570312 260.75 131.992188 259.328125 133.742188 259.328125 Z M 224.363281 150.070312 C 222.617188 150.070312 221.191406 148.648438 221.191406 146.894531 C 221.191406 145.148438 222.613281 143.722656 224.363281 143.722656 L 241.257812 143.722656 C 243.003906 143.722656 244.425781 145.144531 244.425781 146.898438 C 244.425781 148.648438 243.003906 150.070312 241.257812 150.070312 Z M 239.160156 154.234375 L 239.160156 255.164062 L 226.460938 255.164062 L 226.460938 154.234375 Z M 224.363281 259.328125 L 241.257812 259.328125 C 243.003906 259.328125 244.425781 260.75 244.425781 262.503906 C 244.425781 264.25 243.003906 265.675781 241.257812 265.675781 L 224.363281 265.675781 C 222.617188 265.675781 221.191406 264.253906 221.191406 262.5 C 221.195312 260.75 222.617188 259.328125 224.363281 259.328125 Z M 105.601562 143.722656 L 127.136719 143.722656 C 126.671875 144.6875 126.40625 145.761719 126.40625 146.898438 C 126.40625 150.226562 128.632812 153.039062 131.675781 153.933594 L 131.675781 255.464844 C 128.632812 256.359375 126.40625 259.171875 126.40625 262.503906 C 126.40625 263.640625 126.671875 264.710938 127.136719 265.671875 L 105.601562 265.671875 C 106.066406 264.710938 106.332031 263.636719 106.332031 262.496094 C 106.332031 259.171875 104.105469 256.359375 101.066406 255.464844 L 101.066406 153.933594 C 104.105469 153.039062 106.332031 150.226562 106.332031 146.894531 C 106.332031 145.757812 106.066406 144.6875 105.601562 143.722656 Z M 290.792969 269.835938 L 290.792969 278.285156 L 84.203125 278.285156 L 84.203125 269.835938 Z M 278.097656 255.164062 L 278.097656 154.234375 L 290.792969 154.234375 L 290.792969 255.164062 Z M 296.0625 146.898438 C 296.0625 148.648438 294.640625 150.070312 292.890625 150.070312 L 275.996094 150.070312 C 274.25 150.070312 272.828125 148.648438 272.828125 146.894531 C 272.828125 145.148438 274.25 143.722656 275.996094 143.722656 L 292.890625 143.722656 C 294.640625 143.722656 296.0625 145.148438 296.0625 146.898438 Z M 71.410156 116.824219 C 69.84375 117.628906 67.917969 117.019531 67.109375 115.460938 C 66.722656 114.710938 66.648438 113.855469 66.90625 113.046875 C 67.160156 112.238281 67.71875 111.578125 68.476562 111.1875 L 187.5 49.789062 L 306.519531 111.1875 C 307.277344 111.578125 307.835938 112.238281 308.09375 113.046875 C 308.347656 113.855469 308.277344 114.710938 307.886719 115.460938 C 307.078125 117.019531 305.152344 117.628906 303.589844 116.824219 L 188.453125 57.429688 C 188.152344 57.273438 187.824219 57.199219 187.5 57.199219 C 187.171875 57.199219 186.84375 57.273438 186.542969 57.429688 Z M 78.9375 146.894531 C 78.9375 145.148438 80.359375 143.722656 82.105469 143.722656 L 99 143.722656 C 100.746094 143.722656 102.171875 145.144531 102.171875 146.898438 C 102.171875 148.648438 100.75 150.070312 99 150.070312 L 82.105469 150.070312 C 80.359375 150.070312 78.9375 148.648438 78.9375 146.894531 Z M 96.902344 154.234375 L 96.902344 255.164062 L 84.203125 255.164062 L 84.203125 154.234375 Z M 78.9375 262.5 C 78.9375 260.75 80.359375 259.328125 82.105469 259.328125 L 99 259.328125 C 100.746094 259.328125 102.171875 260.75 102.171875 262.503906 C 102.171875 264.25 100.75 265.675781 99 265.675781 L 82.105469 265.675781 C 80.359375 265.675781 78.9375 264.25 78.9375 262.5 Z M 75.773438 282.449219 L 299.222656 282.449219 L 299.222656 290.898438 L 75.773438 290.898438 Z M 307.652344 303.507812 L 67.34375 303.507812 L 67.34375 295.0625 L 307.652344 295.0625 Z M 307.652344 303.507812 " fill-opacity="1" fill-rule="nonzero"/></g><path fill="#fffff9" d="M 168.53125 198.375 L 206.464844 198.375 C 207.617188 198.375 208.546875 197.441406 208.546875 196.292969 L 208.546875 183.679688 C 208.546875 182.53125 207.617188 181.597656 206.464844 181.597656 L 168.53125 181.597656 C 167.382812 181.597656 166.449219 182.53125 166.449219 183.679688 L 166.449219 196.292969 C 166.449219 197.441406 167.382812 198.375 168.53125 198.375 Z M 170.613281 185.761719 L 204.382812 185.761719 L 204.382812 194.210938 L 170.613281 194.210938 Z M 170.613281 185.761719 " fill-opacity="1" fill-rule="nonzero"/></svg>