<svg xmlns="http://www.w3.org/2000/svg" xmlns:xlink="http://www.w3.org/1999/xlink" width="500" zoomAndPan="magnify" viewBox="0 0 375 374.999991" height="500" preserveAspectRatio="xMidYMid meet" version="1.0"><defs><clipPath id="28bc955d37"><path d="M 187.5 0 C 83.945312 0 0 83.945312 0 187.5 C 0 291.054688 83.945312 375 187.5 375 C 291.054688 375 375 291.054688 375 187.5 C 375 83.945312 291.054688 0 187.5 0 Z M 187.5 0 " clip-rule="nonzero"/></clipPath></defs><g clip-path="url(#28bc955d37)"><rect x="-37.5" width="450" fill="#a2c36e" y="-37.499999" height="449.999989" fill-opacity="1"/></g><path fill="#a2c36e" d="M 202.785156 276.417969 C 191.054688 272.144531 178.363281 272.757812 166.734375 276.730469 C 45.796875 318.058594 -4.386719 151.191406 103.269531 106.382812 C 155.789062 84.519531 215.15625 83.140625 268.492188 101.867188 C 386.132812 143.167969 321.355469 319.613281 202.785156 276.417969 Z M 202.785156 276.417969 " fill-opacity="1" fill-rule="nonzero"/><path fill="#ffffff" d="M 129.960938 285.457031 C 88.957031 285.457031 60.332031 259.457031 48.421875 227.992188 C 39.96875 205.660156 39.828125 180.386719 48.035156 158.648438 C 57.316406 134.074219 76.125 115.292969 102.425781 104.347656 C 128.734375 93.398438 156.691406 87.460938 185.515625 86.703125 C 214.183594 85.953125 242.34375 90.351562 269.21875 99.789062 C 303.328125 111.765625 325.386719 136.136719 331.328125 168.414062 C 334.460938 185.421875 332.828125 203.5 326.609375 220.699219 C 320.394531 237.886719 310.050781 252.941406 296.691406 264.230469 C 270.710938 286.195312 237.089844 291.257812 202.035156 278.484375 C 191.382812 274.605469 179.425781 274.71875 167.449219 278.8125 C 154.039062 283.394531 141.507812 285.457031 129.960938 285.457031 Z M 191.621094 90.925781 C 161.804688 90.925781 132.082031 96.769531 104.113281 108.414062 C 49.527344 131.132812 36.851562 184.984375 52.539062 226.433594 C 67.050781 264.777344 107.773438 294.554688 166.027344 274.648438 C 178.964844 270.226562 191.9375 270.125 203.539062 274.347656 C 237.050781 286.558594 269.125 281.769531 293.851562 260.871094 C 319.742188 238.984375 333.066406 202.148438 327 169.210938 C 321.355469 138.554688 300.320312 115.375 267.761719 103.945312 C 243.023438 95.261719 217.285156 90.933594 191.625 90.933594 Z M 191.621094 90.925781 " fill-opacity="1" fill-rule="nonzero"/><path fill="#a2c36e" d="M 199.871094 256.453125 C 190.363281 253.140625 180.074219 253.417969 170.648438 256.5 C 72.609375 288.519531 31.925781 159.222656 119.199219 124.5 C 161.773438 107.5625 209.902344 106.496094 253.136719 121.003906 C 348.511719 153.007812 295.996094 289.921875 199.875 256.453125 Z M 199.871094 256.453125 " fill-opacity="1" fill-rule="nonzero"/><path fill="#ffffff" d="M 229.222656 263.890625 C 219.460938 263.890625 209.398438 262.101562 199.152344 258.53125 C 190.527344 255.527344 180.648438 255.546875 171.335938 258.589844 C 148.207031 266.144531 126.40625 265.378906 108.28125 256.378906 C 92.234375 248.410156 79.90625 234.371094 73.5625 216.839844 C 67.222656 199.316406 67.546875 180.449219 74.480469 163.722656 C 82.203125 145.082031 97.386719 130.8125 118.382812 122.457031 C 139.753906 113.953125 162.457031 109.347656 185.863281 108.757812 C 209.136719 108.175781 232.011719 111.59375 253.835938 118.917969 C 281.480469 128.191406 299.4375 147.078125 304.40625 172.101562 C 309.636719 198.429688 299.390625 227.289062 278.308594 245.628906 C 268.40625 254.242188 256.441406 260.085938 243.710938 262.523438 C 238.96875 263.429688 234.132812 263.882812 229.21875 263.882812 Z M 200.597656 254.375 C 228.667969 264.148438 255.242188 259.863281 275.421875 242.308594 C 295.335938 224.988281 305.019531 197.769531 300.09375 172.960938 C 295.445312 149.554688 278.519531 131.847656 252.441406 123.09375 C 209.15625 108.570312 162.125 109.796875 120.011719 126.550781 C 77.292969 143.546875 66.390625 184.085938 77.703125 215.347656 C 88.847656 246.152344 121.699219 270.175781 169.964844 254.410156 C 180.191406 251.070312 191.070312 251.058594 200.597656 254.375 Z M 200.597656 254.375 " fill-opacity="1" fill-rule="nonzero"/><path fill="#a2c36e" d="M 158.128906 188.75 C 158.128906 189.792969 158.078125 190.832031 157.976562 191.871094 C 157.875 192.910156 157.722656 193.941406 157.515625 194.964844 C 157.3125 195.988281 157.0625 197 156.757812 197.996094 C 156.453125 198.996094 156.105469 199.976562 155.703125 200.941406 C 155.304688 201.90625 154.859375 202.847656 154.367188 203.769531 C 153.875 204.6875 153.339844 205.582031 152.757812 206.449219 C 152.179688 207.316406 151.558594 208.15625 150.898438 208.960938 C 150.234375 209.769531 149.535156 210.539062 148.796875 211.277344 C 148.058594 212.015625 147.285156 212.714844 146.480469 213.378906 C 145.671875 214.039062 144.835938 214.660156 143.96875 215.242188 C 143.101562 215.820312 142.207031 216.355469 141.285156 216.847656 C 140.367188 217.339844 139.425781 217.785156 138.460938 218.1875 C 137.496094 218.585938 136.515625 218.9375 135.515625 219.238281 C 134.515625 219.542969 133.507812 219.796875 132.484375 220 C 131.460938 220.203125 130.429688 220.355469 129.390625 220.457031 C 128.351562 220.558594 127.308594 220.613281 126.265625 220.613281 C 125.222656 220.613281 124.183594 220.558594 123.144531 220.457031 C 122.105469 220.355469 121.074219 220.203125 120.050781 220 C 119.027344 219.796875 118.015625 219.542969 117.015625 219.238281 C 116.019531 218.9375 115.035156 218.585938 114.074219 218.1875 C 113.109375 217.785156 112.167969 217.339844 111.246094 216.847656 C 110.324219 216.355469 109.433594 215.820312 108.5625 215.242188 C 107.695312 214.660156 106.859375 214.039062 106.050781 213.378906 C 105.246094 212.714844 104.472656 212.015625 103.734375 211.277344 C 102.996094 210.539062 102.296875 209.769531 101.636719 208.960938 C 100.972656 208.15625 100.351562 207.316406 99.773438 206.449219 C 99.191406 205.582031 98.65625 204.6875 98.164062 203.769531 C 97.671875 202.847656 97.226562 201.90625 96.828125 200.941406 C 96.429688 199.976562 96.078125 198.996094 95.773438 197.996094 C 95.472656 197 95.21875 195.988281 95.015625 194.964844 C 94.8125 193.941406 94.660156 192.910156 94.554688 191.871094 C 94.453125 190.832031 94.402344 189.792969 94.402344 188.75 C 94.402344 187.703125 94.453125 186.664062 94.554688 185.625 C 94.660156 184.585938 94.8125 183.554688 95.015625 182.53125 C 95.21875 181.507812 95.472656 180.496094 95.773438 179.5 C 96.078125 178.5 96.429688 177.519531 96.828125 176.554688 C 97.226562 175.589844 97.671875 174.648438 98.164062 173.726562 C 98.65625 172.808594 99.191406 171.914062 99.773438 171.046875 C 100.351562 170.179688 100.972656 169.339844 101.636719 168.535156 C 102.296875 167.726562 102.996094 166.957031 103.734375 166.21875 C 104.472656 165.480469 105.246094 164.78125 106.050781 164.117188 C 106.859375 163.457031 107.695312 162.835938 108.5625 162.253906 C 109.433594 161.675781 110.324219 161.140625 111.246094 160.648438 C 112.167969 160.15625 113.109375 159.710938 114.074219 159.308594 C 115.035156 158.910156 116.019531 158.558594 117.015625 158.257812 C 118.015625 157.953125 119.027344 157.699219 120.050781 157.496094 C 121.074219 157.292969 122.105469 157.140625 123.144531 157.039062 C 124.183594 156.9375 125.222656 156.886719 126.265625 156.886719 C 127.308594 156.886719 128.351562 156.9375 129.390625 157.039062 C 130.429688 157.140625 131.460938 157.292969 132.484375 157.496094 C 133.507812 157.699219 134.515625 157.953125 135.515625 158.257812 C 136.515625 158.558594 137.496094 158.910156 138.460938 159.308594 C 139.425781 159.710938 140.367188 160.15625 141.285156 160.648438 C 142.207031 161.140625 143.101562 161.675781 143.96875 162.253906 C 144.835938 162.835938 145.671875 163.457031 146.480469 164.117188 C 147.285156 164.78125 148.058594 165.480469 148.796875 166.21875 C 149.535156 166.957031 150.234375 167.726562 150.898438 168.535156 C 151.558594 169.339844 152.179688 170.179688 152.757812 171.046875 C 153.339844 171.914062 153.875 172.808594 154.367188 173.726562 C 154.859375 174.648438 155.304688 175.589844 155.703125 176.554688 C 156.105469 177.519531 156.453125 178.5 156.757812 179.5 C 157.0625 180.496094 157.3125 181.507812 157.515625 182.53125 C 157.722656 183.554688 157.875 184.585938 157.976562 185.625 C 158.078125 186.664062 158.128906 187.703125 158.128906 188.75 Z M 158.128906 188.75 " fill-opacity="1" fill-rule="nonzero"/><path fill="#ffffff" d="M 126.265625 222.8125 C 107.484375 222.8125 92.203125 207.53125 92.203125 188.75 C 92.203125 169.964844 107.484375 154.683594 126.265625 154.683594 C 145.050781 154.683594 160.332031 169.964844 160.332031 188.75 C 160.332031 207.53125 145.050781 222.8125 126.265625 222.8125 Z M 126.265625 159.085938 C 109.910156 159.085938 96.601562 172.390625 96.601562 188.75 C 96.601562 205.105469 109.910156 218.414062 126.265625 218.414062 C 142.625 218.414062 155.929688 205.105469 155.929688 188.75 C 155.929688 172.390625 142.625 159.085938 126.265625 159.085938 Z M 126.265625 159.085938 " fill-opacity="1" fill-rule="nonzero"/><path fill="#a2c36e" d="M 182.035156 206.179688 C 182.035156 207.226562 181.984375 208.265625 181.882812 209.304688 C 181.78125 210.34375 181.628906 211.375 181.421875 212.398438 C 181.21875 213.421875 180.964844 214.433594 180.664062 215.429688 C 180.359375 216.429688 180.007812 217.410156 179.609375 218.375 C 179.210938 219.339844 178.765625 220.28125 178.273438 221.203125 C 177.78125 222.121094 177.246094 223.015625 176.664062 223.882812 C 176.085938 224.75 175.464844 225.589844 174.804688 226.394531 C 174.140625 227.203125 173.441406 227.972656 172.703125 228.710938 C 171.964844 229.449219 171.191406 230.148438 170.386719 230.8125 C 169.578125 231.472656 168.742188 232.09375 167.875 232.675781 C 167.007812 233.253906 166.113281 233.789062 165.191406 234.28125 C 164.273438 234.773438 163.328125 235.21875 162.367188 235.617188 C 161.402344 236.019531 160.421875 236.371094 159.421875 236.671875 C 158.421875 236.976562 157.410156 237.230469 156.386719 237.433594 C 155.363281 237.636719 154.335938 237.789062 153.296875 237.890625 C 152.257812 237.992188 151.214844 238.042969 150.171875 238.042969 C 149.128906 238.042969 148.085938 237.992188 147.050781 237.890625 C 146.011719 237.789062 144.980469 237.636719 143.957031 237.433594 C 142.933594 237.230469 141.921875 236.976562 140.921875 236.671875 C 139.925781 236.371094 138.941406 236.019531 137.980469 235.617188 C 137.015625 235.21875 136.074219 234.773438 135.152344 234.28125 C 134.230469 233.789062 133.335938 233.253906 132.46875 232.675781 C 131.601562 232.09375 130.765625 231.472656 129.957031 230.8125 C 129.152344 230.148438 128.378906 229.449219 127.640625 228.710938 C 126.902344 227.972656 126.203125 227.203125 125.542969 226.394531 C 124.878906 225.589844 124.257812 224.75 123.679688 223.882812 C 123.097656 223.015625 122.5625 222.121094 122.070312 221.203125 C 121.578125 220.28125 121.132812 219.339844 120.734375 218.375 C 120.335938 217.410156 119.984375 216.429688 119.679688 215.429688 C 119.378906 214.433594 119.125 213.421875 118.921875 212.398438 C 118.71875 211.375 118.566406 210.34375 118.460938 209.304688 C 118.359375 208.265625 118.308594 207.226562 118.308594 206.179688 C 118.308594 205.136719 118.359375 204.097656 118.460938 203.058594 C 118.566406 202.019531 118.71875 200.988281 118.921875 199.964844 C 119.125 198.941406 119.378906 197.929688 119.679688 196.933594 C 119.984375 195.933594 120.335938 194.953125 120.734375 193.988281 C 121.132812 193.023438 121.578125 192.082031 122.070312 191.160156 C 122.5625 190.242188 123.097656 189.347656 123.679688 188.480469 C 124.257812 187.609375 124.878906 186.773438 125.542969 185.96875 C 126.203125 185.160156 126.902344 184.386719 127.640625 183.652344 C 128.378906 182.914062 129.152344 182.210938 129.957031 181.550781 C 130.765625 180.886719 131.601562 180.265625 132.46875 179.6875 C 133.335938 179.109375 134.230469 178.570312 135.152344 178.082031 C 136.074219 177.589844 137.015625 177.144531 137.980469 176.742188 C 138.941406 176.34375 139.925781 175.992188 140.921875 175.691406 C 141.921875 175.386719 142.933594 175.132812 143.957031 174.929688 C 144.980469 174.726562 146.011719 174.574219 147.050781 174.472656 C 148.085938 174.367188 149.128906 174.316406 150.171875 174.316406 C 151.214844 174.316406 152.257812 174.367188 153.296875 174.472656 C 154.335938 174.574219 155.363281 174.726562 156.386719 174.929688 C 157.410156 175.132812 158.421875 175.386719 159.421875 175.691406 C 160.421875 175.992188 161.402344 176.34375 162.367188 176.742188 C 163.328125 177.144531 164.273438 177.589844 165.191406 178.082031 C 166.113281 178.570312 167.007812 179.109375 167.875 179.6875 C 168.742188 180.265625 169.578125 180.886719 170.386719 181.550781 C 171.191406 182.210938 171.964844 182.914062 172.703125 183.652344 C 173.441406 184.386719 174.140625 185.160156 174.804688 185.96875 C 175.464844 186.773438 176.085938 187.609375 176.664062 188.480469 C 177.246094 189.347656 177.78125 190.242188 178.273438 191.160156 C 178.765625 192.082031 179.210938 193.023438 179.609375 193.988281 C 180.007812 194.953125 180.359375 195.933594 180.664062 196.933594 C 180.964844 197.929688 181.21875 198.941406 181.421875 199.964844 C 181.628906 200.988281 181.78125 202.019531 181.882812 203.058594 C 181.984375 204.097656 182.035156 205.136719 182.035156 206.179688 Z M 182.035156 206.179688 " fill-opacity="1" fill-rule="nonzero"/><path fill="#ffffff" d="M 150.171875 240.246094 C 131.390625 240.246094 116.109375 224.964844 116.109375 206.179688 C 116.109375 187.398438 131.390625 172.117188 150.171875 172.117188 C 168.957031 172.117188 184.238281 187.398438 184.238281 206.179688 C 184.238281 224.964844 168.957031 240.246094 150.171875 240.246094 Z M 150.171875 176.515625 C 133.816406 176.515625 120.507812 189.824219 120.507812 206.179688 C 120.507812 222.539062 133.816406 235.84375 150.171875 235.84375 C 166.53125 235.84375 179.835938 222.539062 179.835938 206.179688 C 179.835938 189.824219 166.53125 176.515625 150.171875 176.515625 Z M 150.171875 176.515625 " fill-opacity="1" fill-rule="nonzero"/><path fill="#a2c36e" d="M 182.035156 168.742188 C 182.035156 169.789062 181.984375 170.828125 181.882812 171.867188 C 181.78125 172.90625 181.628906 173.9375 181.421875 174.960938 C 181.21875 175.984375 180.964844 176.996094 180.664062 177.992188 C 180.359375 178.992188 180.007812 179.972656 179.609375 180.9375 C 179.210938 181.902344 178.765625 182.84375 178.273438 183.765625 C 177.78125 184.683594 177.246094 185.578125 176.664062 186.445312 C 176.085938 187.3125 175.464844 188.152344 174.804688 188.957031 C 174.140625 189.765625 173.441406 190.535156 172.703125 191.273438 C 171.964844 192.011719 171.191406 192.710938 170.386719 193.375 C 169.578125 194.035156 168.742188 194.65625 167.875 195.238281 C 167.007812 195.816406 166.113281 196.351562 165.191406 196.84375 C 164.273438 197.335938 163.328125 197.78125 162.367188 198.179688 C 161.402344 198.582031 160.421875 198.933594 159.421875 199.234375 C 158.421875 199.539062 157.410156 199.792969 156.386719 199.996094 C 155.363281 200.199219 154.335938 200.351562 153.296875 200.453125 C 152.257812 200.554688 151.214844 200.605469 150.171875 200.605469 C 149.128906 200.605469 148.085938 200.554688 147.050781 200.453125 C 146.011719 200.351562 144.980469 200.199219 143.957031 199.996094 C 142.933594 199.792969 141.921875 199.539062 140.921875 199.234375 C 139.925781 198.933594 138.941406 198.582031 137.980469 198.179688 C 137.015625 197.78125 136.074219 197.335938 135.152344 196.84375 C 134.230469 196.351562 133.335938 195.816406 132.46875 195.238281 C 131.601562 194.65625 130.765625 194.035156 129.957031 193.375 C 129.152344 192.710938 128.378906 192.011719 127.640625 191.273438 C 126.902344 190.535156 126.203125 189.765625 125.542969 188.957031 C 124.878906 188.152344 124.257812 187.3125 123.679688 186.445312 C 123.097656 185.578125 122.5625 184.683594 122.070312 183.765625 C 121.578125 182.84375 121.132812 181.902344 120.734375 180.9375 C 120.335938 179.972656 119.984375 178.992188 119.679688 177.992188 C 119.378906 176.996094 119.125 175.984375 118.921875 174.960938 C 118.71875 173.9375 118.566406 172.90625 118.460938 171.867188 C 118.359375 170.828125 118.308594 169.789062 118.308594 168.742188 C 118.308594 167.699219 118.359375 166.660156 118.460938 165.621094 C 118.566406 164.582031 118.71875 163.550781 118.921875 162.527344 C 119.125 161.503906 119.378906 160.492188 119.679688 159.496094 C 119.984375 158.496094 120.335938 157.515625 120.734375 156.550781 C 121.132812 155.585938 121.578125 154.644531 122.070312 153.722656 C 122.5625 152.804688 123.097656 151.910156 123.679688 151.042969 C 124.257812 150.171875 124.878906 149.335938 125.542969 148.53125 C 126.203125 147.722656 126.902344 146.949219 127.640625 146.210938 C 128.378906 145.476562 129.152344 144.773438 129.957031 144.113281 C 130.765625 143.449219 131.601562 142.828125 132.46875 142.25 C 133.335938 141.671875 134.230469 141.132812 135.152344 140.644531 C 136.074219 140.152344 137.015625 139.707031 137.980469 139.304688 C 138.941406 138.90625 139.925781 138.554688 140.921875 138.253906 C 141.921875 137.949219 142.933594 137.695312 143.957031 137.492188 C 144.980469 137.289062 146.011719 137.136719 147.050781 137.035156 C 148.085938 136.929688 149.128906 136.878906 150.171875 136.878906 C 151.214844 136.878906 152.257812 136.929688 153.296875 137.035156 C 154.335938 137.136719 155.363281 137.289062 156.386719 137.492188 C 157.410156 137.695312 158.421875 137.949219 159.421875 138.253906 C 160.421875 138.554688 161.402344 138.90625 162.367188 139.304688 C 163.328125 139.707031 164.273438 140.152344 165.191406 140.644531 C 166.113281 141.132812 167.007812 141.671875 167.875 142.25 C 168.742188 142.828125 169.578125 143.449219 170.386719 144.113281 C 171.191406 144.773438 171.964844 145.476562 172.703125 146.210938 C 173.441406 146.949219 174.140625 147.722656 174.804688 148.53125 C 175.464844 149.335938 176.085938 150.171875 176.664062 151.042969 C 177.246094 151.910156 177.78125 152.804688 178.273438 153.722656 C 178.765625 154.644531 179.210938 155.585938 179.609375 156.550781 C 180.007812 157.515625 180.359375 158.496094 180.664062 159.496094 C 180.964844 160.492188 181.21875 161.503906 181.421875 162.527344 C 181.628906 163.550781 181.78125 164.582031 181.882812 165.621094 C 181.984375 166.660156 182.035156 167.699219 182.035156 168.742188 Z M 182.035156 168.742188 " fill-opacity="1" fill-rule="nonzero"/><path fill="#ffffff" d="M 150.171875 202.8125 C 131.390625 202.8125 116.109375 187.53125 116.109375 168.746094 C 116.109375 149.960938 131.390625 134.679688 150.171875 134.679688 C 168.957031 134.679688 184.238281 149.960938 184.238281 168.746094 C 184.238281 187.53125 168.957031 202.8125 150.171875 202.8125 Z M 150.171875 139.082031 C 133.816406 139.082031 120.507812 152.390625 120.507812 168.746094 C 120.507812 185.101562 133.816406 198.410156 150.171875 198.410156 C 166.53125 198.410156 179.835938 185.101562 179.835938 168.746094 C 179.835938 152.390625 166.53125 139.082031 150.171875 139.082031 Z M 150.171875 139.082031 " fill-opacity="1" fill-rule="nonzero"/><path fill="#a2c36e" d="M 280.40625 188.75 C 280.40625 189.792969 280.355469 190.832031 280.253906 191.871094 C 280.148438 192.910156 279.996094 193.941406 279.792969 194.964844 C 279.589844 195.988281 279.335938 197 279.035156 197.996094 C 278.730469 198.996094 278.378906 199.976562 277.980469 200.941406 C 277.582031 201.90625 277.136719 202.847656 276.644531 203.769531 C 276.152344 204.6875 275.617188 205.582031 275.035156 206.449219 C 274.457031 207.316406 273.835938 208.15625 273.171875 208.960938 C 272.511719 209.769531 271.8125 210.539062 271.074219 211.277344 C 270.335938 212.015625 269.5625 212.714844 268.757812 213.378906 C 267.949219 214.039062 267.113281 214.660156 266.246094 215.242188 C 265.378906 215.820312 264.484375 216.355469 263.5625 216.847656 C 262.640625 217.339844 261.699219 217.785156 260.734375 218.1875 C 259.773438 218.585938 258.789062 218.9375 257.792969 219.238281 C 256.792969 219.542969 255.78125 219.796875 254.757812 220 C 253.734375 220.203125 252.703125 220.355469 251.664062 220.457031 C 250.628906 220.558594 249.585938 220.613281 248.542969 220.613281 C 247.5 220.613281 246.457031 220.558594 245.417969 220.457031 C 244.382812 220.355469 243.351562 220.203125 242.328125 220 C 241.304688 219.796875 240.292969 219.542969 239.292969 219.238281 C 238.292969 218.9375 237.3125 218.585938 236.347656 218.1875 C 235.386719 217.785156 234.441406 217.339844 233.523438 216.847656 C 232.601562 216.355469 231.707031 215.820312 230.839844 215.242188 C 229.972656 214.660156 229.136719 214.039062 228.328125 213.378906 C 227.523438 212.714844 226.75 212.015625 226.011719 211.277344 C 225.273438 210.539062 224.574219 209.769531 223.910156 208.960938 C 223.25 208.15625 222.628906 207.316406 222.050781 206.449219 C 221.46875 205.582031 220.933594 204.6875 220.441406 203.769531 C 219.949219 202.847656 219.503906 201.90625 219.105469 200.941406 C 218.707031 199.976562 218.355469 198.996094 218.050781 197.996094 C 217.75 197 217.496094 195.988281 217.292969 194.964844 C 217.089844 193.941406 216.933594 192.910156 216.832031 191.871094 C 216.730469 190.832031 216.679688 189.792969 216.679688 188.75 C 216.679688 187.703125 216.730469 186.664062 216.832031 185.625 C 216.933594 184.585938 217.089844 183.554688 217.292969 182.53125 C 217.496094 181.507812 217.75 180.496094 218.050781 179.5 C 218.355469 178.5 218.707031 177.519531 219.105469 176.554688 C 219.503906 175.589844 219.949219 174.648438 220.441406 173.726562 C 220.933594 172.808594 221.46875 171.914062 222.050781 171.046875 C 222.628906 170.179688 223.25 169.339844 223.910156 168.535156 C 224.574219 167.726562 225.273438 166.957031 226.011719 166.21875 C 226.75 165.480469 227.523438 164.78125 228.328125 164.117188 C 229.136719 163.457031 229.972656 162.835938 230.839844 162.253906 C 231.707031 161.675781 232.601562 161.140625 233.523438 160.648438 C 234.441406 160.15625 235.386719 159.710938 236.347656 159.308594 C 237.3125 158.910156 238.292969 158.558594 239.292969 158.257812 C 240.292969 157.953125 241.304688 157.699219 242.328125 157.496094 C 243.351562 157.292969 244.382812 157.140625 245.417969 157.039062 C 246.457031 156.9375 247.5 156.886719 248.542969 156.886719 C 249.585938 156.886719 250.628906 156.9375 251.664062 157.039062 C 252.703125 157.140625 253.734375 157.292969 254.757812 157.496094 C 255.78125 157.699219 256.792969 157.953125 257.792969 158.257812 C 258.789062 158.558594 259.773438 158.910156 260.734375 159.308594 C 261.699219 159.710938 262.640625 160.15625 263.5625 160.648438 C 264.484375 161.140625 265.378906 161.675781 266.246094 162.253906 C 267.113281 162.835938 267.949219 163.457031 268.757812 164.117188 C 269.5625 164.78125 270.335938 165.480469 271.074219 166.21875 C 271.8125 166.957031 272.511719 167.726562 273.171875 168.535156 C 273.835938 169.339844 274.457031 170.179688 275.035156 171.046875 C 275.617188 171.914062 276.152344 172.808594 276.644531 173.726562 C 277.136719 174.648438 277.582031 175.589844 277.980469 176.554688 C 278.378906 177.519531 278.730469 178.5 279.035156 179.5 C 279.335938 180.496094 279.589844 181.507812 279.792969 182.53125 C 279.996094 183.554688 280.148438 184.585938 280.253906 185.625 C 280.355469 186.664062 280.40625 187.703125 280.40625 188.75 Z M 280.40625 188.75 " fill-opacity="1" fill-rule="nonzero"/><path fill="#ffffff" d="M 248.542969 222.8125 C 229.757812 222.8125 214.476562 207.53125 214.476562 188.75 C 214.476562 169.964844 229.757812 154.683594 248.542969 154.683594 C 267.324219 154.683594 282.609375 169.964844 282.609375 188.75 C 282.609375 207.53125 267.324219 222.8125 248.542969 222.8125 Z M 248.542969 159.085938 C 232.183594 159.085938 218.878906 172.390625 218.878906 188.75 C 218.878906 205.105469 232.183594 218.414062 248.542969 218.414062 C 264.898438 218.414062 278.207031 205.105469 278.207031 188.75 C 278.207031 172.390625 264.898438 159.085938 248.542969 159.085938 Z M 248.542969 159.085938 " fill-opacity="1" fill-rule="nonzero"/><path fill="#a2c36e" d="M 256.5 206.179688 C 256.5 207.226562 256.449219 208.265625 256.347656 209.304688 C 256.246094 210.34375 256.089844 211.375 255.886719 212.398438 C 255.683594 213.421875 255.429688 214.433594 255.128906 215.429688 C 254.824219 216.429688 254.472656 217.410156 254.074219 218.375 C 253.675781 219.339844 253.230469 220.28125 252.738281 221.203125 C 252.246094 222.121094 251.710938 223.015625 251.128906 223.882812 C 250.550781 224.75 249.929688 225.589844 249.265625 226.394531 C 248.605469 227.203125 247.90625 227.972656 247.167969 228.710938 C 246.429688 229.449219 245.65625 230.148438 244.851562 230.8125 C 244.042969 231.472656 243.207031 232.09375 242.339844 232.675781 C 241.472656 233.253906 240.578125 233.789062 239.65625 234.28125 C 238.738281 234.773438 237.792969 235.21875 236.832031 235.617188 C 235.867188 236.019531 234.882812 236.371094 233.886719 236.671875 C 232.886719 236.976562 231.875 237.230469 230.851562 237.433594 C 229.828125 237.636719 228.796875 237.789062 227.757812 237.890625 C 226.722656 237.992188 225.679688 238.042969 224.636719 238.042969 C 223.59375 238.042969 222.550781 237.992188 221.511719 237.890625 C 220.476562 237.789062 219.445312 237.636719 218.421875 237.433594 C 217.398438 237.230469 216.386719 236.976562 215.386719 236.671875 C 214.386719 236.371094 213.40625 236.019531 212.441406 235.617188 C 211.480469 235.21875 210.535156 234.773438 209.617188 234.28125 C 208.695312 233.789062 207.800781 233.253906 206.933594 232.675781 C 206.066406 232.09375 205.230469 231.472656 204.421875 230.8125 C 203.617188 230.148438 202.84375 229.449219 202.105469 228.710938 C 201.367188 227.972656 200.667969 227.203125 200.007812 226.394531 C 199.34375 225.589844 198.722656 224.75 198.144531 223.882812 C 197.5625 223.015625 197.027344 222.121094 196.535156 221.203125 C 196.042969 220.28125 195.597656 219.339844 195.199219 218.375 C 194.800781 217.410156 194.449219 216.429688 194.144531 215.429688 C 193.84375 214.433594 193.589844 213.421875 193.386719 212.398438 C 193.183594 211.375 193.027344 210.34375 192.925781 209.304688 C 192.824219 208.265625 192.773438 207.226562 192.773438 206.179688 C 192.773438 205.136719 192.824219 204.097656 192.925781 203.058594 C 193.027344 202.019531 193.183594 200.988281 193.386719 199.964844 C 193.589844 198.941406 193.84375 197.929688 194.144531 196.933594 C 194.449219 195.933594 194.800781 194.953125 195.199219 193.988281 C 195.597656 193.023438 196.042969 192.082031 196.535156 191.160156 C 197.027344 190.242188 197.5625 189.347656 198.144531 188.480469 C 198.722656 187.609375 199.34375 186.773438 200.007812 185.96875 C 200.667969 185.160156 201.367188 184.386719 202.105469 183.652344 C 202.84375 182.914062 203.617188 182.210938 204.421875 181.550781 C 205.230469 180.886719 206.066406 180.265625 206.933594 179.6875 C 207.800781 179.109375 208.695312 178.570312 209.617188 178.082031 C 210.535156 177.589844 211.480469 177.144531 212.441406 176.742188 C 213.40625 176.34375 214.386719 175.992188 215.386719 175.691406 C 216.386719 175.386719 217.398438 175.132812 218.421875 174.929688 C 219.445312 174.726562 220.476562 174.574219 221.511719 174.472656 C 222.550781 174.367188 223.59375 174.316406 224.636719 174.316406 C 225.679688 174.316406 226.722656 174.367188 227.757812 174.472656 C 228.796875 174.574219 229.828125 174.726562 230.851562 174.929688 C 231.875 175.132812 232.886719 175.386719 233.886719 175.691406 C 234.882812 175.992188 235.867188 176.34375 236.832031 176.742188 C 237.792969 177.144531 238.738281 177.589844 239.65625 178.082031 C 240.578125 178.570312 241.472656 179.109375 242.339844 179.6875 C 243.207031 180.265625 244.042969 180.886719 244.851562 181.550781 C 245.65625 182.210938 246.429688 182.914062 247.167969 183.652344 C 247.90625 184.386719 248.605469 185.160156 249.265625 185.96875 C 249.929688 186.773438 250.550781 187.609375 251.128906 188.480469 C 251.710938 189.347656 252.246094 190.242188 252.738281 191.160156 C 253.230469 192.082031 253.675781 193.023438 254.074219 193.988281 C 254.472656 194.953125 254.824219 195.933594 255.128906 196.933594 C 255.429688 197.929688 255.683594 198.941406 255.886719 199.964844 C 256.089844 200.988281 256.246094 202.019531 256.347656 203.058594 C 256.449219 204.097656 256.5 205.136719 256.5 206.179688 Z M 256.5 206.179688 " fill-opacity="1" fill-rule="nonzero"/><path fill="#ffffff" d="M 224.636719 240.246094 C 205.851562 240.246094 190.570312 224.964844 190.570312 206.179688 C 190.570312 187.398438 205.851562 172.117188 224.636719 172.117188 C 243.421875 172.117188 258.703125 187.398438 258.703125 206.179688 C 258.703125 224.964844 243.421875 240.246094 224.636719 240.246094 Z M 224.636719 176.515625 C 208.28125 176.515625 194.972656 189.824219 194.972656 206.179688 C 194.972656 222.539062 208.28125 235.84375 224.636719 235.84375 C 240.992188 235.84375 254.300781 222.539062 254.300781 206.179688 C 254.300781 189.824219 240.992188 176.515625 224.636719 176.515625 Z M 224.636719 176.515625 " fill-opacity="1" fill-rule="nonzero"/><path fill="#a2c36e" d="M 256.5 168.742188 C 256.5 169.789062 256.449219 170.828125 256.347656 171.867188 C 256.246094 172.90625 256.089844 173.9375 255.886719 174.960938 C 255.683594 175.984375 255.429688 176.996094 255.128906 177.992188 C 254.824219 178.992188 254.472656 179.972656 254.074219 180.9375 C 253.675781 181.902344 253.230469 182.84375 252.738281 183.765625 C 252.246094 184.683594 251.710938 185.578125 251.128906 186.445312 C 250.550781 187.3125 249.929688 188.152344 249.265625 188.957031 C 248.605469 189.765625 247.90625 190.535156 247.167969 191.273438 C 246.429688 192.011719 245.65625 192.710938 244.851562 193.375 C 244.042969 194.035156 243.207031 194.65625 242.339844 195.238281 C 241.472656 195.816406 240.578125 196.351562 239.65625 196.84375 C 238.738281 197.335938 237.792969 197.78125 236.832031 198.179688 C 235.867188 198.582031 234.882812 198.933594 233.886719 199.234375 C 232.886719 199.539062 231.875 199.792969 230.851562 199.996094 C 229.828125 200.199219 228.796875 200.351562 227.757812 200.453125 C 226.722656 200.554688 225.679688 200.605469 224.636719 200.605469 C 223.59375 200.605469 222.550781 200.554688 221.511719 200.453125 C 220.476562 200.351562 219.445312 200.199219 218.421875 199.996094 C 217.398438 199.792969 216.386719 199.539062 215.386719 199.234375 C 214.386719 198.933594 213.40625 198.582031 212.441406 198.179688 C 211.480469 197.78125 210.535156 197.335938 209.617188 196.84375 C 208.695312 196.351562 207.800781 195.816406 206.933594 195.238281 C 206.066406 194.65625 205.230469 194.035156 204.421875 193.375 C 203.617188 192.710938 202.84375 192.011719 202.105469 191.273438 C 201.367188 190.535156 200.667969 189.765625 200.007812 188.957031 C 199.34375 188.152344 198.722656 187.3125 198.144531 186.445312 C 197.5625 185.578125 197.027344 184.683594 196.535156 183.765625 C 196.042969 182.84375 195.597656 181.902344 195.199219 180.9375 C 194.800781 179.972656 194.449219 178.992188 194.144531 177.992188 C 193.84375 176.996094 193.589844 175.984375 193.386719 174.960938 C 193.183594 173.9375 193.027344 172.90625 192.925781 171.867188 C 192.824219 170.828125 192.773438 169.789062 192.773438 168.742188 C 192.773438 167.699219 192.824219 166.660156 192.925781 165.621094 C 193.027344 164.582031 193.183594 163.550781 193.386719 162.527344 C 193.589844 161.503906 193.84375 160.492188 194.144531 159.496094 C 194.449219 158.496094 194.800781 157.515625 195.199219 156.550781 C 195.597656 155.585938 196.042969 154.644531 196.535156 153.722656 C 197.027344 152.804688 197.5625 151.910156 198.144531 151.042969 C 198.722656 150.171875 199.34375 149.335938 200.007812 148.53125 C 200.667969 147.722656 201.367188 146.949219 202.105469 146.210938 C 202.84375 145.476562 203.617188 144.773438 204.421875 144.113281 C 205.230469 143.449219 206.066406 142.828125 206.933594 142.25 C 207.800781 141.671875 208.695312 141.132812 209.617188 140.644531 C 210.535156 140.152344 211.480469 139.707031 212.441406 139.304688 C 213.40625 138.90625 214.386719 138.554688 215.386719 138.253906 C 216.386719 137.949219 217.398438 137.695312 218.421875 137.492188 C 219.445312 137.289062 220.476562 137.136719 221.511719 137.035156 C 222.550781 136.929688 223.59375 136.878906 224.636719 136.878906 C 225.679688 136.878906 226.722656 136.929688 227.757812 137.035156 C 228.796875 137.136719 229.828125 137.289062 230.851562 137.492188 C 231.875 137.695312 232.886719 137.949219 233.886719 138.253906 C 234.882812 138.554688 235.867188 138.90625 236.832031 139.304688 C 237.792969 139.707031 238.738281 140.152344 239.65625 140.644531 C 240.578125 141.132812 241.472656 141.671875 242.339844 142.25 C 243.207031 142.828125 244.042969 143.449219 244.851562 144.113281 C 245.65625 144.773438 246.429688 145.476562 247.167969 146.210938 C 247.90625 146.949219 248.605469 147.722656 249.265625 148.53125 C 249.929688 149.335938 250.550781 150.171875 251.128906 151.042969 C 251.710938 151.910156 252.246094 152.804688 252.738281 153.722656 C 253.230469 154.644531 253.675781 155.585938 254.074219 156.550781 C 254.472656 157.515625 254.824219 158.496094 255.128906 159.496094 C 255.429688 160.492188 255.683594 161.503906 255.886719 162.527344 C 256.089844 163.550781 256.246094 164.582031 256.347656 165.621094 C 256.449219 166.660156 256.5 167.699219 256.5 168.742188 Z M 256.5 168.742188 " fill-opacity="1" fill-rule="nonzero"/><path fill="#ffffff" d="M 224.636719 202.8125 C 205.851562 202.8125 190.570312 187.53125 190.570312 168.746094 C 190.570312 149.960938 205.851562 134.679688 224.636719 134.679688 C 243.421875 134.679688 258.703125 149.960938 258.703125 168.746094 C 258.703125 187.53125 243.421875 202.8125 224.636719 202.8125 Z M 224.636719 139.082031 C 208.28125 139.082031 194.972656 152.390625 194.972656 168.746094 C 194.972656 185.101562 208.28125 198.410156 224.636719 198.410156 C 240.992188 198.410156 254.300781 185.101562 254.300781 168.746094 C 254.300781 152.390625 240.992188 139.082031 224.636719 139.082031 Z M 224.636719 139.082031 " fill-opacity="1" fill-rule="nonzero"/><path fill="#a2c36e" d="M 219.269531 206.179688 C 219.269531 207.226562 219.21875 208.265625 219.117188 209.304688 C 219.011719 210.34375 218.859375 211.375 218.65625 212.398438 C 218.453125 213.421875 218.199219 214.433594 217.898438 215.429688 C 217.59375 216.429688 217.242188 217.410156 216.84375 218.375 C 216.445312 219.339844 216 220.28125 215.507812 221.203125 C 215.015625 222.121094 214.480469 223.015625 213.898438 223.882812 C 213.320312 224.75 212.699219 225.589844 212.035156 226.394531 C 211.375 227.203125 210.675781 227.972656 209.9375 228.710938 C 209.199219 229.449219 208.425781 230.148438 207.621094 230.8125 C 206.8125 231.472656 205.976562 232.09375 205.109375 232.675781 C 204.238281 233.253906 203.347656 233.789062 202.425781 234.28125 C 201.503906 234.773438 200.5625 235.21875 199.597656 235.617188 C 198.636719 236.019531 197.652344 236.371094 196.65625 236.671875 C 195.65625 236.976562 194.644531 237.230469 193.621094 237.433594 C 192.597656 237.636719 191.566406 237.789062 190.527344 237.890625 C 189.492188 237.992188 188.449219 238.042969 187.40625 238.042969 C 186.363281 238.042969 185.320312 237.992188 184.28125 237.890625 C 183.242188 237.789062 182.214844 237.636719 181.1875 237.433594 C 180.164062 237.230469 179.15625 236.976562 178.15625 236.671875 C 177.15625 236.371094 176.175781 236.019531 175.210938 235.617188 C 174.246094 235.21875 173.304688 234.773438 172.386719 234.28125 C 171.464844 233.789062 170.570312 233.253906 169.703125 232.675781 C 168.835938 232.09375 168 231.472656 167.191406 230.8125 C 166.386719 230.148438 165.613281 229.449219 164.875 228.710938 C 164.136719 227.972656 163.4375 227.203125 162.773438 226.394531 C 162.113281 225.589844 161.492188 224.75 160.914062 223.882812 C 160.332031 223.015625 159.796875 222.121094 159.304688 221.203125 C 158.8125 220.28125 158.367188 219.339844 157.96875 218.375 C 157.570312 217.410156 157.21875 216.429688 156.914062 215.429688 C 156.613281 214.433594 156.359375 213.421875 156.15625 212.398438 C 155.949219 211.375 155.796875 210.34375 155.695312 209.304688 C 155.59375 208.265625 155.542969 207.226562 155.542969 206.179688 C 155.542969 205.136719 155.59375 204.097656 155.695312 203.058594 C 155.796875 202.019531 155.949219 200.988281 156.15625 199.964844 C 156.359375 198.941406 156.613281 197.929688 156.914062 196.933594 C 157.21875 195.933594 157.570312 194.953125 157.96875 193.988281 C 158.367188 193.023438 158.8125 192.082031 159.304688 191.160156 C 159.796875 190.242188 160.332031 189.347656 160.914062 188.480469 C 161.492188 187.609375 162.113281 186.773438 162.773438 185.96875 C 163.4375 185.160156 164.136719 184.386719 164.875 183.652344 C 165.613281 182.914062 166.386719 182.210938 167.191406 181.550781 C 168 180.886719 168.835938 180.265625 169.703125 179.6875 C 170.570312 179.109375 171.464844 178.570312 172.386719 178.082031 C 173.304688 177.589844 174.246094 177.144531 175.210938 176.742188 C 176.175781 176.34375 177.15625 175.992188 178.15625 175.691406 C 179.15625 175.386719 180.164062 175.132812 181.1875 174.929688 C 182.214844 174.726562 183.242188 174.574219 184.28125 174.472656 C 185.320312 174.367188 186.363281 174.316406 187.40625 174.316406 C 188.449219 174.316406 189.492188 174.367188 190.527344 174.472656 C 191.566406 174.574219 192.597656 174.726562 193.621094 174.929688 C 194.644531 175.132812 195.65625 175.386719 196.65625 175.691406 C 197.652344 175.992188 198.636719 176.34375 199.597656 176.742188 C 200.5625 177.144531 201.503906 177.589844 202.425781 178.082031 C 203.347656 178.570312 204.238281 179.109375 205.109375 179.6875 C 205.976562 180.265625 206.8125 180.886719 207.621094 181.550781 C 208.425781 182.210938 209.199219 182.914062 209.9375 183.652344 C 210.675781 184.386719 211.375 185.160156 212.035156 185.96875 C 212.699219 186.773438 213.320312 187.609375 213.898438 188.480469 C 214.480469 189.347656 215.015625 190.242188 215.507812 191.160156 C 216 192.082031 216.445312 193.023438 216.84375 193.988281 C 217.242188 194.953125 217.59375 195.933594 217.898438 196.933594 C 218.199219 197.929688 218.453125 198.941406 218.65625 199.964844 C 218.859375 200.988281 219.011719 202.019531 219.117188 203.058594 C 219.21875 204.097656 219.269531 205.136719 219.269531 206.179688 Z M 219.269531 206.179688 " fill-opacity="1" fill-rule="nonzero"/><path fill="#ffffff" d="M 187.402344 240.246094 C 168.621094 240.246094 153.339844 224.964844 153.339844 206.179688 C 153.339844 187.398438 168.621094 172.117188 187.402344 172.117188 C 206.1875 172.117188 221.46875 187.398438 221.46875 206.179688 C 221.46875 224.964844 206.1875 240.246094 187.402344 240.246094 Z M 187.402344 176.515625 C 171.046875 176.515625 157.738281 189.824219 157.738281 206.179688 C 157.738281 222.539062 171.046875 235.84375 187.402344 235.84375 C 203.761719 235.84375 217.066406 222.539062 217.066406 206.179688 C 217.066406 189.824219 203.761719 176.515625 187.402344 176.515625 Z M 187.402344 176.515625 " fill-opacity="1" fill-rule="nonzero"/><path fill="#a2c36e" d="M 219.269531 163.796875 C 219.269531 164.839844 219.21875 165.882812 219.117188 166.921875 C 219.011719 167.960938 218.859375 168.992188 218.65625 170.015625 C 218.453125 171.039062 218.199219 172.050781 217.898438 173.046875 C 217.59375 174.046875 217.242188 175.027344 216.84375 175.992188 C 216.445312 176.957031 216 177.898438 215.507812 178.820312 C 215.015625 179.738281 214.480469 180.632812 213.898438 181.5 C 213.320312 182.367188 212.699219 183.207031 212.035156 184.011719 C 211.375 184.820312 210.675781 185.589844 209.9375 186.328125 C 209.199219 187.066406 208.425781 187.765625 207.621094 188.429688 C 206.8125 189.089844 205.976562 189.710938 205.109375 190.292969 C 204.238281 190.871094 203.347656 191.40625 202.425781 191.898438 C 201.503906 192.390625 200.5625 192.835938 199.597656 193.234375 C 198.636719 193.636719 197.652344 193.988281 196.65625 194.289062 C 195.65625 194.59375 194.644531 194.84375 193.621094 195.050781 C 192.597656 195.253906 191.566406 195.40625 190.527344 195.507812 C 189.492188 195.609375 188.449219 195.660156 187.40625 195.660156 C 186.363281 195.660156 185.320312 195.609375 184.28125 195.507812 C 183.242188 195.40625 182.214844 195.253906 181.1875 195.050781 C 180.164062 194.84375 179.15625 194.59375 178.15625 194.289062 C 177.15625 193.988281 176.175781 193.636719 175.210938 193.234375 C 174.246094 192.835938 173.304688 192.390625 172.386719 191.898438 C 171.464844 191.40625 170.570312 190.871094 169.703125 190.292969 C 168.835938 189.710938 168 189.089844 167.191406 188.429688 C 166.386719 187.765625 165.613281 187.066406 164.875 186.328125 C 164.136719 185.589844 163.4375 184.820312 162.773438 184.011719 C 162.113281 183.207031 161.492188 182.367188 160.914062 181.5 C 160.332031 180.632812 159.796875 179.738281 159.304688 178.820312 C 158.8125 177.898438 158.367188 176.957031 157.96875 175.992188 C 157.570312 175.027344 157.21875 174.046875 156.914062 173.046875 C 156.613281 172.050781 156.359375 171.039062 156.15625 170.015625 C 155.949219 168.992188 155.796875 167.960938 155.695312 166.921875 C 155.59375 165.882812 155.542969 164.839844 155.542969 163.796875 C 155.542969 162.753906 155.59375 161.714844 155.695312 160.675781 C 155.796875 159.636719 155.949219 158.605469 156.15625 157.582031 C 156.359375 156.558594 156.613281 155.546875 156.914062 154.546875 C 157.21875 153.550781 157.570312 152.570312 157.96875 151.605469 C 158.367188 150.640625 158.8125 149.699219 159.304688 148.777344 C 159.796875 147.859375 160.332031 146.964844 160.914062 146.097656 C 161.492188 145.226562 162.113281 144.390625 162.773438 143.585938 C 163.4375 142.777344 164.136719 142.003906 164.875 141.265625 C 165.613281 140.53125 166.386719 139.828125 167.191406 139.167969 C 168 138.503906 168.835938 137.882812 169.703125 137.304688 C 170.570312 136.726562 171.464844 136.1875 172.386719 135.695312 C 173.304688 135.207031 174.246094 134.757812 175.210938 134.359375 C 176.175781 133.960938 177.15625 133.609375 178.15625 133.308594 C 179.15625 133.003906 180.164062 132.75 181.1875 132.546875 C 182.214844 132.34375 183.242188 132.191406 184.28125 132.089844 C 185.320312 131.984375 186.363281 131.933594 187.40625 131.933594 C 188.449219 131.933594 189.492188 131.984375 190.527344 132.089844 C 191.566406 132.191406 192.597656 132.34375 193.621094 132.546875 C 194.644531 132.75 195.65625 133.003906 196.65625 133.308594 C 197.652344 133.609375 198.636719 133.960938 199.597656 134.359375 C 200.5625 134.757812 201.503906 135.207031 202.425781 135.695312 C 203.347656 136.1875 204.238281 136.726562 205.109375 137.304688 C 205.976562 137.882812 206.8125 138.503906 207.621094 139.167969 C 208.425781 139.828125 209.199219 140.53125 209.9375 141.265625 C 210.675781 142.003906 211.375 142.777344 212.035156 143.585938 C 212.699219 144.390625 213.320312 145.226562 213.898438 146.097656 C 214.480469 146.964844 215.015625 147.859375 215.507812 148.777344 C 216 149.699219 216.445312 150.640625 216.84375 151.605469 C 217.242188 152.570312 217.59375 153.550781 217.898438 154.546875 C 218.199219 155.546875 218.453125 156.558594 218.65625 157.582031 C 218.859375 158.605469 219.011719 159.636719 219.117188 160.675781 C 219.21875 161.714844 219.269531 162.753906 219.269531 163.796875 Z M 219.269531 163.796875 " fill-opacity="1" fill-rule="nonzero"/><path fill="#ffffff" d="M 187.402344 197.867188 C 168.621094 197.867188 153.339844 182.582031 153.339844 163.800781 C 153.339844 145.015625 168.621094 129.734375 187.402344 129.734375 C 206.1875 129.734375 221.46875 145.015625 221.46875 163.800781 C 221.46875 182.582031 206.1875 197.867188 187.402344 197.867188 Z M 187.402344 134.136719 C 171.046875 134.136719 157.738281 147.441406 157.738281 163.800781 C 157.738281 180.15625 171.046875 193.464844 187.402344 193.464844 C 203.761719 193.464844 217.066406 180.15625 217.066406 163.800781 C 217.066406 147.441406 203.761719 134.136719 187.402344 134.136719 Z M 187.402344 134.136719 " fill-opacity="1" fill-rule="nonzero"/></svg>