<svg width="500" height="500" viewBox="0 0 500 500" fill="none" xmlns="http://www.w3.org/2000/svg">
<g clip-path="url(#clip0_1_2)">
<mask id="mask0_1_2" style="mask-type:luminance" maskUnits="userSpaceOnUse" x="0" y="0" width="500" height="500">
<path d="M250 0C111.927 0 0 111.927 0 250C0 388.073 111.927 500 250 500C388.073 500 500 388.073 500 250C500 111.927 388.073 0 250 0Z" fill="white"/>
</mask>
<g mask="url(#mask0_1_2)">
<path d="M550 -50H-50V550H550V-50Z" fill="#233C4B"/>
</g>
<mask id="mask1_1_2" style="mask-type:luminance" maskUnits="userSpaceOnUse" x="80" y="80" width="341" height="341">
<path d="M80 420.969L80 80L420.969 80L420.969 420.969L80 420.969Z" fill="white"/>
</mask>
<g mask="url(#mask1_1_2)">
<path d="M153.766 153.716C129.891 156.918 109.047 158.472 90.5998 140.064L80 150.608C102.082 172.684 127.793 172.124 151.635 169.11C149.515 185.626 148.616 202.402 155.192 218.569L155.003 218.774L157.495 223.624C160.825 229.94 165.015 235.622 170.054 240.678C175.098 245.739 180.776 249.941 187.08 253.287L191.93 255.795L192.141 255.59C208.335 262.216 225.156 261.317 241.727 259.203C239.59 275.852 238.691 292.745 245.473 309.016L245.268 309.222L247.815 314.111C251.106 320.315 255.24 325.893 260.23 330.832C262.194 332.819 264.259 334.694 266.428 336.454C269.925 339.245 273.671 341.648 277.666 343.663L282.439 346.06L282.644 345.871C298.733 352.353 315.42 351.487 331.858 349.334C328.845 373.137 328.268 398.87 350.361 420.969L360.905 410.369C342.458 391.922 343.923 371.039 347.22 347.203C371.094 343.907 391.939 342.425 410.402 360.889L420.985 350.294C398.887 328.196 373.153 328.795 349.373 331.809C351.543 315.365 352.403 298.677 345.927 282.572L346.132 282.389L343.679 277.555C343.135 276.507 342.575 275.458 341.975 274.448C338.923 269.209 335.238 264.458 330.926 260.196C325.987 255.202 320.41 251.062 314.2 247.782L309.333 245.212L309.127 245.418C292.85 238.68 275.94 239.579 259.292 241.677C261.412 225.1 262.311 208.285 255.679 192.086L255.884 191.864L253.376 186.991C250.046 180.731 245.862 175.115 240.811 170.137C235.772 165.031 230.073 160.819 223.713 157.495L218.846 155.009L218.58 155.042C202.458 148.471 185.676 149.426 169.121 151.485C172.14 127.682 172.74 101.954 150.641 79.8557L140.041 90.4333C158.522 108.975 157.062 129.802 153.766 153.716ZM178.112 227.293L177.496 226.582C176.691 225.628 175.903 224.706 175.17 223.696C174.627 222.947 174.122 222.181 173.639 221.41L221.538 173.511C222.287 174.016 223.058 174.499 223.807 175.065C224.779 175.775 225.678 176.563 226.671 177.368L227.403 177.984C228.358 178.828 229.274 179.71 230.228 180.626C231.183 181.541 232.104 182.496 232.831 183.417L233.453 184.128C234.257 185.082 235.04 185.998 235.772 187.03C236.3 187.74 236.782 188.473 237.254 189.2L189.35 237.215C188.617 236.732 187.868 236.244 187.141 235.7C186.148 234.973 185.171 234.185 184.216 233.358L183.523 232.759C182.59 231.921 181.652 231.077 180.737 230.156C179.815 229.24 178.9 228.247 178.056 227.293L178.112 227.293ZM268.265 317.502L267.644 316.808C266.861 315.87 266.09 314.938 265.38 313.978L265.246 313.811C264.78 313.156 264.331 312.479 263.881 311.808L311.88 263.831C312.551 264.281 313.228 264.73 313.9 265.213L314.033 265.213C314.988 265.929 315.903 266.695 316.863 267.5L317.552 268.099C318.489 268.92 319.427 269.764 320.326 270.685C321.264 271.601 322.197 272.555 322.968 273.51L323.601 274.242C324.389 275.158 325.155 276.113 325.848 277.05L325.981 277.2C326.542 277.988 327.069 278.793 327.591 279.598L279.781 327.541C278.976 327.014 278.171 326.509 277.406 325.926L277.256 325.815C276.296 325.105 275.38 324.355 274.425 323.567L273.693 322.929C272.738 322.069 271.823 321.209 270.829 320.254C269.836 319.3 269.142 318.417 268.265 317.502ZM333.995 333.945C320.099 335.815 306.802 337.181 294.482 333.945L334.073 294.354C337.236 306.73 335.926 320.049 333.995 333.945ZM257.216 297.273C253.842 284.748 255.174 271.229 257.216 257.088C271.373 255.213 284.892 253.792 297.401 257.183L257.216 297.273ZM243.864 243.83C229.818 245.701 216.371 247.088 203.934 243.83L243.841 203.94C247.138 216.338 245.828 229.784 243.88 243.83L243.864 243.83ZM167.085 206.748C163.844 194.372 165.209 180.981 167.085 166.974C181.092 165.098 194.461 163.716 206.859 166.974L167.085 206.748Z" fill="white"/>
</g>
</g>
<defs>
<clipPath id="clip0_1_2">
<rect width="500" height="500" fill="white"/>
</clipPath>
</defs>
</svg>
