<svg xmlns="http://www.w3.org/2000/svg" xmlns:xlink="http://www.w3.org/1999/xlink" width="500" zoomAndPan="magnify" viewBox="0 0 375 374.999991" height="500" preserveAspectRatio="xMidYMid meet" version="1.0"><defs><clipPath id="a38ea7a9cd"><path d="M 187.5 0 C 83.945312 0 0 83.945312 0 187.5 C 0 291.054688 83.945312 375 187.5 375 C 291.054688 375 375 291.054688 375 187.5 C 375 83.945312 291.054688 0 187.5 0 Z M 187.5 0 " clip-rule="nonzero"/></clipPath><clipPath id="4305a04c7b"><path d="M 77 67.371094 L 155 67.371094 L 155 135 L 77 135 Z M 77 67.371094 " clip-rule="nonzero"/></clipPath><clipPath id="1e24425130"><path d="M 247 255 L 307.371094 255 L 307.371094 307.371094 L 247 307.371094 Z M 247 255 " clip-rule="nonzero"/></clipPath><clipPath id="69c179be07"><path d="M 151 67.371094 L 186 67.371094 L 186 98 L 151 98 Z M 151 67.371094 " clip-rule="nonzero"/></clipPath><clipPath id="3ca18248d0"><path d="M 67.371094 112 L 90 112 L 90 165 L 67.371094 165 Z M 67.371094 112 " clip-rule="nonzero"/></clipPath></defs><g clip-path="url(#a38ea7a9cd)"><rect x="-37.5" width="450" fill="#f47c2e" y="-37.499999" height="449.999989" fill-opacity="1"/></g><path fill="#fffff9" d="M 238.179688 139.070312 C 230.292969 100.03125 254.320312 76.753906 255.070312 76.003906 L 249.816406 70.371094 C 248.6875 71.5 222.035156 97.402344 230.671875 140.199219 C 236.675781 169.105469 231.796875 191.628906 216.40625 207.019531 L 169.855469 160.84375 C 177.363281 155.964844 185.246094 152.210938 193.128906 149.582031 L 214.902344 171.355469 L 220.160156 166.101562 L 201.011719 146.957031 C 208.898438 145.078125 216.027344 143.953125 221.660156 143.199219 L 220.910156 135.691406 C 199.511719 137.945312 130.0625 150.710938 134.191406 222.035156 C 138.320312 289.984375 122.179688 296.367188 122.179688 296.367188 L 123.679688 303.875 C 127.433594 303.121094 146.203125 295.613281 141.699219 222.035156 C 140.199219 195.007812 149.957031 177.363281 163.847656 165.726562 L 210.773438 212.652344 C 205.519531 216.78125 199.886719 220.160156 192.753906 223.160156 C 191.253906 223.914062 189.75 224.289062 188.25 225.039062 L 155.964844 192.753906 L 150.710938 198.011719 L 179.992188 227.292969 C 170.230469 229.917969 160.09375 230.671875 149.582031 230.292969 L 149.207031 237.800781 C 151.085938 237.800781 152.960938 237.800781 155.214844 237.800781 C 169.105469 237.800781 182.992188 235.175781 195.382812 229.917969 C 232.546875 214.152344 247.1875 182.992188 238.179688 139.070312 Z M 238.179688 139.070312 " fill-opacity="1" fill-rule="nonzero"/><path fill="#fffff9" d="M 127.058594 234.800781 L 127.808594 227.292969 C 121.804688 226.914062 116.171875 226.914062 110.164062 227.667969 C 91.019531 229.917969 77.882812 234.425781 71.125 241.179688 L 76.378906 246.4375 C 79.757812 242.683594 86.890625 239.679688 96.652344 237.425781 L 113.167969 257.324219 L 118.800781 252.441406 L 104.910156 235.925781 C 106.785156 235.550781 108.664062 235.175781 110.917969 235.175781 C 116.546875 234.425781 121.804688 234.425781 127.058594 234.800781 Z M 127.058594 234.800781 " fill-opacity="1" fill-rule="nonzero"/><path fill="#fffff9" d="M 261.453125 136.820312 C 256.949219 136.445312 252.441406 136.070312 247.9375 135.691406 L 247.5625 143.199219 C 252.066406 143.578125 256.574219 143.953125 261.078125 144.328125 C 262.953125 144.328125 264.832031 144.703125 266.707031 144.703125 C 289.234375 144.703125 305.375 132.691406 306.125 131.9375 L 301.621094 125.933594 C 301.621094 125.933594 294.113281 131.5625 283.226562 134.566406 L 262.203125 110.164062 L 256.574219 115.046875 L 274.96875 136.445312 C 270.460938 136.820312 265.957031 137.195312 261.453125 136.820312 Z M 261.453125 136.820312 " fill-opacity="1" fill-rule="nonzero"/><g clip-path="url(#4305a04c7b)"><path fill="#fffff9" d="M 95.523438 133.066406 C 96.277344 134.191406 97.402344 134.941406 98.902344 134.941406 L 133.441406 134.941406 C 134.941406 134.941406 136.070312 134.191406 136.820312 133.066406 L 154.085938 103.03125 C 154.839844 101.90625 154.839844 100.40625 154.085938 99.277344 L 136.820312 69.246094 C 136.070312 68.121094 134.941406 67.371094 133.441406 67.371094 L 98.902344 67.371094 C 97.402344 67.371094 96.277344 68.121094 95.523438 69.246094 L 78.257812 99.277344 C 77.503906 100.40625 77.503906 101.90625 78.257812 103.03125 Z M 98.902344 78.632812 L 117.296875 110.542969 L 123.679688 106.785156 L 105.285156 74.878906 L 131.1875 74.878906 L 146.203125 101.15625 L 133.066406 123.679688 L 127.808594 114.296875 L 121.425781 118.050781 L 126.683594 127.433594 L 101.15625 127.433594 L 86.140625 101.15625 Z M 98.902344 78.632812 " fill-opacity="1" fill-rule="nonzero"/></g><path fill="#fffff9" d="M 280.222656 213.777344 L 267.085938 213.777344 C 265.582031 213.777344 264.457031 214.527344 263.707031 215.652344 L 257.324219 226.914062 C 256.574219 228.042969 256.574219 229.542969 257.324219 230.671875 L 263.707031 241.933594 C 264.457031 243.058594 265.582031 243.808594 267.085938 243.808594 L 280.222656 243.808594 C 281.726562 243.808594 282.851562 243.058594 283.601562 241.933594 L 289.984375 230.671875 C 290.734375 229.542969 290.734375 228.042969 289.984375 226.914062 L 283.601562 215.652344 C 282.851562 214.527344 281.726562 213.777344 280.222656 213.777344 Z M 282.476562 228.792969 L 280.222656 232.546875 L 273.839844 221.285156 L 278.347656 221.285156 Z M 265.207031 228.792969 L 267.460938 225.039062 L 273.839844 236.300781 L 269.335938 236.300781 Z M 265.207031 228.792969 " fill-opacity="1" fill-rule="nonzero"/><g clip-path="url(#1e24425130)"><path fill="#fffff9" d="M 306.875 279.472656 L 293.738281 256.949219 C 292.988281 255.820312 291.859375 255.070312 290.359375 255.070312 L 264.457031 255.070312 C 262.953125 255.070312 261.828125 255.820312 261.078125 256.949219 L 247.9375 279.472656 C 247.1875 280.597656 247.1875 282.101562 247.9375 283.226562 L 261.078125 305.75 C 261.828125 306.875 262.953125 307.628906 264.457031 307.628906 L 290.359375 307.628906 C 291.859375 307.628906 292.988281 306.875 293.738281 305.75 L 306.875 283.226562 C 307.628906 282.101562 307.628906 280.597656 306.875 279.472656 Z M 288.480469 300.121094 L 266.707031 300.121094 L 258.074219 285.101562 L 288.855469 285.101562 L 288.855469 277.59375 L 258.074219 277.59375 L 266.707031 262.578125 L 288.480469 262.578125 L 297.117188 277.59375 L 292.613281 277.59375 L 292.613281 285.101562 L 297.117188 285.101562 Z M 288.480469 300.121094 " fill-opacity="1" fill-rule="nonzero"/></g><path fill="#fffff9" d="M 257.324219 245.6875 L 246.4375 226.914062 C 245.6875 225.789062 244.558594 225.039062 243.058594 225.039062 L 221.285156 225.039062 C 219.785156 225.039062 218.65625 225.789062 217.90625 226.914062 L 207.019531 245.6875 C 206.269531 246.8125 206.269531 248.3125 207.019531 249.441406 L 217.90625 268.210938 C 218.65625 269.335938 219.785156 270.085938 221.285156 270.085938 L 243.058594 270.085938 C 244.558594 270.085938 245.6875 269.335938 246.4375 268.210938 L 257.324219 249.441406 C 258.074219 248.3125 258.074219 246.8125 257.324219 245.6875 Z M 241.179688 262.578125 L 228.042969 262.578125 L 231.421875 256.949219 L 225.039062 253.195312 L 221.660156 258.824219 L 215.277344 247.5625 L 223.914062 232.546875 L 237.050781 232.546875 L 227.292969 249.441406 L 233.671875 253.195312 L 243.433594 236.300781 L 249.816406 247.5625 Z M 241.179688 262.578125 " fill-opacity="1" fill-rule="nonzero"/><g clip-path="url(#69c179be07)"><path fill="#fffff9" d="M 158.96875 95.523438 C 159.71875 96.652344 160.84375 97.402344 162.347656 97.402344 L 175.484375 97.402344 C 176.988281 97.402344 178.113281 96.652344 178.863281 95.523438 L 185.246094 84.261719 C 185.996094 83.136719 185.996094 81.636719 185.246094 80.507812 L 178.863281 69.246094 C 177.738281 68.121094 176.613281 67.371094 175.109375 67.371094 L 161.972656 67.371094 C 160.46875 67.371094 159.34375 68.121094 158.59375 69.246094 L 152.210938 80.507812 C 151.460938 81.636719 151.460938 83.136719 152.210938 84.261719 Z M 173.234375 89.894531 L 169.105469 89.894531 L 175.859375 79.382812 L 177.363281 82.386719 Z M 164.222656 74.878906 L 169.105469 74.878906 L 161.972656 86.515625 L 160.09375 82.386719 Z M 164.222656 74.878906 " fill-opacity="1" fill-rule="nonzero"/></g><path fill="#fffff9" d="M 119.550781 142.449219 L 97.777344 142.449219 C 96.277344 142.449219 95.148438 143.199219 94.398438 144.328125 L 83.511719 163.097656 C 82.761719 164.222656 82.761719 165.726562 83.511719 166.851562 L 94.398438 185.621094 C 95.148438 186.746094 96.652344 187.5 97.777344 187.5 L 119.550781 187.5 C 121.050781 187.5 122.179688 186.746094 122.929688 185.621094 L 133.816406 166.851562 C 134.566406 165.726562 134.566406 164.222656 133.816406 163.097656 L 122.929688 144.328125 C 122.179688 143.199219 120.675781 142.449219 119.550781 142.449219 Z M 117.296875 179.992188 L 100.03125 179.992188 L 93.648438 168.726562 L 101.15625 168.726562 L 101.15625 161.21875 L 93.648438 161.21875 L 100.03125 149.957031 L 117.296875 149.957031 L 123.679688 161.21875 L 104.910156 161.21875 L 104.910156 168.726562 L 123.679688 168.726562 Z M 117.296875 179.992188 " fill-opacity="1" fill-rule="nonzero"/><g clip-path="url(#3ca18248d0)"><path fill="#fffff9" d="M 76.003906 163.097656 L 89.144531 140.574219 C 89.894531 139.445312 89.894531 137.945312 89.144531 136.820312 L 76.003906 114.296875 C 75.628906 113.167969 74.128906 112.417969 73 112.417969 L 67.371094 112.417969 L 67.371094 119.925781 L 70.75 119.925781 L 79.382812 134.941406 L 67.371094 134.941406 L 67.371094 142.449219 L 79.382812 142.449219 L 70.75 157.464844 L 67.371094 157.464844 L 67.371094 164.972656 L 73 164.972656 C 74.128906 164.972656 75.628906 164.222656 76.003906 163.097656 Z M 76.003906 163.097656 " fill-opacity="1" fill-rule="nonzero"/></g></svg>