<svg xmlns="http://www.w3.org/2000/svg" xmlns:xlink="http://www.w3.org/1999/xlink" width="500" zoomAndPan="magnify" viewBox="0 0 375 374.999991" height="500" preserveAspectRatio="xMidYMid meet" version="1.0"><defs><clipPath id="f427e32dbf"><path d="M 187.5 0 C 83.945312 0 0 83.945312 0 187.5 C 0 291.054688 83.945312 375 187.5 375 C 291.054688 375 375 291.054688 375 187.5 C 375 83.945312 291.054688 0 187.5 0 Z M 187.5 0 " clip-rule="nonzero"/></clipPath><clipPath id="6ede185d26"><path d="M 88.910156 51.601562 L 286.160156 51.601562 L 286.160156 323.101562 L 88.910156 323.101562 Z M 88.910156 51.601562 " clip-rule="nonzero"/></clipPath></defs><g clip-path="url(#f427e32dbf)"><rect x="-37.5" width="450" fill="#58a39d" y="-37.499999" height="449.999989" fill-opacity="1"/></g><g clip-path="url(#6ede185d26)"><path fill="#ffffff" d="M 283.367188 100.316406 C 283.3125 100.261719 236.46875 53.160156 236.523438 53.214844 C 235.535156 52.222656 234.183594 51.648438 232.75 51.648438 L 110.222656 51.648438 C 98.472656 51.648438 88.910156 61.207031 88.910156 72.957031 L 88.910156 302.039062 C 88.910156 313.789062 98.472656 323.347656 110.222656 323.347656 L 264.714844 323.347656 C 276.464844 323.347656 286.027344 313.789062 286.027344 302.039062 C 286.027344 298.765625 286.03125 105.449219 286.019531 105.054688 C 286.070312 103.003906 284.976562 101.253906 283.367188 100.316406 Z M 238.078125 69.886719 L 267.621094 99.59375 L 238.078125 99.59375 Z M 264.714844 312.691406 L 110.222656 312.691406 C 104.347656 312.691406 99.566406 307.914062 99.566406 302.039062 L 99.566406 72.957031 C 99.566406 67.082031 104.347656 62.304688 110.222656 62.304688 L 227.425781 62.304688 L 227.425781 104.921875 C 227.425781 107.863281 229.808594 110.25 232.75 110.25 L 275.371094 110.25 L 275.371094 302.039062 C 275.371094 307.914062 270.59375 312.691406 264.714844 312.691406 Z M 264.714844 312.691406 " fill-opacity="1" fill-rule="nonzero"/></g><path fill="#ffffff" d="M 147.511719 195.488281 C 168.074219 195.488281 184.804688 178.761719 184.804688 158.199219 C 184.804688 137.632812 168.074219 120.90625 147.511719 120.90625 C 126.949219 120.90625 110.222656 137.632812 110.222656 158.199219 C 110.222656 178.761719 126.949219 195.488281 147.511719 195.488281 Z M 173.613281 152.871094 L 152.839844 152.871094 L 152.839844 132.097656 C 163.261719 134.21875 171.488281 142.449219 173.613281 152.871094 Z M 142.1875 132.097656 L 142.1875 158.199219 C 142.1875 161.140625 144.570312 163.523438 147.511719 163.523438 L 173.613281 163.523438 C 171.140625 175.667969 160.378906 184.835938 147.511719 184.835938 C 132.824219 184.835938 120.875 172.886719 120.875 158.199219 C 120.875 145.332031 130.042969 134.570312 142.1875 132.097656 Z M 142.1875 132.097656 " fill-opacity="1" fill-rule="nonzero"/><path fill="#ffffff" d="M 259.390625 291.382812 L 248.734375 291.382812 L 248.734375 243.4375 C 248.734375 240.496094 246.347656 238.109375 243.40625 238.109375 L 222.097656 238.109375 C 219.15625 238.109375 216.769531 240.496094 216.769531 243.4375 L 216.769531 291.382812 L 206.113281 291.382812 L 206.113281 216.800781 C 206.113281 213.855469 203.730469 211.472656 200.789062 211.472656 L 179.476562 211.472656 C 176.535156 211.472656 174.148438 213.855469 174.148438 216.800781 L 174.148438 291.382812 L 163.496094 291.382812 L 163.496094 243.4375 C 163.496094 240.496094 161.109375 238.109375 158.167969 238.109375 L 136.859375 238.109375 C 133.914062 238.109375 131.53125 240.496094 131.53125 243.4375 L 131.53125 291.382812 L 120.875 291.382812 L 120.875 216.800781 C 120.875 213.855469 118.492188 211.472656 115.546875 211.472656 C 112.605469 211.472656 110.222656 213.855469 110.222656 216.800781 L 110.222656 296.710938 C 110.222656 299.652344 112.605469 302.039062 115.546875 302.039062 C 149.660156 302.039062 231.097656 302.039062 259.390625 302.039062 C 262.332031 302.039062 264.714844 299.652344 264.714844 296.710938 C 264.714844 293.769531 262.332031 291.382812 259.390625 291.382812 Z M 142.1875 291.382812 L 142.1875 248.761719 L 152.839844 248.761719 L 152.839844 291.382812 Z M 184.804688 291.382812 L 184.804688 222.125 L 195.460938 222.125 L 195.460938 291.382812 Z M 227.425781 291.382812 L 227.425781 248.761719 L 238.078125 248.761719 L 238.078125 291.382812 Z M 227.425781 291.382812 " fill-opacity="1" fill-rule="nonzero"/><path fill="#ffffff" d="M 115.546875 110.25 L 211.441406 110.25 C 214.382812 110.25 216.769531 107.863281 216.769531 104.921875 L 216.769531 78.285156 C 216.769531 75.34375 214.382812 72.957031 211.441406 72.957031 L 115.546875 72.957031 C 112.605469 72.957031 110.222656 75.34375 110.222656 78.285156 L 110.222656 104.921875 C 110.222656 107.863281 112.605469 110.25 115.546875 110.25 Z M 120.875 83.613281 L 206.113281 83.613281 L 206.113281 99.59375 L 120.875 99.59375 Z M 120.875 83.613281 " fill-opacity="1" fill-rule="nonzero"/><path fill="#ffffff" d="M 259.390625 120.90625 L 211.441406 120.90625 C 208.5 120.90625 206.113281 123.289062 206.113281 126.234375 C 206.113281 129.175781 208.5 131.558594 211.441406 131.558594 L 259.390625 131.558594 C 262.332031 131.558594 264.714844 129.175781 264.714844 126.234375 C 264.714844 123.289062 262.332031 120.90625 259.390625 120.90625 Z M 259.390625 120.90625 " fill-opacity="1" fill-rule="nonzero"/><path fill="#ffffff" d="M 259.390625 142.214844 L 211.441406 142.214844 C 208.5 142.214844 206.113281 144.601562 206.113281 147.542969 C 206.113281 150.484375 208.5 152.871094 211.441406 152.871094 L 259.390625 152.871094 C 262.332031 152.871094 264.714844 150.484375 264.714844 147.542969 C 264.714844 144.601562 262.332031 142.214844 259.390625 142.214844 Z M 259.390625 142.214844 " fill-opacity="1" fill-rule="nonzero"/><path fill="#ffffff" d="M 259.390625 163.523438 L 211.441406 163.523438 C 208.5 163.523438 206.113281 165.910156 206.113281 168.851562 C 206.113281 171.792969 208.5 174.179688 211.441406 174.179688 L 259.390625 174.179688 C 262.332031 174.179688 264.714844 171.792969 264.714844 168.851562 C 264.714844 165.910156 262.332031 163.523438 259.390625 163.523438 Z M 259.390625 163.523438 " fill-opacity="1" fill-rule="nonzero"/><path fill="#ffffff" d="M 259.390625 184.835938 L 211.441406 184.835938 C 208.5 184.835938 206.113281 187.21875 206.113281 190.160156 C 206.113281 193.105469 208.5 195.488281 211.441406 195.488281 L 259.390625 195.488281 C 262.332031 195.488281 264.714844 193.105469 264.714844 190.160156 C 264.714844 187.21875 262.332031 184.835938 259.390625 184.835938 Z M 259.390625 184.835938 " fill-opacity="1" fill-rule="nonzero"/></svg>