<svg xmlns="http://www.w3.org/2000/svg" xmlns:xlink="http://www.w3.org/1999/xlink" width="500" zoomAndPan="magnify" viewBox="0 0 375 374.999991" height="500" preserveAspectRatio="xMidYMid meet" version="1.0"><defs><clipPath id="9516e0b125"><path d="M 187.5 0 C 83.945312 0 0 83.945312 0 187.5 C 0 291.054688 83.945312 375 187.5 375 C 291.054688 375 375 291.054688 375 187.5 C 375 83.945312 291.054688 0 187.5 0 Z M 187.5 0 " clip-rule="nonzero"/></clipPath><clipPath id="5d63276ba4"><path d="M 73.078125 62.257812 L 159 62.257812 L 159 238 L 73.078125 238 Z M 73.078125 62.257812 " clip-rule="nonzero"/></clipPath><clipPath id="aae7ee3fe8"><path d="M 73.078125 62.257812 L 137 62.257812 L 137 118 L 73.078125 118 Z M 73.078125 62.257812 " clip-rule="nonzero"/></clipPath><clipPath id="32e0f89033"><path d="M 73.078125 127 L 159 127 L 159 302 L 73.078125 302 Z M 73.078125 127 " clip-rule="nonzero"/></clipPath></defs><g clip-path="url(#9516e0b125)"><rect x="-37.5" width="450" fill="#f47c2e" y="-37.499999" height="449.999989" fill-opacity="1"/></g><g clip-path="url(#5d63276ba4)"><path fill="#ffffff" d="M 103.109375 237.046875 C 104.914062 235.621094 106.714844 234.21875 108.492188 232.839844 L 109.359375 232.167969 C 93.777344 219.539062 80.808594 205.867188 80.808594 182.089844 C 80.808594 154.027344 98.855469 140.039062 117.96875 125.230469 C 137.703125 109.933594 158.117188 94.109375 158.117188 62.257812 L 150.386719 62.257812 C 150.386719 90.324219 132.339844 104.308594 113.226562 119.117188 C 93.492188 134.417969 73.078125 150.238281 73.078125 182.089844 C 73.078125 208.472656 87.085938 223.835938 103.109375 237.046875 Z M 103.109375 237.046875 " fill-opacity="1" fill-rule="nonzero"/></g><path fill="#ffffff" d="M 158.117188 301.917969 C 158.117188 275.539062 144.109375 260.171875 128.085938 246.964844 C 126.28125 248.386719 124.480469 249.789062 122.703125 251.167969 L 121.835938 251.84375 C 137.417969 264.472656 150.386719 278.144531 150.386719 301.917969 Z M 158.117188 301.917969 " fill-opacity="1" fill-rule="nonzero"/><g clip-path="url(#aae7ee3fe8)"><path fill="#ffffff" d="M 103.109375 117.214844 C 104.914062 115.792969 106.714844 114.390625 108.492188 113.007812 L 109.359375 112.335938 C 102.164062 106.828125 95.851562 100.441406 90.425781 93.183594 L 130.945312 93.183594 C 133.042969 90.773438 134.910156 88.195312 136.542969 85.453125 L 85.851562 85.453125 C 84.136719 81.828125 82.855469 78.0625 82.003906 74.144531 C 81.152344 70.230469 80.753906 66.265625 80.808594 62.257812 L 73.078125 62.257812 C 73.078125 88.640625 87.085938 104.007812 103.109375 117.214844 Z M 103.109375 117.214844 " fill-opacity="1" fill-rule="nonzero"/></g><g clip-path="url(#32e0f89033)"><path fill="#ffffff" d="M 85.863281 278.726562 L 136.609375 278.726562 C 134.96875 275.980469 133.09375 273.40625 130.988281 270.996094 L 90.421875 270.996094 C 97.457031 260.988281 107.542969 253.136719 117.96875 245.0625 C 137.703125 229.761719 158.117188 213.941406 158.117188 182.089844 C 158.117188 155.707031 144.109375 140.34375 128.085938 127.132812 C 126.28125 128.554688 124.480469 129.960938 122.703125 131.339844 L 121.835938 132.011719 C 129.03125 137.523438 135.34375 143.90625 140.769531 151.164062 L 100.246094 151.164062 C 98.152344 153.578125 96.285156 156.152344 94.648438 158.898438 L 145.363281 158.898438 C 148.273438 165.015625 149.910156 171.457031 150.273438 178.222656 L 88.699219 178.222656 C 88.605469 179.484375 88.539062 180.761719 88.539062 182.089844 C 88.539062 183.417969 88.59375 184.699219 88.679688 185.957031 L 150.226562 185.957031 C 149.867188 192.71875 148.234375 199.164062 145.332031 205.28125 L 94.585938 205.28125 C 96.226562 208.027344 98.101562 210.605469 100.203125 213.011719 L 140.792969 213.011719 C 133.757812 223.019531 123.671875 230.871094 113.246094 238.945312 C 93.492188 254.246094 73.078125 270.066406 73.078125 301.917969 L 80.808594 301.917969 C 80.753906 297.910156 81.15625 293.949219 82.007812 290.035156 C 82.863281 286.117188 84.148438 282.347656 85.863281 278.726562 Z M 85.863281 278.726562 " fill-opacity="1" fill-rule="nonzero"/></g><path fill="#ffffff" d="M 305.007812 127.972656 L 212.234375 127.972656 C 211.726562 127.972656 211.222656 128.023438 210.726562 128.121094 C 210.226562 128.21875 209.746094 128.367188 209.277344 128.5625 C 208.808594 128.753906 208.363281 128.992188 207.9375 129.277344 C 207.515625 129.558594 207.125 129.878906 206.769531 130.238281 C 206.410156 130.597656 206.089844 130.988281 205.804688 131.410156 C 205.523438 131.832031 205.285156 132.277344 205.09375 132.746094 C 204.898438 133.214844 204.75 133.699219 204.652344 134.195312 C 204.554688 134.695312 204.503906 135.195312 204.503906 135.703125 L 204.503906 209.148438 C 204.503906 209.65625 204.554688 210.160156 204.652344 210.65625 C 204.75 211.152344 204.898438 211.636719 205.09375 212.105469 C 205.285156 212.574219 205.523438 213.019531 205.804688 213.441406 C 206.089844 213.863281 206.410156 214.253906 206.769531 214.613281 C 207.125 214.972656 207.515625 215.292969 207.9375 215.574219 C 208.363281 215.859375 208.808594 216.097656 209.277344 216.289062 C 209.746094 216.484375 210.226562 216.632812 210.726562 216.730469 C 211.222656 216.828125 211.726562 216.878906 212.234375 216.878906 L 254.753906 216.878906 L 254.753906 228.476562 L 243.160156 228.476562 L 243.160156 236.207031 L 274.082031 236.207031 L 274.082031 228.476562 L 262.484375 228.476562 L 262.484375 216.878906 L 305.007812 216.878906 C 305.515625 216.878906 306.015625 216.828125 306.515625 216.730469 C 307.011719 216.632812 307.496094 216.484375 307.964844 216.289062 C 308.433594 216.097656 308.878906 215.859375 309.300781 215.574219 C 309.722656 215.292969 310.113281 214.972656 310.472656 214.613281 C 310.832031 214.253906 311.152344 213.863281 311.433594 213.441406 C 311.714844 213.019531 311.953125 212.574219 312.148438 212.105469 C 312.34375 211.636719 312.488281 211.152344 312.589844 210.65625 C 312.6875 210.160156 312.738281 209.65625 312.738281 209.148438 L 312.738281 135.703125 C 312.738281 135.195312 312.6875 134.695312 312.589844 134.195312 C 312.488281 133.699219 312.34375 133.214844 312.148438 132.746094 C 311.953125 132.277344 311.714844 131.832031 311.433594 131.410156 C 311.152344 130.988281 310.832031 130.597656 310.472656 130.238281 C 310.113281 129.878906 309.722656 129.558594 309.300781 129.277344 C 308.878906 128.992188 308.433594 128.753906 307.964844 128.5625 C 307.496094 128.367188 307.011719 128.21875 306.515625 128.121094 C 306.015625 128.023438 305.515625 127.972656 305.007812 127.972656 Z M 305.007812 209.148438 L 212.234375 209.148438 L 212.234375 201.417969 L 305.007812 201.417969 Z M 305.007812 193.6875 L 212.234375 193.6875 L 212.234375 135.703125 L 305.007812 135.703125 Z M 305.007812 193.6875 " fill-opacity="1" fill-rule="nonzero"/><path fill="#ffffff" d="M 177.445312 85.453125 L 185.175781 85.453125 L 185.175781 93.183594 L 177.445312 93.183594 Z M 177.445312 85.453125 " fill-opacity="1" fill-rule="nonzero"/><path fill="#ffffff" d="M 192.90625 85.453125 L 200.636719 85.453125 L 200.636719 93.183594 L 192.90625 93.183594 Z M 192.90625 85.453125 " fill-opacity="1" fill-rule="nonzero"/><path fill="#ffffff" d="M 208.367188 85.453125 L 216.101562 85.453125 L 216.101562 93.183594 L 208.367188 93.183594 Z M 208.367188 85.453125 " fill-opacity="1" fill-rule="nonzero"/><path fill="#ffffff" d="M 223.832031 85.453125 L 231.5625 85.453125 L 231.5625 93.183594 L 223.832031 93.183594 Z M 223.832031 85.453125 " fill-opacity="1" fill-rule="nonzero"/><path fill="#ffffff" d="M 239.292969 85.453125 L 247.023438 85.453125 L 247.023438 93.183594 L 239.292969 93.183594 Z M 239.292969 85.453125 " fill-opacity="1" fill-rule="nonzero"/><path fill="#ffffff" d="M 254.753906 85.453125 L 262.484375 85.453125 L 262.484375 93.183594 L 254.753906 93.183594 Z M 254.753906 85.453125 " fill-opacity="1" fill-rule="nonzero"/><path fill="#ffffff" d="M 254.753906 100.914062 L 262.484375 100.914062 L 262.484375 108.644531 L 254.753906 108.644531 Z M 254.753906 100.914062 " fill-opacity="1" fill-rule="nonzero"/><path fill="#ffffff" d="M 177.445312 270.996094 L 185.175781 270.996094 L 185.175781 278.726562 L 177.445312 278.726562 Z M 177.445312 270.996094 " fill-opacity="1" fill-rule="nonzero"/><path fill="#ffffff" d="M 192.90625 270.996094 L 200.636719 270.996094 L 200.636719 278.726562 L 192.90625 278.726562 Z M 192.90625 270.996094 " fill-opacity="1" fill-rule="nonzero"/><path fill="#ffffff" d="M 208.367188 270.996094 L 216.101562 270.996094 L 216.101562 278.726562 L 208.367188 278.726562 Z M 208.367188 270.996094 " fill-opacity="1" fill-rule="nonzero"/><path fill="#ffffff" d="M 223.832031 270.996094 L 231.5625 270.996094 L 231.5625 278.726562 L 223.832031 278.726562 Z M 223.832031 270.996094 " fill-opacity="1" fill-rule="nonzero"/><path fill="#ffffff" d="M 239.292969 270.996094 L 247.023438 270.996094 L 247.023438 278.726562 L 239.292969 278.726562 Z M 239.292969 270.996094 " fill-opacity="1" fill-rule="nonzero"/><path fill="#ffffff" d="M 254.753906 270.996094 L 262.484375 270.996094 L 262.484375 278.726562 L 254.753906 278.726562 Z M 254.753906 270.996094 " fill-opacity="1" fill-rule="nonzero"/><path fill="#ffffff" d="M 254.753906 255.535156 L 262.484375 255.535156 L 262.484375 263.265625 L 254.753906 263.265625 Z M 254.753906 255.535156 " fill-opacity="1" fill-rule="nonzero"/><path fill="#ffffff" d="M 169.714844 178.222656 L 177.445312 178.222656 L 177.445312 185.957031 L 169.714844 185.957031 Z M 169.714844 178.222656 " fill-opacity="1" fill-rule="nonzero"/><path fill="#ffffff" d="M 185.175781 178.222656 L 192.90625 178.222656 L 192.90625 185.957031 L 185.175781 185.957031 Z M 185.175781 178.222656 " fill-opacity="1" fill-rule="nonzero"/><path fill="#ffffff" d="M 231.5625 175.324219 L 239.292969 175.324219 L 239.292969 185.957031 L 231.5625 185.957031 Z M 231.5625 175.324219 " fill-opacity="1" fill-rule="nonzero"/><path fill="#ffffff" d="M 247.023438 164.695312 L 254.753906 164.695312 L 254.753906 185.957031 L 247.023438 185.957031 Z M 247.023438 164.695312 " fill-opacity="1" fill-rule="nonzero"/><path fill="#ffffff" d="M 262.484375 154.066406 L 270.214844 154.066406 L 270.214844 185.957031 L 262.484375 185.957031 Z M 262.484375 154.066406 " fill-opacity="1" fill-rule="nonzero"/><path fill="#ffffff" d="M 277.949219 143.433594 L 285.679688 143.433594 L 285.679688 185.957031 L 277.949219 185.957031 Z M 277.949219 143.433594 " fill-opacity="1" fill-rule="nonzero"/></svg>