<svg xmlns="http://www.w3.org/2000/svg" xmlns:xlink="http://www.w3.org/1999/xlink" width="500" zoomAndPan="magnify" viewBox="0 0 375 374.999991" height="500" preserveAspectRatio="xMidYMid meet" version="1.0"><defs><clipPath id="d76f01522c"><path d="M 187.5 0 C 83.945312 0 0 83.945312 0 187.5 C 0 291.054688 83.945312 375 187.5 375 C 291.054688 375 375 291.054688 375 187.5 C 375 83.945312 291.054688 0 187.5 0 Z M 187.5 0 " clip-rule="nonzero"/></clipPath><clipPath id="70aa0f5bde"><path d="M 88.410156 84.394531 L 286.410156 84.394531 L 286.410156 322.4375 L 88.410156 322.4375 Z M 88.410156 84.394531 " clip-rule="nonzero"/></clipPath><clipPath id="78d2ac94ba"><path d="M 120 52.457031 L 252 52.457031 L 252 111 L 120 111 Z M 120 52.457031 " clip-rule="nonzero"/></clipPath></defs><g clip-path="url(#d76f01522c)"><rect x="-37.5" width="450" fill="#58a39d" y="-37.499999" height="449.999989" fill-opacity="1"/></g><g clip-path="url(#70aa0f5bde)"><path fill="#ffffff" d="M 100.917969 90.1875 C 97.203125 90.1875 94.183594 93.210938 94.183594 96.921875 L 94.183594 309.933594 C 94.183594 313.644531 97.203125 316.667969 100.917969 316.667969 L 274.082031 316.667969 C 277.792969 316.667969 280.816406 313.644531 280.816406 309.933594 L 280.816406 96.921875 C 280.816406 93.210938 277.792969 90.1875 274.082031 90.1875 L 251.839844 90.1875 L 251.839844 99.675781 C 251.839844 105.371094 247.203125 110.003906 241.507812 110.003906 L 131.03125 110.003906 C 125.332031 110.003906 120.695312 105.371094 120.695312 99.671875 L 120.695312 90.1875 Z M 274.082031 322.4375 L 100.917969 322.4375 C 94.023438 322.4375 88.410156 316.828125 88.410156 309.933594 L 88.410156 96.921875 C 88.410156 90.027344 94.023438 84.414062 100.917969 84.414062 L 126.46875 84.414062 L 126.46875 99.671875 C 126.46875 102.1875 128.515625 104.234375 131.03125 104.234375 L 241.507812 104.234375 C 244.023438 104.234375 246.066406 102.1875 246.066406 99.675781 L 246.066406 84.414062 L 274.082031 84.414062 C 280.976562 84.414062 286.589844 90.027344 286.589844 96.921875 L 286.589844 309.933594 C 286.589844 316.828125 280.976562 322.4375 274.082031 322.4375 " fill-opacity="1" fill-rule="nonzero"/></g><g clip-path="url(#78d2ac94ba)"><path fill="#ffffff" d="M 131.027344 75.371094 C 128.515625 75.371094 126.46875 77.417969 126.46875 79.933594 L 126.46875 99.675781 C 126.46875 102.1875 128.515625 104.230469 131.027344 104.230469 L 241.507812 104.230469 C 244.023438 104.230469 246.066406 102.1875 246.066406 99.671875 L 246.066406 79.933594 C 246.066406 77.417969 244.023438 75.371094 241.507812 75.371094 L 216.617188 75.371094 C 212.003906 75.371094 207.796875 72.671875 205.636719 68.324219 C 202.621094 62.25 195.566406 58.324219 187.671875 58.324219 C 179.777344 58.324219 172.726562 62.25 169.707031 68.324219 C 167.546875 72.671875 163.34375 75.371094 158.730469 75.371094 Z M 241.507812 110.003906 L 131.027344 110.003906 C 125.332031 110.003906 120.695312 105.371094 120.695312 99.675781 L 120.695312 79.933594 C 120.695312 74.234375 125.332031 69.601562 131.027344 69.601562 L 158.730469 69.601562 C 161.136719 69.601562 163.363281 68.125 164.539062 65.757812 C 168.523438 57.734375 177.605469 52.554688 187.671875 52.554688 C 197.742188 52.554688 206.824219 57.734375 210.808594 65.757812 C 211.984375 68.125 214.210938 69.601562 216.617188 69.601562 L 241.507812 69.601562 C 247.207031 69.601562 251.839844 74.234375 251.839844 79.933594 L 251.839844 99.671875 C 251.839844 105.371094 247.207031 110.003906 241.507812 110.003906 " fill-opacity="1" fill-rule="nonzero"/></g><path fill="#ffffff" d="M 192.347656 84.261719 C 192.347656 86.941406 190.175781 89.109375 187.5 89.109375 C 184.820312 89.109375 182.652344 86.941406 182.652344 84.261719 C 182.652344 81.585938 184.820312 79.414062 187.5 79.414062 C 190.175781 79.414062 192.347656 81.585938 192.347656 84.261719 " fill-opacity="1" fill-rule="nonzero"/><path fill="#ffffff" d="M 248.683594 157.234375 L 198.117188 157.234375 C 195.460938 157.234375 193.308594 155.082031 193.308594 152.421875 C 193.308594 149.765625 195.460938 147.613281 198.117188 147.613281 L 248.683594 147.613281 C 251.339844 147.613281 253.492188 149.765625 253.492188 152.421875 C 253.492188 155.082031 251.339844 157.234375 248.683594 157.234375 " fill-opacity="1" fill-rule="nonzero"/><path fill="#ffffff" d="M 248.683594 209.25 L 198.117188 209.25 C 195.460938 209.25 193.308594 207.09375 193.308594 204.4375 C 193.308594 201.78125 195.460938 199.628906 198.117188 199.628906 L 248.683594 199.628906 C 251.339844 199.628906 253.492188 201.78125 253.492188 204.4375 C 253.492188 207.09375 251.339844 209.25 248.683594 209.25 " fill-opacity="1" fill-rule="nonzero"/><path fill="#ffffff" d="M 135.910156 158.222656 C 136.871094 159.664062 137.90625 161.027344 138.992188 162.34375 C 140.074219 163.664062 141.292969 164.847656 142.574219 165.964844 L 143.136719 166.453125 L 143.375 166.648438 C 145.242188 168.042969 147.882812 167.65625 149.277344 165.792969 C 151.175781 163.25 152.875 160.535156 154.832031 158.050781 C 156.742188 155.519531 158.691406 153.027344 160.546875 150.449219 C 162.433594 147.902344 164.277344 145.3125 166.105469 142.707031 C 167.941406 140.117188 169.785156 137.527344 171.554688 134.871094 C 171.664062 134.707031 171.65625 134.484375 171.523438 134.328125 C 171.363281 134.132812 171.074219 134.101562 170.882812 134.265625 C 168.421875 136.296875 166.035156 138.394531 163.644531 140.488281 C 161.238281 142.574219 158.855469 144.671875 156.515625 146.8125 C 154.140625 148.921875 151.859375 151.117188 149.542969 153.273438 C 148.433594 154.351562 147.261719 155.367188 146.085938 156.378906 C 145.882812 156.203125 145.699219 156.011719 145.492188 155.84375 C 144.175781 154.757812 142.8125 153.722656 141.371094 152.761719 C 139.933594 151.800781 138.445312 150.886719 136.847656 150.085938 C 135.273438 149.257812 133.601562 148.527344 131.757812 147.96875 C 131.664062 147.941406 131.5625 147.9375 131.460938 147.96875 C 131.1875 148.050781 131.035156 148.339844 131.117188 148.609375 C 131.675781 150.453125 132.40625 152.121094 133.234375 153.695312 C 134.035156 155.296875 134.949219 156.785156 135.910156 158.222656 " fill-opacity="1" fill-rule="nonzero"/><path fill="#ffffff" d="M 170.882812 186.277344 C 168.421875 188.3125 166.035156 190.410156 163.644531 192.503906 C 161.238281 194.585938 158.855469 196.6875 156.515625 198.828125 C 154.140625 200.9375 151.859375 203.128906 149.542969 205.289062 C 148.433594 206.363281 147.261719 207.382812 146.085938 208.394531 C 145.882812 208.21875 145.699219 208.027344 145.492188 207.855469 C 144.175781 206.769531 142.8125 205.734375 141.371094 204.773438 C 139.933594 203.8125 138.445312 202.898438 136.847656 202.097656 C 135.273438 201.273438 133.601562 200.542969 131.757812 199.984375 C 131.664062 199.953125 131.5625 199.953125 131.460938 199.984375 C 131.191406 200.066406 131.035156 200.351562 131.117188 200.621094 C 131.675781 202.464844 132.40625 204.136719 133.234375 205.710938 C 134.035156 207.308594 134.949219 208.796875 135.910156 210.238281 C 136.871094 211.675781 137.90625 213.042969 138.992188 214.355469 C 140.074219 215.679688 141.292969 216.859375 142.574219 217.976562 L 143.136719 218.46875 L 143.375 218.660156 C 145.242188 220.054688 147.882812 219.671875 149.277344 217.804688 C 151.175781 215.265625 152.875 212.546875 154.832031 210.0625 C 156.742188 207.535156 158.691406 205.042969 160.546875 202.464844 C 162.433594 199.914062 164.277344 197.328125 166.105469 194.722656 C 167.941406 192.128906 169.785156 189.539062 171.554688 186.882812 C 171.664062 186.722656 171.65625 186.5 171.523438 186.339844 C 171.363281 186.144531 171.074219 186.117188 170.882812 186.277344 " fill-opacity="1" fill-rule="nonzero"/><path fill="#ffffff" d="M 170.882812 238.292969 C 168.421875 240.324219 166.035156 242.421875 163.644531 244.519531 C 161.238281 246.601562 158.855469 248.703125 156.515625 250.839844 C 154.140625 252.949219 151.859375 255.144531 149.542969 257.304688 C 148.433594 258.378906 147.261719 259.394531 146.085938 260.40625 C 145.882812 260.230469 145.699219 260.039062 145.492188 259.871094 C 144.175781 258.785156 142.8125 257.75 141.371094 256.789062 C 139.933594 255.828125 138.445312 254.914062 136.847656 254.113281 C 135.273438 253.285156 133.601562 252.554688 131.757812 251.996094 C 131.664062 251.96875 131.5625 251.964844 131.460938 251.996094 C 131.191406 252.078125 131.035156 252.367188 131.117188 252.636719 C 131.675781 254.480469 132.40625 256.148438 133.234375 257.726562 C 134.035156 259.324219 134.949219 260.8125 135.910156 262.25 C 136.871094 263.691406 137.90625 265.054688 138.992188 266.371094 C 140.074219 267.691406 141.292969 268.875 142.574219 269.992188 L 143.136719 270.480469 L 143.375 270.675781 C 145.242188 272.070312 147.882812 271.6875 149.277344 269.820312 C 151.175781 267.28125 152.875 264.5625 154.832031 262.078125 C 156.742188 259.550781 158.691406 257.054688 160.546875 254.476562 C 162.433594 251.929688 164.277344 249.34375 166.105469 246.738281 C 167.941406 244.144531 169.785156 241.554688 171.554688 238.898438 C 171.664062 238.734375 171.65625 238.511719 171.523438 238.355469 C 171.363281 238.160156 171.074219 238.132812 170.882812 238.292969 " fill-opacity="1" fill-rule="nonzero"/><path fill="#ffffff" d="M 248.683594 261.261719 L 198.117188 261.261719 C 195.460938 261.261719 193.308594 259.109375 193.308594 256.453125 C 193.308594 253.796875 195.460938 251.640625 198.117188 251.640625 L 248.683594 251.640625 C 251.339844 251.640625 253.492188 253.796875 253.492188 256.453125 C 253.492188 259.109375 251.339844 261.261719 248.683594 261.261719 " fill-opacity="1" fill-rule="nonzero"/></svg>