<svg xmlns="http://www.w3.org/2000/svg" xmlns:xlink="http://www.w3.org/1999/xlink" width="500" zoomAndPan="magnify" viewBox="0 0 375 374.999991" height="500" preserveAspectRatio="xMidYMid meet" version="1.0"><defs><clipPath id="fb7381a26b"><path d="M 187.5 0 C 83.945312 0 0 83.945312 0 187.5 C 0 291.054688 83.945312 375 187.5 375 C 291.054688 375 375 291.054688 375 187.5 C 375 83.945312 291.054688 0 187.5 0 Z M 187.5 0 " clip-rule="nonzero"/></clipPath><clipPath id="48997b84a8"><path d="M 172.5 110.738281 L 337.5 110.738281 L 337.5 235.238281 L 172.5 235.238281 Z M 172.5 110.738281 " clip-rule="nonzero"/></clipPath><clipPath id="1d818f66fc"><path d="M 97 93.75 L 142 93.75 L 142 156 L 97 156 Z M 97 93.75 " clip-rule="nonzero"/></clipPath><clipPath id="f82cf09619"><path d="M 39.75 240 L 172 240 L 172 281.25 L 39.75 281.25 Z M 39.75 240 " clip-rule="nonzero"/></clipPath></defs><g clip-path="url(#fb7381a26b)"><rect x="-37.5" width="450" fill="#a2c36e" y="-37.499999" height="449.999989" fill-opacity="1"/></g><g clip-path="url(#48997b84a8)"><path fill="#ffffff" d="M 324.875 110.726562 L 185.125 110.726562 C 178.238281 110.726562 172.636719 116.332031 172.636719 123.21875 L 172.636719 222.800781 C 172.636719 229.6875 178.238281 235.289062 185.125 235.289062 L 324.871094 235.289062 C 331.757812 235.289062 337.359375 229.6875 337.359375 222.800781 L 337.359375 123.21875 C 337.363281 116.332031 331.761719 110.726562 324.875 110.726562 Z M 333.261719 222.800781 C 333.261719 227.425781 329.5 231.1875 324.875 231.1875 L 185.125 231.1875 C 180.5 231.1875 176.738281 227.425781 176.738281 222.800781 L 176.738281 123.21875 C 176.738281 118.59375 180.5 114.832031 185.125 114.832031 L 324.871094 114.832031 C 329.496094 114.832031 333.257812 118.59375 333.257812 123.21875 L 333.257812 222.800781 Z M 201.738281 203.09375 L 190.460938 203.09375 C 189.328125 203.09375 188.410156 204.011719 188.410156 205.144531 L 188.410156 220.765625 C 188.410156 221.894531 189.328125 222.816406 190.460938 222.816406 L 201.738281 222.816406 C 202.867188 222.816406 203.789062 221.894531 203.789062 220.765625 L 203.789062 205.144531 C 203.789062 204.007812 202.867188 203.09375 201.738281 203.09375 Z M 199.6875 218.714844 L 192.511719 218.714844 L 192.511719 207.195312 L 199.6875 207.195312 Z M 222.125 189.574219 L 210.847656 189.574219 C 209.71875 189.574219 208.796875 190.496094 208.796875 191.625 L 208.796875 220.761719 C 208.796875 221.894531 209.71875 222.8125 210.847656 222.8125 L 222.125 222.8125 C 223.257812 222.8125 224.175781 221.894531 224.175781 220.761719 L 224.175781 191.625 C 224.175781 190.496094 223.261719 189.574219 222.125 189.574219 Z M 220.074219 218.714844 L 212.898438 218.714844 L 212.898438 193.679688 L 220.074219 193.679688 Z M 242.519531 197.527344 L 231.242188 197.527344 C 230.109375 197.527344 229.191406 198.449219 229.191406 199.578125 L 229.191406 220.761719 C 229.191406 221.894531 230.109375 222.8125 231.242188 222.8125 L 242.519531 222.8125 C 243.648438 222.8125 244.570312 221.894531 244.570312 220.761719 L 244.570312 199.578125 C 244.570312 198.449219 243.648438 197.527344 242.519531 197.527344 Z M 240.46875 218.714844 L 233.292969 218.714844 L 233.292969 201.632812 L 240.46875 201.632812 Z M 262.910156 172.949219 L 251.632812 172.949219 C 250.503906 172.949219 249.582031 173.867188 249.582031 175 L 249.582031 220.765625 C 249.582031 221.894531 250.503906 222.816406 251.632812 222.816406 L 262.910156 222.816406 C 264.042969 222.816406 264.960938 221.894531 264.960938 220.765625 L 264.960938 175 C 264.960938 173.867188 264.042969 172.949219 262.910156 172.949219 Z M 260.859375 218.714844 L 253.683594 218.714844 L 253.683594 177.050781 L 260.859375 177.050781 Z M 208.664062 130.210938 C 208.664062 129.078125 209.582031 128.160156 210.714844 128.160156 L 252.5 128.160156 C 253.628906 128.160156 254.550781 129.078125 254.550781 130.210938 C 254.550781 131.339844 253.628906 132.261719 252.5 132.261719 L 210.714844 132.261719 C 209.582031 132.261719 208.664062 131.339844 208.664062 130.210938 Z M 208.664062 140.878906 C 208.664062 139.746094 209.582031 138.828125 210.714844 138.828125 L 240.738281 138.828125 C 241.871094 138.828125 242.789062 139.746094 242.789062 140.878906 C 242.789062 142.011719 241.871094 142.929688 240.738281 142.929688 L 210.714844 142.929688 C 209.582031 142.929688 208.664062 142.015625 208.664062 140.878906 Z M 195.351562 143.628906 C 199.808594 143.628906 203.4375 140.003906 203.4375 135.542969 C 203.4375 131.085938 199.808594 127.457031 195.351562 127.457031 C 190.890625 127.457031 187.265625 131.085938 187.265625 135.542969 C 187.265625 140.003906 190.890625 143.628906 195.351562 143.628906 Z M 195.351562 131.558594 C 197.546875 131.558594 199.335938 133.347656 199.335938 135.542969 C 199.335938 137.742188 197.546875 139.527344 195.351562 139.527344 C 193.152344 139.527344 191.363281 137.742188 191.363281 135.542969 C 191.363281 133.347656 193.152344 131.558594 195.351562 131.558594 Z M 208.664062 151.082031 C 208.664062 149.949219 209.582031 149.03125 210.714844 149.03125 L 252.5 149.03125 C 253.628906 149.03125 254.550781 149.949219 254.550781 151.082031 C 254.550781 152.210938 253.628906 153.132812 252.5 153.132812 L 210.714844 153.132812 C 209.582031 153.132812 208.664062 152.214844 208.664062 151.082031 Z M 208.664062 161.753906 C 208.664062 160.621094 209.582031 159.703125 210.714844 159.703125 L 240.738281 159.703125 C 241.871094 159.703125 242.789062 160.621094 242.789062 161.753906 C 242.789062 162.886719 241.871094 163.804688 240.738281 163.804688 L 210.714844 163.804688 C 209.582031 163.804688 208.664062 162.886719 208.664062 161.753906 Z M 195.351562 164.503906 C 199.808594 164.503906 203.4375 160.878906 203.4375 156.417969 C 203.4375 151.957031 199.808594 148.332031 195.351562 148.332031 C 190.890625 148.332031 187.265625 151.957031 187.265625 156.417969 C 187.265625 160.878906 190.890625 164.503906 195.351562 164.503906 Z M 195.351562 152.433594 C 197.546875 152.433594 199.335938 154.222656 199.335938 156.417969 C 199.335938 158.617188 197.546875 160.402344 195.351562 160.402344 C 193.152344 160.402344 191.363281 158.617188 191.363281 156.417969 C 191.363281 154.222656 193.152344 152.433594 195.351562 152.433594 Z M 293.296875 176.066406 C 306.273438 176.066406 316.828125 165.507812 316.828125 152.527344 C 316.828125 151.394531 315.90625 150.480469 314.777344 150.480469 C 314.734375 150.480469 314.695312 150.480469 314.652344 150.484375 L 295.347656 150.484375 L 295.347656 131.226562 C 295.351562 131.167969 295.355469 131.113281 295.355469 131.050781 C 295.355469 129.917969 294.433594 129 293.304688 129 L 293.296875 129 C 280.320312 129 269.765625 139.554688 269.765625 152.53125 C 269.765625 165.507812 280.320312 176.066406 293.296875 176.066406 Z M 291.246094 133.214844 L 291.246094 152.535156 C 291.246094 153.667969 292.167969 154.585938 293.296875 154.585938 L 312.621094 154.585938 C 311.589844 164.339844 303.316406 171.964844 293.296875 171.964844 C 282.582031 171.964844 273.867188 163.25 273.867188 152.535156 C 273.867188 142.511719 281.492188 134.238281 291.246094 133.214844 Z M 301.171875 121.136719 C 301.171875 121.136719 301.164062 121.136719 301.164062 121.136719 C 300.035156 121.136719 299.113281 122.054688 299.113281 123.1875 L 299.113281 144.664062 C 299.113281 145.796875 300.035156 146.714844 301.164062 146.714844 L 322.644531 146.714844 C 323.1875 146.714844 323.710938 146.496094 324.09375 146.113281 C 324.480469 145.726562 324.695312 145.203125 324.695312 144.660156 C 324.691406 131.691406 314.136719 121.144531 301.171875 121.136719 Z M 303.214844 142.617188 L 303.214844 125.347656 C 312.292969 126.304688 319.527344 133.539062 320.488281 142.617188 Z M 322.542969 182.835938 C 322.542969 183.96875 321.621094 184.886719 320.492188 184.886719 L 278.105469 184.886719 C 276.976562 184.886719 276.054688 183.96875 276.054688 182.835938 C 276.054688 181.707031 276.976562 180.785156 278.105469 180.785156 L 320.492188 180.785156 C 321.621094 180.785156 322.542969 181.707031 322.542969 182.835938 Z M 322.542969 194.296875 C 322.542969 195.425781 321.621094 196.347656 320.492188 196.347656 L 278.105469 196.347656 C 276.976562 196.347656 276.054688 195.425781 276.054688 194.296875 C 276.054688 193.164062 276.976562 192.246094 278.105469 192.246094 L 320.492188 192.246094 C 321.621094 192.246094 322.542969 193.160156 322.542969 194.296875 Z M 322.542969 205.75 C 322.542969 206.882812 321.621094 207.800781 320.492188 207.800781 L 278.105469 207.800781 C 276.976562 207.800781 276.054688 206.882812 276.054688 205.75 C 276.054688 204.621094 276.976562 203.699219 278.105469 203.699219 L 320.492188 203.699219 C 321.621094 203.699219 322.542969 204.621094 322.542969 205.75 Z M 322.542969 217.210938 C 322.542969 218.339844 321.621094 219.261719 320.492188 219.261719 L 278.105469 219.261719 C 276.976562 219.261719 276.054688 218.339844 276.054688 217.210938 C 276.054688 216.078125 276.976562 215.160156 278.105469 215.160156 L 320.492188 215.160156 C 321.621094 215.160156 322.542969 216.074219 322.542969 217.210938 Z M 322.542969 217.210938 " fill-opacity="1" fill-rule="nonzero"/></g><path fill="#ffffff" d="M 124.578125 197.863281 L 114.96875 196.96875 C 114.058594 196.808594 113.351562 196.101562 113.1875 195.191406 C 110.828125 181.871094 113.160156 170.902344 120.132812 162.59375 C 133.75 146.347656 160.621094 146.160156 161.757812 146.160156 C 162.964844 146.160156 163.988281 147.132812 164 148.339844 C 164.128906 164.546875 156.539062 197.863281 124.578125 197.863281 Z M 117.261719 192.898438 C 147.113281 197.378906 158.195312 173.871094 159.53125 150.625 C 138.078125 151.804688 112.605469 161.894531 117.261719 192.898438 Z M 117.261719 192.898438 " fill-opacity="1" fill-rule="evenodd"/><path fill="#ffffff" d="M 103.941406 249.457031 C 101.804688 249.457031 101.746094 247.527344 101.746094 246.175781 L 101.746094 219.980469 C 100.71875 207.433594 113.210938 193.886719 113.746094 193.3125 L 129.183594 177.738281 C 131.21875 175.683594 134.335938 178.777344 132.300781 180.828125 L 116.90625 196.355469 C 116.835938 196.429688 105.195312 209.070312 106.125 219.695312 L 106.132812 247.261719 C 106.132812 248.472656 105.152344 249.457031 103.941406 249.457031 Z M 103.941406 249.457031 " fill-opacity="1" fill-rule="evenodd"/><path fill="#ffffff" d="M 86.851562 207.542969 C 54.886719 207.542969 47.300781 174.234375 47.425781 158.023438 C 47.433594 156.820312 48.417969 155.84375 49.605469 155.84375 C 50.824219 155.84375 77.679688 156.035156 91.292969 172.277344 C 98.261719 180.585938 100.59375 191.554688 98.234375 204.875 C 98.074219 205.785156 97.363281 206.492188 96.453125 206.652344 C 93.117188 207.242188 89.886719 207.542969 86.851562 207.542969 Z M 51.890625 160.308594 C 53.132812 181.929688 63.230469 207.226562 94.160156 202.582031 C 98.816406 171.566406 73.328125 161.488281 51.890625 160.308594 Z M 51.890625 160.308594 " fill-opacity="1" fill-rule="evenodd"/><path fill="#ffffff" d="M 103.882812 220.714844 C 103.128906 220.714844 102.390625 220.320312 101.984375 219.621094 L 94.089844 206.070312 L 78.4375 190.417969 C 76.394531 188.371094 79.5 185.265625 81.539062 187.3125 L 97.738281 203.617188 L 105.777344 217.414062 C 106.636719 218.894531 105.546875 220.714844 103.882812 220.714844 Z M 103.882812 220.714844 " fill-opacity="1" fill-rule="evenodd"/><g clip-path="url(#1d818f66fc)"><path fill="#ffffff" d="M 103.878906 155.265625 C 103.035156 155.265625 102.253906 154.777344 101.894531 154 C 96.144531 141.699219 95.578125 130.460938 100.214844 120.605469 C 109.320312 101.234375 135.085938 94.335938 136.179688 94.054688 C 137.335938 93.753906 138.527344 94.4375 138.847656 95.59375 C 139.148438 96.683594 146.054688 122.441406 133.835938 140.015625 C 127.613281 148.960938 117.601562 154.089844 104.070312 155.261719 C 104.007812 155.265625 103.945312 155.269531 103.882812 155.269531 Z M 135.121094 98.964844 C 114.695312 105.722656 92.707031 121.980469 105.234375 150.730469 C 136.3125 147.210938 139.46875 119.96875 135.121094 98.964844 Z M 135.121094 98.964844 " fill-opacity="1" fill-rule="evenodd"/></g><path fill="#ffffff" d="M 103.878906 220.714844 C 100.882812 220.714844 101.597656 216.191406 101.367188 210.964844 C 100.570312 192.863281 99.234375 162.566406 101.757812 152.535156 C 101.789062 152.410156 105.097656 139.703125 109.820312 136.4375 C 112.195312 134.792969 114.691406 138.40625 112.316406 140.046875 C 110.148438 141.542969 107.183594 148.953125 106.011719 153.605469 C 103.3125 164.34375 105.4375 200.953125 106.070312 218.4375 C 106.117188 219.675781 105.121094 220.714844 103.878906 220.714844 Z M 103.878906 220.714844 " fill-opacity="1" fill-rule="evenodd"/><g clip-path="url(#f82cf09619)"><path fill="#ffffff" d="M 168.78125 281.246094 L 42.101562 281.246094 C 40.792969 281.246094 39.777344 280.105469 39.917969 278.808594 C 41.070312 268.445312 50.273438 260.953125 60.734375 261.910156 C 68.285156 248.570312 84.050781 242.535156 98.472656 247.136719 C 113.980469 235.09375 136.53125 239.730469 146.164062 256.714844 C 160.484375 251.773438 174.730469 264.839844 170.90625 279.601562 C 170.65625 280.570312 169.78125 281.246094 168.78125 281.246094 Z M 44.761719 276.855469 L 166.980469 276.855469 C 168.625 265.234375 156.617188 256.496094 146.085938 261.480469 C 144.996094 261.996094 143.695312 261.539062 143.171875 260.453125 C 135.347656 244.273438 114.203125 239.609375 100.324219 251.28125 C 98.398438 252.898438 96.550781 250.007812 88.695312 250.007812 C 78.15625 250.007812 68.660156 255.859375 63.910156 265.277344 C 62.960938 267.152344 61.148438 266.214844 58.925781 266.214844 C 52.25 266.214844 46.539062 270.644531 44.761719 276.859375 Z M 44.761719 276.855469 " fill-opacity="1" fill-rule="evenodd"/></g></svg>