<svg xmlns="http://www.w3.org/2000/svg" xmlns:xlink="http://www.w3.org/1999/xlink" width="500" zoomAndPan="magnify" viewBox="0 0 375 374.999991" height="500" preserveAspectRatio="xMidYMid meet" version="1.0"><defs><clipPath id="5b9459b9e7"><path d="M 187.5 0 C 83.945312 0 0 83.945312 0 187.5 C 0 291.054688 83.945312 375 187.5 375 C 291.054688 375 375 291.054688 375 187.5 C 375 83.945312 291.054688 0 187.5 0 Z M 187.5 0 " clip-rule="nonzero"/></clipPath><clipPath id="12a30568ca"><path d="M 43 86 L 337 86 L 337 294 L 43 294 Z M 43 86 " clip-rule="nonzero"/></clipPath><clipPath id="b24b2d9e6e"><path d="M 128.5625 374.992188 L 4.492188 128.453125 L 244.332031 7.75 L 368.402344 254.289062 Z M 128.5625 374.992188 " clip-rule="nonzero"/></clipPath><clipPath id="62d2e346ab"><path d="M 128.5625 374.992188 L 4.492188 128.453125 L 244.332031 7.75 L 368.402344 254.289062 Z M 128.5625 374.992188 " clip-rule="nonzero"/></clipPath></defs><g clip-path="url(#5b9459b9e7)"><rect x="-37.5" width="450" fill="#fec743" y="-37.499999" height="449.999989" fill-opacity="1"/></g><g clip-path="url(#12a30568ca)"><g clip-path="url(#b24b2d9e6e)"><g clip-path="url(#62d2e346ab)"><path fill="#ffffff" d="M 47.71875 142.632812 C 33.480469 185.722656 56.953125 232.363281 100.042969 246.601562 L 228.089844 288.878906 C 271.179688 303.117188 317.820312 279.644531 332.0625 236.554688 C 339.179688 215.011719 336.875 192.589844 327.40625 173.773438 C 317.9375 154.957031 301.300781 139.746094 279.757812 132.625 L 151.6875 90.308594 C 108.597656 76.070312 61.957031 99.539062 47.71875 142.632812 Z M 148.84375 98.8125 L 276.914062 141.132812 C 315.308594 153.820312 336.222656 195.375 323.535156 233.773438 C 310.847656 272.167969 269.292969 293.082031 230.894531 280.394531 L 102.828125 238.074219 C 83.628906 231.730469 68.820312 218.160156 60.378906 201.386719 C 51.9375 184.613281 49.859375 164.632812 56.203125 145.433594 C 68.890625 107.039062 110.449219 86.125 148.84375 98.8125 Z M 68.632812 145.703125 C 59.96875 167.574219 64.324219 192.074219 80.003906 209.574219 C 82.273438 212.09375 85.644531 213.207031 88.992188 212.476562 C 92.394531 211.765625 95.15625 209.273438 96.269531 206.003906 L 106.929688 173.746094 C 107.960938 170.617188 111.164062 168.601562 114.03125 169.316406 C 115.796875 169.734375 117.183594 170.792969 117.96875 172.453125 C 118.632812 173.773438 118.796875 175.398438 118.300781 176.902344 L 105.277344 216.320312 C 103.605469 221.375 106.367188 226.863281 111.421875 228.53125 L 180.390625 251.324219 C 182.855469 252.136719 185.460938 251.929688 187.785156 250.761719 C 190.105469 249.59375 191.824219 247.625 192.640625 245.15625 L 205.488281 206.277344 C 206.519531 203.148438 209.722656 201.136719 212.589844 201.851562 C 214.355469 202.265625 215.660156 203.464844 216.527344 204.988281 C 217.152344 206.230469 217.355469 207.933594 216.859375 209.4375 L 203.835938 248.855469 C 202.203125 253.789062 205.0625 259.476562 209.980469 261.066406 L 232.988281 268.703125 C 264.824219 279.222656 299.101562 263.78125 311.085938 233.5625 C 317.699219 216.890625 316.730469 198.714844 308.953125 183.261719 C 306.535156 178.457031 303.433594 173.894531 299.714844 169.695312 C 297.445312 167.175781 294.074219 166.0625 290.730469 166.792969 C 287.324219 167.503906 284.5625 169.996094 283.449219 173.265625 L 270.980469 211 C 270.484375 212.503906 269.464844 213.667969 267.984375 214.414062 C 266.421875 215.199219 264.699219 215.265625 263.035156 214.546875 C 260.285156 213.371094 258.933594 209.886719 259.964844 206.757812 L 274.425781 163.007812 C 276.09375 157.949219 273.335938 152.464844 268.277344 150.796875 L 199.308594 128.003906 C 196.84375 127.191406 194.238281 127.398438 191.914062 128.566406 C 189.59375 129.734375 187.875 131.703125 187.058594 134.171875 L 174.035156 173.589844 C 173.535156 175.09375 172.515625 176.261719 171.035156 177.003906 C 169.515625 177.769531 167.75 177.855469 166.085938 177.136719 C 163.335938 175.964844 161.984375 172.480469 163.019531 169.347656 L 175.867188 130.472656 C 177.457031 125.558594 174.59375 119.871094 169.71875 118.261719 L 146.710938 110.625 C 114.875 100.105469 80.601562 115.546875 68.613281 145.765625 Z M 143.925781 119.050781 L 166.976562 126.667969 C 167.277344 126.765625 167.519531 127.246094 167.417969 127.546875 L 154.574219 166.425781 C 152.066406 174.007812 155.578125 182.277344 162.621094 185.304688 C 166.710938 187.058594 171.300781 186.90625 175.125 184.933594 C 178.707031 183.179688 181.347656 180.144531 182.640625 176.332031 L 195.664062 136.914062 C 195.765625 136.613281 196.246094 136.371094 196.546875 136.472656 L 265.515625 159.261719 C 265.875 159.378906 266.078125 159.78125 265.957031 160.140625 L 251.5 203.894531 C 248.996094 211.476562 252.503906 219.746094 259.546875 222.773438 C 263.640625 224.527344 268.230469 224.375 272.054688 222.402344 C 275.636719 220.648438 278.273438 217.613281 279.566406 213.804688 L 292.035156 176.070312 C 292.15625 175.707031 292.496094 175.585938 292.636719 175.566406 C 292.957031 175.503906 293.078125 175.644531 293.097656 175.683594 C 306.503906 190.664062 310.25 211.558594 302.800781 230.257812 C 292.566406 256.082031 263.15625 269.226562 235.832031 260.199219 L 212.785156 252.582031 C 212.785156 252.582031 212.480469 252.382812 212.402344 252.222656 C 212.320312 252.0625 212.261719 251.839844 212.339844 251.699219 L 225.367188 212.28125 C 226.617188 208.488281 226.226562 204.421875 224.515625 201.019531 C 222.679688 197.175781 218.984375 194.21875 214.652344 193.1875 C 207.230469 191.402344 199.445312 195.972656 196.941406 203.554688 L 184.09375 242.433594 C 183.996094 242.734375 183.515625 242.976562 183.214844 242.875 L 114.246094 220.085938 C 113.882812 219.96875 113.683594 219.566406 113.800781 219.207031 L 126.828125 179.785156 C 128.082031 175.996094 127.667969 171.886719 125.976562 168.523438 C 123.941406 164.480469 120.445312 161.722656 116.113281 160.691406 C 108.695312 158.90625 100.910156 163.476562 98.402344 171.0625 L 87.742188 203.320312 C 87.625 203.679688 87.285156 203.800781 87.144531 203.820312 C 86.824219 203.882812 86.703125 203.742188 86.683594 203.703125 C 73.273438 188.726562 69.53125 167.828125 76.980469 149.128906 C 87.214844 123.308594 116.625 110.160156 143.945312 119.191406 Z M 150.554688 209.390625 C 149.660156 212.097656 146.738281 213.566406 143.988281 212.691406 C 141.242188 211.820312 139.8125 208.875 140.6875 206.128906 C 141.582031 203.417969 144.503906 201.949219 147.25 202.824219 C 149.960938 203.71875 151.429688 206.640625 150.554688 209.390625 Z M 140.535156 140.527344 C 141.429688 137.816406 144.351562 136.347656 147.101562 137.222656 C 149.808594 138.117188 151.28125 141.039062 150.40625 143.785156 C 149.511719 146.496094 146.585938 147.964844 143.839844 147.089844 C 141.089844 146.214844 139.660156 143.273438 140.535156 140.527344 Z M 104.417969 134.066406 C 107.128906 134.960938 108.597656 137.882812 107.722656 140.632812 C 106.828125 143.339844 103.90625 144.808594 101.160156 143.933594 C 98.449219 143.039062 96.980469 140.117188 97.855469 137.371094 C 98.75 134.660156 101.671875 133.191406 104.417969 134.066406 Z M 173.515625 206.0625 C 174.410156 203.355469 177.335938 201.882812 180.082031 202.757812 C 182.832031 203.632812 184.261719 206.574219 183.386719 209.324219 C 182.492188 212.03125 179.570312 213.503906 176.820312 212.628906 C 174.113281 211.734375 172.640625 208.808594 173.515625 206.0625 Z M 207.875 168.25 C 208.769531 165.542969 211.691406 164.070312 214.4375 164.945312 C 217.1875 165.820312 218.617188 168.765625 217.742188 171.511719 C 216.847656 174.21875 213.925781 175.691406 211.175781 174.816406 C 208.46875 173.921875 207 171 207.875 168.25 Z M 239.054688 173.078125 C 239.949219 170.371094 242.871094 168.902344 245.621094 169.777344 C 248.328125 170.671875 249.796875 173.59375 248.921875 176.339844 C 248.046875 179.089844 245.105469 180.519531 242.359375 179.644531 C 239.609375 178.769531 238.179688 175.828125 239.054688 173.078125 Z M 280.230469 230.378906 C 281.125 227.667969 284.050781 226.199219 286.796875 227.074219 C 289.503906 227.96875 290.976562 230.890625 290.101562 233.640625 C 289.226562 236.386719 286.285156 237.816406 283.535156 236.941406 C 280.789062 236.066406 279.355469 233.125 280.230469 230.378906 Z M 239.246094 238.660156 C 240.140625 235.953125 243.0625 234.484375 245.808594 235.359375 C 248.519531 236.253906 249.988281 239.175781 249.113281 241.921875 C 248.238281 244.671875 245.296875 246.101562 242.546875 245.226562 C 239.800781 244.351562 238.371094 241.410156 239.246094 238.660156 Z M 239.246094 238.660156 " fill-opacity="1" fill-rule="nonzero"/></g></g></g></svg>